M48
; DRILL file {KiCad (5.1.0)-1} date 5/25/2019 1:26:42 PM
; FORMAT={2:4/ absolute / inch / suppress leading zeros}
; #@! TF.CreationDate,2019-05-25T13:26:42-04:00
; #@! TF.GenerationSoftware,Kicad,Pcbnew,(5.1.0)-1
; #@! TF.FileFunction,Plated,1,2,PTH
FMAT,2
INCH,TZ
T1C0.0197
T2C0.0394
T3C0.1260
%
G90
G05
T2
X36417Y-19390
X37402Y-19390
X38386Y-19390
X24606Y-19390
X25591Y-19390
X26575Y-19390
X36417Y-27264
X37402Y-27264
X38386Y-27264
X27559Y-12730
X27559Y-13730
X28559Y-12830
X28559Y-13830
X29559Y-12730
X29559Y-13730
X30559Y-12830
X30559Y-13830
X31559Y-12730
X31559Y-13730
X32559Y-12830
X32559Y-13830
X33559Y-12730
X33559Y-13730
X34559Y-12830
X34559Y-13830
X35559Y-12730
X35559Y-13730
X40354Y-35138
X41339Y-35138
X42323Y-35138
X20669Y-35138
X21654Y-35138
X22638Y-35138
X24606Y-27264
X25591Y-27264
X26575Y-27264
T3
X19685Y-13780
X43307Y-13780
X43307Y-49213
X19685Y-49213
T1
G00X28720Y-49075
M15
G01X29154Y-49075
M16
G05
G00X32953Y-47008
M15
G01X32953Y-46575
M16
G05
G00X40531Y-49075
M15
G01X40965Y-49075
M16
G05
G00X21142Y-47008
M15
G01X21142Y-46575
M16
G05
G00X23248Y-45886
M15
G01X22815Y-45886
M16
G05
G00X22815Y-49075
M15
G01X23248Y-49075
M16
G05
G00X32953Y-40709
M15
G01X32953Y-40276
M16
G05
G00X35059Y-39587
M15
G01X34626Y-39587
M16
G05
G00X34626Y-42776
M15
G01X35059Y-42776
M16
G05
G00X32953Y-34409
M15
G01X32953Y-33976
M16
G05
G00X35059Y-33287
M15
G01X34626Y-33287
M16
G05
G00X34626Y-36476
M15
G01X35059Y-36476
M16
G05
G00X27047Y-40709
M15
G01X27047Y-40276
M16
G05
G00X29154Y-39587
M15
G01X28720Y-39587
M16
G05
G00X28720Y-42776
M15
G01X29154Y-42776
M16
G05
G00X38858Y-40709
M15
G01X38858Y-40276
M16
G05
G00X40965Y-39587
M15
G01X40531Y-39587
M16
G05
G00X40531Y-42776
M15
G01X40965Y-42776
M16
G05
G00X27047Y-47008
M15
G01X27047Y-46575
M16
G05
G00X29154Y-45886
M15
G01X28720Y-45886
M16
G05
G00X21142Y-40709
M15
G01X21142Y-40276
M16
G05
G00X23248Y-39587
M15
G01X22815Y-39587
M16
G05
G00X22815Y-42776
M15
G01X23248Y-42776
M16
G05
G00X35059Y-45886
M15
G01X34626Y-45886
M16
G05
G00X34626Y-49075
M15
G01X35059Y-49075
M16
G05
G00X38858Y-47008
M15
G01X38858Y-46575
M16
G05
G00X40965Y-45886
M15
G01X40531Y-45886
M16
G05
G00X27047Y-34409
M15
G01X27047Y-33976
M16
G05
G00X29154Y-33287
M15
G01X28720Y-33287
M16
G05
G00X28720Y-36476
M15
G01X29154Y-36476
M16
G05
T0
M30
