G04 #@! TF.GenerationSoftware,KiCad,Pcbnew,(5.1.0)-1*
G04 #@! TF.CreationDate,2019-05-25T13:26:40-04:00*
G04 #@! TF.ProjectId,VCO_2_RevB_Interface,56434f5f-325f-4526-9576-425f496e7465,rev?*
G04 #@! TF.SameCoordinates,Original*
G04 #@! TF.FileFunction,Copper,L2,Bot*
G04 #@! TF.FilePolarity,Positive*
%FSLAX46Y46*%
G04 Gerber Fmt 4.6, Leading zero omitted, Abs format (unit mm)*
G04 Created by KiCad (PCBNEW (5.1.0)-1) date 2019-05-25 13:26:40*
%MOMM*%
%LPD*%
G04 APERTURE LIST*
%ADD10O,2.100000X1.000000*%
%ADD11O,1.000000X2.100000*%
%ADD12C,1.800000*%
%ADD13C,4.000000*%
%ADD14C,4.064000*%
%ADD15R,1.700000X1.700000*%
%ADD16O,1.700000X1.700000*%
%ADD17C,0.250000*%
%ADD18C,0.254000*%
G04 APERTURE END LIST*
D10*
X73500000Y-108650000D03*
D11*
X68700000Y-102850000D03*
D10*
X73500000Y-100550000D03*
X58500000Y-108650000D03*
D11*
X53700000Y-102850000D03*
D10*
X58500000Y-100550000D03*
X58500000Y-124650000D03*
D11*
X53700000Y-118850000D03*
D10*
X58500000Y-116550000D03*
X103500000Y-124650000D03*
D11*
X98700000Y-118850000D03*
D10*
X103500000Y-116550000D03*
X88500000Y-124650000D03*
D11*
X83700000Y-118850000D03*
D10*
X88500000Y-116550000D03*
X73500000Y-124650000D03*
D11*
X68700000Y-118850000D03*
D10*
X73500000Y-116550000D03*
X73500000Y-92650000D03*
D11*
X68700000Y-86850000D03*
D10*
X73500000Y-84550000D03*
X88500000Y-92650000D03*
D11*
X83700000Y-86850000D03*
D10*
X88500000Y-84550000D03*
X88500000Y-108650000D03*
D11*
X83700000Y-102850000D03*
D10*
X88500000Y-100550000D03*
X103500000Y-108650000D03*
D11*
X98700000Y-102850000D03*
D10*
X103500000Y-100550000D03*
D12*
X97500000Y-49250000D03*
X95000000Y-49250000D03*
X92500000Y-49250000D03*
D13*
X99400000Y-42250000D03*
X90600000Y-42250000D03*
D12*
X67500000Y-49250000D03*
X65000000Y-49250000D03*
X62500000Y-49250000D03*
D13*
X69400000Y-42250000D03*
X60600000Y-42250000D03*
D12*
X107500000Y-89250000D03*
X105000000Y-89250000D03*
X102500000Y-89250000D03*
D13*
X109400000Y-82250000D03*
X100600000Y-82250000D03*
D12*
X57500000Y-89250000D03*
X55000000Y-89250000D03*
X52500000Y-89250000D03*
D13*
X59400000Y-82250000D03*
X50600000Y-82250000D03*
D12*
X67500000Y-69250000D03*
X65000000Y-69250000D03*
X62500000Y-69250000D03*
D13*
X69400000Y-62250000D03*
X60600000Y-62250000D03*
D12*
X97500000Y-69250000D03*
X95000000Y-69250000D03*
X92500000Y-69250000D03*
D13*
X99400000Y-62250000D03*
X90600000Y-62250000D03*
D14*
X110000000Y-125000000D03*
X50000000Y-125000000D03*
X110000000Y-35000000D03*
X50000000Y-35000000D03*
D15*
X70000000Y-34873000D03*
D16*
X70000000Y-32333000D03*
X72540000Y-35127000D03*
X72540000Y-32587000D03*
X75080000Y-34873000D03*
X75080000Y-32333000D03*
X77620000Y-35127000D03*
X77620000Y-32587000D03*
X80160000Y-34873000D03*
X80160000Y-32333000D03*
X82700000Y-35127000D03*
X82700000Y-32587000D03*
X85240000Y-34873000D03*
X85240000Y-32333000D03*
X87780000Y-35127000D03*
X87780000Y-32587000D03*
X90320000Y-34873000D03*
X90320000Y-32333000D03*
D17*
X84450000Y-118850000D02*
X83700000Y-118850000D01*
X88500000Y-122900000D02*
X84450000Y-118850000D01*
X88500000Y-124650000D02*
X88500000Y-122900000D01*
X54450000Y-102850000D02*
X53700000Y-102850000D01*
X58500000Y-106900000D02*
X54450000Y-102850000D01*
X58500000Y-108650000D02*
X58500000Y-106900000D01*
X88963000Y-32106700D02*
X88963000Y-33944000D01*
X87539300Y-30683000D02*
X88963000Y-32106700D01*
X68864400Y-30683000D02*
X87539300Y-30683000D01*
X88963000Y-33944000D02*
X87780000Y-35127000D01*
X53700000Y-118850000D02*
X53700000Y-117550000D01*
X52874700Y-116724700D02*
X52874700Y-95367700D01*
X53700000Y-117550000D02*
X52874700Y-116724700D01*
X52874700Y-95367700D02*
X56249900Y-91992500D01*
X56249900Y-91992500D02*
X56249900Y-43297500D01*
X56249900Y-43297500D02*
X68864400Y-30683000D01*
X67874700Y-86850000D02*
X68700000Y-86850000D01*
X66250000Y-85225300D02*
X67874700Y-86850000D01*
X87780000Y-32587000D02*
X86326400Y-31133400D01*
X86326400Y-31133400D02*
X69518100Y-31133400D01*
X69518100Y-31133400D02*
X68452500Y-32199000D01*
X61250500Y-57389100D02*
X66250000Y-62388600D01*
X68452500Y-32199000D02*
X68452500Y-38639200D01*
X68452500Y-38639200D02*
X61250500Y-45841200D01*
X66250000Y-62388600D02*
X66250000Y-85225300D01*
X61250500Y-45841200D02*
X61250500Y-57389100D01*
X78469999Y-35976999D02*
X77620000Y-35127000D01*
X78476999Y-35976999D02*
X78469999Y-35976999D01*
X95000000Y-69250000D02*
X95000000Y-61034900D01*
X95000000Y-61034900D02*
X98730900Y-57304000D01*
X98730900Y-57304000D02*
X98730900Y-48670600D01*
X98730900Y-48670600D02*
X96767700Y-46707400D01*
X96767700Y-46707400D02*
X89207400Y-46707400D01*
X89207400Y-46707400D02*
X78476999Y-35976999D01*
X62500000Y-49250000D02*
X63748700Y-50498700D01*
X63748700Y-50498700D02*
X91251300Y-50498700D01*
X91251300Y-50498700D02*
X92500000Y-49250000D01*
X97500000Y-49250000D02*
X96251500Y-50498500D01*
X96251500Y-50498500D02*
X94463900Y-50498500D01*
X94463900Y-50498500D02*
X93750000Y-49784600D01*
X93750000Y-49784600D02*
X93750000Y-48738300D01*
X93750000Y-48738300D02*
X93020700Y-48009000D01*
X93020700Y-48009000D02*
X68741000Y-48009000D01*
X68741000Y-48009000D02*
X67500000Y-49250000D01*
X83700000Y-86850000D02*
X82874700Y-86850000D01*
X57500000Y-89250000D02*
X80474700Y-89250000D01*
X80474700Y-89250000D02*
X82874700Y-86850000D01*
X84564500Y-85896500D02*
X67918000Y-69250000D01*
X67918000Y-69250000D02*
X67500000Y-69250000D01*
X84450000Y-102850000D02*
X83700000Y-102850000D01*
X88500000Y-106900000D02*
X84450000Y-102850000D01*
X88500000Y-108650000D02*
X88500000Y-106900000D01*
X83700000Y-96500000D02*
X84564500Y-95635500D01*
X83700000Y-102850000D02*
X83700000Y-96500000D01*
X84564500Y-95635500D02*
X84564500Y-85896500D01*
X99450000Y-102850000D02*
X98700000Y-102850000D01*
X103500000Y-106900000D02*
X99450000Y-102850000D01*
X103500000Y-108650000D02*
X103500000Y-106900000D01*
X106225400Y-54516800D02*
X106225400Y-87975400D01*
X90772600Y-39064000D02*
X106225400Y-54516800D01*
X81009999Y-33182999D02*
X81009999Y-33209999D01*
X80160000Y-32333000D02*
X81009999Y-33182999D01*
X81009999Y-33209999D02*
X81500000Y-33700000D01*
X81500000Y-33700000D02*
X81500000Y-35666002D01*
X81500000Y-35666002D02*
X84897998Y-39064000D01*
X106225400Y-87975400D02*
X107500000Y-89250000D01*
X84897998Y-39064000D02*
X90772600Y-39064000D01*
X71690001Y-35976999D02*
X71690001Y-36009999D01*
X72540000Y-35127000D02*
X71690001Y-35976999D01*
X68902510Y-38797490D02*
X68902509Y-38825601D01*
X71690001Y-36009999D02*
X68902510Y-38797490D01*
X65000000Y-42728110D02*
X65000000Y-43500000D01*
X68902509Y-38825601D02*
X65000000Y-42728110D01*
X65000000Y-43500000D02*
X65000000Y-49250000D01*
X73031100Y-33951600D02*
X73897000Y-34817500D01*
X73897000Y-34817500D02*
X73897000Y-35356000D01*
X73897000Y-35356000D02*
X85881000Y-47340000D01*
X85881000Y-47340000D02*
X93090000Y-47340000D01*
X93090000Y-47340000D02*
X95000000Y-49250000D01*
X72751201Y-33951999D02*
X72751600Y-33951600D01*
X71618999Y-33951999D02*
X72751201Y-33951999D01*
X70000000Y-32333000D02*
X71618999Y-33951999D01*
X72751600Y-33951600D02*
X73031100Y-33951600D01*
D18*
G36*
X55738898Y-42733701D02*
G01*
X55709900Y-42757499D01*
X55686102Y-42786497D01*
X55686101Y-42786498D01*
X55614926Y-42873224D01*
X55544354Y-43005254D01*
X55500898Y-43148515D01*
X55486224Y-43297500D01*
X55489901Y-43334833D01*
X55489900Y-87791451D01*
X55447743Y-87773989D01*
X55151184Y-87715000D01*
X54848816Y-87715000D01*
X54552257Y-87773989D01*
X54272905Y-87889701D01*
X54021495Y-88057688D01*
X53807688Y-88271495D01*
X53712262Y-88414310D01*
X53564080Y-88365525D01*
X52679605Y-89250000D01*
X53564080Y-90134475D01*
X53712262Y-90085690D01*
X53807688Y-90228505D01*
X54021495Y-90442312D01*
X54272905Y-90610299D01*
X54552257Y-90726011D01*
X54848816Y-90785000D01*
X55151184Y-90785000D01*
X55447743Y-90726011D01*
X55489900Y-90708549D01*
X55489900Y-91677698D01*
X52363698Y-94803901D01*
X52334700Y-94827699D01*
X52310902Y-94856697D01*
X52310901Y-94856698D01*
X52239726Y-94943424D01*
X52169154Y-95075454D01*
X52125698Y-95218715D01*
X52111024Y-95367700D01*
X52114701Y-95405033D01*
X52114700Y-116687378D01*
X52111024Y-116724700D01*
X52114700Y-116762022D01*
X52114700Y-116762032D01*
X52125697Y-116873685D01*
X52167047Y-117009999D01*
X52169154Y-117016946D01*
X52239726Y-117148976D01*
X52266355Y-117181423D01*
X52334699Y-117264701D01*
X52363702Y-117288503D01*
X52748184Y-117672986D01*
X52646324Y-117863553D01*
X52581423Y-118077501D01*
X52565000Y-118244248D01*
X52565000Y-119455751D01*
X52581423Y-119622498D01*
X52646324Y-119836446D01*
X52751716Y-120033623D01*
X52893551Y-120206449D01*
X53066377Y-120348284D01*
X53263553Y-120453676D01*
X53477501Y-120518577D01*
X53700000Y-120540491D01*
X53922498Y-120518577D01*
X54136446Y-120453676D01*
X54333623Y-120348284D01*
X54506449Y-120206449D01*
X54648284Y-120033623D01*
X54753676Y-119836447D01*
X54818577Y-119622499D01*
X54835000Y-119455752D01*
X54835000Y-118244248D01*
X67565000Y-118244248D01*
X67565000Y-119455751D01*
X67581423Y-119622498D01*
X67646324Y-119836446D01*
X67751716Y-120033623D01*
X67893551Y-120206449D01*
X68066377Y-120348284D01*
X68263553Y-120453676D01*
X68477501Y-120518577D01*
X68700000Y-120540491D01*
X68922498Y-120518577D01*
X69136446Y-120453676D01*
X69333623Y-120348284D01*
X69506449Y-120206449D01*
X69648284Y-120033623D01*
X69753676Y-119836447D01*
X69818577Y-119622499D01*
X69835000Y-119455752D01*
X69835000Y-118244248D01*
X82565000Y-118244248D01*
X82565000Y-119455751D01*
X82581423Y-119622498D01*
X82646324Y-119836446D01*
X82751716Y-120033623D01*
X82893551Y-120206449D01*
X83066377Y-120348284D01*
X83263553Y-120453676D01*
X83477501Y-120518577D01*
X83700000Y-120540491D01*
X83922498Y-120518577D01*
X84136446Y-120453676D01*
X84333623Y-120348284D01*
X84506449Y-120206449D01*
X84607958Y-120082760D01*
X87740001Y-123214803D01*
X87740001Y-123530192D01*
X87727501Y-123531423D01*
X87513553Y-123596324D01*
X87316377Y-123701716D01*
X87143551Y-123843551D01*
X87001716Y-124016377D01*
X86896324Y-124213553D01*
X86831423Y-124427501D01*
X86809509Y-124650000D01*
X86831423Y-124872499D01*
X86896324Y-125086447D01*
X87001716Y-125283623D01*
X87143551Y-125456449D01*
X87316377Y-125598284D01*
X87513553Y-125703676D01*
X87727501Y-125768577D01*
X87894248Y-125785000D01*
X89105752Y-125785000D01*
X89272499Y-125768577D01*
X89486447Y-125703676D01*
X89683623Y-125598284D01*
X89856449Y-125456449D01*
X89998284Y-125283623D01*
X90103676Y-125086447D01*
X90168577Y-124872499D01*
X90190491Y-124650000D01*
X101809509Y-124650000D01*
X101831423Y-124872499D01*
X101896324Y-125086447D01*
X102001716Y-125283623D01*
X102143551Y-125456449D01*
X102316377Y-125598284D01*
X102513553Y-125703676D01*
X102727501Y-125768577D01*
X102894248Y-125785000D01*
X104105752Y-125785000D01*
X104272499Y-125768577D01*
X104486447Y-125703676D01*
X104683623Y-125598284D01*
X104856449Y-125456449D01*
X104998284Y-125283623D01*
X105103676Y-125086447D01*
X105168577Y-124872499D01*
X105181890Y-124737323D01*
X107333000Y-124737323D01*
X107333000Y-125262677D01*
X107435492Y-125777935D01*
X107636536Y-126263298D01*
X107928406Y-126700113D01*
X108299887Y-127071594D01*
X108736702Y-127363464D01*
X109222065Y-127564508D01*
X109737323Y-127667000D01*
X110262677Y-127667000D01*
X110777935Y-127564508D01*
X111263298Y-127363464D01*
X111700113Y-127071594D01*
X112071594Y-126700113D01*
X112363464Y-126263298D01*
X112564508Y-125777935D01*
X112667000Y-125262677D01*
X112667000Y-124737323D01*
X112564508Y-124222065D01*
X112363464Y-123736702D01*
X112071594Y-123299887D01*
X111700113Y-122928406D01*
X111263298Y-122636536D01*
X110777935Y-122435492D01*
X110262677Y-122333000D01*
X109737323Y-122333000D01*
X109222065Y-122435492D01*
X108736702Y-122636536D01*
X108299887Y-122928406D01*
X107928406Y-123299887D01*
X107636536Y-123736702D01*
X107435492Y-124222065D01*
X107333000Y-124737323D01*
X105181890Y-124737323D01*
X105190491Y-124650000D01*
X105168577Y-124427501D01*
X105103676Y-124213553D01*
X104998284Y-124016377D01*
X104856449Y-123843551D01*
X104683623Y-123701716D01*
X104486447Y-123596324D01*
X104272499Y-123531423D01*
X104105752Y-123515000D01*
X102894248Y-123515000D01*
X102727501Y-123531423D01*
X102513553Y-123596324D01*
X102316377Y-123701716D01*
X102143551Y-123843551D01*
X102001716Y-124016377D01*
X101896324Y-124213553D01*
X101831423Y-124427501D01*
X101809509Y-124650000D01*
X90190491Y-124650000D01*
X90168577Y-124427501D01*
X90103676Y-124213553D01*
X89998284Y-124016377D01*
X89856449Y-123843551D01*
X89683623Y-123701716D01*
X89486447Y-123596324D01*
X89272499Y-123531423D01*
X89260000Y-123530192D01*
X89260000Y-122937323D01*
X89263676Y-122900000D01*
X89260000Y-122862677D01*
X89260000Y-122862667D01*
X89249003Y-122751014D01*
X89205546Y-122607753D01*
X89134974Y-122475723D01*
X89063799Y-122388997D01*
X89040001Y-122359999D01*
X89011003Y-122336201D01*
X85013804Y-118339003D01*
X84990001Y-118309999D01*
X84909884Y-118244248D01*
X97565000Y-118244248D01*
X97565000Y-119455751D01*
X97581423Y-119622498D01*
X97646324Y-119836446D01*
X97751716Y-120033623D01*
X97893551Y-120206449D01*
X98066377Y-120348284D01*
X98263553Y-120453676D01*
X98477501Y-120518577D01*
X98700000Y-120540491D01*
X98922498Y-120518577D01*
X99136446Y-120453676D01*
X99333623Y-120348284D01*
X99506449Y-120206449D01*
X99648284Y-120033623D01*
X99753676Y-119836447D01*
X99818577Y-119622499D01*
X99835000Y-119455752D01*
X99835000Y-118244248D01*
X99818577Y-118077501D01*
X99753676Y-117863553D01*
X99648284Y-117666377D01*
X99506449Y-117493551D01*
X99333623Y-117351716D01*
X99136447Y-117246324D01*
X98922499Y-117181423D01*
X98700000Y-117159509D01*
X98477502Y-117181423D01*
X98263554Y-117246324D01*
X98066378Y-117351716D01*
X97893552Y-117493551D01*
X97751717Y-117666377D01*
X97646324Y-117863553D01*
X97581423Y-118077501D01*
X97565000Y-118244248D01*
X84909884Y-118244248D01*
X84874276Y-118215026D01*
X84829779Y-118191242D01*
X84818577Y-118077501D01*
X84753676Y-117863553D01*
X84648284Y-117666377D01*
X84506449Y-117493551D01*
X84333623Y-117351716D01*
X84136447Y-117246324D01*
X83922499Y-117181423D01*
X83700000Y-117159509D01*
X83477502Y-117181423D01*
X83263554Y-117246324D01*
X83066378Y-117351716D01*
X82893552Y-117493551D01*
X82751717Y-117666377D01*
X82646324Y-117863553D01*
X82581423Y-118077501D01*
X82565000Y-118244248D01*
X69835000Y-118244248D01*
X69818577Y-118077501D01*
X69753676Y-117863553D01*
X69648284Y-117666377D01*
X69506449Y-117493551D01*
X69333623Y-117351716D01*
X69136447Y-117246324D01*
X68922499Y-117181423D01*
X68700000Y-117159509D01*
X68477502Y-117181423D01*
X68263554Y-117246324D01*
X68066378Y-117351716D01*
X67893552Y-117493551D01*
X67751717Y-117666377D01*
X67646324Y-117863553D01*
X67581423Y-118077501D01*
X67565000Y-118244248D01*
X54835000Y-118244248D01*
X54818577Y-118077501D01*
X54753676Y-117863553D01*
X54648284Y-117666377D01*
X54506449Y-117493551D01*
X54453867Y-117450398D01*
X54449003Y-117401014D01*
X54405546Y-117257753D01*
X54334974Y-117125724D01*
X54321811Y-117109685D01*
X54263799Y-117038996D01*
X54263795Y-117038992D01*
X54240001Y-117009999D01*
X54211008Y-116986205D01*
X54076677Y-116851874D01*
X56855881Y-116851874D01*
X56935724Y-117074976D01*
X57057631Y-117262764D01*
X57213831Y-117423161D01*
X57398322Y-117550003D01*
X57604013Y-117638415D01*
X57823000Y-117685000D01*
X58373000Y-117685000D01*
X58373000Y-116677000D01*
X58627000Y-116677000D01*
X58627000Y-117685000D01*
X59177000Y-117685000D01*
X59395987Y-117638415D01*
X59601678Y-117550003D01*
X59786169Y-117423161D01*
X59942369Y-117262764D01*
X60064276Y-117074976D01*
X60144119Y-116851874D01*
X71855881Y-116851874D01*
X71935724Y-117074976D01*
X72057631Y-117262764D01*
X72213831Y-117423161D01*
X72398322Y-117550003D01*
X72604013Y-117638415D01*
X72823000Y-117685000D01*
X73373000Y-117685000D01*
X73373000Y-116677000D01*
X73627000Y-116677000D01*
X73627000Y-117685000D01*
X74177000Y-117685000D01*
X74395987Y-117638415D01*
X74601678Y-117550003D01*
X74786169Y-117423161D01*
X74942369Y-117262764D01*
X75064276Y-117074976D01*
X75144119Y-116851874D01*
X86855881Y-116851874D01*
X86935724Y-117074976D01*
X87057631Y-117262764D01*
X87213831Y-117423161D01*
X87398322Y-117550003D01*
X87604013Y-117638415D01*
X87823000Y-117685000D01*
X88373000Y-117685000D01*
X88373000Y-116677000D01*
X88627000Y-116677000D01*
X88627000Y-117685000D01*
X89177000Y-117685000D01*
X89395987Y-117638415D01*
X89601678Y-117550003D01*
X89786169Y-117423161D01*
X89942369Y-117262764D01*
X90064276Y-117074976D01*
X90144119Y-116851874D01*
X101855881Y-116851874D01*
X101935724Y-117074976D01*
X102057631Y-117262764D01*
X102213831Y-117423161D01*
X102398322Y-117550003D01*
X102604013Y-117638415D01*
X102823000Y-117685000D01*
X103373000Y-117685000D01*
X103373000Y-116677000D01*
X103627000Y-116677000D01*
X103627000Y-117685000D01*
X104177000Y-117685000D01*
X104395987Y-117638415D01*
X104601678Y-117550003D01*
X104786169Y-117423161D01*
X104942369Y-117262764D01*
X105064276Y-117074976D01*
X105144119Y-116851874D01*
X105017954Y-116677000D01*
X103627000Y-116677000D01*
X103373000Y-116677000D01*
X101982046Y-116677000D01*
X101855881Y-116851874D01*
X90144119Y-116851874D01*
X90017954Y-116677000D01*
X88627000Y-116677000D01*
X88373000Y-116677000D01*
X86982046Y-116677000D01*
X86855881Y-116851874D01*
X75144119Y-116851874D01*
X75017954Y-116677000D01*
X73627000Y-116677000D01*
X73373000Y-116677000D01*
X71982046Y-116677000D01*
X71855881Y-116851874D01*
X60144119Y-116851874D01*
X60017954Y-116677000D01*
X58627000Y-116677000D01*
X58373000Y-116677000D01*
X56982046Y-116677000D01*
X56855881Y-116851874D01*
X54076677Y-116851874D01*
X53634700Y-116409898D01*
X53634700Y-116248126D01*
X56855881Y-116248126D01*
X56982046Y-116423000D01*
X58373000Y-116423000D01*
X58373000Y-116403000D01*
X58627000Y-116403000D01*
X58627000Y-116423000D01*
X60017954Y-116423000D01*
X60144119Y-116248126D01*
X71855881Y-116248126D01*
X71982046Y-116423000D01*
X73373000Y-116423000D01*
X73373000Y-116403000D01*
X73627000Y-116403000D01*
X73627000Y-116423000D01*
X75017954Y-116423000D01*
X75144119Y-116248126D01*
X86855881Y-116248126D01*
X86982046Y-116423000D01*
X88373000Y-116423000D01*
X88373000Y-116403000D01*
X88627000Y-116403000D01*
X88627000Y-116423000D01*
X90017954Y-116423000D01*
X90144119Y-116248126D01*
X101855881Y-116248126D01*
X101982046Y-116423000D01*
X103373000Y-116423000D01*
X103373000Y-116403000D01*
X103627000Y-116403000D01*
X103627000Y-116423000D01*
X105017954Y-116423000D01*
X105144119Y-116248126D01*
X105064276Y-116025024D01*
X104942369Y-115837236D01*
X104786169Y-115676839D01*
X104601678Y-115549997D01*
X104395987Y-115461585D01*
X104177000Y-115415000D01*
X102823000Y-115415000D01*
X102604013Y-115461585D01*
X102398322Y-115549997D01*
X102213831Y-115676839D01*
X102057631Y-115837236D01*
X101935724Y-116025024D01*
X101855881Y-116248126D01*
X90144119Y-116248126D01*
X90064276Y-116025024D01*
X89942369Y-115837236D01*
X89786169Y-115676839D01*
X89601678Y-115549997D01*
X89395987Y-115461585D01*
X89177000Y-115415000D01*
X87823000Y-115415000D01*
X87604013Y-115461585D01*
X87398322Y-115549997D01*
X87213831Y-115676839D01*
X87057631Y-115837236D01*
X86935724Y-116025024D01*
X86855881Y-116248126D01*
X75144119Y-116248126D01*
X75064276Y-116025024D01*
X74942369Y-115837236D01*
X74786169Y-115676839D01*
X74601678Y-115549997D01*
X74395987Y-115461585D01*
X74177000Y-115415000D01*
X72823000Y-115415000D01*
X72604013Y-115461585D01*
X72398322Y-115549997D01*
X72213831Y-115676839D01*
X72057631Y-115837236D01*
X71935724Y-116025024D01*
X71855881Y-116248126D01*
X60144119Y-116248126D01*
X60064276Y-116025024D01*
X59942369Y-115837236D01*
X59786169Y-115676839D01*
X59601678Y-115549997D01*
X59395987Y-115461585D01*
X59177000Y-115415000D01*
X57823000Y-115415000D01*
X57604013Y-115461585D01*
X57398322Y-115549997D01*
X57213831Y-115676839D01*
X57057631Y-115837236D01*
X56935724Y-116025024D01*
X56855881Y-116248126D01*
X53634700Y-116248126D01*
X53634700Y-104534060D01*
X53700000Y-104540491D01*
X53922498Y-104518577D01*
X54136446Y-104453676D01*
X54333623Y-104348284D01*
X54506449Y-104206449D01*
X54607958Y-104082760D01*
X57740001Y-107214803D01*
X57740001Y-107530192D01*
X57727501Y-107531423D01*
X57513553Y-107596324D01*
X57316377Y-107701716D01*
X57143551Y-107843551D01*
X57001716Y-108016377D01*
X56896324Y-108213553D01*
X56831423Y-108427501D01*
X56809509Y-108650000D01*
X56831423Y-108872499D01*
X56896324Y-109086447D01*
X57001716Y-109283623D01*
X57143551Y-109456449D01*
X57316377Y-109598284D01*
X57513553Y-109703676D01*
X57727501Y-109768577D01*
X57894248Y-109785000D01*
X59105752Y-109785000D01*
X59272499Y-109768577D01*
X59486447Y-109703676D01*
X59683623Y-109598284D01*
X59856449Y-109456449D01*
X59998284Y-109283623D01*
X60103676Y-109086447D01*
X60168577Y-108872499D01*
X60190491Y-108650000D01*
X71809509Y-108650000D01*
X71831423Y-108872499D01*
X71896324Y-109086447D01*
X72001716Y-109283623D01*
X72143551Y-109456449D01*
X72316377Y-109598284D01*
X72513553Y-109703676D01*
X72727501Y-109768577D01*
X72894248Y-109785000D01*
X74105752Y-109785000D01*
X74272499Y-109768577D01*
X74486447Y-109703676D01*
X74683623Y-109598284D01*
X74856449Y-109456449D01*
X74998284Y-109283623D01*
X75103676Y-109086447D01*
X75168577Y-108872499D01*
X75190491Y-108650000D01*
X75168577Y-108427501D01*
X75103676Y-108213553D01*
X74998284Y-108016377D01*
X74856449Y-107843551D01*
X74683623Y-107701716D01*
X74486447Y-107596324D01*
X74272499Y-107531423D01*
X74105752Y-107515000D01*
X72894248Y-107515000D01*
X72727501Y-107531423D01*
X72513553Y-107596324D01*
X72316377Y-107701716D01*
X72143551Y-107843551D01*
X72001716Y-108016377D01*
X71896324Y-108213553D01*
X71831423Y-108427501D01*
X71809509Y-108650000D01*
X60190491Y-108650000D01*
X60168577Y-108427501D01*
X60103676Y-108213553D01*
X59998284Y-108016377D01*
X59856449Y-107843551D01*
X59683623Y-107701716D01*
X59486447Y-107596324D01*
X59272499Y-107531423D01*
X59260000Y-107530192D01*
X59260000Y-106937323D01*
X59263676Y-106900000D01*
X59260000Y-106862677D01*
X59260000Y-106862667D01*
X59249003Y-106751014D01*
X59205546Y-106607753D01*
X59134974Y-106475723D01*
X59063799Y-106388997D01*
X59040001Y-106359999D01*
X59011003Y-106336201D01*
X55013804Y-102339003D01*
X54990001Y-102309999D01*
X54909884Y-102244248D01*
X67565000Y-102244248D01*
X67565000Y-103455751D01*
X67581423Y-103622498D01*
X67646324Y-103836446D01*
X67751716Y-104033623D01*
X67893551Y-104206449D01*
X68066377Y-104348284D01*
X68263553Y-104453676D01*
X68477501Y-104518577D01*
X68700000Y-104540491D01*
X68922498Y-104518577D01*
X69136446Y-104453676D01*
X69333623Y-104348284D01*
X69506449Y-104206449D01*
X69648284Y-104033623D01*
X69753676Y-103836447D01*
X69818577Y-103622499D01*
X69835000Y-103455752D01*
X69835000Y-102244248D01*
X69818577Y-102077501D01*
X69753676Y-101863553D01*
X69648284Y-101666377D01*
X69506449Y-101493551D01*
X69333623Y-101351716D01*
X69136447Y-101246324D01*
X68922499Y-101181423D01*
X68700000Y-101159509D01*
X68477502Y-101181423D01*
X68263554Y-101246324D01*
X68066378Y-101351716D01*
X67893552Y-101493551D01*
X67751717Y-101666377D01*
X67646324Y-101863553D01*
X67581423Y-102077501D01*
X67565000Y-102244248D01*
X54909884Y-102244248D01*
X54874276Y-102215026D01*
X54829779Y-102191242D01*
X54818577Y-102077501D01*
X54753676Y-101863553D01*
X54648284Y-101666377D01*
X54506449Y-101493551D01*
X54333623Y-101351716D01*
X54136447Y-101246324D01*
X53922499Y-101181423D01*
X53700000Y-101159509D01*
X53634700Y-101165940D01*
X53634700Y-100851874D01*
X56855881Y-100851874D01*
X56935724Y-101074976D01*
X57057631Y-101262764D01*
X57213831Y-101423161D01*
X57398322Y-101550003D01*
X57604013Y-101638415D01*
X57823000Y-101685000D01*
X58373000Y-101685000D01*
X58373000Y-100677000D01*
X58627000Y-100677000D01*
X58627000Y-101685000D01*
X59177000Y-101685000D01*
X59395987Y-101638415D01*
X59601678Y-101550003D01*
X59786169Y-101423161D01*
X59942369Y-101262764D01*
X60064276Y-101074976D01*
X60144119Y-100851874D01*
X71855881Y-100851874D01*
X71935724Y-101074976D01*
X72057631Y-101262764D01*
X72213831Y-101423161D01*
X72398322Y-101550003D01*
X72604013Y-101638415D01*
X72823000Y-101685000D01*
X73373000Y-101685000D01*
X73373000Y-100677000D01*
X73627000Y-100677000D01*
X73627000Y-101685000D01*
X74177000Y-101685000D01*
X74395987Y-101638415D01*
X74601678Y-101550003D01*
X74786169Y-101423161D01*
X74942369Y-101262764D01*
X75064276Y-101074976D01*
X75144119Y-100851874D01*
X75017954Y-100677000D01*
X73627000Y-100677000D01*
X73373000Y-100677000D01*
X71982046Y-100677000D01*
X71855881Y-100851874D01*
X60144119Y-100851874D01*
X60017954Y-100677000D01*
X58627000Y-100677000D01*
X58373000Y-100677000D01*
X56982046Y-100677000D01*
X56855881Y-100851874D01*
X53634700Y-100851874D01*
X53634700Y-100248126D01*
X56855881Y-100248126D01*
X56982046Y-100423000D01*
X58373000Y-100423000D01*
X58373000Y-100403000D01*
X58627000Y-100403000D01*
X58627000Y-100423000D01*
X60017954Y-100423000D01*
X60144119Y-100248126D01*
X71855881Y-100248126D01*
X71982046Y-100423000D01*
X73373000Y-100423000D01*
X73373000Y-100403000D01*
X73627000Y-100403000D01*
X73627000Y-100423000D01*
X75017954Y-100423000D01*
X75144119Y-100248126D01*
X75064276Y-100025024D01*
X74942369Y-99837236D01*
X74786169Y-99676839D01*
X74601678Y-99549997D01*
X74395987Y-99461585D01*
X74177000Y-99415000D01*
X72823000Y-99415000D01*
X72604013Y-99461585D01*
X72398322Y-99549997D01*
X72213831Y-99676839D01*
X72057631Y-99837236D01*
X71935724Y-100025024D01*
X71855881Y-100248126D01*
X60144119Y-100248126D01*
X60064276Y-100025024D01*
X59942369Y-99837236D01*
X59786169Y-99676839D01*
X59601678Y-99549997D01*
X59395987Y-99461585D01*
X59177000Y-99415000D01*
X57823000Y-99415000D01*
X57604013Y-99461585D01*
X57398322Y-99549997D01*
X57213831Y-99676839D01*
X57057631Y-99837236D01*
X56935724Y-100025024D01*
X56855881Y-100248126D01*
X53634700Y-100248126D01*
X53634700Y-95682501D01*
X56667201Y-92650000D01*
X71809509Y-92650000D01*
X71831423Y-92872499D01*
X71896324Y-93086447D01*
X72001716Y-93283623D01*
X72143551Y-93456449D01*
X72316377Y-93598284D01*
X72513553Y-93703676D01*
X72727501Y-93768577D01*
X72894248Y-93785000D01*
X74105752Y-93785000D01*
X74272499Y-93768577D01*
X74486447Y-93703676D01*
X74683623Y-93598284D01*
X74856449Y-93456449D01*
X74998284Y-93283623D01*
X75103676Y-93086447D01*
X75168577Y-92872499D01*
X75190491Y-92650000D01*
X75168577Y-92427501D01*
X75103676Y-92213553D01*
X74998284Y-92016377D01*
X74856449Y-91843551D01*
X74683623Y-91701716D01*
X74486447Y-91596324D01*
X74272499Y-91531423D01*
X74105752Y-91515000D01*
X72894248Y-91515000D01*
X72727501Y-91531423D01*
X72513553Y-91596324D01*
X72316377Y-91701716D01*
X72143551Y-91843551D01*
X72001716Y-92016377D01*
X71896324Y-92213553D01*
X71831423Y-92427501D01*
X71809509Y-92650000D01*
X56667201Y-92650000D01*
X56760904Y-92556298D01*
X56789901Y-92532501D01*
X56884874Y-92416776D01*
X56955446Y-92284747D01*
X56998903Y-92141486D01*
X57009900Y-92029833D01*
X57009900Y-92029832D01*
X57013577Y-91992500D01*
X57009900Y-91955167D01*
X57009900Y-90708466D01*
X57052257Y-90726011D01*
X57348816Y-90785000D01*
X57651184Y-90785000D01*
X57947743Y-90726011D01*
X58227095Y-90610299D01*
X58478505Y-90442312D01*
X58692312Y-90228505D01*
X58838313Y-90010000D01*
X80437378Y-90010000D01*
X80474700Y-90013676D01*
X80512022Y-90010000D01*
X80512033Y-90010000D01*
X80623686Y-89999003D01*
X80766947Y-89955546D01*
X80898976Y-89884974D01*
X81014701Y-89790001D01*
X81038504Y-89760997D01*
X82758100Y-88041402D01*
X82893551Y-88206449D01*
X83066377Y-88348284D01*
X83263553Y-88453676D01*
X83477501Y-88518577D01*
X83700000Y-88540491D01*
X83804501Y-88530199D01*
X83804500Y-95320698D01*
X83188998Y-95936201D01*
X83160000Y-95959999D01*
X83136202Y-95988997D01*
X83136201Y-95988998D01*
X83065026Y-96075724D01*
X82994454Y-96207754D01*
X82950998Y-96351015D01*
X82936324Y-96500000D01*
X82940001Y-96537332D01*
X82940000Y-101455432D01*
X82893552Y-101493551D01*
X82751717Y-101666377D01*
X82646324Y-101863553D01*
X82581423Y-102077501D01*
X82565000Y-102244248D01*
X82565000Y-103455751D01*
X82581423Y-103622498D01*
X82646324Y-103836446D01*
X82751716Y-104033623D01*
X82893551Y-104206449D01*
X83066377Y-104348284D01*
X83263553Y-104453676D01*
X83477501Y-104518577D01*
X83700000Y-104540491D01*
X83922498Y-104518577D01*
X84136446Y-104453676D01*
X84333623Y-104348284D01*
X84506449Y-104206449D01*
X84607958Y-104082760D01*
X87740001Y-107214803D01*
X87740001Y-107530192D01*
X87727501Y-107531423D01*
X87513553Y-107596324D01*
X87316377Y-107701716D01*
X87143551Y-107843551D01*
X87001716Y-108016377D01*
X86896324Y-108213553D01*
X86831423Y-108427501D01*
X86809509Y-108650000D01*
X86831423Y-108872499D01*
X86896324Y-109086447D01*
X87001716Y-109283623D01*
X87143551Y-109456449D01*
X87316377Y-109598284D01*
X87513553Y-109703676D01*
X87727501Y-109768577D01*
X87894248Y-109785000D01*
X89105752Y-109785000D01*
X89272499Y-109768577D01*
X89486447Y-109703676D01*
X89683623Y-109598284D01*
X89856449Y-109456449D01*
X89998284Y-109283623D01*
X90103676Y-109086447D01*
X90168577Y-108872499D01*
X90190491Y-108650000D01*
X90168577Y-108427501D01*
X90103676Y-108213553D01*
X89998284Y-108016377D01*
X89856449Y-107843551D01*
X89683623Y-107701716D01*
X89486447Y-107596324D01*
X89272499Y-107531423D01*
X89260000Y-107530192D01*
X89260000Y-106937323D01*
X89263676Y-106900000D01*
X89260000Y-106862677D01*
X89260000Y-106862667D01*
X89249003Y-106751014D01*
X89205546Y-106607753D01*
X89134974Y-106475723D01*
X89063799Y-106388997D01*
X89040001Y-106359999D01*
X89011003Y-106336201D01*
X85013804Y-102339003D01*
X84990001Y-102309999D01*
X84909884Y-102244248D01*
X97565000Y-102244248D01*
X97565000Y-103455751D01*
X97581423Y-103622498D01*
X97646324Y-103836446D01*
X97751716Y-104033623D01*
X97893551Y-104206449D01*
X98066377Y-104348284D01*
X98263553Y-104453676D01*
X98477501Y-104518577D01*
X98700000Y-104540491D01*
X98922498Y-104518577D01*
X99136446Y-104453676D01*
X99333623Y-104348284D01*
X99506449Y-104206449D01*
X99607958Y-104082760D01*
X102740001Y-107214803D01*
X102740001Y-107530192D01*
X102727501Y-107531423D01*
X102513553Y-107596324D01*
X102316377Y-107701716D01*
X102143551Y-107843551D01*
X102001716Y-108016377D01*
X101896324Y-108213553D01*
X101831423Y-108427501D01*
X101809509Y-108650000D01*
X101831423Y-108872499D01*
X101896324Y-109086447D01*
X102001716Y-109283623D01*
X102143551Y-109456449D01*
X102316377Y-109598284D01*
X102513553Y-109703676D01*
X102727501Y-109768577D01*
X102894248Y-109785000D01*
X104105752Y-109785000D01*
X104272499Y-109768577D01*
X104486447Y-109703676D01*
X104683623Y-109598284D01*
X104856449Y-109456449D01*
X104998284Y-109283623D01*
X105103676Y-109086447D01*
X105168577Y-108872499D01*
X105190491Y-108650000D01*
X105168577Y-108427501D01*
X105103676Y-108213553D01*
X104998284Y-108016377D01*
X104856449Y-107843551D01*
X104683623Y-107701716D01*
X104486447Y-107596324D01*
X104272499Y-107531423D01*
X104260000Y-107530192D01*
X104260000Y-106937323D01*
X104263676Y-106900000D01*
X104260000Y-106862677D01*
X104260000Y-106862667D01*
X104249003Y-106751014D01*
X104205546Y-106607753D01*
X104134974Y-106475723D01*
X104063799Y-106388997D01*
X104040001Y-106359999D01*
X104011003Y-106336201D01*
X100013804Y-102339003D01*
X99990001Y-102309999D01*
X99874276Y-102215026D01*
X99829779Y-102191242D01*
X99818577Y-102077501D01*
X99753676Y-101863553D01*
X99648284Y-101666377D01*
X99506449Y-101493551D01*
X99333623Y-101351716D01*
X99136447Y-101246324D01*
X98922499Y-101181423D01*
X98700000Y-101159509D01*
X98477502Y-101181423D01*
X98263554Y-101246324D01*
X98066378Y-101351716D01*
X97893552Y-101493551D01*
X97751717Y-101666377D01*
X97646324Y-101863553D01*
X97581423Y-102077501D01*
X97565000Y-102244248D01*
X84909884Y-102244248D01*
X84874276Y-102215026D01*
X84829779Y-102191242D01*
X84818577Y-102077501D01*
X84753676Y-101863553D01*
X84648284Y-101666377D01*
X84506449Y-101493551D01*
X84460000Y-101455431D01*
X84460000Y-100851874D01*
X86855881Y-100851874D01*
X86935724Y-101074976D01*
X87057631Y-101262764D01*
X87213831Y-101423161D01*
X87398322Y-101550003D01*
X87604013Y-101638415D01*
X87823000Y-101685000D01*
X88373000Y-101685000D01*
X88373000Y-100677000D01*
X88627000Y-100677000D01*
X88627000Y-101685000D01*
X89177000Y-101685000D01*
X89395987Y-101638415D01*
X89601678Y-101550003D01*
X89786169Y-101423161D01*
X89942369Y-101262764D01*
X90064276Y-101074976D01*
X90144119Y-100851874D01*
X101855881Y-100851874D01*
X101935724Y-101074976D01*
X102057631Y-101262764D01*
X102213831Y-101423161D01*
X102398322Y-101550003D01*
X102604013Y-101638415D01*
X102823000Y-101685000D01*
X103373000Y-101685000D01*
X103373000Y-100677000D01*
X103627000Y-100677000D01*
X103627000Y-101685000D01*
X104177000Y-101685000D01*
X104395987Y-101638415D01*
X104601678Y-101550003D01*
X104786169Y-101423161D01*
X104942369Y-101262764D01*
X105064276Y-101074976D01*
X105144119Y-100851874D01*
X105017954Y-100677000D01*
X103627000Y-100677000D01*
X103373000Y-100677000D01*
X101982046Y-100677000D01*
X101855881Y-100851874D01*
X90144119Y-100851874D01*
X90017954Y-100677000D01*
X88627000Y-100677000D01*
X88373000Y-100677000D01*
X86982046Y-100677000D01*
X86855881Y-100851874D01*
X84460000Y-100851874D01*
X84460000Y-100248126D01*
X86855881Y-100248126D01*
X86982046Y-100423000D01*
X88373000Y-100423000D01*
X88373000Y-100403000D01*
X88627000Y-100403000D01*
X88627000Y-100423000D01*
X90017954Y-100423000D01*
X90144119Y-100248126D01*
X101855881Y-100248126D01*
X101982046Y-100423000D01*
X103373000Y-100423000D01*
X103373000Y-100403000D01*
X103627000Y-100403000D01*
X103627000Y-100423000D01*
X105017954Y-100423000D01*
X105144119Y-100248126D01*
X105064276Y-100025024D01*
X104942369Y-99837236D01*
X104786169Y-99676839D01*
X104601678Y-99549997D01*
X104395987Y-99461585D01*
X104177000Y-99415000D01*
X102823000Y-99415000D01*
X102604013Y-99461585D01*
X102398322Y-99549997D01*
X102213831Y-99676839D01*
X102057631Y-99837236D01*
X101935724Y-100025024D01*
X101855881Y-100248126D01*
X90144119Y-100248126D01*
X90064276Y-100025024D01*
X89942369Y-99837236D01*
X89786169Y-99676839D01*
X89601678Y-99549997D01*
X89395987Y-99461585D01*
X89177000Y-99415000D01*
X87823000Y-99415000D01*
X87604013Y-99461585D01*
X87398322Y-99549997D01*
X87213831Y-99676839D01*
X87057631Y-99837236D01*
X86935724Y-100025024D01*
X86855881Y-100248126D01*
X84460000Y-100248126D01*
X84460000Y-96814801D01*
X85075504Y-96199298D01*
X85104501Y-96175501D01*
X85199474Y-96059776D01*
X85270046Y-95927747D01*
X85313503Y-95784486D01*
X85324500Y-95672833D01*
X85324500Y-95672832D01*
X85328177Y-95635500D01*
X85324500Y-95598167D01*
X85324500Y-92650000D01*
X86809509Y-92650000D01*
X86831423Y-92872499D01*
X86896324Y-93086447D01*
X87001716Y-93283623D01*
X87143551Y-93456449D01*
X87316377Y-93598284D01*
X87513553Y-93703676D01*
X87727501Y-93768577D01*
X87894248Y-93785000D01*
X89105752Y-93785000D01*
X89272499Y-93768577D01*
X89486447Y-93703676D01*
X89683623Y-93598284D01*
X89856449Y-93456449D01*
X89998284Y-93283623D01*
X90103676Y-93086447D01*
X90168577Y-92872499D01*
X90190491Y-92650000D01*
X90168577Y-92427501D01*
X90103676Y-92213553D01*
X89998284Y-92016377D01*
X89856449Y-91843551D01*
X89683623Y-91701716D01*
X89486447Y-91596324D01*
X89272499Y-91531423D01*
X89105752Y-91515000D01*
X87894248Y-91515000D01*
X87727501Y-91531423D01*
X87513553Y-91596324D01*
X87316377Y-91701716D01*
X87143551Y-91843551D01*
X87001716Y-92016377D01*
X86896324Y-92213553D01*
X86831423Y-92427501D01*
X86809509Y-92650000D01*
X85324500Y-92650000D01*
X85324500Y-85933822D01*
X85328176Y-85896499D01*
X85324500Y-85859176D01*
X85324500Y-85859167D01*
X85313503Y-85747514D01*
X85270046Y-85604253D01*
X85199474Y-85472223D01*
X85128299Y-85385497D01*
X85104501Y-85356499D01*
X85075503Y-85332701D01*
X84594676Y-84851874D01*
X86855881Y-84851874D01*
X86935724Y-85074976D01*
X87057631Y-85262764D01*
X87213831Y-85423161D01*
X87398322Y-85550003D01*
X87604013Y-85638415D01*
X87823000Y-85685000D01*
X88373000Y-85685000D01*
X88373000Y-84677000D01*
X88627000Y-84677000D01*
X88627000Y-85685000D01*
X89177000Y-85685000D01*
X89395987Y-85638415D01*
X89601678Y-85550003D01*
X89786169Y-85423161D01*
X89942369Y-85262764D01*
X90064276Y-85074976D01*
X90144119Y-84851874D01*
X90017954Y-84677000D01*
X88627000Y-84677000D01*
X88373000Y-84677000D01*
X86982046Y-84677000D01*
X86855881Y-84851874D01*
X84594676Y-84851874D01*
X83990928Y-84248126D01*
X86855881Y-84248126D01*
X86982046Y-84423000D01*
X88373000Y-84423000D01*
X88373000Y-84403000D01*
X88627000Y-84403000D01*
X88627000Y-84423000D01*
X90017954Y-84423000D01*
X90144119Y-84248126D01*
X90064276Y-84025024D01*
X89942369Y-83837236D01*
X89786169Y-83676839D01*
X89601678Y-83549997D01*
X89395987Y-83461585D01*
X89177000Y-83415000D01*
X87823000Y-83415000D01*
X87604013Y-83461585D01*
X87398322Y-83549997D01*
X87213831Y-83676839D01*
X87057631Y-83837236D01*
X86935724Y-84025024D01*
X86855881Y-84248126D01*
X83990928Y-84248126D01*
X81733277Y-81990475D01*
X97965000Y-81990475D01*
X97965000Y-82509525D01*
X98066261Y-83018601D01*
X98264893Y-83498141D01*
X98553262Y-83929715D01*
X98920285Y-84296738D01*
X99351859Y-84585107D01*
X99831399Y-84783739D01*
X100340475Y-84885000D01*
X100859525Y-84885000D01*
X101368601Y-84783739D01*
X101848141Y-84585107D01*
X102279715Y-84296738D01*
X102646738Y-83929715D01*
X102935107Y-83498141D01*
X103133739Y-83018601D01*
X103235000Y-82509525D01*
X103235000Y-81990475D01*
X103133739Y-81481399D01*
X102935107Y-81001859D01*
X102646738Y-80570285D01*
X102279715Y-80203262D01*
X101848141Y-79914893D01*
X101368601Y-79716261D01*
X100859525Y-79615000D01*
X100340475Y-79615000D01*
X99831399Y-79716261D01*
X99351859Y-79914893D01*
X98920285Y-80203262D01*
X98553262Y-80570285D01*
X98264893Y-81001859D01*
X98066261Y-81481399D01*
X97965000Y-81990475D01*
X81733277Y-81990475D01*
X70056882Y-70314080D01*
X91615525Y-70314080D01*
X91699208Y-70568261D01*
X91971775Y-70699158D01*
X92264642Y-70774365D01*
X92566553Y-70790991D01*
X92865907Y-70748397D01*
X93151199Y-70648222D01*
X93300792Y-70568261D01*
X93384475Y-70314080D01*
X92500000Y-69429605D01*
X91615525Y-70314080D01*
X70056882Y-70314080D01*
X69059355Y-69316553D01*
X90959009Y-69316553D01*
X91001603Y-69615907D01*
X91101778Y-69901199D01*
X91181739Y-70050792D01*
X91435920Y-70134475D01*
X92320395Y-69250000D01*
X91435920Y-68365525D01*
X91181739Y-68449208D01*
X91050842Y-68721775D01*
X90975635Y-69014642D01*
X90959009Y-69316553D01*
X69059355Y-69316553D01*
X69035000Y-69292199D01*
X69035000Y-69098816D01*
X68976011Y-68802257D01*
X68860299Y-68522905D01*
X68692312Y-68271495D01*
X68606737Y-68185920D01*
X91615525Y-68185920D01*
X92500000Y-69070395D01*
X93384475Y-68185920D01*
X93300792Y-67931739D01*
X93028225Y-67800842D01*
X92735358Y-67725635D01*
X92433447Y-67709009D01*
X92134093Y-67751603D01*
X91848801Y-67851778D01*
X91699208Y-67931739D01*
X91615525Y-68185920D01*
X68606737Y-68185920D01*
X68478505Y-68057688D01*
X68227095Y-67889701D01*
X67947743Y-67773989D01*
X67651184Y-67715000D01*
X67348816Y-67715000D01*
X67052257Y-67773989D01*
X67010000Y-67791493D01*
X67010000Y-63365618D01*
X67064893Y-63498141D01*
X67353262Y-63929715D01*
X67720285Y-64296738D01*
X68151859Y-64585107D01*
X68631399Y-64783739D01*
X69140475Y-64885000D01*
X69659525Y-64885000D01*
X70168601Y-64783739D01*
X70648141Y-64585107D01*
X71079715Y-64296738D01*
X71446738Y-63929715D01*
X71735107Y-63498141D01*
X71933739Y-63018601D01*
X72035000Y-62509525D01*
X72035000Y-61990475D01*
X87965000Y-61990475D01*
X87965000Y-62509525D01*
X88066261Y-63018601D01*
X88264893Y-63498141D01*
X88553262Y-63929715D01*
X88920285Y-64296738D01*
X89351859Y-64585107D01*
X89831399Y-64783739D01*
X90340475Y-64885000D01*
X90859525Y-64885000D01*
X91368601Y-64783739D01*
X91848141Y-64585107D01*
X92279715Y-64296738D01*
X92646738Y-63929715D01*
X92935107Y-63498141D01*
X93133739Y-63018601D01*
X93235000Y-62509525D01*
X93235000Y-61990475D01*
X93133739Y-61481399D01*
X92935107Y-61001859D01*
X92646738Y-60570285D01*
X92279715Y-60203262D01*
X91848141Y-59914893D01*
X91368601Y-59716261D01*
X90859525Y-59615000D01*
X90340475Y-59615000D01*
X89831399Y-59716261D01*
X89351859Y-59914893D01*
X88920285Y-60203262D01*
X88553262Y-60570285D01*
X88264893Y-61001859D01*
X88066261Y-61481399D01*
X87965000Y-61990475D01*
X72035000Y-61990475D01*
X71933739Y-61481399D01*
X71735107Y-61001859D01*
X71446738Y-60570285D01*
X71079715Y-60203262D01*
X70648141Y-59914893D01*
X70168601Y-59716261D01*
X69659525Y-59615000D01*
X69140475Y-59615000D01*
X68631399Y-59716261D01*
X68151859Y-59914893D01*
X67720285Y-60203262D01*
X67353262Y-60570285D01*
X67064893Y-61001859D01*
X66866261Y-61481399D01*
X66792593Y-61851757D01*
X66790001Y-61848599D01*
X66761004Y-61824802D01*
X62010500Y-57074299D01*
X62010500Y-50708715D01*
X62052257Y-50726011D01*
X62348816Y-50785000D01*
X62651184Y-50785000D01*
X62908929Y-50733732D01*
X63184905Y-51009708D01*
X63208699Y-51038701D01*
X63237692Y-51062495D01*
X63237696Y-51062499D01*
X63308385Y-51120511D01*
X63324424Y-51133674D01*
X63456453Y-51204246D01*
X63599714Y-51247703D01*
X63711367Y-51258700D01*
X63711376Y-51258700D01*
X63748699Y-51262376D01*
X63786022Y-51258700D01*
X91213978Y-51258700D01*
X91251300Y-51262376D01*
X91288622Y-51258700D01*
X91288633Y-51258700D01*
X91400286Y-51247703D01*
X91543547Y-51204246D01*
X91675576Y-51133674D01*
X91791301Y-51038701D01*
X91815103Y-51009698D01*
X92091070Y-50733731D01*
X92348816Y-50785000D01*
X92651184Y-50785000D01*
X92947743Y-50726011D01*
X93227095Y-50610299D01*
X93391228Y-50500629D01*
X93900101Y-51009502D01*
X93923899Y-51038501D01*
X93952897Y-51062299D01*
X94039623Y-51133474D01*
X94171653Y-51204046D01*
X94314914Y-51247503D01*
X94426567Y-51258500D01*
X94426576Y-51258500D01*
X94463899Y-51262176D01*
X94501222Y-51258500D01*
X96214178Y-51258500D01*
X96251500Y-51262176D01*
X96288822Y-51258500D01*
X96288833Y-51258500D01*
X96400486Y-51247503D01*
X96543747Y-51204046D01*
X96675776Y-51133474D01*
X96791501Y-51038501D01*
X96815304Y-51009497D01*
X97091070Y-50733731D01*
X97348816Y-50785000D01*
X97651184Y-50785000D01*
X97947743Y-50726011D01*
X97970901Y-50716419D01*
X97970900Y-56989197D01*
X94488998Y-60471101D01*
X94460000Y-60494899D01*
X94436202Y-60523897D01*
X94436201Y-60523898D01*
X94365026Y-60610624D01*
X94294454Y-60742654D01*
X94250998Y-60885915D01*
X94236324Y-61034900D01*
X94240001Y-61072232D01*
X94240000Y-67911687D01*
X94021495Y-68057688D01*
X93807688Y-68271495D01*
X93712262Y-68414310D01*
X93564080Y-68365525D01*
X92679605Y-69250000D01*
X93564080Y-70134475D01*
X93712262Y-70085690D01*
X93807688Y-70228505D01*
X94021495Y-70442312D01*
X94272905Y-70610299D01*
X94552257Y-70726011D01*
X94848816Y-70785000D01*
X95151184Y-70785000D01*
X95447743Y-70726011D01*
X95727095Y-70610299D01*
X95978505Y-70442312D01*
X96192312Y-70228505D01*
X96250000Y-70142169D01*
X96307688Y-70228505D01*
X96521495Y-70442312D01*
X96772905Y-70610299D01*
X97052257Y-70726011D01*
X97348816Y-70785000D01*
X97651184Y-70785000D01*
X97947743Y-70726011D01*
X98227095Y-70610299D01*
X98478505Y-70442312D01*
X98692312Y-70228505D01*
X98860299Y-69977095D01*
X98976011Y-69697743D01*
X99035000Y-69401184D01*
X99035000Y-69098816D01*
X98976011Y-68802257D01*
X98860299Y-68522905D01*
X98692312Y-68271495D01*
X98478505Y-68057688D01*
X98227095Y-67889701D01*
X97947743Y-67773989D01*
X97651184Y-67715000D01*
X97348816Y-67715000D01*
X97052257Y-67773989D01*
X96772905Y-67889701D01*
X96521495Y-68057688D01*
X96307688Y-68271495D01*
X96250000Y-68357831D01*
X96192312Y-68271495D01*
X95978505Y-68057688D01*
X95760000Y-67911687D01*
X95760000Y-61990475D01*
X96765000Y-61990475D01*
X96765000Y-62509525D01*
X96866261Y-63018601D01*
X97064893Y-63498141D01*
X97353262Y-63929715D01*
X97720285Y-64296738D01*
X98151859Y-64585107D01*
X98631399Y-64783739D01*
X99140475Y-64885000D01*
X99659525Y-64885000D01*
X100168601Y-64783739D01*
X100648141Y-64585107D01*
X101079715Y-64296738D01*
X101446738Y-63929715D01*
X101735107Y-63498141D01*
X101933739Y-63018601D01*
X102035000Y-62509525D01*
X102035000Y-61990475D01*
X101933739Y-61481399D01*
X101735107Y-61001859D01*
X101446738Y-60570285D01*
X101079715Y-60203262D01*
X100648141Y-59914893D01*
X100168601Y-59716261D01*
X99659525Y-59615000D01*
X99140475Y-59615000D01*
X98631399Y-59716261D01*
X98151859Y-59914893D01*
X97720285Y-60203262D01*
X97353262Y-60570285D01*
X97064893Y-61001859D01*
X96866261Y-61481399D01*
X96765000Y-61990475D01*
X95760000Y-61990475D01*
X95760000Y-61349701D01*
X99241909Y-57867794D01*
X99270901Y-57844001D01*
X99294695Y-57815008D01*
X99294699Y-57815004D01*
X99365873Y-57728277D01*
X99365874Y-57728276D01*
X99436446Y-57596247D01*
X99479903Y-57452986D01*
X99490900Y-57341333D01*
X99490900Y-57341324D01*
X99494576Y-57304001D01*
X99490900Y-57266678D01*
X99490900Y-48857102D01*
X105465400Y-54831602D01*
X105465401Y-87781303D01*
X105447743Y-87773989D01*
X105151184Y-87715000D01*
X104848816Y-87715000D01*
X104552257Y-87773989D01*
X104272905Y-87889701D01*
X104021495Y-88057688D01*
X103807688Y-88271495D01*
X103750000Y-88357831D01*
X103692312Y-88271495D01*
X103478505Y-88057688D01*
X103227095Y-87889701D01*
X102947743Y-87773989D01*
X102651184Y-87715000D01*
X102348816Y-87715000D01*
X102052257Y-87773989D01*
X101772905Y-87889701D01*
X101521495Y-88057688D01*
X101307688Y-88271495D01*
X101139701Y-88522905D01*
X101023989Y-88802257D01*
X100965000Y-89098816D01*
X100965000Y-89401184D01*
X101023989Y-89697743D01*
X101139701Y-89977095D01*
X101307688Y-90228505D01*
X101521495Y-90442312D01*
X101772905Y-90610299D01*
X102052257Y-90726011D01*
X102348816Y-90785000D01*
X102651184Y-90785000D01*
X102947743Y-90726011D01*
X103227095Y-90610299D01*
X103478505Y-90442312D01*
X103692312Y-90228505D01*
X103750000Y-90142169D01*
X103807688Y-90228505D01*
X104021495Y-90442312D01*
X104272905Y-90610299D01*
X104552257Y-90726011D01*
X104848816Y-90785000D01*
X105151184Y-90785000D01*
X105447743Y-90726011D01*
X105727095Y-90610299D01*
X105978505Y-90442312D01*
X106192312Y-90228505D01*
X106250000Y-90142169D01*
X106307688Y-90228505D01*
X106521495Y-90442312D01*
X106772905Y-90610299D01*
X107052257Y-90726011D01*
X107348816Y-90785000D01*
X107651184Y-90785000D01*
X107947743Y-90726011D01*
X108227095Y-90610299D01*
X108478505Y-90442312D01*
X108692312Y-90228505D01*
X108860299Y-89977095D01*
X108976011Y-89697743D01*
X109035000Y-89401184D01*
X109035000Y-89098816D01*
X108976011Y-88802257D01*
X108860299Y-88522905D01*
X108692312Y-88271495D01*
X108478505Y-88057688D01*
X108227095Y-87889701D01*
X107947743Y-87773989D01*
X107651184Y-87715000D01*
X107348816Y-87715000D01*
X107091070Y-87766269D01*
X106985400Y-87660599D01*
X106985400Y-83306228D01*
X107064893Y-83498141D01*
X107353262Y-83929715D01*
X107720285Y-84296738D01*
X108151859Y-84585107D01*
X108631399Y-84783739D01*
X109140475Y-84885000D01*
X109659525Y-84885000D01*
X110168601Y-84783739D01*
X110648141Y-84585107D01*
X111079715Y-84296738D01*
X111446738Y-83929715D01*
X111735107Y-83498141D01*
X111933739Y-83018601D01*
X112035000Y-82509525D01*
X112035000Y-81990475D01*
X111933739Y-81481399D01*
X111735107Y-81001859D01*
X111446738Y-80570285D01*
X111079715Y-80203262D01*
X110648141Y-79914893D01*
X110168601Y-79716261D01*
X109659525Y-79615000D01*
X109140475Y-79615000D01*
X108631399Y-79716261D01*
X108151859Y-79914893D01*
X107720285Y-80203262D01*
X107353262Y-80570285D01*
X107064893Y-81001859D01*
X106985400Y-81193772D01*
X106985400Y-54554122D01*
X106989076Y-54516799D01*
X106985400Y-54479476D01*
X106985400Y-54479467D01*
X106974403Y-54367814D01*
X106930946Y-54224553D01*
X106860374Y-54092524D01*
X106765401Y-53976799D01*
X106736404Y-53953002D01*
X94773877Y-41990475D01*
X96765000Y-41990475D01*
X96765000Y-42509525D01*
X96866261Y-43018601D01*
X97064893Y-43498141D01*
X97353262Y-43929715D01*
X97720285Y-44296738D01*
X98151859Y-44585107D01*
X98631399Y-44783739D01*
X99140475Y-44885000D01*
X99659525Y-44885000D01*
X100168601Y-44783739D01*
X100648141Y-44585107D01*
X101079715Y-44296738D01*
X101446738Y-43929715D01*
X101735107Y-43498141D01*
X101933739Y-43018601D01*
X102035000Y-42509525D01*
X102035000Y-41990475D01*
X101933739Y-41481399D01*
X101735107Y-41001859D01*
X101446738Y-40570285D01*
X101079715Y-40203262D01*
X100648141Y-39914893D01*
X100168601Y-39716261D01*
X99659525Y-39615000D01*
X99140475Y-39615000D01*
X98631399Y-39716261D01*
X98151859Y-39914893D01*
X97720285Y-40203262D01*
X97353262Y-40570285D01*
X97064893Y-41001859D01*
X96866261Y-41481399D01*
X96765000Y-41990475D01*
X94773877Y-41990475D01*
X91336404Y-38553003D01*
X91312601Y-38523999D01*
X91196876Y-38429026D01*
X91064847Y-38358454D01*
X90921586Y-38314997D01*
X90809933Y-38304000D01*
X90809922Y-38304000D01*
X90772600Y-38300324D01*
X90735278Y-38304000D01*
X85212800Y-38304000D01*
X83364461Y-36455661D01*
X83529014Y-36367706D01*
X83755134Y-36182134D01*
X83940706Y-35956014D01*
X84046031Y-35758964D01*
X84184866Y-35928134D01*
X84410986Y-36113706D01*
X84668966Y-36251599D01*
X84948889Y-36336513D01*
X85167050Y-36358000D01*
X85312950Y-36358000D01*
X85531111Y-36336513D01*
X85811034Y-36251599D01*
X86069014Y-36113706D01*
X86295134Y-35928134D01*
X86433969Y-35758964D01*
X86539294Y-35956014D01*
X86724866Y-36182134D01*
X86950986Y-36367706D01*
X87208966Y-36505599D01*
X87488889Y-36590513D01*
X87707050Y-36612000D01*
X87852950Y-36612000D01*
X88071111Y-36590513D01*
X88351034Y-36505599D01*
X88609014Y-36367706D01*
X88835134Y-36182134D01*
X89020706Y-35956014D01*
X89126031Y-35758964D01*
X89264866Y-35928134D01*
X89490986Y-36113706D01*
X89748966Y-36251599D01*
X90028889Y-36336513D01*
X90247050Y-36358000D01*
X90392950Y-36358000D01*
X90611111Y-36336513D01*
X90891034Y-36251599D01*
X91149014Y-36113706D01*
X91375134Y-35928134D01*
X91560706Y-35702014D01*
X91698599Y-35444034D01*
X91783513Y-35164111D01*
X91812185Y-34873000D01*
X91798822Y-34737323D01*
X107333000Y-34737323D01*
X107333000Y-35262677D01*
X107435492Y-35777935D01*
X107636536Y-36263298D01*
X107928406Y-36700113D01*
X108299887Y-37071594D01*
X108736702Y-37363464D01*
X109222065Y-37564508D01*
X109737323Y-37667000D01*
X110262677Y-37667000D01*
X110777935Y-37564508D01*
X111263298Y-37363464D01*
X111700113Y-37071594D01*
X112071594Y-36700113D01*
X112363464Y-36263298D01*
X112564508Y-35777935D01*
X112667000Y-35262677D01*
X112667000Y-34737323D01*
X112564508Y-34222065D01*
X112363464Y-33736702D01*
X112071594Y-33299887D01*
X111700113Y-32928406D01*
X111263298Y-32636536D01*
X110777935Y-32435492D01*
X110262677Y-32333000D01*
X109737323Y-32333000D01*
X109222065Y-32435492D01*
X108736702Y-32636536D01*
X108299887Y-32928406D01*
X107928406Y-33299887D01*
X107636536Y-33736702D01*
X107435492Y-34222065D01*
X107333000Y-34737323D01*
X91798822Y-34737323D01*
X91783513Y-34581889D01*
X91698599Y-34301966D01*
X91560706Y-34043986D01*
X91375134Y-33817866D01*
X91149014Y-33632294D01*
X91091244Y-33601416D01*
X91320269Y-33430588D01*
X91515178Y-33214355D01*
X91664157Y-32964252D01*
X91761481Y-32689891D01*
X91640814Y-32460000D01*
X90447000Y-32460000D01*
X90447000Y-32480000D01*
X90193000Y-32480000D01*
X90193000Y-32460000D01*
X90173000Y-32460000D01*
X90173000Y-32206000D01*
X90193000Y-32206000D01*
X90193000Y-31012845D01*
X90447000Y-31012845D01*
X90447000Y-32206000D01*
X91640814Y-32206000D01*
X91761481Y-31976109D01*
X91664157Y-31701748D01*
X91515178Y-31451645D01*
X91320269Y-31235412D01*
X91086920Y-31061359D01*
X90824099Y-30936175D01*
X90676890Y-30891524D01*
X90447000Y-31012845D01*
X90193000Y-31012845D01*
X89963110Y-30891524D01*
X89815901Y-30936175D01*
X89553080Y-31061359D01*
X89319731Y-31235412D01*
X89247096Y-31315994D01*
X88591101Y-30660000D01*
X114340000Y-30660000D01*
X114340001Y-129340000D01*
X45660000Y-129340000D01*
X45660000Y-124737323D01*
X47333000Y-124737323D01*
X47333000Y-125262677D01*
X47435492Y-125777935D01*
X47636536Y-126263298D01*
X47928406Y-126700113D01*
X48299887Y-127071594D01*
X48736702Y-127363464D01*
X49222065Y-127564508D01*
X49737323Y-127667000D01*
X50262677Y-127667000D01*
X50777935Y-127564508D01*
X51263298Y-127363464D01*
X51700113Y-127071594D01*
X52071594Y-126700113D01*
X52363464Y-126263298D01*
X52564508Y-125777935D01*
X52667000Y-125262677D01*
X52667000Y-124737323D01*
X52649631Y-124650000D01*
X56809509Y-124650000D01*
X56831423Y-124872499D01*
X56896324Y-125086447D01*
X57001716Y-125283623D01*
X57143551Y-125456449D01*
X57316377Y-125598284D01*
X57513553Y-125703676D01*
X57727501Y-125768577D01*
X57894248Y-125785000D01*
X59105752Y-125785000D01*
X59272499Y-125768577D01*
X59486447Y-125703676D01*
X59683623Y-125598284D01*
X59856449Y-125456449D01*
X59998284Y-125283623D01*
X60103676Y-125086447D01*
X60168577Y-124872499D01*
X60190491Y-124650000D01*
X71809509Y-124650000D01*
X71831423Y-124872499D01*
X71896324Y-125086447D01*
X72001716Y-125283623D01*
X72143551Y-125456449D01*
X72316377Y-125598284D01*
X72513553Y-125703676D01*
X72727501Y-125768577D01*
X72894248Y-125785000D01*
X74105752Y-125785000D01*
X74272499Y-125768577D01*
X74486447Y-125703676D01*
X74683623Y-125598284D01*
X74856449Y-125456449D01*
X74998284Y-125283623D01*
X75103676Y-125086447D01*
X75168577Y-124872499D01*
X75190491Y-124650000D01*
X75168577Y-124427501D01*
X75103676Y-124213553D01*
X74998284Y-124016377D01*
X74856449Y-123843551D01*
X74683623Y-123701716D01*
X74486447Y-123596324D01*
X74272499Y-123531423D01*
X74105752Y-123515000D01*
X72894248Y-123515000D01*
X72727501Y-123531423D01*
X72513553Y-123596324D01*
X72316377Y-123701716D01*
X72143551Y-123843551D01*
X72001716Y-124016377D01*
X71896324Y-124213553D01*
X71831423Y-124427501D01*
X71809509Y-124650000D01*
X60190491Y-124650000D01*
X60168577Y-124427501D01*
X60103676Y-124213553D01*
X59998284Y-124016377D01*
X59856449Y-123843551D01*
X59683623Y-123701716D01*
X59486447Y-123596324D01*
X59272499Y-123531423D01*
X59105752Y-123515000D01*
X57894248Y-123515000D01*
X57727501Y-123531423D01*
X57513553Y-123596324D01*
X57316377Y-123701716D01*
X57143551Y-123843551D01*
X57001716Y-124016377D01*
X56896324Y-124213553D01*
X56831423Y-124427501D01*
X56809509Y-124650000D01*
X52649631Y-124650000D01*
X52564508Y-124222065D01*
X52363464Y-123736702D01*
X52071594Y-123299887D01*
X51700113Y-122928406D01*
X51263298Y-122636536D01*
X50777935Y-122435492D01*
X50262677Y-122333000D01*
X49737323Y-122333000D01*
X49222065Y-122435492D01*
X48736702Y-122636536D01*
X48299887Y-122928406D01*
X47928406Y-123299887D01*
X47636536Y-123736702D01*
X47435492Y-124222065D01*
X47333000Y-124737323D01*
X45660000Y-124737323D01*
X45660000Y-90314080D01*
X51615525Y-90314080D01*
X51699208Y-90568261D01*
X51971775Y-90699158D01*
X52264642Y-90774365D01*
X52566553Y-90790991D01*
X52865907Y-90748397D01*
X53151199Y-90648222D01*
X53300792Y-90568261D01*
X53384475Y-90314080D01*
X52500000Y-89429605D01*
X51615525Y-90314080D01*
X45660000Y-90314080D01*
X45660000Y-89316553D01*
X50959009Y-89316553D01*
X51001603Y-89615907D01*
X51101778Y-89901199D01*
X51181739Y-90050792D01*
X51435920Y-90134475D01*
X52320395Y-89250000D01*
X51435920Y-88365525D01*
X51181739Y-88449208D01*
X51050842Y-88721775D01*
X50975635Y-89014642D01*
X50959009Y-89316553D01*
X45660000Y-89316553D01*
X45660000Y-88185920D01*
X51615525Y-88185920D01*
X52500000Y-89070395D01*
X53384475Y-88185920D01*
X53300792Y-87931739D01*
X53028225Y-87800842D01*
X52735358Y-87725635D01*
X52433447Y-87709009D01*
X52134093Y-87751603D01*
X51848801Y-87851778D01*
X51699208Y-87931739D01*
X51615525Y-88185920D01*
X45660000Y-88185920D01*
X45660000Y-81990475D01*
X47965000Y-81990475D01*
X47965000Y-82509525D01*
X48066261Y-83018601D01*
X48264893Y-83498141D01*
X48553262Y-83929715D01*
X48920285Y-84296738D01*
X49351859Y-84585107D01*
X49831399Y-84783739D01*
X50340475Y-84885000D01*
X50859525Y-84885000D01*
X51368601Y-84783739D01*
X51848141Y-84585107D01*
X52279715Y-84296738D01*
X52646738Y-83929715D01*
X52935107Y-83498141D01*
X53133739Y-83018601D01*
X53235000Y-82509525D01*
X53235000Y-81990475D01*
X53133739Y-81481399D01*
X52935107Y-81001859D01*
X52646738Y-80570285D01*
X52279715Y-80203262D01*
X51848141Y-79914893D01*
X51368601Y-79716261D01*
X50859525Y-79615000D01*
X50340475Y-79615000D01*
X49831399Y-79716261D01*
X49351859Y-79914893D01*
X48920285Y-80203262D01*
X48553262Y-80570285D01*
X48264893Y-81001859D01*
X48066261Y-81481399D01*
X47965000Y-81990475D01*
X45660000Y-81990475D01*
X45660000Y-34737323D01*
X47333000Y-34737323D01*
X47333000Y-35262677D01*
X47435492Y-35777935D01*
X47636536Y-36263298D01*
X47928406Y-36700113D01*
X48299887Y-37071594D01*
X48736702Y-37363464D01*
X49222065Y-37564508D01*
X49737323Y-37667000D01*
X50262677Y-37667000D01*
X50777935Y-37564508D01*
X51263298Y-37363464D01*
X51700113Y-37071594D01*
X52071594Y-36700113D01*
X52363464Y-36263298D01*
X52564508Y-35777935D01*
X52667000Y-35262677D01*
X52667000Y-34737323D01*
X52564508Y-34222065D01*
X52363464Y-33736702D01*
X52071594Y-33299887D01*
X51700113Y-32928406D01*
X51263298Y-32636536D01*
X50777935Y-32435492D01*
X50262677Y-32333000D01*
X49737323Y-32333000D01*
X49222065Y-32435492D01*
X48736702Y-32636536D01*
X48299887Y-32928406D01*
X47928406Y-33299887D01*
X47636536Y-33736702D01*
X47435492Y-34222065D01*
X47333000Y-34737323D01*
X45660000Y-34737323D01*
X45660000Y-30660000D01*
X67812598Y-30660000D01*
X55738898Y-42733701D01*
X55738898Y-42733701D01*
G37*
X55738898Y-42733701D02*
X55709900Y-42757499D01*
X55686102Y-42786497D01*
X55686101Y-42786498D01*
X55614926Y-42873224D01*
X55544354Y-43005254D01*
X55500898Y-43148515D01*
X55486224Y-43297500D01*
X55489901Y-43334833D01*
X55489900Y-87791451D01*
X55447743Y-87773989D01*
X55151184Y-87715000D01*
X54848816Y-87715000D01*
X54552257Y-87773989D01*
X54272905Y-87889701D01*
X54021495Y-88057688D01*
X53807688Y-88271495D01*
X53712262Y-88414310D01*
X53564080Y-88365525D01*
X52679605Y-89250000D01*
X53564080Y-90134475D01*
X53712262Y-90085690D01*
X53807688Y-90228505D01*
X54021495Y-90442312D01*
X54272905Y-90610299D01*
X54552257Y-90726011D01*
X54848816Y-90785000D01*
X55151184Y-90785000D01*
X55447743Y-90726011D01*
X55489900Y-90708549D01*
X55489900Y-91677698D01*
X52363698Y-94803901D01*
X52334700Y-94827699D01*
X52310902Y-94856697D01*
X52310901Y-94856698D01*
X52239726Y-94943424D01*
X52169154Y-95075454D01*
X52125698Y-95218715D01*
X52111024Y-95367700D01*
X52114701Y-95405033D01*
X52114700Y-116687378D01*
X52111024Y-116724700D01*
X52114700Y-116762022D01*
X52114700Y-116762032D01*
X52125697Y-116873685D01*
X52167047Y-117009999D01*
X52169154Y-117016946D01*
X52239726Y-117148976D01*
X52266355Y-117181423D01*
X52334699Y-117264701D01*
X52363702Y-117288503D01*
X52748184Y-117672986D01*
X52646324Y-117863553D01*
X52581423Y-118077501D01*
X52565000Y-118244248D01*
X52565000Y-119455751D01*
X52581423Y-119622498D01*
X52646324Y-119836446D01*
X52751716Y-120033623D01*
X52893551Y-120206449D01*
X53066377Y-120348284D01*
X53263553Y-120453676D01*
X53477501Y-120518577D01*
X53700000Y-120540491D01*
X53922498Y-120518577D01*
X54136446Y-120453676D01*
X54333623Y-120348284D01*
X54506449Y-120206449D01*
X54648284Y-120033623D01*
X54753676Y-119836447D01*
X54818577Y-119622499D01*
X54835000Y-119455752D01*
X54835000Y-118244248D01*
X67565000Y-118244248D01*
X67565000Y-119455751D01*
X67581423Y-119622498D01*
X67646324Y-119836446D01*
X67751716Y-120033623D01*
X67893551Y-120206449D01*
X68066377Y-120348284D01*
X68263553Y-120453676D01*
X68477501Y-120518577D01*
X68700000Y-120540491D01*
X68922498Y-120518577D01*
X69136446Y-120453676D01*
X69333623Y-120348284D01*
X69506449Y-120206449D01*
X69648284Y-120033623D01*
X69753676Y-119836447D01*
X69818577Y-119622499D01*
X69835000Y-119455752D01*
X69835000Y-118244248D01*
X82565000Y-118244248D01*
X82565000Y-119455751D01*
X82581423Y-119622498D01*
X82646324Y-119836446D01*
X82751716Y-120033623D01*
X82893551Y-120206449D01*
X83066377Y-120348284D01*
X83263553Y-120453676D01*
X83477501Y-120518577D01*
X83700000Y-120540491D01*
X83922498Y-120518577D01*
X84136446Y-120453676D01*
X84333623Y-120348284D01*
X84506449Y-120206449D01*
X84607958Y-120082760D01*
X87740001Y-123214803D01*
X87740001Y-123530192D01*
X87727501Y-123531423D01*
X87513553Y-123596324D01*
X87316377Y-123701716D01*
X87143551Y-123843551D01*
X87001716Y-124016377D01*
X86896324Y-124213553D01*
X86831423Y-124427501D01*
X86809509Y-124650000D01*
X86831423Y-124872499D01*
X86896324Y-125086447D01*
X87001716Y-125283623D01*
X87143551Y-125456449D01*
X87316377Y-125598284D01*
X87513553Y-125703676D01*
X87727501Y-125768577D01*
X87894248Y-125785000D01*
X89105752Y-125785000D01*
X89272499Y-125768577D01*
X89486447Y-125703676D01*
X89683623Y-125598284D01*
X89856449Y-125456449D01*
X89998284Y-125283623D01*
X90103676Y-125086447D01*
X90168577Y-124872499D01*
X90190491Y-124650000D01*
X101809509Y-124650000D01*
X101831423Y-124872499D01*
X101896324Y-125086447D01*
X102001716Y-125283623D01*
X102143551Y-125456449D01*
X102316377Y-125598284D01*
X102513553Y-125703676D01*
X102727501Y-125768577D01*
X102894248Y-125785000D01*
X104105752Y-125785000D01*
X104272499Y-125768577D01*
X104486447Y-125703676D01*
X104683623Y-125598284D01*
X104856449Y-125456449D01*
X104998284Y-125283623D01*
X105103676Y-125086447D01*
X105168577Y-124872499D01*
X105181890Y-124737323D01*
X107333000Y-124737323D01*
X107333000Y-125262677D01*
X107435492Y-125777935D01*
X107636536Y-126263298D01*
X107928406Y-126700113D01*
X108299887Y-127071594D01*
X108736702Y-127363464D01*
X109222065Y-127564508D01*
X109737323Y-127667000D01*
X110262677Y-127667000D01*
X110777935Y-127564508D01*
X111263298Y-127363464D01*
X111700113Y-127071594D01*
X112071594Y-126700113D01*
X112363464Y-126263298D01*
X112564508Y-125777935D01*
X112667000Y-125262677D01*
X112667000Y-124737323D01*
X112564508Y-124222065D01*
X112363464Y-123736702D01*
X112071594Y-123299887D01*
X111700113Y-122928406D01*
X111263298Y-122636536D01*
X110777935Y-122435492D01*
X110262677Y-122333000D01*
X109737323Y-122333000D01*
X109222065Y-122435492D01*
X108736702Y-122636536D01*
X108299887Y-122928406D01*
X107928406Y-123299887D01*
X107636536Y-123736702D01*
X107435492Y-124222065D01*
X107333000Y-124737323D01*
X105181890Y-124737323D01*
X105190491Y-124650000D01*
X105168577Y-124427501D01*
X105103676Y-124213553D01*
X104998284Y-124016377D01*
X104856449Y-123843551D01*
X104683623Y-123701716D01*
X104486447Y-123596324D01*
X104272499Y-123531423D01*
X104105752Y-123515000D01*
X102894248Y-123515000D01*
X102727501Y-123531423D01*
X102513553Y-123596324D01*
X102316377Y-123701716D01*
X102143551Y-123843551D01*
X102001716Y-124016377D01*
X101896324Y-124213553D01*
X101831423Y-124427501D01*
X101809509Y-124650000D01*
X90190491Y-124650000D01*
X90168577Y-124427501D01*
X90103676Y-124213553D01*
X89998284Y-124016377D01*
X89856449Y-123843551D01*
X89683623Y-123701716D01*
X89486447Y-123596324D01*
X89272499Y-123531423D01*
X89260000Y-123530192D01*
X89260000Y-122937323D01*
X89263676Y-122900000D01*
X89260000Y-122862677D01*
X89260000Y-122862667D01*
X89249003Y-122751014D01*
X89205546Y-122607753D01*
X89134974Y-122475723D01*
X89063799Y-122388997D01*
X89040001Y-122359999D01*
X89011003Y-122336201D01*
X85013804Y-118339003D01*
X84990001Y-118309999D01*
X84909884Y-118244248D01*
X97565000Y-118244248D01*
X97565000Y-119455751D01*
X97581423Y-119622498D01*
X97646324Y-119836446D01*
X97751716Y-120033623D01*
X97893551Y-120206449D01*
X98066377Y-120348284D01*
X98263553Y-120453676D01*
X98477501Y-120518577D01*
X98700000Y-120540491D01*
X98922498Y-120518577D01*
X99136446Y-120453676D01*
X99333623Y-120348284D01*
X99506449Y-120206449D01*
X99648284Y-120033623D01*
X99753676Y-119836447D01*
X99818577Y-119622499D01*
X99835000Y-119455752D01*
X99835000Y-118244248D01*
X99818577Y-118077501D01*
X99753676Y-117863553D01*
X99648284Y-117666377D01*
X99506449Y-117493551D01*
X99333623Y-117351716D01*
X99136447Y-117246324D01*
X98922499Y-117181423D01*
X98700000Y-117159509D01*
X98477502Y-117181423D01*
X98263554Y-117246324D01*
X98066378Y-117351716D01*
X97893552Y-117493551D01*
X97751717Y-117666377D01*
X97646324Y-117863553D01*
X97581423Y-118077501D01*
X97565000Y-118244248D01*
X84909884Y-118244248D01*
X84874276Y-118215026D01*
X84829779Y-118191242D01*
X84818577Y-118077501D01*
X84753676Y-117863553D01*
X84648284Y-117666377D01*
X84506449Y-117493551D01*
X84333623Y-117351716D01*
X84136447Y-117246324D01*
X83922499Y-117181423D01*
X83700000Y-117159509D01*
X83477502Y-117181423D01*
X83263554Y-117246324D01*
X83066378Y-117351716D01*
X82893552Y-117493551D01*
X82751717Y-117666377D01*
X82646324Y-117863553D01*
X82581423Y-118077501D01*
X82565000Y-118244248D01*
X69835000Y-118244248D01*
X69818577Y-118077501D01*
X69753676Y-117863553D01*
X69648284Y-117666377D01*
X69506449Y-117493551D01*
X69333623Y-117351716D01*
X69136447Y-117246324D01*
X68922499Y-117181423D01*
X68700000Y-117159509D01*
X68477502Y-117181423D01*
X68263554Y-117246324D01*
X68066378Y-117351716D01*
X67893552Y-117493551D01*
X67751717Y-117666377D01*
X67646324Y-117863553D01*
X67581423Y-118077501D01*
X67565000Y-118244248D01*
X54835000Y-118244248D01*
X54818577Y-118077501D01*
X54753676Y-117863553D01*
X54648284Y-117666377D01*
X54506449Y-117493551D01*
X54453867Y-117450398D01*
X54449003Y-117401014D01*
X54405546Y-117257753D01*
X54334974Y-117125724D01*
X54321811Y-117109685D01*
X54263799Y-117038996D01*
X54263795Y-117038992D01*
X54240001Y-117009999D01*
X54211008Y-116986205D01*
X54076677Y-116851874D01*
X56855881Y-116851874D01*
X56935724Y-117074976D01*
X57057631Y-117262764D01*
X57213831Y-117423161D01*
X57398322Y-117550003D01*
X57604013Y-117638415D01*
X57823000Y-117685000D01*
X58373000Y-117685000D01*
X58373000Y-116677000D01*
X58627000Y-116677000D01*
X58627000Y-117685000D01*
X59177000Y-117685000D01*
X59395987Y-117638415D01*
X59601678Y-117550003D01*
X59786169Y-117423161D01*
X59942369Y-117262764D01*
X60064276Y-117074976D01*
X60144119Y-116851874D01*
X71855881Y-116851874D01*
X71935724Y-117074976D01*
X72057631Y-117262764D01*
X72213831Y-117423161D01*
X72398322Y-117550003D01*
X72604013Y-117638415D01*
X72823000Y-117685000D01*
X73373000Y-117685000D01*
X73373000Y-116677000D01*
X73627000Y-116677000D01*
X73627000Y-117685000D01*
X74177000Y-117685000D01*
X74395987Y-117638415D01*
X74601678Y-117550003D01*
X74786169Y-117423161D01*
X74942369Y-117262764D01*
X75064276Y-117074976D01*
X75144119Y-116851874D01*
X86855881Y-116851874D01*
X86935724Y-117074976D01*
X87057631Y-117262764D01*
X87213831Y-117423161D01*
X87398322Y-117550003D01*
X87604013Y-117638415D01*
X87823000Y-117685000D01*
X88373000Y-117685000D01*
X88373000Y-116677000D01*
X88627000Y-116677000D01*
X88627000Y-117685000D01*
X89177000Y-117685000D01*
X89395987Y-117638415D01*
X89601678Y-117550003D01*
X89786169Y-117423161D01*
X89942369Y-117262764D01*
X90064276Y-117074976D01*
X90144119Y-116851874D01*
X101855881Y-116851874D01*
X101935724Y-117074976D01*
X102057631Y-117262764D01*
X102213831Y-117423161D01*
X102398322Y-117550003D01*
X102604013Y-117638415D01*
X102823000Y-117685000D01*
X103373000Y-117685000D01*
X103373000Y-116677000D01*
X103627000Y-116677000D01*
X103627000Y-117685000D01*
X104177000Y-117685000D01*
X104395987Y-117638415D01*
X104601678Y-117550003D01*
X104786169Y-117423161D01*
X104942369Y-117262764D01*
X105064276Y-117074976D01*
X105144119Y-116851874D01*
X105017954Y-116677000D01*
X103627000Y-116677000D01*
X103373000Y-116677000D01*
X101982046Y-116677000D01*
X101855881Y-116851874D01*
X90144119Y-116851874D01*
X90017954Y-116677000D01*
X88627000Y-116677000D01*
X88373000Y-116677000D01*
X86982046Y-116677000D01*
X86855881Y-116851874D01*
X75144119Y-116851874D01*
X75017954Y-116677000D01*
X73627000Y-116677000D01*
X73373000Y-116677000D01*
X71982046Y-116677000D01*
X71855881Y-116851874D01*
X60144119Y-116851874D01*
X60017954Y-116677000D01*
X58627000Y-116677000D01*
X58373000Y-116677000D01*
X56982046Y-116677000D01*
X56855881Y-116851874D01*
X54076677Y-116851874D01*
X53634700Y-116409898D01*
X53634700Y-116248126D01*
X56855881Y-116248126D01*
X56982046Y-116423000D01*
X58373000Y-116423000D01*
X58373000Y-116403000D01*
X58627000Y-116403000D01*
X58627000Y-116423000D01*
X60017954Y-116423000D01*
X60144119Y-116248126D01*
X71855881Y-116248126D01*
X71982046Y-116423000D01*
X73373000Y-116423000D01*
X73373000Y-116403000D01*
X73627000Y-116403000D01*
X73627000Y-116423000D01*
X75017954Y-116423000D01*
X75144119Y-116248126D01*
X86855881Y-116248126D01*
X86982046Y-116423000D01*
X88373000Y-116423000D01*
X88373000Y-116403000D01*
X88627000Y-116403000D01*
X88627000Y-116423000D01*
X90017954Y-116423000D01*
X90144119Y-116248126D01*
X101855881Y-116248126D01*
X101982046Y-116423000D01*
X103373000Y-116423000D01*
X103373000Y-116403000D01*
X103627000Y-116403000D01*
X103627000Y-116423000D01*
X105017954Y-116423000D01*
X105144119Y-116248126D01*
X105064276Y-116025024D01*
X104942369Y-115837236D01*
X104786169Y-115676839D01*
X104601678Y-115549997D01*
X104395987Y-115461585D01*
X104177000Y-115415000D01*
X102823000Y-115415000D01*
X102604013Y-115461585D01*
X102398322Y-115549997D01*
X102213831Y-115676839D01*
X102057631Y-115837236D01*
X101935724Y-116025024D01*
X101855881Y-116248126D01*
X90144119Y-116248126D01*
X90064276Y-116025024D01*
X89942369Y-115837236D01*
X89786169Y-115676839D01*
X89601678Y-115549997D01*
X89395987Y-115461585D01*
X89177000Y-115415000D01*
X87823000Y-115415000D01*
X87604013Y-115461585D01*
X87398322Y-115549997D01*
X87213831Y-115676839D01*
X87057631Y-115837236D01*
X86935724Y-116025024D01*
X86855881Y-116248126D01*
X75144119Y-116248126D01*
X75064276Y-116025024D01*
X74942369Y-115837236D01*
X74786169Y-115676839D01*
X74601678Y-115549997D01*
X74395987Y-115461585D01*
X74177000Y-115415000D01*
X72823000Y-115415000D01*
X72604013Y-115461585D01*
X72398322Y-115549997D01*
X72213831Y-115676839D01*
X72057631Y-115837236D01*
X71935724Y-116025024D01*
X71855881Y-116248126D01*
X60144119Y-116248126D01*
X60064276Y-116025024D01*
X59942369Y-115837236D01*
X59786169Y-115676839D01*
X59601678Y-115549997D01*
X59395987Y-115461585D01*
X59177000Y-115415000D01*
X57823000Y-115415000D01*
X57604013Y-115461585D01*
X57398322Y-115549997D01*
X57213831Y-115676839D01*
X57057631Y-115837236D01*
X56935724Y-116025024D01*
X56855881Y-116248126D01*
X53634700Y-116248126D01*
X53634700Y-104534060D01*
X53700000Y-104540491D01*
X53922498Y-104518577D01*
X54136446Y-104453676D01*
X54333623Y-104348284D01*
X54506449Y-104206449D01*
X54607958Y-104082760D01*
X57740001Y-107214803D01*
X57740001Y-107530192D01*
X57727501Y-107531423D01*
X57513553Y-107596324D01*
X57316377Y-107701716D01*
X57143551Y-107843551D01*
X57001716Y-108016377D01*
X56896324Y-108213553D01*
X56831423Y-108427501D01*
X56809509Y-108650000D01*
X56831423Y-108872499D01*
X56896324Y-109086447D01*
X57001716Y-109283623D01*
X57143551Y-109456449D01*
X57316377Y-109598284D01*
X57513553Y-109703676D01*
X57727501Y-109768577D01*
X57894248Y-109785000D01*
X59105752Y-109785000D01*
X59272499Y-109768577D01*
X59486447Y-109703676D01*
X59683623Y-109598284D01*
X59856449Y-109456449D01*
X59998284Y-109283623D01*
X60103676Y-109086447D01*
X60168577Y-108872499D01*
X60190491Y-108650000D01*
X71809509Y-108650000D01*
X71831423Y-108872499D01*
X71896324Y-109086447D01*
X72001716Y-109283623D01*
X72143551Y-109456449D01*
X72316377Y-109598284D01*
X72513553Y-109703676D01*
X72727501Y-109768577D01*
X72894248Y-109785000D01*
X74105752Y-109785000D01*
X74272499Y-109768577D01*
X74486447Y-109703676D01*
X74683623Y-109598284D01*
X74856449Y-109456449D01*
X74998284Y-109283623D01*
X75103676Y-109086447D01*
X75168577Y-108872499D01*
X75190491Y-108650000D01*
X75168577Y-108427501D01*
X75103676Y-108213553D01*
X74998284Y-108016377D01*
X74856449Y-107843551D01*
X74683623Y-107701716D01*
X74486447Y-107596324D01*
X74272499Y-107531423D01*
X74105752Y-107515000D01*
X72894248Y-107515000D01*
X72727501Y-107531423D01*
X72513553Y-107596324D01*
X72316377Y-107701716D01*
X72143551Y-107843551D01*
X72001716Y-108016377D01*
X71896324Y-108213553D01*
X71831423Y-108427501D01*
X71809509Y-108650000D01*
X60190491Y-108650000D01*
X60168577Y-108427501D01*
X60103676Y-108213553D01*
X59998284Y-108016377D01*
X59856449Y-107843551D01*
X59683623Y-107701716D01*
X59486447Y-107596324D01*
X59272499Y-107531423D01*
X59260000Y-107530192D01*
X59260000Y-106937323D01*
X59263676Y-106900000D01*
X59260000Y-106862677D01*
X59260000Y-106862667D01*
X59249003Y-106751014D01*
X59205546Y-106607753D01*
X59134974Y-106475723D01*
X59063799Y-106388997D01*
X59040001Y-106359999D01*
X59011003Y-106336201D01*
X55013804Y-102339003D01*
X54990001Y-102309999D01*
X54909884Y-102244248D01*
X67565000Y-102244248D01*
X67565000Y-103455751D01*
X67581423Y-103622498D01*
X67646324Y-103836446D01*
X67751716Y-104033623D01*
X67893551Y-104206449D01*
X68066377Y-104348284D01*
X68263553Y-104453676D01*
X68477501Y-104518577D01*
X68700000Y-104540491D01*
X68922498Y-104518577D01*
X69136446Y-104453676D01*
X69333623Y-104348284D01*
X69506449Y-104206449D01*
X69648284Y-104033623D01*
X69753676Y-103836447D01*
X69818577Y-103622499D01*
X69835000Y-103455752D01*
X69835000Y-102244248D01*
X69818577Y-102077501D01*
X69753676Y-101863553D01*
X69648284Y-101666377D01*
X69506449Y-101493551D01*
X69333623Y-101351716D01*
X69136447Y-101246324D01*
X68922499Y-101181423D01*
X68700000Y-101159509D01*
X68477502Y-101181423D01*
X68263554Y-101246324D01*
X68066378Y-101351716D01*
X67893552Y-101493551D01*
X67751717Y-101666377D01*
X67646324Y-101863553D01*
X67581423Y-102077501D01*
X67565000Y-102244248D01*
X54909884Y-102244248D01*
X54874276Y-102215026D01*
X54829779Y-102191242D01*
X54818577Y-102077501D01*
X54753676Y-101863553D01*
X54648284Y-101666377D01*
X54506449Y-101493551D01*
X54333623Y-101351716D01*
X54136447Y-101246324D01*
X53922499Y-101181423D01*
X53700000Y-101159509D01*
X53634700Y-101165940D01*
X53634700Y-100851874D01*
X56855881Y-100851874D01*
X56935724Y-101074976D01*
X57057631Y-101262764D01*
X57213831Y-101423161D01*
X57398322Y-101550003D01*
X57604013Y-101638415D01*
X57823000Y-101685000D01*
X58373000Y-101685000D01*
X58373000Y-100677000D01*
X58627000Y-100677000D01*
X58627000Y-101685000D01*
X59177000Y-101685000D01*
X59395987Y-101638415D01*
X59601678Y-101550003D01*
X59786169Y-101423161D01*
X59942369Y-101262764D01*
X60064276Y-101074976D01*
X60144119Y-100851874D01*
X71855881Y-100851874D01*
X71935724Y-101074976D01*
X72057631Y-101262764D01*
X72213831Y-101423161D01*
X72398322Y-101550003D01*
X72604013Y-101638415D01*
X72823000Y-101685000D01*
X73373000Y-101685000D01*
X73373000Y-100677000D01*
X73627000Y-100677000D01*
X73627000Y-101685000D01*
X74177000Y-101685000D01*
X74395987Y-101638415D01*
X74601678Y-101550003D01*
X74786169Y-101423161D01*
X74942369Y-101262764D01*
X75064276Y-101074976D01*
X75144119Y-100851874D01*
X75017954Y-100677000D01*
X73627000Y-100677000D01*
X73373000Y-100677000D01*
X71982046Y-100677000D01*
X71855881Y-100851874D01*
X60144119Y-100851874D01*
X60017954Y-100677000D01*
X58627000Y-100677000D01*
X58373000Y-100677000D01*
X56982046Y-100677000D01*
X56855881Y-100851874D01*
X53634700Y-100851874D01*
X53634700Y-100248126D01*
X56855881Y-100248126D01*
X56982046Y-100423000D01*
X58373000Y-100423000D01*
X58373000Y-100403000D01*
X58627000Y-100403000D01*
X58627000Y-100423000D01*
X60017954Y-100423000D01*
X60144119Y-100248126D01*
X71855881Y-100248126D01*
X71982046Y-100423000D01*
X73373000Y-100423000D01*
X73373000Y-100403000D01*
X73627000Y-100403000D01*
X73627000Y-100423000D01*
X75017954Y-100423000D01*
X75144119Y-100248126D01*
X75064276Y-100025024D01*
X74942369Y-99837236D01*
X74786169Y-99676839D01*
X74601678Y-99549997D01*
X74395987Y-99461585D01*
X74177000Y-99415000D01*
X72823000Y-99415000D01*
X72604013Y-99461585D01*
X72398322Y-99549997D01*
X72213831Y-99676839D01*
X72057631Y-99837236D01*
X71935724Y-100025024D01*
X71855881Y-100248126D01*
X60144119Y-100248126D01*
X60064276Y-100025024D01*
X59942369Y-99837236D01*
X59786169Y-99676839D01*
X59601678Y-99549997D01*
X59395987Y-99461585D01*
X59177000Y-99415000D01*
X57823000Y-99415000D01*
X57604013Y-99461585D01*
X57398322Y-99549997D01*
X57213831Y-99676839D01*
X57057631Y-99837236D01*
X56935724Y-100025024D01*
X56855881Y-100248126D01*
X53634700Y-100248126D01*
X53634700Y-95682501D01*
X56667201Y-92650000D01*
X71809509Y-92650000D01*
X71831423Y-92872499D01*
X71896324Y-93086447D01*
X72001716Y-93283623D01*
X72143551Y-93456449D01*
X72316377Y-93598284D01*
X72513553Y-93703676D01*
X72727501Y-93768577D01*
X72894248Y-93785000D01*
X74105752Y-93785000D01*
X74272499Y-93768577D01*
X74486447Y-93703676D01*
X74683623Y-93598284D01*
X74856449Y-93456449D01*
X74998284Y-93283623D01*
X75103676Y-93086447D01*
X75168577Y-92872499D01*
X75190491Y-92650000D01*
X75168577Y-92427501D01*
X75103676Y-92213553D01*
X74998284Y-92016377D01*
X74856449Y-91843551D01*
X74683623Y-91701716D01*
X74486447Y-91596324D01*
X74272499Y-91531423D01*
X74105752Y-91515000D01*
X72894248Y-91515000D01*
X72727501Y-91531423D01*
X72513553Y-91596324D01*
X72316377Y-91701716D01*
X72143551Y-91843551D01*
X72001716Y-92016377D01*
X71896324Y-92213553D01*
X71831423Y-92427501D01*
X71809509Y-92650000D01*
X56667201Y-92650000D01*
X56760904Y-92556298D01*
X56789901Y-92532501D01*
X56884874Y-92416776D01*
X56955446Y-92284747D01*
X56998903Y-92141486D01*
X57009900Y-92029833D01*
X57009900Y-92029832D01*
X57013577Y-91992500D01*
X57009900Y-91955167D01*
X57009900Y-90708466D01*
X57052257Y-90726011D01*
X57348816Y-90785000D01*
X57651184Y-90785000D01*
X57947743Y-90726011D01*
X58227095Y-90610299D01*
X58478505Y-90442312D01*
X58692312Y-90228505D01*
X58838313Y-90010000D01*
X80437378Y-90010000D01*
X80474700Y-90013676D01*
X80512022Y-90010000D01*
X80512033Y-90010000D01*
X80623686Y-89999003D01*
X80766947Y-89955546D01*
X80898976Y-89884974D01*
X81014701Y-89790001D01*
X81038504Y-89760997D01*
X82758100Y-88041402D01*
X82893551Y-88206449D01*
X83066377Y-88348284D01*
X83263553Y-88453676D01*
X83477501Y-88518577D01*
X83700000Y-88540491D01*
X83804501Y-88530199D01*
X83804500Y-95320698D01*
X83188998Y-95936201D01*
X83160000Y-95959999D01*
X83136202Y-95988997D01*
X83136201Y-95988998D01*
X83065026Y-96075724D01*
X82994454Y-96207754D01*
X82950998Y-96351015D01*
X82936324Y-96500000D01*
X82940001Y-96537332D01*
X82940000Y-101455432D01*
X82893552Y-101493551D01*
X82751717Y-101666377D01*
X82646324Y-101863553D01*
X82581423Y-102077501D01*
X82565000Y-102244248D01*
X82565000Y-103455751D01*
X82581423Y-103622498D01*
X82646324Y-103836446D01*
X82751716Y-104033623D01*
X82893551Y-104206449D01*
X83066377Y-104348284D01*
X83263553Y-104453676D01*
X83477501Y-104518577D01*
X83700000Y-104540491D01*
X83922498Y-104518577D01*
X84136446Y-104453676D01*
X84333623Y-104348284D01*
X84506449Y-104206449D01*
X84607958Y-104082760D01*
X87740001Y-107214803D01*
X87740001Y-107530192D01*
X87727501Y-107531423D01*
X87513553Y-107596324D01*
X87316377Y-107701716D01*
X87143551Y-107843551D01*
X87001716Y-108016377D01*
X86896324Y-108213553D01*
X86831423Y-108427501D01*
X86809509Y-108650000D01*
X86831423Y-108872499D01*
X86896324Y-109086447D01*
X87001716Y-109283623D01*
X87143551Y-109456449D01*
X87316377Y-109598284D01*
X87513553Y-109703676D01*
X87727501Y-109768577D01*
X87894248Y-109785000D01*
X89105752Y-109785000D01*
X89272499Y-109768577D01*
X89486447Y-109703676D01*
X89683623Y-109598284D01*
X89856449Y-109456449D01*
X89998284Y-109283623D01*
X90103676Y-109086447D01*
X90168577Y-108872499D01*
X90190491Y-108650000D01*
X90168577Y-108427501D01*
X90103676Y-108213553D01*
X89998284Y-108016377D01*
X89856449Y-107843551D01*
X89683623Y-107701716D01*
X89486447Y-107596324D01*
X89272499Y-107531423D01*
X89260000Y-107530192D01*
X89260000Y-106937323D01*
X89263676Y-106900000D01*
X89260000Y-106862677D01*
X89260000Y-106862667D01*
X89249003Y-106751014D01*
X89205546Y-106607753D01*
X89134974Y-106475723D01*
X89063799Y-106388997D01*
X89040001Y-106359999D01*
X89011003Y-106336201D01*
X85013804Y-102339003D01*
X84990001Y-102309999D01*
X84909884Y-102244248D01*
X97565000Y-102244248D01*
X97565000Y-103455751D01*
X97581423Y-103622498D01*
X97646324Y-103836446D01*
X97751716Y-104033623D01*
X97893551Y-104206449D01*
X98066377Y-104348284D01*
X98263553Y-104453676D01*
X98477501Y-104518577D01*
X98700000Y-104540491D01*
X98922498Y-104518577D01*
X99136446Y-104453676D01*
X99333623Y-104348284D01*
X99506449Y-104206449D01*
X99607958Y-104082760D01*
X102740001Y-107214803D01*
X102740001Y-107530192D01*
X102727501Y-107531423D01*
X102513553Y-107596324D01*
X102316377Y-107701716D01*
X102143551Y-107843551D01*
X102001716Y-108016377D01*
X101896324Y-108213553D01*
X101831423Y-108427501D01*
X101809509Y-108650000D01*
X101831423Y-108872499D01*
X101896324Y-109086447D01*
X102001716Y-109283623D01*
X102143551Y-109456449D01*
X102316377Y-109598284D01*
X102513553Y-109703676D01*
X102727501Y-109768577D01*
X102894248Y-109785000D01*
X104105752Y-109785000D01*
X104272499Y-109768577D01*
X104486447Y-109703676D01*
X104683623Y-109598284D01*
X104856449Y-109456449D01*
X104998284Y-109283623D01*
X105103676Y-109086447D01*
X105168577Y-108872499D01*
X105190491Y-108650000D01*
X105168577Y-108427501D01*
X105103676Y-108213553D01*
X104998284Y-108016377D01*
X104856449Y-107843551D01*
X104683623Y-107701716D01*
X104486447Y-107596324D01*
X104272499Y-107531423D01*
X104260000Y-107530192D01*
X104260000Y-106937323D01*
X104263676Y-106900000D01*
X104260000Y-106862677D01*
X104260000Y-106862667D01*
X104249003Y-106751014D01*
X104205546Y-106607753D01*
X104134974Y-106475723D01*
X104063799Y-106388997D01*
X104040001Y-106359999D01*
X104011003Y-106336201D01*
X100013804Y-102339003D01*
X99990001Y-102309999D01*
X99874276Y-102215026D01*
X99829779Y-102191242D01*
X99818577Y-102077501D01*
X99753676Y-101863553D01*
X99648284Y-101666377D01*
X99506449Y-101493551D01*
X99333623Y-101351716D01*
X99136447Y-101246324D01*
X98922499Y-101181423D01*
X98700000Y-101159509D01*
X98477502Y-101181423D01*
X98263554Y-101246324D01*
X98066378Y-101351716D01*
X97893552Y-101493551D01*
X97751717Y-101666377D01*
X97646324Y-101863553D01*
X97581423Y-102077501D01*
X97565000Y-102244248D01*
X84909884Y-102244248D01*
X84874276Y-102215026D01*
X84829779Y-102191242D01*
X84818577Y-102077501D01*
X84753676Y-101863553D01*
X84648284Y-101666377D01*
X84506449Y-101493551D01*
X84460000Y-101455431D01*
X84460000Y-100851874D01*
X86855881Y-100851874D01*
X86935724Y-101074976D01*
X87057631Y-101262764D01*
X87213831Y-101423161D01*
X87398322Y-101550003D01*
X87604013Y-101638415D01*
X87823000Y-101685000D01*
X88373000Y-101685000D01*
X88373000Y-100677000D01*
X88627000Y-100677000D01*
X88627000Y-101685000D01*
X89177000Y-101685000D01*
X89395987Y-101638415D01*
X89601678Y-101550003D01*
X89786169Y-101423161D01*
X89942369Y-101262764D01*
X90064276Y-101074976D01*
X90144119Y-100851874D01*
X101855881Y-100851874D01*
X101935724Y-101074976D01*
X102057631Y-101262764D01*
X102213831Y-101423161D01*
X102398322Y-101550003D01*
X102604013Y-101638415D01*
X102823000Y-101685000D01*
X103373000Y-101685000D01*
X103373000Y-100677000D01*
X103627000Y-100677000D01*
X103627000Y-101685000D01*
X104177000Y-101685000D01*
X104395987Y-101638415D01*
X104601678Y-101550003D01*
X104786169Y-101423161D01*
X104942369Y-101262764D01*
X105064276Y-101074976D01*
X105144119Y-100851874D01*
X105017954Y-100677000D01*
X103627000Y-100677000D01*
X103373000Y-100677000D01*
X101982046Y-100677000D01*
X101855881Y-100851874D01*
X90144119Y-100851874D01*
X90017954Y-100677000D01*
X88627000Y-100677000D01*
X88373000Y-100677000D01*
X86982046Y-100677000D01*
X86855881Y-100851874D01*
X84460000Y-100851874D01*
X84460000Y-100248126D01*
X86855881Y-100248126D01*
X86982046Y-100423000D01*
X88373000Y-100423000D01*
X88373000Y-100403000D01*
X88627000Y-100403000D01*
X88627000Y-100423000D01*
X90017954Y-100423000D01*
X90144119Y-100248126D01*
X101855881Y-100248126D01*
X101982046Y-100423000D01*
X103373000Y-100423000D01*
X103373000Y-100403000D01*
X103627000Y-100403000D01*
X103627000Y-100423000D01*
X105017954Y-100423000D01*
X105144119Y-100248126D01*
X105064276Y-100025024D01*
X104942369Y-99837236D01*
X104786169Y-99676839D01*
X104601678Y-99549997D01*
X104395987Y-99461585D01*
X104177000Y-99415000D01*
X102823000Y-99415000D01*
X102604013Y-99461585D01*
X102398322Y-99549997D01*
X102213831Y-99676839D01*
X102057631Y-99837236D01*
X101935724Y-100025024D01*
X101855881Y-100248126D01*
X90144119Y-100248126D01*
X90064276Y-100025024D01*
X89942369Y-99837236D01*
X89786169Y-99676839D01*
X89601678Y-99549997D01*
X89395987Y-99461585D01*
X89177000Y-99415000D01*
X87823000Y-99415000D01*
X87604013Y-99461585D01*
X87398322Y-99549997D01*
X87213831Y-99676839D01*
X87057631Y-99837236D01*
X86935724Y-100025024D01*
X86855881Y-100248126D01*
X84460000Y-100248126D01*
X84460000Y-96814801D01*
X85075504Y-96199298D01*
X85104501Y-96175501D01*
X85199474Y-96059776D01*
X85270046Y-95927747D01*
X85313503Y-95784486D01*
X85324500Y-95672833D01*
X85324500Y-95672832D01*
X85328177Y-95635500D01*
X85324500Y-95598167D01*
X85324500Y-92650000D01*
X86809509Y-92650000D01*
X86831423Y-92872499D01*
X86896324Y-93086447D01*
X87001716Y-93283623D01*
X87143551Y-93456449D01*
X87316377Y-93598284D01*
X87513553Y-93703676D01*
X87727501Y-93768577D01*
X87894248Y-93785000D01*
X89105752Y-93785000D01*
X89272499Y-93768577D01*
X89486447Y-93703676D01*
X89683623Y-93598284D01*
X89856449Y-93456449D01*
X89998284Y-93283623D01*
X90103676Y-93086447D01*
X90168577Y-92872499D01*
X90190491Y-92650000D01*
X90168577Y-92427501D01*
X90103676Y-92213553D01*
X89998284Y-92016377D01*
X89856449Y-91843551D01*
X89683623Y-91701716D01*
X89486447Y-91596324D01*
X89272499Y-91531423D01*
X89105752Y-91515000D01*
X87894248Y-91515000D01*
X87727501Y-91531423D01*
X87513553Y-91596324D01*
X87316377Y-91701716D01*
X87143551Y-91843551D01*
X87001716Y-92016377D01*
X86896324Y-92213553D01*
X86831423Y-92427501D01*
X86809509Y-92650000D01*
X85324500Y-92650000D01*
X85324500Y-85933822D01*
X85328176Y-85896499D01*
X85324500Y-85859176D01*
X85324500Y-85859167D01*
X85313503Y-85747514D01*
X85270046Y-85604253D01*
X85199474Y-85472223D01*
X85128299Y-85385497D01*
X85104501Y-85356499D01*
X85075503Y-85332701D01*
X84594676Y-84851874D01*
X86855881Y-84851874D01*
X86935724Y-85074976D01*
X87057631Y-85262764D01*
X87213831Y-85423161D01*
X87398322Y-85550003D01*
X87604013Y-85638415D01*
X87823000Y-85685000D01*
X88373000Y-85685000D01*
X88373000Y-84677000D01*
X88627000Y-84677000D01*
X88627000Y-85685000D01*
X89177000Y-85685000D01*
X89395987Y-85638415D01*
X89601678Y-85550003D01*
X89786169Y-85423161D01*
X89942369Y-85262764D01*
X90064276Y-85074976D01*
X90144119Y-84851874D01*
X90017954Y-84677000D01*
X88627000Y-84677000D01*
X88373000Y-84677000D01*
X86982046Y-84677000D01*
X86855881Y-84851874D01*
X84594676Y-84851874D01*
X83990928Y-84248126D01*
X86855881Y-84248126D01*
X86982046Y-84423000D01*
X88373000Y-84423000D01*
X88373000Y-84403000D01*
X88627000Y-84403000D01*
X88627000Y-84423000D01*
X90017954Y-84423000D01*
X90144119Y-84248126D01*
X90064276Y-84025024D01*
X89942369Y-83837236D01*
X89786169Y-83676839D01*
X89601678Y-83549997D01*
X89395987Y-83461585D01*
X89177000Y-83415000D01*
X87823000Y-83415000D01*
X87604013Y-83461585D01*
X87398322Y-83549997D01*
X87213831Y-83676839D01*
X87057631Y-83837236D01*
X86935724Y-84025024D01*
X86855881Y-84248126D01*
X83990928Y-84248126D01*
X81733277Y-81990475D01*
X97965000Y-81990475D01*
X97965000Y-82509525D01*
X98066261Y-83018601D01*
X98264893Y-83498141D01*
X98553262Y-83929715D01*
X98920285Y-84296738D01*
X99351859Y-84585107D01*
X99831399Y-84783739D01*
X100340475Y-84885000D01*
X100859525Y-84885000D01*
X101368601Y-84783739D01*
X101848141Y-84585107D01*
X102279715Y-84296738D01*
X102646738Y-83929715D01*
X102935107Y-83498141D01*
X103133739Y-83018601D01*
X103235000Y-82509525D01*
X103235000Y-81990475D01*
X103133739Y-81481399D01*
X102935107Y-81001859D01*
X102646738Y-80570285D01*
X102279715Y-80203262D01*
X101848141Y-79914893D01*
X101368601Y-79716261D01*
X100859525Y-79615000D01*
X100340475Y-79615000D01*
X99831399Y-79716261D01*
X99351859Y-79914893D01*
X98920285Y-80203262D01*
X98553262Y-80570285D01*
X98264893Y-81001859D01*
X98066261Y-81481399D01*
X97965000Y-81990475D01*
X81733277Y-81990475D01*
X70056882Y-70314080D01*
X91615525Y-70314080D01*
X91699208Y-70568261D01*
X91971775Y-70699158D01*
X92264642Y-70774365D01*
X92566553Y-70790991D01*
X92865907Y-70748397D01*
X93151199Y-70648222D01*
X93300792Y-70568261D01*
X93384475Y-70314080D01*
X92500000Y-69429605D01*
X91615525Y-70314080D01*
X70056882Y-70314080D01*
X69059355Y-69316553D01*
X90959009Y-69316553D01*
X91001603Y-69615907D01*
X91101778Y-69901199D01*
X91181739Y-70050792D01*
X91435920Y-70134475D01*
X92320395Y-69250000D01*
X91435920Y-68365525D01*
X91181739Y-68449208D01*
X91050842Y-68721775D01*
X90975635Y-69014642D01*
X90959009Y-69316553D01*
X69059355Y-69316553D01*
X69035000Y-69292199D01*
X69035000Y-69098816D01*
X68976011Y-68802257D01*
X68860299Y-68522905D01*
X68692312Y-68271495D01*
X68606737Y-68185920D01*
X91615525Y-68185920D01*
X92500000Y-69070395D01*
X93384475Y-68185920D01*
X93300792Y-67931739D01*
X93028225Y-67800842D01*
X92735358Y-67725635D01*
X92433447Y-67709009D01*
X92134093Y-67751603D01*
X91848801Y-67851778D01*
X91699208Y-67931739D01*
X91615525Y-68185920D01*
X68606737Y-68185920D01*
X68478505Y-68057688D01*
X68227095Y-67889701D01*
X67947743Y-67773989D01*
X67651184Y-67715000D01*
X67348816Y-67715000D01*
X67052257Y-67773989D01*
X67010000Y-67791493D01*
X67010000Y-63365618D01*
X67064893Y-63498141D01*
X67353262Y-63929715D01*
X67720285Y-64296738D01*
X68151859Y-64585107D01*
X68631399Y-64783739D01*
X69140475Y-64885000D01*
X69659525Y-64885000D01*
X70168601Y-64783739D01*
X70648141Y-64585107D01*
X71079715Y-64296738D01*
X71446738Y-63929715D01*
X71735107Y-63498141D01*
X71933739Y-63018601D01*
X72035000Y-62509525D01*
X72035000Y-61990475D01*
X87965000Y-61990475D01*
X87965000Y-62509525D01*
X88066261Y-63018601D01*
X88264893Y-63498141D01*
X88553262Y-63929715D01*
X88920285Y-64296738D01*
X89351859Y-64585107D01*
X89831399Y-64783739D01*
X90340475Y-64885000D01*
X90859525Y-64885000D01*
X91368601Y-64783739D01*
X91848141Y-64585107D01*
X92279715Y-64296738D01*
X92646738Y-63929715D01*
X92935107Y-63498141D01*
X93133739Y-63018601D01*
X93235000Y-62509525D01*
X93235000Y-61990475D01*
X93133739Y-61481399D01*
X92935107Y-61001859D01*
X92646738Y-60570285D01*
X92279715Y-60203262D01*
X91848141Y-59914893D01*
X91368601Y-59716261D01*
X90859525Y-59615000D01*
X90340475Y-59615000D01*
X89831399Y-59716261D01*
X89351859Y-59914893D01*
X88920285Y-60203262D01*
X88553262Y-60570285D01*
X88264893Y-61001859D01*
X88066261Y-61481399D01*
X87965000Y-61990475D01*
X72035000Y-61990475D01*
X71933739Y-61481399D01*
X71735107Y-61001859D01*
X71446738Y-60570285D01*
X71079715Y-60203262D01*
X70648141Y-59914893D01*
X70168601Y-59716261D01*
X69659525Y-59615000D01*
X69140475Y-59615000D01*
X68631399Y-59716261D01*
X68151859Y-59914893D01*
X67720285Y-60203262D01*
X67353262Y-60570285D01*
X67064893Y-61001859D01*
X66866261Y-61481399D01*
X66792593Y-61851757D01*
X66790001Y-61848599D01*
X66761004Y-61824802D01*
X62010500Y-57074299D01*
X62010500Y-50708715D01*
X62052257Y-50726011D01*
X62348816Y-50785000D01*
X62651184Y-50785000D01*
X62908929Y-50733732D01*
X63184905Y-51009708D01*
X63208699Y-51038701D01*
X63237692Y-51062495D01*
X63237696Y-51062499D01*
X63308385Y-51120511D01*
X63324424Y-51133674D01*
X63456453Y-51204246D01*
X63599714Y-51247703D01*
X63711367Y-51258700D01*
X63711376Y-51258700D01*
X63748699Y-51262376D01*
X63786022Y-51258700D01*
X91213978Y-51258700D01*
X91251300Y-51262376D01*
X91288622Y-51258700D01*
X91288633Y-51258700D01*
X91400286Y-51247703D01*
X91543547Y-51204246D01*
X91675576Y-51133674D01*
X91791301Y-51038701D01*
X91815103Y-51009698D01*
X92091070Y-50733731D01*
X92348816Y-50785000D01*
X92651184Y-50785000D01*
X92947743Y-50726011D01*
X93227095Y-50610299D01*
X93391228Y-50500629D01*
X93900101Y-51009502D01*
X93923899Y-51038501D01*
X93952897Y-51062299D01*
X94039623Y-51133474D01*
X94171653Y-51204046D01*
X94314914Y-51247503D01*
X94426567Y-51258500D01*
X94426576Y-51258500D01*
X94463899Y-51262176D01*
X94501222Y-51258500D01*
X96214178Y-51258500D01*
X96251500Y-51262176D01*
X96288822Y-51258500D01*
X96288833Y-51258500D01*
X96400486Y-51247503D01*
X96543747Y-51204046D01*
X96675776Y-51133474D01*
X96791501Y-51038501D01*
X96815304Y-51009497D01*
X97091070Y-50733731D01*
X97348816Y-50785000D01*
X97651184Y-50785000D01*
X97947743Y-50726011D01*
X97970901Y-50716419D01*
X97970900Y-56989197D01*
X94488998Y-60471101D01*
X94460000Y-60494899D01*
X94436202Y-60523897D01*
X94436201Y-60523898D01*
X94365026Y-60610624D01*
X94294454Y-60742654D01*
X94250998Y-60885915D01*
X94236324Y-61034900D01*
X94240001Y-61072232D01*
X94240000Y-67911687D01*
X94021495Y-68057688D01*
X93807688Y-68271495D01*
X93712262Y-68414310D01*
X93564080Y-68365525D01*
X92679605Y-69250000D01*
X93564080Y-70134475D01*
X93712262Y-70085690D01*
X93807688Y-70228505D01*
X94021495Y-70442312D01*
X94272905Y-70610299D01*
X94552257Y-70726011D01*
X94848816Y-70785000D01*
X95151184Y-70785000D01*
X95447743Y-70726011D01*
X95727095Y-70610299D01*
X95978505Y-70442312D01*
X96192312Y-70228505D01*
X96250000Y-70142169D01*
X96307688Y-70228505D01*
X96521495Y-70442312D01*
X96772905Y-70610299D01*
X97052257Y-70726011D01*
X97348816Y-70785000D01*
X97651184Y-70785000D01*
X97947743Y-70726011D01*
X98227095Y-70610299D01*
X98478505Y-70442312D01*
X98692312Y-70228505D01*
X98860299Y-69977095D01*
X98976011Y-69697743D01*
X99035000Y-69401184D01*
X99035000Y-69098816D01*
X98976011Y-68802257D01*
X98860299Y-68522905D01*
X98692312Y-68271495D01*
X98478505Y-68057688D01*
X98227095Y-67889701D01*
X97947743Y-67773989D01*
X97651184Y-67715000D01*
X97348816Y-67715000D01*
X97052257Y-67773989D01*
X96772905Y-67889701D01*
X96521495Y-68057688D01*
X96307688Y-68271495D01*
X96250000Y-68357831D01*
X96192312Y-68271495D01*
X95978505Y-68057688D01*
X95760000Y-67911687D01*
X95760000Y-61990475D01*
X96765000Y-61990475D01*
X96765000Y-62509525D01*
X96866261Y-63018601D01*
X97064893Y-63498141D01*
X97353262Y-63929715D01*
X97720285Y-64296738D01*
X98151859Y-64585107D01*
X98631399Y-64783739D01*
X99140475Y-64885000D01*
X99659525Y-64885000D01*
X100168601Y-64783739D01*
X100648141Y-64585107D01*
X101079715Y-64296738D01*
X101446738Y-63929715D01*
X101735107Y-63498141D01*
X101933739Y-63018601D01*
X102035000Y-62509525D01*
X102035000Y-61990475D01*
X101933739Y-61481399D01*
X101735107Y-61001859D01*
X101446738Y-60570285D01*
X101079715Y-60203262D01*
X100648141Y-59914893D01*
X100168601Y-59716261D01*
X99659525Y-59615000D01*
X99140475Y-59615000D01*
X98631399Y-59716261D01*
X98151859Y-59914893D01*
X97720285Y-60203262D01*
X97353262Y-60570285D01*
X97064893Y-61001859D01*
X96866261Y-61481399D01*
X96765000Y-61990475D01*
X95760000Y-61990475D01*
X95760000Y-61349701D01*
X99241909Y-57867794D01*
X99270901Y-57844001D01*
X99294695Y-57815008D01*
X99294699Y-57815004D01*
X99365873Y-57728277D01*
X99365874Y-57728276D01*
X99436446Y-57596247D01*
X99479903Y-57452986D01*
X99490900Y-57341333D01*
X99490900Y-57341324D01*
X99494576Y-57304001D01*
X99490900Y-57266678D01*
X99490900Y-48857102D01*
X105465400Y-54831602D01*
X105465401Y-87781303D01*
X105447743Y-87773989D01*
X105151184Y-87715000D01*
X104848816Y-87715000D01*
X104552257Y-87773989D01*
X104272905Y-87889701D01*
X104021495Y-88057688D01*
X103807688Y-88271495D01*
X103750000Y-88357831D01*
X103692312Y-88271495D01*
X103478505Y-88057688D01*
X103227095Y-87889701D01*
X102947743Y-87773989D01*
X102651184Y-87715000D01*
X102348816Y-87715000D01*
X102052257Y-87773989D01*
X101772905Y-87889701D01*
X101521495Y-88057688D01*
X101307688Y-88271495D01*
X101139701Y-88522905D01*
X101023989Y-88802257D01*
X100965000Y-89098816D01*
X100965000Y-89401184D01*
X101023989Y-89697743D01*
X101139701Y-89977095D01*
X101307688Y-90228505D01*
X101521495Y-90442312D01*
X101772905Y-90610299D01*
X102052257Y-90726011D01*
X102348816Y-90785000D01*
X102651184Y-90785000D01*
X102947743Y-90726011D01*
X103227095Y-90610299D01*
X103478505Y-90442312D01*
X103692312Y-90228505D01*
X103750000Y-90142169D01*
X103807688Y-90228505D01*
X104021495Y-90442312D01*
X104272905Y-90610299D01*
X104552257Y-90726011D01*
X104848816Y-90785000D01*
X105151184Y-90785000D01*
X105447743Y-90726011D01*
X105727095Y-90610299D01*
X105978505Y-90442312D01*
X106192312Y-90228505D01*
X106250000Y-90142169D01*
X106307688Y-90228505D01*
X106521495Y-90442312D01*
X106772905Y-90610299D01*
X107052257Y-90726011D01*
X107348816Y-90785000D01*
X107651184Y-90785000D01*
X107947743Y-90726011D01*
X108227095Y-90610299D01*
X108478505Y-90442312D01*
X108692312Y-90228505D01*
X108860299Y-89977095D01*
X108976011Y-89697743D01*
X109035000Y-89401184D01*
X109035000Y-89098816D01*
X108976011Y-88802257D01*
X108860299Y-88522905D01*
X108692312Y-88271495D01*
X108478505Y-88057688D01*
X108227095Y-87889701D01*
X107947743Y-87773989D01*
X107651184Y-87715000D01*
X107348816Y-87715000D01*
X107091070Y-87766269D01*
X106985400Y-87660599D01*
X106985400Y-83306228D01*
X107064893Y-83498141D01*
X107353262Y-83929715D01*
X107720285Y-84296738D01*
X108151859Y-84585107D01*
X108631399Y-84783739D01*
X109140475Y-84885000D01*
X109659525Y-84885000D01*
X110168601Y-84783739D01*
X110648141Y-84585107D01*
X111079715Y-84296738D01*
X111446738Y-83929715D01*
X111735107Y-83498141D01*
X111933739Y-83018601D01*
X112035000Y-82509525D01*
X112035000Y-81990475D01*
X111933739Y-81481399D01*
X111735107Y-81001859D01*
X111446738Y-80570285D01*
X111079715Y-80203262D01*
X110648141Y-79914893D01*
X110168601Y-79716261D01*
X109659525Y-79615000D01*
X109140475Y-79615000D01*
X108631399Y-79716261D01*
X108151859Y-79914893D01*
X107720285Y-80203262D01*
X107353262Y-80570285D01*
X107064893Y-81001859D01*
X106985400Y-81193772D01*
X106985400Y-54554122D01*
X106989076Y-54516799D01*
X106985400Y-54479476D01*
X106985400Y-54479467D01*
X106974403Y-54367814D01*
X106930946Y-54224553D01*
X106860374Y-54092524D01*
X106765401Y-53976799D01*
X106736404Y-53953002D01*
X94773877Y-41990475D01*
X96765000Y-41990475D01*
X96765000Y-42509525D01*
X96866261Y-43018601D01*
X97064893Y-43498141D01*
X97353262Y-43929715D01*
X97720285Y-44296738D01*
X98151859Y-44585107D01*
X98631399Y-44783739D01*
X99140475Y-44885000D01*
X99659525Y-44885000D01*
X100168601Y-44783739D01*
X100648141Y-44585107D01*
X101079715Y-44296738D01*
X101446738Y-43929715D01*
X101735107Y-43498141D01*
X101933739Y-43018601D01*
X102035000Y-42509525D01*
X102035000Y-41990475D01*
X101933739Y-41481399D01*
X101735107Y-41001859D01*
X101446738Y-40570285D01*
X101079715Y-40203262D01*
X100648141Y-39914893D01*
X100168601Y-39716261D01*
X99659525Y-39615000D01*
X99140475Y-39615000D01*
X98631399Y-39716261D01*
X98151859Y-39914893D01*
X97720285Y-40203262D01*
X97353262Y-40570285D01*
X97064893Y-41001859D01*
X96866261Y-41481399D01*
X96765000Y-41990475D01*
X94773877Y-41990475D01*
X91336404Y-38553003D01*
X91312601Y-38523999D01*
X91196876Y-38429026D01*
X91064847Y-38358454D01*
X90921586Y-38314997D01*
X90809933Y-38304000D01*
X90809922Y-38304000D01*
X90772600Y-38300324D01*
X90735278Y-38304000D01*
X85212800Y-38304000D01*
X83364461Y-36455661D01*
X83529014Y-36367706D01*
X83755134Y-36182134D01*
X83940706Y-35956014D01*
X84046031Y-35758964D01*
X84184866Y-35928134D01*
X84410986Y-36113706D01*
X84668966Y-36251599D01*
X84948889Y-36336513D01*
X85167050Y-36358000D01*
X85312950Y-36358000D01*
X85531111Y-36336513D01*
X85811034Y-36251599D01*
X86069014Y-36113706D01*
X86295134Y-35928134D01*
X86433969Y-35758964D01*
X86539294Y-35956014D01*
X86724866Y-36182134D01*
X86950986Y-36367706D01*
X87208966Y-36505599D01*
X87488889Y-36590513D01*
X87707050Y-36612000D01*
X87852950Y-36612000D01*
X88071111Y-36590513D01*
X88351034Y-36505599D01*
X88609014Y-36367706D01*
X88835134Y-36182134D01*
X89020706Y-35956014D01*
X89126031Y-35758964D01*
X89264866Y-35928134D01*
X89490986Y-36113706D01*
X89748966Y-36251599D01*
X90028889Y-36336513D01*
X90247050Y-36358000D01*
X90392950Y-36358000D01*
X90611111Y-36336513D01*
X90891034Y-36251599D01*
X91149014Y-36113706D01*
X91375134Y-35928134D01*
X91560706Y-35702014D01*
X91698599Y-35444034D01*
X91783513Y-35164111D01*
X91812185Y-34873000D01*
X91798822Y-34737323D01*
X107333000Y-34737323D01*
X107333000Y-35262677D01*
X107435492Y-35777935D01*
X107636536Y-36263298D01*
X107928406Y-36700113D01*
X108299887Y-37071594D01*
X108736702Y-37363464D01*
X109222065Y-37564508D01*
X109737323Y-37667000D01*
X110262677Y-37667000D01*
X110777935Y-37564508D01*
X111263298Y-37363464D01*
X111700113Y-37071594D01*
X112071594Y-36700113D01*
X112363464Y-36263298D01*
X112564508Y-35777935D01*
X112667000Y-35262677D01*
X112667000Y-34737323D01*
X112564508Y-34222065D01*
X112363464Y-33736702D01*
X112071594Y-33299887D01*
X111700113Y-32928406D01*
X111263298Y-32636536D01*
X110777935Y-32435492D01*
X110262677Y-32333000D01*
X109737323Y-32333000D01*
X109222065Y-32435492D01*
X108736702Y-32636536D01*
X108299887Y-32928406D01*
X107928406Y-33299887D01*
X107636536Y-33736702D01*
X107435492Y-34222065D01*
X107333000Y-34737323D01*
X91798822Y-34737323D01*
X91783513Y-34581889D01*
X91698599Y-34301966D01*
X91560706Y-34043986D01*
X91375134Y-33817866D01*
X91149014Y-33632294D01*
X91091244Y-33601416D01*
X91320269Y-33430588D01*
X91515178Y-33214355D01*
X91664157Y-32964252D01*
X91761481Y-32689891D01*
X91640814Y-32460000D01*
X90447000Y-32460000D01*
X90447000Y-32480000D01*
X90193000Y-32480000D01*
X90193000Y-32460000D01*
X90173000Y-32460000D01*
X90173000Y-32206000D01*
X90193000Y-32206000D01*
X90193000Y-31012845D01*
X90447000Y-31012845D01*
X90447000Y-32206000D01*
X91640814Y-32206000D01*
X91761481Y-31976109D01*
X91664157Y-31701748D01*
X91515178Y-31451645D01*
X91320269Y-31235412D01*
X91086920Y-31061359D01*
X90824099Y-30936175D01*
X90676890Y-30891524D01*
X90447000Y-31012845D01*
X90193000Y-31012845D01*
X89963110Y-30891524D01*
X89815901Y-30936175D01*
X89553080Y-31061359D01*
X89319731Y-31235412D01*
X89247096Y-31315994D01*
X88591101Y-30660000D01*
X114340000Y-30660000D01*
X114340001Y-129340000D01*
X45660000Y-129340000D01*
X45660000Y-124737323D01*
X47333000Y-124737323D01*
X47333000Y-125262677D01*
X47435492Y-125777935D01*
X47636536Y-126263298D01*
X47928406Y-126700113D01*
X48299887Y-127071594D01*
X48736702Y-127363464D01*
X49222065Y-127564508D01*
X49737323Y-127667000D01*
X50262677Y-127667000D01*
X50777935Y-127564508D01*
X51263298Y-127363464D01*
X51700113Y-127071594D01*
X52071594Y-126700113D01*
X52363464Y-126263298D01*
X52564508Y-125777935D01*
X52667000Y-125262677D01*
X52667000Y-124737323D01*
X52649631Y-124650000D01*
X56809509Y-124650000D01*
X56831423Y-124872499D01*
X56896324Y-125086447D01*
X57001716Y-125283623D01*
X57143551Y-125456449D01*
X57316377Y-125598284D01*
X57513553Y-125703676D01*
X57727501Y-125768577D01*
X57894248Y-125785000D01*
X59105752Y-125785000D01*
X59272499Y-125768577D01*
X59486447Y-125703676D01*
X59683623Y-125598284D01*
X59856449Y-125456449D01*
X59998284Y-125283623D01*
X60103676Y-125086447D01*
X60168577Y-124872499D01*
X60190491Y-124650000D01*
X71809509Y-124650000D01*
X71831423Y-124872499D01*
X71896324Y-125086447D01*
X72001716Y-125283623D01*
X72143551Y-125456449D01*
X72316377Y-125598284D01*
X72513553Y-125703676D01*
X72727501Y-125768577D01*
X72894248Y-125785000D01*
X74105752Y-125785000D01*
X74272499Y-125768577D01*
X74486447Y-125703676D01*
X74683623Y-125598284D01*
X74856449Y-125456449D01*
X74998284Y-125283623D01*
X75103676Y-125086447D01*
X75168577Y-124872499D01*
X75190491Y-124650000D01*
X75168577Y-124427501D01*
X75103676Y-124213553D01*
X74998284Y-124016377D01*
X74856449Y-123843551D01*
X74683623Y-123701716D01*
X74486447Y-123596324D01*
X74272499Y-123531423D01*
X74105752Y-123515000D01*
X72894248Y-123515000D01*
X72727501Y-123531423D01*
X72513553Y-123596324D01*
X72316377Y-123701716D01*
X72143551Y-123843551D01*
X72001716Y-124016377D01*
X71896324Y-124213553D01*
X71831423Y-124427501D01*
X71809509Y-124650000D01*
X60190491Y-124650000D01*
X60168577Y-124427501D01*
X60103676Y-124213553D01*
X59998284Y-124016377D01*
X59856449Y-123843551D01*
X59683623Y-123701716D01*
X59486447Y-123596324D01*
X59272499Y-123531423D01*
X59105752Y-123515000D01*
X57894248Y-123515000D01*
X57727501Y-123531423D01*
X57513553Y-123596324D01*
X57316377Y-123701716D01*
X57143551Y-123843551D01*
X57001716Y-124016377D01*
X56896324Y-124213553D01*
X56831423Y-124427501D01*
X56809509Y-124650000D01*
X52649631Y-124650000D01*
X52564508Y-124222065D01*
X52363464Y-123736702D01*
X52071594Y-123299887D01*
X51700113Y-122928406D01*
X51263298Y-122636536D01*
X50777935Y-122435492D01*
X50262677Y-122333000D01*
X49737323Y-122333000D01*
X49222065Y-122435492D01*
X48736702Y-122636536D01*
X48299887Y-122928406D01*
X47928406Y-123299887D01*
X47636536Y-123736702D01*
X47435492Y-124222065D01*
X47333000Y-124737323D01*
X45660000Y-124737323D01*
X45660000Y-90314080D01*
X51615525Y-90314080D01*
X51699208Y-90568261D01*
X51971775Y-90699158D01*
X52264642Y-90774365D01*
X52566553Y-90790991D01*
X52865907Y-90748397D01*
X53151199Y-90648222D01*
X53300792Y-90568261D01*
X53384475Y-90314080D01*
X52500000Y-89429605D01*
X51615525Y-90314080D01*
X45660000Y-90314080D01*
X45660000Y-89316553D01*
X50959009Y-89316553D01*
X51001603Y-89615907D01*
X51101778Y-89901199D01*
X51181739Y-90050792D01*
X51435920Y-90134475D01*
X52320395Y-89250000D01*
X51435920Y-88365525D01*
X51181739Y-88449208D01*
X51050842Y-88721775D01*
X50975635Y-89014642D01*
X50959009Y-89316553D01*
X45660000Y-89316553D01*
X45660000Y-88185920D01*
X51615525Y-88185920D01*
X52500000Y-89070395D01*
X53384475Y-88185920D01*
X53300792Y-87931739D01*
X53028225Y-87800842D01*
X52735358Y-87725635D01*
X52433447Y-87709009D01*
X52134093Y-87751603D01*
X51848801Y-87851778D01*
X51699208Y-87931739D01*
X51615525Y-88185920D01*
X45660000Y-88185920D01*
X45660000Y-81990475D01*
X47965000Y-81990475D01*
X47965000Y-82509525D01*
X48066261Y-83018601D01*
X48264893Y-83498141D01*
X48553262Y-83929715D01*
X48920285Y-84296738D01*
X49351859Y-84585107D01*
X49831399Y-84783739D01*
X50340475Y-84885000D01*
X50859525Y-84885000D01*
X51368601Y-84783739D01*
X51848141Y-84585107D01*
X52279715Y-84296738D01*
X52646738Y-83929715D01*
X52935107Y-83498141D01*
X53133739Y-83018601D01*
X53235000Y-82509525D01*
X53235000Y-81990475D01*
X53133739Y-81481399D01*
X52935107Y-81001859D01*
X52646738Y-80570285D01*
X52279715Y-80203262D01*
X51848141Y-79914893D01*
X51368601Y-79716261D01*
X50859525Y-79615000D01*
X50340475Y-79615000D01*
X49831399Y-79716261D01*
X49351859Y-79914893D01*
X48920285Y-80203262D01*
X48553262Y-80570285D01*
X48264893Y-81001859D01*
X48066261Y-81481399D01*
X47965000Y-81990475D01*
X45660000Y-81990475D01*
X45660000Y-34737323D01*
X47333000Y-34737323D01*
X47333000Y-35262677D01*
X47435492Y-35777935D01*
X47636536Y-36263298D01*
X47928406Y-36700113D01*
X48299887Y-37071594D01*
X48736702Y-37363464D01*
X49222065Y-37564508D01*
X49737323Y-37667000D01*
X50262677Y-37667000D01*
X50777935Y-37564508D01*
X51263298Y-37363464D01*
X51700113Y-37071594D01*
X52071594Y-36700113D01*
X52363464Y-36263298D01*
X52564508Y-35777935D01*
X52667000Y-35262677D01*
X52667000Y-34737323D01*
X52564508Y-34222065D01*
X52363464Y-33736702D01*
X52071594Y-33299887D01*
X51700113Y-32928406D01*
X51263298Y-32636536D01*
X50777935Y-32435492D01*
X50262677Y-32333000D01*
X49737323Y-32333000D01*
X49222065Y-32435492D01*
X48736702Y-32636536D01*
X48299887Y-32928406D01*
X47928406Y-33299887D01*
X47636536Y-33736702D01*
X47435492Y-34222065D01*
X47333000Y-34737323D01*
X45660000Y-34737323D01*
X45660000Y-30660000D01*
X67812598Y-30660000D01*
X55738898Y-42733701D01*
G36*
X82999665Y-85406466D02*
G01*
X82893552Y-85493551D01*
X82751717Y-85666377D01*
X82646324Y-85863553D01*
X82581423Y-86077501D01*
X82574405Y-86148756D01*
X82450424Y-86215026D01*
X82334699Y-86309999D01*
X82310901Y-86338997D01*
X80159899Y-88490000D01*
X69016703Y-88490000D01*
X69136446Y-88453676D01*
X69333623Y-88348284D01*
X69506449Y-88206449D01*
X69648284Y-88033623D01*
X69753676Y-87836447D01*
X69818577Y-87622499D01*
X69835000Y-87455752D01*
X69835000Y-86244248D01*
X69818577Y-86077501D01*
X69753676Y-85863553D01*
X69648284Y-85666377D01*
X69506449Y-85493551D01*
X69333623Y-85351716D01*
X69136447Y-85246324D01*
X68922499Y-85181423D01*
X68700000Y-85159509D01*
X68477502Y-85181423D01*
X68263554Y-85246324D01*
X68066378Y-85351716D01*
X67893552Y-85493551D01*
X67758100Y-85658599D01*
X67010000Y-84910499D01*
X67010000Y-84851874D01*
X71855881Y-84851874D01*
X71935724Y-85074976D01*
X72057631Y-85262764D01*
X72213831Y-85423161D01*
X72398322Y-85550003D01*
X72604013Y-85638415D01*
X72823000Y-85685000D01*
X73373000Y-85685000D01*
X73373000Y-84677000D01*
X73627000Y-84677000D01*
X73627000Y-85685000D01*
X74177000Y-85685000D01*
X74395987Y-85638415D01*
X74601678Y-85550003D01*
X74786169Y-85423161D01*
X74942369Y-85262764D01*
X75064276Y-85074976D01*
X75144119Y-84851874D01*
X75017954Y-84677000D01*
X73627000Y-84677000D01*
X73373000Y-84677000D01*
X71982046Y-84677000D01*
X71855881Y-84851874D01*
X67010000Y-84851874D01*
X67010000Y-84248126D01*
X71855881Y-84248126D01*
X71982046Y-84423000D01*
X73373000Y-84423000D01*
X73373000Y-84403000D01*
X73627000Y-84403000D01*
X73627000Y-84423000D01*
X75017954Y-84423000D01*
X75144119Y-84248126D01*
X75064276Y-84025024D01*
X74942369Y-83837236D01*
X74786169Y-83676839D01*
X74601678Y-83549997D01*
X74395987Y-83461585D01*
X74177000Y-83415000D01*
X72823000Y-83415000D01*
X72604013Y-83461585D01*
X72398322Y-83549997D01*
X72213831Y-83676839D01*
X72057631Y-83837236D01*
X71935724Y-84025024D01*
X71855881Y-84248126D01*
X67010000Y-84248126D01*
X67010000Y-70708507D01*
X67052257Y-70726011D01*
X67348816Y-70785000D01*
X67651184Y-70785000D01*
X67947743Y-70726011D01*
X68210409Y-70617210D01*
X82999665Y-85406466D01*
X82999665Y-85406466D01*
G37*
X82999665Y-85406466D02*
X82893552Y-85493551D01*
X82751717Y-85666377D01*
X82646324Y-85863553D01*
X82581423Y-86077501D01*
X82574405Y-86148756D01*
X82450424Y-86215026D01*
X82334699Y-86309999D01*
X82310901Y-86338997D01*
X80159899Y-88490000D01*
X69016703Y-88490000D01*
X69136446Y-88453676D01*
X69333623Y-88348284D01*
X69506449Y-88206449D01*
X69648284Y-88033623D01*
X69753676Y-87836447D01*
X69818577Y-87622499D01*
X69835000Y-87455752D01*
X69835000Y-86244248D01*
X69818577Y-86077501D01*
X69753676Y-85863553D01*
X69648284Y-85666377D01*
X69506449Y-85493551D01*
X69333623Y-85351716D01*
X69136447Y-85246324D01*
X68922499Y-85181423D01*
X68700000Y-85159509D01*
X68477502Y-85181423D01*
X68263554Y-85246324D01*
X68066378Y-85351716D01*
X67893552Y-85493551D01*
X67758100Y-85658599D01*
X67010000Y-84910499D01*
X67010000Y-84851874D01*
X71855881Y-84851874D01*
X71935724Y-85074976D01*
X72057631Y-85262764D01*
X72213831Y-85423161D01*
X72398322Y-85550003D01*
X72604013Y-85638415D01*
X72823000Y-85685000D01*
X73373000Y-85685000D01*
X73373000Y-84677000D01*
X73627000Y-84677000D01*
X73627000Y-85685000D01*
X74177000Y-85685000D01*
X74395987Y-85638415D01*
X74601678Y-85550003D01*
X74786169Y-85423161D01*
X74942369Y-85262764D01*
X75064276Y-85074976D01*
X75144119Y-84851874D01*
X75017954Y-84677000D01*
X73627000Y-84677000D01*
X73373000Y-84677000D01*
X71982046Y-84677000D01*
X71855881Y-84851874D01*
X67010000Y-84851874D01*
X67010000Y-84248126D01*
X71855881Y-84248126D01*
X71982046Y-84423000D01*
X73373000Y-84423000D01*
X73373000Y-84403000D01*
X73627000Y-84403000D01*
X73627000Y-84423000D01*
X75017954Y-84423000D01*
X75144119Y-84248126D01*
X75064276Y-84025024D01*
X74942369Y-83837236D01*
X74786169Y-83676839D01*
X74601678Y-83549997D01*
X74395987Y-83461585D01*
X74177000Y-83415000D01*
X72823000Y-83415000D01*
X72604013Y-83461585D01*
X72398322Y-83549997D01*
X72213831Y-83676839D01*
X72057631Y-83837236D01*
X71935724Y-84025024D01*
X71855881Y-84248126D01*
X67010000Y-84248126D01*
X67010000Y-70708507D01*
X67052257Y-70726011D01*
X67348816Y-70785000D01*
X67651184Y-70785000D01*
X67947743Y-70726011D01*
X68210409Y-70617210D01*
X82999665Y-85406466D01*
G36*
X58066261Y-43018601D02*
G01*
X58264893Y-43498141D01*
X58553262Y-43929715D01*
X58920285Y-44296738D01*
X59351859Y-44585107D01*
X59831399Y-44783739D01*
X60340475Y-44885000D01*
X60859525Y-44885000D01*
X61199530Y-44817369D01*
X60739503Y-45277396D01*
X60710499Y-45301199D01*
X60655371Y-45368374D01*
X60615526Y-45416924D01*
X60544955Y-45548953D01*
X60544954Y-45548954D01*
X60501497Y-45692215D01*
X60490500Y-45803868D01*
X60490500Y-45803878D01*
X60486824Y-45841200D01*
X60490500Y-45878522D01*
X60490501Y-57351768D01*
X60486824Y-57389100D01*
X60501498Y-57538085D01*
X60544954Y-57681346D01*
X60615526Y-57813376D01*
X60640660Y-57844001D01*
X60710500Y-57929101D01*
X60739498Y-57952899D01*
X65490000Y-62703402D01*
X65490000Y-67791493D01*
X65447743Y-67773989D01*
X65151184Y-67715000D01*
X64848816Y-67715000D01*
X64552257Y-67773989D01*
X64272905Y-67889701D01*
X64021495Y-68057688D01*
X63807688Y-68271495D01*
X63712262Y-68414310D01*
X63564080Y-68365525D01*
X62679605Y-69250000D01*
X63564080Y-70134475D01*
X63712262Y-70085690D01*
X63807688Y-70228505D01*
X64021495Y-70442312D01*
X64272905Y-70610299D01*
X64552257Y-70726011D01*
X64848816Y-70785000D01*
X65151184Y-70785000D01*
X65447743Y-70726011D01*
X65490000Y-70708507D01*
X65490001Y-85187967D01*
X65486324Y-85225300D01*
X65500998Y-85374285D01*
X65544454Y-85517546D01*
X65615026Y-85649576D01*
X65686201Y-85736302D01*
X65710000Y-85765301D01*
X65738998Y-85789099D01*
X67310901Y-87361003D01*
X67334699Y-87390001D01*
X67450424Y-87484974D01*
X67574405Y-87551244D01*
X67581423Y-87622498D01*
X67646324Y-87836446D01*
X67751716Y-88033623D01*
X67893551Y-88206449D01*
X68066377Y-88348284D01*
X68263553Y-88453676D01*
X68383296Y-88490000D01*
X58838313Y-88490000D01*
X58692312Y-88271495D01*
X58478505Y-88057688D01*
X58227095Y-87889701D01*
X57947743Y-87773989D01*
X57651184Y-87715000D01*
X57348816Y-87715000D01*
X57052257Y-87773989D01*
X57009900Y-87791534D01*
X57009900Y-83365376D01*
X57064893Y-83498141D01*
X57353262Y-83929715D01*
X57720285Y-84296738D01*
X58151859Y-84585107D01*
X58631399Y-84783739D01*
X59140475Y-84885000D01*
X59659525Y-84885000D01*
X60168601Y-84783739D01*
X60648141Y-84585107D01*
X61079715Y-84296738D01*
X61446738Y-83929715D01*
X61735107Y-83498141D01*
X61933739Y-83018601D01*
X62035000Y-82509525D01*
X62035000Y-81990475D01*
X61933739Y-81481399D01*
X61735107Y-81001859D01*
X61446738Y-80570285D01*
X61079715Y-80203262D01*
X60648141Y-79914893D01*
X60168601Y-79716261D01*
X59659525Y-79615000D01*
X59140475Y-79615000D01*
X58631399Y-79716261D01*
X58151859Y-79914893D01*
X57720285Y-80203262D01*
X57353262Y-80570285D01*
X57064893Y-81001859D01*
X57009900Y-81134624D01*
X57009900Y-70314080D01*
X61615525Y-70314080D01*
X61699208Y-70568261D01*
X61971775Y-70699158D01*
X62264642Y-70774365D01*
X62566553Y-70790991D01*
X62865907Y-70748397D01*
X63151199Y-70648222D01*
X63300792Y-70568261D01*
X63384475Y-70314080D01*
X62500000Y-69429605D01*
X61615525Y-70314080D01*
X57009900Y-70314080D01*
X57009900Y-69316553D01*
X60959009Y-69316553D01*
X61001603Y-69615907D01*
X61101778Y-69901199D01*
X61181739Y-70050792D01*
X61435920Y-70134475D01*
X62320395Y-69250000D01*
X61435920Y-68365525D01*
X61181739Y-68449208D01*
X61050842Y-68721775D01*
X60975635Y-69014642D01*
X60959009Y-69316553D01*
X57009900Y-69316553D01*
X57009900Y-68185920D01*
X61615525Y-68185920D01*
X62500000Y-69070395D01*
X63384475Y-68185920D01*
X63300792Y-67931739D01*
X63028225Y-67800842D01*
X62735358Y-67725635D01*
X62433447Y-67709009D01*
X62134093Y-67751603D01*
X61848801Y-67851778D01*
X61699208Y-67931739D01*
X61615525Y-68185920D01*
X57009900Y-68185920D01*
X57009900Y-61990475D01*
X57965000Y-61990475D01*
X57965000Y-62509525D01*
X58066261Y-63018601D01*
X58264893Y-63498141D01*
X58553262Y-63929715D01*
X58920285Y-64296738D01*
X59351859Y-64585107D01*
X59831399Y-64783739D01*
X60340475Y-64885000D01*
X60859525Y-64885000D01*
X61368601Y-64783739D01*
X61848141Y-64585107D01*
X62279715Y-64296738D01*
X62646738Y-63929715D01*
X62935107Y-63498141D01*
X63133739Y-63018601D01*
X63235000Y-62509525D01*
X63235000Y-61990475D01*
X63133739Y-61481399D01*
X62935107Y-61001859D01*
X62646738Y-60570285D01*
X62279715Y-60203262D01*
X61848141Y-59914893D01*
X61368601Y-59716261D01*
X60859525Y-59615000D01*
X60340475Y-59615000D01*
X59831399Y-59716261D01*
X59351859Y-59914893D01*
X58920285Y-60203262D01*
X58553262Y-60570285D01*
X58264893Y-61001859D01*
X58066261Y-61481399D01*
X57965000Y-61990475D01*
X57009900Y-61990475D01*
X57009900Y-43612301D01*
X57989501Y-42632700D01*
X58066261Y-43018601D01*
X58066261Y-43018601D01*
G37*
X58066261Y-43018601D02*
X58264893Y-43498141D01*
X58553262Y-43929715D01*
X58920285Y-44296738D01*
X59351859Y-44585107D01*
X59831399Y-44783739D01*
X60340475Y-44885000D01*
X60859525Y-44885000D01*
X61199530Y-44817369D01*
X60739503Y-45277396D01*
X60710499Y-45301199D01*
X60655371Y-45368374D01*
X60615526Y-45416924D01*
X60544955Y-45548953D01*
X60544954Y-45548954D01*
X60501497Y-45692215D01*
X60490500Y-45803868D01*
X60490500Y-45803878D01*
X60486824Y-45841200D01*
X60490500Y-45878522D01*
X60490501Y-57351768D01*
X60486824Y-57389100D01*
X60501498Y-57538085D01*
X60544954Y-57681346D01*
X60615526Y-57813376D01*
X60640660Y-57844001D01*
X60710500Y-57929101D01*
X60739498Y-57952899D01*
X65490000Y-62703402D01*
X65490000Y-67791493D01*
X65447743Y-67773989D01*
X65151184Y-67715000D01*
X64848816Y-67715000D01*
X64552257Y-67773989D01*
X64272905Y-67889701D01*
X64021495Y-68057688D01*
X63807688Y-68271495D01*
X63712262Y-68414310D01*
X63564080Y-68365525D01*
X62679605Y-69250000D01*
X63564080Y-70134475D01*
X63712262Y-70085690D01*
X63807688Y-70228505D01*
X64021495Y-70442312D01*
X64272905Y-70610299D01*
X64552257Y-70726011D01*
X64848816Y-70785000D01*
X65151184Y-70785000D01*
X65447743Y-70726011D01*
X65490000Y-70708507D01*
X65490001Y-85187967D01*
X65486324Y-85225300D01*
X65500998Y-85374285D01*
X65544454Y-85517546D01*
X65615026Y-85649576D01*
X65686201Y-85736302D01*
X65710000Y-85765301D01*
X65738998Y-85789099D01*
X67310901Y-87361003D01*
X67334699Y-87390001D01*
X67450424Y-87484974D01*
X67574405Y-87551244D01*
X67581423Y-87622498D01*
X67646324Y-87836446D01*
X67751716Y-88033623D01*
X67893551Y-88206449D01*
X68066377Y-88348284D01*
X68263553Y-88453676D01*
X68383296Y-88490000D01*
X58838313Y-88490000D01*
X58692312Y-88271495D01*
X58478505Y-88057688D01*
X58227095Y-87889701D01*
X57947743Y-87773989D01*
X57651184Y-87715000D01*
X57348816Y-87715000D01*
X57052257Y-87773989D01*
X57009900Y-87791534D01*
X57009900Y-83365376D01*
X57064893Y-83498141D01*
X57353262Y-83929715D01*
X57720285Y-84296738D01*
X58151859Y-84585107D01*
X58631399Y-84783739D01*
X59140475Y-84885000D01*
X59659525Y-84885000D01*
X60168601Y-84783739D01*
X60648141Y-84585107D01*
X61079715Y-84296738D01*
X61446738Y-83929715D01*
X61735107Y-83498141D01*
X61933739Y-83018601D01*
X62035000Y-82509525D01*
X62035000Y-81990475D01*
X61933739Y-81481399D01*
X61735107Y-81001859D01*
X61446738Y-80570285D01*
X61079715Y-80203262D01*
X60648141Y-79914893D01*
X60168601Y-79716261D01*
X59659525Y-79615000D01*
X59140475Y-79615000D01*
X58631399Y-79716261D01*
X58151859Y-79914893D01*
X57720285Y-80203262D01*
X57353262Y-80570285D01*
X57064893Y-81001859D01*
X57009900Y-81134624D01*
X57009900Y-70314080D01*
X61615525Y-70314080D01*
X61699208Y-70568261D01*
X61971775Y-70699158D01*
X62264642Y-70774365D01*
X62566553Y-70790991D01*
X62865907Y-70748397D01*
X63151199Y-70648222D01*
X63300792Y-70568261D01*
X63384475Y-70314080D01*
X62500000Y-69429605D01*
X61615525Y-70314080D01*
X57009900Y-70314080D01*
X57009900Y-69316553D01*
X60959009Y-69316553D01*
X61001603Y-69615907D01*
X61101778Y-69901199D01*
X61181739Y-70050792D01*
X61435920Y-70134475D01*
X62320395Y-69250000D01*
X61435920Y-68365525D01*
X61181739Y-68449208D01*
X61050842Y-68721775D01*
X60975635Y-69014642D01*
X60959009Y-69316553D01*
X57009900Y-69316553D01*
X57009900Y-68185920D01*
X61615525Y-68185920D01*
X62500000Y-69070395D01*
X63384475Y-68185920D01*
X63300792Y-67931739D01*
X63028225Y-67800842D01*
X62735358Y-67725635D01*
X62433447Y-67709009D01*
X62134093Y-67751603D01*
X61848801Y-67851778D01*
X61699208Y-67931739D01*
X61615525Y-68185920D01*
X57009900Y-68185920D01*
X57009900Y-61990475D01*
X57965000Y-61990475D01*
X57965000Y-62509525D01*
X58066261Y-63018601D01*
X58264893Y-63498141D01*
X58553262Y-63929715D01*
X58920285Y-64296738D01*
X59351859Y-64585107D01*
X59831399Y-64783739D01*
X60340475Y-64885000D01*
X60859525Y-64885000D01*
X61368601Y-64783739D01*
X61848141Y-64585107D01*
X62279715Y-64296738D01*
X62646738Y-63929715D01*
X62935107Y-63498141D01*
X63133739Y-63018601D01*
X63235000Y-62509525D01*
X63235000Y-61990475D01*
X63133739Y-61481399D01*
X62935107Y-61001859D01*
X62646738Y-60570285D01*
X62279715Y-60203262D01*
X61848141Y-59914893D01*
X61368601Y-59716261D01*
X60859525Y-59615000D01*
X60340475Y-59615000D01*
X59831399Y-59716261D01*
X59351859Y-59914893D01*
X58920285Y-60203262D01*
X58553262Y-60570285D01*
X58264893Y-61001859D01*
X58066261Y-61481399D01*
X57965000Y-61990475D01*
X57009900Y-61990475D01*
X57009900Y-43612301D01*
X57989501Y-42632700D01*
X58066261Y-43018601D01*
M02*
