G04 #@! TF.GenerationSoftware,KiCad,Pcbnew,(5.1.0)-1*
G04 #@! TF.CreationDate,2019-05-25T13:26:40-04:00*
G04 #@! TF.ProjectId,VCO_2_RevB_Interface,56434f5f-325f-4526-9576-425f496e7465,rev?*
G04 #@! TF.SameCoordinates,Original*
G04 #@! TF.FileFunction,Copper,L1,Top*
G04 #@! TF.FilePolarity,Positive*
%FSLAX46Y46*%
G04 Gerber Fmt 4.6, Leading zero omitted, Abs format (unit mm)*
G04 Created by KiCad (PCBNEW (5.1.0)-1) date 2019-05-25 13:26:40*
%MOMM*%
%LPD*%
G04 APERTURE LIST*
%ADD10O,2.100000X1.000000*%
%ADD11O,1.000000X2.100000*%
%ADD12C,1.800000*%
%ADD13C,4.000000*%
%ADD14C,4.064000*%
%ADD15R,1.700000X1.700000*%
%ADD16O,1.700000X1.700000*%
%ADD17C,0.250000*%
%ADD18C,0.254000*%
G04 APERTURE END LIST*
D10*
X73500000Y-108650000D03*
D11*
X68700000Y-102850000D03*
D10*
X73500000Y-100550000D03*
X58500000Y-108650000D03*
D11*
X53700000Y-102850000D03*
D10*
X58500000Y-100550000D03*
X58500000Y-124650000D03*
D11*
X53700000Y-118850000D03*
D10*
X58500000Y-116550000D03*
X103500000Y-124650000D03*
D11*
X98700000Y-118850000D03*
D10*
X103500000Y-116550000D03*
X88500000Y-124650000D03*
D11*
X83700000Y-118850000D03*
D10*
X88500000Y-116550000D03*
X73500000Y-124650000D03*
D11*
X68700000Y-118850000D03*
D10*
X73500000Y-116550000D03*
X73500000Y-92650000D03*
D11*
X68700000Y-86850000D03*
D10*
X73500000Y-84550000D03*
X88500000Y-92650000D03*
D11*
X83700000Y-86850000D03*
D10*
X88500000Y-84550000D03*
X88500000Y-108650000D03*
D11*
X83700000Y-102850000D03*
D10*
X88500000Y-100550000D03*
X103500000Y-108650000D03*
D11*
X98700000Y-102850000D03*
D10*
X103500000Y-100550000D03*
D12*
X97500000Y-49250000D03*
X95000000Y-49250000D03*
X92500000Y-49250000D03*
D13*
X99400000Y-42250000D03*
X90600000Y-42250000D03*
D12*
X67500000Y-49250000D03*
X65000000Y-49250000D03*
X62500000Y-49250000D03*
D13*
X69400000Y-42250000D03*
X60600000Y-42250000D03*
D12*
X107500000Y-89250000D03*
X105000000Y-89250000D03*
X102500000Y-89250000D03*
D13*
X109400000Y-82250000D03*
X100600000Y-82250000D03*
D12*
X57500000Y-89250000D03*
X55000000Y-89250000D03*
X52500000Y-89250000D03*
D13*
X59400000Y-82250000D03*
X50600000Y-82250000D03*
D12*
X67500000Y-69250000D03*
X65000000Y-69250000D03*
X62500000Y-69250000D03*
D13*
X69400000Y-62250000D03*
X60600000Y-62250000D03*
D12*
X97500000Y-69250000D03*
X95000000Y-69250000D03*
X92500000Y-69250000D03*
D13*
X99400000Y-62250000D03*
X90600000Y-62250000D03*
D14*
X110000000Y-125000000D03*
X50000000Y-125000000D03*
X110000000Y-35000000D03*
X50000000Y-35000000D03*
D15*
X70000000Y-34873000D03*
D16*
X70000000Y-32333000D03*
X72540000Y-35127000D03*
X72540000Y-32587000D03*
X75080000Y-34873000D03*
X75080000Y-32333000D03*
X77620000Y-35127000D03*
X77620000Y-32587000D03*
X80160000Y-34873000D03*
X80160000Y-32333000D03*
X82700000Y-35127000D03*
X82700000Y-32587000D03*
X85240000Y-34873000D03*
X85240000Y-32333000D03*
X87780000Y-35127000D03*
X87780000Y-32587000D03*
X90320000Y-34873000D03*
X90320000Y-32333000D03*
D17*
X82874700Y-118850000D02*
X83700000Y-118850000D01*
X81350200Y-117325500D02*
X82874700Y-118850000D01*
X81350200Y-34334800D02*
X81350200Y-117325500D01*
X80618400Y-33603000D02*
X81350200Y-34334800D01*
X78636000Y-33603000D02*
X80618400Y-33603000D01*
X77620000Y-32587000D02*
X78636000Y-33603000D01*
X68700000Y-104150000D02*
X68700000Y-102850000D01*
X68700000Y-104400000D02*
X68700000Y-104150000D01*
X72950000Y-108650000D02*
X68700000Y-104400000D01*
X73500000Y-108650000D02*
X72950000Y-108650000D01*
X69450000Y-102850000D02*
X68700000Y-102850000D01*
X76263000Y-96037000D02*
X69450000Y-102850000D01*
X76263000Y-31822000D02*
X76263000Y-96037000D01*
X75554700Y-31113700D02*
X76263000Y-31822000D01*
X74013300Y-31113700D02*
X75554700Y-31113700D01*
X72540000Y-32587000D02*
X74013300Y-31113700D01*
X73500000Y-122900000D02*
X69450000Y-118850000D01*
X73500000Y-124650000D02*
X73500000Y-122900000D01*
X80160000Y-108140000D02*
X80160000Y-106760000D01*
X69450000Y-118850000D02*
X80160000Y-108140000D01*
X68700000Y-118850000D02*
X69450000Y-118850000D01*
X80160000Y-34873000D02*
X80160000Y-106760000D01*
X75080000Y-34873000D02*
X75080000Y-76360300D01*
X75080000Y-76360300D02*
X53700000Y-97740300D01*
X53700000Y-97740300D02*
X53700000Y-102850000D01*
X82700000Y-35127000D02*
X82700000Y-91497900D01*
X82700000Y-91497900D02*
X98700000Y-107497900D01*
X98700000Y-107497900D02*
X98700000Y-118850000D01*
X99450000Y-118850000D02*
X98700000Y-118850000D01*
X103500000Y-122900000D02*
X99450000Y-118850000D01*
X103500000Y-124650000D02*
X103500000Y-122900000D01*
X55000000Y-72487800D02*
X55000000Y-89250000D01*
X63122500Y-64365300D02*
X55000000Y-72487800D01*
X63122500Y-56703400D02*
X63122500Y-64365300D01*
X71767600Y-36344600D02*
X71767600Y-48058300D01*
X71364500Y-35941500D02*
X71767600Y-36344600D01*
X71364500Y-32086800D02*
X71364500Y-35941500D01*
X72790800Y-30660500D02*
X71364500Y-32086800D01*
X85240000Y-34873000D02*
X84224000Y-33857000D01*
X84224000Y-33857000D02*
X82241600Y-33857000D01*
X82241600Y-33857000D02*
X81517000Y-33132400D01*
X81517000Y-33132400D02*
X81517000Y-31993200D01*
X71767600Y-48058300D02*
X63122500Y-56703400D01*
X81517000Y-31993200D02*
X80184300Y-30660500D01*
X80184300Y-30660500D02*
X72790800Y-30660500D01*
X54450000Y-118850000D02*
X53700000Y-118850000D01*
X58500000Y-122900000D02*
X54450000Y-118850000D01*
X58500000Y-124650000D02*
X58500000Y-122900000D01*
X65000000Y-57195100D02*
X65000000Y-69250000D01*
X73904700Y-48290400D02*
X65000000Y-57195100D01*
X73904700Y-33508300D02*
X73904700Y-48290400D01*
X75080000Y-32333000D02*
X73904700Y-33508300D01*
X69450000Y-86850000D02*
X68700000Y-86850000D01*
X73500000Y-90900000D02*
X69450000Y-86850000D01*
X73500000Y-92650000D02*
X73500000Y-90900000D01*
X90320000Y-34873000D02*
X90320000Y-36048300D01*
X90320000Y-36048300D02*
X92978000Y-38706300D01*
X92978000Y-38706300D02*
X92978000Y-48772000D01*
X92978000Y-48772000D02*
X92500000Y-49250000D01*
X70000000Y-34873000D02*
X70000000Y-36048300D01*
X70000000Y-36048300D02*
X67022000Y-39026300D01*
X67022000Y-39026300D02*
X67022000Y-48772000D01*
X67022000Y-48772000D02*
X67500000Y-49250000D01*
X84450000Y-86850000D02*
X83700000Y-86850000D01*
X88500000Y-90900000D02*
X84450000Y-86850000D01*
X88500000Y-92650000D02*
X88500000Y-90900000D01*
X98700000Y-102850000D02*
X97874700Y-102850000D01*
X97500000Y-69250000D02*
X97500000Y-102475300D01*
X97500000Y-102475300D02*
X97874700Y-102850000D01*
X102978000Y-88772000D02*
X102500000Y-89250000D01*
X102978000Y-69116600D02*
X102978000Y-88772000D01*
X86415300Y-52553900D02*
X102978000Y-69116600D01*
X86415300Y-33508300D02*
X86415300Y-52553900D01*
X85240000Y-32333000D02*
X86415300Y-33508300D01*
X105000000Y-62450500D02*
X105000000Y-89250000D01*
X96250000Y-53700500D02*
X105000000Y-62450500D01*
X96250000Y-34850000D02*
X96250000Y-53700500D01*
X92100000Y-30700000D02*
X96250000Y-34850000D01*
X84587000Y-30700000D02*
X92100000Y-30700000D01*
X82700000Y-32587000D02*
X84587000Y-30700000D01*
D18*
G36*
X71074741Y-31301758D02*
G01*
X71055134Y-31277866D01*
X70829014Y-31092294D01*
X70571034Y-30954401D01*
X70291111Y-30869487D01*
X70072950Y-30848000D01*
X69927050Y-30848000D01*
X69708889Y-30869487D01*
X69428966Y-30954401D01*
X69170986Y-31092294D01*
X68944866Y-31277866D01*
X68759294Y-31503986D01*
X68621401Y-31761966D01*
X68536487Y-32041889D01*
X68507815Y-32333000D01*
X68536487Y-32624111D01*
X68621401Y-32904034D01*
X68759294Y-33162014D01*
X68944866Y-33388134D01*
X68974687Y-33412607D01*
X68905820Y-33433498D01*
X68795506Y-33492463D01*
X68698815Y-33571815D01*
X68619463Y-33668506D01*
X68560498Y-33778820D01*
X68524188Y-33898518D01*
X68511928Y-34023000D01*
X68511928Y-35723000D01*
X68524188Y-35847482D01*
X68560498Y-35967180D01*
X68619463Y-36077494D01*
X68698815Y-36174185D01*
X68754013Y-36219485D01*
X66511003Y-38462496D01*
X66481999Y-38486299D01*
X66426871Y-38553474D01*
X66387026Y-38602024D01*
X66331289Y-38706300D01*
X66316454Y-38734054D01*
X66272997Y-38877315D01*
X66262000Y-38988968D01*
X66262000Y-38988978D01*
X66258324Y-39026300D01*
X66262000Y-39063622D01*
X66262001Y-48339870D01*
X66250000Y-48357831D01*
X66192312Y-48271495D01*
X65978505Y-48057688D01*
X65727095Y-47889701D01*
X65447743Y-47773989D01*
X65151184Y-47715000D01*
X64848816Y-47715000D01*
X64552257Y-47773989D01*
X64272905Y-47889701D01*
X64021495Y-48057688D01*
X63807688Y-48271495D01*
X63750000Y-48357831D01*
X63692312Y-48271495D01*
X63478505Y-48057688D01*
X63227095Y-47889701D01*
X62947743Y-47773989D01*
X62651184Y-47715000D01*
X62348816Y-47715000D01*
X62052257Y-47773989D01*
X61772905Y-47889701D01*
X61521495Y-48057688D01*
X61307688Y-48271495D01*
X61139701Y-48522905D01*
X61023989Y-48802257D01*
X60965000Y-49098816D01*
X60965000Y-49401184D01*
X61023989Y-49697743D01*
X61139701Y-49977095D01*
X61307688Y-50228505D01*
X61521495Y-50442312D01*
X61772905Y-50610299D01*
X62052257Y-50726011D01*
X62348816Y-50785000D01*
X62651184Y-50785000D01*
X62947743Y-50726011D01*
X63227095Y-50610299D01*
X63478505Y-50442312D01*
X63692312Y-50228505D01*
X63750000Y-50142169D01*
X63807688Y-50228505D01*
X64021495Y-50442312D01*
X64272905Y-50610299D01*
X64552257Y-50726011D01*
X64848816Y-50785000D01*
X65151184Y-50785000D01*
X65447743Y-50726011D01*
X65727095Y-50610299D01*
X65978505Y-50442312D01*
X66192312Y-50228505D01*
X66250000Y-50142169D01*
X66307688Y-50228505D01*
X66521495Y-50442312D01*
X66772905Y-50610299D01*
X67052257Y-50726011D01*
X67348816Y-50785000D01*
X67651184Y-50785000D01*
X67947743Y-50726011D01*
X68079779Y-50671320D01*
X62611503Y-56139596D01*
X62582499Y-56163399D01*
X62527371Y-56230574D01*
X62487526Y-56279124D01*
X62416955Y-56411153D01*
X62416954Y-56411154D01*
X62373497Y-56554415D01*
X62362500Y-56666068D01*
X62362500Y-56666078D01*
X62358824Y-56703400D01*
X62362500Y-56740722D01*
X62362500Y-60286047D01*
X62279715Y-60203262D01*
X61848141Y-59914893D01*
X61368601Y-59716261D01*
X60859525Y-59615000D01*
X60340475Y-59615000D01*
X59831399Y-59716261D01*
X59351859Y-59914893D01*
X58920285Y-60203262D01*
X58553262Y-60570285D01*
X58264893Y-61001859D01*
X58066261Y-61481399D01*
X57965000Y-61990475D01*
X57965000Y-62509525D01*
X58066261Y-63018601D01*
X58264893Y-63498141D01*
X58553262Y-63929715D01*
X58920285Y-64296738D01*
X59351859Y-64585107D01*
X59831399Y-64783739D01*
X60340475Y-64885000D01*
X60859525Y-64885000D01*
X61368601Y-64783739D01*
X61813572Y-64599426D01*
X54489003Y-71923996D01*
X54459999Y-71947799D01*
X54404871Y-72014974D01*
X54365026Y-72063524D01*
X54294455Y-72195553D01*
X54294454Y-72195554D01*
X54250997Y-72338815D01*
X54240000Y-72450468D01*
X54240000Y-72450478D01*
X54236324Y-72487800D01*
X54240000Y-72525122D01*
X54240001Y-87911687D01*
X54021495Y-88057688D01*
X53807688Y-88271495D01*
X53712262Y-88414310D01*
X53564080Y-88365525D01*
X52679605Y-89250000D01*
X53564080Y-90134475D01*
X53712262Y-90085690D01*
X53807688Y-90228505D01*
X54021495Y-90442312D01*
X54272905Y-90610299D01*
X54552257Y-90726011D01*
X54848816Y-90785000D01*
X55151184Y-90785000D01*
X55447743Y-90726011D01*
X55727095Y-90610299D01*
X55978505Y-90442312D01*
X56192312Y-90228505D01*
X56250000Y-90142169D01*
X56307688Y-90228505D01*
X56521495Y-90442312D01*
X56772905Y-90610299D01*
X57052257Y-90726011D01*
X57348816Y-90785000D01*
X57651184Y-90785000D01*
X57947743Y-90726011D01*
X58227095Y-90610299D01*
X58478505Y-90442312D01*
X58692312Y-90228505D01*
X58860299Y-89977095D01*
X58976011Y-89697743D01*
X59035000Y-89401184D01*
X59035000Y-89098816D01*
X58976011Y-88802257D01*
X58860299Y-88522905D01*
X58692312Y-88271495D01*
X58478505Y-88057688D01*
X58227095Y-87889701D01*
X57947743Y-87773989D01*
X57651184Y-87715000D01*
X57348816Y-87715000D01*
X57052257Y-87773989D01*
X56772905Y-87889701D01*
X56521495Y-88057688D01*
X56307688Y-88271495D01*
X56250000Y-88357831D01*
X56192312Y-88271495D01*
X55978505Y-88057688D01*
X55760000Y-87911687D01*
X55760000Y-81990475D01*
X56765000Y-81990475D01*
X56765000Y-82509525D01*
X56866261Y-83018601D01*
X57064893Y-83498141D01*
X57353262Y-83929715D01*
X57720285Y-84296738D01*
X58151859Y-84585107D01*
X58631399Y-84783739D01*
X59140475Y-84885000D01*
X59659525Y-84885000D01*
X60168601Y-84783739D01*
X60648141Y-84585107D01*
X61079715Y-84296738D01*
X61446738Y-83929715D01*
X61735107Y-83498141D01*
X61933739Y-83018601D01*
X62035000Y-82509525D01*
X62035000Y-81990475D01*
X61933739Y-81481399D01*
X61735107Y-81001859D01*
X61446738Y-80570285D01*
X61079715Y-80203262D01*
X60648141Y-79914893D01*
X60168601Y-79716261D01*
X59659525Y-79615000D01*
X59140475Y-79615000D01*
X58631399Y-79716261D01*
X58151859Y-79914893D01*
X57720285Y-80203262D01*
X57353262Y-80570285D01*
X57064893Y-81001859D01*
X56866261Y-81481399D01*
X56765000Y-81990475D01*
X55760000Y-81990475D01*
X55760000Y-72802601D01*
X58248521Y-70314080D01*
X61615525Y-70314080D01*
X61699208Y-70568261D01*
X61971775Y-70699158D01*
X62264642Y-70774365D01*
X62566553Y-70790991D01*
X62865907Y-70748397D01*
X63151199Y-70648222D01*
X63300792Y-70568261D01*
X63384475Y-70314080D01*
X62500000Y-69429605D01*
X61615525Y-70314080D01*
X58248521Y-70314080D01*
X59246048Y-69316553D01*
X60959009Y-69316553D01*
X61001603Y-69615907D01*
X61101778Y-69901199D01*
X61181739Y-70050792D01*
X61435920Y-70134475D01*
X62320395Y-69250000D01*
X61435920Y-68365525D01*
X61181739Y-68449208D01*
X61050842Y-68721775D01*
X60975635Y-69014642D01*
X60959009Y-69316553D01*
X59246048Y-69316553D01*
X60376681Y-68185920D01*
X61615525Y-68185920D01*
X62500000Y-69070395D01*
X63384475Y-68185920D01*
X63300792Y-67931739D01*
X63028225Y-67800842D01*
X62735358Y-67725635D01*
X62433447Y-67709009D01*
X62134093Y-67751603D01*
X61848801Y-67851778D01*
X61699208Y-67931739D01*
X61615525Y-68185920D01*
X60376681Y-68185920D01*
X63633503Y-64929099D01*
X63662501Y-64905301D01*
X63757474Y-64789576D01*
X63828046Y-64657547D01*
X63871503Y-64514286D01*
X63882500Y-64402633D01*
X63882500Y-64402625D01*
X63886176Y-64365300D01*
X63882500Y-64327975D01*
X63882500Y-57018201D01*
X72278603Y-48622099D01*
X72307601Y-48598301D01*
X72402574Y-48482576D01*
X72473146Y-48350547D01*
X72516603Y-48207286D01*
X72527600Y-48095633D01*
X72527600Y-48095625D01*
X72531276Y-48058300D01*
X72527600Y-48020975D01*
X72527600Y-36612000D01*
X72612950Y-36612000D01*
X72831111Y-36590513D01*
X73111034Y-36505599D01*
X73144700Y-36487604D01*
X73144701Y-47975597D01*
X64489003Y-56631296D01*
X64459999Y-56655099D01*
X64420360Y-56703400D01*
X64365026Y-56770824D01*
X64294455Y-56902853D01*
X64294454Y-56902854D01*
X64250997Y-57046115D01*
X64240000Y-57157768D01*
X64240000Y-57157778D01*
X64236324Y-57195100D01*
X64240000Y-57232422D01*
X64240001Y-67911687D01*
X64021495Y-68057688D01*
X63807688Y-68271495D01*
X63712262Y-68414310D01*
X63564080Y-68365525D01*
X62679605Y-69250000D01*
X63564080Y-70134475D01*
X63712262Y-70085690D01*
X63807688Y-70228505D01*
X64021495Y-70442312D01*
X64272905Y-70610299D01*
X64552257Y-70726011D01*
X64848816Y-70785000D01*
X65151184Y-70785000D01*
X65447743Y-70726011D01*
X65727095Y-70610299D01*
X65978505Y-70442312D01*
X66192312Y-70228505D01*
X66250000Y-70142169D01*
X66307688Y-70228505D01*
X66521495Y-70442312D01*
X66772905Y-70610299D01*
X67052257Y-70726011D01*
X67348816Y-70785000D01*
X67651184Y-70785000D01*
X67947743Y-70726011D01*
X68227095Y-70610299D01*
X68478505Y-70442312D01*
X68692312Y-70228505D01*
X68860299Y-69977095D01*
X68976011Y-69697743D01*
X69035000Y-69401184D01*
X69035000Y-69098816D01*
X68976011Y-68802257D01*
X68860299Y-68522905D01*
X68692312Y-68271495D01*
X68478505Y-68057688D01*
X68227095Y-67889701D01*
X67947743Y-67773989D01*
X67651184Y-67715000D01*
X67348816Y-67715000D01*
X67052257Y-67773989D01*
X66772905Y-67889701D01*
X66521495Y-68057688D01*
X66307688Y-68271495D01*
X66250000Y-68357831D01*
X66192312Y-68271495D01*
X65978505Y-68057688D01*
X65760000Y-67911687D01*
X65760000Y-61990475D01*
X66765000Y-61990475D01*
X66765000Y-62509525D01*
X66866261Y-63018601D01*
X67064893Y-63498141D01*
X67353262Y-63929715D01*
X67720285Y-64296738D01*
X68151859Y-64585107D01*
X68631399Y-64783739D01*
X69140475Y-64885000D01*
X69659525Y-64885000D01*
X70168601Y-64783739D01*
X70648141Y-64585107D01*
X71079715Y-64296738D01*
X71446738Y-63929715D01*
X71735107Y-63498141D01*
X71933739Y-63018601D01*
X72035000Y-62509525D01*
X72035000Y-61990475D01*
X71933739Y-61481399D01*
X71735107Y-61001859D01*
X71446738Y-60570285D01*
X71079715Y-60203262D01*
X70648141Y-59914893D01*
X70168601Y-59716261D01*
X69659525Y-59615000D01*
X69140475Y-59615000D01*
X68631399Y-59716261D01*
X68151859Y-59914893D01*
X67720285Y-60203262D01*
X67353262Y-60570285D01*
X67064893Y-61001859D01*
X66866261Y-61481399D01*
X66765000Y-61990475D01*
X65760000Y-61990475D01*
X65760000Y-57509901D01*
X74320000Y-48949902D01*
X74320001Y-76045497D01*
X53189003Y-97176496D01*
X53159999Y-97200299D01*
X53104871Y-97267474D01*
X53065026Y-97316024D01*
X52994455Y-97448053D01*
X52994454Y-97448054D01*
X52950997Y-97591315D01*
X52940000Y-97702968D01*
X52940000Y-97702978D01*
X52936324Y-97740300D01*
X52940000Y-97777623D01*
X52940001Y-101455431D01*
X52893552Y-101493551D01*
X52751717Y-101666377D01*
X52646324Y-101863553D01*
X52581423Y-102077501D01*
X52565000Y-102244248D01*
X52565000Y-103455751D01*
X52581423Y-103622498D01*
X52646324Y-103836446D01*
X52751716Y-104033623D01*
X52893551Y-104206449D01*
X53066377Y-104348284D01*
X53263553Y-104453676D01*
X53477501Y-104518577D01*
X53700000Y-104540491D01*
X53922498Y-104518577D01*
X54136446Y-104453676D01*
X54333623Y-104348284D01*
X54506449Y-104206449D01*
X54648284Y-104033623D01*
X54753676Y-103836447D01*
X54818577Y-103622499D01*
X54835000Y-103455752D01*
X54835000Y-102244248D01*
X54818577Y-102077501D01*
X54753676Y-101863553D01*
X54648284Y-101666377D01*
X54506449Y-101493551D01*
X54460000Y-101455431D01*
X54460000Y-100851874D01*
X56855881Y-100851874D01*
X56935724Y-101074976D01*
X57057631Y-101262764D01*
X57213831Y-101423161D01*
X57398322Y-101550003D01*
X57604013Y-101638415D01*
X57823000Y-101685000D01*
X58373000Y-101685000D01*
X58373000Y-100677000D01*
X58627000Y-100677000D01*
X58627000Y-101685000D01*
X59177000Y-101685000D01*
X59395987Y-101638415D01*
X59601678Y-101550003D01*
X59786169Y-101423161D01*
X59942369Y-101262764D01*
X60064276Y-101074976D01*
X60144119Y-100851874D01*
X60017954Y-100677000D01*
X58627000Y-100677000D01*
X58373000Y-100677000D01*
X56982046Y-100677000D01*
X56855881Y-100851874D01*
X54460000Y-100851874D01*
X54460000Y-100248126D01*
X56855881Y-100248126D01*
X56982046Y-100423000D01*
X58373000Y-100423000D01*
X58373000Y-100403000D01*
X58627000Y-100403000D01*
X58627000Y-100423000D01*
X60017954Y-100423000D01*
X60144119Y-100248126D01*
X60064276Y-100025024D01*
X59942369Y-99837236D01*
X59786169Y-99676839D01*
X59601678Y-99549997D01*
X59395987Y-99461585D01*
X59177000Y-99415000D01*
X57823000Y-99415000D01*
X57604013Y-99461585D01*
X57398322Y-99549997D01*
X57213831Y-99676839D01*
X57057631Y-99837236D01*
X56935724Y-100025024D01*
X56855881Y-100248126D01*
X54460000Y-100248126D01*
X54460000Y-98055101D01*
X66270853Y-86244248D01*
X67565000Y-86244248D01*
X67565000Y-87455751D01*
X67581423Y-87622498D01*
X67646324Y-87836446D01*
X67751716Y-88033623D01*
X67893551Y-88206449D01*
X68066377Y-88348284D01*
X68263553Y-88453676D01*
X68477501Y-88518577D01*
X68700000Y-88540491D01*
X68922498Y-88518577D01*
X69136446Y-88453676D01*
X69333623Y-88348284D01*
X69506449Y-88206449D01*
X69607958Y-88082760D01*
X72740001Y-91214803D01*
X72740001Y-91530192D01*
X72727501Y-91531423D01*
X72513553Y-91596324D01*
X72316377Y-91701716D01*
X72143551Y-91843551D01*
X72001716Y-92016377D01*
X71896324Y-92213553D01*
X71831423Y-92427501D01*
X71809509Y-92650000D01*
X71831423Y-92872499D01*
X71896324Y-93086447D01*
X72001716Y-93283623D01*
X72143551Y-93456449D01*
X72316377Y-93598284D01*
X72513553Y-93703676D01*
X72727501Y-93768577D01*
X72894248Y-93785000D01*
X74105752Y-93785000D01*
X74272499Y-93768577D01*
X74486447Y-93703676D01*
X74683623Y-93598284D01*
X74856449Y-93456449D01*
X74998284Y-93283623D01*
X75103676Y-93086447D01*
X75168577Y-92872499D01*
X75190491Y-92650000D01*
X75168577Y-92427501D01*
X75103676Y-92213553D01*
X74998284Y-92016377D01*
X74856449Y-91843551D01*
X74683623Y-91701716D01*
X74486447Y-91596324D01*
X74272499Y-91531423D01*
X74260000Y-91530192D01*
X74260000Y-90937323D01*
X74263676Y-90900000D01*
X74260000Y-90862677D01*
X74260000Y-90862667D01*
X74249003Y-90751014D01*
X74205546Y-90607753D01*
X74184437Y-90568261D01*
X74134974Y-90475723D01*
X74063799Y-90388997D01*
X74040001Y-90359999D01*
X74011003Y-90336201D01*
X70013804Y-86339003D01*
X69990001Y-86309999D01*
X69874276Y-86215026D01*
X69829779Y-86191242D01*
X69818577Y-86077501D01*
X69753676Y-85863553D01*
X69648284Y-85666377D01*
X69506449Y-85493551D01*
X69333623Y-85351716D01*
X69136447Y-85246324D01*
X68922499Y-85181423D01*
X68700000Y-85159509D01*
X68477502Y-85181423D01*
X68263554Y-85246324D01*
X68066378Y-85351716D01*
X67893552Y-85493551D01*
X67751717Y-85666377D01*
X67646324Y-85863553D01*
X67581423Y-86077501D01*
X67565000Y-86244248D01*
X66270853Y-86244248D01*
X67663227Y-84851874D01*
X71855881Y-84851874D01*
X71935724Y-85074976D01*
X72057631Y-85262764D01*
X72213831Y-85423161D01*
X72398322Y-85550003D01*
X72604013Y-85638415D01*
X72823000Y-85685000D01*
X73373000Y-85685000D01*
X73373000Y-84677000D01*
X73627000Y-84677000D01*
X73627000Y-85685000D01*
X74177000Y-85685000D01*
X74395987Y-85638415D01*
X74601678Y-85550003D01*
X74786169Y-85423161D01*
X74942369Y-85262764D01*
X75064276Y-85074976D01*
X75144119Y-84851874D01*
X75017954Y-84677000D01*
X73627000Y-84677000D01*
X73373000Y-84677000D01*
X71982046Y-84677000D01*
X71855881Y-84851874D01*
X67663227Y-84851874D01*
X68266975Y-84248126D01*
X71855881Y-84248126D01*
X71982046Y-84423000D01*
X73373000Y-84423000D01*
X73373000Y-84403000D01*
X73627000Y-84403000D01*
X73627000Y-84423000D01*
X75017954Y-84423000D01*
X75144119Y-84248126D01*
X75064276Y-84025024D01*
X74942369Y-83837236D01*
X74786169Y-83676839D01*
X74601678Y-83549997D01*
X74395987Y-83461585D01*
X74177000Y-83415000D01*
X72823000Y-83415000D01*
X72604013Y-83461585D01*
X72398322Y-83549997D01*
X72213831Y-83676839D01*
X72057631Y-83837236D01*
X71935724Y-84025024D01*
X71855881Y-84248126D01*
X68266975Y-84248126D01*
X75503001Y-77012101D01*
X75503001Y-95722197D01*
X69607959Y-101617240D01*
X69506449Y-101493551D01*
X69333623Y-101351716D01*
X69136447Y-101246324D01*
X68922499Y-101181423D01*
X68700000Y-101159509D01*
X68477502Y-101181423D01*
X68263554Y-101246324D01*
X68066378Y-101351716D01*
X67893552Y-101493551D01*
X67751717Y-101666377D01*
X67646324Y-101863553D01*
X67581423Y-102077501D01*
X67565000Y-102244248D01*
X67565000Y-103455751D01*
X67581423Y-103622498D01*
X67646324Y-103836446D01*
X67751716Y-104033623D01*
X67893551Y-104206449D01*
X67940000Y-104244569D01*
X67940000Y-104362678D01*
X67936324Y-104400000D01*
X67940000Y-104437322D01*
X67940000Y-104437332D01*
X67950997Y-104548985D01*
X67993773Y-104690001D01*
X67994454Y-104692246D01*
X68065026Y-104824276D01*
X68090689Y-104855546D01*
X68159999Y-104940001D01*
X68189003Y-104963804D01*
X71815399Y-108590201D01*
X71809509Y-108650000D01*
X71831423Y-108872499D01*
X71896324Y-109086447D01*
X72001716Y-109283623D01*
X72143551Y-109456449D01*
X72316377Y-109598284D01*
X72513553Y-109703676D01*
X72727501Y-109768577D01*
X72894248Y-109785000D01*
X74105752Y-109785000D01*
X74272499Y-109768577D01*
X74486447Y-109703676D01*
X74683623Y-109598284D01*
X74856449Y-109456449D01*
X74998284Y-109283623D01*
X75103676Y-109086447D01*
X75168577Y-108872499D01*
X75190491Y-108650000D01*
X75168577Y-108427501D01*
X75103676Y-108213553D01*
X74998284Y-108016377D01*
X74856449Y-107843551D01*
X74683623Y-107701716D01*
X74486447Y-107596324D01*
X74272499Y-107531423D01*
X74105752Y-107515000D01*
X72894248Y-107515000D01*
X72890200Y-107515399D01*
X69540166Y-104165365D01*
X69648284Y-104033623D01*
X69753676Y-103836447D01*
X69818577Y-103622499D01*
X69829779Y-103508758D01*
X69874276Y-103484974D01*
X69990001Y-103390001D01*
X70013804Y-103360997D01*
X72084474Y-101290328D01*
X72213831Y-101423161D01*
X72398322Y-101550003D01*
X72604013Y-101638415D01*
X72823000Y-101685000D01*
X73373000Y-101685000D01*
X73373000Y-100677000D01*
X73627000Y-100677000D01*
X73627000Y-101685000D01*
X74177000Y-101685000D01*
X74395987Y-101638415D01*
X74601678Y-101550003D01*
X74786169Y-101423161D01*
X74942369Y-101262764D01*
X75064276Y-101074976D01*
X75144119Y-100851874D01*
X75017954Y-100677000D01*
X73627000Y-100677000D01*
X73373000Y-100677000D01*
X73353000Y-100677000D01*
X73353000Y-100423000D01*
X73373000Y-100423000D01*
X73373000Y-100403000D01*
X73627000Y-100403000D01*
X73627000Y-100423000D01*
X75017954Y-100423000D01*
X75144119Y-100248126D01*
X75064276Y-100025024D01*
X74942369Y-99837236D01*
X74786169Y-99676839D01*
X74601678Y-99549997D01*
X74395987Y-99461585D01*
X74177000Y-99415000D01*
X73959802Y-99415000D01*
X76774003Y-96600799D01*
X76803001Y-96577001D01*
X76829332Y-96544917D01*
X76897974Y-96461277D01*
X76968546Y-96329247D01*
X77012003Y-96185986D01*
X77023000Y-96074333D01*
X77023000Y-96074323D01*
X77026676Y-96037001D01*
X77023000Y-95999678D01*
X77023000Y-36491720D01*
X77048966Y-36505599D01*
X77328889Y-36590513D01*
X77547050Y-36612000D01*
X77692950Y-36612000D01*
X77911111Y-36590513D01*
X78191034Y-36505599D01*
X78449014Y-36367706D01*
X78675134Y-36182134D01*
X78860706Y-35956014D01*
X78966031Y-35758964D01*
X79104866Y-35928134D01*
X79330986Y-36113706D01*
X79400000Y-36150595D01*
X79400001Y-106722667D01*
X79400000Y-107825198D01*
X69607959Y-117617240D01*
X69506449Y-117493551D01*
X69333623Y-117351716D01*
X69136447Y-117246324D01*
X68922499Y-117181423D01*
X68700000Y-117159509D01*
X68477502Y-117181423D01*
X68263554Y-117246324D01*
X68066378Y-117351716D01*
X67893552Y-117493551D01*
X67751717Y-117666377D01*
X67646324Y-117863553D01*
X67581423Y-118077501D01*
X67565000Y-118244248D01*
X67565000Y-119455751D01*
X67581423Y-119622498D01*
X67646324Y-119836446D01*
X67751716Y-120033623D01*
X67893551Y-120206449D01*
X68066377Y-120348284D01*
X68263553Y-120453676D01*
X68477501Y-120518577D01*
X68700000Y-120540491D01*
X68922498Y-120518577D01*
X69136446Y-120453676D01*
X69333623Y-120348284D01*
X69506449Y-120206449D01*
X69607958Y-120082760D01*
X72740001Y-123214803D01*
X72740001Y-123530192D01*
X72727501Y-123531423D01*
X72513553Y-123596324D01*
X72316377Y-123701716D01*
X72143551Y-123843551D01*
X72001716Y-124016377D01*
X71896324Y-124213553D01*
X71831423Y-124427501D01*
X71809509Y-124650000D01*
X71831423Y-124872499D01*
X71896324Y-125086447D01*
X72001716Y-125283623D01*
X72143551Y-125456449D01*
X72316377Y-125598284D01*
X72513553Y-125703676D01*
X72727501Y-125768577D01*
X72894248Y-125785000D01*
X74105752Y-125785000D01*
X74272499Y-125768577D01*
X74486447Y-125703676D01*
X74683623Y-125598284D01*
X74856449Y-125456449D01*
X74998284Y-125283623D01*
X75103676Y-125086447D01*
X75168577Y-124872499D01*
X75190491Y-124650000D01*
X86809509Y-124650000D01*
X86831423Y-124872499D01*
X86896324Y-125086447D01*
X87001716Y-125283623D01*
X87143551Y-125456449D01*
X87316377Y-125598284D01*
X87513553Y-125703676D01*
X87727501Y-125768577D01*
X87894248Y-125785000D01*
X89105752Y-125785000D01*
X89272499Y-125768577D01*
X89486447Y-125703676D01*
X89683623Y-125598284D01*
X89856449Y-125456449D01*
X89998284Y-125283623D01*
X90103676Y-125086447D01*
X90168577Y-124872499D01*
X90190491Y-124650000D01*
X90168577Y-124427501D01*
X90103676Y-124213553D01*
X89998284Y-124016377D01*
X89856449Y-123843551D01*
X89683623Y-123701716D01*
X89486447Y-123596324D01*
X89272499Y-123531423D01*
X89105752Y-123515000D01*
X87894248Y-123515000D01*
X87727501Y-123531423D01*
X87513553Y-123596324D01*
X87316377Y-123701716D01*
X87143551Y-123843551D01*
X87001716Y-124016377D01*
X86896324Y-124213553D01*
X86831423Y-124427501D01*
X86809509Y-124650000D01*
X75190491Y-124650000D01*
X75168577Y-124427501D01*
X75103676Y-124213553D01*
X74998284Y-124016377D01*
X74856449Y-123843551D01*
X74683623Y-123701716D01*
X74486447Y-123596324D01*
X74272499Y-123531423D01*
X74260000Y-123530192D01*
X74260000Y-122937323D01*
X74263676Y-122900000D01*
X74260000Y-122862677D01*
X74260000Y-122862667D01*
X74249003Y-122751014D01*
X74205546Y-122607753D01*
X74134974Y-122475723D01*
X74063799Y-122388997D01*
X74040001Y-122359999D01*
X74011003Y-122336201D01*
X70524801Y-118850000D01*
X72084473Y-117290328D01*
X72213831Y-117423161D01*
X72398322Y-117550003D01*
X72604013Y-117638415D01*
X72823000Y-117685000D01*
X73373000Y-117685000D01*
X73373000Y-116677000D01*
X73627000Y-116677000D01*
X73627000Y-117685000D01*
X74177000Y-117685000D01*
X74395987Y-117638415D01*
X74601678Y-117550003D01*
X74786169Y-117423161D01*
X74942369Y-117262764D01*
X75064276Y-117074976D01*
X75144119Y-116851874D01*
X75017954Y-116677000D01*
X73627000Y-116677000D01*
X73373000Y-116677000D01*
X73353000Y-116677000D01*
X73353000Y-116423000D01*
X73373000Y-116423000D01*
X73373000Y-116403000D01*
X73627000Y-116403000D01*
X73627000Y-116423000D01*
X75017954Y-116423000D01*
X75144119Y-116248126D01*
X75064276Y-116025024D01*
X74942369Y-115837236D01*
X74786169Y-115676839D01*
X74601678Y-115549997D01*
X74395987Y-115461585D01*
X74177000Y-115415000D01*
X73959801Y-115415000D01*
X80590201Y-108784601D01*
X80590201Y-117288167D01*
X80586524Y-117325500D01*
X80601198Y-117474485D01*
X80644654Y-117617746D01*
X80715226Y-117749776D01*
X80786401Y-117836502D01*
X80810200Y-117865501D01*
X80839198Y-117889299D01*
X82310900Y-119361002D01*
X82334699Y-119390001D01*
X82363697Y-119413799D01*
X82450424Y-119484974D01*
X82574405Y-119551244D01*
X82581423Y-119622498D01*
X82646324Y-119836446D01*
X82751716Y-120033623D01*
X82893551Y-120206449D01*
X83066377Y-120348284D01*
X83263553Y-120453676D01*
X83477501Y-120518577D01*
X83700000Y-120540491D01*
X83922498Y-120518577D01*
X84136446Y-120453676D01*
X84333623Y-120348284D01*
X84506449Y-120206449D01*
X84648284Y-120033623D01*
X84753676Y-119836447D01*
X84818577Y-119622499D01*
X84835000Y-119455752D01*
X84835000Y-118244248D01*
X84818577Y-118077501D01*
X84753676Y-117863553D01*
X84648284Y-117666377D01*
X84506449Y-117493551D01*
X84333623Y-117351716D01*
X84136447Y-117246324D01*
X83922499Y-117181423D01*
X83700000Y-117159509D01*
X83477502Y-117181423D01*
X83263554Y-117246324D01*
X83066378Y-117351716D01*
X82893552Y-117493551D01*
X82758100Y-117658599D01*
X82110200Y-117010699D01*
X82110200Y-116851874D01*
X86855881Y-116851874D01*
X86935724Y-117074976D01*
X87057631Y-117262764D01*
X87213831Y-117423161D01*
X87398322Y-117550003D01*
X87604013Y-117638415D01*
X87823000Y-117685000D01*
X88373000Y-117685000D01*
X88373000Y-116677000D01*
X88627000Y-116677000D01*
X88627000Y-117685000D01*
X89177000Y-117685000D01*
X89395987Y-117638415D01*
X89601678Y-117550003D01*
X89786169Y-117423161D01*
X89942369Y-117262764D01*
X90064276Y-117074976D01*
X90144119Y-116851874D01*
X90017954Y-116677000D01*
X88627000Y-116677000D01*
X88373000Y-116677000D01*
X86982046Y-116677000D01*
X86855881Y-116851874D01*
X82110200Y-116851874D01*
X82110200Y-116248126D01*
X86855881Y-116248126D01*
X86982046Y-116423000D01*
X88373000Y-116423000D01*
X88373000Y-116403000D01*
X88627000Y-116403000D01*
X88627000Y-116423000D01*
X90017954Y-116423000D01*
X90144119Y-116248126D01*
X90064276Y-116025024D01*
X89942369Y-115837236D01*
X89786169Y-115676839D01*
X89601678Y-115549997D01*
X89395987Y-115461585D01*
X89177000Y-115415000D01*
X87823000Y-115415000D01*
X87604013Y-115461585D01*
X87398322Y-115549997D01*
X87213831Y-115676839D01*
X87057631Y-115837236D01*
X86935724Y-116025024D01*
X86855881Y-116248126D01*
X82110200Y-116248126D01*
X82110200Y-108650000D01*
X86809509Y-108650000D01*
X86831423Y-108872499D01*
X86896324Y-109086447D01*
X87001716Y-109283623D01*
X87143551Y-109456449D01*
X87316377Y-109598284D01*
X87513553Y-109703676D01*
X87727501Y-109768577D01*
X87894248Y-109785000D01*
X89105752Y-109785000D01*
X89272499Y-109768577D01*
X89486447Y-109703676D01*
X89683623Y-109598284D01*
X89856449Y-109456449D01*
X89998284Y-109283623D01*
X90103676Y-109086447D01*
X90168577Y-108872499D01*
X90190491Y-108650000D01*
X90168577Y-108427501D01*
X90103676Y-108213553D01*
X89998284Y-108016377D01*
X89856449Y-107843551D01*
X89683623Y-107701716D01*
X89486447Y-107596324D01*
X89272499Y-107531423D01*
X89105752Y-107515000D01*
X87894248Y-107515000D01*
X87727501Y-107531423D01*
X87513553Y-107596324D01*
X87316377Y-107701716D01*
X87143551Y-107843551D01*
X87001716Y-108016377D01*
X86896324Y-108213553D01*
X86831423Y-108427501D01*
X86809509Y-108650000D01*
X82110200Y-108650000D01*
X82110200Y-102244248D01*
X82565000Y-102244248D01*
X82565000Y-103455751D01*
X82581423Y-103622498D01*
X82646324Y-103836446D01*
X82751716Y-104033623D01*
X82893551Y-104206449D01*
X83066377Y-104348284D01*
X83263553Y-104453676D01*
X83477501Y-104518577D01*
X83700000Y-104540491D01*
X83922498Y-104518577D01*
X84136446Y-104453676D01*
X84333623Y-104348284D01*
X84506449Y-104206449D01*
X84648284Y-104033623D01*
X84753676Y-103836447D01*
X84818577Y-103622499D01*
X84835000Y-103455752D01*
X84835000Y-102244248D01*
X84818577Y-102077501D01*
X84753676Y-101863553D01*
X84648284Y-101666377D01*
X84506449Y-101493551D01*
X84333623Y-101351716D01*
X84136447Y-101246324D01*
X83922499Y-101181423D01*
X83700000Y-101159509D01*
X83477502Y-101181423D01*
X83263554Y-101246324D01*
X83066378Y-101351716D01*
X82893552Y-101493551D01*
X82751717Y-101666377D01*
X82646324Y-101863553D01*
X82581423Y-102077501D01*
X82565000Y-102244248D01*
X82110200Y-102244248D01*
X82110200Y-100851874D01*
X86855881Y-100851874D01*
X86935724Y-101074976D01*
X87057631Y-101262764D01*
X87213831Y-101423161D01*
X87398322Y-101550003D01*
X87604013Y-101638415D01*
X87823000Y-101685000D01*
X88373000Y-101685000D01*
X88373000Y-100677000D01*
X88627000Y-100677000D01*
X88627000Y-101685000D01*
X89177000Y-101685000D01*
X89395987Y-101638415D01*
X89601678Y-101550003D01*
X89786169Y-101423161D01*
X89942369Y-101262764D01*
X90064276Y-101074976D01*
X90144119Y-100851874D01*
X90017954Y-100677000D01*
X88627000Y-100677000D01*
X88373000Y-100677000D01*
X86982046Y-100677000D01*
X86855881Y-100851874D01*
X82110200Y-100851874D01*
X82110200Y-100248126D01*
X86855881Y-100248126D01*
X86982046Y-100423000D01*
X88373000Y-100423000D01*
X88373000Y-100403000D01*
X88627000Y-100403000D01*
X88627000Y-100423000D01*
X90017954Y-100423000D01*
X90144119Y-100248126D01*
X90064276Y-100025024D01*
X89942369Y-99837236D01*
X89786169Y-99676839D01*
X89601678Y-99549997D01*
X89395987Y-99461585D01*
X89177000Y-99415000D01*
X87823000Y-99415000D01*
X87604013Y-99461585D01*
X87398322Y-99549997D01*
X87213831Y-99676839D01*
X87057631Y-99837236D01*
X86935724Y-100025024D01*
X86855881Y-100248126D01*
X82110200Y-100248126D01*
X82110200Y-91977220D01*
X82136201Y-92008902D01*
X82160000Y-92037901D01*
X82188998Y-92061699D01*
X97940000Y-107812702D01*
X97940001Y-117455431D01*
X97893552Y-117493551D01*
X97751717Y-117666377D01*
X97646324Y-117863553D01*
X97581423Y-118077501D01*
X97565000Y-118244248D01*
X97565000Y-119455751D01*
X97581423Y-119622498D01*
X97646324Y-119836446D01*
X97751716Y-120033623D01*
X97893551Y-120206449D01*
X98066377Y-120348284D01*
X98263553Y-120453676D01*
X98477501Y-120518577D01*
X98700000Y-120540491D01*
X98922498Y-120518577D01*
X99136446Y-120453676D01*
X99333623Y-120348284D01*
X99506449Y-120206449D01*
X99607958Y-120082760D01*
X102740001Y-123214803D01*
X102740001Y-123530192D01*
X102727501Y-123531423D01*
X102513553Y-123596324D01*
X102316377Y-123701716D01*
X102143551Y-123843551D01*
X102001716Y-124016377D01*
X101896324Y-124213553D01*
X101831423Y-124427501D01*
X101809509Y-124650000D01*
X101831423Y-124872499D01*
X101896324Y-125086447D01*
X102001716Y-125283623D01*
X102143551Y-125456449D01*
X102316377Y-125598284D01*
X102513553Y-125703676D01*
X102727501Y-125768577D01*
X102894248Y-125785000D01*
X104105752Y-125785000D01*
X104272499Y-125768577D01*
X104486447Y-125703676D01*
X104683623Y-125598284D01*
X104856449Y-125456449D01*
X104998284Y-125283623D01*
X105103676Y-125086447D01*
X105168577Y-124872499D01*
X105181890Y-124737323D01*
X107333000Y-124737323D01*
X107333000Y-125262677D01*
X107435492Y-125777935D01*
X107636536Y-126263298D01*
X107928406Y-126700113D01*
X108299887Y-127071594D01*
X108736702Y-127363464D01*
X109222065Y-127564508D01*
X109737323Y-127667000D01*
X110262677Y-127667000D01*
X110777935Y-127564508D01*
X111263298Y-127363464D01*
X111700113Y-127071594D01*
X112071594Y-126700113D01*
X112363464Y-126263298D01*
X112564508Y-125777935D01*
X112667000Y-125262677D01*
X112667000Y-124737323D01*
X112564508Y-124222065D01*
X112363464Y-123736702D01*
X112071594Y-123299887D01*
X111700113Y-122928406D01*
X111263298Y-122636536D01*
X110777935Y-122435492D01*
X110262677Y-122333000D01*
X109737323Y-122333000D01*
X109222065Y-122435492D01*
X108736702Y-122636536D01*
X108299887Y-122928406D01*
X107928406Y-123299887D01*
X107636536Y-123736702D01*
X107435492Y-124222065D01*
X107333000Y-124737323D01*
X105181890Y-124737323D01*
X105190491Y-124650000D01*
X105168577Y-124427501D01*
X105103676Y-124213553D01*
X104998284Y-124016377D01*
X104856449Y-123843551D01*
X104683623Y-123701716D01*
X104486447Y-123596324D01*
X104272499Y-123531423D01*
X104260000Y-123530192D01*
X104260000Y-122937323D01*
X104263676Y-122900000D01*
X104260000Y-122862677D01*
X104260000Y-122862667D01*
X104249003Y-122751014D01*
X104205546Y-122607753D01*
X104134974Y-122475723D01*
X104063799Y-122388997D01*
X104040001Y-122359999D01*
X104011003Y-122336201D01*
X100013804Y-118339003D01*
X99990001Y-118309999D01*
X99874276Y-118215026D01*
X99829779Y-118191242D01*
X99818577Y-118077501D01*
X99753676Y-117863553D01*
X99648284Y-117666377D01*
X99506449Y-117493551D01*
X99460000Y-117455431D01*
X99460000Y-116851874D01*
X101855881Y-116851874D01*
X101935724Y-117074976D01*
X102057631Y-117262764D01*
X102213831Y-117423161D01*
X102398322Y-117550003D01*
X102604013Y-117638415D01*
X102823000Y-117685000D01*
X103373000Y-117685000D01*
X103373000Y-116677000D01*
X103627000Y-116677000D01*
X103627000Y-117685000D01*
X104177000Y-117685000D01*
X104395987Y-117638415D01*
X104601678Y-117550003D01*
X104786169Y-117423161D01*
X104942369Y-117262764D01*
X105064276Y-117074976D01*
X105144119Y-116851874D01*
X105017954Y-116677000D01*
X103627000Y-116677000D01*
X103373000Y-116677000D01*
X101982046Y-116677000D01*
X101855881Y-116851874D01*
X99460000Y-116851874D01*
X99460000Y-116248126D01*
X101855881Y-116248126D01*
X101982046Y-116423000D01*
X103373000Y-116423000D01*
X103373000Y-116403000D01*
X103627000Y-116403000D01*
X103627000Y-116423000D01*
X105017954Y-116423000D01*
X105144119Y-116248126D01*
X105064276Y-116025024D01*
X104942369Y-115837236D01*
X104786169Y-115676839D01*
X104601678Y-115549997D01*
X104395987Y-115461585D01*
X104177000Y-115415000D01*
X102823000Y-115415000D01*
X102604013Y-115461585D01*
X102398322Y-115549997D01*
X102213831Y-115676839D01*
X102057631Y-115837236D01*
X101935724Y-116025024D01*
X101855881Y-116248126D01*
X99460000Y-116248126D01*
X99460000Y-108650000D01*
X101809509Y-108650000D01*
X101831423Y-108872499D01*
X101896324Y-109086447D01*
X102001716Y-109283623D01*
X102143551Y-109456449D01*
X102316377Y-109598284D01*
X102513553Y-109703676D01*
X102727501Y-109768577D01*
X102894248Y-109785000D01*
X104105752Y-109785000D01*
X104272499Y-109768577D01*
X104486447Y-109703676D01*
X104683623Y-109598284D01*
X104856449Y-109456449D01*
X104998284Y-109283623D01*
X105103676Y-109086447D01*
X105168577Y-108872499D01*
X105190491Y-108650000D01*
X105168577Y-108427501D01*
X105103676Y-108213553D01*
X104998284Y-108016377D01*
X104856449Y-107843551D01*
X104683623Y-107701716D01*
X104486447Y-107596324D01*
X104272499Y-107531423D01*
X104105752Y-107515000D01*
X102894248Y-107515000D01*
X102727501Y-107531423D01*
X102513553Y-107596324D01*
X102316377Y-107701716D01*
X102143551Y-107843551D01*
X102001716Y-108016377D01*
X101896324Y-108213553D01*
X101831423Y-108427501D01*
X101809509Y-108650000D01*
X99460000Y-108650000D01*
X99460000Y-107535222D01*
X99463676Y-107497900D01*
X99460000Y-107460577D01*
X99460000Y-107460567D01*
X99449003Y-107348914D01*
X99405546Y-107205653D01*
X99334975Y-107073625D01*
X99334974Y-107073623D01*
X99263799Y-106986897D01*
X99240001Y-106957899D01*
X99211004Y-106934102D01*
X83460000Y-91183099D01*
X83460000Y-88513268D01*
X83477501Y-88518577D01*
X83700000Y-88540491D01*
X83922498Y-88518577D01*
X84136446Y-88453676D01*
X84333623Y-88348284D01*
X84506449Y-88206449D01*
X84607958Y-88082760D01*
X87740001Y-91214803D01*
X87740001Y-91530192D01*
X87727501Y-91531423D01*
X87513553Y-91596324D01*
X87316377Y-91701716D01*
X87143551Y-91843551D01*
X87001716Y-92016377D01*
X86896324Y-92213553D01*
X86831423Y-92427501D01*
X86809509Y-92650000D01*
X86831423Y-92872499D01*
X86896324Y-93086447D01*
X87001716Y-93283623D01*
X87143551Y-93456449D01*
X87316377Y-93598284D01*
X87513553Y-93703676D01*
X87727501Y-93768577D01*
X87894248Y-93785000D01*
X89105752Y-93785000D01*
X89272499Y-93768577D01*
X89486447Y-93703676D01*
X89683623Y-93598284D01*
X89856449Y-93456449D01*
X89998284Y-93283623D01*
X90103676Y-93086447D01*
X90168577Y-92872499D01*
X90190491Y-92650000D01*
X90168577Y-92427501D01*
X90103676Y-92213553D01*
X89998284Y-92016377D01*
X89856449Y-91843551D01*
X89683623Y-91701716D01*
X89486447Y-91596324D01*
X89272499Y-91531423D01*
X89260000Y-91530192D01*
X89260000Y-90937323D01*
X89263676Y-90900000D01*
X89260000Y-90862677D01*
X89260000Y-90862667D01*
X89249003Y-90751014D01*
X89205546Y-90607753D01*
X89184437Y-90568261D01*
X89134974Y-90475723D01*
X89063799Y-90388997D01*
X89040001Y-90359999D01*
X89011003Y-90336201D01*
X85013804Y-86339003D01*
X84990001Y-86309999D01*
X84874276Y-86215026D01*
X84829779Y-86191242D01*
X84818577Y-86077501D01*
X84753676Y-85863553D01*
X84648284Y-85666377D01*
X84506449Y-85493551D01*
X84333623Y-85351716D01*
X84136447Y-85246324D01*
X83922499Y-85181423D01*
X83700000Y-85159509D01*
X83477502Y-85181423D01*
X83460000Y-85186732D01*
X83460000Y-84851874D01*
X86855881Y-84851874D01*
X86935724Y-85074976D01*
X87057631Y-85262764D01*
X87213831Y-85423161D01*
X87398322Y-85550003D01*
X87604013Y-85638415D01*
X87823000Y-85685000D01*
X88373000Y-85685000D01*
X88373000Y-84677000D01*
X88627000Y-84677000D01*
X88627000Y-85685000D01*
X89177000Y-85685000D01*
X89395987Y-85638415D01*
X89601678Y-85550003D01*
X89786169Y-85423161D01*
X89942369Y-85262764D01*
X90064276Y-85074976D01*
X90144119Y-84851874D01*
X90017954Y-84677000D01*
X88627000Y-84677000D01*
X88373000Y-84677000D01*
X86982046Y-84677000D01*
X86855881Y-84851874D01*
X83460000Y-84851874D01*
X83460000Y-84248126D01*
X86855881Y-84248126D01*
X86982046Y-84423000D01*
X88373000Y-84423000D01*
X88373000Y-84403000D01*
X88627000Y-84403000D01*
X88627000Y-84423000D01*
X90017954Y-84423000D01*
X90144119Y-84248126D01*
X90064276Y-84025024D01*
X89942369Y-83837236D01*
X89786169Y-83676839D01*
X89601678Y-83549997D01*
X89395987Y-83461585D01*
X89177000Y-83415000D01*
X87823000Y-83415000D01*
X87604013Y-83461585D01*
X87398322Y-83549997D01*
X87213831Y-83676839D01*
X87057631Y-83837236D01*
X86935724Y-84025024D01*
X86855881Y-84248126D01*
X83460000Y-84248126D01*
X83460000Y-70314080D01*
X91615525Y-70314080D01*
X91699208Y-70568261D01*
X91971775Y-70699158D01*
X92264642Y-70774365D01*
X92566553Y-70790991D01*
X92865907Y-70748397D01*
X93151199Y-70648222D01*
X93300792Y-70568261D01*
X93384475Y-70314080D01*
X92500000Y-69429605D01*
X91615525Y-70314080D01*
X83460000Y-70314080D01*
X83460000Y-69316553D01*
X90959009Y-69316553D01*
X91001603Y-69615907D01*
X91101778Y-69901199D01*
X91181739Y-70050792D01*
X91435920Y-70134475D01*
X92320395Y-69250000D01*
X91435920Y-68365525D01*
X91181739Y-68449208D01*
X91050842Y-68721775D01*
X90975635Y-69014642D01*
X90959009Y-69316553D01*
X83460000Y-69316553D01*
X83460000Y-68185920D01*
X91615525Y-68185920D01*
X92500000Y-69070395D01*
X93384475Y-68185920D01*
X93300792Y-67931739D01*
X93028225Y-67800842D01*
X92735358Y-67725635D01*
X92433447Y-67709009D01*
X92134093Y-67751603D01*
X91848801Y-67851778D01*
X91699208Y-67931739D01*
X91615525Y-68185920D01*
X83460000Y-68185920D01*
X83460000Y-61990475D01*
X87965000Y-61990475D01*
X87965000Y-62509525D01*
X88066261Y-63018601D01*
X88264893Y-63498141D01*
X88553262Y-63929715D01*
X88920285Y-64296738D01*
X89351859Y-64585107D01*
X89831399Y-64783739D01*
X90340475Y-64885000D01*
X90859525Y-64885000D01*
X91368601Y-64783739D01*
X91848141Y-64585107D01*
X92279715Y-64296738D01*
X92646738Y-63929715D01*
X92935107Y-63498141D01*
X93133739Y-63018601D01*
X93235000Y-62509525D01*
X93235000Y-61990475D01*
X93133739Y-61481399D01*
X92935107Y-61001859D01*
X92646738Y-60570285D01*
X92279715Y-60203262D01*
X91848141Y-59914893D01*
X91368601Y-59716261D01*
X90859525Y-59615000D01*
X90340475Y-59615000D01*
X89831399Y-59716261D01*
X89351859Y-59914893D01*
X88920285Y-60203262D01*
X88553262Y-60570285D01*
X88264893Y-61001859D01*
X88066261Y-61481399D01*
X87965000Y-61990475D01*
X83460000Y-61990475D01*
X83460000Y-36404595D01*
X83529014Y-36367706D01*
X83755134Y-36182134D01*
X83940706Y-35956014D01*
X84046031Y-35758964D01*
X84184866Y-35928134D01*
X84410986Y-36113706D01*
X84668966Y-36251599D01*
X84948889Y-36336513D01*
X85167050Y-36358000D01*
X85312950Y-36358000D01*
X85531111Y-36336513D01*
X85655300Y-36298841D01*
X85655301Y-52516567D01*
X85651624Y-52553900D01*
X85666298Y-52702885D01*
X85709754Y-52846146D01*
X85780326Y-52978176D01*
X85794096Y-52994954D01*
X85875300Y-53093901D01*
X85904298Y-53117699D01*
X102218000Y-69431402D01*
X102218001Y-80162026D01*
X101848141Y-79914893D01*
X101368601Y-79716261D01*
X100859525Y-79615000D01*
X100340475Y-79615000D01*
X99831399Y-79716261D01*
X99351859Y-79914893D01*
X98920285Y-80203262D01*
X98553262Y-80570285D01*
X98264893Y-81001859D01*
X98260000Y-81013672D01*
X98260000Y-70588313D01*
X98478505Y-70442312D01*
X98692312Y-70228505D01*
X98860299Y-69977095D01*
X98976011Y-69697743D01*
X99035000Y-69401184D01*
X99035000Y-69098816D01*
X98976011Y-68802257D01*
X98860299Y-68522905D01*
X98692312Y-68271495D01*
X98478505Y-68057688D01*
X98227095Y-67889701D01*
X97947743Y-67773989D01*
X97651184Y-67715000D01*
X97348816Y-67715000D01*
X97052257Y-67773989D01*
X96772905Y-67889701D01*
X96521495Y-68057688D01*
X96307688Y-68271495D01*
X96250000Y-68357831D01*
X96192312Y-68271495D01*
X95978505Y-68057688D01*
X95727095Y-67889701D01*
X95447743Y-67773989D01*
X95151184Y-67715000D01*
X94848816Y-67715000D01*
X94552257Y-67773989D01*
X94272905Y-67889701D01*
X94021495Y-68057688D01*
X93807688Y-68271495D01*
X93712262Y-68414310D01*
X93564080Y-68365525D01*
X92679605Y-69250000D01*
X93564080Y-70134475D01*
X93712262Y-70085690D01*
X93807688Y-70228505D01*
X94021495Y-70442312D01*
X94272905Y-70610299D01*
X94552257Y-70726011D01*
X94848816Y-70785000D01*
X95151184Y-70785000D01*
X95447743Y-70726011D01*
X95727095Y-70610299D01*
X95978505Y-70442312D01*
X96192312Y-70228505D01*
X96250000Y-70142169D01*
X96307688Y-70228505D01*
X96521495Y-70442312D01*
X96740000Y-70588313D01*
X96740001Y-102437967D01*
X96736324Y-102475300D01*
X96750998Y-102624285D01*
X96794454Y-102767546D01*
X96865026Y-102899576D01*
X96936201Y-102986302D01*
X96960000Y-103015301D01*
X96988998Y-103039099D01*
X97310896Y-103360997D01*
X97334699Y-103390001D01*
X97450424Y-103484974D01*
X97574405Y-103551244D01*
X97581423Y-103622498D01*
X97646324Y-103836446D01*
X97751716Y-104033623D01*
X97893551Y-104206449D01*
X98066377Y-104348284D01*
X98263553Y-104453676D01*
X98477501Y-104518577D01*
X98700000Y-104540491D01*
X98922498Y-104518577D01*
X99136446Y-104453676D01*
X99333623Y-104348284D01*
X99506449Y-104206449D01*
X99648284Y-104033623D01*
X99753676Y-103836447D01*
X99818577Y-103622499D01*
X99835000Y-103455752D01*
X99835000Y-102244248D01*
X99818577Y-102077501D01*
X99753676Y-101863553D01*
X99648284Y-101666377D01*
X99506449Y-101493551D01*
X99333623Y-101351716D01*
X99136447Y-101246324D01*
X98922499Y-101181423D01*
X98700000Y-101159509D01*
X98477502Y-101181423D01*
X98263554Y-101246324D01*
X98260000Y-101248224D01*
X98260000Y-100851874D01*
X101855881Y-100851874D01*
X101935724Y-101074976D01*
X102057631Y-101262764D01*
X102213831Y-101423161D01*
X102398322Y-101550003D01*
X102604013Y-101638415D01*
X102823000Y-101685000D01*
X103373000Y-101685000D01*
X103373000Y-100677000D01*
X103627000Y-100677000D01*
X103627000Y-101685000D01*
X104177000Y-101685000D01*
X104395987Y-101638415D01*
X104601678Y-101550003D01*
X104786169Y-101423161D01*
X104942369Y-101262764D01*
X105064276Y-101074976D01*
X105144119Y-100851874D01*
X105017954Y-100677000D01*
X103627000Y-100677000D01*
X103373000Y-100677000D01*
X101982046Y-100677000D01*
X101855881Y-100851874D01*
X98260000Y-100851874D01*
X98260000Y-100248126D01*
X101855881Y-100248126D01*
X101982046Y-100423000D01*
X103373000Y-100423000D01*
X103373000Y-100403000D01*
X103627000Y-100403000D01*
X103627000Y-100423000D01*
X105017954Y-100423000D01*
X105144119Y-100248126D01*
X105064276Y-100025024D01*
X104942369Y-99837236D01*
X104786169Y-99676839D01*
X104601678Y-99549997D01*
X104395987Y-99461585D01*
X104177000Y-99415000D01*
X102823000Y-99415000D01*
X102604013Y-99461585D01*
X102398322Y-99549997D01*
X102213831Y-99676839D01*
X102057631Y-99837236D01*
X101935724Y-100025024D01*
X101855881Y-100248126D01*
X98260000Y-100248126D01*
X98260000Y-83486328D01*
X98264893Y-83498141D01*
X98553262Y-83929715D01*
X98920285Y-84296738D01*
X99351859Y-84585107D01*
X99831399Y-84783739D01*
X100340475Y-84885000D01*
X100859525Y-84885000D01*
X101368601Y-84783739D01*
X101848141Y-84585107D01*
X102218001Y-84337974D01*
X102218001Y-87741021D01*
X102052257Y-87773989D01*
X101772905Y-87889701D01*
X101521495Y-88057688D01*
X101307688Y-88271495D01*
X101139701Y-88522905D01*
X101023989Y-88802257D01*
X100965000Y-89098816D01*
X100965000Y-89401184D01*
X101023989Y-89697743D01*
X101139701Y-89977095D01*
X101307688Y-90228505D01*
X101521495Y-90442312D01*
X101772905Y-90610299D01*
X102052257Y-90726011D01*
X102348816Y-90785000D01*
X102651184Y-90785000D01*
X102947743Y-90726011D01*
X103227095Y-90610299D01*
X103478505Y-90442312D01*
X103692312Y-90228505D01*
X103750000Y-90142169D01*
X103807688Y-90228505D01*
X104021495Y-90442312D01*
X104272905Y-90610299D01*
X104552257Y-90726011D01*
X104848816Y-90785000D01*
X105151184Y-90785000D01*
X105447743Y-90726011D01*
X105727095Y-90610299D01*
X105978505Y-90442312D01*
X106192312Y-90228505D01*
X106250000Y-90142169D01*
X106307688Y-90228505D01*
X106521495Y-90442312D01*
X106772905Y-90610299D01*
X107052257Y-90726011D01*
X107348816Y-90785000D01*
X107651184Y-90785000D01*
X107947743Y-90726011D01*
X108227095Y-90610299D01*
X108478505Y-90442312D01*
X108692312Y-90228505D01*
X108860299Y-89977095D01*
X108976011Y-89697743D01*
X109035000Y-89401184D01*
X109035000Y-89098816D01*
X108976011Y-88802257D01*
X108860299Y-88522905D01*
X108692312Y-88271495D01*
X108478505Y-88057688D01*
X108227095Y-87889701D01*
X107947743Y-87773989D01*
X107651184Y-87715000D01*
X107348816Y-87715000D01*
X107052257Y-87773989D01*
X106772905Y-87889701D01*
X106521495Y-88057688D01*
X106307688Y-88271495D01*
X106250000Y-88357831D01*
X106192312Y-88271495D01*
X105978505Y-88057688D01*
X105760000Y-87911687D01*
X105760000Y-81990475D01*
X106765000Y-81990475D01*
X106765000Y-82509525D01*
X106866261Y-83018601D01*
X107064893Y-83498141D01*
X107353262Y-83929715D01*
X107720285Y-84296738D01*
X108151859Y-84585107D01*
X108631399Y-84783739D01*
X109140475Y-84885000D01*
X109659525Y-84885000D01*
X110168601Y-84783739D01*
X110648141Y-84585107D01*
X111079715Y-84296738D01*
X111446738Y-83929715D01*
X111735107Y-83498141D01*
X111933739Y-83018601D01*
X112035000Y-82509525D01*
X112035000Y-81990475D01*
X111933739Y-81481399D01*
X111735107Y-81001859D01*
X111446738Y-80570285D01*
X111079715Y-80203262D01*
X110648141Y-79914893D01*
X110168601Y-79716261D01*
X109659525Y-79615000D01*
X109140475Y-79615000D01*
X108631399Y-79716261D01*
X108151859Y-79914893D01*
X107720285Y-80203262D01*
X107353262Y-80570285D01*
X107064893Y-81001859D01*
X106866261Y-81481399D01*
X106765000Y-81990475D01*
X105760000Y-81990475D01*
X105760000Y-62487825D01*
X105763676Y-62450500D01*
X105760000Y-62413175D01*
X105760000Y-62413167D01*
X105749003Y-62301514D01*
X105705546Y-62158253D01*
X105634974Y-62026224D01*
X105540001Y-61910499D01*
X105511004Y-61886702D01*
X97010000Y-53385699D01*
X97010000Y-50708507D01*
X97052257Y-50726011D01*
X97348816Y-50785000D01*
X97651184Y-50785000D01*
X97947743Y-50726011D01*
X98227095Y-50610299D01*
X98478505Y-50442312D01*
X98692312Y-50228505D01*
X98860299Y-49977095D01*
X98976011Y-49697743D01*
X99035000Y-49401184D01*
X99035000Y-49098816D01*
X98976011Y-48802257D01*
X98860299Y-48522905D01*
X98692312Y-48271495D01*
X98478505Y-48057688D01*
X98227095Y-47889701D01*
X97947743Y-47773989D01*
X97651184Y-47715000D01*
X97348816Y-47715000D01*
X97052257Y-47773989D01*
X97010000Y-47791493D01*
X97010000Y-43365618D01*
X97064893Y-43498141D01*
X97353262Y-43929715D01*
X97720285Y-44296738D01*
X98151859Y-44585107D01*
X98631399Y-44783739D01*
X99140475Y-44885000D01*
X99659525Y-44885000D01*
X100168601Y-44783739D01*
X100648141Y-44585107D01*
X101079715Y-44296738D01*
X101446738Y-43929715D01*
X101735107Y-43498141D01*
X101933739Y-43018601D01*
X102035000Y-42509525D01*
X102035000Y-41990475D01*
X101933739Y-41481399D01*
X101735107Y-41001859D01*
X101446738Y-40570285D01*
X101079715Y-40203262D01*
X100648141Y-39914893D01*
X100168601Y-39716261D01*
X99659525Y-39615000D01*
X99140475Y-39615000D01*
X98631399Y-39716261D01*
X98151859Y-39914893D01*
X97720285Y-40203262D01*
X97353262Y-40570285D01*
X97064893Y-41001859D01*
X97010000Y-41134382D01*
X97010000Y-34887322D01*
X97013676Y-34849999D01*
X97010000Y-34812676D01*
X97010000Y-34812667D01*
X97002580Y-34737323D01*
X107333000Y-34737323D01*
X107333000Y-35262677D01*
X107435492Y-35777935D01*
X107636536Y-36263298D01*
X107928406Y-36700113D01*
X108299887Y-37071594D01*
X108736702Y-37363464D01*
X109222065Y-37564508D01*
X109737323Y-37667000D01*
X110262677Y-37667000D01*
X110777935Y-37564508D01*
X111263298Y-37363464D01*
X111700113Y-37071594D01*
X112071594Y-36700113D01*
X112363464Y-36263298D01*
X112564508Y-35777935D01*
X112667000Y-35262677D01*
X112667000Y-34737323D01*
X112564508Y-34222065D01*
X112363464Y-33736702D01*
X112071594Y-33299887D01*
X111700113Y-32928406D01*
X111263298Y-32636536D01*
X110777935Y-32435492D01*
X110262677Y-32333000D01*
X109737323Y-32333000D01*
X109222065Y-32435492D01*
X108736702Y-32636536D01*
X108299887Y-32928406D01*
X107928406Y-33299887D01*
X107636536Y-33736702D01*
X107435492Y-34222065D01*
X107333000Y-34737323D01*
X97002580Y-34737323D01*
X96999003Y-34701014D01*
X96955546Y-34557753D01*
X96884974Y-34425724D01*
X96790001Y-34309999D01*
X96761004Y-34286202D01*
X93134801Y-30660000D01*
X114340000Y-30660000D01*
X114340001Y-129340000D01*
X45660000Y-129340000D01*
X45660000Y-124737323D01*
X47333000Y-124737323D01*
X47333000Y-125262677D01*
X47435492Y-125777935D01*
X47636536Y-126263298D01*
X47928406Y-126700113D01*
X48299887Y-127071594D01*
X48736702Y-127363464D01*
X49222065Y-127564508D01*
X49737323Y-127667000D01*
X50262677Y-127667000D01*
X50777935Y-127564508D01*
X51263298Y-127363464D01*
X51700113Y-127071594D01*
X52071594Y-126700113D01*
X52363464Y-126263298D01*
X52564508Y-125777935D01*
X52667000Y-125262677D01*
X52667000Y-124737323D01*
X52564508Y-124222065D01*
X52363464Y-123736702D01*
X52071594Y-123299887D01*
X51700113Y-122928406D01*
X51263298Y-122636536D01*
X50777935Y-122435492D01*
X50262677Y-122333000D01*
X49737323Y-122333000D01*
X49222065Y-122435492D01*
X48736702Y-122636536D01*
X48299887Y-122928406D01*
X47928406Y-123299887D01*
X47636536Y-123736702D01*
X47435492Y-124222065D01*
X47333000Y-124737323D01*
X45660000Y-124737323D01*
X45660000Y-118244248D01*
X52565000Y-118244248D01*
X52565000Y-119455751D01*
X52581423Y-119622498D01*
X52646324Y-119836446D01*
X52751716Y-120033623D01*
X52893551Y-120206449D01*
X53066377Y-120348284D01*
X53263553Y-120453676D01*
X53477501Y-120518577D01*
X53700000Y-120540491D01*
X53922498Y-120518577D01*
X54136446Y-120453676D01*
X54333623Y-120348284D01*
X54506449Y-120206449D01*
X54607958Y-120082760D01*
X57740001Y-123214803D01*
X57740001Y-123530192D01*
X57727501Y-123531423D01*
X57513553Y-123596324D01*
X57316377Y-123701716D01*
X57143551Y-123843551D01*
X57001716Y-124016377D01*
X56896324Y-124213553D01*
X56831423Y-124427501D01*
X56809509Y-124650000D01*
X56831423Y-124872499D01*
X56896324Y-125086447D01*
X57001716Y-125283623D01*
X57143551Y-125456449D01*
X57316377Y-125598284D01*
X57513553Y-125703676D01*
X57727501Y-125768577D01*
X57894248Y-125785000D01*
X59105752Y-125785000D01*
X59272499Y-125768577D01*
X59486447Y-125703676D01*
X59683623Y-125598284D01*
X59856449Y-125456449D01*
X59998284Y-125283623D01*
X60103676Y-125086447D01*
X60168577Y-124872499D01*
X60190491Y-124650000D01*
X60168577Y-124427501D01*
X60103676Y-124213553D01*
X59998284Y-124016377D01*
X59856449Y-123843551D01*
X59683623Y-123701716D01*
X59486447Y-123596324D01*
X59272499Y-123531423D01*
X59260000Y-123530192D01*
X59260000Y-122937323D01*
X59263676Y-122900000D01*
X59260000Y-122862677D01*
X59260000Y-122862667D01*
X59249003Y-122751014D01*
X59205546Y-122607753D01*
X59134974Y-122475723D01*
X59063799Y-122388997D01*
X59040001Y-122359999D01*
X59011003Y-122336201D01*
X55013804Y-118339003D01*
X54990001Y-118309999D01*
X54874276Y-118215026D01*
X54829779Y-118191242D01*
X54818577Y-118077501D01*
X54753676Y-117863553D01*
X54648284Y-117666377D01*
X54506449Y-117493551D01*
X54333623Y-117351716D01*
X54136447Y-117246324D01*
X53922499Y-117181423D01*
X53700000Y-117159509D01*
X53477502Y-117181423D01*
X53263554Y-117246324D01*
X53066378Y-117351716D01*
X52893552Y-117493551D01*
X52751717Y-117666377D01*
X52646324Y-117863553D01*
X52581423Y-118077501D01*
X52565000Y-118244248D01*
X45660000Y-118244248D01*
X45660000Y-116851874D01*
X56855881Y-116851874D01*
X56935724Y-117074976D01*
X57057631Y-117262764D01*
X57213831Y-117423161D01*
X57398322Y-117550003D01*
X57604013Y-117638415D01*
X57823000Y-117685000D01*
X58373000Y-117685000D01*
X58373000Y-116677000D01*
X58627000Y-116677000D01*
X58627000Y-117685000D01*
X59177000Y-117685000D01*
X59395987Y-117638415D01*
X59601678Y-117550003D01*
X59786169Y-117423161D01*
X59942369Y-117262764D01*
X60064276Y-117074976D01*
X60144119Y-116851874D01*
X60017954Y-116677000D01*
X58627000Y-116677000D01*
X58373000Y-116677000D01*
X56982046Y-116677000D01*
X56855881Y-116851874D01*
X45660000Y-116851874D01*
X45660000Y-116248126D01*
X56855881Y-116248126D01*
X56982046Y-116423000D01*
X58373000Y-116423000D01*
X58373000Y-116403000D01*
X58627000Y-116403000D01*
X58627000Y-116423000D01*
X60017954Y-116423000D01*
X60144119Y-116248126D01*
X60064276Y-116025024D01*
X59942369Y-115837236D01*
X59786169Y-115676839D01*
X59601678Y-115549997D01*
X59395987Y-115461585D01*
X59177000Y-115415000D01*
X57823000Y-115415000D01*
X57604013Y-115461585D01*
X57398322Y-115549997D01*
X57213831Y-115676839D01*
X57057631Y-115837236D01*
X56935724Y-116025024D01*
X56855881Y-116248126D01*
X45660000Y-116248126D01*
X45660000Y-108650000D01*
X56809509Y-108650000D01*
X56831423Y-108872499D01*
X56896324Y-109086447D01*
X57001716Y-109283623D01*
X57143551Y-109456449D01*
X57316377Y-109598284D01*
X57513553Y-109703676D01*
X57727501Y-109768577D01*
X57894248Y-109785000D01*
X59105752Y-109785000D01*
X59272499Y-109768577D01*
X59486447Y-109703676D01*
X59683623Y-109598284D01*
X59856449Y-109456449D01*
X59998284Y-109283623D01*
X60103676Y-109086447D01*
X60168577Y-108872499D01*
X60190491Y-108650000D01*
X60168577Y-108427501D01*
X60103676Y-108213553D01*
X59998284Y-108016377D01*
X59856449Y-107843551D01*
X59683623Y-107701716D01*
X59486447Y-107596324D01*
X59272499Y-107531423D01*
X59105752Y-107515000D01*
X57894248Y-107515000D01*
X57727501Y-107531423D01*
X57513553Y-107596324D01*
X57316377Y-107701716D01*
X57143551Y-107843551D01*
X57001716Y-108016377D01*
X56896324Y-108213553D01*
X56831423Y-108427501D01*
X56809509Y-108650000D01*
X45660000Y-108650000D01*
X45660000Y-90314080D01*
X51615525Y-90314080D01*
X51699208Y-90568261D01*
X51971775Y-90699158D01*
X52264642Y-90774365D01*
X52566553Y-90790991D01*
X52865907Y-90748397D01*
X53151199Y-90648222D01*
X53300792Y-90568261D01*
X53384475Y-90314080D01*
X52500000Y-89429605D01*
X51615525Y-90314080D01*
X45660000Y-90314080D01*
X45660000Y-89316553D01*
X50959009Y-89316553D01*
X51001603Y-89615907D01*
X51101778Y-89901199D01*
X51181739Y-90050792D01*
X51435920Y-90134475D01*
X52320395Y-89250000D01*
X51435920Y-88365525D01*
X51181739Y-88449208D01*
X51050842Y-88721775D01*
X50975635Y-89014642D01*
X50959009Y-89316553D01*
X45660000Y-89316553D01*
X45660000Y-88185920D01*
X51615525Y-88185920D01*
X52500000Y-89070395D01*
X53384475Y-88185920D01*
X53300792Y-87931739D01*
X53028225Y-87800842D01*
X52735358Y-87725635D01*
X52433447Y-87709009D01*
X52134093Y-87751603D01*
X51848801Y-87851778D01*
X51699208Y-87931739D01*
X51615525Y-88185920D01*
X45660000Y-88185920D01*
X45660000Y-81990475D01*
X47965000Y-81990475D01*
X47965000Y-82509525D01*
X48066261Y-83018601D01*
X48264893Y-83498141D01*
X48553262Y-83929715D01*
X48920285Y-84296738D01*
X49351859Y-84585107D01*
X49831399Y-84783739D01*
X50340475Y-84885000D01*
X50859525Y-84885000D01*
X51368601Y-84783739D01*
X51848141Y-84585107D01*
X52279715Y-84296738D01*
X52646738Y-83929715D01*
X52935107Y-83498141D01*
X53133739Y-83018601D01*
X53235000Y-82509525D01*
X53235000Y-81990475D01*
X53133739Y-81481399D01*
X52935107Y-81001859D01*
X52646738Y-80570285D01*
X52279715Y-80203262D01*
X51848141Y-79914893D01*
X51368601Y-79716261D01*
X50859525Y-79615000D01*
X50340475Y-79615000D01*
X49831399Y-79716261D01*
X49351859Y-79914893D01*
X48920285Y-80203262D01*
X48553262Y-80570285D01*
X48264893Y-81001859D01*
X48066261Y-81481399D01*
X47965000Y-81990475D01*
X45660000Y-81990475D01*
X45660000Y-41990475D01*
X57965000Y-41990475D01*
X57965000Y-42509525D01*
X58066261Y-43018601D01*
X58264893Y-43498141D01*
X58553262Y-43929715D01*
X58920285Y-44296738D01*
X59351859Y-44585107D01*
X59831399Y-44783739D01*
X60340475Y-44885000D01*
X60859525Y-44885000D01*
X61368601Y-44783739D01*
X61848141Y-44585107D01*
X62279715Y-44296738D01*
X62646738Y-43929715D01*
X62935107Y-43498141D01*
X63133739Y-43018601D01*
X63235000Y-42509525D01*
X63235000Y-41990475D01*
X63133739Y-41481399D01*
X62935107Y-41001859D01*
X62646738Y-40570285D01*
X62279715Y-40203262D01*
X61848141Y-39914893D01*
X61368601Y-39716261D01*
X60859525Y-39615000D01*
X60340475Y-39615000D01*
X59831399Y-39716261D01*
X59351859Y-39914893D01*
X58920285Y-40203262D01*
X58553262Y-40570285D01*
X58264893Y-41001859D01*
X58066261Y-41481399D01*
X57965000Y-41990475D01*
X45660000Y-41990475D01*
X45660000Y-34737323D01*
X47333000Y-34737323D01*
X47333000Y-35262677D01*
X47435492Y-35777935D01*
X47636536Y-36263298D01*
X47928406Y-36700113D01*
X48299887Y-37071594D01*
X48736702Y-37363464D01*
X49222065Y-37564508D01*
X49737323Y-37667000D01*
X50262677Y-37667000D01*
X50777935Y-37564508D01*
X51263298Y-37363464D01*
X51700113Y-37071594D01*
X52071594Y-36700113D01*
X52363464Y-36263298D01*
X52564508Y-35777935D01*
X52667000Y-35262677D01*
X52667000Y-34737323D01*
X52564508Y-34222065D01*
X52363464Y-33736702D01*
X52071594Y-33299887D01*
X51700113Y-32928406D01*
X51263298Y-32636536D01*
X50777935Y-32435492D01*
X50262677Y-32333000D01*
X49737323Y-32333000D01*
X49222065Y-32435492D01*
X48736702Y-32636536D01*
X48299887Y-32928406D01*
X47928406Y-33299887D01*
X47636536Y-33736702D01*
X47435492Y-34222065D01*
X47333000Y-34737323D01*
X45660000Y-34737323D01*
X45660000Y-30660000D01*
X71716498Y-30660000D01*
X71074741Y-31301758D01*
X71074741Y-31301758D01*
G37*
X71074741Y-31301758D02*
X71055134Y-31277866D01*
X70829014Y-31092294D01*
X70571034Y-30954401D01*
X70291111Y-30869487D01*
X70072950Y-30848000D01*
X69927050Y-30848000D01*
X69708889Y-30869487D01*
X69428966Y-30954401D01*
X69170986Y-31092294D01*
X68944866Y-31277866D01*
X68759294Y-31503986D01*
X68621401Y-31761966D01*
X68536487Y-32041889D01*
X68507815Y-32333000D01*
X68536487Y-32624111D01*
X68621401Y-32904034D01*
X68759294Y-33162014D01*
X68944866Y-33388134D01*
X68974687Y-33412607D01*
X68905820Y-33433498D01*
X68795506Y-33492463D01*
X68698815Y-33571815D01*
X68619463Y-33668506D01*
X68560498Y-33778820D01*
X68524188Y-33898518D01*
X68511928Y-34023000D01*
X68511928Y-35723000D01*
X68524188Y-35847482D01*
X68560498Y-35967180D01*
X68619463Y-36077494D01*
X68698815Y-36174185D01*
X68754013Y-36219485D01*
X66511003Y-38462496D01*
X66481999Y-38486299D01*
X66426871Y-38553474D01*
X66387026Y-38602024D01*
X66331289Y-38706300D01*
X66316454Y-38734054D01*
X66272997Y-38877315D01*
X66262000Y-38988968D01*
X66262000Y-38988978D01*
X66258324Y-39026300D01*
X66262000Y-39063622D01*
X66262001Y-48339870D01*
X66250000Y-48357831D01*
X66192312Y-48271495D01*
X65978505Y-48057688D01*
X65727095Y-47889701D01*
X65447743Y-47773989D01*
X65151184Y-47715000D01*
X64848816Y-47715000D01*
X64552257Y-47773989D01*
X64272905Y-47889701D01*
X64021495Y-48057688D01*
X63807688Y-48271495D01*
X63750000Y-48357831D01*
X63692312Y-48271495D01*
X63478505Y-48057688D01*
X63227095Y-47889701D01*
X62947743Y-47773989D01*
X62651184Y-47715000D01*
X62348816Y-47715000D01*
X62052257Y-47773989D01*
X61772905Y-47889701D01*
X61521495Y-48057688D01*
X61307688Y-48271495D01*
X61139701Y-48522905D01*
X61023989Y-48802257D01*
X60965000Y-49098816D01*
X60965000Y-49401184D01*
X61023989Y-49697743D01*
X61139701Y-49977095D01*
X61307688Y-50228505D01*
X61521495Y-50442312D01*
X61772905Y-50610299D01*
X62052257Y-50726011D01*
X62348816Y-50785000D01*
X62651184Y-50785000D01*
X62947743Y-50726011D01*
X63227095Y-50610299D01*
X63478505Y-50442312D01*
X63692312Y-50228505D01*
X63750000Y-50142169D01*
X63807688Y-50228505D01*
X64021495Y-50442312D01*
X64272905Y-50610299D01*
X64552257Y-50726011D01*
X64848816Y-50785000D01*
X65151184Y-50785000D01*
X65447743Y-50726011D01*
X65727095Y-50610299D01*
X65978505Y-50442312D01*
X66192312Y-50228505D01*
X66250000Y-50142169D01*
X66307688Y-50228505D01*
X66521495Y-50442312D01*
X66772905Y-50610299D01*
X67052257Y-50726011D01*
X67348816Y-50785000D01*
X67651184Y-50785000D01*
X67947743Y-50726011D01*
X68079779Y-50671320D01*
X62611503Y-56139596D01*
X62582499Y-56163399D01*
X62527371Y-56230574D01*
X62487526Y-56279124D01*
X62416955Y-56411153D01*
X62416954Y-56411154D01*
X62373497Y-56554415D01*
X62362500Y-56666068D01*
X62362500Y-56666078D01*
X62358824Y-56703400D01*
X62362500Y-56740722D01*
X62362500Y-60286047D01*
X62279715Y-60203262D01*
X61848141Y-59914893D01*
X61368601Y-59716261D01*
X60859525Y-59615000D01*
X60340475Y-59615000D01*
X59831399Y-59716261D01*
X59351859Y-59914893D01*
X58920285Y-60203262D01*
X58553262Y-60570285D01*
X58264893Y-61001859D01*
X58066261Y-61481399D01*
X57965000Y-61990475D01*
X57965000Y-62509525D01*
X58066261Y-63018601D01*
X58264893Y-63498141D01*
X58553262Y-63929715D01*
X58920285Y-64296738D01*
X59351859Y-64585107D01*
X59831399Y-64783739D01*
X60340475Y-64885000D01*
X60859525Y-64885000D01*
X61368601Y-64783739D01*
X61813572Y-64599426D01*
X54489003Y-71923996D01*
X54459999Y-71947799D01*
X54404871Y-72014974D01*
X54365026Y-72063524D01*
X54294455Y-72195553D01*
X54294454Y-72195554D01*
X54250997Y-72338815D01*
X54240000Y-72450468D01*
X54240000Y-72450478D01*
X54236324Y-72487800D01*
X54240000Y-72525122D01*
X54240001Y-87911687D01*
X54021495Y-88057688D01*
X53807688Y-88271495D01*
X53712262Y-88414310D01*
X53564080Y-88365525D01*
X52679605Y-89250000D01*
X53564080Y-90134475D01*
X53712262Y-90085690D01*
X53807688Y-90228505D01*
X54021495Y-90442312D01*
X54272905Y-90610299D01*
X54552257Y-90726011D01*
X54848816Y-90785000D01*
X55151184Y-90785000D01*
X55447743Y-90726011D01*
X55727095Y-90610299D01*
X55978505Y-90442312D01*
X56192312Y-90228505D01*
X56250000Y-90142169D01*
X56307688Y-90228505D01*
X56521495Y-90442312D01*
X56772905Y-90610299D01*
X57052257Y-90726011D01*
X57348816Y-90785000D01*
X57651184Y-90785000D01*
X57947743Y-90726011D01*
X58227095Y-90610299D01*
X58478505Y-90442312D01*
X58692312Y-90228505D01*
X58860299Y-89977095D01*
X58976011Y-89697743D01*
X59035000Y-89401184D01*
X59035000Y-89098816D01*
X58976011Y-88802257D01*
X58860299Y-88522905D01*
X58692312Y-88271495D01*
X58478505Y-88057688D01*
X58227095Y-87889701D01*
X57947743Y-87773989D01*
X57651184Y-87715000D01*
X57348816Y-87715000D01*
X57052257Y-87773989D01*
X56772905Y-87889701D01*
X56521495Y-88057688D01*
X56307688Y-88271495D01*
X56250000Y-88357831D01*
X56192312Y-88271495D01*
X55978505Y-88057688D01*
X55760000Y-87911687D01*
X55760000Y-81990475D01*
X56765000Y-81990475D01*
X56765000Y-82509525D01*
X56866261Y-83018601D01*
X57064893Y-83498141D01*
X57353262Y-83929715D01*
X57720285Y-84296738D01*
X58151859Y-84585107D01*
X58631399Y-84783739D01*
X59140475Y-84885000D01*
X59659525Y-84885000D01*
X60168601Y-84783739D01*
X60648141Y-84585107D01*
X61079715Y-84296738D01*
X61446738Y-83929715D01*
X61735107Y-83498141D01*
X61933739Y-83018601D01*
X62035000Y-82509525D01*
X62035000Y-81990475D01*
X61933739Y-81481399D01*
X61735107Y-81001859D01*
X61446738Y-80570285D01*
X61079715Y-80203262D01*
X60648141Y-79914893D01*
X60168601Y-79716261D01*
X59659525Y-79615000D01*
X59140475Y-79615000D01*
X58631399Y-79716261D01*
X58151859Y-79914893D01*
X57720285Y-80203262D01*
X57353262Y-80570285D01*
X57064893Y-81001859D01*
X56866261Y-81481399D01*
X56765000Y-81990475D01*
X55760000Y-81990475D01*
X55760000Y-72802601D01*
X58248521Y-70314080D01*
X61615525Y-70314080D01*
X61699208Y-70568261D01*
X61971775Y-70699158D01*
X62264642Y-70774365D01*
X62566553Y-70790991D01*
X62865907Y-70748397D01*
X63151199Y-70648222D01*
X63300792Y-70568261D01*
X63384475Y-70314080D01*
X62500000Y-69429605D01*
X61615525Y-70314080D01*
X58248521Y-70314080D01*
X59246048Y-69316553D01*
X60959009Y-69316553D01*
X61001603Y-69615907D01*
X61101778Y-69901199D01*
X61181739Y-70050792D01*
X61435920Y-70134475D01*
X62320395Y-69250000D01*
X61435920Y-68365525D01*
X61181739Y-68449208D01*
X61050842Y-68721775D01*
X60975635Y-69014642D01*
X60959009Y-69316553D01*
X59246048Y-69316553D01*
X60376681Y-68185920D01*
X61615525Y-68185920D01*
X62500000Y-69070395D01*
X63384475Y-68185920D01*
X63300792Y-67931739D01*
X63028225Y-67800842D01*
X62735358Y-67725635D01*
X62433447Y-67709009D01*
X62134093Y-67751603D01*
X61848801Y-67851778D01*
X61699208Y-67931739D01*
X61615525Y-68185920D01*
X60376681Y-68185920D01*
X63633503Y-64929099D01*
X63662501Y-64905301D01*
X63757474Y-64789576D01*
X63828046Y-64657547D01*
X63871503Y-64514286D01*
X63882500Y-64402633D01*
X63882500Y-64402625D01*
X63886176Y-64365300D01*
X63882500Y-64327975D01*
X63882500Y-57018201D01*
X72278603Y-48622099D01*
X72307601Y-48598301D01*
X72402574Y-48482576D01*
X72473146Y-48350547D01*
X72516603Y-48207286D01*
X72527600Y-48095633D01*
X72527600Y-48095625D01*
X72531276Y-48058300D01*
X72527600Y-48020975D01*
X72527600Y-36612000D01*
X72612950Y-36612000D01*
X72831111Y-36590513D01*
X73111034Y-36505599D01*
X73144700Y-36487604D01*
X73144701Y-47975597D01*
X64489003Y-56631296D01*
X64459999Y-56655099D01*
X64420360Y-56703400D01*
X64365026Y-56770824D01*
X64294455Y-56902853D01*
X64294454Y-56902854D01*
X64250997Y-57046115D01*
X64240000Y-57157768D01*
X64240000Y-57157778D01*
X64236324Y-57195100D01*
X64240000Y-57232422D01*
X64240001Y-67911687D01*
X64021495Y-68057688D01*
X63807688Y-68271495D01*
X63712262Y-68414310D01*
X63564080Y-68365525D01*
X62679605Y-69250000D01*
X63564080Y-70134475D01*
X63712262Y-70085690D01*
X63807688Y-70228505D01*
X64021495Y-70442312D01*
X64272905Y-70610299D01*
X64552257Y-70726011D01*
X64848816Y-70785000D01*
X65151184Y-70785000D01*
X65447743Y-70726011D01*
X65727095Y-70610299D01*
X65978505Y-70442312D01*
X66192312Y-70228505D01*
X66250000Y-70142169D01*
X66307688Y-70228505D01*
X66521495Y-70442312D01*
X66772905Y-70610299D01*
X67052257Y-70726011D01*
X67348816Y-70785000D01*
X67651184Y-70785000D01*
X67947743Y-70726011D01*
X68227095Y-70610299D01*
X68478505Y-70442312D01*
X68692312Y-70228505D01*
X68860299Y-69977095D01*
X68976011Y-69697743D01*
X69035000Y-69401184D01*
X69035000Y-69098816D01*
X68976011Y-68802257D01*
X68860299Y-68522905D01*
X68692312Y-68271495D01*
X68478505Y-68057688D01*
X68227095Y-67889701D01*
X67947743Y-67773989D01*
X67651184Y-67715000D01*
X67348816Y-67715000D01*
X67052257Y-67773989D01*
X66772905Y-67889701D01*
X66521495Y-68057688D01*
X66307688Y-68271495D01*
X66250000Y-68357831D01*
X66192312Y-68271495D01*
X65978505Y-68057688D01*
X65760000Y-67911687D01*
X65760000Y-61990475D01*
X66765000Y-61990475D01*
X66765000Y-62509525D01*
X66866261Y-63018601D01*
X67064893Y-63498141D01*
X67353262Y-63929715D01*
X67720285Y-64296738D01*
X68151859Y-64585107D01*
X68631399Y-64783739D01*
X69140475Y-64885000D01*
X69659525Y-64885000D01*
X70168601Y-64783739D01*
X70648141Y-64585107D01*
X71079715Y-64296738D01*
X71446738Y-63929715D01*
X71735107Y-63498141D01*
X71933739Y-63018601D01*
X72035000Y-62509525D01*
X72035000Y-61990475D01*
X71933739Y-61481399D01*
X71735107Y-61001859D01*
X71446738Y-60570285D01*
X71079715Y-60203262D01*
X70648141Y-59914893D01*
X70168601Y-59716261D01*
X69659525Y-59615000D01*
X69140475Y-59615000D01*
X68631399Y-59716261D01*
X68151859Y-59914893D01*
X67720285Y-60203262D01*
X67353262Y-60570285D01*
X67064893Y-61001859D01*
X66866261Y-61481399D01*
X66765000Y-61990475D01*
X65760000Y-61990475D01*
X65760000Y-57509901D01*
X74320000Y-48949902D01*
X74320001Y-76045497D01*
X53189003Y-97176496D01*
X53159999Y-97200299D01*
X53104871Y-97267474D01*
X53065026Y-97316024D01*
X52994455Y-97448053D01*
X52994454Y-97448054D01*
X52950997Y-97591315D01*
X52940000Y-97702968D01*
X52940000Y-97702978D01*
X52936324Y-97740300D01*
X52940000Y-97777623D01*
X52940001Y-101455431D01*
X52893552Y-101493551D01*
X52751717Y-101666377D01*
X52646324Y-101863553D01*
X52581423Y-102077501D01*
X52565000Y-102244248D01*
X52565000Y-103455751D01*
X52581423Y-103622498D01*
X52646324Y-103836446D01*
X52751716Y-104033623D01*
X52893551Y-104206449D01*
X53066377Y-104348284D01*
X53263553Y-104453676D01*
X53477501Y-104518577D01*
X53700000Y-104540491D01*
X53922498Y-104518577D01*
X54136446Y-104453676D01*
X54333623Y-104348284D01*
X54506449Y-104206449D01*
X54648284Y-104033623D01*
X54753676Y-103836447D01*
X54818577Y-103622499D01*
X54835000Y-103455752D01*
X54835000Y-102244248D01*
X54818577Y-102077501D01*
X54753676Y-101863553D01*
X54648284Y-101666377D01*
X54506449Y-101493551D01*
X54460000Y-101455431D01*
X54460000Y-100851874D01*
X56855881Y-100851874D01*
X56935724Y-101074976D01*
X57057631Y-101262764D01*
X57213831Y-101423161D01*
X57398322Y-101550003D01*
X57604013Y-101638415D01*
X57823000Y-101685000D01*
X58373000Y-101685000D01*
X58373000Y-100677000D01*
X58627000Y-100677000D01*
X58627000Y-101685000D01*
X59177000Y-101685000D01*
X59395987Y-101638415D01*
X59601678Y-101550003D01*
X59786169Y-101423161D01*
X59942369Y-101262764D01*
X60064276Y-101074976D01*
X60144119Y-100851874D01*
X60017954Y-100677000D01*
X58627000Y-100677000D01*
X58373000Y-100677000D01*
X56982046Y-100677000D01*
X56855881Y-100851874D01*
X54460000Y-100851874D01*
X54460000Y-100248126D01*
X56855881Y-100248126D01*
X56982046Y-100423000D01*
X58373000Y-100423000D01*
X58373000Y-100403000D01*
X58627000Y-100403000D01*
X58627000Y-100423000D01*
X60017954Y-100423000D01*
X60144119Y-100248126D01*
X60064276Y-100025024D01*
X59942369Y-99837236D01*
X59786169Y-99676839D01*
X59601678Y-99549997D01*
X59395987Y-99461585D01*
X59177000Y-99415000D01*
X57823000Y-99415000D01*
X57604013Y-99461585D01*
X57398322Y-99549997D01*
X57213831Y-99676839D01*
X57057631Y-99837236D01*
X56935724Y-100025024D01*
X56855881Y-100248126D01*
X54460000Y-100248126D01*
X54460000Y-98055101D01*
X66270853Y-86244248D01*
X67565000Y-86244248D01*
X67565000Y-87455751D01*
X67581423Y-87622498D01*
X67646324Y-87836446D01*
X67751716Y-88033623D01*
X67893551Y-88206449D01*
X68066377Y-88348284D01*
X68263553Y-88453676D01*
X68477501Y-88518577D01*
X68700000Y-88540491D01*
X68922498Y-88518577D01*
X69136446Y-88453676D01*
X69333623Y-88348284D01*
X69506449Y-88206449D01*
X69607958Y-88082760D01*
X72740001Y-91214803D01*
X72740001Y-91530192D01*
X72727501Y-91531423D01*
X72513553Y-91596324D01*
X72316377Y-91701716D01*
X72143551Y-91843551D01*
X72001716Y-92016377D01*
X71896324Y-92213553D01*
X71831423Y-92427501D01*
X71809509Y-92650000D01*
X71831423Y-92872499D01*
X71896324Y-93086447D01*
X72001716Y-93283623D01*
X72143551Y-93456449D01*
X72316377Y-93598284D01*
X72513553Y-93703676D01*
X72727501Y-93768577D01*
X72894248Y-93785000D01*
X74105752Y-93785000D01*
X74272499Y-93768577D01*
X74486447Y-93703676D01*
X74683623Y-93598284D01*
X74856449Y-93456449D01*
X74998284Y-93283623D01*
X75103676Y-93086447D01*
X75168577Y-92872499D01*
X75190491Y-92650000D01*
X75168577Y-92427501D01*
X75103676Y-92213553D01*
X74998284Y-92016377D01*
X74856449Y-91843551D01*
X74683623Y-91701716D01*
X74486447Y-91596324D01*
X74272499Y-91531423D01*
X74260000Y-91530192D01*
X74260000Y-90937323D01*
X74263676Y-90900000D01*
X74260000Y-90862677D01*
X74260000Y-90862667D01*
X74249003Y-90751014D01*
X74205546Y-90607753D01*
X74184437Y-90568261D01*
X74134974Y-90475723D01*
X74063799Y-90388997D01*
X74040001Y-90359999D01*
X74011003Y-90336201D01*
X70013804Y-86339003D01*
X69990001Y-86309999D01*
X69874276Y-86215026D01*
X69829779Y-86191242D01*
X69818577Y-86077501D01*
X69753676Y-85863553D01*
X69648284Y-85666377D01*
X69506449Y-85493551D01*
X69333623Y-85351716D01*
X69136447Y-85246324D01*
X68922499Y-85181423D01*
X68700000Y-85159509D01*
X68477502Y-85181423D01*
X68263554Y-85246324D01*
X68066378Y-85351716D01*
X67893552Y-85493551D01*
X67751717Y-85666377D01*
X67646324Y-85863553D01*
X67581423Y-86077501D01*
X67565000Y-86244248D01*
X66270853Y-86244248D01*
X67663227Y-84851874D01*
X71855881Y-84851874D01*
X71935724Y-85074976D01*
X72057631Y-85262764D01*
X72213831Y-85423161D01*
X72398322Y-85550003D01*
X72604013Y-85638415D01*
X72823000Y-85685000D01*
X73373000Y-85685000D01*
X73373000Y-84677000D01*
X73627000Y-84677000D01*
X73627000Y-85685000D01*
X74177000Y-85685000D01*
X74395987Y-85638415D01*
X74601678Y-85550003D01*
X74786169Y-85423161D01*
X74942369Y-85262764D01*
X75064276Y-85074976D01*
X75144119Y-84851874D01*
X75017954Y-84677000D01*
X73627000Y-84677000D01*
X73373000Y-84677000D01*
X71982046Y-84677000D01*
X71855881Y-84851874D01*
X67663227Y-84851874D01*
X68266975Y-84248126D01*
X71855881Y-84248126D01*
X71982046Y-84423000D01*
X73373000Y-84423000D01*
X73373000Y-84403000D01*
X73627000Y-84403000D01*
X73627000Y-84423000D01*
X75017954Y-84423000D01*
X75144119Y-84248126D01*
X75064276Y-84025024D01*
X74942369Y-83837236D01*
X74786169Y-83676839D01*
X74601678Y-83549997D01*
X74395987Y-83461585D01*
X74177000Y-83415000D01*
X72823000Y-83415000D01*
X72604013Y-83461585D01*
X72398322Y-83549997D01*
X72213831Y-83676839D01*
X72057631Y-83837236D01*
X71935724Y-84025024D01*
X71855881Y-84248126D01*
X68266975Y-84248126D01*
X75503001Y-77012101D01*
X75503001Y-95722197D01*
X69607959Y-101617240D01*
X69506449Y-101493551D01*
X69333623Y-101351716D01*
X69136447Y-101246324D01*
X68922499Y-101181423D01*
X68700000Y-101159509D01*
X68477502Y-101181423D01*
X68263554Y-101246324D01*
X68066378Y-101351716D01*
X67893552Y-101493551D01*
X67751717Y-101666377D01*
X67646324Y-101863553D01*
X67581423Y-102077501D01*
X67565000Y-102244248D01*
X67565000Y-103455751D01*
X67581423Y-103622498D01*
X67646324Y-103836446D01*
X67751716Y-104033623D01*
X67893551Y-104206449D01*
X67940000Y-104244569D01*
X67940000Y-104362678D01*
X67936324Y-104400000D01*
X67940000Y-104437322D01*
X67940000Y-104437332D01*
X67950997Y-104548985D01*
X67993773Y-104690001D01*
X67994454Y-104692246D01*
X68065026Y-104824276D01*
X68090689Y-104855546D01*
X68159999Y-104940001D01*
X68189003Y-104963804D01*
X71815399Y-108590201D01*
X71809509Y-108650000D01*
X71831423Y-108872499D01*
X71896324Y-109086447D01*
X72001716Y-109283623D01*
X72143551Y-109456449D01*
X72316377Y-109598284D01*
X72513553Y-109703676D01*
X72727501Y-109768577D01*
X72894248Y-109785000D01*
X74105752Y-109785000D01*
X74272499Y-109768577D01*
X74486447Y-109703676D01*
X74683623Y-109598284D01*
X74856449Y-109456449D01*
X74998284Y-109283623D01*
X75103676Y-109086447D01*
X75168577Y-108872499D01*
X75190491Y-108650000D01*
X75168577Y-108427501D01*
X75103676Y-108213553D01*
X74998284Y-108016377D01*
X74856449Y-107843551D01*
X74683623Y-107701716D01*
X74486447Y-107596324D01*
X74272499Y-107531423D01*
X74105752Y-107515000D01*
X72894248Y-107515000D01*
X72890200Y-107515399D01*
X69540166Y-104165365D01*
X69648284Y-104033623D01*
X69753676Y-103836447D01*
X69818577Y-103622499D01*
X69829779Y-103508758D01*
X69874276Y-103484974D01*
X69990001Y-103390001D01*
X70013804Y-103360997D01*
X72084474Y-101290328D01*
X72213831Y-101423161D01*
X72398322Y-101550003D01*
X72604013Y-101638415D01*
X72823000Y-101685000D01*
X73373000Y-101685000D01*
X73373000Y-100677000D01*
X73627000Y-100677000D01*
X73627000Y-101685000D01*
X74177000Y-101685000D01*
X74395987Y-101638415D01*
X74601678Y-101550003D01*
X74786169Y-101423161D01*
X74942369Y-101262764D01*
X75064276Y-101074976D01*
X75144119Y-100851874D01*
X75017954Y-100677000D01*
X73627000Y-100677000D01*
X73373000Y-100677000D01*
X73353000Y-100677000D01*
X73353000Y-100423000D01*
X73373000Y-100423000D01*
X73373000Y-100403000D01*
X73627000Y-100403000D01*
X73627000Y-100423000D01*
X75017954Y-100423000D01*
X75144119Y-100248126D01*
X75064276Y-100025024D01*
X74942369Y-99837236D01*
X74786169Y-99676839D01*
X74601678Y-99549997D01*
X74395987Y-99461585D01*
X74177000Y-99415000D01*
X73959802Y-99415000D01*
X76774003Y-96600799D01*
X76803001Y-96577001D01*
X76829332Y-96544917D01*
X76897974Y-96461277D01*
X76968546Y-96329247D01*
X77012003Y-96185986D01*
X77023000Y-96074333D01*
X77023000Y-96074323D01*
X77026676Y-96037001D01*
X77023000Y-95999678D01*
X77023000Y-36491720D01*
X77048966Y-36505599D01*
X77328889Y-36590513D01*
X77547050Y-36612000D01*
X77692950Y-36612000D01*
X77911111Y-36590513D01*
X78191034Y-36505599D01*
X78449014Y-36367706D01*
X78675134Y-36182134D01*
X78860706Y-35956014D01*
X78966031Y-35758964D01*
X79104866Y-35928134D01*
X79330986Y-36113706D01*
X79400000Y-36150595D01*
X79400001Y-106722667D01*
X79400000Y-107825198D01*
X69607959Y-117617240D01*
X69506449Y-117493551D01*
X69333623Y-117351716D01*
X69136447Y-117246324D01*
X68922499Y-117181423D01*
X68700000Y-117159509D01*
X68477502Y-117181423D01*
X68263554Y-117246324D01*
X68066378Y-117351716D01*
X67893552Y-117493551D01*
X67751717Y-117666377D01*
X67646324Y-117863553D01*
X67581423Y-118077501D01*
X67565000Y-118244248D01*
X67565000Y-119455751D01*
X67581423Y-119622498D01*
X67646324Y-119836446D01*
X67751716Y-120033623D01*
X67893551Y-120206449D01*
X68066377Y-120348284D01*
X68263553Y-120453676D01*
X68477501Y-120518577D01*
X68700000Y-120540491D01*
X68922498Y-120518577D01*
X69136446Y-120453676D01*
X69333623Y-120348284D01*
X69506449Y-120206449D01*
X69607958Y-120082760D01*
X72740001Y-123214803D01*
X72740001Y-123530192D01*
X72727501Y-123531423D01*
X72513553Y-123596324D01*
X72316377Y-123701716D01*
X72143551Y-123843551D01*
X72001716Y-124016377D01*
X71896324Y-124213553D01*
X71831423Y-124427501D01*
X71809509Y-124650000D01*
X71831423Y-124872499D01*
X71896324Y-125086447D01*
X72001716Y-125283623D01*
X72143551Y-125456449D01*
X72316377Y-125598284D01*
X72513553Y-125703676D01*
X72727501Y-125768577D01*
X72894248Y-125785000D01*
X74105752Y-125785000D01*
X74272499Y-125768577D01*
X74486447Y-125703676D01*
X74683623Y-125598284D01*
X74856449Y-125456449D01*
X74998284Y-125283623D01*
X75103676Y-125086447D01*
X75168577Y-124872499D01*
X75190491Y-124650000D01*
X86809509Y-124650000D01*
X86831423Y-124872499D01*
X86896324Y-125086447D01*
X87001716Y-125283623D01*
X87143551Y-125456449D01*
X87316377Y-125598284D01*
X87513553Y-125703676D01*
X87727501Y-125768577D01*
X87894248Y-125785000D01*
X89105752Y-125785000D01*
X89272499Y-125768577D01*
X89486447Y-125703676D01*
X89683623Y-125598284D01*
X89856449Y-125456449D01*
X89998284Y-125283623D01*
X90103676Y-125086447D01*
X90168577Y-124872499D01*
X90190491Y-124650000D01*
X90168577Y-124427501D01*
X90103676Y-124213553D01*
X89998284Y-124016377D01*
X89856449Y-123843551D01*
X89683623Y-123701716D01*
X89486447Y-123596324D01*
X89272499Y-123531423D01*
X89105752Y-123515000D01*
X87894248Y-123515000D01*
X87727501Y-123531423D01*
X87513553Y-123596324D01*
X87316377Y-123701716D01*
X87143551Y-123843551D01*
X87001716Y-124016377D01*
X86896324Y-124213553D01*
X86831423Y-124427501D01*
X86809509Y-124650000D01*
X75190491Y-124650000D01*
X75168577Y-124427501D01*
X75103676Y-124213553D01*
X74998284Y-124016377D01*
X74856449Y-123843551D01*
X74683623Y-123701716D01*
X74486447Y-123596324D01*
X74272499Y-123531423D01*
X74260000Y-123530192D01*
X74260000Y-122937323D01*
X74263676Y-122900000D01*
X74260000Y-122862677D01*
X74260000Y-122862667D01*
X74249003Y-122751014D01*
X74205546Y-122607753D01*
X74134974Y-122475723D01*
X74063799Y-122388997D01*
X74040001Y-122359999D01*
X74011003Y-122336201D01*
X70524801Y-118850000D01*
X72084473Y-117290328D01*
X72213831Y-117423161D01*
X72398322Y-117550003D01*
X72604013Y-117638415D01*
X72823000Y-117685000D01*
X73373000Y-117685000D01*
X73373000Y-116677000D01*
X73627000Y-116677000D01*
X73627000Y-117685000D01*
X74177000Y-117685000D01*
X74395987Y-117638415D01*
X74601678Y-117550003D01*
X74786169Y-117423161D01*
X74942369Y-117262764D01*
X75064276Y-117074976D01*
X75144119Y-116851874D01*
X75017954Y-116677000D01*
X73627000Y-116677000D01*
X73373000Y-116677000D01*
X73353000Y-116677000D01*
X73353000Y-116423000D01*
X73373000Y-116423000D01*
X73373000Y-116403000D01*
X73627000Y-116403000D01*
X73627000Y-116423000D01*
X75017954Y-116423000D01*
X75144119Y-116248126D01*
X75064276Y-116025024D01*
X74942369Y-115837236D01*
X74786169Y-115676839D01*
X74601678Y-115549997D01*
X74395987Y-115461585D01*
X74177000Y-115415000D01*
X73959801Y-115415000D01*
X80590201Y-108784601D01*
X80590201Y-117288167D01*
X80586524Y-117325500D01*
X80601198Y-117474485D01*
X80644654Y-117617746D01*
X80715226Y-117749776D01*
X80786401Y-117836502D01*
X80810200Y-117865501D01*
X80839198Y-117889299D01*
X82310900Y-119361002D01*
X82334699Y-119390001D01*
X82363697Y-119413799D01*
X82450424Y-119484974D01*
X82574405Y-119551244D01*
X82581423Y-119622498D01*
X82646324Y-119836446D01*
X82751716Y-120033623D01*
X82893551Y-120206449D01*
X83066377Y-120348284D01*
X83263553Y-120453676D01*
X83477501Y-120518577D01*
X83700000Y-120540491D01*
X83922498Y-120518577D01*
X84136446Y-120453676D01*
X84333623Y-120348284D01*
X84506449Y-120206449D01*
X84648284Y-120033623D01*
X84753676Y-119836447D01*
X84818577Y-119622499D01*
X84835000Y-119455752D01*
X84835000Y-118244248D01*
X84818577Y-118077501D01*
X84753676Y-117863553D01*
X84648284Y-117666377D01*
X84506449Y-117493551D01*
X84333623Y-117351716D01*
X84136447Y-117246324D01*
X83922499Y-117181423D01*
X83700000Y-117159509D01*
X83477502Y-117181423D01*
X83263554Y-117246324D01*
X83066378Y-117351716D01*
X82893552Y-117493551D01*
X82758100Y-117658599D01*
X82110200Y-117010699D01*
X82110200Y-116851874D01*
X86855881Y-116851874D01*
X86935724Y-117074976D01*
X87057631Y-117262764D01*
X87213831Y-117423161D01*
X87398322Y-117550003D01*
X87604013Y-117638415D01*
X87823000Y-117685000D01*
X88373000Y-117685000D01*
X88373000Y-116677000D01*
X88627000Y-116677000D01*
X88627000Y-117685000D01*
X89177000Y-117685000D01*
X89395987Y-117638415D01*
X89601678Y-117550003D01*
X89786169Y-117423161D01*
X89942369Y-117262764D01*
X90064276Y-117074976D01*
X90144119Y-116851874D01*
X90017954Y-116677000D01*
X88627000Y-116677000D01*
X88373000Y-116677000D01*
X86982046Y-116677000D01*
X86855881Y-116851874D01*
X82110200Y-116851874D01*
X82110200Y-116248126D01*
X86855881Y-116248126D01*
X86982046Y-116423000D01*
X88373000Y-116423000D01*
X88373000Y-116403000D01*
X88627000Y-116403000D01*
X88627000Y-116423000D01*
X90017954Y-116423000D01*
X90144119Y-116248126D01*
X90064276Y-116025024D01*
X89942369Y-115837236D01*
X89786169Y-115676839D01*
X89601678Y-115549997D01*
X89395987Y-115461585D01*
X89177000Y-115415000D01*
X87823000Y-115415000D01*
X87604013Y-115461585D01*
X87398322Y-115549997D01*
X87213831Y-115676839D01*
X87057631Y-115837236D01*
X86935724Y-116025024D01*
X86855881Y-116248126D01*
X82110200Y-116248126D01*
X82110200Y-108650000D01*
X86809509Y-108650000D01*
X86831423Y-108872499D01*
X86896324Y-109086447D01*
X87001716Y-109283623D01*
X87143551Y-109456449D01*
X87316377Y-109598284D01*
X87513553Y-109703676D01*
X87727501Y-109768577D01*
X87894248Y-109785000D01*
X89105752Y-109785000D01*
X89272499Y-109768577D01*
X89486447Y-109703676D01*
X89683623Y-109598284D01*
X89856449Y-109456449D01*
X89998284Y-109283623D01*
X90103676Y-109086447D01*
X90168577Y-108872499D01*
X90190491Y-108650000D01*
X90168577Y-108427501D01*
X90103676Y-108213553D01*
X89998284Y-108016377D01*
X89856449Y-107843551D01*
X89683623Y-107701716D01*
X89486447Y-107596324D01*
X89272499Y-107531423D01*
X89105752Y-107515000D01*
X87894248Y-107515000D01*
X87727501Y-107531423D01*
X87513553Y-107596324D01*
X87316377Y-107701716D01*
X87143551Y-107843551D01*
X87001716Y-108016377D01*
X86896324Y-108213553D01*
X86831423Y-108427501D01*
X86809509Y-108650000D01*
X82110200Y-108650000D01*
X82110200Y-102244248D01*
X82565000Y-102244248D01*
X82565000Y-103455751D01*
X82581423Y-103622498D01*
X82646324Y-103836446D01*
X82751716Y-104033623D01*
X82893551Y-104206449D01*
X83066377Y-104348284D01*
X83263553Y-104453676D01*
X83477501Y-104518577D01*
X83700000Y-104540491D01*
X83922498Y-104518577D01*
X84136446Y-104453676D01*
X84333623Y-104348284D01*
X84506449Y-104206449D01*
X84648284Y-104033623D01*
X84753676Y-103836447D01*
X84818577Y-103622499D01*
X84835000Y-103455752D01*
X84835000Y-102244248D01*
X84818577Y-102077501D01*
X84753676Y-101863553D01*
X84648284Y-101666377D01*
X84506449Y-101493551D01*
X84333623Y-101351716D01*
X84136447Y-101246324D01*
X83922499Y-101181423D01*
X83700000Y-101159509D01*
X83477502Y-101181423D01*
X83263554Y-101246324D01*
X83066378Y-101351716D01*
X82893552Y-101493551D01*
X82751717Y-101666377D01*
X82646324Y-101863553D01*
X82581423Y-102077501D01*
X82565000Y-102244248D01*
X82110200Y-102244248D01*
X82110200Y-100851874D01*
X86855881Y-100851874D01*
X86935724Y-101074976D01*
X87057631Y-101262764D01*
X87213831Y-101423161D01*
X87398322Y-101550003D01*
X87604013Y-101638415D01*
X87823000Y-101685000D01*
X88373000Y-101685000D01*
X88373000Y-100677000D01*
X88627000Y-100677000D01*
X88627000Y-101685000D01*
X89177000Y-101685000D01*
X89395987Y-101638415D01*
X89601678Y-101550003D01*
X89786169Y-101423161D01*
X89942369Y-101262764D01*
X90064276Y-101074976D01*
X90144119Y-100851874D01*
X90017954Y-100677000D01*
X88627000Y-100677000D01*
X88373000Y-100677000D01*
X86982046Y-100677000D01*
X86855881Y-100851874D01*
X82110200Y-100851874D01*
X82110200Y-100248126D01*
X86855881Y-100248126D01*
X86982046Y-100423000D01*
X88373000Y-100423000D01*
X88373000Y-100403000D01*
X88627000Y-100403000D01*
X88627000Y-100423000D01*
X90017954Y-100423000D01*
X90144119Y-100248126D01*
X90064276Y-100025024D01*
X89942369Y-99837236D01*
X89786169Y-99676839D01*
X89601678Y-99549997D01*
X89395987Y-99461585D01*
X89177000Y-99415000D01*
X87823000Y-99415000D01*
X87604013Y-99461585D01*
X87398322Y-99549997D01*
X87213831Y-99676839D01*
X87057631Y-99837236D01*
X86935724Y-100025024D01*
X86855881Y-100248126D01*
X82110200Y-100248126D01*
X82110200Y-91977220D01*
X82136201Y-92008902D01*
X82160000Y-92037901D01*
X82188998Y-92061699D01*
X97940000Y-107812702D01*
X97940001Y-117455431D01*
X97893552Y-117493551D01*
X97751717Y-117666377D01*
X97646324Y-117863553D01*
X97581423Y-118077501D01*
X97565000Y-118244248D01*
X97565000Y-119455751D01*
X97581423Y-119622498D01*
X97646324Y-119836446D01*
X97751716Y-120033623D01*
X97893551Y-120206449D01*
X98066377Y-120348284D01*
X98263553Y-120453676D01*
X98477501Y-120518577D01*
X98700000Y-120540491D01*
X98922498Y-120518577D01*
X99136446Y-120453676D01*
X99333623Y-120348284D01*
X99506449Y-120206449D01*
X99607958Y-120082760D01*
X102740001Y-123214803D01*
X102740001Y-123530192D01*
X102727501Y-123531423D01*
X102513553Y-123596324D01*
X102316377Y-123701716D01*
X102143551Y-123843551D01*
X102001716Y-124016377D01*
X101896324Y-124213553D01*
X101831423Y-124427501D01*
X101809509Y-124650000D01*
X101831423Y-124872499D01*
X101896324Y-125086447D01*
X102001716Y-125283623D01*
X102143551Y-125456449D01*
X102316377Y-125598284D01*
X102513553Y-125703676D01*
X102727501Y-125768577D01*
X102894248Y-125785000D01*
X104105752Y-125785000D01*
X104272499Y-125768577D01*
X104486447Y-125703676D01*
X104683623Y-125598284D01*
X104856449Y-125456449D01*
X104998284Y-125283623D01*
X105103676Y-125086447D01*
X105168577Y-124872499D01*
X105181890Y-124737323D01*
X107333000Y-124737323D01*
X107333000Y-125262677D01*
X107435492Y-125777935D01*
X107636536Y-126263298D01*
X107928406Y-126700113D01*
X108299887Y-127071594D01*
X108736702Y-127363464D01*
X109222065Y-127564508D01*
X109737323Y-127667000D01*
X110262677Y-127667000D01*
X110777935Y-127564508D01*
X111263298Y-127363464D01*
X111700113Y-127071594D01*
X112071594Y-126700113D01*
X112363464Y-126263298D01*
X112564508Y-125777935D01*
X112667000Y-125262677D01*
X112667000Y-124737323D01*
X112564508Y-124222065D01*
X112363464Y-123736702D01*
X112071594Y-123299887D01*
X111700113Y-122928406D01*
X111263298Y-122636536D01*
X110777935Y-122435492D01*
X110262677Y-122333000D01*
X109737323Y-122333000D01*
X109222065Y-122435492D01*
X108736702Y-122636536D01*
X108299887Y-122928406D01*
X107928406Y-123299887D01*
X107636536Y-123736702D01*
X107435492Y-124222065D01*
X107333000Y-124737323D01*
X105181890Y-124737323D01*
X105190491Y-124650000D01*
X105168577Y-124427501D01*
X105103676Y-124213553D01*
X104998284Y-124016377D01*
X104856449Y-123843551D01*
X104683623Y-123701716D01*
X104486447Y-123596324D01*
X104272499Y-123531423D01*
X104260000Y-123530192D01*
X104260000Y-122937323D01*
X104263676Y-122900000D01*
X104260000Y-122862677D01*
X104260000Y-122862667D01*
X104249003Y-122751014D01*
X104205546Y-122607753D01*
X104134974Y-122475723D01*
X104063799Y-122388997D01*
X104040001Y-122359999D01*
X104011003Y-122336201D01*
X100013804Y-118339003D01*
X99990001Y-118309999D01*
X99874276Y-118215026D01*
X99829779Y-118191242D01*
X99818577Y-118077501D01*
X99753676Y-117863553D01*
X99648284Y-117666377D01*
X99506449Y-117493551D01*
X99460000Y-117455431D01*
X99460000Y-116851874D01*
X101855881Y-116851874D01*
X101935724Y-117074976D01*
X102057631Y-117262764D01*
X102213831Y-117423161D01*
X102398322Y-117550003D01*
X102604013Y-117638415D01*
X102823000Y-117685000D01*
X103373000Y-117685000D01*
X103373000Y-116677000D01*
X103627000Y-116677000D01*
X103627000Y-117685000D01*
X104177000Y-117685000D01*
X104395987Y-117638415D01*
X104601678Y-117550003D01*
X104786169Y-117423161D01*
X104942369Y-117262764D01*
X105064276Y-117074976D01*
X105144119Y-116851874D01*
X105017954Y-116677000D01*
X103627000Y-116677000D01*
X103373000Y-116677000D01*
X101982046Y-116677000D01*
X101855881Y-116851874D01*
X99460000Y-116851874D01*
X99460000Y-116248126D01*
X101855881Y-116248126D01*
X101982046Y-116423000D01*
X103373000Y-116423000D01*
X103373000Y-116403000D01*
X103627000Y-116403000D01*
X103627000Y-116423000D01*
X105017954Y-116423000D01*
X105144119Y-116248126D01*
X105064276Y-116025024D01*
X104942369Y-115837236D01*
X104786169Y-115676839D01*
X104601678Y-115549997D01*
X104395987Y-115461585D01*
X104177000Y-115415000D01*
X102823000Y-115415000D01*
X102604013Y-115461585D01*
X102398322Y-115549997D01*
X102213831Y-115676839D01*
X102057631Y-115837236D01*
X101935724Y-116025024D01*
X101855881Y-116248126D01*
X99460000Y-116248126D01*
X99460000Y-108650000D01*
X101809509Y-108650000D01*
X101831423Y-108872499D01*
X101896324Y-109086447D01*
X102001716Y-109283623D01*
X102143551Y-109456449D01*
X102316377Y-109598284D01*
X102513553Y-109703676D01*
X102727501Y-109768577D01*
X102894248Y-109785000D01*
X104105752Y-109785000D01*
X104272499Y-109768577D01*
X104486447Y-109703676D01*
X104683623Y-109598284D01*
X104856449Y-109456449D01*
X104998284Y-109283623D01*
X105103676Y-109086447D01*
X105168577Y-108872499D01*
X105190491Y-108650000D01*
X105168577Y-108427501D01*
X105103676Y-108213553D01*
X104998284Y-108016377D01*
X104856449Y-107843551D01*
X104683623Y-107701716D01*
X104486447Y-107596324D01*
X104272499Y-107531423D01*
X104105752Y-107515000D01*
X102894248Y-107515000D01*
X102727501Y-107531423D01*
X102513553Y-107596324D01*
X102316377Y-107701716D01*
X102143551Y-107843551D01*
X102001716Y-108016377D01*
X101896324Y-108213553D01*
X101831423Y-108427501D01*
X101809509Y-108650000D01*
X99460000Y-108650000D01*
X99460000Y-107535222D01*
X99463676Y-107497900D01*
X99460000Y-107460577D01*
X99460000Y-107460567D01*
X99449003Y-107348914D01*
X99405546Y-107205653D01*
X99334975Y-107073625D01*
X99334974Y-107073623D01*
X99263799Y-106986897D01*
X99240001Y-106957899D01*
X99211004Y-106934102D01*
X83460000Y-91183099D01*
X83460000Y-88513268D01*
X83477501Y-88518577D01*
X83700000Y-88540491D01*
X83922498Y-88518577D01*
X84136446Y-88453676D01*
X84333623Y-88348284D01*
X84506449Y-88206449D01*
X84607958Y-88082760D01*
X87740001Y-91214803D01*
X87740001Y-91530192D01*
X87727501Y-91531423D01*
X87513553Y-91596324D01*
X87316377Y-91701716D01*
X87143551Y-91843551D01*
X87001716Y-92016377D01*
X86896324Y-92213553D01*
X86831423Y-92427501D01*
X86809509Y-92650000D01*
X86831423Y-92872499D01*
X86896324Y-93086447D01*
X87001716Y-93283623D01*
X87143551Y-93456449D01*
X87316377Y-93598284D01*
X87513553Y-93703676D01*
X87727501Y-93768577D01*
X87894248Y-93785000D01*
X89105752Y-93785000D01*
X89272499Y-93768577D01*
X89486447Y-93703676D01*
X89683623Y-93598284D01*
X89856449Y-93456449D01*
X89998284Y-93283623D01*
X90103676Y-93086447D01*
X90168577Y-92872499D01*
X90190491Y-92650000D01*
X90168577Y-92427501D01*
X90103676Y-92213553D01*
X89998284Y-92016377D01*
X89856449Y-91843551D01*
X89683623Y-91701716D01*
X89486447Y-91596324D01*
X89272499Y-91531423D01*
X89260000Y-91530192D01*
X89260000Y-90937323D01*
X89263676Y-90900000D01*
X89260000Y-90862677D01*
X89260000Y-90862667D01*
X89249003Y-90751014D01*
X89205546Y-90607753D01*
X89184437Y-90568261D01*
X89134974Y-90475723D01*
X89063799Y-90388997D01*
X89040001Y-90359999D01*
X89011003Y-90336201D01*
X85013804Y-86339003D01*
X84990001Y-86309999D01*
X84874276Y-86215026D01*
X84829779Y-86191242D01*
X84818577Y-86077501D01*
X84753676Y-85863553D01*
X84648284Y-85666377D01*
X84506449Y-85493551D01*
X84333623Y-85351716D01*
X84136447Y-85246324D01*
X83922499Y-85181423D01*
X83700000Y-85159509D01*
X83477502Y-85181423D01*
X83460000Y-85186732D01*
X83460000Y-84851874D01*
X86855881Y-84851874D01*
X86935724Y-85074976D01*
X87057631Y-85262764D01*
X87213831Y-85423161D01*
X87398322Y-85550003D01*
X87604013Y-85638415D01*
X87823000Y-85685000D01*
X88373000Y-85685000D01*
X88373000Y-84677000D01*
X88627000Y-84677000D01*
X88627000Y-85685000D01*
X89177000Y-85685000D01*
X89395987Y-85638415D01*
X89601678Y-85550003D01*
X89786169Y-85423161D01*
X89942369Y-85262764D01*
X90064276Y-85074976D01*
X90144119Y-84851874D01*
X90017954Y-84677000D01*
X88627000Y-84677000D01*
X88373000Y-84677000D01*
X86982046Y-84677000D01*
X86855881Y-84851874D01*
X83460000Y-84851874D01*
X83460000Y-84248126D01*
X86855881Y-84248126D01*
X86982046Y-84423000D01*
X88373000Y-84423000D01*
X88373000Y-84403000D01*
X88627000Y-84403000D01*
X88627000Y-84423000D01*
X90017954Y-84423000D01*
X90144119Y-84248126D01*
X90064276Y-84025024D01*
X89942369Y-83837236D01*
X89786169Y-83676839D01*
X89601678Y-83549997D01*
X89395987Y-83461585D01*
X89177000Y-83415000D01*
X87823000Y-83415000D01*
X87604013Y-83461585D01*
X87398322Y-83549997D01*
X87213831Y-83676839D01*
X87057631Y-83837236D01*
X86935724Y-84025024D01*
X86855881Y-84248126D01*
X83460000Y-84248126D01*
X83460000Y-70314080D01*
X91615525Y-70314080D01*
X91699208Y-70568261D01*
X91971775Y-70699158D01*
X92264642Y-70774365D01*
X92566553Y-70790991D01*
X92865907Y-70748397D01*
X93151199Y-70648222D01*
X93300792Y-70568261D01*
X93384475Y-70314080D01*
X92500000Y-69429605D01*
X91615525Y-70314080D01*
X83460000Y-70314080D01*
X83460000Y-69316553D01*
X90959009Y-69316553D01*
X91001603Y-69615907D01*
X91101778Y-69901199D01*
X91181739Y-70050792D01*
X91435920Y-70134475D01*
X92320395Y-69250000D01*
X91435920Y-68365525D01*
X91181739Y-68449208D01*
X91050842Y-68721775D01*
X90975635Y-69014642D01*
X90959009Y-69316553D01*
X83460000Y-69316553D01*
X83460000Y-68185920D01*
X91615525Y-68185920D01*
X92500000Y-69070395D01*
X93384475Y-68185920D01*
X93300792Y-67931739D01*
X93028225Y-67800842D01*
X92735358Y-67725635D01*
X92433447Y-67709009D01*
X92134093Y-67751603D01*
X91848801Y-67851778D01*
X91699208Y-67931739D01*
X91615525Y-68185920D01*
X83460000Y-68185920D01*
X83460000Y-61990475D01*
X87965000Y-61990475D01*
X87965000Y-62509525D01*
X88066261Y-63018601D01*
X88264893Y-63498141D01*
X88553262Y-63929715D01*
X88920285Y-64296738D01*
X89351859Y-64585107D01*
X89831399Y-64783739D01*
X90340475Y-64885000D01*
X90859525Y-64885000D01*
X91368601Y-64783739D01*
X91848141Y-64585107D01*
X92279715Y-64296738D01*
X92646738Y-63929715D01*
X92935107Y-63498141D01*
X93133739Y-63018601D01*
X93235000Y-62509525D01*
X93235000Y-61990475D01*
X93133739Y-61481399D01*
X92935107Y-61001859D01*
X92646738Y-60570285D01*
X92279715Y-60203262D01*
X91848141Y-59914893D01*
X91368601Y-59716261D01*
X90859525Y-59615000D01*
X90340475Y-59615000D01*
X89831399Y-59716261D01*
X89351859Y-59914893D01*
X88920285Y-60203262D01*
X88553262Y-60570285D01*
X88264893Y-61001859D01*
X88066261Y-61481399D01*
X87965000Y-61990475D01*
X83460000Y-61990475D01*
X83460000Y-36404595D01*
X83529014Y-36367706D01*
X83755134Y-36182134D01*
X83940706Y-35956014D01*
X84046031Y-35758964D01*
X84184866Y-35928134D01*
X84410986Y-36113706D01*
X84668966Y-36251599D01*
X84948889Y-36336513D01*
X85167050Y-36358000D01*
X85312950Y-36358000D01*
X85531111Y-36336513D01*
X85655300Y-36298841D01*
X85655301Y-52516567D01*
X85651624Y-52553900D01*
X85666298Y-52702885D01*
X85709754Y-52846146D01*
X85780326Y-52978176D01*
X85794096Y-52994954D01*
X85875300Y-53093901D01*
X85904298Y-53117699D01*
X102218000Y-69431402D01*
X102218001Y-80162026D01*
X101848141Y-79914893D01*
X101368601Y-79716261D01*
X100859525Y-79615000D01*
X100340475Y-79615000D01*
X99831399Y-79716261D01*
X99351859Y-79914893D01*
X98920285Y-80203262D01*
X98553262Y-80570285D01*
X98264893Y-81001859D01*
X98260000Y-81013672D01*
X98260000Y-70588313D01*
X98478505Y-70442312D01*
X98692312Y-70228505D01*
X98860299Y-69977095D01*
X98976011Y-69697743D01*
X99035000Y-69401184D01*
X99035000Y-69098816D01*
X98976011Y-68802257D01*
X98860299Y-68522905D01*
X98692312Y-68271495D01*
X98478505Y-68057688D01*
X98227095Y-67889701D01*
X97947743Y-67773989D01*
X97651184Y-67715000D01*
X97348816Y-67715000D01*
X97052257Y-67773989D01*
X96772905Y-67889701D01*
X96521495Y-68057688D01*
X96307688Y-68271495D01*
X96250000Y-68357831D01*
X96192312Y-68271495D01*
X95978505Y-68057688D01*
X95727095Y-67889701D01*
X95447743Y-67773989D01*
X95151184Y-67715000D01*
X94848816Y-67715000D01*
X94552257Y-67773989D01*
X94272905Y-67889701D01*
X94021495Y-68057688D01*
X93807688Y-68271495D01*
X93712262Y-68414310D01*
X93564080Y-68365525D01*
X92679605Y-69250000D01*
X93564080Y-70134475D01*
X93712262Y-70085690D01*
X93807688Y-70228505D01*
X94021495Y-70442312D01*
X94272905Y-70610299D01*
X94552257Y-70726011D01*
X94848816Y-70785000D01*
X95151184Y-70785000D01*
X95447743Y-70726011D01*
X95727095Y-70610299D01*
X95978505Y-70442312D01*
X96192312Y-70228505D01*
X96250000Y-70142169D01*
X96307688Y-70228505D01*
X96521495Y-70442312D01*
X96740000Y-70588313D01*
X96740001Y-102437967D01*
X96736324Y-102475300D01*
X96750998Y-102624285D01*
X96794454Y-102767546D01*
X96865026Y-102899576D01*
X96936201Y-102986302D01*
X96960000Y-103015301D01*
X96988998Y-103039099D01*
X97310896Y-103360997D01*
X97334699Y-103390001D01*
X97450424Y-103484974D01*
X97574405Y-103551244D01*
X97581423Y-103622498D01*
X97646324Y-103836446D01*
X97751716Y-104033623D01*
X97893551Y-104206449D01*
X98066377Y-104348284D01*
X98263553Y-104453676D01*
X98477501Y-104518577D01*
X98700000Y-104540491D01*
X98922498Y-104518577D01*
X99136446Y-104453676D01*
X99333623Y-104348284D01*
X99506449Y-104206449D01*
X99648284Y-104033623D01*
X99753676Y-103836447D01*
X99818577Y-103622499D01*
X99835000Y-103455752D01*
X99835000Y-102244248D01*
X99818577Y-102077501D01*
X99753676Y-101863553D01*
X99648284Y-101666377D01*
X99506449Y-101493551D01*
X99333623Y-101351716D01*
X99136447Y-101246324D01*
X98922499Y-101181423D01*
X98700000Y-101159509D01*
X98477502Y-101181423D01*
X98263554Y-101246324D01*
X98260000Y-101248224D01*
X98260000Y-100851874D01*
X101855881Y-100851874D01*
X101935724Y-101074976D01*
X102057631Y-101262764D01*
X102213831Y-101423161D01*
X102398322Y-101550003D01*
X102604013Y-101638415D01*
X102823000Y-101685000D01*
X103373000Y-101685000D01*
X103373000Y-100677000D01*
X103627000Y-100677000D01*
X103627000Y-101685000D01*
X104177000Y-101685000D01*
X104395987Y-101638415D01*
X104601678Y-101550003D01*
X104786169Y-101423161D01*
X104942369Y-101262764D01*
X105064276Y-101074976D01*
X105144119Y-100851874D01*
X105017954Y-100677000D01*
X103627000Y-100677000D01*
X103373000Y-100677000D01*
X101982046Y-100677000D01*
X101855881Y-100851874D01*
X98260000Y-100851874D01*
X98260000Y-100248126D01*
X101855881Y-100248126D01*
X101982046Y-100423000D01*
X103373000Y-100423000D01*
X103373000Y-100403000D01*
X103627000Y-100403000D01*
X103627000Y-100423000D01*
X105017954Y-100423000D01*
X105144119Y-100248126D01*
X105064276Y-100025024D01*
X104942369Y-99837236D01*
X104786169Y-99676839D01*
X104601678Y-99549997D01*
X104395987Y-99461585D01*
X104177000Y-99415000D01*
X102823000Y-99415000D01*
X102604013Y-99461585D01*
X102398322Y-99549997D01*
X102213831Y-99676839D01*
X102057631Y-99837236D01*
X101935724Y-100025024D01*
X101855881Y-100248126D01*
X98260000Y-100248126D01*
X98260000Y-83486328D01*
X98264893Y-83498141D01*
X98553262Y-83929715D01*
X98920285Y-84296738D01*
X99351859Y-84585107D01*
X99831399Y-84783739D01*
X100340475Y-84885000D01*
X100859525Y-84885000D01*
X101368601Y-84783739D01*
X101848141Y-84585107D01*
X102218001Y-84337974D01*
X102218001Y-87741021D01*
X102052257Y-87773989D01*
X101772905Y-87889701D01*
X101521495Y-88057688D01*
X101307688Y-88271495D01*
X101139701Y-88522905D01*
X101023989Y-88802257D01*
X100965000Y-89098816D01*
X100965000Y-89401184D01*
X101023989Y-89697743D01*
X101139701Y-89977095D01*
X101307688Y-90228505D01*
X101521495Y-90442312D01*
X101772905Y-90610299D01*
X102052257Y-90726011D01*
X102348816Y-90785000D01*
X102651184Y-90785000D01*
X102947743Y-90726011D01*
X103227095Y-90610299D01*
X103478505Y-90442312D01*
X103692312Y-90228505D01*
X103750000Y-90142169D01*
X103807688Y-90228505D01*
X104021495Y-90442312D01*
X104272905Y-90610299D01*
X104552257Y-90726011D01*
X104848816Y-90785000D01*
X105151184Y-90785000D01*
X105447743Y-90726011D01*
X105727095Y-90610299D01*
X105978505Y-90442312D01*
X106192312Y-90228505D01*
X106250000Y-90142169D01*
X106307688Y-90228505D01*
X106521495Y-90442312D01*
X106772905Y-90610299D01*
X107052257Y-90726011D01*
X107348816Y-90785000D01*
X107651184Y-90785000D01*
X107947743Y-90726011D01*
X108227095Y-90610299D01*
X108478505Y-90442312D01*
X108692312Y-90228505D01*
X108860299Y-89977095D01*
X108976011Y-89697743D01*
X109035000Y-89401184D01*
X109035000Y-89098816D01*
X108976011Y-88802257D01*
X108860299Y-88522905D01*
X108692312Y-88271495D01*
X108478505Y-88057688D01*
X108227095Y-87889701D01*
X107947743Y-87773989D01*
X107651184Y-87715000D01*
X107348816Y-87715000D01*
X107052257Y-87773989D01*
X106772905Y-87889701D01*
X106521495Y-88057688D01*
X106307688Y-88271495D01*
X106250000Y-88357831D01*
X106192312Y-88271495D01*
X105978505Y-88057688D01*
X105760000Y-87911687D01*
X105760000Y-81990475D01*
X106765000Y-81990475D01*
X106765000Y-82509525D01*
X106866261Y-83018601D01*
X107064893Y-83498141D01*
X107353262Y-83929715D01*
X107720285Y-84296738D01*
X108151859Y-84585107D01*
X108631399Y-84783739D01*
X109140475Y-84885000D01*
X109659525Y-84885000D01*
X110168601Y-84783739D01*
X110648141Y-84585107D01*
X111079715Y-84296738D01*
X111446738Y-83929715D01*
X111735107Y-83498141D01*
X111933739Y-83018601D01*
X112035000Y-82509525D01*
X112035000Y-81990475D01*
X111933739Y-81481399D01*
X111735107Y-81001859D01*
X111446738Y-80570285D01*
X111079715Y-80203262D01*
X110648141Y-79914893D01*
X110168601Y-79716261D01*
X109659525Y-79615000D01*
X109140475Y-79615000D01*
X108631399Y-79716261D01*
X108151859Y-79914893D01*
X107720285Y-80203262D01*
X107353262Y-80570285D01*
X107064893Y-81001859D01*
X106866261Y-81481399D01*
X106765000Y-81990475D01*
X105760000Y-81990475D01*
X105760000Y-62487825D01*
X105763676Y-62450500D01*
X105760000Y-62413175D01*
X105760000Y-62413167D01*
X105749003Y-62301514D01*
X105705546Y-62158253D01*
X105634974Y-62026224D01*
X105540001Y-61910499D01*
X105511004Y-61886702D01*
X97010000Y-53385699D01*
X97010000Y-50708507D01*
X97052257Y-50726011D01*
X97348816Y-50785000D01*
X97651184Y-50785000D01*
X97947743Y-50726011D01*
X98227095Y-50610299D01*
X98478505Y-50442312D01*
X98692312Y-50228505D01*
X98860299Y-49977095D01*
X98976011Y-49697743D01*
X99035000Y-49401184D01*
X99035000Y-49098816D01*
X98976011Y-48802257D01*
X98860299Y-48522905D01*
X98692312Y-48271495D01*
X98478505Y-48057688D01*
X98227095Y-47889701D01*
X97947743Y-47773989D01*
X97651184Y-47715000D01*
X97348816Y-47715000D01*
X97052257Y-47773989D01*
X97010000Y-47791493D01*
X97010000Y-43365618D01*
X97064893Y-43498141D01*
X97353262Y-43929715D01*
X97720285Y-44296738D01*
X98151859Y-44585107D01*
X98631399Y-44783739D01*
X99140475Y-44885000D01*
X99659525Y-44885000D01*
X100168601Y-44783739D01*
X100648141Y-44585107D01*
X101079715Y-44296738D01*
X101446738Y-43929715D01*
X101735107Y-43498141D01*
X101933739Y-43018601D01*
X102035000Y-42509525D01*
X102035000Y-41990475D01*
X101933739Y-41481399D01*
X101735107Y-41001859D01*
X101446738Y-40570285D01*
X101079715Y-40203262D01*
X100648141Y-39914893D01*
X100168601Y-39716261D01*
X99659525Y-39615000D01*
X99140475Y-39615000D01*
X98631399Y-39716261D01*
X98151859Y-39914893D01*
X97720285Y-40203262D01*
X97353262Y-40570285D01*
X97064893Y-41001859D01*
X97010000Y-41134382D01*
X97010000Y-34887322D01*
X97013676Y-34849999D01*
X97010000Y-34812676D01*
X97010000Y-34812667D01*
X97002580Y-34737323D01*
X107333000Y-34737323D01*
X107333000Y-35262677D01*
X107435492Y-35777935D01*
X107636536Y-36263298D01*
X107928406Y-36700113D01*
X108299887Y-37071594D01*
X108736702Y-37363464D01*
X109222065Y-37564508D01*
X109737323Y-37667000D01*
X110262677Y-37667000D01*
X110777935Y-37564508D01*
X111263298Y-37363464D01*
X111700113Y-37071594D01*
X112071594Y-36700113D01*
X112363464Y-36263298D01*
X112564508Y-35777935D01*
X112667000Y-35262677D01*
X112667000Y-34737323D01*
X112564508Y-34222065D01*
X112363464Y-33736702D01*
X112071594Y-33299887D01*
X111700113Y-32928406D01*
X111263298Y-32636536D01*
X110777935Y-32435492D01*
X110262677Y-32333000D01*
X109737323Y-32333000D01*
X109222065Y-32435492D01*
X108736702Y-32636536D01*
X108299887Y-32928406D01*
X107928406Y-33299887D01*
X107636536Y-33736702D01*
X107435492Y-34222065D01*
X107333000Y-34737323D01*
X97002580Y-34737323D01*
X96999003Y-34701014D01*
X96955546Y-34557753D01*
X96884974Y-34425724D01*
X96790001Y-34309999D01*
X96761004Y-34286202D01*
X93134801Y-30660000D01*
X114340000Y-30660000D01*
X114340001Y-129340000D01*
X45660000Y-129340000D01*
X45660000Y-124737323D01*
X47333000Y-124737323D01*
X47333000Y-125262677D01*
X47435492Y-125777935D01*
X47636536Y-126263298D01*
X47928406Y-126700113D01*
X48299887Y-127071594D01*
X48736702Y-127363464D01*
X49222065Y-127564508D01*
X49737323Y-127667000D01*
X50262677Y-127667000D01*
X50777935Y-127564508D01*
X51263298Y-127363464D01*
X51700113Y-127071594D01*
X52071594Y-126700113D01*
X52363464Y-126263298D01*
X52564508Y-125777935D01*
X52667000Y-125262677D01*
X52667000Y-124737323D01*
X52564508Y-124222065D01*
X52363464Y-123736702D01*
X52071594Y-123299887D01*
X51700113Y-122928406D01*
X51263298Y-122636536D01*
X50777935Y-122435492D01*
X50262677Y-122333000D01*
X49737323Y-122333000D01*
X49222065Y-122435492D01*
X48736702Y-122636536D01*
X48299887Y-122928406D01*
X47928406Y-123299887D01*
X47636536Y-123736702D01*
X47435492Y-124222065D01*
X47333000Y-124737323D01*
X45660000Y-124737323D01*
X45660000Y-118244248D01*
X52565000Y-118244248D01*
X52565000Y-119455751D01*
X52581423Y-119622498D01*
X52646324Y-119836446D01*
X52751716Y-120033623D01*
X52893551Y-120206449D01*
X53066377Y-120348284D01*
X53263553Y-120453676D01*
X53477501Y-120518577D01*
X53700000Y-120540491D01*
X53922498Y-120518577D01*
X54136446Y-120453676D01*
X54333623Y-120348284D01*
X54506449Y-120206449D01*
X54607958Y-120082760D01*
X57740001Y-123214803D01*
X57740001Y-123530192D01*
X57727501Y-123531423D01*
X57513553Y-123596324D01*
X57316377Y-123701716D01*
X57143551Y-123843551D01*
X57001716Y-124016377D01*
X56896324Y-124213553D01*
X56831423Y-124427501D01*
X56809509Y-124650000D01*
X56831423Y-124872499D01*
X56896324Y-125086447D01*
X57001716Y-125283623D01*
X57143551Y-125456449D01*
X57316377Y-125598284D01*
X57513553Y-125703676D01*
X57727501Y-125768577D01*
X57894248Y-125785000D01*
X59105752Y-125785000D01*
X59272499Y-125768577D01*
X59486447Y-125703676D01*
X59683623Y-125598284D01*
X59856449Y-125456449D01*
X59998284Y-125283623D01*
X60103676Y-125086447D01*
X60168577Y-124872499D01*
X60190491Y-124650000D01*
X60168577Y-124427501D01*
X60103676Y-124213553D01*
X59998284Y-124016377D01*
X59856449Y-123843551D01*
X59683623Y-123701716D01*
X59486447Y-123596324D01*
X59272499Y-123531423D01*
X59260000Y-123530192D01*
X59260000Y-122937323D01*
X59263676Y-122900000D01*
X59260000Y-122862677D01*
X59260000Y-122862667D01*
X59249003Y-122751014D01*
X59205546Y-122607753D01*
X59134974Y-122475723D01*
X59063799Y-122388997D01*
X59040001Y-122359999D01*
X59011003Y-122336201D01*
X55013804Y-118339003D01*
X54990001Y-118309999D01*
X54874276Y-118215026D01*
X54829779Y-118191242D01*
X54818577Y-118077501D01*
X54753676Y-117863553D01*
X54648284Y-117666377D01*
X54506449Y-117493551D01*
X54333623Y-117351716D01*
X54136447Y-117246324D01*
X53922499Y-117181423D01*
X53700000Y-117159509D01*
X53477502Y-117181423D01*
X53263554Y-117246324D01*
X53066378Y-117351716D01*
X52893552Y-117493551D01*
X52751717Y-117666377D01*
X52646324Y-117863553D01*
X52581423Y-118077501D01*
X52565000Y-118244248D01*
X45660000Y-118244248D01*
X45660000Y-116851874D01*
X56855881Y-116851874D01*
X56935724Y-117074976D01*
X57057631Y-117262764D01*
X57213831Y-117423161D01*
X57398322Y-117550003D01*
X57604013Y-117638415D01*
X57823000Y-117685000D01*
X58373000Y-117685000D01*
X58373000Y-116677000D01*
X58627000Y-116677000D01*
X58627000Y-117685000D01*
X59177000Y-117685000D01*
X59395987Y-117638415D01*
X59601678Y-117550003D01*
X59786169Y-117423161D01*
X59942369Y-117262764D01*
X60064276Y-117074976D01*
X60144119Y-116851874D01*
X60017954Y-116677000D01*
X58627000Y-116677000D01*
X58373000Y-116677000D01*
X56982046Y-116677000D01*
X56855881Y-116851874D01*
X45660000Y-116851874D01*
X45660000Y-116248126D01*
X56855881Y-116248126D01*
X56982046Y-116423000D01*
X58373000Y-116423000D01*
X58373000Y-116403000D01*
X58627000Y-116403000D01*
X58627000Y-116423000D01*
X60017954Y-116423000D01*
X60144119Y-116248126D01*
X60064276Y-116025024D01*
X59942369Y-115837236D01*
X59786169Y-115676839D01*
X59601678Y-115549997D01*
X59395987Y-115461585D01*
X59177000Y-115415000D01*
X57823000Y-115415000D01*
X57604013Y-115461585D01*
X57398322Y-115549997D01*
X57213831Y-115676839D01*
X57057631Y-115837236D01*
X56935724Y-116025024D01*
X56855881Y-116248126D01*
X45660000Y-116248126D01*
X45660000Y-108650000D01*
X56809509Y-108650000D01*
X56831423Y-108872499D01*
X56896324Y-109086447D01*
X57001716Y-109283623D01*
X57143551Y-109456449D01*
X57316377Y-109598284D01*
X57513553Y-109703676D01*
X57727501Y-109768577D01*
X57894248Y-109785000D01*
X59105752Y-109785000D01*
X59272499Y-109768577D01*
X59486447Y-109703676D01*
X59683623Y-109598284D01*
X59856449Y-109456449D01*
X59998284Y-109283623D01*
X60103676Y-109086447D01*
X60168577Y-108872499D01*
X60190491Y-108650000D01*
X60168577Y-108427501D01*
X60103676Y-108213553D01*
X59998284Y-108016377D01*
X59856449Y-107843551D01*
X59683623Y-107701716D01*
X59486447Y-107596324D01*
X59272499Y-107531423D01*
X59105752Y-107515000D01*
X57894248Y-107515000D01*
X57727501Y-107531423D01*
X57513553Y-107596324D01*
X57316377Y-107701716D01*
X57143551Y-107843551D01*
X57001716Y-108016377D01*
X56896324Y-108213553D01*
X56831423Y-108427501D01*
X56809509Y-108650000D01*
X45660000Y-108650000D01*
X45660000Y-90314080D01*
X51615525Y-90314080D01*
X51699208Y-90568261D01*
X51971775Y-90699158D01*
X52264642Y-90774365D01*
X52566553Y-90790991D01*
X52865907Y-90748397D01*
X53151199Y-90648222D01*
X53300792Y-90568261D01*
X53384475Y-90314080D01*
X52500000Y-89429605D01*
X51615525Y-90314080D01*
X45660000Y-90314080D01*
X45660000Y-89316553D01*
X50959009Y-89316553D01*
X51001603Y-89615907D01*
X51101778Y-89901199D01*
X51181739Y-90050792D01*
X51435920Y-90134475D01*
X52320395Y-89250000D01*
X51435920Y-88365525D01*
X51181739Y-88449208D01*
X51050842Y-88721775D01*
X50975635Y-89014642D01*
X50959009Y-89316553D01*
X45660000Y-89316553D01*
X45660000Y-88185920D01*
X51615525Y-88185920D01*
X52500000Y-89070395D01*
X53384475Y-88185920D01*
X53300792Y-87931739D01*
X53028225Y-87800842D01*
X52735358Y-87725635D01*
X52433447Y-87709009D01*
X52134093Y-87751603D01*
X51848801Y-87851778D01*
X51699208Y-87931739D01*
X51615525Y-88185920D01*
X45660000Y-88185920D01*
X45660000Y-81990475D01*
X47965000Y-81990475D01*
X47965000Y-82509525D01*
X48066261Y-83018601D01*
X48264893Y-83498141D01*
X48553262Y-83929715D01*
X48920285Y-84296738D01*
X49351859Y-84585107D01*
X49831399Y-84783739D01*
X50340475Y-84885000D01*
X50859525Y-84885000D01*
X51368601Y-84783739D01*
X51848141Y-84585107D01*
X52279715Y-84296738D01*
X52646738Y-83929715D01*
X52935107Y-83498141D01*
X53133739Y-83018601D01*
X53235000Y-82509525D01*
X53235000Y-81990475D01*
X53133739Y-81481399D01*
X52935107Y-81001859D01*
X52646738Y-80570285D01*
X52279715Y-80203262D01*
X51848141Y-79914893D01*
X51368601Y-79716261D01*
X50859525Y-79615000D01*
X50340475Y-79615000D01*
X49831399Y-79716261D01*
X49351859Y-79914893D01*
X48920285Y-80203262D01*
X48553262Y-80570285D01*
X48264893Y-81001859D01*
X48066261Y-81481399D01*
X47965000Y-81990475D01*
X45660000Y-81990475D01*
X45660000Y-41990475D01*
X57965000Y-41990475D01*
X57965000Y-42509525D01*
X58066261Y-43018601D01*
X58264893Y-43498141D01*
X58553262Y-43929715D01*
X58920285Y-44296738D01*
X59351859Y-44585107D01*
X59831399Y-44783739D01*
X60340475Y-44885000D01*
X60859525Y-44885000D01*
X61368601Y-44783739D01*
X61848141Y-44585107D01*
X62279715Y-44296738D01*
X62646738Y-43929715D01*
X62935107Y-43498141D01*
X63133739Y-43018601D01*
X63235000Y-42509525D01*
X63235000Y-41990475D01*
X63133739Y-41481399D01*
X62935107Y-41001859D01*
X62646738Y-40570285D01*
X62279715Y-40203262D01*
X61848141Y-39914893D01*
X61368601Y-39716261D01*
X60859525Y-39615000D01*
X60340475Y-39615000D01*
X59831399Y-39716261D01*
X59351859Y-39914893D01*
X58920285Y-40203262D01*
X58553262Y-40570285D01*
X58264893Y-41001859D01*
X58066261Y-41481399D01*
X57965000Y-41990475D01*
X45660000Y-41990475D01*
X45660000Y-34737323D01*
X47333000Y-34737323D01*
X47333000Y-35262677D01*
X47435492Y-35777935D01*
X47636536Y-36263298D01*
X47928406Y-36700113D01*
X48299887Y-37071594D01*
X48736702Y-37363464D01*
X49222065Y-37564508D01*
X49737323Y-37667000D01*
X50262677Y-37667000D01*
X50777935Y-37564508D01*
X51263298Y-37363464D01*
X51700113Y-37071594D01*
X52071594Y-36700113D01*
X52363464Y-36263298D01*
X52564508Y-35777935D01*
X52667000Y-35262677D01*
X52667000Y-34737323D01*
X52564508Y-34222065D01*
X52363464Y-33736702D01*
X52071594Y-33299887D01*
X51700113Y-32928406D01*
X51263298Y-32636536D01*
X50777935Y-32435492D01*
X50262677Y-32333000D01*
X49737323Y-32333000D01*
X49222065Y-32435492D01*
X48736702Y-32636536D01*
X48299887Y-32928406D01*
X47928406Y-33299887D01*
X47636536Y-33736702D01*
X47435492Y-34222065D01*
X47333000Y-34737323D01*
X45660000Y-34737323D01*
X45660000Y-30660000D01*
X71716498Y-30660000D01*
X71074741Y-31301758D01*
G36*
X95490000Y-35164802D02*
G01*
X95490001Y-47791493D01*
X95447743Y-47773989D01*
X95151184Y-47715000D01*
X94848816Y-47715000D01*
X94552257Y-47773989D01*
X94272905Y-47889701D01*
X94021495Y-48057688D01*
X93807688Y-48271495D01*
X93750000Y-48357831D01*
X93738000Y-48339872D01*
X93738000Y-38743625D01*
X93741676Y-38706300D01*
X93738000Y-38668975D01*
X93738000Y-38668967D01*
X93727003Y-38557314D01*
X93683546Y-38414053D01*
X93612974Y-38282024D01*
X93518001Y-38166299D01*
X93489004Y-38142502D01*
X91319935Y-35973434D01*
X91375134Y-35928134D01*
X91560706Y-35702014D01*
X91698599Y-35444034D01*
X91783513Y-35164111D01*
X91812185Y-34873000D01*
X91783513Y-34581889D01*
X91698599Y-34301966D01*
X91560706Y-34043986D01*
X91375134Y-33817866D01*
X91149014Y-33632294D01*
X91091244Y-33601416D01*
X91320269Y-33430588D01*
X91515178Y-33214355D01*
X91664157Y-32964252D01*
X91761481Y-32689891D01*
X91640814Y-32460000D01*
X90447000Y-32460000D01*
X90447000Y-32480000D01*
X90193000Y-32480000D01*
X90193000Y-32460000D01*
X90173000Y-32460000D01*
X90173000Y-32206000D01*
X90193000Y-32206000D01*
X90193000Y-32186000D01*
X90447000Y-32186000D01*
X90447000Y-32206000D01*
X91640814Y-32206000D01*
X91761481Y-31976109D01*
X91664157Y-31701748D01*
X91520155Y-31460000D01*
X91785199Y-31460000D01*
X95490000Y-35164802D01*
X95490000Y-35164802D01*
G37*
X95490000Y-35164802D02*
X95490001Y-47791493D01*
X95447743Y-47773989D01*
X95151184Y-47715000D01*
X94848816Y-47715000D01*
X94552257Y-47773989D01*
X94272905Y-47889701D01*
X94021495Y-48057688D01*
X93807688Y-48271495D01*
X93750000Y-48357831D01*
X93738000Y-48339872D01*
X93738000Y-38743625D01*
X93741676Y-38706300D01*
X93738000Y-38668975D01*
X93738000Y-38668967D01*
X93727003Y-38557314D01*
X93683546Y-38414053D01*
X93612974Y-38282024D01*
X93518001Y-38166299D01*
X93489004Y-38142502D01*
X91319935Y-35973434D01*
X91375134Y-35928134D01*
X91560706Y-35702014D01*
X91698599Y-35444034D01*
X91783513Y-35164111D01*
X91812185Y-34873000D01*
X91783513Y-34581889D01*
X91698599Y-34301966D01*
X91560706Y-34043986D01*
X91375134Y-33817866D01*
X91149014Y-33632294D01*
X91091244Y-33601416D01*
X91320269Y-33430588D01*
X91515178Y-33214355D01*
X91664157Y-32964252D01*
X91761481Y-32689891D01*
X91640814Y-32460000D01*
X90447000Y-32460000D01*
X90447000Y-32480000D01*
X90193000Y-32480000D01*
X90193000Y-32460000D01*
X90173000Y-32460000D01*
X90173000Y-32206000D01*
X90193000Y-32206000D01*
X90193000Y-32186000D01*
X90447000Y-32186000D01*
X90447000Y-32206000D01*
X91640814Y-32206000D01*
X91761481Y-31976109D01*
X91664157Y-31701748D01*
X91520155Y-31460000D01*
X91785199Y-31460000D01*
X95490000Y-35164802D01*
M02*
