G04 #@! TF.GenerationSoftware,KiCad,Pcbnew,(5.1.0)-1*
G04 #@! TF.CreationDate,2019-05-25T13:26:40-04:00*
G04 #@! TF.ProjectId,VCO_2_RevB_Interface,56434f5f-325f-4526-9576-425f496e7465,rev?*
G04 #@! TF.SameCoordinates,Original*
G04 #@! TF.FileFunction,Legend,Bot*
G04 #@! TF.FilePolarity,Positive*
%FSLAX46Y46*%
G04 Gerber Fmt 4.6, Leading zero omitted, Abs format (unit mm)*
G04 Created by KiCad (PCBNEW (5.1.0)-1) date 2019-05-25 13:26:40*
%MOMM*%
%LPD*%
G04 APERTURE LIST*
%ADD10C,0.150000*%
%ADD11C,0.120000*%
%ADD12C,0.010000*%
G04 APERTURE END LIST*
D10*
X85652380Y-38327380D02*
X85652380Y-39041666D01*
X85700000Y-39184523D01*
X85795238Y-39279761D01*
X85938095Y-39327380D01*
X86033333Y-39327380D01*
X85033333Y-39327380D02*
X85128571Y-39279761D01*
X85176190Y-39232142D01*
X85223809Y-39136904D01*
X85223809Y-38851190D01*
X85176190Y-38755952D01*
X85128571Y-38708333D01*
X85033333Y-38660714D01*
X84890476Y-38660714D01*
X84795238Y-38708333D01*
X84747619Y-38755952D01*
X84700000Y-38851190D01*
X84700000Y-39136904D01*
X84747619Y-39232142D01*
X84795238Y-39279761D01*
X84890476Y-39327380D01*
X85033333Y-39327380D01*
X84271428Y-38660714D02*
X84271428Y-39327380D01*
X84271428Y-38755952D02*
X84223809Y-38708333D01*
X84128571Y-38660714D01*
X83985714Y-38660714D01*
X83890476Y-38708333D01*
X83842857Y-38803571D01*
X83842857Y-39327380D01*
X82938095Y-39327380D02*
X82938095Y-38803571D01*
X82985714Y-38708333D01*
X83080952Y-38660714D01*
X83271428Y-38660714D01*
X83366666Y-38708333D01*
X82938095Y-39279761D02*
X83033333Y-39327380D01*
X83271428Y-39327380D01*
X83366666Y-39279761D01*
X83414285Y-39184523D01*
X83414285Y-39089285D01*
X83366666Y-38994047D01*
X83271428Y-38946428D01*
X83033333Y-38946428D01*
X82938095Y-38898809D01*
X82604761Y-38660714D02*
X82223809Y-38660714D01*
X82461904Y-38327380D02*
X82461904Y-39184523D01*
X82414285Y-39279761D01*
X82319047Y-39327380D01*
X82223809Y-39327380D01*
X81890476Y-39327380D02*
X81890476Y-38327380D01*
X81461904Y-39327380D02*
X81461904Y-38803571D01*
X81509523Y-38708333D01*
X81604761Y-38660714D01*
X81747619Y-38660714D01*
X81842857Y-38708333D01*
X81890476Y-38755952D01*
X80557142Y-39327380D02*
X80557142Y-38803571D01*
X80604761Y-38708333D01*
X80700000Y-38660714D01*
X80890476Y-38660714D01*
X80985714Y-38708333D01*
X80557142Y-39279761D02*
X80652380Y-39327380D01*
X80890476Y-39327380D01*
X80985714Y-39279761D01*
X81033333Y-39184523D01*
X81033333Y-39089285D01*
X80985714Y-38994047D01*
X80890476Y-38946428D01*
X80652380Y-38946428D01*
X80557142Y-38898809D01*
X80080952Y-38660714D02*
X80080952Y-39327380D01*
X80080952Y-38755952D02*
X80033333Y-38708333D01*
X79938095Y-38660714D01*
X79795238Y-38660714D01*
X79700000Y-38708333D01*
X79652380Y-38803571D01*
X79652380Y-39327380D01*
X78414285Y-39327380D02*
X78414285Y-38327380D01*
X77842857Y-39327380D02*
X78271428Y-38755952D01*
X77842857Y-38327380D02*
X78414285Y-38898809D01*
X76985714Y-39327380D02*
X76985714Y-38803571D01*
X77033333Y-38708333D01*
X77128571Y-38660714D01*
X77319047Y-38660714D01*
X77414285Y-38708333D01*
X76985714Y-39279761D02*
X77080952Y-39327380D01*
X77319047Y-39327380D01*
X77414285Y-39279761D01*
X77461904Y-39184523D01*
X77461904Y-39089285D01*
X77414285Y-38994047D01*
X77319047Y-38946428D01*
X77080952Y-38946428D01*
X76985714Y-38898809D01*
X76604761Y-38660714D02*
X76366666Y-39327380D01*
X76128571Y-38660714D02*
X76366666Y-39327380D01*
X76461904Y-39565476D01*
X76509523Y-39613095D01*
X76604761Y-39660714D01*
X75747619Y-38660714D02*
X75747619Y-39327380D01*
X75747619Y-38755952D02*
X75700000Y-38708333D01*
X75604761Y-38660714D01*
X75461904Y-38660714D01*
X75366666Y-38708333D01*
X75319047Y-38803571D01*
X75319047Y-39327380D01*
X74461904Y-39279761D02*
X74557142Y-39327380D01*
X74747619Y-39327380D01*
X74842857Y-39279761D01*
X74890476Y-39184523D01*
X74890476Y-38803571D01*
X74842857Y-38708333D01*
X74747619Y-38660714D01*
X74557142Y-38660714D01*
X74461904Y-38708333D01*
X74414285Y-38803571D01*
X74414285Y-38898809D01*
X74890476Y-38994047D01*
X86771428Y-39977380D02*
X86438095Y-40977380D01*
X86104761Y-39977380D01*
X85771428Y-40977380D02*
X85771428Y-40310714D01*
X85771428Y-39977380D02*
X85819047Y-40025000D01*
X85771428Y-40072619D01*
X85723809Y-40025000D01*
X85771428Y-39977380D01*
X85771428Y-40072619D01*
X85295238Y-40977380D02*
X85295238Y-40310714D01*
X85295238Y-40501190D02*
X85247619Y-40405952D01*
X85200000Y-40358333D01*
X85104761Y-40310714D01*
X85009523Y-40310714D01*
X84247619Y-40310714D02*
X84247619Y-41120238D01*
X84295238Y-41215476D01*
X84342857Y-41263095D01*
X84438095Y-41310714D01*
X84580952Y-41310714D01*
X84676190Y-41263095D01*
X84247619Y-40929761D02*
X84342857Y-40977380D01*
X84533333Y-40977380D01*
X84628571Y-40929761D01*
X84676190Y-40882142D01*
X84723809Y-40786904D01*
X84723809Y-40501190D01*
X84676190Y-40405952D01*
X84628571Y-40358333D01*
X84533333Y-40310714D01*
X84342857Y-40310714D01*
X84247619Y-40358333D01*
X83771428Y-40977380D02*
X83771428Y-40310714D01*
X83771428Y-39977380D02*
X83819047Y-40025000D01*
X83771428Y-40072619D01*
X83723809Y-40025000D01*
X83771428Y-39977380D01*
X83771428Y-40072619D01*
X83295238Y-40310714D02*
X83295238Y-40977380D01*
X83295238Y-40405952D02*
X83247619Y-40358333D01*
X83152380Y-40310714D01*
X83009523Y-40310714D01*
X82914285Y-40358333D01*
X82866666Y-40453571D01*
X82866666Y-40977380D01*
X82390476Y-40977380D02*
X82390476Y-40310714D01*
X82390476Y-39977380D02*
X82438095Y-40025000D01*
X82390476Y-40072619D01*
X82342857Y-40025000D01*
X82390476Y-39977380D01*
X82390476Y-40072619D01*
X81485714Y-40977380D02*
X81485714Y-40453571D01*
X81533333Y-40358333D01*
X81628571Y-40310714D01*
X81819047Y-40310714D01*
X81914285Y-40358333D01*
X81485714Y-40929761D02*
X81580952Y-40977380D01*
X81819047Y-40977380D01*
X81914285Y-40929761D01*
X81961904Y-40834523D01*
X81961904Y-40739285D01*
X81914285Y-40644047D01*
X81819047Y-40596428D01*
X81580952Y-40596428D01*
X81485714Y-40548809D01*
X80390476Y-39977380D02*
X79819047Y-39977380D01*
X80104761Y-40977380D02*
X80104761Y-39977380D01*
X79104761Y-40929761D02*
X79200000Y-40977380D01*
X79390476Y-40977380D01*
X79485714Y-40929761D01*
X79533333Y-40834523D01*
X79533333Y-40453571D01*
X79485714Y-40358333D01*
X79390476Y-40310714D01*
X79200000Y-40310714D01*
X79104761Y-40358333D01*
X79057142Y-40453571D01*
X79057142Y-40548809D01*
X79533333Y-40644047D01*
X78200000Y-40929761D02*
X78295238Y-40977380D01*
X78485714Y-40977380D01*
X78580952Y-40929761D01*
X78628571Y-40882142D01*
X78676190Y-40786904D01*
X78676190Y-40501190D01*
X78628571Y-40405952D01*
X78580952Y-40358333D01*
X78485714Y-40310714D01*
X78295238Y-40310714D01*
X78200000Y-40358333D01*
X77771428Y-40977380D02*
X77771428Y-39977380D01*
X77342857Y-40977380D02*
X77342857Y-40453571D01*
X77390476Y-40358333D01*
X77485714Y-40310714D01*
X77628571Y-40310714D01*
X77723809Y-40358333D01*
X77771428Y-40405952D01*
X76104761Y-40453571D02*
X75771428Y-40453571D01*
X75628571Y-40977380D02*
X76104761Y-40977380D01*
X76104761Y-39977380D01*
X75628571Y-39977380D01*
X74628571Y-40882142D02*
X74676190Y-40929761D01*
X74819047Y-40977380D01*
X74914285Y-40977380D01*
X75057142Y-40929761D01*
X75152380Y-40834523D01*
X75200000Y-40739285D01*
X75247619Y-40548809D01*
X75247619Y-40405952D01*
X75200000Y-40215476D01*
X75152380Y-40120238D01*
X75057142Y-40025000D01*
X74914285Y-39977380D01*
X74819047Y-39977380D01*
X74676190Y-40025000D01*
X74628571Y-40072619D01*
X74200000Y-40453571D02*
X73866666Y-40453571D01*
X73723809Y-40977380D02*
X74200000Y-40977380D01*
X74200000Y-39977380D01*
X73723809Y-39977380D01*
X110566666Y-40702380D02*
X110566666Y-41416666D01*
X110614285Y-41559523D01*
X110709523Y-41654761D01*
X110852380Y-41702380D01*
X110947619Y-41702380D01*
X110185714Y-40702380D02*
X109519047Y-40702380D01*
X110185714Y-41702380D01*
X109519047Y-41702380D01*
X109138095Y-41702380D02*
X109138095Y-40702380D01*
X108566666Y-41702380D02*
X108995238Y-41130952D01*
X108566666Y-40702380D02*
X109138095Y-41273809D01*
X107519047Y-40702380D02*
X107185714Y-41702380D01*
X106852380Y-40702380D01*
X105947619Y-41607142D02*
X105995238Y-41654761D01*
X106138095Y-41702380D01*
X106233333Y-41702380D01*
X106376190Y-41654761D01*
X106471428Y-41559523D01*
X106519047Y-41464285D01*
X106566666Y-41273809D01*
X106566666Y-41130952D01*
X106519047Y-40940476D01*
X106471428Y-40845238D01*
X106376190Y-40750000D01*
X106233333Y-40702380D01*
X106138095Y-40702380D01*
X105995238Y-40750000D01*
X105947619Y-40797619D01*
X105328571Y-40702380D02*
X105138095Y-40702380D01*
X105042857Y-40750000D01*
X104947619Y-40845238D01*
X104900000Y-41035714D01*
X104900000Y-41369047D01*
X104947619Y-41559523D01*
X105042857Y-41654761D01*
X105138095Y-41702380D01*
X105328571Y-41702380D01*
X105423809Y-41654761D01*
X105519047Y-41559523D01*
X105566666Y-41369047D01*
X105566666Y-41035714D01*
X105519047Y-40845238D01*
X105423809Y-40750000D01*
X105328571Y-40702380D01*
X109280952Y-43352380D02*
X109614285Y-42876190D01*
X109852380Y-43352380D02*
X109852380Y-42352380D01*
X109471428Y-42352380D01*
X109376190Y-42400000D01*
X109328571Y-42447619D01*
X109280952Y-42542857D01*
X109280952Y-42685714D01*
X109328571Y-42780952D01*
X109376190Y-42828571D01*
X109471428Y-42876190D01*
X109852380Y-42876190D01*
X108471428Y-43304761D02*
X108566666Y-43352380D01*
X108757142Y-43352380D01*
X108852380Y-43304761D01*
X108900000Y-43209523D01*
X108900000Y-42828571D01*
X108852380Y-42733333D01*
X108757142Y-42685714D01*
X108566666Y-42685714D01*
X108471428Y-42733333D01*
X108423809Y-42828571D01*
X108423809Y-42923809D01*
X108900000Y-43019047D01*
X108090476Y-42685714D02*
X107852380Y-43352380D01*
X107614285Y-42685714D01*
X106138095Y-42828571D02*
X105995238Y-42876190D01*
X105947619Y-42923809D01*
X105900000Y-43019047D01*
X105900000Y-43161904D01*
X105947619Y-43257142D01*
X105995238Y-43304761D01*
X106090476Y-43352380D01*
X106471428Y-43352380D01*
X106471428Y-42352380D01*
X106138095Y-42352380D01*
X106042857Y-42400000D01*
X105995238Y-42447619D01*
X105947619Y-42542857D01*
X105947619Y-42638095D01*
X105995238Y-42733333D01*
X106042857Y-42780952D01*
X106138095Y-42828571D01*
X106471428Y-42828571D01*
X110971428Y-45002380D02*
X110971428Y-44002380D01*
X110495238Y-44335714D02*
X110495238Y-45002380D01*
X110495238Y-44430952D02*
X110447619Y-44383333D01*
X110352380Y-44335714D01*
X110209523Y-44335714D01*
X110114285Y-44383333D01*
X110066666Y-44478571D01*
X110066666Y-45002380D01*
X109733333Y-44335714D02*
X109352380Y-44335714D01*
X109590476Y-44002380D02*
X109590476Y-44859523D01*
X109542857Y-44954761D01*
X109447619Y-45002380D01*
X109352380Y-45002380D01*
X108638095Y-44954761D02*
X108733333Y-45002380D01*
X108923809Y-45002380D01*
X109019047Y-44954761D01*
X109066666Y-44859523D01*
X109066666Y-44478571D01*
X109019047Y-44383333D01*
X108923809Y-44335714D01*
X108733333Y-44335714D01*
X108638095Y-44383333D01*
X108590476Y-44478571D01*
X108590476Y-44573809D01*
X109066666Y-44669047D01*
X108161904Y-45002380D02*
X108161904Y-44335714D01*
X108161904Y-44526190D02*
X108114285Y-44430952D01*
X108066666Y-44383333D01*
X107971428Y-44335714D01*
X107876190Y-44335714D01*
X107685714Y-44335714D02*
X107304761Y-44335714D01*
X107542857Y-45002380D02*
X107542857Y-44145238D01*
X107495238Y-44050000D01*
X107400000Y-44002380D01*
X107304761Y-44002380D01*
X106542857Y-45002380D02*
X106542857Y-44478571D01*
X106590476Y-44383333D01*
X106685714Y-44335714D01*
X106876190Y-44335714D01*
X106971428Y-44383333D01*
X106542857Y-44954761D02*
X106638095Y-45002380D01*
X106876190Y-45002380D01*
X106971428Y-44954761D01*
X107019047Y-44859523D01*
X107019047Y-44764285D01*
X106971428Y-44669047D01*
X106876190Y-44621428D01*
X106638095Y-44621428D01*
X106542857Y-44573809D01*
X105638095Y-44954761D02*
X105733333Y-45002380D01*
X105923809Y-45002380D01*
X106019047Y-44954761D01*
X106066666Y-44907142D01*
X106114285Y-44811904D01*
X106114285Y-44526190D01*
X106066666Y-44430952D01*
X106019047Y-44383333D01*
X105923809Y-44335714D01*
X105733333Y-44335714D01*
X105638095Y-44383333D01*
X104828571Y-44954761D02*
X104923809Y-45002380D01*
X105114285Y-45002380D01*
X105209523Y-44954761D01*
X105257142Y-44859523D01*
X105257142Y-44478571D01*
X105209523Y-44383333D01*
X105114285Y-44335714D01*
X104923809Y-44335714D01*
X104828571Y-44383333D01*
X104780952Y-44478571D01*
X104780952Y-44573809D01*
X105257142Y-44669047D01*
X103871428Y-98352380D02*
X104442857Y-98352380D01*
X104157142Y-98352380D02*
X104157142Y-97352380D01*
X104252380Y-97495238D01*
X104347619Y-97590476D01*
X104442857Y-97638095D01*
X103585714Y-97352380D02*
X103252380Y-98352380D01*
X102919047Y-97352380D01*
X101871428Y-97304761D02*
X102728571Y-98590476D01*
X101347619Y-97352380D02*
X101157142Y-97352380D01*
X101061904Y-97400000D01*
X100966666Y-97495238D01*
X100919047Y-97685714D01*
X100919047Y-98019047D01*
X100966666Y-98209523D01*
X101061904Y-98304761D01*
X101157142Y-98352380D01*
X101347619Y-98352380D01*
X101442857Y-98304761D01*
X101538095Y-98209523D01*
X101585714Y-98019047D01*
X101585714Y-97685714D01*
X101538095Y-97495238D01*
X101442857Y-97400000D01*
X101347619Y-97352380D01*
X99919047Y-98257142D02*
X99966666Y-98304761D01*
X100109523Y-98352380D01*
X100204761Y-98352380D01*
X100347619Y-98304761D01*
X100442857Y-98209523D01*
X100490476Y-98114285D01*
X100538095Y-97923809D01*
X100538095Y-97780952D01*
X100490476Y-97590476D01*
X100442857Y-97495238D01*
X100347619Y-97400000D01*
X100204761Y-97352380D01*
X100109523Y-97352380D01*
X99966666Y-97400000D01*
X99919047Y-97447619D01*
X99633333Y-97352380D02*
X99061904Y-97352380D01*
X99347619Y-98352380D02*
X99347619Y-97352380D01*
X59719047Y-114752380D02*
X59719047Y-113752380D01*
X59338095Y-113752380D01*
X59242857Y-113800000D01*
X59195238Y-113847619D01*
X59147619Y-113942857D01*
X59147619Y-114085714D01*
X59195238Y-114180952D01*
X59242857Y-114228571D01*
X59338095Y-114276190D01*
X59719047Y-114276190D01*
X58719047Y-113752380D02*
X58719047Y-114561904D01*
X58671428Y-114657142D01*
X58623809Y-114704761D01*
X58528571Y-114752380D01*
X58338095Y-114752380D01*
X58242857Y-114704761D01*
X58195238Y-114657142D01*
X58147619Y-114561904D01*
X58147619Y-113752380D01*
X57195238Y-114752380D02*
X57671428Y-114752380D01*
X57671428Y-113752380D01*
X56909523Y-114704761D02*
X56766666Y-114752380D01*
X56528571Y-114752380D01*
X56433333Y-114704761D01*
X56385714Y-114657142D01*
X56338095Y-114561904D01*
X56338095Y-114466666D01*
X56385714Y-114371428D01*
X56433333Y-114323809D01*
X56528571Y-114276190D01*
X56719047Y-114228571D01*
X56814285Y-114180952D01*
X56861904Y-114133333D01*
X56909523Y-114038095D01*
X56909523Y-113942857D01*
X56861904Y-113847619D01*
X56814285Y-113800000D01*
X56719047Y-113752380D01*
X56480952Y-113752380D01*
X56338095Y-113800000D01*
X55909523Y-114228571D02*
X55576190Y-114228571D01*
X55433333Y-114752380D02*
X55909523Y-114752380D01*
X55909523Y-113752380D01*
X55433333Y-113752380D01*
X76133333Y-113752380D02*
X75561904Y-113752380D01*
X75847619Y-114752380D02*
X75847619Y-113752380D01*
X74657142Y-114752380D02*
X74990476Y-114276190D01*
X75228571Y-114752380D02*
X75228571Y-113752380D01*
X74847619Y-113752380D01*
X74752380Y-113800000D01*
X74704761Y-113847619D01*
X74657142Y-113942857D01*
X74657142Y-114085714D01*
X74704761Y-114180952D01*
X74752380Y-114228571D01*
X74847619Y-114276190D01*
X75228571Y-114276190D01*
X74228571Y-114752380D02*
X74228571Y-113752380D01*
X73800000Y-114466666D02*
X73323809Y-114466666D01*
X73895238Y-114752380D02*
X73561904Y-113752380D01*
X73228571Y-114752380D01*
X72895238Y-114752380D02*
X72895238Y-113752380D01*
X72323809Y-114752380D01*
X72323809Y-113752380D01*
X71323809Y-113800000D02*
X71419047Y-113752380D01*
X71561904Y-113752380D01*
X71704761Y-113800000D01*
X71800000Y-113895238D01*
X71847619Y-113990476D01*
X71895238Y-114180952D01*
X71895238Y-114323809D01*
X71847619Y-114514285D01*
X71800000Y-114609523D01*
X71704761Y-114704761D01*
X71561904Y-114752380D01*
X71466666Y-114752380D01*
X71323809Y-114704761D01*
X71276190Y-114657142D01*
X71276190Y-114323809D01*
X71466666Y-114323809D01*
X70371428Y-114752380D02*
X70847619Y-114752380D01*
X70847619Y-113752380D01*
X70038095Y-114228571D02*
X69704761Y-114228571D01*
X69561904Y-114752380D02*
X70038095Y-114752380D01*
X70038095Y-113752380D01*
X69561904Y-113752380D01*
X89100000Y-114604761D02*
X88957142Y-114652380D01*
X88719047Y-114652380D01*
X88623809Y-114604761D01*
X88576190Y-114557142D01*
X88528571Y-114461904D01*
X88528571Y-114366666D01*
X88576190Y-114271428D01*
X88623809Y-114223809D01*
X88719047Y-114176190D01*
X88909523Y-114128571D01*
X89004761Y-114080952D01*
X89052380Y-114033333D01*
X89100000Y-113938095D01*
X89100000Y-113842857D01*
X89052380Y-113747619D01*
X89004761Y-113700000D01*
X88909523Y-113652380D01*
X88671428Y-113652380D01*
X88528571Y-113700000D01*
X88100000Y-114652380D02*
X88100000Y-113652380D01*
X87623809Y-114652380D02*
X87623809Y-113652380D01*
X87052380Y-114652380D01*
X87052380Y-113652380D01*
X86576190Y-114128571D02*
X86242857Y-114128571D01*
X86100000Y-114652380D02*
X86576190Y-114652380D01*
X86576190Y-113652380D01*
X86100000Y-113652380D01*
X106019047Y-114604761D02*
X105876190Y-114652380D01*
X105638095Y-114652380D01*
X105542857Y-114604761D01*
X105495238Y-114557142D01*
X105447619Y-114461904D01*
X105447619Y-114366666D01*
X105495238Y-114271428D01*
X105542857Y-114223809D01*
X105638095Y-114176190D01*
X105828571Y-114128571D01*
X105923809Y-114080952D01*
X105971428Y-114033333D01*
X106019047Y-113938095D01*
X106019047Y-113842857D01*
X105971428Y-113747619D01*
X105923809Y-113700000D01*
X105828571Y-113652380D01*
X105590476Y-113652380D01*
X105447619Y-113700000D01*
X105066666Y-114366666D02*
X104590476Y-114366666D01*
X105161904Y-114652380D02*
X104828571Y-113652380D01*
X104495238Y-114652380D01*
X104257142Y-113652380D02*
X104019047Y-114652380D01*
X103828571Y-113938095D01*
X103638095Y-114652380D01*
X103400000Y-113652380D01*
X103161904Y-113652380D02*
X102590476Y-113652380D01*
X102876190Y-114652380D02*
X102876190Y-113652380D01*
X102066666Y-113652380D02*
X101876190Y-113652380D01*
X101780952Y-113700000D01*
X101685714Y-113795238D01*
X101638095Y-113985714D01*
X101638095Y-114319047D01*
X101685714Y-114509523D01*
X101780952Y-114604761D01*
X101876190Y-114652380D01*
X102066666Y-114652380D01*
X102161904Y-114604761D01*
X102257142Y-114509523D01*
X102304761Y-114319047D01*
X102304761Y-113985714D01*
X102257142Y-113795238D01*
X102161904Y-113700000D01*
X102066666Y-113652380D01*
X101019047Y-113652380D02*
X100828571Y-113652380D01*
X100733333Y-113700000D01*
X100638095Y-113795238D01*
X100590476Y-113985714D01*
X100590476Y-114319047D01*
X100638095Y-114509523D01*
X100733333Y-114604761D01*
X100828571Y-114652380D01*
X101019047Y-114652380D01*
X101114285Y-114604761D01*
X101209523Y-114509523D01*
X101257142Y-114319047D01*
X101257142Y-113985714D01*
X101209523Y-113795238D01*
X101114285Y-113700000D01*
X101019047Y-113652380D01*
X100304761Y-113652380D02*
X99733333Y-113652380D01*
X100019047Y-114652380D02*
X100019047Y-113652380D01*
X99400000Y-114652380D02*
X99400000Y-113652380D01*
X99400000Y-114128571D02*
X98828571Y-114128571D01*
X98828571Y-114652380D02*
X98828571Y-113652380D01*
X88971428Y-98252380D02*
X89542857Y-98252380D01*
X89257142Y-98252380D02*
X89257142Y-97252380D01*
X89352380Y-97395238D01*
X89447619Y-97490476D01*
X89542857Y-97538095D01*
X88685714Y-97252380D02*
X88352380Y-98252380D01*
X88019047Y-97252380D01*
X86971428Y-97204761D02*
X87828571Y-98490476D01*
X86447619Y-97252380D02*
X86257142Y-97252380D01*
X86161904Y-97300000D01*
X86066666Y-97395238D01*
X86019047Y-97585714D01*
X86019047Y-97919047D01*
X86066666Y-98109523D01*
X86161904Y-98204761D01*
X86257142Y-98252380D01*
X86447619Y-98252380D01*
X86542857Y-98204761D01*
X86638095Y-98109523D01*
X86685714Y-97919047D01*
X86685714Y-97585714D01*
X86638095Y-97395238D01*
X86542857Y-97300000D01*
X86447619Y-97252380D01*
X85019047Y-98157142D02*
X85066666Y-98204761D01*
X85209523Y-98252380D01*
X85304761Y-98252380D01*
X85447619Y-98204761D01*
X85542857Y-98109523D01*
X85590476Y-98014285D01*
X85638095Y-97823809D01*
X85638095Y-97680952D01*
X85590476Y-97490476D01*
X85542857Y-97395238D01*
X85447619Y-97300000D01*
X85304761Y-97252380D01*
X85209523Y-97252380D01*
X85066666Y-97300000D01*
X85019047Y-97347619D01*
X84733333Y-97252380D02*
X84161904Y-97252380D01*
X84447619Y-98252380D02*
X84447619Y-97252380D01*
X76566666Y-97728571D02*
X76233333Y-97728571D01*
X76090476Y-98252380D02*
X76566666Y-98252380D01*
X76566666Y-97252380D01*
X76090476Y-97252380D01*
X75757142Y-97252380D02*
X75090476Y-98252380D01*
X75090476Y-97252380D02*
X75757142Y-98252380D01*
X74709523Y-98252380D02*
X74709523Y-97252380D01*
X74328571Y-97252380D01*
X74233333Y-97300000D01*
X74185714Y-97347619D01*
X74138095Y-97442857D01*
X74138095Y-97585714D01*
X74185714Y-97680952D01*
X74233333Y-97728571D01*
X74328571Y-97776190D01*
X74709523Y-97776190D01*
X73519047Y-97252380D02*
X73328571Y-97252380D01*
X73233333Y-97300000D01*
X73138095Y-97395238D01*
X73090476Y-97585714D01*
X73090476Y-97919047D01*
X73138095Y-98109523D01*
X73233333Y-98204761D01*
X73328571Y-98252380D01*
X73519047Y-98252380D01*
X73614285Y-98204761D01*
X73709523Y-98109523D01*
X73757142Y-97919047D01*
X73757142Y-97585714D01*
X73709523Y-97395238D01*
X73614285Y-97300000D01*
X73519047Y-97252380D01*
X72661904Y-98252380D02*
X72661904Y-97252380D01*
X72090476Y-98252380D01*
X72090476Y-97252380D01*
X71614285Y-97728571D02*
X71280952Y-97728571D01*
X71138095Y-98252380D02*
X71614285Y-98252380D01*
X71614285Y-97252380D01*
X71138095Y-97252380D01*
X70709523Y-98252380D02*
X70709523Y-97252380D01*
X70138095Y-98252380D01*
X70138095Y-97252380D01*
X69804761Y-97252380D02*
X69233333Y-97252380D01*
X69519047Y-98252380D02*
X69519047Y-97252380D01*
X68900000Y-98252380D02*
X68900000Y-97252380D01*
X68471428Y-97966666D02*
X67995238Y-97966666D01*
X68566666Y-98252380D02*
X68233333Y-97252380D01*
X67900000Y-98252380D01*
X67090476Y-98252380D02*
X67566666Y-98252380D01*
X67566666Y-97252380D01*
X58833333Y-98252380D02*
X59309523Y-98252380D01*
X59309523Y-97252380D01*
X58500000Y-98252380D02*
X58500000Y-97252380D01*
X58023809Y-98252380D02*
X58023809Y-97252380D01*
X57452380Y-98252380D01*
X57452380Y-97252380D01*
X56976190Y-97728571D02*
X56642857Y-97728571D01*
X56500000Y-98252380D02*
X56976190Y-98252380D01*
X56976190Y-97252380D01*
X56500000Y-97252380D01*
X56119047Y-97966666D02*
X55642857Y-97966666D01*
X56214285Y-98252380D02*
X55880952Y-97252380D01*
X55547619Y-98252380D01*
X54642857Y-98252380D02*
X54976190Y-97776190D01*
X55214285Y-98252380D02*
X55214285Y-97252380D01*
X54833333Y-97252380D01*
X54738095Y-97300000D01*
X54690476Y-97347619D01*
X54642857Y-97442857D01*
X54642857Y-97585714D01*
X54690476Y-97680952D01*
X54738095Y-97728571D01*
X54833333Y-97776190D01*
X55214285Y-97776190D01*
X74438095Y-82204761D02*
X74295238Y-82252380D01*
X74057142Y-82252380D01*
X73961904Y-82204761D01*
X73914285Y-82157142D01*
X73866666Y-82061904D01*
X73866666Y-81966666D01*
X73914285Y-81871428D01*
X73961904Y-81823809D01*
X74057142Y-81776190D01*
X74247619Y-81728571D01*
X74342857Y-81680952D01*
X74390476Y-81633333D01*
X74438095Y-81538095D01*
X74438095Y-81442857D01*
X74390476Y-81347619D01*
X74342857Y-81300000D01*
X74247619Y-81252380D01*
X74009523Y-81252380D01*
X73866666Y-81300000D01*
X73247619Y-81776190D02*
X73247619Y-82252380D01*
X73580952Y-81252380D02*
X73247619Y-81776190D01*
X72914285Y-81252380D01*
X72580952Y-82252380D02*
X72580952Y-81252380D01*
X72009523Y-82252380D01*
X72009523Y-81252380D01*
X70961904Y-82157142D02*
X71009523Y-82204761D01*
X71152380Y-82252380D01*
X71247619Y-82252380D01*
X71390476Y-82204761D01*
X71485714Y-82109523D01*
X71533333Y-82014285D01*
X71580952Y-81823809D01*
X71580952Y-81680952D01*
X71533333Y-81490476D01*
X71485714Y-81395238D01*
X71390476Y-81300000D01*
X71247619Y-81252380D01*
X71152380Y-81252380D01*
X71009523Y-81300000D01*
X70961904Y-81347619D01*
X90114285Y-82252380D02*
X90114285Y-81252380D01*
X89733333Y-81252380D01*
X89638095Y-81300000D01*
X89590476Y-81347619D01*
X89542857Y-81442857D01*
X89542857Y-81585714D01*
X89590476Y-81680952D01*
X89638095Y-81728571D01*
X89733333Y-81776190D01*
X90114285Y-81776190D01*
X89209523Y-81252380D02*
X88971428Y-82252380D01*
X88780952Y-81538095D01*
X88590476Y-82252380D01*
X88352380Y-81252380D01*
X87971428Y-82252380D02*
X87971428Y-81252380D01*
X87638095Y-81966666D01*
X87304761Y-81252380D01*
X87304761Y-82252380D01*
X85495238Y-82157142D02*
X85542857Y-82204761D01*
X85685714Y-82252380D01*
X85780952Y-82252380D01*
X85923809Y-82204761D01*
X86019047Y-82109523D01*
X86066666Y-82014285D01*
X86114285Y-81823809D01*
X86114285Y-81680952D01*
X86066666Y-81490476D01*
X86019047Y-81395238D01*
X85923809Y-81300000D01*
X85780952Y-81252380D01*
X85685714Y-81252380D01*
X85542857Y-81300000D01*
X85495238Y-81347619D01*
X85209523Y-81252380D02*
X84876190Y-82252380D01*
X84542857Y-81252380D01*
X109490476Y-75352380D02*
X109490476Y-74352380D01*
X109109523Y-74352380D01*
X109014285Y-74400000D01*
X108966666Y-74447619D01*
X108919047Y-74542857D01*
X108919047Y-74685714D01*
X108966666Y-74780952D01*
X109014285Y-74828571D01*
X109109523Y-74876190D01*
X109490476Y-74876190D01*
X108061904Y-74685714D02*
X108061904Y-75352380D01*
X108490476Y-74685714D02*
X108490476Y-75209523D01*
X108442857Y-75304761D01*
X108347619Y-75352380D01*
X108204761Y-75352380D01*
X108109523Y-75304761D01*
X108061904Y-75257142D01*
X107442857Y-75352380D02*
X107538095Y-75304761D01*
X107585714Y-75209523D01*
X107585714Y-74352380D01*
X107109523Y-75304761D02*
X107014285Y-75352380D01*
X106823809Y-75352380D01*
X106728571Y-75304761D01*
X106680952Y-75209523D01*
X106680952Y-75161904D01*
X106728571Y-75066666D01*
X106823809Y-75019047D01*
X106966666Y-75019047D01*
X107061904Y-74971428D01*
X107109523Y-74876190D01*
X107109523Y-74828571D01*
X107061904Y-74733333D01*
X106966666Y-74685714D01*
X106823809Y-74685714D01*
X106728571Y-74733333D01*
X105871428Y-75304761D02*
X105966666Y-75352380D01*
X106157142Y-75352380D01*
X106252380Y-75304761D01*
X106300000Y-75209523D01*
X106300000Y-74828571D01*
X106252380Y-74733333D01*
X106157142Y-74685714D01*
X105966666Y-74685714D01*
X105871428Y-74733333D01*
X105823809Y-74828571D01*
X105823809Y-74923809D01*
X106300000Y-75019047D01*
X104728571Y-74352380D02*
X104490476Y-75352380D01*
X104300000Y-74638095D01*
X104109523Y-75352380D01*
X103871428Y-74352380D01*
X103490476Y-75352380D02*
X103490476Y-74685714D01*
X103490476Y-74352380D02*
X103538095Y-74400000D01*
X103490476Y-74447619D01*
X103442857Y-74400000D01*
X103490476Y-74352380D01*
X103490476Y-74447619D01*
X102585714Y-75352380D02*
X102585714Y-74352380D01*
X102585714Y-75304761D02*
X102680952Y-75352380D01*
X102871428Y-75352380D01*
X102966666Y-75304761D01*
X103014285Y-75257142D01*
X103061904Y-75161904D01*
X103061904Y-74876190D01*
X103014285Y-74780952D01*
X102966666Y-74733333D01*
X102871428Y-74685714D01*
X102680952Y-74685714D01*
X102585714Y-74733333D01*
X102252380Y-74685714D02*
X101871428Y-74685714D01*
X102109523Y-74352380D02*
X102109523Y-75209523D01*
X102061904Y-75304761D01*
X101966666Y-75352380D01*
X101871428Y-75352380D01*
X101538095Y-75352380D02*
X101538095Y-74352380D01*
X101109523Y-75352380D02*
X101109523Y-74828571D01*
X101157142Y-74733333D01*
X101252380Y-74685714D01*
X101395238Y-74685714D01*
X101490476Y-74733333D01*
X101538095Y-74780952D01*
X56704761Y-75652380D02*
X56704761Y-74652380D01*
X56323809Y-74652380D01*
X56228571Y-74700000D01*
X56180952Y-74747619D01*
X56133333Y-74842857D01*
X56133333Y-74985714D01*
X56180952Y-75080952D01*
X56228571Y-75128571D01*
X56323809Y-75176190D01*
X56704761Y-75176190D01*
X55800000Y-74652380D02*
X55561904Y-75652380D01*
X55371428Y-74938095D01*
X55180952Y-75652380D01*
X54942857Y-74652380D01*
X54561904Y-75652380D02*
X54561904Y-74652380D01*
X54228571Y-75366666D01*
X53895238Y-74652380D01*
X53895238Y-75652380D01*
X68676190Y-54928571D02*
X68342857Y-54928571D01*
X68200000Y-55452380D02*
X68676190Y-55452380D01*
X68676190Y-54452380D01*
X68200000Y-54452380D01*
X67866666Y-54452380D02*
X67200000Y-55452380D01*
X67200000Y-54452380D02*
X67866666Y-55452380D01*
X66819047Y-55452380D02*
X66819047Y-54452380D01*
X66438095Y-54452380D01*
X66342857Y-54500000D01*
X66295238Y-54547619D01*
X66247619Y-54642857D01*
X66247619Y-54785714D01*
X66295238Y-54880952D01*
X66342857Y-54928571D01*
X66438095Y-54976190D01*
X66819047Y-54976190D01*
X64580952Y-55452380D02*
X65057142Y-55452380D01*
X65057142Y-54452380D01*
X63866666Y-55404761D02*
X63961904Y-55452380D01*
X64152380Y-55452380D01*
X64247619Y-55404761D01*
X64295238Y-55309523D01*
X64295238Y-54928571D01*
X64247619Y-54833333D01*
X64152380Y-54785714D01*
X63961904Y-54785714D01*
X63866666Y-54833333D01*
X63819047Y-54928571D01*
X63819047Y-55023809D01*
X64295238Y-55119047D01*
X63485714Y-54785714D02*
X63247619Y-55452380D01*
X63009523Y-54785714D01*
X62247619Y-55404761D02*
X62342857Y-55452380D01*
X62533333Y-55452380D01*
X62628571Y-55404761D01*
X62676190Y-55309523D01*
X62676190Y-54928571D01*
X62628571Y-54833333D01*
X62533333Y-54785714D01*
X62342857Y-54785714D01*
X62247619Y-54833333D01*
X62199999Y-54928571D01*
X62199999Y-55023809D01*
X62676190Y-55119047D01*
X61628571Y-55452380D02*
X61723809Y-55404761D01*
X61771428Y-55309523D01*
X61771428Y-54452380D01*
X97514285Y-54828571D02*
X97847619Y-54828571D01*
X97847619Y-55352380D02*
X97847619Y-54352380D01*
X97371428Y-54352380D01*
X96990476Y-55352380D02*
X96990476Y-54352380D01*
X96657142Y-55066666D01*
X96323809Y-54352380D01*
X96323809Y-55352380D01*
X94609523Y-55352380D02*
X95085714Y-55352380D01*
X95085714Y-54352380D01*
X93895238Y-55304761D02*
X93990476Y-55352380D01*
X94180952Y-55352380D01*
X94276190Y-55304761D01*
X94323809Y-55209523D01*
X94323809Y-54828571D01*
X94276190Y-54733333D01*
X94180952Y-54685714D01*
X93990476Y-54685714D01*
X93895238Y-54733333D01*
X93847619Y-54828571D01*
X93847619Y-54923809D01*
X94323809Y-55019047D01*
X93514285Y-54685714D02*
X93276190Y-55352380D01*
X93038095Y-54685714D01*
X92276190Y-55304761D02*
X92371428Y-55352380D01*
X92561904Y-55352380D01*
X92657142Y-55304761D01*
X92704761Y-55209523D01*
X92704761Y-54828571D01*
X92657142Y-54733333D01*
X92561904Y-54685714D01*
X92371428Y-54685714D01*
X92276190Y-54733333D01*
X92228571Y-54828571D01*
X92228571Y-54923809D01*
X92704761Y-55019047D01*
X91657142Y-55352380D02*
X91752380Y-55304761D01*
X91800000Y-55209523D01*
X91800000Y-54352380D01*
X108847619Y-47657142D02*
X108895238Y-47704761D01*
X109038095Y-47752380D01*
X109133333Y-47752380D01*
X109276190Y-47704761D01*
X109371428Y-47609523D01*
X109419047Y-47514285D01*
X109466666Y-47323809D01*
X109466666Y-47180952D01*
X109419047Y-46990476D01*
X109371428Y-46895238D01*
X109276190Y-46800000D01*
X109133333Y-46752380D01*
X109038095Y-46752380D01*
X108895238Y-46800000D01*
X108847619Y-46847619D01*
X108561904Y-46752380D02*
X108228571Y-47752380D01*
X107895238Y-46752380D01*
X106228571Y-47657142D02*
X106276190Y-47704761D01*
X106419047Y-47752380D01*
X106514285Y-47752380D01*
X106657142Y-47704761D01*
X106752380Y-47609523D01*
X106800000Y-47514285D01*
X106847619Y-47323809D01*
X106847619Y-47180952D01*
X106800000Y-46990476D01*
X106752380Y-46895238D01*
X106657142Y-46800000D01*
X106514285Y-46752380D01*
X106419047Y-46752380D01*
X106276190Y-46800000D01*
X106228571Y-46847619D01*
X105657142Y-47752380D02*
X105752380Y-47704761D01*
X105800000Y-47657142D01*
X105847619Y-47561904D01*
X105847619Y-47276190D01*
X105800000Y-47180952D01*
X105752380Y-47133333D01*
X105657142Y-47085714D01*
X105514285Y-47085714D01*
X105419047Y-47133333D01*
X105371428Y-47180952D01*
X105323809Y-47276190D01*
X105323809Y-47561904D01*
X105371428Y-47657142D01*
X105419047Y-47704761D01*
X105514285Y-47752380D01*
X105657142Y-47752380D01*
X104466666Y-47085714D02*
X104466666Y-47752380D01*
X104895238Y-47085714D02*
X104895238Y-47609523D01*
X104847619Y-47704761D01*
X104752380Y-47752380D01*
X104609523Y-47752380D01*
X104514285Y-47704761D01*
X104466666Y-47657142D01*
X103990476Y-47752380D02*
X103990476Y-47085714D01*
X103990476Y-47276190D02*
X103942857Y-47180952D01*
X103895238Y-47133333D01*
X103800000Y-47085714D01*
X103704761Y-47085714D01*
X103419047Y-47704761D02*
X103323809Y-47752380D01*
X103133333Y-47752380D01*
X103038095Y-47704761D01*
X102990476Y-47609523D01*
X102990476Y-47561904D01*
X103038095Y-47466666D01*
X103133333Y-47419047D01*
X103276190Y-47419047D01*
X103371428Y-47371428D01*
X103419047Y-47276190D01*
X103419047Y-47228571D01*
X103371428Y-47133333D01*
X103276190Y-47085714D01*
X103133333Y-47085714D01*
X103038095Y-47133333D01*
X102180952Y-47704761D02*
X102276190Y-47752380D01*
X102466666Y-47752380D01*
X102561904Y-47704761D01*
X102609523Y-47609523D01*
X102609523Y-47228571D01*
X102561904Y-47133333D01*
X102466666Y-47085714D01*
X102276190Y-47085714D01*
X102180952Y-47133333D01*
X102133333Y-47228571D01*
X102133333Y-47323809D01*
X102609523Y-47419047D01*
X57247619Y-40957142D02*
X57295238Y-41004761D01*
X57438095Y-41052380D01*
X57533333Y-41052380D01*
X57676190Y-41004761D01*
X57771428Y-40909523D01*
X57819047Y-40814285D01*
X57866666Y-40623809D01*
X57866666Y-40480952D01*
X57819047Y-40290476D01*
X57771428Y-40195238D01*
X57676190Y-40100000D01*
X57533333Y-40052380D01*
X57438095Y-40052380D01*
X57295238Y-40100000D01*
X57247619Y-40147619D01*
X56961904Y-40052380D02*
X56628571Y-41052380D01*
X56295238Y-40052380D01*
X54866666Y-40528571D02*
X55200000Y-40528571D01*
X55200000Y-41052380D02*
X55200000Y-40052380D01*
X54723809Y-40052380D01*
X54342857Y-41052380D02*
X54342857Y-40385714D01*
X54342857Y-40052380D02*
X54390476Y-40100000D01*
X54342857Y-40147619D01*
X54295238Y-40100000D01*
X54342857Y-40052380D01*
X54342857Y-40147619D01*
X53866666Y-40385714D02*
X53866666Y-41052380D01*
X53866666Y-40480952D02*
X53819047Y-40433333D01*
X53723809Y-40385714D01*
X53580952Y-40385714D01*
X53485714Y-40433333D01*
X53438095Y-40528571D01*
X53438095Y-41052380D01*
X52580952Y-41004761D02*
X52676190Y-41052380D01*
X52866666Y-41052380D01*
X52961904Y-41004761D01*
X53009523Y-40909523D01*
X53009523Y-40528571D01*
X52961904Y-40433333D01*
X52866666Y-40385714D01*
X52676190Y-40385714D01*
X52580952Y-40433333D01*
X52533333Y-40528571D01*
X52533333Y-40623809D01*
X53009523Y-40719047D01*
X67500000Y-99350000D02*
X67500000Y-109850000D01*
X76500000Y-99350000D02*
X67500000Y-99350000D01*
X76500000Y-109850000D02*
X76500000Y-99350000D01*
X67500000Y-109850000D02*
X76500000Y-109850000D01*
X52500000Y-99350000D02*
X52500000Y-109850000D01*
X61500000Y-99350000D02*
X52500000Y-99350000D01*
X61500000Y-109850000D02*
X61500000Y-99350000D01*
X52500000Y-109850000D02*
X61500000Y-109850000D01*
X52500000Y-115350000D02*
X52500000Y-125850000D01*
X61500000Y-115350000D02*
X52500000Y-115350000D01*
X61500000Y-125850000D02*
X61500000Y-115350000D01*
X52500000Y-125850000D02*
X61500000Y-125850000D01*
X97500000Y-115350000D02*
X97500000Y-125850000D01*
X106500000Y-115350000D02*
X97500000Y-115350000D01*
X106500000Y-125850000D02*
X106500000Y-115350000D01*
X97500000Y-125850000D02*
X106500000Y-125850000D01*
X82500000Y-115350000D02*
X82500000Y-125850000D01*
X91500000Y-115350000D02*
X82500000Y-115350000D01*
X91500000Y-125850000D02*
X91500000Y-115350000D01*
X82500000Y-125850000D02*
X91500000Y-125850000D01*
X67500000Y-115350000D02*
X67500000Y-125850000D01*
X76500000Y-115350000D02*
X67500000Y-115350000D01*
X76500000Y-125850000D02*
X76500000Y-115350000D01*
X67500000Y-125850000D02*
X76500000Y-125850000D01*
X67500000Y-83350000D02*
X67500000Y-93850000D01*
X76500000Y-83350000D02*
X67500000Y-83350000D01*
X76500000Y-93850000D02*
X76500000Y-83350000D01*
X67500000Y-93850000D02*
X76500000Y-93850000D01*
X82500000Y-83350000D02*
X82500000Y-93850000D01*
X91500000Y-83350000D02*
X82500000Y-83350000D01*
X91500000Y-93850000D02*
X91500000Y-83350000D01*
X82500000Y-93850000D02*
X91500000Y-93850000D01*
X82500000Y-99350000D02*
X82500000Y-109850000D01*
X91500000Y-99350000D02*
X82500000Y-99350000D01*
X91500000Y-109850000D02*
X91500000Y-99350000D01*
X82500000Y-109850000D02*
X91500000Y-109850000D01*
X97500000Y-99350000D02*
X97500000Y-109850000D01*
X106500000Y-99350000D02*
X97500000Y-99350000D01*
X106500000Y-109850000D02*
X106500000Y-99350000D01*
X97500000Y-109850000D02*
X106500000Y-109850000D01*
D11*
X99970000Y-48370000D02*
X99970000Y-44505000D01*
X99970000Y-39995000D02*
X99970000Y-36130000D01*
X90030000Y-48370000D02*
X90030000Y-44505000D01*
X90030000Y-39995000D02*
X90030000Y-36130000D01*
X99970000Y-48370000D02*
X98371000Y-48370000D01*
X96629000Y-48370000D02*
X95870000Y-48370000D01*
X94129000Y-48370000D02*
X93370000Y-48370000D01*
X91630000Y-48370000D02*
X90030000Y-48370000D01*
X99970000Y-36130000D02*
X90030000Y-36130000D01*
X69970000Y-48370000D02*
X69970000Y-44505000D01*
X69970000Y-39995000D02*
X69970000Y-36130000D01*
X60030000Y-48370000D02*
X60030000Y-44505000D01*
X60030000Y-39995000D02*
X60030000Y-36130000D01*
X69970000Y-48370000D02*
X68371000Y-48370000D01*
X66629000Y-48370000D02*
X65870000Y-48370000D01*
X64129000Y-48370000D02*
X63370000Y-48370000D01*
X61630000Y-48370000D02*
X60030000Y-48370000D01*
X69970000Y-36130000D02*
X60030000Y-36130000D01*
X109970000Y-88370000D02*
X109970000Y-84505000D01*
X109970000Y-79995000D02*
X109970000Y-76130000D01*
X100030000Y-88370000D02*
X100030000Y-84505000D01*
X100030000Y-79995000D02*
X100030000Y-76130000D01*
X109970000Y-88370000D02*
X108371000Y-88370000D01*
X106629000Y-88370000D02*
X105870000Y-88370000D01*
X104129000Y-88370000D02*
X103370000Y-88370000D01*
X101630000Y-88370000D02*
X100030000Y-88370000D01*
X109970000Y-76130000D02*
X100030000Y-76130000D01*
X59970000Y-88370000D02*
X59970000Y-84505000D01*
X59970000Y-79995000D02*
X59970000Y-76130000D01*
X50030000Y-88370000D02*
X50030000Y-84505000D01*
X50030000Y-79995000D02*
X50030000Y-76130000D01*
X59970000Y-88370000D02*
X58371000Y-88370000D01*
X56629000Y-88370000D02*
X55870000Y-88370000D01*
X54129000Y-88370000D02*
X53370000Y-88370000D01*
X51630000Y-88370000D02*
X50030000Y-88370000D01*
X59970000Y-76130000D02*
X50030000Y-76130000D01*
X69970000Y-68370000D02*
X69970000Y-64505000D01*
X69970000Y-59995000D02*
X69970000Y-56130000D01*
X60030000Y-68370000D02*
X60030000Y-64505000D01*
X60030000Y-59995000D02*
X60030000Y-56130000D01*
X69970000Y-68370000D02*
X68371000Y-68370000D01*
X66629000Y-68370000D02*
X65870000Y-68370000D01*
X64129000Y-68370000D02*
X63370000Y-68370000D01*
X61630000Y-68370000D02*
X60030000Y-68370000D01*
X69970000Y-56130000D02*
X60030000Y-56130000D01*
X99970000Y-68370000D02*
X99970000Y-64505000D01*
X99970000Y-59995000D02*
X99970000Y-56130000D01*
X90030000Y-68370000D02*
X90030000Y-64505000D01*
X90030000Y-59995000D02*
X90030000Y-56130000D01*
X99970000Y-68370000D02*
X98371000Y-68370000D01*
X96629000Y-68370000D02*
X95870000Y-68370000D01*
X94129000Y-68370000D02*
X93370000Y-68370000D01*
X91630000Y-68370000D02*
X90030000Y-68370000D01*
X99970000Y-56130000D02*
X90030000Y-56130000D01*
D12*
G36*
X85372924Y-68613308D02*
G01*
X85261978Y-68673180D01*
X85138494Y-68766634D01*
X85008945Y-68888487D01*
X84879805Y-69033558D01*
X84822561Y-69106341D01*
X84754528Y-69199654D01*
X84688610Y-69295755D01*
X84630316Y-69385843D01*
X84585151Y-69461114D01*
X84558621Y-69512767D01*
X84556235Y-69531999D01*
X84556260Y-69532000D01*
X84576544Y-69514408D01*
X84625172Y-69465849D01*
X84695991Y-69392650D01*
X84782851Y-69301135D01*
X84838678Y-69241598D01*
X84960593Y-69116543D01*
X85081802Y-69002180D01*
X85196090Y-68903493D01*
X85297242Y-68825465D01*
X85379044Y-68773079D01*
X85435280Y-68751321D01*
X85448953Y-68752217D01*
X85472935Y-68780535D01*
X85497862Y-68839209D01*
X85502995Y-68856104D01*
X85530017Y-68926907D01*
X85557664Y-68946935D01*
X85586774Y-68916216D01*
X85610240Y-68859391D01*
X85629851Y-68750990D01*
X85610129Y-68666562D01*
X85554143Y-68611751D01*
X85464964Y-68592200D01*
X85464858Y-68592200D01*
X85372924Y-68613308D01*
X85372924Y-68613308D01*
G37*
X85372924Y-68613308D02*
X85261978Y-68673180D01*
X85138494Y-68766634D01*
X85008945Y-68888487D01*
X84879805Y-69033558D01*
X84822561Y-69106341D01*
X84754528Y-69199654D01*
X84688610Y-69295755D01*
X84630316Y-69385843D01*
X84585151Y-69461114D01*
X84558621Y-69512767D01*
X84556235Y-69531999D01*
X84556260Y-69532000D01*
X84576544Y-69514408D01*
X84625172Y-69465849D01*
X84695991Y-69392650D01*
X84782851Y-69301135D01*
X84838678Y-69241598D01*
X84960593Y-69116543D01*
X85081802Y-69002180D01*
X85196090Y-68903493D01*
X85297242Y-68825465D01*
X85379044Y-68773079D01*
X85435280Y-68751321D01*
X85448953Y-68752217D01*
X85472935Y-68780535D01*
X85497862Y-68839209D01*
X85502995Y-68856104D01*
X85530017Y-68926907D01*
X85557664Y-68946935D01*
X85586774Y-68916216D01*
X85610240Y-68859391D01*
X85629851Y-68750990D01*
X85610129Y-68666562D01*
X85554143Y-68611751D01*
X85464964Y-68592200D01*
X85464858Y-68592200D01*
X85372924Y-68613308D01*
G36*
X81511292Y-67047713D02*
G01*
X81400342Y-67076644D01*
X81274565Y-67118210D01*
X81141533Y-67169726D01*
X81008815Y-67228508D01*
X80883980Y-67291872D01*
X80774599Y-67357136D01*
X80701700Y-67410225D01*
X80655335Y-67452348D01*
X80650795Y-67467771D01*
X80686849Y-67456755D01*
X80762269Y-67419562D01*
X80828700Y-67383223D01*
X80934747Y-67328505D01*
X81061475Y-67270383D01*
X81197399Y-67213330D01*
X81331032Y-67161820D01*
X81450889Y-67120325D01*
X81545484Y-67093320D01*
X81593877Y-67085215D01*
X81651356Y-67077789D01*
X81679044Y-67065325D01*
X81679487Y-67063561D01*
X81658434Y-67038487D01*
X81599846Y-67034099D01*
X81511292Y-67047713D01*
X81511292Y-67047713D01*
G37*
X81511292Y-67047713D02*
X81400342Y-67076644D01*
X81274565Y-67118210D01*
X81141533Y-67169726D01*
X81008815Y-67228508D01*
X80883980Y-67291872D01*
X80774599Y-67357136D01*
X80701700Y-67410225D01*
X80655335Y-67452348D01*
X80650795Y-67467771D01*
X80686849Y-67456755D01*
X80762269Y-67419562D01*
X80828700Y-67383223D01*
X80934747Y-67328505D01*
X81061475Y-67270383D01*
X81197399Y-67213330D01*
X81331032Y-67161820D01*
X81450889Y-67120325D01*
X81545484Y-67093320D01*
X81593877Y-67085215D01*
X81651356Y-67077789D01*
X81679044Y-67065325D01*
X81679487Y-67063561D01*
X81658434Y-67038487D01*
X81599846Y-67034099D01*
X81511292Y-67047713D01*
G36*
X77168663Y-68338762D02*
G01*
X77026219Y-68343274D01*
X76898066Y-68350470D01*
X76802800Y-68359355D01*
X76763359Y-68365984D01*
X76766783Y-68371251D01*
X76814711Y-68375239D01*
X76908779Y-68378033D01*
X77050624Y-68379718D01*
X77208006Y-68380338D01*
X77409973Y-68379735D01*
X77561532Y-68377200D01*
X77663040Y-68372716D01*
X77714852Y-68366268D01*
X77717325Y-68357840D01*
X77716006Y-68357306D01*
X77664639Y-68348036D01*
X77573385Y-68341570D01*
X77453081Y-68337885D01*
X77314562Y-68336957D01*
X77168663Y-68338762D01*
X77168663Y-68338762D01*
G37*
X77168663Y-68338762D02*
X77026219Y-68343274D01*
X76898066Y-68350470D01*
X76802800Y-68359355D01*
X76763359Y-68365984D01*
X76766783Y-68371251D01*
X76814711Y-68375239D01*
X76908779Y-68378033D01*
X77050624Y-68379718D01*
X77208006Y-68380338D01*
X77409973Y-68379735D01*
X77561532Y-68377200D01*
X77663040Y-68372716D01*
X77714852Y-68366268D01*
X77717325Y-68357840D01*
X77716006Y-68357306D01*
X77664639Y-68348036D01*
X77573385Y-68341570D01*
X77453081Y-68337885D01*
X77314562Y-68336957D01*
X77168663Y-68338762D01*
G36*
X79865902Y-68566109D02*
G01*
X79749200Y-68601036D01*
X79584100Y-68656239D01*
X79590435Y-68954419D01*
X79591390Y-69070578D01*
X79589289Y-69165444D01*
X79584553Y-69229137D01*
X79577735Y-69251792D01*
X79544821Y-69237322D01*
X79507900Y-69212559D01*
X79448767Y-69188804D01*
X79364135Y-69190880D01*
X79248911Y-69219693D01*
X79098000Y-69276148D01*
X79060008Y-69292151D01*
X78863215Y-69376383D01*
X78820126Y-69244641D01*
X78756465Y-69074782D01*
X78689898Y-68951042D01*
X78616225Y-68868754D01*
X78531247Y-68823255D01*
X78430764Y-68809878D01*
X78428800Y-68809902D01*
X78325387Y-68821773D01*
X78246884Y-68849797D01*
X78197568Y-68887648D01*
X78181716Y-68929002D01*
X78203604Y-68967531D01*
X78267508Y-68996909D01*
X78297979Y-69003422D01*
X78373162Y-69020700D01*
X78428787Y-69041327D01*
X78439534Y-69048099D01*
X78484232Y-69103254D01*
X78535536Y-69194806D01*
X78587417Y-69309950D01*
X78633848Y-69435880D01*
X78655175Y-69506172D01*
X78696380Y-69691586D01*
X78706776Y-69848490D01*
X78685913Y-69989099D01*
X78633342Y-70125634D01*
X78632293Y-70127746D01*
X78592794Y-70208877D01*
X78574368Y-70257936D01*
X78575320Y-70288262D01*
X78593954Y-70313194D01*
X78607133Y-70325719D01*
X78643491Y-70354401D01*
X78677822Y-70357988D01*
X78731513Y-70337166D01*
X78746340Y-70330189D01*
X78824302Y-70280579D01*
X78895845Y-70215851D01*
X78901892Y-70208899D01*
X78934395Y-70167055D01*
X78952927Y-70127846D01*
X78959961Y-70077022D01*
X78957974Y-70000335D01*
X78952204Y-69919255D01*
X78944008Y-69818529D01*
X78936484Y-69736322D01*
X78930939Y-69686616D01*
X78929858Y-69680141D01*
X78950014Y-69663051D01*
X79007774Y-69638827D01*
X79091064Y-69610954D01*
X79187810Y-69582918D01*
X79285938Y-69558203D01*
X79373375Y-69540295D01*
X79438046Y-69532679D01*
X79440877Y-69532626D01*
X79479950Y-69537233D01*
X79491939Y-69561955D01*
X79484275Y-69620374D01*
X79473509Y-69688131D01*
X79460088Y-69787109D01*
X79446601Y-69898002D01*
X79444245Y-69918824D01*
X79430337Y-70024893D01*
X79409193Y-70163709D01*
X79383550Y-70318205D01*
X79356145Y-70471317D01*
X79352702Y-70489667D01*
X79326334Y-70631502D01*
X79309259Y-70732532D01*
X79300946Y-70801796D01*
X79300868Y-70848331D01*
X79308494Y-70881175D01*
X79323297Y-70909365D01*
X79327733Y-70916251D01*
X79374199Y-70964117D01*
X79440085Y-71005464D01*
X79512879Y-71036114D01*
X79580068Y-71051889D01*
X79629142Y-71048613D01*
X79647600Y-71023054D01*
X79629482Y-70984937D01*
X79583246Y-70931155D01*
X79548758Y-70899152D01*
X79449915Y-70814546D01*
X79500727Y-70535223D01*
X79538625Y-70245484D01*
X79554746Y-69911932D01*
X79555119Y-69881337D01*
X79557428Y-69749934D01*
X79561388Y-69638666D01*
X79566527Y-69556392D01*
X79572369Y-69511971D01*
X79575173Y-69506687D01*
X79585435Y-69529869D01*
X79597304Y-69591133D01*
X79608421Y-69677915D01*
X79609721Y-69690750D01*
X79633257Y-69851479D01*
X79671224Y-69968184D01*
X79729063Y-70046838D01*
X79812209Y-70093414D01*
X79926104Y-70113886D01*
X79997084Y-70116200D01*
X80112363Y-70107596D01*
X80190058Y-70083280D01*
X80225993Y-70045495D01*
X80217009Y-69998110D01*
X80173103Y-69959645D01*
X80115409Y-69935759D01*
X80033672Y-69916714D01*
X79972064Y-69902606D01*
X79926489Y-69878567D01*
X79890837Y-69826518D01*
X79864171Y-69742041D01*
X79845553Y-69620720D01*
X79834046Y-69458136D01*
X79828710Y-69249873D01*
X79828479Y-69226291D01*
X79825089Y-68831682D01*
X79939545Y-68719352D01*
X79999421Y-68655708D01*
X80040849Y-68602343D01*
X80054000Y-68574211D01*
X80031930Y-68548954D01*
X79968060Y-68546356D01*
X79865902Y-68566109D01*
X79865902Y-68566109D01*
G37*
X79865902Y-68566109D02*
X79749200Y-68601036D01*
X79584100Y-68656239D01*
X79590435Y-68954419D01*
X79591390Y-69070578D01*
X79589289Y-69165444D01*
X79584553Y-69229137D01*
X79577735Y-69251792D01*
X79544821Y-69237322D01*
X79507900Y-69212559D01*
X79448767Y-69188804D01*
X79364135Y-69190880D01*
X79248911Y-69219693D01*
X79098000Y-69276148D01*
X79060008Y-69292151D01*
X78863215Y-69376383D01*
X78820126Y-69244641D01*
X78756465Y-69074782D01*
X78689898Y-68951042D01*
X78616225Y-68868754D01*
X78531247Y-68823255D01*
X78430764Y-68809878D01*
X78428800Y-68809902D01*
X78325387Y-68821773D01*
X78246884Y-68849797D01*
X78197568Y-68887648D01*
X78181716Y-68929002D01*
X78203604Y-68967531D01*
X78267508Y-68996909D01*
X78297979Y-69003422D01*
X78373162Y-69020700D01*
X78428787Y-69041327D01*
X78439534Y-69048099D01*
X78484232Y-69103254D01*
X78535536Y-69194806D01*
X78587417Y-69309950D01*
X78633848Y-69435880D01*
X78655175Y-69506172D01*
X78696380Y-69691586D01*
X78706776Y-69848490D01*
X78685913Y-69989099D01*
X78633342Y-70125634D01*
X78632293Y-70127746D01*
X78592794Y-70208877D01*
X78574368Y-70257936D01*
X78575320Y-70288262D01*
X78593954Y-70313194D01*
X78607133Y-70325719D01*
X78643491Y-70354401D01*
X78677822Y-70357988D01*
X78731513Y-70337166D01*
X78746340Y-70330189D01*
X78824302Y-70280579D01*
X78895845Y-70215851D01*
X78901892Y-70208899D01*
X78934395Y-70167055D01*
X78952927Y-70127846D01*
X78959961Y-70077022D01*
X78957974Y-70000335D01*
X78952204Y-69919255D01*
X78944008Y-69818529D01*
X78936484Y-69736322D01*
X78930939Y-69686616D01*
X78929858Y-69680141D01*
X78950014Y-69663051D01*
X79007774Y-69638827D01*
X79091064Y-69610954D01*
X79187810Y-69582918D01*
X79285938Y-69558203D01*
X79373375Y-69540295D01*
X79438046Y-69532679D01*
X79440877Y-69532626D01*
X79479950Y-69537233D01*
X79491939Y-69561955D01*
X79484275Y-69620374D01*
X79473509Y-69688131D01*
X79460088Y-69787109D01*
X79446601Y-69898002D01*
X79444245Y-69918824D01*
X79430337Y-70024893D01*
X79409193Y-70163709D01*
X79383550Y-70318205D01*
X79356145Y-70471317D01*
X79352702Y-70489667D01*
X79326334Y-70631502D01*
X79309259Y-70732532D01*
X79300946Y-70801796D01*
X79300868Y-70848331D01*
X79308494Y-70881175D01*
X79323297Y-70909365D01*
X79327733Y-70916251D01*
X79374199Y-70964117D01*
X79440085Y-71005464D01*
X79512879Y-71036114D01*
X79580068Y-71051889D01*
X79629142Y-71048613D01*
X79647600Y-71023054D01*
X79629482Y-70984937D01*
X79583246Y-70931155D01*
X79548758Y-70899152D01*
X79449915Y-70814546D01*
X79500727Y-70535223D01*
X79538625Y-70245484D01*
X79554746Y-69911932D01*
X79555119Y-69881337D01*
X79557428Y-69749934D01*
X79561388Y-69638666D01*
X79566527Y-69556392D01*
X79572369Y-69511971D01*
X79575173Y-69506687D01*
X79585435Y-69529869D01*
X79597304Y-69591133D01*
X79608421Y-69677915D01*
X79609721Y-69690750D01*
X79633257Y-69851479D01*
X79671224Y-69968184D01*
X79729063Y-70046838D01*
X79812209Y-70093414D01*
X79926104Y-70113886D01*
X79997084Y-70116200D01*
X80112363Y-70107596D01*
X80190058Y-70083280D01*
X80225993Y-70045495D01*
X80217009Y-69998110D01*
X80173103Y-69959645D01*
X80115409Y-69935759D01*
X80033672Y-69916714D01*
X79972064Y-69902606D01*
X79926489Y-69878567D01*
X79890837Y-69826518D01*
X79864171Y-69742041D01*
X79845553Y-69620720D01*
X79834046Y-69458136D01*
X79828710Y-69249873D01*
X79828479Y-69226291D01*
X79825089Y-68831682D01*
X79939545Y-68719352D01*
X79999421Y-68655708D01*
X80040849Y-68602343D01*
X80054000Y-68574211D01*
X80031930Y-68548954D01*
X79968060Y-68546356D01*
X79865902Y-68566109D01*
G36*
X80897905Y-71798899D02*
G01*
X80839335Y-71835919D01*
X80786529Y-71871564D01*
X80699668Y-71927775D01*
X80620172Y-71970585D01*
X80539081Y-72001805D01*
X80447438Y-72023246D01*
X80336281Y-72036720D01*
X80196654Y-72044038D01*
X80019596Y-72047011D01*
X79916614Y-72047431D01*
X79649403Y-72050381D01*
X79431937Y-72058321D01*
X79263390Y-72071389D01*
X79142941Y-72089723D01*
X79069764Y-72113459D01*
X79043036Y-72142735D01*
X79061934Y-72177689D01*
X79074605Y-72188009D01*
X79115320Y-72199320D01*
X79198622Y-72208602D01*
X79316339Y-72215850D01*
X79460298Y-72221057D01*
X79622328Y-72224219D01*
X79794256Y-72225330D01*
X79967910Y-72224384D01*
X80135117Y-72221375D01*
X80287705Y-72216299D01*
X80417502Y-72209149D01*
X80516334Y-72199920D01*
X80574700Y-72189035D01*
X80655030Y-72160617D01*
X80723958Y-72131168D01*
X80734248Y-72125914D01*
X80793647Y-72078481D01*
X80855388Y-72005830D01*
X80907736Y-71924819D01*
X80938960Y-71852308D01*
X80943000Y-71825942D01*
X80940927Y-71796480D01*
X80928832Y-71786609D01*
X80897905Y-71798899D01*
X80897905Y-71798899D01*
G37*
X80897905Y-71798899D02*
X80839335Y-71835919D01*
X80786529Y-71871564D01*
X80699668Y-71927775D01*
X80620172Y-71970585D01*
X80539081Y-72001805D01*
X80447438Y-72023246D01*
X80336281Y-72036720D01*
X80196654Y-72044038D01*
X80019596Y-72047011D01*
X79916614Y-72047431D01*
X79649403Y-72050381D01*
X79431937Y-72058321D01*
X79263390Y-72071389D01*
X79142941Y-72089723D01*
X79069764Y-72113459D01*
X79043036Y-72142735D01*
X79061934Y-72177689D01*
X79074605Y-72188009D01*
X79115320Y-72199320D01*
X79198622Y-72208602D01*
X79316339Y-72215850D01*
X79460298Y-72221057D01*
X79622328Y-72224219D01*
X79794256Y-72225330D01*
X79967910Y-72224384D01*
X80135117Y-72221375D01*
X80287705Y-72216299D01*
X80417502Y-72209149D01*
X80516334Y-72199920D01*
X80574700Y-72189035D01*
X80655030Y-72160617D01*
X80723958Y-72131168D01*
X80734248Y-72125914D01*
X80793647Y-72078481D01*
X80855388Y-72005830D01*
X80907736Y-71924819D01*
X80938960Y-71852308D01*
X80943000Y-71825942D01*
X80940927Y-71796480D01*
X80928832Y-71786609D01*
X80897905Y-71798899D01*
G36*
X80001231Y-72618025D02*
G01*
X79984650Y-72620305D01*
X79865495Y-72640672D01*
X79790102Y-72660201D01*
X79751521Y-72681022D01*
X79743334Y-72694300D01*
X79759293Y-72713675D01*
X79810102Y-72723549D01*
X79880697Y-72723875D01*
X79956016Y-72714607D01*
X80020997Y-72695700D01*
X80022250Y-72695151D01*
X80087890Y-72658339D01*
X80104957Y-72630607D01*
X80075416Y-72615866D01*
X80001231Y-72618025D01*
X80001231Y-72618025D01*
G37*
X80001231Y-72618025D02*
X79984650Y-72620305D01*
X79865495Y-72640672D01*
X79790102Y-72660201D01*
X79751521Y-72681022D01*
X79743334Y-72694300D01*
X79759293Y-72713675D01*
X79810102Y-72723549D01*
X79880697Y-72723875D01*
X79956016Y-72714607D01*
X80020997Y-72695700D01*
X80022250Y-72695151D01*
X80087890Y-72658339D01*
X80104957Y-72630607D01*
X80075416Y-72615866D01*
X80001231Y-72618025D01*
G36*
X81300519Y-57084656D02*
G01*
X81222594Y-57119399D01*
X81130748Y-57165236D01*
X81034932Y-57217274D01*
X80945099Y-57270618D01*
X80892200Y-57305354D01*
X80785985Y-57390377D01*
X80662170Y-57507717D01*
X80530419Y-57646829D01*
X80400398Y-57797168D01*
X80281771Y-57948187D01*
X80209893Y-58049846D01*
X80061287Y-58287082D01*
X79930679Y-58529806D01*
X79809191Y-58795348D01*
X79736987Y-58972819D01*
X79693733Y-59078619D01*
X79656166Y-59161826D01*
X79628306Y-59214116D01*
X79614176Y-59227164D01*
X79614158Y-59227135D01*
X79577377Y-59196350D01*
X79503358Y-59154180D01*
X79403023Y-59105411D01*
X79287290Y-59054829D01*
X79167080Y-59007221D01*
X79053312Y-58967372D01*
X78961800Y-58941218D01*
X78751550Y-58906849D01*
X78504838Y-58893164D01*
X78231184Y-58899254D01*
X77940111Y-58924211D01*
X77641137Y-58967127D01*
X77343786Y-59027093D01*
X77057576Y-59103200D01*
X76967900Y-59131471D01*
X76820022Y-59186655D01*
X76640906Y-59263935D01*
X76441836Y-59357610D01*
X76234097Y-59461983D01*
X76028973Y-59571355D01*
X75837750Y-59680028D01*
X75671711Y-59782303D01*
X75647100Y-59798444D01*
X75356498Y-60003947D01*
X75099394Y-60215046D01*
X74871085Y-60438000D01*
X74666863Y-60679071D01*
X74482024Y-60944518D01*
X74311863Y-61240600D01*
X74151673Y-61573579D01*
X73996750Y-61949713D01*
X73962792Y-62039182D01*
X73788145Y-62551899D01*
X73648610Y-63066661D01*
X73542019Y-63594025D01*
X73466203Y-64144548D01*
X73422380Y-64670338D01*
X73404729Y-65166864D01*
X73414757Y-65635699D01*
X73453665Y-66092504D01*
X73522649Y-66552937D01*
X73593300Y-66903100D01*
X73663931Y-67209984D01*
X73731650Y-67476680D01*
X73799996Y-67713386D01*
X73872508Y-67930304D01*
X73952727Y-68137631D01*
X74044191Y-68345569D01*
X74150440Y-68564317D01*
X74210302Y-68681100D01*
X74374372Y-68989011D01*
X74522649Y-69251289D01*
X74654868Y-69467529D01*
X74770765Y-69637326D01*
X74870075Y-69760278D01*
X74952533Y-69835980D01*
X74977551Y-69851336D01*
X75029001Y-69886185D01*
X75031944Y-69913736D01*
X74985563Y-69935512D01*
X74925729Y-69947749D01*
X74810008Y-69989024D01*
X74710474Y-70066336D01*
X74644038Y-70166426D01*
X74620867Y-70276407D01*
X74626342Y-70413334D01*
X74658724Y-70563445D01*
X74712005Y-70703982D01*
X74786975Y-70834617D01*
X74898418Y-70981981D01*
X75011298Y-71109935D01*
X75112785Y-71223484D01*
X75216867Y-71346782D01*
X75309981Y-71463412D01*
X75367916Y-71541535D01*
X75442613Y-71640356D01*
X75539910Y-71758473D01*
X75646092Y-71879661D01*
X75729226Y-71968964D01*
X75823667Y-72065853D01*
X75891545Y-72131247D01*
X75940832Y-72170902D01*
X75979503Y-72190577D01*
X76015530Y-72196028D01*
X76041757Y-72194628D01*
X76087117Y-72192648D01*
X76119406Y-72203393D01*
X76148141Y-72236084D01*
X76182844Y-72299944D01*
X76211415Y-72358993D01*
X76279110Y-72488528D01*
X76353703Y-72611398D01*
X76429957Y-72721033D01*
X76502633Y-72810866D01*
X76566493Y-72874327D01*
X76616298Y-72904848D01*
X76643216Y-72900451D01*
X76673672Y-72899664D01*
X76704741Y-72912094D01*
X76747937Y-72956647D01*
X76801014Y-73047906D01*
X76862703Y-73183017D01*
X76931736Y-73359126D01*
X77006845Y-73573379D01*
X77030621Y-73645427D01*
X77074708Y-73775023D01*
X77116595Y-73887746D01*
X77152631Y-73974504D01*
X77179161Y-74026202D01*
X77187510Y-74035936D01*
X77223389Y-74039184D01*
X77286872Y-74017273D01*
X77383574Y-73968040D01*
X77426597Y-73943786D01*
X77530406Y-73887492D01*
X77630983Y-73838488D01*
X77711162Y-73804973D01*
X77730625Y-73798592D01*
X77832950Y-73769129D01*
X78111625Y-73964021D01*
X78219164Y-74039895D01*
X78314749Y-74108566D01*
X78388960Y-74163179D01*
X78432376Y-74196881D01*
X78435943Y-74199972D01*
X78463954Y-74230174D01*
X78455782Y-74251317D01*
X78410543Y-74276844D01*
X78357534Y-74312910D01*
X78285555Y-74373750D01*
X78209762Y-74446509D01*
X78206362Y-74450004D01*
X78091934Y-74554563D01*
X77953041Y-74661277D01*
X77807152Y-74757957D01*
X77671739Y-74832413D01*
X77634138Y-74849276D01*
X77559798Y-74875425D01*
X77443619Y-74910195D01*
X77293456Y-74951673D01*
X77117163Y-74997942D01*
X76922597Y-75047087D01*
X76717613Y-75097191D01*
X76510067Y-75146338D01*
X76307812Y-75192614D01*
X76118706Y-75234102D01*
X75950603Y-75268886D01*
X75811358Y-75295050D01*
X75794518Y-75297933D01*
X75589740Y-75335054D01*
X75430115Y-75370470D01*
X75310127Y-75406163D01*
X75224265Y-75444114D01*
X75167014Y-75486305D01*
X75132861Y-75534719D01*
X75132287Y-75535956D01*
X75106096Y-75577092D01*
X75054694Y-75646001D01*
X74986194Y-75732111D01*
X74928354Y-75801768D01*
X74797037Y-75972455D01*
X74655384Y-76184224D01*
X74507358Y-76429408D01*
X74356922Y-76700343D01*
X74208039Y-76989365D01*
X74064672Y-77288807D01*
X73930786Y-77591006D01*
X73810343Y-77888296D01*
X73717017Y-78144441D01*
X73604546Y-78472800D01*
X79191368Y-78472800D01*
X79178300Y-78415650D01*
X79138902Y-78233954D01*
X79095194Y-78016437D01*
X79049404Y-77775618D01*
X79003761Y-77524016D01*
X78960493Y-77274153D01*
X78921830Y-77038548D01*
X78890000Y-76829721D01*
X78870482Y-76686603D01*
X78849512Y-76516543D01*
X78834120Y-76378367D01*
X78823869Y-76259769D01*
X78818320Y-76148442D01*
X78817034Y-76032081D01*
X78819573Y-75898380D01*
X78825500Y-75735032D01*
X78831556Y-75593578D01*
X78839278Y-75427288D01*
X78846965Y-75278691D01*
X78854177Y-75155062D01*
X78860472Y-75063673D01*
X78865410Y-75011799D01*
X78867374Y-75002759D01*
X78885144Y-75016562D01*
X78920419Y-75062930D01*
X78953774Y-75113380D01*
X79017124Y-75203675D01*
X79103693Y-75313122D01*
X79203888Y-75430957D01*
X79308112Y-75546415D01*
X79406772Y-75648731D01*
X79490273Y-75727141D01*
X79527485Y-75757067D01*
X79648363Y-75826362D01*
X79784661Y-75875695D01*
X79917631Y-75899588D01*
X80006726Y-75897082D01*
X80083101Y-75877177D01*
X80180384Y-75841675D01*
X80258082Y-75807357D01*
X80352572Y-75756652D01*
X80477141Y-75682701D01*
X80621048Y-75592497D01*
X80773549Y-75493034D01*
X80923904Y-75391302D01*
X81061371Y-75294295D01*
X81164705Y-75217186D01*
X81239906Y-75159675D01*
X81298054Y-75116631D01*
X81328960Y-75095556D01*
X81331234Y-75094600D01*
X81330989Y-75118386D01*
X81323023Y-75184869D01*
X81308523Y-75286731D01*
X81288674Y-75416654D01*
X81264663Y-75567322D01*
X81237677Y-75731417D01*
X81208901Y-75901623D01*
X81179522Y-76070621D01*
X81150727Y-76231096D01*
X81123701Y-76375730D01*
X81122582Y-76381559D01*
X81064279Y-76667529D01*
X80996631Y-76970144D01*
X80923090Y-77275468D01*
X80847106Y-77569566D01*
X80772134Y-77838504D01*
X80715018Y-78026758D01*
X80676904Y-78152050D01*
X80646175Y-78263517D01*
X80625552Y-78350476D01*
X80617752Y-78402246D01*
X80618014Y-78407758D01*
X80625500Y-78460100D01*
X84098950Y-78466540D01*
X84514628Y-78467200D01*
X84916109Y-78467621D01*
X85300485Y-78467810D01*
X85664849Y-78467776D01*
X86006292Y-78467525D01*
X86321906Y-78467065D01*
X86608784Y-78466403D01*
X86864017Y-78465548D01*
X87084698Y-78464506D01*
X87267919Y-78463286D01*
X87410771Y-78461894D01*
X87510347Y-78460338D01*
X87563739Y-78458626D01*
X87572400Y-78457551D01*
X87558798Y-78431986D01*
X87521594Y-78373028D01*
X87466188Y-78288987D01*
X87397985Y-78188174D01*
X87385060Y-78169317D01*
X87296109Y-78036867D01*
X87201112Y-77890633D01*
X87112801Y-77750444D01*
X87056490Y-77657606D01*
X86934507Y-77457825D01*
X86817725Y-77279164D01*
X86710246Y-77127354D01*
X86616175Y-77008127D01*
X86539617Y-76927212D01*
X86523706Y-76913650D01*
X86459693Y-76869179D01*
X86394669Y-76843652D01*
X86308351Y-76830466D01*
X86257006Y-76826789D01*
X86147779Y-76815418D01*
X86079410Y-76795206D01*
X86048400Y-76771798D01*
X86017195Y-76734779D01*
X85961596Y-76668668D01*
X85889860Y-76583288D01*
X85820981Y-76501252D01*
X85722512Y-76384884D01*
X85613852Y-76257974D01*
X85511672Y-76139934D01*
X85463722Y-76085200D01*
X85389394Y-75998408D01*
X85293890Y-75883234D01*
X85186946Y-75751614D01*
X85078294Y-75615479D01*
X85018287Y-75539100D01*
X84752427Y-75212759D01*
X84500736Y-74933600D01*
X84261891Y-74700426D01*
X84034570Y-74512038D01*
X83817451Y-74367238D01*
X83682612Y-74300644D01*
X81595341Y-74300644D01*
X81594690Y-74302775D01*
X81580192Y-74343742D01*
X81552158Y-74419718D01*
X81515205Y-74518266D01*
X81489325Y-74586600D01*
X81449675Y-74691261D01*
X81416510Y-74779482D01*
X81394213Y-74839568D01*
X81387608Y-74858044D01*
X81362083Y-74884893D01*
X81299654Y-74933410D01*
X81207064Y-74999271D01*
X81091057Y-75078152D01*
X80958376Y-75165727D01*
X80815763Y-75257674D01*
X80669962Y-75349667D01*
X80527716Y-75437384D01*
X80395768Y-75516499D01*
X80280861Y-75582688D01*
X80189738Y-75631628D01*
X80155600Y-75648097D01*
X80031160Y-75686491D01*
X79892798Y-75700988D01*
X79762087Y-75690579D01*
X79691235Y-75669888D01*
X79631326Y-75631699D01*
X79548515Y-75561138D01*
X79450474Y-75466401D01*
X79344874Y-75355685D01*
X79239386Y-75237188D01*
X79141680Y-75119107D01*
X79059428Y-75009640D01*
X79024207Y-74957102D01*
X78963738Y-74858092D01*
X78927428Y-74786208D01*
X78909956Y-74727203D01*
X78906001Y-74666831D01*
X78906824Y-74642775D01*
X78915852Y-74523625D01*
X78931941Y-74443090D01*
X78959767Y-74389040D01*
X79004002Y-74349346D01*
X79024992Y-74336147D01*
X79110213Y-74285866D01*
X79179551Y-74449013D01*
X79234961Y-74565812D01*
X79282078Y-74636720D01*
X79319789Y-74660285D01*
X79335695Y-74652972D01*
X79343286Y-74615845D01*
X79338496Y-74539928D01*
X79323207Y-74435186D01*
X79299302Y-74311585D01*
X79268665Y-74179092D01*
X79233178Y-74047670D01*
X79203281Y-73952135D01*
X79168334Y-73844920D01*
X79141797Y-73756791D01*
X79126599Y-73697943D01*
X79124710Y-73678624D01*
X79140981Y-73675983D01*
X79179140Y-73683291D01*
X79244425Y-73702175D01*
X79342073Y-73734265D01*
X79477320Y-73781188D01*
X79634900Y-73837225D01*
X79965100Y-73955468D01*
X80295300Y-73943563D01*
X80523774Y-73927290D01*
X80718274Y-73894184D01*
X80893847Y-73840728D01*
X81065137Y-73763615D01*
X81117905Y-73739261D01*
X81145174Y-73732408D01*
X81146200Y-73733797D01*
X81141301Y-73763453D01*
X81128735Y-73826434D01*
X81118126Y-73876806D01*
X81105164Y-73970572D01*
X81101980Y-74073620D01*
X81107429Y-74173623D01*
X81120369Y-74258255D01*
X81139653Y-74315188D01*
X81160438Y-74332600D01*
X81192764Y-74310969D01*
X81211687Y-74270229D01*
X81233494Y-74225048D01*
X81277666Y-74216269D01*
X81294721Y-74218439D01*
X81361349Y-74228128D01*
X81449689Y-74240054D01*
X81485210Y-74244635D01*
X81559400Y-74257371D01*
X81592783Y-74274274D01*
X81595341Y-74300644D01*
X83682612Y-74300644D01*
X83613941Y-74266729D01*
X83472445Y-74223691D01*
X83294496Y-74191068D01*
X83093522Y-74169652D01*
X82882949Y-74160232D01*
X82676204Y-74163598D01*
X82486713Y-74180541D01*
X82398382Y-74195193D01*
X82342149Y-74201189D01*
X82309444Y-74181692D01*
X82281069Y-74125971D01*
X82245007Y-74040500D01*
X82400454Y-73897884D01*
X82486294Y-73813329D01*
X82586627Y-73705733D01*
X82685375Y-73592627D01*
X82729314Y-73539258D01*
X82820140Y-73430777D01*
X82902684Y-73340828D01*
X82971733Y-73274263D01*
X83022074Y-73235938D01*
X83048492Y-73230706D01*
X83051200Y-73239566D01*
X83069489Y-73282654D01*
X83117520Y-73340367D01*
X83185042Y-73404548D01*
X83261807Y-73467041D01*
X83337562Y-73519690D01*
X83402057Y-73554337D01*
X83445042Y-73562825D01*
X83452431Y-73558835D01*
X83458629Y-73530414D01*
X83466801Y-73461920D01*
X83475831Y-73363987D01*
X83483696Y-73260561D01*
X83499290Y-73114375D01*
X83527084Y-72933133D01*
X83564369Y-72730342D01*
X83608437Y-72519509D01*
X83656580Y-72314142D01*
X83706089Y-72127747D01*
X83721086Y-72076609D01*
X83749535Y-72003954D01*
X83797405Y-71903743D01*
X83857038Y-71791399D01*
X83898565Y-71719038D01*
X83966935Y-71597895D01*
X84033449Y-71469851D01*
X84088149Y-71354501D01*
X84109353Y-71304178D01*
X84153512Y-71202464D01*
X84197243Y-71133045D01*
X84252782Y-71079017D01*
X84294291Y-71048713D01*
X84416219Y-70959493D01*
X84563627Y-70842558D01*
X84726571Y-70706600D01*
X84895105Y-70560315D01*
X85059284Y-70412396D01*
X85209163Y-70271537D01*
X85334797Y-70146431D01*
X85374425Y-70104490D01*
X85592693Y-69861508D01*
X85773080Y-69644984D01*
X85918031Y-69450485D01*
X86029994Y-69273581D01*
X86111415Y-69109837D01*
X86164741Y-68954821D01*
X86192418Y-68804100D01*
X86195334Y-68705791D01*
X85981135Y-68705791D01*
X85969496Y-68847222D01*
X85935805Y-68982971D01*
X85875669Y-69124644D01*
X85784694Y-69283843D01*
X85730782Y-69366900D01*
X85615967Y-69523934D01*
X85468481Y-69702619D01*
X85296446Y-69894327D01*
X85107982Y-70090431D01*
X84911210Y-70282303D01*
X84714251Y-70461315D01*
X84643149Y-70522399D01*
X84529612Y-70618219D01*
X84430562Y-70701691D01*
X84352072Y-70767706D01*
X84300215Y-70811157D01*
X84281064Y-70826934D01*
X84281062Y-70826934D01*
X84284879Y-70804134D01*
X84296813Y-70742697D01*
X84314682Y-70653732D01*
X84324596Y-70605150D01*
X84368457Y-70384222D01*
X84413197Y-70146098D01*
X84457401Y-69899398D01*
X84499651Y-69652743D01*
X84538532Y-69414754D01*
X84572627Y-69194051D01*
X84600519Y-68999254D01*
X84620792Y-68838986D01*
X84630313Y-68744600D01*
X84645783Y-68581833D01*
X84665235Y-68459953D01*
X84694435Y-68369077D01*
X84739147Y-68299323D01*
X84805139Y-68240809D01*
X84898175Y-68183653D01*
X84984020Y-68138370D01*
X85100801Y-68082349D01*
X85163517Y-68059671D01*
X84530376Y-68059671D01*
X84512755Y-68306885D01*
X84485913Y-68601488D01*
X84445519Y-68915546D01*
X84390136Y-69259179D01*
X84334996Y-69557400D01*
X84301785Y-69730530D01*
X84267171Y-69913850D01*
X84234341Y-70090292D01*
X84206484Y-70242791D01*
X84195067Y-70306700D01*
X84125185Y-70648212D01*
X84041648Y-70951264D01*
X83940493Y-71227265D01*
X83817753Y-71487622D01*
X83730010Y-71644609D01*
X83616618Y-71824348D01*
X83500504Y-71980590D01*
X83373166Y-72121730D01*
X83226104Y-72256164D01*
X83050818Y-72392285D01*
X82838805Y-72538491D01*
X82797200Y-72565799D01*
X82602690Y-72688804D01*
X82386066Y-72819032D01*
X82154598Y-72952634D01*
X81915555Y-73085762D01*
X81676208Y-73214569D01*
X81443826Y-73335206D01*
X81225679Y-73443826D01*
X81029036Y-73536580D01*
X80861168Y-73609621D01*
X80735629Y-73657024D01*
X80627861Y-73686143D01*
X80492835Y-73712729D01*
X80344929Y-73734998D01*
X80198521Y-73751169D01*
X80067989Y-73759457D01*
X79967713Y-73758079D01*
X79943821Y-73755217D01*
X79890270Y-73739603D01*
X79804848Y-73707225D01*
X79701373Y-73663529D01*
X79636057Y-73633995D01*
X79495440Y-73570466D01*
X79364042Y-73515529D01*
X79231505Y-73465639D01*
X79087475Y-73417254D01*
X78921596Y-73366829D01*
X78723511Y-73310820D01*
X78568031Y-73268517D01*
X78334825Y-73203481D01*
X78072854Y-73126593D01*
X77795168Y-73041959D01*
X77514820Y-72953687D01*
X77244860Y-72865886D01*
X76998339Y-72782661D01*
X76793368Y-72709978D01*
X76680239Y-72667572D01*
X76603176Y-72634021D01*
X76550333Y-72601299D01*
X76509863Y-72561378D01*
X76469921Y-72506230D01*
X76451628Y-72478400D01*
X76394934Y-72380112D01*
X76326018Y-72242611D01*
X76248707Y-72074879D01*
X76193205Y-71946779D01*
X76022063Y-71946779D01*
X76007253Y-71941544D01*
X75970294Y-71906930D01*
X75906192Y-71839838D01*
X75861890Y-71792600D01*
X75767008Y-71686032D01*
X75668556Y-71566899D01*
X75583264Y-71455696D01*
X75558790Y-71421245D01*
X75489971Y-71328484D01*
X75398326Y-71214703D01*
X75296521Y-71095229D01*
X75209704Y-70998761D01*
X75043815Y-70804531D01*
X74924473Y-70629280D01*
X74851754Y-70473171D01*
X74825734Y-70336368D01*
X74846490Y-70219035D01*
X74846794Y-70218298D01*
X74878680Y-70166322D01*
X74931999Y-70130329D01*
X75007060Y-70103578D01*
X75135586Y-70073135D01*
X75238009Y-70069672D01*
X75331601Y-70093729D01*
X75378394Y-70115176D01*
X75446547Y-70159136D01*
X75481539Y-70212770D01*
X75493931Y-70260729D01*
X75508517Y-70321697D01*
X75535170Y-70417995D01*
X75570166Y-70536668D01*
X75609786Y-70664763D01*
X75611974Y-70671662D01*
X75648438Y-70789922D01*
X75677162Y-70889752D01*
X75695599Y-70961776D01*
X75701203Y-70996615D01*
X75700645Y-70998222D01*
X75679741Y-70985327D01*
X75630006Y-70942142D01*
X75558059Y-70874762D01*
X75470521Y-70789283D01*
X75433174Y-70751943D01*
X75340211Y-70661113D01*
X75258685Y-70586548D01*
X75195603Y-70534276D01*
X75157974Y-70510321D01*
X75151754Y-70509928D01*
X75127678Y-70552376D01*
X75143876Y-70625221D01*
X75200399Y-70728658D01*
X75213608Y-70748684D01*
X75274788Y-70833015D01*
X75360462Y-70942529D01*
X75460557Y-71065183D01*
X75565000Y-71188932D01*
X75663717Y-71301733D01*
X75746637Y-71391542D01*
X75776186Y-71421318D01*
X75831262Y-71487424D01*
X75884883Y-71579997D01*
X75940875Y-71706726D01*
X76003063Y-71875297D01*
X76005209Y-71881500D01*
X76019717Y-71925731D01*
X76022063Y-71946779D01*
X76193205Y-71946779D01*
X76166828Y-71885901D01*
X76084211Y-71684660D01*
X76004683Y-71480141D01*
X75932073Y-71281326D01*
X75893250Y-71168001D01*
X75836973Y-71006331D01*
X75772585Y-70833320D01*
X75707248Y-70667556D01*
X75648126Y-70527626D01*
X75636573Y-70501954D01*
X75586764Y-70390897D01*
X75545872Y-70295854D01*
X75518039Y-70226734D01*
X75507410Y-70193445D01*
X75507400Y-70193102D01*
X75524588Y-70168536D01*
X75566536Y-70172733D01*
X75618825Y-70202126D01*
X75646590Y-70227548D01*
X75706361Y-70268255D01*
X75798223Y-70305411D01*
X75903524Y-70332989D01*
X76003614Y-70344963D01*
X76010301Y-70345064D01*
X76048327Y-70369402D01*
X76095235Y-70439632D01*
X76124186Y-70497244D01*
X76190882Y-70614398D01*
X76259014Y-70681814D01*
X76268975Y-70687479D01*
X76366562Y-70720005D01*
X76462448Y-70722023D01*
X76539729Y-70694163D01*
X76560052Y-70676600D01*
X76588709Y-70623824D01*
X76574315Y-70585913D01*
X76528251Y-70573305D01*
X76437328Y-70548573D01*
X76358102Y-70476802D01*
X76293515Y-70360993D01*
X76277111Y-70317162D01*
X76245719Y-70213105D01*
X76209843Y-70075862D01*
X76173444Y-69922342D01*
X76140481Y-69769450D01*
X76114915Y-69634096D01*
X76109852Y-69603122D01*
X76118157Y-69542192D01*
X76159413Y-69509725D01*
X76223192Y-69507743D01*
X76299071Y-69538267D01*
X76330813Y-69560295D01*
X76379071Y-69593588D01*
X76407678Y-69604654D01*
X76409201Y-69603866D01*
X76401243Y-69579388D01*
X76371214Y-69523055D01*
X76324917Y-69445482D01*
X76306924Y-69416820D01*
X76254776Y-69331682D01*
X76215307Y-69261427D01*
X76195150Y-69218064D01*
X76193861Y-69212155D01*
X76214857Y-69191113D01*
X76270079Y-69156452D01*
X76347014Y-69114455D01*
X76433148Y-69071402D01*
X76515969Y-69033576D01*
X76582962Y-69007256D01*
X76619295Y-68998600D01*
X76639094Y-69007009D01*
X76654839Y-69037934D01*
X76668993Y-69099915D01*
X76684022Y-69201494D01*
X76688936Y-69239900D01*
X76712640Y-69362864D01*
X76754447Y-69513608D01*
X76810019Y-69681174D01*
X76875016Y-69854602D01*
X76945102Y-70022934D01*
X77015937Y-70175212D01*
X77083183Y-70300477D01*
X77142502Y-70387769D01*
X77144135Y-70389713D01*
X77214496Y-70472726D01*
X77611898Y-70458913D01*
X77784592Y-70452378D01*
X77916206Y-70445464D01*
X78016446Y-70436719D01*
X78095023Y-70424690D01*
X78161643Y-70407925D01*
X78226015Y-70384974D01*
X78291226Y-70357309D01*
X78367319Y-70320244D01*
X78408924Y-70285798D01*
X78429451Y-70239665D01*
X78436996Y-70201839D01*
X78448506Y-70115330D01*
X78448607Y-70111783D01*
X78221603Y-70111783D01*
X78184231Y-70165195D01*
X78114819Y-70191601D01*
X78098200Y-70192400D01*
X78036258Y-70181311D01*
X78001681Y-70161919D01*
X77978210Y-70114423D01*
X77971200Y-70065400D01*
X77990363Y-69989214D01*
X78039459Y-69945977D01*
X78105901Y-69940840D01*
X78177100Y-69978958D01*
X78178750Y-69980436D01*
X78221565Y-70045488D01*
X78221603Y-70111783D01*
X78448607Y-70111783D01*
X78450765Y-70036288D01*
X78442149Y-69952261D01*
X78421035Y-69850797D01*
X78385798Y-69719442D01*
X78364490Y-69645859D01*
X78306981Y-69460376D01*
X78252200Y-69310971D01*
X78217827Y-69236445D01*
X77203870Y-69236445D01*
X77194649Y-69296460D01*
X77171414Y-69344157D01*
X77150532Y-69359642D01*
X77119507Y-69369627D01*
X77090851Y-69392720D01*
X77032482Y-69418030D01*
X76950603Y-69411824D01*
X76860041Y-69375919D01*
X76836305Y-69361553D01*
X76792475Y-69310456D01*
X76759956Y-69218623D01*
X76751634Y-69180734D01*
X76734042Y-69094704D01*
X76718881Y-69025315D01*
X76711934Y-68996957D01*
X76719762Y-68967982D01*
X76765268Y-68940053D01*
X76836565Y-68914407D01*
X76947189Y-68883578D01*
X77022631Y-68874738D01*
X77073860Y-68888645D01*
X77111845Y-68926060D01*
X77117140Y-68933841D01*
X77163812Y-69028462D01*
X77194142Y-69135971D01*
X77203870Y-69236445D01*
X78217827Y-69236445D01*
X78193540Y-69183788D01*
X78124391Y-69064970D01*
X78038146Y-68940660D01*
X78010478Y-68903572D01*
X77945507Y-68816684D01*
X77908007Y-68761855D01*
X77894755Y-68730663D01*
X77902531Y-68714684D01*
X77928113Y-68705496D01*
X77934144Y-68703968D01*
X77981242Y-68682873D01*
X77996600Y-68661413D01*
X77985616Y-68647154D01*
X77979888Y-68651246D01*
X77949617Y-68651349D01*
X77924964Y-68636429D01*
X77877013Y-68619988D01*
X77788739Y-68610840D01*
X77670043Y-68608622D01*
X77530821Y-68612967D01*
X77380971Y-68623511D01*
X77230392Y-68639889D01*
X77088982Y-68661736D01*
X77053477Y-68668561D01*
X76871028Y-68710307D01*
X76692210Y-68760249D01*
X76522396Y-68815925D01*
X76366959Y-68874877D01*
X76231269Y-68934643D01*
X76120698Y-68992764D01*
X76040620Y-69046779D01*
X75996404Y-69094229D01*
X75993424Y-69132653D01*
X76008287Y-69147213D01*
X76034460Y-69178380D01*
X76070930Y-69238109D01*
X76087895Y-69270062D01*
X76141813Y-69376425D01*
X76060349Y-69384362D01*
X75982500Y-69411056D01*
X75941556Y-69459130D01*
X75926439Y-69492679D01*
X75918973Y-69532619D01*
X75919429Y-69589148D01*
X75928080Y-69672461D01*
X75945194Y-69792754D01*
X75951538Y-69834436D01*
X75970438Y-69971837D01*
X75980449Y-70077318D01*
X75981100Y-70144343D01*
X75975375Y-70165254D01*
X75947251Y-70162280D01*
X75884436Y-70143379D01*
X75798706Y-70113149D01*
X75701839Y-70076187D01*
X75605613Y-70037089D01*
X75521805Y-70000452D01*
X75462193Y-69970875D01*
X75441017Y-69956682D01*
X75443993Y-69931266D01*
X75457545Y-69871394D01*
X75473057Y-69811365D01*
X75494971Y-69661827D01*
X75491869Y-69477195D01*
X75465098Y-69265799D01*
X75416005Y-69035967D01*
X75345939Y-68796030D01*
X75278665Y-68609940D01*
X75170805Y-68335581D01*
X75220997Y-68279740D01*
X75510087Y-67941178D01*
X75755629Y-67616557D01*
X75961221Y-67300912D01*
X76068825Y-67110143D01*
X76119502Y-67016510D01*
X76160188Y-66944808D01*
X76186015Y-66903396D01*
X76192713Y-66897384D01*
X76180500Y-66933757D01*
X76143156Y-67014270D01*
X76080682Y-67138917D01*
X75993083Y-67307693D01*
X75880361Y-67520591D01*
X75762179Y-67741104D01*
X75685873Y-67884107D01*
X75617179Y-68015198D01*
X75560061Y-68126619D01*
X75518487Y-68210612D01*
X75496423Y-68259416D01*
X75494621Y-68264526D01*
X75463501Y-68332070D01*
X75436959Y-68369950D01*
X75415393Y-68405258D01*
X75427615Y-68414400D01*
X75475526Y-68401434D01*
X75557642Y-68365674D01*
X75665455Y-68311825D01*
X75790458Y-68244592D01*
X75924143Y-68168679D01*
X76058002Y-68088793D01*
X76183527Y-68009639D01*
X76290149Y-67937388D01*
X76450598Y-67823316D01*
X76627623Y-67852551D01*
X76735957Y-67874412D01*
X76868479Y-67906857D01*
X77001348Y-67943923D01*
X77038674Y-67955356D01*
X77151834Y-67988927D01*
X77257279Y-68016718D01*
X77338573Y-68034534D01*
X77363420Y-68038233D01*
X77438288Y-68037037D01*
X77482237Y-68018943D01*
X77487897Y-67989239D01*
X77465732Y-67964821D01*
X77442279Y-67943918D01*
X77461580Y-67943815D01*
X77482250Y-67948725D01*
X77527227Y-67950157D01*
X77539400Y-67921159D01*
X77531378Y-67898357D01*
X77503661Y-67873425D01*
X77450780Y-67843753D01*
X77367260Y-67806731D01*
X77247632Y-67759750D01*
X77086422Y-67700199D01*
X77043645Y-67684724D01*
X76937226Y-67645272D01*
X76851072Y-67611311D01*
X76794836Y-67586784D01*
X76777762Y-67576200D01*
X76795659Y-67555728D01*
X76844966Y-67508269D01*
X76918808Y-67440229D01*
X77010311Y-67358012D01*
X77042865Y-67329168D01*
X77344412Y-67040234D01*
X77623449Y-66727839D01*
X77871819Y-66402120D01*
X77890716Y-66372458D01*
X76388839Y-66372458D01*
X76384867Y-66401912D01*
X76371626Y-66454730D01*
X76346392Y-66531491D01*
X76313857Y-66620334D01*
X76278714Y-66709396D01*
X76245655Y-66786814D01*
X76219372Y-66840727D01*
X76204559Y-66859271D01*
X76204078Y-66858944D01*
X76208317Y-66832908D01*
X76226965Y-66770488D01*
X76256554Y-66682849D01*
X76273525Y-66635378D01*
X76322765Y-66501369D01*
X76357174Y-66411726D01*
X76378494Y-66362796D01*
X76388468Y-66350924D01*
X76388839Y-66372458D01*
X77890716Y-66372458D01*
X78081366Y-66073212D01*
X78141875Y-65963300D01*
X78188746Y-65876487D01*
X78225395Y-65812398D01*
X78246631Y-65779921D01*
X78249859Y-65778488D01*
X78239263Y-65824757D01*
X78207088Y-65910524D01*
X78155748Y-66030514D01*
X78087658Y-66179449D01*
X78005232Y-66352052D01*
X77910884Y-66543045D01*
X77807029Y-66747152D01*
X77803900Y-66753214D01*
X77724100Y-66908907D01*
X77652705Y-67050470D01*
X77592887Y-67171423D01*
X77547822Y-67265286D01*
X77520684Y-67325579D01*
X77514000Y-67345026D01*
X77526758Y-67364912D01*
X77564717Y-67341388D01*
X77627406Y-67274879D01*
X77714354Y-67165811D01*
X77719028Y-67159647D01*
X77805597Y-67053463D01*
X77907154Y-66940824D01*
X78002301Y-66845418D01*
X78005831Y-66842147D01*
X78245119Y-66614224D01*
X78457491Y-66395274D01*
X78659373Y-66167774D01*
X78818215Y-65975491D01*
X79005524Y-65734700D01*
X78276000Y-65734700D01*
X78263300Y-65747400D01*
X78250600Y-65734700D01*
X78263300Y-65722000D01*
X78276000Y-65734700D01*
X79005524Y-65734700D01*
X79044793Y-65684220D01*
X79237133Y-65414355D01*
X79401045Y-65156046D01*
X79542338Y-64899443D01*
X79666822Y-64634697D01*
X79780306Y-64351957D01*
X79787947Y-64331350D01*
X79828122Y-64226187D01*
X79863140Y-64141378D01*
X79888817Y-64086638D01*
X79900051Y-64071000D01*
X79918349Y-64092037D01*
X79951376Y-64147383D01*
X79992218Y-64225386D01*
X79995101Y-64231210D01*
X80073142Y-64364773D01*
X80181945Y-64516742D01*
X80311581Y-64675108D01*
X80452121Y-64827864D01*
X80593637Y-64963004D01*
X80616883Y-64983196D01*
X80772956Y-65107713D01*
X80963204Y-65245229D01*
X81175517Y-65387807D01*
X81397786Y-65527508D01*
X81617901Y-65656394D01*
X81769048Y-65738454D01*
X82091014Y-65906509D01*
X81815457Y-66050124D01*
X81571109Y-66186424D01*
X81328899Y-66338232D01*
X81097847Y-66498928D01*
X80886973Y-66661894D01*
X80705299Y-66820510D01*
X80561846Y-66968155D01*
X80557476Y-66973220D01*
X80502796Y-67038269D01*
X80475787Y-67074977D01*
X80478691Y-67082464D01*
X80513750Y-67059852D01*
X80583207Y-67006260D01*
X80687653Y-66922150D01*
X80773230Y-66855391D01*
X80823052Y-66822503D01*
X80836321Y-66823140D01*
X80812238Y-66856954D01*
X80750002Y-66923598D01*
X80732241Y-66941502D01*
X80671913Y-67005967D01*
X80631973Y-67056808D01*
X80620310Y-67083862D01*
X80620951Y-67084816D01*
X80646463Y-67077427D01*
X80698972Y-67043120D01*
X80767763Y-66989014D01*
X80777281Y-66980950D01*
X80858503Y-66913776D01*
X80903409Y-66882050D01*
X80911982Y-66885772D01*
X80884202Y-66924943D01*
X80838769Y-66978416D01*
X80797646Y-67030342D01*
X80780569Y-67062763D01*
X80784033Y-67068200D01*
X80817488Y-67051130D01*
X80853911Y-67017609D01*
X80942220Y-66937398D01*
X81071665Y-66844023D01*
X81235496Y-66741271D01*
X81308609Y-66699900D01*
X81222400Y-66699900D01*
X81209700Y-66712600D01*
X81197000Y-66699900D01*
X81209700Y-66687200D01*
X81222400Y-66699900D01*
X81308609Y-66699900D01*
X81426961Y-66632931D01*
X81639309Y-66522790D01*
X81865788Y-66414636D01*
X82073904Y-66323526D01*
X81886766Y-66323526D01*
X81851515Y-66346092D01*
X81783319Y-66383986D01*
X81688447Y-66433564D01*
X81679600Y-66438074D01*
X81567678Y-66496046D01*
X81467020Y-66550015D01*
X81389526Y-66593490D01*
X81350099Y-66617804D01*
X81295403Y-66652561D01*
X81274450Y-66659058D01*
X81291087Y-66638344D01*
X81324000Y-66610691D01*
X81380487Y-66573101D01*
X81468184Y-66522256D01*
X81573441Y-66465259D01*
X81682608Y-66409212D01*
X81782033Y-66361219D01*
X81858068Y-66328381D01*
X81882800Y-66319933D01*
X81886766Y-66323526D01*
X82073904Y-66323526D01*
X82099646Y-66312257D01*
X82143150Y-66294264D01*
X82208585Y-66266659D01*
X82052444Y-66266659D01*
X82035200Y-66280800D01*
X81988896Y-66302293D01*
X81971700Y-66305422D01*
X81967157Y-66294940D01*
X81984400Y-66280800D01*
X82030705Y-66259306D01*
X82047900Y-66256177D01*
X82052444Y-66266659D01*
X82208585Y-66266659D01*
X82255643Y-66246807D01*
X82274181Y-66238466D01*
X82128334Y-66238466D01*
X82124847Y-66253566D01*
X82111400Y-66255400D01*
X82090493Y-66246106D01*
X82094467Y-66238466D01*
X82124611Y-66235426D01*
X82128334Y-66238466D01*
X82274181Y-66238466D01*
X82330636Y-66213066D01*
X82204534Y-66213066D01*
X82201047Y-66228166D01*
X82187600Y-66230000D01*
X82166693Y-66220706D01*
X82170667Y-66213066D01*
X82200811Y-66210026D01*
X82204534Y-66213066D01*
X82330636Y-66213066D01*
X82348746Y-66204918D01*
X82375010Y-66191900D01*
X82289200Y-66191900D01*
X82276500Y-66204600D01*
X82263800Y-66191900D01*
X82276500Y-66179200D01*
X82289200Y-66191900D01*
X82375010Y-66191900D01*
X82413563Y-66172792D01*
X82441202Y-66154624D01*
X82441600Y-66153503D01*
X82462031Y-66141100D01*
X81959000Y-66141100D01*
X81946300Y-66153800D01*
X81933600Y-66141100D01*
X81946300Y-66128400D01*
X81959000Y-66141100D01*
X82462031Y-66141100D01*
X82464443Y-66139636D01*
X82524082Y-66121632D01*
X82551050Y-66115700D01*
X82009800Y-66115700D01*
X81997100Y-66128400D01*
X81984400Y-66115700D01*
X81997100Y-66103000D01*
X82009800Y-66115700D01*
X82551050Y-66115700D01*
X82600350Y-66104856D01*
X82691687Y-66086766D01*
X82767925Y-66070360D01*
X82806107Y-66060928D01*
X82837035Y-66042022D01*
X82835744Y-66039500D01*
X82314600Y-66039500D01*
X82301900Y-66052200D01*
X82289200Y-66039500D01*
X82301900Y-66026800D01*
X82314600Y-66039500D01*
X82835744Y-66039500D01*
X82826340Y-66021130D01*
X82782609Y-66003993D01*
X82714427Y-65996351D01*
X82709459Y-65996320D01*
X82651333Y-65994426D01*
X82644945Y-65990317D01*
X82282797Y-65990317D01*
X82246066Y-66014761D01*
X82183091Y-66047227D01*
X82114500Y-66078067D01*
X82060917Y-66097636D01*
X82047900Y-66100171D01*
X82045002Y-66091275D01*
X82067190Y-66075431D01*
X82119763Y-66048208D01*
X82181574Y-66020630D01*
X82238559Y-65998248D01*
X82276655Y-65986615D01*
X82282797Y-65990317D01*
X82644945Y-65990317D01*
X82636895Y-65985140D01*
X82659074Y-65963050D01*
X82662469Y-65960370D01*
X82688929Y-65936785D01*
X82676724Y-65932448D01*
X82632100Y-65941083D01*
X82580627Y-65948697D01*
X82573485Y-65940874D01*
X82599893Y-65925200D01*
X82441600Y-65925200D01*
X82432307Y-65946107D01*
X82424667Y-65942133D01*
X82421627Y-65911989D01*
X82424667Y-65908266D01*
X82439767Y-65911753D01*
X82441600Y-65925200D01*
X82599893Y-65925200D01*
X82607661Y-65920590D01*
X82680138Y-65890817D01*
X82684809Y-65889097D01*
X82736167Y-65866974D01*
X82751424Y-65853009D01*
X82743841Y-65850789D01*
X82692025Y-65857610D01*
X82624210Y-65876529D01*
X82623731Y-65876696D01*
X82560527Y-65892548D01*
X82517123Y-65893177D01*
X82502796Y-65881416D01*
X82526822Y-65860095D01*
X82532223Y-65857466D01*
X82382334Y-65857466D01*
X82378847Y-65872566D01*
X82365400Y-65874400D01*
X82344493Y-65865106D01*
X82348467Y-65857466D01*
X82378611Y-65854426D01*
X82382334Y-65857466D01*
X82532223Y-65857466D01*
X82543200Y-65852123D01*
X82584994Y-65832611D01*
X82581755Y-65826835D01*
X82530678Y-65829884D01*
X82530500Y-65829898D01*
X82473854Y-65825521D01*
X82460651Y-65804272D01*
X82446840Y-65775988D01*
X82432318Y-65772800D01*
X82403560Y-65753204D01*
X82351469Y-65699335D01*
X82281797Y-65618569D01*
X82200294Y-65518283D01*
X82112711Y-65405855D01*
X82024801Y-65288661D01*
X81942314Y-65174078D01*
X81871001Y-65069483D01*
X81818440Y-64985400D01*
X81824312Y-64980308D01*
X81860911Y-65003291D01*
X81920373Y-65049389D01*
X81922068Y-65050781D01*
X82006619Y-65117394D01*
X82111883Y-65196268D01*
X82216397Y-65271353D01*
X82225700Y-65277840D01*
X82313489Y-65340475D01*
X82389317Y-65397479D01*
X82439990Y-65438849D01*
X82447933Y-65446328D01*
X82523695Y-65505590D01*
X82640320Y-65574861D01*
X82789630Y-65650882D01*
X82963453Y-65730396D01*
X83153611Y-65810143D01*
X83351931Y-65886865D01*
X83550237Y-65957304D01*
X83740353Y-66018201D01*
X83914105Y-66066299D01*
X84063317Y-66098338D01*
X84097095Y-66103637D01*
X84186892Y-66117059D01*
X84254081Y-66128399D01*
X84285584Y-66135429D01*
X84286347Y-66135879D01*
X84294797Y-66161336D01*
X84313667Y-66226890D01*
X84340431Y-66323519D01*
X84372565Y-66442196D01*
X84383885Y-66484536D01*
X84429933Y-66670684D01*
X84462120Y-66837736D01*
X84484315Y-67009495D01*
X84499439Y-67195200D01*
X84512208Y-67390608D01*
X84521438Y-67541175D01*
X84527034Y-67652740D01*
X84528903Y-67731143D01*
X84526949Y-67782227D01*
X84521080Y-67811831D01*
X84511200Y-67825797D01*
X84497215Y-67829964D01*
X84489190Y-67830200D01*
X84434028Y-67840035D01*
X84342961Y-67867003D01*
X84226368Y-67907299D01*
X84094628Y-67957118D01*
X83958120Y-68012652D01*
X83827222Y-68070098D01*
X83798108Y-68083599D01*
X83444903Y-68273281D01*
X83130419Y-68493013D01*
X83102000Y-68515877D01*
X83034813Y-68569499D01*
X82981255Y-68610286D01*
X82959236Y-68625453D01*
X82936655Y-68611003D01*
X82903424Y-68550369D01*
X82861157Y-68446659D01*
X82848822Y-68412839D01*
X82794402Y-68276407D01*
X82745274Y-68185369D01*
X82709049Y-68145854D01*
X82643199Y-68117340D01*
X82556262Y-68097655D01*
X82466490Y-68088836D01*
X82392140Y-68092919D01*
X82356408Y-68106522D01*
X82330446Y-68117516D01*
X82313519Y-68090419D01*
X82304580Y-68052857D01*
X82282554Y-67991821D01*
X82239464Y-67906404D01*
X82183941Y-67813440D01*
X82174121Y-67798450D01*
X82060196Y-67627000D01*
X82164358Y-67627000D01*
X82235410Y-67632267D01*
X82336895Y-67646315D01*
X82455259Y-67666509D01*
X82576949Y-67690215D01*
X82688411Y-67714800D01*
X82776093Y-67737630D01*
X82825272Y-67755429D01*
X82855285Y-67791681D01*
X82892658Y-67867302D01*
X82932640Y-67972326D01*
X82941774Y-67999803D01*
X82985641Y-68123750D01*
X83021382Y-68201612D01*
X83047855Y-68232800D01*
X83063915Y-68216726D01*
X83068422Y-68152802D01*
X83062463Y-68061909D01*
X83055818Y-67930696D01*
X83066542Y-67836541D01*
X83077849Y-67801784D01*
X83092968Y-67755637D01*
X83090230Y-67719587D01*
X83063209Y-67688579D01*
X83005474Y-67657562D01*
X82910599Y-67621483D01*
X82802188Y-67585103D01*
X82581300Y-67512700D01*
X81920900Y-67515560D01*
X81672034Y-67518045D01*
X81465443Y-67523964D01*
X81292651Y-67534558D01*
X81145179Y-67551069D01*
X81014551Y-67574737D01*
X80892289Y-67606804D01*
X80769917Y-67648511D01*
X80638956Y-67701099D01*
X80631233Y-67704375D01*
X80492656Y-67768452D01*
X80373474Y-67833437D01*
X80278862Y-67895392D01*
X80213994Y-67950377D01*
X80184044Y-67994454D01*
X80194187Y-68023684D01*
X80205105Y-68028734D01*
X80221005Y-68052644D01*
X80217760Y-68060969D01*
X80220024Y-68080651D01*
X80249844Y-68082165D01*
X80287760Y-68066580D01*
X80300211Y-68056429D01*
X80319017Y-68054570D01*
X80334372Y-68094636D01*
X80346125Y-68164379D01*
X80364657Y-68253161D01*
X80399548Y-68376959D01*
X80446784Y-68524252D01*
X80502353Y-68683519D01*
X80562242Y-68843239D01*
X80622439Y-68991891D01*
X80676509Y-69112900D01*
X80729326Y-69211482D01*
X80787647Y-69301839D01*
X80839212Y-69365054D01*
X80841117Y-69366900D01*
X80920913Y-69443100D01*
X81768500Y-69443100D01*
X82098681Y-69328800D01*
X82230647Y-69282582D01*
X82322217Y-69248189D01*
X82381158Y-69221290D01*
X82415237Y-69197556D01*
X82432222Y-69172660D01*
X82439880Y-69142273D01*
X82440504Y-69138300D01*
X82448536Y-69036700D01*
X82289200Y-69036700D01*
X82275445Y-69094988D01*
X82258720Y-69120520D01*
X82209201Y-69145967D01*
X82174900Y-69151000D01*
X82116612Y-69137244D01*
X82091080Y-69120520D01*
X82065633Y-69071000D01*
X82060600Y-69036700D01*
X82074356Y-68978411D01*
X82091080Y-68952880D01*
X82140600Y-68927432D01*
X82174900Y-68922400D01*
X82233189Y-68936155D01*
X82258720Y-68952880D01*
X82284168Y-69002399D01*
X82289200Y-69036700D01*
X82448536Y-69036700D01*
X82451444Y-68999920D01*
X82449260Y-68832493D01*
X82435207Y-68655692D01*
X82410544Y-68489190D01*
X82394241Y-68414400D01*
X82364608Y-68293218D01*
X82361435Y-68278649D01*
X81013135Y-68278649D01*
X81009202Y-68398839D01*
X80984256Y-68502117D01*
X80939004Y-68574917D01*
X80926842Y-68585169D01*
X80853328Y-68613317D01*
X80757248Y-68618468D01*
X80660506Y-68602177D01*
X80585011Y-68565997D01*
X80578481Y-68560450D01*
X80542339Y-68509695D01*
X80500170Y-68424563D01*
X80457622Y-68320117D01*
X80420346Y-68211420D01*
X80393990Y-68113534D01*
X80384200Y-68042460D01*
X80409493Y-67993241D01*
X80485124Y-67941160D01*
X80610729Y-67886436D01*
X80696943Y-67856593D01*
X80766673Y-67842228D01*
X80822382Y-67854812D01*
X80872623Y-67900480D01*
X80925949Y-67985368D01*
X80955135Y-68041812D01*
X80995348Y-68155118D01*
X81013135Y-68278649D01*
X82361435Y-68278649D01*
X82347724Y-68215716D01*
X82343177Y-68176509D01*
X82350557Y-68170210D01*
X82369455Y-68191435D01*
X82378179Y-68203604D01*
X82428615Y-68249174D01*
X82498785Y-68285267D01*
X82502978Y-68286699D01*
X82540313Y-68301468D01*
X82569608Y-68323169D01*
X82596033Y-68360543D01*
X82624761Y-68422331D01*
X82660966Y-68517275D01*
X82694057Y-68609641D01*
X82758418Y-68794777D01*
X82804631Y-68941493D01*
X82833095Y-69058662D01*
X82844209Y-69155158D01*
X82838371Y-69239855D01*
X82815978Y-69321625D01*
X82777431Y-69409342D01*
X82733700Y-69492566D01*
X82666083Y-69624291D01*
X82628992Y-69716350D01*
X82622631Y-69769838D01*
X82647203Y-69785846D01*
X82702912Y-69765467D01*
X82776009Y-69719583D01*
X82844700Y-69659346D01*
X82916872Y-69576949D01*
X82954955Y-69523656D01*
X83002710Y-69440571D01*
X83029942Y-69363890D01*
X83043521Y-69270533D01*
X83047163Y-69213917D01*
X83048120Y-69107313D01*
X83041641Y-69006852D01*
X83030380Y-68939944D01*
X83017977Y-68880420D01*
X83019096Y-68848122D01*
X83022113Y-68846200D01*
X83050488Y-68834237D01*
X83111835Y-68802175D01*
X83195386Y-68755752D01*
X83242316Y-68728837D01*
X83356418Y-68662721D01*
X83476151Y-68593317D01*
X83579169Y-68533581D01*
X83597300Y-68523063D01*
X83673248Y-68481373D01*
X83783263Y-68424088D01*
X83915451Y-68357255D01*
X84057920Y-68286919D01*
X84140038Y-68247161D01*
X84530376Y-68059671D01*
X85163517Y-68059671D01*
X85191242Y-68049646D01*
X85271194Y-68035285D01*
X85318457Y-68033400D01*
X85473834Y-68057300D01*
X85627056Y-68124472D01*
X85767351Y-68228126D01*
X85883949Y-68361468D01*
X85914445Y-68409211D01*
X85953281Y-68484364D01*
X85973884Y-68555039D01*
X85981105Y-68642806D01*
X85981135Y-68705791D01*
X86195334Y-68705791D01*
X86196893Y-68653243D01*
X86194895Y-68618017D01*
X86167244Y-68454010D01*
X86105540Y-68306381D01*
X86003633Y-68162063D01*
X85954099Y-68106453D01*
X85875586Y-68035195D01*
X85777501Y-67964071D01*
X85673333Y-67901054D01*
X85576573Y-67854115D01*
X85500710Y-67831229D01*
X85486670Y-67830200D01*
X85460012Y-67826326D01*
X85453783Y-67806202D01*
X85467078Y-67757078D01*
X85479021Y-67722590D01*
X85574858Y-67399700D01*
X85648514Y-67041348D01*
X85698317Y-66658548D01*
X85722596Y-66262315D01*
X85724786Y-66103000D01*
X85718158Y-65784763D01*
X85699294Y-65432764D01*
X85669686Y-65062152D01*
X85630823Y-64688073D01*
X85584194Y-64325678D01*
X85531290Y-63990114D01*
X85500924Y-63826847D01*
X85443713Y-63573623D01*
X85368119Y-63293815D01*
X85277596Y-62996903D01*
X85175600Y-62692369D01*
X85065586Y-62389693D01*
X84951009Y-62098357D01*
X84835325Y-61827840D01*
X84721988Y-61587624D01*
X84614455Y-61387191D01*
X84607465Y-61375286D01*
X84526605Y-61250821D01*
X84418264Y-61102094D01*
X84289413Y-60937176D01*
X84147023Y-60764142D01*
X83998063Y-60591065D01*
X83849505Y-60426017D01*
X83708318Y-60277072D01*
X83581473Y-60152303D01*
X83475941Y-60059783D01*
X83462751Y-60049470D01*
X83252179Y-59907439D01*
X83005391Y-59773415D01*
X82736951Y-59653994D01*
X82461424Y-59555777D01*
X82240357Y-59495674D01*
X82081746Y-59467602D01*
X81882526Y-59446046D01*
X81652594Y-59432050D01*
X81628800Y-59431125D01*
X81354370Y-59428208D01*
X81120367Y-59442758D01*
X80918837Y-59476755D01*
X80741826Y-59532178D01*
X80581381Y-59611005D01*
X80429547Y-59715216D01*
X80403560Y-59735973D01*
X80258126Y-59854430D01*
X80241334Y-59787525D01*
X80233892Y-59719547D01*
X80233585Y-59615320D01*
X80239390Y-59488738D01*
X80250285Y-59353693D01*
X80265245Y-59224077D01*
X80283249Y-59113783D01*
X80294567Y-59064564D01*
X80320314Y-58982416D01*
X80362160Y-58863781D01*
X80416090Y-58718822D01*
X80478090Y-58557700D01*
X80544148Y-58390579D01*
X80610248Y-58227619D01*
X80672376Y-58078983D01*
X80726519Y-57954834D01*
X80766794Y-57869044D01*
X80900638Y-57630755D01*
X81047033Y-57422354D01*
X81199075Y-57253489D01*
X81223740Y-57230535D01*
X81294411Y-57163564D01*
X81347395Y-57107607D01*
X81373532Y-57072516D01*
X81374800Y-57068028D01*
X81354571Y-57065902D01*
X81300519Y-57084656D01*
X81300519Y-57084656D01*
G37*
X81300519Y-57084656D02*
X81222594Y-57119399D01*
X81130748Y-57165236D01*
X81034932Y-57217274D01*
X80945099Y-57270618D01*
X80892200Y-57305354D01*
X80785985Y-57390377D01*
X80662170Y-57507717D01*
X80530419Y-57646829D01*
X80400398Y-57797168D01*
X80281771Y-57948187D01*
X80209893Y-58049846D01*
X80061287Y-58287082D01*
X79930679Y-58529806D01*
X79809191Y-58795348D01*
X79736987Y-58972819D01*
X79693733Y-59078619D01*
X79656166Y-59161826D01*
X79628306Y-59214116D01*
X79614176Y-59227164D01*
X79614158Y-59227135D01*
X79577377Y-59196350D01*
X79503358Y-59154180D01*
X79403023Y-59105411D01*
X79287290Y-59054829D01*
X79167080Y-59007221D01*
X79053312Y-58967372D01*
X78961800Y-58941218D01*
X78751550Y-58906849D01*
X78504838Y-58893164D01*
X78231184Y-58899254D01*
X77940111Y-58924211D01*
X77641137Y-58967127D01*
X77343786Y-59027093D01*
X77057576Y-59103200D01*
X76967900Y-59131471D01*
X76820022Y-59186655D01*
X76640906Y-59263935D01*
X76441836Y-59357610D01*
X76234097Y-59461983D01*
X76028973Y-59571355D01*
X75837750Y-59680028D01*
X75671711Y-59782303D01*
X75647100Y-59798444D01*
X75356498Y-60003947D01*
X75099394Y-60215046D01*
X74871085Y-60438000D01*
X74666863Y-60679071D01*
X74482024Y-60944518D01*
X74311863Y-61240600D01*
X74151673Y-61573579D01*
X73996750Y-61949713D01*
X73962792Y-62039182D01*
X73788145Y-62551899D01*
X73648610Y-63066661D01*
X73542019Y-63594025D01*
X73466203Y-64144548D01*
X73422380Y-64670338D01*
X73404729Y-65166864D01*
X73414757Y-65635699D01*
X73453665Y-66092504D01*
X73522649Y-66552937D01*
X73593300Y-66903100D01*
X73663931Y-67209984D01*
X73731650Y-67476680D01*
X73799996Y-67713386D01*
X73872508Y-67930304D01*
X73952727Y-68137631D01*
X74044191Y-68345569D01*
X74150440Y-68564317D01*
X74210302Y-68681100D01*
X74374372Y-68989011D01*
X74522649Y-69251289D01*
X74654868Y-69467529D01*
X74770765Y-69637326D01*
X74870075Y-69760278D01*
X74952533Y-69835980D01*
X74977551Y-69851336D01*
X75029001Y-69886185D01*
X75031944Y-69913736D01*
X74985563Y-69935512D01*
X74925729Y-69947749D01*
X74810008Y-69989024D01*
X74710474Y-70066336D01*
X74644038Y-70166426D01*
X74620867Y-70276407D01*
X74626342Y-70413334D01*
X74658724Y-70563445D01*
X74712005Y-70703982D01*
X74786975Y-70834617D01*
X74898418Y-70981981D01*
X75011298Y-71109935D01*
X75112785Y-71223484D01*
X75216867Y-71346782D01*
X75309981Y-71463412D01*
X75367916Y-71541535D01*
X75442613Y-71640356D01*
X75539910Y-71758473D01*
X75646092Y-71879661D01*
X75729226Y-71968964D01*
X75823667Y-72065853D01*
X75891545Y-72131247D01*
X75940832Y-72170902D01*
X75979503Y-72190577D01*
X76015530Y-72196028D01*
X76041757Y-72194628D01*
X76087117Y-72192648D01*
X76119406Y-72203393D01*
X76148141Y-72236084D01*
X76182844Y-72299944D01*
X76211415Y-72358993D01*
X76279110Y-72488528D01*
X76353703Y-72611398D01*
X76429957Y-72721033D01*
X76502633Y-72810866D01*
X76566493Y-72874327D01*
X76616298Y-72904848D01*
X76643216Y-72900451D01*
X76673672Y-72899664D01*
X76704741Y-72912094D01*
X76747937Y-72956647D01*
X76801014Y-73047906D01*
X76862703Y-73183017D01*
X76931736Y-73359126D01*
X77006845Y-73573379D01*
X77030621Y-73645427D01*
X77074708Y-73775023D01*
X77116595Y-73887746D01*
X77152631Y-73974504D01*
X77179161Y-74026202D01*
X77187510Y-74035936D01*
X77223389Y-74039184D01*
X77286872Y-74017273D01*
X77383574Y-73968040D01*
X77426597Y-73943786D01*
X77530406Y-73887492D01*
X77630983Y-73838488D01*
X77711162Y-73804973D01*
X77730625Y-73798592D01*
X77832950Y-73769129D01*
X78111625Y-73964021D01*
X78219164Y-74039895D01*
X78314749Y-74108566D01*
X78388960Y-74163179D01*
X78432376Y-74196881D01*
X78435943Y-74199972D01*
X78463954Y-74230174D01*
X78455782Y-74251317D01*
X78410543Y-74276844D01*
X78357534Y-74312910D01*
X78285555Y-74373750D01*
X78209762Y-74446509D01*
X78206362Y-74450004D01*
X78091934Y-74554563D01*
X77953041Y-74661277D01*
X77807152Y-74757957D01*
X77671739Y-74832413D01*
X77634138Y-74849276D01*
X77559798Y-74875425D01*
X77443619Y-74910195D01*
X77293456Y-74951673D01*
X77117163Y-74997942D01*
X76922597Y-75047087D01*
X76717613Y-75097191D01*
X76510067Y-75146338D01*
X76307812Y-75192614D01*
X76118706Y-75234102D01*
X75950603Y-75268886D01*
X75811358Y-75295050D01*
X75794518Y-75297933D01*
X75589740Y-75335054D01*
X75430115Y-75370470D01*
X75310127Y-75406163D01*
X75224265Y-75444114D01*
X75167014Y-75486305D01*
X75132861Y-75534719D01*
X75132287Y-75535956D01*
X75106096Y-75577092D01*
X75054694Y-75646001D01*
X74986194Y-75732111D01*
X74928354Y-75801768D01*
X74797037Y-75972455D01*
X74655384Y-76184224D01*
X74507358Y-76429408D01*
X74356922Y-76700343D01*
X74208039Y-76989365D01*
X74064672Y-77288807D01*
X73930786Y-77591006D01*
X73810343Y-77888296D01*
X73717017Y-78144441D01*
X73604546Y-78472800D01*
X79191368Y-78472800D01*
X79178300Y-78415650D01*
X79138902Y-78233954D01*
X79095194Y-78016437D01*
X79049404Y-77775618D01*
X79003761Y-77524016D01*
X78960493Y-77274153D01*
X78921830Y-77038548D01*
X78890000Y-76829721D01*
X78870482Y-76686603D01*
X78849512Y-76516543D01*
X78834120Y-76378367D01*
X78823869Y-76259769D01*
X78818320Y-76148442D01*
X78817034Y-76032081D01*
X78819573Y-75898380D01*
X78825500Y-75735032D01*
X78831556Y-75593578D01*
X78839278Y-75427288D01*
X78846965Y-75278691D01*
X78854177Y-75155062D01*
X78860472Y-75063673D01*
X78865410Y-75011799D01*
X78867374Y-75002759D01*
X78885144Y-75016562D01*
X78920419Y-75062930D01*
X78953774Y-75113380D01*
X79017124Y-75203675D01*
X79103693Y-75313122D01*
X79203888Y-75430957D01*
X79308112Y-75546415D01*
X79406772Y-75648731D01*
X79490273Y-75727141D01*
X79527485Y-75757067D01*
X79648363Y-75826362D01*
X79784661Y-75875695D01*
X79917631Y-75899588D01*
X80006726Y-75897082D01*
X80083101Y-75877177D01*
X80180384Y-75841675D01*
X80258082Y-75807357D01*
X80352572Y-75756652D01*
X80477141Y-75682701D01*
X80621048Y-75592497D01*
X80773549Y-75493034D01*
X80923904Y-75391302D01*
X81061371Y-75294295D01*
X81164705Y-75217186D01*
X81239906Y-75159675D01*
X81298054Y-75116631D01*
X81328960Y-75095556D01*
X81331234Y-75094600D01*
X81330989Y-75118386D01*
X81323023Y-75184869D01*
X81308523Y-75286731D01*
X81288674Y-75416654D01*
X81264663Y-75567322D01*
X81237677Y-75731417D01*
X81208901Y-75901623D01*
X81179522Y-76070621D01*
X81150727Y-76231096D01*
X81123701Y-76375730D01*
X81122582Y-76381559D01*
X81064279Y-76667529D01*
X80996631Y-76970144D01*
X80923090Y-77275468D01*
X80847106Y-77569566D01*
X80772134Y-77838504D01*
X80715018Y-78026758D01*
X80676904Y-78152050D01*
X80646175Y-78263517D01*
X80625552Y-78350476D01*
X80617752Y-78402246D01*
X80618014Y-78407758D01*
X80625500Y-78460100D01*
X84098950Y-78466540D01*
X84514628Y-78467200D01*
X84916109Y-78467621D01*
X85300485Y-78467810D01*
X85664849Y-78467776D01*
X86006292Y-78467525D01*
X86321906Y-78467065D01*
X86608784Y-78466403D01*
X86864017Y-78465548D01*
X87084698Y-78464506D01*
X87267919Y-78463286D01*
X87410771Y-78461894D01*
X87510347Y-78460338D01*
X87563739Y-78458626D01*
X87572400Y-78457551D01*
X87558798Y-78431986D01*
X87521594Y-78373028D01*
X87466188Y-78288987D01*
X87397985Y-78188174D01*
X87385060Y-78169317D01*
X87296109Y-78036867D01*
X87201112Y-77890633D01*
X87112801Y-77750444D01*
X87056490Y-77657606D01*
X86934507Y-77457825D01*
X86817725Y-77279164D01*
X86710246Y-77127354D01*
X86616175Y-77008127D01*
X86539617Y-76927212D01*
X86523706Y-76913650D01*
X86459693Y-76869179D01*
X86394669Y-76843652D01*
X86308351Y-76830466D01*
X86257006Y-76826789D01*
X86147779Y-76815418D01*
X86079410Y-76795206D01*
X86048400Y-76771798D01*
X86017195Y-76734779D01*
X85961596Y-76668668D01*
X85889860Y-76583288D01*
X85820981Y-76501252D01*
X85722512Y-76384884D01*
X85613852Y-76257974D01*
X85511672Y-76139934D01*
X85463722Y-76085200D01*
X85389394Y-75998408D01*
X85293890Y-75883234D01*
X85186946Y-75751614D01*
X85078294Y-75615479D01*
X85018287Y-75539100D01*
X84752427Y-75212759D01*
X84500736Y-74933600D01*
X84261891Y-74700426D01*
X84034570Y-74512038D01*
X83817451Y-74367238D01*
X83682612Y-74300644D01*
X81595341Y-74300644D01*
X81594690Y-74302775D01*
X81580192Y-74343742D01*
X81552158Y-74419718D01*
X81515205Y-74518266D01*
X81489325Y-74586600D01*
X81449675Y-74691261D01*
X81416510Y-74779482D01*
X81394213Y-74839568D01*
X81387608Y-74858044D01*
X81362083Y-74884893D01*
X81299654Y-74933410D01*
X81207064Y-74999271D01*
X81091057Y-75078152D01*
X80958376Y-75165727D01*
X80815763Y-75257674D01*
X80669962Y-75349667D01*
X80527716Y-75437384D01*
X80395768Y-75516499D01*
X80280861Y-75582688D01*
X80189738Y-75631628D01*
X80155600Y-75648097D01*
X80031160Y-75686491D01*
X79892798Y-75700988D01*
X79762087Y-75690579D01*
X79691235Y-75669888D01*
X79631326Y-75631699D01*
X79548515Y-75561138D01*
X79450474Y-75466401D01*
X79344874Y-75355685D01*
X79239386Y-75237188D01*
X79141680Y-75119107D01*
X79059428Y-75009640D01*
X79024207Y-74957102D01*
X78963738Y-74858092D01*
X78927428Y-74786208D01*
X78909956Y-74727203D01*
X78906001Y-74666831D01*
X78906824Y-74642775D01*
X78915852Y-74523625D01*
X78931941Y-74443090D01*
X78959767Y-74389040D01*
X79004002Y-74349346D01*
X79024992Y-74336147D01*
X79110213Y-74285866D01*
X79179551Y-74449013D01*
X79234961Y-74565812D01*
X79282078Y-74636720D01*
X79319789Y-74660285D01*
X79335695Y-74652972D01*
X79343286Y-74615845D01*
X79338496Y-74539928D01*
X79323207Y-74435186D01*
X79299302Y-74311585D01*
X79268665Y-74179092D01*
X79233178Y-74047670D01*
X79203281Y-73952135D01*
X79168334Y-73844920D01*
X79141797Y-73756791D01*
X79126599Y-73697943D01*
X79124710Y-73678624D01*
X79140981Y-73675983D01*
X79179140Y-73683291D01*
X79244425Y-73702175D01*
X79342073Y-73734265D01*
X79477320Y-73781188D01*
X79634900Y-73837225D01*
X79965100Y-73955468D01*
X80295300Y-73943563D01*
X80523774Y-73927290D01*
X80718274Y-73894184D01*
X80893847Y-73840728D01*
X81065137Y-73763615D01*
X81117905Y-73739261D01*
X81145174Y-73732408D01*
X81146200Y-73733797D01*
X81141301Y-73763453D01*
X81128735Y-73826434D01*
X81118126Y-73876806D01*
X81105164Y-73970572D01*
X81101980Y-74073620D01*
X81107429Y-74173623D01*
X81120369Y-74258255D01*
X81139653Y-74315188D01*
X81160438Y-74332600D01*
X81192764Y-74310969D01*
X81211687Y-74270229D01*
X81233494Y-74225048D01*
X81277666Y-74216269D01*
X81294721Y-74218439D01*
X81361349Y-74228128D01*
X81449689Y-74240054D01*
X81485210Y-74244635D01*
X81559400Y-74257371D01*
X81592783Y-74274274D01*
X81595341Y-74300644D01*
X83682612Y-74300644D01*
X83613941Y-74266729D01*
X83472445Y-74223691D01*
X83294496Y-74191068D01*
X83093522Y-74169652D01*
X82882949Y-74160232D01*
X82676204Y-74163598D01*
X82486713Y-74180541D01*
X82398382Y-74195193D01*
X82342149Y-74201189D01*
X82309444Y-74181692D01*
X82281069Y-74125971D01*
X82245007Y-74040500D01*
X82400454Y-73897884D01*
X82486294Y-73813329D01*
X82586627Y-73705733D01*
X82685375Y-73592627D01*
X82729314Y-73539258D01*
X82820140Y-73430777D01*
X82902684Y-73340828D01*
X82971733Y-73274263D01*
X83022074Y-73235938D01*
X83048492Y-73230706D01*
X83051200Y-73239566D01*
X83069489Y-73282654D01*
X83117520Y-73340367D01*
X83185042Y-73404548D01*
X83261807Y-73467041D01*
X83337562Y-73519690D01*
X83402057Y-73554337D01*
X83445042Y-73562825D01*
X83452431Y-73558835D01*
X83458629Y-73530414D01*
X83466801Y-73461920D01*
X83475831Y-73363987D01*
X83483696Y-73260561D01*
X83499290Y-73114375D01*
X83527084Y-72933133D01*
X83564369Y-72730342D01*
X83608437Y-72519509D01*
X83656580Y-72314142D01*
X83706089Y-72127747D01*
X83721086Y-72076609D01*
X83749535Y-72003954D01*
X83797405Y-71903743D01*
X83857038Y-71791399D01*
X83898565Y-71719038D01*
X83966935Y-71597895D01*
X84033449Y-71469851D01*
X84088149Y-71354501D01*
X84109353Y-71304178D01*
X84153512Y-71202464D01*
X84197243Y-71133045D01*
X84252782Y-71079017D01*
X84294291Y-71048713D01*
X84416219Y-70959493D01*
X84563627Y-70842558D01*
X84726571Y-70706600D01*
X84895105Y-70560315D01*
X85059284Y-70412396D01*
X85209163Y-70271537D01*
X85334797Y-70146431D01*
X85374425Y-70104490D01*
X85592693Y-69861508D01*
X85773080Y-69644984D01*
X85918031Y-69450485D01*
X86029994Y-69273581D01*
X86111415Y-69109837D01*
X86164741Y-68954821D01*
X86192418Y-68804100D01*
X86195334Y-68705791D01*
X85981135Y-68705791D01*
X85969496Y-68847222D01*
X85935805Y-68982971D01*
X85875669Y-69124644D01*
X85784694Y-69283843D01*
X85730782Y-69366900D01*
X85615967Y-69523934D01*
X85468481Y-69702619D01*
X85296446Y-69894327D01*
X85107982Y-70090431D01*
X84911210Y-70282303D01*
X84714251Y-70461315D01*
X84643149Y-70522399D01*
X84529612Y-70618219D01*
X84430562Y-70701691D01*
X84352072Y-70767706D01*
X84300215Y-70811157D01*
X84281064Y-70826934D01*
X84281062Y-70826934D01*
X84284879Y-70804134D01*
X84296813Y-70742697D01*
X84314682Y-70653732D01*
X84324596Y-70605150D01*
X84368457Y-70384222D01*
X84413197Y-70146098D01*
X84457401Y-69899398D01*
X84499651Y-69652743D01*
X84538532Y-69414754D01*
X84572627Y-69194051D01*
X84600519Y-68999254D01*
X84620792Y-68838986D01*
X84630313Y-68744600D01*
X84645783Y-68581833D01*
X84665235Y-68459953D01*
X84694435Y-68369077D01*
X84739147Y-68299323D01*
X84805139Y-68240809D01*
X84898175Y-68183653D01*
X84984020Y-68138370D01*
X85100801Y-68082349D01*
X85163517Y-68059671D01*
X84530376Y-68059671D01*
X84512755Y-68306885D01*
X84485913Y-68601488D01*
X84445519Y-68915546D01*
X84390136Y-69259179D01*
X84334996Y-69557400D01*
X84301785Y-69730530D01*
X84267171Y-69913850D01*
X84234341Y-70090292D01*
X84206484Y-70242791D01*
X84195067Y-70306700D01*
X84125185Y-70648212D01*
X84041648Y-70951264D01*
X83940493Y-71227265D01*
X83817753Y-71487622D01*
X83730010Y-71644609D01*
X83616618Y-71824348D01*
X83500504Y-71980590D01*
X83373166Y-72121730D01*
X83226104Y-72256164D01*
X83050818Y-72392285D01*
X82838805Y-72538491D01*
X82797200Y-72565799D01*
X82602690Y-72688804D01*
X82386066Y-72819032D01*
X82154598Y-72952634D01*
X81915555Y-73085762D01*
X81676208Y-73214569D01*
X81443826Y-73335206D01*
X81225679Y-73443826D01*
X81029036Y-73536580D01*
X80861168Y-73609621D01*
X80735629Y-73657024D01*
X80627861Y-73686143D01*
X80492835Y-73712729D01*
X80344929Y-73734998D01*
X80198521Y-73751169D01*
X80067989Y-73759457D01*
X79967713Y-73758079D01*
X79943821Y-73755217D01*
X79890270Y-73739603D01*
X79804848Y-73707225D01*
X79701373Y-73663529D01*
X79636057Y-73633995D01*
X79495440Y-73570466D01*
X79364042Y-73515529D01*
X79231505Y-73465639D01*
X79087475Y-73417254D01*
X78921596Y-73366829D01*
X78723511Y-73310820D01*
X78568031Y-73268517D01*
X78334825Y-73203481D01*
X78072854Y-73126593D01*
X77795168Y-73041959D01*
X77514820Y-72953687D01*
X77244860Y-72865886D01*
X76998339Y-72782661D01*
X76793368Y-72709978D01*
X76680239Y-72667572D01*
X76603176Y-72634021D01*
X76550333Y-72601299D01*
X76509863Y-72561378D01*
X76469921Y-72506230D01*
X76451628Y-72478400D01*
X76394934Y-72380112D01*
X76326018Y-72242611D01*
X76248707Y-72074879D01*
X76193205Y-71946779D01*
X76022063Y-71946779D01*
X76007253Y-71941544D01*
X75970294Y-71906930D01*
X75906192Y-71839838D01*
X75861890Y-71792600D01*
X75767008Y-71686032D01*
X75668556Y-71566899D01*
X75583264Y-71455696D01*
X75558790Y-71421245D01*
X75489971Y-71328484D01*
X75398326Y-71214703D01*
X75296521Y-71095229D01*
X75209704Y-70998761D01*
X75043815Y-70804531D01*
X74924473Y-70629280D01*
X74851754Y-70473171D01*
X74825734Y-70336368D01*
X74846490Y-70219035D01*
X74846794Y-70218298D01*
X74878680Y-70166322D01*
X74931999Y-70130329D01*
X75007060Y-70103578D01*
X75135586Y-70073135D01*
X75238009Y-70069672D01*
X75331601Y-70093729D01*
X75378394Y-70115176D01*
X75446547Y-70159136D01*
X75481539Y-70212770D01*
X75493931Y-70260729D01*
X75508517Y-70321697D01*
X75535170Y-70417995D01*
X75570166Y-70536668D01*
X75609786Y-70664763D01*
X75611974Y-70671662D01*
X75648438Y-70789922D01*
X75677162Y-70889752D01*
X75695599Y-70961776D01*
X75701203Y-70996615D01*
X75700645Y-70998222D01*
X75679741Y-70985327D01*
X75630006Y-70942142D01*
X75558059Y-70874762D01*
X75470521Y-70789283D01*
X75433174Y-70751943D01*
X75340211Y-70661113D01*
X75258685Y-70586548D01*
X75195603Y-70534276D01*
X75157974Y-70510321D01*
X75151754Y-70509928D01*
X75127678Y-70552376D01*
X75143876Y-70625221D01*
X75200399Y-70728658D01*
X75213608Y-70748684D01*
X75274788Y-70833015D01*
X75360462Y-70942529D01*
X75460557Y-71065183D01*
X75565000Y-71188932D01*
X75663717Y-71301733D01*
X75746637Y-71391542D01*
X75776186Y-71421318D01*
X75831262Y-71487424D01*
X75884883Y-71579997D01*
X75940875Y-71706726D01*
X76003063Y-71875297D01*
X76005209Y-71881500D01*
X76019717Y-71925731D01*
X76022063Y-71946779D01*
X76193205Y-71946779D01*
X76166828Y-71885901D01*
X76084211Y-71684660D01*
X76004683Y-71480141D01*
X75932073Y-71281326D01*
X75893250Y-71168001D01*
X75836973Y-71006331D01*
X75772585Y-70833320D01*
X75707248Y-70667556D01*
X75648126Y-70527626D01*
X75636573Y-70501954D01*
X75586764Y-70390897D01*
X75545872Y-70295854D01*
X75518039Y-70226734D01*
X75507410Y-70193445D01*
X75507400Y-70193102D01*
X75524588Y-70168536D01*
X75566536Y-70172733D01*
X75618825Y-70202126D01*
X75646590Y-70227548D01*
X75706361Y-70268255D01*
X75798223Y-70305411D01*
X75903524Y-70332989D01*
X76003614Y-70344963D01*
X76010301Y-70345064D01*
X76048327Y-70369402D01*
X76095235Y-70439632D01*
X76124186Y-70497244D01*
X76190882Y-70614398D01*
X76259014Y-70681814D01*
X76268975Y-70687479D01*
X76366562Y-70720005D01*
X76462448Y-70722023D01*
X76539729Y-70694163D01*
X76560052Y-70676600D01*
X76588709Y-70623824D01*
X76574315Y-70585913D01*
X76528251Y-70573305D01*
X76437328Y-70548573D01*
X76358102Y-70476802D01*
X76293515Y-70360993D01*
X76277111Y-70317162D01*
X76245719Y-70213105D01*
X76209843Y-70075862D01*
X76173444Y-69922342D01*
X76140481Y-69769450D01*
X76114915Y-69634096D01*
X76109852Y-69603122D01*
X76118157Y-69542192D01*
X76159413Y-69509725D01*
X76223192Y-69507743D01*
X76299071Y-69538267D01*
X76330813Y-69560295D01*
X76379071Y-69593588D01*
X76407678Y-69604654D01*
X76409201Y-69603866D01*
X76401243Y-69579388D01*
X76371214Y-69523055D01*
X76324917Y-69445482D01*
X76306924Y-69416820D01*
X76254776Y-69331682D01*
X76215307Y-69261427D01*
X76195150Y-69218064D01*
X76193861Y-69212155D01*
X76214857Y-69191113D01*
X76270079Y-69156452D01*
X76347014Y-69114455D01*
X76433148Y-69071402D01*
X76515969Y-69033576D01*
X76582962Y-69007256D01*
X76619295Y-68998600D01*
X76639094Y-69007009D01*
X76654839Y-69037934D01*
X76668993Y-69099915D01*
X76684022Y-69201494D01*
X76688936Y-69239900D01*
X76712640Y-69362864D01*
X76754447Y-69513608D01*
X76810019Y-69681174D01*
X76875016Y-69854602D01*
X76945102Y-70022934D01*
X77015937Y-70175212D01*
X77083183Y-70300477D01*
X77142502Y-70387769D01*
X77144135Y-70389713D01*
X77214496Y-70472726D01*
X77611898Y-70458913D01*
X77784592Y-70452378D01*
X77916206Y-70445464D01*
X78016446Y-70436719D01*
X78095023Y-70424690D01*
X78161643Y-70407925D01*
X78226015Y-70384974D01*
X78291226Y-70357309D01*
X78367319Y-70320244D01*
X78408924Y-70285798D01*
X78429451Y-70239665D01*
X78436996Y-70201839D01*
X78448506Y-70115330D01*
X78448607Y-70111783D01*
X78221603Y-70111783D01*
X78184231Y-70165195D01*
X78114819Y-70191601D01*
X78098200Y-70192400D01*
X78036258Y-70181311D01*
X78001681Y-70161919D01*
X77978210Y-70114423D01*
X77971200Y-70065400D01*
X77990363Y-69989214D01*
X78039459Y-69945977D01*
X78105901Y-69940840D01*
X78177100Y-69978958D01*
X78178750Y-69980436D01*
X78221565Y-70045488D01*
X78221603Y-70111783D01*
X78448607Y-70111783D01*
X78450765Y-70036288D01*
X78442149Y-69952261D01*
X78421035Y-69850797D01*
X78385798Y-69719442D01*
X78364490Y-69645859D01*
X78306981Y-69460376D01*
X78252200Y-69310971D01*
X78217827Y-69236445D01*
X77203870Y-69236445D01*
X77194649Y-69296460D01*
X77171414Y-69344157D01*
X77150532Y-69359642D01*
X77119507Y-69369627D01*
X77090851Y-69392720D01*
X77032482Y-69418030D01*
X76950603Y-69411824D01*
X76860041Y-69375919D01*
X76836305Y-69361553D01*
X76792475Y-69310456D01*
X76759956Y-69218623D01*
X76751634Y-69180734D01*
X76734042Y-69094704D01*
X76718881Y-69025315D01*
X76711934Y-68996957D01*
X76719762Y-68967982D01*
X76765268Y-68940053D01*
X76836565Y-68914407D01*
X76947189Y-68883578D01*
X77022631Y-68874738D01*
X77073860Y-68888645D01*
X77111845Y-68926060D01*
X77117140Y-68933841D01*
X77163812Y-69028462D01*
X77194142Y-69135971D01*
X77203870Y-69236445D01*
X78217827Y-69236445D01*
X78193540Y-69183788D01*
X78124391Y-69064970D01*
X78038146Y-68940660D01*
X78010478Y-68903572D01*
X77945507Y-68816684D01*
X77908007Y-68761855D01*
X77894755Y-68730663D01*
X77902531Y-68714684D01*
X77928113Y-68705496D01*
X77934144Y-68703968D01*
X77981242Y-68682873D01*
X77996600Y-68661413D01*
X77985616Y-68647154D01*
X77979888Y-68651246D01*
X77949617Y-68651349D01*
X77924964Y-68636429D01*
X77877013Y-68619988D01*
X77788739Y-68610840D01*
X77670043Y-68608622D01*
X77530821Y-68612967D01*
X77380971Y-68623511D01*
X77230392Y-68639889D01*
X77088982Y-68661736D01*
X77053477Y-68668561D01*
X76871028Y-68710307D01*
X76692210Y-68760249D01*
X76522396Y-68815925D01*
X76366959Y-68874877D01*
X76231269Y-68934643D01*
X76120698Y-68992764D01*
X76040620Y-69046779D01*
X75996404Y-69094229D01*
X75993424Y-69132653D01*
X76008287Y-69147213D01*
X76034460Y-69178380D01*
X76070930Y-69238109D01*
X76087895Y-69270062D01*
X76141813Y-69376425D01*
X76060349Y-69384362D01*
X75982500Y-69411056D01*
X75941556Y-69459130D01*
X75926439Y-69492679D01*
X75918973Y-69532619D01*
X75919429Y-69589148D01*
X75928080Y-69672461D01*
X75945194Y-69792754D01*
X75951538Y-69834436D01*
X75970438Y-69971837D01*
X75980449Y-70077318D01*
X75981100Y-70144343D01*
X75975375Y-70165254D01*
X75947251Y-70162280D01*
X75884436Y-70143379D01*
X75798706Y-70113149D01*
X75701839Y-70076187D01*
X75605613Y-70037089D01*
X75521805Y-70000452D01*
X75462193Y-69970875D01*
X75441017Y-69956682D01*
X75443993Y-69931266D01*
X75457545Y-69871394D01*
X75473057Y-69811365D01*
X75494971Y-69661827D01*
X75491869Y-69477195D01*
X75465098Y-69265799D01*
X75416005Y-69035967D01*
X75345939Y-68796030D01*
X75278665Y-68609940D01*
X75170805Y-68335581D01*
X75220997Y-68279740D01*
X75510087Y-67941178D01*
X75755629Y-67616557D01*
X75961221Y-67300912D01*
X76068825Y-67110143D01*
X76119502Y-67016510D01*
X76160188Y-66944808D01*
X76186015Y-66903396D01*
X76192713Y-66897384D01*
X76180500Y-66933757D01*
X76143156Y-67014270D01*
X76080682Y-67138917D01*
X75993083Y-67307693D01*
X75880361Y-67520591D01*
X75762179Y-67741104D01*
X75685873Y-67884107D01*
X75617179Y-68015198D01*
X75560061Y-68126619D01*
X75518487Y-68210612D01*
X75496423Y-68259416D01*
X75494621Y-68264526D01*
X75463501Y-68332070D01*
X75436959Y-68369950D01*
X75415393Y-68405258D01*
X75427615Y-68414400D01*
X75475526Y-68401434D01*
X75557642Y-68365674D01*
X75665455Y-68311825D01*
X75790458Y-68244592D01*
X75924143Y-68168679D01*
X76058002Y-68088793D01*
X76183527Y-68009639D01*
X76290149Y-67937388D01*
X76450598Y-67823316D01*
X76627623Y-67852551D01*
X76735957Y-67874412D01*
X76868479Y-67906857D01*
X77001348Y-67943923D01*
X77038674Y-67955356D01*
X77151834Y-67988927D01*
X77257279Y-68016718D01*
X77338573Y-68034534D01*
X77363420Y-68038233D01*
X77438288Y-68037037D01*
X77482237Y-68018943D01*
X77487897Y-67989239D01*
X77465732Y-67964821D01*
X77442279Y-67943918D01*
X77461580Y-67943815D01*
X77482250Y-67948725D01*
X77527227Y-67950157D01*
X77539400Y-67921159D01*
X77531378Y-67898357D01*
X77503661Y-67873425D01*
X77450780Y-67843753D01*
X77367260Y-67806731D01*
X77247632Y-67759750D01*
X77086422Y-67700199D01*
X77043645Y-67684724D01*
X76937226Y-67645272D01*
X76851072Y-67611311D01*
X76794836Y-67586784D01*
X76777762Y-67576200D01*
X76795659Y-67555728D01*
X76844966Y-67508269D01*
X76918808Y-67440229D01*
X77010311Y-67358012D01*
X77042865Y-67329168D01*
X77344412Y-67040234D01*
X77623449Y-66727839D01*
X77871819Y-66402120D01*
X77890716Y-66372458D01*
X76388839Y-66372458D01*
X76384867Y-66401912D01*
X76371626Y-66454730D01*
X76346392Y-66531491D01*
X76313857Y-66620334D01*
X76278714Y-66709396D01*
X76245655Y-66786814D01*
X76219372Y-66840727D01*
X76204559Y-66859271D01*
X76204078Y-66858944D01*
X76208317Y-66832908D01*
X76226965Y-66770488D01*
X76256554Y-66682849D01*
X76273525Y-66635378D01*
X76322765Y-66501369D01*
X76357174Y-66411726D01*
X76378494Y-66362796D01*
X76388468Y-66350924D01*
X76388839Y-66372458D01*
X77890716Y-66372458D01*
X78081366Y-66073212D01*
X78141875Y-65963300D01*
X78188746Y-65876487D01*
X78225395Y-65812398D01*
X78246631Y-65779921D01*
X78249859Y-65778488D01*
X78239263Y-65824757D01*
X78207088Y-65910524D01*
X78155748Y-66030514D01*
X78087658Y-66179449D01*
X78005232Y-66352052D01*
X77910884Y-66543045D01*
X77807029Y-66747152D01*
X77803900Y-66753214D01*
X77724100Y-66908907D01*
X77652705Y-67050470D01*
X77592887Y-67171423D01*
X77547822Y-67265286D01*
X77520684Y-67325579D01*
X77514000Y-67345026D01*
X77526758Y-67364912D01*
X77564717Y-67341388D01*
X77627406Y-67274879D01*
X77714354Y-67165811D01*
X77719028Y-67159647D01*
X77805597Y-67053463D01*
X77907154Y-66940824D01*
X78002301Y-66845418D01*
X78005831Y-66842147D01*
X78245119Y-66614224D01*
X78457491Y-66395274D01*
X78659373Y-66167774D01*
X78818215Y-65975491D01*
X79005524Y-65734700D01*
X78276000Y-65734700D01*
X78263300Y-65747400D01*
X78250600Y-65734700D01*
X78263300Y-65722000D01*
X78276000Y-65734700D01*
X79005524Y-65734700D01*
X79044793Y-65684220D01*
X79237133Y-65414355D01*
X79401045Y-65156046D01*
X79542338Y-64899443D01*
X79666822Y-64634697D01*
X79780306Y-64351957D01*
X79787947Y-64331350D01*
X79828122Y-64226187D01*
X79863140Y-64141378D01*
X79888817Y-64086638D01*
X79900051Y-64071000D01*
X79918349Y-64092037D01*
X79951376Y-64147383D01*
X79992218Y-64225386D01*
X79995101Y-64231210D01*
X80073142Y-64364773D01*
X80181945Y-64516742D01*
X80311581Y-64675108D01*
X80452121Y-64827864D01*
X80593637Y-64963004D01*
X80616883Y-64983196D01*
X80772956Y-65107713D01*
X80963204Y-65245229D01*
X81175517Y-65387807D01*
X81397786Y-65527508D01*
X81617901Y-65656394D01*
X81769048Y-65738454D01*
X82091014Y-65906509D01*
X81815457Y-66050124D01*
X81571109Y-66186424D01*
X81328899Y-66338232D01*
X81097847Y-66498928D01*
X80886973Y-66661894D01*
X80705299Y-66820510D01*
X80561846Y-66968155D01*
X80557476Y-66973220D01*
X80502796Y-67038269D01*
X80475787Y-67074977D01*
X80478691Y-67082464D01*
X80513750Y-67059852D01*
X80583207Y-67006260D01*
X80687653Y-66922150D01*
X80773230Y-66855391D01*
X80823052Y-66822503D01*
X80836321Y-66823140D01*
X80812238Y-66856954D01*
X80750002Y-66923598D01*
X80732241Y-66941502D01*
X80671913Y-67005967D01*
X80631973Y-67056808D01*
X80620310Y-67083862D01*
X80620951Y-67084816D01*
X80646463Y-67077427D01*
X80698972Y-67043120D01*
X80767763Y-66989014D01*
X80777281Y-66980950D01*
X80858503Y-66913776D01*
X80903409Y-66882050D01*
X80911982Y-66885772D01*
X80884202Y-66924943D01*
X80838769Y-66978416D01*
X80797646Y-67030342D01*
X80780569Y-67062763D01*
X80784033Y-67068200D01*
X80817488Y-67051130D01*
X80853911Y-67017609D01*
X80942220Y-66937398D01*
X81071665Y-66844023D01*
X81235496Y-66741271D01*
X81308609Y-66699900D01*
X81222400Y-66699900D01*
X81209700Y-66712600D01*
X81197000Y-66699900D01*
X81209700Y-66687200D01*
X81222400Y-66699900D01*
X81308609Y-66699900D01*
X81426961Y-66632931D01*
X81639309Y-66522790D01*
X81865788Y-66414636D01*
X82073904Y-66323526D01*
X81886766Y-66323526D01*
X81851515Y-66346092D01*
X81783319Y-66383986D01*
X81688447Y-66433564D01*
X81679600Y-66438074D01*
X81567678Y-66496046D01*
X81467020Y-66550015D01*
X81389526Y-66593490D01*
X81350099Y-66617804D01*
X81295403Y-66652561D01*
X81274450Y-66659058D01*
X81291087Y-66638344D01*
X81324000Y-66610691D01*
X81380487Y-66573101D01*
X81468184Y-66522256D01*
X81573441Y-66465259D01*
X81682608Y-66409212D01*
X81782033Y-66361219D01*
X81858068Y-66328381D01*
X81882800Y-66319933D01*
X81886766Y-66323526D01*
X82073904Y-66323526D01*
X82099646Y-66312257D01*
X82143150Y-66294264D01*
X82208585Y-66266659D01*
X82052444Y-66266659D01*
X82035200Y-66280800D01*
X81988896Y-66302293D01*
X81971700Y-66305422D01*
X81967157Y-66294940D01*
X81984400Y-66280800D01*
X82030705Y-66259306D01*
X82047900Y-66256177D01*
X82052444Y-66266659D01*
X82208585Y-66266659D01*
X82255643Y-66246807D01*
X82274181Y-66238466D01*
X82128334Y-66238466D01*
X82124847Y-66253566D01*
X82111400Y-66255400D01*
X82090493Y-66246106D01*
X82094467Y-66238466D01*
X82124611Y-66235426D01*
X82128334Y-66238466D01*
X82274181Y-66238466D01*
X82330636Y-66213066D01*
X82204534Y-66213066D01*
X82201047Y-66228166D01*
X82187600Y-66230000D01*
X82166693Y-66220706D01*
X82170667Y-66213066D01*
X82200811Y-66210026D01*
X82204534Y-66213066D01*
X82330636Y-66213066D01*
X82348746Y-66204918D01*
X82375010Y-66191900D01*
X82289200Y-66191900D01*
X82276500Y-66204600D01*
X82263800Y-66191900D01*
X82276500Y-66179200D01*
X82289200Y-66191900D01*
X82375010Y-66191900D01*
X82413563Y-66172792D01*
X82441202Y-66154624D01*
X82441600Y-66153503D01*
X82462031Y-66141100D01*
X81959000Y-66141100D01*
X81946300Y-66153800D01*
X81933600Y-66141100D01*
X81946300Y-66128400D01*
X81959000Y-66141100D01*
X82462031Y-66141100D01*
X82464443Y-66139636D01*
X82524082Y-66121632D01*
X82551050Y-66115700D01*
X82009800Y-66115700D01*
X81997100Y-66128400D01*
X81984400Y-66115700D01*
X81997100Y-66103000D01*
X82009800Y-66115700D01*
X82551050Y-66115700D01*
X82600350Y-66104856D01*
X82691687Y-66086766D01*
X82767925Y-66070360D01*
X82806107Y-66060928D01*
X82837035Y-66042022D01*
X82835744Y-66039500D01*
X82314600Y-66039500D01*
X82301900Y-66052200D01*
X82289200Y-66039500D01*
X82301900Y-66026800D01*
X82314600Y-66039500D01*
X82835744Y-66039500D01*
X82826340Y-66021130D01*
X82782609Y-66003993D01*
X82714427Y-65996351D01*
X82709459Y-65996320D01*
X82651333Y-65994426D01*
X82644945Y-65990317D01*
X82282797Y-65990317D01*
X82246066Y-66014761D01*
X82183091Y-66047227D01*
X82114500Y-66078067D01*
X82060917Y-66097636D01*
X82047900Y-66100171D01*
X82045002Y-66091275D01*
X82067190Y-66075431D01*
X82119763Y-66048208D01*
X82181574Y-66020630D01*
X82238559Y-65998248D01*
X82276655Y-65986615D01*
X82282797Y-65990317D01*
X82644945Y-65990317D01*
X82636895Y-65985140D01*
X82659074Y-65963050D01*
X82662469Y-65960370D01*
X82688929Y-65936785D01*
X82676724Y-65932448D01*
X82632100Y-65941083D01*
X82580627Y-65948697D01*
X82573485Y-65940874D01*
X82599893Y-65925200D01*
X82441600Y-65925200D01*
X82432307Y-65946107D01*
X82424667Y-65942133D01*
X82421627Y-65911989D01*
X82424667Y-65908266D01*
X82439767Y-65911753D01*
X82441600Y-65925200D01*
X82599893Y-65925200D01*
X82607661Y-65920590D01*
X82680138Y-65890817D01*
X82684809Y-65889097D01*
X82736167Y-65866974D01*
X82751424Y-65853009D01*
X82743841Y-65850789D01*
X82692025Y-65857610D01*
X82624210Y-65876529D01*
X82623731Y-65876696D01*
X82560527Y-65892548D01*
X82517123Y-65893177D01*
X82502796Y-65881416D01*
X82526822Y-65860095D01*
X82532223Y-65857466D01*
X82382334Y-65857466D01*
X82378847Y-65872566D01*
X82365400Y-65874400D01*
X82344493Y-65865106D01*
X82348467Y-65857466D01*
X82378611Y-65854426D01*
X82382334Y-65857466D01*
X82532223Y-65857466D01*
X82543200Y-65852123D01*
X82584994Y-65832611D01*
X82581755Y-65826835D01*
X82530678Y-65829884D01*
X82530500Y-65829898D01*
X82473854Y-65825521D01*
X82460651Y-65804272D01*
X82446840Y-65775988D01*
X82432318Y-65772800D01*
X82403560Y-65753204D01*
X82351469Y-65699335D01*
X82281797Y-65618569D01*
X82200294Y-65518283D01*
X82112711Y-65405855D01*
X82024801Y-65288661D01*
X81942314Y-65174078D01*
X81871001Y-65069483D01*
X81818440Y-64985400D01*
X81824312Y-64980308D01*
X81860911Y-65003291D01*
X81920373Y-65049389D01*
X81922068Y-65050781D01*
X82006619Y-65117394D01*
X82111883Y-65196268D01*
X82216397Y-65271353D01*
X82225700Y-65277840D01*
X82313489Y-65340475D01*
X82389317Y-65397479D01*
X82439990Y-65438849D01*
X82447933Y-65446328D01*
X82523695Y-65505590D01*
X82640320Y-65574861D01*
X82789630Y-65650882D01*
X82963453Y-65730396D01*
X83153611Y-65810143D01*
X83351931Y-65886865D01*
X83550237Y-65957304D01*
X83740353Y-66018201D01*
X83914105Y-66066299D01*
X84063317Y-66098338D01*
X84097095Y-66103637D01*
X84186892Y-66117059D01*
X84254081Y-66128399D01*
X84285584Y-66135429D01*
X84286347Y-66135879D01*
X84294797Y-66161336D01*
X84313667Y-66226890D01*
X84340431Y-66323519D01*
X84372565Y-66442196D01*
X84383885Y-66484536D01*
X84429933Y-66670684D01*
X84462120Y-66837736D01*
X84484315Y-67009495D01*
X84499439Y-67195200D01*
X84512208Y-67390608D01*
X84521438Y-67541175D01*
X84527034Y-67652740D01*
X84528903Y-67731143D01*
X84526949Y-67782227D01*
X84521080Y-67811831D01*
X84511200Y-67825797D01*
X84497215Y-67829964D01*
X84489190Y-67830200D01*
X84434028Y-67840035D01*
X84342961Y-67867003D01*
X84226368Y-67907299D01*
X84094628Y-67957118D01*
X83958120Y-68012652D01*
X83827222Y-68070098D01*
X83798108Y-68083599D01*
X83444903Y-68273281D01*
X83130419Y-68493013D01*
X83102000Y-68515877D01*
X83034813Y-68569499D01*
X82981255Y-68610286D01*
X82959236Y-68625453D01*
X82936655Y-68611003D01*
X82903424Y-68550369D01*
X82861157Y-68446659D01*
X82848822Y-68412839D01*
X82794402Y-68276407D01*
X82745274Y-68185369D01*
X82709049Y-68145854D01*
X82643199Y-68117340D01*
X82556262Y-68097655D01*
X82466490Y-68088836D01*
X82392140Y-68092919D01*
X82356408Y-68106522D01*
X82330446Y-68117516D01*
X82313519Y-68090419D01*
X82304580Y-68052857D01*
X82282554Y-67991821D01*
X82239464Y-67906404D01*
X82183941Y-67813440D01*
X82174121Y-67798450D01*
X82060196Y-67627000D01*
X82164358Y-67627000D01*
X82235410Y-67632267D01*
X82336895Y-67646315D01*
X82455259Y-67666509D01*
X82576949Y-67690215D01*
X82688411Y-67714800D01*
X82776093Y-67737630D01*
X82825272Y-67755429D01*
X82855285Y-67791681D01*
X82892658Y-67867302D01*
X82932640Y-67972326D01*
X82941774Y-67999803D01*
X82985641Y-68123750D01*
X83021382Y-68201612D01*
X83047855Y-68232800D01*
X83063915Y-68216726D01*
X83068422Y-68152802D01*
X83062463Y-68061909D01*
X83055818Y-67930696D01*
X83066542Y-67836541D01*
X83077849Y-67801784D01*
X83092968Y-67755637D01*
X83090230Y-67719587D01*
X83063209Y-67688579D01*
X83005474Y-67657562D01*
X82910599Y-67621483D01*
X82802188Y-67585103D01*
X82581300Y-67512700D01*
X81920900Y-67515560D01*
X81672034Y-67518045D01*
X81465443Y-67523964D01*
X81292651Y-67534558D01*
X81145179Y-67551069D01*
X81014551Y-67574737D01*
X80892289Y-67606804D01*
X80769917Y-67648511D01*
X80638956Y-67701099D01*
X80631233Y-67704375D01*
X80492656Y-67768452D01*
X80373474Y-67833437D01*
X80278862Y-67895392D01*
X80213994Y-67950377D01*
X80184044Y-67994454D01*
X80194187Y-68023684D01*
X80205105Y-68028734D01*
X80221005Y-68052644D01*
X80217760Y-68060969D01*
X80220024Y-68080651D01*
X80249844Y-68082165D01*
X80287760Y-68066580D01*
X80300211Y-68056429D01*
X80319017Y-68054570D01*
X80334372Y-68094636D01*
X80346125Y-68164379D01*
X80364657Y-68253161D01*
X80399548Y-68376959D01*
X80446784Y-68524252D01*
X80502353Y-68683519D01*
X80562242Y-68843239D01*
X80622439Y-68991891D01*
X80676509Y-69112900D01*
X80729326Y-69211482D01*
X80787647Y-69301839D01*
X80839212Y-69365054D01*
X80841117Y-69366900D01*
X80920913Y-69443100D01*
X81768500Y-69443100D01*
X82098681Y-69328800D01*
X82230647Y-69282582D01*
X82322217Y-69248189D01*
X82381158Y-69221290D01*
X82415237Y-69197556D01*
X82432222Y-69172660D01*
X82439880Y-69142273D01*
X82440504Y-69138300D01*
X82448536Y-69036700D01*
X82289200Y-69036700D01*
X82275445Y-69094988D01*
X82258720Y-69120520D01*
X82209201Y-69145967D01*
X82174900Y-69151000D01*
X82116612Y-69137244D01*
X82091080Y-69120520D01*
X82065633Y-69071000D01*
X82060600Y-69036700D01*
X82074356Y-68978411D01*
X82091080Y-68952880D01*
X82140600Y-68927432D01*
X82174900Y-68922400D01*
X82233189Y-68936155D01*
X82258720Y-68952880D01*
X82284168Y-69002399D01*
X82289200Y-69036700D01*
X82448536Y-69036700D01*
X82451444Y-68999920D01*
X82449260Y-68832493D01*
X82435207Y-68655692D01*
X82410544Y-68489190D01*
X82394241Y-68414400D01*
X82364608Y-68293218D01*
X82361435Y-68278649D01*
X81013135Y-68278649D01*
X81009202Y-68398839D01*
X80984256Y-68502117D01*
X80939004Y-68574917D01*
X80926842Y-68585169D01*
X80853328Y-68613317D01*
X80757248Y-68618468D01*
X80660506Y-68602177D01*
X80585011Y-68565997D01*
X80578481Y-68560450D01*
X80542339Y-68509695D01*
X80500170Y-68424563D01*
X80457622Y-68320117D01*
X80420346Y-68211420D01*
X80393990Y-68113534D01*
X80384200Y-68042460D01*
X80409493Y-67993241D01*
X80485124Y-67941160D01*
X80610729Y-67886436D01*
X80696943Y-67856593D01*
X80766673Y-67842228D01*
X80822382Y-67854812D01*
X80872623Y-67900480D01*
X80925949Y-67985368D01*
X80955135Y-68041812D01*
X80995348Y-68155118D01*
X81013135Y-68278649D01*
X82361435Y-68278649D01*
X82347724Y-68215716D01*
X82343177Y-68176509D01*
X82350557Y-68170210D01*
X82369455Y-68191435D01*
X82378179Y-68203604D01*
X82428615Y-68249174D01*
X82498785Y-68285267D01*
X82502978Y-68286699D01*
X82540313Y-68301468D01*
X82569608Y-68323169D01*
X82596033Y-68360543D01*
X82624761Y-68422331D01*
X82660966Y-68517275D01*
X82694057Y-68609641D01*
X82758418Y-68794777D01*
X82804631Y-68941493D01*
X82833095Y-69058662D01*
X82844209Y-69155158D01*
X82838371Y-69239855D01*
X82815978Y-69321625D01*
X82777431Y-69409342D01*
X82733700Y-69492566D01*
X82666083Y-69624291D01*
X82628992Y-69716350D01*
X82622631Y-69769838D01*
X82647203Y-69785846D01*
X82702912Y-69765467D01*
X82776009Y-69719583D01*
X82844700Y-69659346D01*
X82916872Y-69576949D01*
X82954955Y-69523656D01*
X83002710Y-69440571D01*
X83029942Y-69363890D01*
X83043521Y-69270533D01*
X83047163Y-69213917D01*
X83048120Y-69107313D01*
X83041641Y-69006852D01*
X83030380Y-68939944D01*
X83017977Y-68880420D01*
X83019096Y-68848122D01*
X83022113Y-68846200D01*
X83050488Y-68834237D01*
X83111835Y-68802175D01*
X83195386Y-68755752D01*
X83242316Y-68728837D01*
X83356418Y-68662721D01*
X83476151Y-68593317D01*
X83579169Y-68533581D01*
X83597300Y-68523063D01*
X83673248Y-68481373D01*
X83783263Y-68424088D01*
X83915451Y-68357255D01*
X84057920Y-68286919D01*
X84140038Y-68247161D01*
X84530376Y-68059671D01*
X85163517Y-68059671D01*
X85191242Y-68049646D01*
X85271194Y-68035285D01*
X85318457Y-68033400D01*
X85473834Y-68057300D01*
X85627056Y-68124472D01*
X85767351Y-68228126D01*
X85883949Y-68361468D01*
X85914445Y-68409211D01*
X85953281Y-68484364D01*
X85973884Y-68555039D01*
X85981105Y-68642806D01*
X85981135Y-68705791D01*
X86195334Y-68705791D01*
X86196893Y-68653243D01*
X86194895Y-68618017D01*
X86167244Y-68454010D01*
X86105540Y-68306381D01*
X86003633Y-68162063D01*
X85954099Y-68106453D01*
X85875586Y-68035195D01*
X85777501Y-67964071D01*
X85673333Y-67901054D01*
X85576573Y-67854115D01*
X85500710Y-67831229D01*
X85486670Y-67830200D01*
X85460012Y-67826326D01*
X85453783Y-67806202D01*
X85467078Y-67757078D01*
X85479021Y-67722590D01*
X85574858Y-67399700D01*
X85648514Y-67041348D01*
X85698317Y-66658548D01*
X85722596Y-66262315D01*
X85724786Y-66103000D01*
X85718158Y-65784763D01*
X85699294Y-65432764D01*
X85669686Y-65062152D01*
X85630823Y-64688073D01*
X85584194Y-64325678D01*
X85531290Y-63990114D01*
X85500924Y-63826847D01*
X85443713Y-63573623D01*
X85368119Y-63293815D01*
X85277596Y-62996903D01*
X85175600Y-62692369D01*
X85065586Y-62389693D01*
X84951009Y-62098357D01*
X84835325Y-61827840D01*
X84721988Y-61587624D01*
X84614455Y-61387191D01*
X84607465Y-61375286D01*
X84526605Y-61250821D01*
X84418264Y-61102094D01*
X84289413Y-60937176D01*
X84147023Y-60764142D01*
X83998063Y-60591065D01*
X83849505Y-60426017D01*
X83708318Y-60277072D01*
X83581473Y-60152303D01*
X83475941Y-60059783D01*
X83462751Y-60049470D01*
X83252179Y-59907439D01*
X83005391Y-59773415D01*
X82736951Y-59653994D01*
X82461424Y-59555777D01*
X82240357Y-59495674D01*
X82081746Y-59467602D01*
X81882526Y-59446046D01*
X81652594Y-59432050D01*
X81628800Y-59431125D01*
X81354370Y-59428208D01*
X81120367Y-59442758D01*
X80918837Y-59476755D01*
X80741826Y-59532178D01*
X80581381Y-59611005D01*
X80429547Y-59715216D01*
X80403560Y-59735973D01*
X80258126Y-59854430D01*
X80241334Y-59787525D01*
X80233892Y-59719547D01*
X80233585Y-59615320D01*
X80239390Y-59488738D01*
X80250285Y-59353693D01*
X80265245Y-59224077D01*
X80283249Y-59113783D01*
X80294567Y-59064564D01*
X80320314Y-58982416D01*
X80362160Y-58863781D01*
X80416090Y-58718822D01*
X80478090Y-58557700D01*
X80544148Y-58390579D01*
X80610248Y-58227619D01*
X80672376Y-58078983D01*
X80726519Y-57954834D01*
X80766794Y-57869044D01*
X80900638Y-57630755D01*
X81047033Y-57422354D01*
X81199075Y-57253489D01*
X81223740Y-57230535D01*
X81294411Y-57163564D01*
X81347395Y-57107607D01*
X81373532Y-57072516D01*
X81374800Y-57068028D01*
X81354571Y-57065902D01*
X81300519Y-57084656D01*
D10*
X77833333Y-99952380D02*
X77833333Y-100666666D01*
X77880952Y-100809523D01*
X77976190Y-100904761D01*
X78119047Y-100952380D01*
X78214285Y-100952380D01*
X76880952Y-99952380D02*
X77357142Y-99952380D01*
X77404761Y-100428571D01*
X77357142Y-100380952D01*
X77261904Y-100333333D01*
X77023809Y-100333333D01*
X76928571Y-100380952D01*
X76880952Y-100428571D01*
X76833333Y-100523809D01*
X76833333Y-100761904D01*
X76880952Y-100857142D01*
X76928571Y-100904761D01*
X77023809Y-100952380D01*
X77261904Y-100952380D01*
X77357142Y-100904761D01*
X77404761Y-100857142D01*
X62833333Y-100352380D02*
X62833333Y-101066666D01*
X62880952Y-101209523D01*
X62976190Y-101304761D01*
X63119047Y-101352380D01*
X63214285Y-101352380D01*
X61928571Y-100352380D02*
X62119047Y-100352380D01*
X62214285Y-100400000D01*
X62261904Y-100447619D01*
X62357142Y-100590476D01*
X62404761Y-100780952D01*
X62404761Y-101161904D01*
X62357142Y-101257142D01*
X62309523Y-101304761D01*
X62214285Y-101352380D01*
X62023809Y-101352380D01*
X61928571Y-101304761D01*
X61880952Y-101257142D01*
X61833333Y-101161904D01*
X61833333Y-100923809D01*
X61880952Y-100828571D01*
X61928571Y-100780952D01*
X62023809Y-100733333D01*
X62214285Y-100733333D01*
X62309523Y-100780952D01*
X62357142Y-100828571D01*
X62404761Y-100923809D01*
X62833333Y-116152380D02*
X62833333Y-116866666D01*
X62880952Y-117009523D01*
X62976190Y-117104761D01*
X63119047Y-117152380D01*
X63214285Y-117152380D01*
X62452380Y-116152380D02*
X61785714Y-116152380D01*
X62214285Y-117152380D01*
X107933333Y-115652380D02*
X107933333Y-116366666D01*
X107980952Y-116509523D01*
X108076190Y-116604761D01*
X108219047Y-116652380D01*
X108314285Y-116652380D01*
X107314285Y-116080952D02*
X107409523Y-116033333D01*
X107457142Y-115985714D01*
X107504761Y-115890476D01*
X107504761Y-115842857D01*
X107457142Y-115747619D01*
X107409523Y-115700000D01*
X107314285Y-115652380D01*
X107123809Y-115652380D01*
X107028571Y-115700000D01*
X106980952Y-115747619D01*
X106933333Y-115842857D01*
X106933333Y-115890476D01*
X106980952Y-115985714D01*
X107028571Y-116033333D01*
X107123809Y-116080952D01*
X107314285Y-116080952D01*
X107409523Y-116128571D01*
X107457142Y-116176190D01*
X107504761Y-116271428D01*
X107504761Y-116461904D01*
X107457142Y-116557142D01*
X107409523Y-116604761D01*
X107314285Y-116652380D01*
X107123809Y-116652380D01*
X107028571Y-116604761D01*
X106980952Y-116557142D01*
X106933333Y-116461904D01*
X106933333Y-116271428D01*
X106980952Y-116176190D01*
X107028571Y-116128571D01*
X107123809Y-116080952D01*
X92933333Y-115552380D02*
X92933333Y-116266666D01*
X92980952Y-116409523D01*
X93076190Y-116504761D01*
X93219047Y-116552380D01*
X93314285Y-116552380D01*
X92409523Y-116552380D02*
X92219047Y-116552380D01*
X92123809Y-116504761D01*
X92076190Y-116457142D01*
X91980952Y-116314285D01*
X91933333Y-116123809D01*
X91933333Y-115742857D01*
X91980952Y-115647619D01*
X92028571Y-115600000D01*
X92123809Y-115552380D01*
X92314285Y-115552380D01*
X92409523Y-115600000D01*
X92457142Y-115647619D01*
X92504761Y-115742857D01*
X92504761Y-115980952D01*
X92457142Y-116076190D01*
X92409523Y-116123809D01*
X92314285Y-116171428D01*
X92123809Y-116171428D01*
X92028571Y-116123809D01*
X91980952Y-116076190D01*
X91933333Y-115980952D01*
X79209523Y-116052380D02*
X79209523Y-116766666D01*
X79257142Y-116909523D01*
X79352380Y-117004761D01*
X79495238Y-117052380D01*
X79590476Y-117052380D01*
X78209523Y-117052380D02*
X78780952Y-117052380D01*
X78495238Y-117052380D02*
X78495238Y-116052380D01*
X78590476Y-116195238D01*
X78685714Y-116290476D01*
X78780952Y-116338095D01*
X77590476Y-116052380D02*
X77495238Y-116052380D01*
X77400000Y-116100000D01*
X77352380Y-116147619D01*
X77304761Y-116242857D01*
X77257142Y-116433333D01*
X77257142Y-116671428D01*
X77304761Y-116861904D01*
X77352380Y-116957142D01*
X77400000Y-117004761D01*
X77495238Y-117052380D01*
X77590476Y-117052380D01*
X77685714Y-117004761D01*
X77733333Y-116957142D01*
X77780952Y-116861904D01*
X77828571Y-116671428D01*
X77828571Y-116433333D01*
X77780952Y-116242857D01*
X77733333Y-116147619D01*
X77685714Y-116100000D01*
X77590476Y-116052380D01*
X78909523Y-83952380D02*
X78909523Y-84666666D01*
X78957142Y-84809523D01*
X79052380Y-84904761D01*
X79195238Y-84952380D01*
X79290476Y-84952380D01*
X77909523Y-84952380D02*
X78480952Y-84952380D01*
X78195238Y-84952380D02*
X78195238Y-83952380D01*
X78290476Y-84095238D01*
X78385714Y-84190476D01*
X78480952Y-84238095D01*
X76957142Y-84952380D02*
X77528571Y-84952380D01*
X77242857Y-84952380D02*
X77242857Y-83952380D01*
X77338095Y-84095238D01*
X77433333Y-84190476D01*
X77528571Y-84238095D01*
X93909523Y-83752380D02*
X93909523Y-84466666D01*
X93957142Y-84609523D01*
X94052380Y-84704761D01*
X94195238Y-84752380D01*
X94290476Y-84752380D01*
X92909523Y-84752380D02*
X93480952Y-84752380D01*
X93195238Y-84752380D02*
X93195238Y-83752380D01*
X93290476Y-83895238D01*
X93385714Y-83990476D01*
X93480952Y-84038095D01*
X92528571Y-83847619D02*
X92480952Y-83800000D01*
X92385714Y-83752380D01*
X92147619Y-83752380D01*
X92052380Y-83800000D01*
X92004761Y-83847619D01*
X91957142Y-83942857D01*
X91957142Y-84038095D01*
X92004761Y-84180952D01*
X92576190Y-84752380D01*
X91957142Y-84752380D01*
X93909523Y-100352380D02*
X93909523Y-101066666D01*
X93957142Y-101209523D01*
X94052380Y-101304761D01*
X94195238Y-101352380D01*
X94290476Y-101352380D01*
X92909523Y-101352380D02*
X93480952Y-101352380D01*
X93195238Y-101352380D02*
X93195238Y-100352380D01*
X93290476Y-100495238D01*
X93385714Y-100590476D01*
X93480952Y-100638095D01*
X92576190Y-100352380D02*
X91957142Y-100352380D01*
X92290476Y-100733333D01*
X92147619Y-100733333D01*
X92052380Y-100780952D01*
X92004761Y-100828571D01*
X91957142Y-100923809D01*
X91957142Y-101161904D01*
X92004761Y-101257142D01*
X92052380Y-101304761D01*
X92147619Y-101352380D01*
X92433333Y-101352380D01*
X92528571Y-101304761D01*
X92576190Y-101257142D01*
X108909523Y-100152380D02*
X108909523Y-100866666D01*
X108957142Y-101009523D01*
X109052380Y-101104761D01*
X109195238Y-101152380D01*
X109290476Y-101152380D01*
X107909523Y-101152380D02*
X108480952Y-101152380D01*
X108195238Y-101152380D02*
X108195238Y-100152380D01*
X108290476Y-100295238D01*
X108385714Y-100390476D01*
X108480952Y-100438095D01*
X107052380Y-100485714D02*
X107052380Y-101152380D01*
X107290476Y-100104761D02*
X107528571Y-100819047D01*
X106909523Y-100819047D01*
X103102380Y-42604761D02*
X102626190Y-42271428D01*
X103102380Y-42033333D02*
X102102380Y-42033333D01*
X102102380Y-42414285D01*
X102150000Y-42509523D01*
X102197619Y-42557142D01*
X102292857Y-42604761D01*
X102435714Y-42604761D01*
X102530952Y-42557142D01*
X102578571Y-42509523D01*
X102626190Y-42414285D01*
X102626190Y-42033333D01*
X102102380Y-42890476D02*
X103102380Y-43223809D01*
X102102380Y-43557142D01*
X103102380Y-44414285D02*
X103102380Y-43842857D01*
X103102380Y-44128571D02*
X102102380Y-44128571D01*
X102245238Y-44033333D01*
X102340476Y-43938095D01*
X102388095Y-43842857D01*
X73102380Y-42604761D02*
X72626190Y-42271428D01*
X73102380Y-42033333D02*
X72102380Y-42033333D01*
X72102380Y-42414285D01*
X72150000Y-42509523D01*
X72197619Y-42557142D01*
X72292857Y-42604761D01*
X72435714Y-42604761D01*
X72530952Y-42557142D01*
X72578571Y-42509523D01*
X72626190Y-42414285D01*
X72626190Y-42033333D01*
X72102380Y-42890476D02*
X73102380Y-43223809D01*
X72102380Y-43557142D01*
X72197619Y-43842857D02*
X72150000Y-43890476D01*
X72102380Y-43985714D01*
X72102380Y-44223809D01*
X72150000Y-44319047D01*
X72197619Y-44366666D01*
X72292857Y-44414285D01*
X72388095Y-44414285D01*
X72530952Y-44366666D01*
X73102380Y-43795238D01*
X73102380Y-44414285D01*
X113102380Y-82604761D02*
X112626190Y-82271428D01*
X113102380Y-82033333D02*
X112102380Y-82033333D01*
X112102380Y-82414285D01*
X112150000Y-82509523D01*
X112197619Y-82557142D01*
X112292857Y-82604761D01*
X112435714Y-82604761D01*
X112530952Y-82557142D01*
X112578571Y-82509523D01*
X112626190Y-82414285D01*
X112626190Y-82033333D01*
X112102380Y-82890476D02*
X113102380Y-83223809D01*
X112102380Y-83557142D01*
X112102380Y-83795238D02*
X112102380Y-84414285D01*
X112483333Y-84080952D01*
X112483333Y-84223809D01*
X112530952Y-84319047D01*
X112578571Y-84366666D01*
X112673809Y-84414285D01*
X112911904Y-84414285D01*
X113007142Y-84366666D01*
X113054761Y-84319047D01*
X113102380Y-84223809D01*
X113102380Y-83938095D01*
X113054761Y-83842857D01*
X113007142Y-83795238D01*
X63102380Y-82604761D02*
X62626190Y-82271428D01*
X63102380Y-82033333D02*
X62102380Y-82033333D01*
X62102380Y-82414285D01*
X62150000Y-82509523D01*
X62197619Y-82557142D01*
X62292857Y-82604761D01*
X62435714Y-82604761D01*
X62530952Y-82557142D01*
X62578571Y-82509523D01*
X62626190Y-82414285D01*
X62626190Y-82033333D01*
X62102380Y-82890476D02*
X63102380Y-83223809D01*
X62102380Y-83557142D01*
X62435714Y-84319047D02*
X63102380Y-84319047D01*
X62054761Y-84080952D02*
X62769047Y-83842857D01*
X62769047Y-84461904D01*
X72752380Y-57704761D02*
X72276190Y-57371428D01*
X72752380Y-57133333D02*
X71752380Y-57133333D01*
X71752380Y-57514285D01*
X71800000Y-57609523D01*
X71847619Y-57657142D01*
X71942857Y-57704761D01*
X72085714Y-57704761D01*
X72180952Y-57657142D01*
X72228571Y-57609523D01*
X72276190Y-57514285D01*
X72276190Y-57133333D01*
X71752380Y-57990476D02*
X72752380Y-58323809D01*
X71752380Y-58657142D01*
X71752380Y-59466666D02*
X71752380Y-58990476D01*
X72228571Y-58942857D01*
X72180952Y-58990476D01*
X72133333Y-59085714D01*
X72133333Y-59323809D01*
X72180952Y-59419047D01*
X72228571Y-59466666D01*
X72323809Y-59514285D01*
X72561904Y-59514285D01*
X72657142Y-59466666D01*
X72704761Y-59419047D01*
X72752380Y-59323809D01*
X72752380Y-59085714D01*
X72704761Y-58990476D01*
X72657142Y-58942857D01*
X103102380Y-62604761D02*
X102626190Y-62271428D01*
X103102380Y-62033333D02*
X102102380Y-62033333D01*
X102102380Y-62414285D01*
X102150000Y-62509523D01*
X102197619Y-62557142D01*
X102292857Y-62604761D01*
X102435714Y-62604761D01*
X102530952Y-62557142D01*
X102578571Y-62509523D01*
X102626190Y-62414285D01*
X102626190Y-62033333D01*
X102102380Y-62890476D02*
X103102380Y-63223809D01*
X102102380Y-63557142D01*
X102102380Y-64319047D02*
X102102380Y-64128571D01*
X102150000Y-64033333D01*
X102197619Y-63985714D01*
X102340476Y-63890476D01*
X102530952Y-63842857D01*
X102911904Y-63842857D01*
X103007142Y-63890476D01*
X103054761Y-63938095D01*
X103102380Y-64033333D01*
X103102380Y-64223809D01*
X103054761Y-64319047D01*
X103007142Y-64366666D01*
X102911904Y-64414285D01*
X102673809Y-64414285D01*
X102578571Y-64366666D01*
X102530952Y-64319047D01*
X102483333Y-64223809D01*
X102483333Y-64033333D01*
X102530952Y-63938095D01*
X102578571Y-63890476D01*
X102673809Y-63842857D01*
M02*
