G04 #@! TF.GenerationSoftware,KiCad,Pcbnew,(5.1.0)-1*
G04 #@! TF.CreationDate,2019-05-25T13:24:56-04:00*
G04 #@! TF.ProjectId,VCO_2_RevB,56434f5f-325f-4526-9576-422e6b696361,A*
G04 #@! TF.SameCoordinates,Original*
G04 #@! TF.FileFunction,Soldermask,Bot*
G04 #@! TF.FilePolarity,Negative*
%FSLAX46Y46*%
G04 Gerber Fmt 4.6, Leading zero omitted, Abs format (unit mm)*
G04 Created by KiCad (PCBNEW (5.1.0)-1) date 2019-05-25 13:24:56*
%MOMM*%
%LPD*%
G04 APERTURE LIST*
%ADD10C,0.100000*%
G04 APERTURE END LIST*
D10*
G36*
X115406373Y-142957024D02*
G01*
X115607589Y-142997048D01*
X115986671Y-143154069D01*
X116327835Y-143382028D01*
X116617972Y-143672165D01*
X116845931Y-144013329D01*
X117002952Y-144392411D01*
X117083000Y-144794842D01*
X117083000Y-145205158D01*
X117002952Y-145607589D01*
X116845931Y-145986671D01*
X116617972Y-146327835D01*
X116327835Y-146617972D01*
X115986671Y-146845931D01*
X115607589Y-147002952D01*
X115205159Y-147083000D01*
X114794841Y-147083000D01*
X114392411Y-147002952D01*
X114013329Y-146845931D01*
X113672165Y-146617972D01*
X113382028Y-146327835D01*
X113154069Y-145986671D01*
X112997048Y-145607589D01*
X112917000Y-145205158D01*
X112917000Y-144794842D01*
X112997048Y-144392411D01*
X113154069Y-144013329D01*
X113382028Y-143672165D01*
X113672165Y-143382028D01*
X114013329Y-143154069D01*
X114392411Y-142997048D01*
X114593627Y-142957024D01*
X114794841Y-142917000D01*
X115205159Y-142917000D01*
X115406373Y-142957024D01*
X115406373Y-142957024D01*
G37*
G36*
X55406373Y-142957024D02*
G01*
X55607589Y-142997048D01*
X55986671Y-143154069D01*
X56327835Y-143382028D01*
X56617972Y-143672165D01*
X56845931Y-144013329D01*
X57002952Y-144392411D01*
X57083000Y-144794842D01*
X57083000Y-145205158D01*
X57002952Y-145607589D01*
X56845931Y-145986671D01*
X56617972Y-146327835D01*
X56327835Y-146617972D01*
X55986671Y-146845931D01*
X55607589Y-147002952D01*
X55205159Y-147083000D01*
X54794841Y-147083000D01*
X54392411Y-147002952D01*
X54013329Y-146845931D01*
X53672165Y-146617972D01*
X53382028Y-146327835D01*
X53154069Y-145986671D01*
X52997048Y-145607589D01*
X52917000Y-145205158D01*
X52917000Y-144794842D01*
X52997048Y-144392411D01*
X53154069Y-144013329D01*
X53382028Y-143672165D01*
X53672165Y-143382028D01*
X54013329Y-143154069D01*
X54392411Y-142997048D01*
X54593627Y-142957024D01*
X54794841Y-142917000D01*
X55205159Y-142917000D01*
X55406373Y-142957024D01*
X55406373Y-142957024D01*
G37*
G36*
X98654153Y-142586122D02*
G01*
X98746194Y-142624247D01*
X98876359Y-142678163D01*
X99076342Y-142811787D01*
X99246413Y-142981858D01*
X99380037Y-143181841D01*
X99472078Y-143404048D01*
X99519000Y-143639941D01*
X99519000Y-143880459D01*
X99472078Y-144116352D01*
X99380037Y-144338559D01*
X99246413Y-144538542D01*
X99076342Y-144708613D01*
X98876359Y-144842237D01*
X98746194Y-144896153D01*
X98654153Y-144934278D01*
X98418259Y-144981200D01*
X98177741Y-144981200D01*
X97941847Y-144934278D01*
X97849806Y-144896153D01*
X97719641Y-144842237D01*
X97519658Y-144708613D01*
X97349587Y-144538542D01*
X97215963Y-144338559D01*
X97123922Y-144116352D01*
X97077000Y-143880459D01*
X97077000Y-143639941D01*
X97123922Y-143404048D01*
X97215963Y-143181841D01*
X97349587Y-142981858D01*
X97519658Y-142811787D01*
X97719641Y-142678163D01*
X97849806Y-142624247D01*
X97941847Y-142586122D01*
X98177741Y-142539200D01*
X98418259Y-142539200D01*
X98654153Y-142586122D01*
X98654153Y-142586122D01*
G37*
G36*
X88654153Y-140086122D02*
G01*
X88746194Y-140124247D01*
X88876359Y-140178163D01*
X89076342Y-140311787D01*
X89246413Y-140481858D01*
X89380037Y-140681841D01*
X89472078Y-140904048D01*
X89519000Y-141139941D01*
X89519000Y-141380459D01*
X89472078Y-141616352D01*
X89380037Y-141838559D01*
X89246413Y-142038542D01*
X89076342Y-142208613D01*
X88876359Y-142342237D01*
X88746194Y-142396153D01*
X88654153Y-142434278D01*
X88536205Y-142457739D01*
X88418259Y-142481200D01*
X88177741Y-142481200D01*
X88059795Y-142457739D01*
X87941847Y-142434278D01*
X87849806Y-142396153D01*
X87719641Y-142342237D01*
X87519658Y-142208613D01*
X87349587Y-142038542D01*
X87215963Y-141838559D01*
X87123922Y-141616352D01*
X87077000Y-141380459D01*
X87077000Y-141139941D01*
X87123922Y-140904048D01*
X87215963Y-140681841D01*
X87349587Y-140481858D01*
X87519658Y-140311787D01*
X87719641Y-140178163D01*
X87849806Y-140124247D01*
X87941847Y-140086122D01*
X88177741Y-140039200D01*
X88418259Y-140039200D01*
X88654153Y-140086122D01*
X88654153Y-140086122D01*
G37*
G36*
X98536205Y-137562661D02*
G01*
X98654153Y-137586122D01*
X98746194Y-137624247D01*
X98876359Y-137678163D01*
X99076342Y-137811787D01*
X99246413Y-137981858D01*
X99380037Y-138181841D01*
X99472078Y-138404048D01*
X99519000Y-138639941D01*
X99519000Y-138880459D01*
X99472078Y-139116352D01*
X99380037Y-139338559D01*
X99246413Y-139538542D01*
X99076342Y-139708613D01*
X98876359Y-139842237D01*
X98746194Y-139896153D01*
X98654153Y-139934278D01*
X98418259Y-139981200D01*
X98177741Y-139981200D01*
X97941847Y-139934278D01*
X97849806Y-139896153D01*
X97719641Y-139842237D01*
X97519658Y-139708613D01*
X97349587Y-139538542D01*
X97215963Y-139338559D01*
X97123922Y-139116352D01*
X97077000Y-138880459D01*
X97077000Y-138639941D01*
X97123922Y-138404048D01*
X97215963Y-138181841D01*
X97349587Y-137981858D01*
X97519658Y-137811787D01*
X97719641Y-137678163D01*
X97849806Y-137624247D01*
X97941847Y-137586122D01*
X98059795Y-137562661D01*
X98177741Y-137539200D01*
X98418259Y-137539200D01*
X98536205Y-137562661D01*
X98536205Y-137562661D01*
G37*
G36*
X86151805Y-132685861D02*
G01*
X86269753Y-132709322D01*
X86361794Y-132747447D01*
X86491959Y-132801363D01*
X86691942Y-132934987D01*
X86862013Y-133105058D01*
X86995637Y-133305041D01*
X87087678Y-133527248D01*
X87134600Y-133763141D01*
X87134600Y-134003659D01*
X87087678Y-134239552D01*
X86995637Y-134461759D01*
X86862013Y-134661742D01*
X86691942Y-134831813D01*
X86491959Y-134965437D01*
X86361794Y-135019353D01*
X86269753Y-135057478D01*
X86151805Y-135080939D01*
X86033859Y-135104400D01*
X85793341Y-135104400D01*
X85675395Y-135080939D01*
X85557447Y-135057478D01*
X85465406Y-135019353D01*
X85335241Y-134965437D01*
X85135258Y-134831813D01*
X84965187Y-134661742D01*
X84831563Y-134461759D01*
X84739522Y-134239552D01*
X84692600Y-134003659D01*
X84692600Y-133763141D01*
X84739522Y-133527248D01*
X84831563Y-133305041D01*
X84965187Y-133105058D01*
X85135258Y-132934987D01*
X85335241Y-132801363D01*
X85465406Y-132747447D01*
X85557447Y-132709322D01*
X85675395Y-132685861D01*
X85793341Y-132662400D01*
X86033859Y-132662400D01*
X86151805Y-132685861D01*
X86151805Y-132685861D01*
G37*
G36*
X88769753Y-122709322D02*
G01*
X88861794Y-122747447D01*
X88991959Y-122801363D01*
X89191942Y-122934987D01*
X89362013Y-123105058D01*
X89495637Y-123305041D01*
X89587678Y-123527248D01*
X89634600Y-123763141D01*
X89634600Y-124003659D01*
X89587678Y-124239552D01*
X89495637Y-124461759D01*
X89362013Y-124661742D01*
X89191942Y-124831813D01*
X88991959Y-124965437D01*
X88861794Y-125019353D01*
X88769753Y-125057478D01*
X88651805Y-125080939D01*
X88533859Y-125104400D01*
X88293341Y-125104400D01*
X88175395Y-125080939D01*
X88057447Y-125057478D01*
X87965406Y-125019353D01*
X87835241Y-124965437D01*
X87635258Y-124831813D01*
X87465187Y-124661742D01*
X87331563Y-124461759D01*
X87239522Y-124239552D01*
X87192600Y-124003659D01*
X87192600Y-123763141D01*
X87239522Y-123527248D01*
X87331563Y-123305041D01*
X87465187Y-123105058D01*
X87635258Y-122934987D01*
X87835241Y-122801363D01*
X87965406Y-122747447D01*
X88057447Y-122709322D01*
X88293341Y-122662400D01*
X88533859Y-122662400D01*
X88769753Y-122709322D01*
X88769753Y-122709322D01*
G37*
G36*
X83769753Y-122709322D02*
G01*
X83861794Y-122747447D01*
X83991959Y-122801363D01*
X84191942Y-122934987D01*
X84362013Y-123105058D01*
X84495637Y-123305041D01*
X84587678Y-123527248D01*
X84634600Y-123763141D01*
X84634600Y-124003659D01*
X84587678Y-124239552D01*
X84495637Y-124461759D01*
X84362013Y-124661742D01*
X84191942Y-124831813D01*
X83991959Y-124965437D01*
X83861794Y-125019353D01*
X83769753Y-125057478D01*
X83651805Y-125080939D01*
X83533859Y-125104400D01*
X83293341Y-125104400D01*
X83175395Y-125080939D01*
X83057447Y-125057478D01*
X82965406Y-125019353D01*
X82835241Y-124965437D01*
X82635258Y-124831813D01*
X82465187Y-124661742D01*
X82331563Y-124461759D01*
X82239522Y-124239552D01*
X82192600Y-124003659D01*
X82192600Y-123763141D01*
X82239522Y-123527248D01*
X82331563Y-123305041D01*
X82465187Y-123105058D01*
X82635258Y-122934987D01*
X82835241Y-122801363D01*
X82965406Y-122747447D01*
X83057447Y-122709322D01*
X83293341Y-122662400D01*
X83533859Y-122662400D01*
X83769753Y-122709322D01*
X83769753Y-122709322D01*
G37*
G36*
X65634153Y-113252922D02*
G01*
X65726194Y-113291047D01*
X65856359Y-113344963D01*
X66056342Y-113478587D01*
X66226413Y-113648658D01*
X66360037Y-113848641D01*
X66452078Y-114070848D01*
X66499000Y-114306741D01*
X66499000Y-114547259D01*
X66452078Y-114783152D01*
X66360037Y-115005359D01*
X66226413Y-115205342D01*
X66056342Y-115375413D01*
X65856359Y-115509037D01*
X65726194Y-115562953D01*
X65634153Y-115601078D01*
X65516205Y-115624539D01*
X65398259Y-115648000D01*
X65157741Y-115648000D01*
X65039795Y-115624539D01*
X64921847Y-115601078D01*
X64829806Y-115562953D01*
X64699641Y-115509037D01*
X64499658Y-115375413D01*
X64329587Y-115205342D01*
X64195963Y-115005359D01*
X64103922Y-114783152D01*
X64057000Y-114547259D01*
X64057000Y-114306741D01*
X64103922Y-114070848D01*
X64195963Y-113848641D01*
X64329587Y-113648658D01*
X64499658Y-113478587D01*
X64699641Y-113344963D01*
X64829806Y-113291047D01*
X64921847Y-113252922D01*
X65157741Y-113206000D01*
X65398259Y-113206000D01*
X65634153Y-113252922D01*
X65634153Y-113252922D01*
G37*
G36*
X60634153Y-113252922D02*
G01*
X60726194Y-113291047D01*
X60856359Y-113344963D01*
X61056342Y-113478587D01*
X61226413Y-113648658D01*
X61360037Y-113848641D01*
X61452078Y-114070848D01*
X61499000Y-114306741D01*
X61499000Y-114547259D01*
X61452078Y-114783152D01*
X61360037Y-115005359D01*
X61226413Y-115205342D01*
X61056342Y-115375413D01*
X60856359Y-115509037D01*
X60726194Y-115562953D01*
X60634153Y-115601078D01*
X60516205Y-115624539D01*
X60398259Y-115648000D01*
X60157741Y-115648000D01*
X60039795Y-115624539D01*
X59921847Y-115601078D01*
X59829806Y-115562953D01*
X59699641Y-115509037D01*
X59499658Y-115375413D01*
X59329587Y-115205342D01*
X59195963Y-115005359D01*
X59103922Y-114783152D01*
X59057000Y-114547259D01*
X59057000Y-114306741D01*
X59103922Y-114070848D01*
X59195963Y-113848641D01*
X59329587Y-113648658D01*
X59499658Y-113478587D01*
X59699641Y-113344963D01*
X59829806Y-113291047D01*
X59921847Y-113252922D01*
X60157741Y-113206000D01*
X60398259Y-113206000D01*
X60634153Y-113252922D01*
X60634153Y-113252922D01*
G37*
G36*
X63134153Y-103252922D02*
G01*
X63226194Y-103291047D01*
X63356359Y-103344963D01*
X63556342Y-103478587D01*
X63726413Y-103648658D01*
X63860037Y-103848641D01*
X63952078Y-104070848D01*
X63999000Y-104306741D01*
X63999000Y-104547259D01*
X63952078Y-104783152D01*
X63860037Y-105005359D01*
X63726413Y-105205342D01*
X63556342Y-105375413D01*
X63356359Y-105509037D01*
X63226194Y-105562953D01*
X63134153Y-105601078D01*
X63016205Y-105624539D01*
X62898259Y-105648000D01*
X62657741Y-105648000D01*
X62539795Y-105624539D01*
X62421847Y-105601078D01*
X62329806Y-105562953D01*
X62199641Y-105509037D01*
X61999658Y-105375413D01*
X61829587Y-105205342D01*
X61695963Y-105005359D01*
X61603922Y-104783152D01*
X61557000Y-104547259D01*
X61557000Y-104306741D01*
X61603922Y-104070848D01*
X61695963Y-103848641D01*
X61829587Y-103648658D01*
X61999658Y-103478587D01*
X62199641Y-103344963D01*
X62329806Y-103291047D01*
X62421847Y-103252922D01*
X62657741Y-103206000D01*
X62898259Y-103206000D01*
X63134153Y-103252922D01*
X63134153Y-103252922D01*
G37*
G36*
X76132342Y-87661042D02*
G01*
X76280301Y-87722329D01*
X76413455Y-87811299D01*
X76526701Y-87924545D01*
X76615671Y-88057699D01*
X76676958Y-88205658D01*
X76708200Y-88362725D01*
X76708200Y-88522875D01*
X76676958Y-88679942D01*
X76615671Y-88827901D01*
X76526701Y-88961055D01*
X76413455Y-89074301D01*
X76280301Y-89163271D01*
X76132342Y-89224558D01*
X75975275Y-89255800D01*
X75815125Y-89255800D01*
X75658058Y-89224558D01*
X75510099Y-89163271D01*
X75376945Y-89074301D01*
X75263699Y-88961055D01*
X75174729Y-88827901D01*
X75113442Y-88679942D01*
X75082200Y-88522875D01*
X75082200Y-88362725D01*
X75113442Y-88205658D01*
X75174729Y-88057699D01*
X75263699Y-87924545D01*
X75376945Y-87811299D01*
X75510099Y-87722329D01*
X75658058Y-87661042D01*
X75815125Y-87629800D01*
X75975275Y-87629800D01*
X76132342Y-87661042D01*
X76132342Y-87661042D01*
G37*
G36*
X76132342Y-80041042D02*
G01*
X76280301Y-80102329D01*
X76413455Y-80191299D01*
X76526701Y-80304545D01*
X76615671Y-80437699D01*
X76676958Y-80585658D01*
X76708200Y-80742725D01*
X76708200Y-80902875D01*
X76676958Y-81059942D01*
X76615671Y-81207901D01*
X76526701Y-81341055D01*
X76413455Y-81454301D01*
X76280301Y-81543271D01*
X76132342Y-81604558D01*
X75975275Y-81635800D01*
X75815125Y-81635800D01*
X75658058Y-81604558D01*
X75510099Y-81543271D01*
X75376945Y-81454301D01*
X75263699Y-81341055D01*
X75174729Y-81207901D01*
X75113442Y-81059942D01*
X75082200Y-80902875D01*
X75082200Y-80742725D01*
X75113442Y-80585658D01*
X75174729Y-80437699D01*
X75263699Y-80304545D01*
X75376945Y-80191299D01*
X75510099Y-80102329D01*
X75658058Y-80041042D01*
X75815125Y-80009800D01*
X75975275Y-80009800D01*
X76132342Y-80041042D01*
X76132342Y-80041042D01*
G37*
G36*
X117410443Y-78905519D02*
G01*
X117476627Y-78912037D01*
X117646466Y-78963557D01*
X117802991Y-79047222D01*
X117838729Y-79076552D01*
X117940186Y-79159814D01*
X118019247Y-79256152D01*
X118052778Y-79297009D01*
X118136443Y-79453534D01*
X118187963Y-79623373D01*
X118205359Y-79800000D01*
X118187963Y-79976627D01*
X118136443Y-80146466D01*
X118052778Y-80302991D01*
X118023448Y-80338729D01*
X117940186Y-80440186D01*
X117838729Y-80523448D01*
X117802991Y-80552778D01*
X117646466Y-80636443D01*
X117476627Y-80687963D01*
X117410443Y-80694481D01*
X117344260Y-80701000D01*
X117255740Y-80701000D01*
X117189557Y-80694481D01*
X117123373Y-80687963D01*
X116953534Y-80636443D01*
X116797009Y-80552778D01*
X116761271Y-80523448D01*
X116659814Y-80440186D01*
X116576552Y-80338729D01*
X116547222Y-80302991D01*
X116463557Y-80146466D01*
X116412037Y-79976627D01*
X116394641Y-79800000D01*
X116412037Y-79623373D01*
X116463557Y-79453534D01*
X116547222Y-79297009D01*
X116580753Y-79256152D01*
X116659814Y-79159814D01*
X116761271Y-79076552D01*
X116797009Y-79047222D01*
X116953534Y-78963557D01*
X117123373Y-78912037D01*
X117189557Y-78905519D01*
X117255740Y-78899000D01*
X117344260Y-78899000D01*
X117410443Y-78905519D01*
X117410443Y-78905519D01*
G37*
G36*
X114870443Y-78905519D02*
G01*
X114936627Y-78912037D01*
X115106466Y-78963557D01*
X115262991Y-79047222D01*
X115298729Y-79076552D01*
X115400186Y-79159814D01*
X115479247Y-79256152D01*
X115512778Y-79297009D01*
X115596443Y-79453534D01*
X115647963Y-79623373D01*
X115665359Y-79800000D01*
X115647963Y-79976627D01*
X115596443Y-80146466D01*
X115512778Y-80302991D01*
X115483448Y-80338729D01*
X115400186Y-80440186D01*
X115298729Y-80523448D01*
X115262991Y-80552778D01*
X115106466Y-80636443D01*
X114936627Y-80687963D01*
X114870443Y-80694481D01*
X114804260Y-80701000D01*
X114715740Y-80701000D01*
X114649557Y-80694481D01*
X114583373Y-80687963D01*
X114413534Y-80636443D01*
X114257009Y-80552778D01*
X114221271Y-80523448D01*
X114119814Y-80440186D01*
X114036552Y-80338729D01*
X114007222Y-80302991D01*
X113923557Y-80146466D01*
X113872037Y-79976627D01*
X113854641Y-79800000D01*
X113872037Y-79623373D01*
X113923557Y-79453534D01*
X114007222Y-79297009D01*
X114040753Y-79256152D01*
X114119814Y-79159814D01*
X114221271Y-79076552D01*
X114257009Y-79047222D01*
X114413534Y-78963557D01*
X114583373Y-78912037D01*
X114649557Y-78905519D01*
X114715740Y-78899000D01*
X114804260Y-78899000D01*
X114870443Y-78905519D01*
X114870443Y-78905519D01*
G37*
G36*
X100138205Y-77702461D02*
G01*
X100256153Y-77725922D01*
X100345640Y-77762989D01*
X100478359Y-77817963D01*
X100678342Y-77951587D01*
X100848413Y-78121658D01*
X100982037Y-78321641D01*
X101074078Y-78543848D01*
X101121000Y-78779741D01*
X101121000Y-79020259D01*
X101074078Y-79256152D01*
X100982037Y-79478359D01*
X100848413Y-79678342D01*
X100678342Y-79848413D01*
X100478359Y-79982037D01*
X100348194Y-80035953D01*
X100256153Y-80074078D01*
X100020259Y-80121000D01*
X99779741Y-80121000D01*
X99543847Y-80074078D01*
X99451806Y-80035953D01*
X99321641Y-79982037D01*
X99121658Y-79848413D01*
X98951587Y-79678342D01*
X98817963Y-79478359D01*
X98725922Y-79256152D01*
X98679000Y-79020259D01*
X98679000Y-78779741D01*
X98725922Y-78543848D01*
X98817963Y-78321641D01*
X98951587Y-78121658D01*
X99121658Y-77951587D01*
X99321641Y-77817963D01*
X99454360Y-77762989D01*
X99543847Y-77725922D01*
X99661795Y-77702461D01*
X99779741Y-77679000D01*
X100020259Y-77679000D01*
X100138205Y-77702461D01*
X100138205Y-77702461D01*
G37*
G36*
X91138205Y-77702461D02*
G01*
X91256153Y-77725922D01*
X91345640Y-77762989D01*
X91478359Y-77817963D01*
X91678342Y-77951587D01*
X91848413Y-78121658D01*
X91982037Y-78321641D01*
X92074078Y-78543848D01*
X92121000Y-78779741D01*
X92121000Y-79020259D01*
X92074078Y-79256152D01*
X91982037Y-79478359D01*
X91848413Y-79678342D01*
X91678342Y-79848413D01*
X91478359Y-79982037D01*
X91348194Y-80035953D01*
X91256153Y-80074078D01*
X91020259Y-80121000D01*
X90779741Y-80121000D01*
X90543847Y-80074078D01*
X90451806Y-80035953D01*
X90321641Y-79982037D01*
X90121658Y-79848413D01*
X89951587Y-79678342D01*
X89817963Y-79478359D01*
X89725922Y-79256152D01*
X89679000Y-79020259D01*
X89679000Y-78779741D01*
X89725922Y-78543848D01*
X89817963Y-78321641D01*
X89951587Y-78121658D01*
X90121658Y-77951587D01*
X90321641Y-77817963D01*
X90454360Y-77762989D01*
X90543847Y-77725922D01*
X90661795Y-77702461D01*
X90779741Y-77679000D01*
X91020259Y-77679000D01*
X91138205Y-77702461D01*
X91138205Y-77702461D01*
G37*
G36*
X86138205Y-77702461D02*
G01*
X86256153Y-77725922D01*
X86345640Y-77762989D01*
X86478359Y-77817963D01*
X86678342Y-77951587D01*
X86848413Y-78121658D01*
X86982037Y-78321641D01*
X87074078Y-78543848D01*
X87121000Y-78779741D01*
X87121000Y-79020259D01*
X87074078Y-79256152D01*
X86982037Y-79478359D01*
X86848413Y-79678342D01*
X86678342Y-79848413D01*
X86478359Y-79982037D01*
X86348194Y-80035953D01*
X86256153Y-80074078D01*
X86020259Y-80121000D01*
X85779741Y-80121000D01*
X85543847Y-80074078D01*
X85451806Y-80035953D01*
X85321641Y-79982037D01*
X85121658Y-79848413D01*
X84951587Y-79678342D01*
X84817963Y-79478359D01*
X84725922Y-79256152D01*
X84679000Y-79020259D01*
X84679000Y-78779741D01*
X84725922Y-78543848D01*
X84817963Y-78321641D01*
X84951587Y-78121658D01*
X85121658Y-77951587D01*
X85321641Y-77817963D01*
X85454360Y-77762989D01*
X85543847Y-77725922D01*
X85661795Y-77702461D01*
X85779741Y-77679000D01*
X86020259Y-77679000D01*
X86138205Y-77702461D01*
X86138205Y-77702461D01*
G37*
G36*
X117156442Y-76365518D02*
G01*
X117222627Y-76372037D01*
X117392466Y-76423557D01*
X117548991Y-76507222D01*
X117584729Y-76536552D01*
X117686186Y-76619814D01*
X117769448Y-76721271D01*
X117798778Y-76757009D01*
X117882443Y-76913534D01*
X117933963Y-77083373D01*
X117951359Y-77260000D01*
X117933963Y-77436627D01*
X117882443Y-77606466D01*
X117798778Y-77762991D01*
X117769448Y-77798729D01*
X117686186Y-77900186D01*
X117584729Y-77983448D01*
X117548991Y-78012778D01*
X117392466Y-78096443D01*
X117222627Y-78147963D01*
X117156443Y-78154481D01*
X117090260Y-78161000D01*
X117001740Y-78161000D01*
X116935557Y-78154481D01*
X116869373Y-78147963D01*
X116699534Y-78096443D01*
X116543009Y-78012778D01*
X116507271Y-77983448D01*
X116405814Y-77900186D01*
X116322552Y-77798729D01*
X116293222Y-77762991D01*
X116209557Y-77606466D01*
X116158037Y-77436627D01*
X116140641Y-77260000D01*
X116158037Y-77083373D01*
X116209557Y-76913534D01*
X116293222Y-76757009D01*
X116322552Y-76721271D01*
X116405814Y-76619814D01*
X116507271Y-76536552D01*
X116543009Y-76507222D01*
X116699534Y-76423557D01*
X116869373Y-76372037D01*
X116935558Y-76365518D01*
X117001740Y-76359000D01*
X117090260Y-76359000D01*
X117156442Y-76365518D01*
X117156442Y-76365518D01*
G37*
G36*
X114616442Y-76365518D02*
G01*
X114682627Y-76372037D01*
X114852466Y-76423557D01*
X115008991Y-76507222D01*
X115044729Y-76536552D01*
X115146186Y-76619814D01*
X115229448Y-76721271D01*
X115258778Y-76757009D01*
X115342443Y-76913534D01*
X115393963Y-77083373D01*
X115411359Y-77260000D01*
X115393963Y-77436627D01*
X115342443Y-77606466D01*
X115258778Y-77762991D01*
X115229448Y-77798729D01*
X115146186Y-77900186D01*
X115044729Y-77983448D01*
X115008991Y-78012778D01*
X114852466Y-78096443D01*
X114682627Y-78147963D01*
X114616443Y-78154481D01*
X114550260Y-78161000D01*
X114461740Y-78161000D01*
X114395557Y-78154481D01*
X114329373Y-78147963D01*
X114159534Y-78096443D01*
X114003009Y-78012778D01*
X113967271Y-77983448D01*
X113865814Y-77900186D01*
X113782552Y-77798729D01*
X113753222Y-77762991D01*
X113669557Y-77606466D01*
X113618037Y-77436627D01*
X113600641Y-77260000D01*
X113618037Y-77083373D01*
X113669557Y-76913534D01*
X113753222Y-76757009D01*
X113782552Y-76721271D01*
X113865814Y-76619814D01*
X113967271Y-76536552D01*
X114003009Y-76507222D01*
X114159534Y-76423557D01*
X114329373Y-76372037D01*
X114395558Y-76365518D01*
X114461740Y-76359000D01*
X114550260Y-76359000D01*
X114616442Y-76365518D01*
X114616442Y-76365518D01*
G37*
G36*
X117410443Y-73825519D02*
G01*
X117476627Y-73832037D01*
X117646466Y-73883557D01*
X117802991Y-73967222D01*
X117838729Y-73996552D01*
X117940186Y-74079814D01*
X118023448Y-74181271D01*
X118052778Y-74217009D01*
X118136443Y-74373534D01*
X118187963Y-74543373D01*
X118205359Y-74720000D01*
X118187963Y-74896627D01*
X118136443Y-75066466D01*
X118052778Y-75222991D01*
X118023448Y-75258729D01*
X117940186Y-75360186D01*
X117838729Y-75443448D01*
X117802991Y-75472778D01*
X117646466Y-75556443D01*
X117476627Y-75607963D01*
X117410443Y-75614481D01*
X117344260Y-75621000D01*
X117255740Y-75621000D01*
X117189557Y-75614481D01*
X117123373Y-75607963D01*
X116953534Y-75556443D01*
X116797009Y-75472778D01*
X116761271Y-75443448D01*
X116659814Y-75360186D01*
X116576552Y-75258729D01*
X116547222Y-75222991D01*
X116463557Y-75066466D01*
X116412037Y-74896627D01*
X116394641Y-74720000D01*
X116412037Y-74543373D01*
X116463557Y-74373534D01*
X116547222Y-74217009D01*
X116576552Y-74181271D01*
X116659814Y-74079814D01*
X116761271Y-73996552D01*
X116797009Y-73967222D01*
X116953534Y-73883557D01*
X117123373Y-73832037D01*
X117189557Y-73825519D01*
X117255740Y-73819000D01*
X117344260Y-73819000D01*
X117410443Y-73825519D01*
X117410443Y-73825519D01*
G37*
G36*
X114870443Y-73825519D02*
G01*
X114936627Y-73832037D01*
X115106466Y-73883557D01*
X115262991Y-73967222D01*
X115298729Y-73996552D01*
X115400186Y-74079814D01*
X115483448Y-74181271D01*
X115512778Y-74217009D01*
X115596443Y-74373534D01*
X115647963Y-74543373D01*
X115665359Y-74720000D01*
X115647963Y-74896627D01*
X115596443Y-75066466D01*
X115512778Y-75222991D01*
X115483448Y-75258729D01*
X115400186Y-75360186D01*
X115298729Y-75443448D01*
X115262991Y-75472778D01*
X115106466Y-75556443D01*
X114936627Y-75607963D01*
X114870443Y-75614481D01*
X114804260Y-75621000D01*
X114715740Y-75621000D01*
X114649557Y-75614481D01*
X114583373Y-75607963D01*
X114413534Y-75556443D01*
X114257009Y-75472778D01*
X114221271Y-75443448D01*
X114119814Y-75360186D01*
X114036552Y-75258729D01*
X114007222Y-75222991D01*
X113923557Y-75066466D01*
X113872037Y-74896627D01*
X113854641Y-74720000D01*
X113872037Y-74543373D01*
X113923557Y-74373534D01*
X114007222Y-74217009D01*
X114036552Y-74181271D01*
X114119814Y-74079814D01*
X114221271Y-73996552D01*
X114257009Y-73967222D01*
X114413534Y-73883557D01*
X114583373Y-73832037D01*
X114649557Y-73825519D01*
X114715740Y-73819000D01*
X114804260Y-73819000D01*
X114870443Y-73825519D01*
X114870443Y-73825519D01*
G37*
G36*
X114616442Y-71285518D02*
G01*
X114682627Y-71292037D01*
X114852466Y-71343557D01*
X115008991Y-71427222D01*
X115044729Y-71456552D01*
X115146186Y-71539814D01*
X115229448Y-71641271D01*
X115258778Y-71677009D01*
X115342443Y-71833534D01*
X115393963Y-72003373D01*
X115411359Y-72180000D01*
X115393963Y-72356627D01*
X115342443Y-72526466D01*
X115258778Y-72682991D01*
X115229448Y-72718729D01*
X115146186Y-72820186D01*
X115044729Y-72903448D01*
X115008991Y-72932778D01*
X114852466Y-73016443D01*
X114682627Y-73067963D01*
X114616442Y-73074482D01*
X114550260Y-73081000D01*
X114461740Y-73081000D01*
X114395558Y-73074482D01*
X114329373Y-73067963D01*
X114159534Y-73016443D01*
X114003009Y-72932778D01*
X113967271Y-72903448D01*
X113865814Y-72820186D01*
X113782552Y-72718729D01*
X113753222Y-72682991D01*
X113669557Y-72526466D01*
X113618037Y-72356627D01*
X113600641Y-72180000D01*
X113618037Y-72003373D01*
X113669557Y-71833534D01*
X113753222Y-71677009D01*
X113782552Y-71641271D01*
X113865814Y-71539814D01*
X113967271Y-71456552D01*
X114003009Y-71427222D01*
X114159534Y-71343557D01*
X114329373Y-71292037D01*
X114395558Y-71285518D01*
X114461740Y-71279000D01*
X114550260Y-71279000D01*
X114616442Y-71285518D01*
X114616442Y-71285518D01*
G37*
G36*
X117156442Y-71285518D02*
G01*
X117222627Y-71292037D01*
X117392466Y-71343557D01*
X117548991Y-71427222D01*
X117584729Y-71456552D01*
X117686186Y-71539814D01*
X117769448Y-71641271D01*
X117798778Y-71677009D01*
X117882443Y-71833534D01*
X117933963Y-72003373D01*
X117951359Y-72180000D01*
X117933963Y-72356627D01*
X117882443Y-72526466D01*
X117798778Y-72682991D01*
X117769448Y-72718729D01*
X117686186Y-72820186D01*
X117584729Y-72903448D01*
X117548991Y-72932778D01*
X117392466Y-73016443D01*
X117222627Y-73067963D01*
X117156442Y-73074482D01*
X117090260Y-73081000D01*
X117001740Y-73081000D01*
X116935558Y-73074482D01*
X116869373Y-73067963D01*
X116699534Y-73016443D01*
X116543009Y-72932778D01*
X116507271Y-72903448D01*
X116405814Y-72820186D01*
X116322552Y-72718729D01*
X116293222Y-72682991D01*
X116209557Y-72526466D01*
X116158037Y-72356627D01*
X116140641Y-72180000D01*
X116158037Y-72003373D01*
X116209557Y-71833534D01*
X116293222Y-71677009D01*
X116322552Y-71641271D01*
X116405814Y-71539814D01*
X116507271Y-71456552D01*
X116543009Y-71427222D01*
X116699534Y-71343557D01*
X116869373Y-71292037D01*
X116935558Y-71285518D01*
X117001740Y-71279000D01*
X117090260Y-71279000D01*
X117156442Y-71285518D01*
X117156442Y-71285518D01*
G37*
G36*
X115661000Y-70541000D02*
G01*
X113859000Y-70541000D01*
X113859000Y-68739000D01*
X115661000Y-68739000D01*
X115661000Y-70541000D01*
X115661000Y-70541000D01*
G37*
G36*
X117410443Y-68745519D02*
G01*
X117476627Y-68752037D01*
X117646466Y-68803557D01*
X117802991Y-68887222D01*
X117838729Y-68916552D01*
X117940186Y-68999814D01*
X118023448Y-69101271D01*
X118052778Y-69137009D01*
X118136443Y-69293534D01*
X118187963Y-69463373D01*
X118205359Y-69640000D01*
X118187963Y-69816627D01*
X118136443Y-69986466D01*
X118052778Y-70142991D01*
X118023448Y-70178729D01*
X117940186Y-70280186D01*
X117838729Y-70363448D01*
X117802991Y-70392778D01*
X117646466Y-70476443D01*
X117476627Y-70527963D01*
X117410442Y-70534482D01*
X117344260Y-70541000D01*
X117255740Y-70541000D01*
X117189558Y-70534482D01*
X117123373Y-70527963D01*
X116953534Y-70476443D01*
X116797009Y-70392778D01*
X116761271Y-70363448D01*
X116659814Y-70280186D01*
X116576552Y-70178729D01*
X116547222Y-70142991D01*
X116463557Y-69986466D01*
X116412037Y-69816627D01*
X116394641Y-69640000D01*
X116412037Y-69463373D01*
X116463557Y-69293534D01*
X116547222Y-69137009D01*
X116576552Y-69101271D01*
X116659814Y-68999814D01*
X116761271Y-68916552D01*
X116797009Y-68887222D01*
X116953534Y-68803557D01*
X117123373Y-68752037D01*
X117189557Y-68745519D01*
X117255740Y-68739000D01*
X117344260Y-68739000D01*
X117410443Y-68745519D01*
X117410443Y-68745519D01*
G37*
G36*
X97638205Y-67702461D02*
G01*
X97756153Y-67725922D01*
X97848194Y-67764047D01*
X97978359Y-67817963D01*
X98178342Y-67951587D01*
X98348413Y-68121658D01*
X98482037Y-68321641D01*
X98574078Y-68543848D01*
X98621000Y-68779741D01*
X98621000Y-69020259D01*
X98574078Y-69256152D01*
X98482037Y-69478359D01*
X98348413Y-69678342D01*
X98178342Y-69848413D01*
X97978359Y-69982037D01*
X97848194Y-70035953D01*
X97756153Y-70074078D01*
X97638205Y-70097539D01*
X97520259Y-70121000D01*
X97279741Y-70121000D01*
X97161795Y-70097539D01*
X97043847Y-70074078D01*
X96951806Y-70035953D01*
X96821641Y-69982037D01*
X96621658Y-69848413D01*
X96451587Y-69678342D01*
X96317963Y-69478359D01*
X96225922Y-69256152D01*
X96179000Y-69020259D01*
X96179000Y-68779741D01*
X96225922Y-68543848D01*
X96317963Y-68321641D01*
X96451587Y-68121658D01*
X96621658Y-67951587D01*
X96821641Y-67817963D01*
X96951806Y-67764047D01*
X97043847Y-67725922D01*
X97161795Y-67702461D01*
X97279741Y-67679000D01*
X97520259Y-67679000D01*
X97638205Y-67702461D01*
X97638205Y-67702461D01*
G37*
G36*
X88638205Y-67702461D02*
G01*
X88756153Y-67725922D01*
X88848194Y-67764047D01*
X88978359Y-67817963D01*
X89178342Y-67951587D01*
X89348413Y-68121658D01*
X89482037Y-68321641D01*
X89574078Y-68543848D01*
X89621000Y-68779741D01*
X89621000Y-69020259D01*
X89574078Y-69256152D01*
X89482037Y-69478359D01*
X89348413Y-69678342D01*
X89178342Y-69848413D01*
X88978359Y-69982037D01*
X88848194Y-70035953D01*
X88756153Y-70074078D01*
X88638205Y-70097539D01*
X88520259Y-70121000D01*
X88279741Y-70121000D01*
X88161795Y-70097539D01*
X88043847Y-70074078D01*
X87951806Y-70035953D01*
X87821641Y-69982037D01*
X87621658Y-69848413D01*
X87451587Y-69678342D01*
X87317963Y-69478359D01*
X87225922Y-69256152D01*
X87179000Y-69020259D01*
X87179000Y-68779741D01*
X87225922Y-68543848D01*
X87317963Y-68321641D01*
X87451587Y-68121658D01*
X87621658Y-67951587D01*
X87821641Y-67817963D01*
X87951806Y-67764047D01*
X88043847Y-67725922D01*
X88161795Y-67702461D01*
X88279741Y-67679000D01*
X88520259Y-67679000D01*
X88638205Y-67702461D01*
X88638205Y-67702461D01*
G37*
G36*
X102638205Y-67702461D02*
G01*
X102756153Y-67725922D01*
X102848194Y-67764047D01*
X102978359Y-67817963D01*
X103178342Y-67951587D01*
X103348413Y-68121658D01*
X103482037Y-68321641D01*
X103574078Y-68543848D01*
X103621000Y-68779741D01*
X103621000Y-69020259D01*
X103574078Y-69256152D01*
X103482037Y-69478359D01*
X103348413Y-69678342D01*
X103178342Y-69848413D01*
X102978359Y-69982037D01*
X102848194Y-70035953D01*
X102756153Y-70074078D01*
X102638205Y-70097539D01*
X102520259Y-70121000D01*
X102279741Y-70121000D01*
X102161795Y-70097539D01*
X102043847Y-70074078D01*
X101951806Y-70035953D01*
X101821641Y-69982037D01*
X101621658Y-69848413D01*
X101451587Y-69678342D01*
X101317963Y-69478359D01*
X101225922Y-69256152D01*
X101179000Y-69020259D01*
X101179000Y-68779741D01*
X101225922Y-68543848D01*
X101317963Y-68321641D01*
X101451587Y-68121658D01*
X101621658Y-67951587D01*
X101821641Y-67817963D01*
X101951806Y-67764047D01*
X102043847Y-67725922D01*
X102161795Y-67702461D01*
X102279741Y-67679000D01*
X102520259Y-67679000D01*
X102638205Y-67702461D01*
X102638205Y-67702461D01*
G37*
G36*
X55287939Y-52933466D02*
G01*
X55607589Y-52997048D01*
X55986671Y-53154069D01*
X56327835Y-53382028D01*
X56617972Y-53672165D01*
X56845931Y-54013329D01*
X57002952Y-54392411D01*
X57083000Y-54794841D01*
X57083000Y-55205159D01*
X57049020Y-55375989D01*
X57002952Y-55607589D01*
X56845931Y-55986671D01*
X56617972Y-56327835D01*
X56327835Y-56617972D01*
X55986671Y-56845931D01*
X55607589Y-57002952D01*
X55406373Y-57042976D01*
X55205159Y-57083000D01*
X54794841Y-57083000D01*
X54593627Y-57042976D01*
X54392411Y-57002952D01*
X54013329Y-56845931D01*
X53672165Y-56617972D01*
X53382028Y-56327835D01*
X53154069Y-55986671D01*
X52997048Y-55607589D01*
X52950980Y-55375989D01*
X52917000Y-55205159D01*
X52917000Y-54794841D01*
X52997048Y-54392411D01*
X53154069Y-54013329D01*
X53382028Y-53672165D01*
X53672165Y-53382028D01*
X54013329Y-53154069D01*
X54392411Y-52997048D01*
X54712061Y-52933466D01*
X54794841Y-52917000D01*
X55205159Y-52917000D01*
X55287939Y-52933466D01*
X55287939Y-52933466D01*
G37*
G36*
X115287939Y-52933466D02*
G01*
X115607589Y-52997048D01*
X115986671Y-53154069D01*
X116327835Y-53382028D01*
X116617972Y-53672165D01*
X116845931Y-54013329D01*
X117002952Y-54392411D01*
X117042976Y-54593627D01*
X117083000Y-54794841D01*
X117083000Y-55205159D01*
X117049020Y-55375989D01*
X117002952Y-55607589D01*
X116845931Y-55986671D01*
X116617972Y-56327835D01*
X116327835Y-56617972D01*
X115986671Y-56845931D01*
X115607589Y-57002952D01*
X115406373Y-57042976D01*
X115205159Y-57083000D01*
X114794841Y-57083000D01*
X114593627Y-57042976D01*
X114392411Y-57002952D01*
X114013329Y-56845931D01*
X113672165Y-56617972D01*
X113382028Y-56327835D01*
X113154069Y-55986671D01*
X112997048Y-55607589D01*
X112950980Y-55375989D01*
X112917000Y-55205159D01*
X112917000Y-54794841D01*
X112957024Y-54593627D01*
X112997048Y-54392411D01*
X113154069Y-54013329D01*
X113382028Y-53672165D01*
X113672165Y-53382028D01*
X114013329Y-53154069D01*
X114392411Y-52997048D01*
X114712061Y-52933466D01*
X114794841Y-52917000D01*
X115205159Y-52917000D01*
X115287939Y-52933466D01*
X115287939Y-52933466D01*
G37*
G36*
X92890443Y-54232519D02*
G01*
X92956627Y-54239037D01*
X93126466Y-54290557D01*
X93282991Y-54374222D01*
X93305154Y-54392411D01*
X93420186Y-54486814D01*
X93503448Y-54588271D01*
X93532778Y-54624009D01*
X93616443Y-54780534D01*
X93667963Y-54950373D01*
X93685359Y-55127000D01*
X93667963Y-55303627D01*
X93616443Y-55473466D01*
X93532778Y-55629991D01*
X93503448Y-55665729D01*
X93420186Y-55767186D01*
X93318729Y-55850448D01*
X93282991Y-55879778D01*
X93126466Y-55963443D01*
X92956627Y-56014963D01*
X92890443Y-56021481D01*
X92824260Y-56028000D01*
X92735740Y-56028000D01*
X92669557Y-56021481D01*
X92603373Y-56014963D01*
X92433534Y-55963443D01*
X92277009Y-55879778D01*
X92241271Y-55850448D01*
X92139814Y-55767186D01*
X92056552Y-55665729D01*
X92027222Y-55629991D01*
X91943557Y-55473466D01*
X91892037Y-55303627D01*
X91874641Y-55127000D01*
X91892037Y-54950373D01*
X91943557Y-54780534D01*
X92027222Y-54624009D01*
X92056552Y-54588271D01*
X92139814Y-54486814D01*
X92254846Y-54392411D01*
X92277009Y-54374222D01*
X92433534Y-54290557D01*
X92603373Y-54239037D01*
X92669557Y-54232519D01*
X92735740Y-54226000D01*
X92824260Y-54226000D01*
X92890443Y-54232519D01*
X92890443Y-54232519D01*
G37*
G36*
X77650443Y-54232519D02*
G01*
X77716627Y-54239037D01*
X77886466Y-54290557D01*
X78042991Y-54374222D01*
X78065154Y-54392411D01*
X78180186Y-54486814D01*
X78263448Y-54588271D01*
X78292778Y-54624009D01*
X78376443Y-54780534D01*
X78427963Y-54950373D01*
X78445359Y-55127000D01*
X78427963Y-55303627D01*
X78376443Y-55473466D01*
X78292778Y-55629991D01*
X78263448Y-55665729D01*
X78180186Y-55767186D01*
X78078729Y-55850448D01*
X78042991Y-55879778D01*
X77886466Y-55963443D01*
X77716627Y-56014963D01*
X77650443Y-56021481D01*
X77584260Y-56028000D01*
X77495740Y-56028000D01*
X77429557Y-56021481D01*
X77363373Y-56014963D01*
X77193534Y-55963443D01*
X77037009Y-55879778D01*
X77001271Y-55850448D01*
X76899814Y-55767186D01*
X76816552Y-55665729D01*
X76787222Y-55629991D01*
X76703557Y-55473466D01*
X76652037Y-55303627D01*
X76634641Y-55127000D01*
X76652037Y-54950373D01*
X76703557Y-54780534D01*
X76787222Y-54624009D01*
X76816552Y-54588271D01*
X76899814Y-54486814D01*
X77014846Y-54392411D01*
X77037009Y-54374222D01*
X77193534Y-54290557D01*
X77363373Y-54239037D01*
X77429557Y-54232519D01*
X77495740Y-54226000D01*
X77584260Y-54226000D01*
X77650443Y-54232519D01*
X77650443Y-54232519D01*
G37*
G36*
X82730443Y-54232519D02*
G01*
X82796627Y-54239037D01*
X82966466Y-54290557D01*
X83122991Y-54374222D01*
X83145154Y-54392411D01*
X83260186Y-54486814D01*
X83343448Y-54588271D01*
X83372778Y-54624009D01*
X83456443Y-54780534D01*
X83507963Y-54950373D01*
X83525359Y-55127000D01*
X83507963Y-55303627D01*
X83456443Y-55473466D01*
X83372778Y-55629991D01*
X83343448Y-55665729D01*
X83260186Y-55767186D01*
X83158729Y-55850448D01*
X83122991Y-55879778D01*
X82966466Y-55963443D01*
X82796627Y-56014963D01*
X82730443Y-56021481D01*
X82664260Y-56028000D01*
X82575740Y-56028000D01*
X82509557Y-56021481D01*
X82443373Y-56014963D01*
X82273534Y-55963443D01*
X82117009Y-55879778D01*
X82081271Y-55850448D01*
X81979814Y-55767186D01*
X81896552Y-55665729D01*
X81867222Y-55629991D01*
X81783557Y-55473466D01*
X81732037Y-55303627D01*
X81714641Y-55127000D01*
X81732037Y-54950373D01*
X81783557Y-54780534D01*
X81867222Y-54624009D01*
X81896552Y-54588271D01*
X81979814Y-54486814D01*
X82094846Y-54392411D01*
X82117009Y-54374222D01*
X82273534Y-54290557D01*
X82443373Y-54239037D01*
X82509557Y-54232519D01*
X82575740Y-54226000D01*
X82664260Y-54226000D01*
X82730443Y-54232519D01*
X82730443Y-54232519D01*
G37*
G36*
X87810443Y-54232519D02*
G01*
X87876627Y-54239037D01*
X88046466Y-54290557D01*
X88202991Y-54374222D01*
X88225154Y-54392411D01*
X88340186Y-54486814D01*
X88423448Y-54588271D01*
X88452778Y-54624009D01*
X88536443Y-54780534D01*
X88587963Y-54950373D01*
X88605359Y-55127000D01*
X88587963Y-55303627D01*
X88536443Y-55473466D01*
X88452778Y-55629991D01*
X88423448Y-55665729D01*
X88340186Y-55767186D01*
X88238729Y-55850448D01*
X88202991Y-55879778D01*
X88046466Y-55963443D01*
X87876627Y-56014963D01*
X87810443Y-56021481D01*
X87744260Y-56028000D01*
X87655740Y-56028000D01*
X87589557Y-56021481D01*
X87523373Y-56014963D01*
X87353534Y-55963443D01*
X87197009Y-55879778D01*
X87161271Y-55850448D01*
X87059814Y-55767186D01*
X86976552Y-55665729D01*
X86947222Y-55629991D01*
X86863557Y-55473466D01*
X86812037Y-55303627D01*
X86794641Y-55127000D01*
X86812037Y-54950373D01*
X86863557Y-54780534D01*
X86947222Y-54624009D01*
X86976552Y-54588271D01*
X87059814Y-54486814D01*
X87174846Y-54392411D01*
X87197009Y-54374222D01*
X87353534Y-54290557D01*
X87523373Y-54239037D01*
X87589557Y-54232519D01*
X87655740Y-54226000D01*
X87744260Y-54226000D01*
X87810443Y-54232519D01*
X87810443Y-54232519D01*
G37*
G36*
X80190442Y-53978518D02*
G01*
X80256627Y-53985037D01*
X80426466Y-54036557D01*
X80582991Y-54120222D01*
X80618729Y-54149552D01*
X80720186Y-54232814D01*
X80803448Y-54334271D01*
X80832778Y-54370009D01*
X80916443Y-54526534D01*
X80967963Y-54696373D01*
X80985359Y-54873000D01*
X80967963Y-55049627D01*
X80916443Y-55219466D01*
X80832778Y-55375991D01*
X80803448Y-55411729D01*
X80720186Y-55513186D01*
X80618729Y-55596448D01*
X80582991Y-55625778D01*
X80426466Y-55709443D01*
X80256627Y-55760963D01*
X80193453Y-55767185D01*
X80124260Y-55774000D01*
X80035740Y-55774000D01*
X79966547Y-55767185D01*
X79903373Y-55760963D01*
X79733534Y-55709443D01*
X79577009Y-55625778D01*
X79541271Y-55596448D01*
X79439814Y-55513186D01*
X79356552Y-55411729D01*
X79327222Y-55375991D01*
X79243557Y-55219466D01*
X79192037Y-55049627D01*
X79174641Y-54873000D01*
X79192037Y-54696373D01*
X79243557Y-54526534D01*
X79327222Y-54370009D01*
X79356552Y-54334271D01*
X79439814Y-54232814D01*
X79541271Y-54149552D01*
X79577009Y-54120222D01*
X79733534Y-54036557D01*
X79903373Y-53985037D01*
X79969558Y-53978518D01*
X80035740Y-53972000D01*
X80124260Y-53972000D01*
X80190442Y-53978518D01*
X80190442Y-53978518D01*
G37*
G36*
X90350442Y-53978518D02*
G01*
X90416627Y-53985037D01*
X90586466Y-54036557D01*
X90742991Y-54120222D01*
X90778729Y-54149552D01*
X90880186Y-54232814D01*
X90963448Y-54334271D01*
X90992778Y-54370009D01*
X91076443Y-54526534D01*
X91127963Y-54696373D01*
X91145359Y-54873000D01*
X91127963Y-55049627D01*
X91076443Y-55219466D01*
X90992778Y-55375991D01*
X90963448Y-55411729D01*
X90880186Y-55513186D01*
X90778729Y-55596448D01*
X90742991Y-55625778D01*
X90586466Y-55709443D01*
X90416627Y-55760963D01*
X90353453Y-55767185D01*
X90284260Y-55774000D01*
X90195740Y-55774000D01*
X90126547Y-55767185D01*
X90063373Y-55760963D01*
X89893534Y-55709443D01*
X89737009Y-55625778D01*
X89701271Y-55596448D01*
X89599814Y-55513186D01*
X89516552Y-55411729D01*
X89487222Y-55375991D01*
X89403557Y-55219466D01*
X89352037Y-55049627D01*
X89334641Y-54873000D01*
X89352037Y-54696373D01*
X89403557Y-54526534D01*
X89487222Y-54370009D01*
X89516552Y-54334271D01*
X89599814Y-54232814D01*
X89701271Y-54149552D01*
X89737009Y-54120222D01*
X89893534Y-54036557D01*
X90063373Y-53985037D01*
X90129558Y-53978518D01*
X90195740Y-53972000D01*
X90284260Y-53972000D01*
X90350442Y-53978518D01*
X90350442Y-53978518D01*
G37*
G36*
X95430442Y-53978518D02*
G01*
X95496627Y-53985037D01*
X95666466Y-54036557D01*
X95822991Y-54120222D01*
X95858729Y-54149552D01*
X95960186Y-54232814D01*
X96043448Y-54334271D01*
X96072778Y-54370009D01*
X96156443Y-54526534D01*
X96207963Y-54696373D01*
X96225359Y-54873000D01*
X96207963Y-55049627D01*
X96156443Y-55219466D01*
X96072778Y-55375991D01*
X96043448Y-55411729D01*
X95960186Y-55513186D01*
X95858729Y-55596448D01*
X95822991Y-55625778D01*
X95666466Y-55709443D01*
X95496627Y-55760963D01*
X95433453Y-55767185D01*
X95364260Y-55774000D01*
X95275740Y-55774000D01*
X95206547Y-55767185D01*
X95143373Y-55760963D01*
X94973534Y-55709443D01*
X94817009Y-55625778D01*
X94781271Y-55596448D01*
X94679814Y-55513186D01*
X94596552Y-55411729D01*
X94567222Y-55375991D01*
X94483557Y-55219466D01*
X94432037Y-55049627D01*
X94414641Y-54873000D01*
X94432037Y-54696373D01*
X94483557Y-54526534D01*
X94567222Y-54370009D01*
X94596552Y-54334271D01*
X94679814Y-54232814D01*
X94781271Y-54149552D01*
X94817009Y-54120222D01*
X94973534Y-54036557D01*
X95143373Y-53985037D01*
X95209558Y-53978518D01*
X95275740Y-53972000D01*
X95364260Y-53972000D01*
X95430442Y-53978518D01*
X95430442Y-53978518D01*
G37*
G36*
X75901000Y-55774000D02*
G01*
X74099000Y-55774000D01*
X74099000Y-53972000D01*
X75901000Y-53972000D01*
X75901000Y-55774000D01*
X75901000Y-55774000D01*
G37*
G36*
X85270442Y-53978518D02*
G01*
X85336627Y-53985037D01*
X85506466Y-54036557D01*
X85662991Y-54120222D01*
X85698729Y-54149552D01*
X85800186Y-54232814D01*
X85883448Y-54334271D01*
X85912778Y-54370009D01*
X85996443Y-54526534D01*
X86047963Y-54696373D01*
X86065359Y-54873000D01*
X86047963Y-55049627D01*
X85996443Y-55219466D01*
X85912778Y-55375991D01*
X85883448Y-55411729D01*
X85800186Y-55513186D01*
X85698729Y-55596448D01*
X85662991Y-55625778D01*
X85506466Y-55709443D01*
X85336627Y-55760963D01*
X85273453Y-55767185D01*
X85204260Y-55774000D01*
X85115740Y-55774000D01*
X85046547Y-55767185D01*
X84983373Y-55760963D01*
X84813534Y-55709443D01*
X84657009Y-55625778D01*
X84621271Y-55596448D01*
X84519814Y-55513186D01*
X84436552Y-55411729D01*
X84407222Y-55375991D01*
X84323557Y-55219466D01*
X84272037Y-55049627D01*
X84254641Y-54873000D01*
X84272037Y-54696373D01*
X84323557Y-54526534D01*
X84407222Y-54370009D01*
X84436552Y-54334271D01*
X84519814Y-54232814D01*
X84621271Y-54149552D01*
X84657009Y-54120222D01*
X84813534Y-54036557D01*
X84983373Y-53985037D01*
X85049558Y-53978518D01*
X85115740Y-53972000D01*
X85204260Y-53972000D01*
X85270442Y-53978518D01*
X85270442Y-53978518D01*
G37*
G36*
X87810443Y-51692519D02*
G01*
X87876627Y-51699037D01*
X88046466Y-51750557D01*
X88202991Y-51834222D01*
X88238729Y-51863552D01*
X88340186Y-51946814D01*
X88423448Y-52048271D01*
X88452778Y-52084009D01*
X88536443Y-52240534D01*
X88587963Y-52410373D01*
X88605359Y-52587000D01*
X88587963Y-52763627D01*
X88536443Y-52933466D01*
X88452778Y-53089991D01*
X88423448Y-53125729D01*
X88340186Y-53227186D01*
X88238729Y-53310448D01*
X88202991Y-53339778D01*
X88046466Y-53423443D01*
X87876627Y-53474963D01*
X87810442Y-53481482D01*
X87744260Y-53488000D01*
X87655740Y-53488000D01*
X87589558Y-53481482D01*
X87523373Y-53474963D01*
X87353534Y-53423443D01*
X87197009Y-53339778D01*
X87161271Y-53310448D01*
X87059814Y-53227186D01*
X86976552Y-53125729D01*
X86947222Y-53089991D01*
X86863557Y-52933466D01*
X86812037Y-52763627D01*
X86794641Y-52587000D01*
X86812037Y-52410373D01*
X86863557Y-52240534D01*
X86947222Y-52084009D01*
X86976552Y-52048271D01*
X87059814Y-51946814D01*
X87161271Y-51863552D01*
X87197009Y-51834222D01*
X87353534Y-51750557D01*
X87523373Y-51699037D01*
X87589557Y-51692519D01*
X87655740Y-51686000D01*
X87744260Y-51686000D01*
X87810443Y-51692519D01*
X87810443Y-51692519D01*
G37*
G36*
X77650443Y-51692519D02*
G01*
X77716627Y-51699037D01*
X77886466Y-51750557D01*
X78042991Y-51834222D01*
X78078729Y-51863552D01*
X78180186Y-51946814D01*
X78263448Y-52048271D01*
X78292778Y-52084009D01*
X78376443Y-52240534D01*
X78427963Y-52410373D01*
X78445359Y-52587000D01*
X78427963Y-52763627D01*
X78376443Y-52933466D01*
X78292778Y-53089991D01*
X78263448Y-53125729D01*
X78180186Y-53227186D01*
X78078729Y-53310448D01*
X78042991Y-53339778D01*
X77886466Y-53423443D01*
X77716627Y-53474963D01*
X77650442Y-53481482D01*
X77584260Y-53488000D01*
X77495740Y-53488000D01*
X77429558Y-53481482D01*
X77363373Y-53474963D01*
X77193534Y-53423443D01*
X77037009Y-53339778D01*
X77001271Y-53310448D01*
X76899814Y-53227186D01*
X76816552Y-53125729D01*
X76787222Y-53089991D01*
X76703557Y-52933466D01*
X76652037Y-52763627D01*
X76634641Y-52587000D01*
X76652037Y-52410373D01*
X76703557Y-52240534D01*
X76787222Y-52084009D01*
X76816552Y-52048271D01*
X76899814Y-51946814D01*
X77001271Y-51863552D01*
X77037009Y-51834222D01*
X77193534Y-51750557D01*
X77363373Y-51699037D01*
X77429557Y-51692519D01*
X77495740Y-51686000D01*
X77584260Y-51686000D01*
X77650443Y-51692519D01*
X77650443Y-51692519D01*
G37*
G36*
X82730443Y-51692519D02*
G01*
X82796627Y-51699037D01*
X82966466Y-51750557D01*
X83122991Y-51834222D01*
X83158729Y-51863552D01*
X83260186Y-51946814D01*
X83343448Y-52048271D01*
X83372778Y-52084009D01*
X83456443Y-52240534D01*
X83507963Y-52410373D01*
X83525359Y-52587000D01*
X83507963Y-52763627D01*
X83456443Y-52933466D01*
X83372778Y-53089991D01*
X83343448Y-53125729D01*
X83260186Y-53227186D01*
X83158729Y-53310448D01*
X83122991Y-53339778D01*
X82966466Y-53423443D01*
X82796627Y-53474963D01*
X82730442Y-53481482D01*
X82664260Y-53488000D01*
X82575740Y-53488000D01*
X82509558Y-53481482D01*
X82443373Y-53474963D01*
X82273534Y-53423443D01*
X82117009Y-53339778D01*
X82081271Y-53310448D01*
X81979814Y-53227186D01*
X81896552Y-53125729D01*
X81867222Y-53089991D01*
X81783557Y-52933466D01*
X81732037Y-52763627D01*
X81714641Y-52587000D01*
X81732037Y-52410373D01*
X81783557Y-52240534D01*
X81867222Y-52084009D01*
X81896552Y-52048271D01*
X81979814Y-51946814D01*
X82081271Y-51863552D01*
X82117009Y-51834222D01*
X82273534Y-51750557D01*
X82443373Y-51699037D01*
X82509557Y-51692519D01*
X82575740Y-51686000D01*
X82664260Y-51686000D01*
X82730443Y-51692519D01*
X82730443Y-51692519D01*
G37*
G36*
X92890443Y-51692519D02*
G01*
X92956627Y-51699037D01*
X93126466Y-51750557D01*
X93282991Y-51834222D01*
X93318729Y-51863552D01*
X93420186Y-51946814D01*
X93503448Y-52048271D01*
X93532778Y-52084009D01*
X93616443Y-52240534D01*
X93667963Y-52410373D01*
X93685359Y-52587000D01*
X93667963Y-52763627D01*
X93616443Y-52933466D01*
X93532778Y-53089991D01*
X93503448Y-53125729D01*
X93420186Y-53227186D01*
X93318729Y-53310448D01*
X93282991Y-53339778D01*
X93126466Y-53423443D01*
X92956627Y-53474963D01*
X92890442Y-53481482D01*
X92824260Y-53488000D01*
X92735740Y-53488000D01*
X92669558Y-53481482D01*
X92603373Y-53474963D01*
X92433534Y-53423443D01*
X92277009Y-53339778D01*
X92241271Y-53310448D01*
X92139814Y-53227186D01*
X92056552Y-53125729D01*
X92027222Y-53089991D01*
X91943557Y-52933466D01*
X91892037Y-52763627D01*
X91874641Y-52587000D01*
X91892037Y-52410373D01*
X91943557Y-52240534D01*
X92027222Y-52084009D01*
X92056552Y-52048271D01*
X92139814Y-51946814D01*
X92241271Y-51863552D01*
X92277009Y-51834222D01*
X92433534Y-51750557D01*
X92603373Y-51699037D01*
X92669557Y-51692519D01*
X92735740Y-51686000D01*
X92824260Y-51686000D01*
X92890443Y-51692519D01*
X92890443Y-51692519D01*
G37*
G36*
X75110442Y-51438518D02*
G01*
X75176627Y-51445037D01*
X75346466Y-51496557D01*
X75502991Y-51580222D01*
X75538729Y-51609552D01*
X75640186Y-51692814D01*
X75723448Y-51794271D01*
X75752778Y-51830009D01*
X75836443Y-51986534D01*
X75887963Y-52156373D01*
X75905359Y-52333000D01*
X75887963Y-52509627D01*
X75836443Y-52679466D01*
X75752778Y-52835991D01*
X75723448Y-52871729D01*
X75640186Y-52973186D01*
X75538729Y-53056448D01*
X75502991Y-53085778D01*
X75346466Y-53169443D01*
X75176627Y-53220963D01*
X75113453Y-53227185D01*
X75044260Y-53234000D01*
X74955740Y-53234000D01*
X74886547Y-53227185D01*
X74823373Y-53220963D01*
X74653534Y-53169443D01*
X74497009Y-53085778D01*
X74461271Y-53056448D01*
X74359814Y-52973186D01*
X74276552Y-52871729D01*
X74247222Y-52835991D01*
X74163557Y-52679466D01*
X74112037Y-52509627D01*
X74094641Y-52333000D01*
X74112037Y-52156373D01*
X74163557Y-51986534D01*
X74247222Y-51830009D01*
X74276552Y-51794271D01*
X74359814Y-51692814D01*
X74461271Y-51609552D01*
X74497009Y-51580222D01*
X74653534Y-51496557D01*
X74823373Y-51445037D01*
X74889557Y-51438519D01*
X74955740Y-51432000D01*
X75044260Y-51432000D01*
X75110442Y-51438518D01*
X75110442Y-51438518D01*
G37*
G36*
X80190442Y-51438518D02*
G01*
X80256627Y-51445037D01*
X80426466Y-51496557D01*
X80582991Y-51580222D01*
X80618729Y-51609552D01*
X80720186Y-51692814D01*
X80803448Y-51794271D01*
X80832778Y-51830009D01*
X80916443Y-51986534D01*
X80967963Y-52156373D01*
X80985359Y-52333000D01*
X80967963Y-52509627D01*
X80916443Y-52679466D01*
X80832778Y-52835991D01*
X80803448Y-52871729D01*
X80720186Y-52973186D01*
X80618729Y-53056448D01*
X80582991Y-53085778D01*
X80426466Y-53169443D01*
X80256627Y-53220963D01*
X80193453Y-53227185D01*
X80124260Y-53234000D01*
X80035740Y-53234000D01*
X79966547Y-53227185D01*
X79903373Y-53220963D01*
X79733534Y-53169443D01*
X79577009Y-53085778D01*
X79541271Y-53056448D01*
X79439814Y-52973186D01*
X79356552Y-52871729D01*
X79327222Y-52835991D01*
X79243557Y-52679466D01*
X79192037Y-52509627D01*
X79174641Y-52333000D01*
X79192037Y-52156373D01*
X79243557Y-51986534D01*
X79327222Y-51830009D01*
X79356552Y-51794271D01*
X79439814Y-51692814D01*
X79541271Y-51609552D01*
X79577009Y-51580222D01*
X79733534Y-51496557D01*
X79903373Y-51445037D01*
X79969557Y-51438519D01*
X80035740Y-51432000D01*
X80124260Y-51432000D01*
X80190442Y-51438518D01*
X80190442Y-51438518D01*
G37*
G36*
X85270442Y-51438518D02*
G01*
X85336627Y-51445037D01*
X85506466Y-51496557D01*
X85662991Y-51580222D01*
X85698729Y-51609552D01*
X85800186Y-51692814D01*
X85883448Y-51794271D01*
X85912778Y-51830009D01*
X85996443Y-51986534D01*
X86047963Y-52156373D01*
X86065359Y-52333000D01*
X86047963Y-52509627D01*
X85996443Y-52679466D01*
X85912778Y-52835991D01*
X85883448Y-52871729D01*
X85800186Y-52973186D01*
X85698729Y-53056448D01*
X85662991Y-53085778D01*
X85506466Y-53169443D01*
X85336627Y-53220963D01*
X85273453Y-53227185D01*
X85204260Y-53234000D01*
X85115740Y-53234000D01*
X85046547Y-53227185D01*
X84983373Y-53220963D01*
X84813534Y-53169443D01*
X84657009Y-53085778D01*
X84621271Y-53056448D01*
X84519814Y-52973186D01*
X84436552Y-52871729D01*
X84407222Y-52835991D01*
X84323557Y-52679466D01*
X84272037Y-52509627D01*
X84254641Y-52333000D01*
X84272037Y-52156373D01*
X84323557Y-51986534D01*
X84407222Y-51830009D01*
X84436552Y-51794271D01*
X84519814Y-51692814D01*
X84621271Y-51609552D01*
X84657009Y-51580222D01*
X84813534Y-51496557D01*
X84983373Y-51445037D01*
X85049557Y-51438519D01*
X85115740Y-51432000D01*
X85204260Y-51432000D01*
X85270442Y-51438518D01*
X85270442Y-51438518D01*
G37*
G36*
X90350442Y-51438518D02*
G01*
X90416627Y-51445037D01*
X90586466Y-51496557D01*
X90742991Y-51580222D01*
X90778729Y-51609552D01*
X90880186Y-51692814D01*
X90963448Y-51794271D01*
X90992778Y-51830009D01*
X91076443Y-51986534D01*
X91127963Y-52156373D01*
X91145359Y-52333000D01*
X91127963Y-52509627D01*
X91076443Y-52679466D01*
X90992778Y-52835991D01*
X90963448Y-52871729D01*
X90880186Y-52973186D01*
X90778729Y-53056448D01*
X90742991Y-53085778D01*
X90586466Y-53169443D01*
X90416627Y-53220963D01*
X90353453Y-53227185D01*
X90284260Y-53234000D01*
X90195740Y-53234000D01*
X90126547Y-53227185D01*
X90063373Y-53220963D01*
X89893534Y-53169443D01*
X89737009Y-53085778D01*
X89701271Y-53056448D01*
X89599814Y-52973186D01*
X89516552Y-52871729D01*
X89487222Y-52835991D01*
X89403557Y-52679466D01*
X89352037Y-52509627D01*
X89334641Y-52333000D01*
X89352037Y-52156373D01*
X89403557Y-51986534D01*
X89487222Y-51830009D01*
X89516552Y-51794271D01*
X89599814Y-51692814D01*
X89701271Y-51609552D01*
X89737009Y-51580222D01*
X89893534Y-51496557D01*
X90063373Y-51445037D01*
X90129557Y-51438519D01*
X90195740Y-51432000D01*
X90284260Y-51432000D01*
X90350442Y-51438518D01*
X90350442Y-51438518D01*
G37*
G36*
X95430442Y-51438518D02*
G01*
X95496627Y-51445037D01*
X95666466Y-51496557D01*
X95822991Y-51580222D01*
X95858729Y-51609552D01*
X95960186Y-51692814D01*
X96043448Y-51794271D01*
X96072778Y-51830009D01*
X96156443Y-51986534D01*
X96207963Y-52156373D01*
X96225359Y-52333000D01*
X96207963Y-52509627D01*
X96156443Y-52679466D01*
X96072778Y-52835991D01*
X96043448Y-52871729D01*
X95960186Y-52973186D01*
X95858729Y-53056448D01*
X95822991Y-53085778D01*
X95666466Y-53169443D01*
X95496627Y-53220963D01*
X95433453Y-53227185D01*
X95364260Y-53234000D01*
X95275740Y-53234000D01*
X95206547Y-53227185D01*
X95143373Y-53220963D01*
X94973534Y-53169443D01*
X94817009Y-53085778D01*
X94781271Y-53056448D01*
X94679814Y-52973186D01*
X94596552Y-52871729D01*
X94567222Y-52835991D01*
X94483557Y-52679466D01*
X94432037Y-52509627D01*
X94414641Y-52333000D01*
X94432037Y-52156373D01*
X94483557Y-51986534D01*
X94567222Y-51830009D01*
X94596552Y-51794271D01*
X94679814Y-51692814D01*
X94781271Y-51609552D01*
X94817009Y-51580222D01*
X94973534Y-51496557D01*
X95143373Y-51445037D01*
X95209557Y-51438519D01*
X95275740Y-51432000D01*
X95364260Y-51432000D01*
X95430442Y-51438518D01*
X95430442Y-51438518D01*
G37*
M02*
