M48
; DRILL file {KiCad (5.1.0)-1} date 5/25/2019 11:51:30 AM
; FORMAT={2:4/ absolute / inch / suppress leading zeros}
; #@! TF.CreationDate,2019-05-25T11:51:30-04:00
; #@! TF.GenerationSoftware,Kicad,Pcbnew,(5.1.0)-1
; #@! TF.FileFunction,Plated,1,2,PTH
FMAT,2
INCH,TZ
T1C0.0157
T2C0.0300
T3C0.0394
T4C0.0512
T5C0.1260
%
G90
G05
T1
X22795Y-36614
X23661Y-26772
X23976Y-29724
X24016Y-30236
X24055Y-28110
X24213Y-31181
X24449Y-28701
X24449Y-30512
X24606Y-31850
X24724Y-31260
X24921Y-32520
X25157Y-31772
X25197Y-36614
X25750Y-33230
X26270Y-50810
X26920Y-55750
X27244Y-48740
X28237Y-48353
X29134Y-32480
X30430Y-30550
X30510Y-51380
X30945Y-22677
X31102Y-27598
X31102Y-34646
X31240Y-56440
X31339Y-23307
X31650Y-37240
X32820Y-38950
X33120Y-43790
X33661Y-23189
X33690Y-46180
X34290Y-32590
X34646Y-23071
X38260Y-50540
X39710Y-47190
X39780Y-40730
X40790Y-49359
X41339Y-37441
X41680Y-28790
X42090Y-50540
X42126Y-36614
X42870Y-50480
X43740Y-23230
X43870Y-36660
T2
X29880Y-31820
X29880Y-34820
T3
X45081Y-28417
X45081Y-30417
X45181Y-27417
X45181Y-29417
X45181Y-31417
X46081Y-28417
X46081Y-30417
X46181Y-27417
X46181Y-29417
X46181Y-31417
X29528Y-20604
X29528Y-21604
X30528Y-20704
X30528Y-21704
X31528Y-20604
X31528Y-21604
X32528Y-20704
X32528Y-21704
X33528Y-20604
X33528Y-21604
X34528Y-20704
X34528Y-21704
X35528Y-20604
X35528Y-21604
X36528Y-20704
X36528Y-21704
X37528Y-20604
X37528Y-21604
T4
X33819Y-31063
X34803Y-27126
X35787Y-31063
X34763Y-55614
X38700Y-54630
X38700Y-56599
X38346Y-27126
X39331Y-31063
X40315Y-27126
X32840Y-48773
X33824Y-52710
X34809Y-48773
X23731Y-45050
X24716Y-41113
X25700Y-45050
T5
X45276Y-21654
X45276Y-57087
X21654Y-21654
X21654Y-57087
T0
M30
