G04 #@! TF.GenerationSoftware,KiCad,Pcbnew,(5.1.0)-1*
G04 #@! TF.CreationDate,2019-05-25T13:24:55-04:00*
G04 #@! TF.ProjectId,VCO_2_RevB,56434f5f-325f-4526-9576-422e6b696361,A*
G04 #@! TF.SameCoordinates,Original*
G04 #@! TF.FileFunction,Copper,L2,Bot*
G04 #@! TF.FilePolarity,Positive*
%FSLAX46Y46*%
G04 Gerber Fmt 4.6, Leading zero omitted, Abs format (unit mm)*
G04 Created by KiCad (PCBNEW (5.1.0)-1) date 2019-05-25 13:24:55*
%MOMM*%
%LPD*%
G04 APERTURE LIST*
%ADD10C,1.524000*%
%ADD11C,2.340000*%
%ADD12O,1.700000X1.700000*%
%ADD13R,1.700000X1.700000*%
%ADD14C,4.064000*%
%ADD15C,0.800000*%
%ADD16C,0.500000*%
%ADD17C,0.250000*%
%ADD18C,0.254000*%
G04 APERTURE END LIST*
D10*
X75895200Y-80822800D03*
X75895200Y-88442800D03*
D11*
X102400000Y-68900000D03*
X99900000Y-78900000D03*
X97400000Y-68900000D03*
X85900000Y-78900000D03*
X88400000Y-68900000D03*
X90900000Y-78900000D03*
X98298000Y-143760200D03*
X88298000Y-141260200D03*
X98298000Y-138760200D03*
X88413600Y-123883400D03*
X85913600Y-133883400D03*
X83413600Y-123883400D03*
X60278000Y-114427000D03*
X62778000Y-104427000D03*
X65278000Y-114427000D03*
D12*
X95320000Y-52333000D03*
X95320000Y-54873000D03*
X92780000Y-52587000D03*
X92780000Y-55127000D03*
X90240000Y-52333000D03*
X90240000Y-54873000D03*
X87700000Y-52587000D03*
X87700000Y-55127000D03*
X85160000Y-52333000D03*
X85160000Y-54873000D03*
X82620000Y-52587000D03*
X82620000Y-55127000D03*
X80080000Y-52333000D03*
X80080000Y-54873000D03*
X77540000Y-52587000D03*
X77540000Y-55127000D03*
X75000000Y-52333000D03*
D13*
X75000000Y-54873000D03*
D12*
X117300000Y-79800000D03*
X114760000Y-79800000D03*
X117046000Y-77260000D03*
X114506000Y-77260000D03*
X117300000Y-74720000D03*
X114760000Y-74720000D03*
X117046000Y-72180000D03*
X114506000Y-72180000D03*
X117300000Y-69640000D03*
D13*
X114760000Y-69640000D03*
D14*
X55000000Y-55000000D03*
X115000000Y-145000000D03*
X115000000Y-55000000D03*
X55000000Y-145000000D03*
D15*
X111099600Y-59004200D03*
X84124800Y-111226600D03*
X108889800Y-128219200D03*
X77495400Y-130505200D03*
X100863400Y-119862600D03*
X85572600Y-117297200D03*
X101041200Y-103454200D03*
X111429800Y-93116400D03*
X77292200Y-77597000D03*
X87096600Y-82778600D03*
X105867200Y-73126600D03*
X68376800Y-141605000D03*
X83362800Y-98933000D03*
X103606600Y-125370799D03*
X79000000Y-88000000D03*
X74000000Y-82500000D03*
X66725800Y-129057400D03*
X80391000Y-94589600D03*
X65405000Y-84404200D03*
X64000000Y-93000000D03*
X57900000Y-93000000D03*
X69200000Y-123800000D03*
X105000000Y-95100000D03*
X107000000Y-93000000D03*
X63300000Y-82600000D03*
X71722300Y-122816300D03*
X79349600Y-143357600D03*
X60100000Y-68000000D03*
X62100000Y-72900000D03*
X78600000Y-57600000D03*
X60900000Y-75500000D03*
X62100000Y-77500000D03*
X63900000Y-80700000D03*
X79000000Y-70100000D03*
X61100000Y-71400000D03*
X62800000Y-79400000D03*
X97180400Y-128371600D03*
X106908600Y-128371600D03*
X62500000Y-80900000D03*
X88000000Y-58600000D03*
X61000000Y-76800000D03*
X79600000Y-59200000D03*
X61500000Y-79200000D03*
X85500000Y-58900000D03*
D16*
X111029801Y-93516399D02*
X111429800Y-93116400D01*
X101491999Y-103054201D02*
X111029801Y-93516399D01*
X101441199Y-103054201D02*
X101491999Y-103054201D01*
X101041200Y-103454200D02*
X101441199Y-103054201D01*
X100863400Y-103632000D02*
X101041200Y-103454200D01*
X100863400Y-119862600D02*
X100863400Y-103632000D01*
X98298000Y-117297200D02*
X100863400Y-119862600D01*
X85572600Y-117297200D02*
X98298000Y-117297200D01*
X103569999Y-70069999D02*
X102400000Y-68900000D01*
X104068601Y-70069999D02*
X103569999Y-70069999D01*
X111429800Y-77431198D02*
X104068601Y-70069999D01*
X111429800Y-93116400D02*
X111429800Y-77431198D01*
X102400000Y-61953000D02*
X95320000Y-54873000D01*
X102400000Y-68900000D02*
X102400000Y-61953000D01*
X87096600Y-82778600D02*
X82512799Y-87362401D01*
X81915000Y-77597000D02*
X87096600Y-82778600D01*
X77292200Y-77597000D02*
X81915000Y-77597000D01*
X81793599Y-115310401D02*
X82512799Y-114591201D01*
X82512799Y-87362401D02*
X82512799Y-114591201D01*
X68776799Y-141205001D02*
X70554799Y-141205001D01*
X68376800Y-141605000D02*
X68776799Y-141205001D01*
X81793599Y-129966201D02*
X81793599Y-123489201D01*
X70554799Y-141205001D02*
X81793599Y-129966201D01*
X81793599Y-123489201D02*
X81793599Y-115310401D01*
X105301515Y-73126600D02*
X102628115Y-75800000D01*
X105867200Y-73126600D02*
X105301515Y-73126600D01*
X100100000Y-75800000D02*
X93121400Y-82778600D01*
X102628115Y-75800000D02*
X100100000Y-75800000D01*
X87096600Y-82778600D02*
X93121400Y-82778600D01*
D17*
X83362800Y-98933000D02*
X85902800Y-101473000D01*
X85902800Y-101473000D02*
X85902800Y-114833400D01*
X85902800Y-114833400D02*
X84556600Y-116179600D01*
X84556600Y-117354202D02*
X92475198Y-125272800D01*
X84556600Y-116179600D02*
X84556600Y-117354202D01*
X92475198Y-125272800D02*
X103508601Y-125272800D01*
X103508601Y-125272800D02*
X103606600Y-125370799D01*
X79000000Y-88000000D02*
X74000000Y-83000000D01*
X74000000Y-83000000D02*
X74000000Y-82500000D01*
X80391000Y-115392200D02*
X80391000Y-94589600D01*
X76771500Y-119011700D02*
X80391000Y-115392200D01*
X76771500Y-125006100D02*
X76771500Y-119011700D01*
X72720200Y-129057400D02*
X76771500Y-125006100D01*
X66725800Y-129057400D02*
X72720200Y-129057400D01*
X69443600Y-88442800D02*
X75895200Y-88442800D01*
X65405000Y-84404200D02*
X69443600Y-88442800D01*
X63434315Y-93000000D02*
X57900000Y-93000000D01*
X64000000Y-93000000D02*
X63434315Y-93000000D01*
X60278000Y-114878000D02*
X60278000Y-114427000D01*
X69200000Y-123800000D02*
X60278000Y-114878000D01*
X107000000Y-93100000D02*
X107000000Y-93000000D01*
X105000000Y-95100000D02*
X107000000Y-93100000D01*
X93629999Y-53436999D02*
X92780000Y-52587000D01*
X93955001Y-53762001D02*
X93629999Y-53436999D01*
X63300000Y-82600000D02*
X65975071Y-79924929D01*
X65975071Y-79924929D02*
X65975071Y-62524929D01*
X65975071Y-62524929D02*
X66149950Y-62350050D01*
X66149950Y-62350050D02*
X88149950Y-62350050D01*
X88149950Y-62350050D02*
X93955001Y-56544999D01*
X93955001Y-56544999D02*
X93955001Y-53762001D01*
X66395600Y-143408400D02*
X79298800Y-143408400D01*
X60604400Y-137617200D02*
X66395600Y-143408400D01*
X60604400Y-132816600D02*
X60604400Y-137617200D01*
X71722300Y-123381985D02*
X71704200Y-123400085D01*
X71704200Y-123400085D02*
X71704200Y-125628400D01*
X71704200Y-125628400D02*
X69088000Y-128244600D01*
X69088000Y-128244600D02*
X65176400Y-128244600D01*
X79298800Y-143408400D02*
X79349600Y-143357600D01*
X71722300Y-122816300D02*
X71722300Y-123381985D01*
X65176400Y-128244600D02*
X60604400Y-132816600D01*
X78650999Y-56302001D02*
X65697999Y-56302001D01*
X80080000Y-54873000D02*
X78650999Y-56302001D01*
X65697999Y-56302001D02*
X60100000Y-61900000D01*
X60100000Y-61900000D02*
X60100000Y-68000000D01*
X62100000Y-72900000D02*
X62100000Y-61172820D01*
X62100000Y-61172820D02*
X65672820Y-57600000D01*
X65672820Y-57600000D02*
X78600000Y-57600000D01*
X62825001Y-73574999D02*
X62825001Y-61084229D01*
X60900000Y-75500000D02*
X62825001Y-73574999D01*
X84310001Y-55722999D02*
X85160000Y-54873000D01*
X81707999Y-58325001D02*
X84310001Y-55722999D01*
X65584229Y-58325001D02*
X81707999Y-58325001D01*
X62825001Y-61084229D02*
X65584229Y-58325001D01*
X82727000Y-60100000D02*
X87700000Y-55127000D01*
X65082050Y-60100000D02*
X82727000Y-60100000D01*
X63725021Y-61457029D02*
X65082050Y-60100000D01*
X62100000Y-77500000D02*
X63725021Y-75874979D01*
X63725021Y-75874979D02*
X63725021Y-61457029D01*
X86006960Y-61900040D02*
X92780000Y-55127000D01*
X65936370Y-61900040D02*
X86006960Y-61900040D01*
X65525061Y-62311349D02*
X65936370Y-61900040D01*
X63900000Y-80700000D02*
X65525061Y-79074939D01*
X65525061Y-79074939D02*
X65525061Y-62311349D01*
X85900000Y-78900000D02*
X85900000Y-77000000D01*
X85900000Y-77000000D02*
X79000000Y-70100000D01*
X80994989Y-56752011D02*
X78837399Y-56752011D01*
X82620000Y-55127000D02*
X80994989Y-56752011D01*
X78837399Y-56752011D02*
X65884399Y-56752011D01*
X65884399Y-56752011D02*
X61100000Y-61536410D01*
X61100000Y-61536410D02*
X61100000Y-71400000D01*
X90900000Y-71400000D02*
X88400000Y-68900000D01*
X90900000Y-78900000D02*
X90900000Y-71400000D01*
X89390001Y-55722999D02*
X90240000Y-54873000D01*
X62800000Y-79400000D02*
X64625041Y-77574959D01*
X64625041Y-77574959D02*
X64625041Y-61911369D01*
X64625041Y-61911369D02*
X65536390Y-61000020D01*
X65536390Y-61000020D02*
X84472982Y-61000020D01*
X84472982Y-61000020D02*
X89390001Y-56083001D01*
X89390001Y-56083001D02*
X89390001Y-55722999D01*
X97180400Y-128371600D02*
X97746085Y-128371600D01*
X97746085Y-128371600D02*
X106908600Y-128371600D01*
X65075050Y-78324950D02*
X65075051Y-77761359D01*
X62500000Y-80900000D02*
X65075050Y-78324950D01*
X65075051Y-62124949D02*
X65749970Y-61450030D01*
X65075051Y-77761359D02*
X65075051Y-62124949D01*
X65749970Y-61450030D02*
X69000000Y-61450030D01*
X69000000Y-61450030D02*
X85149970Y-61450030D01*
X85149970Y-61450030D02*
X88000000Y-58600000D01*
X63275011Y-74524989D02*
X63275011Y-61270629D01*
X61000000Y-76800000D02*
X63275011Y-74524989D01*
X63275011Y-61270629D02*
X65345640Y-59200000D01*
X65345640Y-59200000D02*
X79600000Y-59200000D01*
X64175030Y-76524970D02*
X64175031Y-76061379D01*
X61500000Y-79200000D02*
X64175030Y-76524970D01*
X64175031Y-76061379D02*
X64175031Y-62100000D01*
X64175031Y-61724969D02*
X65349990Y-60550010D01*
X64175031Y-62100000D02*
X64175031Y-61724969D01*
X65349990Y-60550010D02*
X83849990Y-60550010D01*
X83849990Y-60550010D02*
X85500000Y-58900000D01*
D18*
G36*
X119340001Y-149340000D02*
G01*
X50660000Y-149340000D01*
X50660000Y-144737323D01*
X52333000Y-144737323D01*
X52333000Y-145262677D01*
X52435492Y-145777935D01*
X52636536Y-146263298D01*
X52928406Y-146700113D01*
X53299887Y-147071594D01*
X53736702Y-147363464D01*
X54222065Y-147564508D01*
X54737323Y-147667000D01*
X55262677Y-147667000D01*
X55777935Y-147564508D01*
X56263298Y-147363464D01*
X56700113Y-147071594D01*
X57071594Y-146700113D01*
X57363464Y-146263298D01*
X57564508Y-145777935D01*
X57667000Y-145262677D01*
X57667000Y-144737323D01*
X57564508Y-144222065D01*
X57363464Y-143736702D01*
X57071594Y-143299887D01*
X56700113Y-142928406D01*
X56263298Y-142636536D01*
X55777935Y-142435492D01*
X55262677Y-142333000D01*
X54737323Y-142333000D01*
X54222065Y-142435492D01*
X53736702Y-142636536D01*
X53299887Y-142928406D01*
X52928406Y-143299887D01*
X52636536Y-143736702D01*
X52435492Y-144222065D01*
X52333000Y-144737323D01*
X50660000Y-144737323D01*
X50660000Y-114249223D01*
X58473000Y-114249223D01*
X58473000Y-114604777D01*
X58542365Y-114953499D01*
X58678429Y-115281988D01*
X58875965Y-115577621D01*
X59127379Y-115829035D01*
X59423012Y-116026571D01*
X59751501Y-116162635D01*
X60100223Y-116232000D01*
X60455777Y-116232000D01*
X60540372Y-116215173D01*
X68165000Y-123839803D01*
X68165000Y-123901939D01*
X68204774Y-124101898D01*
X68282795Y-124290256D01*
X68396063Y-124459774D01*
X68540226Y-124603937D01*
X68709744Y-124717205D01*
X68898102Y-124795226D01*
X69098061Y-124835000D01*
X69301939Y-124835000D01*
X69501898Y-124795226D01*
X69690256Y-124717205D01*
X69859774Y-124603937D01*
X70003937Y-124459774D01*
X70117205Y-124290256D01*
X70195226Y-124101898D01*
X70235000Y-123901939D01*
X70235000Y-123698061D01*
X70195226Y-123498102D01*
X70117205Y-123309744D01*
X70003937Y-123140226D01*
X69859774Y-122996063D01*
X69690256Y-122882795D01*
X69501898Y-122804774D01*
X69301939Y-122765000D01*
X69239803Y-122765000D01*
X62158405Y-115683602D01*
X64201003Y-115683602D01*
X64317275Y-115965389D01*
X64635860Y-116123257D01*
X64979122Y-116215938D01*
X65333869Y-116239873D01*
X65686470Y-116194139D01*
X66023373Y-116080495D01*
X66238725Y-115965389D01*
X66354997Y-115683602D01*
X65278000Y-114606605D01*
X64201003Y-115683602D01*
X62158405Y-115683602D01*
X61829193Y-115354391D01*
X61877571Y-115281988D01*
X62013635Y-114953499D01*
X62083000Y-114604777D01*
X62083000Y-114482869D01*
X63465127Y-114482869D01*
X63510861Y-114835470D01*
X63624505Y-115172373D01*
X63739611Y-115387725D01*
X64021398Y-115503997D01*
X65098395Y-114427000D01*
X65457605Y-114427000D01*
X66534602Y-115503997D01*
X66816389Y-115387725D01*
X66974257Y-115069140D01*
X67066938Y-114725878D01*
X67090873Y-114371131D01*
X67045139Y-114018530D01*
X66931495Y-113681627D01*
X66816389Y-113466275D01*
X66534602Y-113350003D01*
X65457605Y-114427000D01*
X65098395Y-114427000D01*
X64021398Y-113350003D01*
X63739611Y-113466275D01*
X63581743Y-113784860D01*
X63489062Y-114128122D01*
X63465127Y-114482869D01*
X62083000Y-114482869D01*
X62083000Y-114249223D01*
X62013635Y-113900501D01*
X61877571Y-113572012D01*
X61680035Y-113276379D01*
X61574054Y-113170398D01*
X64201003Y-113170398D01*
X65278000Y-114247395D01*
X66354997Y-113170398D01*
X66238725Y-112888611D01*
X65920140Y-112730743D01*
X65576878Y-112638062D01*
X65222131Y-112614127D01*
X64869530Y-112659861D01*
X64532627Y-112773505D01*
X64317275Y-112888611D01*
X64201003Y-113170398D01*
X61574054Y-113170398D01*
X61428621Y-113024965D01*
X61132988Y-112827429D01*
X60804499Y-112691365D01*
X60455777Y-112622000D01*
X60100223Y-112622000D01*
X59751501Y-112691365D01*
X59423012Y-112827429D01*
X59127379Y-113024965D01*
X58875965Y-113276379D01*
X58678429Y-113572012D01*
X58542365Y-113900501D01*
X58473000Y-114249223D01*
X50660000Y-114249223D01*
X50660000Y-104249223D01*
X60973000Y-104249223D01*
X60973000Y-104604777D01*
X61042365Y-104953499D01*
X61178429Y-105281988D01*
X61375965Y-105577621D01*
X61627379Y-105829035D01*
X61923012Y-106026571D01*
X62251501Y-106162635D01*
X62600223Y-106232000D01*
X62955777Y-106232000D01*
X63304499Y-106162635D01*
X63632988Y-106026571D01*
X63928621Y-105829035D01*
X64180035Y-105577621D01*
X64377571Y-105281988D01*
X64513635Y-104953499D01*
X64583000Y-104604777D01*
X64583000Y-104249223D01*
X64513635Y-103900501D01*
X64377571Y-103572012D01*
X64180035Y-103276379D01*
X63928621Y-103024965D01*
X63632988Y-102827429D01*
X63304499Y-102691365D01*
X62955777Y-102622000D01*
X62600223Y-102622000D01*
X62251501Y-102691365D01*
X61923012Y-102827429D01*
X61627379Y-103024965D01*
X61375965Y-103276379D01*
X61178429Y-103572012D01*
X61042365Y-103900501D01*
X60973000Y-104249223D01*
X50660000Y-104249223D01*
X50660000Y-92898061D01*
X56865000Y-92898061D01*
X56865000Y-93101939D01*
X56904774Y-93301898D01*
X56982795Y-93490256D01*
X57096063Y-93659774D01*
X57240226Y-93803937D01*
X57409744Y-93917205D01*
X57598102Y-93995226D01*
X57798061Y-94035000D01*
X58001939Y-94035000D01*
X58201898Y-93995226D01*
X58390256Y-93917205D01*
X58559774Y-93803937D01*
X58603711Y-93760000D01*
X63296289Y-93760000D01*
X63340226Y-93803937D01*
X63509744Y-93917205D01*
X63698102Y-93995226D01*
X63898061Y-94035000D01*
X64101939Y-94035000D01*
X64301898Y-93995226D01*
X64490256Y-93917205D01*
X64659774Y-93803937D01*
X64803937Y-93659774D01*
X64917205Y-93490256D01*
X64995226Y-93301898D01*
X65035000Y-93101939D01*
X65035000Y-92898061D01*
X64995226Y-92698102D01*
X64917205Y-92509744D01*
X64803937Y-92340226D01*
X64659774Y-92196063D01*
X64490256Y-92082795D01*
X64301898Y-92004774D01*
X64101939Y-91965000D01*
X63898061Y-91965000D01*
X63698102Y-92004774D01*
X63509744Y-92082795D01*
X63340226Y-92196063D01*
X63296289Y-92240000D01*
X58603711Y-92240000D01*
X58559774Y-92196063D01*
X58390256Y-92082795D01*
X58201898Y-92004774D01*
X58001939Y-91965000D01*
X57798061Y-91965000D01*
X57598102Y-92004774D01*
X57409744Y-92082795D01*
X57240226Y-92196063D01*
X57096063Y-92340226D01*
X56982795Y-92509744D01*
X56904774Y-92698102D01*
X56865000Y-92898061D01*
X50660000Y-92898061D01*
X50660000Y-84302261D01*
X64370000Y-84302261D01*
X64370000Y-84506139D01*
X64409774Y-84706098D01*
X64487795Y-84894456D01*
X64601063Y-85063974D01*
X64745226Y-85208137D01*
X64914744Y-85321405D01*
X65103102Y-85399426D01*
X65303061Y-85439200D01*
X65365199Y-85439200D01*
X68879801Y-88953803D01*
X68903599Y-88982801D01*
X68932597Y-89006599D01*
X69019323Y-89077774D01*
X69151353Y-89148346D01*
X69294614Y-89191803D01*
X69406267Y-89202800D01*
X69406277Y-89202800D01*
X69443600Y-89206476D01*
X69480923Y-89202800D01*
X74722859Y-89202800D01*
X74810080Y-89333335D01*
X75004665Y-89527920D01*
X75233473Y-89680805D01*
X75487710Y-89786114D01*
X75757608Y-89839800D01*
X76032792Y-89839800D01*
X76302690Y-89786114D01*
X76556927Y-89680805D01*
X76785735Y-89527920D01*
X76980320Y-89333335D01*
X77133205Y-89104527D01*
X77238514Y-88850290D01*
X77292200Y-88580392D01*
X77292200Y-88305208D01*
X77238514Y-88035310D01*
X77133205Y-87781073D01*
X76980320Y-87552265D01*
X76785735Y-87357680D01*
X76556927Y-87204795D01*
X76302690Y-87099486D01*
X76032792Y-87045800D01*
X75757608Y-87045800D01*
X75487710Y-87099486D01*
X75233473Y-87204795D01*
X75004665Y-87357680D01*
X74810080Y-87552265D01*
X74722859Y-87682800D01*
X69758402Y-87682800D01*
X66440000Y-84364399D01*
X66440000Y-84302261D01*
X66400226Y-84102302D01*
X66322205Y-83913944D01*
X66208937Y-83744426D01*
X66064774Y-83600263D01*
X65895256Y-83486995D01*
X65706898Y-83408974D01*
X65506939Y-83369200D01*
X65303061Y-83369200D01*
X65103102Y-83408974D01*
X64914744Y-83486995D01*
X64745226Y-83600263D01*
X64601063Y-83744426D01*
X64487795Y-83913944D01*
X64409774Y-84102302D01*
X64370000Y-84302261D01*
X50660000Y-84302261D01*
X50660000Y-67898061D01*
X59065000Y-67898061D01*
X59065000Y-68101939D01*
X59104774Y-68301898D01*
X59182795Y-68490256D01*
X59296063Y-68659774D01*
X59440226Y-68803937D01*
X59609744Y-68917205D01*
X59798102Y-68995226D01*
X59998061Y-69035000D01*
X60201939Y-69035000D01*
X60340001Y-69007538D01*
X60340001Y-70696288D01*
X60296063Y-70740226D01*
X60182795Y-70909744D01*
X60104774Y-71098102D01*
X60065000Y-71298061D01*
X60065000Y-71501939D01*
X60104774Y-71701898D01*
X60182795Y-71890256D01*
X60296063Y-72059774D01*
X60440226Y-72203937D01*
X60609744Y-72317205D01*
X60798102Y-72395226D01*
X60998061Y-72435000D01*
X61172334Y-72435000D01*
X61104774Y-72598102D01*
X61065000Y-72798061D01*
X61065000Y-73001939D01*
X61104774Y-73201898D01*
X61182795Y-73390256D01*
X61296063Y-73559774D01*
X61440226Y-73703937D01*
X61548749Y-73776449D01*
X60860199Y-74465000D01*
X60798061Y-74465000D01*
X60598102Y-74504774D01*
X60409744Y-74582795D01*
X60240226Y-74696063D01*
X60096063Y-74840226D01*
X59982795Y-75009744D01*
X59904774Y-75198102D01*
X59865000Y-75398061D01*
X59865000Y-75601939D01*
X59904774Y-75801898D01*
X59982795Y-75990256D01*
X60096063Y-76159774D01*
X60148179Y-76211890D01*
X60082795Y-76309744D01*
X60004774Y-76498102D01*
X59965000Y-76698061D01*
X59965000Y-76901939D01*
X60004774Y-77101898D01*
X60082795Y-77290256D01*
X60196063Y-77459774D01*
X60340226Y-77603937D01*
X60509744Y-77717205D01*
X60698102Y-77795226D01*
X60898061Y-77835000D01*
X61101939Y-77835000D01*
X61117226Y-77831959D01*
X61182795Y-77990256D01*
X61296063Y-78159774D01*
X61317344Y-78181055D01*
X61198102Y-78204774D01*
X61009744Y-78282795D01*
X60840226Y-78396063D01*
X60696063Y-78540226D01*
X60582795Y-78709744D01*
X60504774Y-78898102D01*
X60465000Y-79098061D01*
X60465000Y-79301939D01*
X60504774Y-79501898D01*
X60582795Y-79690256D01*
X60696063Y-79859774D01*
X60840226Y-80003937D01*
X61009744Y-80117205D01*
X61198102Y-80195226D01*
X61398061Y-80235000D01*
X61601939Y-80235000D01*
X61725958Y-80210331D01*
X61696063Y-80240226D01*
X61582795Y-80409744D01*
X61504774Y-80598102D01*
X61465000Y-80798061D01*
X61465000Y-81001939D01*
X61504774Y-81201898D01*
X61582795Y-81390256D01*
X61696063Y-81559774D01*
X61840226Y-81703937D01*
X62009744Y-81817205D01*
X62198102Y-81895226D01*
X62398061Y-81935000D01*
X62501289Y-81935000D01*
X62496063Y-81940226D01*
X62382795Y-82109744D01*
X62304774Y-82298102D01*
X62265000Y-82498061D01*
X62265000Y-82701939D01*
X62304774Y-82901898D01*
X62382795Y-83090256D01*
X62496063Y-83259774D01*
X62640226Y-83403937D01*
X62809744Y-83517205D01*
X62998102Y-83595226D01*
X63198061Y-83635000D01*
X63401939Y-83635000D01*
X63601898Y-83595226D01*
X63790256Y-83517205D01*
X63959774Y-83403937D01*
X64103937Y-83259774D01*
X64217205Y-83090256D01*
X64295226Y-82901898D01*
X64335000Y-82701939D01*
X64335000Y-82639801D01*
X64576740Y-82398061D01*
X72965000Y-82398061D01*
X72965000Y-82601939D01*
X73004774Y-82801898D01*
X73082795Y-82990256D01*
X73196063Y-83159774D01*
X73279614Y-83243325D01*
X73294454Y-83292246D01*
X73365026Y-83424276D01*
X73404871Y-83472826D01*
X73459999Y-83540001D01*
X73489003Y-83563804D01*
X77965000Y-88039802D01*
X77965000Y-88101939D01*
X78004774Y-88301898D01*
X78082795Y-88490256D01*
X78196063Y-88659774D01*
X78340226Y-88803937D01*
X78509744Y-88917205D01*
X78698102Y-88995226D01*
X78898061Y-89035000D01*
X79101939Y-89035000D01*
X79301898Y-88995226D01*
X79490256Y-88917205D01*
X79659774Y-88803937D01*
X79803937Y-88659774D01*
X79917205Y-88490256D01*
X79995226Y-88301898D01*
X80035000Y-88101939D01*
X80035000Y-87898061D01*
X79995226Y-87698102D01*
X79917205Y-87509744D01*
X79803937Y-87340226D01*
X79659774Y-87196063D01*
X79490256Y-87082795D01*
X79301898Y-87004774D01*
X79101939Y-86965000D01*
X79039802Y-86965000D01*
X74960510Y-82885709D01*
X74995226Y-82801898D01*
X75035000Y-82601939D01*
X75035000Y-82398061D01*
X74995226Y-82198102D01*
X74917205Y-82009744D01*
X74803937Y-81840226D01*
X74659774Y-81696063D01*
X74490256Y-81582795D01*
X74301898Y-81504774D01*
X74101939Y-81465000D01*
X73898061Y-81465000D01*
X73698102Y-81504774D01*
X73509744Y-81582795D01*
X73340226Y-81696063D01*
X73196063Y-81840226D01*
X73082795Y-82009744D01*
X73004774Y-82198102D01*
X72965000Y-82398061D01*
X64576740Y-82398061D01*
X66289593Y-80685208D01*
X74498200Y-80685208D01*
X74498200Y-80960392D01*
X74551886Y-81230290D01*
X74657195Y-81484527D01*
X74810080Y-81713335D01*
X75004665Y-81907920D01*
X75233473Y-82060805D01*
X75487710Y-82166114D01*
X75757608Y-82219800D01*
X76032792Y-82219800D01*
X76302690Y-82166114D01*
X76556927Y-82060805D01*
X76785735Y-81907920D01*
X76980320Y-81713335D01*
X77133205Y-81484527D01*
X77238514Y-81230290D01*
X77292200Y-80960392D01*
X77292200Y-80685208D01*
X77238514Y-80415310D01*
X77133205Y-80161073D01*
X76980320Y-79932265D01*
X76785735Y-79737680D01*
X76556927Y-79584795D01*
X76302690Y-79479486D01*
X76032792Y-79425800D01*
X75757608Y-79425800D01*
X75487710Y-79479486D01*
X75233473Y-79584795D01*
X75004665Y-79737680D01*
X74810080Y-79932265D01*
X74657195Y-80161073D01*
X74551886Y-80415310D01*
X74498200Y-80685208D01*
X66289593Y-80685208D01*
X66486075Y-80488727D01*
X66515072Y-80464930D01*
X66610045Y-80349205D01*
X66680617Y-80217176D01*
X66724074Y-80073915D01*
X66735071Y-79962262D01*
X66735071Y-79962254D01*
X66738747Y-79924929D01*
X66735071Y-79887604D01*
X66735071Y-68722223D01*
X86595000Y-68722223D01*
X86595000Y-69077777D01*
X86664365Y-69426499D01*
X86800429Y-69754988D01*
X86997965Y-70050621D01*
X87249379Y-70302035D01*
X87545012Y-70499571D01*
X87873501Y-70635635D01*
X88222223Y-70705000D01*
X88577777Y-70705000D01*
X88926499Y-70635635D01*
X89021488Y-70596289D01*
X90140001Y-71714803D01*
X90140000Y-77261084D01*
X90045012Y-77300429D01*
X89749379Y-77497965D01*
X89497965Y-77749379D01*
X89300429Y-78045012D01*
X89164365Y-78373501D01*
X89095000Y-78722223D01*
X89095000Y-79077777D01*
X89164365Y-79426499D01*
X89300429Y-79754988D01*
X89497965Y-80050621D01*
X89749379Y-80302035D01*
X90045012Y-80499571D01*
X90373501Y-80635635D01*
X90722223Y-80705000D01*
X91077777Y-80705000D01*
X91426499Y-80635635D01*
X91754988Y-80499571D01*
X92050621Y-80302035D01*
X92302035Y-80050621D01*
X92499571Y-79754988D01*
X92635635Y-79426499D01*
X92705000Y-79077777D01*
X92705000Y-78722223D01*
X92635635Y-78373501D01*
X92499571Y-78045012D01*
X92302035Y-77749379D01*
X92050621Y-77497965D01*
X91754988Y-77300429D01*
X91660000Y-77261084D01*
X91660000Y-71437323D01*
X91663676Y-71400000D01*
X91660000Y-71362677D01*
X91660000Y-71362667D01*
X91649003Y-71251014D01*
X91605546Y-71107753D01*
X91590445Y-71079502D01*
X91534974Y-70975723D01*
X91463799Y-70888997D01*
X91440001Y-70859999D01*
X91411003Y-70836201D01*
X90731404Y-70156602D01*
X96323003Y-70156602D01*
X96439275Y-70438389D01*
X96757860Y-70596257D01*
X97101122Y-70688938D01*
X97455869Y-70712873D01*
X97808470Y-70667139D01*
X98145373Y-70553495D01*
X98360725Y-70438389D01*
X98476997Y-70156602D01*
X97400000Y-69079605D01*
X96323003Y-70156602D01*
X90731404Y-70156602D01*
X90096289Y-69521488D01*
X90135635Y-69426499D01*
X90205000Y-69077777D01*
X90205000Y-68955869D01*
X95587127Y-68955869D01*
X95632861Y-69308470D01*
X95746505Y-69645373D01*
X95861611Y-69860725D01*
X96143398Y-69976997D01*
X97220395Y-68900000D01*
X97579605Y-68900000D01*
X98656602Y-69976997D01*
X98938389Y-69860725D01*
X99096257Y-69542140D01*
X99188938Y-69198878D01*
X99212873Y-68844131D01*
X99167139Y-68491530D01*
X99053495Y-68154627D01*
X98938389Y-67939275D01*
X98656602Y-67823003D01*
X97579605Y-68900000D01*
X97220395Y-68900000D01*
X96143398Y-67823003D01*
X95861611Y-67939275D01*
X95703743Y-68257860D01*
X95611062Y-68601122D01*
X95587127Y-68955869D01*
X90205000Y-68955869D01*
X90205000Y-68722223D01*
X90135635Y-68373501D01*
X89999571Y-68045012D01*
X89802035Y-67749379D01*
X89696054Y-67643398D01*
X96323003Y-67643398D01*
X97400000Y-68720395D01*
X98476997Y-67643398D01*
X98360725Y-67361611D01*
X98042140Y-67203743D01*
X97698878Y-67111062D01*
X97344131Y-67087127D01*
X96991530Y-67132861D01*
X96654627Y-67246505D01*
X96439275Y-67361611D01*
X96323003Y-67643398D01*
X89696054Y-67643398D01*
X89550621Y-67497965D01*
X89254988Y-67300429D01*
X88926499Y-67164365D01*
X88577777Y-67095000D01*
X88222223Y-67095000D01*
X87873501Y-67164365D01*
X87545012Y-67300429D01*
X87249379Y-67497965D01*
X86997965Y-67749379D01*
X86800429Y-68045012D01*
X86664365Y-68373501D01*
X86595000Y-68722223D01*
X66735071Y-68722223D01*
X66735071Y-63110050D01*
X88112628Y-63110050D01*
X88149950Y-63113726D01*
X88187272Y-63110050D01*
X88187283Y-63110050D01*
X88298936Y-63099053D01*
X88442197Y-63055596D01*
X88574226Y-62985024D01*
X88689951Y-62890051D01*
X88713754Y-62861047D01*
X94466005Y-57108797D01*
X94495002Y-57085000D01*
X94589975Y-56969275D01*
X94660547Y-56837246D01*
X94704004Y-56693985D01*
X94715001Y-56582332D01*
X94715001Y-56582322D01*
X94718677Y-56544999D01*
X94715001Y-56507676D01*
X94715001Y-56233444D01*
X94748966Y-56251599D01*
X95028889Y-56336513D01*
X95247050Y-56358000D01*
X95392950Y-56358000D01*
X95539034Y-56343612D01*
X101515001Y-62319580D01*
X101515000Y-67320482D01*
X101249379Y-67497965D01*
X100997965Y-67749379D01*
X100800429Y-68045012D01*
X100664365Y-68373501D01*
X100595000Y-68722223D01*
X100595000Y-69077777D01*
X100664365Y-69426499D01*
X100800429Y-69754988D01*
X100997965Y-70050621D01*
X101249379Y-70302035D01*
X101545012Y-70499571D01*
X101873501Y-70635635D01*
X102222223Y-70705000D01*
X102577777Y-70705000D01*
X102891098Y-70642677D01*
X102913469Y-70665048D01*
X102941182Y-70698816D01*
X102974950Y-70726529D01*
X102974952Y-70726531D01*
X103015459Y-70759774D01*
X103075940Y-70809410D01*
X103229686Y-70891588D01*
X103396509Y-70942194D01*
X103526522Y-70954999D01*
X103526532Y-70954999D01*
X103569998Y-70959280D01*
X103613464Y-70954999D01*
X103702023Y-70954999D01*
X105030894Y-72283870D01*
X104961201Y-72305011D01*
X104807456Y-72387189D01*
X104706468Y-72470068D01*
X104706466Y-72470070D01*
X104672698Y-72497783D01*
X104644985Y-72531551D01*
X102261537Y-74915000D01*
X100143469Y-74915000D01*
X100100000Y-74910719D01*
X100056531Y-74915000D01*
X100056523Y-74915000D01*
X99926510Y-74927805D01*
X99759687Y-74978411D01*
X99605941Y-75060589D01*
X99504953Y-75143468D01*
X99504951Y-75143470D01*
X99471183Y-75171183D01*
X99443470Y-75204951D01*
X92754822Y-81893600D01*
X87635054Y-81893600D01*
X87586856Y-81861395D01*
X87398498Y-81783374D01*
X87341644Y-81772065D01*
X86241927Y-80672349D01*
X86426499Y-80635635D01*
X86754988Y-80499571D01*
X87050621Y-80302035D01*
X87302035Y-80050621D01*
X87499571Y-79754988D01*
X87635635Y-79426499D01*
X87705000Y-79077777D01*
X87705000Y-78722223D01*
X87635635Y-78373501D01*
X87499571Y-78045012D01*
X87302035Y-77749379D01*
X87050621Y-77497965D01*
X86754988Y-77300429D01*
X86660000Y-77261084D01*
X86660000Y-77037333D01*
X86663677Y-77000000D01*
X86649003Y-76851014D01*
X86605546Y-76707753D01*
X86534974Y-76575724D01*
X86521251Y-76559003D01*
X86440001Y-76459999D01*
X86411003Y-76436201D01*
X80035000Y-70060199D01*
X80035000Y-69998061D01*
X79995226Y-69798102D01*
X79917205Y-69609744D01*
X79803937Y-69440226D01*
X79659774Y-69296063D01*
X79490256Y-69182795D01*
X79301898Y-69104774D01*
X79101939Y-69065000D01*
X78898061Y-69065000D01*
X78698102Y-69104774D01*
X78509744Y-69182795D01*
X78340226Y-69296063D01*
X78196063Y-69440226D01*
X78082795Y-69609744D01*
X78004774Y-69798102D01*
X77965000Y-69998061D01*
X77965000Y-70201939D01*
X78004774Y-70401898D01*
X78082795Y-70590256D01*
X78196063Y-70759774D01*
X78340226Y-70903937D01*
X78509744Y-71017205D01*
X78698102Y-71095226D01*
X78898061Y-71135000D01*
X78960199Y-71135000D01*
X85102016Y-77276817D01*
X85045012Y-77300429D01*
X84749379Y-77497965D01*
X84497965Y-77749379D01*
X84300429Y-78045012D01*
X84164365Y-78373501D01*
X84127651Y-78558073D01*
X82571534Y-77001956D01*
X82543817Y-76968183D01*
X82409059Y-76857589D01*
X82255313Y-76775411D01*
X82088490Y-76724805D01*
X81958477Y-76712000D01*
X81958469Y-76712000D01*
X81915000Y-76707719D01*
X81871531Y-76712000D01*
X77830654Y-76712000D01*
X77782456Y-76679795D01*
X77594098Y-76601774D01*
X77394139Y-76562000D01*
X77190261Y-76562000D01*
X76990302Y-76601774D01*
X76801944Y-76679795D01*
X76632426Y-76793063D01*
X76488263Y-76937226D01*
X76374995Y-77106744D01*
X76296974Y-77295102D01*
X76257200Y-77495061D01*
X76257200Y-77698939D01*
X76296974Y-77898898D01*
X76374995Y-78087256D01*
X76488263Y-78256774D01*
X76632426Y-78400937D01*
X76801944Y-78514205D01*
X76990302Y-78592226D01*
X77190261Y-78632000D01*
X77394139Y-78632000D01*
X77594098Y-78592226D01*
X77782456Y-78514205D01*
X77830654Y-78482000D01*
X81548422Y-78482000D01*
X85845021Y-82778600D01*
X81917755Y-86705867D01*
X81883982Y-86733584D01*
X81773388Y-86868343D01*
X81691210Y-87022089D01*
X81640604Y-87188912D01*
X81627799Y-87318925D01*
X81627799Y-87318932D01*
X81623518Y-87362401D01*
X81627799Y-87405870D01*
X81627800Y-114224621D01*
X81198550Y-114653872D01*
X81164783Y-114681584D01*
X81151000Y-114698378D01*
X81151000Y-95293311D01*
X81194937Y-95249374D01*
X81308205Y-95079856D01*
X81386226Y-94891498D01*
X81426000Y-94691539D01*
X81426000Y-94487661D01*
X81386226Y-94287702D01*
X81308205Y-94099344D01*
X81194937Y-93929826D01*
X81050774Y-93785663D01*
X80881256Y-93672395D01*
X80692898Y-93594374D01*
X80492939Y-93554600D01*
X80289061Y-93554600D01*
X80089102Y-93594374D01*
X79900744Y-93672395D01*
X79731226Y-93785663D01*
X79587063Y-93929826D01*
X79473795Y-94099344D01*
X79395774Y-94287702D01*
X79356000Y-94487661D01*
X79356000Y-94691539D01*
X79395774Y-94891498D01*
X79473795Y-95079856D01*
X79587063Y-95249374D01*
X79631001Y-95293312D01*
X79631000Y-115077398D01*
X76260498Y-118447901D01*
X76231500Y-118471699D01*
X76207702Y-118500697D01*
X76207701Y-118500698D01*
X76136526Y-118587424D01*
X76065954Y-118719454D01*
X76022498Y-118862715D01*
X76007824Y-119011700D01*
X76011501Y-119049032D01*
X76011500Y-124691297D01*
X72405399Y-128297400D01*
X70110001Y-128297400D01*
X72215203Y-126192199D01*
X72244201Y-126168401D01*
X72339174Y-126052676D01*
X72409746Y-125920647D01*
X72453203Y-125777386D01*
X72464200Y-125665733D01*
X72467877Y-125628400D01*
X72464200Y-125591067D01*
X72464200Y-123554387D01*
X72471287Y-123531024D01*
X72526237Y-123476074D01*
X72639505Y-123306556D01*
X72717526Y-123118198D01*
X72757300Y-122918239D01*
X72757300Y-122714361D01*
X72717526Y-122514402D01*
X72639505Y-122326044D01*
X72526237Y-122156526D01*
X72382074Y-122012363D01*
X72212556Y-121899095D01*
X72024198Y-121821074D01*
X71824239Y-121781300D01*
X71620361Y-121781300D01*
X71420402Y-121821074D01*
X71232044Y-121899095D01*
X71062526Y-122012363D01*
X70918363Y-122156526D01*
X70805095Y-122326044D01*
X70727074Y-122514402D01*
X70687300Y-122714361D01*
X70687300Y-122918239D01*
X70727074Y-123118198D01*
X70805095Y-123306556D01*
X70918363Y-123476074D01*
X70944200Y-123501911D01*
X70944201Y-125313597D01*
X68773199Y-127484600D01*
X65213722Y-127484600D01*
X65176399Y-127480924D01*
X65139076Y-127484600D01*
X65139067Y-127484600D01*
X65027414Y-127495597D01*
X64884153Y-127539054D01*
X64752124Y-127609626D01*
X64752122Y-127609627D01*
X64752123Y-127609627D01*
X64665396Y-127680801D01*
X64665392Y-127680805D01*
X64636399Y-127704599D01*
X64612605Y-127733592D01*
X60093403Y-132252796D01*
X60064399Y-132276599D01*
X60009271Y-132343774D01*
X59969426Y-132392324D01*
X59921832Y-132481365D01*
X59898854Y-132524354D01*
X59855397Y-132667615D01*
X59844400Y-132779268D01*
X59844400Y-132779278D01*
X59840724Y-132816600D01*
X59844400Y-132853923D01*
X59844401Y-137579868D01*
X59840724Y-137617200D01*
X59855398Y-137766185D01*
X59898854Y-137909446D01*
X59969426Y-138041476D01*
X60040601Y-138128202D01*
X60064400Y-138157201D01*
X60093398Y-138180999D01*
X65831801Y-143919403D01*
X65855599Y-143948401D01*
X65884597Y-143972199D01*
X65971324Y-144043374D01*
X66103353Y-144113946D01*
X66246614Y-144157403D01*
X66395600Y-144172077D01*
X66432933Y-144168400D01*
X78700097Y-144168400D01*
X78859344Y-144274805D01*
X79047702Y-144352826D01*
X79247661Y-144392600D01*
X79451539Y-144392600D01*
X79651498Y-144352826D01*
X79839856Y-144274805D01*
X80009374Y-144161537D01*
X80153537Y-144017374D01*
X80266805Y-143847856D01*
X80344826Y-143659498D01*
X80360157Y-143582423D01*
X96493000Y-143582423D01*
X96493000Y-143937977D01*
X96562365Y-144286699D01*
X96698429Y-144615188D01*
X96895965Y-144910821D01*
X97147379Y-145162235D01*
X97443012Y-145359771D01*
X97771501Y-145495835D01*
X98120223Y-145565200D01*
X98475777Y-145565200D01*
X98824499Y-145495835D01*
X99152988Y-145359771D01*
X99448621Y-145162235D01*
X99700035Y-144910821D01*
X99815962Y-144737323D01*
X112333000Y-144737323D01*
X112333000Y-145262677D01*
X112435492Y-145777935D01*
X112636536Y-146263298D01*
X112928406Y-146700113D01*
X113299887Y-147071594D01*
X113736702Y-147363464D01*
X114222065Y-147564508D01*
X114737323Y-147667000D01*
X115262677Y-147667000D01*
X115777935Y-147564508D01*
X116263298Y-147363464D01*
X116700113Y-147071594D01*
X117071594Y-146700113D01*
X117363464Y-146263298D01*
X117564508Y-145777935D01*
X117667000Y-145262677D01*
X117667000Y-144737323D01*
X117564508Y-144222065D01*
X117363464Y-143736702D01*
X117071594Y-143299887D01*
X116700113Y-142928406D01*
X116263298Y-142636536D01*
X115777935Y-142435492D01*
X115262677Y-142333000D01*
X114737323Y-142333000D01*
X114222065Y-142435492D01*
X113736702Y-142636536D01*
X113299887Y-142928406D01*
X112928406Y-143299887D01*
X112636536Y-143736702D01*
X112435492Y-144222065D01*
X112333000Y-144737323D01*
X99815962Y-144737323D01*
X99897571Y-144615188D01*
X100033635Y-144286699D01*
X100103000Y-143937977D01*
X100103000Y-143582423D01*
X100033635Y-143233701D01*
X99897571Y-142905212D01*
X99700035Y-142609579D01*
X99448621Y-142358165D01*
X99152988Y-142160629D01*
X98824499Y-142024565D01*
X98475777Y-141955200D01*
X98120223Y-141955200D01*
X97771501Y-142024565D01*
X97443012Y-142160629D01*
X97147379Y-142358165D01*
X96895965Y-142609579D01*
X96698429Y-142905212D01*
X96562365Y-143233701D01*
X96493000Y-143582423D01*
X80360157Y-143582423D01*
X80384600Y-143459539D01*
X80384600Y-143255661D01*
X80344826Y-143055702D01*
X80266805Y-142867344D01*
X80153537Y-142697826D01*
X80009374Y-142553663D01*
X79839856Y-142440395D01*
X79651498Y-142362374D01*
X79451539Y-142322600D01*
X79247661Y-142322600D01*
X79047702Y-142362374D01*
X78859344Y-142440395D01*
X78689826Y-142553663D01*
X78595089Y-142648400D01*
X66710402Y-142648400D01*
X61364400Y-137302399D01*
X61364400Y-133131401D01*
X65491203Y-129004600D01*
X65690800Y-129004600D01*
X65690800Y-129159339D01*
X65730574Y-129359298D01*
X65808595Y-129547656D01*
X65921863Y-129717174D01*
X66066026Y-129861337D01*
X66235544Y-129974605D01*
X66423902Y-130052626D01*
X66623861Y-130092400D01*
X66827739Y-130092400D01*
X67027698Y-130052626D01*
X67216056Y-129974605D01*
X67385574Y-129861337D01*
X67429511Y-129817400D01*
X72682878Y-129817400D01*
X72720200Y-129821076D01*
X72757522Y-129817400D01*
X72757533Y-129817400D01*
X72869186Y-129806403D01*
X73012447Y-129762946D01*
X73144476Y-129692374D01*
X73260201Y-129597401D01*
X73284004Y-129568397D01*
X77282509Y-125569894D01*
X77311501Y-125546101D01*
X77335295Y-125517108D01*
X77335299Y-125517104D01*
X77406473Y-125430377D01*
X77406474Y-125430376D01*
X77477046Y-125298347D01*
X77520503Y-125155086D01*
X77531500Y-125043433D01*
X77531500Y-125043424D01*
X77535176Y-125006101D01*
X77531500Y-124968778D01*
X77531500Y-119326501D01*
X80902004Y-115955998D01*
X80908600Y-115950585D01*
X80908599Y-123532677D01*
X80908600Y-123532687D01*
X80908599Y-129599622D01*
X70188221Y-140320001D01*
X68820265Y-140320001D01*
X68776798Y-140315720D01*
X68733332Y-140320001D01*
X68733322Y-140320001D01*
X68603309Y-140332806D01*
X68436486Y-140383412D01*
X68282740Y-140465590D01*
X68147982Y-140576184D01*
X68129294Y-140598955D01*
X68074902Y-140609774D01*
X67886544Y-140687795D01*
X67717026Y-140801063D01*
X67572863Y-140945226D01*
X67459595Y-141114744D01*
X67381574Y-141303102D01*
X67341800Y-141503061D01*
X67341800Y-141706939D01*
X67381574Y-141906898D01*
X67459595Y-142095256D01*
X67572863Y-142264774D01*
X67717026Y-142408937D01*
X67886544Y-142522205D01*
X68074902Y-142600226D01*
X68274861Y-142640000D01*
X68478739Y-142640000D01*
X68678698Y-142600226D01*
X68867056Y-142522205D01*
X69036574Y-142408937D01*
X69180737Y-142264774D01*
X69294005Y-142095256D01*
X69296182Y-142090001D01*
X70511330Y-142090001D01*
X70554799Y-142094282D01*
X70598268Y-142090001D01*
X70598276Y-142090001D01*
X70728289Y-142077196D01*
X70895112Y-142026590D01*
X71048858Y-141944412D01*
X71183616Y-141833818D01*
X71211333Y-141800045D01*
X71928955Y-141082423D01*
X86493000Y-141082423D01*
X86493000Y-141437977D01*
X86562365Y-141786699D01*
X86698429Y-142115188D01*
X86895965Y-142410821D01*
X87147379Y-142662235D01*
X87443012Y-142859771D01*
X87771501Y-142995835D01*
X88120223Y-143065200D01*
X88475777Y-143065200D01*
X88824499Y-142995835D01*
X89152988Y-142859771D01*
X89448621Y-142662235D01*
X89700035Y-142410821D01*
X89897571Y-142115188D01*
X90033635Y-141786699D01*
X90103000Y-141437977D01*
X90103000Y-141082423D01*
X90033635Y-140733701D01*
X89897571Y-140405212D01*
X89700035Y-140109579D01*
X89448621Y-139858165D01*
X89152988Y-139660629D01*
X88824499Y-139524565D01*
X88475777Y-139455200D01*
X88120223Y-139455200D01*
X87771501Y-139524565D01*
X87443012Y-139660629D01*
X87147379Y-139858165D01*
X86895965Y-140109579D01*
X86698429Y-140405212D01*
X86562365Y-140733701D01*
X86493000Y-141082423D01*
X71928955Y-141082423D01*
X74428955Y-138582423D01*
X96493000Y-138582423D01*
X96493000Y-138937977D01*
X96562365Y-139286699D01*
X96698429Y-139615188D01*
X96895965Y-139910821D01*
X97147379Y-140162235D01*
X97443012Y-140359771D01*
X97771501Y-140495835D01*
X98120223Y-140565200D01*
X98475777Y-140565200D01*
X98824499Y-140495835D01*
X99152988Y-140359771D01*
X99448621Y-140162235D01*
X99700035Y-139910821D01*
X99897571Y-139615188D01*
X100033635Y-139286699D01*
X100103000Y-138937977D01*
X100103000Y-138582423D01*
X100033635Y-138233701D01*
X99897571Y-137905212D01*
X99700035Y-137609579D01*
X99448621Y-137358165D01*
X99152988Y-137160629D01*
X98824499Y-137024565D01*
X98475777Y-136955200D01*
X98120223Y-136955200D01*
X97771501Y-137024565D01*
X97443012Y-137160629D01*
X97147379Y-137358165D01*
X96895965Y-137609579D01*
X96698429Y-137905212D01*
X96562365Y-138233701D01*
X96493000Y-138582423D01*
X74428955Y-138582423D01*
X79305755Y-133705623D01*
X84108600Y-133705623D01*
X84108600Y-134061177D01*
X84177965Y-134409899D01*
X84314029Y-134738388D01*
X84511565Y-135034021D01*
X84762979Y-135285435D01*
X85058612Y-135482971D01*
X85387101Y-135619035D01*
X85735823Y-135688400D01*
X86091377Y-135688400D01*
X86440099Y-135619035D01*
X86768588Y-135482971D01*
X87064221Y-135285435D01*
X87315635Y-135034021D01*
X87513171Y-134738388D01*
X87649235Y-134409899D01*
X87718600Y-134061177D01*
X87718600Y-133705623D01*
X87649235Y-133356901D01*
X87513171Y-133028412D01*
X87315635Y-132732779D01*
X87064221Y-132481365D01*
X86768588Y-132283829D01*
X86440099Y-132147765D01*
X86091377Y-132078400D01*
X85735823Y-132078400D01*
X85387101Y-132147765D01*
X85058612Y-132283829D01*
X84762979Y-132481365D01*
X84511565Y-132732779D01*
X84314029Y-133028412D01*
X84177965Y-133356901D01*
X84108600Y-133705623D01*
X79305755Y-133705623D01*
X82388650Y-130622729D01*
X82422416Y-130595018D01*
X82533010Y-130460260D01*
X82615188Y-130306514D01*
X82665794Y-130139691D01*
X82678599Y-130009678D01*
X82678599Y-130009668D01*
X82682880Y-129966202D01*
X82678599Y-129922736D01*
X82678599Y-128269661D01*
X96145400Y-128269661D01*
X96145400Y-128473539D01*
X96185174Y-128673498D01*
X96263195Y-128861856D01*
X96376463Y-129031374D01*
X96520626Y-129175537D01*
X96690144Y-129288805D01*
X96878502Y-129366826D01*
X97078461Y-129406600D01*
X97282339Y-129406600D01*
X97482298Y-129366826D01*
X97670656Y-129288805D01*
X97840174Y-129175537D01*
X97884111Y-129131600D01*
X106204889Y-129131600D01*
X106248826Y-129175537D01*
X106418344Y-129288805D01*
X106606702Y-129366826D01*
X106806661Y-129406600D01*
X107010539Y-129406600D01*
X107210498Y-129366826D01*
X107398856Y-129288805D01*
X107568374Y-129175537D01*
X107712537Y-129031374D01*
X107825805Y-128861856D01*
X107903826Y-128673498D01*
X107943600Y-128473539D01*
X107943600Y-128269661D01*
X107903826Y-128069702D01*
X107825805Y-127881344D01*
X107712537Y-127711826D01*
X107568374Y-127567663D01*
X107398856Y-127454395D01*
X107210498Y-127376374D01*
X107010539Y-127336600D01*
X106806661Y-127336600D01*
X106606702Y-127376374D01*
X106418344Y-127454395D01*
X106248826Y-127567663D01*
X106204889Y-127611600D01*
X97884111Y-127611600D01*
X97840174Y-127567663D01*
X97670656Y-127454395D01*
X97482298Y-127376374D01*
X97282339Y-127336600D01*
X97078461Y-127336600D01*
X96878502Y-127376374D01*
X96690144Y-127454395D01*
X96520626Y-127567663D01*
X96376463Y-127711826D01*
X96263195Y-127881344D01*
X96185174Y-128069702D01*
X96145400Y-128269661D01*
X82678599Y-128269661D01*
X82678599Y-125532671D01*
X82887101Y-125619035D01*
X83235823Y-125688400D01*
X83591377Y-125688400D01*
X83940099Y-125619035D01*
X84268588Y-125482971D01*
X84564221Y-125285435D01*
X84815635Y-125034021D01*
X85013171Y-124738388D01*
X85149235Y-124409899D01*
X85218600Y-124061177D01*
X85218600Y-123705623D01*
X85149235Y-123356901D01*
X85013171Y-123028412D01*
X84815635Y-122732779D01*
X84564221Y-122481365D01*
X84268588Y-122283829D01*
X83940099Y-122147765D01*
X83591377Y-122078400D01*
X83235823Y-122078400D01*
X82887101Y-122147765D01*
X82678599Y-122234129D01*
X82678599Y-115676979D01*
X83107848Y-115247731D01*
X83141616Y-115220018D01*
X83182463Y-115170247D01*
X83252209Y-115085261D01*
X83260826Y-115069140D01*
X83334388Y-114931514D01*
X83384994Y-114764691D01*
X83397799Y-114634678D01*
X83397799Y-114634668D01*
X83402080Y-114591202D01*
X83397799Y-114547736D01*
X83397799Y-100042800D01*
X85142800Y-101787803D01*
X85142801Y-114518597D01*
X84045603Y-115615796D01*
X84016599Y-115639599D01*
X83979794Y-115684447D01*
X83921626Y-115755324D01*
X83851055Y-115887353D01*
X83851054Y-115887354D01*
X83807597Y-116030615D01*
X83796600Y-116142268D01*
X83796600Y-116142278D01*
X83792924Y-116179600D01*
X83796600Y-116216923D01*
X83796601Y-117316870D01*
X83792924Y-117354202D01*
X83807598Y-117503187D01*
X83851054Y-117646448D01*
X83921626Y-117778478D01*
X83992801Y-117865204D01*
X84016600Y-117894203D01*
X84045598Y-117918001D01*
X88210945Y-122083349D01*
X87887101Y-122147765D01*
X87558612Y-122283829D01*
X87262979Y-122481365D01*
X87011565Y-122732779D01*
X86814029Y-123028412D01*
X86677965Y-123356901D01*
X86608600Y-123705623D01*
X86608600Y-124061177D01*
X86677965Y-124409899D01*
X86814029Y-124738388D01*
X87011565Y-125034021D01*
X87262979Y-125285435D01*
X87558612Y-125482971D01*
X87887101Y-125619035D01*
X88235823Y-125688400D01*
X88591377Y-125688400D01*
X88940099Y-125619035D01*
X89268588Y-125482971D01*
X89564221Y-125285435D01*
X89815635Y-125034021D01*
X90013171Y-124738388D01*
X90149235Y-124409899D01*
X90213651Y-124086055D01*
X91911398Y-125783802D01*
X91935197Y-125812801D01*
X92050922Y-125907774D01*
X92182951Y-125978346D01*
X92326212Y-126021803D01*
X92437865Y-126032800D01*
X92437873Y-126032800D01*
X92475198Y-126036476D01*
X92512523Y-126032800D01*
X102804890Y-126032800D01*
X102946826Y-126174736D01*
X103116344Y-126288004D01*
X103304702Y-126366025D01*
X103504661Y-126405799D01*
X103708539Y-126405799D01*
X103908498Y-126366025D01*
X104096856Y-126288004D01*
X104266374Y-126174736D01*
X104410537Y-126030573D01*
X104523805Y-125861055D01*
X104601826Y-125672697D01*
X104641600Y-125472738D01*
X104641600Y-125268860D01*
X104601826Y-125068901D01*
X104523805Y-124880543D01*
X104410537Y-124711025D01*
X104266374Y-124566862D01*
X104096856Y-124453594D01*
X103908498Y-124375573D01*
X103708539Y-124335799D01*
X103504661Y-124335799D01*
X103304702Y-124375573D01*
X103116344Y-124453594D01*
X103027736Y-124512800D01*
X92790000Y-124512800D01*
X86459399Y-118182200D01*
X97931422Y-118182200D01*
X99856865Y-120107644D01*
X99868174Y-120164498D01*
X99946195Y-120352856D01*
X100059463Y-120522374D01*
X100203626Y-120666537D01*
X100373144Y-120779805D01*
X100561502Y-120857826D01*
X100761461Y-120897600D01*
X100965339Y-120897600D01*
X101165298Y-120857826D01*
X101353656Y-120779805D01*
X101523174Y-120666537D01*
X101667337Y-120522374D01*
X101780605Y-120352856D01*
X101858626Y-120164498D01*
X101898400Y-119964539D01*
X101898400Y-119760661D01*
X101858626Y-119560702D01*
X101780605Y-119372344D01*
X101748400Y-119324146D01*
X101748400Y-104210711D01*
X101845137Y-104113974D01*
X101958405Y-103944456D01*
X102036426Y-103756098D01*
X102037335Y-103751530D01*
X102120816Y-103683018D01*
X102148533Y-103649245D01*
X111674844Y-94122935D01*
X111731698Y-94111626D01*
X111920056Y-94033605D01*
X112089574Y-93920337D01*
X112233737Y-93776174D01*
X112347005Y-93606656D01*
X112425026Y-93418298D01*
X112464800Y-93218339D01*
X112464800Y-93014461D01*
X112425026Y-92814502D01*
X112347005Y-92626144D01*
X112314800Y-92577946D01*
X112314800Y-77474663D01*
X112319081Y-77431197D01*
X112314800Y-77387731D01*
X112314800Y-77387721D01*
X112301995Y-77257708D01*
X112251389Y-77090885D01*
X112169211Y-76937139D01*
X112113629Y-76869413D01*
X112086332Y-76836151D01*
X112086330Y-76836149D01*
X112058617Y-76802381D01*
X112024849Y-76774668D01*
X107430181Y-72180000D01*
X113013815Y-72180000D01*
X113042487Y-72471111D01*
X113127401Y-72751034D01*
X113265294Y-73009014D01*
X113450866Y-73235134D01*
X113676986Y-73420706D01*
X113874036Y-73526031D01*
X113704866Y-73664866D01*
X113519294Y-73890986D01*
X113381401Y-74148966D01*
X113296487Y-74428889D01*
X113267815Y-74720000D01*
X113296487Y-75011111D01*
X113381401Y-75291034D01*
X113519294Y-75549014D01*
X113704866Y-75775134D01*
X113874036Y-75913969D01*
X113676986Y-76019294D01*
X113450866Y-76204866D01*
X113265294Y-76430986D01*
X113127401Y-76688966D01*
X113042487Y-76968889D01*
X113013815Y-77260000D01*
X113042487Y-77551111D01*
X113127401Y-77831034D01*
X113265294Y-78089014D01*
X113450866Y-78315134D01*
X113676986Y-78500706D01*
X113874036Y-78606031D01*
X113704866Y-78744866D01*
X113519294Y-78970986D01*
X113381401Y-79228966D01*
X113296487Y-79508889D01*
X113267815Y-79800000D01*
X113296487Y-80091111D01*
X113381401Y-80371034D01*
X113519294Y-80629014D01*
X113704866Y-80855134D01*
X113930986Y-81040706D01*
X114188966Y-81178599D01*
X114468889Y-81263513D01*
X114687050Y-81285000D01*
X114832950Y-81285000D01*
X115051111Y-81263513D01*
X115331034Y-81178599D01*
X115589014Y-81040706D01*
X115815134Y-80855134D01*
X116000706Y-80629014D01*
X116030000Y-80574209D01*
X116059294Y-80629014D01*
X116244866Y-80855134D01*
X116470986Y-81040706D01*
X116728966Y-81178599D01*
X117008889Y-81263513D01*
X117227050Y-81285000D01*
X117372950Y-81285000D01*
X117591111Y-81263513D01*
X117871034Y-81178599D01*
X118129014Y-81040706D01*
X118355134Y-80855134D01*
X118540706Y-80629014D01*
X118678599Y-80371034D01*
X118763513Y-80091111D01*
X118792185Y-79800000D01*
X118763513Y-79508889D01*
X118678599Y-79228966D01*
X118540706Y-78970986D01*
X118355134Y-78744866D01*
X118129014Y-78559294D01*
X117931964Y-78453969D01*
X118101134Y-78315134D01*
X118286706Y-78089014D01*
X118424599Y-77831034D01*
X118509513Y-77551111D01*
X118538185Y-77260000D01*
X118509513Y-76968889D01*
X118424599Y-76688966D01*
X118286706Y-76430986D01*
X118101134Y-76204866D01*
X117931964Y-76066031D01*
X118129014Y-75960706D01*
X118355134Y-75775134D01*
X118540706Y-75549014D01*
X118678599Y-75291034D01*
X118763513Y-75011111D01*
X118792185Y-74720000D01*
X118763513Y-74428889D01*
X118678599Y-74148966D01*
X118540706Y-73890986D01*
X118355134Y-73664866D01*
X118129014Y-73479294D01*
X117931964Y-73373969D01*
X118101134Y-73235134D01*
X118286706Y-73009014D01*
X118424599Y-72751034D01*
X118509513Y-72471111D01*
X118538185Y-72180000D01*
X118509513Y-71888889D01*
X118424599Y-71608966D01*
X118286706Y-71350986D01*
X118101134Y-71124866D01*
X117931964Y-70986031D01*
X118129014Y-70880706D01*
X118355134Y-70695134D01*
X118540706Y-70469014D01*
X118678599Y-70211034D01*
X118763513Y-69931111D01*
X118792185Y-69640000D01*
X118763513Y-69348889D01*
X118678599Y-69068966D01*
X118540706Y-68810986D01*
X118355134Y-68584866D01*
X118129014Y-68399294D01*
X117871034Y-68261401D01*
X117591111Y-68176487D01*
X117372950Y-68155000D01*
X117227050Y-68155000D01*
X117008889Y-68176487D01*
X116728966Y-68261401D01*
X116470986Y-68399294D01*
X116244866Y-68584866D01*
X116220393Y-68614687D01*
X116199502Y-68545820D01*
X116140537Y-68435506D01*
X116061185Y-68338815D01*
X115964494Y-68259463D01*
X115854180Y-68200498D01*
X115734482Y-68164188D01*
X115610000Y-68151928D01*
X113910000Y-68151928D01*
X113785518Y-68164188D01*
X113665820Y-68200498D01*
X113555506Y-68259463D01*
X113458815Y-68338815D01*
X113379463Y-68435506D01*
X113320498Y-68545820D01*
X113284188Y-68665518D01*
X113271928Y-68790000D01*
X113271928Y-70490000D01*
X113284188Y-70614482D01*
X113320498Y-70734180D01*
X113379463Y-70844494D01*
X113458815Y-70941185D01*
X113555506Y-71020537D01*
X113569123Y-71027815D01*
X113450866Y-71124866D01*
X113265294Y-71350986D01*
X113127401Y-71608966D01*
X113042487Y-71888889D01*
X113013815Y-72180000D01*
X107430181Y-72180000D01*
X104725135Y-69474955D01*
X104697418Y-69441182D01*
X104562660Y-69330588D01*
X104408914Y-69248410D01*
X104242091Y-69197804D01*
X104182297Y-69191915D01*
X104205000Y-69077777D01*
X104205000Y-68722223D01*
X104135635Y-68373501D01*
X103999571Y-68045012D01*
X103802035Y-67749379D01*
X103550621Y-67497965D01*
X103285000Y-67320482D01*
X103285000Y-61996466D01*
X103289281Y-61952999D01*
X103285000Y-61909533D01*
X103285000Y-61909523D01*
X103272195Y-61779510D01*
X103221589Y-61612687D01*
X103139411Y-61458941D01*
X103091340Y-61400367D01*
X103056532Y-61357953D01*
X103056530Y-61357951D01*
X103028817Y-61324183D01*
X102995049Y-61296470D01*
X96790612Y-55092034D01*
X96812185Y-54873000D01*
X96798822Y-54737323D01*
X112333000Y-54737323D01*
X112333000Y-55262677D01*
X112435492Y-55777935D01*
X112636536Y-56263298D01*
X112928406Y-56700113D01*
X113299887Y-57071594D01*
X113736702Y-57363464D01*
X114222065Y-57564508D01*
X114737323Y-57667000D01*
X115262677Y-57667000D01*
X115777935Y-57564508D01*
X116263298Y-57363464D01*
X116700113Y-57071594D01*
X117071594Y-56700113D01*
X117363464Y-56263298D01*
X117564508Y-55777935D01*
X117667000Y-55262677D01*
X117667000Y-54737323D01*
X117564508Y-54222065D01*
X117363464Y-53736702D01*
X117071594Y-53299887D01*
X116700113Y-52928406D01*
X116263298Y-52636536D01*
X115777935Y-52435492D01*
X115262677Y-52333000D01*
X114737323Y-52333000D01*
X114222065Y-52435492D01*
X113736702Y-52636536D01*
X113299887Y-52928406D01*
X112928406Y-53299887D01*
X112636536Y-53736702D01*
X112435492Y-54222065D01*
X112333000Y-54737323D01*
X96798822Y-54737323D01*
X96783513Y-54581889D01*
X96698599Y-54301966D01*
X96560706Y-54043986D01*
X96375134Y-53817866D01*
X96149014Y-53632294D01*
X96094209Y-53603000D01*
X96149014Y-53573706D01*
X96375134Y-53388134D01*
X96560706Y-53162014D01*
X96698599Y-52904034D01*
X96783513Y-52624111D01*
X96812185Y-52333000D01*
X96783513Y-52041889D01*
X96698599Y-51761966D01*
X96560706Y-51503986D01*
X96375134Y-51277866D01*
X96149014Y-51092294D01*
X95891034Y-50954401D01*
X95611111Y-50869487D01*
X95392950Y-50848000D01*
X95247050Y-50848000D01*
X95028889Y-50869487D01*
X94748966Y-50954401D01*
X94490986Y-51092294D01*
X94264866Y-51277866D01*
X94079294Y-51503986D01*
X93973969Y-51701036D01*
X93835134Y-51531866D01*
X93609014Y-51346294D01*
X93351034Y-51208401D01*
X93071111Y-51123487D01*
X92852950Y-51102000D01*
X92707050Y-51102000D01*
X92488889Y-51123487D01*
X92208966Y-51208401D01*
X91950986Y-51346294D01*
X91724866Y-51531866D01*
X91586031Y-51701036D01*
X91480706Y-51503986D01*
X91295134Y-51277866D01*
X91069014Y-51092294D01*
X90811034Y-50954401D01*
X90531111Y-50869487D01*
X90312950Y-50848000D01*
X90167050Y-50848000D01*
X89948889Y-50869487D01*
X89668966Y-50954401D01*
X89410986Y-51092294D01*
X89184866Y-51277866D01*
X88999294Y-51503986D01*
X88893969Y-51701036D01*
X88755134Y-51531866D01*
X88529014Y-51346294D01*
X88271034Y-51208401D01*
X87991111Y-51123487D01*
X87772950Y-51102000D01*
X87627050Y-51102000D01*
X87408889Y-51123487D01*
X87128966Y-51208401D01*
X86870986Y-51346294D01*
X86644866Y-51531866D01*
X86506031Y-51701036D01*
X86400706Y-51503986D01*
X86215134Y-51277866D01*
X85989014Y-51092294D01*
X85731034Y-50954401D01*
X85451111Y-50869487D01*
X85232950Y-50848000D01*
X85087050Y-50848000D01*
X84868889Y-50869487D01*
X84588966Y-50954401D01*
X84330986Y-51092294D01*
X84104866Y-51277866D01*
X83919294Y-51503986D01*
X83813969Y-51701036D01*
X83675134Y-51531866D01*
X83449014Y-51346294D01*
X83191034Y-51208401D01*
X82911111Y-51123487D01*
X82692950Y-51102000D01*
X82547050Y-51102000D01*
X82328889Y-51123487D01*
X82048966Y-51208401D01*
X81790986Y-51346294D01*
X81564866Y-51531866D01*
X81426031Y-51701036D01*
X81320706Y-51503986D01*
X81135134Y-51277866D01*
X80909014Y-51092294D01*
X80651034Y-50954401D01*
X80371111Y-50869487D01*
X80152950Y-50848000D01*
X80007050Y-50848000D01*
X79788889Y-50869487D01*
X79508966Y-50954401D01*
X79250986Y-51092294D01*
X79024866Y-51277866D01*
X78839294Y-51503986D01*
X78733969Y-51701036D01*
X78595134Y-51531866D01*
X78369014Y-51346294D01*
X78111034Y-51208401D01*
X77831111Y-51123487D01*
X77612950Y-51102000D01*
X77467050Y-51102000D01*
X77248889Y-51123487D01*
X76968966Y-51208401D01*
X76710986Y-51346294D01*
X76484866Y-51531866D01*
X76346031Y-51701036D01*
X76240706Y-51503986D01*
X76055134Y-51277866D01*
X75829014Y-51092294D01*
X75571034Y-50954401D01*
X75291111Y-50869487D01*
X75072950Y-50848000D01*
X74927050Y-50848000D01*
X74708889Y-50869487D01*
X74428966Y-50954401D01*
X74170986Y-51092294D01*
X73944866Y-51277866D01*
X73759294Y-51503986D01*
X73621401Y-51761966D01*
X73536487Y-52041889D01*
X73507815Y-52333000D01*
X73536487Y-52624111D01*
X73621401Y-52904034D01*
X73759294Y-53162014D01*
X73944866Y-53388134D01*
X73974687Y-53412607D01*
X73905820Y-53433498D01*
X73795506Y-53492463D01*
X73698815Y-53571815D01*
X73619463Y-53668506D01*
X73560498Y-53778820D01*
X73524188Y-53898518D01*
X73511928Y-54023000D01*
X73515000Y-54587250D01*
X73673750Y-54746000D01*
X74873000Y-54746000D01*
X74873000Y-54726000D01*
X75127000Y-54726000D01*
X75127000Y-54746000D01*
X75147000Y-54746000D01*
X75147000Y-55000000D01*
X75127000Y-55000000D01*
X75127000Y-55020000D01*
X74873000Y-55020000D01*
X74873000Y-55000000D01*
X73673750Y-55000000D01*
X73515000Y-55158750D01*
X73512913Y-55542001D01*
X65735321Y-55542001D01*
X65697998Y-55538325D01*
X65660675Y-55542001D01*
X65660666Y-55542001D01*
X65549013Y-55552998D01*
X65405752Y-55596455D01*
X65273722Y-55667027D01*
X65190082Y-55735669D01*
X65157998Y-55762000D01*
X65134200Y-55790998D01*
X59589003Y-61336196D01*
X59559999Y-61359999D01*
X59504871Y-61427174D01*
X59465026Y-61475724D01*
X59417938Y-61563819D01*
X59394454Y-61607754D01*
X59350997Y-61751015D01*
X59340000Y-61862668D01*
X59340000Y-61862678D01*
X59336324Y-61900000D01*
X59340000Y-61937323D01*
X59340001Y-67296288D01*
X59296063Y-67340226D01*
X59182795Y-67509744D01*
X59104774Y-67698102D01*
X59065000Y-67898061D01*
X50660000Y-67898061D01*
X50660000Y-54737323D01*
X52333000Y-54737323D01*
X52333000Y-55262677D01*
X52435492Y-55777935D01*
X52636536Y-56263298D01*
X52928406Y-56700113D01*
X53299887Y-57071594D01*
X53736702Y-57363464D01*
X54222065Y-57564508D01*
X54737323Y-57667000D01*
X55262677Y-57667000D01*
X55777935Y-57564508D01*
X56263298Y-57363464D01*
X56700113Y-57071594D01*
X57071594Y-56700113D01*
X57363464Y-56263298D01*
X57564508Y-55777935D01*
X57667000Y-55262677D01*
X57667000Y-54737323D01*
X57564508Y-54222065D01*
X57363464Y-53736702D01*
X57071594Y-53299887D01*
X56700113Y-52928406D01*
X56263298Y-52636536D01*
X55777935Y-52435492D01*
X55262677Y-52333000D01*
X54737323Y-52333000D01*
X54222065Y-52435492D01*
X53736702Y-52636536D01*
X53299887Y-52928406D01*
X52928406Y-53299887D01*
X52636536Y-53736702D01*
X52435492Y-54222065D01*
X52333000Y-54737323D01*
X50660000Y-54737323D01*
X50660000Y-50660000D01*
X119340000Y-50660000D01*
X119340001Y-149340000D01*
X119340001Y-149340000D01*
G37*
X119340001Y-149340000D02*
X50660000Y-149340000D01*
X50660000Y-144737323D01*
X52333000Y-144737323D01*
X52333000Y-145262677D01*
X52435492Y-145777935D01*
X52636536Y-146263298D01*
X52928406Y-146700113D01*
X53299887Y-147071594D01*
X53736702Y-147363464D01*
X54222065Y-147564508D01*
X54737323Y-147667000D01*
X55262677Y-147667000D01*
X55777935Y-147564508D01*
X56263298Y-147363464D01*
X56700113Y-147071594D01*
X57071594Y-146700113D01*
X57363464Y-146263298D01*
X57564508Y-145777935D01*
X57667000Y-145262677D01*
X57667000Y-144737323D01*
X57564508Y-144222065D01*
X57363464Y-143736702D01*
X57071594Y-143299887D01*
X56700113Y-142928406D01*
X56263298Y-142636536D01*
X55777935Y-142435492D01*
X55262677Y-142333000D01*
X54737323Y-142333000D01*
X54222065Y-142435492D01*
X53736702Y-142636536D01*
X53299887Y-142928406D01*
X52928406Y-143299887D01*
X52636536Y-143736702D01*
X52435492Y-144222065D01*
X52333000Y-144737323D01*
X50660000Y-144737323D01*
X50660000Y-114249223D01*
X58473000Y-114249223D01*
X58473000Y-114604777D01*
X58542365Y-114953499D01*
X58678429Y-115281988D01*
X58875965Y-115577621D01*
X59127379Y-115829035D01*
X59423012Y-116026571D01*
X59751501Y-116162635D01*
X60100223Y-116232000D01*
X60455777Y-116232000D01*
X60540372Y-116215173D01*
X68165000Y-123839803D01*
X68165000Y-123901939D01*
X68204774Y-124101898D01*
X68282795Y-124290256D01*
X68396063Y-124459774D01*
X68540226Y-124603937D01*
X68709744Y-124717205D01*
X68898102Y-124795226D01*
X69098061Y-124835000D01*
X69301939Y-124835000D01*
X69501898Y-124795226D01*
X69690256Y-124717205D01*
X69859774Y-124603937D01*
X70003937Y-124459774D01*
X70117205Y-124290256D01*
X70195226Y-124101898D01*
X70235000Y-123901939D01*
X70235000Y-123698061D01*
X70195226Y-123498102D01*
X70117205Y-123309744D01*
X70003937Y-123140226D01*
X69859774Y-122996063D01*
X69690256Y-122882795D01*
X69501898Y-122804774D01*
X69301939Y-122765000D01*
X69239803Y-122765000D01*
X62158405Y-115683602D01*
X64201003Y-115683602D01*
X64317275Y-115965389D01*
X64635860Y-116123257D01*
X64979122Y-116215938D01*
X65333869Y-116239873D01*
X65686470Y-116194139D01*
X66023373Y-116080495D01*
X66238725Y-115965389D01*
X66354997Y-115683602D01*
X65278000Y-114606605D01*
X64201003Y-115683602D01*
X62158405Y-115683602D01*
X61829193Y-115354391D01*
X61877571Y-115281988D01*
X62013635Y-114953499D01*
X62083000Y-114604777D01*
X62083000Y-114482869D01*
X63465127Y-114482869D01*
X63510861Y-114835470D01*
X63624505Y-115172373D01*
X63739611Y-115387725D01*
X64021398Y-115503997D01*
X65098395Y-114427000D01*
X65457605Y-114427000D01*
X66534602Y-115503997D01*
X66816389Y-115387725D01*
X66974257Y-115069140D01*
X67066938Y-114725878D01*
X67090873Y-114371131D01*
X67045139Y-114018530D01*
X66931495Y-113681627D01*
X66816389Y-113466275D01*
X66534602Y-113350003D01*
X65457605Y-114427000D01*
X65098395Y-114427000D01*
X64021398Y-113350003D01*
X63739611Y-113466275D01*
X63581743Y-113784860D01*
X63489062Y-114128122D01*
X63465127Y-114482869D01*
X62083000Y-114482869D01*
X62083000Y-114249223D01*
X62013635Y-113900501D01*
X61877571Y-113572012D01*
X61680035Y-113276379D01*
X61574054Y-113170398D01*
X64201003Y-113170398D01*
X65278000Y-114247395D01*
X66354997Y-113170398D01*
X66238725Y-112888611D01*
X65920140Y-112730743D01*
X65576878Y-112638062D01*
X65222131Y-112614127D01*
X64869530Y-112659861D01*
X64532627Y-112773505D01*
X64317275Y-112888611D01*
X64201003Y-113170398D01*
X61574054Y-113170398D01*
X61428621Y-113024965D01*
X61132988Y-112827429D01*
X60804499Y-112691365D01*
X60455777Y-112622000D01*
X60100223Y-112622000D01*
X59751501Y-112691365D01*
X59423012Y-112827429D01*
X59127379Y-113024965D01*
X58875965Y-113276379D01*
X58678429Y-113572012D01*
X58542365Y-113900501D01*
X58473000Y-114249223D01*
X50660000Y-114249223D01*
X50660000Y-104249223D01*
X60973000Y-104249223D01*
X60973000Y-104604777D01*
X61042365Y-104953499D01*
X61178429Y-105281988D01*
X61375965Y-105577621D01*
X61627379Y-105829035D01*
X61923012Y-106026571D01*
X62251501Y-106162635D01*
X62600223Y-106232000D01*
X62955777Y-106232000D01*
X63304499Y-106162635D01*
X63632988Y-106026571D01*
X63928621Y-105829035D01*
X64180035Y-105577621D01*
X64377571Y-105281988D01*
X64513635Y-104953499D01*
X64583000Y-104604777D01*
X64583000Y-104249223D01*
X64513635Y-103900501D01*
X64377571Y-103572012D01*
X64180035Y-103276379D01*
X63928621Y-103024965D01*
X63632988Y-102827429D01*
X63304499Y-102691365D01*
X62955777Y-102622000D01*
X62600223Y-102622000D01*
X62251501Y-102691365D01*
X61923012Y-102827429D01*
X61627379Y-103024965D01*
X61375965Y-103276379D01*
X61178429Y-103572012D01*
X61042365Y-103900501D01*
X60973000Y-104249223D01*
X50660000Y-104249223D01*
X50660000Y-92898061D01*
X56865000Y-92898061D01*
X56865000Y-93101939D01*
X56904774Y-93301898D01*
X56982795Y-93490256D01*
X57096063Y-93659774D01*
X57240226Y-93803937D01*
X57409744Y-93917205D01*
X57598102Y-93995226D01*
X57798061Y-94035000D01*
X58001939Y-94035000D01*
X58201898Y-93995226D01*
X58390256Y-93917205D01*
X58559774Y-93803937D01*
X58603711Y-93760000D01*
X63296289Y-93760000D01*
X63340226Y-93803937D01*
X63509744Y-93917205D01*
X63698102Y-93995226D01*
X63898061Y-94035000D01*
X64101939Y-94035000D01*
X64301898Y-93995226D01*
X64490256Y-93917205D01*
X64659774Y-93803937D01*
X64803937Y-93659774D01*
X64917205Y-93490256D01*
X64995226Y-93301898D01*
X65035000Y-93101939D01*
X65035000Y-92898061D01*
X64995226Y-92698102D01*
X64917205Y-92509744D01*
X64803937Y-92340226D01*
X64659774Y-92196063D01*
X64490256Y-92082795D01*
X64301898Y-92004774D01*
X64101939Y-91965000D01*
X63898061Y-91965000D01*
X63698102Y-92004774D01*
X63509744Y-92082795D01*
X63340226Y-92196063D01*
X63296289Y-92240000D01*
X58603711Y-92240000D01*
X58559774Y-92196063D01*
X58390256Y-92082795D01*
X58201898Y-92004774D01*
X58001939Y-91965000D01*
X57798061Y-91965000D01*
X57598102Y-92004774D01*
X57409744Y-92082795D01*
X57240226Y-92196063D01*
X57096063Y-92340226D01*
X56982795Y-92509744D01*
X56904774Y-92698102D01*
X56865000Y-92898061D01*
X50660000Y-92898061D01*
X50660000Y-84302261D01*
X64370000Y-84302261D01*
X64370000Y-84506139D01*
X64409774Y-84706098D01*
X64487795Y-84894456D01*
X64601063Y-85063974D01*
X64745226Y-85208137D01*
X64914744Y-85321405D01*
X65103102Y-85399426D01*
X65303061Y-85439200D01*
X65365199Y-85439200D01*
X68879801Y-88953803D01*
X68903599Y-88982801D01*
X68932597Y-89006599D01*
X69019323Y-89077774D01*
X69151353Y-89148346D01*
X69294614Y-89191803D01*
X69406267Y-89202800D01*
X69406277Y-89202800D01*
X69443600Y-89206476D01*
X69480923Y-89202800D01*
X74722859Y-89202800D01*
X74810080Y-89333335D01*
X75004665Y-89527920D01*
X75233473Y-89680805D01*
X75487710Y-89786114D01*
X75757608Y-89839800D01*
X76032792Y-89839800D01*
X76302690Y-89786114D01*
X76556927Y-89680805D01*
X76785735Y-89527920D01*
X76980320Y-89333335D01*
X77133205Y-89104527D01*
X77238514Y-88850290D01*
X77292200Y-88580392D01*
X77292200Y-88305208D01*
X77238514Y-88035310D01*
X77133205Y-87781073D01*
X76980320Y-87552265D01*
X76785735Y-87357680D01*
X76556927Y-87204795D01*
X76302690Y-87099486D01*
X76032792Y-87045800D01*
X75757608Y-87045800D01*
X75487710Y-87099486D01*
X75233473Y-87204795D01*
X75004665Y-87357680D01*
X74810080Y-87552265D01*
X74722859Y-87682800D01*
X69758402Y-87682800D01*
X66440000Y-84364399D01*
X66440000Y-84302261D01*
X66400226Y-84102302D01*
X66322205Y-83913944D01*
X66208937Y-83744426D01*
X66064774Y-83600263D01*
X65895256Y-83486995D01*
X65706898Y-83408974D01*
X65506939Y-83369200D01*
X65303061Y-83369200D01*
X65103102Y-83408974D01*
X64914744Y-83486995D01*
X64745226Y-83600263D01*
X64601063Y-83744426D01*
X64487795Y-83913944D01*
X64409774Y-84102302D01*
X64370000Y-84302261D01*
X50660000Y-84302261D01*
X50660000Y-67898061D01*
X59065000Y-67898061D01*
X59065000Y-68101939D01*
X59104774Y-68301898D01*
X59182795Y-68490256D01*
X59296063Y-68659774D01*
X59440226Y-68803937D01*
X59609744Y-68917205D01*
X59798102Y-68995226D01*
X59998061Y-69035000D01*
X60201939Y-69035000D01*
X60340001Y-69007538D01*
X60340001Y-70696288D01*
X60296063Y-70740226D01*
X60182795Y-70909744D01*
X60104774Y-71098102D01*
X60065000Y-71298061D01*
X60065000Y-71501939D01*
X60104774Y-71701898D01*
X60182795Y-71890256D01*
X60296063Y-72059774D01*
X60440226Y-72203937D01*
X60609744Y-72317205D01*
X60798102Y-72395226D01*
X60998061Y-72435000D01*
X61172334Y-72435000D01*
X61104774Y-72598102D01*
X61065000Y-72798061D01*
X61065000Y-73001939D01*
X61104774Y-73201898D01*
X61182795Y-73390256D01*
X61296063Y-73559774D01*
X61440226Y-73703937D01*
X61548749Y-73776449D01*
X60860199Y-74465000D01*
X60798061Y-74465000D01*
X60598102Y-74504774D01*
X60409744Y-74582795D01*
X60240226Y-74696063D01*
X60096063Y-74840226D01*
X59982795Y-75009744D01*
X59904774Y-75198102D01*
X59865000Y-75398061D01*
X59865000Y-75601939D01*
X59904774Y-75801898D01*
X59982795Y-75990256D01*
X60096063Y-76159774D01*
X60148179Y-76211890D01*
X60082795Y-76309744D01*
X60004774Y-76498102D01*
X59965000Y-76698061D01*
X59965000Y-76901939D01*
X60004774Y-77101898D01*
X60082795Y-77290256D01*
X60196063Y-77459774D01*
X60340226Y-77603937D01*
X60509744Y-77717205D01*
X60698102Y-77795226D01*
X60898061Y-77835000D01*
X61101939Y-77835000D01*
X61117226Y-77831959D01*
X61182795Y-77990256D01*
X61296063Y-78159774D01*
X61317344Y-78181055D01*
X61198102Y-78204774D01*
X61009744Y-78282795D01*
X60840226Y-78396063D01*
X60696063Y-78540226D01*
X60582795Y-78709744D01*
X60504774Y-78898102D01*
X60465000Y-79098061D01*
X60465000Y-79301939D01*
X60504774Y-79501898D01*
X60582795Y-79690256D01*
X60696063Y-79859774D01*
X60840226Y-80003937D01*
X61009744Y-80117205D01*
X61198102Y-80195226D01*
X61398061Y-80235000D01*
X61601939Y-80235000D01*
X61725958Y-80210331D01*
X61696063Y-80240226D01*
X61582795Y-80409744D01*
X61504774Y-80598102D01*
X61465000Y-80798061D01*
X61465000Y-81001939D01*
X61504774Y-81201898D01*
X61582795Y-81390256D01*
X61696063Y-81559774D01*
X61840226Y-81703937D01*
X62009744Y-81817205D01*
X62198102Y-81895226D01*
X62398061Y-81935000D01*
X62501289Y-81935000D01*
X62496063Y-81940226D01*
X62382795Y-82109744D01*
X62304774Y-82298102D01*
X62265000Y-82498061D01*
X62265000Y-82701939D01*
X62304774Y-82901898D01*
X62382795Y-83090256D01*
X62496063Y-83259774D01*
X62640226Y-83403937D01*
X62809744Y-83517205D01*
X62998102Y-83595226D01*
X63198061Y-83635000D01*
X63401939Y-83635000D01*
X63601898Y-83595226D01*
X63790256Y-83517205D01*
X63959774Y-83403937D01*
X64103937Y-83259774D01*
X64217205Y-83090256D01*
X64295226Y-82901898D01*
X64335000Y-82701939D01*
X64335000Y-82639801D01*
X64576740Y-82398061D01*
X72965000Y-82398061D01*
X72965000Y-82601939D01*
X73004774Y-82801898D01*
X73082795Y-82990256D01*
X73196063Y-83159774D01*
X73279614Y-83243325D01*
X73294454Y-83292246D01*
X73365026Y-83424276D01*
X73404871Y-83472826D01*
X73459999Y-83540001D01*
X73489003Y-83563804D01*
X77965000Y-88039802D01*
X77965000Y-88101939D01*
X78004774Y-88301898D01*
X78082795Y-88490256D01*
X78196063Y-88659774D01*
X78340226Y-88803937D01*
X78509744Y-88917205D01*
X78698102Y-88995226D01*
X78898061Y-89035000D01*
X79101939Y-89035000D01*
X79301898Y-88995226D01*
X79490256Y-88917205D01*
X79659774Y-88803937D01*
X79803937Y-88659774D01*
X79917205Y-88490256D01*
X79995226Y-88301898D01*
X80035000Y-88101939D01*
X80035000Y-87898061D01*
X79995226Y-87698102D01*
X79917205Y-87509744D01*
X79803937Y-87340226D01*
X79659774Y-87196063D01*
X79490256Y-87082795D01*
X79301898Y-87004774D01*
X79101939Y-86965000D01*
X79039802Y-86965000D01*
X74960510Y-82885709D01*
X74995226Y-82801898D01*
X75035000Y-82601939D01*
X75035000Y-82398061D01*
X74995226Y-82198102D01*
X74917205Y-82009744D01*
X74803937Y-81840226D01*
X74659774Y-81696063D01*
X74490256Y-81582795D01*
X74301898Y-81504774D01*
X74101939Y-81465000D01*
X73898061Y-81465000D01*
X73698102Y-81504774D01*
X73509744Y-81582795D01*
X73340226Y-81696063D01*
X73196063Y-81840226D01*
X73082795Y-82009744D01*
X73004774Y-82198102D01*
X72965000Y-82398061D01*
X64576740Y-82398061D01*
X66289593Y-80685208D01*
X74498200Y-80685208D01*
X74498200Y-80960392D01*
X74551886Y-81230290D01*
X74657195Y-81484527D01*
X74810080Y-81713335D01*
X75004665Y-81907920D01*
X75233473Y-82060805D01*
X75487710Y-82166114D01*
X75757608Y-82219800D01*
X76032792Y-82219800D01*
X76302690Y-82166114D01*
X76556927Y-82060805D01*
X76785735Y-81907920D01*
X76980320Y-81713335D01*
X77133205Y-81484527D01*
X77238514Y-81230290D01*
X77292200Y-80960392D01*
X77292200Y-80685208D01*
X77238514Y-80415310D01*
X77133205Y-80161073D01*
X76980320Y-79932265D01*
X76785735Y-79737680D01*
X76556927Y-79584795D01*
X76302690Y-79479486D01*
X76032792Y-79425800D01*
X75757608Y-79425800D01*
X75487710Y-79479486D01*
X75233473Y-79584795D01*
X75004665Y-79737680D01*
X74810080Y-79932265D01*
X74657195Y-80161073D01*
X74551886Y-80415310D01*
X74498200Y-80685208D01*
X66289593Y-80685208D01*
X66486075Y-80488727D01*
X66515072Y-80464930D01*
X66610045Y-80349205D01*
X66680617Y-80217176D01*
X66724074Y-80073915D01*
X66735071Y-79962262D01*
X66735071Y-79962254D01*
X66738747Y-79924929D01*
X66735071Y-79887604D01*
X66735071Y-68722223D01*
X86595000Y-68722223D01*
X86595000Y-69077777D01*
X86664365Y-69426499D01*
X86800429Y-69754988D01*
X86997965Y-70050621D01*
X87249379Y-70302035D01*
X87545012Y-70499571D01*
X87873501Y-70635635D01*
X88222223Y-70705000D01*
X88577777Y-70705000D01*
X88926499Y-70635635D01*
X89021488Y-70596289D01*
X90140001Y-71714803D01*
X90140000Y-77261084D01*
X90045012Y-77300429D01*
X89749379Y-77497965D01*
X89497965Y-77749379D01*
X89300429Y-78045012D01*
X89164365Y-78373501D01*
X89095000Y-78722223D01*
X89095000Y-79077777D01*
X89164365Y-79426499D01*
X89300429Y-79754988D01*
X89497965Y-80050621D01*
X89749379Y-80302035D01*
X90045012Y-80499571D01*
X90373501Y-80635635D01*
X90722223Y-80705000D01*
X91077777Y-80705000D01*
X91426499Y-80635635D01*
X91754988Y-80499571D01*
X92050621Y-80302035D01*
X92302035Y-80050621D01*
X92499571Y-79754988D01*
X92635635Y-79426499D01*
X92705000Y-79077777D01*
X92705000Y-78722223D01*
X92635635Y-78373501D01*
X92499571Y-78045012D01*
X92302035Y-77749379D01*
X92050621Y-77497965D01*
X91754988Y-77300429D01*
X91660000Y-77261084D01*
X91660000Y-71437323D01*
X91663676Y-71400000D01*
X91660000Y-71362677D01*
X91660000Y-71362667D01*
X91649003Y-71251014D01*
X91605546Y-71107753D01*
X91590445Y-71079502D01*
X91534974Y-70975723D01*
X91463799Y-70888997D01*
X91440001Y-70859999D01*
X91411003Y-70836201D01*
X90731404Y-70156602D01*
X96323003Y-70156602D01*
X96439275Y-70438389D01*
X96757860Y-70596257D01*
X97101122Y-70688938D01*
X97455869Y-70712873D01*
X97808470Y-70667139D01*
X98145373Y-70553495D01*
X98360725Y-70438389D01*
X98476997Y-70156602D01*
X97400000Y-69079605D01*
X96323003Y-70156602D01*
X90731404Y-70156602D01*
X90096289Y-69521488D01*
X90135635Y-69426499D01*
X90205000Y-69077777D01*
X90205000Y-68955869D01*
X95587127Y-68955869D01*
X95632861Y-69308470D01*
X95746505Y-69645373D01*
X95861611Y-69860725D01*
X96143398Y-69976997D01*
X97220395Y-68900000D01*
X97579605Y-68900000D01*
X98656602Y-69976997D01*
X98938389Y-69860725D01*
X99096257Y-69542140D01*
X99188938Y-69198878D01*
X99212873Y-68844131D01*
X99167139Y-68491530D01*
X99053495Y-68154627D01*
X98938389Y-67939275D01*
X98656602Y-67823003D01*
X97579605Y-68900000D01*
X97220395Y-68900000D01*
X96143398Y-67823003D01*
X95861611Y-67939275D01*
X95703743Y-68257860D01*
X95611062Y-68601122D01*
X95587127Y-68955869D01*
X90205000Y-68955869D01*
X90205000Y-68722223D01*
X90135635Y-68373501D01*
X89999571Y-68045012D01*
X89802035Y-67749379D01*
X89696054Y-67643398D01*
X96323003Y-67643398D01*
X97400000Y-68720395D01*
X98476997Y-67643398D01*
X98360725Y-67361611D01*
X98042140Y-67203743D01*
X97698878Y-67111062D01*
X97344131Y-67087127D01*
X96991530Y-67132861D01*
X96654627Y-67246505D01*
X96439275Y-67361611D01*
X96323003Y-67643398D01*
X89696054Y-67643398D01*
X89550621Y-67497965D01*
X89254988Y-67300429D01*
X88926499Y-67164365D01*
X88577777Y-67095000D01*
X88222223Y-67095000D01*
X87873501Y-67164365D01*
X87545012Y-67300429D01*
X87249379Y-67497965D01*
X86997965Y-67749379D01*
X86800429Y-68045012D01*
X86664365Y-68373501D01*
X86595000Y-68722223D01*
X66735071Y-68722223D01*
X66735071Y-63110050D01*
X88112628Y-63110050D01*
X88149950Y-63113726D01*
X88187272Y-63110050D01*
X88187283Y-63110050D01*
X88298936Y-63099053D01*
X88442197Y-63055596D01*
X88574226Y-62985024D01*
X88689951Y-62890051D01*
X88713754Y-62861047D01*
X94466005Y-57108797D01*
X94495002Y-57085000D01*
X94589975Y-56969275D01*
X94660547Y-56837246D01*
X94704004Y-56693985D01*
X94715001Y-56582332D01*
X94715001Y-56582322D01*
X94718677Y-56544999D01*
X94715001Y-56507676D01*
X94715001Y-56233444D01*
X94748966Y-56251599D01*
X95028889Y-56336513D01*
X95247050Y-56358000D01*
X95392950Y-56358000D01*
X95539034Y-56343612D01*
X101515001Y-62319580D01*
X101515000Y-67320482D01*
X101249379Y-67497965D01*
X100997965Y-67749379D01*
X100800429Y-68045012D01*
X100664365Y-68373501D01*
X100595000Y-68722223D01*
X100595000Y-69077777D01*
X100664365Y-69426499D01*
X100800429Y-69754988D01*
X100997965Y-70050621D01*
X101249379Y-70302035D01*
X101545012Y-70499571D01*
X101873501Y-70635635D01*
X102222223Y-70705000D01*
X102577777Y-70705000D01*
X102891098Y-70642677D01*
X102913469Y-70665048D01*
X102941182Y-70698816D01*
X102974950Y-70726529D01*
X102974952Y-70726531D01*
X103015459Y-70759774D01*
X103075940Y-70809410D01*
X103229686Y-70891588D01*
X103396509Y-70942194D01*
X103526522Y-70954999D01*
X103526532Y-70954999D01*
X103569998Y-70959280D01*
X103613464Y-70954999D01*
X103702023Y-70954999D01*
X105030894Y-72283870D01*
X104961201Y-72305011D01*
X104807456Y-72387189D01*
X104706468Y-72470068D01*
X104706466Y-72470070D01*
X104672698Y-72497783D01*
X104644985Y-72531551D01*
X102261537Y-74915000D01*
X100143469Y-74915000D01*
X100100000Y-74910719D01*
X100056531Y-74915000D01*
X100056523Y-74915000D01*
X99926510Y-74927805D01*
X99759687Y-74978411D01*
X99605941Y-75060589D01*
X99504953Y-75143468D01*
X99504951Y-75143470D01*
X99471183Y-75171183D01*
X99443470Y-75204951D01*
X92754822Y-81893600D01*
X87635054Y-81893600D01*
X87586856Y-81861395D01*
X87398498Y-81783374D01*
X87341644Y-81772065D01*
X86241927Y-80672349D01*
X86426499Y-80635635D01*
X86754988Y-80499571D01*
X87050621Y-80302035D01*
X87302035Y-80050621D01*
X87499571Y-79754988D01*
X87635635Y-79426499D01*
X87705000Y-79077777D01*
X87705000Y-78722223D01*
X87635635Y-78373501D01*
X87499571Y-78045012D01*
X87302035Y-77749379D01*
X87050621Y-77497965D01*
X86754988Y-77300429D01*
X86660000Y-77261084D01*
X86660000Y-77037333D01*
X86663677Y-77000000D01*
X86649003Y-76851014D01*
X86605546Y-76707753D01*
X86534974Y-76575724D01*
X86521251Y-76559003D01*
X86440001Y-76459999D01*
X86411003Y-76436201D01*
X80035000Y-70060199D01*
X80035000Y-69998061D01*
X79995226Y-69798102D01*
X79917205Y-69609744D01*
X79803937Y-69440226D01*
X79659774Y-69296063D01*
X79490256Y-69182795D01*
X79301898Y-69104774D01*
X79101939Y-69065000D01*
X78898061Y-69065000D01*
X78698102Y-69104774D01*
X78509744Y-69182795D01*
X78340226Y-69296063D01*
X78196063Y-69440226D01*
X78082795Y-69609744D01*
X78004774Y-69798102D01*
X77965000Y-69998061D01*
X77965000Y-70201939D01*
X78004774Y-70401898D01*
X78082795Y-70590256D01*
X78196063Y-70759774D01*
X78340226Y-70903937D01*
X78509744Y-71017205D01*
X78698102Y-71095226D01*
X78898061Y-71135000D01*
X78960199Y-71135000D01*
X85102016Y-77276817D01*
X85045012Y-77300429D01*
X84749379Y-77497965D01*
X84497965Y-77749379D01*
X84300429Y-78045012D01*
X84164365Y-78373501D01*
X84127651Y-78558073D01*
X82571534Y-77001956D01*
X82543817Y-76968183D01*
X82409059Y-76857589D01*
X82255313Y-76775411D01*
X82088490Y-76724805D01*
X81958477Y-76712000D01*
X81958469Y-76712000D01*
X81915000Y-76707719D01*
X81871531Y-76712000D01*
X77830654Y-76712000D01*
X77782456Y-76679795D01*
X77594098Y-76601774D01*
X77394139Y-76562000D01*
X77190261Y-76562000D01*
X76990302Y-76601774D01*
X76801944Y-76679795D01*
X76632426Y-76793063D01*
X76488263Y-76937226D01*
X76374995Y-77106744D01*
X76296974Y-77295102D01*
X76257200Y-77495061D01*
X76257200Y-77698939D01*
X76296974Y-77898898D01*
X76374995Y-78087256D01*
X76488263Y-78256774D01*
X76632426Y-78400937D01*
X76801944Y-78514205D01*
X76990302Y-78592226D01*
X77190261Y-78632000D01*
X77394139Y-78632000D01*
X77594098Y-78592226D01*
X77782456Y-78514205D01*
X77830654Y-78482000D01*
X81548422Y-78482000D01*
X85845021Y-82778600D01*
X81917755Y-86705867D01*
X81883982Y-86733584D01*
X81773388Y-86868343D01*
X81691210Y-87022089D01*
X81640604Y-87188912D01*
X81627799Y-87318925D01*
X81627799Y-87318932D01*
X81623518Y-87362401D01*
X81627799Y-87405870D01*
X81627800Y-114224621D01*
X81198550Y-114653872D01*
X81164783Y-114681584D01*
X81151000Y-114698378D01*
X81151000Y-95293311D01*
X81194937Y-95249374D01*
X81308205Y-95079856D01*
X81386226Y-94891498D01*
X81426000Y-94691539D01*
X81426000Y-94487661D01*
X81386226Y-94287702D01*
X81308205Y-94099344D01*
X81194937Y-93929826D01*
X81050774Y-93785663D01*
X80881256Y-93672395D01*
X80692898Y-93594374D01*
X80492939Y-93554600D01*
X80289061Y-93554600D01*
X80089102Y-93594374D01*
X79900744Y-93672395D01*
X79731226Y-93785663D01*
X79587063Y-93929826D01*
X79473795Y-94099344D01*
X79395774Y-94287702D01*
X79356000Y-94487661D01*
X79356000Y-94691539D01*
X79395774Y-94891498D01*
X79473795Y-95079856D01*
X79587063Y-95249374D01*
X79631001Y-95293312D01*
X79631000Y-115077398D01*
X76260498Y-118447901D01*
X76231500Y-118471699D01*
X76207702Y-118500697D01*
X76207701Y-118500698D01*
X76136526Y-118587424D01*
X76065954Y-118719454D01*
X76022498Y-118862715D01*
X76007824Y-119011700D01*
X76011501Y-119049032D01*
X76011500Y-124691297D01*
X72405399Y-128297400D01*
X70110001Y-128297400D01*
X72215203Y-126192199D01*
X72244201Y-126168401D01*
X72339174Y-126052676D01*
X72409746Y-125920647D01*
X72453203Y-125777386D01*
X72464200Y-125665733D01*
X72467877Y-125628400D01*
X72464200Y-125591067D01*
X72464200Y-123554387D01*
X72471287Y-123531024D01*
X72526237Y-123476074D01*
X72639505Y-123306556D01*
X72717526Y-123118198D01*
X72757300Y-122918239D01*
X72757300Y-122714361D01*
X72717526Y-122514402D01*
X72639505Y-122326044D01*
X72526237Y-122156526D01*
X72382074Y-122012363D01*
X72212556Y-121899095D01*
X72024198Y-121821074D01*
X71824239Y-121781300D01*
X71620361Y-121781300D01*
X71420402Y-121821074D01*
X71232044Y-121899095D01*
X71062526Y-122012363D01*
X70918363Y-122156526D01*
X70805095Y-122326044D01*
X70727074Y-122514402D01*
X70687300Y-122714361D01*
X70687300Y-122918239D01*
X70727074Y-123118198D01*
X70805095Y-123306556D01*
X70918363Y-123476074D01*
X70944200Y-123501911D01*
X70944201Y-125313597D01*
X68773199Y-127484600D01*
X65213722Y-127484600D01*
X65176399Y-127480924D01*
X65139076Y-127484600D01*
X65139067Y-127484600D01*
X65027414Y-127495597D01*
X64884153Y-127539054D01*
X64752124Y-127609626D01*
X64752122Y-127609627D01*
X64752123Y-127609627D01*
X64665396Y-127680801D01*
X64665392Y-127680805D01*
X64636399Y-127704599D01*
X64612605Y-127733592D01*
X60093403Y-132252796D01*
X60064399Y-132276599D01*
X60009271Y-132343774D01*
X59969426Y-132392324D01*
X59921832Y-132481365D01*
X59898854Y-132524354D01*
X59855397Y-132667615D01*
X59844400Y-132779268D01*
X59844400Y-132779278D01*
X59840724Y-132816600D01*
X59844400Y-132853923D01*
X59844401Y-137579868D01*
X59840724Y-137617200D01*
X59855398Y-137766185D01*
X59898854Y-137909446D01*
X59969426Y-138041476D01*
X60040601Y-138128202D01*
X60064400Y-138157201D01*
X60093398Y-138180999D01*
X65831801Y-143919403D01*
X65855599Y-143948401D01*
X65884597Y-143972199D01*
X65971324Y-144043374D01*
X66103353Y-144113946D01*
X66246614Y-144157403D01*
X66395600Y-144172077D01*
X66432933Y-144168400D01*
X78700097Y-144168400D01*
X78859344Y-144274805D01*
X79047702Y-144352826D01*
X79247661Y-144392600D01*
X79451539Y-144392600D01*
X79651498Y-144352826D01*
X79839856Y-144274805D01*
X80009374Y-144161537D01*
X80153537Y-144017374D01*
X80266805Y-143847856D01*
X80344826Y-143659498D01*
X80360157Y-143582423D01*
X96493000Y-143582423D01*
X96493000Y-143937977D01*
X96562365Y-144286699D01*
X96698429Y-144615188D01*
X96895965Y-144910821D01*
X97147379Y-145162235D01*
X97443012Y-145359771D01*
X97771501Y-145495835D01*
X98120223Y-145565200D01*
X98475777Y-145565200D01*
X98824499Y-145495835D01*
X99152988Y-145359771D01*
X99448621Y-145162235D01*
X99700035Y-144910821D01*
X99815962Y-144737323D01*
X112333000Y-144737323D01*
X112333000Y-145262677D01*
X112435492Y-145777935D01*
X112636536Y-146263298D01*
X112928406Y-146700113D01*
X113299887Y-147071594D01*
X113736702Y-147363464D01*
X114222065Y-147564508D01*
X114737323Y-147667000D01*
X115262677Y-147667000D01*
X115777935Y-147564508D01*
X116263298Y-147363464D01*
X116700113Y-147071594D01*
X117071594Y-146700113D01*
X117363464Y-146263298D01*
X117564508Y-145777935D01*
X117667000Y-145262677D01*
X117667000Y-144737323D01*
X117564508Y-144222065D01*
X117363464Y-143736702D01*
X117071594Y-143299887D01*
X116700113Y-142928406D01*
X116263298Y-142636536D01*
X115777935Y-142435492D01*
X115262677Y-142333000D01*
X114737323Y-142333000D01*
X114222065Y-142435492D01*
X113736702Y-142636536D01*
X113299887Y-142928406D01*
X112928406Y-143299887D01*
X112636536Y-143736702D01*
X112435492Y-144222065D01*
X112333000Y-144737323D01*
X99815962Y-144737323D01*
X99897571Y-144615188D01*
X100033635Y-144286699D01*
X100103000Y-143937977D01*
X100103000Y-143582423D01*
X100033635Y-143233701D01*
X99897571Y-142905212D01*
X99700035Y-142609579D01*
X99448621Y-142358165D01*
X99152988Y-142160629D01*
X98824499Y-142024565D01*
X98475777Y-141955200D01*
X98120223Y-141955200D01*
X97771501Y-142024565D01*
X97443012Y-142160629D01*
X97147379Y-142358165D01*
X96895965Y-142609579D01*
X96698429Y-142905212D01*
X96562365Y-143233701D01*
X96493000Y-143582423D01*
X80360157Y-143582423D01*
X80384600Y-143459539D01*
X80384600Y-143255661D01*
X80344826Y-143055702D01*
X80266805Y-142867344D01*
X80153537Y-142697826D01*
X80009374Y-142553663D01*
X79839856Y-142440395D01*
X79651498Y-142362374D01*
X79451539Y-142322600D01*
X79247661Y-142322600D01*
X79047702Y-142362374D01*
X78859344Y-142440395D01*
X78689826Y-142553663D01*
X78595089Y-142648400D01*
X66710402Y-142648400D01*
X61364400Y-137302399D01*
X61364400Y-133131401D01*
X65491203Y-129004600D01*
X65690800Y-129004600D01*
X65690800Y-129159339D01*
X65730574Y-129359298D01*
X65808595Y-129547656D01*
X65921863Y-129717174D01*
X66066026Y-129861337D01*
X66235544Y-129974605D01*
X66423902Y-130052626D01*
X66623861Y-130092400D01*
X66827739Y-130092400D01*
X67027698Y-130052626D01*
X67216056Y-129974605D01*
X67385574Y-129861337D01*
X67429511Y-129817400D01*
X72682878Y-129817400D01*
X72720200Y-129821076D01*
X72757522Y-129817400D01*
X72757533Y-129817400D01*
X72869186Y-129806403D01*
X73012447Y-129762946D01*
X73144476Y-129692374D01*
X73260201Y-129597401D01*
X73284004Y-129568397D01*
X77282509Y-125569894D01*
X77311501Y-125546101D01*
X77335295Y-125517108D01*
X77335299Y-125517104D01*
X77406473Y-125430377D01*
X77406474Y-125430376D01*
X77477046Y-125298347D01*
X77520503Y-125155086D01*
X77531500Y-125043433D01*
X77531500Y-125043424D01*
X77535176Y-125006101D01*
X77531500Y-124968778D01*
X77531500Y-119326501D01*
X80902004Y-115955998D01*
X80908600Y-115950585D01*
X80908599Y-123532677D01*
X80908600Y-123532687D01*
X80908599Y-129599622D01*
X70188221Y-140320001D01*
X68820265Y-140320001D01*
X68776798Y-140315720D01*
X68733332Y-140320001D01*
X68733322Y-140320001D01*
X68603309Y-140332806D01*
X68436486Y-140383412D01*
X68282740Y-140465590D01*
X68147982Y-140576184D01*
X68129294Y-140598955D01*
X68074902Y-140609774D01*
X67886544Y-140687795D01*
X67717026Y-140801063D01*
X67572863Y-140945226D01*
X67459595Y-141114744D01*
X67381574Y-141303102D01*
X67341800Y-141503061D01*
X67341800Y-141706939D01*
X67381574Y-141906898D01*
X67459595Y-142095256D01*
X67572863Y-142264774D01*
X67717026Y-142408937D01*
X67886544Y-142522205D01*
X68074902Y-142600226D01*
X68274861Y-142640000D01*
X68478739Y-142640000D01*
X68678698Y-142600226D01*
X68867056Y-142522205D01*
X69036574Y-142408937D01*
X69180737Y-142264774D01*
X69294005Y-142095256D01*
X69296182Y-142090001D01*
X70511330Y-142090001D01*
X70554799Y-142094282D01*
X70598268Y-142090001D01*
X70598276Y-142090001D01*
X70728289Y-142077196D01*
X70895112Y-142026590D01*
X71048858Y-141944412D01*
X71183616Y-141833818D01*
X71211333Y-141800045D01*
X71928955Y-141082423D01*
X86493000Y-141082423D01*
X86493000Y-141437977D01*
X86562365Y-141786699D01*
X86698429Y-142115188D01*
X86895965Y-142410821D01*
X87147379Y-142662235D01*
X87443012Y-142859771D01*
X87771501Y-142995835D01*
X88120223Y-143065200D01*
X88475777Y-143065200D01*
X88824499Y-142995835D01*
X89152988Y-142859771D01*
X89448621Y-142662235D01*
X89700035Y-142410821D01*
X89897571Y-142115188D01*
X90033635Y-141786699D01*
X90103000Y-141437977D01*
X90103000Y-141082423D01*
X90033635Y-140733701D01*
X89897571Y-140405212D01*
X89700035Y-140109579D01*
X89448621Y-139858165D01*
X89152988Y-139660629D01*
X88824499Y-139524565D01*
X88475777Y-139455200D01*
X88120223Y-139455200D01*
X87771501Y-139524565D01*
X87443012Y-139660629D01*
X87147379Y-139858165D01*
X86895965Y-140109579D01*
X86698429Y-140405212D01*
X86562365Y-140733701D01*
X86493000Y-141082423D01*
X71928955Y-141082423D01*
X74428955Y-138582423D01*
X96493000Y-138582423D01*
X96493000Y-138937977D01*
X96562365Y-139286699D01*
X96698429Y-139615188D01*
X96895965Y-139910821D01*
X97147379Y-140162235D01*
X97443012Y-140359771D01*
X97771501Y-140495835D01*
X98120223Y-140565200D01*
X98475777Y-140565200D01*
X98824499Y-140495835D01*
X99152988Y-140359771D01*
X99448621Y-140162235D01*
X99700035Y-139910821D01*
X99897571Y-139615188D01*
X100033635Y-139286699D01*
X100103000Y-138937977D01*
X100103000Y-138582423D01*
X100033635Y-138233701D01*
X99897571Y-137905212D01*
X99700035Y-137609579D01*
X99448621Y-137358165D01*
X99152988Y-137160629D01*
X98824499Y-137024565D01*
X98475777Y-136955200D01*
X98120223Y-136955200D01*
X97771501Y-137024565D01*
X97443012Y-137160629D01*
X97147379Y-137358165D01*
X96895965Y-137609579D01*
X96698429Y-137905212D01*
X96562365Y-138233701D01*
X96493000Y-138582423D01*
X74428955Y-138582423D01*
X79305755Y-133705623D01*
X84108600Y-133705623D01*
X84108600Y-134061177D01*
X84177965Y-134409899D01*
X84314029Y-134738388D01*
X84511565Y-135034021D01*
X84762979Y-135285435D01*
X85058612Y-135482971D01*
X85387101Y-135619035D01*
X85735823Y-135688400D01*
X86091377Y-135688400D01*
X86440099Y-135619035D01*
X86768588Y-135482971D01*
X87064221Y-135285435D01*
X87315635Y-135034021D01*
X87513171Y-134738388D01*
X87649235Y-134409899D01*
X87718600Y-134061177D01*
X87718600Y-133705623D01*
X87649235Y-133356901D01*
X87513171Y-133028412D01*
X87315635Y-132732779D01*
X87064221Y-132481365D01*
X86768588Y-132283829D01*
X86440099Y-132147765D01*
X86091377Y-132078400D01*
X85735823Y-132078400D01*
X85387101Y-132147765D01*
X85058612Y-132283829D01*
X84762979Y-132481365D01*
X84511565Y-132732779D01*
X84314029Y-133028412D01*
X84177965Y-133356901D01*
X84108600Y-133705623D01*
X79305755Y-133705623D01*
X82388650Y-130622729D01*
X82422416Y-130595018D01*
X82533010Y-130460260D01*
X82615188Y-130306514D01*
X82665794Y-130139691D01*
X82678599Y-130009678D01*
X82678599Y-130009668D01*
X82682880Y-129966202D01*
X82678599Y-129922736D01*
X82678599Y-128269661D01*
X96145400Y-128269661D01*
X96145400Y-128473539D01*
X96185174Y-128673498D01*
X96263195Y-128861856D01*
X96376463Y-129031374D01*
X96520626Y-129175537D01*
X96690144Y-129288805D01*
X96878502Y-129366826D01*
X97078461Y-129406600D01*
X97282339Y-129406600D01*
X97482298Y-129366826D01*
X97670656Y-129288805D01*
X97840174Y-129175537D01*
X97884111Y-129131600D01*
X106204889Y-129131600D01*
X106248826Y-129175537D01*
X106418344Y-129288805D01*
X106606702Y-129366826D01*
X106806661Y-129406600D01*
X107010539Y-129406600D01*
X107210498Y-129366826D01*
X107398856Y-129288805D01*
X107568374Y-129175537D01*
X107712537Y-129031374D01*
X107825805Y-128861856D01*
X107903826Y-128673498D01*
X107943600Y-128473539D01*
X107943600Y-128269661D01*
X107903826Y-128069702D01*
X107825805Y-127881344D01*
X107712537Y-127711826D01*
X107568374Y-127567663D01*
X107398856Y-127454395D01*
X107210498Y-127376374D01*
X107010539Y-127336600D01*
X106806661Y-127336600D01*
X106606702Y-127376374D01*
X106418344Y-127454395D01*
X106248826Y-127567663D01*
X106204889Y-127611600D01*
X97884111Y-127611600D01*
X97840174Y-127567663D01*
X97670656Y-127454395D01*
X97482298Y-127376374D01*
X97282339Y-127336600D01*
X97078461Y-127336600D01*
X96878502Y-127376374D01*
X96690144Y-127454395D01*
X96520626Y-127567663D01*
X96376463Y-127711826D01*
X96263195Y-127881344D01*
X96185174Y-128069702D01*
X96145400Y-128269661D01*
X82678599Y-128269661D01*
X82678599Y-125532671D01*
X82887101Y-125619035D01*
X83235823Y-125688400D01*
X83591377Y-125688400D01*
X83940099Y-125619035D01*
X84268588Y-125482971D01*
X84564221Y-125285435D01*
X84815635Y-125034021D01*
X85013171Y-124738388D01*
X85149235Y-124409899D01*
X85218600Y-124061177D01*
X85218600Y-123705623D01*
X85149235Y-123356901D01*
X85013171Y-123028412D01*
X84815635Y-122732779D01*
X84564221Y-122481365D01*
X84268588Y-122283829D01*
X83940099Y-122147765D01*
X83591377Y-122078400D01*
X83235823Y-122078400D01*
X82887101Y-122147765D01*
X82678599Y-122234129D01*
X82678599Y-115676979D01*
X83107848Y-115247731D01*
X83141616Y-115220018D01*
X83182463Y-115170247D01*
X83252209Y-115085261D01*
X83260826Y-115069140D01*
X83334388Y-114931514D01*
X83384994Y-114764691D01*
X83397799Y-114634678D01*
X83397799Y-114634668D01*
X83402080Y-114591202D01*
X83397799Y-114547736D01*
X83397799Y-100042800D01*
X85142800Y-101787803D01*
X85142801Y-114518597D01*
X84045603Y-115615796D01*
X84016599Y-115639599D01*
X83979794Y-115684447D01*
X83921626Y-115755324D01*
X83851055Y-115887353D01*
X83851054Y-115887354D01*
X83807597Y-116030615D01*
X83796600Y-116142268D01*
X83796600Y-116142278D01*
X83792924Y-116179600D01*
X83796600Y-116216923D01*
X83796601Y-117316870D01*
X83792924Y-117354202D01*
X83807598Y-117503187D01*
X83851054Y-117646448D01*
X83921626Y-117778478D01*
X83992801Y-117865204D01*
X84016600Y-117894203D01*
X84045598Y-117918001D01*
X88210945Y-122083349D01*
X87887101Y-122147765D01*
X87558612Y-122283829D01*
X87262979Y-122481365D01*
X87011565Y-122732779D01*
X86814029Y-123028412D01*
X86677965Y-123356901D01*
X86608600Y-123705623D01*
X86608600Y-124061177D01*
X86677965Y-124409899D01*
X86814029Y-124738388D01*
X87011565Y-125034021D01*
X87262979Y-125285435D01*
X87558612Y-125482971D01*
X87887101Y-125619035D01*
X88235823Y-125688400D01*
X88591377Y-125688400D01*
X88940099Y-125619035D01*
X89268588Y-125482971D01*
X89564221Y-125285435D01*
X89815635Y-125034021D01*
X90013171Y-124738388D01*
X90149235Y-124409899D01*
X90213651Y-124086055D01*
X91911398Y-125783802D01*
X91935197Y-125812801D01*
X92050922Y-125907774D01*
X92182951Y-125978346D01*
X92326212Y-126021803D01*
X92437865Y-126032800D01*
X92437873Y-126032800D01*
X92475198Y-126036476D01*
X92512523Y-126032800D01*
X102804890Y-126032800D01*
X102946826Y-126174736D01*
X103116344Y-126288004D01*
X103304702Y-126366025D01*
X103504661Y-126405799D01*
X103708539Y-126405799D01*
X103908498Y-126366025D01*
X104096856Y-126288004D01*
X104266374Y-126174736D01*
X104410537Y-126030573D01*
X104523805Y-125861055D01*
X104601826Y-125672697D01*
X104641600Y-125472738D01*
X104641600Y-125268860D01*
X104601826Y-125068901D01*
X104523805Y-124880543D01*
X104410537Y-124711025D01*
X104266374Y-124566862D01*
X104096856Y-124453594D01*
X103908498Y-124375573D01*
X103708539Y-124335799D01*
X103504661Y-124335799D01*
X103304702Y-124375573D01*
X103116344Y-124453594D01*
X103027736Y-124512800D01*
X92790000Y-124512800D01*
X86459399Y-118182200D01*
X97931422Y-118182200D01*
X99856865Y-120107644D01*
X99868174Y-120164498D01*
X99946195Y-120352856D01*
X100059463Y-120522374D01*
X100203626Y-120666537D01*
X100373144Y-120779805D01*
X100561502Y-120857826D01*
X100761461Y-120897600D01*
X100965339Y-120897600D01*
X101165298Y-120857826D01*
X101353656Y-120779805D01*
X101523174Y-120666537D01*
X101667337Y-120522374D01*
X101780605Y-120352856D01*
X101858626Y-120164498D01*
X101898400Y-119964539D01*
X101898400Y-119760661D01*
X101858626Y-119560702D01*
X101780605Y-119372344D01*
X101748400Y-119324146D01*
X101748400Y-104210711D01*
X101845137Y-104113974D01*
X101958405Y-103944456D01*
X102036426Y-103756098D01*
X102037335Y-103751530D01*
X102120816Y-103683018D01*
X102148533Y-103649245D01*
X111674844Y-94122935D01*
X111731698Y-94111626D01*
X111920056Y-94033605D01*
X112089574Y-93920337D01*
X112233737Y-93776174D01*
X112347005Y-93606656D01*
X112425026Y-93418298D01*
X112464800Y-93218339D01*
X112464800Y-93014461D01*
X112425026Y-92814502D01*
X112347005Y-92626144D01*
X112314800Y-92577946D01*
X112314800Y-77474663D01*
X112319081Y-77431197D01*
X112314800Y-77387731D01*
X112314800Y-77387721D01*
X112301995Y-77257708D01*
X112251389Y-77090885D01*
X112169211Y-76937139D01*
X112113629Y-76869413D01*
X112086332Y-76836151D01*
X112086330Y-76836149D01*
X112058617Y-76802381D01*
X112024849Y-76774668D01*
X107430181Y-72180000D01*
X113013815Y-72180000D01*
X113042487Y-72471111D01*
X113127401Y-72751034D01*
X113265294Y-73009014D01*
X113450866Y-73235134D01*
X113676986Y-73420706D01*
X113874036Y-73526031D01*
X113704866Y-73664866D01*
X113519294Y-73890986D01*
X113381401Y-74148966D01*
X113296487Y-74428889D01*
X113267815Y-74720000D01*
X113296487Y-75011111D01*
X113381401Y-75291034D01*
X113519294Y-75549014D01*
X113704866Y-75775134D01*
X113874036Y-75913969D01*
X113676986Y-76019294D01*
X113450866Y-76204866D01*
X113265294Y-76430986D01*
X113127401Y-76688966D01*
X113042487Y-76968889D01*
X113013815Y-77260000D01*
X113042487Y-77551111D01*
X113127401Y-77831034D01*
X113265294Y-78089014D01*
X113450866Y-78315134D01*
X113676986Y-78500706D01*
X113874036Y-78606031D01*
X113704866Y-78744866D01*
X113519294Y-78970986D01*
X113381401Y-79228966D01*
X113296487Y-79508889D01*
X113267815Y-79800000D01*
X113296487Y-80091111D01*
X113381401Y-80371034D01*
X113519294Y-80629014D01*
X113704866Y-80855134D01*
X113930986Y-81040706D01*
X114188966Y-81178599D01*
X114468889Y-81263513D01*
X114687050Y-81285000D01*
X114832950Y-81285000D01*
X115051111Y-81263513D01*
X115331034Y-81178599D01*
X115589014Y-81040706D01*
X115815134Y-80855134D01*
X116000706Y-80629014D01*
X116030000Y-80574209D01*
X116059294Y-80629014D01*
X116244866Y-80855134D01*
X116470986Y-81040706D01*
X116728966Y-81178599D01*
X117008889Y-81263513D01*
X117227050Y-81285000D01*
X117372950Y-81285000D01*
X117591111Y-81263513D01*
X117871034Y-81178599D01*
X118129014Y-81040706D01*
X118355134Y-80855134D01*
X118540706Y-80629014D01*
X118678599Y-80371034D01*
X118763513Y-80091111D01*
X118792185Y-79800000D01*
X118763513Y-79508889D01*
X118678599Y-79228966D01*
X118540706Y-78970986D01*
X118355134Y-78744866D01*
X118129014Y-78559294D01*
X117931964Y-78453969D01*
X118101134Y-78315134D01*
X118286706Y-78089014D01*
X118424599Y-77831034D01*
X118509513Y-77551111D01*
X118538185Y-77260000D01*
X118509513Y-76968889D01*
X118424599Y-76688966D01*
X118286706Y-76430986D01*
X118101134Y-76204866D01*
X117931964Y-76066031D01*
X118129014Y-75960706D01*
X118355134Y-75775134D01*
X118540706Y-75549014D01*
X118678599Y-75291034D01*
X118763513Y-75011111D01*
X118792185Y-74720000D01*
X118763513Y-74428889D01*
X118678599Y-74148966D01*
X118540706Y-73890986D01*
X118355134Y-73664866D01*
X118129014Y-73479294D01*
X117931964Y-73373969D01*
X118101134Y-73235134D01*
X118286706Y-73009014D01*
X118424599Y-72751034D01*
X118509513Y-72471111D01*
X118538185Y-72180000D01*
X118509513Y-71888889D01*
X118424599Y-71608966D01*
X118286706Y-71350986D01*
X118101134Y-71124866D01*
X117931964Y-70986031D01*
X118129014Y-70880706D01*
X118355134Y-70695134D01*
X118540706Y-70469014D01*
X118678599Y-70211034D01*
X118763513Y-69931111D01*
X118792185Y-69640000D01*
X118763513Y-69348889D01*
X118678599Y-69068966D01*
X118540706Y-68810986D01*
X118355134Y-68584866D01*
X118129014Y-68399294D01*
X117871034Y-68261401D01*
X117591111Y-68176487D01*
X117372950Y-68155000D01*
X117227050Y-68155000D01*
X117008889Y-68176487D01*
X116728966Y-68261401D01*
X116470986Y-68399294D01*
X116244866Y-68584866D01*
X116220393Y-68614687D01*
X116199502Y-68545820D01*
X116140537Y-68435506D01*
X116061185Y-68338815D01*
X115964494Y-68259463D01*
X115854180Y-68200498D01*
X115734482Y-68164188D01*
X115610000Y-68151928D01*
X113910000Y-68151928D01*
X113785518Y-68164188D01*
X113665820Y-68200498D01*
X113555506Y-68259463D01*
X113458815Y-68338815D01*
X113379463Y-68435506D01*
X113320498Y-68545820D01*
X113284188Y-68665518D01*
X113271928Y-68790000D01*
X113271928Y-70490000D01*
X113284188Y-70614482D01*
X113320498Y-70734180D01*
X113379463Y-70844494D01*
X113458815Y-70941185D01*
X113555506Y-71020537D01*
X113569123Y-71027815D01*
X113450866Y-71124866D01*
X113265294Y-71350986D01*
X113127401Y-71608966D01*
X113042487Y-71888889D01*
X113013815Y-72180000D01*
X107430181Y-72180000D01*
X104725135Y-69474955D01*
X104697418Y-69441182D01*
X104562660Y-69330588D01*
X104408914Y-69248410D01*
X104242091Y-69197804D01*
X104182297Y-69191915D01*
X104205000Y-69077777D01*
X104205000Y-68722223D01*
X104135635Y-68373501D01*
X103999571Y-68045012D01*
X103802035Y-67749379D01*
X103550621Y-67497965D01*
X103285000Y-67320482D01*
X103285000Y-61996466D01*
X103289281Y-61952999D01*
X103285000Y-61909533D01*
X103285000Y-61909523D01*
X103272195Y-61779510D01*
X103221589Y-61612687D01*
X103139411Y-61458941D01*
X103091340Y-61400367D01*
X103056532Y-61357953D01*
X103056530Y-61357951D01*
X103028817Y-61324183D01*
X102995049Y-61296470D01*
X96790612Y-55092034D01*
X96812185Y-54873000D01*
X96798822Y-54737323D01*
X112333000Y-54737323D01*
X112333000Y-55262677D01*
X112435492Y-55777935D01*
X112636536Y-56263298D01*
X112928406Y-56700113D01*
X113299887Y-57071594D01*
X113736702Y-57363464D01*
X114222065Y-57564508D01*
X114737323Y-57667000D01*
X115262677Y-57667000D01*
X115777935Y-57564508D01*
X116263298Y-57363464D01*
X116700113Y-57071594D01*
X117071594Y-56700113D01*
X117363464Y-56263298D01*
X117564508Y-55777935D01*
X117667000Y-55262677D01*
X117667000Y-54737323D01*
X117564508Y-54222065D01*
X117363464Y-53736702D01*
X117071594Y-53299887D01*
X116700113Y-52928406D01*
X116263298Y-52636536D01*
X115777935Y-52435492D01*
X115262677Y-52333000D01*
X114737323Y-52333000D01*
X114222065Y-52435492D01*
X113736702Y-52636536D01*
X113299887Y-52928406D01*
X112928406Y-53299887D01*
X112636536Y-53736702D01*
X112435492Y-54222065D01*
X112333000Y-54737323D01*
X96798822Y-54737323D01*
X96783513Y-54581889D01*
X96698599Y-54301966D01*
X96560706Y-54043986D01*
X96375134Y-53817866D01*
X96149014Y-53632294D01*
X96094209Y-53603000D01*
X96149014Y-53573706D01*
X96375134Y-53388134D01*
X96560706Y-53162014D01*
X96698599Y-52904034D01*
X96783513Y-52624111D01*
X96812185Y-52333000D01*
X96783513Y-52041889D01*
X96698599Y-51761966D01*
X96560706Y-51503986D01*
X96375134Y-51277866D01*
X96149014Y-51092294D01*
X95891034Y-50954401D01*
X95611111Y-50869487D01*
X95392950Y-50848000D01*
X95247050Y-50848000D01*
X95028889Y-50869487D01*
X94748966Y-50954401D01*
X94490986Y-51092294D01*
X94264866Y-51277866D01*
X94079294Y-51503986D01*
X93973969Y-51701036D01*
X93835134Y-51531866D01*
X93609014Y-51346294D01*
X93351034Y-51208401D01*
X93071111Y-51123487D01*
X92852950Y-51102000D01*
X92707050Y-51102000D01*
X92488889Y-51123487D01*
X92208966Y-51208401D01*
X91950986Y-51346294D01*
X91724866Y-51531866D01*
X91586031Y-51701036D01*
X91480706Y-51503986D01*
X91295134Y-51277866D01*
X91069014Y-51092294D01*
X90811034Y-50954401D01*
X90531111Y-50869487D01*
X90312950Y-50848000D01*
X90167050Y-50848000D01*
X89948889Y-50869487D01*
X89668966Y-50954401D01*
X89410986Y-51092294D01*
X89184866Y-51277866D01*
X88999294Y-51503986D01*
X88893969Y-51701036D01*
X88755134Y-51531866D01*
X88529014Y-51346294D01*
X88271034Y-51208401D01*
X87991111Y-51123487D01*
X87772950Y-51102000D01*
X87627050Y-51102000D01*
X87408889Y-51123487D01*
X87128966Y-51208401D01*
X86870986Y-51346294D01*
X86644866Y-51531866D01*
X86506031Y-51701036D01*
X86400706Y-51503986D01*
X86215134Y-51277866D01*
X85989014Y-51092294D01*
X85731034Y-50954401D01*
X85451111Y-50869487D01*
X85232950Y-50848000D01*
X85087050Y-50848000D01*
X84868889Y-50869487D01*
X84588966Y-50954401D01*
X84330986Y-51092294D01*
X84104866Y-51277866D01*
X83919294Y-51503986D01*
X83813969Y-51701036D01*
X83675134Y-51531866D01*
X83449014Y-51346294D01*
X83191034Y-51208401D01*
X82911111Y-51123487D01*
X82692950Y-51102000D01*
X82547050Y-51102000D01*
X82328889Y-51123487D01*
X82048966Y-51208401D01*
X81790986Y-51346294D01*
X81564866Y-51531866D01*
X81426031Y-51701036D01*
X81320706Y-51503986D01*
X81135134Y-51277866D01*
X80909014Y-51092294D01*
X80651034Y-50954401D01*
X80371111Y-50869487D01*
X80152950Y-50848000D01*
X80007050Y-50848000D01*
X79788889Y-50869487D01*
X79508966Y-50954401D01*
X79250986Y-51092294D01*
X79024866Y-51277866D01*
X78839294Y-51503986D01*
X78733969Y-51701036D01*
X78595134Y-51531866D01*
X78369014Y-51346294D01*
X78111034Y-51208401D01*
X77831111Y-51123487D01*
X77612950Y-51102000D01*
X77467050Y-51102000D01*
X77248889Y-51123487D01*
X76968966Y-51208401D01*
X76710986Y-51346294D01*
X76484866Y-51531866D01*
X76346031Y-51701036D01*
X76240706Y-51503986D01*
X76055134Y-51277866D01*
X75829014Y-51092294D01*
X75571034Y-50954401D01*
X75291111Y-50869487D01*
X75072950Y-50848000D01*
X74927050Y-50848000D01*
X74708889Y-50869487D01*
X74428966Y-50954401D01*
X74170986Y-51092294D01*
X73944866Y-51277866D01*
X73759294Y-51503986D01*
X73621401Y-51761966D01*
X73536487Y-52041889D01*
X73507815Y-52333000D01*
X73536487Y-52624111D01*
X73621401Y-52904034D01*
X73759294Y-53162014D01*
X73944866Y-53388134D01*
X73974687Y-53412607D01*
X73905820Y-53433498D01*
X73795506Y-53492463D01*
X73698815Y-53571815D01*
X73619463Y-53668506D01*
X73560498Y-53778820D01*
X73524188Y-53898518D01*
X73511928Y-54023000D01*
X73515000Y-54587250D01*
X73673750Y-54746000D01*
X74873000Y-54746000D01*
X74873000Y-54726000D01*
X75127000Y-54726000D01*
X75127000Y-54746000D01*
X75147000Y-54746000D01*
X75147000Y-55000000D01*
X75127000Y-55000000D01*
X75127000Y-55020000D01*
X74873000Y-55020000D01*
X74873000Y-55000000D01*
X73673750Y-55000000D01*
X73515000Y-55158750D01*
X73512913Y-55542001D01*
X65735321Y-55542001D01*
X65697998Y-55538325D01*
X65660675Y-55542001D01*
X65660666Y-55542001D01*
X65549013Y-55552998D01*
X65405752Y-55596455D01*
X65273722Y-55667027D01*
X65190082Y-55735669D01*
X65157998Y-55762000D01*
X65134200Y-55790998D01*
X59589003Y-61336196D01*
X59559999Y-61359999D01*
X59504871Y-61427174D01*
X59465026Y-61475724D01*
X59417938Y-61563819D01*
X59394454Y-61607754D01*
X59350997Y-61751015D01*
X59340000Y-61862668D01*
X59340000Y-61862678D01*
X59336324Y-61900000D01*
X59340000Y-61937323D01*
X59340001Y-67296288D01*
X59296063Y-67340226D01*
X59182795Y-67509744D01*
X59104774Y-67698102D01*
X59065000Y-67898061D01*
X50660000Y-67898061D01*
X50660000Y-54737323D01*
X52333000Y-54737323D01*
X52333000Y-55262677D01*
X52435492Y-55777935D01*
X52636536Y-56263298D01*
X52928406Y-56700113D01*
X53299887Y-57071594D01*
X53736702Y-57363464D01*
X54222065Y-57564508D01*
X54737323Y-57667000D01*
X55262677Y-57667000D01*
X55777935Y-57564508D01*
X56263298Y-57363464D01*
X56700113Y-57071594D01*
X57071594Y-56700113D01*
X57363464Y-56263298D01*
X57564508Y-55777935D01*
X57667000Y-55262677D01*
X57667000Y-54737323D01*
X57564508Y-54222065D01*
X57363464Y-53736702D01*
X57071594Y-53299887D01*
X56700113Y-52928406D01*
X56263298Y-52636536D01*
X55777935Y-52435492D01*
X55262677Y-52333000D01*
X54737323Y-52333000D01*
X54222065Y-52435492D01*
X53736702Y-52636536D01*
X53299887Y-52928406D01*
X52928406Y-53299887D01*
X52636536Y-53736702D01*
X52435492Y-54222065D01*
X52333000Y-54737323D01*
X50660000Y-54737323D01*
X50660000Y-50660000D01*
X119340000Y-50660000D01*
X119340001Y-149340000D01*
M02*
