G04 #@! TF.GenerationSoftware,KiCad,Pcbnew,(5.1.0)-1*
G04 #@! TF.CreationDate,2019-05-27T16:53:05-04:00*
G04 #@! TF.ProjectId,VCA,5643412e-6b69-4636-9164-5f7063625858,rev?*
G04 #@! TF.SameCoordinates,Original*
G04 #@! TF.FileFunction,Legend,Bot*
G04 #@! TF.FilePolarity,Positive*
%FSLAX46Y46*%
G04 Gerber Fmt 4.6, Leading zero omitted, Abs format (unit mm)*
G04 Created by KiCad (PCBNEW (5.1.0)-1) date 2019-05-27 16:53:05*
%MOMM*%
%LPD*%
G04 APERTURE LIST*
%ADD10C,0.150000*%
%ADD11C,0.120000*%
G04 APERTURE END LIST*
D10*
X69285714Y-40252380D02*
X69285714Y-39252380D01*
X68809523Y-40252380D02*
X68809523Y-39252380D01*
X68238095Y-40252380D01*
X68238095Y-39252380D01*
X67761904Y-40252380D02*
X67761904Y-39252380D01*
X67380952Y-39252380D01*
X67285714Y-39300000D01*
X67238095Y-39347619D01*
X67190476Y-39442857D01*
X67190476Y-39585714D01*
X67238095Y-39680952D01*
X67285714Y-39728571D01*
X67380952Y-39776190D01*
X67761904Y-39776190D01*
X66761904Y-39252380D02*
X66761904Y-40061904D01*
X66714285Y-40157142D01*
X66666666Y-40204761D01*
X66571428Y-40252380D01*
X66380952Y-40252380D01*
X66285714Y-40204761D01*
X66238095Y-40157142D01*
X66190476Y-40061904D01*
X66190476Y-39252380D01*
X65857142Y-39252380D02*
X65285714Y-39252380D01*
X65571428Y-40252380D02*
X65571428Y-39252380D01*
X63666666Y-40252380D02*
X64238095Y-40252380D01*
X63952380Y-40252380D02*
X63952380Y-39252380D01*
X64047619Y-39395238D01*
X64142857Y-39490476D01*
X64238095Y-39538095D01*
X69676190Y-54932142D02*
X69723809Y-54979761D01*
X69866666Y-55027380D01*
X69961904Y-55027380D01*
X70104761Y-54979761D01*
X70200000Y-54884523D01*
X70247619Y-54789285D01*
X70295238Y-54598809D01*
X70295238Y-54455952D01*
X70247619Y-54265476D01*
X70200000Y-54170238D01*
X70104761Y-54075000D01*
X69961904Y-54027380D01*
X69866666Y-54027380D01*
X69723809Y-54075000D01*
X69676190Y-54122619D01*
X68676190Y-55027380D02*
X69009523Y-54551190D01*
X69247619Y-55027380D02*
X69247619Y-54027380D01*
X68866666Y-54027380D01*
X68771428Y-54075000D01*
X68723809Y-54122619D01*
X68676190Y-54217857D01*
X68676190Y-54360714D01*
X68723809Y-54455952D01*
X68771428Y-54503571D01*
X68866666Y-54551190D01*
X69247619Y-54551190D01*
X68057142Y-54027380D02*
X67866666Y-54027380D01*
X67771428Y-54075000D01*
X67676190Y-54170238D01*
X67628571Y-54360714D01*
X67628571Y-54694047D01*
X67676190Y-54884523D01*
X67771428Y-54979761D01*
X67866666Y-55027380D01*
X68057142Y-55027380D01*
X68152380Y-54979761D01*
X68247619Y-54884523D01*
X68295238Y-54694047D01*
X68295238Y-54360714D01*
X68247619Y-54170238D01*
X68152380Y-54075000D01*
X68057142Y-54027380D01*
X67247619Y-54979761D02*
X67104761Y-55027380D01*
X66866666Y-55027380D01*
X66771428Y-54979761D01*
X66723809Y-54932142D01*
X66676190Y-54836904D01*
X66676190Y-54741666D01*
X66723809Y-54646428D01*
X66771428Y-54598809D01*
X66866666Y-54551190D01*
X67057142Y-54503571D01*
X67152380Y-54455952D01*
X67200000Y-54408333D01*
X67247619Y-54313095D01*
X67247619Y-54217857D01*
X67200000Y-54122619D01*
X67152380Y-54075000D01*
X67057142Y-54027380D01*
X66819047Y-54027380D01*
X66676190Y-54075000D01*
X66295238Y-54979761D02*
X66152380Y-55027380D01*
X65914285Y-55027380D01*
X65819047Y-54979761D01*
X65771428Y-54932142D01*
X65723809Y-54836904D01*
X65723809Y-54741666D01*
X65771428Y-54646428D01*
X65819047Y-54598809D01*
X65914285Y-54551190D01*
X66104761Y-54503571D01*
X66200000Y-54455952D01*
X66247619Y-54408333D01*
X66295238Y-54313095D01*
X66295238Y-54217857D01*
X66247619Y-54122619D01*
X66200000Y-54075000D01*
X66104761Y-54027380D01*
X65866666Y-54027380D01*
X65723809Y-54075000D01*
X64961904Y-54503571D02*
X65295238Y-54503571D01*
X65295238Y-55027380D02*
X65295238Y-54027380D01*
X64819047Y-54027380D01*
X64485714Y-54741666D02*
X64009523Y-54741666D01*
X64580952Y-55027380D02*
X64247619Y-54027380D01*
X63914285Y-55027380D01*
X63580952Y-55027380D02*
X63580952Y-54027380D01*
X63342857Y-54027380D01*
X63200000Y-54075000D01*
X63104761Y-54170238D01*
X63057142Y-54265476D01*
X63009523Y-54455952D01*
X63009523Y-54598809D01*
X63057142Y-54789285D01*
X63104761Y-54884523D01*
X63200000Y-54979761D01*
X63342857Y-55027380D01*
X63580952Y-55027380D01*
X62580952Y-54503571D02*
X62247619Y-54503571D01*
X62104761Y-55027380D02*
X62580952Y-55027380D01*
X62580952Y-54027380D01*
X62104761Y-54027380D01*
X66319047Y-56582142D02*
X66366666Y-56629761D01*
X66509523Y-56677380D01*
X66604761Y-56677380D01*
X66747619Y-56629761D01*
X66842857Y-56534523D01*
X66890476Y-56439285D01*
X66938095Y-56248809D01*
X66938095Y-56105952D01*
X66890476Y-55915476D01*
X66842857Y-55820238D01*
X66747619Y-55725000D01*
X66604761Y-55677380D01*
X66509523Y-55677380D01*
X66366666Y-55725000D01*
X66319047Y-55772619D01*
X66033333Y-55677380D02*
X65700000Y-56677380D01*
X65366666Y-55677380D01*
X69085714Y-70452380D02*
X69085714Y-69452380D01*
X68609523Y-70452380D02*
X68609523Y-69452380D01*
X68038095Y-70452380D01*
X68038095Y-69452380D01*
X67561904Y-70452380D02*
X67561904Y-69452380D01*
X67180952Y-69452380D01*
X67085714Y-69500000D01*
X67038095Y-69547619D01*
X66990476Y-69642857D01*
X66990476Y-69785714D01*
X67038095Y-69880952D01*
X67085714Y-69928571D01*
X67180952Y-69976190D01*
X67561904Y-69976190D01*
X66561904Y-69452380D02*
X66561904Y-70261904D01*
X66514285Y-70357142D01*
X66466666Y-70404761D01*
X66371428Y-70452380D01*
X66180952Y-70452380D01*
X66085714Y-70404761D01*
X66038095Y-70357142D01*
X65990476Y-70261904D01*
X65990476Y-69452380D01*
X65657142Y-69452380D02*
X65085714Y-69452380D01*
X65371428Y-70452380D02*
X65371428Y-69452380D01*
X64038095Y-69547619D02*
X63990476Y-69500000D01*
X63895238Y-69452380D01*
X63657142Y-69452380D01*
X63561904Y-69500000D01*
X63514285Y-69547619D01*
X63466666Y-69642857D01*
X63466666Y-69738095D01*
X63514285Y-69880952D01*
X64085714Y-70452380D01*
X63466666Y-70452380D01*
X67361904Y-82827380D02*
X67028571Y-83827380D01*
X66695238Y-82827380D01*
X65790476Y-83732142D02*
X65838095Y-83779761D01*
X65980952Y-83827380D01*
X66076190Y-83827380D01*
X66219047Y-83779761D01*
X66314285Y-83684523D01*
X66361904Y-83589285D01*
X66409523Y-83398809D01*
X66409523Y-83255952D01*
X66361904Y-83065476D01*
X66314285Y-82970238D01*
X66219047Y-82875000D01*
X66076190Y-82827380D01*
X65980952Y-82827380D01*
X65838095Y-82875000D01*
X65790476Y-82922619D01*
X65409523Y-83541666D02*
X64933333Y-83541666D01*
X65504761Y-83827380D02*
X65171428Y-82827380D01*
X64838095Y-83827380D01*
X66695238Y-85382142D02*
X66742857Y-85429761D01*
X66885714Y-85477380D01*
X66980952Y-85477380D01*
X67123809Y-85429761D01*
X67219047Y-85334523D01*
X67266666Y-85239285D01*
X67314285Y-85048809D01*
X67314285Y-84905952D01*
X67266666Y-84715476D01*
X67219047Y-84620238D01*
X67123809Y-84525000D01*
X66980952Y-84477380D01*
X66885714Y-84477380D01*
X66742857Y-84525000D01*
X66695238Y-84572619D01*
X66409523Y-84477380D02*
X66076190Y-85477380D01*
X65742857Y-84477380D01*
X64885714Y-85477380D02*
X65457142Y-85477380D01*
X65171428Y-85477380D02*
X65171428Y-84477380D01*
X65266666Y-84620238D01*
X65361904Y-84715476D01*
X65457142Y-84763095D01*
X67761904Y-99027380D02*
X67428571Y-100027380D01*
X67095238Y-99027380D01*
X66190476Y-99932142D02*
X66238095Y-99979761D01*
X66380952Y-100027380D01*
X66476190Y-100027380D01*
X66619047Y-99979761D01*
X66714285Y-99884523D01*
X66761904Y-99789285D01*
X66809523Y-99598809D01*
X66809523Y-99455952D01*
X66761904Y-99265476D01*
X66714285Y-99170238D01*
X66619047Y-99075000D01*
X66476190Y-99027380D01*
X66380952Y-99027380D01*
X66238095Y-99075000D01*
X66190476Y-99122619D01*
X65809523Y-99741666D02*
X65333333Y-99741666D01*
X65904761Y-100027380D02*
X65571428Y-99027380D01*
X65238095Y-100027380D01*
X67095238Y-101582142D02*
X67142857Y-101629761D01*
X67285714Y-101677380D01*
X67380952Y-101677380D01*
X67523809Y-101629761D01*
X67619047Y-101534523D01*
X67666666Y-101439285D01*
X67714285Y-101248809D01*
X67714285Y-101105952D01*
X67666666Y-100915476D01*
X67619047Y-100820238D01*
X67523809Y-100725000D01*
X67380952Y-100677380D01*
X67285714Y-100677380D01*
X67142857Y-100725000D01*
X67095238Y-100772619D01*
X66809523Y-100677380D02*
X66476190Y-101677380D01*
X66142857Y-100677380D01*
X65857142Y-100772619D02*
X65809523Y-100725000D01*
X65714285Y-100677380D01*
X65476190Y-100677380D01*
X65380952Y-100725000D01*
X65333333Y-100772619D01*
X65285714Y-100867857D01*
X65285714Y-100963095D01*
X65333333Y-101105952D01*
X65904761Y-101677380D01*
X65285714Y-101677380D01*
X48242857Y-106427380D02*
X47909523Y-107427380D01*
X47576190Y-106427380D01*
X46671428Y-107332142D02*
X46719047Y-107379761D01*
X46861904Y-107427380D01*
X46957142Y-107427380D01*
X47100000Y-107379761D01*
X47195238Y-107284523D01*
X47242857Y-107189285D01*
X47290476Y-106998809D01*
X47290476Y-106855952D01*
X47242857Y-106665476D01*
X47195238Y-106570238D01*
X47100000Y-106475000D01*
X46957142Y-106427380D01*
X46861904Y-106427380D01*
X46719047Y-106475000D01*
X46671428Y-106522619D01*
X46290476Y-107141666D02*
X45814285Y-107141666D01*
X46385714Y-107427380D02*
X46052380Y-106427380D01*
X45719047Y-107427380D01*
X46719047Y-108982142D02*
X46766666Y-109029761D01*
X46909523Y-109077380D01*
X47004761Y-109077380D01*
X47147619Y-109029761D01*
X47242857Y-108934523D01*
X47290476Y-108839285D01*
X47338095Y-108648809D01*
X47338095Y-108505952D01*
X47290476Y-108315476D01*
X47242857Y-108220238D01*
X47147619Y-108125000D01*
X47004761Y-108077380D01*
X46909523Y-108077380D01*
X46766666Y-108125000D01*
X46719047Y-108172619D01*
X46433333Y-108077380D02*
X46100000Y-109077380D01*
X45766666Y-108077380D01*
X80480952Y-108757142D02*
X80528571Y-108804761D01*
X80671428Y-108852380D01*
X80766666Y-108852380D01*
X80909523Y-108804761D01*
X81004761Y-108709523D01*
X81052380Y-108614285D01*
X81100000Y-108423809D01*
X81100000Y-108280952D01*
X81052380Y-108090476D01*
X81004761Y-107995238D01*
X80909523Y-107900000D01*
X80766666Y-107852380D01*
X80671428Y-107852380D01*
X80528571Y-107900000D01*
X80480952Y-107947619D01*
X80052380Y-108852380D02*
X80052380Y-108185714D01*
X80052380Y-108376190D02*
X80004761Y-108280952D01*
X79957142Y-108233333D01*
X79861904Y-108185714D01*
X79766666Y-108185714D01*
X79290476Y-108852380D02*
X79385714Y-108804761D01*
X79433333Y-108757142D01*
X79480952Y-108661904D01*
X79480952Y-108376190D01*
X79433333Y-108280952D01*
X79385714Y-108233333D01*
X79290476Y-108185714D01*
X79147619Y-108185714D01*
X79052380Y-108233333D01*
X79004761Y-108280952D01*
X78957142Y-108376190D01*
X78957142Y-108661904D01*
X79004761Y-108757142D01*
X79052380Y-108804761D01*
X79147619Y-108852380D01*
X79290476Y-108852380D01*
X78576190Y-108804761D02*
X78480952Y-108852380D01*
X78290476Y-108852380D01*
X78195238Y-108804761D01*
X78147619Y-108709523D01*
X78147619Y-108661904D01*
X78195238Y-108566666D01*
X78290476Y-108519047D01*
X78433333Y-108519047D01*
X78528571Y-108471428D01*
X78576190Y-108376190D01*
X78576190Y-108328571D01*
X78528571Y-108233333D01*
X78433333Y-108185714D01*
X78290476Y-108185714D01*
X78195238Y-108233333D01*
X77766666Y-108804761D02*
X77671428Y-108852380D01*
X77480952Y-108852380D01*
X77385714Y-108804761D01*
X77338095Y-108709523D01*
X77338095Y-108661904D01*
X77385714Y-108566666D01*
X77480952Y-108519047D01*
X77623809Y-108519047D01*
X77719047Y-108471428D01*
X77766666Y-108376190D01*
X77766666Y-108328571D01*
X77719047Y-108233333D01*
X77623809Y-108185714D01*
X77480952Y-108185714D01*
X77385714Y-108233333D01*
X77052380Y-108185714D02*
X76671428Y-108185714D01*
X76909523Y-108852380D02*
X76909523Y-107995238D01*
X76861904Y-107900000D01*
X76766666Y-107852380D01*
X76671428Y-107852380D01*
X75909523Y-108852380D02*
X75909523Y-108328571D01*
X75957142Y-108233333D01*
X76052380Y-108185714D01*
X76242857Y-108185714D01*
X76338095Y-108233333D01*
X75909523Y-108804761D02*
X76004761Y-108852380D01*
X76242857Y-108852380D01*
X76338095Y-108804761D01*
X76385714Y-108709523D01*
X76385714Y-108614285D01*
X76338095Y-108519047D01*
X76242857Y-108471428D01*
X76004761Y-108471428D01*
X75909523Y-108423809D01*
X75004761Y-108852380D02*
X75004761Y-107852380D01*
X75004761Y-108804761D02*
X75100000Y-108852380D01*
X75290476Y-108852380D01*
X75385714Y-108804761D01*
X75433333Y-108757142D01*
X75480952Y-108661904D01*
X75480952Y-108376190D01*
X75433333Y-108280952D01*
X75385714Y-108233333D01*
X75290476Y-108185714D01*
X75100000Y-108185714D01*
X75004761Y-108233333D01*
X74147619Y-108804761D02*
X74242857Y-108852380D01*
X74433333Y-108852380D01*
X74528571Y-108804761D01*
X74576190Y-108709523D01*
X74576190Y-108328571D01*
X74528571Y-108233333D01*
X74433333Y-108185714D01*
X74242857Y-108185714D01*
X74147619Y-108233333D01*
X74100000Y-108328571D01*
X74100000Y-108423809D01*
X74576190Y-108519047D01*
X67423809Y-107752380D02*
X67233333Y-107752380D01*
X67138095Y-107800000D01*
X67042857Y-107895238D01*
X66995238Y-108085714D01*
X66995238Y-108419047D01*
X67042857Y-108609523D01*
X67138095Y-108704761D01*
X67233333Y-108752380D01*
X67423809Y-108752380D01*
X67519047Y-108704761D01*
X67614285Y-108609523D01*
X67661904Y-108419047D01*
X67661904Y-108085714D01*
X67614285Y-107895238D01*
X67519047Y-107800000D01*
X67423809Y-107752380D01*
X66138095Y-108085714D02*
X66138095Y-108752380D01*
X66566666Y-108085714D02*
X66566666Y-108609523D01*
X66519047Y-108704761D01*
X66423809Y-108752380D01*
X66280952Y-108752380D01*
X66185714Y-108704761D01*
X66138095Y-108657142D01*
X65804761Y-108085714D02*
X65423809Y-108085714D01*
X65661904Y-107752380D02*
X65661904Y-108609523D01*
X65614285Y-108704761D01*
X65519047Y-108752380D01*
X65423809Y-108752380D01*
X65090476Y-108085714D02*
X65090476Y-109085714D01*
X65090476Y-108133333D02*
X64995238Y-108085714D01*
X64804761Y-108085714D01*
X64709523Y-108133333D01*
X64661904Y-108180952D01*
X64614285Y-108276190D01*
X64614285Y-108561904D01*
X64661904Y-108657142D01*
X64709523Y-108704761D01*
X64804761Y-108752380D01*
X64995238Y-108752380D01*
X65090476Y-108704761D01*
X63757142Y-108085714D02*
X63757142Y-108752380D01*
X64185714Y-108085714D02*
X64185714Y-108609523D01*
X64138095Y-108704761D01*
X64042857Y-108752380D01*
X63900000Y-108752380D01*
X63804761Y-108704761D01*
X63757142Y-108657142D01*
X63423809Y-108085714D02*
X63042857Y-108085714D01*
X63280952Y-107752380D02*
X63280952Y-108609523D01*
X63233333Y-108704761D01*
X63138095Y-108752380D01*
X63042857Y-108752380D01*
D11*
X59970000Y-106620000D02*
X59970000Y-102755000D01*
X59970000Y-98245000D02*
X59970000Y-94380000D01*
X50030000Y-106620000D02*
X50030000Y-102755000D01*
X50030000Y-98245000D02*
X50030000Y-94380000D01*
X59970000Y-106620000D02*
X58371000Y-106620000D01*
X56629000Y-106620000D02*
X55870000Y-106620000D01*
X54129000Y-106620000D02*
X53370000Y-106620000D01*
X51630000Y-106620000D02*
X50030000Y-106620000D01*
X59970000Y-94380000D02*
X50030000Y-94380000D01*
D10*
X80000000Y-49400000D02*
X71000000Y-49400000D01*
X71000000Y-49400000D02*
X71000000Y-59900000D01*
X71000000Y-59900000D02*
X80000000Y-59900000D01*
X80000000Y-59900000D02*
X80000000Y-49400000D01*
X80000000Y-34400000D02*
X71000000Y-34400000D01*
X71000000Y-34400000D02*
X71000000Y-44900000D01*
X71000000Y-44900000D02*
X80000000Y-44900000D01*
X80000000Y-44900000D02*
X80000000Y-34400000D01*
X80000000Y-74900000D02*
X80000000Y-64400000D01*
X71000000Y-74900000D02*
X80000000Y-74900000D01*
X71000000Y-64400000D02*
X71000000Y-74900000D01*
X80000000Y-64400000D02*
X71000000Y-64400000D01*
X80000000Y-79400000D02*
X71000000Y-79400000D01*
X71000000Y-79400000D02*
X71000000Y-89900000D01*
X71000000Y-89900000D02*
X80000000Y-89900000D01*
X80000000Y-89900000D02*
X80000000Y-79400000D01*
X80000000Y-104900000D02*
X80000000Y-94400000D01*
X71000000Y-104900000D02*
X80000000Y-104900000D01*
X71000000Y-94400000D02*
X71000000Y-104900000D01*
X80000000Y-94400000D02*
X71000000Y-94400000D01*
X70000000Y-119900000D02*
X70000000Y-109400000D01*
X61000000Y-119900000D02*
X70000000Y-119900000D01*
X61000000Y-109400000D02*
X61000000Y-119900000D01*
X70000000Y-109400000D02*
X61000000Y-109400000D01*
D11*
X82470000Y-109380000D02*
X72530000Y-109380000D01*
X74130000Y-121620000D02*
X72530000Y-121620000D01*
X76629000Y-121620000D02*
X75870000Y-121620000D01*
X79129000Y-121620000D02*
X78370000Y-121620000D01*
X82470000Y-121620000D02*
X80871000Y-121620000D01*
X72530000Y-113245000D02*
X72530000Y-109380000D01*
X72530000Y-121620000D02*
X72530000Y-117755000D01*
X82470000Y-113245000D02*
X82470000Y-109380000D01*
X82470000Y-121620000D02*
X82470000Y-117755000D01*
X57470000Y-109380000D02*
X47530000Y-109380000D01*
X49130000Y-121620000D02*
X47530000Y-121620000D01*
X51629000Y-121620000D02*
X50870000Y-121620000D01*
X54129000Y-121620000D02*
X53370000Y-121620000D01*
X57470000Y-121620000D02*
X55871000Y-121620000D01*
X47530000Y-113245000D02*
X47530000Y-109380000D01*
X47530000Y-121620000D02*
X47530000Y-117755000D01*
X57470000Y-113245000D02*
X57470000Y-109380000D01*
X57470000Y-121620000D02*
X57470000Y-117755000D01*
X59970000Y-49380000D02*
X50030000Y-49380000D01*
X51630000Y-61620000D02*
X50030000Y-61620000D01*
X54129000Y-61620000D02*
X53370000Y-61620000D01*
X56629000Y-61620000D02*
X55870000Y-61620000D01*
X59970000Y-61620000D02*
X58371000Y-61620000D01*
X50030000Y-53245000D02*
X50030000Y-49380000D01*
X50030000Y-61620000D02*
X50030000Y-57755000D01*
X59970000Y-53245000D02*
X59970000Y-49380000D01*
X59970000Y-61620000D02*
X59970000Y-57755000D01*
X59970000Y-46620000D02*
X59970000Y-42755000D01*
X59970000Y-38245000D02*
X59970000Y-34380000D01*
X50030000Y-46620000D02*
X50030000Y-42755000D01*
X50030000Y-38245000D02*
X50030000Y-34380000D01*
X59970000Y-46620000D02*
X58371000Y-46620000D01*
X56629000Y-46620000D02*
X55870000Y-46620000D01*
X54129000Y-46620000D02*
X53370000Y-46620000D01*
X51630000Y-46620000D02*
X50030000Y-46620000D01*
X59970000Y-34380000D02*
X50030000Y-34380000D01*
X59970000Y-64380000D02*
X50030000Y-64380000D01*
X51630000Y-76620000D02*
X50030000Y-76620000D01*
X54129000Y-76620000D02*
X53370000Y-76620000D01*
X56629000Y-76620000D02*
X55870000Y-76620000D01*
X59970000Y-76620000D02*
X58371000Y-76620000D01*
X50030000Y-68245000D02*
X50030000Y-64380000D01*
X50030000Y-76620000D02*
X50030000Y-72755000D01*
X59970000Y-68245000D02*
X59970000Y-64380000D01*
X59970000Y-76620000D02*
X59970000Y-72755000D01*
X59970000Y-91620000D02*
X59970000Y-87755000D01*
X59970000Y-83245000D02*
X59970000Y-79380000D01*
X50030000Y-91620000D02*
X50030000Y-87755000D01*
X50030000Y-83245000D02*
X50030000Y-79380000D01*
X59970000Y-91620000D02*
X58371000Y-91620000D01*
X56629000Y-91620000D02*
X55870000Y-91620000D01*
X54129000Y-91620000D02*
X53370000Y-91620000D01*
X51630000Y-91620000D02*
X50030000Y-91620000D01*
X59970000Y-79380000D02*
X50030000Y-79380000D01*
D10*
X63102380Y-100854761D02*
X62626190Y-100521428D01*
X63102380Y-100283333D02*
X62102380Y-100283333D01*
X62102380Y-100664285D01*
X62150000Y-100759523D01*
X62197619Y-100807142D01*
X62292857Y-100854761D01*
X62435714Y-100854761D01*
X62530952Y-100807142D01*
X62578571Y-100759523D01*
X62626190Y-100664285D01*
X62626190Y-100283333D01*
X62102380Y-101140476D02*
X63102380Y-101473809D01*
X62102380Y-101807142D01*
X62102380Y-102045238D02*
X62102380Y-102711904D01*
X63102380Y-102283333D01*
X75333333Y-60452380D02*
X75333333Y-61166666D01*
X75380952Y-61309523D01*
X75476190Y-61404761D01*
X75619047Y-61452380D01*
X75714285Y-61452380D01*
X74333333Y-61452380D02*
X74904761Y-61452380D01*
X74619047Y-61452380D02*
X74619047Y-60452380D01*
X74714285Y-60595238D01*
X74809523Y-60690476D01*
X74904761Y-60738095D01*
X75333333Y-45452380D02*
X75333333Y-46166666D01*
X75380952Y-46309523D01*
X75476190Y-46404761D01*
X75619047Y-46452380D01*
X75714285Y-46452380D01*
X74904761Y-45547619D02*
X74857142Y-45500000D01*
X74761904Y-45452380D01*
X74523809Y-45452380D01*
X74428571Y-45500000D01*
X74380952Y-45547619D01*
X74333333Y-45642857D01*
X74333333Y-45738095D01*
X74380952Y-45880952D01*
X74952380Y-46452380D01*
X74333333Y-46452380D01*
X75333333Y-75452380D02*
X75333333Y-76166666D01*
X75380952Y-76309523D01*
X75476190Y-76404761D01*
X75619047Y-76452380D01*
X75714285Y-76452380D01*
X74952380Y-75452380D02*
X74333333Y-75452380D01*
X74666666Y-75833333D01*
X74523809Y-75833333D01*
X74428571Y-75880952D01*
X74380952Y-75928571D01*
X74333333Y-76023809D01*
X74333333Y-76261904D01*
X74380952Y-76357142D01*
X74428571Y-76404761D01*
X74523809Y-76452380D01*
X74809523Y-76452380D01*
X74904761Y-76404761D01*
X74952380Y-76357142D01*
X75333333Y-90452380D02*
X75333333Y-91166666D01*
X75380952Y-91309523D01*
X75476190Y-91404761D01*
X75619047Y-91452380D01*
X75714285Y-91452380D01*
X74428571Y-90785714D02*
X74428571Y-91452380D01*
X74666666Y-90404761D02*
X74904761Y-91119047D01*
X74285714Y-91119047D01*
X75333333Y-105452380D02*
X75333333Y-106166666D01*
X75380952Y-106309523D01*
X75476190Y-106404761D01*
X75619047Y-106452380D01*
X75714285Y-106452380D01*
X74380952Y-105452380D02*
X74857142Y-105452380D01*
X74904761Y-105928571D01*
X74857142Y-105880952D01*
X74761904Y-105833333D01*
X74523809Y-105833333D01*
X74428571Y-105880952D01*
X74380952Y-105928571D01*
X74333333Y-106023809D01*
X74333333Y-106261904D01*
X74380952Y-106357142D01*
X74428571Y-106404761D01*
X74523809Y-106452380D01*
X74761904Y-106452380D01*
X74857142Y-106404761D01*
X74904761Y-106357142D01*
X65333333Y-120452380D02*
X65333333Y-121166666D01*
X65380952Y-121309523D01*
X65476190Y-121404761D01*
X65619047Y-121452380D01*
X65714285Y-121452380D01*
X64952380Y-120452380D02*
X64285714Y-120452380D01*
X64714285Y-121452380D01*
X85602380Y-115854761D02*
X85126190Y-115521428D01*
X85602380Y-115283333D02*
X84602380Y-115283333D01*
X84602380Y-115664285D01*
X84650000Y-115759523D01*
X84697619Y-115807142D01*
X84792857Y-115854761D01*
X84935714Y-115854761D01*
X85030952Y-115807142D01*
X85078571Y-115759523D01*
X85126190Y-115664285D01*
X85126190Y-115283333D01*
X84602380Y-116140476D02*
X85602380Y-116473809D01*
X84602380Y-116807142D01*
X85602380Y-117664285D02*
X85602380Y-117092857D01*
X85602380Y-117378571D02*
X84602380Y-117378571D01*
X84745238Y-117283333D01*
X84840476Y-117188095D01*
X84888095Y-117092857D01*
X60602380Y-115854761D02*
X60126190Y-115521428D01*
X60602380Y-115283333D02*
X59602380Y-115283333D01*
X59602380Y-115664285D01*
X59650000Y-115759523D01*
X59697619Y-115807142D01*
X59792857Y-115854761D01*
X59935714Y-115854761D01*
X60030952Y-115807142D01*
X60078571Y-115759523D01*
X60126190Y-115664285D01*
X60126190Y-115283333D01*
X59602380Y-116140476D02*
X60602380Y-116473809D01*
X59602380Y-116807142D01*
X59697619Y-117092857D02*
X59650000Y-117140476D01*
X59602380Y-117235714D01*
X59602380Y-117473809D01*
X59650000Y-117569047D01*
X59697619Y-117616666D01*
X59792857Y-117664285D01*
X59888095Y-117664285D01*
X60030952Y-117616666D01*
X60602380Y-117045238D01*
X60602380Y-117664285D01*
X63102380Y-55854761D02*
X62626190Y-55521428D01*
X63102380Y-55283333D02*
X62102380Y-55283333D01*
X62102380Y-55664285D01*
X62150000Y-55759523D01*
X62197619Y-55807142D01*
X62292857Y-55854761D01*
X62435714Y-55854761D01*
X62530952Y-55807142D01*
X62578571Y-55759523D01*
X62626190Y-55664285D01*
X62626190Y-55283333D01*
X62102380Y-56140476D02*
X63102380Y-56473809D01*
X62102380Y-56807142D01*
X62102380Y-57045238D02*
X62102380Y-57664285D01*
X62483333Y-57330952D01*
X62483333Y-57473809D01*
X62530952Y-57569047D01*
X62578571Y-57616666D01*
X62673809Y-57664285D01*
X62911904Y-57664285D01*
X63007142Y-57616666D01*
X63054761Y-57569047D01*
X63102380Y-57473809D01*
X63102380Y-57188095D01*
X63054761Y-57092857D01*
X63007142Y-57045238D01*
X63102380Y-40854761D02*
X62626190Y-40521428D01*
X63102380Y-40283333D02*
X62102380Y-40283333D01*
X62102380Y-40664285D01*
X62150000Y-40759523D01*
X62197619Y-40807142D01*
X62292857Y-40854761D01*
X62435714Y-40854761D01*
X62530952Y-40807142D01*
X62578571Y-40759523D01*
X62626190Y-40664285D01*
X62626190Y-40283333D01*
X62102380Y-41140476D02*
X63102380Y-41473809D01*
X62102380Y-41807142D01*
X62435714Y-42569047D02*
X63102380Y-42569047D01*
X62054761Y-42330952D02*
X62769047Y-42092857D01*
X62769047Y-42711904D01*
X63102380Y-70854761D02*
X62626190Y-70521428D01*
X63102380Y-70283333D02*
X62102380Y-70283333D01*
X62102380Y-70664285D01*
X62150000Y-70759523D01*
X62197619Y-70807142D01*
X62292857Y-70854761D01*
X62435714Y-70854761D01*
X62530952Y-70807142D01*
X62578571Y-70759523D01*
X62626190Y-70664285D01*
X62626190Y-70283333D01*
X62102380Y-71140476D02*
X63102380Y-71473809D01*
X62102380Y-71807142D01*
X62102380Y-72616666D02*
X62102380Y-72140476D01*
X62578571Y-72092857D01*
X62530952Y-72140476D01*
X62483333Y-72235714D01*
X62483333Y-72473809D01*
X62530952Y-72569047D01*
X62578571Y-72616666D01*
X62673809Y-72664285D01*
X62911904Y-72664285D01*
X63007142Y-72616666D01*
X63054761Y-72569047D01*
X63102380Y-72473809D01*
X63102380Y-72235714D01*
X63054761Y-72140476D01*
X63007142Y-72092857D01*
X63102380Y-85854761D02*
X62626190Y-85521428D01*
X63102380Y-85283333D02*
X62102380Y-85283333D01*
X62102380Y-85664285D01*
X62150000Y-85759523D01*
X62197619Y-85807142D01*
X62292857Y-85854761D01*
X62435714Y-85854761D01*
X62530952Y-85807142D01*
X62578571Y-85759523D01*
X62626190Y-85664285D01*
X62626190Y-85283333D01*
X62102380Y-86140476D02*
X63102380Y-86473809D01*
X62102380Y-86807142D01*
X62102380Y-87569047D02*
X62102380Y-87378571D01*
X62150000Y-87283333D01*
X62197619Y-87235714D01*
X62340476Y-87140476D01*
X62530952Y-87092857D01*
X62911904Y-87092857D01*
X63007142Y-87140476D01*
X63054761Y-87188095D01*
X63102380Y-87283333D01*
X63102380Y-87473809D01*
X63054761Y-87569047D01*
X63007142Y-87616666D01*
X62911904Y-87664285D01*
X62673809Y-87664285D01*
X62578571Y-87616666D01*
X62530952Y-87569047D01*
X62483333Y-87473809D01*
X62483333Y-87283333D01*
X62530952Y-87188095D01*
X62578571Y-87140476D01*
X62673809Y-87092857D01*
M02*
