M48
; DRILL file {KiCad (5.1.0)-1} date 5/27/2019 4:53:07 PM
; FORMAT={2:4/ absolute / inch / suppress leading zeros}
; #@! TF.CreationDate,2019-05-27T16:53:07-04:00
; #@! TF.GenerationSoftware,Kicad,Pcbnew,(5.1.0)-1
; #@! TF.FileFunction,Plated,1,2,PTH
FMAT,2
INCH,TZ
T1C0.0157
T2C0.0197
T3C0.0394
T4C0.1260
%
G90
G05
T1
X18780Y-40551
X20669Y-40748
X21417Y-35827
X22717Y-38740
X24478Y-22982
X24606Y-27953
X24685Y-24094
X26024Y-30197
X26063Y-31339
X26614Y-43819
X27087Y-34685
X27156Y-19104
X27362Y-26496
X28504Y-21260
X29764Y-30984
X30079Y-26102
X30118Y-34055
X30139Y-23486
X30581Y-21565
X30984Y-32874
X31024Y-37008
X31457Y-30315
X31811Y-32283
X32480Y-22598
X32724Y-29913
X32953Y-30551
X33189Y-28031
X33268Y-35157
X33346Y-31811
X33543Y-29606
T3
X33415Y-18717
X33415Y-20717
X33515Y-17717
X33515Y-19717
X33515Y-21717
X34415Y-18717
X34415Y-20717
X34515Y-17717
X34515Y-19717
X34515Y-21717
X20669Y-24606
X21654Y-24606
X22638Y-24606
X17520Y-29921
X18504Y-31890
X19488Y-29921
X19685Y-48228
X20669Y-48228
X21654Y-48228
X20669Y-36417
X21654Y-36417
X22638Y-36417
X17480Y-35709
X18465Y-37677
X19449Y-35709
X20669Y-30512
X21654Y-30512
X22638Y-30512
X20669Y-42323
X21654Y-42323
X22638Y-42323
X20669Y-18701
X21654Y-18701
X22638Y-18701
X29528Y-48228
X30512Y-48228
X31496Y-48228
T4
X33465Y-49213
X33465Y-13780
X17717Y-49213
X17717Y-13780
T2
G00X29350Y-14016
M15
G01X28917Y-14016
M16
G05
G00X28917Y-17205
M15
G01X29350Y-17205
M16
G05
G00X31024Y-16083
M15
G01X31024Y-16516
M16
G05
G00X29350Y-37638
M15
G01X28917Y-37638
M16
G05
G00X28917Y-40827
M15
G01X29350Y-40827
M16
G05
G00X31024Y-39705
M15
G01X31024Y-40138
M16
G05
G00X29350Y-25827
M15
G01X28917Y-25827
M16
G05
G00X28917Y-29016
M15
G01X29350Y-29016
M16
G05
G00X31024Y-27894
M15
G01X31024Y-28327
M16
G05
G00X29350Y-31732
M15
G01X28917Y-31732
M16
G05
G00X28917Y-34921
M15
G01X29350Y-34921
M16
G05
G00X31024Y-33799
M15
G01X31024Y-34232
M16
G05
G00X29350Y-19921
M15
G01X28917Y-19921
M16
G05
G00X28917Y-23110
M15
G01X29350Y-23110
M16
G05
G00X31024Y-21988
M15
G01X31024Y-22421
M16
G05
G00X25413Y-43543
M15
G01X24980Y-43543
M16
G05
G00X24980Y-46732
M15
G01X25413Y-46732
M16
G05
G00X27087Y-45610
M15
G01X27087Y-46043
M16
G05
T0
M30
