G04 #@! TF.GenerationSoftware,KiCad,Pcbnew,(5.1.0)-1*
G04 #@! TF.CreationDate,2019-05-27T16:53:05-04:00*
G04 #@! TF.ProjectId,VCA,5643412e-6b69-4636-9164-5f7063625858,rev?*
G04 #@! TF.SameCoordinates,Original*
G04 #@! TF.FileFunction,Soldermask,Bot*
G04 #@! TF.FilePolarity,Negative*
%FSLAX46Y46*%
G04 Gerber Fmt 4.6, Leading zero omitted, Abs format (unit mm)*
G04 Created by KiCad (PCBNEW (5.1.0)-1) date 2019-05-27 16:53:05*
%MOMM*%
%LPD*%
G04 APERTURE LIST*
%ADD10C,0.100000*%
G04 APERTURE END LIST*
D10*
G36*
X85373404Y-122950466D02*
G01*
X85607589Y-122997048D01*
X85986671Y-123154069D01*
X86327835Y-123382028D01*
X86617972Y-123672165D01*
X86845931Y-124013329D01*
X87002952Y-124392411D01*
X87083000Y-124794842D01*
X87083000Y-125205158D01*
X87002952Y-125607589D01*
X86845931Y-125986671D01*
X86617972Y-126327835D01*
X86327835Y-126617972D01*
X85986671Y-126845931D01*
X85607589Y-127002952D01*
X85406373Y-127042976D01*
X85205159Y-127083000D01*
X84794841Y-127083000D01*
X84593627Y-127042976D01*
X84392411Y-127002952D01*
X84013329Y-126845931D01*
X83672165Y-126617972D01*
X83382028Y-126327835D01*
X83154069Y-125986671D01*
X82997048Y-125607589D01*
X82917000Y-125205158D01*
X82917000Y-124794842D01*
X82997048Y-124392411D01*
X83154069Y-124013329D01*
X83382028Y-123672165D01*
X83672165Y-123382028D01*
X84013329Y-123154069D01*
X84392411Y-122997048D01*
X84626596Y-122950466D01*
X84794841Y-122917000D01*
X85205159Y-122917000D01*
X85373404Y-122950466D01*
X85373404Y-122950466D01*
G37*
G36*
X45373404Y-122950466D02*
G01*
X45607589Y-122997048D01*
X45986671Y-123154069D01*
X46327835Y-123382028D01*
X46617972Y-123672165D01*
X46845931Y-124013329D01*
X47002952Y-124392411D01*
X47083000Y-124794842D01*
X47083000Y-125205158D01*
X47002952Y-125607589D01*
X46845931Y-125986671D01*
X46617972Y-126327835D01*
X46327835Y-126617972D01*
X45986671Y-126845931D01*
X45607589Y-127002952D01*
X45406373Y-127042976D01*
X45205159Y-127083000D01*
X44794841Y-127083000D01*
X44593627Y-127042976D01*
X44392411Y-127002952D01*
X44013329Y-126845931D01*
X43672165Y-126617972D01*
X43382028Y-126327835D01*
X43154069Y-125986671D01*
X42997048Y-125607589D01*
X42917000Y-125205158D01*
X42917000Y-124794842D01*
X42997048Y-124392411D01*
X43154069Y-124013329D01*
X43382028Y-123672165D01*
X43672165Y-123382028D01*
X44013329Y-123154069D01*
X44392411Y-122997048D01*
X44626596Y-122950466D01*
X44794841Y-122917000D01*
X45205159Y-122917000D01*
X45373404Y-122950466D01*
X45373404Y-122950466D01*
G37*
G36*
X75277395Y-121585546D02*
G01*
X75450466Y-121657234D01*
X75450467Y-121657235D01*
X75606227Y-121761310D01*
X75738690Y-121893773D01*
X75738691Y-121893775D01*
X75842766Y-122049534D01*
X75914454Y-122222605D01*
X75951000Y-122406333D01*
X75951000Y-122593667D01*
X75914454Y-122777395D01*
X75842766Y-122950466D01*
X75842765Y-122950467D01*
X75738690Y-123106227D01*
X75606227Y-123238690D01*
X75527818Y-123291081D01*
X75450466Y-123342766D01*
X75277395Y-123414454D01*
X75093667Y-123451000D01*
X74906333Y-123451000D01*
X74722605Y-123414454D01*
X74549534Y-123342766D01*
X74472182Y-123291081D01*
X74393773Y-123238690D01*
X74261310Y-123106227D01*
X74157235Y-122950467D01*
X74157234Y-122950466D01*
X74085546Y-122777395D01*
X74049000Y-122593667D01*
X74049000Y-122406333D01*
X74085546Y-122222605D01*
X74157234Y-122049534D01*
X74261309Y-121893775D01*
X74261310Y-121893773D01*
X74393773Y-121761310D01*
X74549533Y-121657235D01*
X74549534Y-121657234D01*
X74722605Y-121585546D01*
X74906333Y-121549000D01*
X75093667Y-121549000D01*
X75277395Y-121585546D01*
X75277395Y-121585546D01*
G37*
G36*
X52777395Y-121585546D02*
G01*
X52950466Y-121657234D01*
X52950467Y-121657235D01*
X53106227Y-121761310D01*
X53238690Y-121893773D01*
X53238691Y-121893775D01*
X53342766Y-122049534D01*
X53414454Y-122222605D01*
X53451000Y-122406333D01*
X53451000Y-122593667D01*
X53414454Y-122777395D01*
X53342766Y-122950466D01*
X53342765Y-122950467D01*
X53238690Y-123106227D01*
X53106227Y-123238690D01*
X53027818Y-123291081D01*
X52950466Y-123342766D01*
X52777395Y-123414454D01*
X52593667Y-123451000D01*
X52406333Y-123451000D01*
X52222605Y-123414454D01*
X52049534Y-123342766D01*
X51972182Y-123291081D01*
X51893773Y-123238690D01*
X51761310Y-123106227D01*
X51657235Y-122950467D01*
X51657234Y-122950466D01*
X51585546Y-122777395D01*
X51549000Y-122593667D01*
X51549000Y-122406333D01*
X51585546Y-122222605D01*
X51657234Y-122049534D01*
X51761309Y-121893775D01*
X51761310Y-121893773D01*
X51893773Y-121761310D01*
X52049533Y-121657235D01*
X52049534Y-121657234D01*
X52222605Y-121585546D01*
X52406333Y-121549000D01*
X52593667Y-121549000D01*
X52777395Y-121585546D01*
X52777395Y-121585546D01*
G37*
G36*
X55277395Y-121585546D02*
G01*
X55450466Y-121657234D01*
X55450467Y-121657235D01*
X55606227Y-121761310D01*
X55738690Y-121893773D01*
X55738691Y-121893775D01*
X55842766Y-122049534D01*
X55914454Y-122222605D01*
X55951000Y-122406333D01*
X55951000Y-122593667D01*
X55914454Y-122777395D01*
X55842766Y-122950466D01*
X55842765Y-122950467D01*
X55738690Y-123106227D01*
X55606227Y-123238690D01*
X55527818Y-123291081D01*
X55450466Y-123342766D01*
X55277395Y-123414454D01*
X55093667Y-123451000D01*
X54906333Y-123451000D01*
X54722605Y-123414454D01*
X54549534Y-123342766D01*
X54472182Y-123291081D01*
X54393773Y-123238690D01*
X54261310Y-123106227D01*
X54157235Y-122950467D01*
X54157234Y-122950466D01*
X54085546Y-122777395D01*
X54049000Y-122593667D01*
X54049000Y-122406333D01*
X54085546Y-122222605D01*
X54157234Y-122049534D01*
X54261309Y-121893775D01*
X54261310Y-121893773D01*
X54393773Y-121761310D01*
X54549533Y-121657235D01*
X54549534Y-121657234D01*
X54722605Y-121585546D01*
X54906333Y-121549000D01*
X55093667Y-121549000D01*
X55277395Y-121585546D01*
X55277395Y-121585546D01*
G37*
G36*
X50277395Y-121585546D02*
G01*
X50450466Y-121657234D01*
X50450467Y-121657235D01*
X50606227Y-121761310D01*
X50738690Y-121893773D01*
X50738691Y-121893775D01*
X50842766Y-122049534D01*
X50914454Y-122222605D01*
X50951000Y-122406333D01*
X50951000Y-122593667D01*
X50914454Y-122777395D01*
X50842766Y-122950466D01*
X50842765Y-122950467D01*
X50738690Y-123106227D01*
X50606227Y-123238690D01*
X50527818Y-123291081D01*
X50450466Y-123342766D01*
X50277395Y-123414454D01*
X50093667Y-123451000D01*
X49906333Y-123451000D01*
X49722605Y-123414454D01*
X49549534Y-123342766D01*
X49472182Y-123291081D01*
X49393773Y-123238690D01*
X49261310Y-123106227D01*
X49157235Y-122950467D01*
X49157234Y-122950466D01*
X49085546Y-122777395D01*
X49049000Y-122593667D01*
X49049000Y-122406333D01*
X49085546Y-122222605D01*
X49157234Y-122049534D01*
X49261309Y-121893775D01*
X49261310Y-121893773D01*
X49393773Y-121761310D01*
X49549533Y-121657235D01*
X49549534Y-121657234D01*
X49722605Y-121585546D01*
X49906333Y-121549000D01*
X50093667Y-121549000D01*
X50277395Y-121585546D01*
X50277395Y-121585546D01*
G37*
G36*
X80277395Y-121585546D02*
G01*
X80450466Y-121657234D01*
X80450467Y-121657235D01*
X80606227Y-121761310D01*
X80738690Y-121893773D01*
X80738691Y-121893775D01*
X80842766Y-122049534D01*
X80914454Y-122222605D01*
X80951000Y-122406333D01*
X80951000Y-122593667D01*
X80914454Y-122777395D01*
X80842766Y-122950466D01*
X80842765Y-122950467D01*
X80738690Y-123106227D01*
X80606227Y-123238690D01*
X80527818Y-123291081D01*
X80450466Y-123342766D01*
X80277395Y-123414454D01*
X80093667Y-123451000D01*
X79906333Y-123451000D01*
X79722605Y-123414454D01*
X79549534Y-123342766D01*
X79472182Y-123291081D01*
X79393773Y-123238690D01*
X79261310Y-123106227D01*
X79157235Y-122950467D01*
X79157234Y-122950466D01*
X79085546Y-122777395D01*
X79049000Y-122593667D01*
X79049000Y-122406333D01*
X79085546Y-122222605D01*
X79157234Y-122049534D01*
X79261309Y-121893775D01*
X79261310Y-121893773D01*
X79393773Y-121761310D01*
X79549533Y-121657235D01*
X79549534Y-121657234D01*
X79722605Y-121585546D01*
X79906333Y-121549000D01*
X80093667Y-121549000D01*
X80277395Y-121585546D01*
X80277395Y-121585546D01*
G37*
G36*
X77777395Y-121585546D02*
G01*
X77950466Y-121657234D01*
X77950467Y-121657235D01*
X78106227Y-121761310D01*
X78238690Y-121893773D01*
X78238691Y-121893775D01*
X78342766Y-122049534D01*
X78414454Y-122222605D01*
X78451000Y-122406333D01*
X78451000Y-122593667D01*
X78414454Y-122777395D01*
X78342766Y-122950466D01*
X78342765Y-122950467D01*
X78238690Y-123106227D01*
X78106227Y-123238690D01*
X78027818Y-123291081D01*
X77950466Y-123342766D01*
X77777395Y-123414454D01*
X77593667Y-123451000D01*
X77406333Y-123451000D01*
X77222605Y-123414454D01*
X77049534Y-123342766D01*
X76972182Y-123291081D01*
X76893773Y-123238690D01*
X76761310Y-123106227D01*
X76657235Y-122950467D01*
X76657234Y-122950466D01*
X76585546Y-122777395D01*
X76549000Y-122593667D01*
X76549000Y-122406333D01*
X76585546Y-122222605D01*
X76657234Y-122049534D01*
X76761309Y-121893775D01*
X76761310Y-121893773D01*
X76893773Y-121761310D01*
X77049533Y-121657235D01*
X77049534Y-121657234D01*
X77222605Y-121585546D01*
X77406333Y-121549000D01*
X77593667Y-121549000D01*
X77777395Y-121585546D01*
X77777395Y-121585546D01*
G37*
G36*
X64658015Y-118156973D02*
G01*
X64761879Y-118188479D01*
X64789055Y-118203005D01*
X64857600Y-118239643D01*
X64941501Y-118308499D01*
X65010357Y-118392400D01*
X65046995Y-118460945D01*
X65061521Y-118488121D01*
X65093027Y-118591985D01*
X65103666Y-118700000D01*
X65093027Y-118808015D01*
X65061521Y-118911879D01*
X65061519Y-118911882D01*
X65010357Y-119007600D01*
X64941501Y-119091501D01*
X64857600Y-119160357D01*
X64789055Y-119196995D01*
X64761879Y-119211521D01*
X64658015Y-119243027D01*
X64577067Y-119251000D01*
X63422933Y-119251000D01*
X63341985Y-119243027D01*
X63238121Y-119211521D01*
X63210945Y-119196995D01*
X63142400Y-119160357D01*
X63058499Y-119091501D01*
X62989643Y-119007600D01*
X62938481Y-118911882D01*
X62938479Y-118911879D01*
X62906973Y-118808015D01*
X62896334Y-118700000D01*
X62906973Y-118591985D01*
X62938479Y-118488121D01*
X62953005Y-118460945D01*
X62989643Y-118392400D01*
X63058499Y-118308499D01*
X63142400Y-118239643D01*
X63210945Y-118203005D01*
X63238121Y-118188479D01*
X63341985Y-118156973D01*
X63422933Y-118149000D01*
X64577067Y-118149000D01*
X64658015Y-118156973D01*
X64658015Y-118156973D01*
G37*
G36*
X73698254Y-113527818D02*
G01*
X74071511Y-113682426D01*
X74071513Y-113682427D01*
X74407436Y-113906884D01*
X74693116Y-114192564D01*
X74917574Y-114528489D01*
X75072182Y-114901746D01*
X75151000Y-115297993D01*
X75151000Y-115702007D01*
X75072182Y-116098254D01*
X74917574Y-116471511D01*
X74917573Y-116471513D01*
X74693116Y-116807436D01*
X74407436Y-117093116D01*
X74071513Y-117317573D01*
X74071512Y-117317574D01*
X74071511Y-117317574D01*
X73698254Y-117472182D01*
X73302007Y-117551000D01*
X72897993Y-117551000D01*
X72501746Y-117472182D01*
X72128489Y-117317574D01*
X72128488Y-117317574D01*
X72128487Y-117317573D01*
X71792564Y-117093116D01*
X71506884Y-116807436D01*
X71282427Y-116471513D01*
X71282426Y-116471511D01*
X71127818Y-116098254D01*
X71049000Y-115702007D01*
X71049000Y-115297993D01*
X71127818Y-114901746D01*
X71282426Y-114528489D01*
X71506884Y-114192564D01*
X71792564Y-113906884D01*
X72128487Y-113682427D01*
X72128489Y-113682426D01*
X72501746Y-113527818D01*
X72897993Y-113449000D01*
X73302007Y-113449000D01*
X73698254Y-113527818D01*
X73698254Y-113527818D01*
G37*
G36*
X82498254Y-113527818D02*
G01*
X82871511Y-113682426D01*
X82871513Y-113682427D01*
X83207436Y-113906884D01*
X83493116Y-114192564D01*
X83717574Y-114528489D01*
X83872182Y-114901746D01*
X83951000Y-115297993D01*
X83951000Y-115702007D01*
X83872182Y-116098254D01*
X83717574Y-116471511D01*
X83717573Y-116471513D01*
X83493116Y-116807436D01*
X83207436Y-117093116D01*
X82871513Y-117317573D01*
X82871512Y-117317574D01*
X82871511Y-117317574D01*
X82498254Y-117472182D01*
X82102007Y-117551000D01*
X81697993Y-117551000D01*
X81301746Y-117472182D01*
X80928489Y-117317574D01*
X80928488Y-117317574D01*
X80928487Y-117317573D01*
X80592564Y-117093116D01*
X80306884Y-116807436D01*
X80082427Y-116471513D01*
X80082426Y-116471511D01*
X79927818Y-116098254D01*
X79849000Y-115702007D01*
X79849000Y-115297993D01*
X79927818Y-114901746D01*
X80082426Y-114528489D01*
X80306884Y-114192564D01*
X80592564Y-113906884D01*
X80928487Y-113682427D01*
X80928489Y-113682426D01*
X81301746Y-113527818D01*
X81697993Y-113449000D01*
X82102007Y-113449000D01*
X82498254Y-113527818D01*
X82498254Y-113527818D01*
G37*
G36*
X57498254Y-113527818D02*
G01*
X57871511Y-113682426D01*
X57871513Y-113682427D01*
X58207436Y-113906884D01*
X58493116Y-114192564D01*
X58717574Y-114528489D01*
X58872182Y-114901746D01*
X58951000Y-115297993D01*
X58951000Y-115702007D01*
X58872182Y-116098254D01*
X58717574Y-116471511D01*
X58717573Y-116471513D01*
X58493116Y-116807436D01*
X58207436Y-117093116D01*
X57871513Y-117317573D01*
X57871512Y-117317574D01*
X57871511Y-117317574D01*
X57498254Y-117472182D01*
X57102007Y-117551000D01*
X56697993Y-117551000D01*
X56301746Y-117472182D01*
X55928489Y-117317574D01*
X55928488Y-117317574D01*
X55928487Y-117317573D01*
X55592564Y-117093116D01*
X55306884Y-116807436D01*
X55082427Y-116471513D01*
X55082426Y-116471511D01*
X54927818Y-116098254D01*
X54849000Y-115702007D01*
X54849000Y-115297993D01*
X54927818Y-114901746D01*
X55082426Y-114528489D01*
X55306884Y-114192564D01*
X55592564Y-113906884D01*
X55928487Y-113682427D01*
X55928489Y-113682426D01*
X56301746Y-113527818D01*
X56697993Y-113449000D01*
X57102007Y-113449000D01*
X57498254Y-113527818D01*
X57498254Y-113527818D01*
G37*
G36*
X48698254Y-113527818D02*
G01*
X49071511Y-113682426D01*
X49071513Y-113682427D01*
X49407436Y-113906884D01*
X49693116Y-114192564D01*
X49917574Y-114528489D01*
X50072182Y-114901746D01*
X50151000Y-115297993D01*
X50151000Y-115702007D01*
X50072182Y-116098254D01*
X49917574Y-116471511D01*
X49917573Y-116471513D01*
X49693116Y-116807436D01*
X49407436Y-117093116D01*
X49071513Y-117317573D01*
X49071512Y-117317574D01*
X49071511Y-117317574D01*
X48698254Y-117472182D01*
X48302007Y-117551000D01*
X47897993Y-117551000D01*
X47501746Y-117472182D01*
X47128489Y-117317574D01*
X47128488Y-117317574D01*
X47128487Y-117317573D01*
X46792564Y-117093116D01*
X46506884Y-116807436D01*
X46282427Y-116471513D01*
X46282426Y-116471511D01*
X46127818Y-116098254D01*
X46049000Y-115702007D01*
X46049000Y-115297993D01*
X46127818Y-114901746D01*
X46282426Y-114528489D01*
X46506884Y-114192564D01*
X46792564Y-113906884D01*
X47128487Y-113682427D01*
X47128489Y-113682426D01*
X47501746Y-113527818D01*
X47897993Y-113449000D01*
X48302007Y-113449000D01*
X48698254Y-113527818D01*
X48698254Y-113527818D01*
G37*
G36*
X68908014Y-115306973D02*
G01*
X69011878Y-115338479D01*
X69055907Y-115362013D01*
X69107599Y-115389643D01*
X69107601Y-115389644D01*
X69107600Y-115389644D01*
X69191501Y-115458499D01*
X69260356Y-115542400D01*
X69311521Y-115638121D01*
X69343027Y-115741985D01*
X69351000Y-115822933D01*
X69351000Y-116977067D01*
X69343027Y-117058015D01*
X69311521Y-117161879D01*
X69311519Y-117161882D01*
X69260357Y-117257600D01*
X69191501Y-117341501D01*
X69107600Y-117410357D01*
X69039055Y-117446995D01*
X69011879Y-117461521D01*
X68908015Y-117493027D01*
X68800000Y-117503666D01*
X68691986Y-117493027D01*
X68588122Y-117461521D01*
X68560946Y-117446995D01*
X68492401Y-117410357D01*
X68408500Y-117341501D01*
X68339644Y-117257600D01*
X68288482Y-117161882D01*
X68288480Y-117161879D01*
X68256974Y-117058015D01*
X68249001Y-116977067D01*
X68249000Y-115822934D01*
X68256973Y-115741986D01*
X68288479Y-115638122D01*
X68339644Y-115542400D01*
X68408499Y-115458499D01*
X68492400Y-115389644D01*
X68492399Y-115389644D01*
X68492401Y-115389643D01*
X68544093Y-115362013D01*
X68588121Y-115338479D01*
X68691985Y-115306973D01*
X68800000Y-115296334D01*
X68908014Y-115306973D01*
X68908014Y-115306973D01*
G37*
G36*
X64658015Y-110056973D02*
G01*
X64761879Y-110088479D01*
X64789055Y-110103005D01*
X64857600Y-110139643D01*
X64941501Y-110208499D01*
X65010357Y-110292400D01*
X65046995Y-110360945D01*
X65061521Y-110388121D01*
X65093027Y-110491985D01*
X65103666Y-110600000D01*
X65093027Y-110708015D01*
X65061521Y-110811879D01*
X65061519Y-110811882D01*
X65010357Y-110907600D01*
X64941501Y-110991501D01*
X64857600Y-111060357D01*
X64789055Y-111096995D01*
X64761879Y-111111521D01*
X64658015Y-111143027D01*
X64577067Y-111151000D01*
X63422933Y-111151000D01*
X63341985Y-111143027D01*
X63238121Y-111111521D01*
X63210945Y-111096995D01*
X63142400Y-111060357D01*
X63058499Y-110991501D01*
X62989643Y-110907600D01*
X62938481Y-110811882D01*
X62938479Y-110811879D01*
X62906973Y-110708015D01*
X62896334Y-110600000D01*
X62906973Y-110491985D01*
X62938479Y-110388121D01*
X62953005Y-110360945D01*
X62989643Y-110292400D01*
X63058499Y-110208499D01*
X63142400Y-110139643D01*
X63210945Y-110103005D01*
X63238121Y-110088479D01*
X63341985Y-110056973D01*
X63422933Y-110049000D01*
X64577067Y-110049000D01*
X64658015Y-110056973D01*
X64658015Y-110056973D01*
G37*
G36*
X52777395Y-106585546D02*
G01*
X52950466Y-106657234D01*
X52950467Y-106657235D01*
X53106227Y-106761310D01*
X53238690Y-106893773D01*
X53238691Y-106893775D01*
X53342766Y-107049534D01*
X53414454Y-107222605D01*
X53451000Y-107406333D01*
X53451000Y-107593667D01*
X53414454Y-107777395D01*
X53342766Y-107950466D01*
X53342765Y-107950467D01*
X53238690Y-108106227D01*
X53106227Y-108238690D01*
X53027818Y-108291081D01*
X52950466Y-108342766D01*
X52777395Y-108414454D01*
X52593667Y-108451000D01*
X52406333Y-108451000D01*
X52222605Y-108414454D01*
X52049534Y-108342766D01*
X51972182Y-108291081D01*
X51893773Y-108238690D01*
X51761310Y-108106227D01*
X51657235Y-107950467D01*
X51657234Y-107950466D01*
X51585546Y-107777395D01*
X51549000Y-107593667D01*
X51549000Y-107406333D01*
X51585546Y-107222605D01*
X51657234Y-107049534D01*
X51761309Y-106893775D01*
X51761310Y-106893773D01*
X51893773Y-106761310D01*
X52049533Y-106657235D01*
X52049534Y-106657234D01*
X52222605Y-106585546D01*
X52406333Y-106549000D01*
X52593667Y-106549000D01*
X52777395Y-106585546D01*
X52777395Y-106585546D01*
G37*
G36*
X55277395Y-106585546D02*
G01*
X55450466Y-106657234D01*
X55450467Y-106657235D01*
X55606227Y-106761310D01*
X55738690Y-106893773D01*
X55738691Y-106893775D01*
X55842766Y-107049534D01*
X55914454Y-107222605D01*
X55951000Y-107406333D01*
X55951000Y-107593667D01*
X55914454Y-107777395D01*
X55842766Y-107950466D01*
X55842765Y-107950467D01*
X55738690Y-108106227D01*
X55606227Y-108238690D01*
X55527818Y-108291081D01*
X55450466Y-108342766D01*
X55277395Y-108414454D01*
X55093667Y-108451000D01*
X54906333Y-108451000D01*
X54722605Y-108414454D01*
X54549534Y-108342766D01*
X54472182Y-108291081D01*
X54393773Y-108238690D01*
X54261310Y-108106227D01*
X54157235Y-107950467D01*
X54157234Y-107950466D01*
X54085546Y-107777395D01*
X54049000Y-107593667D01*
X54049000Y-107406333D01*
X54085546Y-107222605D01*
X54157234Y-107049534D01*
X54261309Y-106893775D01*
X54261310Y-106893773D01*
X54393773Y-106761310D01*
X54549533Y-106657235D01*
X54549534Y-106657234D01*
X54722605Y-106585546D01*
X54906333Y-106549000D01*
X55093667Y-106549000D01*
X55277395Y-106585546D01*
X55277395Y-106585546D01*
G37*
G36*
X57777395Y-106585546D02*
G01*
X57950466Y-106657234D01*
X57950467Y-106657235D01*
X58106227Y-106761310D01*
X58238690Y-106893773D01*
X58238691Y-106893775D01*
X58342766Y-107049534D01*
X58414454Y-107222605D01*
X58451000Y-107406333D01*
X58451000Y-107593667D01*
X58414454Y-107777395D01*
X58342766Y-107950466D01*
X58342765Y-107950467D01*
X58238690Y-108106227D01*
X58106227Y-108238690D01*
X58027818Y-108291081D01*
X57950466Y-108342766D01*
X57777395Y-108414454D01*
X57593667Y-108451000D01*
X57406333Y-108451000D01*
X57222605Y-108414454D01*
X57049534Y-108342766D01*
X56972182Y-108291081D01*
X56893773Y-108238690D01*
X56761310Y-108106227D01*
X56657235Y-107950467D01*
X56657234Y-107950466D01*
X56585546Y-107777395D01*
X56549000Y-107593667D01*
X56549000Y-107406333D01*
X56585546Y-107222605D01*
X56657234Y-107049534D01*
X56761309Y-106893775D01*
X56761310Y-106893773D01*
X56893773Y-106761310D01*
X57049533Y-106657235D01*
X57049534Y-106657234D01*
X57222605Y-106585546D01*
X57406333Y-106549000D01*
X57593667Y-106549000D01*
X57777395Y-106585546D01*
X57777395Y-106585546D01*
G37*
G36*
X74658015Y-103156973D02*
G01*
X74761879Y-103188479D01*
X74789055Y-103203005D01*
X74857600Y-103239643D01*
X74941501Y-103308499D01*
X75010357Y-103392400D01*
X75046995Y-103460945D01*
X75061521Y-103488121D01*
X75093027Y-103591985D01*
X75103666Y-103700000D01*
X75093027Y-103808015D01*
X75061521Y-103911879D01*
X75061519Y-103911882D01*
X75010357Y-104007600D01*
X74941501Y-104091501D01*
X74857600Y-104160357D01*
X74789055Y-104196995D01*
X74761879Y-104211521D01*
X74658015Y-104243027D01*
X74577067Y-104251000D01*
X73422933Y-104251000D01*
X73341985Y-104243027D01*
X73238121Y-104211521D01*
X73210945Y-104196995D01*
X73142400Y-104160357D01*
X73058499Y-104091501D01*
X72989643Y-104007600D01*
X72938481Y-103911882D01*
X72938479Y-103911879D01*
X72906973Y-103808015D01*
X72896334Y-103700000D01*
X72906973Y-103591985D01*
X72938479Y-103488121D01*
X72953005Y-103460945D01*
X72989643Y-103392400D01*
X73058499Y-103308499D01*
X73142400Y-103239643D01*
X73210945Y-103203005D01*
X73238121Y-103188479D01*
X73341985Y-103156973D01*
X73422933Y-103149000D01*
X74577067Y-103149000D01*
X74658015Y-103156973D01*
X74658015Y-103156973D01*
G37*
G36*
X59998254Y-98527818D02*
G01*
X60371511Y-98682426D01*
X60371513Y-98682427D01*
X60707436Y-98906884D01*
X60993116Y-99192564D01*
X61217574Y-99528489D01*
X61372182Y-99901746D01*
X61451000Y-100297993D01*
X61451000Y-100702007D01*
X61372182Y-101098254D01*
X61217574Y-101471511D01*
X61217573Y-101471513D01*
X60993116Y-101807436D01*
X60707436Y-102093116D01*
X60371513Y-102317573D01*
X60371512Y-102317574D01*
X60371511Y-102317574D01*
X59998254Y-102472182D01*
X59602007Y-102551000D01*
X59197993Y-102551000D01*
X58801746Y-102472182D01*
X58428489Y-102317574D01*
X58428488Y-102317574D01*
X58428487Y-102317573D01*
X58092564Y-102093116D01*
X57806884Y-101807436D01*
X57582427Y-101471513D01*
X57582426Y-101471511D01*
X57427818Y-101098254D01*
X57349000Y-100702007D01*
X57349000Y-100297993D01*
X57427818Y-99901746D01*
X57582426Y-99528489D01*
X57806884Y-99192564D01*
X58092564Y-98906884D01*
X58428487Y-98682427D01*
X58428489Y-98682426D01*
X58801746Y-98527818D01*
X59197993Y-98449000D01*
X59602007Y-98449000D01*
X59998254Y-98527818D01*
X59998254Y-98527818D01*
G37*
G36*
X51198254Y-98527818D02*
G01*
X51571511Y-98682426D01*
X51571513Y-98682427D01*
X51907436Y-98906884D01*
X52193116Y-99192564D01*
X52417574Y-99528489D01*
X52572182Y-99901746D01*
X52651000Y-100297993D01*
X52651000Y-100702007D01*
X52572182Y-101098254D01*
X52417574Y-101471511D01*
X52417573Y-101471513D01*
X52193116Y-101807436D01*
X51907436Y-102093116D01*
X51571513Y-102317573D01*
X51571512Y-102317574D01*
X51571511Y-102317574D01*
X51198254Y-102472182D01*
X50802007Y-102551000D01*
X50397993Y-102551000D01*
X50001746Y-102472182D01*
X49628489Y-102317574D01*
X49628488Y-102317574D01*
X49628487Y-102317573D01*
X49292564Y-102093116D01*
X49006884Y-101807436D01*
X48782427Y-101471513D01*
X48782426Y-101471511D01*
X48627818Y-101098254D01*
X48549000Y-100702007D01*
X48549000Y-100297993D01*
X48627818Y-99901746D01*
X48782426Y-99528489D01*
X49006884Y-99192564D01*
X49292564Y-98906884D01*
X49628487Y-98682427D01*
X49628489Y-98682426D01*
X50001746Y-98527818D01*
X50397993Y-98449000D01*
X50802007Y-98449000D01*
X51198254Y-98527818D01*
X51198254Y-98527818D01*
G37*
G36*
X78908014Y-100306973D02*
G01*
X79011878Y-100338479D01*
X79055907Y-100362013D01*
X79107599Y-100389643D01*
X79107601Y-100389644D01*
X79107600Y-100389644D01*
X79191501Y-100458499D01*
X79260356Y-100542400D01*
X79311521Y-100638121D01*
X79343027Y-100741985D01*
X79351000Y-100822933D01*
X79351000Y-101977067D01*
X79343027Y-102058015D01*
X79311521Y-102161879D01*
X79311519Y-102161882D01*
X79260357Y-102257600D01*
X79191501Y-102341501D01*
X79107600Y-102410357D01*
X79039055Y-102446995D01*
X79011879Y-102461521D01*
X78908015Y-102493027D01*
X78800000Y-102503666D01*
X78691986Y-102493027D01*
X78588122Y-102461521D01*
X78560946Y-102446995D01*
X78492401Y-102410357D01*
X78408500Y-102341501D01*
X78339644Y-102257600D01*
X78288482Y-102161882D01*
X78288480Y-102161879D01*
X78256974Y-102058015D01*
X78249001Y-101977067D01*
X78249000Y-100822934D01*
X78256973Y-100741986D01*
X78288479Y-100638122D01*
X78339644Y-100542400D01*
X78408499Y-100458499D01*
X78492400Y-100389644D01*
X78492399Y-100389644D01*
X78492401Y-100389643D01*
X78544093Y-100362013D01*
X78588121Y-100338479D01*
X78691985Y-100306973D01*
X78800000Y-100296334D01*
X78908014Y-100306973D01*
X78908014Y-100306973D01*
G37*
G36*
X47137142Y-94918242D02*
G01*
X47285101Y-94979529D01*
X47418255Y-95068499D01*
X47531501Y-95181745D01*
X47620471Y-95314899D01*
X47681758Y-95462858D01*
X47713000Y-95619925D01*
X47713000Y-95780075D01*
X47681758Y-95937142D01*
X47620471Y-96085101D01*
X47531501Y-96218255D01*
X47418255Y-96331501D01*
X47285101Y-96420471D01*
X47137142Y-96481758D01*
X46980075Y-96513000D01*
X46819925Y-96513000D01*
X46662858Y-96481758D01*
X46514899Y-96420471D01*
X46381745Y-96331501D01*
X46268499Y-96218255D01*
X46179529Y-96085101D01*
X46118242Y-95937142D01*
X46087000Y-95780075D01*
X46087000Y-95619925D01*
X46118242Y-95462858D01*
X46179529Y-95314899D01*
X46268499Y-95181745D01*
X46381745Y-95068499D01*
X46514899Y-94979529D01*
X46662858Y-94918242D01*
X46819925Y-94887000D01*
X46980075Y-94887000D01*
X47137142Y-94918242D01*
X47137142Y-94918242D01*
G37*
G36*
X74658015Y-95056973D02*
G01*
X74761879Y-95088479D01*
X74789055Y-95103005D01*
X74857600Y-95139643D01*
X74941501Y-95208499D01*
X75010357Y-95292400D01*
X75022383Y-95314900D01*
X75061521Y-95388121D01*
X75093027Y-95491985D01*
X75103666Y-95600000D01*
X75093027Y-95708015D01*
X75061521Y-95811879D01*
X75061519Y-95811882D01*
X75010357Y-95907600D01*
X74941501Y-95991501D01*
X74857600Y-96060357D01*
X74789055Y-96096995D01*
X74761879Y-96111521D01*
X74658015Y-96143027D01*
X74577067Y-96151000D01*
X73422933Y-96151000D01*
X73341985Y-96143027D01*
X73238121Y-96111521D01*
X73210945Y-96096995D01*
X73142400Y-96060357D01*
X73058499Y-95991501D01*
X72989643Y-95907600D01*
X72938481Y-95811882D01*
X72938479Y-95811879D01*
X72906973Y-95708015D01*
X72896334Y-95600000D01*
X72906973Y-95491985D01*
X72938479Y-95388121D01*
X72977617Y-95314900D01*
X72989643Y-95292400D01*
X73058499Y-95208499D01*
X73142400Y-95139643D01*
X73210945Y-95103005D01*
X73238121Y-95088479D01*
X73341985Y-95056973D01*
X73422933Y-95049000D01*
X74577067Y-95049000D01*
X74658015Y-95056973D01*
X74658015Y-95056973D01*
G37*
G36*
X55277395Y-91585546D02*
G01*
X55450466Y-91657234D01*
X55450467Y-91657235D01*
X55606227Y-91761310D01*
X55738690Y-91893773D01*
X55738691Y-91893775D01*
X55842766Y-92049534D01*
X55914454Y-92222605D01*
X55951000Y-92406333D01*
X55951000Y-92593667D01*
X55914454Y-92777395D01*
X55842766Y-92950466D01*
X55842765Y-92950467D01*
X55738690Y-93106227D01*
X55606227Y-93238690D01*
X55527818Y-93291081D01*
X55450466Y-93342766D01*
X55277395Y-93414454D01*
X55093667Y-93451000D01*
X54906333Y-93451000D01*
X54722605Y-93414454D01*
X54549534Y-93342766D01*
X54472182Y-93291081D01*
X54393773Y-93238690D01*
X54261310Y-93106227D01*
X54157235Y-92950467D01*
X54157234Y-92950466D01*
X54085546Y-92777395D01*
X54049000Y-92593667D01*
X54049000Y-92406333D01*
X54085546Y-92222605D01*
X54157234Y-92049534D01*
X54261309Y-91893775D01*
X54261310Y-91893773D01*
X54393773Y-91761310D01*
X54549533Y-91657235D01*
X54549534Y-91657234D01*
X54722605Y-91585546D01*
X54906333Y-91549000D01*
X55093667Y-91549000D01*
X55277395Y-91585546D01*
X55277395Y-91585546D01*
G37*
G36*
X52777395Y-91585546D02*
G01*
X52950466Y-91657234D01*
X52950467Y-91657235D01*
X53106227Y-91761310D01*
X53238690Y-91893773D01*
X53238691Y-91893775D01*
X53342766Y-92049534D01*
X53414454Y-92222605D01*
X53451000Y-92406333D01*
X53451000Y-92593667D01*
X53414454Y-92777395D01*
X53342766Y-92950466D01*
X53342765Y-92950467D01*
X53238690Y-93106227D01*
X53106227Y-93238690D01*
X53027818Y-93291081D01*
X52950466Y-93342766D01*
X52777395Y-93414454D01*
X52593667Y-93451000D01*
X52406333Y-93451000D01*
X52222605Y-93414454D01*
X52049534Y-93342766D01*
X51972182Y-93291081D01*
X51893773Y-93238690D01*
X51761310Y-93106227D01*
X51657235Y-92950467D01*
X51657234Y-92950466D01*
X51585546Y-92777395D01*
X51549000Y-92593667D01*
X51549000Y-92406333D01*
X51585546Y-92222605D01*
X51657234Y-92049534D01*
X51761309Y-91893775D01*
X51761310Y-91893773D01*
X51893773Y-91761310D01*
X52049533Y-91657235D01*
X52049534Y-91657234D01*
X52222605Y-91585546D01*
X52406333Y-91549000D01*
X52593667Y-91549000D01*
X52777395Y-91585546D01*
X52777395Y-91585546D01*
G37*
G36*
X57777395Y-91585546D02*
G01*
X57950466Y-91657234D01*
X57950467Y-91657235D01*
X58106227Y-91761310D01*
X58238690Y-91893773D01*
X58238691Y-91893775D01*
X58342766Y-92049534D01*
X58414454Y-92222605D01*
X58451000Y-92406333D01*
X58451000Y-92593667D01*
X58414454Y-92777395D01*
X58342766Y-92950466D01*
X58342765Y-92950467D01*
X58238690Y-93106227D01*
X58106227Y-93238690D01*
X58027818Y-93291081D01*
X57950466Y-93342766D01*
X57777395Y-93414454D01*
X57593667Y-93451000D01*
X57406333Y-93451000D01*
X57222605Y-93414454D01*
X57049534Y-93342766D01*
X56972182Y-93291081D01*
X56893773Y-93238690D01*
X56761310Y-93106227D01*
X56657235Y-92950467D01*
X56657234Y-92950466D01*
X56585546Y-92777395D01*
X56549000Y-92593667D01*
X56549000Y-92406333D01*
X56585546Y-92222605D01*
X56657234Y-92049534D01*
X56761309Y-91893775D01*
X56761310Y-91893773D01*
X56893773Y-91761310D01*
X57049533Y-91657235D01*
X57049534Y-91657234D01*
X57222605Y-91585546D01*
X57406333Y-91549000D01*
X57593667Y-91549000D01*
X57777395Y-91585546D01*
X57777395Y-91585546D01*
G37*
G36*
X44637142Y-89918242D02*
G01*
X44785101Y-89979529D01*
X44918255Y-90068499D01*
X45031501Y-90181745D01*
X45120471Y-90314899D01*
X45181758Y-90462858D01*
X45213000Y-90619925D01*
X45213000Y-90780075D01*
X45181758Y-90937142D01*
X45120471Y-91085101D01*
X45031501Y-91218255D01*
X44918255Y-91331501D01*
X44785101Y-91420471D01*
X44637142Y-91481758D01*
X44480075Y-91513000D01*
X44319925Y-91513000D01*
X44162858Y-91481758D01*
X44014899Y-91420471D01*
X43881745Y-91331501D01*
X43768499Y-91218255D01*
X43679529Y-91085101D01*
X43618242Y-90937142D01*
X43587000Y-90780075D01*
X43587000Y-90619925D01*
X43618242Y-90462858D01*
X43679529Y-90314899D01*
X43768499Y-90181745D01*
X43881745Y-90068499D01*
X44014899Y-89979529D01*
X44162858Y-89918242D01*
X44319925Y-89887000D01*
X44480075Y-89887000D01*
X44637142Y-89918242D01*
X44637142Y-89918242D01*
G37*
G36*
X49637142Y-89918242D02*
G01*
X49785101Y-89979529D01*
X49918255Y-90068499D01*
X50031501Y-90181745D01*
X50120471Y-90314899D01*
X50181758Y-90462858D01*
X50213000Y-90619925D01*
X50213000Y-90780075D01*
X50181758Y-90937142D01*
X50120471Y-91085101D01*
X50031501Y-91218255D01*
X49918255Y-91331501D01*
X49785101Y-91420471D01*
X49637142Y-91481758D01*
X49480075Y-91513000D01*
X49319925Y-91513000D01*
X49162858Y-91481758D01*
X49014899Y-91420471D01*
X48881745Y-91331501D01*
X48768499Y-91218255D01*
X48679529Y-91085101D01*
X48618242Y-90937142D01*
X48587000Y-90780075D01*
X48587000Y-90619925D01*
X48618242Y-90462858D01*
X48679529Y-90314899D01*
X48768499Y-90181745D01*
X48881745Y-90068499D01*
X49014899Y-89979529D01*
X49162858Y-89918242D01*
X49319925Y-89887000D01*
X49480075Y-89887000D01*
X49637142Y-89918242D01*
X49637142Y-89918242D01*
G37*
G36*
X74658015Y-88156973D02*
G01*
X74761879Y-88188479D01*
X74789055Y-88203005D01*
X74857600Y-88239643D01*
X74941501Y-88308499D01*
X75010357Y-88392400D01*
X75046995Y-88460945D01*
X75061521Y-88488121D01*
X75093027Y-88591985D01*
X75103666Y-88700000D01*
X75093027Y-88808015D01*
X75061521Y-88911879D01*
X75061519Y-88911882D01*
X75010357Y-89007600D01*
X74941501Y-89091501D01*
X74857600Y-89160357D01*
X74789055Y-89196995D01*
X74761879Y-89211521D01*
X74658015Y-89243027D01*
X74577067Y-89251000D01*
X73422933Y-89251000D01*
X73341985Y-89243027D01*
X73238121Y-89211521D01*
X73210945Y-89196995D01*
X73142400Y-89160357D01*
X73058499Y-89091501D01*
X72989643Y-89007600D01*
X72938481Y-88911882D01*
X72938479Y-88911879D01*
X72906973Y-88808015D01*
X72896334Y-88700000D01*
X72906973Y-88591985D01*
X72938479Y-88488121D01*
X72953005Y-88460945D01*
X72989643Y-88392400D01*
X73058499Y-88308499D01*
X73142400Y-88239643D01*
X73210945Y-88203005D01*
X73238121Y-88188479D01*
X73341985Y-88156973D01*
X73422933Y-88149000D01*
X74577067Y-88149000D01*
X74658015Y-88156973D01*
X74658015Y-88156973D01*
G37*
G36*
X59998254Y-83527818D02*
G01*
X60371511Y-83682426D01*
X60371513Y-83682427D01*
X60707436Y-83906884D01*
X60993116Y-84192564D01*
X61217574Y-84528489D01*
X61372182Y-84901746D01*
X61451000Y-85297993D01*
X61451000Y-85702007D01*
X61372182Y-86098254D01*
X61217574Y-86471511D01*
X61217573Y-86471513D01*
X60993116Y-86807436D01*
X60707436Y-87093116D01*
X60371513Y-87317573D01*
X60371512Y-87317574D01*
X60371511Y-87317574D01*
X59998254Y-87472182D01*
X59602007Y-87551000D01*
X59197993Y-87551000D01*
X58801746Y-87472182D01*
X58428489Y-87317574D01*
X58428488Y-87317574D01*
X58428487Y-87317573D01*
X58092564Y-87093116D01*
X57806884Y-86807436D01*
X57582427Y-86471513D01*
X57582426Y-86471511D01*
X57427818Y-86098254D01*
X57349000Y-85702007D01*
X57349000Y-85297993D01*
X57427818Y-84901746D01*
X57582426Y-84528489D01*
X57806884Y-84192564D01*
X58092564Y-83906884D01*
X58428487Y-83682427D01*
X58428489Y-83682426D01*
X58801746Y-83527818D01*
X59197993Y-83449000D01*
X59602007Y-83449000D01*
X59998254Y-83527818D01*
X59998254Y-83527818D01*
G37*
G36*
X51198254Y-83527818D02*
G01*
X51571511Y-83682426D01*
X51571513Y-83682427D01*
X51907436Y-83906884D01*
X52193116Y-84192564D01*
X52417574Y-84528489D01*
X52572182Y-84901746D01*
X52651000Y-85297993D01*
X52651000Y-85702007D01*
X52572182Y-86098254D01*
X52417574Y-86471511D01*
X52417573Y-86471513D01*
X52193116Y-86807436D01*
X51907436Y-87093116D01*
X51571513Y-87317573D01*
X51571512Y-87317574D01*
X51571511Y-87317574D01*
X51198254Y-87472182D01*
X50802007Y-87551000D01*
X50397993Y-87551000D01*
X50001746Y-87472182D01*
X49628489Y-87317574D01*
X49628488Y-87317574D01*
X49628487Y-87317573D01*
X49292564Y-87093116D01*
X49006884Y-86807436D01*
X48782427Y-86471513D01*
X48782426Y-86471511D01*
X48627818Y-86098254D01*
X48549000Y-85702007D01*
X48549000Y-85297993D01*
X48627818Y-84901746D01*
X48782426Y-84528489D01*
X49006884Y-84192564D01*
X49292564Y-83906884D01*
X49628487Y-83682427D01*
X49628489Y-83682426D01*
X50001746Y-83527818D01*
X50397993Y-83449000D01*
X50802007Y-83449000D01*
X51198254Y-83527818D01*
X51198254Y-83527818D01*
G37*
G36*
X78908014Y-85306973D02*
G01*
X79011878Y-85338479D01*
X79055907Y-85362013D01*
X79107599Y-85389643D01*
X79107601Y-85389644D01*
X79107600Y-85389644D01*
X79191501Y-85458499D01*
X79260356Y-85542400D01*
X79311521Y-85638121D01*
X79343027Y-85741985D01*
X79351000Y-85822933D01*
X79351000Y-86977067D01*
X79343027Y-87058015D01*
X79311521Y-87161879D01*
X79311519Y-87161882D01*
X79260357Y-87257600D01*
X79191501Y-87341501D01*
X79107600Y-87410357D01*
X79039055Y-87446995D01*
X79011879Y-87461521D01*
X78908015Y-87493027D01*
X78800000Y-87503666D01*
X78691986Y-87493027D01*
X78588122Y-87461521D01*
X78560946Y-87446995D01*
X78492401Y-87410357D01*
X78408500Y-87341501D01*
X78339644Y-87257600D01*
X78288482Y-87161882D01*
X78288480Y-87161879D01*
X78256974Y-87058015D01*
X78249001Y-86977067D01*
X78249000Y-85822934D01*
X78256973Y-85741986D01*
X78288479Y-85638122D01*
X78339644Y-85542400D01*
X78408499Y-85458499D01*
X78492400Y-85389644D01*
X78492399Y-85389644D01*
X78492401Y-85389643D01*
X78544093Y-85362013D01*
X78588121Y-85338479D01*
X78691985Y-85306973D01*
X78800000Y-85296334D01*
X78908014Y-85306973D01*
X78908014Y-85306973D01*
G37*
G36*
X47237142Y-80218242D02*
G01*
X47385101Y-80279529D01*
X47518255Y-80368499D01*
X47631501Y-80481745D01*
X47720471Y-80614899D01*
X47781758Y-80762858D01*
X47813000Y-80919925D01*
X47813000Y-81080075D01*
X47781758Y-81237142D01*
X47720471Y-81385101D01*
X47631501Y-81518255D01*
X47518255Y-81631501D01*
X47385101Y-81720471D01*
X47237142Y-81781758D01*
X47080075Y-81813000D01*
X46919925Y-81813000D01*
X46762858Y-81781758D01*
X46614899Y-81720471D01*
X46481745Y-81631501D01*
X46368499Y-81518255D01*
X46279529Y-81385101D01*
X46218242Y-81237142D01*
X46187000Y-81080075D01*
X46187000Y-80919925D01*
X46218242Y-80762858D01*
X46279529Y-80614899D01*
X46368499Y-80481745D01*
X46481745Y-80368499D01*
X46614899Y-80279529D01*
X46762858Y-80218242D01*
X46919925Y-80187000D01*
X47080075Y-80187000D01*
X47237142Y-80218242D01*
X47237142Y-80218242D01*
G37*
G36*
X74658015Y-80056973D02*
G01*
X74761879Y-80088479D01*
X74789055Y-80103005D01*
X74857600Y-80139643D01*
X74941501Y-80208499D01*
X75010357Y-80292400D01*
X75046995Y-80360945D01*
X75061521Y-80388121D01*
X75093027Y-80491985D01*
X75103666Y-80600000D01*
X75093027Y-80708015D01*
X75061521Y-80811879D01*
X75061519Y-80811882D01*
X75010357Y-80907600D01*
X74941501Y-80991501D01*
X74857600Y-81060357D01*
X74789055Y-81096995D01*
X74761879Y-81111521D01*
X74658015Y-81143027D01*
X74577067Y-81151000D01*
X73422933Y-81151000D01*
X73341985Y-81143027D01*
X73238121Y-81111521D01*
X73210945Y-81096995D01*
X73142400Y-81060357D01*
X73058499Y-80991501D01*
X72989643Y-80907600D01*
X72938481Y-80811882D01*
X72938479Y-80811879D01*
X72906973Y-80708015D01*
X72896334Y-80600000D01*
X72906973Y-80491985D01*
X72938479Y-80388121D01*
X72953005Y-80360945D01*
X72989643Y-80292400D01*
X73058499Y-80208499D01*
X73142400Y-80139643D01*
X73210945Y-80103005D01*
X73238121Y-80088479D01*
X73341985Y-80056973D01*
X73422933Y-80049000D01*
X74577067Y-80049000D01*
X74658015Y-80056973D01*
X74658015Y-80056973D01*
G37*
G36*
X52777395Y-76585546D02*
G01*
X52950466Y-76657234D01*
X52950467Y-76657235D01*
X53106227Y-76761310D01*
X53238690Y-76893773D01*
X53238691Y-76893775D01*
X53342766Y-77049534D01*
X53414454Y-77222605D01*
X53451000Y-77406333D01*
X53451000Y-77593667D01*
X53414454Y-77777395D01*
X53342766Y-77950466D01*
X53342765Y-77950467D01*
X53238690Y-78106227D01*
X53106227Y-78238690D01*
X53027818Y-78291081D01*
X52950466Y-78342766D01*
X52777395Y-78414454D01*
X52593667Y-78451000D01*
X52406333Y-78451000D01*
X52222605Y-78414454D01*
X52049534Y-78342766D01*
X51972182Y-78291081D01*
X51893773Y-78238690D01*
X51761310Y-78106227D01*
X51657235Y-77950467D01*
X51657234Y-77950466D01*
X51585546Y-77777395D01*
X51549000Y-77593667D01*
X51549000Y-77406333D01*
X51585546Y-77222605D01*
X51657234Y-77049534D01*
X51761309Y-76893775D01*
X51761310Y-76893773D01*
X51893773Y-76761310D01*
X52049533Y-76657235D01*
X52049534Y-76657234D01*
X52222605Y-76585546D01*
X52406333Y-76549000D01*
X52593667Y-76549000D01*
X52777395Y-76585546D01*
X52777395Y-76585546D01*
G37*
G36*
X55277395Y-76585546D02*
G01*
X55450466Y-76657234D01*
X55450467Y-76657235D01*
X55606227Y-76761310D01*
X55738690Y-76893773D01*
X55738691Y-76893775D01*
X55842766Y-77049534D01*
X55914454Y-77222605D01*
X55951000Y-77406333D01*
X55951000Y-77593667D01*
X55914454Y-77777395D01*
X55842766Y-77950466D01*
X55842765Y-77950467D01*
X55738690Y-78106227D01*
X55606227Y-78238690D01*
X55527818Y-78291081D01*
X55450466Y-78342766D01*
X55277395Y-78414454D01*
X55093667Y-78451000D01*
X54906333Y-78451000D01*
X54722605Y-78414454D01*
X54549534Y-78342766D01*
X54472182Y-78291081D01*
X54393773Y-78238690D01*
X54261310Y-78106227D01*
X54157235Y-77950467D01*
X54157234Y-77950466D01*
X54085546Y-77777395D01*
X54049000Y-77593667D01*
X54049000Y-77406333D01*
X54085546Y-77222605D01*
X54157234Y-77049534D01*
X54261309Y-76893775D01*
X54261310Y-76893773D01*
X54393773Y-76761310D01*
X54549533Y-76657235D01*
X54549534Y-76657234D01*
X54722605Y-76585546D01*
X54906333Y-76549000D01*
X55093667Y-76549000D01*
X55277395Y-76585546D01*
X55277395Y-76585546D01*
G37*
G36*
X57777395Y-76585546D02*
G01*
X57950466Y-76657234D01*
X57950467Y-76657235D01*
X58106227Y-76761310D01*
X58238690Y-76893773D01*
X58238691Y-76893775D01*
X58342766Y-77049534D01*
X58414454Y-77222605D01*
X58451000Y-77406333D01*
X58451000Y-77593667D01*
X58414454Y-77777395D01*
X58342766Y-77950466D01*
X58342765Y-77950467D01*
X58238690Y-78106227D01*
X58106227Y-78238690D01*
X58027818Y-78291081D01*
X57950466Y-78342766D01*
X57777395Y-78414454D01*
X57593667Y-78451000D01*
X57406333Y-78451000D01*
X57222605Y-78414454D01*
X57049534Y-78342766D01*
X56972182Y-78291081D01*
X56893773Y-78238690D01*
X56761310Y-78106227D01*
X56657235Y-77950467D01*
X56657234Y-77950466D01*
X56585546Y-77777395D01*
X56549000Y-77593667D01*
X56549000Y-77406333D01*
X56585546Y-77222605D01*
X56657234Y-77049534D01*
X56761309Y-76893775D01*
X56761310Y-76893773D01*
X56893773Y-76761310D01*
X57049533Y-76657235D01*
X57049534Y-76657234D01*
X57222605Y-76585546D01*
X57406333Y-76549000D01*
X57593667Y-76549000D01*
X57777395Y-76585546D01*
X57777395Y-76585546D01*
G37*
G36*
X49737142Y-75218242D02*
G01*
X49885101Y-75279529D01*
X50018255Y-75368499D01*
X50131501Y-75481745D01*
X50220471Y-75614899D01*
X50281758Y-75762858D01*
X50313000Y-75919925D01*
X50313000Y-76080075D01*
X50281758Y-76237142D01*
X50220471Y-76385101D01*
X50131501Y-76518255D01*
X50018255Y-76631501D01*
X49885101Y-76720471D01*
X49737142Y-76781758D01*
X49580075Y-76813000D01*
X49419925Y-76813000D01*
X49262858Y-76781758D01*
X49114899Y-76720471D01*
X48981745Y-76631501D01*
X48868499Y-76518255D01*
X48779529Y-76385101D01*
X48718242Y-76237142D01*
X48687000Y-76080075D01*
X48687000Y-75919925D01*
X48718242Y-75762858D01*
X48779529Y-75614899D01*
X48868499Y-75481745D01*
X48981745Y-75368499D01*
X49114899Y-75279529D01*
X49262858Y-75218242D01*
X49419925Y-75187000D01*
X49580075Y-75187000D01*
X49737142Y-75218242D01*
X49737142Y-75218242D01*
G37*
G36*
X44737142Y-75218242D02*
G01*
X44885101Y-75279529D01*
X45018255Y-75368499D01*
X45131501Y-75481745D01*
X45220471Y-75614899D01*
X45281758Y-75762858D01*
X45313000Y-75919925D01*
X45313000Y-76080075D01*
X45281758Y-76237142D01*
X45220471Y-76385101D01*
X45131501Y-76518255D01*
X45018255Y-76631501D01*
X44885101Y-76720471D01*
X44737142Y-76781758D01*
X44580075Y-76813000D01*
X44419925Y-76813000D01*
X44262858Y-76781758D01*
X44114899Y-76720471D01*
X43981745Y-76631501D01*
X43868499Y-76518255D01*
X43779529Y-76385101D01*
X43718242Y-76237142D01*
X43687000Y-76080075D01*
X43687000Y-75919925D01*
X43718242Y-75762858D01*
X43779529Y-75614899D01*
X43868499Y-75481745D01*
X43981745Y-75368499D01*
X44114899Y-75279529D01*
X44262858Y-75218242D01*
X44419925Y-75187000D01*
X44580075Y-75187000D01*
X44737142Y-75218242D01*
X44737142Y-75218242D01*
G37*
G36*
X74658015Y-73156973D02*
G01*
X74761879Y-73188479D01*
X74789055Y-73203005D01*
X74857600Y-73239643D01*
X74941501Y-73308499D01*
X75010357Y-73392400D01*
X75046995Y-73460945D01*
X75061521Y-73488121D01*
X75093027Y-73591985D01*
X75103666Y-73700000D01*
X75093027Y-73808015D01*
X75061521Y-73911879D01*
X75061519Y-73911882D01*
X75010357Y-74007600D01*
X74941501Y-74091501D01*
X74857600Y-74160357D01*
X74789055Y-74196995D01*
X74761879Y-74211521D01*
X74658015Y-74243027D01*
X74577067Y-74251000D01*
X73422933Y-74251000D01*
X73341985Y-74243027D01*
X73238121Y-74211521D01*
X73210945Y-74196995D01*
X73142400Y-74160357D01*
X73058499Y-74091501D01*
X72989643Y-74007600D01*
X72938481Y-73911882D01*
X72938479Y-73911879D01*
X72906973Y-73808015D01*
X72896334Y-73700000D01*
X72906973Y-73591985D01*
X72938479Y-73488121D01*
X72953005Y-73460945D01*
X72989643Y-73392400D01*
X73058499Y-73308499D01*
X73142400Y-73239643D01*
X73210945Y-73203005D01*
X73238121Y-73188479D01*
X73341985Y-73156973D01*
X73422933Y-73149000D01*
X74577067Y-73149000D01*
X74658015Y-73156973D01*
X74658015Y-73156973D01*
G37*
G36*
X51198254Y-68527818D02*
G01*
X51571511Y-68682426D01*
X51571513Y-68682427D01*
X51907436Y-68906884D01*
X52193116Y-69192564D01*
X52417574Y-69528489D01*
X52572182Y-69901746D01*
X52651000Y-70297993D01*
X52651000Y-70702007D01*
X52572182Y-71098254D01*
X52417574Y-71471511D01*
X52417573Y-71471513D01*
X52193116Y-71807436D01*
X51907436Y-72093116D01*
X51571513Y-72317573D01*
X51571512Y-72317574D01*
X51571511Y-72317574D01*
X51198254Y-72472182D01*
X50802007Y-72551000D01*
X50397993Y-72551000D01*
X50001746Y-72472182D01*
X49628489Y-72317574D01*
X49628488Y-72317574D01*
X49628487Y-72317573D01*
X49292564Y-72093116D01*
X49006884Y-71807436D01*
X48782427Y-71471513D01*
X48782426Y-71471511D01*
X48627818Y-71098254D01*
X48549000Y-70702007D01*
X48549000Y-70297993D01*
X48627818Y-69901746D01*
X48782426Y-69528489D01*
X49006884Y-69192564D01*
X49292564Y-68906884D01*
X49628487Y-68682427D01*
X49628489Y-68682426D01*
X50001746Y-68527818D01*
X50397993Y-68449000D01*
X50802007Y-68449000D01*
X51198254Y-68527818D01*
X51198254Y-68527818D01*
G37*
G36*
X59998254Y-68527818D02*
G01*
X60371511Y-68682426D01*
X60371513Y-68682427D01*
X60707436Y-68906884D01*
X60993116Y-69192564D01*
X61217574Y-69528489D01*
X61372182Y-69901746D01*
X61451000Y-70297993D01*
X61451000Y-70702007D01*
X61372182Y-71098254D01*
X61217574Y-71471511D01*
X61217573Y-71471513D01*
X60993116Y-71807436D01*
X60707436Y-72093116D01*
X60371513Y-72317573D01*
X60371512Y-72317574D01*
X60371511Y-72317574D01*
X59998254Y-72472182D01*
X59602007Y-72551000D01*
X59197993Y-72551000D01*
X58801746Y-72472182D01*
X58428489Y-72317574D01*
X58428488Y-72317574D01*
X58428487Y-72317573D01*
X58092564Y-72093116D01*
X57806884Y-71807436D01*
X57582427Y-71471513D01*
X57582426Y-71471511D01*
X57427818Y-71098254D01*
X57349000Y-70702007D01*
X57349000Y-70297993D01*
X57427818Y-69901746D01*
X57582426Y-69528489D01*
X57806884Y-69192564D01*
X58092564Y-68906884D01*
X58428487Y-68682427D01*
X58428489Y-68682426D01*
X58801746Y-68527818D01*
X59197993Y-68449000D01*
X59602007Y-68449000D01*
X59998254Y-68527818D01*
X59998254Y-68527818D01*
G37*
G36*
X78908014Y-70306973D02*
G01*
X79011878Y-70338479D01*
X79055907Y-70362013D01*
X79107599Y-70389643D01*
X79107601Y-70389644D01*
X79107600Y-70389644D01*
X79191501Y-70458499D01*
X79260356Y-70542400D01*
X79311521Y-70638121D01*
X79343027Y-70741985D01*
X79351000Y-70822933D01*
X79351000Y-71977067D01*
X79343027Y-72058015D01*
X79311521Y-72161879D01*
X79311519Y-72161882D01*
X79260357Y-72257600D01*
X79191501Y-72341501D01*
X79107600Y-72410357D01*
X79039055Y-72446995D01*
X79011879Y-72461521D01*
X78908015Y-72493027D01*
X78800000Y-72503666D01*
X78691986Y-72493027D01*
X78588122Y-72461521D01*
X78560946Y-72446995D01*
X78492401Y-72410357D01*
X78408500Y-72341501D01*
X78339644Y-72257600D01*
X78288482Y-72161882D01*
X78288480Y-72161879D01*
X78256974Y-72058015D01*
X78249001Y-71977067D01*
X78249000Y-70822934D01*
X78256973Y-70741986D01*
X78288479Y-70638122D01*
X78339644Y-70542400D01*
X78408499Y-70458499D01*
X78492400Y-70389644D01*
X78492399Y-70389644D01*
X78492401Y-70389643D01*
X78544093Y-70362013D01*
X78588121Y-70338479D01*
X78691985Y-70306973D01*
X78800000Y-70296334D01*
X78908014Y-70306973D01*
X78908014Y-70306973D01*
G37*
G36*
X74658015Y-65056973D02*
G01*
X74761879Y-65088479D01*
X74789055Y-65103005D01*
X74857600Y-65139643D01*
X74941501Y-65208499D01*
X75010357Y-65292400D01*
X75046995Y-65360945D01*
X75061521Y-65388121D01*
X75093027Y-65491985D01*
X75103666Y-65600000D01*
X75093027Y-65708015D01*
X75061521Y-65811879D01*
X75061519Y-65811882D01*
X75010357Y-65907600D01*
X74941501Y-65991501D01*
X74857600Y-66060357D01*
X74789055Y-66096995D01*
X74761879Y-66111521D01*
X74658015Y-66143027D01*
X74577067Y-66151000D01*
X73422933Y-66151000D01*
X73341985Y-66143027D01*
X73238121Y-66111521D01*
X73210945Y-66096995D01*
X73142400Y-66060357D01*
X73058499Y-65991501D01*
X72989643Y-65907600D01*
X72938481Y-65811882D01*
X72938479Y-65811879D01*
X72906973Y-65708015D01*
X72896334Y-65600000D01*
X72906973Y-65491985D01*
X72938479Y-65388121D01*
X72953005Y-65360945D01*
X72989643Y-65292400D01*
X73058499Y-65208499D01*
X73142400Y-65139643D01*
X73210945Y-65103005D01*
X73238121Y-65088479D01*
X73341985Y-65056973D01*
X73422933Y-65049000D01*
X74577067Y-65049000D01*
X74658015Y-65056973D01*
X74658015Y-65056973D01*
G37*
G36*
X57777395Y-61585546D02*
G01*
X57950466Y-61657234D01*
X57950467Y-61657235D01*
X58106227Y-61761310D01*
X58238690Y-61893773D01*
X58238691Y-61893775D01*
X58342766Y-62049534D01*
X58414454Y-62222605D01*
X58451000Y-62406333D01*
X58451000Y-62593667D01*
X58414454Y-62777395D01*
X58342766Y-62950466D01*
X58342765Y-62950467D01*
X58238690Y-63106227D01*
X58106227Y-63238690D01*
X58027818Y-63291081D01*
X57950466Y-63342766D01*
X57777395Y-63414454D01*
X57593667Y-63451000D01*
X57406333Y-63451000D01*
X57222605Y-63414454D01*
X57049534Y-63342766D01*
X56972182Y-63291081D01*
X56893773Y-63238690D01*
X56761310Y-63106227D01*
X56657235Y-62950467D01*
X56657234Y-62950466D01*
X56585546Y-62777395D01*
X56549000Y-62593667D01*
X56549000Y-62406333D01*
X56585546Y-62222605D01*
X56657234Y-62049534D01*
X56761309Y-61893775D01*
X56761310Y-61893773D01*
X56893773Y-61761310D01*
X57049533Y-61657235D01*
X57049534Y-61657234D01*
X57222605Y-61585546D01*
X57406333Y-61549000D01*
X57593667Y-61549000D01*
X57777395Y-61585546D01*
X57777395Y-61585546D01*
G37*
G36*
X55277395Y-61585546D02*
G01*
X55450466Y-61657234D01*
X55450467Y-61657235D01*
X55606227Y-61761310D01*
X55738690Y-61893773D01*
X55738691Y-61893775D01*
X55842766Y-62049534D01*
X55914454Y-62222605D01*
X55951000Y-62406333D01*
X55951000Y-62593667D01*
X55914454Y-62777395D01*
X55842766Y-62950466D01*
X55842765Y-62950467D01*
X55738690Y-63106227D01*
X55606227Y-63238690D01*
X55527818Y-63291081D01*
X55450466Y-63342766D01*
X55277395Y-63414454D01*
X55093667Y-63451000D01*
X54906333Y-63451000D01*
X54722605Y-63414454D01*
X54549534Y-63342766D01*
X54472182Y-63291081D01*
X54393773Y-63238690D01*
X54261310Y-63106227D01*
X54157235Y-62950467D01*
X54157234Y-62950466D01*
X54085546Y-62777395D01*
X54049000Y-62593667D01*
X54049000Y-62406333D01*
X54085546Y-62222605D01*
X54157234Y-62049534D01*
X54261309Y-61893775D01*
X54261310Y-61893773D01*
X54393773Y-61761310D01*
X54549533Y-61657235D01*
X54549534Y-61657234D01*
X54722605Y-61585546D01*
X54906333Y-61549000D01*
X55093667Y-61549000D01*
X55277395Y-61585546D01*
X55277395Y-61585546D01*
G37*
G36*
X52777395Y-61585546D02*
G01*
X52950466Y-61657234D01*
X52950467Y-61657235D01*
X53106227Y-61761310D01*
X53238690Y-61893773D01*
X53238691Y-61893775D01*
X53342766Y-62049534D01*
X53414454Y-62222605D01*
X53451000Y-62406333D01*
X53451000Y-62593667D01*
X53414454Y-62777395D01*
X53342766Y-62950466D01*
X53342765Y-62950467D01*
X53238690Y-63106227D01*
X53106227Y-63238690D01*
X53027818Y-63291081D01*
X52950466Y-63342766D01*
X52777395Y-63414454D01*
X52593667Y-63451000D01*
X52406333Y-63451000D01*
X52222605Y-63414454D01*
X52049534Y-63342766D01*
X51972182Y-63291081D01*
X51893773Y-63238690D01*
X51761310Y-63106227D01*
X51657235Y-62950467D01*
X51657234Y-62950466D01*
X51585546Y-62777395D01*
X51549000Y-62593667D01*
X51549000Y-62406333D01*
X51585546Y-62222605D01*
X51657234Y-62049534D01*
X51761309Y-61893775D01*
X51761310Y-61893773D01*
X51893773Y-61761310D01*
X52049533Y-61657235D01*
X52049534Y-61657234D01*
X52222605Y-61585546D01*
X52406333Y-61549000D01*
X52593667Y-61549000D01*
X52777395Y-61585546D01*
X52777395Y-61585546D01*
G37*
G36*
X74658015Y-58156973D02*
G01*
X74761879Y-58188479D01*
X74789055Y-58203005D01*
X74857600Y-58239643D01*
X74941501Y-58308499D01*
X75010357Y-58392400D01*
X75046995Y-58460945D01*
X75061521Y-58488121D01*
X75093027Y-58591985D01*
X75103666Y-58700000D01*
X75093027Y-58808015D01*
X75061521Y-58911879D01*
X75061519Y-58911882D01*
X75010357Y-59007600D01*
X74941501Y-59091501D01*
X74857600Y-59160357D01*
X74789055Y-59196995D01*
X74761879Y-59211521D01*
X74658015Y-59243027D01*
X74577067Y-59251000D01*
X73422933Y-59251000D01*
X73341985Y-59243027D01*
X73238121Y-59211521D01*
X73210945Y-59196995D01*
X73142400Y-59160357D01*
X73058499Y-59091501D01*
X72989643Y-59007600D01*
X72938481Y-58911882D01*
X72938479Y-58911879D01*
X72906973Y-58808015D01*
X72896334Y-58700000D01*
X72906973Y-58591985D01*
X72938479Y-58488121D01*
X72953005Y-58460945D01*
X72989643Y-58392400D01*
X73058499Y-58308499D01*
X73142400Y-58239643D01*
X73210945Y-58203005D01*
X73238121Y-58188479D01*
X73341985Y-58156973D01*
X73422933Y-58149000D01*
X74577067Y-58149000D01*
X74658015Y-58156973D01*
X74658015Y-58156973D01*
G37*
G36*
X51198254Y-53527818D02*
G01*
X51571511Y-53682426D01*
X51571513Y-53682427D01*
X51907436Y-53906884D01*
X52193116Y-54192564D01*
X52411779Y-54519815D01*
X52417574Y-54528489D01*
X52572182Y-54901746D01*
X52651000Y-55297993D01*
X52651000Y-55702007D01*
X52572182Y-56098254D01*
X52417574Y-56471511D01*
X52417573Y-56471513D01*
X52193116Y-56807436D01*
X51907436Y-57093116D01*
X51571513Y-57317573D01*
X51571512Y-57317574D01*
X51571511Y-57317574D01*
X51198254Y-57472182D01*
X50802007Y-57551000D01*
X50397993Y-57551000D01*
X50001746Y-57472182D01*
X49628489Y-57317574D01*
X49628488Y-57317574D01*
X49628487Y-57317573D01*
X49292564Y-57093116D01*
X49006884Y-56807436D01*
X48782427Y-56471513D01*
X48782426Y-56471511D01*
X48627818Y-56098254D01*
X48549000Y-55702007D01*
X48549000Y-55297993D01*
X48627818Y-54901746D01*
X48782426Y-54528489D01*
X48788222Y-54519815D01*
X49006884Y-54192564D01*
X49292564Y-53906884D01*
X49628487Y-53682427D01*
X49628489Y-53682426D01*
X50001746Y-53527818D01*
X50397993Y-53449000D01*
X50802007Y-53449000D01*
X51198254Y-53527818D01*
X51198254Y-53527818D01*
G37*
G36*
X59998254Y-53527818D02*
G01*
X60371511Y-53682426D01*
X60371513Y-53682427D01*
X60707436Y-53906884D01*
X60993116Y-54192564D01*
X61211779Y-54519815D01*
X61217574Y-54528489D01*
X61372182Y-54901746D01*
X61451000Y-55297993D01*
X61451000Y-55702007D01*
X61372182Y-56098254D01*
X61217574Y-56471511D01*
X61217573Y-56471513D01*
X60993116Y-56807436D01*
X60707436Y-57093116D01*
X60371513Y-57317573D01*
X60371512Y-57317574D01*
X60371511Y-57317574D01*
X59998254Y-57472182D01*
X59602007Y-57551000D01*
X59197993Y-57551000D01*
X58801746Y-57472182D01*
X58428489Y-57317574D01*
X58428488Y-57317574D01*
X58428487Y-57317573D01*
X58092564Y-57093116D01*
X57806884Y-56807436D01*
X57582427Y-56471513D01*
X57582426Y-56471511D01*
X57427818Y-56098254D01*
X57349000Y-55702007D01*
X57349000Y-55297993D01*
X57427818Y-54901746D01*
X57582426Y-54528489D01*
X57588222Y-54519815D01*
X57806884Y-54192564D01*
X58092564Y-53906884D01*
X58428487Y-53682427D01*
X58428489Y-53682426D01*
X58801746Y-53527818D01*
X59197993Y-53449000D01*
X59602007Y-53449000D01*
X59998254Y-53527818D01*
X59998254Y-53527818D01*
G37*
G36*
X78908014Y-55306973D02*
G01*
X79011878Y-55338479D01*
X79055907Y-55362013D01*
X79107599Y-55389643D01*
X79107601Y-55389644D01*
X79107600Y-55389644D01*
X79191501Y-55458499D01*
X79260356Y-55542400D01*
X79311521Y-55638121D01*
X79343027Y-55741985D01*
X79351000Y-55822933D01*
X79351000Y-56977067D01*
X79343027Y-57058015D01*
X79311521Y-57161879D01*
X79311519Y-57161882D01*
X79260357Y-57257600D01*
X79191501Y-57341501D01*
X79107600Y-57410357D01*
X79039055Y-57446995D01*
X79011879Y-57461521D01*
X78908015Y-57493027D01*
X78800000Y-57503666D01*
X78691986Y-57493027D01*
X78588122Y-57461521D01*
X78560946Y-57446995D01*
X78492401Y-57410357D01*
X78408500Y-57341501D01*
X78339644Y-57257600D01*
X78288482Y-57161882D01*
X78288480Y-57161879D01*
X78256974Y-57058015D01*
X78249001Y-56977067D01*
X78249000Y-55822934D01*
X78256973Y-55741986D01*
X78288479Y-55638122D01*
X78339644Y-55542400D01*
X78408499Y-55458499D01*
X78492400Y-55389644D01*
X78492399Y-55389644D01*
X78492401Y-55389643D01*
X78544093Y-55362013D01*
X78588121Y-55338479D01*
X78691985Y-55306973D01*
X78800000Y-55296334D01*
X78908014Y-55306973D01*
X78908014Y-55306973D01*
G37*
G36*
X85237442Y-54265518D02*
G01*
X85303627Y-54272037D01*
X85473466Y-54323557D01*
X85629991Y-54407222D01*
X85665729Y-54436552D01*
X85767186Y-54519814D01*
X85850448Y-54621271D01*
X85879778Y-54657009D01*
X85963443Y-54813534D01*
X86014963Y-54983373D01*
X86032359Y-55160000D01*
X86014963Y-55336627D01*
X85963443Y-55506466D01*
X85879778Y-55662991D01*
X85850448Y-55698729D01*
X85767186Y-55800186D01*
X85665729Y-55883448D01*
X85629991Y-55912778D01*
X85473466Y-55996443D01*
X85303627Y-56047963D01*
X85237443Y-56054481D01*
X85171260Y-56061000D01*
X85082740Y-56061000D01*
X85016557Y-56054481D01*
X84950373Y-56047963D01*
X84780534Y-55996443D01*
X84624009Y-55912778D01*
X84588271Y-55883448D01*
X84486814Y-55800186D01*
X84403552Y-55698729D01*
X84374222Y-55662991D01*
X84290557Y-55506466D01*
X84239037Y-55336627D01*
X84221641Y-55160000D01*
X84239037Y-54983373D01*
X84290557Y-54813534D01*
X84374222Y-54657009D01*
X84403552Y-54621271D01*
X84486814Y-54519814D01*
X84588271Y-54436552D01*
X84624009Y-54407222D01*
X84780534Y-54323557D01*
X84950373Y-54272037D01*
X85016558Y-54265518D01*
X85082740Y-54259000D01*
X85171260Y-54259000D01*
X85237442Y-54265518D01*
X85237442Y-54265518D01*
G37*
G36*
X87777442Y-54265518D02*
G01*
X87843627Y-54272037D01*
X88013466Y-54323557D01*
X88169991Y-54407222D01*
X88205729Y-54436552D01*
X88307186Y-54519814D01*
X88390448Y-54621271D01*
X88419778Y-54657009D01*
X88503443Y-54813534D01*
X88554963Y-54983373D01*
X88572359Y-55160000D01*
X88554963Y-55336627D01*
X88503443Y-55506466D01*
X88419778Y-55662991D01*
X88390448Y-55698729D01*
X88307186Y-55800186D01*
X88205729Y-55883448D01*
X88169991Y-55912778D01*
X88013466Y-55996443D01*
X87843627Y-56047963D01*
X87777443Y-56054481D01*
X87711260Y-56061000D01*
X87622740Y-56061000D01*
X87556557Y-56054481D01*
X87490373Y-56047963D01*
X87320534Y-55996443D01*
X87164009Y-55912778D01*
X87128271Y-55883448D01*
X87026814Y-55800186D01*
X86943552Y-55698729D01*
X86914222Y-55662991D01*
X86830557Y-55506466D01*
X86779037Y-55336627D01*
X86761641Y-55160000D01*
X86779037Y-54983373D01*
X86830557Y-54813534D01*
X86914222Y-54657009D01*
X86943552Y-54621271D01*
X87026814Y-54519814D01*
X87128271Y-54436552D01*
X87164009Y-54407222D01*
X87320534Y-54323557D01*
X87490373Y-54272037D01*
X87556558Y-54265518D01*
X87622740Y-54259000D01*
X87711260Y-54259000D01*
X87777442Y-54265518D01*
X87777442Y-54265518D01*
G37*
G36*
X84983442Y-51725518D02*
G01*
X85049627Y-51732037D01*
X85219466Y-51783557D01*
X85375991Y-51867222D01*
X85411729Y-51896552D01*
X85513186Y-51979814D01*
X85596448Y-52081271D01*
X85625778Y-52117009D01*
X85709443Y-52273534D01*
X85760963Y-52443373D01*
X85778359Y-52620000D01*
X85760963Y-52796627D01*
X85709443Y-52966466D01*
X85625778Y-53122991D01*
X85596448Y-53158729D01*
X85513186Y-53260186D01*
X85411729Y-53343448D01*
X85375991Y-53372778D01*
X85219466Y-53456443D01*
X85049627Y-53507963D01*
X84983442Y-53514482D01*
X84917260Y-53521000D01*
X84828740Y-53521000D01*
X84762558Y-53514482D01*
X84696373Y-53507963D01*
X84526534Y-53456443D01*
X84370009Y-53372778D01*
X84334271Y-53343448D01*
X84232814Y-53260186D01*
X84149552Y-53158729D01*
X84120222Y-53122991D01*
X84036557Y-52966466D01*
X83985037Y-52796627D01*
X83967641Y-52620000D01*
X83985037Y-52443373D01*
X84036557Y-52273534D01*
X84120222Y-52117009D01*
X84149552Y-52081271D01*
X84232814Y-51979814D01*
X84334271Y-51896552D01*
X84370009Y-51867222D01*
X84526534Y-51783557D01*
X84696373Y-51732037D01*
X84762558Y-51725518D01*
X84828740Y-51719000D01*
X84917260Y-51719000D01*
X84983442Y-51725518D01*
X84983442Y-51725518D01*
G37*
G36*
X87523442Y-51725518D02*
G01*
X87589627Y-51732037D01*
X87759466Y-51783557D01*
X87915991Y-51867222D01*
X87951729Y-51896552D01*
X88053186Y-51979814D01*
X88136448Y-52081271D01*
X88165778Y-52117009D01*
X88249443Y-52273534D01*
X88300963Y-52443373D01*
X88318359Y-52620000D01*
X88300963Y-52796627D01*
X88249443Y-52966466D01*
X88165778Y-53122991D01*
X88136448Y-53158729D01*
X88053186Y-53260186D01*
X87951729Y-53343448D01*
X87915991Y-53372778D01*
X87759466Y-53456443D01*
X87589627Y-53507963D01*
X87523442Y-53514482D01*
X87457260Y-53521000D01*
X87368740Y-53521000D01*
X87302558Y-53514482D01*
X87236373Y-53507963D01*
X87066534Y-53456443D01*
X86910009Y-53372778D01*
X86874271Y-53343448D01*
X86772814Y-53260186D01*
X86689552Y-53158729D01*
X86660222Y-53122991D01*
X86576557Y-52966466D01*
X86525037Y-52796627D01*
X86507641Y-52620000D01*
X86525037Y-52443373D01*
X86576557Y-52273534D01*
X86660222Y-52117009D01*
X86689552Y-52081271D01*
X86772814Y-51979814D01*
X86874271Y-51896552D01*
X86910009Y-51867222D01*
X87066534Y-51783557D01*
X87236373Y-51732037D01*
X87302558Y-51725518D01*
X87368740Y-51719000D01*
X87457260Y-51719000D01*
X87523442Y-51725518D01*
X87523442Y-51725518D01*
G37*
G36*
X74658015Y-50056973D02*
G01*
X74761879Y-50088479D01*
X74789055Y-50103005D01*
X74857600Y-50139643D01*
X74941501Y-50208499D01*
X75010357Y-50292400D01*
X75046995Y-50360945D01*
X75061521Y-50388121D01*
X75093027Y-50491985D01*
X75103666Y-50600000D01*
X75093027Y-50708015D01*
X75061521Y-50811879D01*
X75061519Y-50811882D01*
X75010357Y-50907600D01*
X74941501Y-50991501D01*
X74857600Y-51060357D01*
X74789055Y-51096995D01*
X74761879Y-51111521D01*
X74658015Y-51143027D01*
X74577067Y-51151000D01*
X73422933Y-51151000D01*
X73341985Y-51143027D01*
X73238121Y-51111521D01*
X73210945Y-51096995D01*
X73142400Y-51060357D01*
X73058499Y-50991501D01*
X72989643Y-50907600D01*
X72938481Y-50811882D01*
X72938479Y-50811879D01*
X72906973Y-50708015D01*
X72896334Y-50600000D01*
X72906973Y-50491985D01*
X72938479Y-50388121D01*
X72953005Y-50360945D01*
X72989643Y-50292400D01*
X73058499Y-50208499D01*
X73142400Y-50139643D01*
X73210945Y-50103005D01*
X73238121Y-50088479D01*
X73341985Y-50056973D01*
X73422933Y-50049000D01*
X74577067Y-50049000D01*
X74658015Y-50056973D01*
X74658015Y-50056973D01*
G37*
G36*
X87777443Y-49185519D02*
G01*
X87843627Y-49192037D01*
X88013466Y-49243557D01*
X88169991Y-49327222D01*
X88205729Y-49356552D01*
X88307186Y-49439814D01*
X88390448Y-49541271D01*
X88419778Y-49577009D01*
X88503443Y-49733534D01*
X88554963Y-49903373D01*
X88572359Y-50080000D01*
X88554963Y-50256627D01*
X88503443Y-50426466D01*
X88419778Y-50582991D01*
X88405819Y-50600000D01*
X88307186Y-50720186D01*
X88205729Y-50803448D01*
X88169991Y-50832778D01*
X88013466Y-50916443D01*
X87843627Y-50967963D01*
X87777442Y-50974482D01*
X87711260Y-50981000D01*
X87622740Y-50981000D01*
X87556558Y-50974482D01*
X87490373Y-50967963D01*
X87320534Y-50916443D01*
X87164009Y-50832778D01*
X87128271Y-50803448D01*
X87026814Y-50720186D01*
X86928181Y-50600000D01*
X86914222Y-50582991D01*
X86830557Y-50426466D01*
X86779037Y-50256627D01*
X86761641Y-50080000D01*
X86779037Y-49903373D01*
X86830557Y-49733534D01*
X86914222Y-49577009D01*
X86943552Y-49541271D01*
X87026814Y-49439814D01*
X87128271Y-49356552D01*
X87164009Y-49327222D01*
X87320534Y-49243557D01*
X87490373Y-49192037D01*
X87556557Y-49185519D01*
X87622740Y-49179000D01*
X87711260Y-49179000D01*
X87777443Y-49185519D01*
X87777443Y-49185519D01*
G37*
G36*
X85237443Y-49185519D02*
G01*
X85303627Y-49192037D01*
X85473466Y-49243557D01*
X85629991Y-49327222D01*
X85665729Y-49356552D01*
X85767186Y-49439814D01*
X85850448Y-49541271D01*
X85879778Y-49577009D01*
X85963443Y-49733534D01*
X86014963Y-49903373D01*
X86032359Y-50080000D01*
X86014963Y-50256627D01*
X85963443Y-50426466D01*
X85879778Y-50582991D01*
X85865819Y-50600000D01*
X85767186Y-50720186D01*
X85665729Y-50803448D01*
X85629991Y-50832778D01*
X85473466Y-50916443D01*
X85303627Y-50967963D01*
X85237442Y-50974482D01*
X85171260Y-50981000D01*
X85082740Y-50981000D01*
X85016558Y-50974482D01*
X84950373Y-50967963D01*
X84780534Y-50916443D01*
X84624009Y-50832778D01*
X84588271Y-50803448D01*
X84486814Y-50720186D01*
X84388181Y-50600000D01*
X84374222Y-50582991D01*
X84290557Y-50426466D01*
X84239037Y-50256627D01*
X84221641Y-50080000D01*
X84239037Y-49903373D01*
X84290557Y-49733534D01*
X84374222Y-49577009D01*
X84403552Y-49541271D01*
X84486814Y-49439814D01*
X84588271Y-49356552D01*
X84624009Y-49327222D01*
X84780534Y-49243557D01*
X84950373Y-49192037D01*
X85016557Y-49185519D01*
X85082740Y-49179000D01*
X85171260Y-49179000D01*
X85237443Y-49185519D01*
X85237443Y-49185519D01*
G37*
G36*
X52777395Y-46585546D02*
G01*
X52950466Y-46657234D01*
X52950467Y-46657235D01*
X53106227Y-46761310D01*
X53238690Y-46893773D01*
X53238691Y-46893775D01*
X53342766Y-47049534D01*
X53414454Y-47222605D01*
X53451000Y-47406333D01*
X53451000Y-47593667D01*
X53414454Y-47777395D01*
X53342766Y-47950466D01*
X53342765Y-47950467D01*
X53238690Y-48106227D01*
X53106227Y-48238690D01*
X53027818Y-48291081D01*
X52950466Y-48342766D01*
X52777395Y-48414454D01*
X52593667Y-48451000D01*
X52406333Y-48451000D01*
X52222605Y-48414454D01*
X52049534Y-48342766D01*
X51972182Y-48291081D01*
X51893773Y-48238690D01*
X51761310Y-48106227D01*
X51657235Y-47950467D01*
X51657234Y-47950466D01*
X51585546Y-47777395D01*
X51549000Y-47593667D01*
X51549000Y-47406333D01*
X51585546Y-47222605D01*
X51657234Y-47049534D01*
X51761309Y-46893775D01*
X51761310Y-46893773D01*
X51893773Y-46761310D01*
X52049533Y-46657235D01*
X52049534Y-46657234D01*
X52222605Y-46585546D01*
X52406333Y-46549000D01*
X52593667Y-46549000D01*
X52777395Y-46585546D01*
X52777395Y-46585546D01*
G37*
G36*
X55277395Y-46585546D02*
G01*
X55450466Y-46657234D01*
X55450467Y-46657235D01*
X55606227Y-46761310D01*
X55738690Y-46893773D01*
X55738691Y-46893775D01*
X55842766Y-47049534D01*
X55914454Y-47222605D01*
X55951000Y-47406333D01*
X55951000Y-47593667D01*
X55914454Y-47777395D01*
X55842766Y-47950466D01*
X55842765Y-47950467D01*
X55738690Y-48106227D01*
X55606227Y-48238690D01*
X55527818Y-48291081D01*
X55450466Y-48342766D01*
X55277395Y-48414454D01*
X55093667Y-48451000D01*
X54906333Y-48451000D01*
X54722605Y-48414454D01*
X54549534Y-48342766D01*
X54472182Y-48291081D01*
X54393773Y-48238690D01*
X54261310Y-48106227D01*
X54157235Y-47950467D01*
X54157234Y-47950466D01*
X54085546Y-47777395D01*
X54049000Y-47593667D01*
X54049000Y-47406333D01*
X54085546Y-47222605D01*
X54157234Y-47049534D01*
X54261309Y-46893775D01*
X54261310Y-46893773D01*
X54393773Y-46761310D01*
X54549533Y-46657235D01*
X54549534Y-46657234D01*
X54722605Y-46585546D01*
X54906333Y-46549000D01*
X55093667Y-46549000D01*
X55277395Y-46585546D01*
X55277395Y-46585546D01*
G37*
G36*
X57777395Y-46585546D02*
G01*
X57950466Y-46657234D01*
X57950467Y-46657235D01*
X58106227Y-46761310D01*
X58238690Y-46893773D01*
X58238691Y-46893775D01*
X58342766Y-47049534D01*
X58414454Y-47222605D01*
X58451000Y-47406333D01*
X58451000Y-47593667D01*
X58414454Y-47777395D01*
X58342766Y-47950466D01*
X58342765Y-47950467D01*
X58238690Y-48106227D01*
X58106227Y-48238690D01*
X58027818Y-48291081D01*
X57950466Y-48342766D01*
X57777395Y-48414454D01*
X57593667Y-48451000D01*
X57406333Y-48451000D01*
X57222605Y-48414454D01*
X57049534Y-48342766D01*
X56972182Y-48291081D01*
X56893773Y-48238690D01*
X56761310Y-48106227D01*
X56657235Y-47950467D01*
X56657234Y-47950466D01*
X56585546Y-47777395D01*
X56549000Y-47593667D01*
X56549000Y-47406333D01*
X56585546Y-47222605D01*
X56657234Y-47049534D01*
X56761309Y-46893775D01*
X56761310Y-46893773D01*
X56893773Y-46761310D01*
X57049533Y-46657235D01*
X57049534Y-46657234D01*
X57222605Y-46585546D01*
X57406333Y-46549000D01*
X57593667Y-46549000D01*
X57777395Y-46585546D01*
X57777395Y-46585546D01*
G37*
G36*
X87523443Y-46645519D02*
G01*
X87589627Y-46652037D01*
X87759466Y-46703557D01*
X87915991Y-46787222D01*
X87951729Y-46816552D01*
X88053186Y-46899814D01*
X88136448Y-47001271D01*
X88165778Y-47037009D01*
X88249443Y-47193534D01*
X88300963Y-47363373D01*
X88318359Y-47540000D01*
X88300963Y-47716627D01*
X88249443Y-47886466D01*
X88249442Y-47886468D01*
X88207610Y-47964729D01*
X88165778Y-48042991D01*
X88136448Y-48078729D01*
X88053186Y-48180186D01*
X87981896Y-48238691D01*
X87915991Y-48292778D01*
X87759466Y-48376443D01*
X87589627Y-48427963D01*
X87523443Y-48434481D01*
X87457260Y-48441000D01*
X87368740Y-48441000D01*
X87302557Y-48434481D01*
X87236373Y-48427963D01*
X87066534Y-48376443D01*
X86910009Y-48292778D01*
X86844104Y-48238691D01*
X86772814Y-48180186D01*
X86689552Y-48078729D01*
X86660222Y-48042991D01*
X86618390Y-47964729D01*
X86576558Y-47886468D01*
X86576557Y-47886466D01*
X86525037Y-47716627D01*
X86507641Y-47540000D01*
X86525037Y-47363373D01*
X86576557Y-47193534D01*
X86660222Y-47037009D01*
X86689552Y-47001271D01*
X86772814Y-46899814D01*
X86874271Y-46816552D01*
X86910009Y-46787222D01*
X87066534Y-46703557D01*
X87236373Y-46652037D01*
X87302558Y-46645518D01*
X87368740Y-46639000D01*
X87457260Y-46639000D01*
X87523443Y-46645519D01*
X87523443Y-46645519D01*
G37*
G36*
X84983443Y-46645519D02*
G01*
X85049627Y-46652037D01*
X85219466Y-46703557D01*
X85375991Y-46787222D01*
X85411729Y-46816552D01*
X85513186Y-46899814D01*
X85596448Y-47001271D01*
X85625778Y-47037009D01*
X85709443Y-47193534D01*
X85760963Y-47363373D01*
X85778359Y-47540000D01*
X85760963Y-47716627D01*
X85709443Y-47886466D01*
X85709442Y-47886468D01*
X85667610Y-47964729D01*
X85625778Y-48042991D01*
X85596448Y-48078729D01*
X85513186Y-48180186D01*
X85441896Y-48238691D01*
X85375991Y-48292778D01*
X85219466Y-48376443D01*
X85049627Y-48427963D01*
X84983443Y-48434481D01*
X84917260Y-48441000D01*
X84828740Y-48441000D01*
X84762557Y-48434481D01*
X84696373Y-48427963D01*
X84526534Y-48376443D01*
X84370009Y-48292778D01*
X84304104Y-48238691D01*
X84232814Y-48180186D01*
X84149552Y-48078729D01*
X84120222Y-48042991D01*
X84078390Y-47964729D01*
X84036558Y-47886468D01*
X84036557Y-47886466D01*
X83985037Y-47716627D01*
X83967641Y-47540000D01*
X83985037Y-47363373D01*
X84036557Y-47193534D01*
X84120222Y-47037009D01*
X84149552Y-47001271D01*
X84232814Y-46899814D01*
X84334271Y-46816552D01*
X84370009Y-46787222D01*
X84526534Y-46703557D01*
X84696373Y-46652037D01*
X84762558Y-46645518D01*
X84828740Y-46639000D01*
X84917260Y-46639000D01*
X84983443Y-46645519D01*
X84983443Y-46645519D01*
G37*
G36*
X86028000Y-45901000D02*
G01*
X84226000Y-45901000D01*
X84226000Y-44099000D01*
X86028000Y-44099000D01*
X86028000Y-45901000D01*
X86028000Y-45901000D01*
G37*
G36*
X87777443Y-44105519D02*
G01*
X87843627Y-44112037D01*
X88013466Y-44163557D01*
X88169991Y-44247222D01*
X88174594Y-44251000D01*
X88307186Y-44359814D01*
X88390448Y-44461271D01*
X88419778Y-44497009D01*
X88503443Y-44653534D01*
X88554963Y-44823373D01*
X88572359Y-45000000D01*
X88554963Y-45176627D01*
X88503443Y-45346466D01*
X88419778Y-45502991D01*
X88390448Y-45538729D01*
X88307186Y-45640186D01*
X88205729Y-45723448D01*
X88169991Y-45752778D01*
X88013466Y-45836443D01*
X87843627Y-45887963D01*
X87777442Y-45894482D01*
X87711260Y-45901000D01*
X87622740Y-45901000D01*
X87556558Y-45894482D01*
X87490373Y-45887963D01*
X87320534Y-45836443D01*
X87164009Y-45752778D01*
X87128271Y-45723448D01*
X87026814Y-45640186D01*
X86943552Y-45538729D01*
X86914222Y-45502991D01*
X86830557Y-45346466D01*
X86779037Y-45176627D01*
X86761641Y-45000000D01*
X86779037Y-44823373D01*
X86830557Y-44653534D01*
X86914222Y-44497009D01*
X86943552Y-44461271D01*
X87026814Y-44359814D01*
X87159406Y-44251000D01*
X87164009Y-44247222D01*
X87320534Y-44163557D01*
X87490373Y-44112037D01*
X87556557Y-44105519D01*
X87622740Y-44099000D01*
X87711260Y-44099000D01*
X87777443Y-44105519D01*
X87777443Y-44105519D01*
G37*
G36*
X74658015Y-43156973D02*
G01*
X74761879Y-43188479D01*
X74789055Y-43203005D01*
X74857600Y-43239643D01*
X74941501Y-43308499D01*
X75010357Y-43392400D01*
X75046995Y-43460945D01*
X75061521Y-43488121D01*
X75093027Y-43591985D01*
X75103666Y-43700000D01*
X75093027Y-43808015D01*
X75061521Y-43911879D01*
X75061519Y-43911882D01*
X75010357Y-44007600D01*
X74941501Y-44091501D01*
X74857600Y-44160357D01*
X74789055Y-44196995D01*
X74761879Y-44211521D01*
X74658015Y-44243027D01*
X74577067Y-44251000D01*
X73422933Y-44251000D01*
X73341985Y-44243027D01*
X73238121Y-44211521D01*
X73210945Y-44196995D01*
X73142400Y-44160357D01*
X73058499Y-44091501D01*
X72989643Y-44007600D01*
X72938481Y-43911882D01*
X72938479Y-43911879D01*
X72906973Y-43808015D01*
X72896334Y-43700000D01*
X72906973Y-43591985D01*
X72938479Y-43488121D01*
X72953005Y-43460945D01*
X72989643Y-43392400D01*
X73058499Y-43308499D01*
X73142400Y-43239643D01*
X73210945Y-43203005D01*
X73238121Y-43188479D01*
X73341985Y-43156973D01*
X73422933Y-43149000D01*
X74577067Y-43149000D01*
X74658015Y-43156973D01*
X74658015Y-43156973D01*
G37*
G36*
X51198254Y-38527818D02*
G01*
X51571511Y-38682426D01*
X51571513Y-38682427D01*
X51907436Y-38906884D01*
X52193116Y-39192564D01*
X52417574Y-39528489D01*
X52572182Y-39901746D01*
X52651000Y-40297993D01*
X52651000Y-40702007D01*
X52572182Y-41098254D01*
X52417574Y-41471511D01*
X52417573Y-41471513D01*
X52193116Y-41807436D01*
X51907436Y-42093116D01*
X51571513Y-42317573D01*
X51571512Y-42317574D01*
X51571511Y-42317574D01*
X51198254Y-42472182D01*
X50802007Y-42551000D01*
X50397993Y-42551000D01*
X50001746Y-42472182D01*
X49628489Y-42317574D01*
X49628488Y-42317574D01*
X49628487Y-42317573D01*
X49292564Y-42093116D01*
X49006884Y-41807436D01*
X48782427Y-41471513D01*
X48782426Y-41471511D01*
X48627818Y-41098254D01*
X48549000Y-40702007D01*
X48549000Y-40297993D01*
X48627818Y-39901746D01*
X48782426Y-39528489D01*
X49006884Y-39192564D01*
X49292564Y-38906884D01*
X49628487Y-38682427D01*
X49628489Y-38682426D01*
X50001746Y-38527818D01*
X50397993Y-38449000D01*
X50802007Y-38449000D01*
X51198254Y-38527818D01*
X51198254Y-38527818D01*
G37*
G36*
X59998254Y-38527818D02*
G01*
X60371511Y-38682426D01*
X60371513Y-38682427D01*
X60707436Y-38906884D01*
X60993116Y-39192564D01*
X61217574Y-39528489D01*
X61372182Y-39901746D01*
X61451000Y-40297993D01*
X61451000Y-40702007D01*
X61372182Y-41098254D01*
X61217574Y-41471511D01*
X61217573Y-41471513D01*
X60993116Y-41807436D01*
X60707436Y-42093116D01*
X60371513Y-42317573D01*
X60371512Y-42317574D01*
X60371511Y-42317574D01*
X59998254Y-42472182D01*
X59602007Y-42551000D01*
X59197993Y-42551000D01*
X58801746Y-42472182D01*
X58428489Y-42317574D01*
X58428488Y-42317574D01*
X58428487Y-42317573D01*
X58092564Y-42093116D01*
X57806884Y-41807436D01*
X57582427Y-41471513D01*
X57582426Y-41471511D01*
X57427818Y-41098254D01*
X57349000Y-40702007D01*
X57349000Y-40297993D01*
X57427818Y-39901746D01*
X57582426Y-39528489D01*
X57806884Y-39192564D01*
X58092564Y-38906884D01*
X58428487Y-38682427D01*
X58428489Y-38682426D01*
X58801746Y-38527818D01*
X59197993Y-38449000D01*
X59602007Y-38449000D01*
X59998254Y-38527818D01*
X59998254Y-38527818D01*
G37*
G36*
X78908014Y-40306973D02*
G01*
X79011878Y-40338479D01*
X79055907Y-40362013D01*
X79107599Y-40389643D01*
X79107601Y-40389644D01*
X79107600Y-40389644D01*
X79191501Y-40458499D01*
X79260356Y-40542400D01*
X79311521Y-40638121D01*
X79343027Y-40741985D01*
X79351000Y-40822933D01*
X79351000Y-41977067D01*
X79343027Y-42058015D01*
X79311521Y-42161879D01*
X79311519Y-42161882D01*
X79260357Y-42257600D01*
X79191501Y-42341501D01*
X79107600Y-42410357D01*
X79039055Y-42446995D01*
X79011879Y-42461521D01*
X78908015Y-42493027D01*
X78800000Y-42503666D01*
X78691986Y-42493027D01*
X78588122Y-42461521D01*
X78560946Y-42446995D01*
X78492401Y-42410357D01*
X78408500Y-42341501D01*
X78339644Y-42257600D01*
X78288482Y-42161882D01*
X78288480Y-42161879D01*
X78256974Y-42058015D01*
X78249001Y-41977067D01*
X78249000Y-40822934D01*
X78256973Y-40741986D01*
X78288479Y-40638122D01*
X78339644Y-40542400D01*
X78408499Y-40458499D01*
X78492400Y-40389644D01*
X78492399Y-40389644D01*
X78492401Y-40389643D01*
X78544093Y-40362013D01*
X78588121Y-40338479D01*
X78691985Y-40306973D01*
X78800000Y-40296334D01*
X78908014Y-40306973D01*
X78908014Y-40306973D01*
G37*
G36*
X85406373Y-32957024D02*
G01*
X85607589Y-32997048D01*
X85986671Y-33154069D01*
X86327835Y-33382028D01*
X86617972Y-33672165D01*
X86845932Y-34013331D01*
X87002952Y-34392412D01*
X87083000Y-34794841D01*
X87083000Y-35205159D01*
X87065647Y-35292400D01*
X87002952Y-35607589D01*
X86845931Y-35986671D01*
X86617972Y-36327835D01*
X86327835Y-36617972D01*
X85986671Y-36845931D01*
X85607589Y-37002952D01*
X85205159Y-37083000D01*
X84794841Y-37083000D01*
X84593627Y-37042976D01*
X84392411Y-37002952D01*
X84013329Y-36845931D01*
X83672165Y-36617972D01*
X83382028Y-36327835D01*
X83154069Y-35986671D01*
X82997048Y-35607589D01*
X82934353Y-35292400D01*
X82917000Y-35205159D01*
X82917000Y-34794841D01*
X82997048Y-34392412D01*
X83154068Y-34013331D01*
X83382028Y-33672165D01*
X83672165Y-33382028D01*
X84013329Y-33154069D01*
X84392411Y-32997048D01*
X84593627Y-32957024D01*
X84794841Y-32917000D01*
X85205159Y-32917000D01*
X85406373Y-32957024D01*
X85406373Y-32957024D01*
G37*
G36*
X45406373Y-32957024D02*
G01*
X45607589Y-32997048D01*
X45986671Y-33154069D01*
X46327835Y-33382028D01*
X46617972Y-33672165D01*
X46845932Y-34013331D01*
X47002952Y-34392412D01*
X47083000Y-34794841D01*
X47083000Y-35205159D01*
X47065647Y-35292400D01*
X47002952Y-35607589D01*
X46845931Y-35986671D01*
X46617972Y-36327835D01*
X46327835Y-36617972D01*
X45986671Y-36845931D01*
X45607589Y-37002952D01*
X45406373Y-37042976D01*
X45205159Y-37083000D01*
X44794841Y-37083000D01*
X44593627Y-37042976D01*
X44392411Y-37002952D01*
X44013329Y-36845931D01*
X43672165Y-36617972D01*
X43382028Y-36327835D01*
X43154069Y-35986671D01*
X42997048Y-35607589D01*
X42934353Y-35292400D01*
X42917000Y-35205159D01*
X42917000Y-34794841D01*
X42997048Y-34392412D01*
X43154068Y-34013331D01*
X43382028Y-33672165D01*
X43672165Y-33382028D01*
X44013329Y-33154069D01*
X44392411Y-32997048D01*
X44593627Y-32957024D01*
X44794841Y-32917000D01*
X45205159Y-32917000D01*
X45406373Y-32957024D01*
X45406373Y-32957024D01*
G37*
G36*
X74658015Y-35056973D02*
G01*
X74761879Y-35088479D01*
X74789055Y-35103005D01*
X74857600Y-35139643D01*
X74941501Y-35208499D01*
X75010357Y-35292400D01*
X75046995Y-35360945D01*
X75061521Y-35388121D01*
X75093027Y-35491985D01*
X75103666Y-35600000D01*
X75093027Y-35708015D01*
X75061521Y-35811879D01*
X75061519Y-35811882D01*
X75010357Y-35907600D01*
X74941501Y-35991501D01*
X74857600Y-36060357D01*
X74789055Y-36096995D01*
X74761879Y-36111521D01*
X74658015Y-36143027D01*
X74577067Y-36151000D01*
X73422933Y-36151000D01*
X73341985Y-36143027D01*
X73238121Y-36111521D01*
X73210945Y-36096995D01*
X73142400Y-36060357D01*
X73058499Y-35991501D01*
X72989643Y-35907600D01*
X72938481Y-35811882D01*
X72938479Y-35811879D01*
X72906973Y-35708015D01*
X72896334Y-35600000D01*
X72906973Y-35491985D01*
X72938479Y-35388121D01*
X72953005Y-35360945D01*
X72989643Y-35292400D01*
X73058499Y-35208499D01*
X73142400Y-35139643D01*
X73210945Y-35103005D01*
X73238121Y-35088479D01*
X73341985Y-35056973D01*
X73422933Y-35049000D01*
X74577067Y-35049000D01*
X74658015Y-35056973D01*
X74658015Y-35056973D01*
G37*
M02*
