M48
; DRILL file {KiCad (5.1.0)-1} date 5/27/2019 5:54:18 PM
; FORMAT={2:4/ absolute / inch / suppress leading zeros}
; #@! TF.CreationDate,2019-05-27T17:54:18-04:00
; #@! TF.GenerationSoftware,Kicad,Pcbnew,(5.1.0)-1
; #@! TF.FileFunction,Plated,1,2,PTH
FMAT,2
INCH,TZ
T1C0.1260
T2C0.2441
T3C0.2953
%
G90
G05
T1
X13878Y-54823
X13878Y-19390
X14764Y-12992
X14764Y-61220
X28740Y-61220
X28740Y-12992
X29626Y-54823
X29626Y-19390
T2
X25689Y-21358
X25689Y-33169
X25689Y-44980
X21752Y-50886
X25689Y-39075
X25689Y-27264
T3
X26673Y-50886
X17815Y-44980
X17815Y-33169
X17815Y-21358
X16831Y-50886
X17815Y-27264
X17815Y-39075
T0
M30
