G04 #@! TF.GenerationSoftware,KiCad,Pcbnew,(5.1.0)-1*
G04 #@! TF.CreationDate,2019-05-27T17:54:16-04:00*
G04 #@! TF.ProjectId,VCA_Panel,5643415f-5061-46e6-956c-2e6b69636164,rev?*
G04 #@! TF.SameCoordinates,Original*
G04 #@! TF.FileFunction,Soldermask,Bot*
G04 #@! TF.FilePolarity,Negative*
%FSLAX46Y46*%
G04 Gerber Fmt 4.6, Leading zero omitted, Abs format (unit mm)*
G04 Created by KiCad (PCBNEW (5.1.0)-1) date 2019-05-27 17:54:16*
%MOMM*%
%LPD*%
G04 APERTURE LIST*
%ADD10C,0.100000*%
G04 APERTURE END LIST*
D10*
G36*
X73406373Y-153457024D02*
G01*
X73607589Y-153497048D01*
X73986671Y-153654069D01*
X74327835Y-153882028D01*
X74617972Y-154172165D01*
X74845931Y-154513329D01*
X75002952Y-154892411D01*
X75083000Y-155294842D01*
X75083000Y-155705158D01*
X75002952Y-156107589D01*
X74845931Y-156486671D01*
X74617972Y-156827835D01*
X74327835Y-157117972D01*
X73986671Y-157345931D01*
X73607589Y-157502952D01*
X73406373Y-157542976D01*
X73205159Y-157583000D01*
X72794841Y-157583000D01*
X72593627Y-157542976D01*
X72392411Y-157502952D01*
X72013329Y-157345931D01*
X71672165Y-157117972D01*
X71382028Y-156827835D01*
X71154069Y-156486671D01*
X70997048Y-156107589D01*
X70917000Y-155705158D01*
X70917000Y-155294842D01*
X70997048Y-154892411D01*
X71154069Y-154513329D01*
X71382028Y-154172165D01*
X71672165Y-153882028D01*
X72013329Y-153654069D01*
X72392411Y-153497048D01*
X72593627Y-153457024D01*
X72794841Y-153417000D01*
X73205159Y-153417000D01*
X73406373Y-153457024D01*
X73406373Y-153457024D01*
G37*
G36*
X37906373Y-153457024D02*
G01*
X38107589Y-153497048D01*
X38486671Y-153654069D01*
X38827835Y-153882028D01*
X39117972Y-154172165D01*
X39345931Y-154513329D01*
X39502952Y-154892411D01*
X39583000Y-155294842D01*
X39583000Y-155705158D01*
X39502952Y-156107589D01*
X39345931Y-156486671D01*
X39117972Y-156827835D01*
X38827835Y-157117972D01*
X38486671Y-157345931D01*
X38107589Y-157502952D01*
X37906373Y-157542976D01*
X37705159Y-157583000D01*
X37294841Y-157583000D01*
X37093627Y-157542976D01*
X36892411Y-157502952D01*
X36513329Y-157345931D01*
X36172165Y-157117972D01*
X35882028Y-156827835D01*
X35654069Y-156486671D01*
X35497048Y-156107589D01*
X35417000Y-155705158D01*
X35417000Y-155294842D01*
X35497048Y-154892411D01*
X35654069Y-154513329D01*
X35882028Y-154172165D01*
X36172165Y-153882028D01*
X36513329Y-153654069D01*
X36892411Y-153497048D01*
X37093627Y-153457024D01*
X37294841Y-153417000D01*
X37705159Y-153417000D01*
X37906373Y-153457024D01*
X37906373Y-153457024D01*
G37*
G36*
X35656373Y-137207024D02*
G01*
X35857589Y-137247048D01*
X36236671Y-137404069D01*
X36577835Y-137632028D01*
X36867972Y-137922165D01*
X37095931Y-138263329D01*
X37252952Y-138642411D01*
X37333000Y-139044842D01*
X37333000Y-139455158D01*
X37252952Y-139857589D01*
X37095931Y-140236671D01*
X36867972Y-140577835D01*
X36577835Y-140867972D01*
X36236671Y-141095931D01*
X35857589Y-141252952D01*
X35455159Y-141333000D01*
X35044841Y-141333000D01*
X34642411Y-141252952D01*
X34263329Y-141095931D01*
X33922165Y-140867972D01*
X33632028Y-140577835D01*
X33404069Y-140236671D01*
X33247048Y-139857589D01*
X33167000Y-139455158D01*
X33167000Y-139044842D01*
X33247048Y-138642411D01*
X33404069Y-138263329D01*
X33632028Y-137922165D01*
X33922165Y-137632028D01*
X34263329Y-137404069D01*
X34642411Y-137247048D01*
X34843627Y-137207024D01*
X35044841Y-137167000D01*
X35455159Y-137167000D01*
X35656373Y-137207024D01*
X35656373Y-137207024D01*
G37*
G36*
X75656373Y-137207024D02*
G01*
X75857589Y-137247048D01*
X76236671Y-137404069D01*
X76577835Y-137632028D01*
X76867972Y-137922165D01*
X77095931Y-138263329D01*
X77252952Y-138642411D01*
X77333000Y-139044842D01*
X77333000Y-139455158D01*
X77252952Y-139857589D01*
X77095931Y-140236671D01*
X76867972Y-140577835D01*
X76577835Y-140867972D01*
X76236671Y-141095931D01*
X75857589Y-141252952D01*
X75455159Y-141333000D01*
X75044841Y-141333000D01*
X74642411Y-141252952D01*
X74263329Y-141095931D01*
X73922165Y-140867972D01*
X73632028Y-140577835D01*
X73404069Y-140236671D01*
X73247048Y-139857589D01*
X73167000Y-139455158D01*
X73167000Y-139044842D01*
X73247048Y-138642411D01*
X73404069Y-138263329D01*
X73632028Y-137922165D01*
X73922165Y-137632028D01*
X74263329Y-137404069D01*
X74642411Y-137247048D01*
X74843627Y-137207024D01*
X75044841Y-137167000D01*
X75455159Y-137167000D01*
X75656373Y-137207024D01*
X75656373Y-137207024D01*
G37*
G36*
X69004554Y-125114284D02*
G01*
X69787286Y-125438502D01*
X69787288Y-125438503D01*
X70491728Y-125909195D01*
X71090805Y-126508272D01*
X71561497Y-127212712D01*
X71561498Y-127212714D01*
X71885716Y-127995446D01*
X72051000Y-128826387D01*
X72051000Y-129673613D01*
X71885716Y-130504554D01*
X71885715Y-130504556D01*
X71561497Y-131287288D01*
X71090805Y-131991728D01*
X70491728Y-132590805D01*
X69787288Y-133061497D01*
X69787287Y-133061498D01*
X69787286Y-133061498D01*
X69004554Y-133385716D01*
X68173613Y-133551000D01*
X67326387Y-133551000D01*
X66495446Y-133385716D01*
X65712714Y-133061498D01*
X65712713Y-133061498D01*
X65712712Y-133061497D01*
X65008272Y-132590805D01*
X64409195Y-131991728D01*
X63938503Y-131287288D01*
X63614285Y-130504556D01*
X63614284Y-130504554D01*
X63449000Y-129673613D01*
X63449000Y-128826387D01*
X63614284Y-127995446D01*
X63938502Y-127212714D01*
X63938503Y-127212712D01*
X64409195Y-126508272D01*
X65008272Y-125909195D01*
X65712712Y-125438503D01*
X65712714Y-125438502D01*
X66495446Y-125114284D01*
X67326387Y-124949000D01*
X68173613Y-124949000D01*
X69004554Y-125114284D01*
X69004554Y-125114284D01*
G37*
G36*
X44004554Y-125114284D02*
G01*
X44787286Y-125438502D01*
X44787288Y-125438503D01*
X45491728Y-125909195D01*
X46090805Y-126508272D01*
X46561497Y-127212712D01*
X46561498Y-127212714D01*
X46885716Y-127995446D01*
X47051000Y-128826387D01*
X47051000Y-129673613D01*
X46885716Y-130504554D01*
X46885715Y-130504556D01*
X46561497Y-131287288D01*
X46090805Y-131991728D01*
X45491728Y-132590805D01*
X44787288Y-133061497D01*
X44787287Y-133061498D01*
X44787286Y-133061498D01*
X44004554Y-133385716D01*
X43173613Y-133551000D01*
X42326387Y-133551000D01*
X41495446Y-133385716D01*
X40712714Y-133061498D01*
X40712713Y-133061498D01*
X40712712Y-133061497D01*
X40008272Y-132590805D01*
X39409195Y-131991728D01*
X38938503Y-131287288D01*
X38614285Y-130504556D01*
X38614284Y-130504554D01*
X38449000Y-129673613D01*
X38449000Y-128826387D01*
X38614284Y-127995446D01*
X38938502Y-127212714D01*
X38938503Y-127212712D01*
X39409195Y-126508272D01*
X40008272Y-125909195D01*
X40712712Y-125438503D01*
X40712714Y-125438502D01*
X41495446Y-125114284D01*
X42326387Y-124949000D01*
X43173613Y-124949000D01*
X44004554Y-125114284D01*
X44004554Y-125114284D01*
G37*
G36*
X56431632Y-125354677D02*
G01*
X56634003Y-125438502D01*
X57168868Y-125660050D01*
X57832362Y-126103383D01*
X58396617Y-126667638D01*
X58839950Y-127331132D01*
X59018833Y-127762995D01*
X59145323Y-128068368D01*
X59301000Y-128851010D01*
X59301000Y-129648990D01*
X59145323Y-130431632D01*
X59018833Y-130737005D01*
X58839950Y-131168868D01*
X58396617Y-131832362D01*
X57832362Y-132396617D01*
X57168868Y-132839950D01*
X56737005Y-133018833D01*
X56431632Y-133145323D01*
X55648990Y-133301000D01*
X54851010Y-133301000D01*
X54068368Y-133145323D01*
X53762995Y-133018833D01*
X53331132Y-132839950D01*
X52667638Y-132396617D01*
X52103383Y-131832362D01*
X51660050Y-131168868D01*
X51481167Y-130737005D01*
X51354677Y-130431632D01*
X51199000Y-129648990D01*
X51199000Y-128851010D01*
X51354677Y-128068368D01*
X51481167Y-127762995D01*
X51660050Y-127331132D01*
X52103383Y-126667638D01*
X52667638Y-126103383D01*
X53331132Y-125660050D01*
X53865997Y-125438502D01*
X54068368Y-125354677D01*
X54851010Y-125199000D01*
X55648990Y-125199000D01*
X56431632Y-125354677D01*
X56431632Y-125354677D01*
G37*
G36*
X46504554Y-110114284D02*
G01*
X47287286Y-110438502D01*
X47287288Y-110438503D01*
X47991728Y-110909195D01*
X48590805Y-111508272D01*
X49061497Y-112212712D01*
X49061498Y-112212714D01*
X49385716Y-112995446D01*
X49551000Y-113826387D01*
X49551000Y-114673613D01*
X49385716Y-115504554D01*
X49385715Y-115504556D01*
X49061497Y-116287288D01*
X48590805Y-116991728D01*
X47991728Y-117590805D01*
X47287288Y-118061497D01*
X47287287Y-118061498D01*
X47287286Y-118061498D01*
X46504554Y-118385716D01*
X45673613Y-118551000D01*
X44826387Y-118551000D01*
X43995446Y-118385716D01*
X43212714Y-118061498D01*
X43212713Y-118061498D01*
X43212712Y-118061497D01*
X42508272Y-117590805D01*
X41909195Y-116991728D01*
X41438503Y-116287288D01*
X41114285Y-115504556D01*
X41114284Y-115504554D01*
X40949000Y-114673613D01*
X40949000Y-113826387D01*
X41114284Y-112995446D01*
X41438502Y-112212714D01*
X41438503Y-112212712D01*
X41909195Y-111508272D01*
X42508272Y-110909195D01*
X43212712Y-110438503D01*
X43212714Y-110438502D01*
X43995446Y-110114284D01*
X44826387Y-109949000D01*
X45673613Y-109949000D01*
X46504554Y-110114284D01*
X46504554Y-110114284D01*
G37*
G36*
X66431632Y-110354677D02*
G01*
X66634003Y-110438502D01*
X67168868Y-110660050D01*
X67832362Y-111103383D01*
X68396617Y-111667638D01*
X68839950Y-112331132D01*
X69018833Y-112762995D01*
X69145323Y-113068368D01*
X69301000Y-113851010D01*
X69301000Y-114648990D01*
X69145323Y-115431632D01*
X69018833Y-115737005D01*
X68839950Y-116168868D01*
X68396617Y-116832362D01*
X67832362Y-117396617D01*
X67168868Y-117839950D01*
X66737005Y-118018833D01*
X66431632Y-118145323D01*
X65648990Y-118301000D01*
X64851010Y-118301000D01*
X64068368Y-118145323D01*
X63762995Y-118018833D01*
X63331132Y-117839950D01*
X62667638Y-117396617D01*
X62103383Y-116832362D01*
X61660050Y-116168868D01*
X61481167Y-115737005D01*
X61354677Y-115431632D01*
X61199000Y-114648990D01*
X61199000Y-113851010D01*
X61354677Y-113068368D01*
X61481167Y-112762995D01*
X61660050Y-112331132D01*
X62103383Y-111667638D01*
X62667638Y-111103383D01*
X63331132Y-110660050D01*
X63865997Y-110438502D01*
X64068368Y-110354677D01*
X64851010Y-110199000D01*
X65648990Y-110199000D01*
X66431632Y-110354677D01*
X66431632Y-110354677D01*
G37*
G36*
X46504554Y-95114284D02*
G01*
X47287286Y-95438502D01*
X47287288Y-95438503D01*
X47991728Y-95909195D01*
X48590805Y-96508272D01*
X49061497Y-97212712D01*
X49061498Y-97212714D01*
X49385716Y-97995446D01*
X49551000Y-98826387D01*
X49551000Y-99673613D01*
X49385716Y-100504554D01*
X49385715Y-100504556D01*
X49061497Y-101287288D01*
X48590805Y-101991728D01*
X47991728Y-102590805D01*
X47287288Y-103061497D01*
X47287287Y-103061498D01*
X47287286Y-103061498D01*
X46504554Y-103385716D01*
X45673613Y-103551000D01*
X44826387Y-103551000D01*
X43995446Y-103385716D01*
X43212714Y-103061498D01*
X43212713Y-103061498D01*
X43212712Y-103061497D01*
X42508272Y-102590805D01*
X41909195Y-101991728D01*
X41438503Y-101287288D01*
X41114285Y-100504556D01*
X41114284Y-100504554D01*
X40949000Y-99673613D01*
X40949000Y-98826387D01*
X41114284Y-97995446D01*
X41438502Y-97212714D01*
X41438503Y-97212712D01*
X41909195Y-96508272D01*
X42508272Y-95909195D01*
X43212712Y-95438503D01*
X43212714Y-95438502D01*
X43995446Y-95114284D01*
X44826387Y-94949000D01*
X45673613Y-94949000D01*
X46504554Y-95114284D01*
X46504554Y-95114284D01*
G37*
G36*
X66431632Y-95354677D02*
G01*
X66634003Y-95438502D01*
X67168868Y-95660050D01*
X67832362Y-96103383D01*
X68396617Y-96667638D01*
X68839950Y-97331132D01*
X69018833Y-97762995D01*
X69145323Y-98068368D01*
X69301000Y-98851010D01*
X69301000Y-99648990D01*
X69145323Y-100431632D01*
X69018833Y-100737005D01*
X68839950Y-101168868D01*
X68396617Y-101832362D01*
X67832362Y-102396617D01*
X67168868Y-102839950D01*
X66737005Y-103018833D01*
X66431632Y-103145323D01*
X65648990Y-103301000D01*
X64851010Y-103301000D01*
X64068368Y-103145323D01*
X63762995Y-103018833D01*
X63331132Y-102839950D01*
X62667638Y-102396617D01*
X62103383Y-101832362D01*
X61660050Y-101168868D01*
X61481167Y-100737005D01*
X61354677Y-100431632D01*
X61199000Y-99648990D01*
X61199000Y-98851010D01*
X61354677Y-98068368D01*
X61481167Y-97762995D01*
X61660050Y-97331132D01*
X62103383Y-96667638D01*
X62667638Y-96103383D01*
X63331132Y-95660050D01*
X63865997Y-95438502D01*
X64068368Y-95354677D01*
X64851010Y-95199000D01*
X65648990Y-95199000D01*
X66431632Y-95354677D01*
X66431632Y-95354677D01*
G37*
G36*
X46504554Y-80114284D02*
G01*
X47287286Y-80438502D01*
X47287288Y-80438503D01*
X47991728Y-80909195D01*
X48590805Y-81508272D01*
X49061497Y-82212712D01*
X49061498Y-82212714D01*
X49385716Y-82995446D01*
X49551000Y-83826387D01*
X49551000Y-84673613D01*
X49385716Y-85504554D01*
X49385715Y-85504556D01*
X49061497Y-86287288D01*
X48590805Y-86991728D01*
X47991728Y-87590805D01*
X47287288Y-88061497D01*
X47287287Y-88061498D01*
X47287286Y-88061498D01*
X46504554Y-88385716D01*
X45673613Y-88551000D01*
X44826387Y-88551000D01*
X43995446Y-88385716D01*
X43212714Y-88061498D01*
X43212713Y-88061498D01*
X43212712Y-88061497D01*
X42508272Y-87590805D01*
X41909195Y-86991728D01*
X41438503Y-86287288D01*
X41114285Y-85504556D01*
X41114284Y-85504554D01*
X40949000Y-84673613D01*
X40949000Y-83826387D01*
X41114284Y-82995446D01*
X41438502Y-82212714D01*
X41438503Y-82212712D01*
X41909195Y-81508272D01*
X42508272Y-80909195D01*
X43212712Y-80438503D01*
X43212714Y-80438502D01*
X43995446Y-80114284D01*
X44826387Y-79949000D01*
X45673613Y-79949000D01*
X46504554Y-80114284D01*
X46504554Y-80114284D01*
G37*
G36*
X66431632Y-80354677D02*
G01*
X66634003Y-80438502D01*
X67168868Y-80660050D01*
X67832362Y-81103383D01*
X68396617Y-81667638D01*
X68839950Y-82331132D01*
X69018833Y-82762995D01*
X69145323Y-83068368D01*
X69301000Y-83851010D01*
X69301000Y-84648990D01*
X69145323Y-85431632D01*
X69018833Y-85737005D01*
X68839950Y-86168868D01*
X68396617Y-86832362D01*
X67832362Y-87396617D01*
X67168868Y-87839950D01*
X66737005Y-88018833D01*
X66431632Y-88145323D01*
X65648990Y-88301000D01*
X64851010Y-88301000D01*
X64068368Y-88145323D01*
X63762995Y-88018833D01*
X63331132Y-87839950D01*
X62667638Y-87396617D01*
X62103383Y-86832362D01*
X61660050Y-86168868D01*
X61481167Y-85737005D01*
X61354677Y-85431632D01*
X61199000Y-84648990D01*
X61199000Y-83851010D01*
X61354677Y-83068368D01*
X61481167Y-82762995D01*
X61660050Y-82331132D01*
X62103383Y-81667638D01*
X62667638Y-81103383D01*
X63331132Y-80660050D01*
X63865997Y-80438502D01*
X64068368Y-80354677D01*
X64851010Y-80199000D01*
X65648990Y-80199000D01*
X66431632Y-80354677D01*
X66431632Y-80354677D01*
G37*
G36*
X46504554Y-65114284D02*
G01*
X47287286Y-65438502D01*
X47287288Y-65438503D01*
X47991728Y-65909195D01*
X48590805Y-66508272D01*
X49061497Y-67212712D01*
X49061498Y-67212714D01*
X49385716Y-67995446D01*
X49551000Y-68826387D01*
X49551000Y-69673613D01*
X49385716Y-70504554D01*
X49385715Y-70504556D01*
X49061497Y-71287288D01*
X48590805Y-71991728D01*
X47991728Y-72590805D01*
X47287288Y-73061497D01*
X47287287Y-73061498D01*
X47287286Y-73061498D01*
X46504554Y-73385716D01*
X45673613Y-73551000D01*
X44826387Y-73551000D01*
X43995446Y-73385716D01*
X43212714Y-73061498D01*
X43212713Y-73061498D01*
X43212712Y-73061497D01*
X42508272Y-72590805D01*
X41909195Y-71991728D01*
X41438503Y-71287288D01*
X41114285Y-70504556D01*
X41114284Y-70504554D01*
X40949000Y-69673613D01*
X40949000Y-68826387D01*
X41114284Y-67995446D01*
X41438502Y-67212714D01*
X41438503Y-67212712D01*
X41909195Y-66508272D01*
X42508272Y-65909195D01*
X43212712Y-65438503D01*
X43212714Y-65438502D01*
X43995446Y-65114284D01*
X44826387Y-64949000D01*
X45673613Y-64949000D01*
X46504554Y-65114284D01*
X46504554Y-65114284D01*
G37*
G36*
X66431632Y-65354677D02*
G01*
X66634003Y-65438502D01*
X67168868Y-65660050D01*
X67832362Y-66103383D01*
X68396617Y-66667638D01*
X68839950Y-67331132D01*
X69018833Y-67762995D01*
X69145323Y-68068368D01*
X69301000Y-68851010D01*
X69301000Y-69648990D01*
X69145323Y-70431632D01*
X69018833Y-70737005D01*
X68839950Y-71168868D01*
X68396617Y-71832362D01*
X67832362Y-72396617D01*
X67168868Y-72839950D01*
X66737005Y-73018833D01*
X66431632Y-73145323D01*
X65648990Y-73301000D01*
X64851010Y-73301000D01*
X64068368Y-73145323D01*
X63762995Y-73018833D01*
X63331132Y-72839950D01*
X62667638Y-72396617D01*
X62103383Y-71832362D01*
X61660050Y-71168868D01*
X61481167Y-70737005D01*
X61354677Y-70431632D01*
X61199000Y-69648990D01*
X61199000Y-68851010D01*
X61354677Y-68068368D01*
X61481167Y-67762995D01*
X61660050Y-67331132D01*
X62103383Y-66667638D01*
X62667638Y-66103383D01*
X63331132Y-65660050D01*
X63865997Y-65438502D01*
X64068368Y-65354677D01*
X64851010Y-65199000D01*
X65648990Y-65199000D01*
X66431632Y-65354677D01*
X66431632Y-65354677D01*
G37*
G36*
X46504554Y-50114284D02*
G01*
X47287286Y-50438502D01*
X47287288Y-50438503D01*
X47991728Y-50909195D01*
X48590805Y-51508272D01*
X49061497Y-52212712D01*
X49061498Y-52212714D01*
X49385716Y-52995446D01*
X49551000Y-53826387D01*
X49551000Y-54673613D01*
X49385716Y-55504554D01*
X49385715Y-55504556D01*
X49061497Y-56287288D01*
X48590805Y-56991728D01*
X47991728Y-57590805D01*
X47287288Y-58061497D01*
X47287287Y-58061498D01*
X47287286Y-58061498D01*
X46504554Y-58385716D01*
X45673613Y-58551000D01*
X44826387Y-58551000D01*
X43995446Y-58385716D01*
X43212714Y-58061498D01*
X43212713Y-58061498D01*
X43212712Y-58061497D01*
X42508272Y-57590805D01*
X41909195Y-56991728D01*
X41438503Y-56287288D01*
X41114285Y-55504556D01*
X41114284Y-55504554D01*
X40949000Y-54673613D01*
X40949000Y-53826387D01*
X41114284Y-52995446D01*
X41438502Y-52212714D01*
X41438503Y-52212712D01*
X41909195Y-51508272D01*
X42508272Y-50909195D01*
X43212712Y-50438503D01*
X43212714Y-50438502D01*
X43995446Y-50114284D01*
X44826387Y-49949000D01*
X45673613Y-49949000D01*
X46504554Y-50114284D01*
X46504554Y-50114284D01*
G37*
G36*
X66431632Y-50354677D02*
G01*
X66634003Y-50438502D01*
X67168868Y-50660050D01*
X67832362Y-51103383D01*
X68396617Y-51667638D01*
X68839950Y-52331132D01*
X69018833Y-52762995D01*
X69145323Y-53068368D01*
X69301000Y-53851010D01*
X69301000Y-54648990D01*
X69145323Y-55431632D01*
X69018833Y-55737005D01*
X68839950Y-56168868D01*
X68396617Y-56832362D01*
X67832362Y-57396617D01*
X67168868Y-57839950D01*
X66737005Y-58018833D01*
X66431632Y-58145323D01*
X65648990Y-58301000D01*
X64851010Y-58301000D01*
X64068368Y-58145323D01*
X63762995Y-58018833D01*
X63331132Y-57839950D01*
X62667638Y-57396617D01*
X62103383Y-56832362D01*
X61660050Y-56168868D01*
X61481167Y-55737005D01*
X61354677Y-55431632D01*
X61199000Y-54648990D01*
X61199000Y-53851010D01*
X61354677Y-53068368D01*
X61481167Y-52762995D01*
X61660050Y-52331132D01*
X62103383Y-51667638D01*
X62667638Y-51103383D01*
X63331132Y-50660050D01*
X63865997Y-50438502D01*
X64068368Y-50354677D01*
X64851010Y-50199000D01*
X65648990Y-50199000D01*
X66431632Y-50354677D01*
X66431632Y-50354677D01*
G37*
G36*
X35857589Y-47247048D02*
G01*
X36236671Y-47404069D01*
X36577835Y-47632028D01*
X36867972Y-47922165D01*
X37095931Y-48263329D01*
X37252952Y-48642411D01*
X37333000Y-49044842D01*
X37333000Y-49455158D01*
X37252952Y-49857589D01*
X37095931Y-50236671D01*
X36867972Y-50577835D01*
X36577835Y-50867972D01*
X36236671Y-51095931D01*
X36236670Y-51095932D01*
X36236669Y-51095932D01*
X36125639Y-51141922D01*
X35857589Y-51252952D01*
X35455159Y-51333000D01*
X35044841Y-51333000D01*
X34642411Y-51252952D01*
X34374361Y-51141922D01*
X34263331Y-51095932D01*
X34263330Y-51095932D01*
X34263329Y-51095931D01*
X33922165Y-50867972D01*
X33632028Y-50577835D01*
X33404069Y-50236671D01*
X33247048Y-49857589D01*
X33167000Y-49455158D01*
X33167000Y-49044842D01*
X33247048Y-48642411D01*
X33404069Y-48263329D01*
X33632028Y-47922165D01*
X33922165Y-47632028D01*
X34263329Y-47404069D01*
X34642411Y-47247048D01*
X35044841Y-47167000D01*
X35455159Y-47167000D01*
X35857589Y-47247048D01*
X35857589Y-47247048D01*
G37*
G36*
X75857589Y-47247048D02*
G01*
X76236671Y-47404069D01*
X76577835Y-47632028D01*
X76867972Y-47922165D01*
X77095931Y-48263329D01*
X77252952Y-48642411D01*
X77333000Y-49044842D01*
X77333000Y-49455158D01*
X77252952Y-49857589D01*
X77095931Y-50236671D01*
X76867972Y-50577835D01*
X76577835Y-50867972D01*
X76236671Y-51095931D01*
X76236670Y-51095932D01*
X76236669Y-51095932D01*
X76125639Y-51141922D01*
X75857589Y-51252952D01*
X75455159Y-51333000D01*
X75044841Y-51333000D01*
X74642411Y-51252952D01*
X74374361Y-51141922D01*
X74263331Y-51095932D01*
X74263330Y-51095932D01*
X74263329Y-51095931D01*
X73922165Y-50867972D01*
X73632028Y-50577835D01*
X73404069Y-50236671D01*
X73247048Y-49857589D01*
X73167000Y-49455158D01*
X73167000Y-49044842D01*
X73247048Y-48642411D01*
X73404069Y-48263329D01*
X73632028Y-47922165D01*
X73922165Y-47632028D01*
X74263329Y-47404069D01*
X74642411Y-47247048D01*
X75044841Y-47167000D01*
X75455159Y-47167000D01*
X75857589Y-47247048D01*
X75857589Y-47247048D01*
G37*
G36*
X37906373Y-30957024D02*
G01*
X38107589Y-30997048D01*
X38486671Y-31154069D01*
X38827835Y-31382028D01*
X39117972Y-31672165D01*
X39345931Y-32013329D01*
X39502952Y-32392411D01*
X39583000Y-32794842D01*
X39583000Y-33205158D01*
X39502952Y-33607589D01*
X39345931Y-33986671D01*
X39117972Y-34327835D01*
X38827835Y-34617972D01*
X38486671Y-34845931D01*
X38107589Y-35002952D01*
X37906373Y-35042976D01*
X37705159Y-35083000D01*
X37294841Y-35083000D01*
X37093627Y-35042976D01*
X36892411Y-35002952D01*
X36513329Y-34845931D01*
X36172165Y-34617972D01*
X35882028Y-34327835D01*
X35654069Y-33986671D01*
X35497048Y-33607589D01*
X35417000Y-33205158D01*
X35417000Y-32794842D01*
X35497048Y-32392411D01*
X35654069Y-32013329D01*
X35882028Y-31672165D01*
X36172165Y-31382028D01*
X36513329Y-31154069D01*
X36892411Y-30997048D01*
X37093627Y-30957024D01*
X37294841Y-30917000D01*
X37705159Y-30917000D01*
X37906373Y-30957024D01*
X37906373Y-30957024D01*
G37*
G36*
X73406373Y-30957024D02*
G01*
X73607589Y-30997048D01*
X73986671Y-31154069D01*
X74327835Y-31382028D01*
X74617972Y-31672165D01*
X74845931Y-32013329D01*
X75002952Y-32392411D01*
X75083000Y-32794842D01*
X75083000Y-33205158D01*
X75002952Y-33607589D01*
X74845931Y-33986671D01*
X74617972Y-34327835D01*
X74327835Y-34617972D01*
X73986671Y-34845931D01*
X73607589Y-35002952D01*
X73406373Y-35042976D01*
X73205159Y-35083000D01*
X72794841Y-35083000D01*
X72593627Y-35042976D01*
X72392411Y-35002952D01*
X72013329Y-34845931D01*
X71672165Y-34617972D01*
X71382028Y-34327835D01*
X71154069Y-33986671D01*
X70997048Y-33607589D01*
X70917000Y-33205158D01*
X70917000Y-32794842D01*
X70997048Y-32392411D01*
X71154069Y-32013329D01*
X71382028Y-31672165D01*
X71672165Y-31382028D01*
X72013329Y-31154069D01*
X72392411Y-30997048D01*
X72593627Y-30957024D01*
X72794841Y-30917000D01*
X73205159Y-30917000D01*
X73406373Y-30957024D01*
X73406373Y-30957024D01*
G37*
M02*
