G04 #@! TF.GenerationSoftware,KiCad,Pcbnew,(5.1.0)-1*
G04 #@! TF.CreationDate,2019-05-27T17:54:16-04:00*
G04 #@! TF.ProjectId,VCA_Panel,5643415f-5061-46e6-956c-2e6b69636164,rev?*
G04 #@! TF.SameCoordinates,Original*
G04 #@! TF.FileFunction,Legend,Bot*
G04 #@! TF.FilePolarity,Positive*
%FSLAX46Y46*%
G04 Gerber Fmt 4.6, Leading zero omitted, Abs format (unit mm)*
G04 Created by KiCad (PCBNEW (5.1.0)-1) date 2019-05-27 17:54:16*
%MOMM*%
%LPD*%
G04 APERTURE LIST*
%ADD10C,0.250000*%
%ADD11C,0.350000*%
%ADD12C,0.010000*%
%ADD13C,0.120000*%
%ADD14C,0.200000*%
G04 APERTURE END LIST*
D10*
X72000000Y-119500000D02*
X69000000Y-119500000D01*
X72000000Y-60000000D02*
X52000000Y-60000000D01*
X62000000Y-119500000D02*
X52000000Y-119500000D01*
X72000000Y-104500000D02*
X52000000Y-104500000D01*
X72000000Y-90000000D02*
X52000000Y-90000000D01*
X72000000Y-108000000D02*
X72000000Y-119500000D01*
X67000000Y-108000000D02*
X72000000Y-108000000D01*
X72000000Y-93000000D02*
X72000000Y-104500000D01*
X67000000Y-93000000D02*
X72000000Y-93000000D01*
X72000000Y-78500000D02*
X72000000Y-90000000D01*
X67000000Y-78500000D02*
X72000000Y-78500000D01*
X72000000Y-48500000D02*
X72000000Y-60000000D01*
X67000000Y-48500000D02*
X72000000Y-48500000D01*
X72000000Y-75000000D02*
X52000000Y-75000000D01*
X72000000Y-63500000D02*
X72000000Y-75000000D01*
X67000000Y-63500000D02*
X72000000Y-63500000D01*
D11*
X71488095Y-37229761D02*
X70821428Y-39229761D01*
X70154761Y-37229761D01*
X69107142Y-37229761D02*
X68726190Y-37229761D01*
X68535714Y-37325000D01*
X68345238Y-37515476D01*
X68250000Y-37896428D01*
X68250000Y-38563095D01*
X68345238Y-38944047D01*
X68535714Y-39134523D01*
X68726190Y-39229761D01*
X69107142Y-39229761D01*
X69297619Y-39134523D01*
X69488095Y-38944047D01*
X69583333Y-38563095D01*
X69583333Y-37896428D01*
X69488095Y-37515476D01*
X69297619Y-37325000D01*
X69107142Y-37229761D01*
X66440476Y-39229761D02*
X67392857Y-39229761D01*
X67392857Y-37229761D01*
X66059523Y-37229761D02*
X64916666Y-37229761D01*
X65488095Y-39229761D02*
X65488095Y-37229761D01*
X64345238Y-38658333D02*
X63392857Y-38658333D01*
X64535714Y-39229761D02*
X63869047Y-37229761D01*
X63202380Y-39229761D01*
X61488095Y-37325000D02*
X61678571Y-37229761D01*
X61964285Y-37229761D01*
X62250000Y-37325000D01*
X62440476Y-37515476D01*
X62535714Y-37705952D01*
X62630952Y-38086904D01*
X62630952Y-38372619D01*
X62535714Y-38753571D01*
X62440476Y-38944047D01*
X62250000Y-39134523D01*
X61964285Y-39229761D01*
X61773809Y-39229761D01*
X61488095Y-39134523D01*
X61392857Y-39039285D01*
X61392857Y-38372619D01*
X61773809Y-38372619D01*
X60535714Y-38182142D02*
X59869047Y-38182142D01*
X59583333Y-39229761D02*
X60535714Y-39229761D01*
X60535714Y-37229761D01*
X59583333Y-37229761D01*
X56059523Y-39039285D02*
X56154761Y-39134523D01*
X56440476Y-39229761D01*
X56630952Y-39229761D01*
X56916666Y-39134523D01*
X57107142Y-38944047D01*
X57202380Y-38753571D01*
X57297619Y-38372619D01*
X57297619Y-38086904D01*
X57202380Y-37705952D01*
X57107142Y-37515476D01*
X56916666Y-37325000D01*
X56630952Y-37229761D01*
X56440476Y-37229761D01*
X56154761Y-37325000D01*
X56059523Y-37420238D01*
X54821428Y-37229761D02*
X54440476Y-37229761D01*
X54250000Y-37325000D01*
X54059523Y-37515476D01*
X53964285Y-37896428D01*
X53964285Y-38563095D01*
X54059523Y-38944047D01*
X54250000Y-39134523D01*
X54440476Y-39229761D01*
X54821428Y-39229761D01*
X55011904Y-39134523D01*
X55202380Y-38944047D01*
X55297619Y-38563095D01*
X55297619Y-37896428D01*
X55202380Y-37515476D01*
X55011904Y-37325000D01*
X54821428Y-37229761D01*
X53107142Y-39229761D02*
X53107142Y-37229761D01*
X51964285Y-39229761D01*
X51964285Y-37229761D01*
X51297619Y-37229761D02*
X50154761Y-37229761D01*
X50726190Y-39229761D02*
X50726190Y-37229761D01*
X48345238Y-39229761D02*
X49011904Y-38277380D01*
X49488095Y-39229761D02*
X49488095Y-37229761D01*
X48726190Y-37229761D01*
X48535714Y-37325000D01*
X48440476Y-37420238D01*
X48345238Y-37610714D01*
X48345238Y-37896428D01*
X48440476Y-38086904D01*
X48535714Y-38182142D01*
X48726190Y-38277380D01*
X49488095Y-38277380D01*
X47107142Y-37229761D02*
X46726190Y-37229761D01*
X46535714Y-37325000D01*
X46345238Y-37515476D01*
X46250000Y-37896428D01*
X46250000Y-38563095D01*
X46345238Y-38944047D01*
X46535714Y-39134523D01*
X46726190Y-39229761D01*
X47107142Y-39229761D01*
X47297619Y-39134523D01*
X47488095Y-38944047D01*
X47583333Y-38563095D01*
X47583333Y-37896428D01*
X47488095Y-37515476D01*
X47297619Y-37325000D01*
X47107142Y-37229761D01*
X44440476Y-39229761D02*
X45392857Y-39229761D01*
X45392857Y-37229761D01*
X42821428Y-39229761D02*
X43773809Y-39229761D01*
X43773809Y-37229761D01*
X42154761Y-38182142D02*
X41488095Y-38182142D01*
X41202380Y-39229761D02*
X42154761Y-39229761D01*
X42154761Y-37229761D01*
X41202380Y-37229761D01*
X40345238Y-39229761D02*
X40345238Y-37229761D01*
X39869047Y-37229761D01*
X39583333Y-37325000D01*
X39392857Y-37515476D01*
X39297619Y-37705952D01*
X39202380Y-38086904D01*
X39202380Y-38372619D01*
X39297619Y-38753571D01*
X39392857Y-38944047D01*
X39583333Y-39134523D01*
X39869047Y-39229761D01*
X40345238Y-39229761D01*
X69440476Y-42008333D02*
X68488095Y-42008333D01*
X69630952Y-42579761D02*
X68964285Y-40579761D01*
X68297619Y-42579761D01*
X67630952Y-42579761D02*
X67630952Y-40579761D01*
X66964285Y-42008333D01*
X66297619Y-40579761D01*
X66297619Y-42579761D01*
X65345238Y-42579761D02*
X65345238Y-40579761D01*
X64583333Y-40579761D01*
X64392857Y-40675000D01*
X64297619Y-40770238D01*
X64202380Y-40960714D01*
X64202380Y-41246428D01*
X64297619Y-41436904D01*
X64392857Y-41532142D01*
X64583333Y-41627380D01*
X65345238Y-41627380D01*
X62392857Y-42579761D02*
X63345238Y-42579761D01*
X63345238Y-40579761D01*
X61726190Y-42579761D02*
X61726190Y-40579761D01*
X60107142Y-41532142D02*
X60773809Y-41532142D01*
X60773809Y-42579761D02*
X60773809Y-40579761D01*
X59821428Y-40579761D01*
X59059523Y-42579761D02*
X59059523Y-40579761D01*
X58107142Y-41532142D02*
X57440476Y-41532142D01*
X57154761Y-42579761D02*
X58107142Y-42579761D01*
X58107142Y-40579761D01*
X57154761Y-40579761D01*
X55154761Y-42579761D02*
X55821428Y-41627380D01*
X56297619Y-42579761D02*
X56297619Y-40579761D01*
X55535714Y-40579761D01*
X55345238Y-40675000D01*
X55250000Y-40770238D01*
X55154761Y-40960714D01*
X55154761Y-41246428D01*
X55250000Y-41436904D01*
X55345238Y-41532142D01*
X55535714Y-41627380D01*
X56297619Y-41627380D01*
X51345238Y-40484523D02*
X53059523Y-43055952D01*
X49154761Y-42579761D02*
X49154761Y-40579761D01*
X48488095Y-42008333D01*
X47821428Y-40579761D01*
X47821428Y-42579761D01*
X46869047Y-42579761D02*
X46869047Y-40579761D01*
X46107142Y-40579761D02*
X44773809Y-42579761D01*
X44773809Y-40579761D02*
X46107142Y-42579761D01*
X44011904Y-41532142D02*
X43345238Y-41532142D01*
X43059523Y-42579761D02*
X44011904Y-42579761D01*
X44011904Y-40579761D01*
X43059523Y-40579761D01*
X41059523Y-42579761D02*
X41726190Y-41627380D01*
X42202380Y-42579761D02*
X42202380Y-40579761D01*
X41440476Y-40579761D01*
X41250000Y-40675000D01*
X41154761Y-40770238D01*
X41059523Y-40960714D01*
X41059523Y-41246428D01*
X41154761Y-41436904D01*
X41250000Y-41532142D01*
X41440476Y-41627380D01*
X42202380Y-41627380D01*
D10*
X64107142Y-155178571D02*
X64107142Y-156250000D01*
X64178571Y-156464285D01*
X64321428Y-156607142D01*
X64535714Y-156678571D01*
X64678571Y-156678571D01*
X63107142Y-155178571D02*
X62821428Y-155178571D01*
X62678571Y-155250000D01*
X62535714Y-155392857D01*
X62464285Y-155678571D01*
X62464285Y-156178571D01*
X62535714Y-156464285D01*
X62678571Y-156607142D01*
X62821428Y-156678571D01*
X63107142Y-156678571D01*
X63250000Y-156607142D01*
X63392857Y-156464285D01*
X63464285Y-156178571D01*
X63464285Y-155678571D01*
X63392857Y-155392857D01*
X63250000Y-155250000D01*
X63107142Y-155178571D01*
X61821428Y-156678571D02*
X61821428Y-155178571D01*
X60964285Y-156678571D01*
X60964285Y-155178571D01*
X60321428Y-156250000D02*
X59607142Y-156250000D01*
X60464285Y-156678571D02*
X59964285Y-155178571D01*
X59464285Y-156678571D01*
X59178571Y-155178571D02*
X58321428Y-155178571D01*
X58750000Y-156678571D02*
X58750000Y-155178571D01*
X57821428Y-156678571D02*
X57821428Y-155178571D01*
X57821428Y-155892857D02*
X56964285Y-155892857D01*
X56964285Y-156678571D02*
X56964285Y-155178571D01*
X56321428Y-156250000D02*
X55607142Y-156250000D01*
X56464285Y-156678571D02*
X55964285Y-155178571D01*
X55464285Y-156678571D01*
X54964285Y-156678571D02*
X54964285Y-155178571D01*
X54107142Y-156678571D01*
X54107142Y-155178571D01*
X52250000Y-156678571D02*
X52250000Y-155178571D01*
X51392857Y-156678571D02*
X52035714Y-155821428D01*
X51392857Y-155178571D02*
X52250000Y-156035714D01*
X50821428Y-156250000D02*
X50107142Y-156250000D01*
X50964285Y-156678571D02*
X50464285Y-155178571D01*
X49964285Y-156678571D01*
X49178571Y-155964285D02*
X49178571Y-156678571D01*
X49678571Y-155178571D02*
X49178571Y-155964285D01*
X48678571Y-155178571D01*
X48178571Y-156678571D02*
X48178571Y-155178571D01*
X47321428Y-156678571D01*
X47321428Y-155178571D01*
X46607142Y-155892857D02*
X46107142Y-155892857D01*
X45892857Y-156678571D02*
X46607142Y-156678571D01*
X46607142Y-155178571D01*
X45892857Y-155178571D01*
X49214285Y-139178571D02*
X48714285Y-140678571D01*
X48214285Y-139178571D01*
X47428571Y-139178571D02*
X47142857Y-139178571D01*
X47000000Y-139250000D01*
X46857142Y-139392857D01*
X46785714Y-139678571D01*
X46785714Y-140178571D01*
X46857142Y-140464285D01*
X47000000Y-140607142D01*
X47142857Y-140678571D01*
X47428571Y-140678571D01*
X47571428Y-140607142D01*
X47714285Y-140464285D01*
X47785714Y-140178571D01*
X47785714Y-139678571D01*
X47714285Y-139392857D01*
X47571428Y-139250000D01*
X47428571Y-139178571D01*
X45428571Y-140678571D02*
X46142857Y-140678571D01*
X46142857Y-139178571D01*
X44928571Y-139178571D02*
X44928571Y-140392857D01*
X44857142Y-140535714D01*
X44785714Y-140607142D01*
X44642857Y-140678571D01*
X44357142Y-140678571D01*
X44214285Y-140607142D01*
X44142857Y-140535714D01*
X44071428Y-140392857D01*
X44071428Y-139178571D01*
X43357142Y-140678571D02*
X43357142Y-139178571D01*
X42857142Y-140250000D01*
X42357142Y-139178571D01*
X42357142Y-140678571D01*
X41642857Y-139892857D02*
X41142857Y-139892857D01*
X40928571Y-140678571D02*
X41642857Y-140678571D01*
X41642857Y-139178571D01*
X40928571Y-139178571D01*
X58857142Y-135178571D02*
X58571428Y-135178571D01*
X58428571Y-135250000D01*
X58285714Y-135392857D01*
X58214285Y-135678571D01*
X58214285Y-136178571D01*
X58285714Y-136464285D01*
X58428571Y-136607142D01*
X58571428Y-136678571D01*
X58857142Y-136678571D01*
X59000000Y-136607142D01*
X59142857Y-136464285D01*
X59214285Y-136178571D01*
X59214285Y-135678571D01*
X59142857Y-135392857D01*
X59000000Y-135250000D01*
X58857142Y-135178571D01*
X57571428Y-135178571D02*
X57571428Y-136392857D01*
X57500000Y-136535714D01*
X57428571Y-136607142D01*
X57285714Y-136678571D01*
X57000000Y-136678571D01*
X56857142Y-136607142D01*
X56785714Y-136535714D01*
X56714285Y-136392857D01*
X56714285Y-135178571D01*
X56214285Y-135178571D02*
X55357142Y-135178571D01*
X55785714Y-136678571D02*
X55785714Y-135178571D01*
X54857142Y-136678571D02*
X54857142Y-135178571D01*
X54285714Y-135178571D01*
X54142857Y-135250000D01*
X54071428Y-135321428D01*
X54000000Y-135464285D01*
X54000000Y-135678571D01*
X54071428Y-135821428D01*
X54142857Y-135892857D01*
X54285714Y-135964285D01*
X54857142Y-135964285D01*
X53357142Y-135178571D02*
X53357142Y-136392857D01*
X53285714Y-136535714D01*
X53214285Y-136607142D01*
X53071428Y-136678571D01*
X52785714Y-136678571D01*
X52642857Y-136607142D01*
X52571428Y-136535714D01*
X52500000Y-136392857D01*
X52500000Y-135178571D01*
X52000000Y-135178571D02*
X51142857Y-135178571D01*
X51571428Y-136678571D02*
X51571428Y-135178571D01*
X70214285Y-140249714D02*
X70285714Y-140321142D01*
X70500000Y-140392571D01*
X70642857Y-140392571D01*
X70857142Y-140321142D01*
X71000000Y-140178285D01*
X71071428Y-140035428D01*
X71142857Y-139749714D01*
X71142857Y-139535428D01*
X71071428Y-139249714D01*
X71000000Y-139106857D01*
X70857142Y-138964000D01*
X70642857Y-138892571D01*
X70500000Y-138892571D01*
X70285714Y-138964000D01*
X70214285Y-139035428D01*
X68714285Y-140392571D02*
X69214285Y-139678285D01*
X69571428Y-140392571D02*
X69571428Y-138892571D01*
X69000000Y-138892571D01*
X68857142Y-138964000D01*
X68785714Y-139035428D01*
X68714285Y-139178285D01*
X68714285Y-139392571D01*
X68785714Y-139535428D01*
X68857142Y-139606857D01*
X69000000Y-139678285D01*
X69571428Y-139678285D01*
X67785714Y-138892571D02*
X67500000Y-138892571D01*
X67357142Y-138964000D01*
X67214285Y-139106857D01*
X67142857Y-139392571D01*
X67142857Y-139892571D01*
X67214285Y-140178285D01*
X67357142Y-140321142D01*
X67500000Y-140392571D01*
X67785714Y-140392571D01*
X67928571Y-140321142D01*
X68071428Y-140178285D01*
X68142857Y-139892571D01*
X68142857Y-139392571D01*
X68071428Y-139106857D01*
X67928571Y-138964000D01*
X67785714Y-138892571D01*
X66571428Y-140321142D02*
X66357142Y-140392571D01*
X66000000Y-140392571D01*
X65857142Y-140321142D01*
X65785714Y-140249714D01*
X65714285Y-140106857D01*
X65714285Y-139964000D01*
X65785714Y-139821142D01*
X65857142Y-139749714D01*
X66000000Y-139678285D01*
X66285714Y-139606857D01*
X66428571Y-139535428D01*
X66500000Y-139464000D01*
X66571428Y-139321142D01*
X66571428Y-139178285D01*
X66500000Y-139035428D01*
X66428571Y-138964000D01*
X66285714Y-138892571D01*
X65928571Y-138892571D01*
X65714285Y-138964000D01*
X65142857Y-140321142D02*
X64928571Y-140392571D01*
X64571428Y-140392571D01*
X64428571Y-140321142D01*
X64357142Y-140249714D01*
X64285714Y-140106857D01*
X64285714Y-139964000D01*
X64357142Y-139821142D01*
X64428571Y-139749714D01*
X64571428Y-139678285D01*
X64857142Y-139606857D01*
X65000000Y-139535428D01*
X65071428Y-139464000D01*
X65142857Y-139321142D01*
X65142857Y-139178285D01*
X65071428Y-139035428D01*
X65000000Y-138964000D01*
X64857142Y-138892571D01*
X64500000Y-138892571D01*
X64285714Y-138964000D01*
X63142857Y-139606857D02*
X63642857Y-139606857D01*
X63642857Y-140392571D02*
X63642857Y-138892571D01*
X62928571Y-138892571D01*
X62428571Y-139964000D02*
X61714285Y-139964000D01*
X62571428Y-140392571D02*
X62071428Y-138892571D01*
X61571428Y-140392571D01*
X61071428Y-140392571D02*
X61071428Y-138892571D01*
X60714285Y-138892571D01*
X60500000Y-138964000D01*
X60357142Y-139106857D01*
X60285714Y-139249714D01*
X60214285Y-139535428D01*
X60214285Y-139749714D01*
X60285714Y-140035428D01*
X60357142Y-140178285D01*
X60500000Y-140321142D01*
X60714285Y-140392571D01*
X61071428Y-140392571D01*
X59571428Y-139606857D02*
X59071428Y-139606857D01*
X58857142Y-140392571D02*
X59571428Y-140392571D01*
X59571428Y-138892571D01*
X58857142Y-138892571D01*
X65142857Y-107678571D02*
X64642857Y-109178571D01*
X64142857Y-107678571D01*
X62785714Y-109035714D02*
X62857142Y-109107142D01*
X63071428Y-109178571D01*
X63214285Y-109178571D01*
X63428571Y-109107142D01*
X63571428Y-108964285D01*
X63642857Y-108821428D01*
X63714285Y-108535714D01*
X63714285Y-108321428D01*
X63642857Y-108035714D01*
X63571428Y-107892857D01*
X63428571Y-107750000D01*
X63214285Y-107678571D01*
X63071428Y-107678571D01*
X62857142Y-107750000D01*
X62785714Y-107821428D01*
X62214285Y-108750000D02*
X61500000Y-108750000D01*
X62357142Y-109178571D02*
X61857142Y-107678571D01*
X61357142Y-109178571D01*
X58857142Y-109035714D02*
X58928571Y-109107142D01*
X59142857Y-109178571D01*
X59285714Y-109178571D01*
X59500000Y-109107142D01*
X59642857Y-108964285D01*
X59714285Y-108821428D01*
X59785714Y-108535714D01*
X59785714Y-108321428D01*
X59714285Y-108035714D01*
X59642857Y-107892857D01*
X59500000Y-107750000D01*
X59285714Y-107678571D01*
X59142857Y-107678571D01*
X58928571Y-107750000D01*
X58857142Y-107821428D01*
X58428571Y-107678571D02*
X57928571Y-109178571D01*
X57428571Y-107678571D01*
X55857142Y-107821428D02*
X55785714Y-107750000D01*
X55642857Y-107678571D01*
X55285714Y-107678571D01*
X55142857Y-107750000D01*
X55071428Y-107821428D01*
X55000000Y-107964285D01*
X55000000Y-108107142D01*
X55071428Y-108321428D01*
X55928571Y-109178571D01*
X55000000Y-109178571D01*
X65142857Y-92678571D02*
X64642857Y-94178571D01*
X64142857Y-92678571D01*
X62785714Y-94035714D02*
X62857142Y-94107142D01*
X63071428Y-94178571D01*
X63214285Y-94178571D01*
X63428571Y-94107142D01*
X63571428Y-93964285D01*
X63642857Y-93821428D01*
X63714285Y-93535714D01*
X63714285Y-93321428D01*
X63642857Y-93035714D01*
X63571428Y-92892857D01*
X63428571Y-92750000D01*
X63214285Y-92678571D01*
X63071428Y-92678571D01*
X62857142Y-92750000D01*
X62785714Y-92821428D01*
X62214285Y-93750000D02*
X61500000Y-93750000D01*
X62357142Y-94178571D02*
X61857142Y-92678571D01*
X61357142Y-94178571D01*
X58857142Y-94035714D02*
X58928571Y-94107142D01*
X59142857Y-94178571D01*
X59285714Y-94178571D01*
X59500000Y-94107142D01*
X59642857Y-93964285D01*
X59714285Y-93821428D01*
X59785714Y-93535714D01*
X59785714Y-93321428D01*
X59714285Y-93035714D01*
X59642857Y-92892857D01*
X59500000Y-92750000D01*
X59285714Y-92678571D01*
X59142857Y-92678571D01*
X58928571Y-92750000D01*
X58857142Y-92821428D01*
X58428571Y-92678571D02*
X57928571Y-94178571D01*
X57428571Y-92678571D01*
X55000000Y-94178571D02*
X55857142Y-94178571D01*
X55428571Y-94178571D02*
X55428571Y-92678571D01*
X55571428Y-92892857D01*
X55714285Y-93035714D01*
X55857142Y-93107142D01*
X64178571Y-79178571D02*
X64178571Y-77678571D01*
X63464285Y-79178571D02*
X63464285Y-77678571D01*
X62607142Y-79178571D01*
X62607142Y-77678571D01*
X61892857Y-79178571D02*
X61892857Y-77678571D01*
X61321428Y-77678571D01*
X61178571Y-77750000D01*
X61107142Y-77821428D01*
X61035714Y-77964285D01*
X61035714Y-78178571D01*
X61107142Y-78321428D01*
X61178571Y-78392857D01*
X61321428Y-78464285D01*
X61892857Y-78464285D01*
X60392857Y-77678571D02*
X60392857Y-78892857D01*
X60321428Y-79035714D01*
X60250000Y-79107142D01*
X60107142Y-79178571D01*
X59821428Y-79178571D01*
X59678571Y-79107142D01*
X59607142Y-79035714D01*
X59535714Y-78892857D01*
X59535714Y-77678571D01*
X59035714Y-77678571D02*
X58178571Y-77678571D01*
X58607142Y-79178571D02*
X58607142Y-77678571D01*
X56607142Y-77821428D02*
X56535714Y-77750000D01*
X56392857Y-77678571D01*
X56035714Y-77678571D01*
X55892857Y-77750000D01*
X55821428Y-77821428D01*
X55750000Y-77964285D01*
X55750000Y-78107142D01*
X55821428Y-78321428D01*
X56678571Y-79178571D01*
X55750000Y-79178571D01*
X65214285Y-64035714D02*
X65285714Y-64107142D01*
X65500000Y-64178571D01*
X65642857Y-64178571D01*
X65857142Y-64107142D01*
X66000000Y-63964285D01*
X66071428Y-63821428D01*
X66142857Y-63535714D01*
X66142857Y-63321428D01*
X66071428Y-63035714D01*
X66000000Y-62892857D01*
X65857142Y-62750000D01*
X65642857Y-62678571D01*
X65500000Y-62678571D01*
X65285714Y-62750000D01*
X65214285Y-62821428D01*
X63714285Y-64178571D02*
X64214285Y-63464285D01*
X64571428Y-64178571D02*
X64571428Y-62678571D01*
X64000000Y-62678571D01*
X63857142Y-62750000D01*
X63785714Y-62821428D01*
X63714285Y-62964285D01*
X63714285Y-63178571D01*
X63785714Y-63321428D01*
X63857142Y-63392857D01*
X64000000Y-63464285D01*
X64571428Y-63464285D01*
X62785714Y-62678571D02*
X62500000Y-62678571D01*
X62357142Y-62750000D01*
X62214285Y-62892857D01*
X62142857Y-63178571D01*
X62142857Y-63678571D01*
X62214285Y-63964285D01*
X62357142Y-64107142D01*
X62500000Y-64178571D01*
X62785714Y-64178571D01*
X62928571Y-64107142D01*
X63071428Y-63964285D01*
X63142857Y-63678571D01*
X63142857Y-63178571D01*
X63071428Y-62892857D01*
X62928571Y-62750000D01*
X62785714Y-62678571D01*
X61571428Y-64107142D02*
X61357142Y-64178571D01*
X61000000Y-64178571D01*
X60857142Y-64107142D01*
X60785714Y-64035714D01*
X60714285Y-63892857D01*
X60714285Y-63750000D01*
X60785714Y-63607142D01*
X60857142Y-63535714D01*
X61000000Y-63464285D01*
X61285714Y-63392857D01*
X61428571Y-63321428D01*
X61500000Y-63250000D01*
X61571428Y-63107142D01*
X61571428Y-62964285D01*
X61500000Y-62821428D01*
X61428571Y-62750000D01*
X61285714Y-62678571D01*
X60928571Y-62678571D01*
X60714285Y-62750000D01*
X60142857Y-64107142D02*
X59928571Y-64178571D01*
X59571428Y-64178571D01*
X59428571Y-64107142D01*
X59357142Y-64035714D01*
X59285714Y-63892857D01*
X59285714Y-63750000D01*
X59357142Y-63607142D01*
X59428571Y-63535714D01*
X59571428Y-63464285D01*
X59857142Y-63392857D01*
X60000000Y-63321428D01*
X60071428Y-63250000D01*
X60142857Y-63107142D01*
X60142857Y-62964285D01*
X60071428Y-62821428D01*
X60000000Y-62750000D01*
X59857142Y-62678571D01*
X59500000Y-62678571D01*
X59285714Y-62750000D01*
X58142857Y-63392857D02*
X58642857Y-63392857D01*
X58642857Y-64178571D02*
X58642857Y-62678571D01*
X57928571Y-62678571D01*
X57428571Y-63750000D02*
X56714285Y-63750000D01*
X57571428Y-64178571D02*
X57071428Y-62678571D01*
X56571428Y-64178571D01*
X56071428Y-64178571D02*
X56071428Y-62678571D01*
X55714285Y-62678571D01*
X55500000Y-62750000D01*
X55357142Y-62892857D01*
X55285714Y-63035714D01*
X55214285Y-63321428D01*
X55214285Y-63535714D01*
X55285714Y-63821428D01*
X55357142Y-63964285D01*
X55500000Y-64107142D01*
X55714285Y-64178571D01*
X56071428Y-64178571D01*
X54571428Y-63392857D02*
X54071428Y-63392857D01*
X53857142Y-64178571D02*
X54571428Y-64178571D01*
X54571428Y-62678571D01*
X53857142Y-62678571D01*
X64178571Y-49178571D02*
X64178571Y-47678571D01*
X63464285Y-49178571D02*
X63464285Y-47678571D01*
X62607142Y-49178571D01*
X62607142Y-47678571D01*
X61892857Y-49178571D02*
X61892857Y-47678571D01*
X61321428Y-47678571D01*
X61178571Y-47750000D01*
X61107142Y-47821428D01*
X61035714Y-47964285D01*
X61035714Y-48178571D01*
X61107142Y-48321428D01*
X61178571Y-48392857D01*
X61321428Y-48464285D01*
X61892857Y-48464285D01*
X60392857Y-47678571D02*
X60392857Y-48892857D01*
X60321428Y-49035714D01*
X60250000Y-49107142D01*
X60107142Y-49178571D01*
X59821428Y-49178571D01*
X59678571Y-49107142D01*
X59607142Y-49035714D01*
X59535714Y-48892857D01*
X59535714Y-47678571D01*
X59035714Y-47678571D02*
X58178571Y-47678571D01*
X58607142Y-49178571D02*
X58607142Y-47678571D01*
X55750000Y-49178571D02*
X56607142Y-49178571D01*
X56178571Y-49178571D02*
X56178571Y-47678571D01*
X56321428Y-47892857D01*
X56464285Y-48035714D01*
X56607142Y-48107142D01*
D12*
G36*
X58978691Y-147241083D02*
G01*
X58906584Y-147274587D01*
X58827389Y-147329179D01*
X58743760Y-147402915D01*
X58658355Y-147493850D01*
X58573828Y-147600041D01*
X58492834Y-147719542D01*
X58459930Y-147774234D01*
X58435409Y-147818179D01*
X58420945Y-147847356D01*
X58419157Y-147854576D01*
X58432246Y-147843013D01*
X58465017Y-147810955D01*
X58513619Y-147762261D01*
X58574198Y-147700787D01*
X58636666Y-147636806D01*
X58736560Y-147537568D01*
X58825521Y-147456169D01*
X58901340Y-147394292D01*
X58961808Y-147353619D01*
X59004718Y-147335834D01*
X59025928Y-147340168D01*
X59039578Y-147365627D01*
X59053881Y-147408202D01*
X59055517Y-147414400D01*
X59071613Y-147458990D01*
X59089073Y-147470089D01*
X59108522Y-147447614D01*
X59126045Y-147405083D01*
X59139880Y-147356088D01*
X59138933Y-147320411D01*
X59125928Y-147286550D01*
X59091019Y-147245120D01*
X59041055Y-147230613D01*
X58978691Y-147241083D01*
X58978691Y-147241083D01*
G37*
X58978691Y-147241083D02*
X58906584Y-147274587D01*
X58827389Y-147329179D01*
X58743760Y-147402915D01*
X58658355Y-147493850D01*
X58573828Y-147600041D01*
X58492834Y-147719542D01*
X58459930Y-147774234D01*
X58435409Y-147818179D01*
X58420945Y-147847356D01*
X58419157Y-147854576D01*
X58432246Y-147843013D01*
X58465017Y-147810955D01*
X58513619Y-147762261D01*
X58574198Y-147700787D01*
X58636666Y-147636806D01*
X58736560Y-147537568D01*
X58825521Y-147456169D01*
X58901340Y-147394292D01*
X58961808Y-147353619D01*
X59004718Y-147335834D01*
X59025928Y-147340168D01*
X59039578Y-147365627D01*
X59053881Y-147408202D01*
X59055517Y-147414400D01*
X59071613Y-147458990D01*
X59089073Y-147470089D01*
X59108522Y-147447614D01*
X59126045Y-147405083D01*
X59139880Y-147356088D01*
X59138933Y-147320411D01*
X59125928Y-147286550D01*
X59091019Y-147245120D01*
X59041055Y-147230613D01*
X58978691Y-147241083D01*
G36*
X56437677Y-146187685D02*
G01*
X56379191Y-146199246D01*
X56303282Y-146220331D01*
X56216784Y-146248993D01*
X56126535Y-146283285D01*
X56106091Y-146291712D01*
X56055780Y-146315513D01*
X55996278Y-146347672D01*
X55934825Y-146383720D01*
X55878665Y-146419186D01*
X55835037Y-146449601D01*
X55811183Y-146470493D01*
X55808800Y-146475231D01*
X55815075Y-146481706D01*
X55836945Y-146475484D01*
X55878980Y-146454698D01*
X55934750Y-146423745D01*
X56003555Y-146387919D01*
X56086603Y-146349617D01*
X56176331Y-146311781D01*
X56265174Y-146277357D01*
X56345567Y-146249287D01*
X56409944Y-146230516D01*
X56448033Y-146224003D01*
X56489322Y-146218195D01*
X56502015Y-146206357D01*
X56483846Y-146191944D01*
X56471902Y-146187591D01*
X56437677Y-146187685D01*
X56437677Y-146187685D01*
G37*
X56437677Y-146187685D02*
X56379191Y-146199246D01*
X56303282Y-146220331D01*
X56216784Y-146248993D01*
X56126535Y-146283285D01*
X56106091Y-146291712D01*
X56055780Y-146315513D01*
X55996278Y-146347672D01*
X55934825Y-146383720D01*
X55878665Y-146419186D01*
X55835037Y-146449601D01*
X55811183Y-146470493D01*
X55808800Y-146475231D01*
X55815075Y-146481706D01*
X55836945Y-146475484D01*
X55878980Y-146454698D01*
X55934750Y-146423745D01*
X56003555Y-146387919D01*
X56086603Y-146349617D01*
X56176331Y-146311781D01*
X56265174Y-146277357D01*
X56345567Y-146249287D01*
X56409944Y-146230516D01*
X56448033Y-146224003D01*
X56489322Y-146218195D01*
X56502015Y-146206357D01*
X56483846Y-146191944D01*
X56471902Y-146187591D01*
X56437677Y-146187685D01*
G36*
X53498011Y-147057654D02*
G01*
X53403393Y-147060560D01*
X53318331Y-147065303D01*
X53250052Y-147071867D01*
X53243400Y-147072766D01*
X53218920Y-147077470D01*
X53220704Y-147081190D01*
X53250268Y-147084008D01*
X53309126Y-147086006D01*
X53398794Y-147087266D01*
X53520786Y-147087870D01*
X53522800Y-147087874D01*
X53651675Y-147087691D01*
X53748617Y-147086461D01*
X53815548Y-147084091D01*
X53854389Y-147080487D01*
X53867060Y-147075554D01*
X53861466Y-147071293D01*
X53827486Y-147064752D01*
X53766923Y-147060135D01*
X53687004Y-147057424D01*
X53594958Y-147056603D01*
X53498011Y-147057654D01*
X53498011Y-147057654D01*
G37*
X53498011Y-147057654D02*
X53403393Y-147060560D01*
X53318331Y-147065303D01*
X53250052Y-147071867D01*
X53243400Y-147072766D01*
X53218920Y-147077470D01*
X53220704Y-147081190D01*
X53250268Y-147084008D01*
X53309126Y-147086006D01*
X53398794Y-147087266D01*
X53520786Y-147087870D01*
X53522800Y-147087874D01*
X53651675Y-147087691D01*
X53748617Y-147086461D01*
X53815548Y-147084091D01*
X53854389Y-147080487D01*
X53867060Y-147075554D01*
X53861466Y-147071293D01*
X53827486Y-147064752D01*
X53766923Y-147060135D01*
X53687004Y-147057424D01*
X53594958Y-147056603D01*
X53498011Y-147057654D01*
G36*
X55383609Y-147188456D02*
G01*
X55338291Y-147198585D01*
X55277311Y-147215896D01*
X55248465Y-147225010D01*
X55106066Y-147271350D01*
X55109673Y-147469875D01*
X55109893Y-147547324D01*
X55107813Y-147610637D01*
X55103809Y-147653198D01*
X55098384Y-147668400D01*
X55080075Y-147655030D01*
X55076419Y-147647234D01*
X55054049Y-147630226D01*
X55006949Y-147626174D01*
X54941315Y-147634232D01*
X54863342Y-147653552D01*
X54779228Y-147683289D01*
X54763102Y-147690030D01*
X54623338Y-147749984D01*
X54612575Y-147704959D01*
X54588543Y-147631115D01*
X54552735Y-147552241D01*
X54511076Y-147479396D01*
X54469490Y-147423638D01*
X54453484Y-147407986D01*
X54412099Y-147377738D01*
X54374782Y-147366749D01*
X54323575Y-147369934D01*
X54320530Y-147370346D01*
X54248534Y-147386682D01*
X54198704Y-147410536D01*
X54173063Y-147438068D01*
X54173635Y-147465433D01*
X54202442Y-147488790D01*
X54250857Y-147502658D01*
X54315436Y-147525733D01*
X54370523Y-147572807D01*
X54417875Y-147646461D01*
X54459252Y-147749273D01*
X54488460Y-147851170D01*
X54513584Y-147974805D01*
X54519994Y-148075999D01*
X54507661Y-148160554D01*
X54486703Y-148215318D01*
X54455139Y-148280964D01*
X54437704Y-148324192D01*
X54432627Y-148352486D01*
X54438141Y-148373332D01*
X54446335Y-148386118D01*
X54466451Y-148405484D01*
X54493550Y-148407058D01*
X54526407Y-148397829D01*
X54592752Y-148361871D01*
X54651201Y-148305803D01*
X54687934Y-148244134D01*
X54694522Y-148195601D01*
X54689600Y-148118129D01*
X54682806Y-148069168D01*
X54672940Y-147996667D01*
X54671161Y-147952602D01*
X54677405Y-147932538D01*
X54680761Y-147930558D01*
X54723940Y-147918436D01*
X54784558Y-147903284D01*
X54853149Y-147887236D01*
X54920243Y-147872426D01*
X54976372Y-147860987D01*
X55012069Y-147855054D01*
X55017503Y-147854667D01*
X55039524Y-147860943D01*
X55042524Y-147885933D01*
X55039812Y-147901234D01*
X55033634Y-147939045D01*
X55025516Y-147999673D01*
X55016881Y-148072237D01*
X55013811Y-148100200D01*
X55004154Y-148175877D01*
X54989530Y-148272849D01*
X54971836Y-148379248D01*
X54952968Y-148483203D01*
X54950765Y-148494693D01*
X54931856Y-148595369D01*
X54920369Y-148668748D01*
X54916833Y-148720688D01*
X54921778Y-148757050D01*
X54935732Y-148783695D01*
X54959226Y-148806482D01*
X54980376Y-148822371D01*
X55024114Y-148846201D01*
X55072272Y-148861405D01*
X55115128Y-148866434D01*
X55142957Y-148859740D01*
X55148400Y-148849122D01*
X55136598Y-148824039D01*
X55106413Y-148787601D01*
X55082591Y-148764353D01*
X55016781Y-148704898D01*
X55050842Y-148529549D01*
X55070060Y-148406748D01*
X55081792Y-148271044D01*
X55086854Y-148112670D01*
X55087018Y-148096023D01*
X55088411Y-148006852D01*
X55090859Y-147931008D01*
X55094073Y-147874297D01*
X55097765Y-147842529D01*
X55099844Y-147837789D01*
X55106334Y-147853296D01*
X55113947Y-147894469D01*
X55121263Y-147953204D01*
X55122813Y-147968967D01*
X55137460Y-148074009D01*
X55161256Y-148149767D01*
X55197908Y-148200386D01*
X55251124Y-148230007D01*
X55324612Y-148242774D01*
X55369064Y-148244134D01*
X55452131Y-148238841D01*
X55507655Y-148223566D01*
X55533811Y-148199214D01*
X55528773Y-148166688D01*
X55528005Y-148165407D01*
X55498735Y-148139764D01*
X55460272Y-148123840D01*
X55406449Y-148111307D01*
X55365992Y-148102060D01*
X55338728Y-148090974D01*
X55317567Y-148068900D01*
X55301637Y-148031900D01*
X55290062Y-147976036D01*
X55281969Y-147897372D01*
X55276484Y-147791969D01*
X55273364Y-147684819D01*
X55266539Y-147387972D01*
X55342936Y-147312994D01*
X55392942Y-147259280D01*
X55416340Y-147221351D01*
X55414653Y-147196135D01*
X55405098Y-147187468D01*
X55383609Y-147188456D01*
X55383609Y-147188456D01*
G37*
X55383609Y-147188456D02*
X55338291Y-147198585D01*
X55277311Y-147215896D01*
X55248465Y-147225010D01*
X55106066Y-147271350D01*
X55109673Y-147469875D01*
X55109893Y-147547324D01*
X55107813Y-147610637D01*
X55103809Y-147653198D01*
X55098384Y-147668400D01*
X55080075Y-147655030D01*
X55076419Y-147647234D01*
X55054049Y-147630226D01*
X55006949Y-147626174D01*
X54941315Y-147634232D01*
X54863342Y-147653552D01*
X54779228Y-147683289D01*
X54763102Y-147690030D01*
X54623338Y-147749984D01*
X54612575Y-147704959D01*
X54588543Y-147631115D01*
X54552735Y-147552241D01*
X54511076Y-147479396D01*
X54469490Y-147423638D01*
X54453484Y-147407986D01*
X54412099Y-147377738D01*
X54374782Y-147366749D01*
X54323575Y-147369934D01*
X54320530Y-147370346D01*
X54248534Y-147386682D01*
X54198704Y-147410536D01*
X54173063Y-147438068D01*
X54173635Y-147465433D01*
X54202442Y-147488790D01*
X54250857Y-147502658D01*
X54315436Y-147525733D01*
X54370523Y-147572807D01*
X54417875Y-147646461D01*
X54459252Y-147749273D01*
X54488460Y-147851170D01*
X54513584Y-147974805D01*
X54519994Y-148075999D01*
X54507661Y-148160554D01*
X54486703Y-148215318D01*
X54455139Y-148280964D01*
X54437704Y-148324192D01*
X54432627Y-148352486D01*
X54438141Y-148373332D01*
X54446335Y-148386118D01*
X54466451Y-148405484D01*
X54493550Y-148407058D01*
X54526407Y-148397829D01*
X54592752Y-148361871D01*
X54651201Y-148305803D01*
X54687934Y-148244134D01*
X54694522Y-148195601D01*
X54689600Y-148118129D01*
X54682806Y-148069168D01*
X54672940Y-147996667D01*
X54671161Y-147952602D01*
X54677405Y-147932538D01*
X54680761Y-147930558D01*
X54723940Y-147918436D01*
X54784558Y-147903284D01*
X54853149Y-147887236D01*
X54920243Y-147872426D01*
X54976372Y-147860987D01*
X55012069Y-147855054D01*
X55017503Y-147854667D01*
X55039524Y-147860943D01*
X55042524Y-147885933D01*
X55039812Y-147901234D01*
X55033634Y-147939045D01*
X55025516Y-147999673D01*
X55016881Y-148072237D01*
X55013811Y-148100200D01*
X55004154Y-148175877D01*
X54989530Y-148272849D01*
X54971836Y-148379248D01*
X54952968Y-148483203D01*
X54950765Y-148494693D01*
X54931856Y-148595369D01*
X54920369Y-148668748D01*
X54916833Y-148720688D01*
X54921778Y-148757050D01*
X54935732Y-148783695D01*
X54959226Y-148806482D01*
X54980376Y-148822371D01*
X55024114Y-148846201D01*
X55072272Y-148861405D01*
X55115128Y-148866434D01*
X55142957Y-148859740D01*
X55148400Y-148849122D01*
X55136598Y-148824039D01*
X55106413Y-148787601D01*
X55082591Y-148764353D01*
X55016781Y-148704898D01*
X55050842Y-148529549D01*
X55070060Y-148406748D01*
X55081792Y-148271044D01*
X55086854Y-148112670D01*
X55087018Y-148096023D01*
X55088411Y-148006852D01*
X55090859Y-147931008D01*
X55094073Y-147874297D01*
X55097765Y-147842529D01*
X55099844Y-147837789D01*
X55106334Y-147853296D01*
X55113947Y-147894469D01*
X55121263Y-147953204D01*
X55122813Y-147968967D01*
X55137460Y-148074009D01*
X55161256Y-148149767D01*
X55197908Y-148200386D01*
X55251124Y-148230007D01*
X55324612Y-148242774D01*
X55369064Y-148244134D01*
X55452131Y-148238841D01*
X55507655Y-148223566D01*
X55533811Y-148199214D01*
X55528773Y-148166688D01*
X55528005Y-148165407D01*
X55498735Y-148139764D01*
X55460272Y-148123840D01*
X55406449Y-148111307D01*
X55365992Y-148102060D01*
X55338728Y-148090974D01*
X55317567Y-148068900D01*
X55301637Y-148031900D01*
X55290062Y-147976036D01*
X55281969Y-147897372D01*
X55276484Y-147791969D01*
X55273364Y-147684819D01*
X55266539Y-147387972D01*
X55342936Y-147312994D01*
X55392942Y-147259280D01*
X55416340Y-147221351D01*
X55414653Y-147196135D01*
X55405098Y-147187468D01*
X55383609Y-147188456D01*
G36*
X55965170Y-149373241D02*
G01*
X55919542Y-149404207D01*
X55905732Y-149413997D01*
X55849644Y-149451100D01*
X55795132Y-149479558D01*
X55736538Y-149500483D01*
X55668207Y-149514986D01*
X55584481Y-149524178D01*
X55479704Y-149529173D01*
X55348219Y-149531080D01*
X55309267Y-149531206D01*
X55133361Y-149533286D01*
X54990745Y-149538921D01*
X54881023Y-149548182D01*
X54803797Y-149561136D01*
X54758673Y-149577853D01*
X54745252Y-149598401D01*
X54763139Y-149622849D01*
X54766403Y-149625340D01*
X54782539Y-149632911D01*
X54810438Y-149638783D01*
X54853812Y-149643138D01*
X54916373Y-149646159D01*
X55001832Y-149648027D01*
X55113900Y-149648926D01*
X55249003Y-149649047D01*
X55388667Y-149648613D01*
X55499051Y-149647517D01*
X55584743Y-149645492D01*
X55650327Y-149642273D01*
X55700389Y-149637592D01*
X55739515Y-149631184D01*
X55772289Y-149622782D01*
X55787673Y-149617769D01*
X55844602Y-149594642D01*
X55892617Y-149569206D01*
X55910986Y-149555936D01*
X55952771Y-149509124D01*
X55986754Y-149455128D01*
X56006703Y-149405218D01*
X56008980Y-149378754D01*
X56003789Y-149362597D01*
X55991218Y-149360065D01*
X55965170Y-149373241D01*
X55965170Y-149373241D01*
G37*
X55965170Y-149373241D02*
X55919542Y-149404207D01*
X55905732Y-149413997D01*
X55849644Y-149451100D01*
X55795132Y-149479558D01*
X55736538Y-149500483D01*
X55668207Y-149514986D01*
X55584481Y-149524178D01*
X55479704Y-149529173D01*
X55348219Y-149531080D01*
X55309267Y-149531206D01*
X55133361Y-149533286D01*
X54990745Y-149538921D01*
X54881023Y-149548182D01*
X54803797Y-149561136D01*
X54758673Y-149577853D01*
X54745252Y-149598401D01*
X54763139Y-149622849D01*
X54766403Y-149625340D01*
X54782539Y-149632911D01*
X54810438Y-149638783D01*
X54853812Y-149643138D01*
X54916373Y-149646159D01*
X55001832Y-149648027D01*
X55113900Y-149648926D01*
X55249003Y-149649047D01*
X55388667Y-149648613D01*
X55499051Y-149647517D01*
X55584743Y-149645492D01*
X55650327Y-149642273D01*
X55700389Y-149637592D01*
X55739515Y-149631184D01*
X55772289Y-149622782D01*
X55787673Y-149617769D01*
X55844602Y-149594642D01*
X55892617Y-149569206D01*
X55910986Y-149555936D01*
X55952771Y-149509124D01*
X55986754Y-149455128D01*
X56006703Y-149405218D01*
X56008980Y-149378754D01*
X56003789Y-149362597D01*
X55991218Y-149360065D01*
X55965170Y-149373241D01*
G36*
X55412065Y-149906704D02*
G01*
X55363563Y-149914550D01*
X55305826Y-149924943D01*
X55250812Y-149935688D01*
X55210478Y-149944589D01*
X55199674Y-149947619D01*
X55183243Y-149957026D01*
X55197107Y-149970346D01*
X55199674Y-149971985D01*
X55242385Y-149984696D01*
X55301906Y-149986209D01*
X55363353Y-149977265D01*
X55406633Y-149961648D01*
X55439251Y-149938175D01*
X55453794Y-149916498D01*
X55445939Y-149904282D01*
X55439376Y-149903600D01*
X55412065Y-149906704D01*
X55412065Y-149906704D01*
G37*
X55412065Y-149906704D02*
X55363563Y-149914550D01*
X55305826Y-149924943D01*
X55250812Y-149935688D01*
X55210478Y-149944589D01*
X55199674Y-149947619D01*
X55183243Y-149957026D01*
X55197107Y-149970346D01*
X55199674Y-149971985D01*
X55242385Y-149984696D01*
X55301906Y-149986209D01*
X55363353Y-149977265D01*
X55406633Y-149961648D01*
X55439251Y-149938175D01*
X55453794Y-149916498D01*
X55445939Y-149904282D01*
X55439376Y-149903600D01*
X55412065Y-149906704D01*
G36*
X56255177Y-139551421D02*
G01*
X56244833Y-139557519D01*
X56203263Y-139579572D01*
X56171565Y-139590784D01*
X56167868Y-139591137D01*
X56137125Y-139601813D01*
X56087445Y-139630703D01*
X56024976Y-139673267D01*
X55955865Y-139724964D01*
X55886260Y-139781253D01*
X55822306Y-139837594D01*
X55784492Y-139874326D01*
X55723932Y-139940473D01*
X55655481Y-140021547D01*
X55590108Y-140104347D01*
X55562531Y-140141533D01*
X55504764Y-140228817D01*
X55439784Y-140338826D01*
X55372241Y-140462567D01*
X55306786Y-140591045D01*
X55248070Y-140715265D01*
X55200745Y-140826234D01*
X55180680Y-140880017D01*
X55141921Y-140991968D01*
X55056260Y-140941269D01*
X54904800Y-140864002D01*
X54745992Y-140808421D01*
X54575526Y-140773898D01*
X54389092Y-140759807D01*
X54182379Y-140765520D01*
X53986269Y-140785643D01*
X53784684Y-140815824D01*
X53606733Y-140851523D01*
X53442278Y-140895729D01*
X53281181Y-140951430D01*
X53113305Y-141021614D01*
X52989400Y-141079476D01*
X52690435Y-141236527D01*
X52423794Y-141403325D01*
X52189510Y-141579843D01*
X51987616Y-141766058D01*
X51818145Y-141961943D01*
X51763588Y-142036977D01*
X51646792Y-142224316D01*
X51534394Y-142440409D01*
X51428139Y-142680248D01*
X51329770Y-142938824D01*
X51241033Y-143211129D01*
X51163670Y-143492155D01*
X51099426Y-143776894D01*
X51050045Y-144060336D01*
X51043819Y-144103934D01*
X51019705Y-144312766D01*
X51002269Y-144537710D01*
X50991660Y-144770370D01*
X50988028Y-145002351D01*
X50991525Y-145225259D01*
X51002299Y-145430698D01*
X51017327Y-145585600D01*
X51040797Y-145744302D01*
X51074081Y-145925138D01*
X51114997Y-146118572D01*
X51161363Y-146315067D01*
X51210995Y-146505088D01*
X51261711Y-146679099D01*
X51282593Y-146744460D01*
X51314501Y-146830428D01*
X51360392Y-146939152D01*
X51417123Y-147064171D01*
X51481553Y-147199024D01*
X51550540Y-147337250D01*
X51620942Y-147472386D01*
X51689616Y-147597973D01*
X51740354Y-147685803D01*
X51806038Y-147791465D01*
X51870074Y-147885858D01*
X51929137Y-147964616D01*
X51979899Y-148023373D01*
X52019033Y-148057762D01*
X52027236Y-148062331D01*
X52057518Y-148083004D01*
X52055047Y-148103110D01*
X52019399Y-148123361D01*
X51983851Y-148135309D01*
X51897429Y-148173466D01*
X51838480Y-148229860D01*
X51805715Y-148306472D01*
X51797848Y-148405284D01*
X51798618Y-148420348D01*
X51815480Y-148524881D01*
X51854025Y-148628077D01*
X51916762Y-148734644D01*
X52006198Y-148849294D01*
X52057532Y-148906624D01*
X52125710Y-148983001D01*
X52196080Y-149066570D01*
X52259383Y-149146098D01*
X52298504Y-149198962D01*
X52350461Y-149267700D01*
X52417158Y-149348485D01*
X52488922Y-149429891D01*
X52539680Y-149483892D01*
X52602209Y-149547306D01*
X52647069Y-149589822D01*
X52679689Y-149615304D01*
X52705503Y-149627618D01*
X52729941Y-149630628D01*
X52744641Y-149629730D01*
X52773439Y-149628395D01*
X52794464Y-149634936D01*
X52813462Y-149655202D01*
X52836174Y-149695042D01*
X52863923Y-149751200D01*
X52896409Y-149812521D01*
X52936602Y-149880345D01*
X52980097Y-149948178D01*
X53022487Y-150009529D01*
X53059365Y-150057902D01*
X53086326Y-150086804D01*
X53095198Y-150092028D01*
X53120830Y-150095386D01*
X53145728Y-150098168D01*
X53197125Y-150115666D01*
X53234108Y-150158597D01*
X53253256Y-150204143D01*
X53276058Y-150261914D01*
X53303048Y-150316421D01*
X53303432Y-150317088D01*
X53320109Y-150353526D01*
X53343176Y-150414032D01*
X53369573Y-150490153D01*
X53395939Y-150572467D01*
X53427262Y-150673796D01*
X53450800Y-150747385D01*
X53468460Y-150797944D01*
X53482145Y-150830185D01*
X53493761Y-150848819D01*
X53505212Y-150858555D01*
X53513107Y-150862206D01*
X53538377Y-150858456D01*
X53583445Y-150840093D01*
X53639617Y-150810803D01*
X53653627Y-150802650D01*
X53722135Y-150764694D01*
X53792143Y-150730313D01*
X53848981Y-150706692D01*
X53851031Y-150705985D01*
X53932383Y-150678265D01*
X54036625Y-150750978D01*
X54105673Y-150798786D01*
X54180229Y-150849865D01*
X54234624Y-150886728D01*
X54300764Y-150932693D01*
X54340178Y-150965164D01*
X54355241Y-150987966D01*
X54348331Y-151004926D01*
X54321822Y-151019869D01*
X54318262Y-151021368D01*
X54277277Y-151046573D01*
X54229484Y-151087393D01*
X54203688Y-151114270D01*
X54116683Y-151198781D01*
X54008332Y-151281759D01*
X53890385Y-151354502D01*
X53852886Y-151374023D01*
X53799329Y-151395916D01*
X53717602Y-151423259D01*
X53612727Y-151454777D01*
X53489724Y-151489193D01*
X53353615Y-151525230D01*
X53209421Y-151561611D01*
X53062164Y-151597058D01*
X52916866Y-151630296D01*
X52778547Y-151660047D01*
X52652228Y-151685034D01*
X52577329Y-151698387D01*
X52457461Y-151719536D01*
X52365899Y-151738162D01*
X52297305Y-151755617D01*
X52246341Y-151773252D01*
X52209029Y-151791614D01*
X52166281Y-151820654D01*
X52139222Y-151846700D01*
X52134266Y-151857479D01*
X52123751Y-151880383D01*
X52096077Y-151919932D01*
X52057054Y-151967886D01*
X52053833Y-151971590D01*
X51986997Y-152049641D01*
X51931870Y-152118498D01*
X51881948Y-152187253D01*
X51830729Y-152264993D01*
X51771710Y-152360810D01*
X51752511Y-152392766D01*
X51685078Y-152511654D01*
X51610476Y-152653903D01*
X51531628Y-152813037D01*
X51451457Y-152982580D01*
X51372886Y-153156057D01*
X51298839Y-153326991D01*
X51232238Y-153488907D01*
X51176006Y-153635329D01*
X51133066Y-153759781D01*
X51127662Y-153777100D01*
X51115984Y-153815200D01*
X54844245Y-153815200D01*
X54835536Y-153777100D01*
X54813615Y-153675621D01*
X54788446Y-153549863D01*
X54761263Y-153406865D01*
X54733303Y-153253669D01*
X54705799Y-153097313D01*
X54679986Y-152944839D01*
X54657099Y-152803287D01*
X54638373Y-152679695D01*
X54625042Y-152581105D01*
X54623488Y-152568088D01*
X54611460Y-152460823D01*
X54602923Y-152371268D01*
X54597642Y-152290898D01*
X54595382Y-152211186D01*
X54595909Y-152123609D01*
X54598988Y-152019639D01*
X54604383Y-151890753D01*
X54604658Y-151884626D01*
X54609830Y-151775449D01*
X54614917Y-151678177D01*
X54619623Y-151597716D01*
X54623651Y-151538976D01*
X54626707Y-151506864D01*
X54627720Y-151502369D01*
X54639205Y-151512372D01*
X54664014Y-151544395D01*
X54697186Y-151591954D01*
X54703641Y-151601631D01*
X54745080Y-151658744D01*
X54801806Y-151729700D01*
X54865371Y-151804187D01*
X54910543Y-151854125D01*
X55020315Y-151960811D01*
X55123363Y-152036268D01*
X55223153Y-152081563D01*
X55323151Y-152097764D01*
X55426823Y-152085939D01*
X55537443Y-152047241D01*
X55584609Y-152022913D01*
X55651319Y-151984269D01*
X55732049Y-151934930D01*
X55821274Y-151878519D01*
X55913471Y-151818657D01*
X56003116Y-151758966D01*
X56084684Y-151703069D01*
X56152653Y-151654587D01*
X56201497Y-151617143D01*
X56222866Y-151597818D01*
X56253012Y-151570728D01*
X56272716Y-151564132D01*
X56275759Y-151579672D01*
X56274316Y-151584234D01*
X56269362Y-151607298D01*
X56260381Y-151657904D01*
X56248369Y-151730102D01*
X56234321Y-151817941D01*
X56222624Y-151893267D01*
X56171808Y-152199388D01*
X56113613Y-152505191D01*
X56049626Y-152803566D01*
X55981435Y-153087408D01*
X55910630Y-153349609D01*
X55858912Y-153521034D01*
X55833734Y-153603986D01*
X55813500Y-153677725D01*
X55800035Y-153735056D01*
X55795160Y-153768784D01*
X55795342Y-153771839D01*
X55800333Y-153806733D01*
X58115966Y-153811027D01*
X58393085Y-153811474D01*
X58660739Y-153811775D01*
X58916990Y-153811935D01*
X59159899Y-153811957D01*
X59387527Y-153811847D01*
X59597937Y-153811607D01*
X59789189Y-153811242D01*
X59959345Y-153810756D01*
X60106465Y-153810154D01*
X60228612Y-153809440D01*
X60323847Y-153808618D01*
X60390231Y-153807692D01*
X60425826Y-153806666D01*
X60431600Y-153806019D01*
X60422643Y-153789499D01*
X60397902Y-153749897D01*
X60360576Y-153692180D01*
X60313859Y-153621315D01*
X60281697Y-153573126D01*
X60223029Y-153484470D01*
X60164515Y-153394041D01*
X60111813Y-153310713D01*
X60070580Y-153243362D01*
X60059904Y-153225204D01*
X60013208Y-153147304D01*
X59959723Y-153062301D01*
X59910983Y-152988521D01*
X59910719Y-152988137D01*
X59838990Y-152888431D01*
X59777007Y-152815358D01*
X59719540Y-152765176D01*
X59661358Y-152734144D01*
X59597230Y-152718518D01*
X59528276Y-152714533D01*
X59468085Y-152711258D01*
X59431765Y-152699661D01*
X59413432Y-152682515D01*
X59388690Y-152650821D01*
X59346376Y-152599119D01*
X59291164Y-152532936D01*
X59227725Y-152457802D01*
X59160731Y-152379244D01*
X59094855Y-152302792D01*
X59034769Y-152233974D01*
X59025498Y-152223467D01*
X58975012Y-152164465D01*
X58910927Y-152086757D01*
X58840008Y-151998696D01*
X58769021Y-151908634D01*
X58737464Y-151867867D01*
X58664519Y-151777079D01*
X58575516Y-151672623D01*
X58478971Y-151564134D01*
X58383400Y-151461245D01*
X58324020Y-151400107D01*
X58235293Y-151311862D01*
X58164081Y-151243951D01*
X58104910Y-151191836D01*
X58052309Y-151150980D01*
X58000804Y-151116847D01*
X57944922Y-151084899D01*
X57941700Y-151083162D01*
X57834752Y-151030115D01*
X57808475Y-151020076D01*
X56452267Y-151020076D01*
X56445718Y-151041113D01*
X56428485Y-151083896D01*
X56404188Y-151139475D01*
X56402225Y-151143813D01*
X56373010Y-151213542D01*
X56347088Y-151284497D01*
X56332083Y-151334005D01*
X56313144Y-151388644D01*
X56282826Y-151430268D01*
X56233957Y-151470703D01*
X56179248Y-151508661D01*
X56104782Y-151557625D01*
X56016177Y-151614165D01*
X55919051Y-151674849D01*
X55819021Y-151736246D01*
X55721706Y-151794926D01*
X55632723Y-151847457D01*
X55557691Y-151890408D01*
X55502226Y-151920349D01*
X55481352Y-151930351D01*
X55383489Y-151959943D01*
X55285000Y-151967315D01*
X55196778Y-151952048D01*
X55172287Y-151942214D01*
X55128227Y-151912848D01*
X55069534Y-151861730D01*
X55001464Y-151794515D01*
X54929277Y-151716860D01*
X54858229Y-151634421D01*
X54793580Y-151552855D01*
X54740587Y-151477817D01*
X54740562Y-151477779D01*
X54698025Y-151410347D01*
X54671738Y-151361724D01*
X54658242Y-151323179D01*
X54654078Y-151285980D01*
X54654614Y-151260792D01*
X54660666Y-151181509D01*
X54671541Y-151127948D01*
X54690359Y-151092012D01*
X54720238Y-151065598D01*
X54732820Y-151057731D01*
X54789126Y-151024510D01*
X54834878Y-151132161D01*
X54871233Y-151208465D01*
X54902870Y-151256093D01*
X54928529Y-151273414D01*
X54940463Y-151268648D01*
X54945460Y-151244077D01*
X54942472Y-151193693D01*
X54932754Y-151124264D01*
X54917563Y-151042557D01*
X54898153Y-150955342D01*
X54875779Y-150869386D01*
X54852239Y-150793041D01*
X54829190Y-150723085D01*
X54811821Y-150665974D01*
X54802147Y-150628625D01*
X54801185Y-150617704D01*
X54818471Y-150620856D01*
X54862463Y-150633580D01*
X54927913Y-150654227D01*
X55009574Y-150681148D01*
X55089623Y-150708355D01*
X55371618Y-150805451D01*
X55585976Y-150796549D01*
X55732079Y-150785746D01*
X55855522Y-150765079D01*
X55966683Y-150732113D01*
X56075942Y-150684416D01*
X56086056Y-150679308D01*
X56151875Y-150645729D01*
X56140386Y-150691507D01*
X56123034Y-150769316D01*
X56115724Y-150832593D01*
X56117149Y-150898715D01*
X56121391Y-150944531D01*
X56131215Y-151010668D01*
X56143730Y-151046293D01*
X56156958Y-151055067D01*
X56178316Y-151040617D01*
X56191443Y-151012216D01*
X56208490Y-150980026D01*
X56229865Y-150976962D01*
X56261380Y-150983001D01*
X56313300Y-150990521D01*
X56354900Y-150995632D01*
X56407145Y-151003675D01*
X56442485Y-151013140D01*
X56452267Y-151020076D01*
X57808475Y-151020076D01*
X57735792Y-150992308D01*
X57634962Y-150967438D01*
X57522402Y-150953204D01*
X57388253Y-150947302D01*
X57358200Y-150946922D01*
X57262933Y-150946851D01*
X57168434Y-150948095D01*
X57085915Y-150950432D01*
X57028750Y-150953467D01*
X56919433Y-150961934D01*
X56903443Y-150906587D01*
X56896924Y-150878169D01*
X56899591Y-150855042D01*
X56915747Y-150829887D01*
X56949696Y-150795383D01*
X56991103Y-150757443D01*
X57049051Y-150700818D01*
X57116012Y-150629030D01*
X57180890Y-150554168D01*
X57205816Y-150523500D01*
X57257573Y-150460631D01*
X57307340Y-150404407D01*
X57348105Y-150362549D01*
X57366118Y-150346950D01*
X57399126Y-150324283D01*
X57415245Y-150321695D01*
X57424129Y-150338229D01*
X57425058Y-150341108D01*
X57445932Y-150376998D01*
X57484136Y-150418983D01*
X57532626Y-150461749D01*
X57584359Y-150499980D01*
X57632289Y-150528360D01*
X57669373Y-150541575D01*
X57686096Y-150538082D01*
X57690600Y-150518643D01*
X57696163Y-150472557D01*
X57702036Y-150406998D01*
X57706846Y-150339232D01*
X57720925Y-150204413D01*
X57747129Y-150044912D01*
X57784188Y-149867157D01*
X57830836Y-149677574D01*
X57854557Y-149590334D01*
X57881227Y-149514455D01*
X57919280Y-149429357D01*
X57960492Y-149353432D01*
X57960594Y-149353267D01*
X58001110Y-149282771D01*
X58047029Y-149195838D01*
X58090648Y-149107261D01*
X58106095Y-149073867D01*
X58143188Y-148995382D01*
X58173989Y-148940860D01*
X58203888Y-148902476D01*
X58238272Y-148872404D01*
X58251072Y-148863279D01*
X58376369Y-148770860D01*
X58512918Y-148659156D01*
X58655625Y-148533200D01*
X58799395Y-148398024D01*
X58939133Y-148258660D01*
X59069743Y-148120139D01*
X59186131Y-147987495D01*
X59283202Y-147865758D01*
X59334857Y-147792860D01*
X59406865Y-147676578D01*
X59457507Y-147574302D01*
X59490196Y-147476952D01*
X59508347Y-147375449D01*
X59513129Y-147318762D01*
X59513607Y-147306635D01*
X59369483Y-147306635D01*
X59367263Y-147372869D01*
X59359403Y-147426281D01*
X59342615Y-147479646D01*
X59313612Y-147545737D01*
X59301342Y-147571396D01*
X59259863Y-147650391D01*
X59211426Y-147732524D01*
X59165363Y-147802123D01*
X59157878Y-147812334D01*
X59064161Y-147929257D01*
X58949884Y-148058724D01*
X58822005Y-148193535D01*
X58687483Y-148326494D01*
X58553276Y-148450401D01*
X58478340Y-148515269D01*
X58402559Y-148578968D01*
X58336327Y-148634468D01*
X58283738Y-148678352D01*
X58248885Y-148707206D01*
X58235865Y-148717614D01*
X58237815Y-148703768D01*
X58246367Y-148669014D01*
X58247920Y-148663234D01*
X58261328Y-148606421D01*
X58278724Y-148521560D01*
X58299194Y-148414109D01*
X58321824Y-148289529D01*
X58345700Y-148153281D01*
X58369909Y-148010825D01*
X58393537Y-147867621D01*
X58415669Y-147729130D01*
X58435391Y-147600813D01*
X58451791Y-147488128D01*
X58463953Y-147396538D01*
X58470964Y-147331503D01*
X58471109Y-147329733D01*
X58481160Y-147221214D01*
X58493917Y-147139959D01*
X58513206Y-147079384D01*
X58542855Y-147032906D01*
X58586691Y-146993940D01*
X58648539Y-146955904D01*
X58706013Y-146925580D01*
X58785292Y-146887698D01*
X58846861Y-146865750D01*
X58900922Y-146856491D01*
X58926035Y-146855600D01*
X59028869Y-146871360D01*
X59131038Y-146915430D01*
X59224818Y-146982998D01*
X59302485Y-147069252D01*
X59325229Y-147104319D01*
X59349982Y-147152338D01*
X59363594Y-147198500D01*
X59368992Y-147256199D01*
X59369483Y-147306635D01*
X59513607Y-147306635D01*
X59516055Y-147244581D01*
X59513048Y-147191022D01*
X59502145Y-147145074D01*
X59481383Y-147093726D01*
X59478084Y-147086470D01*
X59441731Y-147021410D01*
X59392818Y-146951628D01*
X59355488Y-146907248D01*
X59301809Y-146858276D01*
X59235523Y-146809851D01*
X59165513Y-146767260D01*
X59100658Y-146735789D01*
X59049840Y-146720722D01*
X59041113Y-146720133D01*
X59023341Y-146717551D01*
X59019188Y-146704135D01*
X59028052Y-146671386D01*
X59036013Y-146648394D01*
X59039342Y-146637450D01*
X58404941Y-146637450D01*
X58403147Y-146678279D01*
X58392527Y-146699860D01*
X58363307Y-146717852D01*
X58308885Y-146735909D01*
X58289546Y-146741130D01*
X58214599Y-146764843D01*
X58119444Y-146800873D01*
X58013486Y-146845108D01*
X57906132Y-146893434D01*
X57806786Y-146941740D01*
X57724857Y-146985914D01*
X57711358Y-146993910D01*
X57655287Y-147029944D01*
X57584364Y-147078540D01*
X57510475Y-147131469D01*
X57479641Y-147154345D01*
X57341266Y-147258356D01*
X57314568Y-147188211D01*
X57291572Y-147127294D01*
X57265966Y-147058772D01*
X57257866Y-147036930D01*
X57232739Y-146984243D01*
X57203061Y-146942710D01*
X57189339Y-146930553D01*
X57145451Y-146911552D01*
X57087500Y-146898435D01*
X57027657Y-146892559D01*
X56978092Y-146895281D01*
X56954272Y-146904349D01*
X56936963Y-146911678D01*
X56925679Y-146893613D01*
X56919720Y-146868572D01*
X56905036Y-146827881D01*
X56876309Y-146770937D01*
X56839294Y-146708961D01*
X56832747Y-146698967D01*
X56756797Y-146584667D01*
X56825642Y-146584667D01*
X56871665Y-146588181D01*
X56938363Y-146597554D01*
X57016755Y-146611029D01*
X57097859Y-146626850D01*
X57172692Y-146643263D01*
X57232274Y-146658510D01*
X57267621Y-146670837D01*
X57268315Y-146671198D01*
X57286446Y-146693748D01*
X57309924Y-146741046D01*
X57335041Y-146805203D01*
X57344515Y-146833203D01*
X57373550Y-146914794D01*
X57397736Y-146967030D01*
X57416036Y-146989284D01*
X57427417Y-146980926D01*
X57430845Y-146941327D01*
X57426796Y-146883225D01*
X57422967Y-146785727D01*
X57434267Y-146712117D01*
X57434948Y-146710005D01*
X57444471Y-146673570D01*
X57442292Y-146645969D01*
X57423986Y-146623407D01*
X57385128Y-146602091D01*
X57321295Y-146578228D01*
X57256600Y-146557089D01*
X57104200Y-146508467D01*
X56655467Y-146510069D01*
X56501653Y-146511092D01*
X56376075Y-146513448D01*
X56273109Y-146517888D01*
X56187127Y-146525162D01*
X56112506Y-146536019D01*
X56043620Y-146551211D01*
X55974843Y-146571487D01*
X55900551Y-146597598D01*
X55847115Y-146617870D01*
X55757056Y-146656159D01*
X55675081Y-146697542D01*
X55605079Y-146739229D01*
X55550938Y-146778433D01*
X55516546Y-146812362D01*
X55505791Y-146838228D01*
X55520070Y-146852490D01*
X55530669Y-146868430D01*
X55528506Y-146873980D01*
X55530127Y-146887055D01*
X55550060Y-146888141D01*
X55575177Y-146877843D01*
X55582957Y-146871470D01*
X55595530Y-146871433D01*
X55605945Y-146900980D01*
X55612720Y-146942169D01*
X55624836Y-146999974D01*
X55647858Y-147081229D01*
X55679133Y-147178351D01*
X55716005Y-147283757D01*
X55755820Y-147389863D01*
X55795924Y-147489088D01*
X55833662Y-147573847D01*
X55834339Y-147575267D01*
X55869550Y-147640988D01*
X55908431Y-147701227D01*
X55942807Y-147743370D01*
X55944077Y-147744600D01*
X55997274Y-147795400D01*
X56562333Y-147795400D01*
X56782467Y-147719200D01*
X56874545Y-147686401D01*
X56938649Y-147661007D01*
X56979278Y-147640821D01*
X57000933Y-147623646D01*
X57007893Y-147609134D01*
X57016494Y-147530638D01*
X56910350Y-147530638D01*
X56897325Y-147568489D01*
X56864132Y-147594732D01*
X56831953Y-147600667D01*
X56792817Y-147590064D01*
X56774773Y-147576199D01*
X56756297Y-147533587D01*
X56764480Y-147493355D01*
X56792657Y-147463902D01*
X56834160Y-147453626D01*
X56865818Y-147461520D01*
X56900688Y-147491531D01*
X56910350Y-147530638D01*
X57016494Y-147530638D01*
X57021781Y-147482396D01*
X57020745Y-147362862D01*
X57004287Y-147234876D01*
X56994388Y-147183211D01*
X56978373Y-147106930D01*
X56963854Y-147041214D01*
X56953559Y-146997937D01*
X56057557Y-146997937D01*
X56055720Y-147073231D01*
X56043450Y-147143542D01*
X56022254Y-147197292D01*
X56010607Y-147212593D01*
X55964361Y-147237974D01*
X55901848Y-147246853D01*
X55836202Y-147239535D01*
X55780558Y-147216325D01*
X55768500Y-147206967D01*
X55745286Y-147174120D01*
X55717932Y-147118148D01*
X55690058Y-147048891D01*
X55665285Y-146976191D01*
X55647235Y-146909888D01*
X55639529Y-146859822D01*
X55639467Y-146856306D01*
X55649418Y-146835042D01*
X55682142Y-146811374D01*
X55741948Y-146782434D01*
X55765289Y-146772514D01*
X55826404Y-146747952D01*
X55876190Y-146729564D01*
X55905859Y-146720548D01*
X55909116Y-146720133D01*
X55932117Y-146734138D01*
X55963106Y-146770308D01*
X55996283Y-146819874D01*
X56025848Y-146874069D01*
X56046000Y-146924125D01*
X56047456Y-146929237D01*
X56057557Y-146997937D01*
X56953559Y-146997937D01*
X56952693Y-146994301D01*
X56947647Y-146976412D01*
X56943464Y-146959139D01*
X56955256Y-146964659D01*
X56971195Y-146978155D01*
X57012124Y-147005282D01*
X57057393Y-147025911D01*
X57080463Y-147036240D01*
X57099447Y-147052795D01*
X57117644Y-147081346D01*
X57138351Y-147127661D01*
X57164868Y-147197509D01*
X57180963Y-147242023D01*
X57211151Y-147332098D01*
X57238371Y-147424079D01*
X57259312Y-147506153D01*
X57269561Y-147558333D01*
X57287183Y-147676867D01*
X57208392Y-147822192D01*
X57162574Y-147911662D01*
X57136892Y-147974602D01*
X57131470Y-148011806D01*
X57146431Y-148024067D01*
X57181900Y-148012178D01*
X57233163Y-147980307D01*
X57304040Y-147916271D01*
X57365336Y-147833799D01*
X57399587Y-147764664D01*
X57410922Y-147712256D01*
X57416387Y-147639922D01*
X57415890Y-147561107D01*
X57409339Y-147489256D01*
X57401715Y-147452388D01*
X57394266Y-147415723D01*
X57396647Y-147397816D01*
X57397892Y-147397467D01*
X57416884Y-147389478D01*
X57457834Y-147368065D01*
X57513558Y-147337060D01*
X57544877Y-147319064D01*
X57669288Y-147247323D01*
X57773824Y-147188364D01*
X57867531Y-147137353D01*
X57959458Y-147089453D01*
X58058653Y-147039831D01*
X58157619Y-146991634D01*
X58403155Y-146873041D01*
X58391506Y-147029420D01*
X58369823Y-147257673D01*
X58338957Y-147493466D01*
X58301358Y-147718758D01*
X58289763Y-147778467D01*
X58272061Y-147868513D01*
X58250732Y-147980177D01*
X58227984Y-148101714D01*
X58206028Y-148221383D01*
X58196972Y-148271621D01*
X58167349Y-148431332D01*
X58140292Y-148563544D01*
X58114243Y-148674369D01*
X58087647Y-148769925D01*
X58058945Y-148856324D01*
X58027395Y-148937718D01*
X57931249Y-149146039D01*
X57824041Y-149333464D01*
X57708539Y-149495617D01*
X57595545Y-149620445D01*
X57526071Y-149680168D01*
X57429734Y-149752013D01*
X57310307Y-149833671D01*
X57171564Y-149922830D01*
X57017279Y-150017177D01*
X56851224Y-150114402D01*
X56677173Y-150212193D01*
X56498900Y-150308238D01*
X56333733Y-150393408D01*
X56186744Y-150466606D01*
X56063932Y-150525133D01*
X55959809Y-150570651D01*
X55868885Y-150604826D01*
X55785671Y-150629320D01*
X55704679Y-150645798D01*
X55620419Y-150655923D01*
X55527403Y-150661359D01*
X55442859Y-150663453D01*
X55381244Y-150663573D01*
X55332978Y-150660034D01*
X55288297Y-150650343D01*
X55237436Y-150632010D01*
X55170630Y-150602541D01*
X55129592Y-150583503D01*
X54986908Y-150522083D01*
X54822943Y-150461353D01*
X54634662Y-150400336D01*
X54419024Y-150338051D01*
X54172993Y-150273520D01*
X54149333Y-150267588D01*
X54088774Y-150250914D01*
X54002768Y-150225128D01*
X53897818Y-150192355D01*
X53780426Y-150154717D01*
X53657094Y-150114339D01*
X53534324Y-150073344D01*
X53418618Y-150033856D01*
X53316479Y-149997999D01*
X53251866Y-149974460D01*
X53166041Y-149939189D01*
X53098812Y-149904932D01*
X53056755Y-149875108D01*
X53052779Y-149870950D01*
X53015059Y-149817651D01*
X52969228Y-149735752D01*
X52916958Y-149629078D01*
X52859919Y-149501452D01*
X52854636Y-149488734D01*
X52743902Y-149488734D01*
X52633488Y-149370200D01*
X52572327Y-149301566D01*
X52508839Y-149225512D01*
X52454651Y-149156073D01*
X52444070Y-149141600D01*
X52323368Y-148983470D01*
X52190055Y-148829402D01*
X52130990Y-148766186D01*
X52051693Y-148669990D01*
X51989369Y-148568200D01*
X51948618Y-148469245D01*
X51935583Y-148407943D01*
X51939262Y-148337579D01*
X51969501Y-148284330D01*
X52028180Y-148246138D01*
X52104054Y-148223509D01*
X52164407Y-148213198D01*
X52208733Y-148213587D01*
X52253517Y-148225893D01*
X52280343Y-148236526D01*
X52359846Y-148269534D01*
X52398581Y-148421934D01*
X52422297Y-148509860D01*
X52449883Y-148604151D01*
X52476054Y-148686864D01*
X52480488Y-148699959D01*
X52499945Y-148759849D01*
X52512894Y-148806215D01*
X52517115Y-148830880D01*
X52516573Y-148832672D01*
X52502847Y-148823866D01*
X52469923Y-148794848D01*
X52422190Y-148749706D01*
X52364040Y-148692528D01*
X52339290Y-148667650D01*
X52277446Y-148606985D01*
X52223146Y-148557227D01*
X52181063Y-148522397D01*
X52155876Y-148506517D01*
X52151681Y-148506303D01*
X52135650Y-148528491D01*
X52138959Y-148564946D01*
X52162633Y-148617518D01*
X52207701Y-148688060D01*
X52275189Y-148778423D01*
X52362092Y-148885618D01*
X52420894Y-148955118D01*
X52479093Y-149021961D01*
X52529394Y-149077873D01*
X52560528Y-149110661D01*
X52601697Y-149156959D01*
X52633867Y-149202224D01*
X52644408Y-149222710D01*
X52659490Y-149262372D01*
X52681347Y-149320556D01*
X52703016Y-149378667D01*
X52743902Y-149488734D01*
X52854636Y-149488734D01*
X52799782Y-149356700D01*
X52738216Y-149198644D01*
X52676894Y-149031109D01*
X52641697Y-148929934D01*
X52603413Y-148821408D01*
X52561793Y-148709636D01*
X52520667Y-148604515D01*
X52483868Y-148515941D01*
X52465887Y-148475772D01*
X52434229Y-148406572D01*
X52408800Y-148348366D01*
X52392589Y-148308167D01*
X52388266Y-148293739D01*
X52400261Y-148278860D01*
X52427520Y-148279786D01*
X52456959Y-148293791D01*
X52472628Y-148311297D01*
X52499621Y-148335227D01*
X52549332Y-148359539D01*
X52610887Y-148380326D01*
X52673411Y-148393684D01*
X52709957Y-148396534D01*
X52737344Y-148401078D01*
X52758562Y-148419596D01*
X52780157Y-148459412D01*
X52793169Y-148489666D01*
X52823813Y-148549314D01*
X52859449Y-148598195D01*
X52879333Y-148616666D01*
X52936203Y-148642746D01*
X52999513Y-148650430D01*
X53056844Y-148639656D01*
X53090034Y-148617734D01*
X53108930Y-148582896D01*
X53100425Y-148557339D01*
X53072226Y-148548934D01*
X53012658Y-148532675D01*
X52958819Y-148486560D01*
X52915308Y-148414580D01*
X52914023Y-148411627D01*
X52894343Y-148357439D01*
X52873457Y-148285890D01*
X52852690Y-148203552D01*
X52833368Y-148116997D01*
X52816819Y-148032798D01*
X52804369Y-147957528D01*
X52797344Y-147897758D01*
X52797071Y-147860061D01*
X52800817Y-147850693D01*
X52848866Y-147838425D01*
X52904831Y-147853109D01*
X52937208Y-147873531D01*
X52969380Y-147895726D01*
X52988452Y-147903103D01*
X52989467Y-147902578D01*
X52984162Y-147886259D01*
X52964142Y-147848704D01*
X52933277Y-147796989D01*
X52921282Y-147777881D01*
X52886517Y-147721122D01*
X52860204Y-147674285D01*
X52846766Y-147645377D01*
X52845907Y-147641437D01*
X52859904Y-147627409D01*
X52896719Y-147604302D01*
X52948009Y-147576304D01*
X53005432Y-147547602D01*
X53060645Y-147522384D01*
X53105307Y-147504838D01*
X53129529Y-147499067D01*
X53142729Y-147504673D01*
X53153225Y-147525290D01*
X53162661Y-147566610D01*
X53172681Y-147634330D01*
X53175957Y-147659934D01*
X53190355Y-147735046D01*
X53215801Y-147827971D01*
X53249765Y-147932376D01*
X53289713Y-148041927D01*
X53333114Y-148150293D01*
X53377436Y-148251139D01*
X53420146Y-148338134D01*
X53458712Y-148404945D01*
X53489576Y-148444298D01*
X53505346Y-148457726D01*
X53522880Y-148467204D01*
X53547588Y-148473175D01*
X53584876Y-148476080D01*
X53640153Y-148476361D01*
X53718827Y-148474461D01*
X53817859Y-148471118D01*
X53927864Y-148466760D01*
X54010849Y-148461936D01*
X54073657Y-148455733D01*
X54123130Y-148447238D01*
X54166113Y-148435537D01*
X54209449Y-148419716D01*
X54212707Y-148418417D01*
X54267766Y-148394874D01*
X54309221Y-148374347D01*
X54327857Y-148361496D01*
X54333845Y-148338127D01*
X54340548Y-148291671D01*
X54345746Y-148240591D01*
X54345873Y-148237809D01*
X54196951Y-148237809D01*
X54182300Y-148270618D01*
X54148217Y-148288855D01*
X54101917Y-148290102D01*
X54059683Y-148275661D01*
X54042714Y-148259454D01*
X54032985Y-148218461D01*
X54043184Y-148173692D01*
X54068604Y-148140529D01*
X54081000Y-148134257D01*
X54126360Y-148134193D01*
X54165262Y-148157429D01*
X54191020Y-148194968D01*
X54196951Y-148237809D01*
X54345873Y-148237809D01*
X54348186Y-148187546D01*
X54344873Y-148136318D01*
X54334301Y-148077806D01*
X54314964Y-148002910D01*
X54295206Y-147935191D01*
X54260365Y-147822251D01*
X54229913Y-147733850D01*
X54200005Y-147661678D01*
X54197174Y-147656198D01*
X53517411Y-147656198D01*
X53509588Y-147709056D01*
X53508077Y-147712645D01*
X53490805Y-147741348D01*
X53477853Y-147747631D01*
X53477817Y-147747595D01*
X53459867Y-147749862D01*
X53442489Y-147763225D01*
X53404966Y-147778894D01*
X53351470Y-147774654D01*
X53292380Y-147751874D01*
X53274203Y-147741036D01*
X53244983Y-147706971D01*
X53223303Y-147645749D01*
X53217755Y-147620490D01*
X53206028Y-147563137D01*
X53195920Y-147516877D01*
X53191289Y-147497972D01*
X53196507Y-147478655D01*
X53226845Y-147460036D01*
X53274376Y-147442938D01*
X53348064Y-147422397D01*
X53398324Y-147416515D01*
X53432510Y-147425823D01*
X53457972Y-147450855D01*
X53461834Y-147456516D01*
X53491240Y-147517226D01*
X53510531Y-147588021D01*
X53517411Y-147656198D01*
X54197174Y-147656198D01*
X54166798Y-147597421D01*
X54126447Y-147532770D01*
X54075293Y-147459666D01*
X54026851Y-147389476D01*
X53999724Y-147341385D01*
X53992856Y-147312064D01*
X54005192Y-147298185D01*
X54023333Y-147295867D01*
X54048699Y-147291207D01*
X54046323Y-147279526D01*
X54020671Y-147264275D01*
X53976210Y-147248902D01*
X53956085Y-147243919D01*
X53873678Y-147234268D01*
X53765554Y-147235090D01*
X53637994Y-147245761D01*
X53497277Y-147265654D01*
X53349682Y-147294146D01*
X53273424Y-147311874D01*
X53144771Y-147347373D01*
X53025418Y-147387508D01*
X52919425Y-147430311D01*
X52830852Y-147473815D01*
X52763761Y-147516051D01*
X52722211Y-147555051D01*
X52710000Y-147584945D01*
X52715466Y-147609017D01*
X52723965Y-147610968D01*
X52738576Y-147619666D01*
X52760557Y-147651383D01*
X52774545Y-147677702D01*
X52811160Y-147753067D01*
X52761540Y-147753067D01*
X52710686Y-147768269D01*
X52674245Y-147808719D01*
X52658946Y-147866680D01*
X52658841Y-147871135D01*
X52661445Y-147905617D01*
X52668746Y-147964055D01*
X52679494Y-148037066D01*
X52687665Y-148087463D01*
X52700595Y-148175260D01*
X52705846Y-148237910D01*
X52703188Y-148272077D01*
X52700724Y-148276362D01*
X52678155Y-148276666D01*
X52630011Y-148262700D01*
X52560724Y-148235899D01*
X52516189Y-148216644D01*
X52447684Y-148185921D01*
X52391872Y-148160549D01*
X52355224Y-148143494D01*
X52344011Y-148137789D01*
X52345995Y-148120845D01*
X52355029Y-148080930D01*
X52365371Y-148040911D01*
X52380666Y-147936612D01*
X52377945Y-147808629D01*
X52357935Y-147661484D01*
X52321360Y-147499702D01*
X52268947Y-147327807D01*
X52236674Y-147238551D01*
X52206923Y-147159675D01*
X52188197Y-147106011D01*
X52179392Y-147071151D01*
X52179399Y-147048689D01*
X52187113Y-147032218D01*
X52198655Y-147018418D01*
X52399464Y-146782237D01*
X52570163Y-146554551D01*
X52712647Y-146332774D01*
X52754682Y-146258834D01*
X52786107Y-146202998D01*
X52809030Y-146164871D01*
X52820607Y-146149022D01*
X52820688Y-146152867D01*
X52809781Y-146177710D01*
X52784672Y-146228236D01*
X52745007Y-146305117D01*
X52690434Y-146409023D01*
X52620600Y-146540628D01*
X52535152Y-146700602D01*
X52438370Y-146881000D01*
X52410388Y-146936344D01*
X52388121Y-146986171D01*
X52380099Y-147008000D01*
X52359699Y-147053302D01*
X52341306Y-147079967D01*
X52327687Y-147102322D01*
X52332690Y-147109600D01*
X52366597Y-147100880D01*
X52423231Y-147076789D01*
X52496932Y-147040432D01*
X52582044Y-146994914D01*
X52672907Y-146943338D01*
X52763865Y-146888810D01*
X52849259Y-146834433D01*
X52910817Y-146792381D01*
X53018501Y-146715781D01*
X53137142Y-146735375D01*
X53211603Y-146750562D01*
X53300735Y-146772931D01*
X53387374Y-146798110D01*
X53401992Y-146802804D01*
X53494273Y-146830721D01*
X53574405Y-146850611D01*
X53637408Y-146861596D01*
X53678301Y-146862798D01*
X53692133Y-146853989D01*
X53706180Y-146840339D01*
X53721766Y-146837330D01*
X53739005Y-146833613D01*
X53728317Y-146826814D01*
X53714391Y-146815610D01*
X53726551Y-146804459D01*
X53741899Y-146787321D01*
X53734264Y-146767253D01*
X53701498Y-146742843D01*
X53641454Y-146712676D01*
X53551983Y-146675339D01*
X53499392Y-146655002D01*
X53416365Y-146623924D01*
X53344018Y-146597729D01*
X53288516Y-146578580D01*
X53256025Y-146568644D01*
X53250918Y-146567733D01*
X53238189Y-146563993D01*
X53240840Y-146550949D01*
X53261283Y-146525869D01*
X53301928Y-146486019D01*
X53365187Y-146428667D01*
X53403274Y-146395012D01*
X53570878Y-146236423D01*
X53695416Y-146102067D01*
X52845466Y-146102067D01*
X52837000Y-146110533D01*
X52828533Y-146102067D01*
X52837000Y-146093600D01*
X52845466Y-146102067D01*
X53695416Y-146102067D01*
X53732828Y-146061707D01*
X53883382Y-145878012D01*
X53963613Y-145766445D01*
X52973806Y-145766445D01*
X52964647Y-145802082D01*
X52947112Y-145854352D01*
X52924499Y-145915005D01*
X52900105Y-145975795D01*
X52877228Y-146028472D01*
X52859167Y-146064788D01*
X52849774Y-146076667D01*
X52848604Y-146063830D01*
X52854204Y-146047033D01*
X52865415Y-146018778D01*
X52885235Y-145967570D01*
X52910297Y-145902132D01*
X52924427Y-145865000D01*
X52947597Y-145806812D01*
X52964643Y-145769585D01*
X52973572Y-145757293D01*
X52973806Y-145766445D01*
X53963613Y-145766445D01*
X54016802Y-145692484D01*
X54127344Y-145512271D01*
X54157256Y-145456296D01*
X54185191Y-145403315D01*
X54206143Y-145366347D01*
X54216482Y-145351712D01*
X54216984Y-145352326D01*
X54209764Y-145382409D01*
X54189588Y-145436871D01*
X54159002Y-145509980D01*
X54120554Y-145596005D01*
X54076791Y-145689216D01*
X54030259Y-145783879D01*
X53992896Y-145856533D01*
X53917087Y-146000874D01*
X53855948Y-146118117D01*
X53808220Y-146211051D01*
X53772645Y-146282465D01*
X53747966Y-146335150D01*
X53732924Y-146371894D01*
X53726262Y-146395488D01*
X53726721Y-146408720D01*
X53733043Y-146414380D01*
X53740881Y-146415333D01*
X53756982Y-146402649D01*
X53787636Y-146368671D01*
X53827505Y-146319515D01*
X53848619Y-146291963D01*
X53907428Y-146219144D01*
X53976476Y-146141427D01*
X54041933Y-146074299D01*
X54048990Y-146067597D01*
X54182606Y-145939846D01*
X54297111Y-145824930D01*
X54400049Y-145714795D01*
X54498963Y-145601384D01*
X54595502Y-145483986D01*
X54720442Y-145323134D01*
X54234000Y-145323134D01*
X54225533Y-145331600D01*
X54217066Y-145323134D01*
X54225533Y-145314667D01*
X54234000Y-145323134D01*
X54720442Y-145323134D01*
X54747661Y-145288092D01*
X54876838Y-145106543D01*
X54986813Y-144932929D01*
X55081368Y-144760842D01*
X55164282Y-144583871D01*
X55239337Y-144395609D01*
X55242298Y-144387567D01*
X55268899Y-144317456D01*
X55291999Y-144260929D01*
X55308841Y-144224463D01*
X55316101Y-144214073D01*
X55327961Y-144228086D01*
X55350616Y-144265290D01*
X55379801Y-144318538D01*
X55389330Y-144336839D01*
X55480509Y-144483782D01*
X55603278Y-144633082D01*
X55755606Y-144783028D01*
X55935462Y-144931907D01*
X56140814Y-145078005D01*
X56369633Y-145219611D01*
X56560485Y-145324482D01*
X56777342Y-145437673D01*
X56591713Y-145534201D01*
X56430532Y-145623933D01*
X56270533Y-145724028D01*
X56117641Y-145830127D01*
X55977780Y-145937870D01*
X55856875Y-146042898D01*
X55760849Y-146140851D01*
X55749533Y-146153982D01*
X55715272Y-146195402D01*
X55698619Y-146218603D01*
X55701242Y-146222876D01*
X55724806Y-146207513D01*
X55770978Y-146171806D01*
X55841424Y-146115046D01*
X55841768Y-146114767D01*
X55898819Y-146070261D01*
X55932034Y-146048336D01*
X55940880Y-146048760D01*
X55924825Y-146071303D01*
X55883334Y-146115733D01*
X55871493Y-146127668D01*
X55831275Y-146170645D01*
X55804648Y-146204539D01*
X55796873Y-146222575D01*
X55797300Y-146223211D01*
X55814308Y-146218285D01*
X55849314Y-146195414D01*
X55895175Y-146159343D01*
X55901520Y-146153967D01*
X55955668Y-146109185D01*
X55985606Y-146088034D01*
X55991321Y-146090515D01*
X55972801Y-146116629D01*
X55942512Y-146152278D01*
X55915097Y-146186895D01*
X55903712Y-146208509D01*
X55906021Y-146212133D01*
X55928096Y-146200733D01*
X55954280Y-146176558D01*
X55989654Y-146145108D01*
X56047748Y-146101753D01*
X56121657Y-146051000D01*
X56204477Y-145997358D01*
X56289305Y-145945336D01*
X56347038Y-145912187D01*
X56263270Y-145912187D01*
X56259150Y-145921650D01*
X56242100Y-145939829D01*
X56232298Y-145936100D01*
X56232133Y-145933733D01*
X56244161Y-145919410D01*
X56251683Y-145914183D01*
X56263270Y-145912187D01*
X56347038Y-145912187D01*
X56369236Y-145899442D01*
X56418320Y-145873507D01*
X56483551Y-145842084D01*
X56569575Y-145802586D01*
X56665842Y-145759769D01*
X56761802Y-145718385D01*
X56774506Y-145713020D01*
X56795181Y-145704139D01*
X56665892Y-145704139D01*
X56656506Y-145711211D01*
X56623472Y-145730125D01*
X56573362Y-145757437D01*
X56512748Y-145789703D01*
X56448202Y-145823478D01*
X56386297Y-145855317D01*
X56333604Y-145881777D01*
X56296695Y-145899412D01*
X56282933Y-145904854D01*
X56287714Y-145897137D01*
X56308333Y-145879359D01*
X56336504Y-145861524D01*
X56385131Y-145834923D01*
X56446349Y-145803412D01*
X56512289Y-145770847D01*
X56575085Y-145741081D01*
X56626869Y-145717971D01*
X56659774Y-145705372D01*
X56665892Y-145704139D01*
X56795181Y-145704139D01*
X56821474Y-145692845D01*
X56717555Y-145692845D01*
X56715231Y-145702911D01*
X56706267Y-145704134D01*
X56692328Y-145697938D01*
X56694978Y-145692845D01*
X56715074Y-145690818D01*
X56717555Y-145692845D01*
X56821474Y-145692845D01*
X56854325Y-145678734D01*
X56757067Y-145678734D01*
X56748600Y-145687200D01*
X56740133Y-145678734D01*
X56748600Y-145670267D01*
X56757067Y-145678734D01*
X56854325Y-145678734D01*
X56855781Y-145678109D01*
X56892156Y-145661800D01*
X56807867Y-145661800D01*
X56799400Y-145670267D01*
X56790933Y-145661800D01*
X56799400Y-145653334D01*
X56807867Y-145661800D01*
X56892156Y-145661800D01*
X56925471Y-145646863D01*
X56977782Y-145621980D01*
X57006923Y-145606159D01*
X57010823Y-145602927D01*
X57028357Y-145594067D01*
X56689333Y-145594067D01*
X56680867Y-145602534D01*
X56672400Y-145594067D01*
X56680867Y-145585600D01*
X56689333Y-145594067D01*
X57028357Y-145594067D01*
X57030889Y-145592788D01*
X57074719Y-145580255D01*
X57089501Y-145577134D01*
X56723200Y-145577134D01*
X56714733Y-145585600D01*
X56706267Y-145577134D01*
X56714733Y-145568667D01*
X56723200Y-145577134D01*
X57089501Y-145577134D01*
X57129633Y-145568661D01*
X57209529Y-145552270D01*
X57257556Y-145537536D01*
X57275625Y-145523639D01*
X57266094Y-145510035D01*
X57240809Y-145502353D01*
X56867133Y-145502353D01*
X56864933Y-145509258D01*
X56839238Y-145526593D01*
X56824800Y-145534800D01*
X56782913Y-145555570D01*
X56752834Y-145566670D01*
X56748600Y-145567247D01*
X56750800Y-145560342D01*
X56776495Y-145543007D01*
X56790933Y-145534800D01*
X56832820Y-145514030D01*
X56862899Y-145502931D01*
X56867133Y-145502353D01*
X57240809Y-145502353D01*
X57235967Y-145500882D01*
X57190977Y-145495968D01*
X57189022Y-145495906D01*
X57152935Y-145493278D01*
X57152194Y-145492467D01*
X56909467Y-145492467D01*
X56901000Y-145500934D01*
X56892533Y-145492467D01*
X56901000Y-145484000D01*
X56909467Y-145492467D01*
X57152194Y-145492467D01*
X57146061Y-145485755D01*
X57160536Y-145471955D01*
X57175938Y-145457312D01*
X57165381Y-145454402D01*
X57138066Y-145458442D01*
X57115933Y-145460727D01*
X57124702Y-145454191D01*
X57134879Y-145450134D01*
X57011067Y-145450134D01*
X57004871Y-145464072D01*
X56999778Y-145461422D01*
X56997751Y-145441326D01*
X56999778Y-145438845D01*
X57009844Y-145441169D01*
X57011067Y-145450134D01*
X57134879Y-145450134D01*
X57160291Y-145440004D01*
X57207413Y-145419374D01*
X57222838Y-145406147D01*
X57208275Y-145402147D01*
X57165429Y-145409197D01*
X57138066Y-145416267D01*
X57088507Y-145426981D01*
X57056833Y-145428100D01*
X57047652Y-145420941D01*
X57065573Y-145406819D01*
X57069534Y-145404978D01*
X56971555Y-145404978D01*
X56969231Y-145415045D01*
X56960267Y-145416267D01*
X56946328Y-145410071D01*
X56948978Y-145404978D01*
X56969074Y-145402951D01*
X56971555Y-145404978D01*
X57069534Y-145404978D01*
X57080575Y-145399848D01*
X57106354Y-145388098D01*
X57102555Y-145384693D01*
X57070333Y-145386599D01*
X57032569Y-145383681D01*
X57023767Y-145369515D01*
X57014559Y-145350659D01*
X57004878Y-145348534D01*
X56986858Y-145335625D01*
X56953179Y-145300362D01*
X56907883Y-145247938D01*
X56855012Y-145183545D01*
X56798606Y-145112378D01*
X56742707Y-145039629D01*
X56691357Y-144970492D01*
X56648596Y-144910159D01*
X56618465Y-144863824D01*
X56605007Y-144836681D01*
X56604667Y-144834243D01*
X56617195Y-144840275D01*
X56651054Y-144862790D01*
X56700655Y-144897723D01*
X56760409Y-144941008D01*
X56824727Y-144988579D01*
X56888020Y-145036371D01*
X56944699Y-145080318D01*
X56963322Y-145095150D01*
X57044237Y-145154909D01*
X57135324Y-145211035D01*
X57244032Y-145267726D01*
X57377810Y-145329184D01*
X57380207Y-145330235D01*
X57512802Y-145385415D01*
X57650401Y-145437544D01*
X57785798Y-145484253D01*
X57911790Y-145523172D01*
X58021171Y-145551931D01*
X58101491Y-145567457D01*
X58161741Y-145577449D01*
X58208383Y-145588125D01*
X58231510Y-145597207D01*
X58231679Y-145597371D01*
X58244241Y-145622199D01*
X58261968Y-145673010D01*
X58282889Y-145742679D01*
X58305036Y-145824082D01*
X58326441Y-145910094D01*
X58345135Y-145993591D01*
X58354972Y-146043540D01*
X58364804Y-146108209D01*
X58374697Y-146192233D01*
X58384076Y-146288034D01*
X58392364Y-146388034D01*
X58398988Y-146484656D01*
X58403372Y-146570320D01*
X58404941Y-146637450D01*
X59039342Y-146637450D01*
X59083181Y-146493341D01*
X59125126Y-146312897D01*
X59160268Y-146115343D01*
X59187027Y-145908958D01*
X59196670Y-145806263D01*
X59203420Y-145660992D01*
X59202881Y-145488816D01*
X59195665Y-145295763D01*
X59182386Y-145087858D01*
X59163657Y-144871131D01*
X59140090Y-144651607D01*
X59112298Y-144435314D01*
X59080895Y-144228278D01*
X59046494Y-144036528D01*
X59009708Y-143866089D01*
X58992330Y-143797168D01*
X58946541Y-143636992D01*
X58891553Y-143464127D01*
X58829661Y-143284475D01*
X58763156Y-143103938D01*
X58694333Y-142928417D01*
X58625484Y-142763814D01*
X58558902Y-142616030D01*
X58496879Y-142490967D01*
X58457077Y-142419551D01*
X58414680Y-142354849D01*
X58353941Y-142271067D01*
X58279534Y-142173974D01*
X58196129Y-142069335D01*
X58108401Y-141962917D01*
X58021020Y-141860488D01*
X57938659Y-141767814D01*
X57869229Y-141693967D01*
X57749139Y-141580580D01*
X57626758Y-141486173D01*
X57490597Y-141402595D01*
X57375133Y-141343368D01*
X57151891Y-141247439D01*
X56935011Y-141179206D01*
X56714930Y-141136471D01*
X56482087Y-141117040D01*
X56381789Y-141115300D01*
X56199419Y-141121795D01*
X56043044Y-141142511D01*
X55907256Y-141178995D01*
X55786645Y-141232796D01*
X55675801Y-141305461D01*
X55652373Y-141323982D01*
X55555417Y-141402954D01*
X55544292Y-141358630D01*
X55539006Y-141311009D01*
X55538980Y-141239321D01*
X55543494Y-141152834D01*
X55551826Y-141060815D01*
X55563255Y-140972533D01*
X55577060Y-140897253D01*
X55581676Y-140878133D01*
X55601413Y-140813145D01*
X55632315Y-140724268D01*
X55671601Y-140618472D01*
X55716491Y-140502730D01*
X55764202Y-140384014D01*
X55811955Y-140269296D01*
X55856967Y-140165548D01*
X55896458Y-140079742D01*
X55915304Y-140041779D01*
X56015270Y-139870866D01*
X56121972Y-139731466D01*
X56213151Y-139642085D01*
X56261537Y-139597558D01*
X56291180Y-139562900D01*
X56300832Y-139541438D01*
X56289247Y-139536502D01*
X56255177Y-139551421D01*
X56255177Y-139551421D01*
G37*
X56255177Y-139551421D02*
X56244833Y-139557519D01*
X56203263Y-139579572D01*
X56171565Y-139590784D01*
X56167868Y-139591137D01*
X56137125Y-139601813D01*
X56087445Y-139630703D01*
X56024976Y-139673267D01*
X55955865Y-139724964D01*
X55886260Y-139781253D01*
X55822306Y-139837594D01*
X55784492Y-139874326D01*
X55723932Y-139940473D01*
X55655481Y-140021547D01*
X55590108Y-140104347D01*
X55562531Y-140141533D01*
X55504764Y-140228817D01*
X55439784Y-140338826D01*
X55372241Y-140462567D01*
X55306786Y-140591045D01*
X55248070Y-140715265D01*
X55200745Y-140826234D01*
X55180680Y-140880017D01*
X55141921Y-140991968D01*
X55056260Y-140941269D01*
X54904800Y-140864002D01*
X54745992Y-140808421D01*
X54575526Y-140773898D01*
X54389092Y-140759807D01*
X54182379Y-140765520D01*
X53986269Y-140785643D01*
X53784684Y-140815824D01*
X53606733Y-140851523D01*
X53442278Y-140895729D01*
X53281181Y-140951430D01*
X53113305Y-141021614D01*
X52989400Y-141079476D01*
X52690435Y-141236527D01*
X52423794Y-141403325D01*
X52189510Y-141579843D01*
X51987616Y-141766058D01*
X51818145Y-141961943D01*
X51763588Y-142036977D01*
X51646792Y-142224316D01*
X51534394Y-142440409D01*
X51428139Y-142680248D01*
X51329770Y-142938824D01*
X51241033Y-143211129D01*
X51163670Y-143492155D01*
X51099426Y-143776894D01*
X51050045Y-144060336D01*
X51043819Y-144103934D01*
X51019705Y-144312766D01*
X51002269Y-144537710D01*
X50991660Y-144770370D01*
X50988028Y-145002351D01*
X50991525Y-145225259D01*
X51002299Y-145430698D01*
X51017327Y-145585600D01*
X51040797Y-145744302D01*
X51074081Y-145925138D01*
X51114997Y-146118572D01*
X51161363Y-146315067D01*
X51210995Y-146505088D01*
X51261711Y-146679099D01*
X51282593Y-146744460D01*
X51314501Y-146830428D01*
X51360392Y-146939152D01*
X51417123Y-147064171D01*
X51481553Y-147199024D01*
X51550540Y-147337250D01*
X51620942Y-147472386D01*
X51689616Y-147597973D01*
X51740354Y-147685803D01*
X51806038Y-147791465D01*
X51870074Y-147885858D01*
X51929137Y-147964616D01*
X51979899Y-148023373D01*
X52019033Y-148057762D01*
X52027236Y-148062331D01*
X52057518Y-148083004D01*
X52055047Y-148103110D01*
X52019399Y-148123361D01*
X51983851Y-148135309D01*
X51897429Y-148173466D01*
X51838480Y-148229860D01*
X51805715Y-148306472D01*
X51797848Y-148405284D01*
X51798618Y-148420348D01*
X51815480Y-148524881D01*
X51854025Y-148628077D01*
X51916762Y-148734644D01*
X52006198Y-148849294D01*
X52057532Y-148906624D01*
X52125710Y-148983001D01*
X52196080Y-149066570D01*
X52259383Y-149146098D01*
X52298504Y-149198962D01*
X52350461Y-149267700D01*
X52417158Y-149348485D01*
X52488922Y-149429891D01*
X52539680Y-149483892D01*
X52602209Y-149547306D01*
X52647069Y-149589822D01*
X52679689Y-149615304D01*
X52705503Y-149627618D01*
X52729941Y-149630628D01*
X52744641Y-149629730D01*
X52773439Y-149628395D01*
X52794464Y-149634936D01*
X52813462Y-149655202D01*
X52836174Y-149695042D01*
X52863923Y-149751200D01*
X52896409Y-149812521D01*
X52936602Y-149880345D01*
X52980097Y-149948178D01*
X53022487Y-150009529D01*
X53059365Y-150057902D01*
X53086326Y-150086804D01*
X53095198Y-150092028D01*
X53120830Y-150095386D01*
X53145728Y-150098168D01*
X53197125Y-150115666D01*
X53234108Y-150158597D01*
X53253256Y-150204143D01*
X53276058Y-150261914D01*
X53303048Y-150316421D01*
X53303432Y-150317088D01*
X53320109Y-150353526D01*
X53343176Y-150414032D01*
X53369573Y-150490153D01*
X53395939Y-150572467D01*
X53427262Y-150673796D01*
X53450800Y-150747385D01*
X53468460Y-150797944D01*
X53482145Y-150830185D01*
X53493761Y-150848819D01*
X53505212Y-150858555D01*
X53513107Y-150862206D01*
X53538377Y-150858456D01*
X53583445Y-150840093D01*
X53639617Y-150810803D01*
X53653627Y-150802650D01*
X53722135Y-150764694D01*
X53792143Y-150730313D01*
X53848981Y-150706692D01*
X53851031Y-150705985D01*
X53932383Y-150678265D01*
X54036625Y-150750978D01*
X54105673Y-150798786D01*
X54180229Y-150849865D01*
X54234624Y-150886728D01*
X54300764Y-150932693D01*
X54340178Y-150965164D01*
X54355241Y-150987966D01*
X54348331Y-151004926D01*
X54321822Y-151019869D01*
X54318262Y-151021368D01*
X54277277Y-151046573D01*
X54229484Y-151087393D01*
X54203688Y-151114270D01*
X54116683Y-151198781D01*
X54008332Y-151281759D01*
X53890385Y-151354502D01*
X53852886Y-151374023D01*
X53799329Y-151395916D01*
X53717602Y-151423259D01*
X53612727Y-151454777D01*
X53489724Y-151489193D01*
X53353615Y-151525230D01*
X53209421Y-151561611D01*
X53062164Y-151597058D01*
X52916866Y-151630296D01*
X52778547Y-151660047D01*
X52652228Y-151685034D01*
X52577329Y-151698387D01*
X52457461Y-151719536D01*
X52365899Y-151738162D01*
X52297305Y-151755617D01*
X52246341Y-151773252D01*
X52209029Y-151791614D01*
X52166281Y-151820654D01*
X52139222Y-151846700D01*
X52134266Y-151857479D01*
X52123751Y-151880383D01*
X52096077Y-151919932D01*
X52057054Y-151967886D01*
X52053833Y-151971590D01*
X51986997Y-152049641D01*
X51931870Y-152118498D01*
X51881948Y-152187253D01*
X51830729Y-152264993D01*
X51771710Y-152360810D01*
X51752511Y-152392766D01*
X51685078Y-152511654D01*
X51610476Y-152653903D01*
X51531628Y-152813037D01*
X51451457Y-152982580D01*
X51372886Y-153156057D01*
X51298839Y-153326991D01*
X51232238Y-153488907D01*
X51176006Y-153635329D01*
X51133066Y-153759781D01*
X51127662Y-153777100D01*
X51115984Y-153815200D01*
X54844245Y-153815200D01*
X54835536Y-153777100D01*
X54813615Y-153675621D01*
X54788446Y-153549863D01*
X54761263Y-153406865D01*
X54733303Y-153253669D01*
X54705799Y-153097313D01*
X54679986Y-152944839D01*
X54657099Y-152803287D01*
X54638373Y-152679695D01*
X54625042Y-152581105D01*
X54623488Y-152568088D01*
X54611460Y-152460823D01*
X54602923Y-152371268D01*
X54597642Y-152290898D01*
X54595382Y-152211186D01*
X54595909Y-152123609D01*
X54598988Y-152019639D01*
X54604383Y-151890753D01*
X54604658Y-151884626D01*
X54609830Y-151775449D01*
X54614917Y-151678177D01*
X54619623Y-151597716D01*
X54623651Y-151538976D01*
X54626707Y-151506864D01*
X54627720Y-151502369D01*
X54639205Y-151512372D01*
X54664014Y-151544395D01*
X54697186Y-151591954D01*
X54703641Y-151601631D01*
X54745080Y-151658744D01*
X54801806Y-151729700D01*
X54865371Y-151804187D01*
X54910543Y-151854125D01*
X55020315Y-151960811D01*
X55123363Y-152036268D01*
X55223153Y-152081563D01*
X55323151Y-152097764D01*
X55426823Y-152085939D01*
X55537443Y-152047241D01*
X55584609Y-152022913D01*
X55651319Y-151984269D01*
X55732049Y-151934930D01*
X55821274Y-151878519D01*
X55913471Y-151818657D01*
X56003116Y-151758966D01*
X56084684Y-151703069D01*
X56152653Y-151654587D01*
X56201497Y-151617143D01*
X56222866Y-151597818D01*
X56253012Y-151570728D01*
X56272716Y-151564132D01*
X56275759Y-151579672D01*
X56274316Y-151584234D01*
X56269362Y-151607298D01*
X56260381Y-151657904D01*
X56248369Y-151730102D01*
X56234321Y-151817941D01*
X56222624Y-151893267D01*
X56171808Y-152199388D01*
X56113613Y-152505191D01*
X56049626Y-152803566D01*
X55981435Y-153087408D01*
X55910630Y-153349609D01*
X55858912Y-153521034D01*
X55833734Y-153603986D01*
X55813500Y-153677725D01*
X55800035Y-153735056D01*
X55795160Y-153768784D01*
X55795342Y-153771839D01*
X55800333Y-153806733D01*
X58115966Y-153811027D01*
X58393085Y-153811474D01*
X58660739Y-153811775D01*
X58916990Y-153811935D01*
X59159899Y-153811957D01*
X59387527Y-153811847D01*
X59597937Y-153811607D01*
X59789189Y-153811242D01*
X59959345Y-153810756D01*
X60106465Y-153810154D01*
X60228612Y-153809440D01*
X60323847Y-153808618D01*
X60390231Y-153807692D01*
X60425826Y-153806666D01*
X60431600Y-153806019D01*
X60422643Y-153789499D01*
X60397902Y-153749897D01*
X60360576Y-153692180D01*
X60313859Y-153621315D01*
X60281697Y-153573126D01*
X60223029Y-153484470D01*
X60164515Y-153394041D01*
X60111813Y-153310713D01*
X60070580Y-153243362D01*
X60059904Y-153225204D01*
X60013208Y-153147304D01*
X59959723Y-153062301D01*
X59910983Y-152988521D01*
X59910719Y-152988137D01*
X59838990Y-152888431D01*
X59777007Y-152815358D01*
X59719540Y-152765176D01*
X59661358Y-152734144D01*
X59597230Y-152718518D01*
X59528276Y-152714533D01*
X59468085Y-152711258D01*
X59431765Y-152699661D01*
X59413432Y-152682515D01*
X59388690Y-152650821D01*
X59346376Y-152599119D01*
X59291164Y-152532936D01*
X59227725Y-152457802D01*
X59160731Y-152379244D01*
X59094855Y-152302792D01*
X59034769Y-152233974D01*
X59025498Y-152223467D01*
X58975012Y-152164465D01*
X58910927Y-152086757D01*
X58840008Y-151998696D01*
X58769021Y-151908634D01*
X58737464Y-151867867D01*
X58664519Y-151777079D01*
X58575516Y-151672623D01*
X58478971Y-151564134D01*
X58383400Y-151461245D01*
X58324020Y-151400107D01*
X58235293Y-151311862D01*
X58164081Y-151243951D01*
X58104910Y-151191836D01*
X58052309Y-151150980D01*
X58000804Y-151116847D01*
X57944922Y-151084899D01*
X57941700Y-151083162D01*
X57834752Y-151030115D01*
X57808475Y-151020076D01*
X56452267Y-151020076D01*
X56445718Y-151041113D01*
X56428485Y-151083896D01*
X56404188Y-151139475D01*
X56402225Y-151143813D01*
X56373010Y-151213542D01*
X56347088Y-151284497D01*
X56332083Y-151334005D01*
X56313144Y-151388644D01*
X56282826Y-151430268D01*
X56233957Y-151470703D01*
X56179248Y-151508661D01*
X56104782Y-151557625D01*
X56016177Y-151614165D01*
X55919051Y-151674849D01*
X55819021Y-151736246D01*
X55721706Y-151794926D01*
X55632723Y-151847457D01*
X55557691Y-151890408D01*
X55502226Y-151920349D01*
X55481352Y-151930351D01*
X55383489Y-151959943D01*
X55285000Y-151967315D01*
X55196778Y-151952048D01*
X55172287Y-151942214D01*
X55128227Y-151912848D01*
X55069534Y-151861730D01*
X55001464Y-151794515D01*
X54929277Y-151716860D01*
X54858229Y-151634421D01*
X54793580Y-151552855D01*
X54740587Y-151477817D01*
X54740562Y-151477779D01*
X54698025Y-151410347D01*
X54671738Y-151361724D01*
X54658242Y-151323179D01*
X54654078Y-151285980D01*
X54654614Y-151260792D01*
X54660666Y-151181509D01*
X54671541Y-151127948D01*
X54690359Y-151092012D01*
X54720238Y-151065598D01*
X54732820Y-151057731D01*
X54789126Y-151024510D01*
X54834878Y-151132161D01*
X54871233Y-151208465D01*
X54902870Y-151256093D01*
X54928529Y-151273414D01*
X54940463Y-151268648D01*
X54945460Y-151244077D01*
X54942472Y-151193693D01*
X54932754Y-151124264D01*
X54917563Y-151042557D01*
X54898153Y-150955342D01*
X54875779Y-150869386D01*
X54852239Y-150793041D01*
X54829190Y-150723085D01*
X54811821Y-150665974D01*
X54802147Y-150628625D01*
X54801185Y-150617704D01*
X54818471Y-150620856D01*
X54862463Y-150633580D01*
X54927913Y-150654227D01*
X55009574Y-150681148D01*
X55089623Y-150708355D01*
X55371618Y-150805451D01*
X55585976Y-150796549D01*
X55732079Y-150785746D01*
X55855522Y-150765079D01*
X55966683Y-150732113D01*
X56075942Y-150684416D01*
X56086056Y-150679308D01*
X56151875Y-150645729D01*
X56140386Y-150691507D01*
X56123034Y-150769316D01*
X56115724Y-150832593D01*
X56117149Y-150898715D01*
X56121391Y-150944531D01*
X56131215Y-151010668D01*
X56143730Y-151046293D01*
X56156958Y-151055067D01*
X56178316Y-151040617D01*
X56191443Y-151012216D01*
X56208490Y-150980026D01*
X56229865Y-150976962D01*
X56261380Y-150983001D01*
X56313300Y-150990521D01*
X56354900Y-150995632D01*
X56407145Y-151003675D01*
X56442485Y-151013140D01*
X56452267Y-151020076D01*
X57808475Y-151020076D01*
X57735792Y-150992308D01*
X57634962Y-150967438D01*
X57522402Y-150953204D01*
X57388253Y-150947302D01*
X57358200Y-150946922D01*
X57262933Y-150946851D01*
X57168434Y-150948095D01*
X57085915Y-150950432D01*
X57028750Y-150953467D01*
X56919433Y-150961934D01*
X56903443Y-150906587D01*
X56896924Y-150878169D01*
X56899591Y-150855042D01*
X56915747Y-150829887D01*
X56949696Y-150795383D01*
X56991103Y-150757443D01*
X57049051Y-150700818D01*
X57116012Y-150629030D01*
X57180890Y-150554168D01*
X57205816Y-150523500D01*
X57257573Y-150460631D01*
X57307340Y-150404407D01*
X57348105Y-150362549D01*
X57366118Y-150346950D01*
X57399126Y-150324283D01*
X57415245Y-150321695D01*
X57424129Y-150338229D01*
X57425058Y-150341108D01*
X57445932Y-150376998D01*
X57484136Y-150418983D01*
X57532626Y-150461749D01*
X57584359Y-150499980D01*
X57632289Y-150528360D01*
X57669373Y-150541575D01*
X57686096Y-150538082D01*
X57690600Y-150518643D01*
X57696163Y-150472557D01*
X57702036Y-150406998D01*
X57706846Y-150339232D01*
X57720925Y-150204413D01*
X57747129Y-150044912D01*
X57784188Y-149867157D01*
X57830836Y-149677574D01*
X57854557Y-149590334D01*
X57881227Y-149514455D01*
X57919280Y-149429357D01*
X57960492Y-149353432D01*
X57960594Y-149353267D01*
X58001110Y-149282771D01*
X58047029Y-149195838D01*
X58090648Y-149107261D01*
X58106095Y-149073867D01*
X58143188Y-148995382D01*
X58173989Y-148940860D01*
X58203888Y-148902476D01*
X58238272Y-148872404D01*
X58251072Y-148863279D01*
X58376369Y-148770860D01*
X58512918Y-148659156D01*
X58655625Y-148533200D01*
X58799395Y-148398024D01*
X58939133Y-148258660D01*
X59069743Y-148120139D01*
X59186131Y-147987495D01*
X59283202Y-147865758D01*
X59334857Y-147792860D01*
X59406865Y-147676578D01*
X59457507Y-147574302D01*
X59490196Y-147476952D01*
X59508347Y-147375449D01*
X59513129Y-147318762D01*
X59513607Y-147306635D01*
X59369483Y-147306635D01*
X59367263Y-147372869D01*
X59359403Y-147426281D01*
X59342615Y-147479646D01*
X59313612Y-147545737D01*
X59301342Y-147571396D01*
X59259863Y-147650391D01*
X59211426Y-147732524D01*
X59165363Y-147802123D01*
X59157878Y-147812334D01*
X59064161Y-147929257D01*
X58949884Y-148058724D01*
X58822005Y-148193535D01*
X58687483Y-148326494D01*
X58553276Y-148450401D01*
X58478340Y-148515269D01*
X58402559Y-148578968D01*
X58336327Y-148634468D01*
X58283738Y-148678352D01*
X58248885Y-148707206D01*
X58235865Y-148717614D01*
X58237815Y-148703768D01*
X58246367Y-148669014D01*
X58247920Y-148663234D01*
X58261328Y-148606421D01*
X58278724Y-148521560D01*
X58299194Y-148414109D01*
X58321824Y-148289529D01*
X58345700Y-148153281D01*
X58369909Y-148010825D01*
X58393537Y-147867621D01*
X58415669Y-147729130D01*
X58435391Y-147600813D01*
X58451791Y-147488128D01*
X58463953Y-147396538D01*
X58470964Y-147331503D01*
X58471109Y-147329733D01*
X58481160Y-147221214D01*
X58493917Y-147139959D01*
X58513206Y-147079384D01*
X58542855Y-147032906D01*
X58586691Y-146993940D01*
X58648539Y-146955904D01*
X58706013Y-146925580D01*
X58785292Y-146887698D01*
X58846861Y-146865750D01*
X58900922Y-146856491D01*
X58926035Y-146855600D01*
X59028869Y-146871360D01*
X59131038Y-146915430D01*
X59224818Y-146982998D01*
X59302485Y-147069252D01*
X59325229Y-147104319D01*
X59349982Y-147152338D01*
X59363594Y-147198500D01*
X59368992Y-147256199D01*
X59369483Y-147306635D01*
X59513607Y-147306635D01*
X59516055Y-147244581D01*
X59513048Y-147191022D01*
X59502145Y-147145074D01*
X59481383Y-147093726D01*
X59478084Y-147086470D01*
X59441731Y-147021410D01*
X59392818Y-146951628D01*
X59355488Y-146907248D01*
X59301809Y-146858276D01*
X59235523Y-146809851D01*
X59165513Y-146767260D01*
X59100658Y-146735789D01*
X59049840Y-146720722D01*
X59041113Y-146720133D01*
X59023341Y-146717551D01*
X59019188Y-146704135D01*
X59028052Y-146671386D01*
X59036013Y-146648394D01*
X59039342Y-146637450D01*
X58404941Y-146637450D01*
X58403147Y-146678279D01*
X58392527Y-146699860D01*
X58363307Y-146717852D01*
X58308885Y-146735909D01*
X58289546Y-146741130D01*
X58214599Y-146764843D01*
X58119444Y-146800873D01*
X58013486Y-146845108D01*
X57906132Y-146893434D01*
X57806786Y-146941740D01*
X57724857Y-146985914D01*
X57711358Y-146993910D01*
X57655287Y-147029944D01*
X57584364Y-147078540D01*
X57510475Y-147131469D01*
X57479641Y-147154345D01*
X57341266Y-147258356D01*
X57314568Y-147188211D01*
X57291572Y-147127294D01*
X57265966Y-147058772D01*
X57257866Y-147036930D01*
X57232739Y-146984243D01*
X57203061Y-146942710D01*
X57189339Y-146930553D01*
X57145451Y-146911552D01*
X57087500Y-146898435D01*
X57027657Y-146892559D01*
X56978092Y-146895281D01*
X56954272Y-146904349D01*
X56936963Y-146911678D01*
X56925679Y-146893613D01*
X56919720Y-146868572D01*
X56905036Y-146827881D01*
X56876309Y-146770937D01*
X56839294Y-146708961D01*
X56832747Y-146698967D01*
X56756797Y-146584667D01*
X56825642Y-146584667D01*
X56871665Y-146588181D01*
X56938363Y-146597554D01*
X57016755Y-146611029D01*
X57097859Y-146626850D01*
X57172692Y-146643263D01*
X57232274Y-146658510D01*
X57267621Y-146670837D01*
X57268315Y-146671198D01*
X57286446Y-146693748D01*
X57309924Y-146741046D01*
X57335041Y-146805203D01*
X57344515Y-146833203D01*
X57373550Y-146914794D01*
X57397736Y-146967030D01*
X57416036Y-146989284D01*
X57427417Y-146980926D01*
X57430845Y-146941327D01*
X57426796Y-146883225D01*
X57422967Y-146785727D01*
X57434267Y-146712117D01*
X57434948Y-146710005D01*
X57444471Y-146673570D01*
X57442292Y-146645969D01*
X57423986Y-146623407D01*
X57385128Y-146602091D01*
X57321295Y-146578228D01*
X57256600Y-146557089D01*
X57104200Y-146508467D01*
X56655467Y-146510069D01*
X56501653Y-146511092D01*
X56376075Y-146513448D01*
X56273109Y-146517888D01*
X56187127Y-146525162D01*
X56112506Y-146536019D01*
X56043620Y-146551211D01*
X55974843Y-146571487D01*
X55900551Y-146597598D01*
X55847115Y-146617870D01*
X55757056Y-146656159D01*
X55675081Y-146697542D01*
X55605079Y-146739229D01*
X55550938Y-146778433D01*
X55516546Y-146812362D01*
X55505791Y-146838228D01*
X55520070Y-146852490D01*
X55530669Y-146868430D01*
X55528506Y-146873980D01*
X55530127Y-146887055D01*
X55550060Y-146888141D01*
X55575177Y-146877843D01*
X55582957Y-146871470D01*
X55595530Y-146871433D01*
X55605945Y-146900980D01*
X55612720Y-146942169D01*
X55624836Y-146999974D01*
X55647858Y-147081229D01*
X55679133Y-147178351D01*
X55716005Y-147283757D01*
X55755820Y-147389863D01*
X55795924Y-147489088D01*
X55833662Y-147573847D01*
X55834339Y-147575267D01*
X55869550Y-147640988D01*
X55908431Y-147701227D01*
X55942807Y-147743370D01*
X55944077Y-147744600D01*
X55997274Y-147795400D01*
X56562333Y-147795400D01*
X56782467Y-147719200D01*
X56874545Y-147686401D01*
X56938649Y-147661007D01*
X56979278Y-147640821D01*
X57000933Y-147623646D01*
X57007893Y-147609134D01*
X57016494Y-147530638D01*
X56910350Y-147530638D01*
X56897325Y-147568489D01*
X56864132Y-147594732D01*
X56831953Y-147600667D01*
X56792817Y-147590064D01*
X56774773Y-147576199D01*
X56756297Y-147533587D01*
X56764480Y-147493355D01*
X56792657Y-147463902D01*
X56834160Y-147453626D01*
X56865818Y-147461520D01*
X56900688Y-147491531D01*
X56910350Y-147530638D01*
X57016494Y-147530638D01*
X57021781Y-147482396D01*
X57020745Y-147362862D01*
X57004287Y-147234876D01*
X56994388Y-147183211D01*
X56978373Y-147106930D01*
X56963854Y-147041214D01*
X56953559Y-146997937D01*
X56057557Y-146997937D01*
X56055720Y-147073231D01*
X56043450Y-147143542D01*
X56022254Y-147197292D01*
X56010607Y-147212593D01*
X55964361Y-147237974D01*
X55901848Y-147246853D01*
X55836202Y-147239535D01*
X55780558Y-147216325D01*
X55768500Y-147206967D01*
X55745286Y-147174120D01*
X55717932Y-147118148D01*
X55690058Y-147048891D01*
X55665285Y-146976191D01*
X55647235Y-146909888D01*
X55639529Y-146859822D01*
X55639467Y-146856306D01*
X55649418Y-146835042D01*
X55682142Y-146811374D01*
X55741948Y-146782434D01*
X55765289Y-146772514D01*
X55826404Y-146747952D01*
X55876190Y-146729564D01*
X55905859Y-146720548D01*
X55909116Y-146720133D01*
X55932117Y-146734138D01*
X55963106Y-146770308D01*
X55996283Y-146819874D01*
X56025848Y-146874069D01*
X56046000Y-146924125D01*
X56047456Y-146929237D01*
X56057557Y-146997937D01*
X56953559Y-146997937D01*
X56952693Y-146994301D01*
X56947647Y-146976412D01*
X56943464Y-146959139D01*
X56955256Y-146964659D01*
X56971195Y-146978155D01*
X57012124Y-147005282D01*
X57057393Y-147025911D01*
X57080463Y-147036240D01*
X57099447Y-147052795D01*
X57117644Y-147081346D01*
X57138351Y-147127661D01*
X57164868Y-147197509D01*
X57180963Y-147242023D01*
X57211151Y-147332098D01*
X57238371Y-147424079D01*
X57259312Y-147506153D01*
X57269561Y-147558333D01*
X57287183Y-147676867D01*
X57208392Y-147822192D01*
X57162574Y-147911662D01*
X57136892Y-147974602D01*
X57131470Y-148011806D01*
X57146431Y-148024067D01*
X57181900Y-148012178D01*
X57233163Y-147980307D01*
X57304040Y-147916271D01*
X57365336Y-147833799D01*
X57399587Y-147764664D01*
X57410922Y-147712256D01*
X57416387Y-147639922D01*
X57415890Y-147561107D01*
X57409339Y-147489256D01*
X57401715Y-147452388D01*
X57394266Y-147415723D01*
X57396647Y-147397816D01*
X57397892Y-147397467D01*
X57416884Y-147389478D01*
X57457834Y-147368065D01*
X57513558Y-147337060D01*
X57544877Y-147319064D01*
X57669288Y-147247323D01*
X57773824Y-147188364D01*
X57867531Y-147137353D01*
X57959458Y-147089453D01*
X58058653Y-147039831D01*
X58157619Y-146991634D01*
X58403155Y-146873041D01*
X58391506Y-147029420D01*
X58369823Y-147257673D01*
X58338957Y-147493466D01*
X58301358Y-147718758D01*
X58289763Y-147778467D01*
X58272061Y-147868513D01*
X58250732Y-147980177D01*
X58227984Y-148101714D01*
X58206028Y-148221383D01*
X58196972Y-148271621D01*
X58167349Y-148431332D01*
X58140292Y-148563544D01*
X58114243Y-148674369D01*
X58087647Y-148769925D01*
X58058945Y-148856324D01*
X58027395Y-148937718D01*
X57931249Y-149146039D01*
X57824041Y-149333464D01*
X57708539Y-149495617D01*
X57595545Y-149620445D01*
X57526071Y-149680168D01*
X57429734Y-149752013D01*
X57310307Y-149833671D01*
X57171564Y-149922830D01*
X57017279Y-150017177D01*
X56851224Y-150114402D01*
X56677173Y-150212193D01*
X56498900Y-150308238D01*
X56333733Y-150393408D01*
X56186744Y-150466606D01*
X56063932Y-150525133D01*
X55959809Y-150570651D01*
X55868885Y-150604826D01*
X55785671Y-150629320D01*
X55704679Y-150645798D01*
X55620419Y-150655923D01*
X55527403Y-150661359D01*
X55442859Y-150663453D01*
X55381244Y-150663573D01*
X55332978Y-150660034D01*
X55288297Y-150650343D01*
X55237436Y-150632010D01*
X55170630Y-150602541D01*
X55129592Y-150583503D01*
X54986908Y-150522083D01*
X54822943Y-150461353D01*
X54634662Y-150400336D01*
X54419024Y-150338051D01*
X54172993Y-150273520D01*
X54149333Y-150267588D01*
X54088774Y-150250914D01*
X54002768Y-150225128D01*
X53897818Y-150192355D01*
X53780426Y-150154717D01*
X53657094Y-150114339D01*
X53534324Y-150073344D01*
X53418618Y-150033856D01*
X53316479Y-149997999D01*
X53251866Y-149974460D01*
X53166041Y-149939189D01*
X53098812Y-149904932D01*
X53056755Y-149875108D01*
X53052779Y-149870950D01*
X53015059Y-149817651D01*
X52969228Y-149735752D01*
X52916958Y-149629078D01*
X52859919Y-149501452D01*
X52854636Y-149488734D01*
X52743902Y-149488734D01*
X52633488Y-149370200D01*
X52572327Y-149301566D01*
X52508839Y-149225512D01*
X52454651Y-149156073D01*
X52444070Y-149141600D01*
X52323368Y-148983470D01*
X52190055Y-148829402D01*
X52130990Y-148766186D01*
X52051693Y-148669990D01*
X51989369Y-148568200D01*
X51948618Y-148469245D01*
X51935583Y-148407943D01*
X51939262Y-148337579D01*
X51969501Y-148284330D01*
X52028180Y-148246138D01*
X52104054Y-148223509D01*
X52164407Y-148213198D01*
X52208733Y-148213587D01*
X52253517Y-148225893D01*
X52280343Y-148236526D01*
X52359846Y-148269534D01*
X52398581Y-148421934D01*
X52422297Y-148509860D01*
X52449883Y-148604151D01*
X52476054Y-148686864D01*
X52480488Y-148699959D01*
X52499945Y-148759849D01*
X52512894Y-148806215D01*
X52517115Y-148830880D01*
X52516573Y-148832672D01*
X52502847Y-148823866D01*
X52469923Y-148794848D01*
X52422190Y-148749706D01*
X52364040Y-148692528D01*
X52339290Y-148667650D01*
X52277446Y-148606985D01*
X52223146Y-148557227D01*
X52181063Y-148522397D01*
X52155876Y-148506517D01*
X52151681Y-148506303D01*
X52135650Y-148528491D01*
X52138959Y-148564946D01*
X52162633Y-148617518D01*
X52207701Y-148688060D01*
X52275189Y-148778423D01*
X52362092Y-148885618D01*
X52420894Y-148955118D01*
X52479093Y-149021961D01*
X52529394Y-149077873D01*
X52560528Y-149110661D01*
X52601697Y-149156959D01*
X52633867Y-149202224D01*
X52644408Y-149222710D01*
X52659490Y-149262372D01*
X52681347Y-149320556D01*
X52703016Y-149378667D01*
X52743902Y-149488734D01*
X52854636Y-149488734D01*
X52799782Y-149356700D01*
X52738216Y-149198644D01*
X52676894Y-149031109D01*
X52641697Y-148929934D01*
X52603413Y-148821408D01*
X52561793Y-148709636D01*
X52520667Y-148604515D01*
X52483868Y-148515941D01*
X52465887Y-148475772D01*
X52434229Y-148406572D01*
X52408800Y-148348366D01*
X52392589Y-148308167D01*
X52388266Y-148293739D01*
X52400261Y-148278860D01*
X52427520Y-148279786D01*
X52456959Y-148293791D01*
X52472628Y-148311297D01*
X52499621Y-148335227D01*
X52549332Y-148359539D01*
X52610887Y-148380326D01*
X52673411Y-148393684D01*
X52709957Y-148396534D01*
X52737344Y-148401078D01*
X52758562Y-148419596D01*
X52780157Y-148459412D01*
X52793169Y-148489666D01*
X52823813Y-148549314D01*
X52859449Y-148598195D01*
X52879333Y-148616666D01*
X52936203Y-148642746D01*
X52999513Y-148650430D01*
X53056844Y-148639656D01*
X53090034Y-148617734D01*
X53108930Y-148582896D01*
X53100425Y-148557339D01*
X53072226Y-148548934D01*
X53012658Y-148532675D01*
X52958819Y-148486560D01*
X52915308Y-148414580D01*
X52914023Y-148411627D01*
X52894343Y-148357439D01*
X52873457Y-148285890D01*
X52852690Y-148203552D01*
X52833368Y-148116997D01*
X52816819Y-148032798D01*
X52804369Y-147957528D01*
X52797344Y-147897758D01*
X52797071Y-147860061D01*
X52800817Y-147850693D01*
X52848866Y-147838425D01*
X52904831Y-147853109D01*
X52937208Y-147873531D01*
X52969380Y-147895726D01*
X52988452Y-147903103D01*
X52989467Y-147902578D01*
X52984162Y-147886259D01*
X52964142Y-147848704D01*
X52933277Y-147796989D01*
X52921282Y-147777881D01*
X52886517Y-147721122D01*
X52860204Y-147674285D01*
X52846766Y-147645377D01*
X52845907Y-147641437D01*
X52859904Y-147627409D01*
X52896719Y-147604302D01*
X52948009Y-147576304D01*
X53005432Y-147547602D01*
X53060645Y-147522384D01*
X53105307Y-147504838D01*
X53129529Y-147499067D01*
X53142729Y-147504673D01*
X53153225Y-147525290D01*
X53162661Y-147566610D01*
X53172681Y-147634330D01*
X53175957Y-147659934D01*
X53190355Y-147735046D01*
X53215801Y-147827971D01*
X53249765Y-147932376D01*
X53289713Y-148041927D01*
X53333114Y-148150293D01*
X53377436Y-148251139D01*
X53420146Y-148338134D01*
X53458712Y-148404945D01*
X53489576Y-148444298D01*
X53505346Y-148457726D01*
X53522880Y-148467204D01*
X53547588Y-148473175D01*
X53584876Y-148476080D01*
X53640153Y-148476361D01*
X53718827Y-148474461D01*
X53817859Y-148471118D01*
X53927864Y-148466760D01*
X54010849Y-148461936D01*
X54073657Y-148455733D01*
X54123130Y-148447238D01*
X54166113Y-148435537D01*
X54209449Y-148419716D01*
X54212707Y-148418417D01*
X54267766Y-148394874D01*
X54309221Y-148374347D01*
X54327857Y-148361496D01*
X54333845Y-148338127D01*
X54340548Y-148291671D01*
X54345746Y-148240591D01*
X54345873Y-148237809D01*
X54196951Y-148237809D01*
X54182300Y-148270618D01*
X54148217Y-148288855D01*
X54101917Y-148290102D01*
X54059683Y-148275661D01*
X54042714Y-148259454D01*
X54032985Y-148218461D01*
X54043184Y-148173692D01*
X54068604Y-148140529D01*
X54081000Y-148134257D01*
X54126360Y-148134193D01*
X54165262Y-148157429D01*
X54191020Y-148194968D01*
X54196951Y-148237809D01*
X54345873Y-148237809D01*
X54348186Y-148187546D01*
X54344873Y-148136318D01*
X54334301Y-148077806D01*
X54314964Y-148002910D01*
X54295206Y-147935191D01*
X54260365Y-147822251D01*
X54229913Y-147733850D01*
X54200005Y-147661678D01*
X54197174Y-147656198D01*
X53517411Y-147656198D01*
X53509588Y-147709056D01*
X53508077Y-147712645D01*
X53490805Y-147741348D01*
X53477853Y-147747631D01*
X53477817Y-147747595D01*
X53459867Y-147749862D01*
X53442489Y-147763225D01*
X53404966Y-147778894D01*
X53351470Y-147774654D01*
X53292380Y-147751874D01*
X53274203Y-147741036D01*
X53244983Y-147706971D01*
X53223303Y-147645749D01*
X53217755Y-147620490D01*
X53206028Y-147563137D01*
X53195920Y-147516877D01*
X53191289Y-147497972D01*
X53196507Y-147478655D01*
X53226845Y-147460036D01*
X53274376Y-147442938D01*
X53348064Y-147422397D01*
X53398324Y-147416515D01*
X53432510Y-147425823D01*
X53457972Y-147450855D01*
X53461834Y-147456516D01*
X53491240Y-147517226D01*
X53510531Y-147588021D01*
X53517411Y-147656198D01*
X54197174Y-147656198D01*
X54166798Y-147597421D01*
X54126447Y-147532770D01*
X54075293Y-147459666D01*
X54026851Y-147389476D01*
X53999724Y-147341385D01*
X53992856Y-147312064D01*
X54005192Y-147298185D01*
X54023333Y-147295867D01*
X54048699Y-147291207D01*
X54046323Y-147279526D01*
X54020671Y-147264275D01*
X53976210Y-147248902D01*
X53956085Y-147243919D01*
X53873678Y-147234268D01*
X53765554Y-147235090D01*
X53637994Y-147245761D01*
X53497277Y-147265654D01*
X53349682Y-147294146D01*
X53273424Y-147311874D01*
X53144771Y-147347373D01*
X53025418Y-147387508D01*
X52919425Y-147430311D01*
X52830852Y-147473815D01*
X52763761Y-147516051D01*
X52722211Y-147555051D01*
X52710000Y-147584945D01*
X52715466Y-147609017D01*
X52723965Y-147610968D01*
X52738576Y-147619666D01*
X52760557Y-147651383D01*
X52774545Y-147677702D01*
X52811160Y-147753067D01*
X52761540Y-147753067D01*
X52710686Y-147768269D01*
X52674245Y-147808719D01*
X52658946Y-147866680D01*
X52658841Y-147871135D01*
X52661445Y-147905617D01*
X52668746Y-147964055D01*
X52679494Y-148037066D01*
X52687665Y-148087463D01*
X52700595Y-148175260D01*
X52705846Y-148237910D01*
X52703188Y-148272077D01*
X52700724Y-148276362D01*
X52678155Y-148276666D01*
X52630011Y-148262700D01*
X52560724Y-148235899D01*
X52516189Y-148216644D01*
X52447684Y-148185921D01*
X52391872Y-148160549D01*
X52355224Y-148143494D01*
X52344011Y-148137789D01*
X52345995Y-148120845D01*
X52355029Y-148080930D01*
X52365371Y-148040911D01*
X52380666Y-147936612D01*
X52377945Y-147808629D01*
X52357935Y-147661484D01*
X52321360Y-147499702D01*
X52268947Y-147327807D01*
X52236674Y-147238551D01*
X52206923Y-147159675D01*
X52188197Y-147106011D01*
X52179392Y-147071151D01*
X52179399Y-147048689D01*
X52187113Y-147032218D01*
X52198655Y-147018418D01*
X52399464Y-146782237D01*
X52570163Y-146554551D01*
X52712647Y-146332774D01*
X52754682Y-146258834D01*
X52786107Y-146202998D01*
X52809030Y-146164871D01*
X52820607Y-146149022D01*
X52820688Y-146152867D01*
X52809781Y-146177710D01*
X52784672Y-146228236D01*
X52745007Y-146305117D01*
X52690434Y-146409023D01*
X52620600Y-146540628D01*
X52535152Y-146700602D01*
X52438370Y-146881000D01*
X52410388Y-146936344D01*
X52388121Y-146986171D01*
X52380099Y-147008000D01*
X52359699Y-147053302D01*
X52341306Y-147079967D01*
X52327687Y-147102322D01*
X52332690Y-147109600D01*
X52366597Y-147100880D01*
X52423231Y-147076789D01*
X52496932Y-147040432D01*
X52582044Y-146994914D01*
X52672907Y-146943338D01*
X52763865Y-146888810D01*
X52849259Y-146834433D01*
X52910817Y-146792381D01*
X53018501Y-146715781D01*
X53137142Y-146735375D01*
X53211603Y-146750562D01*
X53300735Y-146772931D01*
X53387374Y-146798110D01*
X53401992Y-146802804D01*
X53494273Y-146830721D01*
X53574405Y-146850611D01*
X53637408Y-146861596D01*
X53678301Y-146862798D01*
X53692133Y-146853989D01*
X53706180Y-146840339D01*
X53721766Y-146837330D01*
X53739005Y-146833613D01*
X53728317Y-146826814D01*
X53714391Y-146815610D01*
X53726551Y-146804459D01*
X53741899Y-146787321D01*
X53734264Y-146767253D01*
X53701498Y-146742843D01*
X53641454Y-146712676D01*
X53551983Y-146675339D01*
X53499392Y-146655002D01*
X53416365Y-146623924D01*
X53344018Y-146597729D01*
X53288516Y-146578580D01*
X53256025Y-146568644D01*
X53250918Y-146567733D01*
X53238189Y-146563993D01*
X53240840Y-146550949D01*
X53261283Y-146525869D01*
X53301928Y-146486019D01*
X53365187Y-146428667D01*
X53403274Y-146395012D01*
X53570878Y-146236423D01*
X53695416Y-146102067D01*
X52845466Y-146102067D01*
X52837000Y-146110533D01*
X52828533Y-146102067D01*
X52837000Y-146093600D01*
X52845466Y-146102067D01*
X53695416Y-146102067D01*
X53732828Y-146061707D01*
X53883382Y-145878012D01*
X53963613Y-145766445D01*
X52973806Y-145766445D01*
X52964647Y-145802082D01*
X52947112Y-145854352D01*
X52924499Y-145915005D01*
X52900105Y-145975795D01*
X52877228Y-146028472D01*
X52859167Y-146064788D01*
X52849774Y-146076667D01*
X52848604Y-146063830D01*
X52854204Y-146047033D01*
X52865415Y-146018778D01*
X52885235Y-145967570D01*
X52910297Y-145902132D01*
X52924427Y-145865000D01*
X52947597Y-145806812D01*
X52964643Y-145769585D01*
X52973572Y-145757293D01*
X52973806Y-145766445D01*
X53963613Y-145766445D01*
X54016802Y-145692484D01*
X54127344Y-145512271D01*
X54157256Y-145456296D01*
X54185191Y-145403315D01*
X54206143Y-145366347D01*
X54216482Y-145351712D01*
X54216984Y-145352326D01*
X54209764Y-145382409D01*
X54189588Y-145436871D01*
X54159002Y-145509980D01*
X54120554Y-145596005D01*
X54076791Y-145689216D01*
X54030259Y-145783879D01*
X53992896Y-145856533D01*
X53917087Y-146000874D01*
X53855948Y-146118117D01*
X53808220Y-146211051D01*
X53772645Y-146282465D01*
X53747966Y-146335150D01*
X53732924Y-146371894D01*
X53726262Y-146395488D01*
X53726721Y-146408720D01*
X53733043Y-146414380D01*
X53740881Y-146415333D01*
X53756982Y-146402649D01*
X53787636Y-146368671D01*
X53827505Y-146319515D01*
X53848619Y-146291963D01*
X53907428Y-146219144D01*
X53976476Y-146141427D01*
X54041933Y-146074299D01*
X54048990Y-146067597D01*
X54182606Y-145939846D01*
X54297111Y-145824930D01*
X54400049Y-145714795D01*
X54498963Y-145601384D01*
X54595502Y-145483986D01*
X54720442Y-145323134D01*
X54234000Y-145323134D01*
X54225533Y-145331600D01*
X54217066Y-145323134D01*
X54225533Y-145314667D01*
X54234000Y-145323134D01*
X54720442Y-145323134D01*
X54747661Y-145288092D01*
X54876838Y-145106543D01*
X54986813Y-144932929D01*
X55081368Y-144760842D01*
X55164282Y-144583871D01*
X55239337Y-144395609D01*
X55242298Y-144387567D01*
X55268899Y-144317456D01*
X55291999Y-144260929D01*
X55308841Y-144224463D01*
X55316101Y-144214073D01*
X55327961Y-144228086D01*
X55350616Y-144265290D01*
X55379801Y-144318538D01*
X55389330Y-144336839D01*
X55480509Y-144483782D01*
X55603278Y-144633082D01*
X55755606Y-144783028D01*
X55935462Y-144931907D01*
X56140814Y-145078005D01*
X56369633Y-145219611D01*
X56560485Y-145324482D01*
X56777342Y-145437673D01*
X56591713Y-145534201D01*
X56430532Y-145623933D01*
X56270533Y-145724028D01*
X56117641Y-145830127D01*
X55977780Y-145937870D01*
X55856875Y-146042898D01*
X55760849Y-146140851D01*
X55749533Y-146153982D01*
X55715272Y-146195402D01*
X55698619Y-146218603D01*
X55701242Y-146222876D01*
X55724806Y-146207513D01*
X55770978Y-146171806D01*
X55841424Y-146115046D01*
X55841768Y-146114767D01*
X55898819Y-146070261D01*
X55932034Y-146048336D01*
X55940880Y-146048760D01*
X55924825Y-146071303D01*
X55883334Y-146115733D01*
X55871493Y-146127668D01*
X55831275Y-146170645D01*
X55804648Y-146204539D01*
X55796873Y-146222575D01*
X55797300Y-146223211D01*
X55814308Y-146218285D01*
X55849314Y-146195414D01*
X55895175Y-146159343D01*
X55901520Y-146153967D01*
X55955668Y-146109185D01*
X55985606Y-146088034D01*
X55991321Y-146090515D01*
X55972801Y-146116629D01*
X55942512Y-146152278D01*
X55915097Y-146186895D01*
X55903712Y-146208509D01*
X55906021Y-146212133D01*
X55928096Y-146200733D01*
X55954280Y-146176558D01*
X55989654Y-146145108D01*
X56047748Y-146101753D01*
X56121657Y-146051000D01*
X56204477Y-145997358D01*
X56289305Y-145945336D01*
X56347038Y-145912187D01*
X56263270Y-145912187D01*
X56259150Y-145921650D01*
X56242100Y-145939829D01*
X56232298Y-145936100D01*
X56232133Y-145933733D01*
X56244161Y-145919410D01*
X56251683Y-145914183D01*
X56263270Y-145912187D01*
X56347038Y-145912187D01*
X56369236Y-145899442D01*
X56418320Y-145873507D01*
X56483551Y-145842084D01*
X56569575Y-145802586D01*
X56665842Y-145759769D01*
X56761802Y-145718385D01*
X56774506Y-145713020D01*
X56795181Y-145704139D01*
X56665892Y-145704139D01*
X56656506Y-145711211D01*
X56623472Y-145730125D01*
X56573362Y-145757437D01*
X56512748Y-145789703D01*
X56448202Y-145823478D01*
X56386297Y-145855317D01*
X56333604Y-145881777D01*
X56296695Y-145899412D01*
X56282933Y-145904854D01*
X56287714Y-145897137D01*
X56308333Y-145879359D01*
X56336504Y-145861524D01*
X56385131Y-145834923D01*
X56446349Y-145803412D01*
X56512289Y-145770847D01*
X56575085Y-145741081D01*
X56626869Y-145717971D01*
X56659774Y-145705372D01*
X56665892Y-145704139D01*
X56795181Y-145704139D01*
X56821474Y-145692845D01*
X56717555Y-145692845D01*
X56715231Y-145702911D01*
X56706267Y-145704134D01*
X56692328Y-145697938D01*
X56694978Y-145692845D01*
X56715074Y-145690818D01*
X56717555Y-145692845D01*
X56821474Y-145692845D01*
X56854325Y-145678734D01*
X56757067Y-145678734D01*
X56748600Y-145687200D01*
X56740133Y-145678734D01*
X56748600Y-145670267D01*
X56757067Y-145678734D01*
X56854325Y-145678734D01*
X56855781Y-145678109D01*
X56892156Y-145661800D01*
X56807867Y-145661800D01*
X56799400Y-145670267D01*
X56790933Y-145661800D01*
X56799400Y-145653334D01*
X56807867Y-145661800D01*
X56892156Y-145661800D01*
X56925471Y-145646863D01*
X56977782Y-145621980D01*
X57006923Y-145606159D01*
X57010823Y-145602927D01*
X57028357Y-145594067D01*
X56689333Y-145594067D01*
X56680867Y-145602534D01*
X56672400Y-145594067D01*
X56680867Y-145585600D01*
X56689333Y-145594067D01*
X57028357Y-145594067D01*
X57030889Y-145592788D01*
X57074719Y-145580255D01*
X57089501Y-145577134D01*
X56723200Y-145577134D01*
X56714733Y-145585600D01*
X56706267Y-145577134D01*
X56714733Y-145568667D01*
X56723200Y-145577134D01*
X57089501Y-145577134D01*
X57129633Y-145568661D01*
X57209529Y-145552270D01*
X57257556Y-145537536D01*
X57275625Y-145523639D01*
X57266094Y-145510035D01*
X57240809Y-145502353D01*
X56867133Y-145502353D01*
X56864933Y-145509258D01*
X56839238Y-145526593D01*
X56824800Y-145534800D01*
X56782913Y-145555570D01*
X56752834Y-145566670D01*
X56748600Y-145567247D01*
X56750800Y-145560342D01*
X56776495Y-145543007D01*
X56790933Y-145534800D01*
X56832820Y-145514030D01*
X56862899Y-145502931D01*
X56867133Y-145502353D01*
X57240809Y-145502353D01*
X57235967Y-145500882D01*
X57190977Y-145495968D01*
X57189022Y-145495906D01*
X57152935Y-145493278D01*
X57152194Y-145492467D01*
X56909467Y-145492467D01*
X56901000Y-145500934D01*
X56892533Y-145492467D01*
X56901000Y-145484000D01*
X56909467Y-145492467D01*
X57152194Y-145492467D01*
X57146061Y-145485755D01*
X57160536Y-145471955D01*
X57175938Y-145457312D01*
X57165381Y-145454402D01*
X57138066Y-145458442D01*
X57115933Y-145460727D01*
X57124702Y-145454191D01*
X57134879Y-145450134D01*
X57011067Y-145450134D01*
X57004871Y-145464072D01*
X56999778Y-145461422D01*
X56997751Y-145441326D01*
X56999778Y-145438845D01*
X57009844Y-145441169D01*
X57011067Y-145450134D01*
X57134879Y-145450134D01*
X57160291Y-145440004D01*
X57207413Y-145419374D01*
X57222838Y-145406147D01*
X57208275Y-145402147D01*
X57165429Y-145409197D01*
X57138066Y-145416267D01*
X57088507Y-145426981D01*
X57056833Y-145428100D01*
X57047652Y-145420941D01*
X57065573Y-145406819D01*
X57069534Y-145404978D01*
X56971555Y-145404978D01*
X56969231Y-145415045D01*
X56960267Y-145416267D01*
X56946328Y-145410071D01*
X56948978Y-145404978D01*
X56969074Y-145402951D01*
X56971555Y-145404978D01*
X57069534Y-145404978D01*
X57080575Y-145399848D01*
X57106354Y-145388098D01*
X57102555Y-145384693D01*
X57070333Y-145386599D01*
X57032569Y-145383681D01*
X57023767Y-145369515D01*
X57014559Y-145350659D01*
X57004878Y-145348534D01*
X56986858Y-145335625D01*
X56953179Y-145300362D01*
X56907883Y-145247938D01*
X56855012Y-145183545D01*
X56798606Y-145112378D01*
X56742707Y-145039629D01*
X56691357Y-144970492D01*
X56648596Y-144910159D01*
X56618465Y-144863824D01*
X56605007Y-144836681D01*
X56604667Y-144834243D01*
X56617195Y-144840275D01*
X56651054Y-144862790D01*
X56700655Y-144897723D01*
X56760409Y-144941008D01*
X56824727Y-144988579D01*
X56888020Y-145036371D01*
X56944699Y-145080318D01*
X56963322Y-145095150D01*
X57044237Y-145154909D01*
X57135324Y-145211035D01*
X57244032Y-145267726D01*
X57377810Y-145329184D01*
X57380207Y-145330235D01*
X57512802Y-145385415D01*
X57650401Y-145437544D01*
X57785798Y-145484253D01*
X57911790Y-145523172D01*
X58021171Y-145551931D01*
X58101491Y-145567457D01*
X58161741Y-145577449D01*
X58208383Y-145588125D01*
X58231510Y-145597207D01*
X58231679Y-145597371D01*
X58244241Y-145622199D01*
X58261968Y-145673010D01*
X58282889Y-145742679D01*
X58305036Y-145824082D01*
X58326441Y-145910094D01*
X58345135Y-145993591D01*
X58354972Y-146043540D01*
X58364804Y-146108209D01*
X58374697Y-146192233D01*
X58384076Y-146288034D01*
X58392364Y-146388034D01*
X58398988Y-146484656D01*
X58403372Y-146570320D01*
X58404941Y-146637450D01*
X59039342Y-146637450D01*
X59083181Y-146493341D01*
X59125126Y-146312897D01*
X59160268Y-146115343D01*
X59187027Y-145908958D01*
X59196670Y-145806263D01*
X59203420Y-145660992D01*
X59202881Y-145488816D01*
X59195665Y-145295763D01*
X59182386Y-145087858D01*
X59163657Y-144871131D01*
X59140090Y-144651607D01*
X59112298Y-144435314D01*
X59080895Y-144228278D01*
X59046494Y-144036528D01*
X59009708Y-143866089D01*
X58992330Y-143797168D01*
X58946541Y-143636992D01*
X58891553Y-143464127D01*
X58829661Y-143284475D01*
X58763156Y-143103938D01*
X58694333Y-142928417D01*
X58625484Y-142763814D01*
X58558902Y-142616030D01*
X58496879Y-142490967D01*
X58457077Y-142419551D01*
X58414680Y-142354849D01*
X58353941Y-142271067D01*
X58279534Y-142173974D01*
X58196129Y-142069335D01*
X58108401Y-141962917D01*
X58021020Y-141860488D01*
X57938659Y-141767814D01*
X57869229Y-141693967D01*
X57749139Y-141580580D01*
X57626758Y-141486173D01*
X57490597Y-141402595D01*
X57375133Y-141343368D01*
X57151891Y-141247439D01*
X56935011Y-141179206D01*
X56714930Y-141136471D01*
X56482087Y-141117040D01*
X56381789Y-141115300D01*
X56199419Y-141121795D01*
X56043044Y-141142511D01*
X55907256Y-141178995D01*
X55786645Y-141232796D01*
X55675801Y-141305461D01*
X55652373Y-141323982D01*
X55555417Y-141402954D01*
X55544292Y-141358630D01*
X55539006Y-141311009D01*
X55538980Y-141239321D01*
X55543494Y-141152834D01*
X55551826Y-141060815D01*
X55563255Y-140972533D01*
X55577060Y-140897253D01*
X55581676Y-140878133D01*
X55601413Y-140813145D01*
X55632315Y-140724268D01*
X55671601Y-140618472D01*
X55716491Y-140502730D01*
X55764202Y-140384014D01*
X55811955Y-140269296D01*
X55856967Y-140165548D01*
X55896458Y-140079742D01*
X55915304Y-140041779D01*
X56015270Y-139870866D01*
X56121972Y-139731466D01*
X56213151Y-139642085D01*
X56261537Y-139597558D01*
X56291180Y-139562900D01*
X56300832Y-139541438D01*
X56289247Y-139536502D01*
X56255177Y-139551421D01*
D13*
X37536000Y-139250000D02*
G75*
G03X37536000Y-139250000I-2286000J0D01*
G01*
X75286000Y-155500000D02*
G75*
G03X75286000Y-155500000I-2286000J0D01*
G01*
X75286000Y-33000000D02*
G75*
G03X75286000Y-33000000I-2286000J0D01*
G01*
X77536000Y-139250000D02*
G75*
G03X77536000Y-139250000I-2286000J0D01*
G01*
X39786000Y-155500000D02*
G75*
G03X39786000Y-155500000I-2286000J0D01*
G01*
X77536000Y-49250000D02*
G75*
G03X77536000Y-49250000I-2286000J0D01*
G01*
X39786000Y-33000000D02*
G75*
G03X39786000Y-33000000I-2286000J0D01*
G01*
X37536000Y-49250000D02*
G75*
G03X37536000Y-49250000I-2286000J0D01*
G01*
D14*
X43103456Y-80212937D02*
X40756098Y-75798199D01*
X41459428Y-81693227D02*
X37314240Y-78897262D01*
X40702791Y-83772070D02*
X35730181Y-83249427D01*
X41010678Y-85962797D02*
X36374758Y-87835830D01*
X42311010Y-87752552D02*
X39097072Y-91582774D01*
X45250000Y-79677744D02*
X45250000Y-78677744D01*
X44803826Y-79699565D02*
X44706244Y-78704338D01*
X44361911Y-79764821D02*
X44167677Y-78783866D01*
X43928473Y-79872890D02*
X43639441Y-78915570D01*
X43507649Y-80022738D02*
X43126578Y-79098192D01*
X42719752Y-80441671D02*
X42166361Y-79608749D01*
X42360200Y-80706755D02*
X41728171Y-79931811D01*
X42028232Y-81005661D02*
X41323598Y-80296090D01*
X41727016Y-81335534D02*
X40956503Y-80698110D01*
X41228021Y-82075324D02*
X40348373Y-81599700D01*
X41035005Y-82478180D02*
X40113142Y-82090664D01*
X40882222Y-82897947D02*
X39926944Y-82602239D01*
X40771131Y-83330621D02*
X39791556Y-83129543D01*
X40677855Y-84218080D02*
X39677879Y-84211099D01*
X40696561Y-84664395D02*
X39700677Y-84755028D01*
X40758731Y-85106755D02*
X39776444Y-85294136D01*
X40863771Y-85540937D02*
X39904457Y-85823279D01*
X41198050Y-86368308D02*
X40311846Y-86831604D01*
X41424099Y-86753599D02*
X40587335Y-87301162D01*
X41686667Y-87114993D02*
X40907329Y-87741597D01*
X41983248Y-87449040D02*
X41268775Y-88148703D01*
X45250000Y-78677744D02*
X45250000Y-74677744D01*
X48516752Y-87449040D02*
X49231225Y-88148703D01*
X48813333Y-87114993D02*
X49592671Y-87741597D01*
X49075901Y-86753599D02*
X49912665Y-87301162D01*
X49301950Y-86368308D02*
X50188154Y-86831604D01*
X49636229Y-85540937D02*
X50595543Y-85823279D01*
X49741269Y-85106755D02*
X50723556Y-85294136D01*
X49803439Y-84664395D02*
X50799323Y-84755028D01*
X49822145Y-84218080D02*
X50822121Y-84211099D01*
X49728869Y-83330621D02*
X50708444Y-83129543D01*
X49617778Y-82897947D02*
X50573056Y-82602239D01*
X49464995Y-82478180D02*
X50386858Y-82090664D01*
X49271979Y-82075324D02*
X50151627Y-81599700D01*
X48772984Y-81335534D02*
X49543497Y-80698110D01*
X48471768Y-81005661D02*
X49176402Y-80296090D01*
X48139800Y-80706755D02*
X48771829Y-79931811D01*
X47780248Y-80441671D02*
X48333639Y-79608749D01*
X46992351Y-80022738D02*
X47373422Y-79098192D01*
X46571527Y-79872890D02*
X46860559Y-78915570D01*
X46138089Y-79764821D02*
X46332323Y-78783866D01*
X45696174Y-79699565D02*
X45793756Y-78704338D01*
X48188990Y-87752552D02*
X51402928Y-91582774D01*
X49489322Y-85962797D02*
X54125242Y-87835830D01*
X49797209Y-83772070D02*
X54769819Y-83249427D01*
X49040572Y-81693227D02*
X53185760Y-78897262D01*
X47396544Y-80212937D02*
X49743902Y-75798199D01*
X43103456Y-65212937D02*
X40756098Y-60798199D01*
X41459428Y-66693227D02*
X37314240Y-63897262D01*
X40702791Y-68772070D02*
X35730181Y-68249427D01*
X41010678Y-70962797D02*
X36374758Y-72835830D01*
X42311010Y-72752552D02*
X39097072Y-76582774D01*
X45250000Y-64677744D02*
X45250000Y-63677744D01*
X44803826Y-64699565D02*
X44706244Y-63704338D01*
X44361911Y-64764821D02*
X44167677Y-63783866D01*
X43928473Y-64872890D02*
X43639441Y-63915570D01*
X43507649Y-65022738D02*
X43126578Y-64098192D01*
X42719752Y-65441671D02*
X42166361Y-64608749D01*
X42360200Y-65706755D02*
X41728171Y-64931811D01*
X42028232Y-66005661D02*
X41323598Y-65296090D01*
X41727016Y-66335534D02*
X40956503Y-65698110D01*
X41228021Y-67075324D02*
X40348373Y-66599700D01*
X41035005Y-67478180D02*
X40113142Y-67090664D01*
X40882222Y-67897947D02*
X39926944Y-67602239D01*
X40771131Y-68330621D02*
X39791556Y-68129543D01*
X40677855Y-69218080D02*
X39677879Y-69211099D01*
X40696561Y-69664395D02*
X39700677Y-69755028D01*
X40758731Y-70106755D02*
X39776444Y-70294136D01*
X40863771Y-70540937D02*
X39904457Y-70823279D01*
X41198050Y-71368308D02*
X40311846Y-71831604D01*
X41424099Y-71753599D02*
X40587335Y-72301162D01*
X41686667Y-72114993D02*
X40907329Y-72741597D01*
X41983248Y-72449040D02*
X41268775Y-73148703D01*
X45250000Y-63677744D02*
X45250000Y-59677744D01*
X48516752Y-72449040D02*
X49231225Y-73148703D01*
X48813333Y-72114993D02*
X49592671Y-72741597D01*
X49075901Y-71753599D02*
X49912665Y-72301162D01*
X49301950Y-71368308D02*
X50188154Y-71831604D01*
X49636229Y-70540937D02*
X50595543Y-70823279D01*
X49741269Y-70106755D02*
X50723556Y-70294136D01*
X49803439Y-69664395D02*
X50799323Y-69755028D01*
X49822145Y-69218080D02*
X50822121Y-69211099D01*
X49728869Y-68330621D02*
X50708444Y-68129543D01*
X49617778Y-67897947D02*
X50573056Y-67602239D01*
X49464995Y-67478180D02*
X50386858Y-67090664D01*
X49271979Y-67075324D02*
X50151627Y-66599700D01*
X48772984Y-66335534D02*
X49543497Y-65698110D01*
X48471768Y-66005661D02*
X49176402Y-65296090D01*
X48139800Y-65706755D02*
X48771829Y-64931811D01*
X47780248Y-65441671D02*
X48333639Y-64608749D01*
X46992351Y-65022738D02*
X47373422Y-64098192D01*
X46571527Y-64872890D02*
X46860559Y-63915570D01*
X46138089Y-64764821D02*
X46332323Y-63783866D01*
X45696174Y-64699565D02*
X45793756Y-63704338D01*
X48188990Y-72752552D02*
X51402928Y-76582774D01*
X49489322Y-70962797D02*
X54125242Y-72835830D01*
X49797209Y-68772070D02*
X54769819Y-68249427D01*
X49040572Y-66693227D02*
X53185760Y-63897262D01*
X47396544Y-65212937D02*
X49743902Y-60798199D01*
X47396544Y-50212937D02*
X49743902Y-45798199D01*
X49040572Y-51693227D02*
X53185760Y-48897262D01*
X49797209Y-53772070D02*
X54769819Y-53249427D01*
X49489322Y-55962797D02*
X54125242Y-57835830D01*
X48188990Y-57752552D02*
X51402928Y-61582774D01*
X45696174Y-49699565D02*
X45793756Y-48704338D01*
X46138089Y-49764821D02*
X46332323Y-48783866D01*
X46571527Y-49872890D02*
X46860559Y-48915570D01*
X46992351Y-50022738D02*
X47373422Y-49098192D01*
X47780248Y-50441671D02*
X48333639Y-49608749D01*
X48139800Y-50706755D02*
X48771829Y-49931811D01*
X48471768Y-51005661D02*
X49176402Y-50296090D01*
X48772984Y-51335534D02*
X49543497Y-50698110D01*
X49271979Y-52075324D02*
X50151627Y-51599700D01*
X49464995Y-52478180D02*
X50386858Y-52090664D01*
X49617778Y-52897947D02*
X50573056Y-52602239D01*
X49728869Y-53330621D02*
X50708444Y-53129543D01*
X49822145Y-54218080D02*
X50822121Y-54211099D01*
X49803439Y-54664395D02*
X50799323Y-54755028D01*
X49741269Y-55106755D02*
X50723556Y-55294136D01*
X49636229Y-55540937D02*
X50595543Y-55823279D01*
X49301950Y-56368308D02*
X50188154Y-56831604D01*
X49075901Y-56753599D02*
X49912665Y-57301162D01*
X48813333Y-57114993D02*
X49592671Y-57741597D01*
X48516752Y-57449040D02*
X49231225Y-58148703D01*
X45250000Y-48677744D02*
X45250000Y-44677744D01*
X41983248Y-57449040D02*
X41268775Y-58148703D01*
X41686667Y-57114993D02*
X40907329Y-57741597D01*
X41424099Y-56753599D02*
X40587335Y-57301162D01*
X41198050Y-56368308D02*
X40311846Y-56831604D01*
X40863771Y-55540937D02*
X39904457Y-55823279D01*
X40758731Y-55106755D02*
X39776444Y-55294136D01*
X40696561Y-54664395D02*
X39700677Y-54755028D01*
X40677855Y-54218080D02*
X39677879Y-54211099D01*
X40771131Y-53330621D02*
X39791556Y-53129543D01*
X40882222Y-52897947D02*
X39926944Y-52602239D01*
X41035005Y-52478180D02*
X40113142Y-52090664D01*
X41228021Y-52075324D02*
X40348373Y-51599700D01*
X41727016Y-51335534D02*
X40956503Y-50698110D01*
X42028232Y-51005661D02*
X41323598Y-50296090D01*
X42360200Y-50706755D02*
X41728171Y-49931811D01*
X42719752Y-50441671D02*
X42166361Y-49608749D01*
X43507649Y-50022738D02*
X43126578Y-49098192D01*
X43928473Y-49872890D02*
X43639441Y-48915570D01*
X44361911Y-49764821D02*
X44167677Y-48783866D01*
X44803826Y-49699565D02*
X44706244Y-48704338D01*
X45250000Y-49677744D02*
X45250000Y-48677744D01*
X42311010Y-57752552D02*
X39097072Y-61582774D01*
X41010678Y-55962797D02*
X36374758Y-57835830D01*
X40702791Y-53772070D02*
X35730181Y-53249427D01*
X41459428Y-51693227D02*
X37314240Y-48897262D01*
X43103456Y-50212937D02*
X40756098Y-45798199D01*
X47396544Y-95212937D02*
X49743902Y-90798199D01*
X49040572Y-96693227D02*
X53185760Y-93897262D01*
X49797209Y-98772070D02*
X54769819Y-98249427D01*
X49489322Y-100962797D02*
X54125242Y-102835830D01*
X48188990Y-102752552D02*
X51402928Y-106582774D01*
X45696174Y-94699565D02*
X45793756Y-93704338D01*
X46138089Y-94764821D02*
X46332323Y-93783866D01*
X46571527Y-94872890D02*
X46860559Y-93915570D01*
X46992351Y-95022738D02*
X47373422Y-94098192D01*
X47780248Y-95441671D02*
X48333639Y-94608749D01*
X48139800Y-95706755D02*
X48771829Y-94931811D01*
X48471768Y-96005661D02*
X49176402Y-95296090D01*
X48772984Y-96335534D02*
X49543497Y-95698110D01*
X49271979Y-97075324D02*
X50151627Y-96599700D01*
X49464995Y-97478180D02*
X50386858Y-97090664D01*
X49617778Y-97897947D02*
X50573056Y-97602239D01*
X49728869Y-98330621D02*
X50708444Y-98129543D01*
X49822145Y-99218080D02*
X50822121Y-99211099D01*
X49803439Y-99664395D02*
X50799323Y-99755028D01*
X49741269Y-100106755D02*
X50723556Y-100294136D01*
X49636229Y-100540937D02*
X50595543Y-100823279D01*
X49301950Y-101368308D02*
X50188154Y-101831604D01*
X49075901Y-101753599D02*
X49912665Y-102301162D01*
X48813333Y-102114993D02*
X49592671Y-102741597D01*
X48516752Y-102449040D02*
X49231225Y-103148703D01*
X45250000Y-93677744D02*
X45250000Y-89677744D01*
X41983248Y-102449040D02*
X41268775Y-103148703D01*
X41686667Y-102114993D02*
X40907329Y-102741597D01*
X41424099Y-101753599D02*
X40587335Y-102301162D01*
X41198050Y-101368308D02*
X40311846Y-101831604D01*
X40863771Y-100540937D02*
X39904457Y-100823279D01*
X40758731Y-100106755D02*
X39776444Y-100294136D01*
X40696561Y-99664395D02*
X39700677Y-99755028D01*
X40677855Y-99218080D02*
X39677879Y-99211099D01*
X40771131Y-98330621D02*
X39791556Y-98129543D01*
X40882222Y-97897947D02*
X39926944Y-97602239D01*
X41035005Y-97478180D02*
X40113142Y-97090664D01*
X41228021Y-97075324D02*
X40348373Y-96599700D01*
X41727016Y-96335534D02*
X40956503Y-95698110D01*
X42028232Y-96005661D02*
X41323598Y-95296090D01*
X42360200Y-95706755D02*
X41728171Y-94931811D01*
X42719752Y-95441671D02*
X42166361Y-94608749D01*
X43507649Y-95022738D02*
X43126578Y-94098192D01*
X43928473Y-94872890D02*
X43639441Y-93915570D01*
X44361911Y-94764821D02*
X44167677Y-93783866D01*
X44803826Y-94699565D02*
X44706244Y-93704338D01*
X45250000Y-94677744D02*
X45250000Y-93677744D01*
X42311010Y-102752552D02*
X39097072Y-106582774D01*
X41010678Y-100962797D02*
X36374758Y-102835830D01*
X40702791Y-98772070D02*
X35730181Y-98249427D01*
X41459428Y-96693227D02*
X37314240Y-93897262D01*
X43103456Y-95212937D02*
X40756098Y-90798199D01*
X44896544Y-125212937D02*
X47243902Y-120798199D01*
X46540572Y-126693227D02*
X50685760Y-123897262D01*
X47297209Y-128772070D02*
X52269819Y-128249427D01*
X46989322Y-130962797D02*
X51625242Y-132835830D01*
X45688990Y-132752552D02*
X48902928Y-136582774D01*
X43196174Y-124699565D02*
X43293756Y-123704338D01*
X43638089Y-124764821D02*
X43832323Y-123783866D01*
X44071527Y-124872890D02*
X44360559Y-123915570D01*
X44492351Y-125022738D02*
X44873422Y-124098192D01*
X45280248Y-125441671D02*
X45833639Y-124608749D01*
X45639800Y-125706755D02*
X46271829Y-124931811D01*
X45971768Y-126005661D02*
X46676402Y-125296090D01*
X46272984Y-126335534D02*
X47043497Y-125698110D01*
X46771979Y-127075324D02*
X47651627Y-126599700D01*
X46964995Y-127478180D02*
X47886858Y-127090664D01*
X47117778Y-127897947D02*
X48073056Y-127602239D01*
X47228869Y-128330621D02*
X48208444Y-128129543D01*
X47322145Y-129218080D02*
X48322121Y-129211099D01*
X47303439Y-129664395D02*
X48299323Y-129755028D01*
X47241269Y-130106755D02*
X48223556Y-130294136D01*
X47136229Y-130540937D02*
X48095543Y-130823279D01*
X46801950Y-131368308D02*
X47688154Y-131831604D01*
X46575901Y-131753599D02*
X47412665Y-132301162D01*
X46313333Y-132114993D02*
X47092671Y-132741597D01*
X46016752Y-132449040D02*
X46731225Y-133148703D01*
X42750000Y-123677744D02*
X42750000Y-119677744D01*
X39483248Y-132449040D02*
X38768775Y-133148703D01*
X39186667Y-132114993D02*
X38407329Y-132741597D01*
X38924099Y-131753599D02*
X38087335Y-132301162D01*
X38698050Y-131368308D02*
X37811846Y-131831604D01*
X38363771Y-130540937D02*
X37404457Y-130823279D01*
X38258731Y-130106755D02*
X37276444Y-130294136D01*
X38196561Y-129664395D02*
X37200677Y-129755028D01*
X38177855Y-129218080D02*
X37177879Y-129211099D01*
X38271131Y-128330621D02*
X37291556Y-128129543D01*
X38382222Y-127897947D02*
X37426944Y-127602239D01*
X38535005Y-127478180D02*
X37613142Y-127090664D01*
X38728021Y-127075324D02*
X37848373Y-126599700D01*
X39227016Y-126335534D02*
X38456503Y-125698110D01*
X39528232Y-126005661D02*
X38823598Y-125296090D01*
X39860200Y-125706755D02*
X39228171Y-124931811D01*
X40219752Y-125441671D02*
X39666361Y-124608749D01*
X41007649Y-125022738D02*
X40626578Y-124098192D01*
X41428473Y-124872890D02*
X41139441Y-123915570D01*
X41861911Y-124764821D02*
X41667677Y-123783866D01*
X42303826Y-124699565D02*
X42206244Y-123704338D01*
X42750000Y-124677744D02*
X42750000Y-123677744D01*
X39811010Y-132752552D02*
X36597072Y-136582774D01*
X38510678Y-130962797D02*
X33874758Y-132835830D01*
X38202791Y-128772070D02*
X33230181Y-128249427D01*
X38959428Y-126693227D02*
X34814240Y-123897262D01*
X40603456Y-125212937D02*
X38256098Y-120798199D01*
X43103456Y-110212937D02*
X40756098Y-105798199D01*
X41459428Y-111693227D02*
X37314240Y-108897262D01*
X40702791Y-113772070D02*
X35730181Y-113249427D01*
X41010678Y-115962797D02*
X36374758Y-117835830D01*
X42311010Y-117752552D02*
X39097072Y-121582774D01*
X45250000Y-109677744D02*
X45250000Y-108677744D01*
X44803826Y-109699565D02*
X44706244Y-108704338D01*
X44361911Y-109764821D02*
X44167677Y-108783866D01*
X43928473Y-109872890D02*
X43639441Y-108915570D01*
X43507649Y-110022738D02*
X43126578Y-109098192D01*
X42719752Y-110441671D02*
X42166361Y-109608749D01*
X42360200Y-110706755D02*
X41728171Y-109931811D01*
X42028232Y-111005661D02*
X41323598Y-110296090D01*
X41727016Y-111335534D02*
X40956503Y-110698110D01*
X41228021Y-112075324D02*
X40348373Y-111599700D01*
X41035005Y-112478180D02*
X40113142Y-112090664D01*
X40882222Y-112897947D02*
X39926944Y-112602239D01*
X40771131Y-113330621D02*
X39791556Y-113129543D01*
X40677855Y-114218080D02*
X39677879Y-114211099D01*
X40696561Y-114664395D02*
X39700677Y-114755028D01*
X40758731Y-115106755D02*
X39776444Y-115294136D01*
X40863771Y-115540937D02*
X39904457Y-115823279D01*
X41198050Y-116368308D02*
X40311846Y-116831604D01*
X41424099Y-116753599D02*
X40587335Y-117301162D01*
X41686667Y-117114993D02*
X40907329Y-117741597D01*
X41983248Y-117449040D02*
X41268775Y-118148703D01*
X45250000Y-108677744D02*
X45250000Y-104677744D01*
X48516752Y-117449040D02*
X49231225Y-118148703D01*
X48813333Y-117114993D02*
X49592671Y-117741597D01*
X49075901Y-116753599D02*
X49912665Y-117301162D01*
X49301950Y-116368308D02*
X50188154Y-116831604D01*
X49636229Y-115540937D02*
X50595543Y-115823279D01*
X49741269Y-115106755D02*
X50723556Y-115294136D01*
X49803439Y-114664395D02*
X50799323Y-114755028D01*
X49822145Y-114218080D02*
X50822121Y-114211099D01*
X49728869Y-113330621D02*
X50708444Y-113129543D01*
X49617778Y-112897947D02*
X50573056Y-112602239D01*
X49464995Y-112478180D02*
X50386858Y-112090664D01*
X49271979Y-112075324D02*
X50151627Y-111599700D01*
X48772984Y-111335534D02*
X49543497Y-110698110D01*
X48471768Y-111005661D02*
X49176402Y-110296090D01*
X48139800Y-110706755D02*
X48771829Y-109931811D01*
X47780248Y-110441671D02*
X48333639Y-109608749D01*
X46992351Y-110022738D02*
X47373422Y-109098192D01*
X46571527Y-109872890D02*
X46860559Y-108915570D01*
X46138089Y-109764821D02*
X46332323Y-108783866D01*
X45696174Y-109699565D02*
X45793756Y-108704338D01*
X48188990Y-117752552D02*
X51402928Y-121582774D01*
X49489322Y-115962797D02*
X54125242Y-117835830D01*
X49797209Y-113772070D02*
X54769819Y-113249427D01*
X49040572Y-111693227D02*
X53185760Y-108897262D01*
X47396544Y-110212937D02*
X49743902Y-105798199D01*
X65603456Y-125212937D02*
X63256098Y-120798199D01*
X63959428Y-126693227D02*
X59814240Y-123897262D01*
X63202791Y-128772070D02*
X58230181Y-128249427D01*
X63510678Y-130962797D02*
X58874758Y-132835830D01*
X64811010Y-132752552D02*
X61597072Y-136582774D01*
X67750000Y-124677744D02*
X67750000Y-123677744D01*
X67303826Y-124699565D02*
X67206244Y-123704338D01*
X66861911Y-124764821D02*
X66667677Y-123783866D01*
X66428473Y-124872890D02*
X66139441Y-123915570D01*
X66007649Y-125022738D02*
X65626578Y-124098192D01*
X65219752Y-125441671D02*
X64666361Y-124608749D01*
X64860200Y-125706755D02*
X64228171Y-124931811D01*
X64528232Y-126005661D02*
X63823598Y-125296090D01*
X64227016Y-126335534D02*
X63456503Y-125698110D01*
X63728021Y-127075324D02*
X62848373Y-126599700D01*
X63535005Y-127478180D02*
X62613142Y-127090664D01*
X63382222Y-127897947D02*
X62426944Y-127602239D01*
X63271131Y-128330621D02*
X62291556Y-128129543D01*
X63177855Y-129218080D02*
X62177879Y-129211099D01*
X63196561Y-129664395D02*
X62200677Y-129755028D01*
X63258731Y-130106755D02*
X62276444Y-130294136D01*
X63363771Y-130540937D02*
X62404457Y-130823279D01*
X63698050Y-131368308D02*
X62811846Y-131831604D01*
X63924099Y-131753599D02*
X63087335Y-132301162D01*
X64186667Y-132114993D02*
X63407329Y-132741597D01*
X64483248Y-132449040D02*
X63768775Y-133148703D01*
X67750000Y-123677744D02*
X67750000Y-119677744D01*
X71016752Y-132449040D02*
X71731225Y-133148703D01*
X71313333Y-132114993D02*
X72092671Y-132741597D01*
X71575901Y-131753599D02*
X72412665Y-132301162D01*
X71801950Y-131368308D02*
X72688154Y-131831604D01*
X72136229Y-130540937D02*
X73095543Y-130823279D01*
X72241269Y-130106755D02*
X73223556Y-130294136D01*
X72303439Y-129664395D02*
X73299323Y-129755028D01*
X72322145Y-129218080D02*
X73322121Y-129211099D01*
X72228869Y-128330621D02*
X73208444Y-128129543D01*
X72117778Y-127897947D02*
X73073056Y-127602239D01*
X71964995Y-127478180D02*
X72886858Y-127090664D01*
X71771979Y-127075324D02*
X72651627Y-126599700D01*
X71272984Y-126335534D02*
X72043497Y-125698110D01*
X70971768Y-126005661D02*
X71676402Y-125296090D01*
X70639800Y-125706755D02*
X71271829Y-124931811D01*
X70280248Y-125441671D02*
X70833639Y-124608749D01*
X69492351Y-125022738D02*
X69873422Y-124098192D01*
X69071527Y-124872890D02*
X69360559Y-123915570D01*
X68638089Y-124764821D02*
X68832323Y-123783866D01*
X68196174Y-124699565D02*
X68293756Y-123704338D01*
X70688990Y-132752552D02*
X73902928Y-136582774D01*
X71989322Y-130962797D02*
X76625242Y-132835830D01*
X72297209Y-128772070D02*
X77269819Y-128249427D01*
X71540572Y-126693227D02*
X75685760Y-123897262D01*
X69896544Y-125212937D02*
X72243902Y-120798199D01*
D13*
X69750000Y-114250000D02*
G75*
G03X69750000Y-114250000I-4500000J0D01*
G01*
X69750000Y-99250000D02*
G75*
G03X69750000Y-99250000I-4500000J0D01*
G01*
X69750000Y-84250000D02*
G75*
G03X69750000Y-84250000I-4500000J0D01*
G01*
X69750000Y-54250000D02*
G75*
G03X69750000Y-54250000I-4500000J0D01*
G01*
X69750000Y-69250000D02*
G75*
G03X69750000Y-69250000I-4500000J0D01*
G01*
X59750000Y-129250000D02*
G75*
G03X59750000Y-129250000I-4500000J0D01*
G01*
M02*
