G04 #@! TF.GenerationSoftware,KiCad,Pcbnew,(5.1.0)-1*
G04 #@! TF.CreationDate,2019-05-26T15:03:18-04:00*
G04 #@! TF.ProjectId,EG,45472e6b-6963-4616-945f-706362585858,rev?*
G04 #@! TF.SameCoordinates,Original*
G04 #@! TF.FileFunction,Soldermask,Bot*
G04 #@! TF.FilePolarity,Negative*
%FSLAX46Y46*%
G04 Gerber Fmt 4.6, Leading zero omitted, Abs format (unit mm)*
G04 Created by KiCad (PCBNEW (5.1.0)-1) date 2019-05-26 15:03:18*
%MOMM*%
%LPD*%
G04 APERTURE LIST*
%ADD10C,0.100000*%
G04 APERTURE END LIST*
D10*
G36*
X65406373Y-132957024D02*
G01*
X65607589Y-132997048D01*
X65875639Y-133108078D01*
X65974434Y-133149000D01*
X65986671Y-133154069D01*
X66327835Y-133382028D01*
X66617972Y-133672165D01*
X66845931Y-134013329D01*
X67002952Y-134392411D01*
X67083000Y-134794842D01*
X67083000Y-135205158D01*
X67002952Y-135607589D01*
X66845931Y-135986671D01*
X66617972Y-136327835D01*
X66327835Y-136617972D01*
X65986671Y-136845931D01*
X65607589Y-137002952D01*
X65205159Y-137083000D01*
X64794841Y-137083000D01*
X64392411Y-137002952D01*
X64013329Y-136845931D01*
X63672165Y-136617972D01*
X63382028Y-136327835D01*
X63154069Y-135986671D01*
X62997048Y-135607589D01*
X62917000Y-135205158D01*
X62917000Y-134794842D01*
X62997048Y-134392411D01*
X63154069Y-134013329D01*
X63382028Y-133672165D01*
X63672165Y-133382028D01*
X64013329Y-133154069D01*
X64025567Y-133149000D01*
X64124361Y-133108078D01*
X64392411Y-132997048D01*
X64593627Y-132957024D01*
X64794841Y-132917000D01*
X65205159Y-132917000D01*
X65406373Y-132957024D01*
X65406373Y-132957024D01*
G37*
G36*
X95406373Y-132957024D02*
G01*
X95607589Y-132997048D01*
X95875639Y-133108078D01*
X95974434Y-133149000D01*
X95986671Y-133154069D01*
X96327835Y-133382028D01*
X96617972Y-133672165D01*
X96845931Y-134013329D01*
X97002952Y-134392411D01*
X97083000Y-134794842D01*
X97083000Y-135205158D01*
X97002952Y-135607589D01*
X96845931Y-135986671D01*
X96617972Y-136327835D01*
X96327835Y-136617972D01*
X95986671Y-136845931D01*
X95607589Y-137002952D01*
X95205159Y-137083000D01*
X94794841Y-137083000D01*
X94392411Y-137002952D01*
X94013329Y-136845931D01*
X93672165Y-136617972D01*
X93382028Y-136327835D01*
X93154069Y-135986671D01*
X92997048Y-135607589D01*
X92917000Y-135205158D01*
X92917000Y-134794842D01*
X92997048Y-134392411D01*
X93154069Y-134013329D01*
X93382028Y-133672165D01*
X93672165Y-133382028D01*
X94013329Y-133154069D01*
X94025567Y-133149000D01*
X94124361Y-133108078D01*
X94392411Y-132997048D01*
X94593627Y-132957024D01*
X94794841Y-132917000D01*
X95205159Y-132917000D01*
X95406373Y-132957024D01*
X95406373Y-132957024D01*
G37*
G36*
X84658015Y-133156973D02*
G01*
X84761879Y-133188479D01*
X84789055Y-133203005D01*
X84857600Y-133239643D01*
X84941501Y-133308499D01*
X85010357Y-133392400D01*
X85046995Y-133460945D01*
X85061521Y-133488121D01*
X85093027Y-133591985D01*
X85103666Y-133700000D01*
X85093027Y-133808015D01*
X85061521Y-133911879D01*
X85061519Y-133911882D01*
X85010357Y-134007600D01*
X84941501Y-134091501D01*
X84857600Y-134160357D01*
X84789055Y-134196995D01*
X84761879Y-134211521D01*
X84658015Y-134243027D01*
X84577067Y-134251000D01*
X83422933Y-134251000D01*
X83341985Y-134243027D01*
X83238121Y-134211521D01*
X83210945Y-134196995D01*
X83142400Y-134160357D01*
X83058499Y-134091501D01*
X82989643Y-134007600D01*
X82938481Y-133911882D01*
X82938479Y-133911879D01*
X82906973Y-133808015D01*
X82896334Y-133700000D01*
X82906973Y-133591985D01*
X82938479Y-133488121D01*
X82953005Y-133460945D01*
X82989643Y-133392400D01*
X83058499Y-133308499D01*
X83142400Y-133239643D01*
X83210945Y-133203005D01*
X83238121Y-133188479D01*
X83341985Y-133156973D01*
X83422933Y-133149000D01*
X84577067Y-133149000D01*
X84658015Y-133156973D01*
X84658015Y-133156973D01*
G37*
G36*
X74658015Y-133156973D02*
G01*
X74761879Y-133188479D01*
X74789055Y-133203005D01*
X74857600Y-133239643D01*
X74941501Y-133308499D01*
X75010357Y-133392400D01*
X75046995Y-133460945D01*
X75061521Y-133488121D01*
X75093027Y-133591985D01*
X75103666Y-133700000D01*
X75093027Y-133808015D01*
X75061521Y-133911879D01*
X75061519Y-133911882D01*
X75010357Y-134007600D01*
X74941501Y-134091501D01*
X74857600Y-134160357D01*
X74789055Y-134196995D01*
X74761879Y-134211521D01*
X74658015Y-134243027D01*
X74577067Y-134251000D01*
X73422933Y-134251000D01*
X73341985Y-134243027D01*
X73238121Y-134211521D01*
X73210945Y-134196995D01*
X73142400Y-134160357D01*
X73058499Y-134091501D01*
X72989643Y-134007600D01*
X72938481Y-133911882D01*
X72938479Y-133911879D01*
X72906973Y-133808015D01*
X72896334Y-133700000D01*
X72906973Y-133591985D01*
X72938479Y-133488121D01*
X72953005Y-133460945D01*
X72989643Y-133392400D01*
X73058499Y-133308499D01*
X73142400Y-133239643D01*
X73210945Y-133203005D01*
X73238121Y-133188479D01*
X73341985Y-133156973D01*
X73422933Y-133149000D01*
X74577067Y-133149000D01*
X74658015Y-133156973D01*
X74658015Y-133156973D01*
G37*
G36*
X78908014Y-130306973D02*
G01*
X79011878Y-130338479D01*
X79055907Y-130362013D01*
X79107599Y-130389643D01*
X79107601Y-130389644D01*
X79107600Y-130389644D01*
X79191501Y-130458499D01*
X79260356Y-130542400D01*
X79311521Y-130638121D01*
X79343027Y-130741985D01*
X79351000Y-130822933D01*
X79351000Y-131977067D01*
X79343027Y-132058015D01*
X79311521Y-132161879D01*
X79311519Y-132161882D01*
X79260357Y-132257600D01*
X79191501Y-132341501D01*
X79107600Y-132410357D01*
X79039055Y-132446995D01*
X79011879Y-132461521D01*
X78908015Y-132493027D01*
X78800000Y-132503666D01*
X78691986Y-132493027D01*
X78588122Y-132461521D01*
X78560946Y-132446995D01*
X78492401Y-132410357D01*
X78408500Y-132341501D01*
X78339644Y-132257600D01*
X78288482Y-132161882D01*
X78288480Y-132161879D01*
X78256974Y-132058015D01*
X78249001Y-131977067D01*
X78249000Y-130822934D01*
X78256973Y-130741986D01*
X78288479Y-130638122D01*
X78339644Y-130542400D01*
X78408499Y-130458499D01*
X78492400Y-130389644D01*
X78492399Y-130389644D01*
X78492401Y-130389643D01*
X78544093Y-130362013D01*
X78588121Y-130338479D01*
X78691985Y-130306973D01*
X78800000Y-130296334D01*
X78908014Y-130306973D01*
X78908014Y-130306973D01*
G37*
G36*
X88908014Y-130306973D02*
G01*
X89011878Y-130338479D01*
X89055907Y-130362013D01*
X89107599Y-130389643D01*
X89107601Y-130389644D01*
X89107600Y-130389644D01*
X89191501Y-130458499D01*
X89260356Y-130542400D01*
X89311521Y-130638121D01*
X89343027Y-130741985D01*
X89351000Y-130822933D01*
X89351000Y-131977067D01*
X89343027Y-132058015D01*
X89311521Y-132161879D01*
X89311519Y-132161882D01*
X89260357Y-132257600D01*
X89191501Y-132341501D01*
X89107600Y-132410357D01*
X89039055Y-132446995D01*
X89011879Y-132461521D01*
X88908015Y-132493027D01*
X88800000Y-132503666D01*
X88691986Y-132493027D01*
X88588122Y-132461521D01*
X88560946Y-132446995D01*
X88492401Y-132410357D01*
X88408500Y-132341501D01*
X88339644Y-132257600D01*
X88288482Y-132161882D01*
X88288480Y-132161879D01*
X88256974Y-132058015D01*
X88249001Y-131977067D01*
X88249000Y-130822934D01*
X88256973Y-130741986D01*
X88288479Y-130638122D01*
X88339644Y-130542400D01*
X88408499Y-130458499D01*
X88492400Y-130389644D01*
X88492399Y-130389644D01*
X88492401Y-130389643D01*
X88544093Y-130362013D01*
X88588121Y-130338479D01*
X88691985Y-130306973D01*
X88800000Y-130296334D01*
X88908014Y-130306973D01*
X88908014Y-130306973D01*
G37*
G36*
X84658015Y-125056973D02*
G01*
X84761879Y-125088479D01*
X84789055Y-125103005D01*
X84857600Y-125139643D01*
X84941501Y-125208499D01*
X85010357Y-125292400D01*
X85046995Y-125360945D01*
X85061521Y-125388121D01*
X85093027Y-125491985D01*
X85103666Y-125600000D01*
X85093027Y-125708015D01*
X85061521Y-125811879D01*
X85061519Y-125811882D01*
X85010357Y-125907600D01*
X84941501Y-125991501D01*
X84857600Y-126060357D01*
X84789055Y-126096995D01*
X84761879Y-126111521D01*
X84658015Y-126143027D01*
X84577067Y-126151000D01*
X83422933Y-126151000D01*
X83341985Y-126143027D01*
X83238121Y-126111521D01*
X83210945Y-126096995D01*
X83142400Y-126060357D01*
X83058499Y-125991501D01*
X82989643Y-125907600D01*
X82938481Y-125811882D01*
X82938479Y-125811879D01*
X82906973Y-125708015D01*
X82896334Y-125600000D01*
X82906973Y-125491985D01*
X82938479Y-125388121D01*
X82953005Y-125360945D01*
X82989643Y-125292400D01*
X83058499Y-125208499D01*
X83142400Y-125139643D01*
X83210945Y-125103005D01*
X83238121Y-125088479D01*
X83341985Y-125056973D01*
X83422933Y-125049000D01*
X84577067Y-125049000D01*
X84658015Y-125056973D01*
X84658015Y-125056973D01*
G37*
G36*
X74658015Y-125056973D02*
G01*
X74761879Y-125088479D01*
X74789055Y-125103005D01*
X74857600Y-125139643D01*
X74941501Y-125208499D01*
X75010357Y-125292400D01*
X75046995Y-125360945D01*
X75061521Y-125388121D01*
X75093027Y-125491985D01*
X75103666Y-125600000D01*
X75093027Y-125708015D01*
X75061521Y-125811879D01*
X75061519Y-125811882D01*
X75010357Y-125907600D01*
X74941501Y-125991501D01*
X74857600Y-126060357D01*
X74789055Y-126096995D01*
X74761879Y-126111521D01*
X74658015Y-126143027D01*
X74577067Y-126151000D01*
X73422933Y-126151000D01*
X73341985Y-126143027D01*
X73238121Y-126111521D01*
X73210945Y-126096995D01*
X73142400Y-126060357D01*
X73058499Y-125991501D01*
X72989643Y-125907600D01*
X72938481Y-125811882D01*
X72938479Y-125811879D01*
X72906973Y-125708015D01*
X72896334Y-125600000D01*
X72906973Y-125491985D01*
X72938479Y-125388121D01*
X72953005Y-125360945D01*
X72989643Y-125292400D01*
X73058499Y-125208499D01*
X73142400Y-125139643D01*
X73210945Y-125103005D01*
X73238121Y-125088479D01*
X73341985Y-125056973D01*
X73422933Y-125049000D01*
X74577067Y-125049000D01*
X74658015Y-125056973D01*
X74658015Y-125056973D01*
G37*
G36*
X75951000Y-123721000D02*
G01*
X74049000Y-123721000D01*
X74049000Y-121819000D01*
X75951000Y-121819000D01*
X75951000Y-123721000D01*
X75951000Y-123721000D01*
G37*
G36*
X75277395Y-119315546D02*
G01*
X75450466Y-119387234D01*
X75450467Y-119387235D01*
X75606227Y-119491310D01*
X75738690Y-119623773D01*
X75738691Y-119623775D01*
X75842766Y-119779534D01*
X75914454Y-119952605D01*
X75951000Y-120136333D01*
X75951000Y-120323667D01*
X75914454Y-120507395D01*
X75842766Y-120680466D01*
X75842765Y-120680467D01*
X75738690Y-120836227D01*
X75606227Y-120968690D01*
X75527818Y-121021081D01*
X75450466Y-121072766D01*
X75277395Y-121144454D01*
X75093667Y-121181000D01*
X74906333Y-121181000D01*
X74722605Y-121144454D01*
X74549534Y-121072766D01*
X74472182Y-121021081D01*
X74393773Y-120968690D01*
X74261310Y-120836227D01*
X74157235Y-120680467D01*
X74157234Y-120680466D01*
X74085546Y-120507395D01*
X74049000Y-120323667D01*
X74049000Y-120136333D01*
X74085546Y-119952605D01*
X74157234Y-119779534D01*
X74261309Y-119623775D01*
X74261310Y-119623773D01*
X74393773Y-119491310D01*
X74549533Y-119387235D01*
X74549534Y-119387234D01*
X74722605Y-119315546D01*
X74906333Y-119279000D01*
X75093667Y-119279000D01*
X75277395Y-119315546D01*
X75277395Y-119315546D01*
G37*
G36*
X82777395Y-116585546D02*
G01*
X82950466Y-116657234D01*
X82950467Y-116657235D01*
X83106227Y-116761310D01*
X83238690Y-116893773D01*
X83238691Y-116893775D01*
X83342766Y-117049534D01*
X83414454Y-117222605D01*
X83451000Y-117406333D01*
X83451000Y-117593667D01*
X83414454Y-117777395D01*
X83342766Y-117950466D01*
X83342765Y-117950467D01*
X83238690Y-118106227D01*
X83106227Y-118238690D01*
X83027818Y-118291081D01*
X82950466Y-118342766D01*
X82777395Y-118414454D01*
X82593667Y-118451000D01*
X82406333Y-118451000D01*
X82222605Y-118414454D01*
X82049534Y-118342766D01*
X81972182Y-118291081D01*
X81893773Y-118238690D01*
X81761310Y-118106227D01*
X81657235Y-117950467D01*
X81657234Y-117950466D01*
X81585546Y-117777395D01*
X81549000Y-117593667D01*
X81549000Y-117406333D01*
X81585546Y-117222605D01*
X81657234Y-117049534D01*
X81761309Y-116893775D01*
X81761310Y-116893773D01*
X81893773Y-116761310D01*
X82049533Y-116657235D01*
X82049534Y-116657234D01*
X82222605Y-116585546D01*
X82406333Y-116549000D01*
X82593667Y-116549000D01*
X82777395Y-116585546D01*
X82777395Y-116585546D01*
G37*
G36*
X80277395Y-116585546D02*
G01*
X80450466Y-116657234D01*
X80450467Y-116657235D01*
X80606227Y-116761310D01*
X80738690Y-116893773D01*
X80738691Y-116893775D01*
X80842766Y-117049534D01*
X80914454Y-117222605D01*
X80951000Y-117406333D01*
X80951000Y-117593667D01*
X80914454Y-117777395D01*
X80842766Y-117950466D01*
X80842765Y-117950467D01*
X80738690Y-118106227D01*
X80606227Y-118238690D01*
X80527818Y-118291081D01*
X80450466Y-118342766D01*
X80277395Y-118414454D01*
X80093667Y-118451000D01*
X79906333Y-118451000D01*
X79722605Y-118414454D01*
X79549534Y-118342766D01*
X79472182Y-118291081D01*
X79393773Y-118238690D01*
X79261310Y-118106227D01*
X79157235Y-117950467D01*
X79157234Y-117950466D01*
X79085546Y-117777395D01*
X79049000Y-117593667D01*
X79049000Y-117406333D01*
X79085546Y-117222605D01*
X79157234Y-117049534D01*
X79261309Y-116893775D01*
X79261310Y-116893773D01*
X79393773Y-116761310D01*
X79549533Y-116657235D01*
X79549534Y-116657234D01*
X79722605Y-116585546D01*
X79906333Y-116549000D01*
X80093667Y-116549000D01*
X80277395Y-116585546D01*
X80277395Y-116585546D01*
G37*
G36*
X77777395Y-116585546D02*
G01*
X77950466Y-116657234D01*
X77950467Y-116657235D01*
X78106227Y-116761310D01*
X78238690Y-116893773D01*
X78238691Y-116893775D01*
X78342766Y-117049534D01*
X78414454Y-117222605D01*
X78451000Y-117406333D01*
X78451000Y-117593667D01*
X78414454Y-117777395D01*
X78342766Y-117950466D01*
X78342765Y-117950467D01*
X78238690Y-118106227D01*
X78106227Y-118238690D01*
X78027818Y-118291081D01*
X77950466Y-118342766D01*
X77777395Y-118414454D01*
X77593667Y-118451000D01*
X77406333Y-118451000D01*
X77222605Y-118414454D01*
X77049534Y-118342766D01*
X76972182Y-118291081D01*
X76893773Y-118238690D01*
X76761310Y-118106227D01*
X76657235Y-117950467D01*
X76657234Y-117950466D01*
X76585546Y-117777395D01*
X76549000Y-117593667D01*
X76549000Y-117406333D01*
X76585546Y-117222605D01*
X76657234Y-117049534D01*
X76761309Y-116893775D01*
X76761310Y-116893773D01*
X76893773Y-116761310D01*
X77049533Y-116657235D01*
X77049534Y-116657234D01*
X77222605Y-116585546D01*
X77406333Y-116549000D01*
X77593667Y-116549000D01*
X77777395Y-116585546D01*
X77777395Y-116585546D01*
G37*
G36*
X76198254Y-108527818D02*
G01*
X76571511Y-108682426D01*
X76571513Y-108682427D01*
X76907436Y-108906884D01*
X77193116Y-109192564D01*
X77417574Y-109528489D01*
X77572182Y-109901746D01*
X77651000Y-110297993D01*
X77651000Y-110702007D01*
X77572182Y-111098254D01*
X77417574Y-111471511D01*
X77417573Y-111471513D01*
X77193116Y-111807436D01*
X76907436Y-112093116D01*
X76571513Y-112317573D01*
X76571512Y-112317574D01*
X76571511Y-112317574D01*
X76198254Y-112472182D01*
X75802007Y-112551000D01*
X75397993Y-112551000D01*
X75001746Y-112472182D01*
X74628489Y-112317574D01*
X74628488Y-112317574D01*
X74628487Y-112317573D01*
X74292564Y-112093116D01*
X74006884Y-111807436D01*
X73782427Y-111471513D01*
X73782426Y-111471511D01*
X73627818Y-111098254D01*
X73549000Y-110702007D01*
X73549000Y-110297993D01*
X73627818Y-109901746D01*
X73782426Y-109528489D01*
X74006884Y-109192564D01*
X74292564Y-108906884D01*
X74628487Y-108682427D01*
X74628489Y-108682426D01*
X75001746Y-108527818D01*
X75397993Y-108449000D01*
X75802007Y-108449000D01*
X76198254Y-108527818D01*
X76198254Y-108527818D01*
G37*
G36*
X84998254Y-108527818D02*
G01*
X85371511Y-108682426D01*
X85371513Y-108682427D01*
X85707436Y-108906884D01*
X85993116Y-109192564D01*
X86217574Y-109528489D01*
X86372182Y-109901746D01*
X86451000Y-110297993D01*
X86451000Y-110702007D01*
X86372182Y-111098254D01*
X86217574Y-111471511D01*
X86217573Y-111471513D01*
X85993116Y-111807436D01*
X85707436Y-112093116D01*
X85371513Y-112317573D01*
X85371512Y-112317574D01*
X85371511Y-112317574D01*
X84998254Y-112472182D01*
X84602007Y-112551000D01*
X84197993Y-112551000D01*
X83801746Y-112472182D01*
X83428489Y-112317574D01*
X83428488Y-112317574D01*
X83428487Y-112317573D01*
X83092564Y-112093116D01*
X82806884Y-111807436D01*
X82582427Y-111471513D01*
X82582426Y-111471511D01*
X82427818Y-111098254D01*
X82349000Y-110702007D01*
X82349000Y-110297993D01*
X82427818Y-109901746D01*
X82582426Y-109528489D01*
X82806884Y-109192564D01*
X83092564Y-108906884D01*
X83428487Y-108682427D01*
X83428489Y-108682426D01*
X83801746Y-108527818D01*
X84197993Y-108449000D01*
X84602007Y-108449000D01*
X84998254Y-108527818D01*
X84998254Y-108527818D01*
G37*
G36*
X77777395Y-96585546D02*
G01*
X77950466Y-96657234D01*
X77950467Y-96657235D01*
X78106227Y-96761310D01*
X78238690Y-96893773D01*
X78238691Y-96893775D01*
X78342766Y-97049534D01*
X78414454Y-97222605D01*
X78451000Y-97406333D01*
X78451000Y-97593667D01*
X78414454Y-97777395D01*
X78342766Y-97950466D01*
X78342765Y-97950467D01*
X78238690Y-98106227D01*
X78106227Y-98238690D01*
X78027818Y-98291081D01*
X77950466Y-98342766D01*
X77777395Y-98414454D01*
X77593667Y-98451000D01*
X77406333Y-98451000D01*
X77222605Y-98414454D01*
X77049534Y-98342766D01*
X76972182Y-98291081D01*
X76893773Y-98238690D01*
X76761310Y-98106227D01*
X76657235Y-97950467D01*
X76657234Y-97950466D01*
X76585546Y-97777395D01*
X76549000Y-97593667D01*
X76549000Y-97406333D01*
X76585546Y-97222605D01*
X76657234Y-97049534D01*
X76761309Y-96893775D01*
X76761310Y-96893773D01*
X76893773Y-96761310D01*
X77049533Y-96657235D01*
X77049534Y-96657234D01*
X77222605Y-96585546D01*
X77406333Y-96549000D01*
X77593667Y-96549000D01*
X77777395Y-96585546D01*
X77777395Y-96585546D01*
G37*
G36*
X80277395Y-96585546D02*
G01*
X80450466Y-96657234D01*
X80450467Y-96657235D01*
X80606227Y-96761310D01*
X80738690Y-96893773D01*
X80738691Y-96893775D01*
X80842766Y-97049534D01*
X80914454Y-97222605D01*
X80951000Y-97406333D01*
X80951000Y-97593667D01*
X80914454Y-97777395D01*
X80842766Y-97950466D01*
X80842765Y-97950467D01*
X80738690Y-98106227D01*
X80606227Y-98238690D01*
X80527818Y-98291081D01*
X80450466Y-98342766D01*
X80277395Y-98414454D01*
X80093667Y-98451000D01*
X79906333Y-98451000D01*
X79722605Y-98414454D01*
X79549534Y-98342766D01*
X79472182Y-98291081D01*
X79393773Y-98238690D01*
X79261310Y-98106227D01*
X79157235Y-97950467D01*
X79157234Y-97950466D01*
X79085546Y-97777395D01*
X79049000Y-97593667D01*
X79049000Y-97406333D01*
X79085546Y-97222605D01*
X79157234Y-97049534D01*
X79261309Y-96893775D01*
X79261310Y-96893773D01*
X79393773Y-96761310D01*
X79549533Y-96657235D01*
X79549534Y-96657234D01*
X79722605Y-96585546D01*
X79906333Y-96549000D01*
X80093667Y-96549000D01*
X80277395Y-96585546D01*
X80277395Y-96585546D01*
G37*
G36*
X82777395Y-96585546D02*
G01*
X82950466Y-96657234D01*
X82950467Y-96657235D01*
X83106227Y-96761310D01*
X83238690Y-96893773D01*
X83238691Y-96893775D01*
X83342766Y-97049534D01*
X83414454Y-97222605D01*
X83451000Y-97406333D01*
X83451000Y-97593667D01*
X83414454Y-97777395D01*
X83342766Y-97950466D01*
X83342765Y-97950467D01*
X83238690Y-98106227D01*
X83106227Y-98238690D01*
X83027818Y-98291081D01*
X82950466Y-98342766D01*
X82777395Y-98414454D01*
X82593667Y-98451000D01*
X82406333Y-98451000D01*
X82222605Y-98414454D01*
X82049534Y-98342766D01*
X81972182Y-98291081D01*
X81893773Y-98238690D01*
X81761310Y-98106227D01*
X81657235Y-97950467D01*
X81657234Y-97950466D01*
X81585546Y-97777395D01*
X81549000Y-97593667D01*
X81549000Y-97406333D01*
X81585546Y-97222605D01*
X81657234Y-97049534D01*
X81761309Y-96893775D01*
X81761310Y-96893773D01*
X81893773Y-96761310D01*
X82049533Y-96657235D01*
X82049534Y-96657234D01*
X82222605Y-96585546D01*
X82406333Y-96549000D01*
X82593667Y-96549000D01*
X82777395Y-96585546D01*
X82777395Y-96585546D01*
G37*
G36*
X84998254Y-88527818D02*
G01*
X85371511Y-88682426D01*
X85371513Y-88682427D01*
X85707436Y-88906884D01*
X85993116Y-89192564D01*
X86217574Y-89528489D01*
X86372182Y-89901746D01*
X86451000Y-90297993D01*
X86451000Y-90702007D01*
X86372182Y-91098254D01*
X86217574Y-91471511D01*
X86217573Y-91471513D01*
X85993116Y-91807436D01*
X85707436Y-92093116D01*
X85371513Y-92317573D01*
X85371512Y-92317574D01*
X85371511Y-92317574D01*
X84998254Y-92472182D01*
X84602007Y-92551000D01*
X84197993Y-92551000D01*
X83801746Y-92472182D01*
X83428489Y-92317574D01*
X83428488Y-92317574D01*
X83428487Y-92317573D01*
X83092564Y-92093116D01*
X82806884Y-91807436D01*
X82582427Y-91471513D01*
X82582426Y-91471511D01*
X82427818Y-91098254D01*
X82349000Y-90702007D01*
X82349000Y-90297993D01*
X82427818Y-89901746D01*
X82582426Y-89528489D01*
X82806884Y-89192564D01*
X83092564Y-88906884D01*
X83428487Y-88682427D01*
X83428489Y-88682426D01*
X83801746Y-88527818D01*
X84197993Y-88449000D01*
X84602007Y-88449000D01*
X84998254Y-88527818D01*
X84998254Y-88527818D01*
G37*
G36*
X76198254Y-88527818D02*
G01*
X76571511Y-88682426D01*
X76571513Y-88682427D01*
X76907436Y-88906884D01*
X77193116Y-89192564D01*
X77417574Y-89528489D01*
X77572182Y-89901746D01*
X77651000Y-90297993D01*
X77651000Y-90702007D01*
X77572182Y-91098254D01*
X77417574Y-91471511D01*
X77417573Y-91471513D01*
X77193116Y-91807436D01*
X76907436Y-92093116D01*
X76571513Y-92317573D01*
X76571512Y-92317574D01*
X76571511Y-92317574D01*
X76198254Y-92472182D01*
X75802007Y-92551000D01*
X75397993Y-92551000D01*
X75001746Y-92472182D01*
X74628489Y-92317574D01*
X74628488Y-92317574D01*
X74628487Y-92317573D01*
X74292564Y-92093116D01*
X74006884Y-91807436D01*
X73782427Y-91471513D01*
X73782426Y-91471511D01*
X73627818Y-91098254D01*
X73549000Y-90702007D01*
X73549000Y-90297993D01*
X73627818Y-89901746D01*
X73782426Y-89528489D01*
X74006884Y-89192564D01*
X74292564Y-88906884D01*
X74628487Y-88682427D01*
X74628489Y-88682426D01*
X75001746Y-88527818D01*
X75397993Y-88449000D01*
X75802007Y-88449000D01*
X76198254Y-88527818D01*
X76198254Y-88527818D01*
G37*
G36*
X80277395Y-76585546D02*
G01*
X80450466Y-76657234D01*
X80450467Y-76657235D01*
X80606227Y-76761310D01*
X80738690Y-76893773D01*
X80738691Y-76893775D01*
X80842766Y-77049534D01*
X80914454Y-77222605D01*
X80951000Y-77406333D01*
X80951000Y-77593667D01*
X80914454Y-77777395D01*
X80842766Y-77950466D01*
X80842765Y-77950467D01*
X80738690Y-78106227D01*
X80606227Y-78238690D01*
X80527818Y-78291081D01*
X80450466Y-78342766D01*
X80277395Y-78414454D01*
X80093667Y-78451000D01*
X79906333Y-78451000D01*
X79722605Y-78414454D01*
X79549534Y-78342766D01*
X79472182Y-78291081D01*
X79393773Y-78238690D01*
X79261310Y-78106227D01*
X79157235Y-77950467D01*
X79157234Y-77950466D01*
X79085546Y-77777395D01*
X79049000Y-77593667D01*
X79049000Y-77406333D01*
X79085546Y-77222605D01*
X79157234Y-77049534D01*
X79261309Y-76893775D01*
X79261310Y-76893773D01*
X79393773Y-76761310D01*
X79549533Y-76657235D01*
X79549534Y-76657234D01*
X79722605Y-76585546D01*
X79906333Y-76549000D01*
X80093667Y-76549000D01*
X80277395Y-76585546D01*
X80277395Y-76585546D01*
G37*
G36*
X77777395Y-76585546D02*
G01*
X77950466Y-76657234D01*
X77950467Y-76657235D01*
X78106227Y-76761310D01*
X78238690Y-76893773D01*
X78238691Y-76893775D01*
X78342766Y-77049534D01*
X78414454Y-77222605D01*
X78451000Y-77406333D01*
X78451000Y-77593667D01*
X78414454Y-77777395D01*
X78342766Y-77950466D01*
X78342765Y-77950467D01*
X78238690Y-78106227D01*
X78106227Y-78238690D01*
X78027818Y-78291081D01*
X77950466Y-78342766D01*
X77777395Y-78414454D01*
X77593667Y-78451000D01*
X77406333Y-78451000D01*
X77222605Y-78414454D01*
X77049534Y-78342766D01*
X76972182Y-78291081D01*
X76893773Y-78238690D01*
X76761310Y-78106227D01*
X76657235Y-77950467D01*
X76657234Y-77950466D01*
X76585546Y-77777395D01*
X76549000Y-77593667D01*
X76549000Y-77406333D01*
X76585546Y-77222605D01*
X76657234Y-77049534D01*
X76761309Y-76893775D01*
X76761310Y-76893773D01*
X76893773Y-76761310D01*
X77049533Y-76657235D01*
X77049534Y-76657234D01*
X77222605Y-76585546D01*
X77406333Y-76549000D01*
X77593667Y-76549000D01*
X77777395Y-76585546D01*
X77777395Y-76585546D01*
G37*
G36*
X82777395Y-76585546D02*
G01*
X82950466Y-76657234D01*
X82950467Y-76657235D01*
X83106227Y-76761310D01*
X83238690Y-76893773D01*
X83238691Y-76893775D01*
X83342766Y-77049534D01*
X83414454Y-77222605D01*
X83451000Y-77406333D01*
X83451000Y-77593667D01*
X83414454Y-77777395D01*
X83342766Y-77950466D01*
X83342765Y-77950467D01*
X83238690Y-78106227D01*
X83106227Y-78238690D01*
X83027818Y-78291081D01*
X82950466Y-78342766D01*
X82777395Y-78414454D01*
X82593667Y-78451000D01*
X82406333Y-78451000D01*
X82222605Y-78414454D01*
X82049534Y-78342766D01*
X81972182Y-78291081D01*
X81893773Y-78238690D01*
X81761310Y-78106227D01*
X81657235Y-77950467D01*
X81657234Y-77950466D01*
X81585546Y-77777395D01*
X81549000Y-77593667D01*
X81549000Y-77406333D01*
X81585546Y-77222605D01*
X81657234Y-77049534D01*
X81761309Y-76893775D01*
X81761310Y-76893773D01*
X81893773Y-76761310D01*
X82049533Y-76657235D01*
X82049534Y-76657234D01*
X82222605Y-76585546D01*
X82406333Y-76549000D01*
X82593667Y-76549000D01*
X82777395Y-76585546D01*
X82777395Y-76585546D01*
G37*
G36*
X97777443Y-74265519D02*
G01*
X97843627Y-74272037D01*
X98013466Y-74323557D01*
X98169991Y-74407222D01*
X98205729Y-74436552D01*
X98307186Y-74519814D01*
X98390448Y-74621271D01*
X98419778Y-74657009D01*
X98503443Y-74813534D01*
X98554963Y-74983373D01*
X98572359Y-75160000D01*
X98554963Y-75336627D01*
X98503443Y-75506466D01*
X98419778Y-75662991D01*
X98390448Y-75698729D01*
X98307186Y-75800186D01*
X98205729Y-75883448D01*
X98169991Y-75912778D01*
X98013466Y-75996443D01*
X97843627Y-76047963D01*
X97777442Y-76054482D01*
X97711260Y-76061000D01*
X97622740Y-76061000D01*
X97556558Y-76054482D01*
X97490373Y-76047963D01*
X97320534Y-75996443D01*
X97164009Y-75912778D01*
X97128271Y-75883448D01*
X97026814Y-75800186D01*
X96943552Y-75698729D01*
X96914222Y-75662991D01*
X96830557Y-75506466D01*
X96779037Y-75336627D01*
X96761641Y-75160000D01*
X96779037Y-74983373D01*
X96830557Y-74813534D01*
X96914222Y-74657009D01*
X96943552Y-74621271D01*
X97026814Y-74519814D01*
X97128271Y-74436552D01*
X97164009Y-74407222D01*
X97320534Y-74323557D01*
X97490373Y-74272037D01*
X97556557Y-74265519D01*
X97622740Y-74259000D01*
X97711260Y-74259000D01*
X97777443Y-74265519D01*
X97777443Y-74265519D01*
G37*
G36*
X95237443Y-74265519D02*
G01*
X95303627Y-74272037D01*
X95473466Y-74323557D01*
X95629991Y-74407222D01*
X95665729Y-74436552D01*
X95767186Y-74519814D01*
X95850448Y-74621271D01*
X95879778Y-74657009D01*
X95963443Y-74813534D01*
X96014963Y-74983373D01*
X96032359Y-75160000D01*
X96014963Y-75336627D01*
X95963443Y-75506466D01*
X95879778Y-75662991D01*
X95850448Y-75698729D01*
X95767186Y-75800186D01*
X95665729Y-75883448D01*
X95629991Y-75912778D01*
X95473466Y-75996443D01*
X95303627Y-76047963D01*
X95237442Y-76054482D01*
X95171260Y-76061000D01*
X95082740Y-76061000D01*
X95016558Y-76054482D01*
X94950373Y-76047963D01*
X94780534Y-75996443D01*
X94624009Y-75912778D01*
X94588271Y-75883448D01*
X94486814Y-75800186D01*
X94403552Y-75698729D01*
X94374222Y-75662991D01*
X94290557Y-75506466D01*
X94239037Y-75336627D01*
X94221641Y-75160000D01*
X94239037Y-74983373D01*
X94290557Y-74813534D01*
X94374222Y-74657009D01*
X94403552Y-74621271D01*
X94486814Y-74519814D01*
X94588271Y-74436552D01*
X94624009Y-74407222D01*
X94780534Y-74323557D01*
X94950373Y-74272037D01*
X95016557Y-74265519D01*
X95082740Y-74259000D01*
X95171260Y-74259000D01*
X95237443Y-74265519D01*
X95237443Y-74265519D01*
G37*
G36*
X97523442Y-71725518D02*
G01*
X97589627Y-71732037D01*
X97759466Y-71783557D01*
X97915991Y-71867222D01*
X97951729Y-71896552D01*
X98053186Y-71979814D01*
X98136448Y-72081271D01*
X98165778Y-72117009D01*
X98249443Y-72273534D01*
X98300963Y-72443373D01*
X98318359Y-72620000D01*
X98300963Y-72796627D01*
X98249443Y-72966466D01*
X98165778Y-73122991D01*
X98136448Y-73158729D01*
X98053186Y-73260186D01*
X97951729Y-73343448D01*
X97915991Y-73372778D01*
X97759466Y-73456443D01*
X97589627Y-73507963D01*
X97523443Y-73514481D01*
X97457260Y-73521000D01*
X97368740Y-73521000D01*
X97302557Y-73514481D01*
X97236373Y-73507963D01*
X97066534Y-73456443D01*
X96910009Y-73372778D01*
X96874271Y-73343448D01*
X96772814Y-73260186D01*
X96689552Y-73158729D01*
X96660222Y-73122991D01*
X96576557Y-72966466D01*
X96525037Y-72796627D01*
X96507641Y-72620000D01*
X96525037Y-72443373D01*
X96576557Y-72273534D01*
X96660222Y-72117009D01*
X96689552Y-72081271D01*
X96772814Y-71979814D01*
X96874271Y-71896552D01*
X96910009Y-71867222D01*
X97066534Y-71783557D01*
X97236373Y-71732037D01*
X97302558Y-71725518D01*
X97368740Y-71719000D01*
X97457260Y-71719000D01*
X97523442Y-71725518D01*
X97523442Y-71725518D01*
G37*
G36*
X94983442Y-71725518D02*
G01*
X95049627Y-71732037D01*
X95219466Y-71783557D01*
X95375991Y-71867222D01*
X95411729Y-71896552D01*
X95513186Y-71979814D01*
X95596448Y-72081271D01*
X95625778Y-72117009D01*
X95709443Y-72273534D01*
X95760963Y-72443373D01*
X95778359Y-72620000D01*
X95760963Y-72796627D01*
X95709443Y-72966466D01*
X95625778Y-73122991D01*
X95596448Y-73158729D01*
X95513186Y-73260186D01*
X95411729Y-73343448D01*
X95375991Y-73372778D01*
X95219466Y-73456443D01*
X95049627Y-73507963D01*
X94983443Y-73514481D01*
X94917260Y-73521000D01*
X94828740Y-73521000D01*
X94762557Y-73514481D01*
X94696373Y-73507963D01*
X94526534Y-73456443D01*
X94370009Y-73372778D01*
X94334271Y-73343448D01*
X94232814Y-73260186D01*
X94149552Y-73158729D01*
X94120222Y-73122991D01*
X94036557Y-72966466D01*
X93985037Y-72796627D01*
X93967641Y-72620000D01*
X93985037Y-72443373D01*
X94036557Y-72273534D01*
X94120222Y-72117009D01*
X94149552Y-72081271D01*
X94232814Y-71979814D01*
X94334271Y-71896552D01*
X94370009Y-71867222D01*
X94526534Y-71783557D01*
X94696373Y-71732037D01*
X94762558Y-71725518D01*
X94828740Y-71719000D01*
X94917260Y-71719000D01*
X94983442Y-71725518D01*
X94983442Y-71725518D01*
G37*
G36*
X84998254Y-68527818D02*
G01*
X85371511Y-68682426D01*
X85371513Y-68682427D01*
X85707436Y-68906884D01*
X85993116Y-69192564D01*
X86217574Y-69528489D01*
X86372182Y-69901746D01*
X86451000Y-70297993D01*
X86451000Y-70702007D01*
X86372182Y-71098254D01*
X86217574Y-71471511D01*
X86217573Y-71471513D01*
X85993116Y-71807436D01*
X85707436Y-72093116D01*
X85371513Y-72317573D01*
X85371512Y-72317574D01*
X85371511Y-72317574D01*
X84998254Y-72472182D01*
X84602007Y-72551000D01*
X84197993Y-72551000D01*
X83801746Y-72472182D01*
X83428489Y-72317574D01*
X83428488Y-72317574D01*
X83428487Y-72317573D01*
X83092564Y-72093116D01*
X82806884Y-71807436D01*
X82582427Y-71471513D01*
X82582426Y-71471511D01*
X82427818Y-71098254D01*
X82349000Y-70702007D01*
X82349000Y-70297993D01*
X82427818Y-69901746D01*
X82582426Y-69528489D01*
X82806884Y-69192564D01*
X83092564Y-68906884D01*
X83428487Y-68682427D01*
X83428489Y-68682426D01*
X83801746Y-68527818D01*
X84197993Y-68449000D01*
X84602007Y-68449000D01*
X84998254Y-68527818D01*
X84998254Y-68527818D01*
G37*
G36*
X76198254Y-68527818D02*
G01*
X76571511Y-68682426D01*
X76571513Y-68682427D01*
X76907436Y-68906884D01*
X77193116Y-69192564D01*
X77417574Y-69528489D01*
X77572182Y-69901746D01*
X77651000Y-70297993D01*
X77651000Y-70702007D01*
X77572182Y-71098254D01*
X77417574Y-71471511D01*
X77417573Y-71471513D01*
X77193116Y-71807436D01*
X76907436Y-72093116D01*
X76571513Y-72317573D01*
X76571512Y-72317574D01*
X76571511Y-72317574D01*
X76198254Y-72472182D01*
X75802007Y-72551000D01*
X75397993Y-72551000D01*
X75001746Y-72472182D01*
X74628489Y-72317574D01*
X74628488Y-72317574D01*
X74628487Y-72317573D01*
X74292564Y-72093116D01*
X74006884Y-71807436D01*
X73782427Y-71471513D01*
X73782426Y-71471511D01*
X73627818Y-71098254D01*
X73549000Y-70702007D01*
X73549000Y-70297993D01*
X73627818Y-69901746D01*
X73782426Y-69528489D01*
X74006884Y-69192564D01*
X74292564Y-68906884D01*
X74628487Y-68682427D01*
X74628489Y-68682426D01*
X75001746Y-68527818D01*
X75397993Y-68449000D01*
X75802007Y-68449000D01*
X76198254Y-68527818D01*
X76198254Y-68527818D01*
G37*
G36*
X97777442Y-69185518D02*
G01*
X97843627Y-69192037D01*
X98013466Y-69243557D01*
X98169991Y-69327222D01*
X98205729Y-69356552D01*
X98307186Y-69439814D01*
X98390448Y-69541271D01*
X98419778Y-69577009D01*
X98503443Y-69733534D01*
X98554963Y-69903373D01*
X98572359Y-70080000D01*
X98554963Y-70256627D01*
X98503443Y-70426466D01*
X98419778Y-70582991D01*
X98390448Y-70618729D01*
X98307186Y-70720186D01*
X98205729Y-70803448D01*
X98169991Y-70832778D01*
X98013466Y-70916443D01*
X97843627Y-70967963D01*
X97777442Y-70974482D01*
X97711260Y-70981000D01*
X97622740Y-70981000D01*
X97556558Y-70974482D01*
X97490373Y-70967963D01*
X97320534Y-70916443D01*
X97164009Y-70832778D01*
X97128271Y-70803448D01*
X97026814Y-70720186D01*
X96943552Y-70618729D01*
X96914222Y-70582991D01*
X96830557Y-70426466D01*
X96779037Y-70256627D01*
X96761641Y-70080000D01*
X96779037Y-69903373D01*
X96830557Y-69733534D01*
X96914222Y-69577009D01*
X96943552Y-69541271D01*
X97026814Y-69439814D01*
X97128271Y-69356552D01*
X97164009Y-69327222D01*
X97320534Y-69243557D01*
X97490373Y-69192037D01*
X97556558Y-69185518D01*
X97622740Y-69179000D01*
X97711260Y-69179000D01*
X97777442Y-69185518D01*
X97777442Y-69185518D01*
G37*
G36*
X95237442Y-69185518D02*
G01*
X95303627Y-69192037D01*
X95473466Y-69243557D01*
X95629991Y-69327222D01*
X95665729Y-69356552D01*
X95767186Y-69439814D01*
X95850448Y-69541271D01*
X95879778Y-69577009D01*
X95963443Y-69733534D01*
X96014963Y-69903373D01*
X96032359Y-70080000D01*
X96014963Y-70256627D01*
X95963443Y-70426466D01*
X95879778Y-70582991D01*
X95850448Y-70618729D01*
X95767186Y-70720186D01*
X95665729Y-70803448D01*
X95629991Y-70832778D01*
X95473466Y-70916443D01*
X95303627Y-70967963D01*
X95237442Y-70974482D01*
X95171260Y-70981000D01*
X95082740Y-70981000D01*
X95016558Y-70974482D01*
X94950373Y-70967963D01*
X94780534Y-70916443D01*
X94624009Y-70832778D01*
X94588271Y-70803448D01*
X94486814Y-70720186D01*
X94403552Y-70618729D01*
X94374222Y-70582991D01*
X94290557Y-70426466D01*
X94239037Y-70256627D01*
X94221641Y-70080000D01*
X94239037Y-69903373D01*
X94290557Y-69733534D01*
X94374222Y-69577009D01*
X94403552Y-69541271D01*
X94486814Y-69439814D01*
X94588271Y-69356552D01*
X94624009Y-69327222D01*
X94780534Y-69243557D01*
X94950373Y-69192037D01*
X95016558Y-69185518D01*
X95082740Y-69179000D01*
X95171260Y-69179000D01*
X95237442Y-69185518D01*
X95237442Y-69185518D01*
G37*
G36*
X94983443Y-66645519D02*
G01*
X95049627Y-66652037D01*
X95219466Y-66703557D01*
X95375991Y-66787222D01*
X95411729Y-66816552D01*
X95513186Y-66899814D01*
X95596448Y-67001271D01*
X95625778Y-67037009D01*
X95709443Y-67193534D01*
X95760963Y-67363373D01*
X95778359Y-67540000D01*
X95760963Y-67716627D01*
X95709443Y-67886466D01*
X95625778Y-68042991D01*
X95596448Y-68078729D01*
X95513186Y-68180186D01*
X95411729Y-68263448D01*
X95375991Y-68292778D01*
X95219466Y-68376443D01*
X95049627Y-68427963D01*
X94983443Y-68434481D01*
X94917260Y-68441000D01*
X94828740Y-68441000D01*
X94762557Y-68434481D01*
X94696373Y-68427963D01*
X94526534Y-68376443D01*
X94370009Y-68292778D01*
X94334271Y-68263448D01*
X94232814Y-68180186D01*
X94149552Y-68078729D01*
X94120222Y-68042991D01*
X94036557Y-67886466D01*
X93985037Y-67716627D01*
X93967641Y-67540000D01*
X93985037Y-67363373D01*
X94036557Y-67193534D01*
X94120222Y-67037009D01*
X94149552Y-67001271D01*
X94232814Y-66899814D01*
X94334271Y-66816552D01*
X94370009Y-66787222D01*
X94526534Y-66703557D01*
X94696373Y-66652037D01*
X94762557Y-66645519D01*
X94828740Y-66639000D01*
X94917260Y-66639000D01*
X94983443Y-66645519D01*
X94983443Y-66645519D01*
G37*
G36*
X97523443Y-66645519D02*
G01*
X97589627Y-66652037D01*
X97759466Y-66703557D01*
X97915991Y-66787222D01*
X97951729Y-66816552D01*
X98053186Y-66899814D01*
X98136448Y-67001271D01*
X98165778Y-67037009D01*
X98249443Y-67193534D01*
X98300963Y-67363373D01*
X98318359Y-67540000D01*
X98300963Y-67716627D01*
X98249443Y-67886466D01*
X98165778Y-68042991D01*
X98136448Y-68078729D01*
X98053186Y-68180186D01*
X97951729Y-68263448D01*
X97915991Y-68292778D01*
X97759466Y-68376443D01*
X97589627Y-68427963D01*
X97523443Y-68434481D01*
X97457260Y-68441000D01*
X97368740Y-68441000D01*
X97302557Y-68434481D01*
X97236373Y-68427963D01*
X97066534Y-68376443D01*
X96910009Y-68292778D01*
X96874271Y-68263448D01*
X96772814Y-68180186D01*
X96689552Y-68078729D01*
X96660222Y-68042991D01*
X96576557Y-67886466D01*
X96525037Y-67716627D01*
X96507641Y-67540000D01*
X96525037Y-67363373D01*
X96576557Y-67193534D01*
X96660222Y-67037009D01*
X96689552Y-67001271D01*
X96772814Y-66899814D01*
X96874271Y-66816552D01*
X96910009Y-66787222D01*
X97066534Y-66703557D01*
X97236373Y-66652037D01*
X97302557Y-66645519D01*
X97368740Y-66639000D01*
X97457260Y-66639000D01*
X97523443Y-66645519D01*
X97523443Y-66645519D01*
G37*
G36*
X97777443Y-64105519D02*
G01*
X97843627Y-64112037D01*
X98013466Y-64163557D01*
X98169991Y-64247222D01*
X98205729Y-64276552D01*
X98307186Y-64359814D01*
X98390448Y-64461271D01*
X98419778Y-64497009D01*
X98503443Y-64653534D01*
X98554963Y-64823373D01*
X98572359Y-65000000D01*
X98554963Y-65176627D01*
X98503443Y-65346466D01*
X98419778Y-65502991D01*
X98390448Y-65538729D01*
X98307186Y-65640186D01*
X98205729Y-65723448D01*
X98169991Y-65752778D01*
X98013466Y-65836443D01*
X97843627Y-65887963D01*
X97777442Y-65894482D01*
X97711260Y-65901000D01*
X97622740Y-65901000D01*
X97556558Y-65894482D01*
X97490373Y-65887963D01*
X97320534Y-65836443D01*
X97164009Y-65752778D01*
X97128271Y-65723448D01*
X97026814Y-65640186D01*
X96943552Y-65538729D01*
X96914222Y-65502991D01*
X96830557Y-65346466D01*
X96779037Y-65176627D01*
X96761641Y-65000000D01*
X96779037Y-64823373D01*
X96830557Y-64653534D01*
X96914222Y-64497009D01*
X96943552Y-64461271D01*
X97026814Y-64359814D01*
X97128271Y-64276552D01*
X97164009Y-64247222D01*
X97320534Y-64163557D01*
X97490373Y-64112037D01*
X97556557Y-64105519D01*
X97622740Y-64099000D01*
X97711260Y-64099000D01*
X97777443Y-64105519D01*
X97777443Y-64105519D01*
G37*
G36*
X96028000Y-65901000D02*
G01*
X94226000Y-65901000D01*
X94226000Y-64099000D01*
X96028000Y-64099000D01*
X96028000Y-65901000D01*
X96028000Y-65901000D01*
G37*
G36*
X80277395Y-56585546D02*
G01*
X80450466Y-56657234D01*
X80450467Y-56657235D01*
X80606227Y-56761310D01*
X80738690Y-56893773D01*
X80738691Y-56893775D01*
X80842766Y-57049534D01*
X80914454Y-57222605D01*
X80951000Y-57406333D01*
X80951000Y-57593667D01*
X80914454Y-57777395D01*
X80842766Y-57950466D01*
X80842765Y-57950467D01*
X80738690Y-58106227D01*
X80606227Y-58238690D01*
X80527818Y-58291081D01*
X80450466Y-58342766D01*
X80277395Y-58414454D01*
X80093667Y-58451000D01*
X79906333Y-58451000D01*
X79722605Y-58414454D01*
X79549534Y-58342766D01*
X79472182Y-58291081D01*
X79393773Y-58238690D01*
X79261310Y-58106227D01*
X79157235Y-57950467D01*
X79157234Y-57950466D01*
X79085546Y-57777395D01*
X79049000Y-57593667D01*
X79049000Y-57406333D01*
X79085546Y-57222605D01*
X79157234Y-57049534D01*
X79261309Y-56893775D01*
X79261310Y-56893773D01*
X79393773Y-56761310D01*
X79549533Y-56657235D01*
X79549534Y-56657234D01*
X79722605Y-56585546D01*
X79906333Y-56549000D01*
X80093667Y-56549000D01*
X80277395Y-56585546D01*
X80277395Y-56585546D01*
G37*
G36*
X77777395Y-56585546D02*
G01*
X77950466Y-56657234D01*
X77950467Y-56657235D01*
X78106227Y-56761310D01*
X78238690Y-56893773D01*
X78238691Y-56893775D01*
X78342766Y-57049534D01*
X78414454Y-57222605D01*
X78451000Y-57406333D01*
X78451000Y-57593667D01*
X78414454Y-57777395D01*
X78342766Y-57950466D01*
X78342765Y-57950467D01*
X78238690Y-58106227D01*
X78106227Y-58238690D01*
X78027818Y-58291081D01*
X77950466Y-58342766D01*
X77777395Y-58414454D01*
X77593667Y-58451000D01*
X77406333Y-58451000D01*
X77222605Y-58414454D01*
X77049534Y-58342766D01*
X76972182Y-58291081D01*
X76893773Y-58238690D01*
X76761310Y-58106227D01*
X76657235Y-57950467D01*
X76657234Y-57950466D01*
X76585546Y-57777395D01*
X76549000Y-57593667D01*
X76549000Y-57406333D01*
X76585546Y-57222605D01*
X76657234Y-57049534D01*
X76761309Y-56893775D01*
X76761310Y-56893773D01*
X76893773Y-56761310D01*
X77049533Y-56657235D01*
X77049534Y-56657234D01*
X77222605Y-56585546D01*
X77406333Y-56549000D01*
X77593667Y-56549000D01*
X77777395Y-56585546D01*
X77777395Y-56585546D01*
G37*
G36*
X82777395Y-56585546D02*
G01*
X82950466Y-56657234D01*
X82950467Y-56657235D01*
X83106227Y-56761310D01*
X83238690Y-56893773D01*
X83238691Y-56893775D01*
X83342766Y-57049534D01*
X83414454Y-57222605D01*
X83451000Y-57406333D01*
X83451000Y-57593667D01*
X83414454Y-57777395D01*
X83342766Y-57950466D01*
X83342765Y-57950467D01*
X83238690Y-58106227D01*
X83106227Y-58238690D01*
X83027818Y-58291081D01*
X82950466Y-58342766D01*
X82777395Y-58414454D01*
X82593667Y-58451000D01*
X82406333Y-58451000D01*
X82222605Y-58414454D01*
X82049534Y-58342766D01*
X81972182Y-58291081D01*
X81893773Y-58238690D01*
X81761310Y-58106227D01*
X81657235Y-57950467D01*
X81657234Y-57950466D01*
X81585546Y-57777395D01*
X81549000Y-57593667D01*
X81549000Y-57406333D01*
X81585546Y-57222605D01*
X81657234Y-57049534D01*
X81761309Y-56893775D01*
X81761310Y-56893773D01*
X81893773Y-56761310D01*
X82049533Y-56657235D01*
X82049534Y-56657234D01*
X82222605Y-56585546D01*
X82406333Y-56549000D01*
X82593667Y-56549000D01*
X82777395Y-56585546D01*
X82777395Y-56585546D01*
G37*
G36*
X76198254Y-48527818D02*
G01*
X76571511Y-48682426D01*
X76571513Y-48682427D01*
X76907436Y-48906884D01*
X77193116Y-49192564D01*
X77417574Y-49528489D01*
X77572182Y-49901746D01*
X77651000Y-50297993D01*
X77651000Y-50702007D01*
X77572182Y-51098254D01*
X77417574Y-51471511D01*
X77417573Y-51471513D01*
X77193116Y-51807436D01*
X76907436Y-52093116D01*
X76571513Y-52317573D01*
X76571512Y-52317574D01*
X76571511Y-52317574D01*
X76198254Y-52472182D01*
X75802007Y-52551000D01*
X75397993Y-52551000D01*
X75001746Y-52472182D01*
X74628489Y-52317574D01*
X74628488Y-52317574D01*
X74628487Y-52317573D01*
X74292564Y-52093116D01*
X74006884Y-51807436D01*
X73782427Y-51471513D01*
X73782426Y-51471511D01*
X73627818Y-51098254D01*
X73549000Y-50702007D01*
X73549000Y-50297993D01*
X73627818Y-49901746D01*
X73782426Y-49528489D01*
X74006884Y-49192564D01*
X74292564Y-48906884D01*
X74628487Y-48682427D01*
X74628489Y-48682426D01*
X75001746Y-48527818D01*
X75397993Y-48449000D01*
X75802007Y-48449000D01*
X76198254Y-48527818D01*
X76198254Y-48527818D01*
G37*
G36*
X84998254Y-48527818D02*
G01*
X85371511Y-48682426D01*
X85371513Y-48682427D01*
X85707436Y-48906884D01*
X85993116Y-49192564D01*
X86217574Y-49528489D01*
X86372182Y-49901746D01*
X86451000Y-50297993D01*
X86451000Y-50702007D01*
X86372182Y-51098254D01*
X86217574Y-51471511D01*
X86217573Y-51471513D01*
X85993116Y-51807436D01*
X85707436Y-52093116D01*
X85371513Y-52317573D01*
X85371512Y-52317574D01*
X85371511Y-52317574D01*
X84998254Y-52472182D01*
X84602007Y-52551000D01*
X84197993Y-52551000D01*
X83801746Y-52472182D01*
X83428489Y-52317574D01*
X83428488Y-52317574D01*
X83428487Y-52317573D01*
X83092564Y-52093116D01*
X82806884Y-51807436D01*
X82582427Y-51471513D01*
X82582426Y-51471511D01*
X82427818Y-51098254D01*
X82349000Y-50702007D01*
X82349000Y-50297993D01*
X82427818Y-49901746D01*
X82582426Y-49528489D01*
X82806884Y-49192564D01*
X83092564Y-48906884D01*
X83428487Y-48682427D01*
X83428489Y-48682426D01*
X83801746Y-48527818D01*
X84197993Y-48449000D01*
X84602007Y-48449000D01*
X84998254Y-48527818D01*
X84998254Y-48527818D01*
G37*
G36*
X95607589Y-42997048D02*
G01*
X95986671Y-43154069D01*
X96327835Y-43382028D01*
X96617972Y-43672165D01*
X96845931Y-44013329D01*
X97002952Y-44392411D01*
X97083000Y-44794842D01*
X97083000Y-45205158D01*
X97002952Y-45607589D01*
X96845931Y-45986671D01*
X96617972Y-46327835D01*
X96327835Y-46617972D01*
X95986671Y-46845931D01*
X95607589Y-47002952D01*
X95205159Y-47083000D01*
X94794841Y-47083000D01*
X94392411Y-47002952D01*
X94013329Y-46845931D01*
X93672165Y-46617972D01*
X93382028Y-46327835D01*
X93154069Y-45986671D01*
X92997048Y-45607589D01*
X92917000Y-45205158D01*
X92917000Y-44794842D01*
X92997048Y-44392411D01*
X93154069Y-44013329D01*
X93382028Y-43672165D01*
X93672165Y-43382028D01*
X94013329Y-43154069D01*
X94392411Y-42997048D01*
X94794841Y-42917000D01*
X95205159Y-42917000D01*
X95607589Y-42997048D01*
X95607589Y-42997048D01*
G37*
G36*
X65607589Y-42997048D02*
G01*
X65986671Y-43154069D01*
X66327835Y-43382028D01*
X66617972Y-43672165D01*
X66845931Y-44013329D01*
X67002952Y-44392411D01*
X67083000Y-44794842D01*
X67083000Y-45205158D01*
X67002952Y-45607589D01*
X66845931Y-45986671D01*
X66617972Y-46327835D01*
X66327835Y-46617972D01*
X65986671Y-46845931D01*
X65607589Y-47002952D01*
X65205159Y-47083000D01*
X64794841Y-47083000D01*
X64392411Y-47002952D01*
X64013329Y-46845931D01*
X63672165Y-46617972D01*
X63382028Y-46327835D01*
X63154069Y-45986671D01*
X62997048Y-45607589D01*
X62917000Y-45205158D01*
X62917000Y-44794842D01*
X62997048Y-44392411D01*
X63154069Y-44013329D01*
X63382028Y-43672165D01*
X63672165Y-43382028D01*
X64013329Y-43154069D01*
X64392411Y-42997048D01*
X64794841Y-42917000D01*
X65205159Y-42917000D01*
X65607589Y-42997048D01*
X65607589Y-42997048D01*
G37*
M02*
