G04 #@! TF.GenerationSoftware,KiCad,Pcbnew,(5.1.0)-1*
G04 #@! TF.CreationDate,2019-05-13T14:42:25-04:00*
G04 #@! TF.ProjectId,EG,45472e6b-6963-4616-945f-706362585858,rev?*
G04 #@! TF.SameCoordinates,Original*
G04 #@! TF.FileFunction,Soldermask,Top*
G04 #@! TF.FilePolarity,Negative*
%FSLAX46Y46*%
G04 Gerber Fmt 4.6, Leading zero omitted, Abs format (unit mm)*
G04 Created by KiCad (PCBNEW (5.1.0)-1) date 2019-05-13 14:42:25*
%MOMM*%
%LPD*%
G04 APERTURE LIST*
%ADD10C,0.100000*%
G04 APERTURE END LIST*
D10*
G36*
X119301000Y-107326000D02*
G01*
X116499000Y-107326000D01*
X116499000Y-103474000D01*
X119301000Y-103474000D01*
X119301000Y-107326000D01*
X119301000Y-107326000D01*
G37*
G36*
X100330443Y-105432519D02*
G01*
X100396627Y-105439037D01*
X100566466Y-105490557D01*
X100722991Y-105574222D01*
X100758729Y-105603552D01*
X100860186Y-105686814D01*
X100943448Y-105788271D01*
X100972778Y-105824009D01*
X101056443Y-105980534D01*
X101107963Y-106150373D01*
X101125359Y-106327000D01*
X101107963Y-106503627D01*
X101056443Y-106673466D01*
X100972778Y-106829991D01*
X100959696Y-106845931D01*
X100860186Y-106967186D01*
X100758729Y-107050448D01*
X100722991Y-107079778D01*
X100566466Y-107163443D01*
X100396627Y-107214963D01*
X100330442Y-107221482D01*
X100264260Y-107228000D01*
X100175740Y-107228000D01*
X100109558Y-107221482D01*
X100043373Y-107214963D01*
X99873534Y-107163443D01*
X99717009Y-107079778D01*
X99681271Y-107050448D01*
X99579814Y-106967186D01*
X99480304Y-106845931D01*
X99467222Y-106829991D01*
X99383557Y-106673466D01*
X99332037Y-106503627D01*
X99314641Y-106327000D01*
X99332037Y-106150373D01*
X99383557Y-105980534D01*
X99467222Y-105824009D01*
X99496552Y-105788271D01*
X99579814Y-105686814D01*
X99681271Y-105603552D01*
X99717009Y-105574222D01*
X99873534Y-105490557D01*
X100043373Y-105439037D01*
X100109557Y-105432519D01*
X100175740Y-105426000D01*
X100264260Y-105426000D01*
X100330443Y-105432519D01*
X100330443Y-105432519D01*
G37*
G36*
X95250443Y-105432519D02*
G01*
X95316627Y-105439037D01*
X95486466Y-105490557D01*
X95642991Y-105574222D01*
X95678729Y-105603552D01*
X95780186Y-105686814D01*
X95863448Y-105788271D01*
X95892778Y-105824009D01*
X95976443Y-105980534D01*
X96027963Y-106150373D01*
X96045359Y-106327000D01*
X96027963Y-106503627D01*
X95976443Y-106673466D01*
X95892778Y-106829991D01*
X95879696Y-106845931D01*
X95780186Y-106967186D01*
X95678729Y-107050448D01*
X95642991Y-107079778D01*
X95486466Y-107163443D01*
X95316627Y-107214963D01*
X95250442Y-107221482D01*
X95184260Y-107228000D01*
X95095740Y-107228000D01*
X95029558Y-107221482D01*
X94963373Y-107214963D01*
X94793534Y-107163443D01*
X94637009Y-107079778D01*
X94601271Y-107050448D01*
X94499814Y-106967186D01*
X94400304Y-106845931D01*
X94387222Y-106829991D01*
X94303557Y-106673466D01*
X94252037Y-106503627D01*
X94234641Y-106327000D01*
X94252037Y-106150373D01*
X94303557Y-105980534D01*
X94387222Y-105824009D01*
X94416552Y-105788271D01*
X94499814Y-105686814D01*
X94601271Y-105603552D01*
X94637009Y-105574222D01*
X94793534Y-105490557D01*
X94963373Y-105439037D01*
X95029557Y-105432519D01*
X95095740Y-105426000D01*
X95184260Y-105426000D01*
X95250443Y-105432519D01*
X95250443Y-105432519D01*
G37*
G36*
X85373867Y-102950558D02*
G01*
X85607589Y-102997048D01*
X85875639Y-103108078D01*
X85969159Y-103146815D01*
X85986671Y-103154069D01*
X86327835Y-103382028D01*
X86617972Y-103672165D01*
X86845931Y-104013329D01*
X87002952Y-104392411D01*
X87032265Y-104539778D01*
X87083000Y-104794841D01*
X87083000Y-105205159D01*
X87002952Y-105607589D01*
X86845931Y-105986671D01*
X86617972Y-106327835D01*
X86327835Y-106617972D01*
X85986671Y-106845931D01*
X85607589Y-107002952D01*
X85205159Y-107083000D01*
X84794841Y-107083000D01*
X84392411Y-107002952D01*
X84013329Y-106845931D01*
X83672165Y-106617972D01*
X83382028Y-106327835D01*
X83154069Y-105986671D01*
X82997048Y-105607589D01*
X82957024Y-105406373D01*
X82917000Y-105205159D01*
X82917000Y-104794841D01*
X82967735Y-104539778D01*
X82997048Y-104392411D01*
X83154069Y-104013329D01*
X83382028Y-103672165D01*
X83672165Y-103382028D01*
X84013329Y-103154069D01*
X84030842Y-103146815D01*
X84124361Y-103108078D01*
X84392411Y-102997048D01*
X84626133Y-102950558D01*
X84794841Y-102917000D01*
X85205159Y-102917000D01*
X85373867Y-102950558D01*
X85373867Y-102950558D01*
G37*
G36*
X145373867Y-102950558D02*
G01*
X145607589Y-102997048D01*
X145875639Y-103108078D01*
X145969159Y-103146815D01*
X145986671Y-103154069D01*
X146327835Y-103382028D01*
X146617972Y-103672165D01*
X146845931Y-104013329D01*
X147002952Y-104392411D01*
X147032265Y-104539778D01*
X147083000Y-104794841D01*
X147083000Y-105205159D01*
X147002952Y-105607589D01*
X146845931Y-105986671D01*
X146617972Y-106327835D01*
X146327835Y-106617972D01*
X145986671Y-106845931D01*
X145607589Y-107002952D01*
X145205159Y-107083000D01*
X144794841Y-107083000D01*
X144392411Y-107002952D01*
X144013329Y-106845931D01*
X143672165Y-106617972D01*
X143382028Y-106327835D01*
X143154069Y-105986671D01*
X142997048Y-105607589D01*
X142917000Y-105205159D01*
X142917000Y-104794841D01*
X142967735Y-104539778D01*
X142997048Y-104392411D01*
X143154069Y-104013329D01*
X143382028Y-103672165D01*
X143672165Y-103382028D01*
X144013329Y-103154069D01*
X144030842Y-103146815D01*
X144124361Y-103108078D01*
X144392411Y-102997048D01*
X144626133Y-102950558D01*
X144794841Y-102917000D01*
X145205159Y-102917000D01*
X145373867Y-102950558D01*
X145373867Y-102950558D01*
G37*
G36*
X93501000Y-106974000D02*
G01*
X91699000Y-106974000D01*
X91699000Y-105172000D01*
X93501000Y-105172000D01*
X93501000Y-106974000D01*
X93501000Y-106974000D01*
G37*
G36*
X97790442Y-105178518D02*
G01*
X97856627Y-105185037D01*
X98026466Y-105236557D01*
X98182991Y-105320222D01*
X98218729Y-105349552D01*
X98320186Y-105432814D01*
X98403448Y-105534271D01*
X98432778Y-105570009D01*
X98516443Y-105726534D01*
X98567963Y-105896373D01*
X98585359Y-106073000D01*
X98567963Y-106249627D01*
X98516443Y-106419466D01*
X98432778Y-106575991D01*
X98403448Y-106611729D01*
X98320186Y-106713186D01*
X98218729Y-106796448D01*
X98182991Y-106825778D01*
X98026466Y-106909443D01*
X97856627Y-106960963D01*
X97793453Y-106967185D01*
X97724260Y-106974000D01*
X97635740Y-106974000D01*
X97566547Y-106967185D01*
X97503373Y-106960963D01*
X97333534Y-106909443D01*
X97177009Y-106825778D01*
X97141271Y-106796448D01*
X97039814Y-106713186D01*
X96956552Y-106611729D01*
X96927222Y-106575991D01*
X96843557Y-106419466D01*
X96792037Y-106249627D01*
X96774641Y-106073000D01*
X96792037Y-105896373D01*
X96843557Y-105726534D01*
X96927222Y-105570009D01*
X96956552Y-105534271D01*
X97039814Y-105432814D01*
X97141271Y-105349552D01*
X97177009Y-105320222D01*
X97333534Y-105236557D01*
X97503373Y-105185037D01*
X97569558Y-105178518D01*
X97635740Y-105172000D01*
X97724260Y-105172000D01*
X97790442Y-105178518D01*
X97790442Y-105178518D01*
G37*
G36*
X102870442Y-105178518D02*
G01*
X102936627Y-105185037D01*
X103106466Y-105236557D01*
X103262991Y-105320222D01*
X103298729Y-105349552D01*
X103400186Y-105432814D01*
X103483448Y-105534271D01*
X103512778Y-105570009D01*
X103596443Y-105726534D01*
X103647963Y-105896373D01*
X103665359Y-106073000D01*
X103647963Y-106249627D01*
X103596443Y-106419466D01*
X103512778Y-106575991D01*
X103483448Y-106611729D01*
X103400186Y-106713186D01*
X103298729Y-106796448D01*
X103262991Y-106825778D01*
X103106466Y-106909443D01*
X102936627Y-106960963D01*
X102873453Y-106967185D01*
X102804260Y-106974000D01*
X102715740Y-106974000D01*
X102646547Y-106967185D01*
X102583373Y-106960963D01*
X102413534Y-106909443D01*
X102257009Y-106825778D01*
X102221271Y-106796448D01*
X102119814Y-106713186D01*
X102036552Y-106611729D01*
X102007222Y-106575991D01*
X101923557Y-106419466D01*
X101872037Y-106249627D01*
X101854641Y-106073000D01*
X101872037Y-105896373D01*
X101923557Y-105726534D01*
X102007222Y-105570009D01*
X102036552Y-105534271D01*
X102119814Y-105432814D01*
X102221271Y-105349552D01*
X102257009Y-105320222D01*
X102413534Y-105236557D01*
X102583373Y-105185037D01*
X102649558Y-105178518D01*
X102715740Y-105172000D01*
X102804260Y-105172000D01*
X102870442Y-105178518D01*
X102870442Y-105178518D01*
G37*
G36*
X95250443Y-102892519D02*
G01*
X95316627Y-102899037D01*
X95486466Y-102950557D01*
X95642991Y-103034222D01*
X95678729Y-103063552D01*
X95780186Y-103146814D01*
X95863448Y-103248271D01*
X95892778Y-103284009D01*
X95976443Y-103440534D01*
X96027963Y-103610373D01*
X96045359Y-103787000D01*
X96027963Y-103963627D01*
X95976443Y-104133466D01*
X95892778Y-104289991D01*
X95863448Y-104325729D01*
X95780186Y-104427186D01*
X95678729Y-104510448D01*
X95642991Y-104539778D01*
X95486466Y-104623443D01*
X95316627Y-104674963D01*
X95250443Y-104681481D01*
X95184260Y-104688000D01*
X95095740Y-104688000D01*
X95029557Y-104681481D01*
X94963373Y-104674963D01*
X94793534Y-104623443D01*
X94637009Y-104539778D01*
X94601271Y-104510448D01*
X94499814Y-104427186D01*
X94416552Y-104325729D01*
X94387222Y-104289991D01*
X94303557Y-104133466D01*
X94252037Y-103963627D01*
X94234641Y-103787000D01*
X94252037Y-103610373D01*
X94303557Y-103440534D01*
X94387222Y-103284009D01*
X94416552Y-103248271D01*
X94499814Y-103146814D01*
X94601271Y-103063552D01*
X94637009Y-103034222D01*
X94793534Y-102950557D01*
X94963373Y-102899037D01*
X95029557Y-102892519D01*
X95095740Y-102886000D01*
X95184260Y-102886000D01*
X95250443Y-102892519D01*
X95250443Y-102892519D01*
G37*
G36*
X100330443Y-102892519D02*
G01*
X100396627Y-102899037D01*
X100566466Y-102950557D01*
X100722991Y-103034222D01*
X100758729Y-103063552D01*
X100860186Y-103146814D01*
X100943448Y-103248271D01*
X100972778Y-103284009D01*
X101056443Y-103440534D01*
X101107963Y-103610373D01*
X101125359Y-103787000D01*
X101107963Y-103963627D01*
X101056443Y-104133466D01*
X100972778Y-104289991D01*
X100943448Y-104325729D01*
X100860186Y-104427186D01*
X100758729Y-104510448D01*
X100722991Y-104539778D01*
X100566466Y-104623443D01*
X100396627Y-104674963D01*
X100330443Y-104681481D01*
X100264260Y-104688000D01*
X100175740Y-104688000D01*
X100109557Y-104681481D01*
X100043373Y-104674963D01*
X99873534Y-104623443D01*
X99717009Y-104539778D01*
X99681271Y-104510448D01*
X99579814Y-104427186D01*
X99496552Y-104325729D01*
X99467222Y-104289991D01*
X99383557Y-104133466D01*
X99332037Y-103963627D01*
X99314641Y-103787000D01*
X99332037Y-103610373D01*
X99383557Y-103440534D01*
X99467222Y-103284009D01*
X99496552Y-103248271D01*
X99579814Y-103146814D01*
X99681271Y-103063552D01*
X99717009Y-103034222D01*
X99873534Y-102950557D01*
X100043373Y-102899037D01*
X100109557Y-102892519D01*
X100175740Y-102886000D01*
X100264260Y-102886000D01*
X100330443Y-102892519D01*
X100330443Y-102892519D01*
G37*
G36*
X102870442Y-102638518D02*
G01*
X102936627Y-102645037D01*
X103106466Y-102696557D01*
X103262991Y-102780222D01*
X103298729Y-102809552D01*
X103400186Y-102892814D01*
X103483448Y-102994271D01*
X103512778Y-103030009D01*
X103596443Y-103186534D01*
X103647963Y-103356373D01*
X103665359Y-103533000D01*
X103647963Y-103709627D01*
X103596443Y-103879466D01*
X103512778Y-104035991D01*
X103483448Y-104071729D01*
X103400186Y-104173186D01*
X103298729Y-104256448D01*
X103262991Y-104285778D01*
X103106466Y-104369443D01*
X102936627Y-104420963D01*
X102873453Y-104427185D01*
X102804260Y-104434000D01*
X102715740Y-104434000D01*
X102646547Y-104427185D01*
X102583373Y-104420963D01*
X102413534Y-104369443D01*
X102257009Y-104285778D01*
X102221271Y-104256448D01*
X102119814Y-104173186D01*
X102036552Y-104071729D01*
X102007222Y-104035991D01*
X101923557Y-103879466D01*
X101872037Y-103709627D01*
X101854641Y-103533000D01*
X101872037Y-103356373D01*
X101923557Y-103186534D01*
X102007222Y-103030009D01*
X102036552Y-102994271D01*
X102119814Y-102892814D01*
X102221271Y-102809552D01*
X102257009Y-102780222D01*
X102413534Y-102696557D01*
X102583373Y-102645037D01*
X102649558Y-102638518D01*
X102715740Y-102632000D01*
X102804260Y-102632000D01*
X102870442Y-102638518D01*
X102870442Y-102638518D01*
G37*
G36*
X92710442Y-102638518D02*
G01*
X92776627Y-102645037D01*
X92946466Y-102696557D01*
X93102991Y-102780222D01*
X93138729Y-102809552D01*
X93240186Y-102892814D01*
X93323448Y-102994271D01*
X93352778Y-103030009D01*
X93436443Y-103186534D01*
X93487963Y-103356373D01*
X93505359Y-103533000D01*
X93487963Y-103709627D01*
X93436443Y-103879466D01*
X93352778Y-104035991D01*
X93323448Y-104071729D01*
X93240186Y-104173186D01*
X93138729Y-104256448D01*
X93102991Y-104285778D01*
X92946466Y-104369443D01*
X92776627Y-104420963D01*
X92713453Y-104427185D01*
X92644260Y-104434000D01*
X92555740Y-104434000D01*
X92486547Y-104427185D01*
X92423373Y-104420963D01*
X92253534Y-104369443D01*
X92097009Y-104285778D01*
X92061271Y-104256448D01*
X91959814Y-104173186D01*
X91876552Y-104071729D01*
X91847222Y-104035991D01*
X91763557Y-103879466D01*
X91712037Y-103709627D01*
X91694641Y-103533000D01*
X91712037Y-103356373D01*
X91763557Y-103186534D01*
X91847222Y-103030009D01*
X91876552Y-102994271D01*
X91959814Y-102892814D01*
X92061271Y-102809552D01*
X92097009Y-102780222D01*
X92253534Y-102696557D01*
X92423373Y-102645037D01*
X92489558Y-102638518D01*
X92555740Y-102632000D01*
X92644260Y-102632000D01*
X92710442Y-102638518D01*
X92710442Y-102638518D01*
G37*
G36*
X97790442Y-102638518D02*
G01*
X97856627Y-102645037D01*
X98026466Y-102696557D01*
X98182991Y-102780222D01*
X98218729Y-102809552D01*
X98320186Y-102892814D01*
X98403448Y-102994271D01*
X98432778Y-103030009D01*
X98516443Y-103186534D01*
X98567963Y-103356373D01*
X98585359Y-103533000D01*
X98567963Y-103709627D01*
X98516443Y-103879466D01*
X98432778Y-104035991D01*
X98403448Y-104071729D01*
X98320186Y-104173186D01*
X98218729Y-104256448D01*
X98182991Y-104285778D01*
X98026466Y-104369443D01*
X97856627Y-104420963D01*
X97793453Y-104427185D01*
X97724260Y-104434000D01*
X97635740Y-104434000D01*
X97566547Y-104427185D01*
X97503373Y-104420963D01*
X97333534Y-104369443D01*
X97177009Y-104285778D01*
X97141271Y-104256448D01*
X97039814Y-104173186D01*
X96956552Y-104071729D01*
X96927222Y-104035991D01*
X96843557Y-103879466D01*
X96792037Y-103709627D01*
X96774641Y-103533000D01*
X96792037Y-103356373D01*
X96843557Y-103186534D01*
X96927222Y-103030009D01*
X96956552Y-102994271D01*
X97039814Y-102892814D01*
X97141271Y-102809552D01*
X97177009Y-102780222D01*
X97333534Y-102696557D01*
X97503373Y-102645037D01*
X97569558Y-102638518D01*
X97635740Y-102632000D01*
X97724260Y-102632000D01*
X97790442Y-102638518D01*
X97790442Y-102638518D01*
G37*
G36*
X119301000Y-99776000D02*
G01*
X116499000Y-99776000D01*
X116499000Y-95924000D01*
X119301000Y-95924000D01*
X119301000Y-99776000D01*
X119301000Y-99776000D01*
G37*
G36*
X127301000Y-99401000D02*
G01*
X125499000Y-99401000D01*
X125499000Y-97599000D01*
X127301000Y-97599000D01*
X127301000Y-99401000D01*
X127301000Y-99401000D01*
G37*
G36*
X123970443Y-97605519D02*
G01*
X124036627Y-97612037D01*
X124206466Y-97663557D01*
X124362991Y-97747222D01*
X124398729Y-97776552D01*
X124500186Y-97859814D01*
X124583448Y-97961271D01*
X124612778Y-97997009D01*
X124696443Y-98153534D01*
X124747963Y-98323373D01*
X124765359Y-98500000D01*
X124747963Y-98676627D01*
X124696443Y-98846466D01*
X124612778Y-99002991D01*
X124583448Y-99038729D01*
X124500186Y-99140186D01*
X124398729Y-99223448D01*
X124362991Y-99252778D01*
X124206466Y-99336443D01*
X124036627Y-99387963D01*
X123970442Y-99394482D01*
X123904260Y-99401000D01*
X123815740Y-99401000D01*
X123749558Y-99394482D01*
X123683373Y-99387963D01*
X123513534Y-99336443D01*
X123357009Y-99252778D01*
X123321271Y-99223448D01*
X123219814Y-99140186D01*
X123136552Y-99038729D01*
X123107222Y-99002991D01*
X123023557Y-98846466D01*
X122972037Y-98676627D01*
X122954641Y-98500000D01*
X122972037Y-98323373D01*
X123023557Y-98153534D01*
X123107222Y-97997009D01*
X123136552Y-97961271D01*
X123219814Y-97859814D01*
X123321271Y-97776552D01*
X123357009Y-97747222D01*
X123513534Y-97663557D01*
X123683373Y-97612037D01*
X123749557Y-97605519D01*
X123815740Y-97599000D01*
X123904260Y-97599000D01*
X123970443Y-97605519D01*
X123970443Y-97605519D01*
G37*
G36*
X137051000Y-99151000D02*
G01*
X134949000Y-99151000D01*
X134949000Y-97449000D01*
X137051000Y-97449000D01*
X137051000Y-99151000D01*
X137051000Y-99151000D01*
G37*
G36*
X133051000Y-99151000D02*
G01*
X130949000Y-99151000D01*
X130949000Y-97449000D01*
X133051000Y-97449000D01*
X133051000Y-99151000D01*
X133051000Y-99151000D01*
G37*
G36*
X113901000Y-98951000D02*
G01*
X112099000Y-98951000D01*
X112099000Y-96849000D01*
X113901000Y-96849000D01*
X113901000Y-98951000D01*
X113901000Y-98951000D01*
G37*
G36*
X107410443Y-96005519D02*
G01*
X107476627Y-96012037D01*
X107646466Y-96063557D01*
X107802991Y-96147222D01*
X107838729Y-96176552D01*
X107940186Y-96259814D01*
X108023448Y-96361271D01*
X108052778Y-96397009D01*
X108136443Y-96553534D01*
X108187963Y-96723373D01*
X108205359Y-96900000D01*
X108187963Y-97076627D01*
X108136443Y-97246466D01*
X108052778Y-97402991D01*
X108023448Y-97438729D01*
X107940186Y-97540186D01*
X107852634Y-97612037D01*
X107802991Y-97652778D01*
X107646466Y-97736443D01*
X107476627Y-97787963D01*
X107410443Y-97794481D01*
X107344260Y-97801000D01*
X107255740Y-97801000D01*
X107189557Y-97794481D01*
X107123373Y-97787963D01*
X106953534Y-97736443D01*
X106797009Y-97652778D01*
X106747366Y-97612037D01*
X106659814Y-97540186D01*
X106576552Y-97438729D01*
X106547222Y-97402991D01*
X106463557Y-97246466D01*
X106412037Y-97076627D01*
X106394641Y-96900000D01*
X106412037Y-96723373D01*
X106463557Y-96553534D01*
X106547222Y-96397009D01*
X106576552Y-96361271D01*
X106659814Y-96259814D01*
X106761271Y-96176552D01*
X106797009Y-96147222D01*
X106953534Y-96063557D01*
X107123373Y-96012037D01*
X107189557Y-96005519D01*
X107255740Y-95999000D01*
X107344260Y-95999000D01*
X107410443Y-96005519D01*
X107410443Y-96005519D01*
G37*
G36*
X104870443Y-96005519D02*
G01*
X104936627Y-96012037D01*
X105106466Y-96063557D01*
X105262991Y-96147222D01*
X105298729Y-96176552D01*
X105400186Y-96259814D01*
X105483448Y-96361271D01*
X105512778Y-96397009D01*
X105596443Y-96553534D01*
X105647963Y-96723373D01*
X105665359Y-96900000D01*
X105647963Y-97076627D01*
X105596443Y-97246466D01*
X105512778Y-97402991D01*
X105483448Y-97438729D01*
X105400186Y-97540186D01*
X105312634Y-97612037D01*
X105262991Y-97652778D01*
X105106466Y-97736443D01*
X104936627Y-97787963D01*
X104870443Y-97794481D01*
X104804260Y-97801000D01*
X104715740Y-97801000D01*
X104649557Y-97794481D01*
X104583373Y-97787963D01*
X104413534Y-97736443D01*
X104257009Y-97652778D01*
X104207366Y-97612037D01*
X104119814Y-97540186D01*
X104036552Y-97438729D01*
X104007222Y-97402991D01*
X103923557Y-97246466D01*
X103872037Y-97076627D01*
X103854641Y-96900000D01*
X103872037Y-96723373D01*
X103923557Y-96553534D01*
X104007222Y-96397009D01*
X104036552Y-96361271D01*
X104119814Y-96259814D01*
X104221271Y-96176552D01*
X104257009Y-96147222D01*
X104413534Y-96063557D01*
X104583373Y-96012037D01*
X104649557Y-96005519D01*
X104715740Y-95999000D01*
X104804260Y-95999000D01*
X104870443Y-96005519D01*
X104870443Y-96005519D01*
G37*
G36*
X103121000Y-97801000D02*
G01*
X101319000Y-97801000D01*
X101319000Y-95999000D01*
X103121000Y-95999000D01*
X103121000Y-97801000D01*
X103121000Y-97801000D01*
G37*
G36*
X129151000Y-95801000D02*
G01*
X127049000Y-95801000D01*
X127049000Y-93999000D01*
X129151000Y-93999000D01*
X129151000Y-95801000D01*
X129151000Y-95801000D01*
G37*
G36*
X137151000Y-95801000D02*
G01*
X135049000Y-95801000D01*
X135049000Y-93999000D01*
X137151000Y-93999000D01*
X137151000Y-95801000D01*
X137151000Y-95801000D01*
G37*
G36*
X133151000Y-95801000D02*
G01*
X131049000Y-95801000D01*
X131049000Y-93999000D01*
X133151000Y-93999000D01*
X133151000Y-95801000D01*
X133151000Y-95801000D01*
G37*
G36*
X125151000Y-95801000D02*
G01*
X123049000Y-95801000D01*
X123049000Y-93999000D01*
X125151000Y-93999000D01*
X125151000Y-95801000D01*
X125151000Y-95801000D01*
G37*
G36*
X113901000Y-94951000D02*
G01*
X112099000Y-94951000D01*
X112099000Y-92849000D01*
X113901000Y-92849000D01*
X113901000Y-94951000D01*
X113901000Y-94951000D01*
G37*
G36*
X106351000Y-93301000D02*
G01*
X105049000Y-93301000D01*
X105049000Y-92299000D01*
X106351000Y-92299000D01*
X106351000Y-93301000D01*
X106351000Y-93301000D01*
G37*
G36*
X117501000Y-92951000D02*
G01*
X115699000Y-92951000D01*
X115699000Y-90849000D01*
X117501000Y-90849000D01*
X117501000Y-92951000D01*
X117501000Y-92951000D01*
G37*
G36*
X129001000Y-92451000D02*
G01*
X127199000Y-92451000D01*
X127199000Y-90349000D01*
X129001000Y-90349000D01*
X129001000Y-92451000D01*
X129001000Y-92451000D01*
G37*
G36*
X146051000Y-92451000D02*
G01*
X144149000Y-92451000D01*
X144149000Y-90549000D01*
X146051000Y-90549000D01*
X146051000Y-92451000D01*
X146051000Y-92451000D01*
G37*
G36*
X140951000Y-92401000D02*
G01*
X139649000Y-92401000D01*
X139649000Y-91399000D01*
X140951000Y-91399000D01*
X140951000Y-92401000D01*
X140951000Y-92401000D01*
G37*
G36*
X121051000Y-92401000D02*
G01*
X119749000Y-92401000D01*
X119749000Y-91399000D01*
X121051000Y-91399000D01*
X121051000Y-92401000D01*
X121051000Y-92401000D01*
G37*
G36*
X132001000Y-92171000D02*
G01*
X130399000Y-92171000D01*
X130399000Y-91469000D01*
X132001000Y-91469000D01*
X132001000Y-92171000D01*
X132001000Y-92171000D01*
G37*
G36*
X137401000Y-92171000D02*
G01*
X135799000Y-92171000D01*
X135799000Y-91469000D01*
X137401000Y-91469000D01*
X137401000Y-92171000D01*
X137401000Y-92171000D01*
G37*
G36*
X98651000Y-91201000D02*
G01*
X96549000Y-91201000D01*
X96549000Y-89399000D01*
X98651000Y-89399000D01*
X98651000Y-91201000D01*
X98651000Y-91201000D01*
G37*
G36*
X94651000Y-91201000D02*
G01*
X92549000Y-91201000D01*
X92549000Y-89399000D01*
X94651000Y-89399000D01*
X94651000Y-91201000D01*
X94651000Y-91201000D01*
G37*
G36*
X132001000Y-90901000D02*
G01*
X130399000Y-90901000D01*
X130399000Y-90199000D01*
X132001000Y-90199000D01*
X132001000Y-90901000D01*
X132001000Y-90901000D01*
G37*
G36*
X137401000Y-90901000D02*
G01*
X135799000Y-90901000D01*
X135799000Y-90199000D01*
X137401000Y-90199000D01*
X137401000Y-90901000D01*
X137401000Y-90901000D01*
G37*
G36*
X102001000Y-90651000D02*
G01*
X100199000Y-90651000D01*
X100199000Y-88549000D01*
X102001000Y-88549000D01*
X102001000Y-90651000D01*
X102001000Y-90651000D01*
G37*
G36*
X106351000Y-90001000D02*
G01*
X105049000Y-90001000D01*
X105049000Y-88999000D01*
X106351000Y-88999000D01*
X106351000Y-90001000D01*
X106351000Y-90001000D01*
G37*
G36*
X145377395Y-88045546D02*
G01*
X145550466Y-88117234D01*
X145550467Y-88117235D01*
X145706227Y-88221310D01*
X145838690Y-88353773D01*
X145891081Y-88432182D01*
X145942766Y-88509534D01*
X146014454Y-88682605D01*
X146051000Y-88866333D01*
X146051000Y-89053667D01*
X146014454Y-89237395D01*
X145942766Y-89410466D01*
X145942765Y-89410467D01*
X145838690Y-89566227D01*
X145706227Y-89698690D01*
X145627818Y-89751081D01*
X145550466Y-89802766D01*
X145377395Y-89874454D01*
X145193667Y-89911000D01*
X145006333Y-89911000D01*
X144822605Y-89874454D01*
X144649534Y-89802766D01*
X144572182Y-89751081D01*
X144493773Y-89698690D01*
X144361310Y-89566227D01*
X144257235Y-89410467D01*
X144257234Y-89410466D01*
X144185546Y-89237395D01*
X144149000Y-89053667D01*
X144149000Y-88866333D01*
X144185546Y-88682605D01*
X144257234Y-88509534D01*
X144308919Y-88432182D01*
X144361310Y-88353773D01*
X144493773Y-88221310D01*
X144649533Y-88117235D01*
X144649534Y-88117234D01*
X144822605Y-88045546D01*
X145006333Y-88009000D01*
X145193667Y-88009000D01*
X145377395Y-88045546D01*
X145377395Y-88045546D01*
G37*
G36*
X132001000Y-89631000D02*
G01*
X130399000Y-89631000D01*
X130399000Y-88929000D01*
X132001000Y-88929000D01*
X132001000Y-89631000D01*
X132001000Y-89631000D01*
G37*
G36*
X137401000Y-89631000D02*
G01*
X135799000Y-89631000D01*
X135799000Y-88929000D01*
X137401000Y-88929000D01*
X137401000Y-89631000D01*
X137401000Y-89631000D01*
G37*
G36*
X109301000Y-89251000D02*
G01*
X107499000Y-89251000D01*
X107499000Y-87149000D01*
X109301000Y-87149000D01*
X109301000Y-89251000D01*
X109301000Y-89251000D01*
G37*
G36*
X140951000Y-89101000D02*
G01*
X139649000Y-89101000D01*
X139649000Y-88099000D01*
X140951000Y-88099000D01*
X140951000Y-89101000D01*
X140951000Y-89101000D01*
G37*
G36*
X121051000Y-89101000D02*
G01*
X119749000Y-89101000D01*
X119749000Y-88099000D01*
X121051000Y-88099000D01*
X121051000Y-89101000D01*
X121051000Y-89101000D01*
G37*
G36*
X117501000Y-88951000D02*
G01*
X115699000Y-88951000D01*
X115699000Y-86849000D01*
X117501000Y-86849000D01*
X117501000Y-88951000D01*
X117501000Y-88951000D01*
G37*
G36*
X125601000Y-88701000D02*
G01*
X123799000Y-88701000D01*
X123799000Y-86899000D01*
X125601000Y-86899000D01*
X125601000Y-88701000D01*
X125601000Y-88701000D01*
G37*
G36*
X112110442Y-86685518D02*
G01*
X112176627Y-86692037D01*
X112346466Y-86743557D01*
X112502991Y-86827222D01*
X112529527Y-86849000D01*
X112640186Y-86939814D01*
X112690399Y-87001000D01*
X112752778Y-87077009D01*
X112836443Y-87233534D01*
X112887963Y-87403373D01*
X112905359Y-87580000D01*
X112887963Y-87756627D01*
X112836443Y-87926466D01*
X112752778Y-88082991D01*
X112724675Y-88117234D01*
X112640186Y-88220186D01*
X112538729Y-88303448D01*
X112502991Y-88332778D01*
X112346466Y-88416443D01*
X112176627Y-88467963D01*
X112110442Y-88474482D01*
X112044260Y-88481000D01*
X111955740Y-88481000D01*
X111889558Y-88474482D01*
X111823373Y-88467963D01*
X111653534Y-88416443D01*
X111497009Y-88332778D01*
X111461271Y-88303448D01*
X111359814Y-88220186D01*
X111275325Y-88117234D01*
X111247222Y-88082991D01*
X111163557Y-87926466D01*
X111112037Y-87756627D01*
X111094641Y-87580000D01*
X111112037Y-87403373D01*
X111163557Y-87233534D01*
X111247222Y-87077009D01*
X111309601Y-87001000D01*
X111359814Y-86939814D01*
X111470473Y-86849000D01*
X111497009Y-86827222D01*
X111653534Y-86743557D01*
X111823373Y-86692037D01*
X111889558Y-86685518D01*
X111955740Y-86679000D01*
X112044260Y-86679000D01*
X112110442Y-86685518D01*
X112110442Y-86685518D01*
G37*
G36*
X129001000Y-88451000D02*
G01*
X127199000Y-88451000D01*
X127199000Y-86349000D01*
X129001000Y-86349000D01*
X129001000Y-88451000D01*
X129001000Y-88451000D01*
G37*
G36*
X137401000Y-88361000D02*
G01*
X135799000Y-88361000D01*
X135799000Y-87659000D01*
X137401000Y-87659000D01*
X137401000Y-88361000D01*
X137401000Y-88361000D01*
G37*
G36*
X132001000Y-88361000D02*
G01*
X130399000Y-88361000D01*
X130399000Y-87659000D01*
X132001000Y-87659000D01*
X132001000Y-88361000D01*
X132001000Y-88361000D01*
G37*
G36*
X104201000Y-88001000D02*
G01*
X103199000Y-88001000D01*
X103199000Y-87099000D01*
X104201000Y-87099000D01*
X104201000Y-88001000D01*
X104201000Y-88001000D01*
G37*
G36*
X94151000Y-87601000D02*
G01*
X92049000Y-87601000D01*
X92049000Y-85799000D01*
X94151000Y-85799000D01*
X94151000Y-87601000D01*
X94151000Y-87601000D01*
G37*
G36*
X90151000Y-87601000D02*
G01*
X88049000Y-87601000D01*
X88049000Y-85799000D01*
X90151000Y-85799000D01*
X90151000Y-87601000D01*
X90151000Y-87601000D01*
G37*
G36*
X132001000Y-87091000D02*
G01*
X130399000Y-87091000D01*
X130399000Y-86389000D01*
X132001000Y-86389000D01*
X132001000Y-87091000D01*
X132001000Y-87091000D01*
G37*
G36*
X137401000Y-87091000D02*
G01*
X135799000Y-87091000D01*
X135799000Y-86389000D01*
X137401000Y-86389000D01*
X137401000Y-87091000D01*
X137401000Y-87091000D01*
G37*
G36*
X106201000Y-87051000D02*
G01*
X105199000Y-87051000D01*
X105199000Y-86149000D01*
X106201000Y-86149000D01*
X106201000Y-87051000D01*
X106201000Y-87051000D01*
G37*
G36*
X96901000Y-87001000D02*
G01*
X95899000Y-87001000D01*
X95899000Y-86099000D01*
X96901000Y-86099000D01*
X96901000Y-87001000D01*
X96901000Y-87001000D01*
G37*
G36*
X102001000Y-86651000D02*
G01*
X100199000Y-86651000D01*
X100199000Y-84549000D01*
X102001000Y-84549000D01*
X102001000Y-86651000D01*
X102001000Y-86651000D01*
G37*
G36*
X85801000Y-86301000D02*
G01*
X83999000Y-86301000D01*
X83999000Y-84499000D01*
X85801000Y-84499000D01*
X85801000Y-86301000D01*
X85801000Y-86301000D01*
G37*
G36*
X124810442Y-84365518D02*
G01*
X124876627Y-84372037D01*
X125046466Y-84423557D01*
X125202991Y-84507222D01*
X125238729Y-84536552D01*
X125340186Y-84619814D01*
X125423448Y-84721271D01*
X125452778Y-84757009D01*
X125536443Y-84913534D01*
X125587963Y-85083373D01*
X125605359Y-85260000D01*
X125587963Y-85436627D01*
X125536443Y-85606466D01*
X125452778Y-85762991D01*
X125428332Y-85792778D01*
X125340186Y-85900186D01*
X125238729Y-85983448D01*
X125202991Y-86012778D01*
X125046466Y-86096443D01*
X124876627Y-86147963D01*
X124810442Y-86154482D01*
X124744260Y-86161000D01*
X124655740Y-86161000D01*
X124589558Y-86154482D01*
X124523373Y-86147963D01*
X124353534Y-86096443D01*
X124197009Y-86012778D01*
X124161271Y-85983448D01*
X124059814Y-85900186D01*
X123971668Y-85792778D01*
X123947222Y-85762991D01*
X123863557Y-85606466D01*
X123812037Y-85436627D01*
X123794641Y-85260000D01*
X123812037Y-85083373D01*
X123863557Y-84913534D01*
X123947222Y-84757009D01*
X123976552Y-84721271D01*
X124059814Y-84619814D01*
X124161271Y-84536552D01*
X124197009Y-84507222D01*
X124353534Y-84423557D01*
X124523373Y-84372037D01*
X124589558Y-84365518D01*
X124655740Y-84359000D01*
X124744260Y-84359000D01*
X124810442Y-84365518D01*
X124810442Y-84365518D01*
G37*
G36*
X104201000Y-86101000D02*
G01*
X103199000Y-86101000D01*
X103199000Y-85199000D01*
X104201000Y-85199000D01*
X104201000Y-86101000D01*
X104201000Y-86101000D01*
G37*
G36*
X98901000Y-86051000D02*
G01*
X97899000Y-86051000D01*
X97899000Y-85149000D01*
X98901000Y-85149000D01*
X98901000Y-86051000D01*
X98901000Y-86051000D01*
G37*
G36*
X112110443Y-84145519D02*
G01*
X112176627Y-84152037D01*
X112346466Y-84203557D01*
X112502991Y-84287222D01*
X112538729Y-84316552D01*
X112640186Y-84399814D01*
X112721585Y-84499000D01*
X112752778Y-84537009D01*
X112836443Y-84693534D01*
X112887963Y-84863373D01*
X112905359Y-85040000D01*
X112887963Y-85216627D01*
X112836443Y-85386466D01*
X112752778Y-85542991D01*
X112723448Y-85578729D01*
X112640186Y-85680186D01*
X112539289Y-85762989D01*
X112502991Y-85792778D01*
X112346466Y-85876443D01*
X112176627Y-85927963D01*
X112110442Y-85934482D01*
X112044260Y-85941000D01*
X111955740Y-85941000D01*
X111889558Y-85934482D01*
X111823373Y-85927963D01*
X111653534Y-85876443D01*
X111497009Y-85792778D01*
X111460711Y-85762989D01*
X111359814Y-85680186D01*
X111276552Y-85578729D01*
X111247222Y-85542991D01*
X111163557Y-85386466D01*
X111112037Y-85216627D01*
X111094641Y-85040000D01*
X111112037Y-84863373D01*
X111163557Y-84693534D01*
X111247222Y-84537009D01*
X111278415Y-84499000D01*
X111359814Y-84399814D01*
X111461271Y-84316552D01*
X111497009Y-84287222D01*
X111653534Y-84203557D01*
X111823373Y-84152037D01*
X111889557Y-84145519D01*
X111955740Y-84139000D01*
X112044260Y-84139000D01*
X112110443Y-84145519D01*
X112110443Y-84145519D01*
G37*
G36*
X132001000Y-85821000D02*
G01*
X130399000Y-85821000D01*
X130399000Y-85119000D01*
X132001000Y-85119000D01*
X132001000Y-85821000D01*
X132001000Y-85821000D01*
G37*
G36*
X137401000Y-85821000D02*
G01*
X135799000Y-85821000D01*
X135799000Y-85119000D01*
X137401000Y-85119000D01*
X137401000Y-85821000D01*
X137401000Y-85821000D01*
G37*
G36*
X117251000Y-85751000D02*
G01*
X115149000Y-85751000D01*
X115149000Y-84049000D01*
X117251000Y-84049000D01*
X117251000Y-85751000D01*
X117251000Y-85751000D01*
G37*
G36*
X121251000Y-85751000D02*
G01*
X119149000Y-85751000D01*
X119149000Y-84049000D01*
X121251000Y-84049000D01*
X121251000Y-85751000D01*
X121251000Y-85751000D01*
G37*
G36*
X128751000Y-85401000D02*
G01*
X127449000Y-85401000D01*
X127449000Y-84399000D01*
X128751000Y-84399000D01*
X128751000Y-85401000D01*
X128751000Y-85401000D01*
G37*
G36*
X109301000Y-85251000D02*
G01*
X107499000Y-85251000D01*
X107499000Y-83149000D01*
X109301000Y-83149000D01*
X109301000Y-85251000D01*
X109301000Y-85251000D01*
G37*
G36*
X96901000Y-85101000D02*
G01*
X95899000Y-85101000D01*
X95899000Y-84199000D01*
X96901000Y-84199000D01*
X96901000Y-85101000D01*
X96901000Y-85101000D01*
G37*
G36*
X132001000Y-84551000D02*
G01*
X130399000Y-84551000D01*
X130399000Y-83849000D01*
X132001000Y-83849000D01*
X132001000Y-84551000D01*
X132001000Y-84551000D01*
G37*
G36*
X137401000Y-84551000D02*
G01*
X135799000Y-84551000D01*
X135799000Y-83849000D01*
X137401000Y-83849000D01*
X137401000Y-84551000D01*
X137401000Y-84551000D01*
G37*
G36*
X89601000Y-83951000D02*
G01*
X88599000Y-83951000D01*
X88599000Y-82649000D01*
X89601000Y-82649000D01*
X89601000Y-83951000D01*
X89601000Y-83951000D01*
G37*
G36*
X92901000Y-83951000D02*
G01*
X91899000Y-83951000D01*
X91899000Y-82649000D01*
X92901000Y-82649000D01*
X92901000Y-83951000D01*
X92901000Y-83951000D01*
G37*
G36*
X85010442Y-81965518D02*
G01*
X85076627Y-81972037D01*
X85246466Y-82023557D01*
X85402991Y-82107222D01*
X85417342Y-82119000D01*
X85540186Y-82219814D01*
X85623448Y-82321271D01*
X85652778Y-82357009D01*
X85736443Y-82513534D01*
X85787963Y-82683373D01*
X85805359Y-82860000D01*
X85787963Y-83036627D01*
X85736443Y-83206466D01*
X85652778Y-83362991D01*
X85623448Y-83398729D01*
X85540186Y-83500186D01*
X85438729Y-83583448D01*
X85402991Y-83612778D01*
X85246466Y-83696443D01*
X85076627Y-83747963D01*
X85010443Y-83754481D01*
X84944260Y-83761000D01*
X84855740Y-83761000D01*
X84789557Y-83754481D01*
X84723373Y-83747963D01*
X84553534Y-83696443D01*
X84397009Y-83612778D01*
X84361271Y-83583448D01*
X84259814Y-83500186D01*
X84176552Y-83398729D01*
X84147222Y-83362991D01*
X84063557Y-83206466D01*
X84012037Y-83036627D01*
X83994641Y-82860000D01*
X84012037Y-82683373D01*
X84063557Y-82513534D01*
X84147222Y-82357009D01*
X84176552Y-82321271D01*
X84259814Y-82219814D01*
X84382658Y-82119000D01*
X84397009Y-82107222D01*
X84553534Y-82023557D01*
X84723373Y-81972037D01*
X84789558Y-81965518D01*
X84855740Y-81959000D01*
X84944260Y-81959000D01*
X85010442Y-81965518D01*
X85010442Y-81965518D01*
G37*
G36*
X124810443Y-81825519D02*
G01*
X124876627Y-81832037D01*
X125046466Y-81883557D01*
X125202991Y-81967222D01*
X125238729Y-81996552D01*
X125340186Y-82079814D01*
X125423448Y-82181271D01*
X125452778Y-82217009D01*
X125536443Y-82373534D01*
X125587963Y-82543373D01*
X125605359Y-82720000D01*
X125587963Y-82896627D01*
X125536443Y-83066466D01*
X125452778Y-83222991D01*
X125423448Y-83258729D01*
X125340186Y-83360186D01*
X125238729Y-83443448D01*
X125202991Y-83472778D01*
X125046466Y-83556443D01*
X124876627Y-83607963D01*
X124810442Y-83614482D01*
X124744260Y-83621000D01*
X124655740Y-83621000D01*
X124589558Y-83614482D01*
X124523373Y-83607963D01*
X124353534Y-83556443D01*
X124197009Y-83472778D01*
X124161271Y-83443448D01*
X124059814Y-83360186D01*
X123976552Y-83258729D01*
X123947222Y-83222991D01*
X123863557Y-83066466D01*
X123812037Y-82896627D01*
X123794641Y-82720000D01*
X123812037Y-82543373D01*
X123863557Y-82373534D01*
X123947222Y-82217009D01*
X123976552Y-82181271D01*
X124059814Y-82079814D01*
X124161271Y-81996552D01*
X124197009Y-81967222D01*
X124353534Y-81883557D01*
X124523373Y-81832037D01*
X124589557Y-81825519D01*
X124655740Y-81819000D01*
X124744260Y-81819000D01*
X124810443Y-81825519D01*
X124810443Y-81825519D01*
G37*
G36*
X112901000Y-83401000D02*
G01*
X111099000Y-83401000D01*
X111099000Y-81599000D01*
X112901000Y-81599000D01*
X112901000Y-83401000D01*
X112901000Y-83401000D01*
G37*
G36*
X121726000Y-82821000D02*
G01*
X120074000Y-82821000D01*
X120074000Y-82119000D01*
X121726000Y-82119000D01*
X121726000Y-82821000D01*
X121726000Y-82821000D01*
G37*
G36*
X116326000Y-82821000D02*
G01*
X114674000Y-82821000D01*
X114674000Y-82119000D01*
X116326000Y-82119000D01*
X116326000Y-82821000D01*
X116326000Y-82821000D01*
G37*
G36*
X105551000Y-82751000D02*
G01*
X103849000Y-82751000D01*
X103849000Y-80649000D01*
X105551000Y-80649000D01*
X105551000Y-82751000D01*
X105551000Y-82751000D01*
G37*
G36*
X101801000Y-82751000D02*
G01*
X99999000Y-82751000D01*
X99999000Y-80649000D01*
X101801000Y-80649000D01*
X101801000Y-82751000D01*
X101801000Y-82751000D01*
G37*
G36*
X138051000Y-82251000D02*
G01*
X135949000Y-82251000D01*
X135949000Y-80549000D01*
X138051000Y-80549000D01*
X138051000Y-82251000D01*
X138051000Y-82251000D01*
G37*
G36*
X134051000Y-82251000D02*
G01*
X131949000Y-82251000D01*
X131949000Y-80549000D01*
X134051000Y-80549000D01*
X134051000Y-82251000D01*
X134051000Y-82251000D01*
G37*
G36*
X128751000Y-82101000D02*
G01*
X127449000Y-82101000D01*
X127449000Y-81099000D01*
X128751000Y-81099000D01*
X128751000Y-82101000D01*
X128751000Y-82101000D01*
G37*
G36*
X116326000Y-81551000D02*
G01*
X114674000Y-81551000D01*
X114674000Y-80849000D01*
X116326000Y-80849000D01*
X116326000Y-81551000D01*
X116326000Y-81551000D01*
G37*
G36*
X121726000Y-81551000D02*
G01*
X120074000Y-81551000D01*
X120074000Y-80849000D01*
X121726000Y-80849000D01*
X121726000Y-81551000D01*
X121726000Y-81551000D01*
G37*
G36*
X94251000Y-80901000D02*
G01*
X92149000Y-80901000D01*
X92149000Y-79099000D01*
X94251000Y-79099000D01*
X94251000Y-80901000D01*
X94251000Y-80901000D01*
G37*
G36*
X90251000Y-80901000D02*
G01*
X88149000Y-80901000D01*
X88149000Y-79099000D01*
X90251000Y-79099000D01*
X90251000Y-80901000D01*
X90251000Y-80901000D01*
G37*
G36*
X116326000Y-80281000D02*
G01*
X114674000Y-80281000D01*
X114674000Y-79579000D01*
X116326000Y-79579000D01*
X116326000Y-80281000D01*
X116326000Y-80281000D01*
G37*
G36*
X121726000Y-80281000D02*
G01*
X120074000Y-80281000D01*
X120074000Y-79579000D01*
X121726000Y-79579000D01*
X121726000Y-80281000D01*
X121726000Y-80281000D01*
G37*
G36*
X107901000Y-79901000D02*
G01*
X106899000Y-79901000D01*
X106899000Y-78999000D01*
X107901000Y-78999000D01*
X107901000Y-79901000D01*
X107901000Y-79901000D01*
G37*
G36*
X113201000Y-79851000D02*
G01*
X111399000Y-79851000D01*
X111399000Y-77749000D01*
X113201000Y-77749000D01*
X113201000Y-79851000D01*
X113201000Y-79851000D01*
G37*
G36*
X124201000Y-79301000D02*
G01*
X123199000Y-79301000D01*
X123199000Y-78399000D01*
X124201000Y-78399000D01*
X124201000Y-79301000D01*
X124201000Y-79301000D01*
G37*
G36*
X116326000Y-79011000D02*
G01*
X114674000Y-79011000D01*
X114674000Y-78309000D01*
X116326000Y-78309000D01*
X116326000Y-79011000D01*
X116326000Y-79011000D01*
G37*
G36*
X121726000Y-79011000D02*
G01*
X120074000Y-79011000D01*
X120074000Y-78309000D01*
X121726000Y-78309000D01*
X121726000Y-79011000D01*
X121726000Y-79011000D01*
G37*
G36*
X109901000Y-78951000D02*
G01*
X108899000Y-78951000D01*
X108899000Y-78049000D01*
X109901000Y-78049000D01*
X109901000Y-78951000D01*
X109901000Y-78951000D01*
G37*
G36*
X129010442Y-76985518D02*
G01*
X129076627Y-76992037D01*
X129246466Y-77043557D01*
X129402991Y-77127222D01*
X129438729Y-77156552D01*
X129540186Y-77239814D01*
X129623448Y-77341271D01*
X129652778Y-77377009D01*
X129736443Y-77533534D01*
X129787963Y-77703373D01*
X129805359Y-77880000D01*
X129787963Y-78056627D01*
X129736443Y-78226466D01*
X129652778Y-78382991D01*
X129623448Y-78418729D01*
X129540186Y-78520186D01*
X129438729Y-78603448D01*
X129402991Y-78632778D01*
X129246466Y-78716443D01*
X129076627Y-78767963D01*
X129010442Y-78774482D01*
X128944260Y-78781000D01*
X128855740Y-78781000D01*
X128789558Y-78774482D01*
X128723373Y-78767963D01*
X128553534Y-78716443D01*
X128397009Y-78632778D01*
X128361271Y-78603448D01*
X128259814Y-78520186D01*
X128176552Y-78418729D01*
X128147222Y-78382991D01*
X128063557Y-78226466D01*
X128012037Y-78056627D01*
X127994641Y-77880000D01*
X128012037Y-77703373D01*
X128063557Y-77533534D01*
X128147222Y-77377009D01*
X128176552Y-77341271D01*
X128259814Y-77239814D01*
X128361271Y-77156552D01*
X128397009Y-77127222D01*
X128553534Y-77043557D01*
X128723373Y-76992037D01*
X128789558Y-76985518D01*
X128855740Y-76979000D01*
X128944260Y-76979000D01*
X129010442Y-76985518D01*
X129010442Y-76985518D01*
G37*
G36*
X101801000Y-78751000D02*
G01*
X99999000Y-78751000D01*
X99999000Y-76649000D01*
X101801000Y-76649000D01*
X101801000Y-78751000D01*
X101801000Y-78751000D01*
G37*
G36*
X105551000Y-78751000D02*
G01*
X103849000Y-78751000D01*
X103849000Y-76649000D01*
X105551000Y-76649000D01*
X105551000Y-78751000D01*
X105551000Y-78751000D01*
G37*
G36*
X126201000Y-78351000D02*
G01*
X125199000Y-78351000D01*
X125199000Y-77449000D01*
X126201000Y-77449000D01*
X126201000Y-78351000D01*
X126201000Y-78351000D01*
G37*
G36*
X107901000Y-78001000D02*
G01*
X106899000Y-78001000D01*
X106899000Y-77099000D01*
X107901000Y-77099000D01*
X107901000Y-78001000D01*
X107901000Y-78001000D01*
G37*
G36*
X124201000Y-77401000D02*
G01*
X123199000Y-77401000D01*
X123199000Y-76499000D01*
X124201000Y-76499000D01*
X124201000Y-77401000D01*
X124201000Y-77401000D01*
G37*
G36*
X122151000Y-77251000D02*
G01*
X120049000Y-77251000D01*
X120049000Y-75549000D01*
X122151000Y-75549000D01*
X122151000Y-77251000D01*
X122151000Y-77251000D01*
G37*
G36*
X118151000Y-77251000D02*
G01*
X116049000Y-77251000D01*
X116049000Y-75549000D01*
X118151000Y-75549000D01*
X118151000Y-77251000D01*
X118151000Y-77251000D01*
G37*
G36*
X129010442Y-74445518D02*
G01*
X129076627Y-74452037D01*
X129246466Y-74503557D01*
X129402991Y-74587222D01*
X129419779Y-74601000D01*
X129540186Y-74699814D01*
X129623448Y-74801271D01*
X129652778Y-74837009D01*
X129736443Y-74993534D01*
X129787963Y-75163373D01*
X129805359Y-75340000D01*
X129787963Y-75516627D01*
X129736443Y-75686466D01*
X129652778Y-75842991D01*
X129646205Y-75851000D01*
X129540186Y-75980186D01*
X129438729Y-76063448D01*
X129402991Y-76092778D01*
X129246466Y-76176443D01*
X129076627Y-76227963D01*
X129010443Y-76234481D01*
X128944260Y-76241000D01*
X128855740Y-76241000D01*
X128789557Y-76234481D01*
X128723373Y-76227963D01*
X128553534Y-76176443D01*
X128397009Y-76092778D01*
X128361271Y-76063448D01*
X128259814Y-75980186D01*
X128153795Y-75851000D01*
X128147222Y-75842991D01*
X128063557Y-75686466D01*
X128012037Y-75516627D01*
X127994641Y-75340000D01*
X128012037Y-75163373D01*
X128063557Y-74993534D01*
X128147222Y-74837009D01*
X128176552Y-74801271D01*
X128259814Y-74699814D01*
X128380221Y-74601000D01*
X128397009Y-74587222D01*
X128553534Y-74503557D01*
X128723373Y-74452037D01*
X128789558Y-74445518D01*
X128855740Y-74439000D01*
X128944260Y-74439000D01*
X129010442Y-74445518D01*
X129010442Y-74445518D01*
G37*
G36*
X113201000Y-75851000D02*
G01*
X111399000Y-75851000D01*
X111399000Y-73749000D01*
X113201000Y-73749000D01*
X113201000Y-75851000D01*
X113201000Y-75851000D01*
G37*
G36*
X126301000Y-75451000D02*
G01*
X124499000Y-75451000D01*
X124499000Y-73349000D01*
X126301000Y-73349000D01*
X126301000Y-75451000D01*
X126301000Y-75451000D01*
G37*
G36*
X118151000Y-74601000D02*
G01*
X116049000Y-74601000D01*
X116049000Y-72799000D01*
X118151000Y-72799000D01*
X118151000Y-74601000D01*
X118151000Y-74601000D01*
G37*
G36*
X122151000Y-74601000D02*
G01*
X120049000Y-74601000D01*
X120049000Y-72799000D01*
X122151000Y-72799000D01*
X122151000Y-74601000D01*
X122151000Y-74601000D01*
G37*
G36*
X129801000Y-73701000D02*
G01*
X127999000Y-73701000D01*
X127999000Y-71899000D01*
X129801000Y-71899000D01*
X129801000Y-73701000D01*
X129801000Y-73701000D01*
G37*
G36*
X85406373Y-67957024D02*
G01*
X85607589Y-67997048D01*
X85986671Y-68154069D01*
X86327835Y-68382028D01*
X86617972Y-68672165D01*
X86845931Y-69013329D01*
X87002952Y-69392411D01*
X87083000Y-69794842D01*
X87083000Y-70205158D01*
X87002952Y-70607589D01*
X86845931Y-70986671D01*
X86617972Y-71327835D01*
X86327835Y-71617972D01*
X85986671Y-71845931D01*
X85607589Y-72002952D01*
X85205159Y-72083000D01*
X84794841Y-72083000D01*
X84392411Y-72002952D01*
X84013329Y-71845931D01*
X83672165Y-71617972D01*
X83382028Y-71327835D01*
X83154069Y-70986671D01*
X82997048Y-70607589D01*
X82917000Y-70205158D01*
X82917000Y-69794842D01*
X82997048Y-69392411D01*
X83154069Y-69013329D01*
X83382028Y-68672165D01*
X83672165Y-68382028D01*
X84013329Y-68154069D01*
X84392411Y-67997048D01*
X84593627Y-67957024D01*
X84794841Y-67917000D01*
X85205159Y-67917000D01*
X85406373Y-67957024D01*
X85406373Y-67957024D01*
G37*
G36*
X145406373Y-67957024D02*
G01*
X145607589Y-67997048D01*
X145986671Y-68154069D01*
X146327835Y-68382028D01*
X146617972Y-68672165D01*
X146845931Y-69013329D01*
X147002952Y-69392411D01*
X147083000Y-69794842D01*
X147083000Y-70205158D01*
X147002952Y-70607589D01*
X146845931Y-70986671D01*
X146617972Y-71327835D01*
X146327835Y-71617972D01*
X145986671Y-71845931D01*
X145607589Y-72002952D01*
X145205159Y-72083000D01*
X144794841Y-72083000D01*
X144392411Y-72002952D01*
X144013329Y-71845931D01*
X143672165Y-71617972D01*
X143382028Y-71327835D01*
X143154069Y-70986671D01*
X142997048Y-70607589D01*
X142917000Y-70205158D01*
X142917000Y-69794842D01*
X142997048Y-69392411D01*
X143154069Y-69013329D01*
X143382028Y-68672165D01*
X143672165Y-68382028D01*
X144013329Y-68154069D01*
X144392411Y-67997048D01*
X144593627Y-67957024D01*
X144794841Y-67917000D01*
X145205159Y-67917000D01*
X145406373Y-67957024D01*
X145406373Y-67957024D01*
G37*
G36*
X126301000Y-71451000D02*
G01*
X124499000Y-71451000D01*
X124499000Y-69349000D01*
X126301000Y-69349000D01*
X126301000Y-71451000D01*
X126301000Y-71451000D01*
G37*
M02*
