G04 #@! TF.GenerationSoftware,KiCad,Pcbnew,(5.1.0)-1*
G04 #@! TF.CreationDate,2019-05-26T15:03:18-04:00*
G04 #@! TF.ProjectId,EG,45472e6b-6963-4616-945f-706362585858,rev?*
G04 #@! TF.SameCoordinates,Original*
G04 #@! TF.FileFunction,Copper,L1,Top*
G04 #@! TF.FilePolarity,Positive*
%FSLAX46Y46*%
G04 Gerber Fmt 4.6, Leading zero omitted, Abs format (unit mm)*
G04 Created by KiCad (PCBNEW (5.1.0)-1) date 2019-05-26 15:03:18*
%MOMM*%
%LPD*%
G04 APERTURE LIST*
%ADD10R,2.000000X1.600000*%
%ADD11R,1.600000X2.000000*%
%ADD12R,2.700000X3.750000*%
%ADD13R,1.700000X1.700000*%
%ADD14O,1.700000X1.700000*%
%ADD15R,1.700000X2.000000*%
%ADD16R,2.000000X1.700000*%
%ADD17R,1.500000X0.600000*%
%ADD18R,1.550000X0.600000*%
%ADD19C,4.064000*%
%ADD20R,1.200000X0.900000*%
%ADD21R,0.900000X1.200000*%
%ADD22O,2.100000X1.000000*%
%ADD23O,1.000000X2.100000*%
%ADD24R,1.900000X0.800000*%
%ADD25R,0.800000X1.900000*%
%ADD26C,1.800000*%
%ADD27C,4.000000*%
%ADD28R,1.800000X1.800000*%
%ADD29C,0.800000*%
%ADD30C,0.250000*%
%ADD31C,0.254000*%
G04 APERTURE END LIST*
D10*
X95800000Y-104600000D03*
X91800000Y-104600000D03*
D11*
X97400000Y-124800000D03*
X97400000Y-128800000D03*
D10*
X66500000Y-102100000D03*
X70500000Y-102100000D03*
X65500000Y-87800000D03*
X69500000Y-87800000D03*
D11*
X70100000Y-75700000D03*
X70100000Y-71700000D03*
D12*
X95500000Y-94250000D03*
X95500000Y-86700000D03*
D13*
X95127000Y-65000000D03*
D14*
X97667000Y-65000000D03*
X94873000Y-67540000D03*
X97413000Y-67540000D03*
X95127000Y-70080000D03*
X97667000Y-70080000D03*
X94873000Y-72620000D03*
X97413000Y-72620000D03*
X95127000Y-75160000D03*
X97667000Y-75160000D03*
D15*
X69700000Y-133200000D03*
X69700000Y-129200000D03*
X69700000Y-125100000D03*
X69700000Y-121100000D03*
X63500000Y-124900000D03*
X63500000Y-128900000D03*
D16*
X73700000Y-117900000D03*
X69700000Y-117900000D03*
X69800000Y-114400000D03*
X73800000Y-114400000D03*
D15*
X70500000Y-109400000D03*
X70500000Y-105400000D03*
X63200000Y-97600000D03*
X63200000Y-101600000D03*
D16*
X63400000Y-93700000D03*
X67400000Y-93700000D03*
D15*
X80300000Y-93900000D03*
X80300000Y-89900000D03*
D16*
X83400000Y-114800000D03*
X87400000Y-114800000D03*
X80100000Y-60700000D03*
X84100000Y-60700000D03*
X91500000Y-82400000D03*
X87500000Y-82400000D03*
X91500000Y-120000000D03*
X95500000Y-120000000D03*
X87900000Y-128400000D03*
X83900000Y-128400000D03*
D17*
X96600000Y-108500000D03*
X96600000Y-109770000D03*
X96600000Y-111040000D03*
X96600000Y-112310000D03*
X96600000Y-113580000D03*
X96600000Y-114850000D03*
X96600000Y-116120000D03*
X91200000Y-116120000D03*
X91200000Y-114850000D03*
X91200000Y-113580000D03*
X91200000Y-112310000D03*
X91200000Y-111040000D03*
X91200000Y-109770000D03*
X91200000Y-108500000D03*
D18*
X70000000Y-80195000D03*
X70000000Y-81465000D03*
X70000000Y-82735000D03*
X70000000Y-84005000D03*
X64600000Y-84005000D03*
X64600000Y-82735000D03*
X64600000Y-81465000D03*
X64600000Y-80195000D03*
D19*
X65000000Y-45000000D03*
X65000000Y-135000000D03*
X95000000Y-45000000D03*
X95000000Y-135000000D03*
D20*
X66700000Y-124400000D03*
X66700000Y-127700000D03*
X80100000Y-111200000D03*
X80100000Y-114500000D03*
D21*
X89100000Y-77500000D03*
X85800000Y-77500000D03*
X90400000Y-60700000D03*
X87100000Y-60700000D03*
D20*
X79700000Y-119900000D03*
X79700000Y-123200000D03*
D22*
X84000000Y-125600000D03*
D23*
X88800000Y-131400000D03*
D22*
X84000000Y-133700000D03*
X74000000Y-125600000D03*
D23*
X78800000Y-131400000D03*
D22*
X74000000Y-133700000D03*
D24*
X63500000Y-120600000D03*
X66500000Y-119650000D03*
X66500000Y-121550000D03*
D25*
X64850000Y-113800000D03*
X65800000Y-116800000D03*
X63900000Y-116800000D03*
D24*
X67500000Y-97500000D03*
X70500000Y-96550000D03*
X70500000Y-98450000D03*
D25*
X70650000Y-94000000D03*
X69700000Y-91000000D03*
X71600000Y-91000000D03*
D26*
X82500000Y-97500000D03*
X80000000Y-97500000D03*
X77500000Y-97500000D03*
D27*
X84400000Y-90500000D03*
X75600000Y-90500000D03*
D26*
X82500000Y-57500000D03*
X80000000Y-57500000D03*
X77500000Y-57500000D03*
D27*
X84400000Y-50500000D03*
X75600000Y-50500000D03*
D26*
X82500000Y-117500000D03*
X80000000Y-117500000D03*
X77500000Y-117500000D03*
D27*
X84400000Y-110500000D03*
X75600000Y-110500000D03*
D26*
X82500000Y-77500000D03*
X80000000Y-77500000D03*
X77500000Y-77500000D03*
D27*
X84400000Y-70500000D03*
X75600000Y-70500000D03*
D26*
X75000000Y-120230000D03*
D28*
X75000000Y-122770000D03*
D29*
X93400000Y-118800000D03*
X93300000Y-124400000D03*
X80300000Y-88000000D03*
X63200000Y-103800000D03*
X63900000Y-131000000D03*
X92725000Y-106575000D03*
X70000000Y-78200000D03*
X75700000Y-114400000D03*
X91500000Y-117900000D03*
X90100000Y-128300000D03*
X74400000Y-82900000D03*
D30*
X80300000Y-89900000D02*
X80300000Y-88000000D01*
X63200000Y-101600000D02*
X63200000Y-103800000D01*
X63500000Y-128900000D02*
X63500000Y-130600000D01*
X63500000Y-130600000D02*
X63900000Y-131000000D01*
X92200000Y-112310000D02*
X93000000Y-111510000D01*
X91200000Y-112310000D02*
X92200000Y-112310000D01*
X91800000Y-105650000D02*
X91800000Y-104600000D01*
X93000000Y-106850000D02*
X92725000Y-106575000D01*
X93000000Y-111510000D02*
X93000000Y-106850000D01*
X92725000Y-106575000D02*
X91800000Y-105650000D01*
X70000000Y-75800000D02*
X70100000Y-75700000D01*
X70000000Y-80195000D02*
X70000000Y-78200000D01*
X70000000Y-78200000D02*
X70000000Y-75800000D01*
X73800000Y-114400000D02*
X75700000Y-114400000D01*
X97050000Y-112310000D02*
X98400000Y-113660000D01*
X96600000Y-112310000D02*
X97050000Y-112310000D01*
X97400000Y-123550000D02*
X97400000Y-124800000D01*
X98400000Y-122550000D02*
X97400000Y-123550000D01*
X98400000Y-113660000D02*
X98400000Y-122550000D01*
X95127000Y-75160000D02*
X97667000Y-75160000D01*
X97050000Y-112310000D02*
X97900000Y-111460000D01*
X97667000Y-76362081D02*
X97667000Y-75160000D01*
X97900000Y-76595081D02*
X97667000Y-76362081D01*
X97900000Y-111460000D02*
X97900000Y-76595081D01*
X70500000Y-98450000D02*
X70500000Y-102100000D01*
X70500000Y-103150000D02*
X70500000Y-105400000D01*
X70500000Y-102100000D02*
X70500000Y-103150000D01*
X68775001Y-96839999D02*
X67635002Y-95700000D01*
X68775001Y-98774999D02*
X68775001Y-96839999D01*
X66500000Y-102100000D02*
X66500000Y-101050000D01*
X66500000Y-101050000D02*
X68775001Y-98774999D01*
X64650000Y-93700000D02*
X63400000Y-93700000D01*
X66650000Y-95700000D02*
X64650000Y-93700000D01*
X67635002Y-95700000D02*
X66650000Y-95700000D01*
X64125000Y-84005000D02*
X64600000Y-84005000D01*
X63400000Y-84730000D02*
X64125000Y-84005000D01*
X63400000Y-93700000D02*
X63400000Y-84730000D01*
X69200000Y-113800000D02*
X69800000Y-114400000D01*
X64850000Y-113800000D02*
X69200000Y-113800000D01*
X79250000Y-111200000D02*
X80100000Y-111200000D01*
X77624999Y-112825001D02*
X79250000Y-111200000D01*
X72624999Y-112825001D02*
X77624999Y-112825001D01*
X71050000Y-114400000D02*
X72624999Y-112825001D01*
X69800000Y-114400000D02*
X71050000Y-114400000D01*
X66300000Y-102100000D02*
X66500000Y-102100000D01*
X64850000Y-103550000D02*
X66300000Y-102100000D01*
X64850000Y-113800000D02*
X64850000Y-103550000D01*
X69500000Y-84505000D02*
X70000000Y-84005000D01*
X69500000Y-87800000D02*
X69500000Y-84505000D01*
X91100000Y-60700000D02*
X90400000Y-60700000D01*
X91500000Y-61100000D02*
X91100000Y-60700000D01*
X91500000Y-82400000D02*
X91500000Y-61100000D01*
X91500000Y-83500000D02*
X91500000Y-82400000D01*
X91500000Y-84300000D02*
X91500000Y-83500000D01*
X93900000Y-86700000D02*
X91500000Y-84300000D01*
X95500000Y-86700000D02*
X93900000Y-86700000D01*
X90200000Y-113580000D02*
X91200000Y-113580000D01*
X89870000Y-113580000D02*
X90200000Y-113580000D01*
X88650000Y-114800000D02*
X89870000Y-113580000D01*
X87400000Y-114800000D02*
X88650000Y-114800000D01*
X92200000Y-113580000D02*
X93700000Y-112080000D01*
X91200000Y-113580000D02*
X92200000Y-113580000D01*
X95500000Y-88825000D02*
X95500000Y-86700000D01*
X93700000Y-90625000D02*
X95500000Y-88825000D01*
X93700000Y-112080000D02*
X93700000Y-90625000D01*
X69250000Y-121550000D02*
X69700000Y-121100000D01*
X66500000Y-121550000D02*
X69250000Y-121550000D01*
X66700000Y-121750000D02*
X66500000Y-121550000D01*
X66700000Y-124400000D02*
X66700000Y-121750000D01*
X80100000Y-114900000D02*
X80100000Y-114500000D01*
X77500000Y-117500000D02*
X80100000Y-114900000D01*
X91200000Y-109770000D02*
X91200000Y-108500000D01*
X89100000Y-78350000D02*
X89100000Y-77500000D01*
X89100000Y-105850000D02*
X89100000Y-78350000D01*
X91200000Y-107950000D02*
X89100000Y-105850000D01*
X91200000Y-108500000D02*
X91200000Y-107950000D01*
X83772792Y-77500000D02*
X85800000Y-77500000D01*
X82500000Y-77500000D02*
X83772792Y-77500000D01*
X85350000Y-60700000D02*
X87100000Y-60700000D01*
X84100000Y-60700000D02*
X85350000Y-60700000D01*
X79270000Y-122770000D02*
X79700000Y-123200000D01*
X75000000Y-122770000D02*
X79270000Y-122770000D01*
X79700000Y-123200000D02*
X95200000Y-123200000D01*
X96600000Y-116670000D02*
X96600000Y-116120000D01*
X97600000Y-117670000D02*
X96600000Y-116670000D01*
X97600000Y-120800000D02*
X97600000Y-117670000D01*
X95200000Y-123200000D02*
X97600000Y-120800000D01*
X96150000Y-114850000D02*
X96600000Y-114850000D01*
X95500000Y-115500000D02*
X96150000Y-114850000D01*
X95500000Y-120000000D02*
X95500000Y-115500000D01*
X79370000Y-120230000D02*
X79700000Y-119900000D01*
X75000000Y-120230000D02*
X79370000Y-120230000D01*
X80550000Y-119900000D02*
X82950000Y-122300000D01*
X79700000Y-119900000D02*
X80550000Y-119900000D01*
X94250000Y-120000000D02*
X95500000Y-120000000D01*
X91950000Y-122300000D02*
X94250000Y-120000000D01*
X82950000Y-122300000D02*
X91950000Y-122300000D01*
X69700000Y-127950000D02*
X69700000Y-125100000D01*
X69700000Y-129200000D02*
X69700000Y-127950000D01*
X82700000Y-125600000D02*
X84000000Y-125600000D01*
X81874990Y-124774990D02*
X82700000Y-125600000D01*
X71125010Y-124774990D02*
X81874990Y-124774990D01*
X70800000Y-125100000D02*
X71125010Y-124774990D01*
X69700000Y-125100000D02*
X70800000Y-125100000D01*
X88050000Y-131400000D02*
X88800000Y-131400000D01*
X86574999Y-129924999D02*
X88050000Y-131400000D01*
X86574999Y-127624999D02*
X86574999Y-129924999D01*
X84550000Y-125600000D02*
X86574999Y-127624999D01*
X84000000Y-125600000D02*
X84550000Y-125600000D01*
X81250000Y-128400000D02*
X78800000Y-130850000D01*
X83900000Y-128400000D02*
X81250000Y-128400000D01*
X74000000Y-126050000D02*
X74000000Y-125600000D01*
X78800000Y-130850000D02*
X74000000Y-126050000D01*
X78800000Y-131400000D02*
X78800000Y-130850000D01*
X63900000Y-120200000D02*
X63500000Y-120600000D01*
X63900000Y-116800000D02*
X63900000Y-120200000D01*
X63500000Y-123650000D02*
X63500000Y-120600000D01*
X63500000Y-124900000D02*
X63500000Y-123650000D01*
X65800000Y-118950000D02*
X66500000Y-119650000D01*
X65800000Y-116800000D02*
X65800000Y-118950000D01*
X69700000Y-117900000D02*
X66900000Y-117900000D01*
X66900000Y-117900000D02*
X65800000Y-116800000D01*
X67400000Y-97600000D02*
X67500000Y-97500000D01*
X63200000Y-97600000D02*
X67400000Y-97600000D01*
X64125000Y-81465000D02*
X64600000Y-81465000D01*
X62074999Y-83515001D02*
X64125000Y-81465000D01*
X62074999Y-95224999D02*
X62074999Y-83515001D01*
X63200000Y-96350000D02*
X62074999Y-95224999D01*
X63200000Y-97600000D02*
X63200000Y-96350000D01*
X74000000Y-94000000D02*
X77500000Y-97500000D01*
X70650000Y-94000000D02*
X74000000Y-94000000D01*
X69050000Y-91000000D02*
X67800000Y-89750000D01*
X69700000Y-91000000D02*
X69050000Y-91000000D01*
X69525000Y-81465000D02*
X70000000Y-81465000D01*
X67800000Y-83190000D02*
X69525000Y-81465000D01*
X67800000Y-89750000D02*
X67800000Y-83190000D01*
X71600000Y-91550000D02*
X71600000Y-91000000D01*
X70874999Y-92275001D02*
X71600000Y-91550000D01*
X70074999Y-92275001D02*
X70874999Y-92275001D01*
X68650000Y-93700000D02*
X70074999Y-92275001D01*
X67400000Y-93700000D02*
X68650000Y-93700000D01*
X81400000Y-93900000D02*
X80300000Y-93900000D01*
X82500000Y-95000000D02*
X81400000Y-93900000D01*
X82500000Y-97500000D02*
X82500000Y-95000000D01*
X91500000Y-116420000D02*
X91200000Y-116120000D01*
X91500000Y-120000000D02*
X91500000Y-117900000D01*
X91200000Y-116120000D02*
X91200000Y-114850000D01*
X91500000Y-117900000D02*
X91500000Y-116420000D01*
X88000000Y-128300000D02*
X87900000Y-128400000D01*
X90100000Y-128300000D02*
X88000000Y-128300000D01*
X70165000Y-82900000D02*
X70000000Y-82735000D01*
X74400000Y-82900000D02*
X70165000Y-82900000D01*
X67200000Y-67800000D02*
X77500000Y-57500000D01*
X67200000Y-81160000D02*
X67200000Y-67800000D01*
X65625000Y-82735000D02*
X67200000Y-81160000D01*
X64600000Y-82735000D02*
X65625000Y-82735000D01*
X82700000Y-114800000D02*
X83400000Y-114800000D01*
X80000000Y-117500000D02*
X82700000Y-114800000D01*
X80100000Y-57600000D02*
X80000000Y-57500000D01*
X80100000Y-60700000D02*
X80100000Y-57600000D01*
X84900000Y-82400000D02*
X80000000Y-77500000D01*
X87500000Y-82400000D02*
X84900000Y-82400000D01*
X80000000Y-97500000D02*
X82400000Y-99900000D01*
X86700000Y-99900000D02*
X88649990Y-101849990D01*
X82400000Y-99900000D02*
X86700000Y-99900000D01*
X90750000Y-111040000D02*
X91200000Y-111040000D01*
X88649990Y-108939990D02*
X90750000Y-111040000D01*
X88649990Y-101849990D02*
X88649990Y-108939990D01*
D31*
G36*
X99340001Y-139340000D02*
G01*
X60660000Y-139340000D01*
X60660000Y-134737323D01*
X62333000Y-134737323D01*
X62333000Y-135262677D01*
X62435492Y-135777935D01*
X62636536Y-136263298D01*
X62928406Y-136700113D01*
X63299887Y-137071594D01*
X63736702Y-137363464D01*
X64222065Y-137564508D01*
X64737323Y-137667000D01*
X65262677Y-137667000D01*
X65777935Y-137564508D01*
X66263298Y-137363464D01*
X66700113Y-137071594D01*
X67071594Y-136700113D01*
X67363464Y-136263298D01*
X67564508Y-135777935D01*
X67667000Y-135262677D01*
X67667000Y-134737323D01*
X67564508Y-134222065D01*
X67555369Y-134200000D01*
X68211928Y-134200000D01*
X68224188Y-134324482D01*
X68260498Y-134444180D01*
X68319463Y-134554494D01*
X68398815Y-134651185D01*
X68495506Y-134730537D01*
X68605820Y-134789502D01*
X68725518Y-134825812D01*
X68850000Y-134838072D01*
X69414250Y-134835000D01*
X69573000Y-134676250D01*
X69573000Y-133327000D01*
X69827000Y-133327000D01*
X69827000Y-134676250D01*
X69985750Y-134835000D01*
X70550000Y-134838072D01*
X70674482Y-134825812D01*
X70794180Y-134789502D01*
X70904494Y-134730537D01*
X71001185Y-134651185D01*
X71080537Y-134554494D01*
X71139502Y-134444180D01*
X71175812Y-134324482D01*
X71188072Y-134200000D01*
X71187220Y-134001874D01*
X72355881Y-134001874D01*
X72435724Y-134224976D01*
X72557631Y-134412764D01*
X72713831Y-134573161D01*
X72898322Y-134700003D01*
X73104013Y-134788415D01*
X73323000Y-134835000D01*
X73873000Y-134835000D01*
X73873000Y-133827000D01*
X74127000Y-133827000D01*
X74127000Y-134835000D01*
X74677000Y-134835000D01*
X74895987Y-134788415D01*
X75101678Y-134700003D01*
X75286169Y-134573161D01*
X75442369Y-134412764D01*
X75564276Y-134224976D01*
X75644119Y-134001874D01*
X82355881Y-134001874D01*
X82435724Y-134224976D01*
X82557631Y-134412764D01*
X82713831Y-134573161D01*
X82898322Y-134700003D01*
X83104013Y-134788415D01*
X83323000Y-134835000D01*
X83873000Y-134835000D01*
X83873000Y-133827000D01*
X84127000Y-133827000D01*
X84127000Y-134835000D01*
X84677000Y-134835000D01*
X84895987Y-134788415D01*
X85014852Y-134737323D01*
X92333000Y-134737323D01*
X92333000Y-135262677D01*
X92435492Y-135777935D01*
X92636536Y-136263298D01*
X92928406Y-136700113D01*
X93299887Y-137071594D01*
X93736702Y-137363464D01*
X94222065Y-137564508D01*
X94737323Y-137667000D01*
X95262677Y-137667000D01*
X95777935Y-137564508D01*
X96263298Y-137363464D01*
X96700113Y-137071594D01*
X97071594Y-136700113D01*
X97363464Y-136263298D01*
X97564508Y-135777935D01*
X97667000Y-135262677D01*
X97667000Y-134737323D01*
X97564508Y-134222065D01*
X97363464Y-133736702D01*
X97071594Y-133299887D01*
X96700113Y-132928406D01*
X96263298Y-132636536D01*
X95777935Y-132435492D01*
X95262677Y-132333000D01*
X94737323Y-132333000D01*
X94222065Y-132435492D01*
X93736702Y-132636536D01*
X93299887Y-132928406D01*
X92928406Y-133299887D01*
X92636536Y-133736702D01*
X92435492Y-134222065D01*
X92333000Y-134737323D01*
X85014852Y-134737323D01*
X85101678Y-134700003D01*
X85286169Y-134573161D01*
X85442369Y-134412764D01*
X85564276Y-134224976D01*
X85644119Y-134001874D01*
X85517954Y-133827000D01*
X84127000Y-133827000D01*
X83873000Y-133827000D01*
X82482046Y-133827000D01*
X82355881Y-134001874D01*
X75644119Y-134001874D01*
X75517954Y-133827000D01*
X74127000Y-133827000D01*
X73873000Y-133827000D01*
X72482046Y-133827000D01*
X72355881Y-134001874D01*
X71187220Y-134001874D01*
X71185000Y-133485750D01*
X71097376Y-133398126D01*
X72355881Y-133398126D01*
X72482046Y-133573000D01*
X73873000Y-133573000D01*
X73873000Y-133553000D01*
X74127000Y-133553000D01*
X74127000Y-133573000D01*
X75517954Y-133573000D01*
X75644119Y-133398126D01*
X82355881Y-133398126D01*
X82482046Y-133573000D01*
X83873000Y-133573000D01*
X83873000Y-133553000D01*
X84127000Y-133553000D01*
X84127000Y-133573000D01*
X85517954Y-133573000D01*
X85644119Y-133398126D01*
X85564276Y-133175024D01*
X85442369Y-132987236D01*
X85286169Y-132826839D01*
X85101678Y-132699997D01*
X84895987Y-132611585D01*
X84677000Y-132565000D01*
X83323000Y-132565000D01*
X83104013Y-132611585D01*
X82898322Y-132699997D01*
X82713831Y-132826839D01*
X82557631Y-132987236D01*
X82435724Y-133175024D01*
X82355881Y-133398126D01*
X75644119Y-133398126D01*
X75564276Y-133175024D01*
X75442369Y-132987236D01*
X75286169Y-132826839D01*
X75101678Y-132699997D01*
X74895987Y-132611585D01*
X74677000Y-132565000D01*
X73323000Y-132565000D01*
X73104013Y-132611585D01*
X72898322Y-132699997D01*
X72713831Y-132826839D01*
X72557631Y-132987236D01*
X72435724Y-133175024D01*
X72355881Y-133398126D01*
X71097376Y-133398126D01*
X71026250Y-133327000D01*
X69827000Y-133327000D01*
X69573000Y-133327000D01*
X68373750Y-133327000D01*
X68215000Y-133485750D01*
X68211928Y-134200000D01*
X67555369Y-134200000D01*
X67363464Y-133736702D01*
X67071594Y-133299887D01*
X66700113Y-132928406D01*
X66263298Y-132636536D01*
X65777935Y-132435492D01*
X65262677Y-132333000D01*
X64737323Y-132333000D01*
X64222065Y-132435492D01*
X63736702Y-132636536D01*
X63299887Y-132928406D01*
X62928406Y-133299887D01*
X62636536Y-133736702D01*
X62435492Y-134222065D01*
X62333000Y-134737323D01*
X60660000Y-134737323D01*
X60660000Y-132200000D01*
X68211928Y-132200000D01*
X68215000Y-132914250D01*
X68373750Y-133073000D01*
X69573000Y-133073000D01*
X69573000Y-131723750D01*
X69827000Y-131723750D01*
X69827000Y-133073000D01*
X71026250Y-133073000D01*
X71185000Y-132914250D01*
X71188072Y-132200000D01*
X71175812Y-132075518D01*
X71139502Y-131955820D01*
X71080537Y-131845506D01*
X71001185Y-131748815D01*
X70904494Y-131669463D01*
X70794180Y-131610498D01*
X70674482Y-131574188D01*
X70550000Y-131561928D01*
X69985750Y-131565000D01*
X69827000Y-131723750D01*
X69573000Y-131723750D01*
X69414250Y-131565000D01*
X68850000Y-131561928D01*
X68725518Y-131574188D01*
X68605820Y-131610498D01*
X68495506Y-131669463D01*
X68398815Y-131748815D01*
X68319463Y-131845506D01*
X68260498Y-131955820D01*
X68224188Y-132075518D01*
X68211928Y-132200000D01*
X60660000Y-132200000D01*
X60660000Y-127900000D01*
X62011928Y-127900000D01*
X62011928Y-129900000D01*
X62024188Y-130024482D01*
X62060498Y-130144180D01*
X62119463Y-130254494D01*
X62198815Y-130351185D01*
X62295506Y-130430537D01*
X62405820Y-130489502D01*
X62525518Y-130525812D01*
X62650000Y-130538072D01*
X62740001Y-130538072D01*
X62740001Y-130562668D01*
X62736324Y-130600000D01*
X62750998Y-130748985D01*
X62794454Y-130892246D01*
X62865000Y-131024227D01*
X62865000Y-131101939D01*
X62904774Y-131301898D01*
X62982795Y-131490256D01*
X63096063Y-131659774D01*
X63240226Y-131803937D01*
X63409744Y-131917205D01*
X63598102Y-131995226D01*
X63798061Y-132035000D01*
X64001939Y-132035000D01*
X64201898Y-131995226D01*
X64390256Y-131917205D01*
X64559774Y-131803937D01*
X64703937Y-131659774D01*
X64817205Y-131490256D01*
X64895226Y-131301898D01*
X64935000Y-131101939D01*
X64935000Y-130898061D01*
X64895226Y-130698102D01*
X64817205Y-130509744D01*
X64743107Y-130398848D01*
X64801185Y-130351185D01*
X64880537Y-130254494D01*
X64939502Y-130144180D01*
X64975812Y-130024482D01*
X64988072Y-129900000D01*
X64988072Y-128150000D01*
X65461928Y-128150000D01*
X65474188Y-128274482D01*
X65510498Y-128394180D01*
X65569463Y-128504494D01*
X65648815Y-128601185D01*
X65745506Y-128680537D01*
X65855820Y-128739502D01*
X65975518Y-128775812D01*
X66100000Y-128788072D01*
X66414250Y-128785000D01*
X66573000Y-128626250D01*
X66573000Y-127827000D01*
X66827000Y-127827000D01*
X66827000Y-128626250D01*
X66985750Y-128785000D01*
X67300000Y-128788072D01*
X67424482Y-128775812D01*
X67544180Y-128739502D01*
X67654494Y-128680537D01*
X67751185Y-128601185D01*
X67830537Y-128504494D01*
X67889502Y-128394180D01*
X67925812Y-128274482D01*
X67938072Y-128150000D01*
X67935000Y-127985750D01*
X67776250Y-127827000D01*
X66827000Y-127827000D01*
X66573000Y-127827000D01*
X65623750Y-127827000D01*
X65465000Y-127985750D01*
X65461928Y-128150000D01*
X64988072Y-128150000D01*
X64988072Y-127900000D01*
X64975812Y-127775518D01*
X64939502Y-127655820D01*
X64880537Y-127545506D01*
X64801185Y-127448815D01*
X64704494Y-127369463D01*
X64594180Y-127310498D01*
X64474482Y-127274188D01*
X64350000Y-127261928D01*
X62650000Y-127261928D01*
X62525518Y-127274188D01*
X62405820Y-127310498D01*
X62295506Y-127369463D01*
X62198815Y-127448815D01*
X62119463Y-127545506D01*
X62060498Y-127655820D01*
X62024188Y-127775518D01*
X62011928Y-127900000D01*
X60660000Y-127900000D01*
X60660000Y-127250000D01*
X65461928Y-127250000D01*
X65465000Y-127414250D01*
X65623750Y-127573000D01*
X66573000Y-127573000D01*
X66573000Y-126773750D01*
X66827000Y-126773750D01*
X66827000Y-127573000D01*
X67776250Y-127573000D01*
X67935000Y-127414250D01*
X67938072Y-127250000D01*
X67925812Y-127125518D01*
X67889502Y-127005820D01*
X67830537Y-126895506D01*
X67751185Y-126798815D01*
X67654494Y-126719463D01*
X67544180Y-126660498D01*
X67424482Y-126624188D01*
X67300000Y-126611928D01*
X66985750Y-126615000D01*
X66827000Y-126773750D01*
X66573000Y-126773750D01*
X66414250Y-126615000D01*
X66100000Y-126611928D01*
X65975518Y-126624188D01*
X65855820Y-126660498D01*
X65745506Y-126719463D01*
X65648815Y-126798815D01*
X65569463Y-126895506D01*
X65510498Y-127005820D01*
X65474188Y-127125518D01*
X65461928Y-127250000D01*
X60660000Y-127250000D01*
X60660000Y-83515001D01*
X61311323Y-83515001D01*
X61315000Y-83552333D01*
X61314999Y-95187677D01*
X61311323Y-95224999D01*
X61314999Y-95262321D01*
X61314999Y-95262331D01*
X61325996Y-95373984D01*
X61367840Y-95511928D01*
X61369453Y-95517245D01*
X61440025Y-95649275D01*
X61479870Y-95697825D01*
X61534998Y-95765000D01*
X61564001Y-95788803D01*
X61912655Y-96137457D01*
X61898815Y-96148815D01*
X61819463Y-96245506D01*
X61760498Y-96355820D01*
X61724188Y-96475518D01*
X61711928Y-96600000D01*
X61711928Y-98600000D01*
X61724188Y-98724482D01*
X61760498Y-98844180D01*
X61819463Y-98954494D01*
X61898815Y-99051185D01*
X61995506Y-99130537D01*
X62105820Y-99189502D01*
X62225518Y-99225812D01*
X62350000Y-99238072D01*
X64050000Y-99238072D01*
X64174482Y-99225812D01*
X64294180Y-99189502D01*
X64404494Y-99130537D01*
X64501185Y-99051185D01*
X64580537Y-98954494D01*
X64639502Y-98844180D01*
X64675812Y-98724482D01*
X64688072Y-98600000D01*
X64688072Y-98360000D01*
X66109556Y-98360000D01*
X66195506Y-98430537D01*
X66305820Y-98489502D01*
X66425518Y-98525812D01*
X66550000Y-98538072D01*
X67937126Y-98538072D01*
X65988998Y-100486201D01*
X65960000Y-100509999D01*
X65936202Y-100538997D01*
X65936201Y-100538998D01*
X65865026Y-100625724D01*
X65845674Y-100661928D01*
X65500000Y-100661928D01*
X65375518Y-100674188D01*
X65255820Y-100710498D01*
X65145506Y-100769463D01*
X65048815Y-100848815D01*
X64969463Y-100945506D01*
X64910498Y-101055820D01*
X64874188Y-101175518D01*
X64861928Y-101300000D01*
X64861928Y-102463271D01*
X64684016Y-102641183D01*
X64688072Y-102600000D01*
X64688072Y-100600000D01*
X64675812Y-100475518D01*
X64639502Y-100355820D01*
X64580537Y-100245506D01*
X64501185Y-100148815D01*
X64404494Y-100069463D01*
X64294180Y-100010498D01*
X64174482Y-99974188D01*
X64050000Y-99961928D01*
X62350000Y-99961928D01*
X62225518Y-99974188D01*
X62105820Y-100010498D01*
X61995506Y-100069463D01*
X61898815Y-100148815D01*
X61819463Y-100245506D01*
X61760498Y-100355820D01*
X61724188Y-100475518D01*
X61711928Y-100600000D01*
X61711928Y-102600000D01*
X61724188Y-102724482D01*
X61760498Y-102844180D01*
X61819463Y-102954494D01*
X61898815Y-103051185D01*
X61995506Y-103130537D01*
X62105820Y-103189502D01*
X62225518Y-103225812D01*
X62331877Y-103236287D01*
X62282795Y-103309744D01*
X62204774Y-103498102D01*
X62165000Y-103698061D01*
X62165000Y-103901939D01*
X62204774Y-104101898D01*
X62282795Y-104290256D01*
X62396063Y-104459774D01*
X62540226Y-104603937D01*
X62709744Y-104717205D01*
X62898102Y-104795226D01*
X63098061Y-104835000D01*
X63301939Y-104835000D01*
X63501898Y-104795226D01*
X63690256Y-104717205D01*
X63859774Y-104603937D01*
X64003937Y-104459774D01*
X64090001Y-104330970D01*
X64090000Y-112323982D01*
X63998815Y-112398815D01*
X63919463Y-112495506D01*
X63860498Y-112605820D01*
X63824188Y-112725518D01*
X63811928Y-112850000D01*
X63811928Y-114750000D01*
X63824188Y-114874482D01*
X63860498Y-114994180D01*
X63919463Y-115104494D01*
X63998815Y-115201185D01*
X64011905Y-115211928D01*
X63500000Y-115211928D01*
X63375518Y-115224188D01*
X63255820Y-115260498D01*
X63145506Y-115319463D01*
X63048815Y-115398815D01*
X62969463Y-115495506D01*
X62910498Y-115605820D01*
X62874188Y-115725518D01*
X62861928Y-115850000D01*
X62861928Y-117750000D01*
X62874188Y-117874482D01*
X62910498Y-117994180D01*
X62969463Y-118104494D01*
X63048815Y-118201185D01*
X63140000Y-118276019D01*
X63140001Y-119561928D01*
X62550000Y-119561928D01*
X62425518Y-119574188D01*
X62305820Y-119610498D01*
X62195506Y-119669463D01*
X62098815Y-119748815D01*
X62019463Y-119845506D01*
X61960498Y-119955820D01*
X61924188Y-120075518D01*
X61911928Y-120200000D01*
X61911928Y-121000000D01*
X61924188Y-121124482D01*
X61960498Y-121244180D01*
X62019463Y-121354494D01*
X62098815Y-121451185D01*
X62195506Y-121530537D01*
X62305820Y-121589502D01*
X62425518Y-121625812D01*
X62550000Y-121638072D01*
X62740001Y-121638072D01*
X62740000Y-123261928D01*
X62650000Y-123261928D01*
X62525518Y-123274188D01*
X62405820Y-123310498D01*
X62295506Y-123369463D01*
X62198815Y-123448815D01*
X62119463Y-123545506D01*
X62060498Y-123655820D01*
X62024188Y-123775518D01*
X62011928Y-123900000D01*
X62011928Y-125900000D01*
X62024188Y-126024482D01*
X62060498Y-126144180D01*
X62119463Y-126254494D01*
X62198815Y-126351185D01*
X62295506Y-126430537D01*
X62405820Y-126489502D01*
X62525518Y-126525812D01*
X62650000Y-126538072D01*
X64350000Y-126538072D01*
X64474482Y-126525812D01*
X64594180Y-126489502D01*
X64704494Y-126430537D01*
X64801185Y-126351185D01*
X64880537Y-126254494D01*
X64939502Y-126144180D01*
X64975812Y-126024482D01*
X64988072Y-125900000D01*
X64988072Y-123900000D01*
X64975812Y-123775518D01*
X64939502Y-123655820D01*
X64880537Y-123545506D01*
X64801185Y-123448815D01*
X64704494Y-123369463D01*
X64594180Y-123310498D01*
X64474482Y-123274188D01*
X64350000Y-123261928D01*
X64260000Y-123261928D01*
X64260000Y-121638072D01*
X64450000Y-121638072D01*
X64574482Y-121625812D01*
X64694180Y-121589502D01*
X64804494Y-121530537D01*
X64901185Y-121451185D01*
X64911928Y-121438095D01*
X64911928Y-121950000D01*
X64924188Y-122074482D01*
X64960498Y-122194180D01*
X65019463Y-122304494D01*
X65098815Y-122401185D01*
X65195506Y-122480537D01*
X65305820Y-122539502D01*
X65425518Y-122575812D01*
X65550000Y-122588072D01*
X65940001Y-122588072D01*
X65940000Y-123334962D01*
X65855820Y-123360498D01*
X65745506Y-123419463D01*
X65648815Y-123498815D01*
X65569463Y-123595506D01*
X65510498Y-123705820D01*
X65474188Y-123825518D01*
X65461928Y-123950000D01*
X65461928Y-124850000D01*
X65474188Y-124974482D01*
X65510498Y-125094180D01*
X65569463Y-125204494D01*
X65648815Y-125301185D01*
X65745506Y-125380537D01*
X65855820Y-125439502D01*
X65975518Y-125475812D01*
X66100000Y-125488072D01*
X67300000Y-125488072D01*
X67424482Y-125475812D01*
X67544180Y-125439502D01*
X67654494Y-125380537D01*
X67751185Y-125301185D01*
X67830537Y-125204494D01*
X67889502Y-125094180D01*
X67925812Y-124974482D01*
X67938072Y-124850000D01*
X67938072Y-123950000D01*
X67925812Y-123825518D01*
X67889502Y-123705820D01*
X67830537Y-123595506D01*
X67751185Y-123498815D01*
X67654494Y-123419463D01*
X67544180Y-123360498D01*
X67460000Y-123334962D01*
X67460000Y-122587087D01*
X67574482Y-122575812D01*
X67694180Y-122539502D01*
X67804494Y-122480537D01*
X67901185Y-122401185D01*
X67976018Y-122310000D01*
X68250130Y-122310000D01*
X68260498Y-122344180D01*
X68319463Y-122454494D01*
X68398815Y-122551185D01*
X68495506Y-122630537D01*
X68605820Y-122689502D01*
X68725518Y-122725812D01*
X68850000Y-122738072D01*
X70550000Y-122738072D01*
X70674482Y-122725812D01*
X70794180Y-122689502D01*
X70904494Y-122630537D01*
X71001185Y-122551185D01*
X71080537Y-122454494D01*
X71139502Y-122344180D01*
X71175812Y-122224482D01*
X71188072Y-122100000D01*
X71188072Y-120100000D01*
X71175812Y-119975518D01*
X71139502Y-119855820D01*
X71080537Y-119745506D01*
X71001185Y-119648815D01*
X70904494Y-119569463D01*
X70794180Y-119510498D01*
X70674482Y-119474188D01*
X70550000Y-119461928D01*
X68850000Y-119461928D01*
X68725518Y-119474188D01*
X68605820Y-119510498D01*
X68495506Y-119569463D01*
X68398815Y-119648815D01*
X68319463Y-119745506D01*
X68260498Y-119855820D01*
X68224188Y-119975518D01*
X68211928Y-120100000D01*
X68211928Y-120790000D01*
X67976018Y-120790000D01*
X67901185Y-120698815D01*
X67804494Y-120619463D01*
X67768082Y-120600000D01*
X67804494Y-120580537D01*
X67901185Y-120501185D01*
X67980537Y-120404494D01*
X68039502Y-120294180D01*
X68075812Y-120174482D01*
X68088072Y-120050000D01*
X68088072Y-119250000D01*
X68075812Y-119125518D01*
X68039502Y-119005820D01*
X67980537Y-118895506D01*
X67901185Y-118798815D01*
X67804494Y-118719463D01*
X67694180Y-118660498D01*
X67692538Y-118660000D01*
X68061928Y-118660000D01*
X68061928Y-118750000D01*
X68074188Y-118874482D01*
X68110498Y-118994180D01*
X68169463Y-119104494D01*
X68248815Y-119201185D01*
X68345506Y-119280537D01*
X68455820Y-119339502D01*
X68575518Y-119375812D01*
X68700000Y-119388072D01*
X70700000Y-119388072D01*
X70824482Y-119375812D01*
X70944180Y-119339502D01*
X71054494Y-119280537D01*
X71151185Y-119201185D01*
X71230537Y-119104494D01*
X71289502Y-118994180D01*
X71325812Y-118874482D01*
X71338072Y-118750000D01*
X72061928Y-118750000D01*
X72074188Y-118874482D01*
X72110498Y-118994180D01*
X72169463Y-119104494D01*
X72248815Y-119201185D01*
X72345506Y-119280537D01*
X72455820Y-119339502D01*
X72575518Y-119375812D01*
X72700000Y-119388072D01*
X73414250Y-119385000D01*
X73573000Y-119226250D01*
X73573000Y-118027000D01*
X72223750Y-118027000D01*
X72065000Y-118185750D01*
X72061928Y-118750000D01*
X71338072Y-118750000D01*
X71338072Y-117050000D01*
X72061928Y-117050000D01*
X72065000Y-117614250D01*
X72223750Y-117773000D01*
X73573000Y-117773000D01*
X73573000Y-116573750D01*
X73827000Y-116573750D01*
X73827000Y-117773000D01*
X75176250Y-117773000D01*
X75335000Y-117614250D01*
X75338072Y-117050000D01*
X75325812Y-116925518D01*
X75289502Y-116805820D01*
X75230537Y-116695506D01*
X75151185Y-116598815D01*
X75054494Y-116519463D01*
X74944180Y-116460498D01*
X74824482Y-116424188D01*
X74700000Y-116411928D01*
X73985750Y-116415000D01*
X73827000Y-116573750D01*
X73573000Y-116573750D01*
X73414250Y-116415000D01*
X72700000Y-116411928D01*
X72575518Y-116424188D01*
X72455820Y-116460498D01*
X72345506Y-116519463D01*
X72248815Y-116598815D01*
X72169463Y-116695506D01*
X72110498Y-116805820D01*
X72074188Y-116925518D01*
X72061928Y-117050000D01*
X71338072Y-117050000D01*
X71325812Y-116925518D01*
X71289502Y-116805820D01*
X71230537Y-116695506D01*
X71151185Y-116598815D01*
X71054494Y-116519463D01*
X70944180Y-116460498D01*
X70824482Y-116424188D01*
X70700000Y-116411928D01*
X68700000Y-116411928D01*
X68575518Y-116424188D01*
X68455820Y-116460498D01*
X68345506Y-116519463D01*
X68248815Y-116598815D01*
X68169463Y-116695506D01*
X68110498Y-116805820D01*
X68074188Y-116925518D01*
X68061928Y-117050000D01*
X68061928Y-117140000D01*
X67214802Y-117140000D01*
X66838072Y-116763271D01*
X66838072Y-115850000D01*
X66825812Y-115725518D01*
X66789502Y-115605820D01*
X66730537Y-115495506D01*
X66651185Y-115398815D01*
X66554494Y-115319463D01*
X66444180Y-115260498D01*
X66324482Y-115224188D01*
X66200000Y-115211928D01*
X65688095Y-115211928D01*
X65701185Y-115201185D01*
X65780537Y-115104494D01*
X65839502Y-114994180D01*
X65875812Y-114874482D01*
X65888072Y-114750000D01*
X65888072Y-114560000D01*
X68161928Y-114560000D01*
X68161928Y-115250000D01*
X68174188Y-115374482D01*
X68210498Y-115494180D01*
X68269463Y-115604494D01*
X68348815Y-115701185D01*
X68445506Y-115780537D01*
X68555820Y-115839502D01*
X68675518Y-115875812D01*
X68800000Y-115888072D01*
X70800000Y-115888072D01*
X70924482Y-115875812D01*
X71044180Y-115839502D01*
X71154494Y-115780537D01*
X71251185Y-115701185D01*
X71330537Y-115604494D01*
X71389502Y-115494180D01*
X71425812Y-115374482D01*
X71438072Y-115250000D01*
X71438072Y-115054326D01*
X71474276Y-115034974D01*
X71590001Y-114940001D01*
X71613804Y-114910997D01*
X72161928Y-114362873D01*
X72161928Y-115250000D01*
X72174188Y-115374482D01*
X72210498Y-115494180D01*
X72269463Y-115604494D01*
X72348815Y-115701185D01*
X72445506Y-115780537D01*
X72555820Y-115839502D01*
X72675518Y-115875812D01*
X72800000Y-115888072D01*
X74800000Y-115888072D01*
X74924482Y-115875812D01*
X75044180Y-115839502D01*
X75154494Y-115780537D01*
X75251185Y-115701185D01*
X75330537Y-115604494D01*
X75389502Y-115494180D01*
X75418301Y-115399244D01*
X75598061Y-115435000D01*
X75801939Y-115435000D01*
X76001898Y-115395226D01*
X76190256Y-115317205D01*
X76359774Y-115203937D01*
X76503937Y-115059774D01*
X76617205Y-114890256D01*
X76695226Y-114701898D01*
X76735000Y-114501939D01*
X76735000Y-114298061D01*
X76695226Y-114098102D01*
X76617205Y-113909744D01*
X76503937Y-113740226D01*
X76359774Y-113596063D01*
X76343219Y-113585001D01*
X77587677Y-113585001D01*
X77624999Y-113588677D01*
X77662321Y-113585001D01*
X77662332Y-113585001D01*
X77773985Y-113574004D01*
X77917246Y-113530547D01*
X78049275Y-113459975D01*
X78165000Y-113365002D01*
X78188802Y-113335999D01*
X79278439Y-112246363D01*
X79375518Y-112275812D01*
X79500000Y-112288072D01*
X80700000Y-112288072D01*
X80824482Y-112275812D01*
X80944180Y-112239502D01*
X81054494Y-112180537D01*
X81151185Y-112101185D01*
X81230537Y-112004494D01*
X81289502Y-111894180D01*
X81325812Y-111774482D01*
X81338072Y-111650000D01*
X81338072Y-110750000D01*
X81325812Y-110625518D01*
X81289502Y-110505820D01*
X81230537Y-110395506D01*
X81151185Y-110298815D01*
X81080098Y-110240475D01*
X81765000Y-110240475D01*
X81765000Y-110759525D01*
X81866261Y-111268601D01*
X82064893Y-111748141D01*
X82353262Y-112179715D01*
X82720285Y-112546738D01*
X83151859Y-112835107D01*
X83631399Y-113033739D01*
X84140475Y-113135000D01*
X84659525Y-113135000D01*
X85168601Y-113033739D01*
X85648141Y-112835107D01*
X86079715Y-112546738D01*
X86446738Y-112179715D01*
X86735107Y-111748141D01*
X86933739Y-111268601D01*
X87035000Y-110759525D01*
X87035000Y-110240475D01*
X86933739Y-109731399D01*
X86735107Y-109251859D01*
X86446738Y-108820285D01*
X86079715Y-108453262D01*
X85648141Y-108164893D01*
X85168601Y-107966261D01*
X84659525Y-107865000D01*
X84140475Y-107865000D01*
X83631399Y-107966261D01*
X83151859Y-108164893D01*
X82720285Y-108453262D01*
X82353262Y-108820285D01*
X82064893Y-109251859D01*
X81866261Y-109731399D01*
X81765000Y-110240475D01*
X81080098Y-110240475D01*
X81054494Y-110219463D01*
X80944180Y-110160498D01*
X80824482Y-110124188D01*
X80700000Y-110111928D01*
X79500000Y-110111928D01*
X79375518Y-110124188D01*
X79255820Y-110160498D01*
X79145506Y-110219463D01*
X79048815Y-110298815D01*
X78969463Y-110395506D01*
X78910498Y-110505820D01*
X78905468Y-110522401D01*
X78825724Y-110565026D01*
X78825722Y-110565027D01*
X78825723Y-110565027D01*
X78738996Y-110636201D01*
X78738992Y-110636205D01*
X78709999Y-110659999D01*
X78686205Y-110688992D01*
X78140478Y-111234719D01*
X78235000Y-110759525D01*
X78235000Y-110240475D01*
X78133739Y-109731399D01*
X77935107Y-109251859D01*
X77646738Y-108820285D01*
X77279715Y-108453262D01*
X76848141Y-108164893D01*
X76368601Y-107966261D01*
X75859525Y-107865000D01*
X75340475Y-107865000D01*
X74831399Y-107966261D01*
X74351859Y-108164893D01*
X73920285Y-108453262D01*
X73553262Y-108820285D01*
X73264893Y-109251859D01*
X73066261Y-109731399D01*
X72965000Y-110240475D01*
X72965000Y-110759525D01*
X73066261Y-111268601D01*
X73264893Y-111748141D01*
X73476612Y-112065001D01*
X72662322Y-112065001D01*
X72624999Y-112061325D01*
X72587676Y-112065001D01*
X72587666Y-112065001D01*
X72476013Y-112075998D01*
X72332752Y-112119455D01*
X72200722Y-112190027D01*
X72117082Y-112258669D01*
X72084998Y-112285000D01*
X72061200Y-112313998D01*
X71262543Y-113112655D01*
X71251185Y-113098815D01*
X71154494Y-113019463D01*
X71044180Y-112960498D01*
X70924482Y-112924188D01*
X70800000Y-112911928D01*
X68800000Y-112911928D01*
X68675518Y-112924188D01*
X68555820Y-112960498D01*
X68445506Y-113019463D01*
X68420482Y-113040000D01*
X65888072Y-113040000D01*
X65888072Y-112850000D01*
X65875812Y-112725518D01*
X65839502Y-112605820D01*
X65780537Y-112495506D01*
X65701185Y-112398815D01*
X65610000Y-112323982D01*
X65610000Y-110400000D01*
X69011928Y-110400000D01*
X69024188Y-110524482D01*
X69060498Y-110644180D01*
X69119463Y-110754494D01*
X69198815Y-110851185D01*
X69295506Y-110930537D01*
X69405820Y-110989502D01*
X69525518Y-111025812D01*
X69650000Y-111038072D01*
X70214250Y-111035000D01*
X70373000Y-110876250D01*
X70373000Y-109527000D01*
X70627000Y-109527000D01*
X70627000Y-110876250D01*
X70785750Y-111035000D01*
X71350000Y-111038072D01*
X71474482Y-111025812D01*
X71594180Y-110989502D01*
X71704494Y-110930537D01*
X71801185Y-110851185D01*
X71880537Y-110754494D01*
X71939502Y-110644180D01*
X71975812Y-110524482D01*
X71988072Y-110400000D01*
X71985000Y-109685750D01*
X71826250Y-109527000D01*
X70627000Y-109527000D01*
X70373000Y-109527000D01*
X69173750Y-109527000D01*
X69015000Y-109685750D01*
X69011928Y-110400000D01*
X65610000Y-110400000D01*
X65610000Y-108400000D01*
X69011928Y-108400000D01*
X69015000Y-109114250D01*
X69173750Y-109273000D01*
X70373000Y-109273000D01*
X70373000Y-107923750D01*
X70627000Y-107923750D01*
X70627000Y-109273000D01*
X71826250Y-109273000D01*
X71985000Y-109114250D01*
X71988072Y-108400000D01*
X71975812Y-108275518D01*
X71939502Y-108155820D01*
X71880537Y-108045506D01*
X71801185Y-107948815D01*
X71704494Y-107869463D01*
X71594180Y-107810498D01*
X71474482Y-107774188D01*
X71350000Y-107761928D01*
X70785750Y-107765000D01*
X70627000Y-107923750D01*
X70373000Y-107923750D01*
X70214250Y-107765000D01*
X69650000Y-107761928D01*
X69525518Y-107774188D01*
X69405820Y-107810498D01*
X69295506Y-107869463D01*
X69198815Y-107948815D01*
X69119463Y-108045506D01*
X69060498Y-108155820D01*
X69024188Y-108275518D01*
X69011928Y-108400000D01*
X65610000Y-108400000D01*
X65610000Y-103864801D01*
X65936729Y-103538072D01*
X67500000Y-103538072D01*
X67624482Y-103525812D01*
X67744180Y-103489502D01*
X67854494Y-103430537D01*
X67951185Y-103351185D01*
X68030537Y-103254494D01*
X68089502Y-103144180D01*
X68125812Y-103024482D01*
X68138072Y-102900000D01*
X68138072Y-101300000D01*
X68125812Y-101175518D01*
X68089502Y-101055820D01*
X68030537Y-100945506D01*
X67951185Y-100848815D01*
X67854958Y-100769844D01*
X69227281Y-99397521D01*
X69305820Y-99439502D01*
X69425518Y-99475812D01*
X69550000Y-99488072D01*
X69740000Y-99488072D01*
X69740001Y-100661928D01*
X69500000Y-100661928D01*
X69375518Y-100674188D01*
X69255820Y-100710498D01*
X69145506Y-100769463D01*
X69048815Y-100848815D01*
X68969463Y-100945506D01*
X68910498Y-101055820D01*
X68874188Y-101175518D01*
X68861928Y-101300000D01*
X68861928Y-102900000D01*
X68874188Y-103024482D01*
X68910498Y-103144180D01*
X68969463Y-103254494D01*
X69048815Y-103351185D01*
X69145506Y-103430537D01*
X69255820Y-103489502D01*
X69375518Y-103525812D01*
X69500000Y-103538072D01*
X69740000Y-103538072D01*
X69740000Y-103761928D01*
X69650000Y-103761928D01*
X69525518Y-103774188D01*
X69405820Y-103810498D01*
X69295506Y-103869463D01*
X69198815Y-103948815D01*
X69119463Y-104045506D01*
X69060498Y-104155820D01*
X69024188Y-104275518D01*
X69011928Y-104400000D01*
X69011928Y-106400000D01*
X69024188Y-106524482D01*
X69060498Y-106644180D01*
X69119463Y-106754494D01*
X69198815Y-106851185D01*
X69295506Y-106930537D01*
X69405820Y-106989502D01*
X69525518Y-107025812D01*
X69650000Y-107038072D01*
X71350000Y-107038072D01*
X71474482Y-107025812D01*
X71594180Y-106989502D01*
X71704494Y-106930537D01*
X71801185Y-106851185D01*
X71880537Y-106754494D01*
X71939502Y-106644180D01*
X71975812Y-106524482D01*
X71988072Y-106400000D01*
X71988072Y-104400000D01*
X71975812Y-104275518D01*
X71939502Y-104155820D01*
X71880537Y-104045506D01*
X71801185Y-103948815D01*
X71704494Y-103869463D01*
X71594180Y-103810498D01*
X71474482Y-103774188D01*
X71350000Y-103761928D01*
X71260000Y-103761928D01*
X71260000Y-103538072D01*
X71500000Y-103538072D01*
X71624482Y-103525812D01*
X71744180Y-103489502D01*
X71854494Y-103430537D01*
X71951185Y-103351185D01*
X72030537Y-103254494D01*
X72089502Y-103144180D01*
X72125812Y-103024482D01*
X72138072Y-102900000D01*
X72138072Y-101300000D01*
X72125812Y-101175518D01*
X72089502Y-101055820D01*
X72030537Y-100945506D01*
X71951185Y-100848815D01*
X71854494Y-100769463D01*
X71744180Y-100710498D01*
X71624482Y-100674188D01*
X71500000Y-100661928D01*
X71260000Y-100661928D01*
X71260000Y-99488072D01*
X71450000Y-99488072D01*
X71574482Y-99475812D01*
X71694180Y-99439502D01*
X71804494Y-99380537D01*
X71901185Y-99301185D01*
X71980537Y-99204494D01*
X72039502Y-99094180D01*
X72075812Y-98974482D01*
X72088072Y-98850000D01*
X72088072Y-98050000D01*
X72075812Y-97925518D01*
X72039502Y-97805820D01*
X71980537Y-97695506D01*
X71901185Y-97598815D01*
X71804494Y-97519463D01*
X71768082Y-97500000D01*
X71804494Y-97480537D01*
X71901185Y-97401185D01*
X71980537Y-97304494D01*
X72039502Y-97194180D01*
X72075812Y-97074482D01*
X72088072Y-96950000D01*
X72085000Y-96835750D01*
X71926250Y-96677000D01*
X70627000Y-96677000D01*
X70627000Y-96697000D01*
X70373000Y-96697000D01*
X70373000Y-96677000D01*
X70353000Y-96677000D01*
X70353000Y-96423000D01*
X70373000Y-96423000D01*
X70373000Y-96403000D01*
X70627000Y-96403000D01*
X70627000Y-96423000D01*
X71926250Y-96423000D01*
X72085000Y-96264250D01*
X72088072Y-96150000D01*
X72075812Y-96025518D01*
X72039502Y-95905820D01*
X71980537Y-95795506D01*
X71901185Y-95698815D01*
X71804494Y-95619463D01*
X71694180Y-95560498D01*
X71574482Y-95524188D01*
X71450000Y-95511928D01*
X71344857Y-95512414D01*
X71404494Y-95480537D01*
X71501185Y-95401185D01*
X71580537Y-95304494D01*
X71639502Y-95194180D01*
X71675812Y-95074482D01*
X71688072Y-94950000D01*
X71688072Y-94760000D01*
X73685199Y-94760000D01*
X76016268Y-97091071D01*
X75965000Y-97348816D01*
X75965000Y-97651184D01*
X76023989Y-97947743D01*
X76139701Y-98227095D01*
X76307688Y-98478505D01*
X76521495Y-98692312D01*
X76772905Y-98860299D01*
X77052257Y-98976011D01*
X77348816Y-99035000D01*
X77651184Y-99035000D01*
X77947743Y-98976011D01*
X78227095Y-98860299D01*
X78478505Y-98692312D01*
X78692312Y-98478505D01*
X78750000Y-98392169D01*
X78807688Y-98478505D01*
X79021495Y-98692312D01*
X79272905Y-98860299D01*
X79552257Y-98976011D01*
X79848816Y-99035000D01*
X80151184Y-99035000D01*
X80408930Y-98983731D01*
X81836200Y-100411002D01*
X81859999Y-100440001D01*
X81888997Y-100463799D01*
X81975724Y-100534974D01*
X82107753Y-100605546D01*
X82251014Y-100649003D01*
X82400000Y-100663677D01*
X82437333Y-100660000D01*
X86385199Y-100660000D01*
X87889990Y-102164792D01*
X87889991Y-108902658D01*
X87886314Y-108939990D01*
X87900988Y-109088975D01*
X87944444Y-109232236D01*
X88015016Y-109364266D01*
X88065526Y-109425812D01*
X88109990Y-109479991D01*
X88138988Y-109503789D01*
X89811928Y-111176730D01*
X89811928Y-111340000D01*
X89824188Y-111464482D01*
X89860498Y-111584180D01*
X89909043Y-111675000D01*
X89860498Y-111765820D01*
X89824188Y-111885518D01*
X89811928Y-112010000D01*
X89811928Y-112610000D01*
X89824188Y-112734482D01*
X89849623Y-112818330D01*
X89832667Y-112820000D01*
X89721014Y-112830997D01*
X89577753Y-112874454D01*
X89445724Y-112945026D01*
X89329999Y-113039999D01*
X89306201Y-113068997D01*
X88862543Y-113512655D01*
X88851185Y-113498815D01*
X88754494Y-113419463D01*
X88644180Y-113360498D01*
X88524482Y-113324188D01*
X88400000Y-113311928D01*
X86400000Y-113311928D01*
X86275518Y-113324188D01*
X86155820Y-113360498D01*
X86045506Y-113419463D01*
X85948815Y-113498815D01*
X85869463Y-113595506D01*
X85810498Y-113705820D01*
X85774188Y-113825518D01*
X85761928Y-113950000D01*
X85761928Y-115650000D01*
X85774188Y-115774482D01*
X85810498Y-115894180D01*
X85869463Y-116004494D01*
X85948815Y-116101185D01*
X86045506Y-116180537D01*
X86155820Y-116239502D01*
X86275518Y-116275812D01*
X86400000Y-116288072D01*
X88400000Y-116288072D01*
X88524482Y-116275812D01*
X88644180Y-116239502D01*
X88754494Y-116180537D01*
X88851185Y-116101185D01*
X88930537Y-116004494D01*
X88989502Y-115894180D01*
X89025812Y-115774482D01*
X89038072Y-115650000D01*
X89038072Y-115454326D01*
X89074276Y-115434974D01*
X89190001Y-115340001D01*
X89213804Y-115310997D01*
X89811928Y-114712874D01*
X89811928Y-115150000D01*
X89824188Y-115274482D01*
X89860498Y-115394180D01*
X89909043Y-115485000D01*
X89860498Y-115575820D01*
X89824188Y-115695518D01*
X89811928Y-115820000D01*
X89811928Y-116420000D01*
X89824188Y-116544482D01*
X89860498Y-116664180D01*
X89919463Y-116774494D01*
X89998815Y-116871185D01*
X90095506Y-116950537D01*
X90205820Y-117009502D01*
X90325518Y-117045812D01*
X90450000Y-117058072D01*
X90740001Y-117058072D01*
X90740000Y-117196289D01*
X90696063Y-117240226D01*
X90582795Y-117409744D01*
X90504774Y-117598102D01*
X90465000Y-117798061D01*
X90465000Y-118001939D01*
X90504774Y-118201898D01*
X90582795Y-118390256D01*
X90664093Y-118511928D01*
X90500000Y-118511928D01*
X90375518Y-118524188D01*
X90255820Y-118560498D01*
X90145506Y-118619463D01*
X90048815Y-118698815D01*
X89969463Y-118795506D01*
X89910498Y-118905820D01*
X89874188Y-119025518D01*
X89861928Y-119150000D01*
X89861928Y-120850000D01*
X89874188Y-120974482D01*
X89910498Y-121094180D01*
X89969463Y-121204494D01*
X90048815Y-121301185D01*
X90145506Y-121380537D01*
X90255820Y-121439502D01*
X90375518Y-121475812D01*
X90500000Y-121488072D01*
X91687127Y-121488072D01*
X91635199Y-121540000D01*
X83264802Y-121540000D01*
X81113804Y-119389003D01*
X81090001Y-119359999D01*
X80974276Y-119265026D01*
X80894532Y-119222401D01*
X80889502Y-119205820D01*
X80830537Y-119095506D01*
X80751185Y-118998815D01*
X80654494Y-118919463D01*
X80623831Y-118903073D01*
X80727095Y-118860299D01*
X80978505Y-118692312D01*
X81192312Y-118478505D01*
X81250000Y-118392169D01*
X81307688Y-118478505D01*
X81521495Y-118692312D01*
X81772905Y-118860299D01*
X82052257Y-118976011D01*
X82348816Y-119035000D01*
X82651184Y-119035000D01*
X82947743Y-118976011D01*
X83227095Y-118860299D01*
X83478505Y-118692312D01*
X83692312Y-118478505D01*
X83860299Y-118227095D01*
X83976011Y-117947743D01*
X84035000Y-117651184D01*
X84035000Y-117348816D01*
X83976011Y-117052257D01*
X83860299Y-116772905D01*
X83692312Y-116521495D01*
X83478505Y-116307688D01*
X83449148Y-116288072D01*
X84400000Y-116288072D01*
X84524482Y-116275812D01*
X84644180Y-116239502D01*
X84754494Y-116180537D01*
X84851185Y-116101185D01*
X84930537Y-116004494D01*
X84989502Y-115894180D01*
X85025812Y-115774482D01*
X85038072Y-115650000D01*
X85038072Y-113950000D01*
X85025812Y-113825518D01*
X84989502Y-113705820D01*
X84930537Y-113595506D01*
X84851185Y-113498815D01*
X84754494Y-113419463D01*
X84644180Y-113360498D01*
X84524482Y-113324188D01*
X84400000Y-113311928D01*
X82400000Y-113311928D01*
X82275518Y-113324188D01*
X82155820Y-113360498D01*
X82045506Y-113419463D01*
X81948815Y-113498815D01*
X81869463Y-113595506D01*
X81810498Y-113705820D01*
X81774188Y-113825518D01*
X81761928Y-113950000D01*
X81761928Y-114663270D01*
X81314968Y-115110231D01*
X81325812Y-115074482D01*
X81338072Y-114950000D01*
X81338072Y-114050000D01*
X81325812Y-113925518D01*
X81289502Y-113805820D01*
X81230537Y-113695506D01*
X81151185Y-113598815D01*
X81054494Y-113519463D01*
X80944180Y-113460498D01*
X80824482Y-113424188D01*
X80700000Y-113411928D01*
X79500000Y-113411928D01*
X79375518Y-113424188D01*
X79255820Y-113460498D01*
X79145506Y-113519463D01*
X79048815Y-113598815D01*
X78969463Y-113695506D01*
X78910498Y-113805820D01*
X78874188Y-113925518D01*
X78861928Y-114050000D01*
X78861928Y-114950000D01*
X78872084Y-115053115D01*
X77908930Y-116016269D01*
X77651184Y-115965000D01*
X77348816Y-115965000D01*
X77052257Y-116023989D01*
X76772905Y-116139701D01*
X76521495Y-116307688D01*
X76307688Y-116521495D01*
X76139701Y-116772905D01*
X76023989Y-117052257D01*
X75965000Y-117348816D01*
X75965000Y-117651184D01*
X76023989Y-117947743D01*
X76139701Y-118227095D01*
X76307688Y-118478505D01*
X76521495Y-118692312D01*
X76772905Y-118860299D01*
X77052257Y-118976011D01*
X77348816Y-119035000D01*
X77651184Y-119035000D01*
X77947743Y-118976011D01*
X78227095Y-118860299D01*
X78478505Y-118692312D01*
X78692312Y-118478505D01*
X78750000Y-118392169D01*
X78807688Y-118478505D01*
X79021495Y-118692312D01*
X79200513Y-118811928D01*
X79100000Y-118811928D01*
X78975518Y-118824188D01*
X78855820Y-118860498D01*
X78745506Y-118919463D01*
X78648815Y-118998815D01*
X78569463Y-119095506D01*
X78510498Y-119205820D01*
X78474188Y-119325518D01*
X78461928Y-119450000D01*
X78461928Y-119470000D01*
X76338313Y-119470000D01*
X76192312Y-119251495D01*
X75978505Y-119037688D01*
X75727095Y-118869701D01*
X75447743Y-118753989D01*
X75337975Y-118732155D01*
X75335000Y-118185750D01*
X75176250Y-118027000D01*
X73827000Y-118027000D01*
X73827000Y-119226250D01*
X73829967Y-119229217D01*
X73807688Y-119251495D01*
X73639701Y-119502905D01*
X73523989Y-119782257D01*
X73465000Y-120078816D01*
X73465000Y-120381184D01*
X73523989Y-120677743D01*
X73639701Y-120957095D01*
X73807688Y-121208505D01*
X73874127Y-121274944D01*
X73855820Y-121280498D01*
X73745506Y-121339463D01*
X73648815Y-121418815D01*
X73569463Y-121515506D01*
X73510498Y-121625820D01*
X73474188Y-121745518D01*
X73461928Y-121870000D01*
X73461928Y-123670000D01*
X73474188Y-123794482D01*
X73510498Y-123914180D01*
X73564383Y-124014990D01*
X71179700Y-124014990D01*
X71175812Y-123975518D01*
X71139502Y-123855820D01*
X71080537Y-123745506D01*
X71001185Y-123648815D01*
X70904494Y-123569463D01*
X70794180Y-123510498D01*
X70674482Y-123474188D01*
X70550000Y-123461928D01*
X68850000Y-123461928D01*
X68725518Y-123474188D01*
X68605820Y-123510498D01*
X68495506Y-123569463D01*
X68398815Y-123648815D01*
X68319463Y-123745506D01*
X68260498Y-123855820D01*
X68224188Y-123975518D01*
X68211928Y-124100000D01*
X68211928Y-126100000D01*
X68224188Y-126224482D01*
X68260498Y-126344180D01*
X68319463Y-126454494D01*
X68398815Y-126551185D01*
X68495506Y-126630537D01*
X68605820Y-126689502D01*
X68725518Y-126725812D01*
X68850000Y-126738072D01*
X68940000Y-126738072D01*
X68940000Y-127561928D01*
X68850000Y-127561928D01*
X68725518Y-127574188D01*
X68605820Y-127610498D01*
X68495506Y-127669463D01*
X68398815Y-127748815D01*
X68319463Y-127845506D01*
X68260498Y-127955820D01*
X68224188Y-128075518D01*
X68211928Y-128200000D01*
X68211928Y-130200000D01*
X68224188Y-130324482D01*
X68260498Y-130444180D01*
X68319463Y-130554494D01*
X68398815Y-130651185D01*
X68495506Y-130730537D01*
X68605820Y-130789502D01*
X68725518Y-130825812D01*
X68850000Y-130838072D01*
X70550000Y-130838072D01*
X70674482Y-130825812D01*
X70794180Y-130789502D01*
X70904494Y-130730537D01*
X71001185Y-130651185D01*
X71080537Y-130554494D01*
X71139502Y-130444180D01*
X71175812Y-130324482D01*
X71188072Y-130200000D01*
X71188072Y-128200000D01*
X71175812Y-128075518D01*
X71139502Y-127955820D01*
X71080537Y-127845506D01*
X71001185Y-127748815D01*
X70904494Y-127669463D01*
X70794180Y-127610498D01*
X70674482Y-127574188D01*
X70550000Y-127561928D01*
X70460000Y-127561928D01*
X70460000Y-126738072D01*
X70550000Y-126738072D01*
X70674482Y-126725812D01*
X70794180Y-126689502D01*
X70904494Y-126630537D01*
X71001185Y-126551185D01*
X71080537Y-126454494D01*
X71139502Y-126344180D01*
X71175812Y-126224482D01*
X71188072Y-126100000D01*
X71188072Y-125754326D01*
X71224276Y-125734974D01*
X71340001Y-125640001D01*
X71363804Y-125610997D01*
X71439811Y-125534990D01*
X72315912Y-125534990D01*
X72309509Y-125600000D01*
X72331423Y-125822499D01*
X72396324Y-126036447D01*
X72501716Y-126233623D01*
X72643551Y-126406449D01*
X72816377Y-126548284D01*
X73013553Y-126653676D01*
X73227501Y-126718577D01*
X73394248Y-126735000D01*
X73610199Y-126735000D01*
X77665399Y-130790201D01*
X77665000Y-130794249D01*
X77665000Y-132005752D01*
X77681423Y-132172499D01*
X77746324Y-132386447D01*
X77851717Y-132583623D01*
X77993552Y-132756449D01*
X78166378Y-132898284D01*
X78363554Y-133003676D01*
X78577502Y-133068577D01*
X78800000Y-133090491D01*
X79022499Y-133068577D01*
X79236447Y-133003676D01*
X79433623Y-132898284D01*
X79606449Y-132756449D01*
X79748284Y-132583623D01*
X79853676Y-132386447D01*
X79918577Y-132172499D01*
X79935000Y-132005752D01*
X79935000Y-130794248D01*
X79934601Y-130790200D01*
X81564802Y-129160000D01*
X82261928Y-129160000D01*
X82261928Y-129250000D01*
X82274188Y-129374482D01*
X82310498Y-129494180D01*
X82369463Y-129604494D01*
X82448815Y-129701185D01*
X82545506Y-129780537D01*
X82655820Y-129839502D01*
X82775518Y-129875812D01*
X82900000Y-129888072D01*
X84900000Y-129888072D01*
X85024482Y-129875812D01*
X85144180Y-129839502D01*
X85254494Y-129780537D01*
X85351185Y-129701185D01*
X85430537Y-129604494D01*
X85489502Y-129494180D01*
X85525812Y-129374482D01*
X85538072Y-129250000D01*
X85538072Y-127662874D01*
X85814999Y-127939801D01*
X85815000Y-129887667D01*
X85811323Y-129924999D01*
X85815000Y-129962332D01*
X85825997Y-130073985D01*
X85829740Y-130086323D01*
X85869453Y-130217245D01*
X85940025Y-130349275D01*
X86011200Y-130436001D01*
X86034999Y-130465000D01*
X86063997Y-130488798D01*
X87486205Y-131911008D01*
X87509999Y-131940001D01*
X87538992Y-131963795D01*
X87538996Y-131963799D01*
X87590117Y-132005752D01*
X87625724Y-132034974D01*
X87670221Y-132058758D01*
X87681423Y-132172499D01*
X87746324Y-132386447D01*
X87851717Y-132583623D01*
X87993552Y-132756449D01*
X88166378Y-132898284D01*
X88363554Y-133003676D01*
X88577502Y-133068577D01*
X88800000Y-133090491D01*
X89022499Y-133068577D01*
X89236447Y-133003676D01*
X89433623Y-132898284D01*
X89606449Y-132756449D01*
X89748284Y-132583623D01*
X89853676Y-132386447D01*
X89918577Y-132172499D01*
X89935000Y-132005752D01*
X89935000Y-130794248D01*
X89918577Y-130627501D01*
X89853676Y-130413553D01*
X89748284Y-130216377D01*
X89606449Y-130043551D01*
X89433623Y-129901716D01*
X89243324Y-129800000D01*
X95961928Y-129800000D01*
X95974188Y-129924482D01*
X96010498Y-130044180D01*
X96069463Y-130154494D01*
X96148815Y-130251185D01*
X96245506Y-130330537D01*
X96355820Y-130389502D01*
X96475518Y-130425812D01*
X96600000Y-130438072D01*
X97114250Y-130435000D01*
X97273000Y-130276250D01*
X97273000Y-128927000D01*
X97527000Y-128927000D01*
X97527000Y-130276250D01*
X97685750Y-130435000D01*
X98200000Y-130438072D01*
X98324482Y-130425812D01*
X98444180Y-130389502D01*
X98554494Y-130330537D01*
X98651185Y-130251185D01*
X98730537Y-130154494D01*
X98789502Y-130044180D01*
X98825812Y-129924482D01*
X98838072Y-129800000D01*
X98835000Y-129085750D01*
X98676250Y-128927000D01*
X97527000Y-128927000D01*
X97273000Y-128927000D01*
X96123750Y-128927000D01*
X95965000Y-129085750D01*
X95961928Y-129800000D01*
X89243324Y-129800000D01*
X89236446Y-129796324D01*
X89229118Y-129794101D01*
X89254494Y-129780537D01*
X89351185Y-129701185D01*
X89430537Y-129604494D01*
X89489502Y-129494180D01*
X89525812Y-129374482D01*
X89538072Y-129250000D01*
X89538072Y-129169315D01*
X89609744Y-129217205D01*
X89798102Y-129295226D01*
X89998061Y-129335000D01*
X90201939Y-129335000D01*
X90401898Y-129295226D01*
X90590256Y-129217205D01*
X90759774Y-129103937D01*
X90903937Y-128959774D01*
X91017205Y-128790256D01*
X91095226Y-128601898D01*
X91135000Y-128401939D01*
X91135000Y-128198061D01*
X91095226Y-127998102D01*
X91017205Y-127809744D01*
X91010695Y-127800000D01*
X95961928Y-127800000D01*
X95965000Y-128514250D01*
X96123750Y-128673000D01*
X97273000Y-128673000D01*
X97273000Y-127323750D01*
X97527000Y-127323750D01*
X97527000Y-128673000D01*
X98676250Y-128673000D01*
X98835000Y-128514250D01*
X98838072Y-127800000D01*
X98825812Y-127675518D01*
X98789502Y-127555820D01*
X98730537Y-127445506D01*
X98651185Y-127348815D01*
X98554494Y-127269463D01*
X98444180Y-127210498D01*
X98324482Y-127174188D01*
X98200000Y-127161928D01*
X97685750Y-127165000D01*
X97527000Y-127323750D01*
X97273000Y-127323750D01*
X97114250Y-127165000D01*
X96600000Y-127161928D01*
X96475518Y-127174188D01*
X96355820Y-127210498D01*
X96245506Y-127269463D01*
X96148815Y-127348815D01*
X96069463Y-127445506D01*
X96010498Y-127555820D01*
X95974188Y-127675518D01*
X95961928Y-127800000D01*
X91010695Y-127800000D01*
X90903937Y-127640226D01*
X90759774Y-127496063D01*
X90590256Y-127382795D01*
X90401898Y-127304774D01*
X90201939Y-127265000D01*
X89998061Y-127265000D01*
X89798102Y-127304774D01*
X89609744Y-127382795D01*
X89527046Y-127438052D01*
X89525812Y-127425518D01*
X89489502Y-127305820D01*
X89430537Y-127195506D01*
X89351185Y-127098815D01*
X89254494Y-127019463D01*
X89144180Y-126960498D01*
X89024482Y-126924188D01*
X88900000Y-126911928D01*
X86936730Y-126911928D01*
X85684601Y-125659800D01*
X85690491Y-125600000D01*
X85668577Y-125377501D01*
X85603676Y-125163553D01*
X85498284Y-124966377D01*
X85356449Y-124793551D01*
X85183623Y-124651716D01*
X84986447Y-124546324D01*
X84772499Y-124481423D01*
X84605752Y-124465000D01*
X83394248Y-124465000D01*
X83227501Y-124481423D01*
X83013553Y-124546324D01*
X82822985Y-124648184D01*
X82438793Y-124263992D01*
X82414991Y-124234989D01*
X82299266Y-124140016D01*
X82167237Y-124069444D01*
X82023976Y-124025987D01*
X81912323Y-124014990D01*
X81912312Y-124014990D01*
X81874990Y-124011314D01*
X81837668Y-124014990D01*
X80821923Y-124014990D01*
X80830537Y-124004494D01*
X80854320Y-123960000D01*
X95162678Y-123960000D01*
X95200000Y-123963676D01*
X95237322Y-123960000D01*
X95237333Y-123960000D01*
X95348986Y-123949003D01*
X95492247Y-123905546D01*
X95624276Y-123834974D01*
X95740001Y-123740001D01*
X95763804Y-123710997D01*
X97640001Y-121834801D01*
X97640001Y-122235197D01*
X96889002Y-122986196D01*
X96859999Y-123009999D01*
X96817121Y-123062247D01*
X96765026Y-123125724D01*
X96745674Y-123161928D01*
X96600000Y-123161928D01*
X96475518Y-123174188D01*
X96355820Y-123210498D01*
X96245506Y-123269463D01*
X96148815Y-123348815D01*
X96069463Y-123445506D01*
X96010498Y-123555820D01*
X95974188Y-123675518D01*
X95961928Y-123800000D01*
X95961928Y-125800000D01*
X95974188Y-125924482D01*
X96010498Y-126044180D01*
X96069463Y-126154494D01*
X96148815Y-126251185D01*
X96245506Y-126330537D01*
X96355820Y-126389502D01*
X96475518Y-126425812D01*
X96600000Y-126438072D01*
X98200000Y-126438072D01*
X98324482Y-126425812D01*
X98444180Y-126389502D01*
X98554494Y-126330537D01*
X98651185Y-126251185D01*
X98730537Y-126154494D01*
X98789502Y-126044180D01*
X98825812Y-125924482D01*
X98838072Y-125800000D01*
X98838072Y-123800000D01*
X98825812Y-123675518D01*
X98789502Y-123555820D01*
X98730537Y-123445506D01*
X98662364Y-123362437D01*
X98911003Y-123113799D01*
X98940001Y-123090001D01*
X99034974Y-122974276D01*
X99105546Y-122842247D01*
X99149003Y-122698986D01*
X99160000Y-122587333D01*
X99163677Y-122550000D01*
X99160000Y-122512667D01*
X99160000Y-113697322D01*
X99163676Y-113659999D01*
X99160000Y-113622676D01*
X99160000Y-113622667D01*
X99149003Y-113511014D01*
X99105546Y-113367753D01*
X99034974Y-113235724D01*
X98940001Y-113119999D01*
X98911004Y-113096202D01*
X98124802Y-112310000D01*
X98411004Y-112023798D01*
X98440001Y-112000001D01*
X98534974Y-111884276D01*
X98605546Y-111752247D01*
X98649003Y-111608986D01*
X98660000Y-111497333D01*
X98660000Y-111497332D01*
X98663677Y-111460000D01*
X98660000Y-111422667D01*
X98660000Y-76632406D01*
X98663676Y-76595081D01*
X98660000Y-76557756D01*
X98660000Y-76557748D01*
X98649003Y-76446095D01*
X98607484Y-76309224D01*
X98722134Y-76215134D01*
X98907706Y-75989014D01*
X99045599Y-75731034D01*
X99130513Y-75451111D01*
X99159185Y-75160000D01*
X99130513Y-74868889D01*
X99045599Y-74588966D01*
X98907706Y-74330986D01*
X98722134Y-74104866D01*
X98496014Y-73919294D01*
X98296913Y-73812872D01*
X98510588Y-73620269D01*
X98684641Y-73386920D01*
X98809825Y-73124099D01*
X98854476Y-72976890D01*
X98733155Y-72747000D01*
X97540000Y-72747000D01*
X97540000Y-72767000D01*
X97286000Y-72767000D01*
X97286000Y-72747000D01*
X95000000Y-72747000D01*
X95000000Y-72767000D01*
X94746000Y-72767000D01*
X94746000Y-72747000D01*
X93552845Y-72747000D01*
X93431524Y-72976890D01*
X93476175Y-73124099D01*
X93601359Y-73386920D01*
X93775412Y-73620269D01*
X93991645Y-73815178D01*
X94241748Y-73964157D01*
X94242846Y-73964546D01*
X94071866Y-74104866D01*
X93886294Y-74330986D01*
X93748401Y-74588966D01*
X93663487Y-74868889D01*
X93634815Y-75160000D01*
X93663487Y-75451111D01*
X93748401Y-75731034D01*
X93886294Y-75989014D01*
X94071866Y-76215134D01*
X94297986Y-76400706D01*
X94555966Y-76538599D01*
X94835889Y-76623513D01*
X95054050Y-76645000D01*
X95199950Y-76645000D01*
X95418111Y-76623513D01*
X95698034Y-76538599D01*
X95956014Y-76400706D01*
X96182134Y-76215134D01*
X96367706Y-75989014D01*
X96397000Y-75934209D01*
X96426294Y-75989014D01*
X96611866Y-76215134D01*
X96837986Y-76400706D01*
X96910970Y-76439716D01*
X96917997Y-76511066D01*
X96952107Y-76623513D01*
X96961454Y-76654327D01*
X97032026Y-76786357D01*
X97063315Y-76824482D01*
X97126999Y-76902082D01*
X97140001Y-76912752D01*
X97140001Y-84259990D01*
X97094180Y-84235498D01*
X96974482Y-84199188D01*
X96850000Y-84186928D01*
X94150000Y-84186928D01*
X94025518Y-84199188D01*
X93905820Y-84235498D01*
X93795506Y-84294463D01*
X93698815Y-84373815D01*
X93619463Y-84470506D01*
X93560498Y-84580820D01*
X93524188Y-84700518D01*
X93511928Y-84825000D01*
X93511928Y-85237126D01*
X92260000Y-83985199D01*
X92260000Y-83888072D01*
X92500000Y-83888072D01*
X92624482Y-83875812D01*
X92744180Y-83839502D01*
X92854494Y-83780537D01*
X92951185Y-83701185D01*
X93030537Y-83604494D01*
X93089502Y-83494180D01*
X93125812Y-83374482D01*
X93138072Y-83250000D01*
X93138072Y-81550000D01*
X93125812Y-81425518D01*
X93089502Y-81305820D01*
X93030537Y-81195506D01*
X92951185Y-81098815D01*
X92854494Y-81019463D01*
X92744180Y-80960498D01*
X92624482Y-80924188D01*
X92500000Y-80911928D01*
X92260000Y-80911928D01*
X92260000Y-72263110D01*
X93431524Y-72263110D01*
X93552845Y-72493000D01*
X94746000Y-72493000D01*
X94746000Y-72473000D01*
X95000000Y-72473000D01*
X95000000Y-72493000D01*
X97286000Y-72493000D01*
X97286000Y-72473000D01*
X97540000Y-72473000D01*
X97540000Y-72493000D01*
X98733155Y-72493000D01*
X98854476Y-72263110D01*
X98809825Y-72115901D01*
X98684641Y-71853080D01*
X98510588Y-71619731D01*
X98294926Y-71425337D01*
X98298252Y-71424157D01*
X98548355Y-71275178D01*
X98764588Y-71080269D01*
X98938641Y-70846920D01*
X99063825Y-70584099D01*
X99108476Y-70436890D01*
X98987155Y-70207000D01*
X97794000Y-70207000D01*
X97794000Y-70227000D01*
X97540000Y-70227000D01*
X97540000Y-70207000D01*
X95254000Y-70207000D01*
X95254000Y-70227000D01*
X95000000Y-70227000D01*
X95000000Y-70207000D01*
X93806845Y-70207000D01*
X93685524Y-70436890D01*
X93730175Y-70584099D01*
X93855359Y-70846920D01*
X94029412Y-71080269D01*
X94245074Y-71274663D01*
X94241748Y-71275843D01*
X93991645Y-71424822D01*
X93775412Y-71619731D01*
X93601359Y-71853080D01*
X93476175Y-72115901D01*
X93431524Y-72263110D01*
X92260000Y-72263110D01*
X92260000Y-67896890D01*
X93431524Y-67896890D01*
X93476175Y-68044099D01*
X93601359Y-68306920D01*
X93775412Y-68540269D01*
X93991645Y-68735178D01*
X94241748Y-68884157D01*
X94245074Y-68885337D01*
X94029412Y-69079731D01*
X93855359Y-69313080D01*
X93730175Y-69575901D01*
X93685524Y-69723110D01*
X93806845Y-69953000D01*
X95000000Y-69953000D01*
X95000000Y-69933000D01*
X95254000Y-69933000D01*
X95254000Y-69953000D01*
X97540000Y-69953000D01*
X97540000Y-69933000D01*
X97794000Y-69933000D01*
X97794000Y-69953000D01*
X98987155Y-69953000D01*
X99108476Y-69723110D01*
X99063825Y-69575901D01*
X98938641Y-69313080D01*
X98764588Y-69079731D01*
X98548355Y-68884822D01*
X98298252Y-68735843D01*
X98294926Y-68734663D01*
X98510588Y-68540269D01*
X98684641Y-68306920D01*
X98809825Y-68044099D01*
X98854476Y-67896890D01*
X98733155Y-67667000D01*
X97540000Y-67667000D01*
X97540000Y-67687000D01*
X97286000Y-67687000D01*
X97286000Y-67667000D01*
X95000000Y-67667000D01*
X95000000Y-67687000D01*
X94746000Y-67687000D01*
X94746000Y-67667000D01*
X93552845Y-67667000D01*
X93431524Y-67896890D01*
X92260000Y-67896890D01*
X92260000Y-67183110D01*
X93431524Y-67183110D01*
X93552845Y-67413000D01*
X94746000Y-67413000D01*
X94746000Y-67393000D01*
X95000000Y-67393000D01*
X95000000Y-67413000D01*
X97286000Y-67413000D01*
X97286000Y-67393000D01*
X97540000Y-67393000D01*
X97540000Y-67413000D01*
X98733155Y-67413000D01*
X98854476Y-67183110D01*
X98809825Y-67035901D01*
X98684641Y-66773080D01*
X98510588Y-66539731D01*
X98296913Y-66347128D01*
X98496014Y-66240706D01*
X98722134Y-66055134D01*
X98907706Y-65829014D01*
X99045599Y-65571034D01*
X99130513Y-65291111D01*
X99159185Y-65000000D01*
X99130513Y-64708889D01*
X99045599Y-64428966D01*
X98907706Y-64170986D01*
X98722134Y-63944866D01*
X98496014Y-63759294D01*
X98238034Y-63621401D01*
X97958111Y-63536487D01*
X97739950Y-63515000D01*
X97594050Y-63515000D01*
X97375889Y-63536487D01*
X97095966Y-63621401D01*
X96837986Y-63759294D01*
X96611866Y-63944866D01*
X96587393Y-63974687D01*
X96566502Y-63905820D01*
X96507537Y-63795506D01*
X96428185Y-63698815D01*
X96331494Y-63619463D01*
X96221180Y-63560498D01*
X96101482Y-63524188D01*
X95977000Y-63511928D01*
X94277000Y-63511928D01*
X94152518Y-63524188D01*
X94032820Y-63560498D01*
X93922506Y-63619463D01*
X93825815Y-63698815D01*
X93746463Y-63795506D01*
X93687498Y-63905820D01*
X93651188Y-64025518D01*
X93638928Y-64150000D01*
X93638928Y-65850000D01*
X93651188Y-65974482D01*
X93687498Y-66094180D01*
X93746463Y-66204494D01*
X93825815Y-66301185D01*
X93922506Y-66380537D01*
X93941035Y-66390441D01*
X93775412Y-66539731D01*
X93601359Y-66773080D01*
X93476175Y-67035901D01*
X93431524Y-67183110D01*
X92260000Y-67183110D01*
X92260000Y-61137322D01*
X92263676Y-61099999D01*
X92260000Y-61062676D01*
X92260000Y-61062667D01*
X92249003Y-60951014D01*
X92205546Y-60807753D01*
X92134974Y-60675724D01*
X92040001Y-60559999D01*
X92011002Y-60536200D01*
X91663803Y-60189002D01*
X91640001Y-60159999D01*
X91524276Y-60065026D01*
X91482424Y-60042655D01*
X91475812Y-59975518D01*
X91439502Y-59855820D01*
X91380537Y-59745506D01*
X91301185Y-59648815D01*
X91204494Y-59569463D01*
X91094180Y-59510498D01*
X90974482Y-59474188D01*
X90850000Y-59461928D01*
X89950000Y-59461928D01*
X89825518Y-59474188D01*
X89705820Y-59510498D01*
X89595506Y-59569463D01*
X89498815Y-59648815D01*
X89419463Y-59745506D01*
X89360498Y-59855820D01*
X89324188Y-59975518D01*
X89311928Y-60100000D01*
X89311928Y-61300000D01*
X89324188Y-61424482D01*
X89360498Y-61544180D01*
X89419463Y-61654494D01*
X89498815Y-61751185D01*
X89595506Y-61830537D01*
X89705820Y-61889502D01*
X89825518Y-61925812D01*
X89950000Y-61938072D01*
X90740001Y-61938072D01*
X90740000Y-80911928D01*
X90500000Y-80911928D01*
X90375518Y-80924188D01*
X90255820Y-80960498D01*
X90145506Y-81019463D01*
X90048815Y-81098815D01*
X89969463Y-81195506D01*
X89910498Y-81305820D01*
X89874188Y-81425518D01*
X89861928Y-81550000D01*
X89861928Y-83250000D01*
X89874188Y-83374482D01*
X89910498Y-83494180D01*
X89969463Y-83604494D01*
X90048815Y-83701185D01*
X90145506Y-83780537D01*
X90255820Y-83839502D01*
X90375518Y-83875812D01*
X90500000Y-83888072D01*
X90740000Y-83888072D01*
X90740000Y-84262678D01*
X90736324Y-84300000D01*
X90740000Y-84337322D01*
X90740000Y-84337332D01*
X90750997Y-84448985D01*
X90790988Y-84580820D01*
X90794454Y-84592246D01*
X90865026Y-84724276D01*
X90898448Y-84765000D01*
X90959999Y-84840001D01*
X90989003Y-84863804D01*
X93336201Y-87211003D01*
X93359999Y-87240001D01*
X93388997Y-87263799D01*
X93475724Y-87334974D01*
X93511928Y-87354326D01*
X93511928Y-88575000D01*
X93524188Y-88699482D01*
X93560498Y-88819180D01*
X93619463Y-88929494D01*
X93698815Y-89026185D01*
X93795506Y-89105537D01*
X93905820Y-89164502D01*
X94025518Y-89200812D01*
X94047246Y-89202952D01*
X93188998Y-90061201D01*
X93160000Y-90084999D01*
X93136202Y-90113997D01*
X93136201Y-90113998D01*
X93065026Y-90200724D01*
X92994454Y-90332754D01*
X92984665Y-90365026D01*
X92950998Y-90476014D01*
X92945191Y-90534974D01*
X92936324Y-90625000D01*
X92940001Y-90662333D01*
X92940000Y-103178895D01*
X92924482Y-103174188D01*
X92800000Y-103161928D01*
X90800000Y-103161928D01*
X90675518Y-103174188D01*
X90555820Y-103210498D01*
X90445506Y-103269463D01*
X90348815Y-103348815D01*
X90269463Y-103445506D01*
X90210498Y-103555820D01*
X90174188Y-103675518D01*
X90161928Y-103800000D01*
X90161928Y-105400000D01*
X90174188Y-105524482D01*
X90210498Y-105644180D01*
X90269463Y-105754494D01*
X90348815Y-105851185D01*
X90445506Y-105930537D01*
X90555820Y-105989502D01*
X90675518Y-106025812D01*
X90800000Y-106038072D01*
X91145674Y-106038072D01*
X91165026Y-106074276D01*
X91174913Y-106086323D01*
X91259999Y-106190001D01*
X91289002Y-106213803D01*
X91690000Y-106614801D01*
X91690000Y-106676939D01*
X91729774Y-106876898D01*
X91807795Y-107065256D01*
X91921063Y-107234774D01*
X92065226Y-107378937D01*
X92234744Y-107492205D01*
X92240001Y-107494382D01*
X92240001Y-107634990D01*
X92194180Y-107610498D01*
X92074482Y-107574188D01*
X91950000Y-107561928D01*
X91854326Y-107561928D01*
X91834974Y-107525724D01*
X91807466Y-107492205D01*
X91763799Y-107438996D01*
X91763795Y-107438992D01*
X91740001Y-107409999D01*
X91711008Y-107386205D01*
X89860000Y-105535199D01*
X89860000Y-78654320D01*
X89904494Y-78630537D01*
X90001185Y-78551185D01*
X90080537Y-78454494D01*
X90139502Y-78344180D01*
X90175812Y-78224482D01*
X90188072Y-78100000D01*
X90188072Y-76900000D01*
X90175812Y-76775518D01*
X90139502Y-76655820D01*
X90080537Y-76545506D01*
X90001185Y-76448815D01*
X89904494Y-76369463D01*
X89794180Y-76310498D01*
X89674482Y-76274188D01*
X89550000Y-76261928D01*
X88650000Y-76261928D01*
X88525518Y-76274188D01*
X88405820Y-76310498D01*
X88295506Y-76369463D01*
X88198815Y-76448815D01*
X88119463Y-76545506D01*
X88060498Y-76655820D01*
X88024188Y-76775518D01*
X88011928Y-76900000D01*
X88011928Y-78100000D01*
X88024188Y-78224482D01*
X88060498Y-78344180D01*
X88119463Y-78454494D01*
X88198815Y-78551185D01*
X88295506Y-78630537D01*
X88340001Y-78654320D01*
X88340001Y-80911928D01*
X86500000Y-80911928D01*
X86375518Y-80924188D01*
X86255820Y-80960498D01*
X86145506Y-81019463D01*
X86048815Y-81098815D01*
X85969463Y-81195506D01*
X85910498Y-81305820D01*
X85874188Y-81425518D01*
X85861928Y-81550000D01*
X85861928Y-81640000D01*
X85214803Y-81640000D01*
X82609802Y-79035000D01*
X82651184Y-79035000D01*
X82947743Y-78976011D01*
X83227095Y-78860299D01*
X83478505Y-78692312D01*
X83692312Y-78478505D01*
X83838313Y-78260000D01*
X84734962Y-78260000D01*
X84760498Y-78344180D01*
X84819463Y-78454494D01*
X84898815Y-78551185D01*
X84995506Y-78630537D01*
X85105820Y-78689502D01*
X85225518Y-78725812D01*
X85350000Y-78738072D01*
X86250000Y-78738072D01*
X86374482Y-78725812D01*
X86494180Y-78689502D01*
X86604494Y-78630537D01*
X86701185Y-78551185D01*
X86780537Y-78454494D01*
X86839502Y-78344180D01*
X86875812Y-78224482D01*
X86888072Y-78100000D01*
X86888072Y-76900000D01*
X86875812Y-76775518D01*
X86839502Y-76655820D01*
X86780537Y-76545506D01*
X86701185Y-76448815D01*
X86604494Y-76369463D01*
X86494180Y-76310498D01*
X86374482Y-76274188D01*
X86250000Y-76261928D01*
X85350000Y-76261928D01*
X85225518Y-76274188D01*
X85105820Y-76310498D01*
X84995506Y-76369463D01*
X84898815Y-76448815D01*
X84819463Y-76545506D01*
X84760498Y-76655820D01*
X84734962Y-76740000D01*
X83838313Y-76740000D01*
X83692312Y-76521495D01*
X83478505Y-76307688D01*
X83227095Y-76139701D01*
X82947743Y-76023989D01*
X82651184Y-75965000D01*
X82348816Y-75965000D01*
X82052257Y-76023989D01*
X81772905Y-76139701D01*
X81521495Y-76307688D01*
X81307688Y-76521495D01*
X81250000Y-76607831D01*
X81192312Y-76521495D01*
X80978505Y-76307688D01*
X80727095Y-76139701D01*
X80447743Y-76023989D01*
X80151184Y-75965000D01*
X79848816Y-75965000D01*
X79552257Y-76023989D01*
X79272905Y-76139701D01*
X79021495Y-76307688D01*
X78807688Y-76521495D01*
X78750000Y-76607831D01*
X78692312Y-76521495D01*
X78478505Y-76307688D01*
X78227095Y-76139701D01*
X77947743Y-76023989D01*
X77651184Y-75965000D01*
X77348816Y-75965000D01*
X77052257Y-76023989D01*
X76772905Y-76139701D01*
X76521495Y-76307688D01*
X76307688Y-76521495D01*
X76139701Y-76772905D01*
X76023989Y-77052257D01*
X75965000Y-77348816D01*
X75965000Y-77651184D01*
X76023989Y-77947743D01*
X76139701Y-78227095D01*
X76307688Y-78478505D01*
X76521495Y-78692312D01*
X76772905Y-78860299D01*
X77052257Y-78976011D01*
X77348816Y-79035000D01*
X77651184Y-79035000D01*
X77947743Y-78976011D01*
X78227095Y-78860299D01*
X78478505Y-78692312D01*
X78692312Y-78478505D01*
X78750000Y-78392169D01*
X78807688Y-78478505D01*
X79021495Y-78692312D01*
X79272905Y-78860299D01*
X79552257Y-78976011D01*
X79848816Y-79035000D01*
X80151184Y-79035000D01*
X80408930Y-78983731D01*
X84336205Y-82911008D01*
X84359999Y-82940001D01*
X84388992Y-82963795D01*
X84388996Y-82963799D01*
X84437981Y-83003999D01*
X84475724Y-83034974D01*
X84607753Y-83105546D01*
X84751014Y-83149003D01*
X84862667Y-83160000D01*
X84862676Y-83160000D01*
X84899999Y-83163676D01*
X84937322Y-83160000D01*
X85861928Y-83160000D01*
X85861928Y-83250000D01*
X85874188Y-83374482D01*
X85910498Y-83494180D01*
X85969463Y-83604494D01*
X86048815Y-83701185D01*
X86145506Y-83780537D01*
X86255820Y-83839502D01*
X86375518Y-83875812D01*
X86500000Y-83888072D01*
X88340001Y-83888072D01*
X88340000Y-100465199D01*
X87263804Y-99389003D01*
X87240001Y-99359999D01*
X87124276Y-99265026D01*
X86992247Y-99194454D01*
X86848986Y-99150997D01*
X86737333Y-99140000D01*
X86737322Y-99140000D01*
X86700000Y-99136324D01*
X86662678Y-99140000D01*
X82714802Y-99140000D01*
X82609802Y-99035000D01*
X82651184Y-99035000D01*
X82947743Y-98976011D01*
X83227095Y-98860299D01*
X83478505Y-98692312D01*
X83692312Y-98478505D01*
X83860299Y-98227095D01*
X83976011Y-97947743D01*
X84035000Y-97651184D01*
X84035000Y-97348816D01*
X83976011Y-97052257D01*
X83860299Y-96772905D01*
X83692312Y-96521495D01*
X83478505Y-96307688D01*
X83260000Y-96161687D01*
X83260000Y-95037323D01*
X83263676Y-95000000D01*
X83260000Y-94962677D01*
X83260000Y-94962667D01*
X83249003Y-94851014D01*
X83205546Y-94707753D01*
X83174143Y-94649003D01*
X83134974Y-94575723D01*
X83063799Y-94488997D01*
X83040001Y-94459999D01*
X83011003Y-94436201D01*
X81963804Y-93389002D01*
X81940001Y-93359999D01*
X81824276Y-93265026D01*
X81788072Y-93245674D01*
X81788072Y-92900000D01*
X81775812Y-92775518D01*
X81739502Y-92655820D01*
X81680537Y-92545506D01*
X81601185Y-92448815D01*
X81504494Y-92369463D01*
X81394180Y-92310498D01*
X81274482Y-92274188D01*
X81150000Y-92261928D01*
X79450000Y-92261928D01*
X79325518Y-92274188D01*
X79205820Y-92310498D01*
X79095506Y-92369463D01*
X78998815Y-92448815D01*
X78919463Y-92545506D01*
X78860498Y-92655820D01*
X78824188Y-92775518D01*
X78811928Y-92900000D01*
X78811928Y-94900000D01*
X78824188Y-95024482D01*
X78860498Y-95144180D01*
X78919463Y-95254494D01*
X78998815Y-95351185D01*
X79095506Y-95430537D01*
X79205820Y-95489502D01*
X79325518Y-95525812D01*
X79450000Y-95538072D01*
X81150000Y-95538072D01*
X81274482Y-95525812D01*
X81394180Y-95489502D01*
X81504494Y-95430537D01*
X81601185Y-95351185D01*
X81680156Y-95254958D01*
X81740001Y-95314803D01*
X81740001Y-96161687D01*
X81521495Y-96307688D01*
X81307688Y-96521495D01*
X81250000Y-96607831D01*
X81192312Y-96521495D01*
X80978505Y-96307688D01*
X80727095Y-96139701D01*
X80447743Y-96023989D01*
X80151184Y-95965000D01*
X79848816Y-95965000D01*
X79552257Y-96023989D01*
X79272905Y-96139701D01*
X79021495Y-96307688D01*
X78807688Y-96521495D01*
X78750000Y-96607831D01*
X78692312Y-96521495D01*
X78478505Y-96307688D01*
X78227095Y-96139701D01*
X77947743Y-96023989D01*
X77651184Y-95965000D01*
X77348816Y-95965000D01*
X77091071Y-96016268D01*
X74563804Y-93489003D01*
X74540001Y-93459999D01*
X74424276Y-93365026D01*
X74292247Y-93294454D01*
X74148986Y-93250997D01*
X74037333Y-93240000D01*
X74037322Y-93240000D01*
X74000000Y-93236324D01*
X73962678Y-93240000D01*
X71688072Y-93240000D01*
X71688072Y-93050000D01*
X71675812Y-92925518D01*
X71639502Y-92805820D01*
X71580537Y-92695506D01*
X71557440Y-92667362D01*
X71636729Y-92588072D01*
X72000000Y-92588072D01*
X72124482Y-92575812D01*
X72244180Y-92539502D01*
X72354494Y-92480537D01*
X72451185Y-92401185D01*
X72530537Y-92304494D01*
X72589502Y-92194180D01*
X72625812Y-92074482D01*
X72638072Y-91950000D01*
X72638072Y-90240475D01*
X72965000Y-90240475D01*
X72965000Y-90759525D01*
X73066261Y-91268601D01*
X73264893Y-91748141D01*
X73553262Y-92179715D01*
X73920285Y-92546738D01*
X74351859Y-92835107D01*
X74831399Y-93033739D01*
X75340475Y-93135000D01*
X75859525Y-93135000D01*
X76368601Y-93033739D01*
X76848141Y-92835107D01*
X77279715Y-92546738D01*
X77646738Y-92179715D01*
X77935107Y-91748141D01*
X78133739Y-91268601D01*
X78235000Y-90759525D01*
X78235000Y-90240475D01*
X78133739Y-89731399D01*
X77935107Y-89251859D01*
X77700002Y-88900000D01*
X78811928Y-88900000D01*
X78811928Y-90900000D01*
X78824188Y-91024482D01*
X78860498Y-91144180D01*
X78919463Y-91254494D01*
X78998815Y-91351185D01*
X79095506Y-91430537D01*
X79205820Y-91489502D01*
X79325518Y-91525812D01*
X79450000Y-91538072D01*
X81150000Y-91538072D01*
X81274482Y-91525812D01*
X81394180Y-91489502D01*
X81504494Y-91430537D01*
X81601185Y-91351185D01*
X81680537Y-91254494D01*
X81739502Y-91144180D01*
X81775812Y-91024482D01*
X81788072Y-90900000D01*
X81788072Y-90875516D01*
X81866261Y-91268601D01*
X82064893Y-91748141D01*
X82353262Y-92179715D01*
X82720285Y-92546738D01*
X83151859Y-92835107D01*
X83631399Y-93033739D01*
X84140475Y-93135000D01*
X84659525Y-93135000D01*
X85168601Y-93033739D01*
X85648141Y-92835107D01*
X86079715Y-92546738D01*
X86446738Y-92179715D01*
X86735107Y-91748141D01*
X86933739Y-91268601D01*
X87035000Y-90759525D01*
X87035000Y-90240475D01*
X86933739Y-89731399D01*
X86735107Y-89251859D01*
X86446738Y-88820285D01*
X86079715Y-88453262D01*
X85648141Y-88164893D01*
X85168601Y-87966261D01*
X84659525Y-87865000D01*
X84140475Y-87865000D01*
X83631399Y-87966261D01*
X83151859Y-88164893D01*
X82720285Y-88453262D01*
X82353262Y-88820285D01*
X82064893Y-89251859D01*
X81866261Y-89731399D01*
X81788072Y-90124484D01*
X81788072Y-88900000D01*
X81775812Y-88775518D01*
X81739502Y-88655820D01*
X81680537Y-88545506D01*
X81601185Y-88448815D01*
X81504494Y-88369463D01*
X81394180Y-88310498D01*
X81299244Y-88281699D01*
X81335000Y-88101939D01*
X81335000Y-87898061D01*
X81295226Y-87698102D01*
X81217205Y-87509744D01*
X81103937Y-87340226D01*
X80959774Y-87196063D01*
X80790256Y-87082795D01*
X80601898Y-87004774D01*
X80401939Y-86965000D01*
X80198061Y-86965000D01*
X79998102Y-87004774D01*
X79809744Y-87082795D01*
X79640226Y-87196063D01*
X79496063Y-87340226D01*
X79382795Y-87509744D01*
X79304774Y-87698102D01*
X79265000Y-87898061D01*
X79265000Y-88101939D01*
X79300756Y-88281699D01*
X79205820Y-88310498D01*
X79095506Y-88369463D01*
X78998815Y-88448815D01*
X78919463Y-88545506D01*
X78860498Y-88655820D01*
X78824188Y-88775518D01*
X78811928Y-88900000D01*
X77700002Y-88900000D01*
X77646738Y-88820285D01*
X77279715Y-88453262D01*
X76848141Y-88164893D01*
X76368601Y-87966261D01*
X75859525Y-87865000D01*
X75340475Y-87865000D01*
X74831399Y-87966261D01*
X74351859Y-88164893D01*
X73920285Y-88453262D01*
X73553262Y-88820285D01*
X73264893Y-89251859D01*
X73066261Y-89731399D01*
X72965000Y-90240475D01*
X72638072Y-90240475D01*
X72638072Y-90050000D01*
X72625812Y-89925518D01*
X72589502Y-89805820D01*
X72530537Y-89695506D01*
X72451185Y-89598815D01*
X72354494Y-89519463D01*
X72244180Y-89460498D01*
X72124482Y-89424188D01*
X72000000Y-89411928D01*
X71200000Y-89411928D01*
X71075518Y-89424188D01*
X70955820Y-89460498D01*
X70845506Y-89519463D01*
X70748815Y-89598815D01*
X70669463Y-89695506D01*
X70650000Y-89731918D01*
X70630537Y-89695506D01*
X70551185Y-89598815D01*
X70454494Y-89519463D01*
X70344180Y-89460498D01*
X70224482Y-89424188D01*
X70100000Y-89411928D01*
X69300000Y-89411928D01*
X69175518Y-89424188D01*
X69055820Y-89460498D01*
X68945506Y-89519463D01*
X68848815Y-89598815D01*
X68792381Y-89667580D01*
X68560000Y-89435199D01*
X68560000Y-89238072D01*
X70500000Y-89238072D01*
X70624482Y-89225812D01*
X70744180Y-89189502D01*
X70854494Y-89130537D01*
X70951185Y-89051185D01*
X71030537Y-88954494D01*
X71089502Y-88844180D01*
X71125812Y-88724482D01*
X71138072Y-88600000D01*
X71138072Y-87000000D01*
X71125812Y-86875518D01*
X71089502Y-86755820D01*
X71030537Y-86645506D01*
X70951185Y-86548815D01*
X70854494Y-86469463D01*
X70744180Y-86410498D01*
X70624482Y-86374188D01*
X70500000Y-86361928D01*
X70260000Y-86361928D01*
X70260000Y-84943072D01*
X70775000Y-84943072D01*
X70899482Y-84930812D01*
X71019180Y-84894502D01*
X71129494Y-84835537D01*
X71226185Y-84756185D01*
X71305537Y-84659494D01*
X71364502Y-84549180D01*
X71400812Y-84429482D01*
X71413072Y-84305000D01*
X71413072Y-83705000D01*
X71408640Y-83660000D01*
X73696289Y-83660000D01*
X73740226Y-83703937D01*
X73909744Y-83817205D01*
X74098102Y-83895226D01*
X74298061Y-83935000D01*
X74501939Y-83935000D01*
X74701898Y-83895226D01*
X74890256Y-83817205D01*
X75059774Y-83703937D01*
X75203937Y-83559774D01*
X75317205Y-83390256D01*
X75395226Y-83201898D01*
X75435000Y-83001939D01*
X75435000Y-82798061D01*
X75395226Y-82598102D01*
X75317205Y-82409744D01*
X75203937Y-82240226D01*
X75059774Y-82096063D01*
X74890256Y-81982795D01*
X74701898Y-81904774D01*
X74501939Y-81865000D01*
X74298061Y-81865000D01*
X74098102Y-81904774D01*
X73909744Y-81982795D01*
X73740226Y-82096063D01*
X73696289Y-82140000D01*
X71337338Y-82140000D01*
X71315957Y-82100000D01*
X71364502Y-82009180D01*
X71400812Y-81889482D01*
X71413072Y-81765000D01*
X71413072Y-81165000D01*
X71400812Y-81040518D01*
X71364502Y-80920820D01*
X71315957Y-80830000D01*
X71364502Y-80739180D01*
X71400812Y-80619482D01*
X71413072Y-80495000D01*
X71413072Y-79895000D01*
X71400812Y-79770518D01*
X71364502Y-79650820D01*
X71305537Y-79540506D01*
X71226185Y-79443815D01*
X71129494Y-79364463D01*
X71019180Y-79305498D01*
X70899482Y-79269188D01*
X70775000Y-79256928D01*
X70760000Y-79256928D01*
X70760000Y-78903711D01*
X70803937Y-78859774D01*
X70917205Y-78690256D01*
X70995226Y-78501898D01*
X71035000Y-78301939D01*
X71035000Y-78098061D01*
X70995226Y-77898102D01*
X70917205Y-77709744D01*
X70803937Y-77540226D01*
X70760000Y-77496289D01*
X70760000Y-77338072D01*
X70900000Y-77338072D01*
X71024482Y-77325812D01*
X71144180Y-77289502D01*
X71254494Y-77230537D01*
X71351185Y-77151185D01*
X71430537Y-77054494D01*
X71489502Y-76944180D01*
X71525812Y-76824482D01*
X71538072Y-76700000D01*
X71538072Y-74700000D01*
X71525812Y-74575518D01*
X71489502Y-74455820D01*
X71430537Y-74345506D01*
X71351185Y-74248815D01*
X71254494Y-74169463D01*
X71144180Y-74110498D01*
X71024482Y-74074188D01*
X70900000Y-74061928D01*
X69300000Y-74061928D01*
X69175518Y-74074188D01*
X69055820Y-74110498D01*
X68945506Y-74169463D01*
X68848815Y-74248815D01*
X68769463Y-74345506D01*
X68710498Y-74455820D01*
X68674188Y-74575518D01*
X68661928Y-74700000D01*
X68661928Y-76700000D01*
X68674188Y-76824482D01*
X68710498Y-76944180D01*
X68769463Y-77054494D01*
X68848815Y-77151185D01*
X68945506Y-77230537D01*
X69055820Y-77289502D01*
X69175518Y-77325812D01*
X69240000Y-77332163D01*
X69240000Y-77496289D01*
X69196063Y-77540226D01*
X69082795Y-77709744D01*
X69004774Y-77898102D01*
X68965000Y-78098061D01*
X68965000Y-78301939D01*
X69004774Y-78501898D01*
X69082795Y-78690256D01*
X69196063Y-78859774D01*
X69240001Y-78903712D01*
X69240000Y-79256928D01*
X69225000Y-79256928D01*
X69100518Y-79269188D01*
X68980820Y-79305498D01*
X68870506Y-79364463D01*
X68773815Y-79443815D01*
X68694463Y-79540506D01*
X68635498Y-79650820D01*
X68599188Y-79770518D01*
X68586928Y-79895000D01*
X68586928Y-80495000D01*
X68599188Y-80619482D01*
X68635498Y-80739180D01*
X68684043Y-80830000D01*
X68635498Y-80920820D01*
X68599188Y-81040518D01*
X68586928Y-81165000D01*
X68586928Y-81328269D01*
X67288998Y-82626201D01*
X67260000Y-82649999D01*
X67236202Y-82678997D01*
X67236201Y-82678998D01*
X67165026Y-82765724D01*
X67094454Y-82897754D01*
X67071023Y-82975000D01*
X67052823Y-83035000D01*
X67050998Y-83041015D01*
X67036324Y-83190000D01*
X67040001Y-83227332D01*
X67040000Y-86663211D01*
X67030537Y-86645506D01*
X66951185Y-86548815D01*
X66854494Y-86469463D01*
X66744180Y-86410498D01*
X66624482Y-86374188D01*
X66500000Y-86361928D01*
X65785750Y-86365000D01*
X65627000Y-86523750D01*
X65627000Y-87673000D01*
X65647000Y-87673000D01*
X65647000Y-87927000D01*
X65627000Y-87927000D01*
X65627000Y-89076250D01*
X65785750Y-89235000D01*
X66500000Y-89238072D01*
X66624482Y-89225812D01*
X66744180Y-89189502D01*
X66854494Y-89130537D01*
X66951185Y-89051185D01*
X67030537Y-88954494D01*
X67040000Y-88936790D01*
X67040000Y-89712677D01*
X67036324Y-89750000D01*
X67040000Y-89787322D01*
X67040000Y-89787332D01*
X67050997Y-89898985D01*
X67062630Y-89937333D01*
X67094454Y-90042246D01*
X67165026Y-90174276D01*
X67179774Y-90192246D01*
X67259999Y-90290001D01*
X67289003Y-90313804D01*
X68486201Y-91511003D01*
X68509999Y-91540001D01*
X68538997Y-91563799D01*
X68625723Y-91634974D01*
X68661928Y-91654326D01*
X68661928Y-91950000D01*
X68674188Y-92074482D01*
X68710498Y-92194180D01*
X68769463Y-92304494D01*
X68837969Y-92387969D01*
X68754494Y-92319463D01*
X68644180Y-92260498D01*
X68524482Y-92224188D01*
X68400000Y-92211928D01*
X66400000Y-92211928D01*
X66275518Y-92224188D01*
X66155820Y-92260498D01*
X66045506Y-92319463D01*
X65948815Y-92398815D01*
X65869463Y-92495506D01*
X65810498Y-92605820D01*
X65774188Y-92725518D01*
X65761928Y-92850000D01*
X65761928Y-93737127D01*
X65213804Y-93189003D01*
X65190001Y-93159999D01*
X65074276Y-93065026D01*
X65038072Y-93045674D01*
X65038072Y-92850000D01*
X65025812Y-92725518D01*
X64989502Y-92605820D01*
X64930537Y-92495506D01*
X64851185Y-92398815D01*
X64754494Y-92319463D01*
X64644180Y-92260498D01*
X64524482Y-92224188D01*
X64400000Y-92211928D01*
X64160000Y-92211928D01*
X64160000Y-89138284D01*
X64255820Y-89189502D01*
X64375518Y-89225812D01*
X64500000Y-89238072D01*
X65214250Y-89235000D01*
X65373000Y-89076250D01*
X65373000Y-87927000D01*
X65353000Y-87927000D01*
X65353000Y-87673000D01*
X65373000Y-87673000D01*
X65373000Y-86523750D01*
X65214250Y-86365000D01*
X64500000Y-86361928D01*
X64375518Y-86374188D01*
X64255820Y-86410498D01*
X64160000Y-86461716D01*
X64160000Y-85044801D01*
X64261729Y-84943072D01*
X65375000Y-84943072D01*
X65499482Y-84930812D01*
X65619180Y-84894502D01*
X65729494Y-84835537D01*
X65826185Y-84756185D01*
X65905537Y-84659494D01*
X65964502Y-84549180D01*
X66000812Y-84429482D01*
X66013072Y-84305000D01*
X66013072Y-83705000D01*
X66000812Y-83580518D01*
X65964502Y-83460820D01*
X65945572Y-83425406D01*
X66049276Y-83369974D01*
X66165001Y-83275001D01*
X66188804Y-83245997D01*
X67711004Y-81723798D01*
X67740001Y-81700001D01*
X67834974Y-81584276D01*
X67905546Y-81452247D01*
X67949003Y-81308986D01*
X67960000Y-81197333D01*
X67960000Y-81197324D01*
X67963676Y-81160001D01*
X67960000Y-81122678D01*
X67960000Y-72700000D01*
X68661928Y-72700000D01*
X68674188Y-72824482D01*
X68710498Y-72944180D01*
X68769463Y-73054494D01*
X68848815Y-73151185D01*
X68945506Y-73230537D01*
X69055820Y-73289502D01*
X69175518Y-73325812D01*
X69300000Y-73338072D01*
X69814250Y-73335000D01*
X69973000Y-73176250D01*
X69973000Y-71827000D01*
X70227000Y-71827000D01*
X70227000Y-73176250D01*
X70385750Y-73335000D01*
X70900000Y-73338072D01*
X71024482Y-73325812D01*
X71144180Y-73289502D01*
X71254494Y-73230537D01*
X71351185Y-73151185D01*
X71430537Y-73054494D01*
X71489502Y-72944180D01*
X71525812Y-72824482D01*
X71538072Y-72700000D01*
X71535000Y-71985750D01*
X71376250Y-71827000D01*
X70227000Y-71827000D01*
X69973000Y-71827000D01*
X68823750Y-71827000D01*
X68665000Y-71985750D01*
X68661928Y-72700000D01*
X67960000Y-72700000D01*
X67960000Y-70700000D01*
X68661928Y-70700000D01*
X68665000Y-71414250D01*
X68823750Y-71573000D01*
X69973000Y-71573000D01*
X69973000Y-70223750D01*
X70227000Y-70223750D01*
X70227000Y-71573000D01*
X71376250Y-71573000D01*
X71535000Y-71414250D01*
X71538072Y-70700000D01*
X71525812Y-70575518D01*
X71489502Y-70455820D01*
X71430537Y-70345506D01*
X71351185Y-70248815D01*
X71341023Y-70240475D01*
X72965000Y-70240475D01*
X72965000Y-70759525D01*
X73066261Y-71268601D01*
X73264893Y-71748141D01*
X73553262Y-72179715D01*
X73920285Y-72546738D01*
X74351859Y-72835107D01*
X74831399Y-73033739D01*
X75340475Y-73135000D01*
X75859525Y-73135000D01*
X76368601Y-73033739D01*
X76848141Y-72835107D01*
X77279715Y-72546738D01*
X77646738Y-72179715D01*
X77935107Y-71748141D01*
X78133739Y-71268601D01*
X78235000Y-70759525D01*
X78235000Y-70240475D01*
X81765000Y-70240475D01*
X81765000Y-70759525D01*
X81866261Y-71268601D01*
X82064893Y-71748141D01*
X82353262Y-72179715D01*
X82720285Y-72546738D01*
X83151859Y-72835107D01*
X83631399Y-73033739D01*
X84140475Y-73135000D01*
X84659525Y-73135000D01*
X85168601Y-73033739D01*
X85648141Y-72835107D01*
X86079715Y-72546738D01*
X86446738Y-72179715D01*
X86735107Y-71748141D01*
X86933739Y-71268601D01*
X87035000Y-70759525D01*
X87035000Y-70240475D01*
X86933739Y-69731399D01*
X86735107Y-69251859D01*
X86446738Y-68820285D01*
X86079715Y-68453262D01*
X85648141Y-68164893D01*
X85168601Y-67966261D01*
X84659525Y-67865000D01*
X84140475Y-67865000D01*
X83631399Y-67966261D01*
X83151859Y-68164893D01*
X82720285Y-68453262D01*
X82353262Y-68820285D01*
X82064893Y-69251859D01*
X81866261Y-69731399D01*
X81765000Y-70240475D01*
X78235000Y-70240475D01*
X78133739Y-69731399D01*
X77935107Y-69251859D01*
X77646738Y-68820285D01*
X77279715Y-68453262D01*
X76848141Y-68164893D01*
X76368601Y-67966261D01*
X75859525Y-67865000D01*
X75340475Y-67865000D01*
X74831399Y-67966261D01*
X74351859Y-68164893D01*
X73920285Y-68453262D01*
X73553262Y-68820285D01*
X73264893Y-69251859D01*
X73066261Y-69731399D01*
X72965000Y-70240475D01*
X71341023Y-70240475D01*
X71254494Y-70169463D01*
X71144180Y-70110498D01*
X71024482Y-70074188D01*
X70900000Y-70061928D01*
X70385750Y-70065000D01*
X70227000Y-70223750D01*
X69973000Y-70223750D01*
X69814250Y-70065000D01*
X69300000Y-70061928D01*
X69175518Y-70074188D01*
X69055820Y-70110498D01*
X68945506Y-70169463D01*
X68848815Y-70248815D01*
X68769463Y-70345506D01*
X68710498Y-70455820D01*
X68674188Y-70575518D01*
X68661928Y-70700000D01*
X67960000Y-70700000D01*
X67960000Y-68114801D01*
X77091070Y-58983731D01*
X77348816Y-59035000D01*
X77651184Y-59035000D01*
X77947743Y-58976011D01*
X78227095Y-58860299D01*
X78478505Y-58692312D01*
X78692312Y-58478505D01*
X78750000Y-58392169D01*
X78807688Y-58478505D01*
X79021495Y-58692312D01*
X79272905Y-58860299D01*
X79340001Y-58888091D01*
X79340000Y-59211928D01*
X79100000Y-59211928D01*
X78975518Y-59224188D01*
X78855820Y-59260498D01*
X78745506Y-59319463D01*
X78648815Y-59398815D01*
X78569463Y-59495506D01*
X78510498Y-59605820D01*
X78474188Y-59725518D01*
X78461928Y-59850000D01*
X78461928Y-61550000D01*
X78474188Y-61674482D01*
X78510498Y-61794180D01*
X78569463Y-61904494D01*
X78648815Y-62001185D01*
X78745506Y-62080537D01*
X78855820Y-62139502D01*
X78975518Y-62175812D01*
X79100000Y-62188072D01*
X81100000Y-62188072D01*
X81224482Y-62175812D01*
X81344180Y-62139502D01*
X81454494Y-62080537D01*
X81551185Y-62001185D01*
X81630537Y-61904494D01*
X81689502Y-61794180D01*
X81725812Y-61674482D01*
X81738072Y-61550000D01*
X81738072Y-59850000D01*
X82461928Y-59850000D01*
X82461928Y-61550000D01*
X82474188Y-61674482D01*
X82510498Y-61794180D01*
X82569463Y-61904494D01*
X82648815Y-62001185D01*
X82745506Y-62080537D01*
X82855820Y-62139502D01*
X82975518Y-62175812D01*
X83100000Y-62188072D01*
X85100000Y-62188072D01*
X85224482Y-62175812D01*
X85344180Y-62139502D01*
X85454494Y-62080537D01*
X85551185Y-62001185D01*
X85630537Y-61904494D01*
X85689502Y-61794180D01*
X85725812Y-61674482D01*
X85738072Y-61550000D01*
X85738072Y-61460000D01*
X86034962Y-61460000D01*
X86060498Y-61544180D01*
X86119463Y-61654494D01*
X86198815Y-61751185D01*
X86295506Y-61830537D01*
X86405820Y-61889502D01*
X86525518Y-61925812D01*
X86650000Y-61938072D01*
X87550000Y-61938072D01*
X87674482Y-61925812D01*
X87794180Y-61889502D01*
X87904494Y-61830537D01*
X88001185Y-61751185D01*
X88080537Y-61654494D01*
X88139502Y-61544180D01*
X88175812Y-61424482D01*
X88188072Y-61300000D01*
X88188072Y-60100000D01*
X88175812Y-59975518D01*
X88139502Y-59855820D01*
X88080537Y-59745506D01*
X88001185Y-59648815D01*
X87904494Y-59569463D01*
X87794180Y-59510498D01*
X87674482Y-59474188D01*
X87550000Y-59461928D01*
X86650000Y-59461928D01*
X86525518Y-59474188D01*
X86405820Y-59510498D01*
X86295506Y-59569463D01*
X86198815Y-59648815D01*
X86119463Y-59745506D01*
X86060498Y-59855820D01*
X86034962Y-59940000D01*
X85738072Y-59940000D01*
X85738072Y-59850000D01*
X85725812Y-59725518D01*
X85689502Y-59605820D01*
X85630537Y-59495506D01*
X85551185Y-59398815D01*
X85454494Y-59319463D01*
X85344180Y-59260498D01*
X85224482Y-59224188D01*
X85100000Y-59211928D01*
X83100000Y-59211928D01*
X82975518Y-59224188D01*
X82855820Y-59260498D01*
X82745506Y-59319463D01*
X82648815Y-59398815D01*
X82569463Y-59495506D01*
X82510498Y-59605820D01*
X82474188Y-59725518D01*
X82461928Y-59850000D01*
X81738072Y-59850000D01*
X81725812Y-59725518D01*
X81689502Y-59605820D01*
X81630537Y-59495506D01*
X81551185Y-59398815D01*
X81454494Y-59319463D01*
X81344180Y-59260498D01*
X81224482Y-59224188D01*
X81100000Y-59211928D01*
X80860000Y-59211928D01*
X80860000Y-58771495D01*
X80978505Y-58692312D01*
X81192312Y-58478505D01*
X81250000Y-58392169D01*
X81307688Y-58478505D01*
X81521495Y-58692312D01*
X81772905Y-58860299D01*
X82052257Y-58976011D01*
X82348816Y-59035000D01*
X82651184Y-59035000D01*
X82947743Y-58976011D01*
X83227095Y-58860299D01*
X83478505Y-58692312D01*
X83692312Y-58478505D01*
X83860299Y-58227095D01*
X83976011Y-57947743D01*
X84035000Y-57651184D01*
X84035000Y-57348816D01*
X83976011Y-57052257D01*
X83860299Y-56772905D01*
X83692312Y-56521495D01*
X83478505Y-56307688D01*
X83227095Y-56139701D01*
X82947743Y-56023989D01*
X82651184Y-55965000D01*
X82348816Y-55965000D01*
X82052257Y-56023989D01*
X81772905Y-56139701D01*
X81521495Y-56307688D01*
X81307688Y-56521495D01*
X81250000Y-56607831D01*
X81192312Y-56521495D01*
X80978505Y-56307688D01*
X80727095Y-56139701D01*
X80447743Y-56023989D01*
X80151184Y-55965000D01*
X79848816Y-55965000D01*
X79552257Y-56023989D01*
X79272905Y-56139701D01*
X79021495Y-56307688D01*
X78807688Y-56521495D01*
X78750000Y-56607831D01*
X78692312Y-56521495D01*
X78478505Y-56307688D01*
X78227095Y-56139701D01*
X77947743Y-56023989D01*
X77651184Y-55965000D01*
X77348816Y-55965000D01*
X77052257Y-56023989D01*
X76772905Y-56139701D01*
X76521495Y-56307688D01*
X76307688Y-56521495D01*
X76139701Y-56772905D01*
X76023989Y-57052257D01*
X75965000Y-57348816D01*
X75965000Y-57651184D01*
X76016269Y-57908930D01*
X66688998Y-67236201D01*
X66660000Y-67259999D01*
X66636202Y-67288997D01*
X66636201Y-67288998D01*
X66565026Y-67375724D01*
X66494454Y-67507754D01*
X66464180Y-67607558D01*
X66450998Y-67651014D01*
X66440001Y-67762667D01*
X66436324Y-67800000D01*
X66440001Y-67837332D01*
X66440000Y-80845198D01*
X66013072Y-81272126D01*
X66013072Y-81165000D01*
X66000812Y-81040518D01*
X65964502Y-80920820D01*
X65915957Y-80830000D01*
X65964502Y-80739180D01*
X66000812Y-80619482D01*
X66013072Y-80495000D01*
X66010000Y-80480750D01*
X65851250Y-80322000D01*
X64727000Y-80322000D01*
X64727000Y-80342000D01*
X64473000Y-80342000D01*
X64473000Y-80322000D01*
X63348750Y-80322000D01*
X63190000Y-80480750D01*
X63186928Y-80495000D01*
X63199188Y-80619482D01*
X63235498Y-80739180D01*
X63284043Y-80830000D01*
X63235498Y-80920820D01*
X63199188Y-81040518D01*
X63186928Y-81165000D01*
X63186928Y-81328270D01*
X61563997Y-82951202D01*
X61534999Y-82975000D01*
X61511201Y-83003998D01*
X61511200Y-83003999D01*
X61440025Y-83090725D01*
X61369453Y-83222755D01*
X61346386Y-83298799D01*
X61325997Y-83366015D01*
X61316366Y-83463799D01*
X61311323Y-83515001D01*
X60660000Y-83515001D01*
X60660000Y-79895000D01*
X63186928Y-79895000D01*
X63190000Y-79909250D01*
X63348750Y-80068000D01*
X64473000Y-80068000D01*
X64473000Y-79418750D01*
X64727000Y-79418750D01*
X64727000Y-80068000D01*
X65851250Y-80068000D01*
X66010000Y-79909250D01*
X66013072Y-79895000D01*
X66000812Y-79770518D01*
X65964502Y-79650820D01*
X65905537Y-79540506D01*
X65826185Y-79443815D01*
X65729494Y-79364463D01*
X65619180Y-79305498D01*
X65499482Y-79269188D01*
X65375000Y-79256928D01*
X64885750Y-79260000D01*
X64727000Y-79418750D01*
X64473000Y-79418750D01*
X64314250Y-79260000D01*
X63825000Y-79256928D01*
X63700518Y-79269188D01*
X63580820Y-79305498D01*
X63470506Y-79364463D01*
X63373815Y-79443815D01*
X63294463Y-79540506D01*
X63235498Y-79650820D01*
X63199188Y-79770518D01*
X63186928Y-79895000D01*
X60660000Y-79895000D01*
X60660000Y-50240475D01*
X72965000Y-50240475D01*
X72965000Y-50759525D01*
X73066261Y-51268601D01*
X73264893Y-51748141D01*
X73553262Y-52179715D01*
X73920285Y-52546738D01*
X74351859Y-52835107D01*
X74831399Y-53033739D01*
X75340475Y-53135000D01*
X75859525Y-53135000D01*
X76368601Y-53033739D01*
X76848141Y-52835107D01*
X77279715Y-52546738D01*
X77646738Y-52179715D01*
X77935107Y-51748141D01*
X78133739Y-51268601D01*
X78235000Y-50759525D01*
X78235000Y-50240475D01*
X81765000Y-50240475D01*
X81765000Y-50759525D01*
X81866261Y-51268601D01*
X82064893Y-51748141D01*
X82353262Y-52179715D01*
X82720285Y-52546738D01*
X83151859Y-52835107D01*
X83631399Y-53033739D01*
X84140475Y-53135000D01*
X84659525Y-53135000D01*
X85168601Y-53033739D01*
X85648141Y-52835107D01*
X86079715Y-52546738D01*
X86446738Y-52179715D01*
X86735107Y-51748141D01*
X86933739Y-51268601D01*
X87035000Y-50759525D01*
X87035000Y-50240475D01*
X86933739Y-49731399D01*
X86735107Y-49251859D01*
X86446738Y-48820285D01*
X86079715Y-48453262D01*
X85648141Y-48164893D01*
X85168601Y-47966261D01*
X84659525Y-47865000D01*
X84140475Y-47865000D01*
X83631399Y-47966261D01*
X83151859Y-48164893D01*
X82720285Y-48453262D01*
X82353262Y-48820285D01*
X82064893Y-49251859D01*
X81866261Y-49731399D01*
X81765000Y-50240475D01*
X78235000Y-50240475D01*
X78133739Y-49731399D01*
X77935107Y-49251859D01*
X77646738Y-48820285D01*
X77279715Y-48453262D01*
X76848141Y-48164893D01*
X76368601Y-47966261D01*
X75859525Y-47865000D01*
X75340475Y-47865000D01*
X74831399Y-47966261D01*
X74351859Y-48164893D01*
X73920285Y-48453262D01*
X73553262Y-48820285D01*
X73264893Y-49251859D01*
X73066261Y-49731399D01*
X72965000Y-50240475D01*
X60660000Y-50240475D01*
X60660000Y-44737323D01*
X62333000Y-44737323D01*
X62333000Y-45262677D01*
X62435492Y-45777935D01*
X62636536Y-46263298D01*
X62928406Y-46700113D01*
X63299887Y-47071594D01*
X63736702Y-47363464D01*
X64222065Y-47564508D01*
X64737323Y-47667000D01*
X65262677Y-47667000D01*
X65777935Y-47564508D01*
X66263298Y-47363464D01*
X66700113Y-47071594D01*
X67071594Y-46700113D01*
X67363464Y-46263298D01*
X67564508Y-45777935D01*
X67667000Y-45262677D01*
X67667000Y-44737323D01*
X92333000Y-44737323D01*
X92333000Y-45262677D01*
X92435492Y-45777935D01*
X92636536Y-46263298D01*
X92928406Y-46700113D01*
X93299887Y-47071594D01*
X93736702Y-47363464D01*
X94222065Y-47564508D01*
X94737323Y-47667000D01*
X95262677Y-47667000D01*
X95777935Y-47564508D01*
X96263298Y-47363464D01*
X96700113Y-47071594D01*
X97071594Y-46700113D01*
X97363464Y-46263298D01*
X97564508Y-45777935D01*
X97667000Y-45262677D01*
X97667000Y-44737323D01*
X97564508Y-44222065D01*
X97363464Y-43736702D01*
X97071594Y-43299887D01*
X96700113Y-42928406D01*
X96263298Y-42636536D01*
X95777935Y-42435492D01*
X95262677Y-42333000D01*
X94737323Y-42333000D01*
X94222065Y-42435492D01*
X93736702Y-42636536D01*
X93299887Y-42928406D01*
X92928406Y-43299887D01*
X92636536Y-43736702D01*
X92435492Y-44222065D01*
X92333000Y-44737323D01*
X67667000Y-44737323D01*
X67564508Y-44222065D01*
X67363464Y-43736702D01*
X67071594Y-43299887D01*
X66700113Y-42928406D01*
X66263298Y-42636536D01*
X65777935Y-42435492D01*
X65262677Y-42333000D01*
X64737323Y-42333000D01*
X64222065Y-42435492D01*
X63736702Y-42636536D01*
X63299887Y-42928406D01*
X62928406Y-43299887D01*
X62636536Y-43736702D01*
X62435492Y-44222065D01*
X62333000Y-44737323D01*
X60660000Y-44737323D01*
X60660000Y-40660000D01*
X99340000Y-40660000D01*
X99340001Y-139340000D01*
X99340001Y-139340000D01*
G37*
X99340001Y-139340000D02*
X60660000Y-139340000D01*
X60660000Y-134737323D01*
X62333000Y-134737323D01*
X62333000Y-135262677D01*
X62435492Y-135777935D01*
X62636536Y-136263298D01*
X62928406Y-136700113D01*
X63299887Y-137071594D01*
X63736702Y-137363464D01*
X64222065Y-137564508D01*
X64737323Y-137667000D01*
X65262677Y-137667000D01*
X65777935Y-137564508D01*
X66263298Y-137363464D01*
X66700113Y-137071594D01*
X67071594Y-136700113D01*
X67363464Y-136263298D01*
X67564508Y-135777935D01*
X67667000Y-135262677D01*
X67667000Y-134737323D01*
X67564508Y-134222065D01*
X67555369Y-134200000D01*
X68211928Y-134200000D01*
X68224188Y-134324482D01*
X68260498Y-134444180D01*
X68319463Y-134554494D01*
X68398815Y-134651185D01*
X68495506Y-134730537D01*
X68605820Y-134789502D01*
X68725518Y-134825812D01*
X68850000Y-134838072D01*
X69414250Y-134835000D01*
X69573000Y-134676250D01*
X69573000Y-133327000D01*
X69827000Y-133327000D01*
X69827000Y-134676250D01*
X69985750Y-134835000D01*
X70550000Y-134838072D01*
X70674482Y-134825812D01*
X70794180Y-134789502D01*
X70904494Y-134730537D01*
X71001185Y-134651185D01*
X71080537Y-134554494D01*
X71139502Y-134444180D01*
X71175812Y-134324482D01*
X71188072Y-134200000D01*
X71187220Y-134001874D01*
X72355881Y-134001874D01*
X72435724Y-134224976D01*
X72557631Y-134412764D01*
X72713831Y-134573161D01*
X72898322Y-134700003D01*
X73104013Y-134788415D01*
X73323000Y-134835000D01*
X73873000Y-134835000D01*
X73873000Y-133827000D01*
X74127000Y-133827000D01*
X74127000Y-134835000D01*
X74677000Y-134835000D01*
X74895987Y-134788415D01*
X75101678Y-134700003D01*
X75286169Y-134573161D01*
X75442369Y-134412764D01*
X75564276Y-134224976D01*
X75644119Y-134001874D01*
X82355881Y-134001874D01*
X82435724Y-134224976D01*
X82557631Y-134412764D01*
X82713831Y-134573161D01*
X82898322Y-134700003D01*
X83104013Y-134788415D01*
X83323000Y-134835000D01*
X83873000Y-134835000D01*
X83873000Y-133827000D01*
X84127000Y-133827000D01*
X84127000Y-134835000D01*
X84677000Y-134835000D01*
X84895987Y-134788415D01*
X85014852Y-134737323D01*
X92333000Y-134737323D01*
X92333000Y-135262677D01*
X92435492Y-135777935D01*
X92636536Y-136263298D01*
X92928406Y-136700113D01*
X93299887Y-137071594D01*
X93736702Y-137363464D01*
X94222065Y-137564508D01*
X94737323Y-137667000D01*
X95262677Y-137667000D01*
X95777935Y-137564508D01*
X96263298Y-137363464D01*
X96700113Y-137071594D01*
X97071594Y-136700113D01*
X97363464Y-136263298D01*
X97564508Y-135777935D01*
X97667000Y-135262677D01*
X97667000Y-134737323D01*
X97564508Y-134222065D01*
X97363464Y-133736702D01*
X97071594Y-133299887D01*
X96700113Y-132928406D01*
X96263298Y-132636536D01*
X95777935Y-132435492D01*
X95262677Y-132333000D01*
X94737323Y-132333000D01*
X94222065Y-132435492D01*
X93736702Y-132636536D01*
X93299887Y-132928406D01*
X92928406Y-133299887D01*
X92636536Y-133736702D01*
X92435492Y-134222065D01*
X92333000Y-134737323D01*
X85014852Y-134737323D01*
X85101678Y-134700003D01*
X85286169Y-134573161D01*
X85442369Y-134412764D01*
X85564276Y-134224976D01*
X85644119Y-134001874D01*
X85517954Y-133827000D01*
X84127000Y-133827000D01*
X83873000Y-133827000D01*
X82482046Y-133827000D01*
X82355881Y-134001874D01*
X75644119Y-134001874D01*
X75517954Y-133827000D01*
X74127000Y-133827000D01*
X73873000Y-133827000D01*
X72482046Y-133827000D01*
X72355881Y-134001874D01*
X71187220Y-134001874D01*
X71185000Y-133485750D01*
X71097376Y-133398126D01*
X72355881Y-133398126D01*
X72482046Y-133573000D01*
X73873000Y-133573000D01*
X73873000Y-133553000D01*
X74127000Y-133553000D01*
X74127000Y-133573000D01*
X75517954Y-133573000D01*
X75644119Y-133398126D01*
X82355881Y-133398126D01*
X82482046Y-133573000D01*
X83873000Y-133573000D01*
X83873000Y-133553000D01*
X84127000Y-133553000D01*
X84127000Y-133573000D01*
X85517954Y-133573000D01*
X85644119Y-133398126D01*
X85564276Y-133175024D01*
X85442369Y-132987236D01*
X85286169Y-132826839D01*
X85101678Y-132699997D01*
X84895987Y-132611585D01*
X84677000Y-132565000D01*
X83323000Y-132565000D01*
X83104013Y-132611585D01*
X82898322Y-132699997D01*
X82713831Y-132826839D01*
X82557631Y-132987236D01*
X82435724Y-133175024D01*
X82355881Y-133398126D01*
X75644119Y-133398126D01*
X75564276Y-133175024D01*
X75442369Y-132987236D01*
X75286169Y-132826839D01*
X75101678Y-132699997D01*
X74895987Y-132611585D01*
X74677000Y-132565000D01*
X73323000Y-132565000D01*
X73104013Y-132611585D01*
X72898322Y-132699997D01*
X72713831Y-132826839D01*
X72557631Y-132987236D01*
X72435724Y-133175024D01*
X72355881Y-133398126D01*
X71097376Y-133398126D01*
X71026250Y-133327000D01*
X69827000Y-133327000D01*
X69573000Y-133327000D01*
X68373750Y-133327000D01*
X68215000Y-133485750D01*
X68211928Y-134200000D01*
X67555369Y-134200000D01*
X67363464Y-133736702D01*
X67071594Y-133299887D01*
X66700113Y-132928406D01*
X66263298Y-132636536D01*
X65777935Y-132435492D01*
X65262677Y-132333000D01*
X64737323Y-132333000D01*
X64222065Y-132435492D01*
X63736702Y-132636536D01*
X63299887Y-132928406D01*
X62928406Y-133299887D01*
X62636536Y-133736702D01*
X62435492Y-134222065D01*
X62333000Y-134737323D01*
X60660000Y-134737323D01*
X60660000Y-132200000D01*
X68211928Y-132200000D01*
X68215000Y-132914250D01*
X68373750Y-133073000D01*
X69573000Y-133073000D01*
X69573000Y-131723750D01*
X69827000Y-131723750D01*
X69827000Y-133073000D01*
X71026250Y-133073000D01*
X71185000Y-132914250D01*
X71188072Y-132200000D01*
X71175812Y-132075518D01*
X71139502Y-131955820D01*
X71080537Y-131845506D01*
X71001185Y-131748815D01*
X70904494Y-131669463D01*
X70794180Y-131610498D01*
X70674482Y-131574188D01*
X70550000Y-131561928D01*
X69985750Y-131565000D01*
X69827000Y-131723750D01*
X69573000Y-131723750D01*
X69414250Y-131565000D01*
X68850000Y-131561928D01*
X68725518Y-131574188D01*
X68605820Y-131610498D01*
X68495506Y-131669463D01*
X68398815Y-131748815D01*
X68319463Y-131845506D01*
X68260498Y-131955820D01*
X68224188Y-132075518D01*
X68211928Y-132200000D01*
X60660000Y-132200000D01*
X60660000Y-127900000D01*
X62011928Y-127900000D01*
X62011928Y-129900000D01*
X62024188Y-130024482D01*
X62060498Y-130144180D01*
X62119463Y-130254494D01*
X62198815Y-130351185D01*
X62295506Y-130430537D01*
X62405820Y-130489502D01*
X62525518Y-130525812D01*
X62650000Y-130538072D01*
X62740001Y-130538072D01*
X62740001Y-130562668D01*
X62736324Y-130600000D01*
X62750998Y-130748985D01*
X62794454Y-130892246D01*
X62865000Y-131024227D01*
X62865000Y-131101939D01*
X62904774Y-131301898D01*
X62982795Y-131490256D01*
X63096063Y-131659774D01*
X63240226Y-131803937D01*
X63409744Y-131917205D01*
X63598102Y-131995226D01*
X63798061Y-132035000D01*
X64001939Y-132035000D01*
X64201898Y-131995226D01*
X64390256Y-131917205D01*
X64559774Y-131803937D01*
X64703937Y-131659774D01*
X64817205Y-131490256D01*
X64895226Y-131301898D01*
X64935000Y-131101939D01*
X64935000Y-130898061D01*
X64895226Y-130698102D01*
X64817205Y-130509744D01*
X64743107Y-130398848D01*
X64801185Y-130351185D01*
X64880537Y-130254494D01*
X64939502Y-130144180D01*
X64975812Y-130024482D01*
X64988072Y-129900000D01*
X64988072Y-128150000D01*
X65461928Y-128150000D01*
X65474188Y-128274482D01*
X65510498Y-128394180D01*
X65569463Y-128504494D01*
X65648815Y-128601185D01*
X65745506Y-128680537D01*
X65855820Y-128739502D01*
X65975518Y-128775812D01*
X66100000Y-128788072D01*
X66414250Y-128785000D01*
X66573000Y-128626250D01*
X66573000Y-127827000D01*
X66827000Y-127827000D01*
X66827000Y-128626250D01*
X66985750Y-128785000D01*
X67300000Y-128788072D01*
X67424482Y-128775812D01*
X67544180Y-128739502D01*
X67654494Y-128680537D01*
X67751185Y-128601185D01*
X67830537Y-128504494D01*
X67889502Y-128394180D01*
X67925812Y-128274482D01*
X67938072Y-128150000D01*
X67935000Y-127985750D01*
X67776250Y-127827000D01*
X66827000Y-127827000D01*
X66573000Y-127827000D01*
X65623750Y-127827000D01*
X65465000Y-127985750D01*
X65461928Y-128150000D01*
X64988072Y-128150000D01*
X64988072Y-127900000D01*
X64975812Y-127775518D01*
X64939502Y-127655820D01*
X64880537Y-127545506D01*
X64801185Y-127448815D01*
X64704494Y-127369463D01*
X64594180Y-127310498D01*
X64474482Y-127274188D01*
X64350000Y-127261928D01*
X62650000Y-127261928D01*
X62525518Y-127274188D01*
X62405820Y-127310498D01*
X62295506Y-127369463D01*
X62198815Y-127448815D01*
X62119463Y-127545506D01*
X62060498Y-127655820D01*
X62024188Y-127775518D01*
X62011928Y-127900000D01*
X60660000Y-127900000D01*
X60660000Y-127250000D01*
X65461928Y-127250000D01*
X65465000Y-127414250D01*
X65623750Y-127573000D01*
X66573000Y-127573000D01*
X66573000Y-126773750D01*
X66827000Y-126773750D01*
X66827000Y-127573000D01*
X67776250Y-127573000D01*
X67935000Y-127414250D01*
X67938072Y-127250000D01*
X67925812Y-127125518D01*
X67889502Y-127005820D01*
X67830537Y-126895506D01*
X67751185Y-126798815D01*
X67654494Y-126719463D01*
X67544180Y-126660498D01*
X67424482Y-126624188D01*
X67300000Y-126611928D01*
X66985750Y-126615000D01*
X66827000Y-126773750D01*
X66573000Y-126773750D01*
X66414250Y-126615000D01*
X66100000Y-126611928D01*
X65975518Y-126624188D01*
X65855820Y-126660498D01*
X65745506Y-126719463D01*
X65648815Y-126798815D01*
X65569463Y-126895506D01*
X65510498Y-127005820D01*
X65474188Y-127125518D01*
X65461928Y-127250000D01*
X60660000Y-127250000D01*
X60660000Y-83515001D01*
X61311323Y-83515001D01*
X61315000Y-83552333D01*
X61314999Y-95187677D01*
X61311323Y-95224999D01*
X61314999Y-95262321D01*
X61314999Y-95262331D01*
X61325996Y-95373984D01*
X61367840Y-95511928D01*
X61369453Y-95517245D01*
X61440025Y-95649275D01*
X61479870Y-95697825D01*
X61534998Y-95765000D01*
X61564001Y-95788803D01*
X61912655Y-96137457D01*
X61898815Y-96148815D01*
X61819463Y-96245506D01*
X61760498Y-96355820D01*
X61724188Y-96475518D01*
X61711928Y-96600000D01*
X61711928Y-98600000D01*
X61724188Y-98724482D01*
X61760498Y-98844180D01*
X61819463Y-98954494D01*
X61898815Y-99051185D01*
X61995506Y-99130537D01*
X62105820Y-99189502D01*
X62225518Y-99225812D01*
X62350000Y-99238072D01*
X64050000Y-99238072D01*
X64174482Y-99225812D01*
X64294180Y-99189502D01*
X64404494Y-99130537D01*
X64501185Y-99051185D01*
X64580537Y-98954494D01*
X64639502Y-98844180D01*
X64675812Y-98724482D01*
X64688072Y-98600000D01*
X64688072Y-98360000D01*
X66109556Y-98360000D01*
X66195506Y-98430537D01*
X66305820Y-98489502D01*
X66425518Y-98525812D01*
X66550000Y-98538072D01*
X67937126Y-98538072D01*
X65988998Y-100486201D01*
X65960000Y-100509999D01*
X65936202Y-100538997D01*
X65936201Y-100538998D01*
X65865026Y-100625724D01*
X65845674Y-100661928D01*
X65500000Y-100661928D01*
X65375518Y-100674188D01*
X65255820Y-100710498D01*
X65145506Y-100769463D01*
X65048815Y-100848815D01*
X64969463Y-100945506D01*
X64910498Y-101055820D01*
X64874188Y-101175518D01*
X64861928Y-101300000D01*
X64861928Y-102463271D01*
X64684016Y-102641183D01*
X64688072Y-102600000D01*
X64688072Y-100600000D01*
X64675812Y-100475518D01*
X64639502Y-100355820D01*
X64580537Y-100245506D01*
X64501185Y-100148815D01*
X64404494Y-100069463D01*
X64294180Y-100010498D01*
X64174482Y-99974188D01*
X64050000Y-99961928D01*
X62350000Y-99961928D01*
X62225518Y-99974188D01*
X62105820Y-100010498D01*
X61995506Y-100069463D01*
X61898815Y-100148815D01*
X61819463Y-100245506D01*
X61760498Y-100355820D01*
X61724188Y-100475518D01*
X61711928Y-100600000D01*
X61711928Y-102600000D01*
X61724188Y-102724482D01*
X61760498Y-102844180D01*
X61819463Y-102954494D01*
X61898815Y-103051185D01*
X61995506Y-103130537D01*
X62105820Y-103189502D01*
X62225518Y-103225812D01*
X62331877Y-103236287D01*
X62282795Y-103309744D01*
X62204774Y-103498102D01*
X62165000Y-103698061D01*
X62165000Y-103901939D01*
X62204774Y-104101898D01*
X62282795Y-104290256D01*
X62396063Y-104459774D01*
X62540226Y-104603937D01*
X62709744Y-104717205D01*
X62898102Y-104795226D01*
X63098061Y-104835000D01*
X63301939Y-104835000D01*
X63501898Y-104795226D01*
X63690256Y-104717205D01*
X63859774Y-104603937D01*
X64003937Y-104459774D01*
X64090001Y-104330970D01*
X64090000Y-112323982D01*
X63998815Y-112398815D01*
X63919463Y-112495506D01*
X63860498Y-112605820D01*
X63824188Y-112725518D01*
X63811928Y-112850000D01*
X63811928Y-114750000D01*
X63824188Y-114874482D01*
X63860498Y-114994180D01*
X63919463Y-115104494D01*
X63998815Y-115201185D01*
X64011905Y-115211928D01*
X63500000Y-115211928D01*
X63375518Y-115224188D01*
X63255820Y-115260498D01*
X63145506Y-115319463D01*
X63048815Y-115398815D01*
X62969463Y-115495506D01*
X62910498Y-115605820D01*
X62874188Y-115725518D01*
X62861928Y-115850000D01*
X62861928Y-117750000D01*
X62874188Y-117874482D01*
X62910498Y-117994180D01*
X62969463Y-118104494D01*
X63048815Y-118201185D01*
X63140000Y-118276019D01*
X63140001Y-119561928D01*
X62550000Y-119561928D01*
X62425518Y-119574188D01*
X62305820Y-119610498D01*
X62195506Y-119669463D01*
X62098815Y-119748815D01*
X62019463Y-119845506D01*
X61960498Y-119955820D01*
X61924188Y-120075518D01*
X61911928Y-120200000D01*
X61911928Y-121000000D01*
X61924188Y-121124482D01*
X61960498Y-121244180D01*
X62019463Y-121354494D01*
X62098815Y-121451185D01*
X62195506Y-121530537D01*
X62305820Y-121589502D01*
X62425518Y-121625812D01*
X62550000Y-121638072D01*
X62740001Y-121638072D01*
X62740000Y-123261928D01*
X62650000Y-123261928D01*
X62525518Y-123274188D01*
X62405820Y-123310498D01*
X62295506Y-123369463D01*
X62198815Y-123448815D01*
X62119463Y-123545506D01*
X62060498Y-123655820D01*
X62024188Y-123775518D01*
X62011928Y-123900000D01*
X62011928Y-125900000D01*
X62024188Y-126024482D01*
X62060498Y-126144180D01*
X62119463Y-126254494D01*
X62198815Y-126351185D01*
X62295506Y-126430537D01*
X62405820Y-126489502D01*
X62525518Y-126525812D01*
X62650000Y-126538072D01*
X64350000Y-126538072D01*
X64474482Y-126525812D01*
X64594180Y-126489502D01*
X64704494Y-126430537D01*
X64801185Y-126351185D01*
X64880537Y-126254494D01*
X64939502Y-126144180D01*
X64975812Y-126024482D01*
X64988072Y-125900000D01*
X64988072Y-123900000D01*
X64975812Y-123775518D01*
X64939502Y-123655820D01*
X64880537Y-123545506D01*
X64801185Y-123448815D01*
X64704494Y-123369463D01*
X64594180Y-123310498D01*
X64474482Y-123274188D01*
X64350000Y-123261928D01*
X64260000Y-123261928D01*
X64260000Y-121638072D01*
X64450000Y-121638072D01*
X64574482Y-121625812D01*
X64694180Y-121589502D01*
X64804494Y-121530537D01*
X64901185Y-121451185D01*
X64911928Y-121438095D01*
X64911928Y-121950000D01*
X64924188Y-122074482D01*
X64960498Y-122194180D01*
X65019463Y-122304494D01*
X65098815Y-122401185D01*
X65195506Y-122480537D01*
X65305820Y-122539502D01*
X65425518Y-122575812D01*
X65550000Y-122588072D01*
X65940001Y-122588072D01*
X65940000Y-123334962D01*
X65855820Y-123360498D01*
X65745506Y-123419463D01*
X65648815Y-123498815D01*
X65569463Y-123595506D01*
X65510498Y-123705820D01*
X65474188Y-123825518D01*
X65461928Y-123950000D01*
X65461928Y-124850000D01*
X65474188Y-124974482D01*
X65510498Y-125094180D01*
X65569463Y-125204494D01*
X65648815Y-125301185D01*
X65745506Y-125380537D01*
X65855820Y-125439502D01*
X65975518Y-125475812D01*
X66100000Y-125488072D01*
X67300000Y-125488072D01*
X67424482Y-125475812D01*
X67544180Y-125439502D01*
X67654494Y-125380537D01*
X67751185Y-125301185D01*
X67830537Y-125204494D01*
X67889502Y-125094180D01*
X67925812Y-124974482D01*
X67938072Y-124850000D01*
X67938072Y-123950000D01*
X67925812Y-123825518D01*
X67889502Y-123705820D01*
X67830537Y-123595506D01*
X67751185Y-123498815D01*
X67654494Y-123419463D01*
X67544180Y-123360498D01*
X67460000Y-123334962D01*
X67460000Y-122587087D01*
X67574482Y-122575812D01*
X67694180Y-122539502D01*
X67804494Y-122480537D01*
X67901185Y-122401185D01*
X67976018Y-122310000D01*
X68250130Y-122310000D01*
X68260498Y-122344180D01*
X68319463Y-122454494D01*
X68398815Y-122551185D01*
X68495506Y-122630537D01*
X68605820Y-122689502D01*
X68725518Y-122725812D01*
X68850000Y-122738072D01*
X70550000Y-122738072D01*
X70674482Y-122725812D01*
X70794180Y-122689502D01*
X70904494Y-122630537D01*
X71001185Y-122551185D01*
X71080537Y-122454494D01*
X71139502Y-122344180D01*
X71175812Y-122224482D01*
X71188072Y-122100000D01*
X71188072Y-120100000D01*
X71175812Y-119975518D01*
X71139502Y-119855820D01*
X71080537Y-119745506D01*
X71001185Y-119648815D01*
X70904494Y-119569463D01*
X70794180Y-119510498D01*
X70674482Y-119474188D01*
X70550000Y-119461928D01*
X68850000Y-119461928D01*
X68725518Y-119474188D01*
X68605820Y-119510498D01*
X68495506Y-119569463D01*
X68398815Y-119648815D01*
X68319463Y-119745506D01*
X68260498Y-119855820D01*
X68224188Y-119975518D01*
X68211928Y-120100000D01*
X68211928Y-120790000D01*
X67976018Y-120790000D01*
X67901185Y-120698815D01*
X67804494Y-120619463D01*
X67768082Y-120600000D01*
X67804494Y-120580537D01*
X67901185Y-120501185D01*
X67980537Y-120404494D01*
X68039502Y-120294180D01*
X68075812Y-120174482D01*
X68088072Y-120050000D01*
X68088072Y-119250000D01*
X68075812Y-119125518D01*
X68039502Y-119005820D01*
X67980537Y-118895506D01*
X67901185Y-118798815D01*
X67804494Y-118719463D01*
X67694180Y-118660498D01*
X67692538Y-118660000D01*
X68061928Y-118660000D01*
X68061928Y-118750000D01*
X68074188Y-118874482D01*
X68110498Y-118994180D01*
X68169463Y-119104494D01*
X68248815Y-119201185D01*
X68345506Y-119280537D01*
X68455820Y-119339502D01*
X68575518Y-119375812D01*
X68700000Y-119388072D01*
X70700000Y-119388072D01*
X70824482Y-119375812D01*
X70944180Y-119339502D01*
X71054494Y-119280537D01*
X71151185Y-119201185D01*
X71230537Y-119104494D01*
X71289502Y-118994180D01*
X71325812Y-118874482D01*
X71338072Y-118750000D01*
X72061928Y-118750000D01*
X72074188Y-118874482D01*
X72110498Y-118994180D01*
X72169463Y-119104494D01*
X72248815Y-119201185D01*
X72345506Y-119280537D01*
X72455820Y-119339502D01*
X72575518Y-119375812D01*
X72700000Y-119388072D01*
X73414250Y-119385000D01*
X73573000Y-119226250D01*
X73573000Y-118027000D01*
X72223750Y-118027000D01*
X72065000Y-118185750D01*
X72061928Y-118750000D01*
X71338072Y-118750000D01*
X71338072Y-117050000D01*
X72061928Y-117050000D01*
X72065000Y-117614250D01*
X72223750Y-117773000D01*
X73573000Y-117773000D01*
X73573000Y-116573750D01*
X73827000Y-116573750D01*
X73827000Y-117773000D01*
X75176250Y-117773000D01*
X75335000Y-117614250D01*
X75338072Y-117050000D01*
X75325812Y-116925518D01*
X75289502Y-116805820D01*
X75230537Y-116695506D01*
X75151185Y-116598815D01*
X75054494Y-116519463D01*
X74944180Y-116460498D01*
X74824482Y-116424188D01*
X74700000Y-116411928D01*
X73985750Y-116415000D01*
X73827000Y-116573750D01*
X73573000Y-116573750D01*
X73414250Y-116415000D01*
X72700000Y-116411928D01*
X72575518Y-116424188D01*
X72455820Y-116460498D01*
X72345506Y-116519463D01*
X72248815Y-116598815D01*
X72169463Y-116695506D01*
X72110498Y-116805820D01*
X72074188Y-116925518D01*
X72061928Y-117050000D01*
X71338072Y-117050000D01*
X71325812Y-116925518D01*
X71289502Y-116805820D01*
X71230537Y-116695506D01*
X71151185Y-116598815D01*
X71054494Y-116519463D01*
X70944180Y-116460498D01*
X70824482Y-116424188D01*
X70700000Y-116411928D01*
X68700000Y-116411928D01*
X68575518Y-116424188D01*
X68455820Y-116460498D01*
X68345506Y-116519463D01*
X68248815Y-116598815D01*
X68169463Y-116695506D01*
X68110498Y-116805820D01*
X68074188Y-116925518D01*
X68061928Y-117050000D01*
X68061928Y-117140000D01*
X67214802Y-117140000D01*
X66838072Y-116763271D01*
X66838072Y-115850000D01*
X66825812Y-115725518D01*
X66789502Y-115605820D01*
X66730537Y-115495506D01*
X66651185Y-115398815D01*
X66554494Y-115319463D01*
X66444180Y-115260498D01*
X66324482Y-115224188D01*
X66200000Y-115211928D01*
X65688095Y-115211928D01*
X65701185Y-115201185D01*
X65780537Y-115104494D01*
X65839502Y-114994180D01*
X65875812Y-114874482D01*
X65888072Y-114750000D01*
X65888072Y-114560000D01*
X68161928Y-114560000D01*
X68161928Y-115250000D01*
X68174188Y-115374482D01*
X68210498Y-115494180D01*
X68269463Y-115604494D01*
X68348815Y-115701185D01*
X68445506Y-115780537D01*
X68555820Y-115839502D01*
X68675518Y-115875812D01*
X68800000Y-115888072D01*
X70800000Y-115888072D01*
X70924482Y-115875812D01*
X71044180Y-115839502D01*
X71154494Y-115780537D01*
X71251185Y-115701185D01*
X71330537Y-115604494D01*
X71389502Y-115494180D01*
X71425812Y-115374482D01*
X71438072Y-115250000D01*
X71438072Y-115054326D01*
X71474276Y-115034974D01*
X71590001Y-114940001D01*
X71613804Y-114910997D01*
X72161928Y-114362873D01*
X72161928Y-115250000D01*
X72174188Y-115374482D01*
X72210498Y-115494180D01*
X72269463Y-115604494D01*
X72348815Y-115701185D01*
X72445506Y-115780537D01*
X72555820Y-115839502D01*
X72675518Y-115875812D01*
X72800000Y-115888072D01*
X74800000Y-115888072D01*
X74924482Y-115875812D01*
X75044180Y-115839502D01*
X75154494Y-115780537D01*
X75251185Y-115701185D01*
X75330537Y-115604494D01*
X75389502Y-115494180D01*
X75418301Y-115399244D01*
X75598061Y-115435000D01*
X75801939Y-115435000D01*
X76001898Y-115395226D01*
X76190256Y-115317205D01*
X76359774Y-115203937D01*
X76503937Y-115059774D01*
X76617205Y-114890256D01*
X76695226Y-114701898D01*
X76735000Y-114501939D01*
X76735000Y-114298061D01*
X76695226Y-114098102D01*
X76617205Y-113909744D01*
X76503937Y-113740226D01*
X76359774Y-113596063D01*
X76343219Y-113585001D01*
X77587677Y-113585001D01*
X77624999Y-113588677D01*
X77662321Y-113585001D01*
X77662332Y-113585001D01*
X77773985Y-113574004D01*
X77917246Y-113530547D01*
X78049275Y-113459975D01*
X78165000Y-113365002D01*
X78188802Y-113335999D01*
X79278439Y-112246363D01*
X79375518Y-112275812D01*
X79500000Y-112288072D01*
X80700000Y-112288072D01*
X80824482Y-112275812D01*
X80944180Y-112239502D01*
X81054494Y-112180537D01*
X81151185Y-112101185D01*
X81230537Y-112004494D01*
X81289502Y-111894180D01*
X81325812Y-111774482D01*
X81338072Y-111650000D01*
X81338072Y-110750000D01*
X81325812Y-110625518D01*
X81289502Y-110505820D01*
X81230537Y-110395506D01*
X81151185Y-110298815D01*
X81080098Y-110240475D01*
X81765000Y-110240475D01*
X81765000Y-110759525D01*
X81866261Y-111268601D01*
X82064893Y-111748141D01*
X82353262Y-112179715D01*
X82720285Y-112546738D01*
X83151859Y-112835107D01*
X83631399Y-113033739D01*
X84140475Y-113135000D01*
X84659525Y-113135000D01*
X85168601Y-113033739D01*
X85648141Y-112835107D01*
X86079715Y-112546738D01*
X86446738Y-112179715D01*
X86735107Y-111748141D01*
X86933739Y-111268601D01*
X87035000Y-110759525D01*
X87035000Y-110240475D01*
X86933739Y-109731399D01*
X86735107Y-109251859D01*
X86446738Y-108820285D01*
X86079715Y-108453262D01*
X85648141Y-108164893D01*
X85168601Y-107966261D01*
X84659525Y-107865000D01*
X84140475Y-107865000D01*
X83631399Y-107966261D01*
X83151859Y-108164893D01*
X82720285Y-108453262D01*
X82353262Y-108820285D01*
X82064893Y-109251859D01*
X81866261Y-109731399D01*
X81765000Y-110240475D01*
X81080098Y-110240475D01*
X81054494Y-110219463D01*
X80944180Y-110160498D01*
X80824482Y-110124188D01*
X80700000Y-110111928D01*
X79500000Y-110111928D01*
X79375518Y-110124188D01*
X79255820Y-110160498D01*
X79145506Y-110219463D01*
X79048815Y-110298815D01*
X78969463Y-110395506D01*
X78910498Y-110505820D01*
X78905468Y-110522401D01*
X78825724Y-110565026D01*
X78825722Y-110565027D01*
X78825723Y-110565027D01*
X78738996Y-110636201D01*
X78738992Y-110636205D01*
X78709999Y-110659999D01*
X78686205Y-110688992D01*
X78140478Y-111234719D01*
X78235000Y-110759525D01*
X78235000Y-110240475D01*
X78133739Y-109731399D01*
X77935107Y-109251859D01*
X77646738Y-108820285D01*
X77279715Y-108453262D01*
X76848141Y-108164893D01*
X76368601Y-107966261D01*
X75859525Y-107865000D01*
X75340475Y-107865000D01*
X74831399Y-107966261D01*
X74351859Y-108164893D01*
X73920285Y-108453262D01*
X73553262Y-108820285D01*
X73264893Y-109251859D01*
X73066261Y-109731399D01*
X72965000Y-110240475D01*
X72965000Y-110759525D01*
X73066261Y-111268601D01*
X73264893Y-111748141D01*
X73476612Y-112065001D01*
X72662322Y-112065001D01*
X72624999Y-112061325D01*
X72587676Y-112065001D01*
X72587666Y-112065001D01*
X72476013Y-112075998D01*
X72332752Y-112119455D01*
X72200722Y-112190027D01*
X72117082Y-112258669D01*
X72084998Y-112285000D01*
X72061200Y-112313998D01*
X71262543Y-113112655D01*
X71251185Y-113098815D01*
X71154494Y-113019463D01*
X71044180Y-112960498D01*
X70924482Y-112924188D01*
X70800000Y-112911928D01*
X68800000Y-112911928D01*
X68675518Y-112924188D01*
X68555820Y-112960498D01*
X68445506Y-113019463D01*
X68420482Y-113040000D01*
X65888072Y-113040000D01*
X65888072Y-112850000D01*
X65875812Y-112725518D01*
X65839502Y-112605820D01*
X65780537Y-112495506D01*
X65701185Y-112398815D01*
X65610000Y-112323982D01*
X65610000Y-110400000D01*
X69011928Y-110400000D01*
X69024188Y-110524482D01*
X69060498Y-110644180D01*
X69119463Y-110754494D01*
X69198815Y-110851185D01*
X69295506Y-110930537D01*
X69405820Y-110989502D01*
X69525518Y-111025812D01*
X69650000Y-111038072D01*
X70214250Y-111035000D01*
X70373000Y-110876250D01*
X70373000Y-109527000D01*
X70627000Y-109527000D01*
X70627000Y-110876250D01*
X70785750Y-111035000D01*
X71350000Y-111038072D01*
X71474482Y-111025812D01*
X71594180Y-110989502D01*
X71704494Y-110930537D01*
X71801185Y-110851185D01*
X71880537Y-110754494D01*
X71939502Y-110644180D01*
X71975812Y-110524482D01*
X71988072Y-110400000D01*
X71985000Y-109685750D01*
X71826250Y-109527000D01*
X70627000Y-109527000D01*
X70373000Y-109527000D01*
X69173750Y-109527000D01*
X69015000Y-109685750D01*
X69011928Y-110400000D01*
X65610000Y-110400000D01*
X65610000Y-108400000D01*
X69011928Y-108400000D01*
X69015000Y-109114250D01*
X69173750Y-109273000D01*
X70373000Y-109273000D01*
X70373000Y-107923750D01*
X70627000Y-107923750D01*
X70627000Y-109273000D01*
X71826250Y-109273000D01*
X71985000Y-109114250D01*
X71988072Y-108400000D01*
X71975812Y-108275518D01*
X71939502Y-108155820D01*
X71880537Y-108045506D01*
X71801185Y-107948815D01*
X71704494Y-107869463D01*
X71594180Y-107810498D01*
X71474482Y-107774188D01*
X71350000Y-107761928D01*
X70785750Y-107765000D01*
X70627000Y-107923750D01*
X70373000Y-107923750D01*
X70214250Y-107765000D01*
X69650000Y-107761928D01*
X69525518Y-107774188D01*
X69405820Y-107810498D01*
X69295506Y-107869463D01*
X69198815Y-107948815D01*
X69119463Y-108045506D01*
X69060498Y-108155820D01*
X69024188Y-108275518D01*
X69011928Y-108400000D01*
X65610000Y-108400000D01*
X65610000Y-103864801D01*
X65936729Y-103538072D01*
X67500000Y-103538072D01*
X67624482Y-103525812D01*
X67744180Y-103489502D01*
X67854494Y-103430537D01*
X67951185Y-103351185D01*
X68030537Y-103254494D01*
X68089502Y-103144180D01*
X68125812Y-103024482D01*
X68138072Y-102900000D01*
X68138072Y-101300000D01*
X68125812Y-101175518D01*
X68089502Y-101055820D01*
X68030537Y-100945506D01*
X67951185Y-100848815D01*
X67854958Y-100769844D01*
X69227281Y-99397521D01*
X69305820Y-99439502D01*
X69425518Y-99475812D01*
X69550000Y-99488072D01*
X69740000Y-99488072D01*
X69740001Y-100661928D01*
X69500000Y-100661928D01*
X69375518Y-100674188D01*
X69255820Y-100710498D01*
X69145506Y-100769463D01*
X69048815Y-100848815D01*
X68969463Y-100945506D01*
X68910498Y-101055820D01*
X68874188Y-101175518D01*
X68861928Y-101300000D01*
X68861928Y-102900000D01*
X68874188Y-103024482D01*
X68910498Y-103144180D01*
X68969463Y-103254494D01*
X69048815Y-103351185D01*
X69145506Y-103430537D01*
X69255820Y-103489502D01*
X69375518Y-103525812D01*
X69500000Y-103538072D01*
X69740000Y-103538072D01*
X69740000Y-103761928D01*
X69650000Y-103761928D01*
X69525518Y-103774188D01*
X69405820Y-103810498D01*
X69295506Y-103869463D01*
X69198815Y-103948815D01*
X69119463Y-104045506D01*
X69060498Y-104155820D01*
X69024188Y-104275518D01*
X69011928Y-104400000D01*
X69011928Y-106400000D01*
X69024188Y-106524482D01*
X69060498Y-106644180D01*
X69119463Y-106754494D01*
X69198815Y-106851185D01*
X69295506Y-106930537D01*
X69405820Y-106989502D01*
X69525518Y-107025812D01*
X69650000Y-107038072D01*
X71350000Y-107038072D01*
X71474482Y-107025812D01*
X71594180Y-106989502D01*
X71704494Y-106930537D01*
X71801185Y-106851185D01*
X71880537Y-106754494D01*
X71939502Y-106644180D01*
X71975812Y-106524482D01*
X71988072Y-106400000D01*
X71988072Y-104400000D01*
X71975812Y-104275518D01*
X71939502Y-104155820D01*
X71880537Y-104045506D01*
X71801185Y-103948815D01*
X71704494Y-103869463D01*
X71594180Y-103810498D01*
X71474482Y-103774188D01*
X71350000Y-103761928D01*
X71260000Y-103761928D01*
X71260000Y-103538072D01*
X71500000Y-103538072D01*
X71624482Y-103525812D01*
X71744180Y-103489502D01*
X71854494Y-103430537D01*
X71951185Y-103351185D01*
X72030537Y-103254494D01*
X72089502Y-103144180D01*
X72125812Y-103024482D01*
X72138072Y-102900000D01*
X72138072Y-101300000D01*
X72125812Y-101175518D01*
X72089502Y-101055820D01*
X72030537Y-100945506D01*
X71951185Y-100848815D01*
X71854494Y-100769463D01*
X71744180Y-100710498D01*
X71624482Y-100674188D01*
X71500000Y-100661928D01*
X71260000Y-100661928D01*
X71260000Y-99488072D01*
X71450000Y-99488072D01*
X71574482Y-99475812D01*
X71694180Y-99439502D01*
X71804494Y-99380537D01*
X71901185Y-99301185D01*
X71980537Y-99204494D01*
X72039502Y-99094180D01*
X72075812Y-98974482D01*
X72088072Y-98850000D01*
X72088072Y-98050000D01*
X72075812Y-97925518D01*
X72039502Y-97805820D01*
X71980537Y-97695506D01*
X71901185Y-97598815D01*
X71804494Y-97519463D01*
X71768082Y-97500000D01*
X71804494Y-97480537D01*
X71901185Y-97401185D01*
X71980537Y-97304494D01*
X72039502Y-97194180D01*
X72075812Y-97074482D01*
X72088072Y-96950000D01*
X72085000Y-96835750D01*
X71926250Y-96677000D01*
X70627000Y-96677000D01*
X70627000Y-96697000D01*
X70373000Y-96697000D01*
X70373000Y-96677000D01*
X70353000Y-96677000D01*
X70353000Y-96423000D01*
X70373000Y-96423000D01*
X70373000Y-96403000D01*
X70627000Y-96403000D01*
X70627000Y-96423000D01*
X71926250Y-96423000D01*
X72085000Y-96264250D01*
X72088072Y-96150000D01*
X72075812Y-96025518D01*
X72039502Y-95905820D01*
X71980537Y-95795506D01*
X71901185Y-95698815D01*
X71804494Y-95619463D01*
X71694180Y-95560498D01*
X71574482Y-95524188D01*
X71450000Y-95511928D01*
X71344857Y-95512414D01*
X71404494Y-95480537D01*
X71501185Y-95401185D01*
X71580537Y-95304494D01*
X71639502Y-95194180D01*
X71675812Y-95074482D01*
X71688072Y-94950000D01*
X71688072Y-94760000D01*
X73685199Y-94760000D01*
X76016268Y-97091071D01*
X75965000Y-97348816D01*
X75965000Y-97651184D01*
X76023989Y-97947743D01*
X76139701Y-98227095D01*
X76307688Y-98478505D01*
X76521495Y-98692312D01*
X76772905Y-98860299D01*
X77052257Y-98976011D01*
X77348816Y-99035000D01*
X77651184Y-99035000D01*
X77947743Y-98976011D01*
X78227095Y-98860299D01*
X78478505Y-98692312D01*
X78692312Y-98478505D01*
X78750000Y-98392169D01*
X78807688Y-98478505D01*
X79021495Y-98692312D01*
X79272905Y-98860299D01*
X79552257Y-98976011D01*
X79848816Y-99035000D01*
X80151184Y-99035000D01*
X80408930Y-98983731D01*
X81836200Y-100411002D01*
X81859999Y-100440001D01*
X81888997Y-100463799D01*
X81975724Y-100534974D01*
X82107753Y-100605546D01*
X82251014Y-100649003D01*
X82400000Y-100663677D01*
X82437333Y-100660000D01*
X86385199Y-100660000D01*
X87889990Y-102164792D01*
X87889991Y-108902658D01*
X87886314Y-108939990D01*
X87900988Y-109088975D01*
X87944444Y-109232236D01*
X88015016Y-109364266D01*
X88065526Y-109425812D01*
X88109990Y-109479991D01*
X88138988Y-109503789D01*
X89811928Y-111176730D01*
X89811928Y-111340000D01*
X89824188Y-111464482D01*
X89860498Y-111584180D01*
X89909043Y-111675000D01*
X89860498Y-111765820D01*
X89824188Y-111885518D01*
X89811928Y-112010000D01*
X89811928Y-112610000D01*
X89824188Y-112734482D01*
X89849623Y-112818330D01*
X89832667Y-112820000D01*
X89721014Y-112830997D01*
X89577753Y-112874454D01*
X89445724Y-112945026D01*
X89329999Y-113039999D01*
X89306201Y-113068997D01*
X88862543Y-113512655D01*
X88851185Y-113498815D01*
X88754494Y-113419463D01*
X88644180Y-113360498D01*
X88524482Y-113324188D01*
X88400000Y-113311928D01*
X86400000Y-113311928D01*
X86275518Y-113324188D01*
X86155820Y-113360498D01*
X86045506Y-113419463D01*
X85948815Y-113498815D01*
X85869463Y-113595506D01*
X85810498Y-113705820D01*
X85774188Y-113825518D01*
X85761928Y-113950000D01*
X85761928Y-115650000D01*
X85774188Y-115774482D01*
X85810498Y-115894180D01*
X85869463Y-116004494D01*
X85948815Y-116101185D01*
X86045506Y-116180537D01*
X86155820Y-116239502D01*
X86275518Y-116275812D01*
X86400000Y-116288072D01*
X88400000Y-116288072D01*
X88524482Y-116275812D01*
X88644180Y-116239502D01*
X88754494Y-116180537D01*
X88851185Y-116101185D01*
X88930537Y-116004494D01*
X88989502Y-115894180D01*
X89025812Y-115774482D01*
X89038072Y-115650000D01*
X89038072Y-115454326D01*
X89074276Y-115434974D01*
X89190001Y-115340001D01*
X89213804Y-115310997D01*
X89811928Y-114712874D01*
X89811928Y-115150000D01*
X89824188Y-115274482D01*
X89860498Y-115394180D01*
X89909043Y-115485000D01*
X89860498Y-115575820D01*
X89824188Y-115695518D01*
X89811928Y-115820000D01*
X89811928Y-116420000D01*
X89824188Y-116544482D01*
X89860498Y-116664180D01*
X89919463Y-116774494D01*
X89998815Y-116871185D01*
X90095506Y-116950537D01*
X90205820Y-117009502D01*
X90325518Y-117045812D01*
X90450000Y-117058072D01*
X90740001Y-117058072D01*
X90740000Y-117196289D01*
X90696063Y-117240226D01*
X90582795Y-117409744D01*
X90504774Y-117598102D01*
X90465000Y-117798061D01*
X90465000Y-118001939D01*
X90504774Y-118201898D01*
X90582795Y-118390256D01*
X90664093Y-118511928D01*
X90500000Y-118511928D01*
X90375518Y-118524188D01*
X90255820Y-118560498D01*
X90145506Y-118619463D01*
X90048815Y-118698815D01*
X89969463Y-118795506D01*
X89910498Y-118905820D01*
X89874188Y-119025518D01*
X89861928Y-119150000D01*
X89861928Y-120850000D01*
X89874188Y-120974482D01*
X89910498Y-121094180D01*
X89969463Y-121204494D01*
X90048815Y-121301185D01*
X90145506Y-121380537D01*
X90255820Y-121439502D01*
X90375518Y-121475812D01*
X90500000Y-121488072D01*
X91687127Y-121488072D01*
X91635199Y-121540000D01*
X83264802Y-121540000D01*
X81113804Y-119389003D01*
X81090001Y-119359999D01*
X80974276Y-119265026D01*
X80894532Y-119222401D01*
X80889502Y-119205820D01*
X80830537Y-119095506D01*
X80751185Y-118998815D01*
X80654494Y-118919463D01*
X80623831Y-118903073D01*
X80727095Y-118860299D01*
X80978505Y-118692312D01*
X81192312Y-118478505D01*
X81250000Y-118392169D01*
X81307688Y-118478505D01*
X81521495Y-118692312D01*
X81772905Y-118860299D01*
X82052257Y-118976011D01*
X82348816Y-119035000D01*
X82651184Y-119035000D01*
X82947743Y-118976011D01*
X83227095Y-118860299D01*
X83478505Y-118692312D01*
X83692312Y-118478505D01*
X83860299Y-118227095D01*
X83976011Y-117947743D01*
X84035000Y-117651184D01*
X84035000Y-117348816D01*
X83976011Y-117052257D01*
X83860299Y-116772905D01*
X83692312Y-116521495D01*
X83478505Y-116307688D01*
X83449148Y-116288072D01*
X84400000Y-116288072D01*
X84524482Y-116275812D01*
X84644180Y-116239502D01*
X84754494Y-116180537D01*
X84851185Y-116101185D01*
X84930537Y-116004494D01*
X84989502Y-115894180D01*
X85025812Y-115774482D01*
X85038072Y-115650000D01*
X85038072Y-113950000D01*
X85025812Y-113825518D01*
X84989502Y-113705820D01*
X84930537Y-113595506D01*
X84851185Y-113498815D01*
X84754494Y-113419463D01*
X84644180Y-113360498D01*
X84524482Y-113324188D01*
X84400000Y-113311928D01*
X82400000Y-113311928D01*
X82275518Y-113324188D01*
X82155820Y-113360498D01*
X82045506Y-113419463D01*
X81948815Y-113498815D01*
X81869463Y-113595506D01*
X81810498Y-113705820D01*
X81774188Y-113825518D01*
X81761928Y-113950000D01*
X81761928Y-114663270D01*
X81314968Y-115110231D01*
X81325812Y-115074482D01*
X81338072Y-114950000D01*
X81338072Y-114050000D01*
X81325812Y-113925518D01*
X81289502Y-113805820D01*
X81230537Y-113695506D01*
X81151185Y-113598815D01*
X81054494Y-113519463D01*
X80944180Y-113460498D01*
X80824482Y-113424188D01*
X80700000Y-113411928D01*
X79500000Y-113411928D01*
X79375518Y-113424188D01*
X79255820Y-113460498D01*
X79145506Y-113519463D01*
X79048815Y-113598815D01*
X78969463Y-113695506D01*
X78910498Y-113805820D01*
X78874188Y-113925518D01*
X78861928Y-114050000D01*
X78861928Y-114950000D01*
X78872084Y-115053115D01*
X77908930Y-116016269D01*
X77651184Y-115965000D01*
X77348816Y-115965000D01*
X77052257Y-116023989D01*
X76772905Y-116139701D01*
X76521495Y-116307688D01*
X76307688Y-116521495D01*
X76139701Y-116772905D01*
X76023989Y-117052257D01*
X75965000Y-117348816D01*
X75965000Y-117651184D01*
X76023989Y-117947743D01*
X76139701Y-118227095D01*
X76307688Y-118478505D01*
X76521495Y-118692312D01*
X76772905Y-118860299D01*
X77052257Y-118976011D01*
X77348816Y-119035000D01*
X77651184Y-119035000D01*
X77947743Y-118976011D01*
X78227095Y-118860299D01*
X78478505Y-118692312D01*
X78692312Y-118478505D01*
X78750000Y-118392169D01*
X78807688Y-118478505D01*
X79021495Y-118692312D01*
X79200513Y-118811928D01*
X79100000Y-118811928D01*
X78975518Y-118824188D01*
X78855820Y-118860498D01*
X78745506Y-118919463D01*
X78648815Y-118998815D01*
X78569463Y-119095506D01*
X78510498Y-119205820D01*
X78474188Y-119325518D01*
X78461928Y-119450000D01*
X78461928Y-119470000D01*
X76338313Y-119470000D01*
X76192312Y-119251495D01*
X75978505Y-119037688D01*
X75727095Y-118869701D01*
X75447743Y-118753989D01*
X75337975Y-118732155D01*
X75335000Y-118185750D01*
X75176250Y-118027000D01*
X73827000Y-118027000D01*
X73827000Y-119226250D01*
X73829967Y-119229217D01*
X73807688Y-119251495D01*
X73639701Y-119502905D01*
X73523989Y-119782257D01*
X73465000Y-120078816D01*
X73465000Y-120381184D01*
X73523989Y-120677743D01*
X73639701Y-120957095D01*
X73807688Y-121208505D01*
X73874127Y-121274944D01*
X73855820Y-121280498D01*
X73745506Y-121339463D01*
X73648815Y-121418815D01*
X73569463Y-121515506D01*
X73510498Y-121625820D01*
X73474188Y-121745518D01*
X73461928Y-121870000D01*
X73461928Y-123670000D01*
X73474188Y-123794482D01*
X73510498Y-123914180D01*
X73564383Y-124014990D01*
X71179700Y-124014990D01*
X71175812Y-123975518D01*
X71139502Y-123855820D01*
X71080537Y-123745506D01*
X71001185Y-123648815D01*
X70904494Y-123569463D01*
X70794180Y-123510498D01*
X70674482Y-123474188D01*
X70550000Y-123461928D01*
X68850000Y-123461928D01*
X68725518Y-123474188D01*
X68605820Y-123510498D01*
X68495506Y-123569463D01*
X68398815Y-123648815D01*
X68319463Y-123745506D01*
X68260498Y-123855820D01*
X68224188Y-123975518D01*
X68211928Y-124100000D01*
X68211928Y-126100000D01*
X68224188Y-126224482D01*
X68260498Y-126344180D01*
X68319463Y-126454494D01*
X68398815Y-126551185D01*
X68495506Y-126630537D01*
X68605820Y-126689502D01*
X68725518Y-126725812D01*
X68850000Y-126738072D01*
X68940000Y-126738072D01*
X68940000Y-127561928D01*
X68850000Y-127561928D01*
X68725518Y-127574188D01*
X68605820Y-127610498D01*
X68495506Y-127669463D01*
X68398815Y-127748815D01*
X68319463Y-127845506D01*
X68260498Y-127955820D01*
X68224188Y-128075518D01*
X68211928Y-128200000D01*
X68211928Y-130200000D01*
X68224188Y-130324482D01*
X68260498Y-130444180D01*
X68319463Y-130554494D01*
X68398815Y-130651185D01*
X68495506Y-130730537D01*
X68605820Y-130789502D01*
X68725518Y-130825812D01*
X68850000Y-130838072D01*
X70550000Y-130838072D01*
X70674482Y-130825812D01*
X70794180Y-130789502D01*
X70904494Y-130730537D01*
X71001185Y-130651185D01*
X71080537Y-130554494D01*
X71139502Y-130444180D01*
X71175812Y-130324482D01*
X71188072Y-130200000D01*
X71188072Y-128200000D01*
X71175812Y-128075518D01*
X71139502Y-127955820D01*
X71080537Y-127845506D01*
X71001185Y-127748815D01*
X70904494Y-127669463D01*
X70794180Y-127610498D01*
X70674482Y-127574188D01*
X70550000Y-127561928D01*
X70460000Y-127561928D01*
X70460000Y-126738072D01*
X70550000Y-126738072D01*
X70674482Y-126725812D01*
X70794180Y-126689502D01*
X70904494Y-126630537D01*
X71001185Y-126551185D01*
X71080537Y-126454494D01*
X71139502Y-126344180D01*
X71175812Y-126224482D01*
X71188072Y-126100000D01*
X71188072Y-125754326D01*
X71224276Y-125734974D01*
X71340001Y-125640001D01*
X71363804Y-125610997D01*
X71439811Y-125534990D01*
X72315912Y-125534990D01*
X72309509Y-125600000D01*
X72331423Y-125822499D01*
X72396324Y-126036447D01*
X72501716Y-126233623D01*
X72643551Y-126406449D01*
X72816377Y-126548284D01*
X73013553Y-126653676D01*
X73227501Y-126718577D01*
X73394248Y-126735000D01*
X73610199Y-126735000D01*
X77665399Y-130790201D01*
X77665000Y-130794249D01*
X77665000Y-132005752D01*
X77681423Y-132172499D01*
X77746324Y-132386447D01*
X77851717Y-132583623D01*
X77993552Y-132756449D01*
X78166378Y-132898284D01*
X78363554Y-133003676D01*
X78577502Y-133068577D01*
X78800000Y-133090491D01*
X79022499Y-133068577D01*
X79236447Y-133003676D01*
X79433623Y-132898284D01*
X79606449Y-132756449D01*
X79748284Y-132583623D01*
X79853676Y-132386447D01*
X79918577Y-132172499D01*
X79935000Y-132005752D01*
X79935000Y-130794248D01*
X79934601Y-130790200D01*
X81564802Y-129160000D01*
X82261928Y-129160000D01*
X82261928Y-129250000D01*
X82274188Y-129374482D01*
X82310498Y-129494180D01*
X82369463Y-129604494D01*
X82448815Y-129701185D01*
X82545506Y-129780537D01*
X82655820Y-129839502D01*
X82775518Y-129875812D01*
X82900000Y-129888072D01*
X84900000Y-129888072D01*
X85024482Y-129875812D01*
X85144180Y-129839502D01*
X85254494Y-129780537D01*
X85351185Y-129701185D01*
X85430537Y-129604494D01*
X85489502Y-129494180D01*
X85525812Y-129374482D01*
X85538072Y-129250000D01*
X85538072Y-127662874D01*
X85814999Y-127939801D01*
X85815000Y-129887667D01*
X85811323Y-129924999D01*
X85815000Y-129962332D01*
X85825997Y-130073985D01*
X85829740Y-130086323D01*
X85869453Y-130217245D01*
X85940025Y-130349275D01*
X86011200Y-130436001D01*
X86034999Y-130465000D01*
X86063997Y-130488798D01*
X87486205Y-131911008D01*
X87509999Y-131940001D01*
X87538992Y-131963795D01*
X87538996Y-131963799D01*
X87590117Y-132005752D01*
X87625724Y-132034974D01*
X87670221Y-132058758D01*
X87681423Y-132172499D01*
X87746324Y-132386447D01*
X87851717Y-132583623D01*
X87993552Y-132756449D01*
X88166378Y-132898284D01*
X88363554Y-133003676D01*
X88577502Y-133068577D01*
X88800000Y-133090491D01*
X89022499Y-133068577D01*
X89236447Y-133003676D01*
X89433623Y-132898284D01*
X89606449Y-132756449D01*
X89748284Y-132583623D01*
X89853676Y-132386447D01*
X89918577Y-132172499D01*
X89935000Y-132005752D01*
X89935000Y-130794248D01*
X89918577Y-130627501D01*
X89853676Y-130413553D01*
X89748284Y-130216377D01*
X89606449Y-130043551D01*
X89433623Y-129901716D01*
X89243324Y-129800000D01*
X95961928Y-129800000D01*
X95974188Y-129924482D01*
X96010498Y-130044180D01*
X96069463Y-130154494D01*
X96148815Y-130251185D01*
X96245506Y-130330537D01*
X96355820Y-130389502D01*
X96475518Y-130425812D01*
X96600000Y-130438072D01*
X97114250Y-130435000D01*
X97273000Y-130276250D01*
X97273000Y-128927000D01*
X97527000Y-128927000D01*
X97527000Y-130276250D01*
X97685750Y-130435000D01*
X98200000Y-130438072D01*
X98324482Y-130425812D01*
X98444180Y-130389502D01*
X98554494Y-130330537D01*
X98651185Y-130251185D01*
X98730537Y-130154494D01*
X98789502Y-130044180D01*
X98825812Y-129924482D01*
X98838072Y-129800000D01*
X98835000Y-129085750D01*
X98676250Y-128927000D01*
X97527000Y-128927000D01*
X97273000Y-128927000D01*
X96123750Y-128927000D01*
X95965000Y-129085750D01*
X95961928Y-129800000D01*
X89243324Y-129800000D01*
X89236446Y-129796324D01*
X89229118Y-129794101D01*
X89254494Y-129780537D01*
X89351185Y-129701185D01*
X89430537Y-129604494D01*
X89489502Y-129494180D01*
X89525812Y-129374482D01*
X89538072Y-129250000D01*
X89538072Y-129169315D01*
X89609744Y-129217205D01*
X89798102Y-129295226D01*
X89998061Y-129335000D01*
X90201939Y-129335000D01*
X90401898Y-129295226D01*
X90590256Y-129217205D01*
X90759774Y-129103937D01*
X90903937Y-128959774D01*
X91017205Y-128790256D01*
X91095226Y-128601898D01*
X91135000Y-128401939D01*
X91135000Y-128198061D01*
X91095226Y-127998102D01*
X91017205Y-127809744D01*
X91010695Y-127800000D01*
X95961928Y-127800000D01*
X95965000Y-128514250D01*
X96123750Y-128673000D01*
X97273000Y-128673000D01*
X97273000Y-127323750D01*
X97527000Y-127323750D01*
X97527000Y-128673000D01*
X98676250Y-128673000D01*
X98835000Y-128514250D01*
X98838072Y-127800000D01*
X98825812Y-127675518D01*
X98789502Y-127555820D01*
X98730537Y-127445506D01*
X98651185Y-127348815D01*
X98554494Y-127269463D01*
X98444180Y-127210498D01*
X98324482Y-127174188D01*
X98200000Y-127161928D01*
X97685750Y-127165000D01*
X97527000Y-127323750D01*
X97273000Y-127323750D01*
X97114250Y-127165000D01*
X96600000Y-127161928D01*
X96475518Y-127174188D01*
X96355820Y-127210498D01*
X96245506Y-127269463D01*
X96148815Y-127348815D01*
X96069463Y-127445506D01*
X96010498Y-127555820D01*
X95974188Y-127675518D01*
X95961928Y-127800000D01*
X91010695Y-127800000D01*
X90903937Y-127640226D01*
X90759774Y-127496063D01*
X90590256Y-127382795D01*
X90401898Y-127304774D01*
X90201939Y-127265000D01*
X89998061Y-127265000D01*
X89798102Y-127304774D01*
X89609744Y-127382795D01*
X89527046Y-127438052D01*
X89525812Y-127425518D01*
X89489502Y-127305820D01*
X89430537Y-127195506D01*
X89351185Y-127098815D01*
X89254494Y-127019463D01*
X89144180Y-126960498D01*
X89024482Y-126924188D01*
X88900000Y-126911928D01*
X86936730Y-126911928D01*
X85684601Y-125659800D01*
X85690491Y-125600000D01*
X85668577Y-125377501D01*
X85603676Y-125163553D01*
X85498284Y-124966377D01*
X85356449Y-124793551D01*
X85183623Y-124651716D01*
X84986447Y-124546324D01*
X84772499Y-124481423D01*
X84605752Y-124465000D01*
X83394248Y-124465000D01*
X83227501Y-124481423D01*
X83013553Y-124546324D01*
X82822985Y-124648184D01*
X82438793Y-124263992D01*
X82414991Y-124234989D01*
X82299266Y-124140016D01*
X82167237Y-124069444D01*
X82023976Y-124025987D01*
X81912323Y-124014990D01*
X81912312Y-124014990D01*
X81874990Y-124011314D01*
X81837668Y-124014990D01*
X80821923Y-124014990D01*
X80830537Y-124004494D01*
X80854320Y-123960000D01*
X95162678Y-123960000D01*
X95200000Y-123963676D01*
X95237322Y-123960000D01*
X95237333Y-123960000D01*
X95348986Y-123949003D01*
X95492247Y-123905546D01*
X95624276Y-123834974D01*
X95740001Y-123740001D01*
X95763804Y-123710997D01*
X97640001Y-121834801D01*
X97640001Y-122235197D01*
X96889002Y-122986196D01*
X96859999Y-123009999D01*
X96817121Y-123062247D01*
X96765026Y-123125724D01*
X96745674Y-123161928D01*
X96600000Y-123161928D01*
X96475518Y-123174188D01*
X96355820Y-123210498D01*
X96245506Y-123269463D01*
X96148815Y-123348815D01*
X96069463Y-123445506D01*
X96010498Y-123555820D01*
X95974188Y-123675518D01*
X95961928Y-123800000D01*
X95961928Y-125800000D01*
X95974188Y-125924482D01*
X96010498Y-126044180D01*
X96069463Y-126154494D01*
X96148815Y-126251185D01*
X96245506Y-126330537D01*
X96355820Y-126389502D01*
X96475518Y-126425812D01*
X96600000Y-126438072D01*
X98200000Y-126438072D01*
X98324482Y-126425812D01*
X98444180Y-126389502D01*
X98554494Y-126330537D01*
X98651185Y-126251185D01*
X98730537Y-126154494D01*
X98789502Y-126044180D01*
X98825812Y-125924482D01*
X98838072Y-125800000D01*
X98838072Y-123800000D01*
X98825812Y-123675518D01*
X98789502Y-123555820D01*
X98730537Y-123445506D01*
X98662364Y-123362437D01*
X98911003Y-123113799D01*
X98940001Y-123090001D01*
X99034974Y-122974276D01*
X99105546Y-122842247D01*
X99149003Y-122698986D01*
X99160000Y-122587333D01*
X99163677Y-122550000D01*
X99160000Y-122512667D01*
X99160000Y-113697322D01*
X99163676Y-113659999D01*
X99160000Y-113622676D01*
X99160000Y-113622667D01*
X99149003Y-113511014D01*
X99105546Y-113367753D01*
X99034974Y-113235724D01*
X98940001Y-113119999D01*
X98911004Y-113096202D01*
X98124802Y-112310000D01*
X98411004Y-112023798D01*
X98440001Y-112000001D01*
X98534974Y-111884276D01*
X98605546Y-111752247D01*
X98649003Y-111608986D01*
X98660000Y-111497333D01*
X98660000Y-111497332D01*
X98663677Y-111460000D01*
X98660000Y-111422667D01*
X98660000Y-76632406D01*
X98663676Y-76595081D01*
X98660000Y-76557756D01*
X98660000Y-76557748D01*
X98649003Y-76446095D01*
X98607484Y-76309224D01*
X98722134Y-76215134D01*
X98907706Y-75989014D01*
X99045599Y-75731034D01*
X99130513Y-75451111D01*
X99159185Y-75160000D01*
X99130513Y-74868889D01*
X99045599Y-74588966D01*
X98907706Y-74330986D01*
X98722134Y-74104866D01*
X98496014Y-73919294D01*
X98296913Y-73812872D01*
X98510588Y-73620269D01*
X98684641Y-73386920D01*
X98809825Y-73124099D01*
X98854476Y-72976890D01*
X98733155Y-72747000D01*
X97540000Y-72747000D01*
X97540000Y-72767000D01*
X97286000Y-72767000D01*
X97286000Y-72747000D01*
X95000000Y-72747000D01*
X95000000Y-72767000D01*
X94746000Y-72767000D01*
X94746000Y-72747000D01*
X93552845Y-72747000D01*
X93431524Y-72976890D01*
X93476175Y-73124099D01*
X93601359Y-73386920D01*
X93775412Y-73620269D01*
X93991645Y-73815178D01*
X94241748Y-73964157D01*
X94242846Y-73964546D01*
X94071866Y-74104866D01*
X93886294Y-74330986D01*
X93748401Y-74588966D01*
X93663487Y-74868889D01*
X93634815Y-75160000D01*
X93663487Y-75451111D01*
X93748401Y-75731034D01*
X93886294Y-75989014D01*
X94071866Y-76215134D01*
X94297986Y-76400706D01*
X94555966Y-76538599D01*
X94835889Y-76623513D01*
X95054050Y-76645000D01*
X95199950Y-76645000D01*
X95418111Y-76623513D01*
X95698034Y-76538599D01*
X95956014Y-76400706D01*
X96182134Y-76215134D01*
X96367706Y-75989014D01*
X96397000Y-75934209D01*
X96426294Y-75989014D01*
X96611866Y-76215134D01*
X96837986Y-76400706D01*
X96910970Y-76439716D01*
X96917997Y-76511066D01*
X96952107Y-76623513D01*
X96961454Y-76654327D01*
X97032026Y-76786357D01*
X97063315Y-76824482D01*
X97126999Y-76902082D01*
X97140001Y-76912752D01*
X97140001Y-84259990D01*
X97094180Y-84235498D01*
X96974482Y-84199188D01*
X96850000Y-84186928D01*
X94150000Y-84186928D01*
X94025518Y-84199188D01*
X93905820Y-84235498D01*
X93795506Y-84294463D01*
X93698815Y-84373815D01*
X93619463Y-84470506D01*
X93560498Y-84580820D01*
X93524188Y-84700518D01*
X93511928Y-84825000D01*
X93511928Y-85237126D01*
X92260000Y-83985199D01*
X92260000Y-83888072D01*
X92500000Y-83888072D01*
X92624482Y-83875812D01*
X92744180Y-83839502D01*
X92854494Y-83780537D01*
X92951185Y-83701185D01*
X93030537Y-83604494D01*
X93089502Y-83494180D01*
X93125812Y-83374482D01*
X93138072Y-83250000D01*
X93138072Y-81550000D01*
X93125812Y-81425518D01*
X93089502Y-81305820D01*
X93030537Y-81195506D01*
X92951185Y-81098815D01*
X92854494Y-81019463D01*
X92744180Y-80960498D01*
X92624482Y-80924188D01*
X92500000Y-80911928D01*
X92260000Y-80911928D01*
X92260000Y-72263110D01*
X93431524Y-72263110D01*
X93552845Y-72493000D01*
X94746000Y-72493000D01*
X94746000Y-72473000D01*
X95000000Y-72473000D01*
X95000000Y-72493000D01*
X97286000Y-72493000D01*
X97286000Y-72473000D01*
X97540000Y-72473000D01*
X97540000Y-72493000D01*
X98733155Y-72493000D01*
X98854476Y-72263110D01*
X98809825Y-72115901D01*
X98684641Y-71853080D01*
X98510588Y-71619731D01*
X98294926Y-71425337D01*
X98298252Y-71424157D01*
X98548355Y-71275178D01*
X98764588Y-71080269D01*
X98938641Y-70846920D01*
X99063825Y-70584099D01*
X99108476Y-70436890D01*
X98987155Y-70207000D01*
X97794000Y-70207000D01*
X97794000Y-70227000D01*
X97540000Y-70227000D01*
X97540000Y-70207000D01*
X95254000Y-70207000D01*
X95254000Y-70227000D01*
X95000000Y-70227000D01*
X95000000Y-70207000D01*
X93806845Y-70207000D01*
X93685524Y-70436890D01*
X93730175Y-70584099D01*
X93855359Y-70846920D01*
X94029412Y-71080269D01*
X94245074Y-71274663D01*
X94241748Y-71275843D01*
X93991645Y-71424822D01*
X93775412Y-71619731D01*
X93601359Y-71853080D01*
X93476175Y-72115901D01*
X93431524Y-72263110D01*
X92260000Y-72263110D01*
X92260000Y-67896890D01*
X93431524Y-67896890D01*
X93476175Y-68044099D01*
X93601359Y-68306920D01*
X93775412Y-68540269D01*
X93991645Y-68735178D01*
X94241748Y-68884157D01*
X94245074Y-68885337D01*
X94029412Y-69079731D01*
X93855359Y-69313080D01*
X93730175Y-69575901D01*
X93685524Y-69723110D01*
X93806845Y-69953000D01*
X95000000Y-69953000D01*
X95000000Y-69933000D01*
X95254000Y-69933000D01*
X95254000Y-69953000D01*
X97540000Y-69953000D01*
X97540000Y-69933000D01*
X97794000Y-69933000D01*
X97794000Y-69953000D01*
X98987155Y-69953000D01*
X99108476Y-69723110D01*
X99063825Y-69575901D01*
X98938641Y-69313080D01*
X98764588Y-69079731D01*
X98548355Y-68884822D01*
X98298252Y-68735843D01*
X98294926Y-68734663D01*
X98510588Y-68540269D01*
X98684641Y-68306920D01*
X98809825Y-68044099D01*
X98854476Y-67896890D01*
X98733155Y-67667000D01*
X97540000Y-67667000D01*
X97540000Y-67687000D01*
X97286000Y-67687000D01*
X97286000Y-67667000D01*
X95000000Y-67667000D01*
X95000000Y-67687000D01*
X94746000Y-67687000D01*
X94746000Y-67667000D01*
X93552845Y-67667000D01*
X93431524Y-67896890D01*
X92260000Y-67896890D01*
X92260000Y-67183110D01*
X93431524Y-67183110D01*
X93552845Y-67413000D01*
X94746000Y-67413000D01*
X94746000Y-67393000D01*
X95000000Y-67393000D01*
X95000000Y-67413000D01*
X97286000Y-67413000D01*
X97286000Y-67393000D01*
X97540000Y-67393000D01*
X97540000Y-67413000D01*
X98733155Y-67413000D01*
X98854476Y-67183110D01*
X98809825Y-67035901D01*
X98684641Y-66773080D01*
X98510588Y-66539731D01*
X98296913Y-66347128D01*
X98496014Y-66240706D01*
X98722134Y-66055134D01*
X98907706Y-65829014D01*
X99045599Y-65571034D01*
X99130513Y-65291111D01*
X99159185Y-65000000D01*
X99130513Y-64708889D01*
X99045599Y-64428966D01*
X98907706Y-64170986D01*
X98722134Y-63944866D01*
X98496014Y-63759294D01*
X98238034Y-63621401D01*
X97958111Y-63536487D01*
X97739950Y-63515000D01*
X97594050Y-63515000D01*
X97375889Y-63536487D01*
X97095966Y-63621401D01*
X96837986Y-63759294D01*
X96611866Y-63944866D01*
X96587393Y-63974687D01*
X96566502Y-63905820D01*
X96507537Y-63795506D01*
X96428185Y-63698815D01*
X96331494Y-63619463D01*
X96221180Y-63560498D01*
X96101482Y-63524188D01*
X95977000Y-63511928D01*
X94277000Y-63511928D01*
X94152518Y-63524188D01*
X94032820Y-63560498D01*
X93922506Y-63619463D01*
X93825815Y-63698815D01*
X93746463Y-63795506D01*
X93687498Y-63905820D01*
X93651188Y-64025518D01*
X93638928Y-64150000D01*
X93638928Y-65850000D01*
X93651188Y-65974482D01*
X93687498Y-66094180D01*
X93746463Y-66204494D01*
X93825815Y-66301185D01*
X93922506Y-66380537D01*
X93941035Y-66390441D01*
X93775412Y-66539731D01*
X93601359Y-66773080D01*
X93476175Y-67035901D01*
X93431524Y-67183110D01*
X92260000Y-67183110D01*
X92260000Y-61137322D01*
X92263676Y-61099999D01*
X92260000Y-61062676D01*
X92260000Y-61062667D01*
X92249003Y-60951014D01*
X92205546Y-60807753D01*
X92134974Y-60675724D01*
X92040001Y-60559999D01*
X92011002Y-60536200D01*
X91663803Y-60189002D01*
X91640001Y-60159999D01*
X91524276Y-60065026D01*
X91482424Y-60042655D01*
X91475812Y-59975518D01*
X91439502Y-59855820D01*
X91380537Y-59745506D01*
X91301185Y-59648815D01*
X91204494Y-59569463D01*
X91094180Y-59510498D01*
X90974482Y-59474188D01*
X90850000Y-59461928D01*
X89950000Y-59461928D01*
X89825518Y-59474188D01*
X89705820Y-59510498D01*
X89595506Y-59569463D01*
X89498815Y-59648815D01*
X89419463Y-59745506D01*
X89360498Y-59855820D01*
X89324188Y-59975518D01*
X89311928Y-60100000D01*
X89311928Y-61300000D01*
X89324188Y-61424482D01*
X89360498Y-61544180D01*
X89419463Y-61654494D01*
X89498815Y-61751185D01*
X89595506Y-61830537D01*
X89705820Y-61889502D01*
X89825518Y-61925812D01*
X89950000Y-61938072D01*
X90740001Y-61938072D01*
X90740000Y-80911928D01*
X90500000Y-80911928D01*
X90375518Y-80924188D01*
X90255820Y-80960498D01*
X90145506Y-81019463D01*
X90048815Y-81098815D01*
X89969463Y-81195506D01*
X89910498Y-81305820D01*
X89874188Y-81425518D01*
X89861928Y-81550000D01*
X89861928Y-83250000D01*
X89874188Y-83374482D01*
X89910498Y-83494180D01*
X89969463Y-83604494D01*
X90048815Y-83701185D01*
X90145506Y-83780537D01*
X90255820Y-83839502D01*
X90375518Y-83875812D01*
X90500000Y-83888072D01*
X90740000Y-83888072D01*
X90740000Y-84262678D01*
X90736324Y-84300000D01*
X90740000Y-84337322D01*
X90740000Y-84337332D01*
X90750997Y-84448985D01*
X90790988Y-84580820D01*
X90794454Y-84592246D01*
X90865026Y-84724276D01*
X90898448Y-84765000D01*
X90959999Y-84840001D01*
X90989003Y-84863804D01*
X93336201Y-87211003D01*
X93359999Y-87240001D01*
X93388997Y-87263799D01*
X93475724Y-87334974D01*
X93511928Y-87354326D01*
X93511928Y-88575000D01*
X93524188Y-88699482D01*
X93560498Y-88819180D01*
X93619463Y-88929494D01*
X93698815Y-89026185D01*
X93795506Y-89105537D01*
X93905820Y-89164502D01*
X94025518Y-89200812D01*
X94047246Y-89202952D01*
X93188998Y-90061201D01*
X93160000Y-90084999D01*
X93136202Y-90113997D01*
X93136201Y-90113998D01*
X93065026Y-90200724D01*
X92994454Y-90332754D01*
X92984665Y-90365026D01*
X92950998Y-90476014D01*
X92945191Y-90534974D01*
X92936324Y-90625000D01*
X92940001Y-90662333D01*
X92940000Y-103178895D01*
X92924482Y-103174188D01*
X92800000Y-103161928D01*
X90800000Y-103161928D01*
X90675518Y-103174188D01*
X90555820Y-103210498D01*
X90445506Y-103269463D01*
X90348815Y-103348815D01*
X90269463Y-103445506D01*
X90210498Y-103555820D01*
X90174188Y-103675518D01*
X90161928Y-103800000D01*
X90161928Y-105400000D01*
X90174188Y-105524482D01*
X90210498Y-105644180D01*
X90269463Y-105754494D01*
X90348815Y-105851185D01*
X90445506Y-105930537D01*
X90555820Y-105989502D01*
X90675518Y-106025812D01*
X90800000Y-106038072D01*
X91145674Y-106038072D01*
X91165026Y-106074276D01*
X91174913Y-106086323D01*
X91259999Y-106190001D01*
X91289002Y-106213803D01*
X91690000Y-106614801D01*
X91690000Y-106676939D01*
X91729774Y-106876898D01*
X91807795Y-107065256D01*
X91921063Y-107234774D01*
X92065226Y-107378937D01*
X92234744Y-107492205D01*
X92240001Y-107494382D01*
X92240001Y-107634990D01*
X92194180Y-107610498D01*
X92074482Y-107574188D01*
X91950000Y-107561928D01*
X91854326Y-107561928D01*
X91834974Y-107525724D01*
X91807466Y-107492205D01*
X91763799Y-107438996D01*
X91763795Y-107438992D01*
X91740001Y-107409999D01*
X91711008Y-107386205D01*
X89860000Y-105535199D01*
X89860000Y-78654320D01*
X89904494Y-78630537D01*
X90001185Y-78551185D01*
X90080537Y-78454494D01*
X90139502Y-78344180D01*
X90175812Y-78224482D01*
X90188072Y-78100000D01*
X90188072Y-76900000D01*
X90175812Y-76775518D01*
X90139502Y-76655820D01*
X90080537Y-76545506D01*
X90001185Y-76448815D01*
X89904494Y-76369463D01*
X89794180Y-76310498D01*
X89674482Y-76274188D01*
X89550000Y-76261928D01*
X88650000Y-76261928D01*
X88525518Y-76274188D01*
X88405820Y-76310498D01*
X88295506Y-76369463D01*
X88198815Y-76448815D01*
X88119463Y-76545506D01*
X88060498Y-76655820D01*
X88024188Y-76775518D01*
X88011928Y-76900000D01*
X88011928Y-78100000D01*
X88024188Y-78224482D01*
X88060498Y-78344180D01*
X88119463Y-78454494D01*
X88198815Y-78551185D01*
X88295506Y-78630537D01*
X88340001Y-78654320D01*
X88340001Y-80911928D01*
X86500000Y-80911928D01*
X86375518Y-80924188D01*
X86255820Y-80960498D01*
X86145506Y-81019463D01*
X86048815Y-81098815D01*
X85969463Y-81195506D01*
X85910498Y-81305820D01*
X85874188Y-81425518D01*
X85861928Y-81550000D01*
X85861928Y-81640000D01*
X85214803Y-81640000D01*
X82609802Y-79035000D01*
X82651184Y-79035000D01*
X82947743Y-78976011D01*
X83227095Y-78860299D01*
X83478505Y-78692312D01*
X83692312Y-78478505D01*
X83838313Y-78260000D01*
X84734962Y-78260000D01*
X84760498Y-78344180D01*
X84819463Y-78454494D01*
X84898815Y-78551185D01*
X84995506Y-78630537D01*
X85105820Y-78689502D01*
X85225518Y-78725812D01*
X85350000Y-78738072D01*
X86250000Y-78738072D01*
X86374482Y-78725812D01*
X86494180Y-78689502D01*
X86604494Y-78630537D01*
X86701185Y-78551185D01*
X86780537Y-78454494D01*
X86839502Y-78344180D01*
X86875812Y-78224482D01*
X86888072Y-78100000D01*
X86888072Y-76900000D01*
X86875812Y-76775518D01*
X86839502Y-76655820D01*
X86780537Y-76545506D01*
X86701185Y-76448815D01*
X86604494Y-76369463D01*
X86494180Y-76310498D01*
X86374482Y-76274188D01*
X86250000Y-76261928D01*
X85350000Y-76261928D01*
X85225518Y-76274188D01*
X85105820Y-76310498D01*
X84995506Y-76369463D01*
X84898815Y-76448815D01*
X84819463Y-76545506D01*
X84760498Y-76655820D01*
X84734962Y-76740000D01*
X83838313Y-76740000D01*
X83692312Y-76521495D01*
X83478505Y-76307688D01*
X83227095Y-76139701D01*
X82947743Y-76023989D01*
X82651184Y-75965000D01*
X82348816Y-75965000D01*
X82052257Y-76023989D01*
X81772905Y-76139701D01*
X81521495Y-76307688D01*
X81307688Y-76521495D01*
X81250000Y-76607831D01*
X81192312Y-76521495D01*
X80978505Y-76307688D01*
X80727095Y-76139701D01*
X80447743Y-76023989D01*
X80151184Y-75965000D01*
X79848816Y-75965000D01*
X79552257Y-76023989D01*
X79272905Y-76139701D01*
X79021495Y-76307688D01*
X78807688Y-76521495D01*
X78750000Y-76607831D01*
X78692312Y-76521495D01*
X78478505Y-76307688D01*
X78227095Y-76139701D01*
X77947743Y-76023989D01*
X77651184Y-75965000D01*
X77348816Y-75965000D01*
X77052257Y-76023989D01*
X76772905Y-76139701D01*
X76521495Y-76307688D01*
X76307688Y-76521495D01*
X76139701Y-76772905D01*
X76023989Y-77052257D01*
X75965000Y-77348816D01*
X75965000Y-77651184D01*
X76023989Y-77947743D01*
X76139701Y-78227095D01*
X76307688Y-78478505D01*
X76521495Y-78692312D01*
X76772905Y-78860299D01*
X77052257Y-78976011D01*
X77348816Y-79035000D01*
X77651184Y-79035000D01*
X77947743Y-78976011D01*
X78227095Y-78860299D01*
X78478505Y-78692312D01*
X78692312Y-78478505D01*
X78750000Y-78392169D01*
X78807688Y-78478505D01*
X79021495Y-78692312D01*
X79272905Y-78860299D01*
X79552257Y-78976011D01*
X79848816Y-79035000D01*
X80151184Y-79035000D01*
X80408930Y-78983731D01*
X84336205Y-82911008D01*
X84359999Y-82940001D01*
X84388992Y-82963795D01*
X84388996Y-82963799D01*
X84437981Y-83003999D01*
X84475724Y-83034974D01*
X84607753Y-83105546D01*
X84751014Y-83149003D01*
X84862667Y-83160000D01*
X84862676Y-83160000D01*
X84899999Y-83163676D01*
X84937322Y-83160000D01*
X85861928Y-83160000D01*
X85861928Y-83250000D01*
X85874188Y-83374482D01*
X85910498Y-83494180D01*
X85969463Y-83604494D01*
X86048815Y-83701185D01*
X86145506Y-83780537D01*
X86255820Y-83839502D01*
X86375518Y-83875812D01*
X86500000Y-83888072D01*
X88340001Y-83888072D01*
X88340000Y-100465199D01*
X87263804Y-99389003D01*
X87240001Y-99359999D01*
X87124276Y-99265026D01*
X86992247Y-99194454D01*
X86848986Y-99150997D01*
X86737333Y-99140000D01*
X86737322Y-99140000D01*
X86700000Y-99136324D01*
X86662678Y-99140000D01*
X82714802Y-99140000D01*
X82609802Y-99035000D01*
X82651184Y-99035000D01*
X82947743Y-98976011D01*
X83227095Y-98860299D01*
X83478505Y-98692312D01*
X83692312Y-98478505D01*
X83860299Y-98227095D01*
X83976011Y-97947743D01*
X84035000Y-97651184D01*
X84035000Y-97348816D01*
X83976011Y-97052257D01*
X83860299Y-96772905D01*
X83692312Y-96521495D01*
X83478505Y-96307688D01*
X83260000Y-96161687D01*
X83260000Y-95037323D01*
X83263676Y-95000000D01*
X83260000Y-94962677D01*
X83260000Y-94962667D01*
X83249003Y-94851014D01*
X83205546Y-94707753D01*
X83174143Y-94649003D01*
X83134974Y-94575723D01*
X83063799Y-94488997D01*
X83040001Y-94459999D01*
X83011003Y-94436201D01*
X81963804Y-93389002D01*
X81940001Y-93359999D01*
X81824276Y-93265026D01*
X81788072Y-93245674D01*
X81788072Y-92900000D01*
X81775812Y-92775518D01*
X81739502Y-92655820D01*
X81680537Y-92545506D01*
X81601185Y-92448815D01*
X81504494Y-92369463D01*
X81394180Y-92310498D01*
X81274482Y-92274188D01*
X81150000Y-92261928D01*
X79450000Y-92261928D01*
X79325518Y-92274188D01*
X79205820Y-92310498D01*
X79095506Y-92369463D01*
X78998815Y-92448815D01*
X78919463Y-92545506D01*
X78860498Y-92655820D01*
X78824188Y-92775518D01*
X78811928Y-92900000D01*
X78811928Y-94900000D01*
X78824188Y-95024482D01*
X78860498Y-95144180D01*
X78919463Y-95254494D01*
X78998815Y-95351185D01*
X79095506Y-95430537D01*
X79205820Y-95489502D01*
X79325518Y-95525812D01*
X79450000Y-95538072D01*
X81150000Y-95538072D01*
X81274482Y-95525812D01*
X81394180Y-95489502D01*
X81504494Y-95430537D01*
X81601185Y-95351185D01*
X81680156Y-95254958D01*
X81740001Y-95314803D01*
X81740001Y-96161687D01*
X81521495Y-96307688D01*
X81307688Y-96521495D01*
X81250000Y-96607831D01*
X81192312Y-96521495D01*
X80978505Y-96307688D01*
X80727095Y-96139701D01*
X80447743Y-96023989D01*
X80151184Y-95965000D01*
X79848816Y-95965000D01*
X79552257Y-96023989D01*
X79272905Y-96139701D01*
X79021495Y-96307688D01*
X78807688Y-96521495D01*
X78750000Y-96607831D01*
X78692312Y-96521495D01*
X78478505Y-96307688D01*
X78227095Y-96139701D01*
X77947743Y-96023989D01*
X77651184Y-95965000D01*
X77348816Y-95965000D01*
X77091071Y-96016268D01*
X74563804Y-93489003D01*
X74540001Y-93459999D01*
X74424276Y-93365026D01*
X74292247Y-93294454D01*
X74148986Y-93250997D01*
X74037333Y-93240000D01*
X74037322Y-93240000D01*
X74000000Y-93236324D01*
X73962678Y-93240000D01*
X71688072Y-93240000D01*
X71688072Y-93050000D01*
X71675812Y-92925518D01*
X71639502Y-92805820D01*
X71580537Y-92695506D01*
X71557440Y-92667362D01*
X71636729Y-92588072D01*
X72000000Y-92588072D01*
X72124482Y-92575812D01*
X72244180Y-92539502D01*
X72354494Y-92480537D01*
X72451185Y-92401185D01*
X72530537Y-92304494D01*
X72589502Y-92194180D01*
X72625812Y-92074482D01*
X72638072Y-91950000D01*
X72638072Y-90240475D01*
X72965000Y-90240475D01*
X72965000Y-90759525D01*
X73066261Y-91268601D01*
X73264893Y-91748141D01*
X73553262Y-92179715D01*
X73920285Y-92546738D01*
X74351859Y-92835107D01*
X74831399Y-93033739D01*
X75340475Y-93135000D01*
X75859525Y-93135000D01*
X76368601Y-93033739D01*
X76848141Y-92835107D01*
X77279715Y-92546738D01*
X77646738Y-92179715D01*
X77935107Y-91748141D01*
X78133739Y-91268601D01*
X78235000Y-90759525D01*
X78235000Y-90240475D01*
X78133739Y-89731399D01*
X77935107Y-89251859D01*
X77700002Y-88900000D01*
X78811928Y-88900000D01*
X78811928Y-90900000D01*
X78824188Y-91024482D01*
X78860498Y-91144180D01*
X78919463Y-91254494D01*
X78998815Y-91351185D01*
X79095506Y-91430537D01*
X79205820Y-91489502D01*
X79325518Y-91525812D01*
X79450000Y-91538072D01*
X81150000Y-91538072D01*
X81274482Y-91525812D01*
X81394180Y-91489502D01*
X81504494Y-91430537D01*
X81601185Y-91351185D01*
X81680537Y-91254494D01*
X81739502Y-91144180D01*
X81775812Y-91024482D01*
X81788072Y-90900000D01*
X81788072Y-90875516D01*
X81866261Y-91268601D01*
X82064893Y-91748141D01*
X82353262Y-92179715D01*
X82720285Y-92546738D01*
X83151859Y-92835107D01*
X83631399Y-93033739D01*
X84140475Y-93135000D01*
X84659525Y-93135000D01*
X85168601Y-93033739D01*
X85648141Y-92835107D01*
X86079715Y-92546738D01*
X86446738Y-92179715D01*
X86735107Y-91748141D01*
X86933739Y-91268601D01*
X87035000Y-90759525D01*
X87035000Y-90240475D01*
X86933739Y-89731399D01*
X86735107Y-89251859D01*
X86446738Y-88820285D01*
X86079715Y-88453262D01*
X85648141Y-88164893D01*
X85168601Y-87966261D01*
X84659525Y-87865000D01*
X84140475Y-87865000D01*
X83631399Y-87966261D01*
X83151859Y-88164893D01*
X82720285Y-88453262D01*
X82353262Y-88820285D01*
X82064893Y-89251859D01*
X81866261Y-89731399D01*
X81788072Y-90124484D01*
X81788072Y-88900000D01*
X81775812Y-88775518D01*
X81739502Y-88655820D01*
X81680537Y-88545506D01*
X81601185Y-88448815D01*
X81504494Y-88369463D01*
X81394180Y-88310498D01*
X81299244Y-88281699D01*
X81335000Y-88101939D01*
X81335000Y-87898061D01*
X81295226Y-87698102D01*
X81217205Y-87509744D01*
X81103937Y-87340226D01*
X80959774Y-87196063D01*
X80790256Y-87082795D01*
X80601898Y-87004774D01*
X80401939Y-86965000D01*
X80198061Y-86965000D01*
X79998102Y-87004774D01*
X79809744Y-87082795D01*
X79640226Y-87196063D01*
X79496063Y-87340226D01*
X79382795Y-87509744D01*
X79304774Y-87698102D01*
X79265000Y-87898061D01*
X79265000Y-88101939D01*
X79300756Y-88281699D01*
X79205820Y-88310498D01*
X79095506Y-88369463D01*
X78998815Y-88448815D01*
X78919463Y-88545506D01*
X78860498Y-88655820D01*
X78824188Y-88775518D01*
X78811928Y-88900000D01*
X77700002Y-88900000D01*
X77646738Y-88820285D01*
X77279715Y-88453262D01*
X76848141Y-88164893D01*
X76368601Y-87966261D01*
X75859525Y-87865000D01*
X75340475Y-87865000D01*
X74831399Y-87966261D01*
X74351859Y-88164893D01*
X73920285Y-88453262D01*
X73553262Y-88820285D01*
X73264893Y-89251859D01*
X73066261Y-89731399D01*
X72965000Y-90240475D01*
X72638072Y-90240475D01*
X72638072Y-90050000D01*
X72625812Y-89925518D01*
X72589502Y-89805820D01*
X72530537Y-89695506D01*
X72451185Y-89598815D01*
X72354494Y-89519463D01*
X72244180Y-89460498D01*
X72124482Y-89424188D01*
X72000000Y-89411928D01*
X71200000Y-89411928D01*
X71075518Y-89424188D01*
X70955820Y-89460498D01*
X70845506Y-89519463D01*
X70748815Y-89598815D01*
X70669463Y-89695506D01*
X70650000Y-89731918D01*
X70630537Y-89695506D01*
X70551185Y-89598815D01*
X70454494Y-89519463D01*
X70344180Y-89460498D01*
X70224482Y-89424188D01*
X70100000Y-89411928D01*
X69300000Y-89411928D01*
X69175518Y-89424188D01*
X69055820Y-89460498D01*
X68945506Y-89519463D01*
X68848815Y-89598815D01*
X68792381Y-89667580D01*
X68560000Y-89435199D01*
X68560000Y-89238072D01*
X70500000Y-89238072D01*
X70624482Y-89225812D01*
X70744180Y-89189502D01*
X70854494Y-89130537D01*
X70951185Y-89051185D01*
X71030537Y-88954494D01*
X71089502Y-88844180D01*
X71125812Y-88724482D01*
X71138072Y-88600000D01*
X71138072Y-87000000D01*
X71125812Y-86875518D01*
X71089502Y-86755820D01*
X71030537Y-86645506D01*
X70951185Y-86548815D01*
X70854494Y-86469463D01*
X70744180Y-86410498D01*
X70624482Y-86374188D01*
X70500000Y-86361928D01*
X70260000Y-86361928D01*
X70260000Y-84943072D01*
X70775000Y-84943072D01*
X70899482Y-84930812D01*
X71019180Y-84894502D01*
X71129494Y-84835537D01*
X71226185Y-84756185D01*
X71305537Y-84659494D01*
X71364502Y-84549180D01*
X71400812Y-84429482D01*
X71413072Y-84305000D01*
X71413072Y-83705000D01*
X71408640Y-83660000D01*
X73696289Y-83660000D01*
X73740226Y-83703937D01*
X73909744Y-83817205D01*
X74098102Y-83895226D01*
X74298061Y-83935000D01*
X74501939Y-83935000D01*
X74701898Y-83895226D01*
X74890256Y-83817205D01*
X75059774Y-83703937D01*
X75203937Y-83559774D01*
X75317205Y-83390256D01*
X75395226Y-83201898D01*
X75435000Y-83001939D01*
X75435000Y-82798061D01*
X75395226Y-82598102D01*
X75317205Y-82409744D01*
X75203937Y-82240226D01*
X75059774Y-82096063D01*
X74890256Y-81982795D01*
X74701898Y-81904774D01*
X74501939Y-81865000D01*
X74298061Y-81865000D01*
X74098102Y-81904774D01*
X73909744Y-81982795D01*
X73740226Y-82096063D01*
X73696289Y-82140000D01*
X71337338Y-82140000D01*
X71315957Y-82100000D01*
X71364502Y-82009180D01*
X71400812Y-81889482D01*
X71413072Y-81765000D01*
X71413072Y-81165000D01*
X71400812Y-81040518D01*
X71364502Y-80920820D01*
X71315957Y-80830000D01*
X71364502Y-80739180D01*
X71400812Y-80619482D01*
X71413072Y-80495000D01*
X71413072Y-79895000D01*
X71400812Y-79770518D01*
X71364502Y-79650820D01*
X71305537Y-79540506D01*
X71226185Y-79443815D01*
X71129494Y-79364463D01*
X71019180Y-79305498D01*
X70899482Y-79269188D01*
X70775000Y-79256928D01*
X70760000Y-79256928D01*
X70760000Y-78903711D01*
X70803937Y-78859774D01*
X70917205Y-78690256D01*
X70995226Y-78501898D01*
X71035000Y-78301939D01*
X71035000Y-78098061D01*
X70995226Y-77898102D01*
X70917205Y-77709744D01*
X70803937Y-77540226D01*
X70760000Y-77496289D01*
X70760000Y-77338072D01*
X70900000Y-77338072D01*
X71024482Y-77325812D01*
X71144180Y-77289502D01*
X71254494Y-77230537D01*
X71351185Y-77151185D01*
X71430537Y-77054494D01*
X71489502Y-76944180D01*
X71525812Y-76824482D01*
X71538072Y-76700000D01*
X71538072Y-74700000D01*
X71525812Y-74575518D01*
X71489502Y-74455820D01*
X71430537Y-74345506D01*
X71351185Y-74248815D01*
X71254494Y-74169463D01*
X71144180Y-74110498D01*
X71024482Y-74074188D01*
X70900000Y-74061928D01*
X69300000Y-74061928D01*
X69175518Y-74074188D01*
X69055820Y-74110498D01*
X68945506Y-74169463D01*
X68848815Y-74248815D01*
X68769463Y-74345506D01*
X68710498Y-74455820D01*
X68674188Y-74575518D01*
X68661928Y-74700000D01*
X68661928Y-76700000D01*
X68674188Y-76824482D01*
X68710498Y-76944180D01*
X68769463Y-77054494D01*
X68848815Y-77151185D01*
X68945506Y-77230537D01*
X69055820Y-77289502D01*
X69175518Y-77325812D01*
X69240000Y-77332163D01*
X69240000Y-77496289D01*
X69196063Y-77540226D01*
X69082795Y-77709744D01*
X69004774Y-77898102D01*
X68965000Y-78098061D01*
X68965000Y-78301939D01*
X69004774Y-78501898D01*
X69082795Y-78690256D01*
X69196063Y-78859774D01*
X69240001Y-78903712D01*
X69240000Y-79256928D01*
X69225000Y-79256928D01*
X69100518Y-79269188D01*
X68980820Y-79305498D01*
X68870506Y-79364463D01*
X68773815Y-79443815D01*
X68694463Y-79540506D01*
X68635498Y-79650820D01*
X68599188Y-79770518D01*
X68586928Y-79895000D01*
X68586928Y-80495000D01*
X68599188Y-80619482D01*
X68635498Y-80739180D01*
X68684043Y-80830000D01*
X68635498Y-80920820D01*
X68599188Y-81040518D01*
X68586928Y-81165000D01*
X68586928Y-81328269D01*
X67288998Y-82626201D01*
X67260000Y-82649999D01*
X67236202Y-82678997D01*
X67236201Y-82678998D01*
X67165026Y-82765724D01*
X67094454Y-82897754D01*
X67071023Y-82975000D01*
X67052823Y-83035000D01*
X67050998Y-83041015D01*
X67036324Y-83190000D01*
X67040001Y-83227332D01*
X67040000Y-86663211D01*
X67030537Y-86645506D01*
X66951185Y-86548815D01*
X66854494Y-86469463D01*
X66744180Y-86410498D01*
X66624482Y-86374188D01*
X66500000Y-86361928D01*
X65785750Y-86365000D01*
X65627000Y-86523750D01*
X65627000Y-87673000D01*
X65647000Y-87673000D01*
X65647000Y-87927000D01*
X65627000Y-87927000D01*
X65627000Y-89076250D01*
X65785750Y-89235000D01*
X66500000Y-89238072D01*
X66624482Y-89225812D01*
X66744180Y-89189502D01*
X66854494Y-89130537D01*
X66951185Y-89051185D01*
X67030537Y-88954494D01*
X67040000Y-88936790D01*
X67040000Y-89712677D01*
X67036324Y-89750000D01*
X67040000Y-89787322D01*
X67040000Y-89787332D01*
X67050997Y-89898985D01*
X67062630Y-89937333D01*
X67094454Y-90042246D01*
X67165026Y-90174276D01*
X67179774Y-90192246D01*
X67259999Y-90290001D01*
X67289003Y-90313804D01*
X68486201Y-91511003D01*
X68509999Y-91540001D01*
X68538997Y-91563799D01*
X68625723Y-91634974D01*
X68661928Y-91654326D01*
X68661928Y-91950000D01*
X68674188Y-92074482D01*
X68710498Y-92194180D01*
X68769463Y-92304494D01*
X68837969Y-92387969D01*
X68754494Y-92319463D01*
X68644180Y-92260498D01*
X68524482Y-92224188D01*
X68400000Y-92211928D01*
X66400000Y-92211928D01*
X66275518Y-92224188D01*
X66155820Y-92260498D01*
X66045506Y-92319463D01*
X65948815Y-92398815D01*
X65869463Y-92495506D01*
X65810498Y-92605820D01*
X65774188Y-92725518D01*
X65761928Y-92850000D01*
X65761928Y-93737127D01*
X65213804Y-93189003D01*
X65190001Y-93159999D01*
X65074276Y-93065026D01*
X65038072Y-93045674D01*
X65038072Y-92850000D01*
X65025812Y-92725518D01*
X64989502Y-92605820D01*
X64930537Y-92495506D01*
X64851185Y-92398815D01*
X64754494Y-92319463D01*
X64644180Y-92260498D01*
X64524482Y-92224188D01*
X64400000Y-92211928D01*
X64160000Y-92211928D01*
X64160000Y-89138284D01*
X64255820Y-89189502D01*
X64375518Y-89225812D01*
X64500000Y-89238072D01*
X65214250Y-89235000D01*
X65373000Y-89076250D01*
X65373000Y-87927000D01*
X65353000Y-87927000D01*
X65353000Y-87673000D01*
X65373000Y-87673000D01*
X65373000Y-86523750D01*
X65214250Y-86365000D01*
X64500000Y-86361928D01*
X64375518Y-86374188D01*
X64255820Y-86410498D01*
X64160000Y-86461716D01*
X64160000Y-85044801D01*
X64261729Y-84943072D01*
X65375000Y-84943072D01*
X65499482Y-84930812D01*
X65619180Y-84894502D01*
X65729494Y-84835537D01*
X65826185Y-84756185D01*
X65905537Y-84659494D01*
X65964502Y-84549180D01*
X66000812Y-84429482D01*
X66013072Y-84305000D01*
X66013072Y-83705000D01*
X66000812Y-83580518D01*
X65964502Y-83460820D01*
X65945572Y-83425406D01*
X66049276Y-83369974D01*
X66165001Y-83275001D01*
X66188804Y-83245997D01*
X67711004Y-81723798D01*
X67740001Y-81700001D01*
X67834974Y-81584276D01*
X67905546Y-81452247D01*
X67949003Y-81308986D01*
X67960000Y-81197333D01*
X67960000Y-81197324D01*
X67963676Y-81160001D01*
X67960000Y-81122678D01*
X67960000Y-72700000D01*
X68661928Y-72700000D01*
X68674188Y-72824482D01*
X68710498Y-72944180D01*
X68769463Y-73054494D01*
X68848815Y-73151185D01*
X68945506Y-73230537D01*
X69055820Y-73289502D01*
X69175518Y-73325812D01*
X69300000Y-73338072D01*
X69814250Y-73335000D01*
X69973000Y-73176250D01*
X69973000Y-71827000D01*
X70227000Y-71827000D01*
X70227000Y-73176250D01*
X70385750Y-73335000D01*
X70900000Y-73338072D01*
X71024482Y-73325812D01*
X71144180Y-73289502D01*
X71254494Y-73230537D01*
X71351185Y-73151185D01*
X71430537Y-73054494D01*
X71489502Y-72944180D01*
X71525812Y-72824482D01*
X71538072Y-72700000D01*
X71535000Y-71985750D01*
X71376250Y-71827000D01*
X70227000Y-71827000D01*
X69973000Y-71827000D01*
X68823750Y-71827000D01*
X68665000Y-71985750D01*
X68661928Y-72700000D01*
X67960000Y-72700000D01*
X67960000Y-70700000D01*
X68661928Y-70700000D01*
X68665000Y-71414250D01*
X68823750Y-71573000D01*
X69973000Y-71573000D01*
X69973000Y-70223750D01*
X70227000Y-70223750D01*
X70227000Y-71573000D01*
X71376250Y-71573000D01*
X71535000Y-71414250D01*
X71538072Y-70700000D01*
X71525812Y-70575518D01*
X71489502Y-70455820D01*
X71430537Y-70345506D01*
X71351185Y-70248815D01*
X71341023Y-70240475D01*
X72965000Y-70240475D01*
X72965000Y-70759525D01*
X73066261Y-71268601D01*
X73264893Y-71748141D01*
X73553262Y-72179715D01*
X73920285Y-72546738D01*
X74351859Y-72835107D01*
X74831399Y-73033739D01*
X75340475Y-73135000D01*
X75859525Y-73135000D01*
X76368601Y-73033739D01*
X76848141Y-72835107D01*
X77279715Y-72546738D01*
X77646738Y-72179715D01*
X77935107Y-71748141D01*
X78133739Y-71268601D01*
X78235000Y-70759525D01*
X78235000Y-70240475D01*
X81765000Y-70240475D01*
X81765000Y-70759525D01*
X81866261Y-71268601D01*
X82064893Y-71748141D01*
X82353262Y-72179715D01*
X82720285Y-72546738D01*
X83151859Y-72835107D01*
X83631399Y-73033739D01*
X84140475Y-73135000D01*
X84659525Y-73135000D01*
X85168601Y-73033739D01*
X85648141Y-72835107D01*
X86079715Y-72546738D01*
X86446738Y-72179715D01*
X86735107Y-71748141D01*
X86933739Y-71268601D01*
X87035000Y-70759525D01*
X87035000Y-70240475D01*
X86933739Y-69731399D01*
X86735107Y-69251859D01*
X86446738Y-68820285D01*
X86079715Y-68453262D01*
X85648141Y-68164893D01*
X85168601Y-67966261D01*
X84659525Y-67865000D01*
X84140475Y-67865000D01*
X83631399Y-67966261D01*
X83151859Y-68164893D01*
X82720285Y-68453262D01*
X82353262Y-68820285D01*
X82064893Y-69251859D01*
X81866261Y-69731399D01*
X81765000Y-70240475D01*
X78235000Y-70240475D01*
X78133739Y-69731399D01*
X77935107Y-69251859D01*
X77646738Y-68820285D01*
X77279715Y-68453262D01*
X76848141Y-68164893D01*
X76368601Y-67966261D01*
X75859525Y-67865000D01*
X75340475Y-67865000D01*
X74831399Y-67966261D01*
X74351859Y-68164893D01*
X73920285Y-68453262D01*
X73553262Y-68820285D01*
X73264893Y-69251859D01*
X73066261Y-69731399D01*
X72965000Y-70240475D01*
X71341023Y-70240475D01*
X71254494Y-70169463D01*
X71144180Y-70110498D01*
X71024482Y-70074188D01*
X70900000Y-70061928D01*
X70385750Y-70065000D01*
X70227000Y-70223750D01*
X69973000Y-70223750D01*
X69814250Y-70065000D01*
X69300000Y-70061928D01*
X69175518Y-70074188D01*
X69055820Y-70110498D01*
X68945506Y-70169463D01*
X68848815Y-70248815D01*
X68769463Y-70345506D01*
X68710498Y-70455820D01*
X68674188Y-70575518D01*
X68661928Y-70700000D01*
X67960000Y-70700000D01*
X67960000Y-68114801D01*
X77091070Y-58983731D01*
X77348816Y-59035000D01*
X77651184Y-59035000D01*
X77947743Y-58976011D01*
X78227095Y-58860299D01*
X78478505Y-58692312D01*
X78692312Y-58478505D01*
X78750000Y-58392169D01*
X78807688Y-58478505D01*
X79021495Y-58692312D01*
X79272905Y-58860299D01*
X79340001Y-58888091D01*
X79340000Y-59211928D01*
X79100000Y-59211928D01*
X78975518Y-59224188D01*
X78855820Y-59260498D01*
X78745506Y-59319463D01*
X78648815Y-59398815D01*
X78569463Y-59495506D01*
X78510498Y-59605820D01*
X78474188Y-59725518D01*
X78461928Y-59850000D01*
X78461928Y-61550000D01*
X78474188Y-61674482D01*
X78510498Y-61794180D01*
X78569463Y-61904494D01*
X78648815Y-62001185D01*
X78745506Y-62080537D01*
X78855820Y-62139502D01*
X78975518Y-62175812D01*
X79100000Y-62188072D01*
X81100000Y-62188072D01*
X81224482Y-62175812D01*
X81344180Y-62139502D01*
X81454494Y-62080537D01*
X81551185Y-62001185D01*
X81630537Y-61904494D01*
X81689502Y-61794180D01*
X81725812Y-61674482D01*
X81738072Y-61550000D01*
X81738072Y-59850000D01*
X82461928Y-59850000D01*
X82461928Y-61550000D01*
X82474188Y-61674482D01*
X82510498Y-61794180D01*
X82569463Y-61904494D01*
X82648815Y-62001185D01*
X82745506Y-62080537D01*
X82855820Y-62139502D01*
X82975518Y-62175812D01*
X83100000Y-62188072D01*
X85100000Y-62188072D01*
X85224482Y-62175812D01*
X85344180Y-62139502D01*
X85454494Y-62080537D01*
X85551185Y-62001185D01*
X85630537Y-61904494D01*
X85689502Y-61794180D01*
X85725812Y-61674482D01*
X85738072Y-61550000D01*
X85738072Y-61460000D01*
X86034962Y-61460000D01*
X86060498Y-61544180D01*
X86119463Y-61654494D01*
X86198815Y-61751185D01*
X86295506Y-61830537D01*
X86405820Y-61889502D01*
X86525518Y-61925812D01*
X86650000Y-61938072D01*
X87550000Y-61938072D01*
X87674482Y-61925812D01*
X87794180Y-61889502D01*
X87904494Y-61830537D01*
X88001185Y-61751185D01*
X88080537Y-61654494D01*
X88139502Y-61544180D01*
X88175812Y-61424482D01*
X88188072Y-61300000D01*
X88188072Y-60100000D01*
X88175812Y-59975518D01*
X88139502Y-59855820D01*
X88080537Y-59745506D01*
X88001185Y-59648815D01*
X87904494Y-59569463D01*
X87794180Y-59510498D01*
X87674482Y-59474188D01*
X87550000Y-59461928D01*
X86650000Y-59461928D01*
X86525518Y-59474188D01*
X86405820Y-59510498D01*
X86295506Y-59569463D01*
X86198815Y-59648815D01*
X86119463Y-59745506D01*
X86060498Y-59855820D01*
X86034962Y-59940000D01*
X85738072Y-59940000D01*
X85738072Y-59850000D01*
X85725812Y-59725518D01*
X85689502Y-59605820D01*
X85630537Y-59495506D01*
X85551185Y-59398815D01*
X85454494Y-59319463D01*
X85344180Y-59260498D01*
X85224482Y-59224188D01*
X85100000Y-59211928D01*
X83100000Y-59211928D01*
X82975518Y-59224188D01*
X82855820Y-59260498D01*
X82745506Y-59319463D01*
X82648815Y-59398815D01*
X82569463Y-59495506D01*
X82510498Y-59605820D01*
X82474188Y-59725518D01*
X82461928Y-59850000D01*
X81738072Y-59850000D01*
X81725812Y-59725518D01*
X81689502Y-59605820D01*
X81630537Y-59495506D01*
X81551185Y-59398815D01*
X81454494Y-59319463D01*
X81344180Y-59260498D01*
X81224482Y-59224188D01*
X81100000Y-59211928D01*
X80860000Y-59211928D01*
X80860000Y-58771495D01*
X80978505Y-58692312D01*
X81192312Y-58478505D01*
X81250000Y-58392169D01*
X81307688Y-58478505D01*
X81521495Y-58692312D01*
X81772905Y-58860299D01*
X82052257Y-58976011D01*
X82348816Y-59035000D01*
X82651184Y-59035000D01*
X82947743Y-58976011D01*
X83227095Y-58860299D01*
X83478505Y-58692312D01*
X83692312Y-58478505D01*
X83860299Y-58227095D01*
X83976011Y-57947743D01*
X84035000Y-57651184D01*
X84035000Y-57348816D01*
X83976011Y-57052257D01*
X83860299Y-56772905D01*
X83692312Y-56521495D01*
X83478505Y-56307688D01*
X83227095Y-56139701D01*
X82947743Y-56023989D01*
X82651184Y-55965000D01*
X82348816Y-55965000D01*
X82052257Y-56023989D01*
X81772905Y-56139701D01*
X81521495Y-56307688D01*
X81307688Y-56521495D01*
X81250000Y-56607831D01*
X81192312Y-56521495D01*
X80978505Y-56307688D01*
X80727095Y-56139701D01*
X80447743Y-56023989D01*
X80151184Y-55965000D01*
X79848816Y-55965000D01*
X79552257Y-56023989D01*
X79272905Y-56139701D01*
X79021495Y-56307688D01*
X78807688Y-56521495D01*
X78750000Y-56607831D01*
X78692312Y-56521495D01*
X78478505Y-56307688D01*
X78227095Y-56139701D01*
X77947743Y-56023989D01*
X77651184Y-55965000D01*
X77348816Y-55965000D01*
X77052257Y-56023989D01*
X76772905Y-56139701D01*
X76521495Y-56307688D01*
X76307688Y-56521495D01*
X76139701Y-56772905D01*
X76023989Y-57052257D01*
X75965000Y-57348816D01*
X75965000Y-57651184D01*
X76016269Y-57908930D01*
X66688998Y-67236201D01*
X66660000Y-67259999D01*
X66636202Y-67288997D01*
X66636201Y-67288998D01*
X66565026Y-67375724D01*
X66494454Y-67507754D01*
X66464180Y-67607558D01*
X66450998Y-67651014D01*
X66440001Y-67762667D01*
X66436324Y-67800000D01*
X66440001Y-67837332D01*
X66440000Y-80845198D01*
X66013072Y-81272126D01*
X66013072Y-81165000D01*
X66000812Y-81040518D01*
X65964502Y-80920820D01*
X65915957Y-80830000D01*
X65964502Y-80739180D01*
X66000812Y-80619482D01*
X66013072Y-80495000D01*
X66010000Y-80480750D01*
X65851250Y-80322000D01*
X64727000Y-80322000D01*
X64727000Y-80342000D01*
X64473000Y-80342000D01*
X64473000Y-80322000D01*
X63348750Y-80322000D01*
X63190000Y-80480750D01*
X63186928Y-80495000D01*
X63199188Y-80619482D01*
X63235498Y-80739180D01*
X63284043Y-80830000D01*
X63235498Y-80920820D01*
X63199188Y-81040518D01*
X63186928Y-81165000D01*
X63186928Y-81328270D01*
X61563997Y-82951202D01*
X61534999Y-82975000D01*
X61511201Y-83003998D01*
X61511200Y-83003999D01*
X61440025Y-83090725D01*
X61369453Y-83222755D01*
X61346386Y-83298799D01*
X61325997Y-83366015D01*
X61316366Y-83463799D01*
X61311323Y-83515001D01*
X60660000Y-83515001D01*
X60660000Y-79895000D01*
X63186928Y-79895000D01*
X63190000Y-79909250D01*
X63348750Y-80068000D01*
X64473000Y-80068000D01*
X64473000Y-79418750D01*
X64727000Y-79418750D01*
X64727000Y-80068000D01*
X65851250Y-80068000D01*
X66010000Y-79909250D01*
X66013072Y-79895000D01*
X66000812Y-79770518D01*
X65964502Y-79650820D01*
X65905537Y-79540506D01*
X65826185Y-79443815D01*
X65729494Y-79364463D01*
X65619180Y-79305498D01*
X65499482Y-79269188D01*
X65375000Y-79256928D01*
X64885750Y-79260000D01*
X64727000Y-79418750D01*
X64473000Y-79418750D01*
X64314250Y-79260000D01*
X63825000Y-79256928D01*
X63700518Y-79269188D01*
X63580820Y-79305498D01*
X63470506Y-79364463D01*
X63373815Y-79443815D01*
X63294463Y-79540506D01*
X63235498Y-79650820D01*
X63199188Y-79770518D01*
X63186928Y-79895000D01*
X60660000Y-79895000D01*
X60660000Y-50240475D01*
X72965000Y-50240475D01*
X72965000Y-50759525D01*
X73066261Y-51268601D01*
X73264893Y-51748141D01*
X73553262Y-52179715D01*
X73920285Y-52546738D01*
X74351859Y-52835107D01*
X74831399Y-53033739D01*
X75340475Y-53135000D01*
X75859525Y-53135000D01*
X76368601Y-53033739D01*
X76848141Y-52835107D01*
X77279715Y-52546738D01*
X77646738Y-52179715D01*
X77935107Y-51748141D01*
X78133739Y-51268601D01*
X78235000Y-50759525D01*
X78235000Y-50240475D01*
X81765000Y-50240475D01*
X81765000Y-50759525D01*
X81866261Y-51268601D01*
X82064893Y-51748141D01*
X82353262Y-52179715D01*
X82720285Y-52546738D01*
X83151859Y-52835107D01*
X83631399Y-53033739D01*
X84140475Y-53135000D01*
X84659525Y-53135000D01*
X85168601Y-53033739D01*
X85648141Y-52835107D01*
X86079715Y-52546738D01*
X86446738Y-52179715D01*
X86735107Y-51748141D01*
X86933739Y-51268601D01*
X87035000Y-50759525D01*
X87035000Y-50240475D01*
X86933739Y-49731399D01*
X86735107Y-49251859D01*
X86446738Y-48820285D01*
X86079715Y-48453262D01*
X85648141Y-48164893D01*
X85168601Y-47966261D01*
X84659525Y-47865000D01*
X84140475Y-47865000D01*
X83631399Y-47966261D01*
X83151859Y-48164893D01*
X82720285Y-48453262D01*
X82353262Y-48820285D01*
X82064893Y-49251859D01*
X81866261Y-49731399D01*
X81765000Y-50240475D01*
X78235000Y-50240475D01*
X78133739Y-49731399D01*
X77935107Y-49251859D01*
X77646738Y-48820285D01*
X77279715Y-48453262D01*
X76848141Y-48164893D01*
X76368601Y-47966261D01*
X75859525Y-47865000D01*
X75340475Y-47865000D01*
X74831399Y-47966261D01*
X74351859Y-48164893D01*
X73920285Y-48453262D01*
X73553262Y-48820285D01*
X73264893Y-49251859D01*
X73066261Y-49731399D01*
X72965000Y-50240475D01*
X60660000Y-50240475D01*
X60660000Y-44737323D01*
X62333000Y-44737323D01*
X62333000Y-45262677D01*
X62435492Y-45777935D01*
X62636536Y-46263298D01*
X62928406Y-46700113D01*
X63299887Y-47071594D01*
X63736702Y-47363464D01*
X64222065Y-47564508D01*
X64737323Y-47667000D01*
X65262677Y-47667000D01*
X65777935Y-47564508D01*
X66263298Y-47363464D01*
X66700113Y-47071594D01*
X67071594Y-46700113D01*
X67363464Y-46263298D01*
X67564508Y-45777935D01*
X67667000Y-45262677D01*
X67667000Y-44737323D01*
X92333000Y-44737323D01*
X92333000Y-45262677D01*
X92435492Y-45777935D01*
X92636536Y-46263298D01*
X92928406Y-46700113D01*
X93299887Y-47071594D01*
X93736702Y-47363464D01*
X94222065Y-47564508D01*
X94737323Y-47667000D01*
X95262677Y-47667000D01*
X95777935Y-47564508D01*
X96263298Y-47363464D01*
X96700113Y-47071594D01*
X97071594Y-46700113D01*
X97363464Y-46263298D01*
X97564508Y-45777935D01*
X97667000Y-45262677D01*
X97667000Y-44737323D01*
X97564508Y-44222065D01*
X97363464Y-43736702D01*
X97071594Y-43299887D01*
X96700113Y-42928406D01*
X96263298Y-42636536D01*
X95777935Y-42435492D01*
X95262677Y-42333000D01*
X94737323Y-42333000D01*
X94222065Y-42435492D01*
X93736702Y-42636536D01*
X93299887Y-42928406D01*
X92928406Y-43299887D01*
X92636536Y-43736702D01*
X92435492Y-44222065D01*
X92333000Y-44737323D01*
X67667000Y-44737323D01*
X67564508Y-44222065D01*
X67363464Y-43736702D01*
X67071594Y-43299887D01*
X66700113Y-42928406D01*
X66263298Y-42636536D01*
X65777935Y-42435492D01*
X65262677Y-42333000D01*
X64737323Y-42333000D01*
X64222065Y-42435492D01*
X63736702Y-42636536D01*
X63299887Y-42928406D01*
X62928406Y-43299887D01*
X62636536Y-43736702D01*
X62435492Y-44222065D01*
X62333000Y-44737323D01*
X60660000Y-44737323D01*
X60660000Y-40660000D01*
X99340000Y-40660000D01*
X99340001Y-139340000D01*
G36*
X97140001Y-91809990D02*
G01*
X97094180Y-91785498D01*
X96974482Y-91749188D01*
X96850000Y-91736928D01*
X95785750Y-91740000D01*
X95627000Y-91898750D01*
X95627000Y-94123000D01*
X95647000Y-94123000D01*
X95647000Y-94377000D01*
X95627000Y-94377000D01*
X95627000Y-96601250D01*
X95785750Y-96760000D01*
X96850000Y-96763072D01*
X96974482Y-96750812D01*
X97094180Y-96714502D01*
X97140000Y-96690010D01*
X97140000Y-103261716D01*
X97044180Y-103210498D01*
X96924482Y-103174188D01*
X96800000Y-103161928D01*
X96085750Y-103165000D01*
X95927000Y-103323750D01*
X95927000Y-104473000D01*
X95947000Y-104473000D01*
X95947000Y-104727000D01*
X95927000Y-104727000D01*
X95927000Y-105876250D01*
X96085750Y-106035000D01*
X96800000Y-106038072D01*
X96924482Y-106025812D01*
X97044180Y-105989502D01*
X97140000Y-105938284D01*
X97140000Y-107561928D01*
X95850000Y-107561928D01*
X95725518Y-107574188D01*
X95605820Y-107610498D01*
X95495506Y-107669463D01*
X95398815Y-107748815D01*
X95319463Y-107845506D01*
X95260498Y-107955820D01*
X95224188Y-108075518D01*
X95211928Y-108200000D01*
X95211928Y-108800000D01*
X95224188Y-108924482D01*
X95260498Y-109044180D01*
X95309043Y-109135000D01*
X95260498Y-109225820D01*
X95224188Y-109345518D01*
X95211928Y-109470000D01*
X95211928Y-110070000D01*
X95224188Y-110194482D01*
X95260498Y-110314180D01*
X95309043Y-110405000D01*
X95260498Y-110495820D01*
X95224188Y-110615518D01*
X95211928Y-110740000D01*
X95211928Y-111340000D01*
X95224188Y-111464482D01*
X95260498Y-111584180D01*
X95309043Y-111675000D01*
X95260498Y-111765820D01*
X95224188Y-111885518D01*
X95211928Y-112010000D01*
X95211928Y-112610000D01*
X95224188Y-112734482D01*
X95260498Y-112854180D01*
X95309043Y-112945000D01*
X95260498Y-113035820D01*
X95224188Y-113155518D01*
X95211928Y-113280000D01*
X95215000Y-113294250D01*
X95373750Y-113453000D01*
X96473000Y-113453000D01*
X96473000Y-113433000D01*
X96727000Y-113433000D01*
X96727000Y-113453000D01*
X96747000Y-113453000D01*
X96747000Y-113707000D01*
X96727000Y-113707000D01*
X96727000Y-113727000D01*
X96473000Y-113727000D01*
X96473000Y-113707000D01*
X95373750Y-113707000D01*
X95215000Y-113865750D01*
X95211928Y-113880000D01*
X95224188Y-114004482D01*
X95260498Y-114124180D01*
X95309043Y-114215000D01*
X95260498Y-114305820D01*
X95224188Y-114425518D01*
X95211928Y-114550000D01*
X95211928Y-114713271D01*
X94988998Y-114936201D01*
X94960000Y-114959999D01*
X94936202Y-114988997D01*
X94936201Y-114988998D01*
X94865026Y-115075724D01*
X94794454Y-115207754D01*
X94769669Y-115289463D01*
X94750998Y-115351014D01*
X94746290Y-115398815D01*
X94736324Y-115500000D01*
X94740001Y-115537332D01*
X94740000Y-118511928D01*
X94500000Y-118511928D01*
X94375518Y-118524188D01*
X94255820Y-118560498D01*
X94145506Y-118619463D01*
X94048815Y-118698815D01*
X93969463Y-118795506D01*
X93910498Y-118905820D01*
X93874188Y-119025518D01*
X93861928Y-119150000D01*
X93861928Y-119345674D01*
X93825724Y-119365026D01*
X93709999Y-119459999D01*
X93686201Y-119488997D01*
X93138072Y-120037126D01*
X93138072Y-119150000D01*
X93125812Y-119025518D01*
X93089502Y-118905820D01*
X93030537Y-118795506D01*
X92951185Y-118698815D01*
X92854494Y-118619463D01*
X92744180Y-118560498D01*
X92624482Y-118524188D01*
X92500000Y-118511928D01*
X92335907Y-118511928D01*
X92417205Y-118390256D01*
X92495226Y-118201898D01*
X92535000Y-118001939D01*
X92535000Y-117798061D01*
X92495226Y-117598102D01*
X92417205Y-117409744D01*
X92303937Y-117240226D01*
X92260000Y-117196289D01*
X92260000Y-116974320D01*
X92304494Y-116950537D01*
X92401185Y-116871185D01*
X92480537Y-116774494D01*
X92539502Y-116664180D01*
X92575812Y-116544482D01*
X92588072Y-116420000D01*
X92588072Y-115820000D01*
X92575812Y-115695518D01*
X92539502Y-115575820D01*
X92490957Y-115485000D01*
X92539502Y-115394180D01*
X92575812Y-115274482D01*
X92588072Y-115150000D01*
X92588072Y-114550000D01*
X92575812Y-114425518D01*
X92539502Y-114305820D01*
X92520572Y-114270406D01*
X92624276Y-114214974D01*
X92740001Y-114120001D01*
X92763804Y-114090997D01*
X94211004Y-112643798D01*
X94240001Y-112620001D01*
X94334974Y-112504276D01*
X94405546Y-112372247D01*
X94449003Y-112228986D01*
X94460000Y-112117333D01*
X94460000Y-112117324D01*
X94463676Y-112080001D01*
X94460000Y-112042678D01*
X94460000Y-105938284D01*
X94555820Y-105989502D01*
X94675518Y-106025812D01*
X94800000Y-106038072D01*
X95514250Y-106035000D01*
X95673000Y-105876250D01*
X95673000Y-104727000D01*
X95653000Y-104727000D01*
X95653000Y-104473000D01*
X95673000Y-104473000D01*
X95673000Y-103323750D01*
X95514250Y-103165000D01*
X94800000Y-103161928D01*
X94675518Y-103174188D01*
X94555820Y-103210498D01*
X94460000Y-103261716D01*
X94460000Y-96762177D01*
X95214250Y-96760000D01*
X95373000Y-96601250D01*
X95373000Y-94377000D01*
X95353000Y-94377000D01*
X95353000Y-94123000D01*
X95373000Y-94123000D01*
X95373000Y-91898750D01*
X95214250Y-91740000D01*
X94460000Y-91737823D01*
X94460000Y-90939801D01*
X96011009Y-89388794D01*
X96040001Y-89365001D01*
X96063795Y-89336008D01*
X96063799Y-89336004D01*
X96134973Y-89249277D01*
X96134974Y-89249276D01*
X96154326Y-89213072D01*
X96850000Y-89213072D01*
X96974482Y-89200812D01*
X97094180Y-89164502D01*
X97140001Y-89140010D01*
X97140001Y-91809990D01*
X97140001Y-91809990D01*
G37*
X97140001Y-91809990D02*
X97094180Y-91785498D01*
X96974482Y-91749188D01*
X96850000Y-91736928D01*
X95785750Y-91740000D01*
X95627000Y-91898750D01*
X95627000Y-94123000D01*
X95647000Y-94123000D01*
X95647000Y-94377000D01*
X95627000Y-94377000D01*
X95627000Y-96601250D01*
X95785750Y-96760000D01*
X96850000Y-96763072D01*
X96974482Y-96750812D01*
X97094180Y-96714502D01*
X97140000Y-96690010D01*
X97140000Y-103261716D01*
X97044180Y-103210498D01*
X96924482Y-103174188D01*
X96800000Y-103161928D01*
X96085750Y-103165000D01*
X95927000Y-103323750D01*
X95927000Y-104473000D01*
X95947000Y-104473000D01*
X95947000Y-104727000D01*
X95927000Y-104727000D01*
X95927000Y-105876250D01*
X96085750Y-106035000D01*
X96800000Y-106038072D01*
X96924482Y-106025812D01*
X97044180Y-105989502D01*
X97140000Y-105938284D01*
X97140000Y-107561928D01*
X95850000Y-107561928D01*
X95725518Y-107574188D01*
X95605820Y-107610498D01*
X95495506Y-107669463D01*
X95398815Y-107748815D01*
X95319463Y-107845506D01*
X95260498Y-107955820D01*
X95224188Y-108075518D01*
X95211928Y-108200000D01*
X95211928Y-108800000D01*
X95224188Y-108924482D01*
X95260498Y-109044180D01*
X95309043Y-109135000D01*
X95260498Y-109225820D01*
X95224188Y-109345518D01*
X95211928Y-109470000D01*
X95211928Y-110070000D01*
X95224188Y-110194482D01*
X95260498Y-110314180D01*
X95309043Y-110405000D01*
X95260498Y-110495820D01*
X95224188Y-110615518D01*
X95211928Y-110740000D01*
X95211928Y-111340000D01*
X95224188Y-111464482D01*
X95260498Y-111584180D01*
X95309043Y-111675000D01*
X95260498Y-111765820D01*
X95224188Y-111885518D01*
X95211928Y-112010000D01*
X95211928Y-112610000D01*
X95224188Y-112734482D01*
X95260498Y-112854180D01*
X95309043Y-112945000D01*
X95260498Y-113035820D01*
X95224188Y-113155518D01*
X95211928Y-113280000D01*
X95215000Y-113294250D01*
X95373750Y-113453000D01*
X96473000Y-113453000D01*
X96473000Y-113433000D01*
X96727000Y-113433000D01*
X96727000Y-113453000D01*
X96747000Y-113453000D01*
X96747000Y-113707000D01*
X96727000Y-113707000D01*
X96727000Y-113727000D01*
X96473000Y-113727000D01*
X96473000Y-113707000D01*
X95373750Y-113707000D01*
X95215000Y-113865750D01*
X95211928Y-113880000D01*
X95224188Y-114004482D01*
X95260498Y-114124180D01*
X95309043Y-114215000D01*
X95260498Y-114305820D01*
X95224188Y-114425518D01*
X95211928Y-114550000D01*
X95211928Y-114713271D01*
X94988998Y-114936201D01*
X94960000Y-114959999D01*
X94936202Y-114988997D01*
X94936201Y-114988998D01*
X94865026Y-115075724D01*
X94794454Y-115207754D01*
X94769669Y-115289463D01*
X94750998Y-115351014D01*
X94746290Y-115398815D01*
X94736324Y-115500000D01*
X94740001Y-115537332D01*
X94740000Y-118511928D01*
X94500000Y-118511928D01*
X94375518Y-118524188D01*
X94255820Y-118560498D01*
X94145506Y-118619463D01*
X94048815Y-118698815D01*
X93969463Y-118795506D01*
X93910498Y-118905820D01*
X93874188Y-119025518D01*
X93861928Y-119150000D01*
X93861928Y-119345674D01*
X93825724Y-119365026D01*
X93709999Y-119459999D01*
X93686201Y-119488997D01*
X93138072Y-120037126D01*
X93138072Y-119150000D01*
X93125812Y-119025518D01*
X93089502Y-118905820D01*
X93030537Y-118795506D01*
X92951185Y-118698815D01*
X92854494Y-118619463D01*
X92744180Y-118560498D01*
X92624482Y-118524188D01*
X92500000Y-118511928D01*
X92335907Y-118511928D01*
X92417205Y-118390256D01*
X92495226Y-118201898D01*
X92535000Y-118001939D01*
X92535000Y-117798061D01*
X92495226Y-117598102D01*
X92417205Y-117409744D01*
X92303937Y-117240226D01*
X92260000Y-117196289D01*
X92260000Y-116974320D01*
X92304494Y-116950537D01*
X92401185Y-116871185D01*
X92480537Y-116774494D01*
X92539502Y-116664180D01*
X92575812Y-116544482D01*
X92588072Y-116420000D01*
X92588072Y-115820000D01*
X92575812Y-115695518D01*
X92539502Y-115575820D01*
X92490957Y-115485000D01*
X92539502Y-115394180D01*
X92575812Y-115274482D01*
X92588072Y-115150000D01*
X92588072Y-114550000D01*
X92575812Y-114425518D01*
X92539502Y-114305820D01*
X92520572Y-114270406D01*
X92624276Y-114214974D01*
X92740001Y-114120001D01*
X92763804Y-114090997D01*
X94211004Y-112643798D01*
X94240001Y-112620001D01*
X94334974Y-112504276D01*
X94405546Y-112372247D01*
X94449003Y-112228986D01*
X94460000Y-112117333D01*
X94460000Y-112117324D01*
X94463676Y-112080001D01*
X94460000Y-112042678D01*
X94460000Y-105938284D01*
X94555820Y-105989502D01*
X94675518Y-106025812D01*
X94800000Y-106038072D01*
X95514250Y-106035000D01*
X95673000Y-105876250D01*
X95673000Y-104727000D01*
X95653000Y-104727000D01*
X95653000Y-104473000D01*
X95673000Y-104473000D01*
X95673000Y-103323750D01*
X95514250Y-103165000D01*
X94800000Y-103161928D01*
X94675518Y-103174188D01*
X94555820Y-103210498D01*
X94460000Y-103261716D01*
X94460000Y-96762177D01*
X95214250Y-96760000D01*
X95373000Y-96601250D01*
X95373000Y-94377000D01*
X95353000Y-94377000D01*
X95353000Y-94123000D01*
X95373000Y-94123000D01*
X95373000Y-91898750D01*
X95214250Y-91740000D01*
X94460000Y-91737823D01*
X94460000Y-90939801D01*
X96011009Y-89388794D01*
X96040001Y-89365001D01*
X96063795Y-89336008D01*
X96063799Y-89336004D01*
X96134973Y-89249277D01*
X96134974Y-89249276D01*
X96154326Y-89213072D01*
X96850000Y-89213072D01*
X96974482Y-89200812D01*
X97094180Y-89164502D01*
X97140001Y-89140010D01*
X97140001Y-91809990D01*
M02*
