M48
; DRILL file {KiCad (5.1.0)-1} date 5/13/2019 2:42:30 PM
; FORMAT={2:4/ absolute / inch / suppress leading zeros}
; #@! TF.CreationDate,2019-05-13T14:42:30-04:00
; #@! TF.GenerationSoftware,Kicad,Pcbnew,(5.1.0)-1
; #@! TF.FileFunction,Plated,1,2,PTH
FMAT,2
INCH,TZ
T1C0.0157
T2C0.0354
T3C0.0394
T4C0.1260
%
G90
G05
T1
X39803Y-35984
X42677Y-35394
X44213Y-28661
X45000Y-29921
X45039Y-33110
X47008Y-31969
X47598Y-30630
X49370Y-29921
X51220Y-37362
X52362Y-32638
T2
X57126Y-35024
X57126Y-36024
T3
X44094Y-32480
X44094Y-33480
X44094Y-34480
X40244Y-38150
X41244Y-38150
X42244Y-38150
X33425Y-32622
X33425Y-33622
X50748Y-28661
X50748Y-29661
X50748Y-30661
X49094Y-32567
X49094Y-33567
X49094Y-34567
X48764Y-38780
X49764Y-38780
X36457Y-40761
X36457Y-41761
X37457Y-40861
X37457Y-41861
X38457Y-40761
X38457Y-41761
X39457Y-40861
X39457Y-41861
X40457Y-40761
X40457Y-41761
T4
X57087Y-41339
X57087Y-27559
X33465Y-27559
X33465Y-41339
T0
M30
