M48
; DRILL file {KiCad (5.1.0)-1} date 05/26/19 15:03:21
; FORMAT={2:4/ absolute / inch / suppress leading zeros}
; #@! TF.CreationDate,2019-05-26T15:03:21-04:00
; #@! TF.GenerationSoftware,Kicad,Pcbnew,(5.1.0)-1
; #@! TF.FileFunction,Plated,1,2,PTH
FMAT,2
INCH,TZ
T1C0.0157
T2C0.0197
T3C0.0354
T4C0.0394
T5C0.1260
%
G90
G05
T1
X24882Y-40866
X25157Y-51575
X27559Y-30787
X29291Y-32638
X29803Y-45039
X31614Y-34646
X35472Y-50512
X36024Y-46417
X36506Y-41959
X36732Y-48976
X36772Y-46772
T3
X29528Y-47335
X29528Y-48335
T4
X30512Y-22638
X31496Y-22638
X32480Y-22638
X30512Y-38386
X31496Y-38386
X32480Y-38386
X30512Y-46260
X31496Y-46260
X32480Y-46260
X37352Y-26591
X37352Y-28591
X37452Y-25591
X37452Y-27591
X37452Y-29591
X38352Y-26591
X38352Y-28591
X38452Y-25591
X38452Y-27591
X38452Y-29591
X30512Y-30512
X31496Y-30512
X32480Y-30512
T5
X25591Y-17717
X25591Y-53150
X37402Y-53150
X37402Y-17717
T2
G00X33287Y-49449
M15
G01X32854Y-49449
M16
G05
G00X32854Y-52638
M15
G01X33287Y-52638
M16
G05
G00X34961Y-51516
M15
G01X34961Y-51949
M16
G05
G00X29350Y-49449
M15
G01X28917Y-49449
M16
G05
G00X28917Y-52638
M15
G01X29350Y-52638
M16
G05
G00X31024Y-51516
M15
G01X31024Y-51949
M16
G05
T0
M30
