G04 #@! TF.GenerationSoftware,KiCad,Pcbnew,(5.1.0)-1*
G04 #@! TF.CreationDate,2019-05-27T20:42:00-04:00*
G04 #@! TF.ProjectId,MIDI Controller,4d494449-2043-46f6-9e74-726f6c6c6572,rev?*
G04 #@! TF.SameCoordinates,Original*
G04 #@! TF.FileFunction,Legend,Bot*
G04 #@! TF.FilePolarity,Positive*
%FSLAX46Y46*%
G04 Gerber Fmt 4.6, Leading zero omitted, Abs format (unit mm)*
G04 Created by KiCad (PCBNEW (5.1.0)-1) date 2019-05-27 20:42:00*
%MOMM*%
%LPD*%
G04 APERTURE LIST*
%ADD10C,0.150000*%
G04 APERTURE END LIST*
D10*
X54552380Y-103666666D02*
X54076190Y-103666666D01*
X54647619Y-103952380D02*
X54314285Y-102952380D01*
X53980952Y-103952380D01*
X53314285Y-103428571D02*
X53647619Y-103428571D01*
X53647619Y-103952380D02*
X53647619Y-102952380D01*
X53171428Y-102952380D01*
X52933333Y-102952380D02*
X52361904Y-102952380D01*
X52647619Y-103952380D02*
X52647619Y-102952380D01*
X52028571Y-103428571D02*
X51695238Y-103428571D01*
X51552380Y-103952380D02*
X52028571Y-103952380D01*
X52028571Y-102952380D01*
X51552380Y-102952380D01*
X50552380Y-103952380D02*
X50885714Y-103476190D01*
X51123809Y-103952380D02*
X51123809Y-102952380D01*
X50742857Y-102952380D01*
X50647619Y-103000000D01*
X50600000Y-103047619D01*
X50552380Y-103142857D01*
X50552380Y-103285714D01*
X50600000Y-103380952D01*
X50647619Y-103428571D01*
X50742857Y-103476190D01*
X51123809Y-103476190D01*
X50266666Y-102952380D02*
X49695238Y-102952380D01*
X49980952Y-103952380D02*
X49980952Y-102952380D01*
X49171428Y-102952380D02*
X48980952Y-102952380D01*
X48885714Y-103000000D01*
X48790476Y-103095238D01*
X48742857Y-103285714D01*
X48742857Y-103619047D01*
X48790476Y-103809523D01*
X48885714Y-103904761D01*
X48980952Y-103952380D01*
X49171428Y-103952380D01*
X49266666Y-103904761D01*
X49361904Y-103809523D01*
X49409523Y-103619047D01*
X49409523Y-103285714D01*
X49361904Y-103095238D01*
X49266666Y-103000000D01*
X49171428Y-102952380D01*
X48314285Y-102952380D02*
X48314285Y-103761904D01*
X48266666Y-103857142D01*
X48219047Y-103904761D01*
X48123809Y-103952380D01*
X47933333Y-103952380D01*
X47838095Y-103904761D01*
X47790476Y-103857142D01*
X47742857Y-103761904D01*
X47742857Y-102952380D01*
X46695238Y-103857142D02*
X46742857Y-103904761D01*
X46885714Y-103952380D01*
X46980952Y-103952380D01*
X47123809Y-103904761D01*
X47219047Y-103809523D01*
X47266666Y-103714285D01*
X47314285Y-103523809D01*
X47314285Y-103380952D01*
X47266666Y-103190476D01*
X47219047Y-103095238D01*
X47123809Y-103000000D01*
X46980952Y-102952380D01*
X46885714Y-102952380D01*
X46742857Y-103000000D01*
X46695238Y-103047619D01*
X46266666Y-103952380D02*
X46266666Y-102952380D01*
X46266666Y-103428571D02*
X45695238Y-103428571D01*
X45695238Y-103952380D02*
X45695238Y-102952380D01*
X52876190Y-88857142D02*
X52923809Y-88904761D01*
X53066666Y-88952380D01*
X53161904Y-88952380D01*
X53304761Y-88904761D01*
X53400000Y-88809523D01*
X53447619Y-88714285D01*
X53495238Y-88523809D01*
X53495238Y-88380952D01*
X53447619Y-88190476D01*
X53400000Y-88095238D01*
X53304761Y-88000000D01*
X53161904Y-87952380D01*
X53066666Y-87952380D01*
X52923809Y-88000000D01*
X52876190Y-88047619D01*
X51971428Y-88952380D02*
X52447619Y-88952380D01*
X52447619Y-87952380D01*
X51447619Y-87952380D02*
X51257142Y-87952380D01*
X51161904Y-88000000D01*
X51066666Y-88095238D01*
X51019047Y-88285714D01*
X51019047Y-88619047D01*
X51066666Y-88809523D01*
X51161904Y-88904761D01*
X51257142Y-88952380D01*
X51447619Y-88952380D01*
X51542857Y-88904761D01*
X51638095Y-88809523D01*
X51685714Y-88619047D01*
X51685714Y-88285714D01*
X51638095Y-88095238D01*
X51542857Y-88000000D01*
X51447619Y-87952380D01*
X50019047Y-88857142D02*
X50066666Y-88904761D01*
X50209523Y-88952380D01*
X50304761Y-88952380D01*
X50447619Y-88904761D01*
X50542857Y-88809523D01*
X50590476Y-88714285D01*
X50638095Y-88523809D01*
X50638095Y-88380952D01*
X50590476Y-88190476D01*
X50542857Y-88095238D01*
X50447619Y-88000000D01*
X50304761Y-87952380D01*
X50209523Y-87952380D01*
X50066666Y-88000000D01*
X50019047Y-88047619D01*
X49590476Y-88952380D02*
X49590476Y-87952380D01*
X49019047Y-88952380D02*
X49447619Y-88380952D01*
X49019047Y-87952380D02*
X49590476Y-88523809D01*
X47400000Y-88285714D02*
X47400000Y-88952380D01*
X47638095Y-87904761D02*
X47876190Y-88619047D01*
X47257142Y-88619047D01*
X62676190Y-88857142D02*
X62723809Y-88904761D01*
X62866666Y-88952380D01*
X62961904Y-88952380D01*
X63104761Y-88904761D01*
X63200000Y-88809523D01*
X63247619Y-88714285D01*
X63295238Y-88523809D01*
X63295238Y-88380952D01*
X63247619Y-88190476D01*
X63200000Y-88095238D01*
X63104761Y-88000000D01*
X62961904Y-87952380D01*
X62866666Y-87952380D01*
X62723809Y-88000000D01*
X62676190Y-88047619D01*
X61771428Y-88952380D02*
X62247619Y-88952380D01*
X62247619Y-87952380D01*
X61247619Y-87952380D02*
X61057142Y-87952380D01*
X60961904Y-88000000D01*
X60866666Y-88095238D01*
X60819047Y-88285714D01*
X60819047Y-88619047D01*
X60866666Y-88809523D01*
X60961904Y-88904761D01*
X61057142Y-88952380D01*
X61247619Y-88952380D01*
X61342857Y-88904761D01*
X61438095Y-88809523D01*
X61485714Y-88619047D01*
X61485714Y-88285714D01*
X61438095Y-88095238D01*
X61342857Y-88000000D01*
X61247619Y-87952380D01*
X59819047Y-88857142D02*
X59866666Y-88904761D01*
X60009523Y-88952380D01*
X60104761Y-88952380D01*
X60247619Y-88904761D01*
X60342857Y-88809523D01*
X60390476Y-88714285D01*
X60438095Y-88523809D01*
X60438095Y-88380952D01*
X60390476Y-88190476D01*
X60342857Y-88095238D01*
X60247619Y-88000000D01*
X60104761Y-87952380D01*
X60009523Y-87952380D01*
X59866666Y-88000000D01*
X59819047Y-88047619D01*
X59390476Y-88952380D02*
X59390476Y-87952380D01*
X58819047Y-88952380D02*
X59247619Y-88380952D01*
X58819047Y-87952380D02*
X59390476Y-88523809D01*
X57676190Y-88047619D02*
X57628571Y-88000000D01*
X57533333Y-87952380D01*
X57295238Y-87952380D01*
X57200000Y-88000000D01*
X57152380Y-88047619D01*
X57104761Y-88142857D01*
X57104761Y-88238095D01*
X57152380Y-88380952D01*
X57723809Y-88952380D01*
X57104761Y-88952380D01*
X72576190Y-88757142D02*
X72623809Y-88804761D01*
X72766666Y-88852380D01*
X72861904Y-88852380D01*
X73004761Y-88804761D01*
X73100000Y-88709523D01*
X73147619Y-88614285D01*
X73195238Y-88423809D01*
X73195238Y-88280952D01*
X73147619Y-88090476D01*
X73100000Y-87995238D01*
X73004761Y-87900000D01*
X72861904Y-87852380D01*
X72766666Y-87852380D01*
X72623809Y-87900000D01*
X72576190Y-87947619D01*
X71671428Y-88852380D02*
X72147619Y-88852380D01*
X72147619Y-87852380D01*
X71147619Y-87852380D02*
X70957142Y-87852380D01*
X70861904Y-87900000D01*
X70766666Y-87995238D01*
X70719047Y-88185714D01*
X70719047Y-88519047D01*
X70766666Y-88709523D01*
X70861904Y-88804761D01*
X70957142Y-88852380D01*
X71147619Y-88852380D01*
X71242857Y-88804761D01*
X71338095Y-88709523D01*
X71385714Y-88519047D01*
X71385714Y-88185714D01*
X71338095Y-87995238D01*
X71242857Y-87900000D01*
X71147619Y-87852380D01*
X69719047Y-88757142D02*
X69766666Y-88804761D01*
X69909523Y-88852380D01*
X70004761Y-88852380D01*
X70147619Y-88804761D01*
X70242857Y-88709523D01*
X70290476Y-88614285D01*
X70338095Y-88423809D01*
X70338095Y-88280952D01*
X70290476Y-88090476D01*
X70242857Y-87995238D01*
X70147619Y-87900000D01*
X70004761Y-87852380D01*
X69909523Y-87852380D01*
X69766666Y-87900000D01*
X69719047Y-87947619D01*
X69290476Y-88852380D02*
X69290476Y-87852380D01*
X68719047Y-88852380D02*
X69147619Y-88280952D01*
X68719047Y-87852380D02*
X69290476Y-88423809D01*
X67004761Y-88852380D02*
X67576190Y-88852380D01*
X67290476Y-88852380D02*
X67290476Y-87852380D01*
X67385714Y-87995238D01*
X67480952Y-88090476D01*
X67576190Y-88138095D01*
X53080952Y-72952380D02*
X52509523Y-72952380D01*
X52795238Y-73952380D02*
X52795238Y-72952380D01*
X51604761Y-73952380D02*
X51938095Y-73476190D01*
X52176190Y-73952380D02*
X52176190Y-72952380D01*
X51795238Y-72952380D01*
X51700000Y-73000000D01*
X51652380Y-73047619D01*
X51604761Y-73142857D01*
X51604761Y-73285714D01*
X51652380Y-73380952D01*
X51700000Y-73428571D01*
X51795238Y-73476190D01*
X52176190Y-73476190D01*
X51176190Y-73952380D02*
X51176190Y-72952380D01*
X50176190Y-73000000D02*
X50271428Y-72952380D01*
X50414285Y-72952380D01*
X50557142Y-73000000D01*
X50652380Y-73095238D01*
X50700000Y-73190476D01*
X50747619Y-73380952D01*
X50747619Y-73523809D01*
X50700000Y-73714285D01*
X50652380Y-73809523D01*
X50557142Y-73904761D01*
X50414285Y-73952380D01*
X50319047Y-73952380D01*
X50176190Y-73904761D01*
X50128571Y-73857142D01*
X50128571Y-73523809D01*
X50319047Y-73523809D01*
X49033333Y-72952380D02*
X48414285Y-72952380D01*
X48747619Y-73333333D01*
X48604761Y-73333333D01*
X48509523Y-73380952D01*
X48461904Y-73428571D01*
X48414285Y-73523809D01*
X48414285Y-73761904D01*
X48461904Y-73857142D01*
X48509523Y-73904761D01*
X48604761Y-73952380D01*
X48890476Y-73952380D01*
X48985714Y-73904761D01*
X49033333Y-73857142D01*
X62047619Y-72952380D02*
X61714285Y-73952380D01*
X61380952Y-72952380D01*
X61047619Y-73428571D02*
X60714285Y-73428571D01*
X60571428Y-73952380D02*
X61047619Y-73952380D01*
X61047619Y-72952380D01*
X60571428Y-72952380D01*
X59666666Y-73952380D02*
X60142857Y-73952380D01*
X60142857Y-72952380D01*
X58666666Y-72952380D02*
X58047619Y-72952380D01*
X58380952Y-73333333D01*
X58238095Y-73333333D01*
X58142857Y-73380952D01*
X58095238Y-73428571D01*
X58047619Y-73523809D01*
X58047619Y-73761904D01*
X58095238Y-73857142D01*
X58142857Y-73904761D01*
X58238095Y-73952380D01*
X58523809Y-73952380D01*
X58619047Y-73904761D01*
X58666666Y-73857142D01*
X73400000Y-73952380D02*
X73400000Y-72952380D01*
X72828571Y-73952380D01*
X72828571Y-72952380D01*
X72161904Y-72952380D02*
X71971428Y-72952380D01*
X71876190Y-73000000D01*
X71780952Y-73095238D01*
X71733333Y-73285714D01*
X71733333Y-73619047D01*
X71780952Y-73809523D01*
X71876190Y-73904761D01*
X71971428Y-73952380D01*
X72161904Y-73952380D01*
X72257142Y-73904761D01*
X72352380Y-73809523D01*
X72400000Y-73619047D01*
X72400000Y-73285714D01*
X72352380Y-73095238D01*
X72257142Y-73000000D01*
X72161904Y-72952380D01*
X71447619Y-72952380D02*
X70876190Y-72952380D01*
X71161904Y-73952380D02*
X71161904Y-72952380D01*
X70542857Y-73428571D02*
X70209523Y-73428571D01*
X70066666Y-73952380D02*
X70542857Y-73952380D01*
X70542857Y-72952380D01*
X70066666Y-72952380D01*
X68971428Y-72952380D02*
X68352380Y-72952380D01*
X68685714Y-73333333D01*
X68542857Y-73333333D01*
X68447619Y-73380952D01*
X68400000Y-73428571D01*
X68352380Y-73523809D01*
X68352380Y-73761904D01*
X68400000Y-73857142D01*
X68447619Y-73904761D01*
X68542857Y-73952380D01*
X68828571Y-73952380D01*
X68923809Y-73904761D01*
X68971428Y-73857142D01*
X52780952Y-58052380D02*
X52209523Y-58052380D01*
X52495238Y-59052380D02*
X52495238Y-58052380D01*
X51304761Y-59052380D02*
X51638095Y-58576190D01*
X51876190Y-59052380D02*
X51876190Y-58052380D01*
X51495238Y-58052380D01*
X51400000Y-58100000D01*
X51352380Y-58147619D01*
X51304761Y-58242857D01*
X51304761Y-58385714D01*
X51352380Y-58480952D01*
X51400000Y-58528571D01*
X51495238Y-58576190D01*
X51876190Y-58576190D01*
X50876190Y-59052380D02*
X50876190Y-58052380D01*
X49876190Y-58100000D02*
X49971428Y-58052380D01*
X50114285Y-58052380D01*
X50257142Y-58100000D01*
X50352380Y-58195238D01*
X50400000Y-58290476D01*
X50447619Y-58480952D01*
X50447619Y-58623809D01*
X50400000Y-58814285D01*
X50352380Y-58909523D01*
X50257142Y-59004761D01*
X50114285Y-59052380D01*
X50019047Y-59052380D01*
X49876190Y-59004761D01*
X49828571Y-58957142D01*
X49828571Y-58623809D01*
X50019047Y-58623809D01*
X48685714Y-58147619D02*
X48638095Y-58100000D01*
X48542857Y-58052380D01*
X48304761Y-58052380D01*
X48209523Y-58100000D01*
X48161904Y-58147619D01*
X48114285Y-58242857D01*
X48114285Y-58338095D01*
X48161904Y-58480952D01*
X48733333Y-59052380D01*
X48114285Y-59052380D01*
X62547619Y-57852380D02*
X62214285Y-58852380D01*
X61880952Y-57852380D01*
X61547619Y-58328571D02*
X61214285Y-58328571D01*
X61071428Y-58852380D02*
X61547619Y-58852380D01*
X61547619Y-57852380D01*
X61071428Y-57852380D01*
X60166666Y-58852380D02*
X60642857Y-58852380D01*
X60642857Y-57852380D01*
X59119047Y-57947619D02*
X59071428Y-57900000D01*
X58976190Y-57852380D01*
X58738095Y-57852380D01*
X58642857Y-57900000D01*
X58595238Y-57947619D01*
X58547619Y-58042857D01*
X58547619Y-58138095D01*
X58595238Y-58280952D01*
X59166666Y-58852380D01*
X58547619Y-58852380D01*
X72600000Y-58852380D02*
X72600000Y-57852380D01*
X72028571Y-58852380D01*
X72028571Y-57852380D01*
X71361904Y-57852380D02*
X71171428Y-57852380D01*
X71076190Y-57900000D01*
X70980952Y-57995238D01*
X70933333Y-58185714D01*
X70933333Y-58519047D01*
X70980952Y-58709523D01*
X71076190Y-58804761D01*
X71171428Y-58852380D01*
X71361904Y-58852380D01*
X71457142Y-58804761D01*
X71552380Y-58709523D01*
X71600000Y-58519047D01*
X71600000Y-58185714D01*
X71552380Y-57995238D01*
X71457142Y-57900000D01*
X71361904Y-57852380D01*
X70647619Y-57852380D02*
X70076190Y-57852380D01*
X70361904Y-58852380D02*
X70361904Y-57852380D01*
X69742857Y-58328571D02*
X69409523Y-58328571D01*
X69266666Y-58852380D02*
X69742857Y-58852380D01*
X69742857Y-57852380D01*
X69266666Y-57852380D01*
X68123809Y-57947619D02*
X68076190Y-57900000D01*
X67980952Y-57852380D01*
X67742857Y-57852380D01*
X67647619Y-57900000D01*
X67600000Y-57947619D01*
X67552380Y-58042857D01*
X67552380Y-58138095D01*
X67600000Y-58280952D01*
X68171428Y-58852380D01*
X67552380Y-58852380D01*
X53080952Y-42852380D02*
X52509523Y-42852380D01*
X52795238Y-43852380D02*
X52795238Y-42852380D01*
X51604761Y-43852380D02*
X51938095Y-43376190D01*
X52176190Y-43852380D02*
X52176190Y-42852380D01*
X51795238Y-42852380D01*
X51700000Y-42900000D01*
X51652380Y-42947619D01*
X51604761Y-43042857D01*
X51604761Y-43185714D01*
X51652380Y-43280952D01*
X51700000Y-43328571D01*
X51795238Y-43376190D01*
X52176190Y-43376190D01*
X51176190Y-43852380D02*
X51176190Y-42852380D01*
X50176190Y-42900000D02*
X50271428Y-42852380D01*
X50414285Y-42852380D01*
X50557142Y-42900000D01*
X50652380Y-42995238D01*
X50700000Y-43090476D01*
X50747619Y-43280952D01*
X50747619Y-43423809D01*
X50700000Y-43614285D01*
X50652380Y-43709523D01*
X50557142Y-43804761D01*
X50414285Y-43852380D01*
X50319047Y-43852380D01*
X50176190Y-43804761D01*
X50128571Y-43757142D01*
X50128571Y-43423809D01*
X50319047Y-43423809D01*
X48414285Y-43852380D02*
X48985714Y-43852380D01*
X48700000Y-43852380D02*
X48700000Y-42852380D01*
X48795238Y-42995238D01*
X48890476Y-43090476D01*
X48985714Y-43138095D01*
X61547619Y-42852380D02*
X61214285Y-43852380D01*
X60880952Y-42852380D01*
X60547619Y-43328571D02*
X60214285Y-43328571D01*
X60071428Y-43852380D02*
X60547619Y-43852380D01*
X60547619Y-42852380D01*
X60071428Y-42852380D01*
X59166666Y-43852380D02*
X59642857Y-43852380D01*
X59642857Y-42852380D01*
X57547619Y-43852380D02*
X58119047Y-43852380D01*
X57833333Y-43852380D02*
X57833333Y-42852380D01*
X57928571Y-42995238D01*
X58023809Y-43090476D01*
X58119047Y-43138095D01*
X72500000Y-43752380D02*
X72500000Y-42752380D01*
X71928571Y-43752380D01*
X71928571Y-42752380D01*
X71261904Y-42752380D02*
X71071428Y-42752380D01*
X70976190Y-42800000D01*
X70880952Y-42895238D01*
X70833333Y-43085714D01*
X70833333Y-43419047D01*
X70880952Y-43609523D01*
X70976190Y-43704761D01*
X71071428Y-43752380D01*
X71261904Y-43752380D01*
X71357142Y-43704761D01*
X71452380Y-43609523D01*
X71500000Y-43419047D01*
X71500000Y-43085714D01*
X71452380Y-42895238D01*
X71357142Y-42800000D01*
X71261904Y-42752380D01*
X70547619Y-42752380D02*
X69976190Y-42752380D01*
X70261904Y-43752380D02*
X70261904Y-42752380D01*
X69642857Y-43228571D02*
X69309523Y-43228571D01*
X69166666Y-43752380D02*
X69642857Y-43752380D01*
X69642857Y-42752380D01*
X69166666Y-42752380D01*
X67452380Y-43752380D02*
X68023809Y-43752380D01*
X67738095Y-43752380D02*
X67738095Y-42752380D01*
X67833333Y-42895238D01*
X67928571Y-42990476D01*
X68023809Y-43038095D01*
X75000000Y-54900000D02*
X75000000Y-44400000D01*
X66000000Y-54900000D02*
X75000000Y-54900000D01*
X66000000Y-44400000D02*
X66000000Y-54900000D01*
X75000000Y-44400000D02*
X66000000Y-44400000D01*
X65000000Y-54900000D02*
X65000000Y-44400000D01*
X56000000Y-54900000D02*
X65000000Y-54900000D01*
X56000000Y-44400000D02*
X56000000Y-54900000D01*
X65000000Y-44400000D02*
X56000000Y-44400000D01*
X55000000Y-54900000D02*
X55000000Y-44400000D01*
X46000000Y-54900000D02*
X55000000Y-54900000D01*
X46000000Y-44400000D02*
X46000000Y-54900000D01*
X55000000Y-44400000D02*
X46000000Y-44400000D01*
X75000000Y-99900000D02*
X75000000Y-89400000D01*
X66000000Y-99900000D02*
X75000000Y-99900000D01*
X66000000Y-89400000D02*
X66000000Y-99900000D01*
X75000000Y-89400000D02*
X66000000Y-89400000D01*
X75000000Y-69900000D02*
X75000000Y-59400000D01*
X66000000Y-69900000D02*
X75000000Y-69900000D01*
X66000000Y-59400000D02*
X66000000Y-69900000D01*
X75000000Y-59400000D02*
X66000000Y-59400000D01*
X65000000Y-69900000D02*
X65000000Y-59400000D01*
X56000000Y-69900000D02*
X65000000Y-69900000D01*
X56000000Y-59400000D02*
X56000000Y-69900000D01*
X65000000Y-59400000D02*
X56000000Y-59400000D01*
X55000000Y-69900000D02*
X55000000Y-59400000D01*
X46000000Y-69900000D02*
X55000000Y-69900000D01*
X46000000Y-59400000D02*
X46000000Y-69900000D01*
X55000000Y-59400000D02*
X46000000Y-59400000D01*
X65000000Y-99900000D02*
X65000000Y-89400000D01*
X56000000Y-99900000D02*
X65000000Y-99900000D01*
X56000000Y-89400000D02*
X56000000Y-99900000D01*
X65000000Y-89400000D02*
X56000000Y-89400000D01*
X75000000Y-84900000D02*
X75000000Y-74400000D01*
X66000000Y-84900000D02*
X75000000Y-84900000D01*
X66000000Y-74400000D02*
X66000000Y-84900000D01*
X75000000Y-74400000D02*
X66000000Y-74400000D01*
X65000000Y-84900000D02*
X65000000Y-74400000D01*
X56000000Y-84900000D02*
X65000000Y-84900000D01*
X56000000Y-74400000D02*
X56000000Y-84900000D01*
X65000000Y-74400000D02*
X56000000Y-74400000D01*
X55000000Y-84900000D02*
X55000000Y-74400000D01*
X46000000Y-84900000D02*
X55000000Y-84900000D01*
X46000000Y-74400000D02*
X46000000Y-84900000D01*
X55000000Y-74400000D02*
X46000000Y-74400000D01*
X55000000Y-99900000D02*
X55000000Y-89400000D01*
X46000000Y-99900000D02*
X55000000Y-99900000D01*
X46000000Y-89400000D02*
X46000000Y-99900000D01*
X55000000Y-89400000D02*
X46000000Y-89400000D01*
X55000000Y-114900000D02*
X55000000Y-104400000D01*
X46000000Y-114900000D02*
X55000000Y-114900000D01*
X46000000Y-104400000D02*
X46000000Y-114900000D01*
X55000000Y-104400000D02*
X46000000Y-104400000D01*
X70333333Y-55452380D02*
X70333333Y-56166666D01*
X70380952Y-56309523D01*
X70476190Y-56404761D01*
X70619047Y-56452380D01*
X70714285Y-56452380D01*
X69380952Y-55452380D02*
X69857142Y-55452380D01*
X69904761Y-55928571D01*
X69857142Y-55880952D01*
X69761904Y-55833333D01*
X69523809Y-55833333D01*
X69428571Y-55880952D01*
X69380952Y-55928571D01*
X69333333Y-56023809D01*
X69333333Y-56261904D01*
X69380952Y-56357142D01*
X69428571Y-56404761D01*
X69523809Y-56452380D01*
X69761904Y-56452380D01*
X69857142Y-56404761D01*
X69904761Y-56357142D01*
X60333333Y-55452380D02*
X60333333Y-56166666D01*
X60380952Y-56309523D01*
X60476190Y-56404761D01*
X60619047Y-56452380D01*
X60714285Y-56452380D01*
X59428571Y-55452380D02*
X59619047Y-55452380D01*
X59714285Y-55500000D01*
X59761904Y-55547619D01*
X59857142Y-55690476D01*
X59904761Y-55880952D01*
X59904761Y-56261904D01*
X59857142Y-56357142D01*
X59809523Y-56404761D01*
X59714285Y-56452380D01*
X59523809Y-56452380D01*
X59428571Y-56404761D01*
X59380952Y-56357142D01*
X59333333Y-56261904D01*
X59333333Y-56023809D01*
X59380952Y-55928571D01*
X59428571Y-55880952D01*
X59523809Y-55833333D01*
X59714285Y-55833333D01*
X59809523Y-55880952D01*
X59857142Y-55928571D01*
X59904761Y-56023809D01*
X50333333Y-55452380D02*
X50333333Y-56166666D01*
X50380952Y-56309523D01*
X50476190Y-56404761D01*
X50619047Y-56452380D01*
X50714285Y-56452380D01*
X49952380Y-55452380D02*
X49285714Y-55452380D01*
X49714285Y-56452380D01*
X70333333Y-100452380D02*
X70333333Y-101166666D01*
X70380952Y-101309523D01*
X70476190Y-101404761D01*
X70619047Y-101452380D01*
X70714285Y-101452380D01*
X69714285Y-100880952D02*
X69809523Y-100833333D01*
X69857142Y-100785714D01*
X69904761Y-100690476D01*
X69904761Y-100642857D01*
X69857142Y-100547619D01*
X69809523Y-100500000D01*
X69714285Y-100452380D01*
X69523809Y-100452380D01*
X69428571Y-100500000D01*
X69380952Y-100547619D01*
X69333333Y-100642857D01*
X69333333Y-100690476D01*
X69380952Y-100785714D01*
X69428571Y-100833333D01*
X69523809Y-100880952D01*
X69714285Y-100880952D01*
X69809523Y-100928571D01*
X69857142Y-100976190D01*
X69904761Y-101071428D01*
X69904761Y-101261904D01*
X69857142Y-101357142D01*
X69809523Y-101404761D01*
X69714285Y-101452380D01*
X69523809Y-101452380D01*
X69428571Y-101404761D01*
X69380952Y-101357142D01*
X69333333Y-101261904D01*
X69333333Y-101071428D01*
X69380952Y-100976190D01*
X69428571Y-100928571D01*
X69523809Y-100880952D01*
X70333333Y-70452380D02*
X70333333Y-71166666D01*
X70380952Y-71309523D01*
X70476190Y-71404761D01*
X70619047Y-71452380D01*
X70714285Y-71452380D01*
X69809523Y-71452380D02*
X69619047Y-71452380D01*
X69523809Y-71404761D01*
X69476190Y-71357142D01*
X69380952Y-71214285D01*
X69333333Y-71023809D01*
X69333333Y-70642857D01*
X69380952Y-70547619D01*
X69428571Y-70500000D01*
X69523809Y-70452380D01*
X69714285Y-70452380D01*
X69809523Y-70500000D01*
X69857142Y-70547619D01*
X69904761Y-70642857D01*
X69904761Y-70880952D01*
X69857142Y-70976190D01*
X69809523Y-71023809D01*
X69714285Y-71071428D01*
X69523809Y-71071428D01*
X69428571Y-71023809D01*
X69380952Y-70976190D01*
X69333333Y-70880952D01*
X60809523Y-70452380D02*
X60809523Y-71166666D01*
X60857142Y-71309523D01*
X60952380Y-71404761D01*
X61095238Y-71452380D01*
X61190476Y-71452380D01*
X59809523Y-71452380D02*
X60380952Y-71452380D01*
X60095238Y-71452380D02*
X60095238Y-70452380D01*
X60190476Y-70595238D01*
X60285714Y-70690476D01*
X60380952Y-70738095D01*
X59190476Y-70452380D02*
X59095238Y-70452380D01*
X59000000Y-70500000D01*
X58952380Y-70547619D01*
X58904761Y-70642857D01*
X58857142Y-70833333D01*
X58857142Y-71071428D01*
X58904761Y-71261904D01*
X58952380Y-71357142D01*
X59000000Y-71404761D01*
X59095238Y-71452380D01*
X59190476Y-71452380D01*
X59285714Y-71404761D01*
X59333333Y-71357142D01*
X59380952Y-71261904D01*
X59428571Y-71071428D01*
X59428571Y-70833333D01*
X59380952Y-70642857D01*
X59333333Y-70547619D01*
X59285714Y-70500000D01*
X59190476Y-70452380D01*
X50809523Y-70452380D02*
X50809523Y-71166666D01*
X50857142Y-71309523D01*
X50952380Y-71404761D01*
X51095238Y-71452380D01*
X51190476Y-71452380D01*
X49809523Y-71452380D02*
X50380952Y-71452380D01*
X50095238Y-71452380D02*
X50095238Y-70452380D01*
X50190476Y-70595238D01*
X50285714Y-70690476D01*
X50380952Y-70738095D01*
X48857142Y-71452380D02*
X49428571Y-71452380D01*
X49142857Y-71452380D02*
X49142857Y-70452380D01*
X49238095Y-70595238D01*
X49333333Y-70690476D01*
X49428571Y-70738095D01*
X60809523Y-100452380D02*
X60809523Y-101166666D01*
X60857142Y-101309523D01*
X60952380Y-101404761D01*
X61095238Y-101452380D01*
X61190476Y-101452380D01*
X59809523Y-101452380D02*
X60380952Y-101452380D01*
X60095238Y-101452380D02*
X60095238Y-100452380D01*
X60190476Y-100595238D01*
X60285714Y-100690476D01*
X60380952Y-100738095D01*
X59428571Y-100547619D02*
X59380952Y-100500000D01*
X59285714Y-100452380D01*
X59047619Y-100452380D01*
X58952380Y-100500000D01*
X58904761Y-100547619D01*
X58857142Y-100642857D01*
X58857142Y-100738095D01*
X58904761Y-100880952D01*
X59476190Y-101452380D01*
X58857142Y-101452380D01*
X70809523Y-85452380D02*
X70809523Y-86166666D01*
X70857142Y-86309523D01*
X70952380Y-86404761D01*
X71095238Y-86452380D01*
X71190476Y-86452380D01*
X69809523Y-86452380D02*
X70380952Y-86452380D01*
X70095238Y-86452380D02*
X70095238Y-85452380D01*
X70190476Y-85595238D01*
X70285714Y-85690476D01*
X70380952Y-85738095D01*
X69476190Y-85452380D02*
X68857142Y-85452380D01*
X69190476Y-85833333D01*
X69047619Y-85833333D01*
X68952380Y-85880952D01*
X68904761Y-85928571D01*
X68857142Y-86023809D01*
X68857142Y-86261904D01*
X68904761Y-86357142D01*
X68952380Y-86404761D01*
X69047619Y-86452380D01*
X69333333Y-86452380D01*
X69428571Y-86404761D01*
X69476190Y-86357142D01*
X60809523Y-85452380D02*
X60809523Y-86166666D01*
X60857142Y-86309523D01*
X60952380Y-86404761D01*
X61095238Y-86452380D01*
X61190476Y-86452380D01*
X59809523Y-86452380D02*
X60380952Y-86452380D01*
X60095238Y-86452380D02*
X60095238Y-85452380D01*
X60190476Y-85595238D01*
X60285714Y-85690476D01*
X60380952Y-85738095D01*
X58952380Y-85785714D02*
X58952380Y-86452380D01*
X59190476Y-85404761D02*
X59428571Y-86119047D01*
X58809523Y-86119047D01*
X50809523Y-85452380D02*
X50809523Y-86166666D01*
X50857142Y-86309523D01*
X50952380Y-86404761D01*
X51095238Y-86452380D01*
X51190476Y-86452380D01*
X49809523Y-86452380D02*
X50380952Y-86452380D01*
X50095238Y-86452380D02*
X50095238Y-85452380D01*
X50190476Y-85595238D01*
X50285714Y-85690476D01*
X50380952Y-85738095D01*
X48904761Y-85452380D02*
X49380952Y-85452380D01*
X49428571Y-85928571D01*
X49380952Y-85880952D01*
X49285714Y-85833333D01*
X49047619Y-85833333D01*
X48952380Y-85880952D01*
X48904761Y-85928571D01*
X48857142Y-86023809D01*
X48857142Y-86261904D01*
X48904761Y-86357142D01*
X48952380Y-86404761D01*
X49047619Y-86452380D01*
X49285714Y-86452380D01*
X49380952Y-86404761D01*
X49428571Y-86357142D01*
X50809523Y-100452380D02*
X50809523Y-101166666D01*
X50857142Y-101309523D01*
X50952380Y-101404761D01*
X51095238Y-101452380D01*
X51190476Y-101452380D01*
X49809523Y-101452380D02*
X50380952Y-101452380D01*
X50095238Y-101452380D02*
X50095238Y-100452380D01*
X50190476Y-100595238D01*
X50285714Y-100690476D01*
X50380952Y-100738095D01*
X48952380Y-100452380D02*
X49142857Y-100452380D01*
X49238095Y-100500000D01*
X49285714Y-100547619D01*
X49380952Y-100690476D01*
X49428571Y-100880952D01*
X49428571Y-101261904D01*
X49380952Y-101357142D01*
X49333333Y-101404761D01*
X49238095Y-101452380D01*
X49047619Y-101452380D01*
X48952380Y-101404761D01*
X48904761Y-101357142D01*
X48857142Y-101261904D01*
X48857142Y-101023809D01*
X48904761Y-100928571D01*
X48952380Y-100880952D01*
X49047619Y-100833333D01*
X49238095Y-100833333D01*
X49333333Y-100880952D01*
X49380952Y-100928571D01*
X49428571Y-101023809D01*
X50809523Y-115452380D02*
X50809523Y-116166666D01*
X50857142Y-116309523D01*
X50952380Y-116404761D01*
X51095238Y-116452380D01*
X51190476Y-116452380D01*
X49809523Y-116452380D02*
X50380952Y-116452380D01*
X50095238Y-116452380D02*
X50095238Y-115452380D01*
X50190476Y-115595238D01*
X50285714Y-115690476D01*
X50380952Y-115738095D01*
X49476190Y-115452380D02*
X48809523Y-115452380D01*
X49238095Y-116452380D01*
M02*
