G04 #@! TF.GenerationSoftware,KiCad,Pcbnew,(5.1.0)-1*
G04 #@! TF.CreationDate,2019-05-18T13:53:44-04:00*
G04 #@! TF.ProjectId,MIDI Controller,4d494449-2043-46f6-9e74-726f6c6c6572,rev?*
G04 #@! TF.SameCoordinates,Original*
G04 #@! TF.FileFunction,Copper,L2,Bot*
G04 #@! TF.FilePolarity,Positive*
%FSLAX46Y46*%
G04 Gerber Fmt 4.6, Leading zero omitted, Abs format (unit mm)*
G04 Created by KiCad (PCBNEW (5.1.0)-1) date 2019-05-18 13:53:44*
%MOMM*%
%LPD*%
G04 APERTURE LIST*
%ADD10C,1.778000*%
%ADD11C,4.064000*%
%ADD12R,1.600000X1.600000*%
%ADD13O,1.600000X1.600000*%
%ADD14O,1.700000X1.700000*%
%ADD15R,1.700000X1.700000*%
%ADD16R,2.400000X1.600000*%
%ADD17O,2.400000X1.600000*%
%ADD18C,0.800000*%
%ADD19C,0.250000*%
%ADD20C,0.508000*%
%ADD21C,0.254000*%
G04 APERTURE END LIST*
D10*
X148475000Y-60866000D03*
X148475000Y-67376000D03*
X146075000Y-67736000D03*
X146075000Y-60506000D03*
D11*
X65000000Y-125000000D03*
X145000000Y-125000000D03*
X145000000Y-55000000D03*
X65000000Y-55000000D03*
D12*
X118000000Y-68500000D03*
D13*
X118000000Y-60880000D03*
D14*
X142960000Y-82880000D03*
X140420000Y-82880000D03*
X142706000Y-80340000D03*
X140166000Y-80340000D03*
X142960000Y-77800000D03*
X140420000Y-77800000D03*
X142706000Y-75260000D03*
X140166000Y-75260000D03*
X142960000Y-72720000D03*
D15*
X140420000Y-72720000D03*
D14*
X124300000Y-61260000D03*
D15*
X124300000Y-63800000D03*
X97000000Y-63700000D03*
D14*
X97000000Y-61160000D03*
D15*
X87700000Y-100400000D03*
D14*
X87700000Y-97860000D03*
X87700000Y-90840000D03*
D15*
X87700000Y-88300000D03*
X76400000Y-88260000D03*
D14*
X76400000Y-90800000D03*
X76500000Y-97860000D03*
D15*
X76500000Y-100400000D03*
D14*
X120100000Y-98160000D03*
D15*
X120100000Y-100700000D03*
X120100000Y-88600000D03*
D14*
X120100000Y-91140000D03*
X108400000Y-91140000D03*
D15*
X108400000Y-88600000D03*
X108400000Y-100640000D03*
D14*
X108400000Y-98100000D03*
X88100000Y-117160000D03*
D15*
X88100000Y-119700000D03*
X88100000Y-106760000D03*
D14*
X88100000Y-109300000D03*
X76300000Y-109340000D03*
D15*
X76300000Y-106800000D03*
X76300000Y-119700000D03*
D14*
X76300000Y-117160000D03*
D15*
X120100000Y-116240000D03*
D14*
X120100000Y-113700000D03*
D16*
X114020000Y-68620000D03*
D17*
X106400000Y-61000000D03*
X114020000Y-66080000D03*
X106400000Y-63540000D03*
X114020000Y-63540000D03*
X106400000Y-66080000D03*
X114020000Y-61000000D03*
X106400000Y-68620000D03*
D18*
X135600200Y-91270300D03*
X137217400Y-92937500D03*
X135690000Y-100170000D03*
X137990000Y-103320000D03*
X135710000Y-109390000D03*
X137740000Y-112620000D03*
X123700000Y-112020000D03*
X123700000Y-104870000D03*
X117900000Y-104810000D03*
X123680000Y-95710000D03*
X123800000Y-90740000D03*
X103420000Y-91110000D03*
X105570000Y-94330000D03*
X105720000Y-103130000D03*
X106380000Y-109380000D03*
X105720000Y-112520000D03*
X110570000Y-116890000D03*
X106860000Y-118500000D03*
X105540000Y-121570000D03*
X91470000Y-113580000D03*
X91530000Y-109330000D03*
X129810000Y-79210000D03*
X82000000Y-60410000D03*
X74570000Y-58270000D03*
X74800000Y-60220000D03*
X74940000Y-62830000D03*
X91370000Y-95750000D03*
X91370000Y-93390000D03*
X91370000Y-86440000D03*
X101410000Y-82700000D03*
X104750000Y-74630000D03*
X95580000Y-75300000D03*
X78820000Y-73620000D03*
X86970000Y-76150000D03*
X79410000Y-80090000D03*
X104568700Y-101687500D03*
X102274200Y-99645700D03*
X113280000Y-103180000D03*
X126328900Y-103098900D03*
X93390000Y-98100000D03*
X93460000Y-100750000D03*
X93370000Y-94690000D03*
X93229000Y-89225000D03*
X93570000Y-107070000D03*
X93570000Y-110670000D03*
X118860000Y-109800000D03*
X121010000Y-111110000D03*
X125570000Y-97820000D03*
X127480000Y-94280000D03*
X129340000Y-100410000D03*
X125530000Y-99930000D03*
X125850000Y-107230000D03*
X125660000Y-89290000D03*
X135690000Y-68870000D03*
X135810000Y-80540000D03*
X137040000Y-78250000D03*
X94499800Y-75191300D03*
X109249600Y-92993600D03*
X86071100Y-74469900D03*
X77548100Y-104658100D03*
X103543700Y-90109100D03*
X108341200Y-94568500D03*
X91744700Y-81463100D03*
X82042800Y-113602500D03*
X92504000Y-82179100D03*
X103559300Y-116110000D03*
X95067400Y-78518200D03*
X135751400Y-97585300D03*
X122253050Y-84086950D03*
X112791800Y-78518200D03*
X95349600Y-83197900D03*
X106307100Y-97218800D03*
X133912100Y-105747900D03*
X94840100Y-82262500D03*
X102600000Y-96140000D03*
X103601800Y-117939300D03*
X103609600Y-108910700D03*
X106789400Y-102770100D03*
X105544500Y-96058900D03*
X102852500Y-88544000D03*
X137838000Y-111612200D03*
X135858900Y-90254700D03*
X114144100Y-106475300D03*
X107156600Y-108299600D03*
X138781300Y-98905800D03*
X101648400Y-74325600D03*
X135658900Y-106206900D03*
X120495900Y-81294100D03*
X123760900Y-84559100D03*
X94735600Y-69822200D03*
X104963000Y-104874800D03*
X94619000Y-73070300D03*
X135789700Y-89127500D03*
X124481100Y-77818900D03*
X128131100Y-81468900D03*
X93143500Y-73022800D03*
X93370100Y-82854800D03*
X86305800Y-73379800D03*
X80351500Y-85113300D03*
D19*
X106400000Y-59950000D02*
X106400000Y-58150000D01*
X106400000Y-58150000D02*
X106740000Y-57810000D01*
X106740000Y-57810000D02*
X107950000Y-57810000D01*
X106400000Y-61000000D02*
X106400000Y-59950000D01*
X106400000Y-61000000D02*
X106400000Y-59950000D01*
X106400000Y-59950000D02*
X106500000Y-59850000D01*
X102274200Y-99645700D02*
X102526900Y-99645700D01*
X102526900Y-99645700D02*
X104568700Y-101687500D01*
X126247800Y-103180000D02*
X126328900Y-103098900D01*
X113280000Y-103180000D02*
X126247800Y-103180000D01*
X93390000Y-98100000D02*
X93390000Y-100680000D01*
X93390000Y-100680000D02*
X93460000Y-100750000D01*
X93390000Y-98100000D02*
X93390000Y-94710000D01*
X93390000Y-94710000D02*
X93370000Y-94690000D01*
X93229000Y-94549000D02*
X93370000Y-94690000D01*
X93229000Y-89225000D02*
X93229000Y-94549000D01*
X93570000Y-110104315D02*
X93570000Y-107070000D01*
X93570000Y-110670000D02*
X93570000Y-110104315D01*
X119700000Y-109800000D02*
X118860000Y-109800000D01*
X121010000Y-111110000D02*
X119700000Y-109800000D01*
X125570000Y-97820000D02*
X125570000Y-96190000D01*
X125570000Y-96190000D02*
X127480000Y-94280000D01*
X129340000Y-100410000D02*
X126010000Y-100410000D01*
X126010000Y-100410000D02*
X125530000Y-99930000D01*
X125530000Y-97860000D02*
X125570000Y-97820000D01*
X125530000Y-99930000D02*
X125530000Y-97860000D01*
X127480000Y-91110000D02*
X127480000Y-94280000D01*
X125660000Y-89290000D02*
X127480000Y-91110000D01*
D20*
X137928000Y-68870000D02*
X135690000Y-68870000D01*
X140420000Y-72720000D02*
X140420000Y-71362000D01*
X140420000Y-71362000D02*
X137928000Y-68870000D01*
D19*
X135810000Y-80540000D02*
X135810000Y-79480000D01*
X135810000Y-79480000D02*
X137040000Y-78250000D01*
X109249600Y-92993600D02*
X108429900Y-92993600D01*
X108429900Y-92993600D02*
X94342000Y-78905700D01*
X94342000Y-78905700D02*
X94342000Y-75349100D01*
X94342000Y-75349100D02*
X94499800Y-75191300D01*
X77548100Y-104658100D02*
X77548100Y-103497900D01*
X77548100Y-103497900D02*
X86071100Y-94974900D01*
X86071100Y-94974900D02*
X86071100Y-74469900D01*
X108341200Y-94568500D02*
X103881800Y-90109100D01*
X103881800Y-90109100D02*
X103543700Y-90109100D01*
X91744700Y-81463100D02*
X89193900Y-84013900D01*
X89193900Y-84013900D02*
X89193900Y-93067800D01*
X89193900Y-93067800D02*
X82042800Y-100218900D01*
X82042800Y-100218900D02*
X82042800Y-113602500D01*
X103559300Y-112879300D02*
X103559300Y-116110000D01*
X93634000Y-102954000D02*
X103559300Y-112879300D01*
X93634000Y-102944000D02*
X92504000Y-101814000D01*
X93634000Y-102954000D02*
X93634000Y-102944000D01*
X92504000Y-101814000D02*
X92504000Y-82179100D01*
X135751400Y-97585300D02*
X122253050Y-84086950D01*
X112791800Y-78518200D02*
X95067400Y-78518200D01*
X95349600Y-83197900D02*
X95349600Y-86889700D01*
X95349600Y-86889700D02*
X105678700Y-97218800D01*
X105678700Y-97218800D02*
X106307100Y-97218800D01*
X105688400Y-105747900D02*
X105688400Y-107605100D01*
X105688400Y-107605100D02*
X104382800Y-108910700D01*
X103064900Y-96600300D02*
X105294100Y-98829500D01*
X105294100Y-98829500D02*
X105294100Y-102404600D01*
X105294100Y-102404600D02*
X104956100Y-102742600D01*
X104956100Y-102742600D02*
X104956100Y-103749600D01*
X104956100Y-103749600D02*
X105688400Y-104481900D01*
X105688400Y-104481900D02*
X105688400Y-105747900D01*
X105688400Y-105747900D02*
X133912100Y-105747900D01*
X94840100Y-82262500D02*
X94554400Y-82548200D01*
X94554400Y-82548200D02*
X94554400Y-88089800D01*
X94554400Y-88089800D02*
X103064900Y-96600300D01*
X103609600Y-108910700D02*
X104382800Y-108910700D01*
X104382800Y-108910700D02*
X104382800Y-117158300D01*
X104382800Y-117158300D02*
X103601800Y-117939300D01*
X105829000Y-95774400D02*
X105544500Y-96058900D01*
X102852500Y-88544000D02*
X102678500Y-88718000D01*
X102678500Y-88718000D02*
X102678500Y-92623900D01*
X102678500Y-92623900D02*
X105829000Y-95774400D01*
X106789400Y-102770100D02*
X107037100Y-102522400D01*
X107037100Y-102522400D02*
X107037100Y-96902700D01*
X107037100Y-96902700D02*
X105908800Y-95774400D01*
X105908800Y-95774400D02*
X105829000Y-95774400D01*
X138781300Y-105413200D02*
X138781300Y-98905800D01*
X138781300Y-98905800D02*
X138781300Y-93177100D01*
X138781300Y-93177100D02*
X135858900Y-90254700D01*
X107156600Y-108299600D02*
X114144100Y-108299600D01*
X114144100Y-108299600D02*
X114144100Y-106475300D01*
X114144100Y-108299600D02*
X119180400Y-108299600D01*
X137272315Y-111612200D02*
X137838000Y-111612200D01*
X124365202Y-111612200D02*
X137272315Y-111612200D01*
X121052602Y-108299600D02*
X124365202Y-111612200D01*
X119180400Y-108299600D02*
X121052602Y-108299600D01*
X137838000Y-106356500D02*
X138781300Y-105413200D01*
X137838000Y-111612200D02*
X137838000Y-106356500D01*
X135658900Y-106206900D02*
X136482700Y-105383100D01*
X136482700Y-105383100D02*
X136482700Y-97280900D01*
X136482700Y-97280900D02*
X123760900Y-84559100D01*
X114776600Y-75574800D02*
X102897600Y-75574800D01*
X102897600Y-75574800D02*
X101648400Y-74325600D01*
X120495900Y-81294100D02*
X114776600Y-75574800D01*
X94735600Y-69822200D02*
X93893700Y-70664100D01*
X93893700Y-70664100D02*
X93893700Y-73298400D01*
X93893700Y-73298400D02*
X93744700Y-73447400D01*
X93744700Y-73447400D02*
X93744700Y-81556500D01*
X93744700Y-81556500D02*
X94095400Y-81907200D01*
X94095400Y-81907200D02*
X94095400Y-94007200D01*
X94095400Y-94007200D02*
X104963000Y-104874800D01*
X135789700Y-89127500D02*
X128131100Y-81468900D01*
X119732500Y-73070300D02*
X94619000Y-73070300D01*
X124481100Y-77818900D02*
X119732500Y-73070300D01*
X93370100Y-82854800D02*
X93229300Y-82714000D01*
X93229300Y-82714000D02*
X93229300Y-73108600D01*
X93229300Y-73108600D02*
X93143500Y-73022800D01*
X80351500Y-85113300D02*
X80351500Y-79163700D01*
X80351500Y-79163700D02*
X86135400Y-73379800D01*
X86135400Y-73379800D02*
X86305800Y-73379800D01*
D21*
G36*
X149340000Y-59774044D02*
G01*
X149269273Y-59556711D01*
X148998582Y-59426914D01*
X148707770Y-59352420D01*
X148408012Y-59336092D01*
X148110829Y-59378557D01*
X147827641Y-59478184D01*
X147680727Y-59556711D01*
X147598375Y-59809767D01*
X147482394Y-59693786D01*
X147412212Y-59763968D01*
X147384289Y-59711727D01*
X147131231Y-59629374D01*
X146254605Y-60506000D01*
X146268748Y-60520143D01*
X146089143Y-60699748D01*
X146075000Y-60685605D01*
X145198374Y-61562231D01*
X145280727Y-61815289D01*
X145551418Y-61945086D01*
X145842230Y-62019580D01*
X146141988Y-62035908D01*
X146439171Y-61993443D01*
X146722359Y-61893816D01*
X146869273Y-61815289D01*
X146951625Y-61562233D01*
X147067606Y-61678214D01*
X147137788Y-61608032D01*
X147165711Y-61660273D01*
X147418769Y-61742626D01*
X148295395Y-60866000D01*
X148281253Y-60851858D01*
X148460858Y-60672253D01*
X148475000Y-60686395D01*
X148489143Y-60672253D01*
X148668748Y-60851858D01*
X148654605Y-60866000D01*
X148668748Y-60880143D01*
X148489143Y-61059748D01*
X148475000Y-61045605D01*
X147598374Y-61922231D01*
X147680727Y-62175289D01*
X147951418Y-62305086D01*
X148242230Y-62379580D01*
X148541988Y-62395908D01*
X148839171Y-62353443D01*
X149122359Y-62253816D01*
X149269273Y-62175289D01*
X149340000Y-61957955D01*
X149340000Y-66284045D01*
X149269273Y-66066711D01*
X148998582Y-65936914D01*
X148707770Y-65862420D01*
X148408012Y-65846092D01*
X148110829Y-65888557D01*
X147827641Y-65988184D01*
X147680727Y-66066711D01*
X147598374Y-66319769D01*
X148475000Y-67196395D01*
X148489143Y-67182253D01*
X148668748Y-67361858D01*
X148654605Y-67376000D01*
X148668748Y-67390143D01*
X148489143Y-67569748D01*
X148475000Y-67555605D01*
X148460858Y-67569748D01*
X148281253Y-67390143D01*
X148295395Y-67376000D01*
X147418769Y-66499374D01*
X147165711Y-66581727D01*
X147139730Y-66635910D01*
X147067606Y-66563786D01*
X146951625Y-66679767D01*
X146869273Y-66426711D01*
X146598582Y-66296914D01*
X146307770Y-66222420D01*
X146008012Y-66206092D01*
X145710829Y-66248557D01*
X145427641Y-66348184D01*
X145280727Y-66426711D01*
X145198374Y-66679769D01*
X146075000Y-67556395D01*
X146089143Y-67542253D01*
X146268748Y-67721858D01*
X146254605Y-67736000D01*
X147131231Y-68612626D01*
X147384289Y-68530273D01*
X147410270Y-68476090D01*
X147482394Y-68548214D01*
X147598375Y-68432233D01*
X147680727Y-68685289D01*
X147951418Y-68815086D01*
X148242230Y-68889580D01*
X148541988Y-68905908D01*
X148839171Y-68863443D01*
X149122359Y-68763816D01*
X149269273Y-68685289D01*
X149340000Y-68467955D01*
X149340001Y-129340000D01*
X60660000Y-129340000D01*
X60660000Y-124737323D01*
X62333000Y-124737323D01*
X62333000Y-125262677D01*
X62435492Y-125777935D01*
X62636536Y-126263298D01*
X62928406Y-126700113D01*
X63299887Y-127071594D01*
X63736702Y-127363464D01*
X64222065Y-127564508D01*
X64737323Y-127667000D01*
X65262677Y-127667000D01*
X65777935Y-127564508D01*
X66263298Y-127363464D01*
X66700113Y-127071594D01*
X67071594Y-126700113D01*
X67363464Y-126263298D01*
X67564508Y-125777935D01*
X67667000Y-125262677D01*
X67667000Y-124737323D01*
X142333000Y-124737323D01*
X142333000Y-125262677D01*
X142435492Y-125777935D01*
X142636536Y-126263298D01*
X142928406Y-126700113D01*
X143299887Y-127071594D01*
X143736702Y-127363464D01*
X144222065Y-127564508D01*
X144737323Y-127667000D01*
X145262677Y-127667000D01*
X145777935Y-127564508D01*
X146263298Y-127363464D01*
X146700113Y-127071594D01*
X147071594Y-126700113D01*
X147363464Y-126263298D01*
X147564508Y-125777935D01*
X147667000Y-125262677D01*
X147667000Y-124737323D01*
X147564508Y-124222065D01*
X147363464Y-123736702D01*
X147071594Y-123299887D01*
X146700113Y-122928406D01*
X146263298Y-122636536D01*
X145777935Y-122435492D01*
X145262677Y-122333000D01*
X144737323Y-122333000D01*
X144222065Y-122435492D01*
X143736702Y-122636536D01*
X143299887Y-122928406D01*
X142928406Y-123299887D01*
X142636536Y-123736702D01*
X142435492Y-124222065D01*
X142333000Y-124737323D01*
X67667000Y-124737323D01*
X67564508Y-124222065D01*
X67363464Y-123736702D01*
X67071594Y-123299887D01*
X66700113Y-122928406D01*
X66263298Y-122636536D01*
X65777935Y-122435492D01*
X65262677Y-122333000D01*
X64737323Y-122333000D01*
X64222065Y-122435492D01*
X63736702Y-122636536D01*
X63299887Y-122928406D01*
X62928406Y-123299887D01*
X62636536Y-123736702D01*
X62435492Y-124222065D01*
X62333000Y-124737323D01*
X60660000Y-124737323D01*
X60660000Y-120550000D01*
X74811928Y-120550000D01*
X74824188Y-120674482D01*
X74860498Y-120794180D01*
X74919463Y-120904494D01*
X74998815Y-121001185D01*
X75095506Y-121080537D01*
X75205820Y-121139502D01*
X75325518Y-121175812D01*
X75450000Y-121188072D01*
X76014250Y-121185000D01*
X76173000Y-121026250D01*
X76173000Y-119827000D01*
X76427000Y-119827000D01*
X76427000Y-121026250D01*
X76585750Y-121185000D01*
X77150000Y-121188072D01*
X77274482Y-121175812D01*
X77394180Y-121139502D01*
X77504494Y-121080537D01*
X77601185Y-121001185D01*
X77680537Y-120904494D01*
X77739502Y-120794180D01*
X77775812Y-120674482D01*
X77788072Y-120550000D01*
X86611928Y-120550000D01*
X86624188Y-120674482D01*
X86660498Y-120794180D01*
X86719463Y-120904494D01*
X86798815Y-121001185D01*
X86895506Y-121080537D01*
X87005820Y-121139502D01*
X87125518Y-121175812D01*
X87250000Y-121188072D01*
X87814250Y-121185000D01*
X87973000Y-121026250D01*
X87973000Y-119827000D01*
X88227000Y-119827000D01*
X88227000Y-121026250D01*
X88385750Y-121185000D01*
X88950000Y-121188072D01*
X89074482Y-121175812D01*
X89194180Y-121139502D01*
X89304494Y-121080537D01*
X89401185Y-121001185D01*
X89480537Y-120904494D01*
X89539502Y-120794180D01*
X89575812Y-120674482D01*
X89588072Y-120550000D01*
X89585000Y-119985750D01*
X89426250Y-119827000D01*
X88227000Y-119827000D01*
X87973000Y-119827000D01*
X86773750Y-119827000D01*
X86615000Y-119985750D01*
X86611928Y-120550000D01*
X77788072Y-120550000D01*
X77785000Y-119985750D01*
X77626250Y-119827000D01*
X76427000Y-119827000D01*
X76173000Y-119827000D01*
X74973750Y-119827000D01*
X74815000Y-119985750D01*
X74811928Y-120550000D01*
X60660000Y-120550000D01*
X60660000Y-117160000D01*
X74807815Y-117160000D01*
X74836487Y-117451111D01*
X74921401Y-117731034D01*
X75059294Y-117989014D01*
X75244866Y-118215134D01*
X75274687Y-118239607D01*
X75205820Y-118260498D01*
X75095506Y-118319463D01*
X74998815Y-118398815D01*
X74919463Y-118495506D01*
X74860498Y-118605820D01*
X74824188Y-118725518D01*
X74811928Y-118850000D01*
X74815000Y-119414250D01*
X74973750Y-119573000D01*
X76173000Y-119573000D01*
X76173000Y-119553000D01*
X76427000Y-119553000D01*
X76427000Y-119573000D01*
X77626250Y-119573000D01*
X77785000Y-119414250D01*
X77788072Y-118850000D01*
X77775812Y-118725518D01*
X77739502Y-118605820D01*
X77680537Y-118495506D01*
X77601185Y-118398815D01*
X77504494Y-118319463D01*
X77394180Y-118260498D01*
X77325313Y-118239607D01*
X77355134Y-118215134D01*
X77540706Y-117989014D01*
X77678599Y-117731034D01*
X77763513Y-117451111D01*
X77792185Y-117160000D01*
X86607815Y-117160000D01*
X86636487Y-117451111D01*
X86721401Y-117731034D01*
X86859294Y-117989014D01*
X87044866Y-118215134D01*
X87074687Y-118239607D01*
X87005820Y-118260498D01*
X86895506Y-118319463D01*
X86798815Y-118398815D01*
X86719463Y-118495506D01*
X86660498Y-118605820D01*
X86624188Y-118725518D01*
X86611928Y-118850000D01*
X86615000Y-119414250D01*
X86773750Y-119573000D01*
X87973000Y-119573000D01*
X87973000Y-119553000D01*
X88227000Y-119553000D01*
X88227000Y-119573000D01*
X89426250Y-119573000D01*
X89585000Y-119414250D01*
X89588072Y-118850000D01*
X89575812Y-118725518D01*
X89539502Y-118605820D01*
X89480537Y-118495506D01*
X89401185Y-118398815D01*
X89304494Y-118319463D01*
X89194180Y-118260498D01*
X89125313Y-118239607D01*
X89155134Y-118215134D01*
X89340706Y-117989014D01*
X89478599Y-117731034D01*
X89563513Y-117451111D01*
X89592185Y-117160000D01*
X89563513Y-116868889D01*
X89478599Y-116588966D01*
X89340706Y-116330986D01*
X89155134Y-116104866D01*
X88929014Y-115919294D01*
X88671034Y-115781401D01*
X88391111Y-115696487D01*
X88172950Y-115675000D01*
X88027050Y-115675000D01*
X87808889Y-115696487D01*
X87528966Y-115781401D01*
X87270986Y-115919294D01*
X87044866Y-116104866D01*
X86859294Y-116330986D01*
X86721401Y-116588966D01*
X86636487Y-116868889D01*
X86607815Y-117160000D01*
X77792185Y-117160000D01*
X77763513Y-116868889D01*
X77678599Y-116588966D01*
X77540706Y-116330986D01*
X77355134Y-116104866D01*
X77129014Y-115919294D01*
X76871034Y-115781401D01*
X76591111Y-115696487D01*
X76372950Y-115675000D01*
X76227050Y-115675000D01*
X76008889Y-115696487D01*
X75728966Y-115781401D01*
X75470986Y-115919294D01*
X75244866Y-116104866D01*
X75059294Y-116330986D01*
X74921401Y-116588966D01*
X74836487Y-116868889D01*
X74807815Y-117160000D01*
X60660000Y-117160000D01*
X60660000Y-109340000D01*
X74807815Y-109340000D01*
X74836487Y-109631111D01*
X74921401Y-109911034D01*
X75059294Y-110169014D01*
X75244866Y-110395134D01*
X75470986Y-110580706D01*
X75728966Y-110718599D01*
X76008889Y-110803513D01*
X76227050Y-110825000D01*
X76372950Y-110825000D01*
X76591111Y-110803513D01*
X76871034Y-110718599D01*
X77129014Y-110580706D01*
X77355134Y-110395134D01*
X77540706Y-110169014D01*
X77678599Y-109911034D01*
X77763513Y-109631111D01*
X77792185Y-109340000D01*
X77763513Y-109048889D01*
X77678599Y-108768966D01*
X77540706Y-108510986D01*
X77355134Y-108284866D01*
X77325313Y-108260393D01*
X77394180Y-108239502D01*
X77504494Y-108180537D01*
X77601185Y-108101185D01*
X77680537Y-108004494D01*
X77739502Y-107894180D01*
X77775812Y-107774482D01*
X77788072Y-107650000D01*
X77785000Y-107085750D01*
X77626250Y-106927000D01*
X76427000Y-106927000D01*
X76427000Y-106947000D01*
X76173000Y-106947000D01*
X76173000Y-106927000D01*
X74973750Y-106927000D01*
X74815000Y-107085750D01*
X74811928Y-107650000D01*
X74824188Y-107774482D01*
X74860498Y-107894180D01*
X74919463Y-108004494D01*
X74998815Y-108101185D01*
X75095506Y-108180537D01*
X75205820Y-108239502D01*
X75274687Y-108260393D01*
X75244866Y-108284866D01*
X75059294Y-108510986D01*
X74921401Y-108768966D01*
X74836487Y-109048889D01*
X74807815Y-109340000D01*
X60660000Y-109340000D01*
X60660000Y-105950000D01*
X74811928Y-105950000D01*
X74815000Y-106514250D01*
X74973750Y-106673000D01*
X76173000Y-106673000D01*
X76173000Y-105473750D01*
X76427000Y-105473750D01*
X76427000Y-106673000D01*
X77626250Y-106673000D01*
X77785000Y-106514250D01*
X77788072Y-105950000D01*
X77775812Y-105825518D01*
X77739502Y-105705820D01*
X77724759Y-105678237D01*
X77849998Y-105653326D01*
X78038356Y-105575305D01*
X78207874Y-105462037D01*
X78352037Y-105317874D01*
X78465305Y-105148356D01*
X78543326Y-104959998D01*
X78583100Y-104760039D01*
X78583100Y-104556161D01*
X78543326Y-104356202D01*
X78465305Y-104167844D01*
X78352037Y-103998326D01*
X78308100Y-103954389D01*
X78308100Y-103812701D01*
X81282800Y-100838001D01*
X81282801Y-112898788D01*
X81238863Y-112942726D01*
X81125595Y-113112244D01*
X81047574Y-113300602D01*
X81007800Y-113500561D01*
X81007800Y-113704439D01*
X81047574Y-113904398D01*
X81125595Y-114092756D01*
X81238863Y-114262274D01*
X81383026Y-114406437D01*
X81552544Y-114519705D01*
X81740902Y-114597726D01*
X81940861Y-114637500D01*
X82144739Y-114637500D01*
X82344698Y-114597726D01*
X82533056Y-114519705D01*
X82702574Y-114406437D01*
X82846737Y-114262274D01*
X82960005Y-114092756D01*
X83038026Y-113904398D01*
X83077800Y-113704439D01*
X83077800Y-113500561D01*
X83038026Y-113300602D01*
X82960005Y-113112244D01*
X82846737Y-112942726D01*
X82802800Y-112898789D01*
X82802800Y-109300000D01*
X86607815Y-109300000D01*
X86636487Y-109591111D01*
X86721401Y-109871034D01*
X86859294Y-110129014D01*
X87044866Y-110355134D01*
X87270986Y-110540706D01*
X87528966Y-110678599D01*
X87808889Y-110763513D01*
X88027050Y-110785000D01*
X88172950Y-110785000D01*
X88391111Y-110763513D01*
X88671034Y-110678599D01*
X88929014Y-110540706D01*
X89155134Y-110355134D01*
X89340706Y-110129014D01*
X89478599Y-109871034D01*
X89563513Y-109591111D01*
X89592185Y-109300000D01*
X89563513Y-109008889D01*
X89478599Y-108728966D01*
X89340706Y-108470986D01*
X89155134Y-108244866D01*
X89125313Y-108220393D01*
X89194180Y-108199502D01*
X89304494Y-108140537D01*
X89401185Y-108061185D01*
X89480537Y-107964494D01*
X89539502Y-107854180D01*
X89575812Y-107734482D01*
X89588072Y-107610000D01*
X89585000Y-107045750D01*
X89507311Y-106968061D01*
X92535000Y-106968061D01*
X92535000Y-107171939D01*
X92574774Y-107371898D01*
X92652795Y-107560256D01*
X92766063Y-107729774D01*
X92810001Y-107773712D01*
X92810000Y-109966289D01*
X92766063Y-110010226D01*
X92652795Y-110179744D01*
X92574774Y-110368102D01*
X92535000Y-110568061D01*
X92535000Y-110771939D01*
X92574774Y-110971898D01*
X92652795Y-111160256D01*
X92766063Y-111329774D01*
X92910226Y-111473937D01*
X93079744Y-111587205D01*
X93268102Y-111665226D01*
X93468061Y-111705000D01*
X93671939Y-111705000D01*
X93871898Y-111665226D01*
X94060256Y-111587205D01*
X94229774Y-111473937D01*
X94373937Y-111329774D01*
X94487205Y-111160256D01*
X94565226Y-110971898D01*
X94605000Y-110771939D01*
X94605000Y-110568061D01*
X94565226Y-110368102D01*
X94487205Y-110179744D01*
X94373937Y-110010226D01*
X94330000Y-109966289D01*
X94330000Y-107773711D01*
X94373937Y-107729774D01*
X94487205Y-107560256D01*
X94565226Y-107371898D01*
X94605000Y-107171939D01*
X94605000Y-106968061D01*
X94565226Y-106768102D01*
X94487205Y-106579744D01*
X94373937Y-106410226D01*
X94229774Y-106266063D01*
X94060256Y-106152795D01*
X93871898Y-106074774D01*
X93671939Y-106035000D01*
X93468061Y-106035000D01*
X93268102Y-106074774D01*
X93079744Y-106152795D01*
X92910226Y-106266063D01*
X92766063Y-106410226D01*
X92652795Y-106579744D01*
X92574774Y-106768102D01*
X92535000Y-106968061D01*
X89507311Y-106968061D01*
X89426250Y-106887000D01*
X88227000Y-106887000D01*
X88227000Y-106907000D01*
X87973000Y-106907000D01*
X87973000Y-106887000D01*
X86773750Y-106887000D01*
X86615000Y-107045750D01*
X86611928Y-107610000D01*
X86624188Y-107734482D01*
X86660498Y-107854180D01*
X86719463Y-107964494D01*
X86798815Y-108061185D01*
X86895506Y-108140537D01*
X87005820Y-108199502D01*
X87074687Y-108220393D01*
X87044866Y-108244866D01*
X86859294Y-108470986D01*
X86721401Y-108728966D01*
X86636487Y-109008889D01*
X86607815Y-109300000D01*
X82802800Y-109300000D01*
X82802800Y-105910000D01*
X86611928Y-105910000D01*
X86615000Y-106474250D01*
X86773750Y-106633000D01*
X87973000Y-106633000D01*
X87973000Y-105433750D01*
X88227000Y-105433750D01*
X88227000Y-106633000D01*
X89426250Y-106633000D01*
X89585000Y-106474250D01*
X89588072Y-105910000D01*
X89575812Y-105785518D01*
X89539502Y-105665820D01*
X89480537Y-105555506D01*
X89401185Y-105458815D01*
X89304494Y-105379463D01*
X89194180Y-105320498D01*
X89074482Y-105284188D01*
X88950000Y-105271928D01*
X88385750Y-105275000D01*
X88227000Y-105433750D01*
X87973000Y-105433750D01*
X87814250Y-105275000D01*
X87250000Y-105271928D01*
X87125518Y-105284188D01*
X87005820Y-105320498D01*
X86895506Y-105379463D01*
X86798815Y-105458815D01*
X86719463Y-105555506D01*
X86660498Y-105665820D01*
X86624188Y-105785518D01*
X86611928Y-105910000D01*
X82802800Y-105910000D01*
X82802800Y-101250000D01*
X86211928Y-101250000D01*
X86224188Y-101374482D01*
X86260498Y-101494180D01*
X86319463Y-101604494D01*
X86398815Y-101701185D01*
X86495506Y-101780537D01*
X86605820Y-101839502D01*
X86725518Y-101875812D01*
X86850000Y-101888072D01*
X87414250Y-101885000D01*
X87573000Y-101726250D01*
X87573000Y-100527000D01*
X87827000Y-100527000D01*
X87827000Y-101726250D01*
X87985750Y-101885000D01*
X88550000Y-101888072D01*
X88674482Y-101875812D01*
X88794180Y-101839502D01*
X88904494Y-101780537D01*
X89001185Y-101701185D01*
X89080537Y-101604494D01*
X89139502Y-101494180D01*
X89175812Y-101374482D01*
X89188072Y-101250000D01*
X89185000Y-100685750D01*
X89026250Y-100527000D01*
X87827000Y-100527000D01*
X87573000Y-100527000D01*
X86373750Y-100527000D01*
X86215000Y-100685750D01*
X86211928Y-101250000D01*
X82802800Y-101250000D01*
X82802800Y-100533701D01*
X85476501Y-97860000D01*
X86207815Y-97860000D01*
X86236487Y-98151111D01*
X86321401Y-98431034D01*
X86459294Y-98689014D01*
X86644866Y-98915134D01*
X86674687Y-98939607D01*
X86605820Y-98960498D01*
X86495506Y-99019463D01*
X86398815Y-99098815D01*
X86319463Y-99195506D01*
X86260498Y-99305820D01*
X86224188Y-99425518D01*
X86211928Y-99550000D01*
X86215000Y-100114250D01*
X86373750Y-100273000D01*
X87573000Y-100273000D01*
X87573000Y-100253000D01*
X87827000Y-100253000D01*
X87827000Y-100273000D01*
X89026250Y-100273000D01*
X89185000Y-100114250D01*
X89188072Y-99550000D01*
X89175812Y-99425518D01*
X89139502Y-99305820D01*
X89080537Y-99195506D01*
X89001185Y-99098815D01*
X88904494Y-99019463D01*
X88794180Y-98960498D01*
X88725313Y-98939607D01*
X88755134Y-98915134D01*
X88940706Y-98689014D01*
X89078599Y-98431034D01*
X89163513Y-98151111D01*
X89192185Y-97860000D01*
X89163513Y-97568889D01*
X89078599Y-97288966D01*
X88940706Y-97030986D01*
X88755134Y-96804866D01*
X88529014Y-96619294D01*
X88271034Y-96481401D01*
X87991111Y-96396487D01*
X87772950Y-96375000D01*
X87627050Y-96375000D01*
X87408889Y-96396487D01*
X87128966Y-96481401D01*
X86870986Y-96619294D01*
X86644866Y-96804866D01*
X86459294Y-97030986D01*
X86321401Y-97288966D01*
X86236487Y-97568889D01*
X86207815Y-97860000D01*
X85476501Y-97860000D01*
X89704903Y-93631599D01*
X89733901Y-93607801D01*
X89828874Y-93492076D01*
X89899446Y-93360047D01*
X89942903Y-93216786D01*
X89953900Y-93105133D01*
X89957577Y-93067800D01*
X89953900Y-93030467D01*
X89953900Y-84328701D01*
X91597390Y-82685212D01*
X91700063Y-82838874D01*
X91744001Y-82882812D01*
X91744000Y-101776678D01*
X91740324Y-101814000D01*
X91744000Y-101851322D01*
X91744000Y-101851332D01*
X91754997Y-101962985D01*
X91795990Y-102098124D01*
X91798454Y-102106246D01*
X91869026Y-102238276D01*
X91903140Y-102279844D01*
X91963999Y-102354001D01*
X91993002Y-102377804D01*
X93024438Y-103409240D01*
X93093999Y-103494001D01*
X93123003Y-103517804D01*
X102799300Y-113194102D01*
X102799301Y-115406288D01*
X102755363Y-115450226D01*
X102642095Y-115619744D01*
X102564074Y-115808102D01*
X102524300Y-116008061D01*
X102524300Y-116211939D01*
X102564074Y-116411898D01*
X102642095Y-116600256D01*
X102755363Y-116769774D01*
X102899526Y-116913937D01*
X103069044Y-117027205D01*
X103090559Y-117036117D01*
X102942026Y-117135363D01*
X102797863Y-117279526D01*
X102684595Y-117449044D01*
X102606574Y-117637402D01*
X102566800Y-117837361D01*
X102566800Y-118041239D01*
X102606574Y-118241198D01*
X102684595Y-118429556D01*
X102797863Y-118599074D01*
X102942026Y-118743237D01*
X103111544Y-118856505D01*
X103299902Y-118934526D01*
X103499861Y-118974300D01*
X103703739Y-118974300D01*
X103903698Y-118934526D01*
X104092056Y-118856505D01*
X104261574Y-118743237D01*
X104405737Y-118599074D01*
X104519005Y-118429556D01*
X104597026Y-118241198D01*
X104636800Y-118041239D01*
X104636800Y-117979102D01*
X104893802Y-117722099D01*
X104922801Y-117698301D01*
X105017774Y-117582576D01*
X105088346Y-117450547D01*
X105131803Y-117307286D01*
X105142800Y-117195633D01*
X105142800Y-117195625D01*
X105146476Y-117158300D01*
X105142800Y-117120975D01*
X105142800Y-117090000D01*
X118611928Y-117090000D01*
X118624188Y-117214482D01*
X118660498Y-117334180D01*
X118719463Y-117444494D01*
X118798815Y-117541185D01*
X118895506Y-117620537D01*
X119005820Y-117679502D01*
X119125518Y-117715812D01*
X119250000Y-117728072D01*
X119814250Y-117725000D01*
X119973000Y-117566250D01*
X119973000Y-116367000D01*
X120227000Y-116367000D01*
X120227000Y-117566250D01*
X120385750Y-117725000D01*
X120950000Y-117728072D01*
X121074482Y-117715812D01*
X121194180Y-117679502D01*
X121304494Y-117620537D01*
X121401185Y-117541185D01*
X121480537Y-117444494D01*
X121539502Y-117334180D01*
X121575812Y-117214482D01*
X121588072Y-117090000D01*
X121585000Y-116525750D01*
X121426250Y-116367000D01*
X120227000Y-116367000D01*
X119973000Y-116367000D01*
X118773750Y-116367000D01*
X118615000Y-116525750D01*
X118611928Y-117090000D01*
X105142800Y-117090000D01*
X105142800Y-113700000D01*
X118607815Y-113700000D01*
X118636487Y-113991111D01*
X118721401Y-114271034D01*
X118859294Y-114529014D01*
X119044866Y-114755134D01*
X119074687Y-114779607D01*
X119005820Y-114800498D01*
X118895506Y-114859463D01*
X118798815Y-114938815D01*
X118719463Y-115035506D01*
X118660498Y-115145820D01*
X118624188Y-115265518D01*
X118611928Y-115390000D01*
X118615000Y-115954250D01*
X118773750Y-116113000D01*
X119973000Y-116113000D01*
X119973000Y-116093000D01*
X120227000Y-116093000D01*
X120227000Y-116113000D01*
X121426250Y-116113000D01*
X121585000Y-115954250D01*
X121588072Y-115390000D01*
X121575812Y-115265518D01*
X121539502Y-115145820D01*
X121480537Y-115035506D01*
X121401185Y-114938815D01*
X121304494Y-114859463D01*
X121194180Y-114800498D01*
X121125313Y-114779607D01*
X121155134Y-114755134D01*
X121340706Y-114529014D01*
X121478599Y-114271034D01*
X121563513Y-113991111D01*
X121592185Y-113700000D01*
X121563513Y-113408889D01*
X121478599Y-113128966D01*
X121340706Y-112870986D01*
X121155134Y-112644866D01*
X120929014Y-112459294D01*
X120671034Y-112321401D01*
X120391111Y-112236487D01*
X120172950Y-112215000D01*
X120027050Y-112215000D01*
X119808889Y-112236487D01*
X119528966Y-112321401D01*
X119270986Y-112459294D01*
X119044866Y-112644866D01*
X118859294Y-112870986D01*
X118721401Y-113128966D01*
X118636487Y-113408889D01*
X118607815Y-113700000D01*
X105142800Y-113700000D01*
X105142800Y-109225501D01*
X106121600Y-108246702D01*
X106121600Y-108401539D01*
X106161374Y-108601498D01*
X106239395Y-108789856D01*
X106352663Y-108959374D01*
X106496826Y-109103537D01*
X106666344Y-109216805D01*
X106854702Y-109294826D01*
X107054661Y-109334600D01*
X107258539Y-109334600D01*
X107458498Y-109294826D01*
X107646856Y-109216805D01*
X107816374Y-109103537D01*
X107860311Y-109059600D01*
X114106767Y-109059600D01*
X114144100Y-109063277D01*
X114181433Y-109059600D01*
X118136689Y-109059600D01*
X118056063Y-109140226D01*
X117942795Y-109309744D01*
X117864774Y-109498102D01*
X117825000Y-109698061D01*
X117825000Y-109901939D01*
X117864774Y-110101898D01*
X117942795Y-110290256D01*
X118056063Y-110459774D01*
X118200226Y-110603937D01*
X118369744Y-110717205D01*
X118558102Y-110795226D01*
X118758061Y-110835000D01*
X118961939Y-110835000D01*
X119161898Y-110795226D01*
X119350256Y-110717205D01*
X119465440Y-110640242D01*
X119975000Y-111149802D01*
X119975000Y-111211939D01*
X120014774Y-111411898D01*
X120092795Y-111600256D01*
X120206063Y-111769774D01*
X120350226Y-111913937D01*
X120519744Y-112027205D01*
X120708102Y-112105226D01*
X120908061Y-112145000D01*
X121111939Y-112145000D01*
X121311898Y-112105226D01*
X121500256Y-112027205D01*
X121669774Y-111913937D01*
X121813937Y-111769774D01*
X121927205Y-111600256D01*
X122005226Y-111411898D01*
X122045000Y-111211939D01*
X122045000Y-111008061D01*
X122005226Y-110808102D01*
X121927205Y-110619744D01*
X121813937Y-110450226D01*
X121669774Y-110306063D01*
X121500256Y-110192795D01*
X121311898Y-110114774D01*
X121111939Y-110075000D01*
X121049802Y-110075000D01*
X120263804Y-109289003D01*
X120240001Y-109259999D01*
X120124276Y-109165026D01*
X119992247Y-109094454D01*
X119877347Y-109059600D01*
X120737801Y-109059600D01*
X123801403Y-112123203D01*
X123825201Y-112152201D01*
X123940926Y-112247174D01*
X124072955Y-112317746D01*
X124216216Y-112361203D01*
X124327869Y-112372200D01*
X124327879Y-112372200D01*
X124365202Y-112375876D01*
X124402525Y-112372200D01*
X137134289Y-112372200D01*
X137178226Y-112416137D01*
X137347744Y-112529405D01*
X137536102Y-112607426D01*
X137736061Y-112647200D01*
X137939939Y-112647200D01*
X138139898Y-112607426D01*
X138328256Y-112529405D01*
X138497774Y-112416137D01*
X138641937Y-112271974D01*
X138755205Y-112102456D01*
X138833226Y-111914098D01*
X138873000Y-111714139D01*
X138873000Y-111510261D01*
X138833226Y-111310302D01*
X138755205Y-111121944D01*
X138641937Y-110952426D01*
X138598000Y-110908489D01*
X138598000Y-106671301D01*
X139292304Y-105976998D01*
X139321301Y-105953201D01*
X139416274Y-105837476D01*
X139486846Y-105705447D01*
X139530303Y-105562186D01*
X139541300Y-105450533D01*
X139541300Y-105450525D01*
X139544976Y-105413200D01*
X139541300Y-105375875D01*
X139541300Y-99609511D01*
X139585237Y-99565574D01*
X139698505Y-99396056D01*
X139776526Y-99207698D01*
X139816300Y-99007739D01*
X139816300Y-98803861D01*
X139776526Y-98603902D01*
X139698505Y-98415544D01*
X139585237Y-98246026D01*
X139541300Y-98202089D01*
X139541300Y-93214425D01*
X139544976Y-93177100D01*
X139541300Y-93139775D01*
X139541300Y-93139767D01*
X139530303Y-93028114D01*
X139486846Y-92884853D01*
X139416274Y-92752824D01*
X139321301Y-92637099D01*
X139292303Y-92613301D01*
X136893900Y-90214899D01*
X136893900Y-90152761D01*
X136854126Y-89952802D01*
X136776105Y-89764444D01*
X136692498Y-89639317D01*
X136706905Y-89617756D01*
X136784926Y-89429398D01*
X136824700Y-89229439D01*
X136824700Y-89025561D01*
X136784926Y-88825602D01*
X136706905Y-88637244D01*
X136593637Y-88467726D01*
X136449474Y-88323563D01*
X136279956Y-88210295D01*
X136091598Y-88132274D01*
X135891639Y-88092500D01*
X135829502Y-88092500D01*
X129166100Y-81429099D01*
X129166100Y-81366961D01*
X129126326Y-81167002D01*
X129048305Y-80978644D01*
X128935037Y-80809126D01*
X128790874Y-80664963D01*
X128621356Y-80551695D01*
X128432998Y-80473674D01*
X128253958Y-80438061D01*
X134775000Y-80438061D01*
X134775000Y-80641939D01*
X134814774Y-80841898D01*
X134892795Y-81030256D01*
X135006063Y-81199774D01*
X135150226Y-81343937D01*
X135319744Y-81457205D01*
X135508102Y-81535226D01*
X135708061Y-81575000D01*
X135911939Y-81575000D01*
X136111898Y-81535226D01*
X136300256Y-81457205D01*
X136469774Y-81343937D01*
X136613937Y-81199774D01*
X136727205Y-81030256D01*
X136805226Y-80841898D01*
X136834069Y-80696890D01*
X138724524Y-80696890D01*
X138769175Y-80844099D01*
X138894359Y-81106920D01*
X139068412Y-81340269D01*
X139284645Y-81535178D01*
X139534748Y-81684157D01*
X139535846Y-81684546D01*
X139364866Y-81824866D01*
X139179294Y-82050986D01*
X139041401Y-82308966D01*
X138956487Y-82588889D01*
X138927815Y-82880000D01*
X138956487Y-83171111D01*
X139041401Y-83451034D01*
X139179294Y-83709014D01*
X139364866Y-83935134D01*
X139590986Y-84120706D01*
X139848966Y-84258599D01*
X140128889Y-84343513D01*
X140347050Y-84365000D01*
X140492950Y-84365000D01*
X140711111Y-84343513D01*
X140991034Y-84258599D01*
X141249014Y-84120706D01*
X141475134Y-83935134D01*
X141660706Y-83709014D01*
X141690000Y-83654209D01*
X141719294Y-83709014D01*
X141904866Y-83935134D01*
X142130986Y-84120706D01*
X142388966Y-84258599D01*
X142668889Y-84343513D01*
X142887050Y-84365000D01*
X143032950Y-84365000D01*
X143251111Y-84343513D01*
X143531034Y-84258599D01*
X143789014Y-84120706D01*
X144015134Y-83935134D01*
X144200706Y-83709014D01*
X144338599Y-83451034D01*
X144423513Y-83171111D01*
X144452185Y-82880000D01*
X144423513Y-82588889D01*
X144338599Y-82308966D01*
X144200706Y-82050986D01*
X144015134Y-81824866D01*
X143789014Y-81639294D01*
X143589913Y-81532872D01*
X143803588Y-81340269D01*
X143977641Y-81106920D01*
X144102825Y-80844099D01*
X144147476Y-80696890D01*
X144026155Y-80467000D01*
X142833000Y-80467000D01*
X142833000Y-80487000D01*
X142579000Y-80487000D01*
X142579000Y-80467000D01*
X140293000Y-80467000D01*
X140293000Y-80487000D01*
X140039000Y-80487000D01*
X140039000Y-80467000D01*
X138845845Y-80467000D01*
X138724524Y-80696890D01*
X136834069Y-80696890D01*
X136845000Y-80641939D01*
X136845000Y-80438061D01*
X136805226Y-80238102D01*
X136727205Y-80049744D01*
X136682682Y-79983110D01*
X138724524Y-79983110D01*
X138845845Y-80213000D01*
X140039000Y-80213000D01*
X140039000Y-80193000D01*
X140293000Y-80193000D01*
X140293000Y-80213000D01*
X142579000Y-80213000D01*
X142579000Y-80193000D01*
X142833000Y-80193000D01*
X142833000Y-80213000D01*
X144026155Y-80213000D01*
X144147476Y-79983110D01*
X144102825Y-79835901D01*
X143977641Y-79573080D01*
X143803588Y-79339731D01*
X143587926Y-79145337D01*
X143591252Y-79144157D01*
X143841355Y-78995178D01*
X144057588Y-78800269D01*
X144231641Y-78566920D01*
X144356825Y-78304099D01*
X144401476Y-78156890D01*
X144280155Y-77927000D01*
X143087000Y-77927000D01*
X143087000Y-77947000D01*
X142833000Y-77947000D01*
X142833000Y-77927000D01*
X140547000Y-77927000D01*
X140547000Y-77947000D01*
X140293000Y-77947000D01*
X140293000Y-77927000D01*
X139099845Y-77927000D01*
X138978524Y-78156890D01*
X139023175Y-78304099D01*
X139148359Y-78566920D01*
X139322412Y-78800269D01*
X139538074Y-78994663D01*
X139534748Y-78995843D01*
X139284645Y-79144822D01*
X139068412Y-79339731D01*
X138894359Y-79573080D01*
X138769175Y-79835901D01*
X138724524Y-79983110D01*
X136682682Y-79983110D01*
X136613937Y-79880226D01*
X136570000Y-79836289D01*
X136570000Y-79794801D01*
X137079802Y-79285000D01*
X137141939Y-79285000D01*
X137341898Y-79245226D01*
X137530256Y-79167205D01*
X137699774Y-79053937D01*
X137843937Y-78909774D01*
X137957205Y-78740256D01*
X138035226Y-78551898D01*
X138075000Y-78351939D01*
X138075000Y-78148061D01*
X138035226Y-77948102D01*
X137957205Y-77759744D01*
X137843937Y-77590226D01*
X137699774Y-77446063D01*
X137530256Y-77332795D01*
X137341898Y-77254774D01*
X137141939Y-77215000D01*
X136938061Y-77215000D01*
X136738102Y-77254774D01*
X136549744Y-77332795D01*
X136380226Y-77446063D01*
X136236063Y-77590226D01*
X136122795Y-77759744D01*
X136044774Y-77948102D01*
X136005000Y-78148061D01*
X136005000Y-78210198D01*
X135298998Y-78916201D01*
X135270000Y-78939999D01*
X135246202Y-78968997D01*
X135246201Y-78968998D01*
X135175026Y-79055724D01*
X135104454Y-79187754D01*
X135077019Y-79278200D01*
X135060998Y-79331014D01*
X135052558Y-79416702D01*
X135046324Y-79480000D01*
X135050001Y-79517332D01*
X135050001Y-79836288D01*
X135006063Y-79880226D01*
X134892795Y-80049744D01*
X134814774Y-80238102D01*
X134775000Y-80438061D01*
X128253958Y-80438061D01*
X128233039Y-80433900D01*
X128029161Y-80433900D01*
X127829202Y-80473674D01*
X127640844Y-80551695D01*
X127471326Y-80664963D01*
X127327163Y-80809126D01*
X127213895Y-80978644D01*
X127135874Y-81167002D01*
X127096100Y-81366961D01*
X127096100Y-81570839D01*
X127135874Y-81770798D01*
X127213895Y-81959156D01*
X127327163Y-82128674D01*
X127471326Y-82272837D01*
X127640844Y-82386105D01*
X127829202Y-82464126D01*
X128029161Y-82503900D01*
X128091299Y-82503900D01*
X134754700Y-89167302D01*
X134754700Y-89229439D01*
X134794474Y-89429398D01*
X134872495Y-89617756D01*
X134956102Y-89742883D01*
X134941695Y-89764444D01*
X134863674Y-89952802D01*
X134823900Y-90152761D01*
X134823900Y-90356639D01*
X134863674Y-90556598D01*
X134941695Y-90744956D01*
X135054963Y-90914474D01*
X135199126Y-91058637D01*
X135368644Y-91171905D01*
X135557002Y-91249926D01*
X135756961Y-91289700D01*
X135819099Y-91289700D01*
X138021301Y-93491903D01*
X138021300Y-98202089D01*
X137977363Y-98246026D01*
X137864095Y-98415544D01*
X137786074Y-98603902D01*
X137746300Y-98803861D01*
X137746300Y-99007739D01*
X137786074Y-99207698D01*
X137864095Y-99396056D01*
X137977363Y-99565574D01*
X138021301Y-99609512D01*
X138021300Y-105098398D01*
X137326998Y-105792701D01*
X137298000Y-105816499D01*
X137274202Y-105845497D01*
X137274201Y-105845498D01*
X137203026Y-105932224D01*
X137132454Y-106064254D01*
X137102743Y-106162203D01*
X137088998Y-106207514D01*
X137079266Y-106306323D01*
X137074324Y-106356500D01*
X137078001Y-106393832D01*
X137078000Y-110852200D01*
X124680004Y-110852200D01*
X121616406Y-107788603D01*
X121592603Y-107759599D01*
X121476878Y-107664626D01*
X121344849Y-107594054D01*
X121201588Y-107550597D01*
X121089935Y-107539600D01*
X121089924Y-107539600D01*
X121052602Y-107535924D01*
X121015280Y-107539600D01*
X114904100Y-107539600D01*
X114904100Y-107179011D01*
X114948037Y-107135074D01*
X115061305Y-106965556D01*
X115139326Y-106777198D01*
X115179100Y-106577239D01*
X115179100Y-106507900D01*
X125108389Y-106507900D01*
X125046063Y-106570226D01*
X124932795Y-106739744D01*
X124854774Y-106928102D01*
X124815000Y-107128061D01*
X124815000Y-107331939D01*
X124854774Y-107531898D01*
X124932795Y-107720256D01*
X125046063Y-107889774D01*
X125190226Y-108033937D01*
X125359744Y-108147205D01*
X125548102Y-108225226D01*
X125748061Y-108265000D01*
X125951939Y-108265000D01*
X126151898Y-108225226D01*
X126340256Y-108147205D01*
X126509774Y-108033937D01*
X126653937Y-107889774D01*
X126767205Y-107720256D01*
X126845226Y-107531898D01*
X126885000Y-107331939D01*
X126885000Y-107128061D01*
X126845226Y-106928102D01*
X126767205Y-106739744D01*
X126653937Y-106570226D01*
X126591611Y-106507900D01*
X133208389Y-106507900D01*
X133252326Y-106551837D01*
X133421844Y-106665105D01*
X133610202Y-106743126D01*
X133810161Y-106782900D01*
X134014039Y-106782900D01*
X134213998Y-106743126D01*
X134402356Y-106665105D01*
X134571874Y-106551837D01*
X134655584Y-106468127D01*
X134663674Y-106508798D01*
X134741695Y-106697156D01*
X134854963Y-106866674D01*
X134999126Y-107010837D01*
X135168644Y-107124105D01*
X135357002Y-107202126D01*
X135556961Y-107241900D01*
X135760839Y-107241900D01*
X135960798Y-107202126D01*
X136149156Y-107124105D01*
X136318674Y-107010837D01*
X136462837Y-106866674D01*
X136576105Y-106697156D01*
X136654126Y-106508798D01*
X136693900Y-106308839D01*
X136693900Y-106246702D01*
X136993704Y-105946898D01*
X137022701Y-105923101D01*
X137082826Y-105849839D01*
X137117674Y-105807377D01*
X137188246Y-105675347D01*
X137188246Y-105675346D01*
X137231703Y-105532086D01*
X137242700Y-105420433D01*
X137242700Y-105420424D01*
X137246376Y-105383101D01*
X137242700Y-105345778D01*
X137242700Y-97318222D01*
X137246376Y-97280899D01*
X137242700Y-97243576D01*
X137242700Y-97243567D01*
X137231703Y-97131914D01*
X137188246Y-96988653D01*
X137169550Y-96953676D01*
X137117674Y-96856623D01*
X137046499Y-96769897D01*
X137022701Y-96740899D01*
X136993703Y-96717101D01*
X124795900Y-84519299D01*
X124795900Y-84457161D01*
X124756126Y-84257202D01*
X124678105Y-84068844D01*
X124564837Y-83899326D01*
X124420674Y-83755163D01*
X124251156Y-83641895D01*
X124062798Y-83563874D01*
X123862839Y-83524100D01*
X123658961Y-83524100D01*
X123459002Y-83563874D01*
X123270644Y-83641895D01*
X123206681Y-83684634D01*
X123170255Y-83596694D01*
X123056987Y-83427176D01*
X122912824Y-83283013D01*
X122743306Y-83169745D01*
X122554948Y-83091724D01*
X122354989Y-83051950D01*
X122151111Y-83051950D01*
X121951152Y-83091724D01*
X121762794Y-83169745D01*
X121593276Y-83283013D01*
X121449113Y-83427176D01*
X121335845Y-83596694D01*
X121257824Y-83785052D01*
X121218050Y-83985011D01*
X121218050Y-84188889D01*
X121257824Y-84388848D01*
X121335845Y-84577206D01*
X121449113Y-84746724D01*
X121593276Y-84890887D01*
X121762794Y-85004155D01*
X121951152Y-85082176D01*
X122151111Y-85121950D01*
X122213249Y-85121950D01*
X125381432Y-88290133D01*
X125358102Y-88294774D01*
X125169744Y-88372795D01*
X125000226Y-88486063D01*
X124856063Y-88630226D01*
X124742795Y-88799744D01*
X124664774Y-88988102D01*
X124625000Y-89188061D01*
X124625000Y-89391939D01*
X124664774Y-89591898D01*
X124742795Y-89780256D01*
X124856063Y-89949774D01*
X125000226Y-90093937D01*
X125169744Y-90207205D01*
X125358102Y-90285226D01*
X125558061Y-90325000D01*
X125620199Y-90325000D01*
X126720000Y-91424802D01*
X126720001Y-93576288D01*
X126676063Y-93620226D01*
X126562795Y-93789744D01*
X126484774Y-93978102D01*
X126445000Y-94178061D01*
X126445000Y-94240198D01*
X125058998Y-95626201D01*
X125030000Y-95649999D01*
X125006202Y-95678997D01*
X125006201Y-95678998D01*
X124935026Y-95765724D01*
X124864454Y-95897754D01*
X124843957Y-95965326D01*
X124820998Y-96041014D01*
X124811345Y-96139023D01*
X124806324Y-96190000D01*
X124810001Y-96227332D01*
X124810000Y-97116289D01*
X124766063Y-97160226D01*
X124652795Y-97329744D01*
X124574774Y-97518102D01*
X124535000Y-97718061D01*
X124535000Y-97921939D01*
X124574774Y-98121898D01*
X124652795Y-98310256D01*
X124766063Y-98479774D01*
X124770001Y-98483712D01*
X124770000Y-99226289D01*
X124726063Y-99270226D01*
X124612795Y-99439744D01*
X124534774Y-99628102D01*
X124495000Y-99828061D01*
X124495000Y-100031939D01*
X124534774Y-100231898D01*
X124612795Y-100420256D01*
X124726063Y-100589774D01*
X124870226Y-100733937D01*
X125039744Y-100847205D01*
X125228102Y-100925226D01*
X125428061Y-100965000D01*
X125488275Y-100965000D01*
X125564707Y-101027726D01*
X125585724Y-101044974D01*
X125717753Y-101115546D01*
X125861014Y-101159003D01*
X126010000Y-101173677D01*
X126047333Y-101170000D01*
X128636289Y-101170000D01*
X128680226Y-101213937D01*
X128849744Y-101327205D01*
X129038102Y-101405226D01*
X129238061Y-101445000D01*
X129441939Y-101445000D01*
X129641898Y-101405226D01*
X129830256Y-101327205D01*
X129999774Y-101213937D01*
X130143937Y-101069774D01*
X130257205Y-100900256D01*
X130335226Y-100711898D01*
X130375000Y-100511939D01*
X130375000Y-100308061D01*
X130335226Y-100108102D01*
X130257205Y-99919744D01*
X130143937Y-99750226D01*
X129999774Y-99606063D01*
X129830256Y-99492795D01*
X129641898Y-99414774D01*
X129441939Y-99375000D01*
X129238061Y-99375000D01*
X129038102Y-99414774D01*
X128849744Y-99492795D01*
X128680226Y-99606063D01*
X128636289Y-99650000D01*
X126529582Y-99650000D01*
X126525226Y-99628102D01*
X126447205Y-99439744D01*
X126333937Y-99270226D01*
X126290000Y-99226289D01*
X126290000Y-98563711D01*
X126373937Y-98479774D01*
X126487205Y-98310256D01*
X126565226Y-98121898D01*
X126605000Y-97921939D01*
X126605000Y-97718061D01*
X126565226Y-97518102D01*
X126487205Y-97329744D01*
X126373937Y-97160226D01*
X126330000Y-97116289D01*
X126330000Y-96504801D01*
X127519802Y-95315000D01*
X127581939Y-95315000D01*
X127781898Y-95275226D01*
X127970256Y-95197205D01*
X128139774Y-95083937D01*
X128283937Y-94939774D01*
X128397205Y-94770256D01*
X128475226Y-94581898D01*
X128515000Y-94381939D01*
X128515000Y-94178061D01*
X128475226Y-93978102D01*
X128397205Y-93789744D01*
X128283937Y-93620226D01*
X128240000Y-93576289D01*
X128240000Y-91148701D01*
X134716400Y-97625102D01*
X134716400Y-97687239D01*
X134756174Y-97887198D01*
X134834195Y-98075556D01*
X134947463Y-98245074D01*
X135091626Y-98389237D01*
X135261144Y-98502505D01*
X135449502Y-98580526D01*
X135649461Y-98620300D01*
X135722701Y-98620300D01*
X135722700Y-105068298D01*
X135619098Y-105171900D01*
X135556961Y-105171900D01*
X135357002Y-105211674D01*
X135168644Y-105289695D01*
X134999126Y-105402963D01*
X134915416Y-105486673D01*
X134907326Y-105446002D01*
X134829305Y-105257644D01*
X134716037Y-105088126D01*
X134571874Y-104943963D01*
X134402356Y-104830695D01*
X134213998Y-104752674D01*
X134014039Y-104712900D01*
X133810161Y-104712900D01*
X133610202Y-104752674D01*
X133421844Y-104830695D01*
X133252326Y-104943963D01*
X133208389Y-104987900D01*
X106448400Y-104987900D01*
X106448400Y-104519233D01*
X106452077Y-104481900D01*
X106437403Y-104332914D01*
X106393946Y-104189653D01*
X106323374Y-104057624D01*
X106252199Y-103970897D01*
X106228401Y-103941899D01*
X106199404Y-103918102D01*
X105716100Y-103434799D01*
X105716100Y-103057401D01*
X105778799Y-102994702D01*
X105794174Y-103071998D01*
X105872195Y-103260356D01*
X105985463Y-103429874D01*
X106129626Y-103574037D01*
X106299144Y-103687305D01*
X106487502Y-103765326D01*
X106687461Y-103805100D01*
X106891339Y-103805100D01*
X107091298Y-103765326D01*
X107279656Y-103687305D01*
X107449174Y-103574037D01*
X107593337Y-103429874D01*
X107706605Y-103260356D01*
X107782114Y-103078061D01*
X112245000Y-103078061D01*
X112245000Y-103281939D01*
X112284774Y-103481898D01*
X112362795Y-103670256D01*
X112476063Y-103839774D01*
X112620226Y-103983937D01*
X112789744Y-104097205D01*
X112978102Y-104175226D01*
X113178061Y-104215000D01*
X113381939Y-104215000D01*
X113581898Y-104175226D01*
X113770256Y-104097205D01*
X113939774Y-103983937D01*
X113983711Y-103940000D01*
X125724745Y-103940000D01*
X125838644Y-104016105D01*
X126027002Y-104094126D01*
X126226961Y-104133900D01*
X126430839Y-104133900D01*
X126630798Y-104094126D01*
X126819156Y-104016105D01*
X126988674Y-103902837D01*
X127132837Y-103758674D01*
X127246105Y-103589156D01*
X127324126Y-103400798D01*
X127363900Y-103200839D01*
X127363900Y-102996961D01*
X127324126Y-102797002D01*
X127246105Y-102608644D01*
X127132837Y-102439126D01*
X126988674Y-102294963D01*
X126819156Y-102181695D01*
X126630798Y-102103674D01*
X126430839Y-102063900D01*
X126226961Y-102063900D01*
X126027002Y-102103674D01*
X125838644Y-102181695D01*
X125669126Y-102294963D01*
X125544089Y-102420000D01*
X113983711Y-102420000D01*
X113939774Y-102376063D01*
X113770256Y-102262795D01*
X113581898Y-102184774D01*
X113381939Y-102145000D01*
X113178061Y-102145000D01*
X112978102Y-102184774D01*
X112789744Y-102262795D01*
X112620226Y-102376063D01*
X112476063Y-102520226D01*
X112362795Y-102689744D01*
X112284774Y-102878102D01*
X112245000Y-103078061D01*
X107782114Y-103078061D01*
X107784626Y-103071998D01*
X107824400Y-102872039D01*
X107824400Y-102668161D01*
X107798998Y-102540455D01*
X107800776Y-102522400D01*
X107797100Y-102485075D01*
X107797100Y-102126727D01*
X108114250Y-102125000D01*
X108273000Y-101966250D01*
X108273000Y-100767000D01*
X108527000Y-100767000D01*
X108527000Y-101966250D01*
X108685750Y-102125000D01*
X109250000Y-102128072D01*
X109374482Y-102115812D01*
X109494180Y-102079502D01*
X109604494Y-102020537D01*
X109701185Y-101941185D01*
X109780537Y-101844494D01*
X109839502Y-101734180D01*
X109875812Y-101614482D01*
X109882162Y-101550000D01*
X118611928Y-101550000D01*
X118624188Y-101674482D01*
X118660498Y-101794180D01*
X118719463Y-101904494D01*
X118798815Y-102001185D01*
X118895506Y-102080537D01*
X119005820Y-102139502D01*
X119125518Y-102175812D01*
X119250000Y-102188072D01*
X119814250Y-102185000D01*
X119973000Y-102026250D01*
X119973000Y-100827000D01*
X120227000Y-100827000D01*
X120227000Y-102026250D01*
X120385750Y-102185000D01*
X120950000Y-102188072D01*
X121074482Y-102175812D01*
X121194180Y-102139502D01*
X121304494Y-102080537D01*
X121401185Y-102001185D01*
X121480537Y-101904494D01*
X121539502Y-101794180D01*
X121575812Y-101674482D01*
X121588072Y-101550000D01*
X121585000Y-100985750D01*
X121426250Y-100827000D01*
X120227000Y-100827000D01*
X119973000Y-100827000D01*
X118773750Y-100827000D01*
X118615000Y-100985750D01*
X118611928Y-101550000D01*
X109882162Y-101550000D01*
X109888072Y-101490000D01*
X109885000Y-100925750D01*
X109726250Y-100767000D01*
X108527000Y-100767000D01*
X108273000Y-100767000D01*
X108253000Y-100767000D01*
X108253000Y-100513000D01*
X108273000Y-100513000D01*
X108273000Y-100493000D01*
X108527000Y-100493000D01*
X108527000Y-100513000D01*
X109726250Y-100513000D01*
X109885000Y-100354250D01*
X109888072Y-99790000D01*
X109875812Y-99665518D01*
X109839502Y-99545820D01*
X109780537Y-99435506D01*
X109701185Y-99338815D01*
X109604494Y-99259463D01*
X109494180Y-99200498D01*
X109425313Y-99179607D01*
X109455134Y-99155134D01*
X109640706Y-98929014D01*
X109778599Y-98671034D01*
X109863513Y-98391111D01*
X109886275Y-98160000D01*
X118607815Y-98160000D01*
X118636487Y-98451111D01*
X118721401Y-98731034D01*
X118859294Y-98989014D01*
X119044866Y-99215134D01*
X119074687Y-99239607D01*
X119005820Y-99260498D01*
X118895506Y-99319463D01*
X118798815Y-99398815D01*
X118719463Y-99495506D01*
X118660498Y-99605820D01*
X118624188Y-99725518D01*
X118611928Y-99850000D01*
X118615000Y-100414250D01*
X118773750Y-100573000D01*
X119973000Y-100573000D01*
X119973000Y-100553000D01*
X120227000Y-100553000D01*
X120227000Y-100573000D01*
X121426250Y-100573000D01*
X121585000Y-100414250D01*
X121588072Y-99850000D01*
X121575812Y-99725518D01*
X121539502Y-99605820D01*
X121480537Y-99495506D01*
X121401185Y-99398815D01*
X121304494Y-99319463D01*
X121194180Y-99260498D01*
X121125313Y-99239607D01*
X121155134Y-99215134D01*
X121340706Y-98989014D01*
X121478599Y-98731034D01*
X121563513Y-98451111D01*
X121592185Y-98160000D01*
X121563513Y-97868889D01*
X121478599Y-97588966D01*
X121340706Y-97330986D01*
X121155134Y-97104866D01*
X120929014Y-96919294D01*
X120671034Y-96781401D01*
X120391111Y-96696487D01*
X120172950Y-96675000D01*
X120027050Y-96675000D01*
X119808889Y-96696487D01*
X119528966Y-96781401D01*
X119270986Y-96919294D01*
X119044866Y-97104866D01*
X118859294Y-97330986D01*
X118721401Y-97588966D01*
X118636487Y-97868889D01*
X118607815Y-98160000D01*
X109886275Y-98160000D01*
X109892185Y-98100000D01*
X109863513Y-97808889D01*
X109778599Y-97528966D01*
X109640706Y-97270986D01*
X109455134Y-97044866D01*
X109229014Y-96859294D01*
X108971034Y-96721401D01*
X108691111Y-96636487D01*
X108472950Y-96615000D01*
X108327050Y-96615000D01*
X108108889Y-96636487D01*
X107828966Y-96721401D01*
X107783649Y-96745624D01*
X107742646Y-96610453D01*
X107672074Y-96478424D01*
X107577101Y-96362699D01*
X107548103Y-96338901D01*
X106472604Y-95263402D01*
X106448801Y-95234399D01*
X106333076Y-95139426D01*
X106201047Y-95068854D01*
X106197041Y-95067639D01*
X103438500Y-92309099D01*
X103438500Y-91143451D01*
X103441761Y-91144100D01*
X103645639Y-91144100D01*
X103809421Y-91111522D01*
X107306200Y-94608302D01*
X107306200Y-94670439D01*
X107345974Y-94870398D01*
X107423995Y-95058756D01*
X107537263Y-95228274D01*
X107681426Y-95372437D01*
X107850944Y-95485705D01*
X108039302Y-95563726D01*
X108239261Y-95603500D01*
X108443139Y-95603500D01*
X108643098Y-95563726D01*
X108831456Y-95485705D01*
X109000974Y-95372437D01*
X109145137Y-95228274D01*
X109258405Y-95058756D01*
X109336426Y-94870398D01*
X109376200Y-94670439D01*
X109376200Y-94466561D01*
X109336426Y-94266602D01*
X109258405Y-94078244D01*
X109225234Y-94028600D01*
X109351539Y-94028600D01*
X109551498Y-93988826D01*
X109739856Y-93910805D01*
X109909374Y-93797537D01*
X110053537Y-93653374D01*
X110166805Y-93483856D01*
X110244826Y-93295498D01*
X110284600Y-93095539D01*
X110284600Y-92891661D01*
X110244826Y-92691702D01*
X110166805Y-92503344D01*
X110053537Y-92333826D01*
X109909374Y-92189663D01*
X109739856Y-92076395D01*
X109600092Y-92018502D01*
X109640706Y-91969014D01*
X109778599Y-91711034D01*
X109863513Y-91431111D01*
X109892185Y-91140000D01*
X118607815Y-91140000D01*
X118636487Y-91431111D01*
X118721401Y-91711034D01*
X118859294Y-91969014D01*
X119044866Y-92195134D01*
X119270986Y-92380706D01*
X119528966Y-92518599D01*
X119808889Y-92603513D01*
X120027050Y-92625000D01*
X120172950Y-92625000D01*
X120391111Y-92603513D01*
X120671034Y-92518599D01*
X120929014Y-92380706D01*
X121155134Y-92195134D01*
X121340706Y-91969014D01*
X121478599Y-91711034D01*
X121563513Y-91431111D01*
X121592185Y-91140000D01*
X121563513Y-90848889D01*
X121478599Y-90568966D01*
X121340706Y-90310986D01*
X121155134Y-90084866D01*
X121125313Y-90060393D01*
X121194180Y-90039502D01*
X121304494Y-89980537D01*
X121401185Y-89901185D01*
X121480537Y-89804494D01*
X121539502Y-89694180D01*
X121575812Y-89574482D01*
X121588072Y-89450000D01*
X121585000Y-88885750D01*
X121426250Y-88727000D01*
X120227000Y-88727000D01*
X120227000Y-88747000D01*
X119973000Y-88747000D01*
X119973000Y-88727000D01*
X118773750Y-88727000D01*
X118615000Y-88885750D01*
X118611928Y-89450000D01*
X118624188Y-89574482D01*
X118660498Y-89694180D01*
X118719463Y-89804494D01*
X118798815Y-89901185D01*
X118895506Y-89980537D01*
X119005820Y-90039502D01*
X119074687Y-90060393D01*
X119044866Y-90084866D01*
X118859294Y-90310986D01*
X118721401Y-90568966D01*
X118636487Y-90848889D01*
X118607815Y-91140000D01*
X109892185Y-91140000D01*
X109863513Y-90848889D01*
X109778599Y-90568966D01*
X109640706Y-90310986D01*
X109455134Y-90084866D01*
X109425313Y-90060393D01*
X109494180Y-90039502D01*
X109604494Y-89980537D01*
X109701185Y-89901185D01*
X109780537Y-89804494D01*
X109839502Y-89694180D01*
X109875812Y-89574482D01*
X109888072Y-89450000D01*
X109885000Y-88885750D01*
X109726250Y-88727000D01*
X108527000Y-88727000D01*
X108527000Y-88747000D01*
X108273000Y-88747000D01*
X108273000Y-88727000D01*
X107073750Y-88727000D01*
X106915000Y-88885750D01*
X106911928Y-89450000D01*
X106924188Y-89574482D01*
X106960498Y-89694180D01*
X107019463Y-89804494D01*
X107098815Y-89901185D01*
X107195506Y-89980537D01*
X107305820Y-90039502D01*
X107374687Y-90060393D01*
X107344866Y-90084866D01*
X107159294Y-90310986D01*
X107041836Y-90530734D01*
X104261102Y-87750000D01*
X106911928Y-87750000D01*
X106915000Y-88314250D01*
X107073750Y-88473000D01*
X108273000Y-88473000D01*
X108273000Y-87273750D01*
X108527000Y-87273750D01*
X108527000Y-88473000D01*
X109726250Y-88473000D01*
X109885000Y-88314250D01*
X109888072Y-87750000D01*
X118611928Y-87750000D01*
X118615000Y-88314250D01*
X118773750Y-88473000D01*
X119973000Y-88473000D01*
X119973000Y-87273750D01*
X120227000Y-87273750D01*
X120227000Y-88473000D01*
X121426250Y-88473000D01*
X121585000Y-88314250D01*
X121588072Y-87750000D01*
X121575812Y-87625518D01*
X121539502Y-87505820D01*
X121480537Y-87395506D01*
X121401185Y-87298815D01*
X121304494Y-87219463D01*
X121194180Y-87160498D01*
X121074482Y-87124188D01*
X120950000Y-87111928D01*
X120385750Y-87115000D01*
X120227000Y-87273750D01*
X119973000Y-87273750D01*
X119814250Y-87115000D01*
X119250000Y-87111928D01*
X119125518Y-87124188D01*
X119005820Y-87160498D01*
X118895506Y-87219463D01*
X118798815Y-87298815D01*
X118719463Y-87395506D01*
X118660498Y-87505820D01*
X118624188Y-87625518D01*
X118611928Y-87750000D01*
X109888072Y-87750000D01*
X109875812Y-87625518D01*
X109839502Y-87505820D01*
X109780537Y-87395506D01*
X109701185Y-87298815D01*
X109604494Y-87219463D01*
X109494180Y-87160498D01*
X109374482Y-87124188D01*
X109250000Y-87111928D01*
X108685750Y-87115000D01*
X108527000Y-87273750D01*
X108273000Y-87273750D01*
X108114250Y-87115000D01*
X107550000Y-87111928D01*
X107425518Y-87124188D01*
X107305820Y-87160498D01*
X107195506Y-87219463D01*
X107098815Y-87298815D01*
X107019463Y-87395506D01*
X106960498Y-87505820D01*
X106924188Y-87625518D01*
X106911928Y-87750000D01*
X104261102Y-87750000D01*
X95789301Y-79278200D01*
X112088089Y-79278200D01*
X112132026Y-79322137D01*
X112301544Y-79435405D01*
X112489902Y-79513426D01*
X112689861Y-79553200D01*
X112893739Y-79553200D01*
X113093698Y-79513426D01*
X113282056Y-79435405D01*
X113451574Y-79322137D01*
X113595737Y-79177974D01*
X113709005Y-79008456D01*
X113787026Y-78820098D01*
X113826800Y-78620139D01*
X113826800Y-78416261D01*
X113787026Y-78216302D01*
X113709005Y-78027944D01*
X113595737Y-77858426D01*
X113451574Y-77714263D01*
X113282056Y-77600995D01*
X113093698Y-77522974D01*
X112893739Y-77483200D01*
X112689861Y-77483200D01*
X112489902Y-77522974D01*
X112301544Y-77600995D01*
X112132026Y-77714263D01*
X112088089Y-77758200D01*
X95771111Y-77758200D01*
X95727174Y-77714263D01*
X95557656Y-77600995D01*
X95369298Y-77522974D01*
X95169339Y-77483200D01*
X95102000Y-77483200D01*
X95102000Y-76033707D01*
X95159574Y-75995237D01*
X95303737Y-75851074D01*
X95417005Y-75681556D01*
X95495026Y-75493198D01*
X95534800Y-75293239D01*
X95534800Y-75089361D01*
X95495026Y-74889402D01*
X95417005Y-74701044D01*
X95303737Y-74531526D01*
X95159574Y-74387363D01*
X94990056Y-74274095D01*
X94801698Y-74196074D01*
X94601739Y-74156300D01*
X94504700Y-74156300D01*
X94504700Y-74102841D01*
X94517061Y-74105300D01*
X94720939Y-74105300D01*
X94920898Y-74065526D01*
X95109256Y-73987505D01*
X95278774Y-73874237D01*
X95322711Y-73830300D01*
X100734565Y-73830300D01*
X100731195Y-73835344D01*
X100653174Y-74023702D01*
X100613400Y-74223661D01*
X100613400Y-74427539D01*
X100653174Y-74627498D01*
X100731195Y-74815856D01*
X100844463Y-74985374D01*
X100988626Y-75129537D01*
X101158144Y-75242805D01*
X101346502Y-75320826D01*
X101546461Y-75360600D01*
X101608599Y-75360600D01*
X102333800Y-76085802D01*
X102357599Y-76114801D01*
X102386597Y-76138599D01*
X102473324Y-76209774D01*
X102605353Y-76280346D01*
X102748614Y-76323803D01*
X102897600Y-76338477D01*
X102934933Y-76334800D01*
X114461799Y-76334800D01*
X119460900Y-81333902D01*
X119460900Y-81396039D01*
X119500674Y-81595998D01*
X119578695Y-81784356D01*
X119691963Y-81953874D01*
X119836126Y-82098037D01*
X120005644Y-82211305D01*
X120194002Y-82289326D01*
X120393961Y-82329100D01*
X120597839Y-82329100D01*
X120797798Y-82289326D01*
X120986156Y-82211305D01*
X121155674Y-82098037D01*
X121299837Y-81953874D01*
X121413105Y-81784356D01*
X121491126Y-81595998D01*
X121530900Y-81396039D01*
X121530900Y-81192161D01*
X121491126Y-80992202D01*
X121413105Y-80803844D01*
X121299837Y-80634326D01*
X121155674Y-80490163D01*
X120986156Y-80376895D01*
X120797798Y-80298874D01*
X120597839Y-80259100D01*
X120535702Y-80259100D01*
X115340404Y-75063803D01*
X115316601Y-75034799D01*
X115200876Y-74939826D01*
X115068847Y-74869254D01*
X114925586Y-74825797D01*
X114813933Y-74814800D01*
X114813922Y-74814800D01*
X114776600Y-74811124D01*
X114739278Y-74814800D01*
X103212402Y-74814800D01*
X102683400Y-74285799D01*
X102683400Y-74223661D01*
X102643626Y-74023702D01*
X102565605Y-73835344D01*
X102562235Y-73830300D01*
X119417699Y-73830300D01*
X123446100Y-77858702D01*
X123446100Y-77920839D01*
X123485874Y-78120798D01*
X123563895Y-78309156D01*
X123677163Y-78478674D01*
X123821326Y-78622837D01*
X123990844Y-78736105D01*
X124179202Y-78814126D01*
X124379161Y-78853900D01*
X124583039Y-78853900D01*
X124782998Y-78814126D01*
X124971356Y-78736105D01*
X125140874Y-78622837D01*
X125285037Y-78478674D01*
X125398305Y-78309156D01*
X125476326Y-78120798D01*
X125516100Y-77920839D01*
X125516100Y-77716961D01*
X125476326Y-77517002D01*
X125398305Y-77328644D01*
X125285037Y-77159126D01*
X125140874Y-77014963D01*
X124971356Y-76901695D01*
X124782998Y-76823674D01*
X124583039Y-76783900D01*
X124520902Y-76783900D01*
X123353892Y-75616890D01*
X138724524Y-75616890D01*
X138769175Y-75764099D01*
X138894359Y-76026920D01*
X139068412Y-76260269D01*
X139284645Y-76455178D01*
X139534748Y-76604157D01*
X139538074Y-76605337D01*
X139322412Y-76799731D01*
X139148359Y-77033080D01*
X139023175Y-77295901D01*
X138978524Y-77443110D01*
X139099845Y-77673000D01*
X140293000Y-77673000D01*
X140293000Y-77653000D01*
X140547000Y-77653000D01*
X140547000Y-77673000D01*
X142833000Y-77673000D01*
X142833000Y-77653000D01*
X143087000Y-77653000D01*
X143087000Y-77673000D01*
X144280155Y-77673000D01*
X144401476Y-77443110D01*
X144356825Y-77295901D01*
X144231641Y-77033080D01*
X144057588Y-76799731D01*
X143841355Y-76604822D01*
X143591252Y-76455843D01*
X143587926Y-76454663D01*
X143803588Y-76260269D01*
X143977641Y-76026920D01*
X144102825Y-75764099D01*
X144147476Y-75616890D01*
X144026155Y-75387000D01*
X142833000Y-75387000D01*
X142833000Y-75407000D01*
X142579000Y-75407000D01*
X142579000Y-75387000D01*
X140293000Y-75387000D01*
X140293000Y-75407000D01*
X140039000Y-75407000D01*
X140039000Y-75387000D01*
X138845845Y-75387000D01*
X138724524Y-75616890D01*
X123353892Y-75616890D01*
X120296304Y-72559303D01*
X120272501Y-72530299D01*
X120156776Y-72435326D01*
X120024747Y-72364754D01*
X119881486Y-72321297D01*
X119769833Y-72310300D01*
X119769822Y-72310300D01*
X119732500Y-72306624D01*
X119695178Y-72310300D01*
X95322711Y-72310300D01*
X95278774Y-72266363D01*
X95109256Y-72153095D01*
X94920898Y-72075074D01*
X94720939Y-72035300D01*
X94653700Y-72035300D01*
X94653700Y-70978902D01*
X94775402Y-70857200D01*
X94837539Y-70857200D01*
X95037498Y-70817426D01*
X95225856Y-70739405D01*
X95395374Y-70626137D01*
X95539537Y-70481974D01*
X95652805Y-70312456D01*
X95730826Y-70124098D01*
X95770600Y-69924139D01*
X95770600Y-69720261D01*
X95730826Y-69520302D01*
X95652805Y-69331944D01*
X95539537Y-69162426D01*
X95395374Y-69018263D01*
X95225856Y-68904995D01*
X95037498Y-68826974D01*
X94837539Y-68787200D01*
X94633661Y-68787200D01*
X94433702Y-68826974D01*
X94245344Y-68904995D01*
X94075826Y-69018263D01*
X93931663Y-69162426D01*
X93818395Y-69331944D01*
X93740374Y-69520302D01*
X93700600Y-69720261D01*
X93700600Y-69782398D01*
X93382702Y-70100297D01*
X93353699Y-70124099D01*
X93298571Y-70191274D01*
X93258726Y-70239824D01*
X93255170Y-70246477D01*
X93188154Y-70371854D01*
X93144697Y-70515115D01*
X93133700Y-70626768D01*
X93133700Y-70626778D01*
X93130024Y-70664100D01*
X93133700Y-70701423D01*
X93133701Y-71987800D01*
X93041561Y-71987800D01*
X92841602Y-72027574D01*
X92653244Y-72105595D01*
X92483726Y-72218863D01*
X92339563Y-72363026D01*
X92226295Y-72532544D01*
X92148274Y-72720902D01*
X92108500Y-72920861D01*
X92108500Y-73124739D01*
X92148274Y-73324698D01*
X92226295Y-73513056D01*
X92339563Y-73682574D01*
X92469301Y-73812312D01*
X92469300Y-80723989D01*
X92404474Y-80659163D01*
X92234956Y-80545895D01*
X92046598Y-80467874D01*
X91846639Y-80428100D01*
X91642761Y-80428100D01*
X91442802Y-80467874D01*
X91254444Y-80545895D01*
X91084926Y-80659163D01*
X90940763Y-80803326D01*
X90827495Y-80972844D01*
X90749474Y-81161202D01*
X90709700Y-81361161D01*
X90709700Y-81423298D01*
X88682903Y-83450096D01*
X88653899Y-83473899D01*
X88598771Y-83541074D01*
X88558926Y-83589624D01*
X88521984Y-83658737D01*
X88488354Y-83721654D01*
X88444897Y-83864915D01*
X88433900Y-83976568D01*
X88433900Y-83976578D01*
X88430224Y-84013900D01*
X88433900Y-84051222D01*
X88433900Y-86812560D01*
X87985750Y-86815000D01*
X87827000Y-86973750D01*
X87827000Y-88173000D01*
X87847000Y-88173000D01*
X87847000Y-88427000D01*
X87827000Y-88427000D01*
X87827000Y-88447000D01*
X87573000Y-88447000D01*
X87573000Y-88427000D01*
X87553000Y-88427000D01*
X87553000Y-88173000D01*
X87573000Y-88173000D01*
X87573000Y-86973750D01*
X87414250Y-86815000D01*
X86850000Y-86811928D01*
X86831100Y-86813789D01*
X86831100Y-75173611D01*
X86875037Y-75129674D01*
X86988305Y-74960156D01*
X87066326Y-74771798D01*
X87106100Y-74571839D01*
X87106100Y-74367961D01*
X87066326Y-74168002D01*
X87041425Y-74107886D01*
X87109737Y-74039574D01*
X87223005Y-73870056D01*
X87301026Y-73681698D01*
X87340800Y-73481739D01*
X87340800Y-73277861D01*
X87301026Y-73077902D01*
X87223005Y-72889544D01*
X87109737Y-72720026D01*
X86965574Y-72575863D01*
X86796056Y-72462595D01*
X86607698Y-72384574D01*
X86407739Y-72344800D01*
X86203861Y-72344800D01*
X86003902Y-72384574D01*
X85815544Y-72462595D01*
X85646026Y-72575863D01*
X85501863Y-72720026D01*
X85388595Y-72889544D01*
X85310574Y-73077902D01*
X85297682Y-73142716D01*
X79840498Y-78599901D01*
X79811500Y-78623699D01*
X79787702Y-78652697D01*
X79787701Y-78652698D01*
X79716526Y-78739424D01*
X79645954Y-78871454D01*
X79625162Y-78939999D01*
X79604397Y-79008456D01*
X79602498Y-79014715D01*
X79587824Y-79163700D01*
X79591501Y-79201032D01*
X79591500Y-84409589D01*
X79547563Y-84453526D01*
X79434295Y-84623044D01*
X79356274Y-84811402D01*
X79316500Y-85011361D01*
X79316500Y-85215239D01*
X79356274Y-85415198D01*
X79434295Y-85603556D01*
X79547563Y-85773074D01*
X79691726Y-85917237D01*
X79861244Y-86030505D01*
X80049602Y-86108526D01*
X80249561Y-86148300D01*
X80453439Y-86148300D01*
X80653398Y-86108526D01*
X80841756Y-86030505D01*
X81011274Y-85917237D01*
X81155437Y-85773074D01*
X81268705Y-85603556D01*
X81346726Y-85415198D01*
X81386500Y-85215239D01*
X81386500Y-85011361D01*
X81346726Y-84811402D01*
X81268705Y-84623044D01*
X81155437Y-84453526D01*
X81111500Y-84409589D01*
X81111500Y-79478501D01*
X85311101Y-75278901D01*
X85311100Y-94660098D01*
X77037098Y-102934101D01*
X77008100Y-102957899D01*
X76984302Y-102986897D01*
X76984301Y-102986898D01*
X76913126Y-103073624D01*
X76842554Y-103205654D01*
X76830241Y-103246246D01*
X76799098Y-103348914D01*
X76788101Y-103460567D01*
X76784424Y-103497900D01*
X76788101Y-103535232D01*
X76788101Y-103954388D01*
X76744163Y-103998326D01*
X76630895Y-104167844D01*
X76552874Y-104356202D01*
X76513100Y-104556161D01*
X76513100Y-104760039D01*
X76552874Y-104959998D01*
X76630895Y-105148356D01*
X76741675Y-105314151D01*
X76585750Y-105315000D01*
X76427000Y-105473750D01*
X76173000Y-105473750D01*
X76014250Y-105315000D01*
X75450000Y-105311928D01*
X75325518Y-105324188D01*
X75205820Y-105360498D01*
X75095506Y-105419463D01*
X74998815Y-105498815D01*
X74919463Y-105595506D01*
X74860498Y-105705820D01*
X74824188Y-105825518D01*
X74811928Y-105950000D01*
X60660000Y-105950000D01*
X60660000Y-101250000D01*
X75011928Y-101250000D01*
X75024188Y-101374482D01*
X75060498Y-101494180D01*
X75119463Y-101604494D01*
X75198815Y-101701185D01*
X75295506Y-101780537D01*
X75405820Y-101839502D01*
X75525518Y-101875812D01*
X75650000Y-101888072D01*
X76214250Y-101885000D01*
X76373000Y-101726250D01*
X76373000Y-100527000D01*
X76627000Y-100527000D01*
X76627000Y-101726250D01*
X76785750Y-101885000D01*
X77350000Y-101888072D01*
X77474482Y-101875812D01*
X77594180Y-101839502D01*
X77704494Y-101780537D01*
X77801185Y-101701185D01*
X77880537Y-101604494D01*
X77939502Y-101494180D01*
X77975812Y-101374482D01*
X77988072Y-101250000D01*
X77985000Y-100685750D01*
X77826250Y-100527000D01*
X76627000Y-100527000D01*
X76373000Y-100527000D01*
X75173750Y-100527000D01*
X75015000Y-100685750D01*
X75011928Y-101250000D01*
X60660000Y-101250000D01*
X60660000Y-97860000D01*
X75007815Y-97860000D01*
X75036487Y-98151111D01*
X75121401Y-98431034D01*
X75259294Y-98689014D01*
X75444866Y-98915134D01*
X75474687Y-98939607D01*
X75405820Y-98960498D01*
X75295506Y-99019463D01*
X75198815Y-99098815D01*
X75119463Y-99195506D01*
X75060498Y-99305820D01*
X75024188Y-99425518D01*
X75011928Y-99550000D01*
X75015000Y-100114250D01*
X75173750Y-100273000D01*
X76373000Y-100273000D01*
X76373000Y-100253000D01*
X76627000Y-100253000D01*
X76627000Y-100273000D01*
X77826250Y-100273000D01*
X77985000Y-100114250D01*
X77988072Y-99550000D01*
X77975812Y-99425518D01*
X77939502Y-99305820D01*
X77880537Y-99195506D01*
X77801185Y-99098815D01*
X77704494Y-99019463D01*
X77594180Y-98960498D01*
X77525313Y-98939607D01*
X77555134Y-98915134D01*
X77740706Y-98689014D01*
X77878599Y-98431034D01*
X77963513Y-98151111D01*
X77992185Y-97860000D01*
X77963513Y-97568889D01*
X77878599Y-97288966D01*
X77740706Y-97030986D01*
X77555134Y-96804866D01*
X77329014Y-96619294D01*
X77071034Y-96481401D01*
X76791111Y-96396487D01*
X76572950Y-96375000D01*
X76427050Y-96375000D01*
X76208889Y-96396487D01*
X75928966Y-96481401D01*
X75670986Y-96619294D01*
X75444866Y-96804866D01*
X75259294Y-97030986D01*
X75121401Y-97288966D01*
X75036487Y-97568889D01*
X75007815Y-97860000D01*
X60660000Y-97860000D01*
X60660000Y-90800000D01*
X74907815Y-90800000D01*
X74936487Y-91091111D01*
X75021401Y-91371034D01*
X75159294Y-91629014D01*
X75344866Y-91855134D01*
X75570986Y-92040706D01*
X75828966Y-92178599D01*
X76108889Y-92263513D01*
X76327050Y-92285000D01*
X76472950Y-92285000D01*
X76691111Y-92263513D01*
X76971034Y-92178599D01*
X77229014Y-92040706D01*
X77455134Y-91855134D01*
X77640706Y-91629014D01*
X77778599Y-91371034D01*
X77863513Y-91091111D01*
X77892185Y-90800000D01*
X77863513Y-90508889D01*
X77778599Y-90228966D01*
X77640706Y-89970986D01*
X77455134Y-89744866D01*
X77425313Y-89720393D01*
X77494180Y-89699502D01*
X77604494Y-89640537D01*
X77701185Y-89561185D01*
X77780537Y-89464494D01*
X77839502Y-89354180D01*
X77875812Y-89234482D01*
X77888072Y-89110000D01*
X77885000Y-88545750D01*
X77726250Y-88387000D01*
X76527000Y-88387000D01*
X76527000Y-88407000D01*
X76273000Y-88407000D01*
X76273000Y-88387000D01*
X75073750Y-88387000D01*
X74915000Y-88545750D01*
X74911928Y-89110000D01*
X74924188Y-89234482D01*
X74960498Y-89354180D01*
X75019463Y-89464494D01*
X75098815Y-89561185D01*
X75195506Y-89640537D01*
X75305820Y-89699502D01*
X75374687Y-89720393D01*
X75344866Y-89744866D01*
X75159294Y-89970986D01*
X75021401Y-90228966D01*
X74936487Y-90508889D01*
X74907815Y-90800000D01*
X60660000Y-90800000D01*
X60660000Y-87410000D01*
X74911928Y-87410000D01*
X74915000Y-87974250D01*
X75073750Y-88133000D01*
X76273000Y-88133000D01*
X76273000Y-86933750D01*
X76527000Y-86933750D01*
X76527000Y-88133000D01*
X77726250Y-88133000D01*
X77885000Y-87974250D01*
X77888072Y-87410000D01*
X77875812Y-87285518D01*
X77839502Y-87165820D01*
X77780537Y-87055506D01*
X77701185Y-86958815D01*
X77604494Y-86879463D01*
X77494180Y-86820498D01*
X77374482Y-86784188D01*
X77250000Y-86771928D01*
X76685750Y-86775000D01*
X76527000Y-86933750D01*
X76273000Y-86933750D01*
X76114250Y-86775000D01*
X75550000Y-86771928D01*
X75425518Y-86784188D01*
X75305820Y-86820498D01*
X75195506Y-86879463D01*
X75098815Y-86958815D01*
X75019463Y-87055506D01*
X74960498Y-87165820D01*
X74924188Y-87285518D01*
X74911928Y-87410000D01*
X60660000Y-87410000D01*
X60660000Y-61160000D01*
X95507815Y-61160000D01*
X95536487Y-61451111D01*
X95621401Y-61731034D01*
X95759294Y-61989014D01*
X95944866Y-62215134D01*
X95974687Y-62239607D01*
X95905820Y-62260498D01*
X95795506Y-62319463D01*
X95698815Y-62398815D01*
X95619463Y-62495506D01*
X95560498Y-62605820D01*
X95524188Y-62725518D01*
X95511928Y-62850000D01*
X95511928Y-64550000D01*
X95524188Y-64674482D01*
X95560498Y-64794180D01*
X95619463Y-64904494D01*
X95698815Y-65001185D01*
X95795506Y-65080537D01*
X95905820Y-65139502D01*
X96025518Y-65175812D01*
X96150000Y-65188072D01*
X97850000Y-65188072D01*
X97974482Y-65175812D01*
X98094180Y-65139502D01*
X98204494Y-65080537D01*
X98301185Y-65001185D01*
X98380537Y-64904494D01*
X98439502Y-64794180D01*
X98475812Y-64674482D01*
X98488072Y-64550000D01*
X98488072Y-63540000D01*
X104558057Y-63540000D01*
X104585764Y-63821309D01*
X104667818Y-64091808D01*
X104801068Y-64341101D01*
X104980392Y-64559608D01*
X105198899Y-64738932D01*
X105331858Y-64810000D01*
X105198899Y-64881068D01*
X104980392Y-65060392D01*
X104801068Y-65278899D01*
X104667818Y-65528192D01*
X104585764Y-65798691D01*
X104558057Y-66080000D01*
X104585764Y-66361309D01*
X104667818Y-66631808D01*
X104801068Y-66881101D01*
X104980392Y-67099608D01*
X105198899Y-67278932D01*
X105331858Y-67350000D01*
X105198899Y-67421068D01*
X104980392Y-67600392D01*
X104801068Y-67818899D01*
X104667818Y-68068192D01*
X104585764Y-68338691D01*
X104558057Y-68620000D01*
X104585764Y-68901309D01*
X104667818Y-69171808D01*
X104801068Y-69421101D01*
X104980392Y-69639608D01*
X105198899Y-69818932D01*
X105448192Y-69952182D01*
X105718691Y-70034236D01*
X105929508Y-70055000D01*
X106870492Y-70055000D01*
X107081309Y-70034236D01*
X107351808Y-69952182D01*
X107601101Y-69818932D01*
X107819608Y-69639608D01*
X107998932Y-69421101D01*
X108132182Y-69171808D01*
X108214236Y-68901309D01*
X108241943Y-68620000D01*
X108214236Y-68338691D01*
X108132182Y-68068192D01*
X107998932Y-67818899D01*
X107819608Y-67600392D01*
X107601101Y-67421068D01*
X107468142Y-67350000D01*
X107601101Y-67278932D01*
X107819608Y-67099608D01*
X107998932Y-66881101D01*
X108132182Y-66631808D01*
X108214236Y-66361309D01*
X108241943Y-66080000D01*
X108214236Y-65798691D01*
X108132182Y-65528192D01*
X107998932Y-65278899D01*
X107819608Y-65060392D01*
X107601101Y-64881068D01*
X107468142Y-64810000D01*
X107601101Y-64738932D01*
X107819608Y-64559608D01*
X107998932Y-64341101D01*
X108132182Y-64091808D01*
X108214236Y-63821309D01*
X108241943Y-63540000D01*
X108214236Y-63258691D01*
X108132182Y-62988192D01*
X107998932Y-62738899D01*
X107819608Y-62520392D01*
X107601101Y-62341068D01*
X107473259Y-62272735D01*
X107702839Y-62122601D01*
X107904500Y-61924895D01*
X108063715Y-61691646D01*
X108174367Y-61431818D01*
X108191904Y-61349039D01*
X108069916Y-61127002D01*
X108235000Y-61127002D01*
X108235000Y-61000000D01*
X112178057Y-61000000D01*
X112205764Y-61281309D01*
X112287818Y-61551808D01*
X112421068Y-61801101D01*
X112600392Y-62019608D01*
X112818899Y-62198932D01*
X112951858Y-62270000D01*
X112818899Y-62341068D01*
X112600392Y-62520392D01*
X112421068Y-62738899D01*
X112287818Y-62988192D01*
X112205764Y-63258691D01*
X112178057Y-63540000D01*
X112205764Y-63821309D01*
X112287818Y-64091808D01*
X112421068Y-64341101D01*
X112600392Y-64559608D01*
X112818899Y-64738932D01*
X112951858Y-64810000D01*
X112818899Y-64881068D01*
X112600392Y-65060392D01*
X112421068Y-65278899D01*
X112287818Y-65528192D01*
X112205764Y-65798691D01*
X112178057Y-66080000D01*
X112205764Y-66361309D01*
X112287818Y-66631808D01*
X112421068Y-66881101D01*
X112600392Y-67099608D01*
X112713482Y-67192419D01*
X112695518Y-67194188D01*
X112575820Y-67230498D01*
X112465506Y-67289463D01*
X112368815Y-67368815D01*
X112289463Y-67465506D01*
X112230498Y-67575820D01*
X112194188Y-67695518D01*
X112181928Y-67820000D01*
X112181928Y-69420000D01*
X112194188Y-69544482D01*
X112230498Y-69664180D01*
X112289463Y-69774494D01*
X112368815Y-69871185D01*
X112465506Y-69950537D01*
X112575820Y-70009502D01*
X112695518Y-70045812D01*
X112820000Y-70058072D01*
X115220000Y-70058072D01*
X115344482Y-70045812D01*
X115464180Y-70009502D01*
X115574494Y-69950537D01*
X115671185Y-69871185D01*
X115750537Y-69774494D01*
X115809502Y-69664180D01*
X115845812Y-69544482D01*
X115858072Y-69420000D01*
X115858072Y-67820000D01*
X115846254Y-67700000D01*
X116561928Y-67700000D01*
X116561928Y-69300000D01*
X116574188Y-69424482D01*
X116610498Y-69544180D01*
X116669463Y-69654494D01*
X116748815Y-69751185D01*
X116845506Y-69830537D01*
X116955820Y-69889502D01*
X117075518Y-69925812D01*
X117200000Y-69938072D01*
X118800000Y-69938072D01*
X118924482Y-69925812D01*
X119044180Y-69889502D01*
X119154494Y-69830537D01*
X119251185Y-69751185D01*
X119330537Y-69654494D01*
X119389502Y-69544180D01*
X119425812Y-69424482D01*
X119438072Y-69300000D01*
X119438072Y-68768061D01*
X134655000Y-68768061D01*
X134655000Y-68971939D01*
X134694774Y-69171898D01*
X134772795Y-69360256D01*
X134886063Y-69529774D01*
X135030226Y-69673937D01*
X135199744Y-69787205D01*
X135388102Y-69865226D01*
X135588061Y-69905000D01*
X135791939Y-69905000D01*
X135991898Y-69865226D01*
X136180256Y-69787205D01*
X136222468Y-69759000D01*
X137559765Y-69759000D01*
X139174159Y-71373395D01*
X139118815Y-71418815D01*
X139039463Y-71515506D01*
X138980498Y-71625820D01*
X138944188Y-71745518D01*
X138931928Y-71870000D01*
X138931928Y-73570000D01*
X138944188Y-73694482D01*
X138980498Y-73814180D01*
X139039463Y-73924494D01*
X139118815Y-74021185D01*
X139215506Y-74100537D01*
X139234035Y-74110441D01*
X139068412Y-74259731D01*
X138894359Y-74493080D01*
X138769175Y-74755901D01*
X138724524Y-74903110D01*
X138845845Y-75133000D01*
X140039000Y-75133000D01*
X140039000Y-75113000D01*
X140293000Y-75113000D01*
X140293000Y-75133000D01*
X142579000Y-75133000D01*
X142579000Y-75113000D01*
X142833000Y-75113000D01*
X142833000Y-75133000D01*
X144026155Y-75133000D01*
X144147476Y-74903110D01*
X144102825Y-74755901D01*
X143977641Y-74493080D01*
X143803588Y-74259731D01*
X143589913Y-74067128D01*
X143789014Y-73960706D01*
X144015134Y-73775134D01*
X144200706Y-73549014D01*
X144338599Y-73291034D01*
X144423513Y-73011111D01*
X144452185Y-72720000D01*
X144423513Y-72428889D01*
X144338599Y-72148966D01*
X144200706Y-71890986D01*
X144015134Y-71664866D01*
X143789014Y-71479294D01*
X143531034Y-71341401D01*
X143251111Y-71256487D01*
X143032950Y-71235000D01*
X142887050Y-71235000D01*
X142668889Y-71256487D01*
X142388966Y-71341401D01*
X142130986Y-71479294D01*
X141904866Y-71664866D01*
X141880393Y-71694687D01*
X141859502Y-71625820D01*
X141800537Y-71515506D01*
X141721185Y-71418815D01*
X141624494Y-71339463D01*
X141514180Y-71280498D01*
X141394482Y-71244188D01*
X141300788Y-71234960D01*
X141296136Y-71187726D01*
X141296136Y-71187724D01*
X141245302Y-71020147D01*
X141241589Y-71013200D01*
X141162753Y-70865709D01*
X141051659Y-70730341D01*
X141017742Y-70702506D01*
X139107467Y-68792231D01*
X145198374Y-68792231D01*
X145280727Y-69045289D01*
X145551418Y-69175086D01*
X145842230Y-69249580D01*
X146141988Y-69265908D01*
X146439171Y-69223443D01*
X146722359Y-69123816D01*
X146869273Y-69045289D01*
X146951626Y-68792231D01*
X146075000Y-67915605D01*
X145198374Y-68792231D01*
X139107467Y-68792231D01*
X138587499Y-68272264D01*
X138559659Y-68238341D01*
X138424291Y-68127247D01*
X138269851Y-68044697D01*
X138102274Y-67993864D01*
X137971667Y-67981000D01*
X137971660Y-67981000D01*
X137928000Y-67976700D01*
X137884340Y-67981000D01*
X136222468Y-67981000D01*
X136180256Y-67952795D01*
X135991898Y-67874774D01*
X135791939Y-67835000D01*
X135588061Y-67835000D01*
X135388102Y-67874774D01*
X135199744Y-67952795D01*
X135030226Y-68066063D01*
X134886063Y-68210226D01*
X134772795Y-68379744D01*
X134694774Y-68568102D01*
X134655000Y-68768061D01*
X119438072Y-68768061D01*
X119438072Y-67802988D01*
X144545092Y-67802988D01*
X144587557Y-68100171D01*
X144687184Y-68383359D01*
X144765711Y-68530273D01*
X145018769Y-68612626D01*
X145895395Y-67736000D01*
X145018769Y-66859374D01*
X144765711Y-66941727D01*
X144635914Y-67212418D01*
X144561420Y-67503230D01*
X144545092Y-67802988D01*
X119438072Y-67802988D01*
X119438072Y-67700000D01*
X119425812Y-67575518D01*
X119389502Y-67455820D01*
X119330537Y-67345506D01*
X119251185Y-67248815D01*
X119154494Y-67169463D01*
X119044180Y-67110498D01*
X118924482Y-67074188D01*
X118800000Y-67061928D01*
X117200000Y-67061928D01*
X117075518Y-67074188D01*
X116955820Y-67110498D01*
X116845506Y-67169463D01*
X116748815Y-67248815D01*
X116669463Y-67345506D01*
X116610498Y-67455820D01*
X116574188Y-67575518D01*
X116561928Y-67700000D01*
X115846254Y-67700000D01*
X115845812Y-67695518D01*
X115809502Y-67575820D01*
X115750537Y-67465506D01*
X115671185Y-67368815D01*
X115574494Y-67289463D01*
X115464180Y-67230498D01*
X115344482Y-67194188D01*
X115326518Y-67192419D01*
X115439608Y-67099608D01*
X115618932Y-66881101D01*
X115752182Y-66631808D01*
X115834236Y-66361309D01*
X115861943Y-66080000D01*
X115834236Y-65798691D01*
X115752182Y-65528192D01*
X115618932Y-65278899D01*
X115439608Y-65060392D01*
X115221101Y-64881068D01*
X115088142Y-64810000D01*
X115221101Y-64738932D01*
X115439608Y-64559608D01*
X115618932Y-64341101D01*
X115752182Y-64091808D01*
X115834236Y-63821309D01*
X115861943Y-63540000D01*
X115834236Y-63258691D01*
X115752182Y-62988192D01*
X115618932Y-62738899D01*
X115439608Y-62520392D01*
X115221101Y-62341068D01*
X115088142Y-62270000D01*
X115221101Y-62198932D01*
X115439608Y-62019608D01*
X115618932Y-61801101D01*
X115752182Y-61551808D01*
X115834236Y-61281309D01*
X115861943Y-61000000D01*
X115850124Y-60880000D01*
X116558057Y-60880000D01*
X116585764Y-61161309D01*
X116667818Y-61431808D01*
X116801068Y-61681101D01*
X116980392Y-61899608D01*
X117198899Y-62078932D01*
X117448192Y-62212182D01*
X117718691Y-62294236D01*
X117929508Y-62315000D01*
X118070492Y-62315000D01*
X118281309Y-62294236D01*
X118551808Y-62212182D01*
X118801101Y-62078932D01*
X119019608Y-61899608D01*
X119198932Y-61681101D01*
X119332182Y-61431808D01*
X119384298Y-61260000D01*
X122807815Y-61260000D01*
X122836487Y-61551111D01*
X122921401Y-61831034D01*
X123059294Y-62089014D01*
X123244866Y-62315134D01*
X123274687Y-62339607D01*
X123205820Y-62360498D01*
X123095506Y-62419463D01*
X122998815Y-62498815D01*
X122919463Y-62595506D01*
X122860498Y-62705820D01*
X122824188Y-62825518D01*
X122811928Y-62950000D01*
X122811928Y-64650000D01*
X122824188Y-64774482D01*
X122860498Y-64894180D01*
X122919463Y-65004494D01*
X122998815Y-65101185D01*
X123095506Y-65180537D01*
X123205820Y-65239502D01*
X123325518Y-65275812D01*
X123450000Y-65288072D01*
X125150000Y-65288072D01*
X125274482Y-65275812D01*
X125394180Y-65239502D01*
X125504494Y-65180537D01*
X125601185Y-65101185D01*
X125680537Y-65004494D01*
X125739502Y-64894180D01*
X125775812Y-64774482D01*
X125788072Y-64650000D01*
X125788072Y-62950000D01*
X125775812Y-62825518D01*
X125739502Y-62705820D01*
X125680537Y-62595506D01*
X125601185Y-62498815D01*
X125504494Y-62419463D01*
X125394180Y-62360498D01*
X125325313Y-62339607D01*
X125355134Y-62315134D01*
X125540706Y-62089014D01*
X125678599Y-61831034D01*
X125763513Y-61551111D01*
X125792185Y-61260000D01*
X125763513Y-60968889D01*
X125678599Y-60688966D01*
X125616608Y-60572988D01*
X144545092Y-60572988D01*
X144587557Y-60870171D01*
X144687184Y-61153359D01*
X144765711Y-61300273D01*
X145018769Y-61382626D01*
X145895395Y-60506000D01*
X145018769Y-59629374D01*
X144765711Y-59711727D01*
X144635914Y-59982418D01*
X144561420Y-60273230D01*
X144545092Y-60572988D01*
X125616608Y-60572988D01*
X125540706Y-60430986D01*
X125355134Y-60204866D01*
X125129014Y-60019294D01*
X124871034Y-59881401D01*
X124591111Y-59796487D01*
X124372950Y-59775000D01*
X124227050Y-59775000D01*
X124008889Y-59796487D01*
X123728966Y-59881401D01*
X123470986Y-60019294D01*
X123244866Y-60204866D01*
X123059294Y-60430986D01*
X122921401Y-60688966D01*
X122836487Y-60968889D01*
X122807815Y-61260000D01*
X119384298Y-61260000D01*
X119414236Y-61161309D01*
X119441943Y-60880000D01*
X119414236Y-60598691D01*
X119332182Y-60328192D01*
X119198932Y-60078899D01*
X119019608Y-59860392D01*
X118801101Y-59681068D01*
X118551808Y-59547818D01*
X118281309Y-59465764D01*
X118118912Y-59449769D01*
X145198374Y-59449769D01*
X146075000Y-60326395D01*
X146951626Y-59449769D01*
X146869273Y-59196711D01*
X146598582Y-59066914D01*
X146307770Y-58992420D01*
X146008012Y-58976092D01*
X145710829Y-59018557D01*
X145427641Y-59118184D01*
X145280727Y-59196711D01*
X145198374Y-59449769D01*
X118118912Y-59449769D01*
X118070492Y-59445000D01*
X117929508Y-59445000D01*
X117718691Y-59465764D01*
X117448192Y-59547818D01*
X117198899Y-59681068D01*
X116980392Y-59860392D01*
X116801068Y-60078899D01*
X116667818Y-60328192D01*
X116585764Y-60598691D01*
X116558057Y-60880000D01*
X115850124Y-60880000D01*
X115834236Y-60718691D01*
X115752182Y-60448192D01*
X115618932Y-60198899D01*
X115439608Y-59980392D01*
X115221101Y-59801068D01*
X114971808Y-59667818D01*
X114701309Y-59585764D01*
X114490492Y-59565000D01*
X113549508Y-59565000D01*
X113338691Y-59585764D01*
X113068192Y-59667818D01*
X112818899Y-59801068D01*
X112600392Y-59980392D01*
X112421068Y-60198899D01*
X112287818Y-60448192D01*
X112205764Y-60718691D01*
X112178057Y-61000000D01*
X108235000Y-61000000D01*
X108235000Y-60872998D01*
X108069916Y-60872998D01*
X108191904Y-60650961D01*
X108174367Y-60568182D01*
X108063715Y-60308354D01*
X107904500Y-60075105D01*
X107702839Y-59877399D01*
X107466483Y-59722834D01*
X107204514Y-59617350D01*
X106927000Y-59565000D01*
X105873000Y-59565000D01*
X105595486Y-59617350D01*
X105333517Y-59722834D01*
X105097161Y-59877399D01*
X104895500Y-60075105D01*
X104736285Y-60308354D01*
X104625633Y-60568182D01*
X104608096Y-60650961D01*
X104730084Y-60872998D01*
X104565000Y-60872998D01*
X104565000Y-61127002D01*
X104730084Y-61127002D01*
X104608096Y-61349039D01*
X104625633Y-61431818D01*
X104736285Y-61691646D01*
X104895500Y-61924895D01*
X105097161Y-62122601D01*
X105326741Y-62272735D01*
X105198899Y-62341068D01*
X104980392Y-62520392D01*
X104801068Y-62738899D01*
X104667818Y-62988192D01*
X104585764Y-63258691D01*
X104558057Y-63540000D01*
X98488072Y-63540000D01*
X98488072Y-62850000D01*
X98475812Y-62725518D01*
X98439502Y-62605820D01*
X98380537Y-62495506D01*
X98301185Y-62398815D01*
X98204494Y-62319463D01*
X98094180Y-62260498D01*
X98025313Y-62239607D01*
X98055134Y-62215134D01*
X98240706Y-61989014D01*
X98378599Y-61731034D01*
X98463513Y-61451111D01*
X98492185Y-61160000D01*
X98463513Y-60868889D01*
X98378599Y-60588966D01*
X98240706Y-60330986D01*
X98055134Y-60104866D01*
X97829014Y-59919294D01*
X97571034Y-59781401D01*
X97291111Y-59696487D01*
X97072950Y-59675000D01*
X96927050Y-59675000D01*
X96708889Y-59696487D01*
X96428966Y-59781401D01*
X96170986Y-59919294D01*
X95944866Y-60104866D01*
X95759294Y-60330986D01*
X95621401Y-60588966D01*
X95536487Y-60868889D01*
X95507815Y-61160000D01*
X60660000Y-61160000D01*
X60660000Y-54737323D01*
X62333000Y-54737323D01*
X62333000Y-55262677D01*
X62435492Y-55777935D01*
X62636536Y-56263298D01*
X62928406Y-56700113D01*
X63299887Y-57071594D01*
X63736702Y-57363464D01*
X64222065Y-57564508D01*
X64737323Y-57667000D01*
X65262677Y-57667000D01*
X65777935Y-57564508D01*
X66263298Y-57363464D01*
X66700113Y-57071594D01*
X67071594Y-56700113D01*
X67363464Y-56263298D01*
X67564508Y-55777935D01*
X67667000Y-55262677D01*
X67667000Y-54737323D01*
X142333000Y-54737323D01*
X142333000Y-55262677D01*
X142435492Y-55777935D01*
X142636536Y-56263298D01*
X142928406Y-56700113D01*
X143299887Y-57071594D01*
X143736702Y-57363464D01*
X144222065Y-57564508D01*
X144737323Y-57667000D01*
X145262677Y-57667000D01*
X145777935Y-57564508D01*
X146263298Y-57363464D01*
X146700113Y-57071594D01*
X147071594Y-56700113D01*
X147363464Y-56263298D01*
X147564508Y-55777935D01*
X147667000Y-55262677D01*
X147667000Y-54737323D01*
X147564508Y-54222065D01*
X147363464Y-53736702D01*
X147071594Y-53299887D01*
X146700113Y-52928406D01*
X146263298Y-52636536D01*
X145777935Y-52435492D01*
X145262677Y-52333000D01*
X144737323Y-52333000D01*
X144222065Y-52435492D01*
X143736702Y-52636536D01*
X143299887Y-52928406D01*
X142928406Y-53299887D01*
X142636536Y-53736702D01*
X142435492Y-54222065D01*
X142333000Y-54737323D01*
X67667000Y-54737323D01*
X67564508Y-54222065D01*
X67363464Y-53736702D01*
X67071594Y-53299887D01*
X66700113Y-52928406D01*
X66263298Y-52636536D01*
X65777935Y-52435492D01*
X65262677Y-52333000D01*
X64737323Y-52333000D01*
X64222065Y-52435492D01*
X63736702Y-52636536D01*
X63299887Y-52928406D01*
X62928406Y-53299887D01*
X62636536Y-53736702D01*
X62435492Y-54222065D01*
X62333000Y-54737323D01*
X60660000Y-54737323D01*
X60660000Y-50660000D01*
X149340000Y-50660000D01*
X149340000Y-59774044D01*
X149340000Y-59774044D01*
G37*
X149340000Y-59774044D02*
X149269273Y-59556711D01*
X148998582Y-59426914D01*
X148707770Y-59352420D01*
X148408012Y-59336092D01*
X148110829Y-59378557D01*
X147827641Y-59478184D01*
X147680727Y-59556711D01*
X147598375Y-59809767D01*
X147482394Y-59693786D01*
X147412212Y-59763968D01*
X147384289Y-59711727D01*
X147131231Y-59629374D01*
X146254605Y-60506000D01*
X146268748Y-60520143D01*
X146089143Y-60699748D01*
X146075000Y-60685605D01*
X145198374Y-61562231D01*
X145280727Y-61815289D01*
X145551418Y-61945086D01*
X145842230Y-62019580D01*
X146141988Y-62035908D01*
X146439171Y-61993443D01*
X146722359Y-61893816D01*
X146869273Y-61815289D01*
X146951625Y-61562233D01*
X147067606Y-61678214D01*
X147137788Y-61608032D01*
X147165711Y-61660273D01*
X147418769Y-61742626D01*
X148295395Y-60866000D01*
X148281253Y-60851858D01*
X148460858Y-60672253D01*
X148475000Y-60686395D01*
X148489143Y-60672253D01*
X148668748Y-60851858D01*
X148654605Y-60866000D01*
X148668748Y-60880143D01*
X148489143Y-61059748D01*
X148475000Y-61045605D01*
X147598374Y-61922231D01*
X147680727Y-62175289D01*
X147951418Y-62305086D01*
X148242230Y-62379580D01*
X148541988Y-62395908D01*
X148839171Y-62353443D01*
X149122359Y-62253816D01*
X149269273Y-62175289D01*
X149340000Y-61957955D01*
X149340000Y-66284045D01*
X149269273Y-66066711D01*
X148998582Y-65936914D01*
X148707770Y-65862420D01*
X148408012Y-65846092D01*
X148110829Y-65888557D01*
X147827641Y-65988184D01*
X147680727Y-66066711D01*
X147598374Y-66319769D01*
X148475000Y-67196395D01*
X148489143Y-67182253D01*
X148668748Y-67361858D01*
X148654605Y-67376000D01*
X148668748Y-67390143D01*
X148489143Y-67569748D01*
X148475000Y-67555605D01*
X148460858Y-67569748D01*
X148281253Y-67390143D01*
X148295395Y-67376000D01*
X147418769Y-66499374D01*
X147165711Y-66581727D01*
X147139730Y-66635910D01*
X147067606Y-66563786D01*
X146951625Y-66679767D01*
X146869273Y-66426711D01*
X146598582Y-66296914D01*
X146307770Y-66222420D01*
X146008012Y-66206092D01*
X145710829Y-66248557D01*
X145427641Y-66348184D01*
X145280727Y-66426711D01*
X145198374Y-66679769D01*
X146075000Y-67556395D01*
X146089143Y-67542253D01*
X146268748Y-67721858D01*
X146254605Y-67736000D01*
X147131231Y-68612626D01*
X147384289Y-68530273D01*
X147410270Y-68476090D01*
X147482394Y-68548214D01*
X147598375Y-68432233D01*
X147680727Y-68685289D01*
X147951418Y-68815086D01*
X148242230Y-68889580D01*
X148541988Y-68905908D01*
X148839171Y-68863443D01*
X149122359Y-68763816D01*
X149269273Y-68685289D01*
X149340000Y-68467955D01*
X149340001Y-129340000D01*
X60660000Y-129340000D01*
X60660000Y-124737323D01*
X62333000Y-124737323D01*
X62333000Y-125262677D01*
X62435492Y-125777935D01*
X62636536Y-126263298D01*
X62928406Y-126700113D01*
X63299887Y-127071594D01*
X63736702Y-127363464D01*
X64222065Y-127564508D01*
X64737323Y-127667000D01*
X65262677Y-127667000D01*
X65777935Y-127564508D01*
X66263298Y-127363464D01*
X66700113Y-127071594D01*
X67071594Y-126700113D01*
X67363464Y-126263298D01*
X67564508Y-125777935D01*
X67667000Y-125262677D01*
X67667000Y-124737323D01*
X142333000Y-124737323D01*
X142333000Y-125262677D01*
X142435492Y-125777935D01*
X142636536Y-126263298D01*
X142928406Y-126700113D01*
X143299887Y-127071594D01*
X143736702Y-127363464D01*
X144222065Y-127564508D01*
X144737323Y-127667000D01*
X145262677Y-127667000D01*
X145777935Y-127564508D01*
X146263298Y-127363464D01*
X146700113Y-127071594D01*
X147071594Y-126700113D01*
X147363464Y-126263298D01*
X147564508Y-125777935D01*
X147667000Y-125262677D01*
X147667000Y-124737323D01*
X147564508Y-124222065D01*
X147363464Y-123736702D01*
X147071594Y-123299887D01*
X146700113Y-122928406D01*
X146263298Y-122636536D01*
X145777935Y-122435492D01*
X145262677Y-122333000D01*
X144737323Y-122333000D01*
X144222065Y-122435492D01*
X143736702Y-122636536D01*
X143299887Y-122928406D01*
X142928406Y-123299887D01*
X142636536Y-123736702D01*
X142435492Y-124222065D01*
X142333000Y-124737323D01*
X67667000Y-124737323D01*
X67564508Y-124222065D01*
X67363464Y-123736702D01*
X67071594Y-123299887D01*
X66700113Y-122928406D01*
X66263298Y-122636536D01*
X65777935Y-122435492D01*
X65262677Y-122333000D01*
X64737323Y-122333000D01*
X64222065Y-122435492D01*
X63736702Y-122636536D01*
X63299887Y-122928406D01*
X62928406Y-123299887D01*
X62636536Y-123736702D01*
X62435492Y-124222065D01*
X62333000Y-124737323D01*
X60660000Y-124737323D01*
X60660000Y-120550000D01*
X74811928Y-120550000D01*
X74824188Y-120674482D01*
X74860498Y-120794180D01*
X74919463Y-120904494D01*
X74998815Y-121001185D01*
X75095506Y-121080537D01*
X75205820Y-121139502D01*
X75325518Y-121175812D01*
X75450000Y-121188072D01*
X76014250Y-121185000D01*
X76173000Y-121026250D01*
X76173000Y-119827000D01*
X76427000Y-119827000D01*
X76427000Y-121026250D01*
X76585750Y-121185000D01*
X77150000Y-121188072D01*
X77274482Y-121175812D01*
X77394180Y-121139502D01*
X77504494Y-121080537D01*
X77601185Y-121001185D01*
X77680537Y-120904494D01*
X77739502Y-120794180D01*
X77775812Y-120674482D01*
X77788072Y-120550000D01*
X86611928Y-120550000D01*
X86624188Y-120674482D01*
X86660498Y-120794180D01*
X86719463Y-120904494D01*
X86798815Y-121001185D01*
X86895506Y-121080537D01*
X87005820Y-121139502D01*
X87125518Y-121175812D01*
X87250000Y-121188072D01*
X87814250Y-121185000D01*
X87973000Y-121026250D01*
X87973000Y-119827000D01*
X88227000Y-119827000D01*
X88227000Y-121026250D01*
X88385750Y-121185000D01*
X88950000Y-121188072D01*
X89074482Y-121175812D01*
X89194180Y-121139502D01*
X89304494Y-121080537D01*
X89401185Y-121001185D01*
X89480537Y-120904494D01*
X89539502Y-120794180D01*
X89575812Y-120674482D01*
X89588072Y-120550000D01*
X89585000Y-119985750D01*
X89426250Y-119827000D01*
X88227000Y-119827000D01*
X87973000Y-119827000D01*
X86773750Y-119827000D01*
X86615000Y-119985750D01*
X86611928Y-120550000D01*
X77788072Y-120550000D01*
X77785000Y-119985750D01*
X77626250Y-119827000D01*
X76427000Y-119827000D01*
X76173000Y-119827000D01*
X74973750Y-119827000D01*
X74815000Y-119985750D01*
X74811928Y-120550000D01*
X60660000Y-120550000D01*
X60660000Y-117160000D01*
X74807815Y-117160000D01*
X74836487Y-117451111D01*
X74921401Y-117731034D01*
X75059294Y-117989014D01*
X75244866Y-118215134D01*
X75274687Y-118239607D01*
X75205820Y-118260498D01*
X75095506Y-118319463D01*
X74998815Y-118398815D01*
X74919463Y-118495506D01*
X74860498Y-118605820D01*
X74824188Y-118725518D01*
X74811928Y-118850000D01*
X74815000Y-119414250D01*
X74973750Y-119573000D01*
X76173000Y-119573000D01*
X76173000Y-119553000D01*
X76427000Y-119553000D01*
X76427000Y-119573000D01*
X77626250Y-119573000D01*
X77785000Y-119414250D01*
X77788072Y-118850000D01*
X77775812Y-118725518D01*
X77739502Y-118605820D01*
X77680537Y-118495506D01*
X77601185Y-118398815D01*
X77504494Y-118319463D01*
X77394180Y-118260498D01*
X77325313Y-118239607D01*
X77355134Y-118215134D01*
X77540706Y-117989014D01*
X77678599Y-117731034D01*
X77763513Y-117451111D01*
X77792185Y-117160000D01*
X86607815Y-117160000D01*
X86636487Y-117451111D01*
X86721401Y-117731034D01*
X86859294Y-117989014D01*
X87044866Y-118215134D01*
X87074687Y-118239607D01*
X87005820Y-118260498D01*
X86895506Y-118319463D01*
X86798815Y-118398815D01*
X86719463Y-118495506D01*
X86660498Y-118605820D01*
X86624188Y-118725518D01*
X86611928Y-118850000D01*
X86615000Y-119414250D01*
X86773750Y-119573000D01*
X87973000Y-119573000D01*
X87973000Y-119553000D01*
X88227000Y-119553000D01*
X88227000Y-119573000D01*
X89426250Y-119573000D01*
X89585000Y-119414250D01*
X89588072Y-118850000D01*
X89575812Y-118725518D01*
X89539502Y-118605820D01*
X89480537Y-118495506D01*
X89401185Y-118398815D01*
X89304494Y-118319463D01*
X89194180Y-118260498D01*
X89125313Y-118239607D01*
X89155134Y-118215134D01*
X89340706Y-117989014D01*
X89478599Y-117731034D01*
X89563513Y-117451111D01*
X89592185Y-117160000D01*
X89563513Y-116868889D01*
X89478599Y-116588966D01*
X89340706Y-116330986D01*
X89155134Y-116104866D01*
X88929014Y-115919294D01*
X88671034Y-115781401D01*
X88391111Y-115696487D01*
X88172950Y-115675000D01*
X88027050Y-115675000D01*
X87808889Y-115696487D01*
X87528966Y-115781401D01*
X87270986Y-115919294D01*
X87044866Y-116104866D01*
X86859294Y-116330986D01*
X86721401Y-116588966D01*
X86636487Y-116868889D01*
X86607815Y-117160000D01*
X77792185Y-117160000D01*
X77763513Y-116868889D01*
X77678599Y-116588966D01*
X77540706Y-116330986D01*
X77355134Y-116104866D01*
X77129014Y-115919294D01*
X76871034Y-115781401D01*
X76591111Y-115696487D01*
X76372950Y-115675000D01*
X76227050Y-115675000D01*
X76008889Y-115696487D01*
X75728966Y-115781401D01*
X75470986Y-115919294D01*
X75244866Y-116104866D01*
X75059294Y-116330986D01*
X74921401Y-116588966D01*
X74836487Y-116868889D01*
X74807815Y-117160000D01*
X60660000Y-117160000D01*
X60660000Y-109340000D01*
X74807815Y-109340000D01*
X74836487Y-109631111D01*
X74921401Y-109911034D01*
X75059294Y-110169014D01*
X75244866Y-110395134D01*
X75470986Y-110580706D01*
X75728966Y-110718599D01*
X76008889Y-110803513D01*
X76227050Y-110825000D01*
X76372950Y-110825000D01*
X76591111Y-110803513D01*
X76871034Y-110718599D01*
X77129014Y-110580706D01*
X77355134Y-110395134D01*
X77540706Y-110169014D01*
X77678599Y-109911034D01*
X77763513Y-109631111D01*
X77792185Y-109340000D01*
X77763513Y-109048889D01*
X77678599Y-108768966D01*
X77540706Y-108510986D01*
X77355134Y-108284866D01*
X77325313Y-108260393D01*
X77394180Y-108239502D01*
X77504494Y-108180537D01*
X77601185Y-108101185D01*
X77680537Y-108004494D01*
X77739502Y-107894180D01*
X77775812Y-107774482D01*
X77788072Y-107650000D01*
X77785000Y-107085750D01*
X77626250Y-106927000D01*
X76427000Y-106927000D01*
X76427000Y-106947000D01*
X76173000Y-106947000D01*
X76173000Y-106927000D01*
X74973750Y-106927000D01*
X74815000Y-107085750D01*
X74811928Y-107650000D01*
X74824188Y-107774482D01*
X74860498Y-107894180D01*
X74919463Y-108004494D01*
X74998815Y-108101185D01*
X75095506Y-108180537D01*
X75205820Y-108239502D01*
X75274687Y-108260393D01*
X75244866Y-108284866D01*
X75059294Y-108510986D01*
X74921401Y-108768966D01*
X74836487Y-109048889D01*
X74807815Y-109340000D01*
X60660000Y-109340000D01*
X60660000Y-105950000D01*
X74811928Y-105950000D01*
X74815000Y-106514250D01*
X74973750Y-106673000D01*
X76173000Y-106673000D01*
X76173000Y-105473750D01*
X76427000Y-105473750D01*
X76427000Y-106673000D01*
X77626250Y-106673000D01*
X77785000Y-106514250D01*
X77788072Y-105950000D01*
X77775812Y-105825518D01*
X77739502Y-105705820D01*
X77724759Y-105678237D01*
X77849998Y-105653326D01*
X78038356Y-105575305D01*
X78207874Y-105462037D01*
X78352037Y-105317874D01*
X78465305Y-105148356D01*
X78543326Y-104959998D01*
X78583100Y-104760039D01*
X78583100Y-104556161D01*
X78543326Y-104356202D01*
X78465305Y-104167844D01*
X78352037Y-103998326D01*
X78308100Y-103954389D01*
X78308100Y-103812701D01*
X81282800Y-100838001D01*
X81282801Y-112898788D01*
X81238863Y-112942726D01*
X81125595Y-113112244D01*
X81047574Y-113300602D01*
X81007800Y-113500561D01*
X81007800Y-113704439D01*
X81047574Y-113904398D01*
X81125595Y-114092756D01*
X81238863Y-114262274D01*
X81383026Y-114406437D01*
X81552544Y-114519705D01*
X81740902Y-114597726D01*
X81940861Y-114637500D01*
X82144739Y-114637500D01*
X82344698Y-114597726D01*
X82533056Y-114519705D01*
X82702574Y-114406437D01*
X82846737Y-114262274D01*
X82960005Y-114092756D01*
X83038026Y-113904398D01*
X83077800Y-113704439D01*
X83077800Y-113500561D01*
X83038026Y-113300602D01*
X82960005Y-113112244D01*
X82846737Y-112942726D01*
X82802800Y-112898789D01*
X82802800Y-109300000D01*
X86607815Y-109300000D01*
X86636487Y-109591111D01*
X86721401Y-109871034D01*
X86859294Y-110129014D01*
X87044866Y-110355134D01*
X87270986Y-110540706D01*
X87528966Y-110678599D01*
X87808889Y-110763513D01*
X88027050Y-110785000D01*
X88172950Y-110785000D01*
X88391111Y-110763513D01*
X88671034Y-110678599D01*
X88929014Y-110540706D01*
X89155134Y-110355134D01*
X89340706Y-110129014D01*
X89478599Y-109871034D01*
X89563513Y-109591111D01*
X89592185Y-109300000D01*
X89563513Y-109008889D01*
X89478599Y-108728966D01*
X89340706Y-108470986D01*
X89155134Y-108244866D01*
X89125313Y-108220393D01*
X89194180Y-108199502D01*
X89304494Y-108140537D01*
X89401185Y-108061185D01*
X89480537Y-107964494D01*
X89539502Y-107854180D01*
X89575812Y-107734482D01*
X89588072Y-107610000D01*
X89585000Y-107045750D01*
X89507311Y-106968061D01*
X92535000Y-106968061D01*
X92535000Y-107171939D01*
X92574774Y-107371898D01*
X92652795Y-107560256D01*
X92766063Y-107729774D01*
X92810001Y-107773712D01*
X92810000Y-109966289D01*
X92766063Y-110010226D01*
X92652795Y-110179744D01*
X92574774Y-110368102D01*
X92535000Y-110568061D01*
X92535000Y-110771939D01*
X92574774Y-110971898D01*
X92652795Y-111160256D01*
X92766063Y-111329774D01*
X92910226Y-111473937D01*
X93079744Y-111587205D01*
X93268102Y-111665226D01*
X93468061Y-111705000D01*
X93671939Y-111705000D01*
X93871898Y-111665226D01*
X94060256Y-111587205D01*
X94229774Y-111473937D01*
X94373937Y-111329774D01*
X94487205Y-111160256D01*
X94565226Y-110971898D01*
X94605000Y-110771939D01*
X94605000Y-110568061D01*
X94565226Y-110368102D01*
X94487205Y-110179744D01*
X94373937Y-110010226D01*
X94330000Y-109966289D01*
X94330000Y-107773711D01*
X94373937Y-107729774D01*
X94487205Y-107560256D01*
X94565226Y-107371898D01*
X94605000Y-107171939D01*
X94605000Y-106968061D01*
X94565226Y-106768102D01*
X94487205Y-106579744D01*
X94373937Y-106410226D01*
X94229774Y-106266063D01*
X94060256Y-106152795D01*
X93871898Y-106074774D01*
X93671939Y-106035000D01*
X93468061Y-106035000D01*
X93268102Y-106074774D01*
X93079744Y-106152795D01*
X92910226Y-106266063D01*
X92766063Y-106410226D01*
X92652795Y-106579744D01*
X92574774Y-106768102D01*
X92535000Y-106968061D01*
X89507311Y-106968061D01*
X89426250Y-106887000D01*
X88227000Y-106887000D01*
X88227000Y-106907000D01*
X87973000Y-106907000D01*
X87973000Y-106887000D01*
X86773750Y-106887000D01*
X86615000Y-107045750D01*
X86611928Y-107610000D01*
X86624188Y-107734482D01*
X86660498Y-107854180D01*
X86719463Y-107964494D01*
X86798815Y-108061185D01*
X86895506Y-108140537D01*
X87005820Y-108199502D01*
X87074687Y-108220393D01*
X87044866Y-108244866D01*
X86859294Y-108470986D01*
X86721401Y-108728966D01*
X86636487Y-109008889D01*
X86607815Y-109300000D01*
X82802800Y-109300000D01*
X82802800Y-105910000D01*
X86611928Y-105910000D01*
X86615000Y-106474250D01*
X86773750Y-106633000D01*
X87973000Y-106633000D01*
X87973000Y-105433750D01*
X88227000Y-105433750D01*
X88227000Y-106633000D01*
X89426250Y-106633000D01*
X89585000Y-106474250D01*
X89588072Y-105910000D01*
X89575812Y-105785518D01*
X89539502Y-105665820D01*
X89480537Y-105555506D01*
X89401185Y-105458815D01*
X89304494Y-105379463D01*
X89194180Y-105320498D01*
X89074482Y-105284188D01*
X88950000Y-105271928D01*
X88385750Y-105275000D01*
X88227000Y-105433750D01*
X87973000Y-105433750D01*
X87814250Y-105275000D01*
X87250000Y-105271928D01*
X87125518Y-105284188D01*
X87005820Y-105320498D01*
X86895506Y-105379463D01*
X86798815Y-105458815D01*
X86719463Y-105555506D01*
X86660498Y-105665820D01*
X86624188Y-105785518D01*
X86611928Y-105910000D01*
X82802800Y-105910000D01*
X82802800Y-101250000D01*
X86211928Y-101250000D01*
X86224188Y-101374482D01*
X86260498Y-101494180D01*
X86319463Y-101604494D01*
X86398815Y-101701185D01*
X86495506Y-101780537D01*
X86605820Y-101839502D01*
X86725518Y-101875812D01*
X86850000Y-101888072D01*
X87414250Y-101885000D01*
X87573000Y-101726250D01*
X87573000Y-100527000D01*
X87827000Y-100527000D01*
X87827000Y-101726250D01*
X87985750Y-101885000D01*
X88550000Y-101888072D01*
X88674482Y-101875812D01*
X88794180Y-101839502D01*
X88904494Y-101780537D01*
X89001185Y-101701185D01*
X89080537Y-101604494D01*
X89139502Y-101494180D01*
X89175812Y-101374482D01*
X89188072Y-101250000D01*
X89185000Y-100685750D01*
X89026250Y-100527000D01*
X87827000Y-100527000D01*
X87573000Y-100527000D01*
X86373750Y-100527000D01*
X86215000Y-100685750D01*
X86211928Y-101250000D01*
X82802800Y-101250000D01*
X82802800Y-100533701D01*
X85476501Y-97860000D01*
X86207815Y-97860000D01*
X86236487Y-98151111D01*
X86321401Y-98431034D01*
X86459294Y-98689014D01*
X86644866Y-98915134D01*
X86674687Y-98939607D01*
X86605820Y-98960498D01*
X86495506Y-99019463D01*
X86398815Y-99098815D01*
X86319463Y-99195506D01*
X86260498Y-99305820D01*
X86224188Y-99425518D01*
X86211928Y-99550000D01*
X86215000Y-100114250D01*
X86373750Y-100273000D01*
X87573000Y-100273000D01*
X87573000Y-100253000D01*
X87827000Y-100253000D01*
X87827000Y-100273000D01*
X89026250Y-100273000D01*
X89185000Y-100114250D01*
X89188072Y-99550000D01*
X89175812Y-99425518D01*
X89139502Y-99305820D01*
X89080537Y-99195506D01*
X89001185Y-99098815D01*
X88904494Y-99019463D01*
X88794180Y-98960498D01*
X88725313Y-98939607D01*
X88755134Y-98915134D01*
X88940706Y-98689014D01*
X89078599Y-98431034D01*
X89163513Y-98151111D01*
X89192185Y-97860000D01*
X89163513Y-97568889D01*
X89078599Y-97288966D01*
X88940706Y-97030986D01*
X88755134Y-96804866D01*
X88529014Y-96619294D01*
X88271034Y-96481401D01*
X87991111Y-96396487D01*
X87772950Y-96375000D01*
X87627050Y-96375000D01*
X87408889Y-96396487D01*
X87128966Y-96481401D01*
X86870986Y-96619294D01*
X86644866Y-96804866D01*
X86459294Y-97030986D01*
X86321401Y-97288966D01*
X86236487Y-97568889D01*
X86207815Y-97860000D01*
X85476501Y-97860000D01*
X89704903Y-93631599D01*
X89733901Y-93607801D01*
X89828874Y-93492076D01*
X89899446Y-93360047D01*
X89942903Y-93216786D01*
X89953900Y-93105133D01*
X89957577Y-93067800D01*
X89953900Y-93030467D01*
X89953900Y-84328701D01*
X91597390Y-82685212D01*
X91700063Y-82838874D01*
X91744001Y-82882812D01*
X91744000Y-101776678D01*
X91740324Y-101814000D01*
X91744000Y-101851322D01*
X91744000Y-101851332D01*
X91754997Y-101962985D01*
X91795990Y-102098124D01*
X91798454Y-102106246D01*
X91869026Y-102238276D01*
X91903140Y-102279844D01*
X91963999Y-102354001D01*
X91993002Y-102377804D01*
X93024438Y-103409240D01*
X93093999Y-103494001D01*
X93123003Y-103517804D01*
X102799300Y-113194102D01*
X102799301Y-115406288D01*
X102755363Y-115450226D01*
X102642095Y-115619744D01*
X102564074Y-115808102D01*
X102524300Y-116008061D01*
X102524300Y-116211939D01*
X102564074Y-116411898D01*
X102642095Y-116600256D01*
X102755363Y-116769774D01*
X102899526Y-116913937D01*
X103069044Y-117027205D01*
X103090559Y-117036117D01*
X102942026Y-117135363D01*
X102797863Y-117279526D01*
X102684595Y-117449044D01*
X102606574Y-117637402D01*
X102566800Y-117837361D01*
X102566800Y-118041239D01*
X102606574Y-118241198D01*
X102684595Y-118429556D01*
X102797863Y-118599074D01*
X102942026Y-118743237D01*
X103111544Y-118856505D01*
X103299902Y-118934526D01*
X103499861Y-118974300D01*
X103703739Y-118974300D01*
X103903698Y-118934526D01*
X104092056Y-118856505D01*
X104261574Y-118743237D01*
X104405737Y-118599074D01*
X104519005Y-118429556D01*
X104597026Y-118241198D01*
X104636800Y-118041239D01*
X104636800Y-117979102D01*
X104893802Y-117722099D01*
X104922801Y-117698301D01*
X105017774Y-117582576D01*
X105088346Y-117450547D01*
X105131803Y-117307286D01*
X105142800Y-117195633D01*
X105142800Y-117195625D01*
X105146476Y-117158300D01*
X105142800Y-117120975D01*
X105142800Y-117090000D01*
X118611928Y-117090000D01*
X118624188Y-117214482D01*
X118660498Y-117334180D01*
X118719463Y-117444494D01*
X118798815Y-117541185D01*
X118895506Y-117620537D01*
X119005820Y-117679502D01*
X119125518Y-117715812D01*
X119250000Y-117728072D01*
X119814250Y-117725000D01*
X119973000Y-117566250D01*
X119973000Y-116367000D01*
X120227000Y-116367000D01*
X120227000Y-117566250D01*
X120385750Y-117725000D01*
X120950000Y-117728072D01*
X121074482Y-117715812D01*
X121194180Y-117679502D01*
X121304494Y-117620537D01*
X121401185Y-117541185D01*
X121480537Y-117444494D01*
X121539502Y-117334180D01*
X121575812Y-117214482D01*
X121588072Y-117090000D01*
X121585000Y-116525750D01*
X121426250Y-116367000D01*
X120227000Y-116367000D01*
X119973000Y-116367000D01*
X118773750Y-116367000D01*
X118615000Y-116525750D01*
X118611928Y-117090000D01*
X105142800Y-117090000D01*
X105142800Y-113700000D01*
X118607815Y-113700000D01*
X118636487Y-113991111D01*
X118721401Y-114271034D01*
X118859294Y-114529014D01*
X119044866Y-114755134D01*
X119074687Y-114779607D01*
X119005820Y-114800498D01*
X118895506Y-114859463D01*
X118798815Y-114938815D01*
X118719463Y-115035506D01*
X118660498Y-115145820D01*
X118624188Y-115265518D01*
X118611928Y-115390000D01*
X118615000Y-115954250D01*
X118773750Y-116113000D01*
X119973000Y-116113000D01*
X119973000Y-116093000D01*
X120227000Y-116093000D01*
X120227000Y-116113000D01*
X121426250Y-116113000D01*
X121585000Y-115954250D01*
X121588072Y-115390000D01*
X121575812Y-115265518D01*
X121539502Y-115145820D01*
X121480537Y-115035506D01*
X121401185Y-114938815D01*
X121304494Y-114859463D01*
X121194180Y-114800498D01*
X121125313Y-114779607D01*
X121155134Y-114755134D01*
X121340706Y-114529014D01*
X121478599Y-114271034D01*
X121563513Y-113991111D01*
X121592185Y-113700000D01*
X121563513Y-113408889D01*
X121478599Y-113128966D01*
X121340706Y-112870986D01*
X121155134Y-112644866D01*
X120929014Y-112459294D01*
X120671034Y-112321401D01*
X120391111Y-112236487D01*
X120172950Y-112215000D01*
X120027050Y-112215000D01*
X119808889Y-112236487D01*
X119528966Y-112321401D01*
X119270986Y-112459294D01*
X119044866Y-112644866D01*
X118859294Y-112870986D01*
X118721401Y-113128966D01*
X118636487Y-113408889D01*
X118607815Y-113700000D01*
X105142800Y-113700000D01*
X105142800Y-109225501D01*
X106121600Y-108246702D01*
X106121600Y-108401539D01*
X106161374Y-108601498D01*
X106239395Y-108789856D01*
X106352663Y-108959374D01*
X106496826Y-109103537D01*
X106666344Y-109216805D01*
X106854702Y-109294826D01*
X107054661Y-109334600D01*
X107258539Y-109334600D01*
X107458498Y-109294826D01*
X107646856Y-109216805D01*
X107816374Y-109103537D01*
X107860311Y-109059600D01*
X114106767Y-109059600D01*
X114144100Y-109063277D01*
X114181433Y-109059600D01*
X118136689Y-109059600D01*
X118056063Y-109140226D01*
X117942795Y-109309744D01*
X117864774Y-109498102D01*
X117825000Y-109698061D01*
X117825000Y-109901939D01*
X117864774Y-110101898D01*
X117942795Y-110290256D01*
X118056063Y-110459774D01*
X118200226Y-110603937D01*
X118369744Y-110717205D01*
X118558102Y-110795226D01*
X118758061Y-110835000D01*
X118961939Y-110835000D01*
X119161898Y-110795226D01*
X119350256Y-110717205D01*
X119465440Y-110640242D01*
X119975000Y-111149802D01*
X119975000Y-111211939D01*
X120014774Y-111411898D01*
X120092795Y-111600256D01*
X120206063Y-111769774D01*
X120350226Y-111913937D01*
X120519744Y-112027205D01*
X120708102Y-112105226D01*
X120908061Y-112145000D01*
X121111939Y-112145000D01*
X121311898Y-112105226D01*
X121500256Y-112027205D01*
X121669774Y-111913937D01*
X121813937Y-111769774D01*
X121927205Y-111600256D01*
X122005226Y-111411898D01*
X122045000Y-111211939D01*
X122045000Y-111008061D01*
X122005226Y-110808102D01*
X121927205Y-110619744D01*
X121813937Y-110450226D01*
X121669774Y-110306063D01*
X121500256Y-110192795D01*
X121311898Y-110114774D01*
X121111939Y-110075000D01*
X121049802Y-110075000D01*
X120263804Y-109289003D01*
X120240001Y-109259999D01*
X120124276Y-109165026D01*
X119992247Y-109094454D01*
X119877347Y-109059600D01*
X120737801Y-109059600D01*
X123801403Y-112123203D01*
X123825201Y-112152201D01*
X123940926Y-112247174D01*
X124072955Y-112317746D01*
X124216216Y-112361203D01*
X124327869Y-112372200D01*
X124327879Y-112372200D01*
X124365202Y-112375876D01*
X124402525Y-112372200D01*
X137134289Y-112372200D01*
X137178226Y-112416137D01*
X137347744Y-112529405D01*
X137536102Y-112607426D01*
X137736061Y-112647200D01*
X137939939Y-112647200D01*
X138139898Y-112607426D01*
X138328256Y-112529405D01*
X138497774Y-112416137D01*
X138641937Y-112271974D01*
X138755205Y-112102456D01*
X138833226Y-111914098D01*
X138873000Y-111714139D01*
X138873000Y-111510261D01*
X138833226Y-111310302D01*
X138755205Y-111121944D01*
X138641937Y-110952426D01*
X138598000Y-110908489D01*
X138598000Y-106671301D01*
X139292304Y-105976998D01*
X139321301Y-105953201D01*
X139416274Y-105837476D01*
X139486846Y-105705447D01*
X139530303Y-105562186D01*
X139541300Y-105450533D01*
X139541300Y-105450525D01*
X139544976Y-105413200D01*
X139541300Y-105375875D01*
X139541300Y-99609511D01*
X139585237Y-99565574D01*
X139698505Y-99396056D01*
X139776526Y-99207698D01*
X139816300Y-99007739D01*
X139816300Y-98803861D01*
X139776526Y-98603902D01*
X139698505Y-98415544D01*
X139585237Y-98246026D01*
X139541300Y-98202089D01*
X139541300Y-93214425D01*
X139544976Y-93177100D01*
X139541300Y-93139775D01*
X139541300Y-93139767D01*
X139530303Y-93028114D01*
X139486846Y-92884853D01*
X139416274Y-92752824D01*
X139321301Y-92637099D01*
X139292303Y-92613301D01*
X136893900Y-90214899D01*
X136893900Y-90152761D01*
X136854126Y-89952802D01*
X136776105Y-89764444D01*
X136692498Y-89639317D01*
X136706905Y-89617756D01*
X136784926Y-89429398D01*
X136824700Y-89229439D01*
X136824700Y-89025561D01*
X136784926Y-88825602D01*
X136706905Y-88637244D01*
X136593637Y-88467726D01*
X136449474Y-88323563D01*
X136279956Y-88210295D01*
X136091598Y-88132274D01*
X135891639Y-88092500D01*
X135829502Y-88092500D01*
X129166100Y-81429099D01*
X129166100Y-81366961D01*
X129126326Y-81167002D01*
X129048305Y-80978644D01*
X128935037Y-80809126D01*
X128790874Y-80664963D01*
X128621356Y-80551695D01*
X128432998Y-80473674D01*
X128253958Y-80438061D01*
X134775000Y-80438061D01*
X134775000Y-80641939D01*
X134814774Y-80841898D01*
X134892795Y-81030256D01*
X135006063Y-81199774D01*
X135150226Y-81343937D01*
X135319744Y-81457205D01*
X135508102Y-81535226D01*
X135708061Y-81575000D01*
X135911939Y-81575000D01*
X136111898Y-81535226D01*
X136300256Y-81457205D01*
X136469774Y-81343937D01*
X136613937Y-81199774D01*
X136727205Y-81030256D01*
X136805226Y-80841898D01*
X136834069Y-80696890D01*
X138724524Y-80696890D01*
X138769175Y-80844099D01*
X138894359Y-81106920D01*
X139068412Y-81340269D01*
X139284645Y-81535178D01*
X139534748Y-81684157D01*
X139535846Y-81684546D01*
X139364866Y-81824866D01*
X139179294Y-82050986D01*
X139041401Y-82308966D01*
X138956487Y-82588889D01*
X138927815Y-82880000D01*
X138956487Y-83171111D01*
X139041401Y-83451034D01*
X139179294Y-83709014D01*
X139364866Y-83935134D01*
X139590986Y-84120706D01*
X139848966Y-84258599D01*
X140128889Y-84343513D01*
X140347050Y-84365000D01*
X140492950Y-84365000D01*
X140711111Y-84343513D01*
X140991034Y-84258599D01*
X141249014Y-84120706D01*
X141475134Y-83935134D01*
X141660706Y-83709014D01*
X141690000Y-83654209D01*
X141719294Y-83709014D01*
X141904866Y-83935134D01*
X142130986Y-84120706D01*
X142388966Y-84258599D01*
X142668889Y-84343513D01*
X142887050Y-84365000D01*
X143032950Y-84365000D01*
X143251111Y-84343513D01*
X143531034Y-84258599D01*
X143789014Y-84120706D01*
X144015134Y-83935134D01*
X144200706Y-83709014D01*
X144338599Y-83451034D01*
X144423513Y-83171111D01*
X144452185Y-82880000D01*
X144423513Y-82588889D01*
X144338599Y-82308966D01*
X144200706Y-82050986D01*
X144015134Y-81824866D01*
X143789014Y-81639294D01*
X143589913Y-81532872D01*
X143803588Y-81340269D01*
X143977641Y-81106920D01*
X144102825Y-80844099D01*
X144147476Y-80696890D01*
X144026155Y-80467000D01*
X142833000Y-80467000D01*
X142833000Y-80487000D01*
X142579000Y-80487000D01*
X142579000Y-80467000D01*
X140293000Y-80467000D01*
X140293000Y-80487000D01*
X140039000Y-80487000D01*
X140039000Y-80467000D01*
X138845845Y-80467000D01*
X138724524Y-80696890D01*
X136834069Y-80696890D01*
X136845000Y-80641939D01*
X136845000Y-80438061D01*
X136805226Y-80238102D01*
X136727205Y-80049744D01*
X136682682Y-79983110D01*
X138724524Y-79983110D01*
X138845845Y-80213000D01*
X140039000Y-80213000D01*
X140039000Y-80193000D01*
X140293000Y-80193000D01*
X140293000Y-80213000D01*
X142579000Y-80213000D01*
X142579000Y-80193000D01*
X142833000Y-80193000D01*
X142833000Y-80213000D01*
X144026155Y-80213000D01*
X144147476Y-79983110D01*
X144102825Y-79835901D01*
X143977641Y-79573080D01*
X143803588Y-79339731D01*
X143587926Y-79145337D01*
X143591252Y-79144157D01*
X143841355Y-78995178D01*
X144057588Y-78800269D01*
X144231641Y-78566920D01*
X144356825Y-78304099D01*
X144401476Y-78156890D01*
X144280155Y-77927000D01*
X143087000Y-77927000D01*
X143087000Y-77947000D01*
X142833000Y-77947000D01*
X142833000Y-77927000D01*
X140547000Y-77927000D01*
X140547000Y-77947000D01*
X140293000Y-77947000D01*
X140293000Y-77927000D01*
X139099845Y-77927000D01*
X138978524Y-78156890D01*
X139023175Y-78304099D01*
X139148359Y-78566920D01*
X139322412Y-78800269D01*
X139538074Y-78994663D01*
X139534748Y-78995843D01*
X139284645Y-79144822D01*
X139068412Y-79339731D01*
X138894359Y-79573080D01*
X138769175Y-79835901D01*
X138724524Y-79983110D01*
X136682682Y-79983110D01*
X136613937Y-79880226D01*
X136570000Y-79836289D01*
X136570000Y-79794801D01*
X137079802Y-79285000D01*
X137141939Y-79285000D01*
X137341898Y-79245226D01*
X137530256Y-79167205D01*
X137699774Y-79053937D01*
X137843937Y-78909774D01*
X137957205Y-78740256D01*
X138035226Y-78551898D01*
X138075000Y-78351939D01*
X138075000Y-78148061D01*
X138035226Y-77948102D01*
X137957205Y-77759744D01*
X137843937Y-77590226D01*
X137699774Y-77446063D01*
X137530256Y-77332795D01*
X137341898Y-77254774D01*
X137141939Y-77215000D01*
X136938061Y-77215000D01*
X136738102Y-77254774D01*
X136549744Y-77332795D01*
X136380226Y-77446063D01*
X136236063Y-77590226D01*
X136122795Y-77759744D01*
X136044774Y-77948102D01*
X136005000Y-78148061D01*
X136005000Y-78210198D01*
X135298998Y-78916201D01*
X135270000Y-78939999D01*
X135246202Y-78968997D01*
X135246201Y-78968998D01*
X135175026Y-79055724D01*
X135104454Y-79187754D01*
X135077019Y-79278200D01*
X135060998Y-79331014D01*
X135052558Y-79416702D01*
X135046324Y-79480000D01*
X135050001Y-79517332D01*
X135050001Y-79836288D01*
X135006063Y-79880226D01*
X134892795Y-80049744D01*
X134814774Y-80238102D01*
X134775000Y-80438061D01*
X128253958Y-80438061D01*
X128233039Y-80433900D01*
X128029161Y-80433900D01*
X127829202Y-80473674D01*
X127640844Y-80551695D01*
X127471326Y-80664963D01*
X127327163Y-80809126D01*
X127213895Y-80978644D01*
X127135874Y-81167002D01*
X127096100Y-81366961D01*
X127096100Y-81570839D01*
X127135874Y-81770798D01*
X127213895Y-81959156D01*
X127327163Y-82128674D01*
X127471326Y-82272837D01*
X127640844Y-82386105D01*
X127829202Y-82464126D01*
X128029161Y-82503900D01*
X128091299Y-82503900D01*
X134754700Y-89167302D01*
X134754700Y-89229439D01*
X134794474Y-89429398D01*
X134872495Y-89617756D01*
X134956102Y-89742883D01*
X134941695Y-89764444D01*
X134863674Y-89952802D01*
X134823900Y-90152761D01*
X134823900Y-90356639D01*
X134863674Y-90556598D01*
X134941695Y-90744956D01*
X135054963Y-90914474D01*
X135199126Y-91058637D01*
X135368644Y-91171905D01*
X135557002Y-91249926D01*
X135756961Y-91289700D01*
X135819099Y-91289700D01*
X138021301Y-93491903D01*
X138021300Y-98202089D01*
X137977363Y-98246026D01*
X137864095Y-98415544D01*
X137786074Y-98603902D01*
X137746300Y-98803861D01*
X137746300Y-99007739D01*
X137786074Y-99207698D01*
X137864095Y-99396056D01*
X137977363Y-99565574D01*
X138021301Y-99609512D01*
X138021300Y-105098398D01*
X137326998Y-105792701D01*
X137298000Y-105816499D01*
X137274202Y-105845497D01*
X137274201Y-105845498D01*
X137203026Y-105932224D01*
X137132454Y-106064254D01*
X137102743Y-106162203D01*
X137088998Y-106207514D01*
X137079266Y-106306323D01*
X137074324Y-106356500D01*
X137078001Y-106393832D01*
X137078000Y-110852200D01*
X124680004Y-110852200D01*
X121616406Y-107788603D01*
X121592603Y-107759599D01*
X121476878Y-107664626D01*
X121344849Y-107594054D01*
X121201588Y-107550597D01*
X121089935Y-107539600D01*
X121089924Y-107539600D01*
X121052602Y-107535924D01*
X121015280Y-107539600D01*
X114904100Y-107539600D01*
X114904100Y-107179011D01*
X114948037Y-107135074D01*
X115061305Y-106965556D01*
X115139326Y-106777198D01*
X115179100Y-106577239D01*
X115179100Y-106507900D01*
X125108389Y-106507900D01*
X125046063Y-106570226D01*
X124932795Y-106739744D01*
X124854774Y-106928102D01*
X124815000Y-107128061D01*
X124815000Y-107331939D01*
X124854774Y-107531898D01*
X124932795Y-107720256D01*
X125046063Y-107889774D01*
X125190226Y-108033937D01*
X125359744Y-108147205D01*
X125548102Y-108225226D01*
X125748061Y-108265000D01*
X125951939Y-108265000D01*
X126151898Y-108225226D01*
X126340256Y-108147205D01*
X126509774Y-108033937D01*
X126653937Y-107889774D01*
X126767205Y-107720256D01*
X126845226Y-107531898D01*
X126885000Y-107331939D01*
X126885000Y-107128061D01*
X126845226Y-106928102D01*
X126767205Y-106739744D01*
X126653937Y-106570226D01*
X126591611Y-106507900D01*
X133208389Y-106507900D01*
X133252326Y-106551837D01*
X133421844Y-106665105D01*
X133610202Y-106743126D01*
X133810161Y-106782900D01*
X134014039Y-106782900D01*
X134213998Y-106743126D01*
X134402356Y-106665105D01*
X134571874Y-106551837D01*
X134655584Y-106468127D01*
X134663674Y-106508798D01*
X134741695Y-106697156D01*
X134854963Y-106866674D01*
X134999126Y-107010837D01*
X135168644Y-107124105D01*
X135357002Y-107202126D01*
X135556961Y-107241900D01*
X135760839Y-107241900D01*
X135960798Y-107202126D01*
X136149156Y-107124105D01*
X136318674Y-107010837D01*
X136462837Y-106866674D01*
X136576105Y-106697156D01*
X136654126Y-106508798D01*
X136693900Y-106308839D01*
X136693900Y-106246702D01*
X136993704Y-105946898D01*
X137022701Y-105923101D01*
X137082826Y-105849839D01*
X137117674Y-105807377D01*
X137188246Y-105675347D01*
X137188246Y-105675346D01*
X137231703Y-105532086D01*
X137242700Y-105420433D01*
X137242700Y-105420424D01*
X137246376Y-105383101D01*
X137242700Y-105345778D01*
X137242700Y-97318222D01*
X137246376Y-97280899D01*
X137242700Y-97243576D01*
X137242700Y-97243567D01*
X137231703Y-97131914D01*
X137188246Y-96988653D01*
X137169550Y-96953676D01*
X137117674Y-96856623D01*
X137046499Y-96769897D01*
X137022701Y-96740899D01*
X136993703Y-96717101D01*
X124795900Y-84519299D01*
X124795900Y-84457161D01*
X124756126Y-84257202D01*
X124678105Y-84068844D01*
X124564837Y-83899326D01*
X124420674Y-83755163D01*
X124251156Y-83641895D01*
X124062798Y-83563874D01*
X123862839Y-83524100D01*
X123658961Y-83524100D01*
X123459002Y-83563874D01*
X123270644Y-83641895D01*
X123206681Y-83684634D01*
X123170255Y-83596694D01*
X123056987Y-83427176D01*
X122912824Y-83283013D01*
X122743306Y-83169745D01*
X122554948Y-83091724D01*
X122354989Y-83051950D01*
X122151111Y-83051950D01*
X121951152Y-83091724D01*
X121762794Y-83169745D01*
X121593276Y-83283013D01*
X121449113Y-83427176D01*
X121335845Y-83596694D01*
X121257824Y-83785052D01*
X121218050Y-83985011D01*
X121218050Y-84188889D01*
X121257824Y-84388848D01*
X121335845Y-84577206D01*
X121449113Y-84746724D01*
X121593276Y-84890887D01*
X121762794Y-85004155D01*
X121951152Y-85082176D01*
X122151111Y-85121950D01*
X122213249Y-85121950D01*
X125381432Y-88290133D01*
X125358102Y-88294774D01*
X125169744Y-88372795D01*
X125000226Y-88486063D01*
X124856063Y-88630226D01*
X124742795Y-88799744D01*
X124664774Y-88988102D01*
X124625000Y-89188061D01*
X124625000Y-89391939D01*
X124664774Y-89591898D01*
X124742795Y-89780256D01*
X124856063Y-89949774D01*
X125000226Y-90093937D01*
X125169744Y-90207205D01*
X125358102Y-90285226D01*
X125558061Y-90325000D01*
X125620199Y-90325000D01*
X126720000Y-91424802D01*
X126720001Y-93576288D01*
X126676063Y-93620226D01*
X126562795Y-93789744D01*
X126484774Y-93978102D01*
X126445000Y-94178061D01*
X126445000Y-94240198D01*
X125058998Y-95626201D01*
X125030000Y-95649999D01*
X125006202Y-95678997D01*
X125006201Y-95678998D01*
X124935026Y-95765724D01*
X124864454Y-95897754D01*
X124843957Y-95965326D01*
X124820998Y-96041014D01*
X124811345Y-96139023D01*
X124806324Y-96190000D01*
X124810001Y-96227332D01*
X124810000Y-97116289D01*
X124766063Y-97160226D01*
X124652795Y-97329744D01*
X124574774Y-97518102D01*
X124535000Y-97718061D01*
X124535000Y-97921939D01*
X124574774Y-98121898D01*
X124652795Y-98310256D01*
X124766063Y-98479774D01*
X124770001Y-98483712D01*
X124770000Y-99226289D01*
X124726063Y-99270226D01*
X124612795Y-99439744D01*
X124534774Y-99628102D01*
X124495000Y-99828061D01*
X124495000Y-100031939D01*
X124534774Y-100231898D01*
X124612795Y-100420256D01*
X124726063Y-100589774D01*
X124870226Y-100733937D01*
X125039744Y-100847205D01*
X125228102Y-100925226D01*
X125428061Y-100965000D01*
X125488275Y-100965000D01*
X125564707Y-101027726D01*
X125585724Y-101044974D01*
X125717753Y-101115546D01*
X125861014Y-101159003D01*
X126010000Y-101173677D01*
X126047333Y-101170000D01*
X128636289Y-101170000D01*
X128680226Y-101213937D01*
X128849744Y-101327205D01*
X129038102Y-101405226D01*
X129238061Y-101445000D01*
X129441939Y-101445000D01*
X129641898Y-101405226D01*
X129830256Y-101327205D01*
X129999774Y-101213937D01*
X130143937Y-101069774D01*
X130257205Y-100900256D01*
X130335226Y-100711898D01*
X130375000Y-100511939D01*
X130375000Y-100308061D01*
X130335226Y-100108102D01*
X130257205Y-99919744D01*
X130143937Y-99750226D01*
X129999774Y-99606063D01*
X129830256Y-99492795D01*
X129641898Y-99414774D01*
X129441939Y-99375000D01*
X129238061Y-99375000D01*
X129038102Y-99414774D01*
X128849744Y-99492795D01*
X128680226Y-99606063D01*
X128636289Y-99650000D01*
X126529582Y-99650000D01*
X126525226Y-99628102D01*
X126447205Y-99439744D01*
X126333937Y-99270226D01*
X126290000Y-99226289D01*
X126290000Y-98563711D01*
X126373937Y-98479774D01*
X126487205Y-98310256D01*
X126565226Y-98121898D01*
X126605000Y-97921939D01*
X126605000Y-97718061D01*
X126565226Y-97518102D01*
X126487205Y-97329744D01*
X126373937Y-97160226D01*
X126330000Y-97116289D01*
X126330000Y-96504801D01*
X127519802Y-95315000D01*
X127581939Y-95315000D01*
X127781898Y-95275226D01*
X127970256Y-95197205D01*
X128139774Y-95083937D01*
X128283937Y-94939774D01*
X128397205Y-94770256D01*
X128475226Y-94581898D01*
X128515000Y-94381939D01*
X128515000Y-94178061D01*
X128475226Y-93978102D01*
X128397205Y-93789744D01*
X128283937Y-93620226D01*
X128240000Y-93576289D01*
X128240000Y-91148701D01*
X134716400Y-97625102D01*
X134716400Y-97687239D01*
X134756174Y-97887198D01*
X134834195Y-98075556D01*
X134947463Y-98245074D01*
X135091626Y-98389237D01*
X135261144Y-98502505D01*
X135449502Y-98580526D01*
X135649461Y-98620300D01*
X135722701Y-98620300D01*
X135722700Y-105068298D01*
X135619098Y-105171900D01*
X135556961Y-105171900D01*
X135357002Y-105211674D01*
X135168644Y-105289695D01*
X134999126Y-105402963D01*
X134915416Y-105486673D01*
X134907326Y-105446002D01*
X134829305Y-105257644D01*
X134716037Y-105088126D01*
X134571874Y-104943963D01*
X134402356Y-104830695D01*
X134213998Y-104752674D01*
X134014039Y-104712900D01*
X133810161Y-104712900D01*
X133610202Y-104752674D01*
X133421844Y-104830695D01*
X133252326Y-104943963D01*
X133208389Y-104987900D01*
X106448400Y-104987900D01*
X106448400Y-104519233D01*
X106452077Y-104481900D01*
X106437403Y-104332914D01*
X106393946Y-104189653D01*
X106323374Y-104057624D01*
X106252199Y-103970897D01*
X106228401Y-103941899D01*
X106199404Y-103918102D01*
X105716100Y-103434799D01*
X105716100Y-103057401D01*
X105778799Y-102994702D01*
X105794174Y-103071998D01*
X105872195Y-103260356D01*
X105985463Y-103429874D01*
X106129626Y-103574037D01*
X106299144Y-103687305D01*
X106487502Y-103765326D01*
X106687461Y-103805100D01*
X106891339Y-103805100D01*
X107091298Y-103765326D01*
X107279656Y-103687305D01*
X107449174Y-103574037D01*
X107593337Y-103429874D01*
X107706605Y-103260356D01*
X107782114Y-103078061D01*
X112245000Y-103078061D01*
X112245000Y-103281939D01*
X112284774Y-103481898D01*
X112362795Y-103670256D01*
X112476063Y-103839774D01*
X112620226Y-103983937D01*
X112789744Y-104097205D01*
X112978102Y-104175226D01*
X113178061Y-104215000D01*
X113381939Y-104215000D01*
X113581898Y-104175226D01*
X113770256Y-104097205D01*
X113939774Y-103983937D01*
X113983711Y-103940000D01*
X125724745Y-103940000D01*
X125838644Y-104016105D01*
X126027002Y-104094126D01*
X126226961Y-104133900D01*
X126430839Y-104133900D01*
X126630798Y-104094126D01*
X126819156Y-104016105D01*
X126988674Y-103902837D01*
X127132837Y-103758674D01*
X127246105Y-103589156D01*
X127324126Y-103400798D01*
X127363900Y-103200839D01*
X127363900Y-102996961D01*
X127324126Y-102797002D01*
X127246105Y-102608644D01*
X127132837Y-102439126D01*
X126988674Y-102294963D01*
X126819156Y-102181695D01*
X126630798Y-102103674D01*
X126430839Y-102063900D01*
X126226961Y-102063900D01*
X126027002Y-102103674D01*
X125838644Y-102181695D01*
X125669126Y-102294963D01*
X125544089Y-102420000D01*
X113983711Y-102420000D01*
X113939774Y-102376063D01*
X113770256Y-102262795D01*
X113581898Y-102184774D01*
X113381939Y-102145000D01*
X113178061Y-102145000D01*
X112978102Y-102184774D01*
X112789744Y-102262795D01*
X112620226Y-102376063D01*
X112476063Y-102520226D01*
X112362795Y-102689744D01*
X112284774Y-102878102D01*
X112245000Y-103078061D01*
X107782114Y-103078061D01*
X107784626Y-103071998D01*
X107824400Y-102872039D01*
X107824400Y-102668161D01*
X107798998Y-102540455D01*
X107800776Y-102522400D01*
X107797100Y-102485075D01*
X107797100Y-102126727D01*
X108114250Y-102125000D01*
X108273000Y-101966250D01*
X108273000Y-100767000D01*
X108527000Y-100767000D01*
X108527000Y-101966250D01*
X108685750Y-102125000D01*
X109250000Y-102128072D01*
X109374482Y-102115812D01*
X109494180Y-102079502D01*
X109604494Y-102020537D01*
X109701185Y-101941185D01*
X109780537Y-101844494D01*
X109839502Y-101734180D01*
X109875812Y-101614482D01*
X109882162Y-101550000D01*
X118611928Y-101550000D01*
X118624188Y-101674482D01*
X118660498Y-101794180D01*
X118719463Y-101904494D01*
X118798815Y-102001185D01*
X118895506Y-102080537D01*
X119005820Y-102139502D01*
X119125518Y-102175812D01*
X119250000Y-102188072D01*
X119814250Y-102185000D01*
X119973000Y-102026250D01*
X119973000Y-100827000D01*
X120227000Y-100827000D01*
X120227000Y-102026250D01*
X120385750Y-102185000D01*
X120950000Y-102188072D01*
X121074482Y-102175812D01*
X121194180Y-102139502D01*
X121304494Y-102080537D01*
X121401185Y-102001185D01*
X121480537Y-101904494D01*
X121539502Y-101794180D01*
X121575812Y-101674482D01*
X121588072Y-101550000D01*
X121585000Y-100985750D01*
X121426250Y-100827000D01*
X120227000Y-100827000D01*
X119973000Y-100827000D01*
X118773750Y-100827000D01*
X118615000Y-100985750D01*
X118611928Y-101550000D01*
X109882162Y-101550000D01*
X109888072Y-101490000D01*
X109885000Y-100925750D01*
X109726250Y-100767000D01*
X108527000Y-100767000D01*
X108273000Y-100767000D01*
X108253000Y-100767000D01*
X108253000Y-100513000D01*
X108273000Y-100513000D01*
X108273000Y-100493000D01*
X108527000Y-100493000D01*
X108527000Y-100513000D01*
X109726250Y-100513000D01*
X109885000Y-100354250D01*
X109888072Y-99790000D01*
X109875812Y-99665518D01*
X109839502Y-99545820D01*
X109780537Y-99435506D01*
X109701185Y-99338815D01*
X109604494Y-99259463D01*
X109494180Y-99200498D01*
X109425313Y-99179607D01*
X109455134Y-99155134D01*
X109640706Y-98929014D01*
X109778599Y-98671034D01*
X109863513Y-98391111D01*
X109886275Y-98160000D01*
X118607815Y-98160000D01*
X118636487Y-98451111D01*
X118721401Y-98731034D01*
X118859294Y-98989014D01*
X119044866Y-99215134D01*
X119074687Y-99239607D01*
X119005820Y-99260498D01*
X118895506Y-99319463D01*
X118798815Y-99398815D01*
X118719463Y-99495506D01*
X118660498Y-99605820D01*
X118624188Y-99725518D01*
X118611928Y-99850000D01*
X118615000Y-100414250D01*
X118773750Y-100573000D01*
X119973000Y-100573000D01*
X119973000Y-100553000D01*
X120227000Y-100553000D01*
X120227000Y-100573000D01*
X121426250Y-100573000D01*
X121585000Y-100414250D01*
X121588072Y-99850000D01*
X121575812Y-99725518D01*
X121539502Y-99605820D01*
X121480537Y-99495506D01*
X121401185Y-99398815D01*
X121304494Y-99319463D01*
X121194180Y-99260498D01*
X121125313Y-99239607D01*
X121155134Y-99215134D01*
X121340706Y-98989014D01*
X121478599Y-98731034D01*
X121563513Y-98451111D01*
X121592185Y-98160000D01*
X121563513Y-97868889D01*
X121478599Y-97588966D01*
X121340706Y-97330986D01*
X121155134Y-97104866D01*
X120929014Y-96919294D01*
X120671034Y-96781401D01*
X120391111Y-96696487D01*
X120172950Y-96675000D01*
X120027050Y-96675000D01*
X119808889Y-96696487D01*
X119528966Y-96781401D01*
X119270986Y-96919294D01*
X119044866Y-97104866D01*
X118859294Y-97330986D01*
X118721401Y-97588966D01*
X118636487Y-97868889D01*
X118607815Y-98160000D01*
X109886275Y-98160000D01*
X109892185Y-98100000D01*
X109863513Y-97808889D01*
X109778599Y-97528966D01*
X109640706Y-97270986D01*
X109455134Y-97044866D01*
X109229014Y-96859294D01*
X108971034Y-96721401D01*
X108691111Y-96636487D01*
X108472950Y-96615000D01*
X108327050Y-96615000D01*
X108108889Y-96636487D01*
X107828966Y-96721401D01*
X107783649Y-96745624D01*
X107742646Y-96610453D01*
X107672074Y-96478424D01*
X107577101Y-96362699D01*
X107548103Y-96338901D01*
X106472604Y-95263402D01*
X106448801Y-95234399D01*
X106333076Y-95139426D01*
X106201047Y-95068854D01*
X106197041Y-95067639D01*
X103438500Y-92309099D01*
X103438500Y-91143451D01*
X103441761Y-91144100D01*
X103645639Y-91144100D01*
X103809421Y-91111522D01*
X107306200Y-94608302D01*
X107306200Y-94670439D01*
X107345974Y-94870398D01*
X107423995Y-95058756D01*
X107537263Y-95228274D01*
X107681426Y-95372437D01*
X107850944Y-95485705D01*
X108039302Y-95563726D01*
X108239261Y-95603500D01*
X108443139Y-95603500D01*
X108643098Y-95563726D01*
X108831456Y-95485705D01*
X109000974Y-95372437D01*
X109145137Y-95228274D01*
X109258405Y-95058756D01*
X109336426Y-94870398D01*
X109376200Y-94670439D01*
X109376200Y-94466561D01*
X109336426Y-94266602D01*
X109258405Y-94078244D01*
X109225234Y-94028600D01*
X109351539Y-94028600D01*
X109551498Y-93988826D01*
X109739856Y-93910805D01*
X109909374Y-93797537D01*
X110053537Y-93653374D01*
X110166805Y-93483856D01*
X110244826Y-93295498D01*
X110284600Y-93095539D01*
X110284600Y-92891661D01*
X110244826Y-92691702D01*
X110166805Y-92503344D01*
X110053537Y-92333826D01*
X109909374Y-92189663D01*
X109739856Y-92076395D01*
X109600092Y-92018502D01*
X109640706Y-91969014D01*
X109778599Y-91711034D01*
X109863513Y-91431111D01*
X109892185Y-91140000D01*
X118607815Y-91140000D01*
X118636487Y-91431111D01*
X118721401Y-91711034D01*
X118859294Y-91969014D01*
X119044866Y-92195134D01*
X119270986Y-92380706D01*
X119528966Y-92518599D01*
X119808889Y-92603513D01*
X120027050Y-92625000D01*
X120172950Y-92625000D01*
X120391111Y-92603513D01*
X120671034Y-92518599D01*
X120929014Y-92380706D01*
X121155134Y-92195134D01*
X121340706Y-91969014D01*
X121478599Y-91711034D01*
X121563513Y-91431111D01*
X121592185Y-91140000D01*
X121563513Y-90848889D01*
X121478599Y-90568966D01*
X121340706Y-90310986D01*
X121155134Y-90084866D01*
X121125313Y-90060393D01*
X121194180Y-90039502D01*
X121304494Y-89980537D01*
X121401185Y-89901185D01*
X121480537Y-89804494D01*
X121539502Y-89694180D01*
X121575812Y-89574482D01*
X121588072Y-89450000D01*
X121585000Y-88885750D01*
X121426250Y-88727000D01*
X120227000Y-88727000D01*
X120227000Y-88747000D01*
X119973000Y-88747000D01*
X119973000Y-88727000D01*
X118773750Y-88727000D01*
X118615000Y-88885750D01*
X118611928Y-89450000D01*
X118624188Y-89574482D01*
X118660498Y-89694180D01*
X118719463Y-89804494D01*
X118798815Y-89901185D01*
X118895506Y-89980537D01*
X119005820Y-90039502D01*
X119074687Y-90060393D01*
X119044866Y-90084866D01*
X118859294Y-90310986D01*
X118721401Y-90568966D01*
X118636487Y-90848889D01*
X118607815Y-91140000D01*
X109892185Y-91140000D01*
X109863513Y-90848889D01*
X109778599Y-90568966D01*
X109640706Y-90310986D01*
X109455134Y-90084866D01*
X109425313Y-90060393D01*
X109494180Y-90039502D01*
X109604494Y-89980537D01*
X109701185Y-89901185D01*
X109780537Y-89804494D01*
X109839502Y-89694180D01*
X109875812Y-89574482D01*
X109888072Y-89450000D01*
X109885000Y-88885750D01*
X109726250Y-88727000D01*
X108527000Y-88727000D01*
X108527000Y-88747000D01*
X108273000Y-88747000D01*
X108273000Y-88727000D01*
X107073750Y-88727000D01*
X106915000Y-88885750D01*
X106911928Y-89450000D01*
X106924188Y-89574482D01*
X106960498Y-89694180D01*
X107019463Y-89804494D01*
X107098815Y-89901185D01*
X107195506Y-89980537D01*
X107305820Y-90039502D01*
X107374687Y-90060393D01*
X107344866Y-90084866D01*
X107159294Y-90310986D01*
X107041836Y-90530734D01*
X104261102Y-87750000D01*
X106911928Y-87750000D01*
X106915000Y-88314250D01*
X107073750Y-88473000D01*
X108273000Y-88473000D01*
X108273000Y-87273750D01*
X108527000Y-87273750D01*
X108527000Y-88473000D01*
X109726250Y-88473000D01*
X109885000Y-88314250D01*
X109888072Y-87750000D01*
X118611928Y-87750000D01*
X118615000Y-88314250D01*
X118773750Y-88473000D01*
X119973000Y-88473000D01*
X119973000Y-87273750D01*
X120227000Y-87273750D01*
X120227000Y-88473000D01*
X121426250Y-88473000D01*
X121585000Y-88314250D01*
X121588072Y-87750000D01*
X121575812Y-87625518D01*
X121539502Y-87505820D01*
X121480537Y-87395506D01*
X121401185Y-87298815D01*
X121304494Y-87219463D01*
X121194180Y-87160498D01*
X121074482Y-87124188D01*
X120950000Y-87111928D01*
X120385750Y-87115000D01*
X120227000Y-87273750D01*
X119973000Y-87273750D01*
X119814250Y-87115000D01*
X119250000Y-87111928D01*
X119125518Y-87124188D01*
X119005820Y-87160498D01*
X118895506Y-87219463D01*
X118798815Y-87298815D01*
X118719463Y-87395506D01*
X118660498Y-87505820D01*
X118624188Y-87625518D01*
X118611928Y-87750000D01*
X109888072Y-87750000D01*
X109875812Y-87625518D01*
X109839502Y-87505820D01*
X109780537Y-87395506D01*
X109701185Y-87298815D01*
X109604494Y-87219463D01*
X109494180Y-87160498D01*
X109374482Y-87124188D01*
X109250000Y-87111928D01*
X108685750Y-87115000D01*
X108527000Y-87273750D01*
X108273000Y-87273750D01*
X108114250Y-87115000D01*
X107550000Y-87111928D01*
X107425518Y-87124188D01*
X107305820Y-87160498D01*
X107195506Y-87219463D01*
X107098815Y-87298815D01*
X107019463Y-87395506D01*
X106960498Y-87505820D01*
X106924188Y-87625518D01*
X106911928Y-87750000D01*
X104261102Y-87750000D01*
X95789301Y-79278200D01*
X112088089Y-79278200D01*
X112132026Y-79322137D01*
X112301544Y-79435405D01*
X112489902Y-79513426D01*
X112689861Y-79553200D01*
X112893739Y-79553200D01*
X113093698Y-79513426D01*
X113282056Y-79435405D01*
X113451574Y-79322137D01*
X113595737Y-79177974D01*
X113709005Y-79008456D01*
X113787026Y-78820098D01*
X113826800Y-78620139D01*
X113826800Y-78416261D01*
X113787026Y-78216302D01*
X113709005Y-78027944D01*
X113595737Y-77858426D01*
X113451574Y-77714263D01*
X113282056Y-77600995D01*
X113093698Y-77522974D01*
X112893739Y-77483200D01*
X112689861Y-77483200D01*
X112489902Y-77522974D01*
X112301544Y-77600995D01*
X112132026Y-77714263D01*
X112088089Y-77758200D01*
X95771111Y-77758200D01*
X95727174Y-77714263D01*
X95557656Y-77600995D01*
X95369298Y-77522974D01*
X95169339Y-77483200D01*
X95102000Y-77483200D01*
X95102000Y-76033707D01*
X95159574Y-75995237D01*
X95303737Y-75851074D01*
X95417005Y-75681556D01*
X95495026Y-75493198D01*
X95534800Y-75293239D01*
X95534800Y-75089361D01*
X95495026Y-74889402D01*
X95417005Y-74701044D01*
X95303737Y-74531526D01*
X95159574Y-74387363D01*
X94990056Y-74274095D01*
X94801698Y-74196074D01*
X94601739Y-74156300D01*
X94504700Y-74156300D01*
X94504700Y-74102841D01*
X94517061Y-74105300D01*
X94720939Y-74105300D01*
X94920898Y-74065526D01*
X95109256Y-73987505D01*
X95278774Y-73874237D01*
X95322711Y-73830300D01*
X100734565Y-73830300D01*
X100731195Y-73835344D01*
X100653174Y-74023702D01*
X100613400Y-74223661D01*
X100613400Y-74427539D01*
X100653174Y-74627498D01*
X100731195Y-74815856D01*
X100844463Y-74985374D01*
X100988626Y-75129537D01*
X101158144Y-75242805D01*
X101346502Y-75320826D01*
X101546461Y-75360600D01*
X101608599Y-75360600D01*
X102333800Y-76085802D01*
X102357599Y-76114801D01*
X102386597Y-76138599D01*
X102473324Y-76209774D01*
X102605353Y-76280346D01*
X102748614Y-76323803D01*
X102897600Y-76338477D01*
X102934933Y-76334800D01*
X114461799Y-76334800D01*
X119460900Y-81333902D01*
X119460900Y-81396039D01*
X119500674Y-81595998D01*
X119578695Y-81784356D01*
X119691963Y-81953874D01*
X119836126Y-82098037D01*
X120005644Y-82211305D01*
X120194002Y-82289326D01*
X120393961Y-82329100D01*
X120597839Y-82329100D01*
X120797798Y-82289326D01*
X120986156Y-82211305D01*
X121155674Y-82098037D01*
X121299837Y-81953874D01*
X121413105Y-81784356D01*
X121491126Y-81595998D01*
X121530900Y-81396039D01*
X121530900Y-81192161D01*
X121491126Y-80992202D01*
X121413105Y-80803844D01*
X121299837Y-80634326D01*
X121155674Y-80490163D01*
X120986156Y-80376895D01*
X120797798Y-80298874D01*
X120597839Y-80259100D01*
X120535702Y-80259100D01*
X115340404Y-75063803D01*
X115316601Y-75034799D01*
X115200876Y-74939826D01*
X115068847Y-74869254D01*
X114925586Y-74825797D01*
X114813933Y-74814800D01*
X114813922Y-74814800D01*
X114776600Y-74811124D01*
X114739278Y-74814800D01*
X103212402Y-74814800D01*
X102683400Y-74285799D01*
X102683400Y-74223661D01*
X102643626Y-74023702D01*
X102565605Y-73835344D01*
X102562235Y-73830300D01*
X119417699Y-73830300D01*
X123446100Y-77858702D01*
X123446100Y-77920839D01*
X123485874Y-78120798D01*
X123563895Y-78309156D01*
X123677163Y-78478674D01*
X123821326Y-78622837D01*
X123990844Y-78736105D01*
X124179202Y-78814126D01*
X124379161Y-78853900D01*
X124583039Y-78853900D01*
X124782998Y-78814126D01*
X124971356Y-78736105D01*
X125140874Y-78622837D01*
X125285037Y-78478674D01*
X125398305Y-78309156D01*
X125476326Y-78120798D01*
X125516100Y-77920839D01*
X125516100Y-77716961D01*
X125476326Y-77517002D01*
X125398305Y-77328644D01*
X125285037Y-77159126D01*
X125140874Y-77014963D01*
X124971356Y-76901695D01*
X124782998Y-76823674D01*
X124583039Y-76783900D01*
X124520902Y-76783900D01*
X123353892Y-75616890D01*
X138724524Y-75616890D01*
X138769175Y-75764099D01*
X138894359Y-76026920D01*
X139068412Y-76260269D01*
X139284645Y-76455178D01*
X139534748Y-76604157D01*
X139538074Y-76605337D01*
X139322412Y-76799731D01*
X139148359Y-77033080D01*
X139023175Y-77295901D01*
X138978524Y-77443110D01*
X139099845Y-77673000D01*
X140293000Y-77673000D01*
X140293000Y-77653000D01*
X140547000Y-77653000D01*
X140547000Y-77673000D01*
X142833000Y-77673000D01*
X142833000Y-77653000D01*
X143087000Y-77653000D01*
X143087000Y-77673000D01*
X144280155Y-77673000D01*
X144401476Y-77443110D01*
X144356825Y-77295901D01*
X144231641Y-77033080D01*
X144057588Y-76799731D01*
X143841355Y-76604822D01*
X143591252Y-76455843D01*
X143587926Y-76454663D01*
X143803588Y-76260269D01*
X143977641Y-76026920D01*
X144102825Y-75764099D01*
X144147476Y-75616890D01*
X144026155Y-75387000D01*
X142833000Y-75387000D01*
X142833000Y-75407000D01*
X142579000Y-75407000D01*
X142579000Y-75387000D01*
X140293000Y-75387000D01*
X140293000Y-75407000D01*
X140039000Y-75407000D01*
X140039000Y-75387000D01*
X138845845Y-75387000D01*
X138724524Y-75616890D01*
X123353892Y-75616890D01*
X120296304Y-72559303D01*
X120272501Y-72530299D01*
X120156776Y-72435326D01*
X120024747Y-72364754D01*
X119881486Y-72321297D01*
X119769833Y-72310300D01*
X119769822Y-72310300D01*
X119732500Y-72306624D01*
X119695178Y-72310300D01*
X95322711Y-72310300D01*
X95278774Y-72266363D01*
X95109256Y-72153095D01*
X94920898Y-72075074D01*
X94720939Y-72035300D01*
X94653700Y-72035300D01*
X94653700Y-70978902D01*
X94775402Y-70857200D01*
X94837539Y-70857200D01*
X95037498Y-70817426D01*
X95225856Y-70739405D01*
X95395374Y-70626137D01*
X95539537Y-70481974D01*
X95652805Y-70312456D01*
X95730826Y-70124098D01*
X95770600Y-69924139D01*
X95770600Y-69720261D01*
X95730826Y-69520302D01*
X95652805Y-69331944D01*
X95539537Y-69162426D01*
X95395374Y-69018263D01*
X95225856Y-68904995D01*
X95037498Y-68826974D01*
X94837539Y-68787200D01*
X94633661Y-68787200D01*
X94433702Y-68826974D01*
X94245344Y-68904995D01*
X94075826Y-69018263D01*
X93931663Y-69162426D01*
X93818395Y-69331944D01*
X93740374Y-69520302D01*
X93700600Y-69720261D01*
X93700600Y-69782398D01*
X93382702Y-70100297D01*
X93353699Y-70124099D01*
X93298571Y-70191274D01*
X93258726Y-70239824D01*
X93255170Y-70246477D01*
X93188154Y-70371854D01*
X93144697Y-70515115D01*
X93133700Y-70626768D01*
X93133700Y-70626778D01*
X93130024Y-70664100D01*
X93133700Y-70701423D01*
X93133701Y-71987800D01*
X93041561Y-71987800D01*
X92841602Y-72027574D01*
X92653244Y-72105595D01*
X92483726Y-72218863D01*
X92339563Y-72363026D01*
X92226295Y-72532544D01*
X92148274Y-72720902D01*
X92108500Y-72920861D01*
X92108500Y-73124739D01*
X92148274Y-73324698D01*
X92226295Y-73513056D01*
X92339563Y-73682574D01*
X92469301Y-73812312D01*
X92469300Y-80723989D01*
X92404474Y-80659163D01*
X92234956Y-80545895D01*
X92046598Y-80467874D01*
X91846639Y-80428100D01*
X91642761Y-80428100D01*
X91442802Y-80467874D01*
X91254444Y-80545895D01*
X91084926Y-80659163D01*
X90940763Y-80803326D01*
X90827495Y-80972844D01*
X90749474Y-81161202D01*
X90709700Y-81361161D01*
X90709700Y-81423298D01*
X88682903Y-83450096D01*
X88653899Y-83473899D01*
X88598771Y-83541074D01*
X88558926Y-83589624D01*
X88521984Y-83658737D01*
X88488354Y-83721654D01*
X88444897Y-83864915D01*
X88433900Y-83976568D01*
X88433900Y-83976578D01*
X88430224Y-84013900D01*
X88433900Y-84051222D01*
X88433900Y-86812560D01*
X87985750Y-86815000D01*
X87827000Y-86973750D01*
X87827000Y-88173000D01*
X87847000Y-88173000D01*
X87847000Y-88427000D01*
X87827000Y-88427000D01*
X87827000Y-88447000D01*
X87573000Y-88447000D01*
X87573000Y-88427000D01*
X87553000Y-88427000D01*
X87553000Y-88173000D01*
X87573000Y-88173000D01*
X87573000Y-86973750D01*
X87414250Y-86815000D01*
X86850000Y-86811928D01*
X86831100Y-86813789D01*
X86831100Y-75173611D01*
X86875037Y-75129674D01*
X86988305Y-74960156D01*
X87066326Y-74771798D01*
X87106100Y-74571839D01*
X87106100Y-74367961D01*
X87066326Y-74168002D01*
X87041425Y-74107886D01*
X87109737Y-74039574D01*
X87223005Y-73870056D01*
X87301026Y-73681698D01*
X87340800Y-73481739D01*
X87340800Y-73277861D01*
X87301026Y-73077902D01*
X87223005Y-72889544D01*
X87109737Y-72720026D01*
X86965574Y-72575863D01*
X86796056Y-72462595D01*
X86607698Y-72384574D01*
X86407739Y-72344800D01*
X86203861Y-72344800D01*
X86003902Y-72384574D01*
X85815544Y-72462595D01*
X85646026Y-72575863D01*
X85501863Y-72720026D01*
X85388595Y-72889544D01*
X85310574Y-73077902D01*
X85297682Y-73142716D01*
X79840498Y-78599901D01*
X79811500Y-78623699D01*
X79787702Y-78652697D01*
X79787701Y-78652698D01*
X79716526Y-78739424D01*
X79645954Y-78871454D01*
X79625162Y-78939999D01*
X79604397Y-79008456D01*
X79602498Y-79014715D01*
X79587824Y-79163700D01*
X79591501Y-79201032D01*
X79591500Y-84409589D01*
X79547563Y-84453526D01*
X79434295Y-84623044D01*
X79356274Y-84811402D01*
X79316500Y-85011361D01*
X79316500Y-85215239D01*
X79356274Y-85415198D01*
X79434295Y-85603556D01*
X79547563Y-85773074D01*
X79691726Y-85917237D01*
X79861244Y-86030505D01*
X80049602Y-86108526D01*
X80249561Y-86148300D01*
X80453439Y-86148300D01*
X80653398Y-86108526D01*
X80841756Y-86030505D01*
X81011274Y-85917237D01*
X81155437Y-85773074D01*
X81268705Y-85603556D01*
X81346726Y-85415198D01*
X81386500Y-85215239D01*
X81386500Y-85011361D01*
X81346726Y-84811402D01*
X81268705Y-84623044D01*
X81155437Y-84453526D01*
X81111500Y-84409589D01*
X81111500Y-79478501D01*
X85311101Y-75278901D01*
X85311100Y-94660098D01*
X77037098Y-102934101D01*
X77008100Y-102957899D01*
X76984302Y-102986897D01*
X76984301Y-102986898D01*
X76913126Y-103073624D01*
X76842554Y-103205654D01*
X76830241Y-103246246D01*
X76799098Y-103348914D01*
X76788101Y-103460567D01*
X76784424Y-103497900D01*
X76788101Y-103535232D01*
X76788101Y-103954388D01*
X76744163Y-103998326D01*
X76630895Y-104167844D01*
X76552874Y-104356202D01*
X76513100Y-104556161D01*
X76513100Y-104760039D01*
X76552874Y-104959998D01*
X76630895Y-105148356D01*
X76741675Y-105314151D01*
X76585750Y-105315000D01*
X76427000Y-105473750D01*
X76173000Y-105473750D01*
X76014250Y-105315000D01*
X75450000Y-105311928D01*
X75325518Y-105324188D01*
X75205820Y-105360498D01*
X75095506Y-105419463D01*
X74998815Y-105498815D01*
X74919463Y-105595506D01*
X74860498Y-105705820D01*
X74824188Y-105825518D01*
X74811928Y-105950000D01*
X60660000Y-105950000D01*
X60660000Y-101250000D01*
X75011928Y-101250000D01*
X75024188Y-101374482D01*
X75060498Y-101494180D01*
X75119463Y-101604494D01*
X75198815Y-101701185D01*
X75295506Y-101780537D01*
X75405820Y-101839502D01*
X75525518Y-101875812D01*
X75650000Y-101888072D01*
X76214250Y-101885000D01*
X76373000Y-101726250D01*
X76373000Y-100527000D01*
X76627000Y-100527000D01*
X76627000Y-101726250D01*
X76785750Y-101885000D01*
X77350000Y-101888072D01*
X77474482Y-101875812D01*
X77594180Y-101839502D01*
X77704494Y-101780537D01*
X77801185Y-101701185D01*
X77880537Y-101604494D01*
X77939502Y-101494180D01*
X77975812Y-101374482D01*
X77988072Y-101250000D01*
X77985000Y-100685750D01*
X77826250Y-100527000D01*
X76627000Y-100527000D01*
X76373000Y-100527000D01*
X75173750Y-100527000D01*
X75015000Y-100685750D01*
X75011928Y-101250000D01*
X60660000Y-101250000D01*
X60660000Y-97860000D01*
X75007815Y-97860000D01*
X75036487Y-98151111D01*
X75121401Y-98431034D01*
X75259294Y-98689014D01*
X75444866Y-98915134D01*
X75474687Y-98939607D01*
X75405820Y-98960498D01*
X75295506Y-99019463D01*
X75198815Y-99098815D01*
X75119463Y-99195506D01*
X75060498Y-99305820D01*
X75024188Y-99425518D01*
X75011928Y-99550000D01*
X75015000Y-100114250D01*
X75173750Y-100273000D01*
X76373000Y-100273000D01*
X76373000Y-100253000D01*
X76627000Y-100253000D01*
X76627000Y-100273000D01*
X77826250Y-100273000D01*
X77985000Y-100114250D01*
X77988072Y-99550000D01*
X77975812Y-99425518D01*
X77939502Y-99305820D01*
X77880537Y-99195506D01*
X77801185Y-99098815D01*
X77704494Y-99019463D01*
X77594180Y-98960498D01*
X77525313Y-98939607D01*
X77555134Y-98915134D01*
X77740706Y-98689014D01*
X77878599Y-98431034D01*
X77963513Y-98151111D01*
X77992185Y-97860000D01*
X77963513Y-97568889D01*
X77878599Y-97288966D01*
X77740706Y-97030986D01*
X77555134Y-96804866D01*
X77329014Y-96619294D01*
X77071034Y-96481401D01*
X76791111Y-96396487D01*
X76572950Y-96375000D01*
X76427050Y-96375000D01*
X76208889Y-96396487D01*
X75928966Y-96481401D01*
X75670986Y-96619294D01*
X75444866Y-96804866D01*
X75259294Y-97030986D01*
X75121401Y-97288966D01*
X75036487Y-97568889D01*
X75007815Y-97860000D01*
X60660000Y-97860000D01*
X60660000Y-90800000D01*
X74907815Y-90800000D01*
X74936487Y-91091111D01*
X75021401Y-91371034D01*
X75159294Y-91629014D01*
X75344866Y-91855134D01*
X75570986Y-92040706D01*
X75828966Y-92178599D01*
X76108889Y-92263513D01*
X76327050Y-92285000D01*
X76472950Y-92285000D01*
X76691111Y-92263513D01*
X76971034Y-92178599D01*
X77229014Y-92040706D01*
X77455134Y-91855134D01*
X77640706Y-91629014D01*
X77778599Y-91371034D01*
X77863513Y-91091111D01*
X77892185Y-90800000D01*
X77863513Y-90508889D01*
X77778599Y-90228966D01*
X77640706Y-89970986D01*
X77455134Y-89744866D01*
X77425313Y-89720393D01*
X77494180Y-89699502D01*
X77604494Y-89640537D01*
X77701185Y-89561185D01*
X77780537Y-89464494D01*
X77839502Y-89354180D01*
X77875812Y-89234482D01*
X77888072Y-89110000D01*
X77885000Y-88545750D01*
X77726250Y-88387000D01*
X76527000Y-88387000D01*
X76527000Y-88407000D01*
X76273000Y-88407000D01*
X76273000Y-88387000D01*
X75073750Y-88387000D01*
X74915000Y-88545750D01*
X74911928Y-89110000D01*
X74924188Y-89234482D01*
X74960498Y-89354180D01*
X75019463Y-89464494D01*
X75098815Y-89561185D01*
X75195506Y-89640537D01*
X75305820Y-89699502D01*
X75374687Y-89720393D01*
X75344866Y-89744866D01*
X75159294Y-89970986D01*
X75021401Y-90228966D01*
X74936487Y-90508889D01*
X74907815Y-90800000D01*
X60660000Y-90800000D01*
X60660000Y-87410000D01*
X74911928Y-87410000D01*
X74915000Y-87974250D01*
X75073750Y-88133000D01*
X76273000Y-88133000D01*
X76273000Y-86933750D01*
X76527000Y-86933750D01*
X76527000Y-88133000D01*
X77726250Y-88133000D01*
X77885000Y-87974250D01*
X77888072Y-87410000D01*
X77875812Y-87285518D01*
X77839502Y-87165820D01*
X77780537Y-87055506D01*
X77701185Y-86958815D01*
X77604494Y-86879463D01*
X77494180Y-86820498D01*
X77374482Y-86784188D01*
X77250000Y-86771928D01*
X76685750Y-86775000D01*
X76527000Y-86933750D01*
X76273000Y-86933750D01*
X76114250Y-86775000D01*
X75550000Y-86771928D01*
X75425518Y-86784188D01*
X75305820Y-86820498D01*
X75195506Y-86879463D01*
X75098815Y-86958815D01*
X75019463Y-87055506D01*
X74960498Y-87165820D01*
X74924188Y-87285518D01*
X74911928Y-87410000D01*
X60660000Y-87410000D01*
X60660000Y-61160000D01*
X95507815Y-61160000D01*
X95536487Y-61451111D01*
X95621401Y-61731034D01*
X95759294Y-61989014D01*
X95944866Y-62215134D01*
X95974687Y-62239607D01*
X95905820Y-62260498D01*
X95795506Y-62319463D01*
X95698815Y-62398815D01*
X95619463Y-62495506D01*
X95560498Y-62605820D01*
X95524188Y-62725518D01*
X95511928Y-62850000D01*
X95511928Y-64550000D01*
X95524188Y-64674482D01*
X95560498Y-64794180D01*
X95619463Y-64904494D01*
X95698815Y-65001185D01*
X95795506Y-65080537D01*
X95905820Y-65139502D01*
X96025518Y-65175812D01*
X96150000Y-65188072D01*
X97850000Y-65188072D01*
X97974482Y-65175812D01*
X98094180Y-65139502D01*
X98204494Y-65080537D01*
X98301185Y-65001185D01*
X98380537Y-64904494D01*
X98439502Y-64794180D01*
X98475812Y-64674482D01*
X98488072Y-64550000D01*
X98488072Y-63540000D01*
X104558057Y-63540000D01*
X104585764Y-63821309D01*
X104667818Y-64091808D01*
X104801068Y-64341101D01*
X104980392Y-64559608D01*
X105198899Y-64738932D01*
X105331858Y-64810000D01*
X105198899Y-64881068D01*
X104980392Y-65060392D01*
X104801068Y-65278899D01*
X104667818Y-65528192D01*
X104585764Y-65798691D01*
X104558057Y-66080000D01*
X104585764Y-66361309D01*
X104667818Y-66631808D01*
X104801068Y-66881101D01*
X104980392Y-67099608D01*
X105198899Y-67278932D01*
X105331858Y-67350000D01*
X105198899Y-67421068D01*
X104980392Y-67600392D01*
X104801068Y-67818899D01*
X104667818Y-68068192D01*
X104585764Y-68338691D01*
X104558057Y-68620000D01*
X104585764Y-68901309D01*
X104667818Y-69171808D01*
X104801068Y-69421101D01*
X104980392Y-69639608D01*
X105198899Y-69818932D01*
X105448192Y-69952182D01*
X105718691Y-70034236D01*
X105929508Y-70055000D01*
X106870492Y-70055000D01*
X107081309Y-70034236D01*
X107351808Y-69952182D01*
X107601101Y-69818932D01*
X107819608Y-69639608D01*
X107998932Y-69421101D01*
X108132182Y-69171808D01*
X108214236Y-68901309D01*
X108241943Y-68620000D01*
X108214236Y-68338691D01*
X108132182Y-68068192D01*
X107998932Y-67818899D01*
X107819608Y-67600392D01*
X107601101Y-67421068D01*
X107468142Y-67350000D01*
X107601101Y-67278932D01*
X107819608Y-67099608D01*
X107998932Y-66881101D01*
X108132182Y-66631808D01*
X108214236Y-66361309D01*
X108241943Y-66080000D01*
X108214236Y-65798691D01*
X108132182Y-65528192D01*
X107998932Y-65278899D01*
X107819608Y-65060392D01*
X107601101Y-64881068D01*
X107468142Y-64810000D01*
X107601101Y-64738932D01*
X107819608Y-64559608D01*
X107998932Y-64341101D01*
X108132182Y-64091808D01*
X108214236Y-63821309D01*
X108241943Y-63540000D01*
X108214236Y-63258691D01*
X108132182Y-62988192D01*
X107998932Y-62738899D01*
X107819608Y-62520392D01*
X107601101Y-62341068D01*
X107473259Y-62272735D01*
X107702839Y-62122601D01*
X107904500Y-61924895D01*
X108063715Y-61691646D01*
X108174367Y-61431818D01*
X108191904Y-61349039D01*
X108069916Y-61127002D01*
X108235000Y-61127002D01*
X108235000Y-61000000D01*
X112178057Y-61000000D01*
X112205764Y-61281309D01*
X112287818Y-61551808D01*
X112421068Y-61801101D01*
X112600392Y-62019608D01*
X112818899Y-62198932D01*
X112951858Y-62270000D01*
X112818899Y-62341068D01*
X112600392Y-62520392D01*
X112421068Y-62738899D01*
X112287818Y-62988192D01*
X112205764Y-63258691D01*
X112178057Y-63540000D01*
X112205764Y-63821309D01*
X112287818Y-64091808D01*
X112421068Y-64341101D01*
X112600392Y-64559608D01*
X112818899Y-64738932D01*
X112951858Y-64810000D01*
X112818899Y-64881068D01*
X112600392Y-65060392D01*
X112421068Y-65278899D01*
X112287818Y-65528192D01*
X112205764Y-65798691D01*
X112178057Y-66080000D01*
X112205764Y-66361309D01*
X112287818Y-66631808D01*
X112421068Y-66881101D01*
X112600392Y-67099608D01*
X112713482Y-67192419D01*
X112695518Y-67194188D01*
X112575820Y-67230498D01*
X112465506Y-67289463D01*
X112368815Y-67368815D01*
X112289463Y-67465506D01*
X112230498Y-67575820D01*
X112194188Y-67695518D01*
X112181928Y-67820000D01*
X112181928Y-69420000D01*
X112194188Y-69544482D01*
X112230498Y-69664180D01*
X112289463Y-69774494D01*
X112368815Y-69871185D01*
X112465506Y-69950537D01*
X112575820Y-70009502D01*
X112695518Y-70045812D01*
X112820000Y-70058072D01*
X115220000Y-70058072D01*
X115344482Y-70045812D01*
X115464180Y-70009502D01*
X115574494Y-69950537D01*
X115671185Y-69871185D01*
X115750537Y-69774494D01*
X115809502Y-69664180D01*
X115845812Y-69544482D01*
X115858072Y-69420000D01*
X115858072Y-67820000D01*
X115846254Y-67700000D01*
X116561928Y-67700000D01*
X116561928Y-69300000D01*
X116574188Y-69424482D01*
X116610498Y-69544180D01*
X116669463Y-69654494D01*
X116748815Y-69751185D01*
X116845506Y-69830537D01*
X116955820Y-69889502D01*
X117075518Y-69925812D01*
X117200000Y-69938072D01*
X118800000Y-69938072D01*
X118924482Y-69925812D01*
X119044180Y-69889502D01*
X119154494Y-69830537D01*
X119251185Y-69751185D01*
X119330537Y-69654494D01*
X119389502Y-69544180D01*
X119425812Y-69424482D01*
X119438072Y-69300000D01*
X119438072Y-68768061D01*
X134655000Y-68768061D01*
X134655000Y-68971939D01*
X134694774Y-69171898D01*
X134772795Y-69360256D01*
X134886063Y-69529774D01*
X135030226Y-69673937D01*
X135199744Y-69787205D01*
X135388102Y-69865226D01*
X135588061Y-69905000D01*
X135791939Y-69905000D01*
X135991898Y-69865226D01*
X136180256Y-69787205D01*
X136222468Y-69759000D01*
X137559765Y-69759000D01*
X139174159Y-71373395D01*
X139118815Y-71418815D01*
X139039463Y-71515506D01*
X138980498Y-71625820D01*
X138944188Y-71745518D01*
X138931928Y-71870000D01*
X138931928Y-73570000D01*
X138944188Y-73694482D01*
X138980498Y-73814180D01*
X139039463Y-73924494D01*
X139118815Y-74021185D01*
X139215506Y-74100537D01*
X139234035Y-74110441D01*
X139068412Y-74259731D01*
X138894359Y-74493080D01*
X138769175Y-74755901D01*
X138724524Y-74903110D01*
X138845845Y-75133000D01*
X140039000Y-75133000D01*
X140039000Y-75113000D01*
X140293000Y-75113000D01*
X140293000Y-75133000D01*
X142579000Y-75133000D01*
X142579000Y-75113000D01*
X142833000Y-75113000D01*
X142833000Y-75133000D01*
X144026155Y-75133000D01*
X144147476Y-74903110D01*
X144102825Y-74755901D01*
X143977641Y-74493080D01*
X143803588Y-74259731D01*
X143589913Y-74067128D01*
X143789014Y-73960706D01*
X144015134Y-73775134D01*
X144200706Y-73549014D01*
X144338599Y-73291034D01*
X144423513Y-73011111D01*
X144452185Y-72720000D01*
X144423513Y-72428889D01*
X144338599Y-72148966D01*
X144200706Y-71890986D01*
X144015134Y-71664866D01*
X143789014Y-71479294D01*
X143531034Y-71341401D01*
X143251111Y-71256487D01*
X143032950Y-71235000D01*
X142887050Y-71235000D01*
X142668889Y-71256487D01*
X142388966Y-71341401D01*
X142130986Y-71479294D01*
X141904866Y-71664866D01*
X141880393Y-71694687D01*
X141859502Y-71625820D01*
X141800537Y-71515506D01*
X141721185Y-71418815D01*
X141624494Y-71339463D01*
X141514180Y-71280498D01*
X141394482Y-71244188D01*
X141300788Y-71234960D01*
X141296136Y-71187726D01*
X141296136Y-71187724D01*
X141245302Y-71020147D01*
X141241589Y-71013200D01*
X141162753Y-70865709D01*
X141051659Y-70730341D01*
X141017742Y-70702506D01*
X139107467Y-68792231D01*
X145198374Y-68792231D01*
X145280727Y-69045289D01*
X145551418Y-69175086D01*
X145842230Y-69249580D01*
X146141988Y-69265908D01*
X146439171Y-69223443D01*
X146722359Y-69123816D01*
X146869273Y-69045289D01*
X146951626Y-68792231D01*
X146075000Y-67915605D01*
X145198374Y-68792231D01*
X139107467Y-68792231D01*
X138587499Y-68272264D01*
X138559659Y-68238341D01*
X138424291Y-68127247D01*
X138269851Y-68044697D01*
X138102274Y-67993864D01*
X137971667Y-67981000D01*
X137971660Y-67981000D01*
X137928000Y-67976700D01*
X137884340Y-67981000D01*
X136222468Y-67981000D01*
X136180256Y-67952795D01*
X135991898Y-67874774D01*
X135791939Y-67835000D01*
X135588061Y-67835000D01*
X135388102Y-67874774D01*
X135199744Y-67952795D01*
X135030226Y-68066063D01*
X134886063Y-68210226D01*
X134772795Y-68379744D01*
X134694774Y-68568102D01*
X134655000Y-68768061D01*
X119438072Y-68768061D01*
X119438072Y-67802988D01*
X144545092Y-67802988D01*
X144587557Y-68100171D01*
X144687184Y-68383359D01*
X144765711Y-68530273D01*
X145018769Y-68612626D01*
X145895395Y-67736000D01*
X145018769Y-66859374D01*
X144765711Y-66941727D01*
X144635914Y-67212418D01*
X144561420Y-67503230D01*
X144545092Y-67802988D01*
X119438072Y-67802988D01*
X119438072Y-67700000D01*
X119425812Y-67575518D01*
X119389502Y-67455820D01*
X119330537Y-67345506D01*
X119251185Y-67248815D01*
X119154494Y-67169463D01*
X119044180Y-67110498D01*
X118924482Y-67074188D01*
X118800000Y-67061928D01*
X117200000Y-67061928D01*
X117075518Y-67074188D01*
X116955820Y-67110498D01*
X116845506Y-67169463D01*
X116748815Y-67248815D01*
X116669463Y-67345506D01*
X116610498Y-67455820D01*
X116574188Y-67575518D01*
X116561928Y-67700000D01*
X115846254Y-67700000D01*
X115845812Y-67695518D01*
X115809502Y-67575820D01*
X115750537Y-67465506D01*
X115671185Y-67368815D01*
X115574494Y-67289463D01*
X115464180Y-67230498D01*
X115344482Y-67194188D01*
X115326518Y-67192419D01*
X115439608Y-67099608D01*
X115618932Y-66881101D01*
X115752182Y-66631808D01*
X115834236Y-66361309D01*
X115861943Y-66080000D01*
X115834236Y-65798691D01*
X115752182Y-65528192D01*
X115618932Y-65278899D01*
X115439608Y-65060392D01*
X115221101Y-64881068D01*
X115088142Y-64810000D01*
X115221101Y-64738932D01*
X115439608Y-64559608D01*
X115618932Y-64341101D01*
X115752182Y-64091808D01*
X115834236Y-63821309D01*
X115861943Y-63540000D01*
X115834236Y-63258691D01*
X115752182Y-62988192D01*
X115618932Y-62738899D01*
X115439608Y-62520392D01*
X115221101Y-62341068D01*
X115088142Y-62270000D01*
X115221101Y-62198932D01*
X115439608Y-62019608D01*
X115618932Y-61801101D01*
X115752182Y-61551808D01*
X115834236Y-61281309D01*
X115861943Y-61000000D01*
X115850124Y-60880000D01*
X116558057Y-60880000D01*
X116585764Y-61161309D01*
X116667818Y-61431808D01*
X116801068Y-61681101D01*
X116980392Y-61899608D01*
X117198899Y-62078932D01*
X117448192Y-62212182D01*
X117718691Y-62294236D01*
X117929508Y-62315000D01*
X118070492Y-62315000D01*
X118281309Y-62294236D01*
X118551808Y-62212182D01*
X118801101Y-62078932D01*
X119019608Y-61899608D01*
X119198932Y-61681101D01*
X119332182Y-61431808D01*
X119384298Y-61260000D01*
X122807815Y-61260000D01*
X122836487Y-61551111D01*
X122921401Y-61831034D01*
X123059294Y-62089014D01*
X123244866Y-62315134D01*
X123274687Y-62339607D01*
X123205820Y-62360498D01*
X123095506Y-62419463D01*
X122998815Y-62498815D01*
X122919463Y-62595506D01*
X122860498Y-62705820D01*
X122824188Y-62825518D01*
X122811928Y-62950000D01*
X122811928Y-64650000D01*
X122824188Y-64774482D01*
X122860498Y-64894180D01*
X122919463Y-65004494D01*
X122998815Y-65101185D01*
X123095506Y-65180537D01*
X123205820Y-65239502D01*
X123325518Y-65275812D01*
X123450000Y-65288072D01*
X125150000Y-65288072D01*
X125274482Y-65275812D01*
X125394180Y-65239502D01*
X125504494Y-65180537D01*
X125601185Y-65101185D01*
X125680537Y-65004494D01*
X125739502Y-64894180D01*
X125775812Y-64774482D01*
X125788072Y-64650000D01*
X125788072Y-62950000D01*
X125775812Y-62825518D01*
X125739502Y-62705820D01*
X125680537Y-62595506D01*
X125601185Y-62498815D01*
X125504494Y-62419463D01*
X125394180Y-62360498D01*
X125325313Y-62339607D01*
X125355134Y-62315134D01*
X125540706Y-62089014D01*
X125678599Y-61831034D01*
X125763513Y-61551111D01*
X125792185Y-61260000D01*
X125763513Y-60968889D01*
X125678599Y-60688966D01*
X125616608Y-60572988D01*
X144545092Y-60572988D01*
X144587557Y-60870171D01*
X144687184Y-61153359D01*
X144765711Y-61300273D01*
X145018769Y-61382626D01*
X145895395Y-60506000D01*
X145018769Y-59629374D01*
X144765711Y-59711727D01*
X144635914Y-59982418D01*
X144561420Y-60273230D01*
X144545092Y-60572988D01*
X125616608Y-60572988D01*
X125540706Y-60430986D01*
X125355134Y-60204866D01*
X125129014Y-60019294D01*
X124871034Y-59881401D01*
X124591111Y-59796487D01*
X124372950Y-59775000D01*
X124227050Y-59775000D01*
X124008889Y-59796487D01*
X123728966Y-59881401D01*
X123470986Y-60019294D01*
X123244866Y-60204866D01*
X123059294Y-60430986D01*
X122921401Y-60688966D01*
X122836487Y-60968889D01*
X122807815Y-61260000D01*
X119384298Y-61260000D01*
X119414236Y-61161309D01*
X119441943Y-60880000D01*
X119414236Y-60598691D01*
X119332182Y-60328192D01*
X119198932Y-60078899D01*
X119019608Y-59860392D01*
X118801101Y-59681068D01*
X118551808Y-59547818D01*
X118281309Y-59465764D01*
X118118912Y-59449769D01*
X145198374Y-59449769D01*
X146075000Y-60326395D01*
X146951626Y-59449769D01*
X146869273Y-59196711D01*
X146598582Y-59066914D01*
X146307770Y-58992420D01*
X146008012Y-58976092D01*
X145710829Y-59018557D01*
X145427641Y-59118184D01*
X145280727Y-59196711D01*
X145198374Y-59449769D01*
X118118912Y-59449769D01*
X118070492Y-59445000D01*
X117929508Y-59445000D01*
X117718691Y-59465764D01*
X117448192Y-59547818D01*
X117198899Y-59681068D01*
X116980392Y-59860392D01*
X116801068Y-60078899D01*
X116667818Y-60328192D01*
X116585764Y-60598691D01*
X116558057Y-60880000D01*
X115850124Y-60880000D01*
X115834236Y-60718691D01*
X115752182Y-60448192D01*
X115618932Y-60198899D01*
X115439608Y-59980392D01*
X115221101Y-59801068D01*
X114971808Y-59667818D01*
X114701309Y-59585764D01*
X114490492Y-59565000D01*
X113549508Y-59565000D01*
X113338691Y-59585764D01*
X113068192Y-59667818D01*
X112818899Y-59801068D01*
X112600392Y-59980392D01*
X112421068Y-60198899D01*
X112287818Y-60448192D01*
X112205764Y-60718691D01*
X112178057Y-61000000D01*
X108235000Y-61000000D01*
X108235000Y-60872998D01*
X108069916Y-60872998D01*
X108191904Y-60650961D01*
X108174367Y-60568182D01*
X108063715Y-60308354D01*
X107904500Y-60075105D01*
X107702839Y-59877399D01*
X107466483Y-59722834D01*
X107204514Y-59617350D01*
X106927000Y-59565000D01*
X105873000Y-59565000D01*
X105595486Y-59617350D01*
X105333517Y-59722834D01*
X105097161Y-59877399D01*
X104895500Y-60075105D01*
X104736285Y-60308354D01*
X104625633Y-60568182D01*
X104608096Y-60650961D01*
X104730084Y-60872998D01*
X104565000Y-60872998D01*
X104565000Y-61127002D01*
X104730084Y-61127002D01*
X104608096Y-61349039D01*
X104625633Y-61431818D01*
X104736285Y-61691646D01*
X104895500Y-61924895D01*
X105097161Y-62122601D01*
X105326741Y-62272735D01*
X105198899Y-62341068D01*
X104980392Y-62520392D01*
X104801068Y-62738899D01*
X104667818Y-62988192D01*
X104585764Y-63258691D01*
X104558057Y-63540000D01*
X98488072Y-63540000D01*
X98488072Y-62850000D01*
X98475812Y-62725518D01*
X98439502Y-62605820D01*
X98380537Y-62495506D01*
X98301185Y-62398815D01*
X98204494Y-62319463D01*
X98094180Y-62260498D01*
X98025313Y-62239607D01*
X98055134Y-62215134D01*
X98240706Y-61989014D01*
X98378599Y-61731034D01*
X98463513Y-61451111D01*
X98492185Y-61160000D01*
X98463513Y-60868889D01*
X98378599Y-60588966D01*
X98240706Y-60330986D01*
X98055134Y-60104866D01*
X97829014Y-59919294D01*
X97571034Y-59781401D01*
X97291111Y-59696487D01*
X97072950Y-59675000D01*
X96927050Y-59675000D01*
X96708889Y-59696487D01*
X96428966Y-59781401D01*
X96170986Y-59919294D01*
X95944866Y-60104866D01*
X95759294Y-60330986D01*
X95621401Y-60588966D01*
X95536487Y-60868889D01*
X95507815Y-61160000D01*
X60660000Y-61160000D01*
X60660000Y-54737323D01*
X62333000Y-54737323D01*
X62333000Y-55262677D01*
X62435492Y-55777935D01*
X62636536Y-56263298D01*
X62928406Y-56700113D01*
X63299887Y-57071594D01*
X63736702Y-57363464D01*
X64222065Y-57564508D01*
X64737323Y-57667000D01*
X65262677Y-57667000D01*
X65777935Y-57564508D01*
X66263298Y-57363464D01*
X66700113Y-57071594D01*
X67071594Y-56700113D01*
X67363464Y-56263298D01*
X67564508Y-55777935D01*
X67667000Y-55262677D01*
X67667000Y-54737323D01*
X142333000Y-54737323D01*
X142333000Y-55262677D01*
X142435492Y-55777935D01*
X142636536Y-56263298D01*
X142928406Y-56700113D01*
X143299887Y-57071594D01*
X143736702Y-57363464D01*
X144222065Y-57564508D01*
X144737323Y-57667000D01*
X145262677Y-57667000D01*
X145777935Y-57564508D01*
X146263298Y-57363464D01*
X146700113Y-57071594D01*
X147071594Y-56700113D01*
X147363464Y-56263298D01*
X147564508Y-55777935D01*
X147667000Y-55262677D01*
X147667000Y-54737323D01*
X147564508Y-54222065D01*
X147363464Y-53736702D01*
X147071594Y-53299887D01*
X146700113Y-52928406D01*
X146263298Y-52636536D01*
X145777935Y-52435492D01*
X145262677Y-52333000D01*
X144737323Y-52333000D01*
X144222065Y-52435492D01*
X143736702Y-52636536D01*
X143299887Y-52928406D01*
X142928406Y-53299887D01*
X142636536Y-53736702D01*
X142435492Y-54222065D01*
X142333000Y-54737323D01*
X67667000Y-54737323D01*
X67564508Y-54222065D01*
X67363464Y-53736702D01*
X67071594Y-53299887D01*
X66700113Y-52928406D01*
X66263298Y-52636536D01*
X65777935Y-52435492D01*
X65262677Y-52333000D01*
X64737323Y-52333000D01*
X64222065Y-52435492D01*
X63736702Y-52636536D01*
X63299887Y-52928406D01*
X62928406Y-53299887D01*
X62636536Y-53736702D01*
X62435492Y-54222065D01*
X62333000Y-54737323D01*
X60660000Y-54737323D01*
X60660000Y-50660000D01*
X149340000Y-50660000D01*
X149340000Y-59774044D01*
G36*
X106527000Y-60873000D02*
G01*
X106547000Y-60873000D01*
X106547000Y-61127000D01*
X106527000Y-61127000D01*
X106527000Y-61147000D01*
X106273000Y-61147000D01*
X106273000Y-61127000D01*
X106253000Y-61127000D01*
X106253000Y-60873000D01*
X106273000Y-60873000D01*
X106273000Y-60853000D01*
X106527000Y-60853000D01*
X106527000Y-60873000D01*
X106527000Y-60873000D01*
G37*
X106527000Y-60873000D02*
X106547000Y-60873000D01*
X106547000Y-61127000D01*
X106527000Y-61127000D01*
X106527000Y-61147000D01*
X106273000Y-61147000D01*
X106273000Y-61127000D01*
X106253000Y-61127000D01*
X106253000Y-60873000D01*
X106273000Y-60873000D01*
X106273000Y-60853000D01*
X106527000Y-60853000D01*
X106527000Y-60873000D01*
M02*
