M48
; DRILL file {KiCad (5.1.0)-1} date 5/18/2019 1:53:50 PM
; FORMAT={2:4/ absolute / inch / suppress leading zeros}
; #@! TF.CreationDate,2019-05-18T13:53:50-04:00
; #@! TF.GenerationSoftware,Kicad,Pcbnew,(5.1.0)-1
; #@! TF.FileFunction,Plated,1,2,PTH
FMAT,2
INCH,TZ
T1C0.0157
T2C0.0315
T3C0.0394
T4C0.1260
%
G90
G05
T1
X29358Y-22941
X29449Y-23709
X29504Y-24736
X30531Y-41204
X31031Y-28984
X31264Y-31531
X31634Y-33509
X32283Y-23783
X32300Y-44725
X33886Y-29319
X33979Y-28890
X34240Y-29980
X35972Y-34031
X35972Y-36768
X35972Y-37697
X36012Y-44717
X36035Y-43043
X36120Y-32072
X36419Y-32354
X36671Y-28749
X36704Y-35128
X36760Y-37280
X36760Y-32620
X36768Y-38622
X36795Y-39665
X36839Y-42154
X36839Y-43571
X37205Y-29603
X37252Y-28768
X37297Y-27489
X37339Y-32387
X37428Y-30913
X37539Y-32755
X37630Y-29646
X39925Y-32559
X40019Y-29262
X40265Y-39231
X40394Y-37850
X40493Y-34860
X40717Y-35870
X40765Y-35476
X40771Y-45713
X40788Y-46433
X40791Y-42878
X41169Y-40034
X41240Y-29382
X41324Y-41289
X41551Y-47862
X41553Y-37818
X41563Y-37138
X41622Y-40602
X41622Y-44299
X41853Y-38275
X41882Y-43063
X42043Y-40461
X42071Y-46654
X42188Y-42638
X42654Y-37232
X43012Y-36612
X43531Y-46020
X44406Y-30913
X44598Y-40622
X44939Y-41919
X46417Y-41264
X46795Y-43228
X47439Y-32006
X47642Y-43744
X48131Y-33105
X48693Y-37681
X48701Y-41287
X48701Y-44102
X48725Y-33291
X48740Y-35724
X49008Y-30637
X49421Y-39343
X49437Y-38512
X49472Y-35154
X49547Y-42217
X49736Y-40590
X50189Y-37118
X50445Y-32074
X50921Y-39531
X51106Y-31185
X52721Y-41633
X53386Y-35933
X53409Y-41814
X53421Y-27114
X53421Y-39437
X53429Y-43067
X53445Y-38419
X53461Y-35090
X53469Y-31709
X53488Y-35533
X53953Y-30807
X54023Y-36590
X54228Y-44339
X54267Y-43942
X54327Y-40677
X54638Y-38939
T2
X41890Y-24016
X41890Y-25016
X41890Y-26016
X41890Y-27016
X44890Y-24016
X44890Y-25016
X44890Y-26016
X44890Y-27016
X46457Y-23969
X46457Y-26969
T3
X47283Y-34882
X47283Y-35882
X47283Y-44764
X47283Y-45764
X30039Y-42047
X30039Y-43047
X55183Y-29630
X55183Y-31630
X55283Y-28630
X55283Y-30630
X55283Y-32630
X56183Y-29630
X56183Y-31630
X56283Y-28630
X56283Y-30630
X56283Y-32630
X34685Y-46126
X34685Y-47126
X34528Y-34764
X34528Y-35764
X57510Y-23821
X57510Y-26668
X58455Y-23963
X58455Y-26526
X30039Y-46126
X30039Y-47126
X30118Y-38528
X30118Y-39528
X47283Y-38646
X47283Y-39646
X48937Y-24118
X48937Y-25118
X38189Y-24079
X38189Y-25079
X30079Y-34748
X30079Y-35748
X42677Y-34882
X42677Y-35882
X34685Y-42031
X34685Y-43031
X42677Y-38622
X42677Y-39622
X34528Y-38528
X34528Y-39528
T4
X25591Y-21654
X25591Y-49213
X57087Y-49213
X57087Y-21654
T0
M30
