M48
; DRILL file {KiCad (5.1.0)-1} date 5/27/2019 8:42:03 PM
; FORMAT={2:4/ absolute / inch / suppress leading zeros}
; #@! TF.CreationDate,2019-05-27T20:42:03-04:00
; #@! TF.GenerationSoftware,Kicad,Pcbnew,(5.1.0)-1
; #@! TF.FileFunction,Plated,1,2,PTH
FMAT,2
INCH,TZ
T1C0.0157
T2C0.0197
T3C0.0315
T4C0.0394
T5C0.1260
T6C0.5906
%
G90
G05
T1
X20053Y-17470
X20591Y-14173
X21001Y-17680
X21018Y-14173
X22581Y-14757
X24650Y-17413
X24942Y-15473
X25076Y-27290
X25079Y-19016
X25118Y-14055
X25683Y-20125
X27126Y-19213
X28979Y-17571
X29449Y-21260
X29472Y-15760
X29689Y-14091
X30276Y-16066
X30334Y-17460
X32205Y-14016
X34060Y-32499
X34173Y-14213
X34418Y-35713
X34737Y-24427
X36097Y-15498
X36253Y-26357
X36535Y-18071
X37756Y-18976
X37756Y-37244
X38228Y-22047
X38780Y-30433
X38819Y-31575
X38858Y-24370
X38898Y-25472
X38976Y-16969
X39134Y-22835
X39134Y-36260
X39213Y-37205
X39843Y-32441
X40039Y-16181
X40236Y-30315
X41251Y-26360
X42205Y-39488
X42411Y-38278
X42421Y-19587
X42470Y-30699
X42490Y-34813
X42490Y-42096
X42520Y-23386
X42530Y-27293
X42614Y-26368
X42953Y-28819
X43607Y-18784
X43697Y-41192
X43747Y-26582
X43775Y-22608
X43775Y-23278
X43795Y-29669
X43813Y-37407
X43866Y-37968
X44210Y-33901
X44282Y-40453
X44331Y-29409
X44331Y-44016
X44503Y-24660
X44606Y-32520
X44606Y-37283
X44646Y-19252
X44882Y-40118
X44909Y-25781
X44918Y-33627
X44920Y-21732
X44987Y-33221
X45002Y-30224
X45039Y-36496
X45426Y-28883
X45971Y-18655
X45988Y-40299
X45994Y-21408
X46004Y-25391
X46033Y-36806
X46063Y-28819
X46063Y-31811
X46206Y-22098
X46270Y-37767
X46270Y-40682
X46614Y-30315
T3
X32197Y-42598
X32197Y-45598
X33197Y-42598
X33197Y-45598
X34197Y-42598
X34197Y-45598
X35197Y-42598
X35197Y-45598
X31260Y-20441
X31260Y-21441
X31260Y-22441
X31260Y-23441
X31260Y-24441
X31260Y-25441
X31260Y-26441
X31260Y-27441
X31260Y-28441
X31260Y-29441
X31260Y-30441
X31260Y-31441
X31260Y-32441
X31260Y-33441
X31260Y-34441
X37260Y-20441
X37260Y-21441
X37260Y-22441
X37260Y-23441
X37260Y-24441
X37260Y-25441
X37260Y-26441
X37260Y-27441
X37260Y-28441
X37260Y-29441
X37260Y-30441
X37260Y-31441
X37260Y-32441
X37260Y-33441
X37260Y-34441
T4
X37352Y-40370
X37352Y-42370
X37452Y-39370
X37452Y-41370
X37452Y-43370
X38352Y-40370
X38352Y-42370
X38452Y-39370
X38452Y-41370
X38452Y-43370
X31024Y-38882
X31024Y-39882
X31378Y-47047
X31378Y-48047
T5
X45276Y-13780
X17717Y-13780
X17717Y-49213
X45276Y-49213
T6
X27559Y-43307
T2
G00X27382Y-17953
M15
G01X26949Y-17953
M16
G05
G00X26949Y-21142
M15
G01X27382Y-21142
M16
G05
G00X29055Y-20020
M15
G01X29055Y-20453
M16
G05
G00X27382Y-23858
M15
G01X26949Y-23858
M16
G05
G00X26949Y-27047
M15
G01X27382Y-27047
M16
G05
G00X29055Y-25925
M15
G01X29055Y-26358
M16
G05
G00X27382Y-29764
M15
G01X26949Y-29764
M16
G05
G00X26949Y-32953
M15
G01X27382Y-32953
M16
G05
G00X29055Y-31831
M15
G01X29055Y-32264
M16
G05
G00X19508Y-35669
M15
G01X19075Y-35669
M16
G05
G00X19075Y-38858
M15
G01X19508Y-38858
M16
G05
G00X21181Y-37736
M15
G01X21181Y-38169
M16
G05
G00X23445Y-17953
M15
G01X23012Y-17953
M16
G05
G00X23012Y-21142
M15
G01X23445Y-21142
M16
G05
G00X25118Y-20020
M15
G01X25118Y-20453
M16
G05
G00X23445Y-23858
M15
G01X23012Y-23858
M16
G05
G00X23012Y-27047
M15
G01X23445Y-27047
M16
G05
G00X25118Y-25925
M15
G01X25118Y-26358
M16
G05
G00X23445Y-29764
M15
G01X23012Y-29764
M16
G05
G00X23012Y-32953
M15
G01X23445Y-32953
M16
G05
G00X25118Y-31831
M15
G01X25118Y-32264
M16
G05
G00X19508Y-23858
M15
G01X19075Y-23858
M16
G05
G00X19075Y-27047
M15
G01X19508Y-27047
M16
G05
G00X21181Y-25925
M15
G01X21181Y-26358
M16
G05
G00X27382Y-35669
M15
G01X26949Y-35669
M16
G05
G00X26949Y-38858
M15
G01X27382Y-38858
M16
G05
G00X29055Y-37736
M15
G01X29055Y-38169
M16
G05
G00X19508Y-17953
M15
G01X19075Y-17953
M16
G05
G00X19075Y-21142
M15
G01X19508Y-21142
M16
G05
G00X21181Y-20020
M15
G01X21181Y-20453
M16
G05
G00X23445Y-35669
M15
G01X23012Y-35669
M16
G05
G00X23012Y-38858
M15
G01X23445Y-38858
M16
G05
G00X25118Y-37736
M15
G01X25118Y-38169
M16
G05
G00X19508Y-29764
M15
G01X19075Y-29764
M16
G05
G00X19075Y-32953
M15
G01X19508Y-32953
M16
G05
G00X21181Y-31831
M15
G01X21181Y-32264
M16
G05
G00X19508Y-41575
M15
G01X19075Y-41575
M16
G05
G00X19075Y-44764
M15
G01X19508Y-44764
M16
G05
G00X21181Y-43642
M15
G01X21181Y-44075
M16
G05
T0
M30
