G04 #@! TF.GenerationSoftware,KiCad,Pcbnew,(5.1.0)-1*
G04 #@! TF.CreationDate,2019-05-18T13:53:44-04:00*
G04 #@! TF.ProjectId,MIDI Controller,4d494449-2043-46f6-9e74-726f6c6c6572,rev?*
G04 #@! TF.SameCoordinates,Original*
G04 #@! TF.FileFunction,Soldermask,Bot*
G04 #@! TF.FilePolarity,Negative*
%FSLAX46Y46*%
G04 Gerber Fmt 4.6, Leading zero omitted, Abs format (unit mm)*
G04 Created by KiCad (PCBNEW (5.1.0)-1) date 2019-05-18 13:53:44*
%MOMM*%
%LPD*%
G04 APERTURE LIST*
%ADD10C,0.100000*%
G04 APERTURE END LIST*
D10*
G36*
X145406373Y-122957024D02*
G01*
X145607589Y-122997048D01*
X145986671Y-123154069D01*
X146327835Y-123382028D01*
X146617972Y-123672165D01*
X146845931Y-124013329D01*
X147002952Y-124392411D01*
X147083000Y-124794842D01*
X147083000Y-125205158D01*
X147002952Y-125607589D01*
X146845931Y-125986671D01*
X146617972Y-126327835D01*
X146327835Y-126617972D01*
X145986671Y-126845931D01*
X145607589Y-127002952D01*
X145406373Y-127042976D01*
X145205159Y-127083000D01*
X144794841Y-127083000D01*
X144593627Y-127042976D01*
X144392411Y-127002952D01*
X144013329Y-126845931D01*
X143672165Y-126617972D01*
X143382028Y-126327835D01*
X143154069Y-125986671D01*
X142997048Y-125607589D01*
X142917000Y-125205158D01*
X142917000Y-124794842D01*
X142997048Y-124392411D01*
X143154069Y-124013329D01*
X143382028Y-123672165D01*
X143672165Y-123382028D01*
X144013329Y-123154069D01*
X144392411Y-122997048D01*
X144593627Y-122957024D01*
X144794841Y-122917000D01*
X145205159Y-122917000D01*
X145406373Y-122957024D01*
X145406373Y-122957024D01*
G37*
G36*
X65406373Y-122957024D02*
G01*
X65607589Y-122997048D01*
X65986671Y-123154069D01*
X66327835Y-123382028D01*
X66617972Y-123672165D01*
X66845931Y-124013329D01*
X67002952Y-124392411D01*
X67083000Y-124794842D01*
X67083000Y-125205158D01*
X67002952Y-125607589D01*
X66845931Y-125986671D01*
X66617972Y-126327835D01*
X66327835Y-126617972D01*
X65986671Y-126845931D01*
X65607589Y-127002952D01*
X65406373Y-127042976D01*
X65205159Y-127083000D01*
X64794841Y-127083000D01*
X64593627Y-127042976D01*
X64392411Y-127002952D01*
X64013329Y-126845931D01*
X63672165Y-126617972D01*
X63382028Y-126327835D01*
X63154069Y-125986671D01*
X62997048Y-125607589D01*
X62917000Y-125205158D01*
X62917000Y-124794842D01*
X62997048Y-124392411D01*
X63154069Y-124013329D01*
X63382028Y-123672165D01*
X63672165Y-123382028D01*
X64013329Y-123154069D01*
X64392411Y-122997048D01*
X64593627Y-122957024D01*
X64794841Y-122917000D01*
X65205159Y-122917000D01*
X65406373Y-122957024D01*
X65406373Y-122957024D01*
G37*
G36*
X89001000Y-120601000D02*
G01*
X87199000Y-120601000D01*
X87199000Y-118799000D01*
X89001000Y-118799000D01*
X89001000Y-120601000D01*
X89001000Y-120601000D01*
G37*
G36*
X77201000Y-120601000D02*
G01*
X75399000Y-120601000D01*
X75399000Y-118799000D01*
X77201000Y-118799000D01*
X77201000Y-120601000D01*
X77201000Y-120601000D01*
G37*
G36*
X76410443Y-116265519D02*
G01*
X76476627Y-116272037D01*
X76646466Y-116323557D01*
X76802991Y-116407222D01*
X76838729Y-116436552D01*
X76940186Y-116519814D01*
X77023448Y-116621271D01*
X77052778Y-116657009D01*
X77136443Y-116813534D01*
X77187963Y-116983373D01*
X77205359Y-117160000D01*
X77187963Y-117336627D01*
X77136443Y-117506466D01*
X77052778Y-117662991D01*
X77023448Y-117698729D01*
X76940186Y-117800186D01*
X76838729Y-117883448D01*
X76802991Y-117912778D01*
X76646466Y-117996443D01*
X76476627Y-118047963D01*
X76410443Y-118054481D01*
X76344260Y-118061000D01*
X76255740Y-118061000D01*
X76189557Y-118054481D01*
X76123373Y-118047963D01*
X75953534Y-117996443D01*
X75797009Y-117912778D01*
X75761271Y-117883448D01*
X75659814Y-117800186D01*
X75576552Y-117698729D01*
X75547222Y-117662991D01*
X75463557Y-117506466D01*
X75412037Y-117336627D01*
X75394641Y-117160000D01*
X75412037Y-116983373D01*
X75463557Y-116813534D01*
X75547222Y-116657009D01*
X75576552Y-116621271D01*
X75659814Y-116519814D01*
X75761271Y-116436552D01*
X75797009Y-116407222D01*
X75953534Y-116323557D01*
X76123373Y-116272037D01*
X76189557Y-116265519D01*
X76255740Y-116259000D01*
X76344260Y-116259000D01*
X76410443Y-116265519D01*
X76410443Y-116265519D01*
G37*
G36*
X88210443Y-116265519D02*
G01*
X88276627Y-116272037D01*
X88446466Y-116323557D01*
X88602991Y-116407222D01*
X88638729Y-116436552D01*
X88740186Y-116519814D01*
X88823448Y-116621271D01*
X88852778Y-116657009D01*
X88936443Y-116813534D01*
X88987963Y-116983373D01*
X89005359Y-117160000D01*
X88987963Y-117336627D01*
X88936443Y-117506466D01*
X88852778Y-117662991D01*
X88823448Y-117698729D01*
X88740186Y-117800186D01*
X88638729Y-117883448D01*
X88602991Y-117912778D01*
X88446466Y-117996443D01*
X88276627Y-118047963D01*
X88210443Y-118054481D01*
X88144260Y-118061000D01*
X88055740Y-118061000D01*
X87989557Y-118054481D01*
X87923373Y-118047963D01*
X87753534Y-117996443D01*
X87597009Y-117912778D01*
X87561271Y-117883448D01*
X87459814Y-117800186D01*
X87376552Y-117698729D01*
X87347222Y-117662991D01*
X87263557Y-117506466D01*
X87212037Y-117336627D01*
X87194641Y-117160000D01*
X87212037Y-116983373D01*
X87263557Y-116813534D01*
X87347222Y-116657009D01*
X87376552Y-116621271D01*
X87459814Y-116519814D01*
X87561271Y-116436552D01*
X87597009Y-116407222D01*
X87753534Y-116323557D01*
X87923373Y-116272037D01*
X87989557Y-116265519D01*
X88055740Y-116259000D01*
X88144260Y-116259000D01*
X88210443Y-116265519D01*
X88210443Y-116265519D01*
G37*
G36*
X121001000Y-117141000D02*
G01*
X119199000Y-117141000D01*
X119199000Y-115339000D01*
X121001000Y-115339000D01*
X121001000Y-117141000D01*
X121001000Y-117141000D01*
G37*
G36*
X120210443Y-112805519D02*
G01*
X120276627Y-112812037D01*
X120446466Y-112863557D01*
X120602991Y-112947222D01*
X120638729Y-112976552D01*
X120740186Y-113059814D01*
X120823448Y-113161271D01*
X120852778Y-113197009D01*
X120936443Y-113353534D01*
X120987963Y-113523373D01*
X121005359Y-113700000D01*
X120987963Y-113876627D01*
X120936443Y-114046466D01*
X120852778Y-114202991D01*
X120823448Y-114238729D01*
X120740186Y-114340186D01*
X120638729Y-114423448D01*
X120602991Y-114452778D01*
X120446466Y-114536443D01*
X120276627Y-114587963D01*
X120210443Y-114594481D01*
X120144260Y-114601000D01*
X120055740Y-114601000D01*
X119989557Y-114594481D01*
X119923373Y-114587963D01*
X119753534Y-114536443D01*
X119597009Y-114452778D01*
X119561271Y-114423448D01*
X119459814Y-114340186D01*
X119376552Y-114238729D01*
X119347222Y-114202991D01*
X119263557Y-114046466D01*
X119212037Y-113876627D01*
X119194641Y-113700000D01*
X119212037Y-113523373D01*
X119263557Y-113353534D01*
X119347222Y-113197009D01*
X119376552Y-113161271D01*
X119459814Y-113059814D01*
X119561271Y-112976552D01*
X119597009Y-112947222D01*
X119753534Y-112863557D01*
X119923373Y-112812037D01*
X119989557Y-112805519D01*
X120055740Y-112799000D01*
X120144260Y-112799000D01*
X120210443Y-112805519D01*
X120210443Y-112805519D01*
G37*
G36*
X76410443Y-108445519D02*
G01*
X76476627Y-108452037D01*
X76646466Y-108503557D01*
X76802991Y-108587222D01*
X76838729Y-108616552D01*
X76940186Y-108699814D01*
X77019951Y-108797009D01*
X77052778Y-108837009D01*
X77136443Y-108993534D01*
X77187963Y-109163373D01*
X77205359Y-109340000D01*
X77187963Y-109516627D01*
X77136443Y-109686466D01*
X77052778Y-109842991D01*
X77023448Y-109878729D01*
X76940186Y-109980186D01*
X76851731Y-110052778D01*
X76802991Y-110092778D01*
X76646466Y-110176443D01*
X76476627Y-110227963D01*
X76410442Y-110234482D01*
X76344260Y-110241000D01*
X76255740Y-110241000D01*
X76189558Y-110234482D01*
X76123373Y-110227963D01*
X75953534Y-110176443D01*
X75797009Y-110092778D01*
X75748269Y-110052778D01*
X75659814Y-109980186D01*
X75576552Y-109878729D01*
X75547222Y-109842991D01*
X75463557Y-109686466D01*
X75412037Y-109516627D01*
X75394641Y-109340000D01*
X75412037Y-109163373D01*
X75463557Y-108993534D01*
X75547222Y-108837009D01*
X75580049Y-108797009D01*
X75659814Y-108699814D01*
X75761271Y-108616552D01*
X75797009Y-108587222D01*
X75953534Y-108503557D01*
X76123373Y-108452037D01*
X76189557Y-108445519D01*
X76255740Y-108439000D01*
X76344260Y-108439000D01*
X76410443Y-108445519D01*
X76410443Y-108445519D01*
G37*
G36*
X88210442Y-108405518D02*
G01*
X88276627Y-108412037D01*
X88446466Y-108463557D01*
X88602991Y-108547222D01*
X88638729Y-108576552D01*
X88740186Y-108659814D01*
X88823448Y-108761271D01*
X88852778Y-108797009D01*
X88936443Y-108953534D01*
X88987963Y-109123373D01*
X89005359Y-109300000D01*
X88987963Y-109476627D01*
X88936443Y-109646466D01*
X88852778Y-109802991D01*
X88823448Y-109838729D01*
X88740186Y-109940186D01*
X88638729Y-110023448D01*
X88602991Y-110052778D01*
X88446466Y-110136443D01*
X88276627Y-110187963D01*
X88210443Y-110194481D01*
X88144260Y-110201000D01*
X88055740Y-110201000D01*
X87989557Y-110194481D01*
X87923373Y-110187963D01*
X87753534Y-110136443D01*
X87597009Y-110052778D01*
X87561271Y-110023448D01*
X87459814Y-109940186D01*
X87376552Y-109838729D01*
X87347222Y-109802991D01*
X87263557Y-109646466D01*
X87212037Y-109476627D01*
X87194641Y-109300000D01*
X87212037Y-109123373D01*
X87263557Y-108953534D01*
X87347222Y-108797009D01*
X87376552Y-108761271D01*
X87459814Y-108659814D01*
X87561271Y-108576552D01*
X87597009Y-108547222D01*
X87753534Y-108463557D01*
X87923373Y-108412037D01*
X87989558Y-108405518D01*
X88055740Y-108399000D01*
X88144260Y-108399000D01*
X88210442Y-108405518D01*
X88210442Y-108405518D01*
G37*
G36*
X77201000Y-107701000D02*
G01*
X75399000Y-107701000D01*
X75399000Y-105899000D01*
X77201000Y-105899000D01*
X77201000Y-107701000D01*
X77201000Y-107701000D01*
G37*
G36*
X89001000Y-107661000D02*
G01*
X87199000Y-107661000D01*
X87199000Y-105859000D01*
X89001000Y-105859000D01*
X89001000Y-107661000D01*
X89001000Y-107661000D01*
G37*
G36*
X121001000Y-101601000D02*
G01*
X119199000Y-101601000D01*
X119199000Y-99799000D01*
X121001000Y-99799000D01*
X121001000Y-101601000D01*
X121001000Y-101601000D01*
G37*
G36*
X109301000Y-101541000D02*
G01*
X107499000Y-101541000D01*
X107499000Y-99739000D01*
X109301000Y-99739000D01*
X109301000Y-101541000D01*
X109301000Y-101541000D01*
G37*
G36*
X88601000Y-101301000D02*
G01*
X86799000Y-101301000D01*
X86799000Y-99499000D01*
X88601000Y-99499000D01*
X88601000Y-101301000D01*
X88601000Y-101301000D01*
G37*
G36*
X77401000Y-101301000D02*
G01*
X75599000Y-101301000D01*
X75599000Y-99499000D01*
X77401000Y-99499000D01*
X77401000Y-101301000D01*
X77401000Y-101301000D01*
G37*
G36*
X120190527Y-97263557D02*
G01*
X120276627Y-97272037D01*
X120446466Y-97323557D01*
X120602991Y-97407222D01*
X120638729Y-97436552D01*
X120740186Y-97519814D01*
X120803537Y-97597009D01*
X120852778Y-97657009D01*
X120936443Y-97813534D01*
X120987963Y-97983373D01*
X121005359Y-98160000D01*
X120987963Y-98336627D01*
X120936443Y-98506466D01*
X120852778Y-98662991D01*
X120825325Y-98696442D01*
X120740186Y-98800186D01*
X120638729Y-98883448D01*
X120602991Y-98912778D01*
X120446466Y-98996443D01*
X120276627Y-99047963D01*
X120210442Y-99054482D01*
X120144260Y-99061000D01*
X120055740Y-99061000D01*
X119989557Y-99054481D01*
X119923373Y-99047963D01*
X119753534Y-98996443D01*
X119597009Y-98912778D01*
X119561271Y-98883448D01*
X119459814Y-98800186D01*
X119374675Y-98696442D01*
X119347222Y-98662991D01*
X119263557Y-98506466D01*
X119212037Y-98336627D01*
X119194641Y-98160000D01*
X119212037Y-97983373D01*
X119263557Y-97813534D01*
X119347222Y-97657009D01*
X119396463Y-97597009D01*
X119459814Y-97519814D01*
X119561271Y-97436552D01*
X119597009Y-97407222D01*
X119753534Y-97323557D01*
X119923373Y-97272037D01*
X120009473Y-97263557D01*
X120055740Y-97259000D01*
X120144260Y-97259000D01*
X120190527Y-97263557D01*
X120190527Y-97263557D01*
G37*
G36*
X108510442Y-97205518D02*
G01*
X108576627Y-97212037D01*
X108746466Y-97263557D01*
X108902991Y-97347222D01*
X108938729Y-97376552D01*
X109040186Y-97459814D01*
X109123448Y-97561271D01*
X109152778Y-97597009D01*
X109236443Y-97753534D01*
X109287963Y-97923373D01*
X109305359Y-98100000D01*
X109287963Y-98276627D01*
X109236443Y-98446466D01*
X109152778Y-98602991D01*
X109144745Y-98612779D01*
X109040186Y-98740186D01*
X108938729Y-98823448D01*
X108902991Y-98852778D01*
X108746466Y-98936443D01*
X108576627Y-98987963D01*
X108510443Y-98994481D01*
X108444260Y-99001000D01*
X108355740Y-99001000D01*
X108289557Y-98994481D01*
X108223373Y-98987963D01*
X108053534Y-98936443D01*
X107897009Y-98852778D01*
X107861271Y-98823448D01*
X107759814Y-98740186D01*
X107655255Y-98612779D01*
X107647222Y-98602991D01*
X107563557Y-98446466D01*
X107512037Y-98276627D01*
X107494641Y-98100000D01*
X107512037Y-97923373D01*
X107563557Y-97753534D01*
X107647222Y-97597009D01*
X107676552Y-97561271D01*
X107759814Y-97459814D01*
X107861271Y-97376552D01*
X107897009Y-97347222D01*
X108053534Y-97263557D01*
X108223373Y-97212037D01*
X108289558Y-97205518D01*
X108355740Y-97199000D01*
X108444260Y-97199000D01*
X108510442Y-97205518D01*
X108510442Y-97205518D01*
G37*
G36*
X87810442Y-96965518D02*
G01*
X87876627Y-96972037D01*
X88046466Y-97023557D01*
X88202991Y-97107222D01*
X88238729Y-97136552D01*
X88340186Y-97219814D01*
X88423448Y-97321271D01*
X88452778Y-97357009D01*
X88536443Y-97513534D01*
X88587963Y-97683373D01*
X88605359Y-97860000D01*
X88587963Y-98036627D01*
X88536443Y-98206466D01*
X88452778Y-98362991D01*
X88423448Y-98398729D01*
X88340186Y-98500186D01*
X88238729Y-98583448D01*
X88202991Y-98612778D01*
X88046466Y-98696443D01*
X87876627Y-98747963D01*
X87810443Y-98754481D01*
X87744260Y-98761000D01*
X87655740Y-98761000D01*
X87589558Y-98754482D01*
X87523373Y-98747963D01*
X87353534Y-98696443D01*
X87197009Y-98612778D01*
X87161271Y-98583448D01*
X87059814Y-98500186D01*
X86976552Y-98398729D01*
X86947222Y-98362991D01*
X86863557Y-98206466D01*
X86812037Y-98036627D01*
X86794641Y-97860000D01*
X86812037Y-97683373D01*
X86863557Y-97513534D01*
X86947222Y-97357009D01*
X86976552Y-97321271D01*
X87059814Y-97219814D01*
X87161271Y-97136552D01*
X87197009Y-97107222D01*
X87353534Y-97023557D01*
X87523373Y-96972037D01*
X87589558Y-96965518D01*
X87655740Y-96959000D01*
X87744260Y-96959000D01*
X87810442Y-96965518D01*
X87810442Y-96965518D01*
G37*
G36*
X76610442Y-96965518D02*
G01*
X76676627Y-96972037D01*
X76846466Y-97023557D01*
X77002991Y-97107222D01*
X77038729Y-97136552D01*
X77140186Y-97219814D01*
X77223448Y-97321271D01*
X77252778Y-97357009D01*
X77336443Y-97513534D01*
X77387963Y-97683373D01*
X77405359Y-97860000D01*
X77387963Y-98036627D01*
X77336443Y-98206466D01*
X77252778Y-98362991D01*
X77223448Y-98398729D01*
X77140186Y-98500186D01*
X77038729Y-98583448D01*
X77002991Y-98612778D01*
X76846466Y-98696443D01*
X76676627Y-98747963D01*
X76610443Y-98754481D01*
X76544260Y-98761000D01*
X76455740Y-98761000D01*
X76389558Y-98754482D01*
X76323373Y-98747963D01*
X76153534Y-98696443D01*
X75997009Y-98612778D01*
X75961271Y-98583448D01*
X75859814Y-98500186D01*
X75776552Y-98398729D01*
X75747222Y-98362991D01*
X75663557Y-98206466D01*
X75612037Y-98036627D01*
X75594641Y-97860000D01*
X75612037Y-97683373D01*
X75663557Y-97513534D01*
X75747222Y-97357009D01*
X75776552Y-97321271D01*
X75859814Y-97219814D01*
X75961271Y-97136552D01*
X75997009Y-97107222D01*
X76153534Y-97023557D01*
X76323373Y-96972037D01*
X76389558Y-96965518D01*
X76455740Y-96959000D01*
X76544260Y-96959000D01*
X76610442Y-96965518D01*
X76610442Y-96965518D01*
G37*
G36*
X108510442Y-90245518D02*
G01*
X108576627Y-90252037D01*
X108746466Y-90303557D01*
X108902991Y-90387222D01*
X108938729Y-90416552D01*
X109040186Y-90499814D01*
X109123448Y-90601271D01*
X109152778Y-90637009D01*
X109236443Y-90793534D01*
X109287963Y-90963373D01*
X109305359Y-91140000D01*
X109287963Y-91316627D01*
X109236443Y-91486466D01*
X109152778Y-91642991D01*
X109125325Y-91676442D01*
X109040186Y-91780186D01*
X108938729Y-91863448D01*
X108902991Y-91892778D01*
X108746466Y-91976443D01*
X108576627Y-92027963D01*
X108510443Y-92034481D01*
X108444260Y-92041000D01*
X108355740Y-92041000D01*
X108289557Y-92034481D01*
X108223373Y-92027963D01*
X108053534Y-91976443D01*
X107897009Y-91892778D01*
X107861271Y-91863448D01*
X107759814Y-91780186D01*
X107674675Y-91676442D01*
X107647222Y-91642991D01*
X107563557Y-91486466D01*
X107512037Y-91316627D01*
X107494641Y-91140000D01*
X107512037Y-90963373D01*
X107563557Y-90793534D01*
X107647222Y-90637009D01*
X107676552Y-90601271D01*
X107759814Y-90499814D01*
X107861271Y-90416552D01*
X107897009Y-90387222D01*
X108053534Y-90303557D01*
X108223373Y-90252037D01*
X108289558Y-90245518D01*
X108355740Y-90239000D01*
X108444260Y-90239000D01*
X108510442Y-90245518D01*
X108510442Y-90245518D01*
G37*
G36*
X120210442Y-90245518D02*
G01*
X120276627Y-90252037D01*
X120446466Y-90303557D01*
X120602991Y-90387222D01*
X120638729Y-90416552D01*
X120740186Y-90499814D01*
X120823448Y-90601271D01*
X120852778Y-90637009D01*
X120936443Y-90793534D01*
X120987963Y-90963373D01*
X121005359Y-91140000D01*
X120987963Y-91316627D01*
X120936443Y-91486466D01*
X120852778Y-91642991D01*
X120825325Y-91676442D01*
X120740186Y-91780186D01*
X120638729Y-91863448D01*
X120602991Y-91892778D01*
X120446466Y-91976443D01*
X120276627Y-92027963D01*
X120210443Y-92034481D01*
X120144260Y-92041000D01*
X120055740Y-92041000D01*
X119989557Y-92034481D01*
X119923373Y-92027963D01*
X119753534Y-91976443D01*
X119597009Y-91892778D01*
X119561271Y-91863448D01*
X119459814Y-91780186D01*
X119374675Y-91676442D01*
X119347222Y-91642991D01*
X119263557Y-91486466D01*
X119212037Y-91316627D01*
X119194641Y-91140000D01*
X119212037Y-90963373D01*
X119263557Y-90793534D01*
X119347222Y-90637009D01*
X119376552Y-90601271D01*
X119459814Y-90499814D01*
X119561271Y-90416552D01*
X119597009Y-90387222D01*
X119753534Y-90303557D01*
X119923373Y-90252037D01*
X119989558Y-90245518D01*
X120055740Y-90239000D01*
X120144260Y-90239000D01*
X120210442Y-90245518D01*
X120210442Y-90245518D01*
G37*
G36*
X87810442Y-89945518D02*
G01*
X87876627Y-89952037D01*
X88046466Y-90003557D01*
X88202991Y-90087222D01*
X88238729Y-90116552D01*
X88340186Y-90199814D01*
X88419951Y-90297009D01*
X88452778Y-90337009D01*
X88536443Y-90493534D01*
X88587963Y-90663373D01*
X88605359Y-90840000D01*
X88587963Y-91016627D01*
X88536443Y-91186466D01*
X88452778Y-91342991D01*
X88423448Y-91378729D01*
X88340186Y-91480186D01*
X88251731Y-91552778D01*
X88202991Y-91592778D01*
X88046466Y-91676443D01*
X87876627Y-91727963D01*
X87810442Y-91734482D01*
X87744260Y-91741000D01*
X87655740Y-91741000D01*
X87589558Y-91734482D01*
X87523373Y-91727963D01*
X87353534Y-91676443D01*
X87197009Y-91592778D01*
X87148269Y-91552778D01*
X87059814Y-91480186D01*
X86976552Y-91378729D01*
X86947222Y-91342991D01*
X86863557Y-91186466D01*
X86812037Y-91016627D01*
X86794641Y-90840000D01*
X86812037Y-90663373D01*
X86863557Y-90493534D01*
X86947222Y-90337009D01*
X86980049Y-90297009D01*
X87059814Y-90199814D01*
X87161271Y-90116552D01*
X87197009Y-90087222D01*
X87353534Y-90003557D01*
X87523373Y-89952037D01*
X87589558Y-89945518D01*
X87655740Y-89939000D01*
X87744260Y-89939000D01*
X87810442Y-89945518D01*
X87810442Y-89945518D01*
G37*
G36*
X76510443Y-89905519D02*
G01*
X76576627Y-89912037D01*
X76746466Y-89963557D01*
X76902991Y-90047222D01*
X76938729Y-90076552D01*
X77040186Y-90159814D01*
X77105171Y-90239000D01*
X77152778Y-90297009D01*
X77236443Y-90453534D01*
X77287963Y-90623373D01*
X77305359Y-90800000D01*
X77287963Y-90976627D01*
X77236443Y-91146466D01*
X77152778Y-91302991D01*
X77141587Y-91316627D01*
X77040186Y-91440186D01*
X76938729Y-91523448D01*
X76902991Y-91552778D01*
X76746466Y-91636443D01*
X76576627Y-91687963D01*
X76510442Y-91694482D01*
X76444260Y-91701000D01*
X76355740Y-91701000D01*
X76289558Y-91694482D01*
X76223373Y-91687963D01*
X76053534Y-91636443D01*
X75897009Y-91552778D01*
X75861271Y-91523448D01*
X75759814Y-91440186D01*
X75658413Y-91316627D01*
X75647222Y-91302991D01*
X75563557Y-91146466D01*
X75512037Y-90976627D01*
X75494641Y-90800000D01*
X75512037Y-90623373D01*
X75563557Y-90453534D01*
X75647222Y-90297009D01*
X75694829Y-90239000D01*
X75759814Y-90159814D01*
X75861271Y-90076552D01*
X75897009Y-90047222D01*
X76053534Y-89963557D01*
X76223373Y-89912037D01*
X76289557Y-89905519D01*
X76355740Y-89899000D01*
X76444260Y-89899000D01*
X76510443Y-89905519D01*
X76510443Y-89905519D01*
G37*
G36*
X121001000Y-89501000D02*
G01*
X119199000Y-89501000D01*
X119199000Y-87699000D01*
X121001000Y-87699000D01*
X121001000Y-89501000D01*
X121001000Y-89501000D01*
G37*
G36*
X109301000Y-89501000D02*
G01*
X107499000Y-89501000D01*
X107499000Y-87699000D01*
X109301000Y-87699000D01*
X109301000Y-89501000D01*
X109301000Y-89501000D01*
G37*
G36*
X88601000Y-89201000D02*
G01*
X86799000Y-89201000D01*
X86799000Y-87399000D01*
X88601000Y-87399000D01*
X88601000Y-89201000D01*
X88601000Y-89201000D01*
G37*
G36*
X77301000Y-89161000D02*
G01*
X75499000Y-89161000D01*
X75499000Y-87359000D01*
X77301000Y-87359000D01*
X77301000Y-89161000D01*
X77301000Y-89161000D01*
G37*
G36*
X143070443Y-81985519D02*
G01*
X143136627Y-81992037D01*
X143306466Y-82043557D01*
X143462991Y-82127222D01*
X143498729Y-82156552D01*
X143600186Y-82239814D01*
X143683448Y-82341271D01*
X143712778Y-82377009D01*
X143796443Y-82533534D01*
X143847963Y-82703373D01*
X143865359Y-82880000D01*
X143847963Y-83056627D01*
X143796443Y-83226466D01*
X143712778Y-83382991D01*
X143683448Y-83418729D01*
X143600186Y-83520186D01*
X143498729Y-83603448D01*
X143462991Y-83632778D01*
X143306466Y-83716443D01*
X143136627Y-83767963D01*
X143070442Y-83774482D01*
X143004260Y-83781000D01*
X142915740Y-83781000D01*
X142849558Y-83774482D01*
X142783373Y-83767963D01*
X142613534Y-83716443D01*
X142457009Y-83632778D01*
X142421271Y-83603448D01*
X142319814Y-83520186D01*
X142236552Y-83418729D01*
X142207222Y-83382991D01*
X142123557Y-83226466D01*
X142072037Y-83056627D01*
X142054641Y-82880000D01*
X142072037Y-82703373D01*
X142123557Y-82533534D01*
X142207222Y-82377009D01*
X142236552Y-82341271D01*
X142319814Y-82239814D01*
X142421271Y-82156552D01*
X142457009Y-82127222D01*
X142613534Y-82043557D01*
X142783373Y-81992037D01*
X142849557Y-81985519D01*
X142915740Y-81979000D01*
X143004260Y-81979000D01*
X143070443Y-81985519D01*
X143070443Y-81985519D01*
G37*
G36*
X140530443Y-81985519D02*
G01*
X140596627Y-81992037D01*
X140766466Y-82043557D01*
X140922991Y-82127222D01*
X140958729Y-82156552D01*
X141060186Y-82239814D01*
X141143448Y-82341271D01*
X141172778Y-82377009D01*
X141256443Y-82533534D01*
X141307963Y-82703373D01*
X141325359Y-82880000D01*
X141307963Y-83056627D01*
X141256443Y-83226466D01*
X141172778Y-83382991D01*
X141143448Y-83418729D01*
X141060186Y-83520186D01*
X140958729Y-83603448D01*
X140922991Y-83632778D01*
X140766466Y-83716443D01*
X140596627Y-83767963D01*
X140530442Y-83774482D01*
X140464260Y-83781000D01*
X140375740Y-83781000D01*
X140309558Y-83774482D01*
X140243373Y-83767963D01*
X140073534Y-83716443D01*
X139917009Y-83632778D01*
X139881271Y-83603448D01*
X139779814Y-83520186D01*
X139696552Y-83418729D01*
X139667222Y-83382991D01*
X139583557Y-83226466D01*
X139532037Y-83056627D01*
X139514641Y-82880000D01*
X139532037Y-82703373D01*
X139583557Y-82533534D01*
X139667222Y-82377009D01*
X139696552Y-82341271D01*
X139779814Y-82239814D01*
X139881271Y-82156552D01*
X139917009Y-82127222D01*
X140073534Y-82043557D01*
X140243373Y-81992037D01*
X140309557Y-81985519D01*
X140375740Y-81979000D01*
X140464260Y-81979000D01*
X140530443Y-81985519D01*
X140530443Y-81985519D01*
G37*
G36*
X142816442Y-79445518D02*
G01*
X142882627Y-79452037D01*
X143052466Y-79503557D01*
X143208991Y-79587222D01*
X143244729Y-79616552D01*
X143346186Y-79699814D01*
X143429448Y-79801271D01*
X143458778Y-79837009D01*
X143542443Y-79993534D01*
X143593963Y-80163373D01*
X143611359Y-80340000D01*
X143593963Y-80516627D01*
X143542443Y-80686466D01*
X143458778Y-80842991D01*
X143429448Y-80878729D01*
X143346186Y-80980186D01*
X143244729Y-81063448D01*
X143208991Y-81092778D01*
X143052466Y-81176443D01*
X142882627Y-81227963D01*
X142816442Y-81234482D01*
X142750260Y-81241000D01*
X142661740Y-81241000D01*
X142595558Y-81234482D01*
X142529373Y-81227963D01*
X142359534Y-81176443D01*
X142203009Y-81092778D01*
X142167271Y-81063448D01*
X142065814Y-80980186D01*
X141982552Y-80878729D01*
X141953222Y-80842991D01*
X141869557Y-80686466D01*
X141818037Y-80516627D01*
X141800641Y-80340000D01*
X141818037Y-80163373D01*
X141869557Y-79993534D01*
X141953222Y-79837009D01*
X141982552Y-79801271D01*
X142065814Y-79699814D01*
X142167271Y-79616552D01*
X142203009Y-79587222D01*
X142359534Y-79503557D01*
X142529373Y-79452037D01*
X142595558Y-79445518D01*
X142661740Y-79439000D01*
X142750260Y-79439000D01*
X142816442Y-79445518D01*
X142816442Y-79445518D01*
G37*
G36*
X140276442Y-79445518D02*
G01*
X140342627Y-79452037D01*
X140512466Y-79503557D01*
X140668991Y-79587222D01*
X140704729Y-79616552D01*
X140806186Y-79699814D01*
X140889448Y-79801271D01*
X140918778Y-79837009D01*
X141002443Y-79993534D01*
X141053963Y-80163373D01*
X141071359Y-80340000D01*
X141053963Y-80516627D01*
X141002443Y-80686466D01*
X140918778Y-80842991D01*
X140889448Y-80878729D01*
X140806186Y-80980186D01*
X140704729Y-81063448D01*
X140668991Y-81092778D01*
X140512466Y-81176443D01*
X140342627Y-81227963D01*
X140276442Y-81234482D01*
X140210260Y-81241000D01*
X140121740Y-81241000D01*
X140055558Y-81234482D01*
X139989373Y-81227963D01*
X139819534Y-81176443D01*
X139663009Y-81092778D01*
X139627271Y-81063448D01*
X139525814Y-80980186D01*
X139442552Y-80878729D01*
X139413222Y-80842991D01*
X139329557Y-80686466D01*
X139278037Y-80516627D01*
X139260641Y-80340000D01*
X139278037Y-80163373D01*
X139329557Y-79993534D01*
X139413222Y-79837009D01*
X139442552Y-79801271D01*
X139525814Y-79699814D01*
X139627271Y-79616552D01*
X139663009Y-79587222D01*
X139819534Y-79503557D01*
X139989373Y-79452037D01*
X140055558Y-79445518D01*
X140121740Y-79439000D01*
X140210260Y-79439000D01*
X140276442Y-79445518D01*
X140276442Y-79445518D01*
G37*
G36*
X143070443Y-76905519D02*
G01*
X143136627Y-76912037D01*
X143306466Y-76963557D01*
X143462991Y-77047222D01*
X143498729Y-77076552D01*
X143600186Y-77159814D01*
X143683448Y-77261271D01*
X143712778Y-77297009D01*
X143796443Y-77453534D01*
X143847963Y-77623373D01*
X143865359Y-77800000D01*
X143847963Y-77976627D01*
X143796443Y-78146466D01*
X143712778Y-78302991D01*
X143683448Y-78338729D01*
X143600186Y-78440186D01*
X143498729Y-78523448D01*
X143462991Y-78552778D01*
X143306466Y-78636443D01*
X143136627Y-78687963D01*
X143070443Y-78694481D01*
X143004260Y-78701000D01*
X142915740Y-78701000D01*
X142849557Y-78694481D01*
X142783373Y-78687963D01*
X142613534Y-78636443D01*
X142457009Y-78552778D01*
X142421271Y-78523448D01*
X142319814Y-78440186D01*
X142236552Y-78338729D01*
X142207222Y-78302991D01*
X142123557Y-78146466D01*
X142072037Y-77976627D01*
X142054641Y-77800000D01*
X142072037Y-77623373D01*
X142123557Y-77453534D01*
X142207222Y-77297009D01*
X142236552Y-77261271D01*
X142319814Y-77159814D01*
X142421271Y-77076552D01*
X142457009Y-77047222D01*
X142613534Y-76963557D01*
X142783373Y-76912037D01*
X142849557Y-76905519D01*
X142915740Y-76899000D01*
X143004260Y-76899000D01*
X143070443Y-76905519D01*
X143070443Y-76905519D01*
G37*
G36*
X140530443Y-76905519D02*
G01*
X140596627Y-76912037D01*
X140766466Y-76963557D01*
X140922991Y-77047222D01*
X140958729Y-77076552D01*
X141060186Y-77159814D01*
X141143448Y-77261271D01*
X141172778Y-77297009D01*
X141256443Y-77453534D01*
X141307963Y-77623373D01*
X141325359Y-77800000D01*
X141307963Y-77976627D01*
X141256443Y-78146466D01*
X141172778Y-78302991D01*
X141143448Y-78338729D01*
X141060186Y-78440186D01*
X140958729Y-78523448D01*
X140922991Y-78552778D01*
X140766466Y-78636443D01*
X140596627Y-78687963D01*
X140530443Y-78694481D01*
X140464260Y-78701000D01*
X140375740Y-78701000D01*
X140309557Y-78694481D01*
X140243373Y-78687963D01*
X140073534Y-78636443D01*
X139917009Y-78552778D01*
X139881271Y-78523448D01*
X139779814Y-78440186D01*
X139696552Y-78338729D01*
X139667222Y-78302991D01*
X139583557Y-78146466D01*
X139532037Y-77976627D01*
X139514641Y-77800000D01*
X139532037Y-77623373D01*
X139583557Y-77453534D01*
X139667222Y-77297009D01*
X139696552Y-77261271D01*
X139779814Y-77159814D01*
X139881271Y-77076552D01*
X139917009Y-77047222D01*
X140073534Y-76963557D01*
X140243373Y-76912037D01*
X140309557Y-76905519D01*
X140375740Y-76899000D01*
X140464260Y-76899000D01*
X140530443Y-76905519D01*
X140530443Y-76905519D01*
G37*
G36*
X142816442Y-74365518D02*
G01*
X142882627Y-74372037D01*
X143052466Y-74423557D01*
X143208991Y-74507222D01*
X143244729Y-74536552D01*
X143346186Y-74619814D01*
X143429448Y-74721271D01*
X143458778Y-74757009D01*
X143542443Y-74913534D01*
X143593963Y-75083373D01*
X143611359Y-75260000D01*
X143593963Y-75436627D01*
X143542443Y-75606466D01*
X143458778Y-75762991D01*
X143429448Y-75798729D01*
X143346186Y-75900186D01*
X143244729Y-75983448D01*
X143208991Y-76012778D01*
X143052466Y-76096443D01*
X142882627Y-76147963D01*
X142816443Y-76154481D01*
X142750260Y-76161000D01*
X142661740Y-76161000D01*
X142595557Y-76154481D01*
X142529373Y-76147963D01*
X142359534Y-76096443D01*
X142203009Y-76012778D01*
X142167271Y-75983448D01*
X142065814Y-75900186D01*
X141982552Y-75798729D01*
X141953222Y-75762991D01*
X141869557Y-75606466D01*
X141818037Y-75436627D01*
X141800641Y-75260000D01*
X141818037Y-75083373D01*
X141869557Y-74913534D01*
X141953222Y-74757009D01*
X141982552Y-74721271D01*
X142065814Y-74619814D01*
X142167271Y-74536552D01*
X142203009Y-74507222D01*
X142359534Y-74423557D01*
X142529373Y-74372037D01*
X142595558Y-74365518D01*
X142661740Y-74359000D01*
X142750260Y-74359000D01*
X142816442Y-74365518D01*
X142816442Y-74365518D01*
G37*
G36*
X140276442Y-74365518D02*
G01*
X140342627Y-74372037D01*
X140512466Y-74423557D01*
X140668991Y-74507222D01*
X140704729Y-74536552D01*
X140806186Y-74619814D01*
X140889448Y-74721271D01*
X140918778Y-74757009D01*
X141002443Y-74913534D01*
X141053963Y-75083373D01*
X141071359Y-75260000D01*
X141053963Y-75436627D01*
X141002443Y-75606466D01*
X140918778Y-75762991D01*
X140889448Y-75798729D01*
X140806186Y-75900186D01*
X140704729Y-75983448D01*
X140668991Y-76012778D01*
X140512466Y-76096443D01*
X140342627Y-76147963D01*
X140276443Y-76154481D01*
X140210260Y-76161000D01*
X140121740Y-76161000D01*
X140055557Y-76154481D01*
X139989373Y-76147963D01*
X139819534Y-76096443D01*
X139663009Y-76012778D01*
X139627271Y-75983448D01*
X139525814Y-75900186D01*
X139442552Y-75798729D01*
X139413222Y-75762991D01*
X139329557Y-75606466D01*
X139278037Y-75436627D01*
X139260641Y-75260000D01*
X139278037Y-75083373D01*
X139329557Y-74913534D01*
X139413222Y-74757009D01*
X139442552Y-74721271D01*
X139525814Y-74619814D01*
X139627271Y-74536552D01*
X139663009Y-74507222D01*
X139819534Y-74423557D01*
X139989373Y-74372037D01*
X140055558Y-74365518D01*
X140121740Y-74359000D01*
X140210260Y-74359000D01*
X140276442Y-74365518D01*
X140276442Y-74365518D01*
G37*
G36*
X143070443Y-71825519D02*
G01*
X143136627Y-71832037D01*
X143306466Y-71883557D01*
X143462991Y-71967222D01*
X143498729Y-71996552D01*
X143600186Y-72079814D01*
X143683448Y-72181271D01*
X143712778Y-72217009D01*
X143796443Y-72373534D01*
X143847963Y-72543373D01*
X143865359Y-72720000D01*
X143847963Y-72896627D01*
X143796443Y-73066466D01*
X143712778Y-73222991D01*
X143683448Y-73258729D01*
X143600186Y-73360186D01*
X143498729Y-73443448D01*
X143462991Y-73472778D01*
X143306466Y-73556443D01*
X143136627Y-73607963D01*
X143070442Y-73614482D01*
X143004260Y-73621000D01*
X142915740Y-73621000D01*
X142849558Y-73614482D01*
X142783373Y-73607963D01*
X142613534Y-73556443D01*
X142457009Y-73472778D01*
X142421271Y-73443448D01*
X142319814Y-73360186D01*
X142236552Y-73258729D01*
X142207222Y-73222991D01*
X142123557Y-73066466D01*
X142072037Y-72896627D01*
X142054641Y-72720000D01*
X142072037Y-72543373D01*
X142123557Y-72373534D01*
X142207222Y-72217009D01*
X142236552Y-72181271D01*
X142319814Y-72079814D01*
X142421271Y-71996552D01*
X142457009Y-71967222D01*
X142613534Y-71883557D01*
X142783373Y-71832037D01*
X142849557Y-71825519D01*
X142915740Y-71819000D01*
X143004260Y-71819000D01*
X143070443Y-71825519D01*
X143070443Y-71825519D01*
G37*
G36*
X141321000Y-73621000D02*
G01*
X139519000Y-73621000D01*
X139519000Y-71819000D01*
X141321000Y-71819000D01*
X141321000Y-73621000D01*
X141321000Y-73621000D01*
G37*
G36*
X115271000Y-69471000D02*
G01*
X112769000Y-69471000D01*
X112769000Y-67769000D01*
X115271000Y-67769000D01*
X115271000Y-69471000D01*
X115271000Y-69471000D01*
G37*
G36*
X106966823Y-67781313D02*
G01*
X107127242Y-67829976D01*
X107259906Y-67900886D01*
X107275078Y-67908996D01*
X107404659Y-68015341D01*
X107511004Y-68144922D01*
X107511005Y-68144924D01*
X107590024Y-68292758D01*
X107638687Y-68453177D01*
X107655117Y-68620000D01*
X107638687Y-68786823D01*
X107590024Y-68947242D01*
X107519114Y-69079906D01*
X107511004Y-69095078D01*
X107404659Y-69224659D01*
X107275078Y-69331004D01*
X107275076Y-69331005D01*
X107127242Y-69410024D01*
X106966823Y-69458687D01*
X106841804Y-69471000D01*
X105958196Y-69471000D01*
X105833177Y-69458687D01*
X105672758Y-69410024D01*
X105524924Y-69331005D01*
X105524922Y-69331004D01*
X105395341Y-69224659D01*
X105288996Y-69095078D01*
X105280886Y-69079906D01*
X105209976Y-68947242D01*
X105161313Y-68786823D01*
X105144883Y-68620000D01*
X105161313Y-68453177D01*
X105209976Y-68292758D01*
X105288995Y-68144924D01*
X105288996Y-68144922D01*
X105395341Y-68015341D01*
X105524922Y-67908996D01*
X105540094Y-67900886D01*
X105672758Y-67829976D01*
X105833177Y-67781313D01*
X105958196Y-67769000D01*
X106841804Y-67769000D01*
X106966823Y-67781313D01*
X106966823Y-67781313D01*
G37*
G36*
X118851000Y-69351000D02*
G01*
X117149000Y-69351000D01*
X117149000Y-67649000D01*
X118851000Y-67649000D01*
X118851000Y-69351000D01*
X118851000Y-69351000D01*
G37*
G36*
X146349187Y-66832123D02*
G01*
X146520255Y-66902982D01*
X146520257Y-66902983D01*
X146674215Y-67005855D01*
X146805145Y-67136785D01*
X146903123Y-67283418D01*
X146908018Y-67290745D01*
X146978877Y-67461813D01*
X147015000Y-67643417D01*
X147015000Y-67828583D01*
X146978877Y-68010187D01*
X146923067Y-68144924D01*
X146908017Y-68181257D01*
X146805145Y-68335215D01*
X146674215Y-68466145D01*
X146520257Y-68569017D01*
X146520256Y-68569018D01*
X146520255Y-68569018D01*
X146349187Y-68639877D01*
X146167583Y-68676000D01*
X145982417Y-68676000D01*
X145800813Y-68639877D01*
X145629745Y-68569018D01*
X145629744Y-68569018D01*
X145629743Y-68569017D01*
X145475785Y-68466145D01*
X145344855Y-68335215D01*
X145241983Y-68181257D01*
X145226933Y-68144924D01*
X145171123Y-68010187D01*
X145135000Y-67828583D01*
X145135000Y-67643417D01*
X145171123Y-67461813D01*
X145241982Y-67290745D01*
X145246878Y-67283418D01*
X145344855Y-67136785D01*
X145475785Y-67005855D01*
X145629743Y-66902983D01*
X145629745Y-66902982D01*
X145800813Y-66832123D01*
X145982417Y-66796000D01*
X146167583Y-66796000D01*
X146349187Y-66832123D01*
X146349187Y-66832123D01*
G37*
G36*
X148749187Y-66472123D02*
G01*
X148920255Y-66542982D01*
X148920257Y-66542983D01*
X149074215Y-66645855D01*
X149205145Y-66776785D01*
X149299961Y-66918686D01*
X149308018Y-66930745D01*
X149378877Y-67101813D01*
X149415000Y-67283417D01*
X149415000Y-67468583D01*
X149378877Y-67650187D01*
X149324562Y-67781314D01*
X149308017Y-67821257D01*
X149302191Y-67829976D01*
X149205146Y-67975214D01*
X149074214Y-68106146D01*
X148997758Y-68157232D01*
X148920257Y-68209017D01*
X148920256Y-68209018D01*
X148920255Y-68209018D01*
X148749187Y-68279877D01*
X148567583Y-68316000D01*
X148382417Y-68316000D01*
X148200813Y-68279877D01*
X148029745Y-68209018D01*
X148029744Y-68209018D01*
X148029743Y-68209017D01*
X147952242Y-68157232D01*
X147875786Y-68106146D01*
X147744854Y-67975214D01*
X147647809Y-67829976D01*
X147641983Y-67821257D01*
X147625438Y-67781314D01*
X147571123Y-67650187D01*
X147535000Y-67468583D01*
X147535000Y-67283417D01*
X147571123Y-67101813D01*
X147641982Y-66930745D01*
X147650040Y-66918686D01*
X147744855Y-66776785D01*
X147875785Y-66645855D01*
X148029743Y-66542983D01*
X148029745Y-66542982D01*
X148200813Y-66472123D01*
X148382417Y-66436000D01*
X148567583Y-66436000D01*
X148749187Y-66472123D01*
X148749187Y-66472123D01*
G37*
G36*
X106966823Y-65241313D02*
G01*
X107127242Y-65289976D01*
X107259906Y-65360886D01*
X107275078Y-65368996D01*
X107404659Y-65475341D01*
X107511004Y-65604922D01*
X107511005Y-65604924D01*
X107590024Y-65752758D01*
X107638687Y-65913177D01*
X107655117Y-66080000D01*
X107638687Y-66246823D01*
X107590024Y-66407242D01*
X107555344Y-66472123D01*
X107511004Y-66555078D01*
X107404659Y-66684659D01*
X107275078Y-66791004D01*
X107275076Y-66791005D01*
X107127242Y-66870024D01*
X106966823Y-66918687D01*
X106841804Y-66931000D01*
X105958196Y-66931000D01*
X105833177Y-66918687D01*
X105672758Y-66870024D01*
X105524924Y-66791005D01*
X105524922Y-66791004D01*
X105395341Y-66684659D01*
X105288996Y-66555078D01*
X105244656Y-66472123D01*
X105209976Y-66407242D01*
X105161313Y-66246823D01*
X105144883Y-66080000D01*
X105161313Y-65913177D01*
X105209976Y-65752758D01*
X105288995Y-65604924D01*
X105288996Y-65604922D01*
X105395341Y-65475341D01*
X105524922Y-65368996D01*
X105540094Y-65360886D01*
X105672758Y-65289976D01*
X105833177Y-65241313D01*
X105958196Y-65229000D01*
X106841804Y-65229000D01*
X106966823Y-65241313D01*
X106966823Y-65241313D01*
G37*
G36*
X114586823Y-65241313D02*
G01*
X114747242Y-65289976D01*
X114879906Y-65360886D01*
X114895078Y-65368996D01*
X115024659Y-65475341D01*
X115131004Y-65604922D01*
X115131005Y-65604924D01*
X115210024Y-65752758D01*
X115258687Y-65913177D01*
X115275117Y-66080000D01*
X115258687Y-66246823D01*
X115210024Y-66407242D01*
X115175344Y-66472123D01*
X115131004Y-66555078D01*
X115024659Y-66684659D01*
X114895078Y-66791004D01*
X114895076Y-66791005D01*
X114747242Y-66870024D01*
X114586823Y-66918687D01*
X114461804Y-66931000D01*
X113578196Y-66931000D01*
X113453177Y-66918687D01*
X113292758Y-66870024D01*
X113144924Y-66791005D01*
X113144922Y-66791004D01*
X113015341Y-66684659D01*
X112908996Y-66555078D01*
X112864656Y-66472123D01*
X112829976Y-66407242D01*
X112781313Y-66246823D01*
X112764883Y-66080000D01*
X112781313Y-65913177D01*
X112829976Y-65752758D01*
X112908995Y-65604924D01*
X112908996Y-65604922D01*
X113015341Y-65475341D01*
X113144922Y-65368996D01*
X113160094Y-65360886D01*
X113292758Y-65289976D01*
X113453177Y-65241313D01*
X113578196Y-65229000D01*
X114461804Y-65229000D01*
X114586823Y-65241313D01*
X114586823Y-65241313D01*
G37*
G36*
X125201000Y-64701000D02*
G01*
X123399000Y-64701000D01*
X123399000Y-62899000D01*
X125201000Y-62899000D01*
X125201000Y-64701000D01*
X125201000Y-64701000D01*
G37*
G36*
X97901000Y-64601000D02*
G01*
X96099000Y-64601000D01*
X96099000Y-62799000D01*
X97901000Y-62799000D01*
X97901000Y-64601000D01*
X97901000Y-64601000D01*
G37*
G36*
X106966823Y-62701313D02*
G01*
X107127242Y-62749976D01*
X107218959Y-62799000D01*
X107275078Y-62828996D01*
X107404659Y-62935341D01*
X107511004Y-63064922D01*
X107511005Y-63064924D01*
X107590024Y-63212758D01*
X107638687Y-63373177D01*
X107655117Y-63540000D01*
X107638687Y-63706823D01*
X107590024Y-63867242D01*
X107519114Y-63999906D01*
X107511004Y-64015078D01*
X107404659Y-64144659D01*
X107275078Y-64251004D01*
X107275076Y-64251005D01*
X107127242Y-64330024D01*
X106966823Y-64378687D01*
X106841804Y-64391000D01*
X105958196Y-64391000D01*
X105833177Y-64378687D01*
X105672758Y-64330024D01*
X105524924Y-64251005D01*
X105524922Y-64251004D01*
X105395341Y-64144659D01*
X105288996Y-64015078D01*
X105280886Y-63999906D01*
X105209976Y-63867242D01*
X105161313Y-63706823D01*
X105144883Y-63540000D01*
X105161313Y-63373177D01*
X105209976Y-63212758D01*
X105288995Y-63064924D01*
X105288996Y-63064922D01*
X105395341Y-62935341D01*
X105524922Y-62828996D01*
X105581041Y-62799000D01*
X105672758Y-62749976D01*
X105833177Y-62701313D01*
X105958196Y-62689000D01*
X106841804Y-62689000D01*
X106966823Y-62701313D01*
X106966823Y-62701313D01*
G37*
G36*
X114586823Y-62701313D02*
G01*
X114747242Y-62749976D01*
X114838959Y-62799000D01*
X114895078Y-62828996D01*
X115024659Y-62935341D01*
X115131004Y-63064922D01*
X115131005Y-63064924D01*
X115210024Y-63212758D01*
X115258687Y-63373177D01*
X115275117Y-63540000D01*
X115258687Y-63706823D01*
X115210024Y-63867242D01*
X115139114Y-63999906D01*
X115131004Y-64015078D01*
X115024659Y-64144659D01*
X114895078Y-64251004D01*
X114895076Y-64251005D01*
X114747242Y-64330024D01*
X114586823Y-64378687D01*
X114461804Y-64391000D01*
X113578196Y-64391000D01*
X113453177Y-64378687D01*
X113292758Y-64330024D01*
X113144924Y-64251005D01*
X113144922Y-64251004D01*
X113015341Y-64144659D01*
X112908996Y-64015078D01*
X112900886Y-63999906D01*
X112829976Y-63867242D01*
X112781313Y-63706823D01*
X112764883Y-63540000D01*
X112781313Y-63373177D01*
X112829976Y-63212758D01*
X112908995Y-63064924D01*
X112908996Y-63064922D01*
X113015341Y-62935341D01*
X113144922Y-62828996D01*
X113201041Y-62799000D01*
X113292758Y-62749976D01*
X113453177Y-62701313D01*
X113578196Y-62689000D01*
X114461804Y-62689000D01*
X114586823Y-62701313D01*
X114586823Y-62701313D01*
G37*
G36*
X124410442Y-60365518D02*
G01*
X124476627Y-60372037D01*
X124646466Y-60423557D01*
X124802991Y-60507222D01*
X124838729Y-60536552D01*
X124940186Y-60619814D01*
X125016804Y-60713175D01*
X125052778Y-60757009D01*
X125136443Y-60913534D01*
X125187963Y-61083373D01*
X125205359Y-61260000D01*
X125187963Y-61436627D01*
X125136443Y-61606466D01*
X125052778Y-61762991D01*
X125023448Y-61798729D01*
X124940186Y-61900186D01*
X124838729Y-61983448D01*
X124802991Y-62012778D01*
X124646466Y-62096443D01*
X124476627Y-62147963D01*
X124410442Y-62154482D01*
X124344260Y-62161000D01*
X124255740Y-62161000D01*
X124189558Y-62154482D01*
X124123373Y-62147963D01*
X123953534Y-62096443D01*
X123797009Y-62012778D01*
X123761271Y-61983448D01*
X123659814Y-61900186D01*
X123576552Y-61798729D01*
X123547222Y-61762991D01*
X123463557Y-61606466D01*
X123412037Y-61436627D01*
X123394641Y-61260000D01*
X123412037Y-61083373D01*
X123463557Y-60913534D01*
X123547222Y-60757009D01*
X123583196Y-60713175D01*
X123659814Y-60619814D01*
X123761271Y-60536552D01*
X123797009Y-60507222D01*
X123953534Y-60423557D01*
X124123373Y-60372037D01*
X124189558Y-60365518D01*
X124255740Y-60359000D01*
X124344260Y-60359000D01*
X124410442Y-60365518D01*
X124410442Y-60365518D01*
G37*
G36*
X97110443Y-60265519D02*
G01*
X97176627Y-60272037D01*
X97346466Y-60323557D01*
X97502991Y-60407222D01*
X97522895Y-60423557D01*
X97640186Y-60519814D01*
X97699272Y-60591812D01*
X97752778Y-60657009D01*
X97836443Y-60813534D01*
X97887963Y-60983373D01*
X97905359Y-61160000D01*
X97887963Y-61336627D01*
X97836443Y-61506466D01*
X97752778Y-61662991D01*
X97747006Y-61670024D01*
X97640186Y-61800186D01*
X97538729Y-61883448D01*
X97502991Y-61912778D01*
X97346466Y-61996443D01*
X97176627Y-62047963D01*
X97110442Y-62054482D01*
X97044260Y-62061000D01*
X96955740Y-62061000D01*
X96889558Y-62054482D01*
X96823373Y-62047963D01*
X96653534Y-61996443D01*
X96497009Y-61912778D01*
X96461271Y-61883448D01*
X96359814Y-61800186D01*
X96252994Y-61670024D01*
X96247222Y-61662991D01*
X96163557Y-61506466D01*
X96112037Y-61336627D01*
X96094641Y-61160000D01*
X96112037Y-60983373D01*
X96163557Y-60813534D01*
X96247222Y-60657009D01*
X96300728Y-60591812D01*
X96359814Y-60519814D01*
X96477105Y-60423557D01*
X96497009Y-60407222D01*
X96653534Y-60323557D01*
X96823373Y-60272037D01*
X96889557Y-60265519D01*
X96955740Y-60259000D01*
X97044260Y-60259000D01*
X97110443Y-60265519D01*
X97110443Y-60265519D01*
G37*
G36*
X114586823Y-60161313D02*
G01*
X114747242Y-60209976D01*
X114838959Y-60259000D01*
X114895078Y-60288996D01*
X115024659Y-60395341D01*
X115131004Y-60524922D01*
X115131005Y-60524924D01*
X115210024Y-60672758D01*
X115258687Y-60833177D01*
X115275117Y-61000000D01*
X115258687Y-61166823D01*
X115210024Y-61327242D01*
X115151556Y-61436627D01*
X115131004Y-61475078D01*
X115024659Y-61604659D01*
X114895078Y-61711004D01*
X114895076Y-61711005D01*
X114747242Y-61790024D01*
X114586823Y-61838687D01*
X114461804Y-61851000D01*
X113578196Y-61851000D01*
X113453177Y-61838687D01*
X113292758Y-61790024D01*
X113144924Y-61711005D01*
X113144922Y-61711004D01*
X113015341Y-61604659D01*
X112908996Y-61475078D01*
X112888444Y-61436627D01*
X112829976Y-61327242D01*
X112781313Y-61166823D01*
X112764883Y-61000000D01*
X112781313Y-60833177D01*
X112829976Y-60672758D01*
X112908995Y-60524924D01*
X112908996Y-60524922D01*
X113015341Y-60395341D01*
X113144922Y-60288996D01*
X113201041Y-60259000D01*
X113292758Y-60209976D01*
X113453177Y-60161313D01*
X113578196Y-60149000D01*
X114461804Y-60149000D01*
X114586823Y-60161313D01*
X114586823Y-60161313D01*
G37*
G36*
X106966823Y-60161313D02*
G01*
X107127242Y-60209976D01*
X107218959Y-60259000D01*
X107275078Y-60288996D01*
X107404659Y-60395341D01*
X107511004Y-60524922D01*
X107511005Y-60524924D01*
X107590024Y-60672758D01*
X107638687Y-60833177D01*
X107655117Y-61000000D01*
X107638687Y-61166823D01*
X107590024Y-61327242D01*
X107531556Y-61436627D01*
X107511004Y-61475078D01*
X107404659Y-61604659D01*
X107275078Y-61711004D01*
X107275076Y-61711005D01*
X107127242Y-61790024D01*
X106966823Y-61838687D01*
X106841804Y-61851000D01*
X105958196Y-61851000D01*
X105833177Y-61838687D01*
X105672758Y-61790024D01*
X105524924Y-61711005D01*
X105524922Y-61711004D01*
X105395341Y-61604659D01*
X105288996Y-61475078D01*
X105268444Y-61436627D01*
X105209976Y-61327242D01*
X105161313Y-61166823D01*
X105144883Y-61000000D01*
X105161313Y-60833177D01*
X105209976Y-60672758D01*
X105288995Y-60524924D01*
X105288996Y-60524922D01*
X105395341Y-60395341D01*
X105524922Y-60288996D01*
X105581041Y-60259000D01*
X105672758Y-60209976D01*
X105833177Y-60161313D01*
X105958196Y-60149000D01*
X106841804Y-60149000D01*
X106966823Y-60161313D01*
X106966823Y-60161313D01*
G37*
G36*
X148749187Y-59962123D02*
G01*
X148920255Y-60032982D01*
X148920257Y-60032983D01*
X148997758Y-60084768D01*
X149074214Y-60135854D01*
X149205146Y-60266786D01*
X149219986Y-60288996D01*
X149303123Y-60413418D01*
X149308018Y-60420745D01*
X149378877Y-60591813D01*
X149415000Y-60773417D01*
X149415000Y-60958583D01*
X149378877Y-61140187D01*
X149308018Y-61311255D01*
X149308017Y-61311257D01*
X149256232Y-61388758D01*
X149224249Y-61436625D01*
X149205145Y-61465215D01*
X149074215Y-61596145D01*
X148920257Y-61699017D01*
X148920256Y-61699018D01*
X148920255Y-61699018D01*
X148749187Y-61769877D01*
X148567583Y-61806000D01*
X148382417Y-61806000D01*
X148200813Y-61769877D01*
X148029745Y-61699018D01*
X148029744Y-61699018D01*
X148029743Y-61699017D01*
X147875785Y-61596145D01*
X147744855Y-61465215D01*
X147725752Y-61436625D01*
X147693768Y-61388758D01*
X147641983Y-61311257D01*
X147641982Y-61311255D01*
X147571123Y-61140187D01*
X147535000Y-60958583D01*
X147535000Y-60773417D01*
X147571123Y-60591813D01*
X147641982Y-60420745D01*
X147646878Y-60413418D01*
X147730014Y-60288996D01*
X147744854Y-60266786D01*
X147875786Y-60135854D01*
X147952242Y-60084768D01*
X148029743Y-60032983D01*
X148029745Y-60032982D01*
X148200813Y-59962123D01*
X148382417Y-59926000D01*
X148567583Y-59926000D01*
X148749187Y-59962123D01*
X148749187Y-59962123D01*
G37*
G36*
X118166823Y-60041313D02*
G01*
X118327242Y-60089976D01*
X118413075Y-60135855D01*
X118475078Y-60168996D01*
X118604659Y-60275341D01*
X118711004Y-60404922D01*
X118711005Y-60404924D01*
X118790024Y-60552758D01*
X118838687Y-60713177D01*
X118855117Y-60880000D01*
X118838687Y-61046823D01*
X118790024Y-61207242D01*
X118774575Y-61236145D01*
X118711004Y-61355078D01*
X118604659Y-61484659D01*
X118475078Y-61591004D01*
X118475076Y-61591005D01*
X118327242Y-61670024D01*
X118166823Y-61718687D01*
X118041804Y-61731000D01*
X117958196Y-61731000D01*
X117833177Y-61718687D01*
X117672758Y-61670024D01*
X117524924Y-61591005D01*
X117524922Y-61591004D01*
X117395341Y-61484659D01*
X117288996Y-61355078D01*
X117225425Y-61236145D01*
X117209976Y-61207242D01*
X117161313Y-61046823D01*
X117144883Y-60880000D01*
X117161313Y-60713177D01*
X117209976Y-60552758D01*
X117288995Y-60404924D01*
X117288996Y-60404922D01*
X117395341Y-60275341D01*
X117524922Y-60168996D01*
X117586925Y-60135855D01*
X117672758Y-60089976D01*
X117833177Y-60041313D01*
X117958196Y-60029000D01*
X118041804Y-60029000D01*
X118166823Y-60041313D01*
X118166823Y-60041313D01*
G37*
G36*
X146349187Y-59602123D02*
G01*
X146520255Y-59672982D01*
X146520257Y-59672983D01*
X146674215Y-59775855D01*
X146805145Y-59906785D01*
X146889468Y-60032982D01*
X146908018Y-60060745D01*
X146978877Y-60231813D01*
X147015000Y-60413417D01*
X147015000Y-60598583D01*
X146978877Y-60780187D01*
X146908018Y-60951255D01*
X146908017Y-60951257D01*
X146886556Y-60983375D01*
X146819740Y-61083373D01*
X146805145Y-61105215D01*
X146674215Y-61236145D01*
X146520257Y-61339017D01*
X146520256Y-61339018D01*
X146520255Y-61339018D01*
X146349187Y-61409877D01*
X146167583Y-61446000D01*
X145982417Y-61446000D01*
X145800813Y-61409877D01*
X145629745Y-61339018D01*
X145629744Y-61339018D01*
X145629743Y-61339017D01*
X145475785Y-61236145D01*
X145344855Y-61105215D01*
X145330261Y-61083373D01*
X145263444Y-60983375D01*
X145241983Y-60951257D01*
X145241982Y-60951255D01*
X145171123Y-60780187D01*
X145135000Y-60598583D01*
X145135000Y-60413417D01*
X145171123Y-60231813D01*
X145241982Y-60060745D01*
X145260533Y-60032982D01*
X145344855Y-59906785D01*
X145475785Y-59775855D01*
X145629743Y-59672983D01*
X145629745Y-59672982D01*
X145800813Y-59602123D01*
X145982417Y-59566000D01*
X146167583Y-59566000D01*
X146349187Y-59602123D01*
X146349187Y-59602123D01*
G37*
G36*
X65406373Y-52957024D02*
G01*
X65607589Y-52997048D01*
X65986671Y-53154069D01*
X66327835Y-53382028D01*
X66617972Y-53672165D01*
X66845931Y-54013329D01*
X67002952Y-54392411D01*
X67083000Y-54794842D01*
X67083000Y-55205158D01*
X67002952Y-55607589D01*
X66845931Y-55986671D01*
X66617972Y-56327835D01*
X66327835Y-56617972D01*
X65986671Y-56845931D01*
X65607589Y-57002952D01*
X65406373Y-57042976D01*
X65205159Y-57083000D01*
X64794841Y-57083000D01*
X64593627Y-57042976D01*
X64392411Y-57002952D01*
X64013329Y-56845931D01*
X63672165Y-56617972D01*
X63382028Y-56327835D01*
X63154069Y-55986671D01*
X62997048Y-55607589D01*
X62917000Y-55205158D01*
X62917000Y-54794842D01*
X62997048Y-54392411D01*
X63154069Y-54013329D01*
X63382028Y-53672165D01*
X63672165Y-53382028D01*
X64013329Y-53154069D01*
X64392411Y-52997048D01*
X64593627Y-52957024D01*
X64794841Y-52917000D01*
X65205159Y-52917000D01*
X65406373Y-52957024D01*
X65406373Y-52957024D01*
G37*
G36*
X145406373Y-52957024D02*
G01*
X145607589Y-52997048D01*
X145986671Y-53154069D01*
X146327835Y-53382028D01*
X146617972Y-53672165D01*
X146845931Y-54013329D01*
X147002952Y-54392411D01*
X147083000Y-54794842D01*
X147083000Y-55205158D01*
X147002952Y-55607589D01*
X146845931Y-55986671D01*
X146617972Y-56327835D01*
X146327835Y-56617972D01*
X145986671Y-56845931D01*
X145607589Y-57002952D01*
X145406373Y-57042976D01*
X145205159Y-57083000D01*
X144794841Y-57083000D01*
X144593627Y-57042976D01*
X144392411Y-57002952D01*
X144013329Y-56845931D01*
X143672165Y-56617972D01*
X143382028Y-56327835D01*
X143154069Y-55986671D01*
X142997048Y-55607589D01*
X142917000Y-55205158D01*
X142917000Y-54794842D01*
X142997048Y-54392411D01*
X143154069Y-54013329D01*
X143382028Y-53672165D01*
X143672165Y-53382028D01*
X144013329Y-53154069D01*
X144392411Y-52997048D01*
X144593627Y-52957024D01*
X144794841Y-52917000D01*
X145205159Y-52917000D01*
X145406373Y-52957024D01*
X145406373Y-52957024D01*
G37*
M02*
