G04 #@! TF.GenerationSoftware,KiCad,Pcbnew,(5.1.0)-1*
G04 #@! TF.CreationDate,2019-05-26T15:51:55-04:00*
G04 #@! TF.ProjectId,EG_Panel,45475f50-616e-4656-9c2e-6b696361645f,rev?*
G04 #@! TF.SameCoordinates,Original*
G04 #@! TF.FileFunction,Soldermask,Bot*
G04 #@! TF.FilePolarity,Negative*
%FSLAX46Y46*%
G04 Gerber Fmt 4.6, Leading zero omitted, Abs format (unit mm)*
G04 Created by KiCad (PCBNEW (5.1.0)-1) date 2019-05-26 15:51:55*
%MOMM*%
%LPD*%
G04 APERTURE LIST*
%ADD10C,0.100000*%
G04 APERTURE END LIST*
D10*
G36*
X37906373Y-153457024D02*
G01*
X38107589Y-153497048D01*
X38486671Y-153654069D01*
X38827835Y-153882028D01*
X39117972Y-154172165D01*
X39345931Y-154513329D01*
X39502952Y-154892411D01*
X39583000Y-155294842D01*
X39583000Y-155705158D01*
X39502952Y-156107589D01*
X39345931Y-156486671D01*
X39117972Y-156827835D01*
X38827835Y-157117972D01*
X38486671Y-157345931D01*
X38107589Y-157502952D01*
X37906373Y-157542976D01*
X37705159Y-157583000D01*
X37294841Y-157583000D01*
X37093627Y-157542976D01*
X36892411Y-157502952D01*
X36513329Y-157345931D01*
X36172165Y-157117972D01*
X35882028Y-156827835D01*
X35654069Y-156486671D01*
X35497048Y-156107589D01*
X35417000Y-155705158D01*
X35417000Y-155294842D01*
X35497048Y-154892411D01*
X35654069Y-154513329D01*
X35882028Y-154172165D01*
X36172165Y-153882028D01*
X36513329Y-153654069D01*
X36892411Y-153497048D01*
X37093627Y-153457024D01*
X37294841Y-153417000D01*
X37705159Y-153417000D01*
X37906373Y-153457024D01*
X37906373Y-153457024D01*
G37*
G36*
X65556373Y-137207024D02*
G01*
X65757589Y-137247048D01*
X66025639Y-137358078D01*
X66118681Y-137396617D01*
X66136671Y-137404069D01*
X66477835Y-137632028D01*
X66767972Y-137922165D01*
X66995931Y-138263329D01*
X67152952Y-138642411D01*
X67233000Y-139044842D01*
X67233000Y-139455158D01*
X67152952Y-139857589D01*
X66995931Y-140236671D01*
X66767972Y-140577835D01*
X66477835Y-140867972D01*
X66136671Y-141095931D01*
X65757589Y-141252952D01*
X65355159Y-141333000D01*
X64944841Y-141333000D01*
X64542411Y-141252952D01*
X64163329Y-141095931D01*
X63822165Y-140867972D01*
X63532028Y-140577835D01*
X63304069Y-140236671D01*
X63147048Y-139857589D01*
X63067000Y-139455158D01*
X63067000Y-139044842D01*
X63147048Y-138642411D01*
X63304069Y-138263329D01*
X63532028Y-137922165D01*
X63822165Y-137632028D01*
X64163329Y-137404069D01*
X64181320Y-137396617D01*
X64274361Y-137358078D01*
X64542411Y-137247048D01*
X64743627Y-137207024D01*
X64944841Y-137167000D01*
X65355159Y-137167000D01*
X65556373Y-137207024D01*
X65556373Y-137207024D01*
G37*
G36*
X35556373Y-137207024D02*
G01*
X35757589Y-137247048D01*
X36025639Y-137358078D01*
X36118681Y-137396617D01*
X36136671Y-137404069D01*
X36477835Y-137632028D01*
X36767972Y-137922165D01*
X36995931Y-138263329D01*
X37152952Y-138642411D01*
X37233000Y-139044842D01*
X37233000Y-139455158D01*
X37152952Y-139857589D01*
X36995931Y-140236671D01*
X36767972Y-140577835D01*
X36477835Y-140867972D01*
X36136671Y-141095931D01*
X35757589Y-141252952D01*
X35355159Y-141333000D01*
X34944841Y-141333000D01*
X34542411Y-141252952D01*
X34163329Y-141095931D01*
X33822165Y-140867972D01*
X33532028Y-140577835D01*
X33304069Y-140236671D01*
X33147048Y-139857589D01*
X33067000Y-139455158D01*
X33067000Y-139044842D01*
X33147048Y-138642411D01*
X33304069Y-138263329D01*
X33532028Y-137922165D01*
X33822165Y-137632028D01*
X34163329Y-137404069D01*
X34181320Y-137396617D01*
X34274361Y-137358078D01*
X34542411Y-137247048D01*
X34743627Y-137207024D01*
X34944841Y-137167000D01*
X35355159Y-137167000D01*
X35556373Y-137207024D01*
X35556373Y-137207024D01*
G37*
G36*
X46331632Y-130354677D02*
G01*
X46637005Y-130481167D01*
X47068868Y-130660050D01*
X47732362Y-131103383D01*
X48296617Y-131667638D01*
X48739950Y-132331132D01*
X48918833Y-132762995D01*
X49045323Y-133068368D01*
X49201000Y-133851010D01*
X49201000Y-134648990D01*
X49045323Y-135431632D01*
X48918833Y-135737005D01*
X48739950Y-136168868D01*
X48296617Y-136832362D01*
X47732362Y-137396617D01*
X47068868Y-137839950D01*
X46637005Y-138018833D01*
X46331632Y-138145323D01*
X45548990Y-138301000D01*
X44751010Y-138301000D01*
X43968368Y-138145323D01*
X43662995Y-138018833D01*
X43231132Y-137839950D01*
X42567638Y-137396617D01*
X42003383Y-136832362D01*
X41560050Y-136168868D01*
X41381167Y-135737005D01*
X41254677Y-135431632D01*
X41099000Y-134648990D01*
X41099000Y-133851010D01*
X41254677Y-133068368D01*
X41381167Y-132762995D01*
X41560050Y-132331132D01*
X42003383Y-131667638D01*
X42567638Y-131103383D01*
X43231132Y-130660050D01*
X43662995Y-130481167D01*
X43968368Y-130354677D01*
X44751010Y-130199000D01*
X45548990Y-130199000D01*
X46331632Y-130354677D01*
X46331632Y-130354677D01*
G37*
G36*
X56331632Y-130354677D02*
G01*
X56637005Y-130481167D01*
X57068868Y-130660050D01*
X57732362Y-131103383D01*
X58296617Y-131667638D01*
X58739950Y-132331132D01*
X58918833Y-132762995D01*
X59045323Y-133068368D01*
X59201000Y-133851010D01*
X59201000Y-134648990D01*
X59045323Y-135431632D01*
X58918833Y-135737005D01*
X58739950Y-136168868D01*
X58296617Y-136832362D01*
X57732362Y-137396617D01*
X57068868Y-137839950D01*
X56637005Y-138018833D01*
X56331632Y-138145323D01*
X55548990Y-138301000D01*
X54751010Y-138301000D01*
X53968368Y-138145323D01*
X53662995Y-138018833D01*
X53231132Y-137839950D01*
X52567638Y-137396617D01*
X52003383Y-136832362D01*
X51560050Y-136168868D01*
X51381167Y-135737005D01*
X51254677Y-135431632D01*
X51099000Y-134648990D01*
X51099000Y-133851010D01*
X51254677Y-133068368D01*
X51381167Y-132762995D01*
X51560050Y-132331132D01*
X52003383Y-131667638D01*
X52567638Y-131103383D01*
X53231132Y-130660050D01*
X53662995Y-130481167D01*
X53968368Y-130354677D01*
X54751010Y-130199000D01*
X55548990Y-130199000D01*
X56331632Y-130354677D01*
X56331632Y-130354677D01*
G37*
G36*
X45556373Y-123707024D02*
G01*
X45757589Y-123747048D01*
X46136671Y-123904069D01*
X46477835Y-124132028D01*
X46767972Y-124422165D01*
X46995931Y-124763329D01*
X47152952Y-125142411D01*
X47233000Y-125544842D01*
X47233000Y-125955158D01*
X47152952Y-126357589D01*
X46995931Y-126736671D01*
X46767972Y-127077835D01*
X46477835Y-127367972D01*
X46136671Y-127595931D01*
X45757589Y-127752952D01*
X45355159Y-127833000D01*
X44944841Y-127833000D01*
X44542411Y-127752952D01*
X44163329Y-127595931D01*
X43822165Y-127367972D01*
X43532028Y-127077835D01*
X43304069Y-126736671D01*
X43147048Y-126357589D01*
X43067000Y-125955158D01*
X43067000Y-125544842D01*
X43147048Y-125142411D01*
X43304069Y-124763329D01*
X43532028Y-124422165D01*
X43822165Y-124132028D01*
X44163329Y-123904069D01*
X44542411Y-123747048D01*
X44743627Y-123707024D01*
X44944841Y-123667000D01*
X45355159Y-123667000D01*
X45556373Y-123707024D01*
X45556373Y-123707024D01*
G37*
G36*
X51404554Y-110114284D02*
G01*
X51404557Y-110114285D01*
X51404556Y-110114285D01*
X52187288Y-110438503D01*
X52891728Y-110909195D01*
X53490805Y-111508272D01*
X53961497Y-112212712D01*
X53961498Y-112212714D01*
X54285716Y-112995446D01*
X54451000Y-113826387D01*
X54451000Y-114673613D01*
X54285716Y-115504554D01*
X54285715Y-115504556D01*
X53961497Y-116287288D01*
X53490805Y-116991728D01*
X52891728Y-117590805D01*
X52187288Y-118061497D01*
X52187287Y-118061498D01*
X52187286Y-118061498D01*
X51404554Y-118385716D01*
X50573613Y-118551000D01*
X49726387Y-118551000D01*
X48895446Y-118385716D01*
X48112714Y-118061498D01*
X48112713Y-118061498D01*
X48112712Y-118061497D01*
X47408272Y-117590805D01*
X46809195Y-116991728D01*
X46338503Y-116287288D01*
X46014285Y-115504556D01*
X46014284Y-115504554D01*
X45849000Y-114673613D01*
X45849000Y-113826387D01*
X46014284Y-112995446D01*
X46338502Y-112212714D01*
X46338503Y-112212712D01*
X46809195Y-111508272D01*
X47408272Y-110909195D01*
X48112712Y-110438503D01*
X48895444Y-110114285D01*
X48895443Y-110114285D01*
X48895446Y-110114284D01*
X49726387Y-109949000D01*
X50573613Y-109949000D01*
X51404554Y-110114284D01*
X51404554Y-110114284D01*
G37*
G36*
X51404554Y-90114284D02*
G01*
X51404557Y-90114285D01*
X51404556Y-90114285D01*
X52187288Y-90438503D01*
X52891728Y-90909195D01*
X53490805Y-91508272D01*
X53961497Y-92212712D01*
X53961498Y-92212714D01*
X54285716Y-92995446D01*
X54451000Y-93826387D01*
X54451000Y-94673613D01*
X54285716Y-95504554D01*
X54285715Y-95504556D01*
X53961497Y-96287288D01*
X53490805Y-96991728D01*
X52891728Y-97590805D01*
X52187288Y-98061497D01*
X52187287Y-98061498D01*
X52187286Y-98061498D01*
X51404554Y-98385716D01*
X50573613Y-98551000D01*
X49726387Y-98551000D01*
X48895446Y-98385716D01*
X48112714Y-98061498D01*
X48112713Y-98061498D01*
X48112712Y-98061497D01*
X47408272Y-97590805D01*
X46809195Y-96991728D01*
X46338503Y-96287288D01*
X46014285Y-95504556D01*
X46014284Y-95504554D01*
X45849000Y-94673613D01*
X45849000Y-93826387D01*
X46014284Y-92995446D01*
X46338502Y-92212714D01*
X46338503Y-92212712D01*
X46809195Y-91508272D01*
X47408272Y-90909195D01*
X48112712Y-90438503D01*
X48895444Y-90114285D01*
X48895443Y-90114285D01*
X48895446Y-90114284D01*
X49726387Y-89949000D01*
X50573613Y-89949000D01*
X51404554Y-90114284D01*
X51404554Y-90114284D01*
G37*
G36*
X51404554Y-70114284D02*
G01*
X51404557Y-70114285D01*
X51404556Y-70114285D01*
X52187288Y-70438503D01*
X52891728Y-70909195D01*
X53490805Y-71508272D01*
X53961497Y-72212712D01*
X53961498Y-72212714D01*
X54285716Y-72995446D01*
X54451000Y-73826387D01*
X54451000Y-74673613D01*
X54285716Y-75504554D01*
X54285715Y-75504556D01*
X53961497Y-76287288D01*
X53490805Y-76991728D01*
X52891728Y-77590805D01*
X52187288Y-78061497D01*
X52187287Y-78061498D01*
X52187286Y-78061498D01*
X51404554Y-78385716D01*
X50573613Y-78551000D01*
X49726387Y-78551000D01*
X48895446Y-78385716D01*
X48112714Y-78061498D01*
X48112713Y-78061498D01*
X48112712Y-78061497D01*
X47408272Y-77590805D01*
X46809195Y-76991728D01*
X46338503Y-76287288D01*
X46014285Y-75504556D01*
X46014284Y-75504554D01*
X45849000Y-74673613D01*
X45849000Y-73826387D01*
X46014284Y-72995446D01*
X46338502Y-72212714D01*
X46338503Y-72212712D01*
X46809195Y-71508272D01*
X47408272Y-70909195D01*
X48112712Y-70438503D01*
X48895444Y-70114285D01*
X48895443Y-70114285D01*
X48895446Y-70114284D01*
X49726387Y-69949000D01*
X50573613Y-69949000D01*
X51404554Y-70114284D01*
X51404554Y-70114284D01*
G37*
G36*
X51404554Y-50114284D02*
G01*
X52187286Y-50438502D01*
X52187288Y-50438503D01*
X52891728Y-50909195D01*
X53490805Y-51508272D01*
X53961497Y-52212712D01*
X53961498Y-52212714D01*
X54285716Y-52995446D01*
X54451000Y-53826387D01*
X54451000Y-54673613D01*
X54285716Y-55504554D01*
X54285715Y-55504556D01*
X53961497Y-56287288D01*
X53490805Y-56991728D01*
X52891728Y-57590805D01*
X52187288Y-58061497D01*
X52187287Y-58061498D01*
X52187286Y-58061498D01*
X51404554Y-58385716D01*
X50573613Y-58551000D01*
X49726387Y-58551000D01*
X48895446Y-58385716D01*
X48112714Y-58061498D01*
X48112713Y-58061498D01*
X48112712Y-58061497D01*
X47408272Y-57590805D01*
X46809195Y-56991728D01*
X46338503Y-56287288D01*
X46014285Y-55504556D01*
X46014284Y-55504554D01*
X45849000Y-54673613D01*
X45849000Y-53826387D01*
X46014284Y-52995446D01*
X46338502Y-52212714D01*
X46338503Y-52212712D01*
X46809195Y-51508272D01*
X47408272Y-50909195D01*
X48112712Y-50438503D01*
X48112714Y-50438502D01*
X48895446Y-50114284D01*
X49726387Y-49949000D01*
X50573613Y-49949000D01*
X51404554Y-50114284D01*
X51404554Y-50114284D01*
G37*
G36*
X35757589Y-47247048D02*
G01*
X36136671Y-47404069D01*
X36477835Y-47632028D01*
X36767972Y-47922165D01*
X36995931Y-48263329D01*
X37152952Y-48642411D01*
X37233000Y-49044842D01*
X37233000Y-49455158D01*
X37152952Y-49857589D01*
X36995931Y-50236671D01*
X36767972Y-50577835D01*
X36477835Y-50867972D01*
X36136671Y-51095931D01*
X35757589Y-51252952D01*
X35355159Y-51333000D01*
X34944841Y-51333000D01*
X34542411Y-51252952D01*
X34163329Y-51095931D01*
X33822165Y-50867972D01*
X33532028Y-50577835D01*
X33304069Y-50236671D01*
X33147048Y-49857589D01*
X33067000Y-49455158D01*
X33067000Y-49044842D01*
X33147048Y-48642411D01*
X33304069Y-48263329D01*
X33532028Y-47922165D01*
X33822165Y-47632028D01*
X34163329Y-47404069D01*
X34542411Y-47247048D01*
X34944841Y-47167000D01*
X35355159Y-47167000D01*
X35757589Y-47247048D01*
X35757589Y-47247048D01*
G37*
G36*
X65757589Y-47247048D02*
G01*
X66136671Y-47404069D01*
X66477835Y-47632028D01*
X66767972Y-47922165D01*
X66995931Y-48263329D01*
X67152952Y-48642411D01*
X67233000Y-49044842D01*
X67233000Y-49455158D01*
X67152952Y-49857589D01*
X66995931Y-50236671D01*
X66767972Y-50577835D01*
X66477835Y-50867972D01*
X66136671Y-51095931D01*
X65757589Y-51252952D01*
X65355159Y-51333000D01*
X64944841Y-51333000D01*
X64542411Y-51252952D01*
X64163329Y-51095931D01*
X63822165Y-50867972D01*
X63532028Y-50577835D01*
X63304069Y-50236671D01*
X63147048Y-49857589D01*
X63067000Y-49455158D01*
X63067000Y-49044842D01*
X63147048Y-48642411D01*
X63304069Y-48263329D01*
X63532028Y-47922165D01*
X63822165Y-47632028D01*
X64163329Y-47404069D01*
X64542411Y-47247048D01*
X64944841Y-47167000D01*
X65355159Y-47167000D01*
X65757589Y-47247048D01*
X65757589Y-47247048D01*
G37*
G36*
X37906373Y-30957024D02*
G01*
X38107589Y-30997048D01*
X38486671Y-31154069D01*
X38827835Y-31382028D01*
X39117972Y-31672165D01*
X39345931Y-32013329D01*
X39502952Y-32392411D01*
X39583000Y-32794842D01*
X39583000Y-33205158D01*
X39502952Y-33607589D01*
X39345931Y-33986671D01*
X39117972Y-34327835D01*
X38827835Y-34617972D01*
X38486671Y-34845931D01*
X38107589Y-35002952D01*
X37906373Y-35042976D01*
X37705159Y-35083000D01*
X37294841Y-35083000D01*
X37093627Y-35042976D01*
X36892411Y-35002952D01*
X36513329Y-34845931D01*
X36172165Y-34617972D01*
X35882028Y-34327835D01*
X35654069Y-33986671D01*
X35497048Y-33607589D01*
X35417000Y-33205158D01*
X35417000Y-32794842D01*
X35497048Y-32392411D01*
X35654069Y-32013329D01*
X35882028Y-31672165D01*
X36172165Y-31382028D01*
X36513329Y-31154069D01*
X36892411Y-30997048D01*
X37093627Y-30957024D01*
X37294841Y-30917000D01*
X37705159Y-30917000D01*
X37906373Y-30957024D01*
X37906373Y-30957024D01*
G37*
M02*
