G04 #@! TF.GenerationSoftware,KiCad,Pcbnew,(5.1.0)-1*
G04 #@! TF.CreationDate,2019-05-11T18:56:39-04:00*
G04 #@! TF.ProjectId,VCF,5643462e-6b69-4636-9164-5f7063625858,rev?*
G04 #@! TF.SameCoordinates,Original*
G04 #@! TF.FileFunction,Soldermask,Bot*
G04 #@! TF.FilePolarity,Negative*
%FSLAX46Y46*%
G04 Gerber Fmt 4.6, Leading zero omitted, Abs format (unit mm)*
G04 Created by KiCad (PCBNEW (5.1.0)-1) date 2019-05-11 18:56:39*
%MOMM*%
%LPD*%
G04 APERTURE LIST*
%ADD10C,0.100000*%
G04 APERTURE END LIST*
D10*
G36*
X65607589Y-97997048D02*
G01*
X65986671Y-98154069D01*
X66327835Y-98382028D01*
X66617972Y-98672165D01*
X66845931Y-99013329D01*
X67002952Y-99392411D01*
X67083000Y-99794842D01*
X67083000Y-100205158D01*
X67002952Y-100607589D01*
X66845931Y-100986671D01*
X66617972Y-101327835D01*
X66327835Y-101617972D01*
X65986671Y-101845931D01*
X65607589Y-102002952D01*
X65205159Y-102083000D01*
X64794841Y-102083000D01*
X64593627Y-102042976D01*
X64392411Y-102002952D01*
X64013329Y-101845931D01*
X63672165Y-101617972D01*
X63382028Y-101327835D01*
X63154069Y-100986671D01*
X62997048Y-100607589D01*
X62917000Y-100205158D01*
X62917000Y-99794842D01*
X62997048Y-99392411D01*
X63154069Y-99013329D01*
X63382028Y-98672165D01*
X63672165Y-98382028D01*
X64013329Y-98154069D01*
X64392411Y-97997048D01*
X64794841Y-97917000D01*
X65205159Y-97917000D01*
X65607589Y-97997048D01*
X65607589Y-97997048D01*
G37*
G36*
X35607589Y-97997048D02*
G01*
X35986671Y-98154069D01*
X36327835Y-98382028D01*
X36617972Y-98672165D01*
X36845931Y-99013329D01*
X37002952Y-99392411D01*
X37083000Y-99794842D01*
X37083000Y-100205158D01*
X37002952Y-100607589D01*
X36845931Y-100986671D01*
X36617972Y-101327835D01*
X36327835Y-101617972D01*
X35986671Y-101845931D01*
X35607589Y-102002952D01*
X35205159Y-102083000D01*
X34794841Y-102083000D01*
X34593627Y-102042976D01*
X34392411Y-102002952D01*
X34013329Y-101845931D01*
X33672165Y-101617972D01*
X33382028Y-101327835D01*
X33154069Y-100986671D01*
X32997048Y-100607589D01*
X32917000Y-100205158D01*
X32917000Y-99794842D01*
X32997048Y-99392411D01*
X33154069Y-99013329D01*
X33382028Y-98672165D01*
X33672165Y-98382028D01*
X34013329Y-98154069D01*
X34392411Y-97997048D01*
X34794841Y-97917000D01*
X35205159Y-97917000D01*
X35607589Y-97997048D01*
X35607589Y-97997048D01*
G37*
G36*
X62437442Y-92865518D02*
G01*
X62503627Y-92872037D01*
X62673466Y-92923557D01*
X62829991Y-93007222D01*
X62865729Y-93036552D01*
X62967186Y-93119814D01*
X63050448Y-93221271D01*
X63079778Y-93257009D01*
X63079779Y-93257011D01*
X63160191Y-93407449D01*
X63163443Y-93413534D01*
X63214963Y-93583373D01*
X63232359Y-93760000D01*
X63214963Y-93936627D01*
X63163443Y-94106466D01*
X63079778Y-94262991D01*
X63050448Y-94298729D01*
X62967186Y-94400186D01*
X62865729Y-94483448D01*
X62829991Y-94512778D01*
X62673466Y-94596443D01*
X62503627Y-94647963D01*
X62437443Y-94654481D01*
X62371260Y-94661000D01*
X62282740Y-94661000D01*
X62216557Y-94654481D01*
X62150373Y-94647963D01*
X61980534Y-94596443D01*
X61824009Y-94512778D01*
X61788271Y-94483448D01*
X61686814Y-94400186D01*
X61603552Y-94298729D01*
X61574222Y-94262991D01*
X61490557Y-94106466D01*
X61439037Y-93936627D01*
X61421641Y-93760000D01*
X61439037Y-93583373D01*
X61490557Y-93413534D01*
X61493810Y-93407449D01*
X61574221Y-93257011D01*
X61574222Y-93257009D01*
X61603552Y-93221271D01*
X61686814Y-93119814D01*
X61788271Y-93036552D01*
X61824009Y-93007222D01*
X61980534Y-92923557D01*
X62150373Y-92872037D01*
X62216558Y-92865518D01*
X62282740Y-92859000D01*
X62371260Y-92859000D01*
X62437442Y-92865518D01*
X62437442Y-92865518D01*
G37*
G36*
X64977442Y-92865518D02*
G01*
X65043627Y-92872037D01*
X65213466Y-92923557D01*
X65369991Y-93007222D01*
X65405729Y-93036552D01*
X65507186Y-93119814D01*
X65590448Y-93221271D01*
X65619778Y-93257009D01*
X65619779Y-93257011D01*
X65700191Y-93407449D01*
X65703443Y-93413534D01*
X65754963Y-93583373D01*
X65772359Y-93760000D01*
X65754963Y-93936627D01*
X65703443Y-94106466D01*
X65619778Y-94262991D01*
X65590448Y-94298729D01*
X65507186Y-94400186D01*
X65405729Y-94483448D01*
X65369991Y-94512778D01*
X65213466Y-94596443D01*
X65043627Y-94647963D01*
X64977443Y-94654481D01*
X64911260Y-94661000D01*
X64822740Y-94661000D01*
X64756557Y-94654481D01*
X64690373Y-94647963D01*
X64520534Y-94596443D01*
X64364009Y-94512778D01*
X64328271Y-94483448D01*
X64226814Y-94400186D01*
X64143552Y-94298729D01*
X64114222Y-94262991D01*
X64030557Y-94106466D01*
X63979037Y-93936627D01*
X63961641Y-93760000D01*
X63979037Y-93583373D01*
X64030557Y-93413534D01*
X64033810Y-93407449D01*
X64114221Y-93257011D01*
X64114222Y-93257009D01*
X64143552Y-93221271D01*
X64226814Y-93119814D01*
X64328271Y-93036552D01*
X64364009Y-93007222D01*
X64520534Y-92923557D01*
X64690373Y-92872037D01*
X64756558Y-92865518D01*
X64822740Y-92859000D01*
X64911260Y-92859000D01*
X64977442Y-92865518D01*
X64977442Y-92865518D01*
G37*
G36*
X46959315Y-92344166D02*
G01*
X47003843Y-92357674D01*
X47044892Y-92379615D01*
X47080864Y-92409136D01*
X47110385Y-92445108D01*
X47132326Y-92486157D01*
X47145834Y-92530685D01*
X47151000Y-92583140D01*
X47151000Y-93296860D01*
X47145834Y-93349315D01*
X47132326Y-93393843D01*
X47110385Y-93434892D01*
X47080864Y-93470864D01*
X47044892Y-93500385D01*
X47003843Y-93522326D01*
X46959315Y-93535834D01*
X46906860Y-93541000D01*
X45493140Y-93541000D01*
X45440685Y-93535834D01*
X45396157Y-93522326D01*
X45355108Y-93500385D01*
X45319136Y-93470864D01*
X45289615Y-93434892D01*
X45267674Y-93393843D01*
X45254166Y-93349315D01*
X45249000Y-93296860D01*
X45249000Y-92583140D01*
X45254166Y-92530685D01*
X45267674Y-92486157D01*
X45289615Y-92445108D01*
X45319136Y-92409136D01*
X45355108Y-92379615D01*
X45396157Y-92357674D01*
X45440685Y-92344166D01*
X45493140Y-92339000D01*
X46906860Y-92339000D01*
X46959315Y-92344166D01*
X46959315Y-92344166D01*
G37*
G36*
X37904396Y-91184923D02*
G01*
X37976627Y-91192037D01*
X38146466Y-91243557D01*
X38302991Y-91327222D01*
X38338729Y-91356552D01*
X38440186Y-91439814D01*
X38523448Y-91541271D01*
X38552778Y-91577009D01*
X38636443Y-91733534D01*
X38687963Y-91903373D01*
X38705359Y-92080000D01*
X38687963Y-92256627D01*
X38636443Y-92426466D01*
X38552778Y-92582991D01*
X38523448Y-92618729D01*
X38440186Y-92720186D01*
X38338729Y-92803448D01*
X38302991Y-92832778D01*
X38146466Y-92916443D01*
X37976627Y-92967963D01*
X37910443Y-92974481D01*
X37844260Y-92981000D01*
X37755740Y-92981000D01*
X37689557Y-92974481D01*
X37623373Y-92967963D01*
X37453534Y-92916443D01*
X37297009Y-92832778D01*
X37261271Y-92803448D01*
X37159814Y-92720186D01*
X37076552Y-92618729D01*
X37047222Y-92582991D01*
X36963557Y-92426466D01*
X36912037Y-92256627D01*
X36894641Y-92080000D01*
X36912037Y-91903373D01*
X36963557Y-91733534D01*
X37047222Y-91577009D01*
X37076552Y-91541271D01*
X37159814Y-91439814D01*
X37261271Y-91356552D01*
X37297009Y-91327222D01*
X37453534Y-91243557D01*
X37623373Y-91192037D01*
X37695604Y-91184923D01*
X37755740Y-91179000D01*
X37844260Y-91179000D01*
X37904396Y-91184923D01*
X37904396Y-91184923D01*
G37*
G36*
X49029315Y-91074166D02*
G01*
X49073843Y-91087674D01*
X49114892Y-91109615D01*
X49150864Y-91139136D01*
X49180385Y-91175108D01*
X49202326Y-91216157D01*
X49215834Y-91260685D01*
X49221000Y-91313140D01*
X49221000Y-92026860D01*
X49215834Y-92079315D01*
X49202326Y-92123843D01*
X49180385Y-92164892D01*
X49150864Y-92200864D01*
X49114892Y-92230385D01*
X49073843Y-92252326D01*
X49029315Y-92265834D01*
X48976860Y-92271000D01*
X47563140Y-92271000D01*
X47510685Y-92265834D01*
X47466157Y-92252326D01*
X47425108Y-92230385D01*
X47389136Y-92200864D01*
X47359615Y-92164892D01*
X47337674Y-92123843D01*
X47324166Y-92079315D01*
X47319000Y-92026860D01*
X47319000Y-91313140D01*
X47324166Y-91260685D01*
X47337675Y-91216153D01*
X47354368Y-91184923D01*
X47360417Y-91170320D01*
X47372624Y-91159256D01*
X47389136Y-91139136D01*
X47425108Y-91109615D01*
X47466157Y-91087674D01*
X47510685Y-91074166D01*
X47563140Y-91069000D01*
X48976860Y-91069000D01*
X49029315Y-91074166D01*
X49029315Y-91074166D01*
G37*
G36*
X54651000Y-92241000D02*
G01*
X52749000Y-92241000D01*
X52749000Y-91039000D01*
X54651000Y-91039000D01*
X54651000Y-92241000D01*
X54651000Y-92241000D01*
G37*
G36*
X62183443Y-90325519D02*
G01*
X62249627Y-90332037D01*
X62419466Y-90383557D01*
X62575991Y-90467222D01*
X62611729Y-90496552D01*
X62713186Y-90579814D01*
X62787609Y-90670500D01*
X62825778Y-90717009D01*
X62862385Y-90785496D01*
X62899578Y-90855077D01*
X62909443Y-90873534D01*
X62960963Y-91043373D01*
X62978359Y-91220000D01*
X62960963Y-91396627D01*
X62909443Y-91566466D01*
X62825778Y-91722991D01*
X62796448Y-91758729D01*
X62713186Y-91860186D01*
X62611729Y-91943448D01*
X62575991Y-91972778D01*
X62575989Y-91972779D01*
X62474812Y-92026860D01*
X62419466Y-92056443D01*
X62249627Y-92107963D01*
X62183443Y-92114481D01*
X62117260Y-92121000D01*
X62028740Y-92121000D01*
X61962557Y-92114481D01*
X61896373Y-92107963D01*
X61726534Y-92056443D01*
X61671189Y-92026860D01*
X61570011Y-91972779D01*
X61570009Y-91972778D01*
X61534271Y-91943448D01*
X61432814Y-91860186D01*
X61349552Y-91758729D01*
X61320222Y-91722991D01*
X61236557Y-91566466D01*
X61185037Y-91396627D01*
X61167641Y-91220000D01*
X61185037Y-91043373D01*
X61236557Y-90873534D01*
X61246423Y-90855077D01*
X61283615Y-90785496D01*
X61320222Y-90717009D01*
X61358391Y-90670500D01*
X61432814Y-90579814D01*
X61534271Y-90496552D01*
X61570009Y-90467222D01*
X61726534Y-90383557D01*
X61896373Y-90332037D01*
X61962557Y-90325519D01*
X62028740Y-90319000D01*
X62117260Y-90319000D01*
X62183443Y-90325519D01*
X62183443Y-90325519D01*
G37*
G36*
X64723443Y-90325519D02*
G01*
X64789627Y-90332037D01*
X64959466Y-90383557D01*
X65115991Y-90467222D01*
X65151729Y-90496552D01*
X65253186Y-90579814D01*
X65327609Y-90670500D01*
X65365778Y-90717009D01*
X65402385Y-90785496D01*
X65439578Y-90855077D01*
X65449443Y-90873534D01*
X65500963Y-91043373D01*
X65518359Y-91220000D01*
X65500963Y-91396627D01*
X65449443Y-91566466D01*
X65365778Y-91722991D01*
X65336448Y-91758729D01*
X65253186Y-91860186D01*
X65151729Y-91943448D01*
X65115991Y-91972778D01*
X65115989Y-91972779D01*
X65014812Y-92026860D01*
X64959466Y-92056443D01*
X64789627Y-92107963D01*
X64723443Y-92114481D01*
X64657260Y-92121000D01*
X64568740Y-92121000D01*
X64502557Y-92114481D01*
X64436373Y-92107963D01*
X64266534Y-92056443D01*
X64211189Y-92026860D01*
X64110011Y-91972779D01*
X64110009Y-91972778D01*
X64074271Y-91943448D01*
X63972814Y-91860186D01*
X63889552Y-91758729D01*
X63860222Y-91722991D01*
X63776557Y-91566466D01*
X63725037Y-91396627D01*
X63707641Y-91220000D01*
X63725037Y-91043373D01*
X63776557Y-90873534D01*
X63786423Y-90855077D01*
X63823615Y-90785496D01*
X63860222Y-90717009D01*
X63898391Y-90670500D01*
X63972814Y-90579814D01*
X64074271Y-90496552D01*
X64110009Y-90467222D01*
X64266534Y-90383557D01*
X64436373Y-90332037D01*
X64502557Y-90325519D01*
X64568740Y-90319000D01*
X64657260Y-90319000D01*
X64723443Y-90325519D01*
X64723443Y-90325519D01*
G37*
G36*
X47151000Y-91001000D02*
G01*
X45249000Y-91001000D01*
X45249000Y-89799000D01*
X47151000Y-89799000D01*
X47151000Y-91001000D01*
X47151000Y-91001000D01*
G37*
G36*
X52389315Y-89774166D02*
G01*
X52433843Y-89787674D01*
X52474892Y-89809615D01*
X52510864Y-89839136D01*
X52540385Y-89875108D01*
X52562326Y-89916157D01*
X52575834Y-89960685D01*
X52581000Y-90013140D01*
X52581000Y-90726860D01*
X52575834Y-90779315D01*
X52562325Y-90823847D01*
X52545632Y-90855077D01*
X52539583Y-90869680D01*
X52527376Y-90880744D01*
X52510864Y-90900864D01*
X52474892Y-90930385D01*
X52433843Y-90952326D01*
X52389315Y-90965834D01*
X52336860Y-90971000D01*
X50923140Y-90971000D01*
X50870685Y-90965834D01*
X50826157Y-90952326D01*
X50785108Y-90930385D01*
X50749136Y-90900864D01*
X50719615Y-90864892D01*
X50697674Y-90823843D01*
X50684166Y-90779315D01*
X50679000Y-90726860D01*
X50679000Y-90013140D01*
X50684166Y-89960685D01*
X50697674Y-89916157D01*
X50719615Y-89875108D01*
X50749136Y-89839136D01*
X50785108Y-89809615D01*
X50826157Y-89787674D01*
X50870685Y-89774166D01*
X50923140Y-89769000D01*
X52336860Y-89769000D01*
X52389315Y-89774166D01*
X52389315Y-89774166D01*
G37*
G36*
X37910443Y-88645519D02*
G01*
X37976627Y-88652037D01*
X38146466Y-88703557D01*
X38302991Y-88787222D01*
X38338729Y-88816552D01*
X38440186Y-88899814D01*
X38523448Y-89001271D01*
X38552778Y-89037009D01*
X38636443Y-89193534D01*
X38687963Y-89363373D01*
X38705359Y-89540000D01*
X38687963Y-89716627D01*
X38636443Y-89886466D01*
X38552778Y-90042991D01*
X38531022Y-90069500D01*
X38440186Y-90180186D01*
X38338729Y-90263448D01*
X38302991Y-90292778D01*
X38146466Y-90376443D01*
X37976627Y-90427963D01*
X37910442Y-90434482D01*
X37844260Y-90441000D01*
X37755740Y-90441000D01*
X37689558Y-90434482D01*
X37623373Y-90427963D01*
X37453534Y-90376443D01*
X37297009Y-90292778D01*
X37261271Y-90263448D01*
X37159814Y-90180186D01*
X37068978Y-90069500D01*
X37047222Y-90042991D01*
X36963557Y-89886466D01*
X36912037Y-89716627D01*
X36894641Y-89540000D01*
X36912037Y-89363373D01*
X36963557Y-89193534D01*
X37047222Y-89037009D01*
X37076552Y-89001271D01*
X37159814Y-88899814D01*
X37261271Y-88816552D01*
X37297009Y-88787222D01*
X37453534Y-88703557D01*
X37623373Y-88652037D01*
X37689557Y-88645519D01*
X37755740Y-88639000D01*
X37844260Y-88639000D01*
X37910443Y-88645519D01*
X37910443Y-88645519D01*
G37*
G36*
X54459315Y-88504166D02*
G01*
X54503843Y-88517674D01*
X54544892Y-88539615D01*
X54580864Y-88569136D01*
X54610385Y-88605108D01*
X54632326Y-88646157D01*
X54645834Y-88690685D01*
X54651000Y-88743140D01*
X54651000Y-89456860D01*
X54645834Y-89509315D01*
X54632326Y-89553843D01*
X54610385Y-89594892D01*
X54580864Y-89630864D01*
X54544892Y-89660385D01*
X54503843Y-89682326D01*
X54459315Y-89695834D01*
X54406860Y-89701000D01*
X52993140Y-89701000D01*
X52940685Y-89695834D01*
X52896157Y-89682326D01*
X52855108Y-89660385D01*
X52819136Y-89630864D01*
X52789615Y-89594892D01*
X52767674Y-89553843D01*
X52754166Y-89509315D01*
X52749000Y-89456860D01*
X52749000Y-88743140D01*
X52754166Y-88690685D01*
X52767674Y-88646157D01*
X52789615Y-88605108D01*
X52819136Y-88569136D01*
X52855108Y-88539615D01*
X52896157Y-88517674D01*
X52940685Y-88504166D01*
X52993140Y-88499000D01*
X54406860Y-88499000D01*
X54459315Y-88504166D01*
X54459315Y-88504166D01*
G37*
G36*
X62437443Y-87785519D02*
G01*
X62503627Y-87792037D01*
X62673466Y-87843557D01*
X62829991Y-87927222D01*
X62865729Y-87956552D01*
X62967186Y-88039814D01*
X63050448Y-88141271D01*
X63079778Y-88177009D01*
X63163443Y-88333534D01*
X63214963Y-88503373D01*
X63232359Y-88680000D01*
X63214963Y-88856627D01*
X63163443Y-89026466D01*
X63079778Y-89182991D01*
X63050448Y-89218729D01*
X62967186Y-89320186D01*
X62869322Y-89400500D01*
X62829991Y-89432778D01*
X62829989Y-89432779D01*
X62686802Y-89509315D01*
X62673466Y-89516443D01*
X62503627Y-89567963D01*
X62437442Y-89574482D01*
X62371260Y-89581000D01*
X62282740Y-89581000D01*
X62216558Y-89574482D01*
X62150373Y-89567963D01*
X61980534Y-89516443D01*
X61967199Y-89509315D01*
X61824011Y-89432779D01*
X61824009Y-89432778D01*
X61784678Y-89400500D01*
X61686814Y-89320186D01*
X61603552Y-89218729D01*
X61574222Y-89182991D01*
X61490557Y-89026466D01*
X61439037Y-88856627D01*
X61421641Y-88680000D01*
X61439037Y-88503373D01*
X61490557Y-88333534D01*
X61574222Y-88177009D01*
X61603552Y-88141271D01*
X61686814Y-88039814D01*
X61788271Y-87956552D01*
X61824009Y-87927222D01*
X61980534Y-87843557D01*
X62150373Y-87792037D01*
X62216557Y-87785519D01*
X62282740Y-87779000D01*
X62371260Y-87779000D01*
X62437443Y-87785519D01*
X62437443Y-87785519D01*
G37*
G36*
X64977443Y-87785519D02*
G01*
X65043627Y-87792037D01*
X65213466Y-87843557D01*
X65369991Y-87927222D01*
X65405729Y-87956552D01*
X65507186Y-88039814D01*
X65590448Y-88141271D01*
X65619778Y-88177009D01*
X65703443Y-88333534D01*
X65754963Y-88503373D01*
X65772359Y-88680000D01*
X65754963Y-88856627D01*
X65703443Y-89026466D01*
X65619778Y-89182991D01*
X65590448Y-89218729D01*
X65507186Y-89320186D01*
X65409322Y-89400500D01*
X65369991Y-89432778D01*
X65369989Y-89432779D01*
X65226802Y-89509315D01*
X65213466Y-89516443D01*
X65043627Y-89567963D01*
X64977442Y-89574482D01*
X64911260Y-89581000D01*
X64822740Y-89581000D01*
X64756558Y-89574482D01*
X64690373Y-89567963D01*
X64520534Y-89516443D01*
X64507199Y-89509315D01*
X64364011Y-89432779D01*
X64364009Y-89432778D01*
X64324678Y-89400500D01*
X64226814Y-89320186D01*
X64143552Y-89218729D01*
X64114222Y-89182991D01*
X64030557Y-89026466D01*
X63979037Y-88856627D01*
X63961641Y-88680000D01*
X63979037Y-88503373D01*
X64030557Y-88333534D01*
X64114222Y-88177009D01*
X64143552Y-88141271D01*
X64226814Y-88039814D01*
X64328271Y-87956552D01*
X64364009Y-87927222D01*
X64520534Y-87843557D01*
X64690373Y-87792037D01*
X64756557Y-87785519D01*
X64822740Y-87779000D01*
X64911260Y-87779000D01*
X64977443Y-87785519D01*
X64977443Y-87785519D01*
G37*
G36*
X38701000Y-87901000D02*
G01*
X36899000Y-87901000D01*
X36899000Y-86099000D01*
X38701000Y-86099000D01*
X38701000Y-87901000D01*
X38701000Y-87901000D01*
G37*
G36*
X62183443Y-85245519D02*
G01*
X62249627Y-85252037D01*
X62419466Y-85303557D01*
X62575991Y-85387222D01*
X62611729Y-85416552D01*
X62713186Y-85499814D01*
X62796448Y-85601271D01*
X62825778Y-85637009D01*
X62909443Y-85793534D01*
X62960963Y-85963373D01*
X62978359Y-86140000D01*
X62960963Y-86316627D01*
X62909443Y-86486466D01*
X62825778Y-86642991D01*
X62796448Y-86678729D01*
X62713186Y-86780186D01*
X62611729Y-86863448D01*
X62575991Y-86892778D01*
X62419466Y-86976443D01*
X62249627Y-87027963D01*
X62183443Y-87034481D01*
X62117260Y-87041000D01*
X62028740Y-87041000D01*
X61962557Y-87034481D01*
X61896373Y-87027963D01*
X61726534Y-86976443D01*
X61570009Y-86892778D01*
X61534271Y-86863448D01*
X61432814Y-86780186D01*
X61349552Y-86678729D01*
X61320222Y-86642991D01*
X61236557Y-86486466D01*
X61185037Y-86316627D01*
X61167641Y-86140000D01*
X61185037Y-85963373D01*
X61236557Y-85793534D01*
X61320222Y-85637009D01*
X61349552Y-85601271D01*
X61432814Y-85499814D01*
X61534271Y-85416552D01*
X61570009Y-85387222D01*
X61726534Y-85303557D01*
X61896373Y-85252037D01*
X61962557Y-85245519D01*
X62028740Y-85239000D01*
X62117260Y-85239000D01*
X62183443Y-85245519D01*
X62183443Y-85245519D01*
G37*
G36*
X64723443Y-85245519D02*
G01*
X64789627Y-85252037D01*
X64959466Y-85303557D01*
X65115991Y-85387222D01*
X65151729Y-85416552D01*
X65253186Y-85499814D01*
X65336448Y-85601271D01*
X65365778Y-85637009D01*
X65449443Y-85793534D01*
X65500963Y-85963373D01*
X65518359Y-86140000D01*
X65500963Y-86316627D01*
X65449443Y-86486466D01*
X65365778Y-86642991D01*
X65336448Y-86678729D01*
X65253186Y-86780186D01*
X65151729Y-86863448D01*
X65115991Y-86892778D01*
X64959466Y-86976443D01*
X64789627Y-87027963D01*
X64723443Y-87034481D01*
X64657260Y-87041000D01*
X64568740Y-87041000D01*
X64502557Y-87034481D01*
X64436373Y-87027963D01*
X64266534Y-86976443D01*
X64110009Y-86892778D01*
X64074271Y-86863448D01*
X63972814Y-86780186D01*
X63889552Y-86678729D01*
X63860222Y-86642991D01*
X63776557Y-86486466D01*
X63725037Y-86316627D01*
X63707641Y-86140000D01*
X63725037Y-85963373D01*
X63776557Y-85793534D01*
X63860222Y-85637009D01*
X63889552Y-85601271D01*
X63972814Y-85499814D01*
X64074271Y-85416552D01*
X64110009Y-85387222D01*
X64266534Y-85303557D01*
X64436373Y-85252037D01*
X64502557Y-85245519D01*
X64568740Y-85239000D01*
X64657260Y-85239000D01*
X64723443Y-85245519D01*
X64723443Y-85245519D01*
G37*
G36*
X64977442Y-82705518D02*
G01*
X65043627Y-82712037D01*
X65213466Y-82763557D01*
X65369991Y-82847222D01*
X65405729Y-82876552D01*
X65507186Y-82959814D01*
X65590448Y-83061271D01*
X65619778Y-83097009D01*
X65703443Y-83253534D01*
X65754963Y-83423373D01*
X65772359Y-83600000D01*
X65754963Y-83776627D01*
X65703443Y-83946466D01*
X65619778Y-84102991D01*
X65590448Y-84138729D01*
X65507186Y-84240186D01*
X65405729Y-84323448D01*
X65369991Y-84352778D01*
X65213466Y-84436443D01*
X65043627Y-84487963D01*
X64977443Y-84494481D01*
X64911260Y-84501000D01*
X64822740Y-84501000D01*
X64756557Y-84494481D01*
X64690373Y-84487963D01*
X64520534Y-84436443D01*
X64364009Y-84352778D01*
X64328271Y-84323448D01*
X64226814Y-84240186D01*
X64143552Y-84138729D01*
X64114222Y-84102991D01*
X64030557Y-83946466D01*
X63979037Y-83776627D01*
X63961641Y-83600000D01*
X63979037Y-83423373D01*
X64030557Y-83253534D01*
X64114222Y-83097009D01*
X64143552Y-83061271D01*
X64226814Y-82959814D01*
X64328271Y-82876552D01*
X64364009Y-82847222D01*
X64520534Y-82763557D01*
X64690373Y-82712037D01*
X64756558Y-82705518D01*
X64822740Y-82699000D01*
X64911260Y-82699000D01*
X64977442Y-82705518D01*
X64977442Y-82705518D01*
G37*
G36*
X63228000Y-84501000D02*
G01*
X61426000Y-84501000D01*
X61426000Y-82699000D01*
X63228000Y-82699000D01*
X63228000Y-84501000D01*
X63228000Y-84501000D01*
G37*
G36*
X51451000Y-75841000D02*
G01*
X49549000Y-75841000D01*
X49549000Y-74639000D01*
X51451000Y-74639000D01*
X51451000Y-75841000D01*
X51451000Y-75841000D01*
G37*
G36*
X63621000Y-75801000D02*
G01*
X61719000Y-75801000D01*
X61719000Y-74599000D01*
X63621000Y-74599000D01*
X63621000Y-75801000D01*
X63621000Y-75801000D01*
G37*
G36*
X49189315Y-73374166D02*
G01*
X49233843Y-73387674D01*
X49274892Y-73409615D01*
X49310864Y-73439136D01*
X49340385Y-73475108D01*
X49362326Y-73516157D01*
X49375834Y-73560685D01*
X49381000Y-73613140D01*
X49381000Y-74326860D01*
X49375834Y-74379315D01*
X49362325Y-74423847D01*
X49345632Y-74455077D01*
X49339583Y-74469680D01*
X49327376Y-74480744D01*
X49310864Y-74500864D01*
X49274892Y-74530385D01*
X49233843Y-74552326D01*
X49189315Y-74565834D01*
X49136860Y-74571000D01*
X47723140Y-74571000D01*
X47670685Y-74565834D01*
X47626157Y-74552326D01*
X47585108Y-74530385D01*
X47549136Y-74500864D01*
X47519615Y-74464892D01*
X47497674Y-74423843D01*
X47484166Y-74379315D01*
X47479000Y-74326860D01*
X47479000Y-73613140D01*
X47484166Y-73560685D01*
X47497674Y-73516157D01*
X47519615Y-73475108D01*
X47549136Y-73439136D01*
X47585108Y-73409615D01*
X47626157Y-73387674D01*
X47670685Y-73374166D01*
X47723140Y-73369000D01*
X49136860Y-73369000D01*
X49189315Y-73374166D01*
X49189315Y-73374166D01*
G37*
G36*
X61359315Y-73334166D02*
G01*
X61403843Y-73347674D01*
X61444892Y-73369615D01*
X61480864Y-73399136D01*
X61510385Y-73435108D01*
X61532326Y-73476157D01*
X61545834Y-73520685D01*
X61551000Y-73573140D01*
X61551000Y-74286860D01*
X61545834Y-74339315D01*
X61532325Y-74383847D01*
X61515632Y-74415077D01*
X61509583Y-74429680D01*
X61497376Y-74440744D01*
X61480864Y-74460864D01*
X61444892Y-74490385D01*
X61403843Y-74512326D01*
X61359315Y-74525834D01*
X61306860Y-74531000D01*
X59893140Y-74531000D01*
X59840685Y-74525834D01*
X59796157Y-74512326D01*
X59755108Y-74490385D01*
X59719136Y-74460864D01*
X59689615Y-74424892D01*
X59667674Y-74383843D01*
X59654166Y-74339315D01*
X59649000Y-74286860D01*
X59649000Y-73573140D01*
X59654166Y-73520685D01*
X59667674Y-73476157D01*
X59689615Y-73435108D01*
X59719136Y-73399136D01*
X59755108Y-73369615D01*
X59796157Y-73347674D01*
X59840685Y-73334166D01*
X59893140Y-73329000D01*
X61306860Y-73329000D01*
X61359315Y-73334166D01*
X61359315Y-73334166D01*
G37*
G36*
X37210443Y-71905519D02*
G01*
X37276627Y-71912037D01*
X37446466Y-71963557D01*
X37602991Y-72047222D01*
X37617342Y-72059000D01*
X37740186Y-72159814D01*
X37809688Y-72244504D01*
X37852778Y-72297009D01*
X37936443Y-72453534D01*
X37987963Y-72623373D01*
X38005359Y-72800000D01*
X37987963Y-72976627D01*
X37936443Y-73146466D01*
X37852778Y-73302991D01*
X37831433Y-73329000D01*
X37740186Y-73440186D01*
X37649628Y-73514504D01*
X37602991Y-73552778D01*
X37446466Y-73636443D01*
X37276627Y-73687963D01*
X37210442Y-73694482D01*
X37144260Y-73701000D01*
X37055740Y-73701000D01*
X36989558Y-73694482D01*
X36923373Y-73687963D01*
X36753534Y-73636443D01*
X36597009Y-73552778D01*
X36550372Y-73514504D01*
X36459814Y-73440186D01*
X36368567Y-73329000D01*
X36347222Y-73302991D01*
X36263557Y-73146466D01*
X36212037Y-72976627D01*
X36194641Y-72800000D01*
X36212037Y-72623373D01*
X36263557Y-72453534D01*
X36347222Y-72297009D01*
X36390312Y-72244504D01*
X36459814Y-72159814D01*
X36582658Y-72059000D01*
X36597009Y-72047222D01*
X36753534Y-71963557D01*
X36923373Y-71912037D01*
X36989557Y-71905519D01*
X37055740Y-71899000D01*
X37144260Y-71899000D01*
X37210443Y-71905519D01*
X37210443Y-71905519D01*
G37*
G36*
X51259315Y-72104166D02*
G01*
X51303843Y-72117674D01*
X51344892Y-72139615D01*
X51380864Y-72169136D01*
X51410385Y-72205108D01*
X51432326Y-72246157D01*
X51445834Y-72290685D01*
X51451000Y-72343140D01*
X51451000Y-73056860D01*
X51445834Y-73109315D01*
X51432326Y-73153843D01*
X51410385Y-73194892D01*
X51380864Y-73230864D01*
X51344892Y-73260385D01*
X51303843Y-73282326D01*
X51259315Y-73295834D01*
X51206860Y-73301000D01*
X49793140Y-73301000D01*
X49740685Y-73295834D01*
X49696157Y-73282326D01*
X49655108Y-73260385D01*
X49619136Y-73230864D01*
X49589615Y-73194892D01*
X49567674Y-73153843D01*
X49554166Y-73109315D01*
X49549000Y-73056860D01*
X49549000Y-72343140D01*
X49554166Y-72290685D01*
X49567674Y-72246157D01*
X49589615Y-72205108D01*
X49619136Y-72169136D01*
X49655108Y-72139615D01*
X49696157Y-72117674D01*
X49740685Y-72104166D01*
X49793140Y-72099000D01*
X51206860Y-72099000D01*
X51259315Y-72104166D01*
X51259315Y-72104166D01*
G37*
G36*
X63429315Y-72064166D02*
G01*
X63473843Y-72077674D01*
X63514892Y-72099615D01*
X63550864Y-72129136D01*
X63580385Y-72165108D01*
X63602326Y-72206157D01*
X63615834Y-72250685D01*
X63621000Y-72303140D01*
X63621000Y-73016860D01*
X63615834Y-73069315D01*
X63602326Y-73113843D01*
X63580385Y-73154892D01*
X63550864Y-73190864D01*
X63514892Y-73220385D01*
X63473843Y-73242326D01*
X63429315Y-73255834D01*
X63376860Y-73261000D01*
X61963140Y-73261000D01*
X61910685Y-73255834D01*
X61866157Y-73242326D01*
X61825108Y-73220385D01*
X61789136Y-73190864D01*
X61759615Y-73154892D01*
X61737674Y-73113843D01*
X61724166Y-73069315D01*
X61719000Y-73016860D01*
X61719000Y-72303140D01*
X61724166Y-72250685D01*
X61737674Y-72206157D01*
X61759615Y-72165108D01*
X61789136Y-72129136D01*
X61825108Y-72099615D01*
X61866157Y-72077674D01*
X61910685Y-72064166D01*
X61963140Y-72059000D01*
X63376860Y-72059000D01*
X63429315Y-72064166D01*
X63429315Y-72064166D01*
G37*
G36*
X38001000Y-71161000D02*
G01*
X36199000Y-71161000D01*
X36199000Y-69359000D01*
X38001000Y-69359000D01*
X38001000Y-71161000D01*
X38001000Y-71161000D01*
G37*
G36*
X63579315Y-68424166D02*
G01*
X63623843Y-68437674D01*
X63664892Y-68459615D01*
X63700864Y-68489136D01*
X63730385Y-68525108D01*
X63752326Y-68566157D01*
X63765834Y-68610685D01*
X63771000Y-68663140D01*
X63771000Y-70076860D01*
X63765834Y-70129315D01*
X63752326Y-70173843D01*
X63730385Y-70214892D01*
X63700864Y-70250864D01*
X63664892Y-70280385D01*
X63623843Y-70302326D01*
X63579315Y-70315834D01*
X63526860Y-70321000D01*
X62813140Y-70321000D01*
X62760685Y-70315834D01*
X62716157Y-70302326D01*
X62675108Y-70280385D01*
X62639136Y-70250864D01*
X62609615Y-70214892D01*
X62587674Y-70173843D01*
X62574166Y-70129315D01*
X62569000Y-70076860D01*
X62569000Y-68663140D01*
X62574166Y-68610685D01*
X62587674Y-68566157D01*
X62609615Y-68525108D01*
X62639136Y-68489136D01*
X62675108Y-68459615D01*
X62716157Y-68437674D01*
X62760685Y-68424166D01*
X62813140Y-68419000D01*
X63526860Y-68419000D01*
X63579315Y-68424166D01*
X63579315Y-68424166D01*
G37*
G36*
X51079315Y-68424166D02*
G01*
X51123843Y-68437674D01*
X51164892Y-68459615D01*
X51200864Y-68489136D01*
X51230385Y-68525108D01*
X51252326Y-68566157D01*
X51265834Y-68610685D01*
X51271000Y-68663140D01*
X51271000Y-70076860D01*
X51265834Y-70129315D01*
X51252326Y-70173843D01*
X51230385Y-70214892D01*
X51200864Y-70250864D01*
X51164892Y-70280385D01*
X51123843Y-70302326D01*
X51079315Y-70315834D01*
X51026860Y-70321000D01*
X50313140Y-70321000D01*
X50260685Y-70315834D01*
X50216157Y-70302326D01*
X50175108Y-70280385D01*
X50139136Y-70250864D01*
X50109615Y-70214892D01*
X50087674Y-70173843D01*
X50074166Y-70129315D01*
X50069000Y-70076860D01*
X50069000Y-68663140D01*
X50074166Y-68610685D01*
X50087674Y-68566157D01*
X50109615Y-68525108D01*
X50139136Y-68489136D01*
X50175108Y-68459615D01*
X50216157Y-68437674D01*
X50260685Y-68424166D01*
X50313140Y-68419000D01*
X51026860Y-68419000D01*
X51079315Y-68424166D01*
X51079315Y-68424166D01*
G37*
G36*
X61231000Y-70321000D02*
G01*
X60029000Y-70321000D01*
X60029000Y-68419000D01*
X61231000Y-68419000D01*
X61231000Y-70321000D01*
X61231000Y-70321000D01*
G37*
G36*
X48731000Y-70321000D02*
G01*
X47529000Y-70321000D01*
X47529000Y-68419000D01*
X48731000Y-68419000D01*
X48731000Y-70321000D01*
X48731000Y-70321000D01*
G37*
G36*
X62309315Y-66354166D02*
G01*
X62353843Y-66367674D01*
X62394892Y-66389615D01*
X62430864Y-66419136D01*
X62460385Y-66455108D01*
X62482326Y-66496157D01*
X62495834Y-66540685D01*
X62501000Y-66593140D01*
X62501000Y-68006860D01*
X62495834Y-68059315D01*
X62482326Y-68103843D01*
X62460385Y-68144892D01*
X62430864Y-68180864D01*
X62394892Y-68210385D01*
X62353843Y-68232326D01*
X62309315Y-68245834D01*
X62256860Y-68251000D01*
X61543140Y-68251000D01*
X61490685Y-68245834D01*
X61446153Y-68232325D01*
X61414923Y-68215632D01*
X61400320Y-68209583D01*
X61389256Y-68197376D01*
X61369136Y-68180864D01*
X61339615Y-68144892D01*
X61317674Y-68103843D01*
X61304166Y-68059315D01*
X61299000Y-68006860D01*
X61299000Y-66593140D01*
X61304166Y-66540685D01*
X61317674Y-66496157D01*
X61339615Y-66455108D01*
X61369136Y-66419136D01*
X61405108Y-66389615D01*
X61446157Y-66367674D01*
X61490685Y-66354166D01*
X61543140Y-66349000D01*
X62256860Y-66349000D01*
X62309315Y-66354166D01*
X62309315Y-66354166D01*
G37*
G36*
X49809315Y-66354166D02*
G01*
X49853843Y-66367674D01*
X49894892Y-66389615D01*
X49930864Y-66419136D01*
X49960385Y-66455108D01*
X49982326Y-66496157D01*
X49995834Y-66540685D01*
X50001000Y-66593140D01*
X50001000Y-68006860D01*
X49995834Y-68059315D01*
X49982326Y-68103843D01*
X49960385Y-68144892D01*
X49930864Y-68180864D01*
X49894892Y-68210385D01*
X49853843Y-68232326D01*
X49809315Y-68245834D01*
X49756860Y-68251000D01*
X49043140Y-68251000D01*
X48990685Y-68245834D01*
X48946153Y-68232325D01*
X48914923Y-68215632D01*
X48900320Y-68209583D01*
X48889256Y-68197376D01*
X48869136Y-68180864D01*
X48839615Y-68144892D01*
X48817674Y-68103843D01*
X48804166Y-68059315D01*
X48799000Y-68006860D01*
X48799000Y-66593140D01*
X48804166Y-66540685D01*
X48817674Y-66496157D01*
X48839615Y-66455108D01*
X48869136Y-66419136D01*
X48905108Y-66389615D01*
X48946157Y-66367674D01*
X48990685Y-66354166D01*
X49043140Y-66349000D01*
X49756860Y-66349000D01*
X49809315Y-66354166D01*
X49809315Y-66354166D01*
G37*
G36*
X63509315Y-62854166D02*
G01*
X63553843Y-62867674D01*
X63594892Y-62889615D01*
X63630864Y-62919136D01*
X63660385Y-62955108D01*
X63682326Y-62996157D01*
X63695834Y-63040685D01*
X63701000Y-63093140D01*
X63701000Y-64506860D01*
X63695834Y-64559315D01*
X63682326Y-64603843D01*
X63660385Y-64644892D01*
X63630864Y-64680864D01*
X63594892Y-64710385D01*
X63553843Y-64732326D01*
X63509315Y-64745834D01*
X63456860Y-64751000D01*
X62743140Y-64751000D01*
X62690685Y-64745834D01*
X62646157Y-64732326D01*
X62605108Y-64710385D01*
X62569136Y-64680864D01*
X62539615Y-64644892D01*
X62517674Y-64603843D01*
X62504166Y-64559315D01*
X62499000Y-64506860D01*
X62499000Y-63093140D01*
X62504166Y-63040685D01*
X62517674Y-62996157D01*
X62539615Y-62955108D01*
X62569136Y-62919136D01*
X62605108Y-62889615D01*
X62646157Y-62867674D01*
X62690685Y-62854166D01*
X62743140Y-62849000D01*
X63456860Y-62849000D01*
X63509315Y-62854166D01*
X63509315Y-62854166D01*
G37*
G36*
X61161000Y-64751000D02*
G01*
X59959000Y-64751000D01*
X59959000Y-62849000D01*
X61161000Y-62849000D01*
X61161000Y-64751000D01*
X61161000Y-64751000D01*
G37*
G36*
X51079315Y-62824166D02*
G01*
X51123843Y-62837674D01*
X51164892Y-62859615D01*
X51200864Y-62889136D01*
X51230385Y-62925108D01*
X51252326Y-62966157D01*
X51265834Y-63010685D01*
X51271000Y-63063140D01*
X51271000Y-64476860D01*
X51265834Y-64529315D01*
X51252326Y-64573843D01*
X51230385Y-64614892D01*
X51200864Y-64650864D01*
X51164892Y-64680385D01*
X51123843Y-64702326D01*
X51079315Y-64715834D01*
X51026860Y-64721000D01*
X50313140Y-64721000D01*
X50260685Y-64715834D01*
X50216157Y-64702326D01*
X50175108Y-64680385D01*
X50139136Y-64650864D01*
X50109615Y-64614892D01*
X50087674Y-64573843D01*
X50074166Y-64529315D01*
X50069000Y-64476860D01*
X50069000Y-63063140D01*
X50074166Y-63010685D01*
X50087674Y-62966157D01*
X50109615Y-62925108D01*
X50139136Y-62889136D01*
X50175108Y-62859615D01*
X50216157Y-62837674D01*
X50260685Y-62824166D01*
X50313140Y-62819000D01*
X51026860Y-62819000D01*
X51079315Y-62824166D01*
X51079315Y-62824166D01*
G37*
G36*
X48731000Y-64721000D02*
G01*
X47529000Y-64721000D01*
X47529000Y-62819000D01*
X48731000Y-62819000D01*
X48731000Y-64721000D01*
X48731000Y-64721000D01*
G37*
G36*
X62239315Y-60784166D02*
G01*
X62283843Y-60797674D01*
X62324892Y-60819615D01*
X62360864Y-60849136D01*
X62390385Y-60885108D01*
X62412326Y-60926157D01*
X62425834Y-60970685D01*
X62431000Y-61023140D01*
X62431000Y-62436860D01*
X62425834Y-62489315D01*
X62412326Y-62533843D01*
X62390385Y-62574892D01*
X62360864Y-62610864D01*
X62324892Y-62640385D01*
X62283843Y-62662326D01*
X62239315Y-62675834D01*
X62186860Y-62681000D01*
X61473140Y-62681000D01*
X61420685Y-62675834D01*
X61376153Y-62662325D01*
X61344923Y-62645632D01*
X61330320Y-62639583D01*
X61319256Y-62627376D01*
X61299136Y-62610864D01*
X61269615Y-62574892D01*
X61247674Y-62533843D01*
X61234166Y-62489315D01*
X61229000Y-62436860D01*
X61229000Y-61023140D01*
X61234166Y-60970685D01*
X61247674Y-60926157D01*
X61269615Y-60885108D01*
X61299136Y-60849136D01*
X61335108Y-60819615D01*
X61376157Y-60797674D01*
X61420685Y-60784166D01*
X61473140Y-60779000D01*
X62186860Y-60779000D01*
X62239315Y-60784166D01*
X62239315Y-60784166D01*
G37*
G36*
X49809315Y-60754166D02*
G01*
X49853843Y-60767674D01*
X49894892Y-60789615D01*
X49930864Y-60819136D01*
X49960385Y-60855108D01*
X49982326Y-60896157D01*
X49995834Y-60940685D01*
X50001000Y-60993140D01*
X50001000Y-62406860D01*
X49995834Y-62459315D01*
X49982326Y-62503843D01*
X49960385Y-62544892D01*
X49930864Y-62580864D01*
X49894892Y-62610385D01*
X49853843Y-62632326D01*
X49809315Y-62645834D01*
X49756860Y-62651000D01*
X49043140Y-62651000D01*
X48990685Y-62645834D01*
X48946153Y-62632325D01*
X48914923Y-62615632D01*
X48900320Y-62609583D01*
X48889256Y-62597376D01*
X48869136Y-62580864D01*
X48839615Y-62544892D01*
X48817674Y-62503843D01*
X48804166Y-62459315D01*
X48799000Y-62406860D01*
X48799000Y-60993140D01*
X48804166Y-60940685D01*
X48817674Y-60896157D01*
X48839615Y-60855108D01*
X48869136Y-60819136D01*
X48905108Y-60789615D01*
X48946157Y-60767674D01*
X48990685Y-60754166D01*
X49043140Y-60749000D01*
X49756860Y-60749000D01*
X49809315Y-60754166D01*
X49809315Y-60754166D01*
G37*
G36*
X41210442Y-58645518D02*
G01*
X41276627Y-58652037D01*
X41446466Y-58703557D01*
X41602991Y-58787222D01*
X41638729Y-58816552D01*
X41740186Y-58899814D01*
X41823448Y-59001271D01*
X41852778Y-59037009D01*
X41936443Y-59193534D01*
X41987963Y-59363373D01*
X42005359Y-59540000D01*
X41987963Y-59716627D01*
X41936443Y-59886466D01*
X41852778Y-60042991D01*
X41823448Y-60078729D01*
X41740186Y-60180186D01*
X41638729Y-60263448D01*
X41602991Y-60292778D01*
X41446466Y-60376443D01*
X41276627Y-60427963D01*
X41210443Y-60434481D01*
X41144260Y-60441000D01*
X41055740Y-60441000D01*
X40989557Y-60434481D01*
X40923373Y-60427963D01*
X40753534Y-60376443D01*
X40597009Y-60292778D01*
X40561271Y-60263448D01*
X40459814Y-60180186D01*
X40376552Y-60078729D01*
X40347222Y-60042991D01*
X40263557Y-59886466D01*
X40212037Y-59716627D01*
X40194641Y-59540000D01*
X40212037Y-59363373D01*
X40263557Y-59193534D01*
X40347222Y-59037009D01*
X40376552Y-59001271D01*
X40459814Y-58899814D01*
X40561271Y-58816552D01*
X40597009Y-58787222D01*
X40753534Y-58703557D01*
X40923373Y-58652037D01*
X40989558Y-58645518D01*
X41055740Y-58639000D01*
X41144260Y-58639000D01*
X41210442Y-58645518D01*
X41210442Y-58645518D01*
G37*
G36*
X48731000Y-59151000D02*
G01*
X47529000Y-59151000D01*
X47529000Y-57249000D01*
X48731000Y-57249000D01*
X48731000Y-59151000D01*
X48731000Y-59151000D01*
G37*
G36*
X51079315Y-57254166D02*
G01*
X51123843Y-57267674D01*
X51164892Y-57289615D01*
X51200864Y-57319136D01*
X51230385Y-57355108D01*
X51252326Y-57396157D01*
X51265834Y-57440685D01*
X51271000Y-57493140D01*
X51271000Y-58906860D01*
X51265834Y-58959315D01*
X51252326Y-59003843D01*
X51230385Y-59044892D01*
X51200864Y-59080864D01*
X51164892Y-59110385D01*
X51123843Y-59132326D01*
X51079315Y-59145834D01*
X51026860Y-59151000D01*
X50313140Y-59151000D01*
X50260685Y-59145834D01*
X50216157Y-59132326D01*
X50175108Y-59110385D01*
X50139136Y-59080864D01*
X50109615Y-59044892D01*
X50087674Y-59003843D01*
X50074166Y-58959315D01*
X50069000Y-58906860D01*
X50069000Y-57493140D01*
X50074166Y-57440685D01*
X50087674Y-57396157D01*
X50109615Y-57355108D01*
X50139136Y-57319136D01*
X50175108Y-57289615D01*
X50216157Y-57267674D01*
X50260685Y-57254166D01*
X50313140Y-57249000D01*
X51026860Y-57249000D01*
X51079315Y-57254166D01*
X51079315Y-57254166D01*
G37*
G36*
X63509315Y-57254166D02*
G01*
X63553843Y-57267674D01*
X63594892Y-57289615D01*
X63630864Y-57319136D01*
X63660385Y-57355108D01*
X63682326Y-57396157D01*
X63695834Y-57440685D01*
X63701000Y-57493140D01*
X63701000Y-58906860D01*
X63695834Y-58959315D01*
X63682326Y-59003843D01*
X63660385Y-59044892D01*
X63630864Y-59080864D01*
X63594892Y-59110385D01*
X63553843Y-59132326D01*
X63509315Y-59145834D01*
X63456860Y-59151000D01*
X62743140Y-59151000D01*
X62690685Y-59145834D01*
X62646157Y-59132326D01*
X62605108Y-59110385D01*
X62569136Y-59080864D01*
X62539615Y-59044892D01*
X62517674Y-59003843D01*
X62504166Y-58959315D01*
X62499000Y-58906860D01*
X62499000Y-57493140D01*
X62504166Y-57440685D01*
X62517674Y-57396157D01*
X62539615Y-57355108D01*
X62569136Y-57319136D01*
X62605108Y-57289615D01*
X62646157Y-57267674D01*
X62690685Y-57254166D01*
X62743140Y-57249000D01*
X63456860Y-57249000D01*
X63509315Y-57254166D01*
X63509315Y-57254166D01*
G37*
G36*
X61161000Y-59151000D02*
G01*
X59959000Y-59151000D01*
X59959000Y-57249000D01*
X61161000Y-57249000D01*
X61161000Y-59151000D01*
X61161000Y-59151000D01*
G37*
G36*
X42001000Y-57901000D02*
G01*
X40199000Y-57901000D01*
X40199000Y-56099000D01*
X42001000Y-56099000D01*
X42001000Y-57901000D01*
X42001000Y-57901000D01*
G37*
G36*
X67901000Y-57181000D02*
G01*
X66099000Y-57181000D01*
X66099000Y-55379000D01*
X67901000Y-55379000D01*
X67901000Y-57181000D01*
X67901000Y-57181000D01*
G37*
G36*
X49809315Y-55184166D02*
G01*
X49853843Y-55197674D01*
X49894892Y-55219615D01*
X49930864Y-55249136D01*
X49960385Y-55285108D01*
X49982326Y-55326157D01*
X49995834Y-55370685D01*
X50001000Y-55423140D01*
X50001000Y-56836860D01*
X49995834Y-56889315D01*
X49982326Y-56933843D01*
X49960385Y-56974892D01*
X49930864Y-57010864D01*
X49894892Y-57040385D01*
X49853843Y-57062326D01*
X49809315Y-57075834D01*
X49756860Y-57081000D01*
X49043140Y-57081000D01*
X48990685Y-57075834D01*
X48946153Y-57062325D01*
X48914923Y-57045632D01*
X48900320Y-57039583D01*
X48889256Y-57027376D01*
X48869136Y-57010864D01*
X48839615Y-56974892D01*
X48817674Y-56933843D01*
X48804166Y-56889315D01*
X48799000Y-56836860D01*
X48799000Y-55423140D01*
X48804166Y-55370685D01*
X48817674Y-55326157D01*
X48839615Y-55285108D01*
X48869136Y-55249136D01*
X48905108Y-55219615D01*
X48946157Y-55197674D01*
X48990685Y-55184166D01*
X49043140Y-55179000D01*
X49756860Y-55179000D01*
X49809315Y-55184166D01*
X49809315Y-55184166D01*
G37*
G36*
X62239315Y-55184166D02*
G01*
X62283843Y-55197674D01*
X62324892Y-55219615D01*
X62360864Y-55249136D01*
X62390385Y-55285108D01*
X62412326Y-55326157D01*
X62425834Y-55370685D01*
X62431000Y-55423140D01*
X62431000Y-56836860D01*
X62425834Y-56889315D01*
X62412326Y-56933843D01*
X62390385Y-56974892D01*
X62360864Y-57010864D01*
X62324892Y-57040385D01*
X62283843Y-57062326D01*
X62239315Y-57075834D01*
X62186860Y-57081000D01*
X61473140Y-57081000D01*
X61420685Y-57075834D01*
X61376153Y-57062325D01*
X61344923Y-57045632D01*
X61330320Y-57039583D01*
X61319256Y-57027376D01*
X61299136Y-57010864D01*
X61269615Y-56974892D01*
X61247674Y-56933843D01*
X61234166Y-56889315D01*
X61229000Y-56836860D01*
X61229000Y-55423140D01*
X61234166Y-55370685D01*
X61247674Y-55326157D01*
X61269615Y-55285108D01*
X61299136Y-55249136D01*
X61335108Y-55219615D01*
X61376157Y-55197674D01*
X61420685Y-55184166D01*
X61473140Y-55179000D01*
X62186860Y-55179000D01*
X62239315Y-55184166D01*
X62239315Y-55184166D01*
G37*
G36*
X67110442Y-52845518D02*
G01*
X67176627Y-52852037D01*
X67346466Y-52903557D01*
X67502991Y-52987222D01*
X67538729Y-53016552D01*
X67640186Y-53099814D01*
X67723448Y-53201271D01*
X67752778Y-53237009D01*
X67836443Y-53393534D01*
X67887963Y-53563373D01*
X67905359Y-53740000D01*
X67887963Y-53916627D01*
X67836443Y-54086466D01*
X67752778Y-54242991D01*
X67723448Y-54278729D01*
X67640186Y-54380186D01*
X67538729Y-54463448D01*
X67502991Y-54492778D01*
X67346466Y-54576443D01*
X67176627Y-54627963D01*
X67110442Y-54634482D01*
X67044260Y-54641000D01*
X66955740Y-54641000D01*
X66889558Y-54634482D01*
X66823373Y-54627963D01*
X66653534Y-54576443D01*
X66497009Y-54492778D01*
X66461271Y-54463448D01*
X66359814Y-54380186D01*
X66276552Y-54278729D01*
X66247222Y-54242991D01*
X66163557Y-54086466D01*
X66112037Y-53916627D01*
X66094641Y-53740000D01*
X66112037Y-53563373D01*
X66163557Y-53393534D01*
X66247222Y-53237009D01*
X66276552Y-53201271D01*
X66359814Y-53099814D01*
X66461271Y-53016552D01*
X66497009Y-52987222D01*
X66653534Y-52903557D01*
X66823373Y-52852037D01*
X66889558Y-52845518D01*
X66955740Y-52839000D01*
X67044260Y-52839000D01*
X67110442Y-52845518D01*
X67110442Y-52845518D01*
G37*
G36*
X51049315Y-51754166D02*
G01*
X51093843Y-51767674D01*
X51134892Y-51789615D01*
X51170864Y-51819136D01*
X51200385Y-51855108D01*
X51222326Y-51896157D01*
X51235834Y-51940685D01*
X51241000Y-51993140D01*
X51241000Y-53406860D01*
X51235834Y-53459315D01*
X51222326Y-53503843D01*
X51200385Y-53544892D01*
X51170864Y-53580864D01*
X51134892Y-53610385D01*
X51093843Y-53632326D01*
X51049315Y-53645834D01*
X50996860Y-53651000D01*
X50283140Y-53651000D01*
X50230685Y-53645834D01*
X50186157Y-53632326D01*
X50145108Y-53610385D01*
X50109136Y-53580864D01*
X50079615Y-53544892D01*
X50057674Y-53503843D01*
X50044166Y-53459315D01*
X50039000Y-53406860D01*
X50039000Y-51993140D01*
X50044166Y-51940685D01*
X50057674Y-51896157D01*
X50079615Y-51855108D01*
X50109136Y-51819136D01*
X50145108Y-51789615D01*
X50186157Y-51767674D01*
X50230685Y-51754166D01*
X50283140Y-51749000D01*
X50996860Y-51749000D01*
X51049315Y-51754166D01*
X51049315Y-51754166D01*
G37*
G36*
X63509315Y-51754166D02*
G01*
X63553843Y-51767674D01*
X63594892Y-51789615D01*
X63630864Y-51819136D01*
X63660385Y-51855108D01*
X63682326Y-51896157D01*
X63695834Y-51940685D01*
X63701000Y-51993140D01*
X63701000Y-53406860D01*
X63695834Y-53459315D01*
X63682326Y-53503843D01*
X63660385Y-53544892D01*
X63630864Y-53580864D01*
X63594892Y-53610385D01*
X63553843Y-53632326D01*
X63509315Y-53645834D01*
X63456860Y-53651000D01*
X62743140Y-53651000D01*
X62690685Y-53645834D01*
X62646157Y-53632326D01*
X62605108Y-53610385D01*
X62569136Y-53580864D01*
X62539615Y-53544892D01*
X62517674Y-53503843D01*
X62504166Y-53459315D01*
X62499000Y-53406860D01*
X62499000Y-51993140D01*
X62504166Y-51940685D01*
X62517674Y-51896157D01*
X62539615Y-51855108D01*
X62569136Y-51819136D01*
X62605108Y-51789615D01*
X62646157Y-51767674D01*
X62690685Y-51754166D01*
X62743140Y-51749000D01*
X63456860Y-51749000D01*
X63509315Y-51754166D01*
X63509315Y-51754166D01*
G37*
G36*
X61161000Y-53651000D02*
G01*
X59959000Y-53651000D01*
X59959000Y-51749000D01*
X61161000Y-51749000D01*
X61161000Y-53651000D01*
X61161000Y-53651000D01*
G37*
G36*
X48701000Y-53651000D02*
G01*
X47499000Y-53651000D01*
X47499000Y-51749000D01*
X48701000Y-51749000D01*
X48701000Y-53651000D01*
X48701000Y-53651000D01*
G37*
G36*
X37438205Y-50502461D02*
G01*
X37556153Y-50525922D01*
X37637975Y-50559814D01*
X37778359Y-50617963D01*
X37978342Y-50751587D01*
X38148413Y-50921658D01*
X38282037Y-51121641D01*
X38314494Y-51200000D01*
X38374078Y-51343847D01*
X38391979Y-51433843D01*
X38416701Y-51558126D01*
X38421000Y-51579742D01*
X38421000Y-51820258D01*
X38374078Y-52056153D01*
X38335953Y-52148194D01*
X38282037Y-52278359D01*
X38148413Y-52478342D01*
X37978342Y-52648413D01*
X37778359Y-52782037D01*
X37648194Y-52835953D01*
X37556153Y-52874078D01*
X37320259Y-52921000D01*
X37079741Y-52921000D01*
X36843847Y-52874078D01*
X36751806Y-52835953D01*
X36621641Y-52782037D01*
X36421658Y-52648413D01*
X36251587Y-52478342D01*
X36117963Y-52278359D01*
X36064047Y-52148194D01*
X36025922Y-52056153D01*
X35979000Y-51820258D01*
X35979000Y-51579742D01*
X35983300Y-51558126D01*
X36008021Y-51433843D01*
X36025922Y-51343847D01*
X36085506Y-51200000D01*
X36117963Y-51121641D01*
X36251587Y-50921658D01*
X36421658Y-50751587D01*
X36621641Y-50617963D01*
X36762025Y-50559814D01*
X36843847Y-50525922D01*
X37079741Y-50479000D01*
X37320259Y-50479000D01*
X37438205Y-50502461D01*
X37438205Y-50502461D01*
G37*
G36*
X67110442Y-50305518D02*
G01*
X67176627Y-50312037D01*
X67346466Y-50363557D01*
X67502991Y-50447222D01*
X67538729Y-50476552D01*
X67640186Y-50559814D01*
X67723448Y-50661271D01*
X67752778Y-50697009D01*
X67836443Y-50853534D01*
X67887963Y-51023373D01*
X67905359Y-51200000D01*
X67887963Y-51376627D01*
X67836696Y-51545632D01*
X67836442Y-51546468D01*
X67817984Y-51581000D01*
X67752778Y-51702991D01*
X67723448Y-51738729D01*
X67640186Y-51840186D01*
X67538729Y-51923448D01*
X67502991Y-51952778D01*
X67346466Y-52036443D01*
X67176627Y-52087963D01*
X67110442Y-52094482D01*
X67044260Y-52101000D01*
X66955740Y-52101000D01*
X66889558Y-52094482D01*
X66823373Y-52087963D01*
X66653534Y-52036443D01*
X66497009Y-51952778D01*
X66461271Y-51923448D01*
X66359814Y-51840186D01*
X66276552Y-51738729D01*
X66247222Y-51702991D01*
X66182016Y-51581000D01*
X66163558Y-51546468D01*
X66163304Y-51545632D01*
X66112037Y-51376627D01*
X66094641Y-51200000D01*
X66112037Y-51023373D01*
X66163557Y-50853534D01*
X66247222Y-50697009D01*
X66276552Y-50661271D01*
X66359814Y-50559814D01*
X66461271Y-50476552D01*
X66497009Y-50447222D01*
X66653534Y-50363557D01*
X66823373Y-50312037D01*
X66889558Y-50305518D01*
X66955740Y-50299000D01*
X67044260Y-50299000D01*
X67110442Y-50305518D01*
X67110442Y-50305518D01*
G37*
G36*
X49779315Y-49684166D02*
G01*
X49823843Y-49697674D01*
X49864892Y-49719615D01*
X49900864Y-49749136D01*
X49930385Y-49785108D01*
X49952326Y-49826157D01*
X49965834Y-49870685D01*
X49971000Y-49923140D01*
X49971000Y-51336860D01*
X49965834Y-51389315D01*
X49952326Y-51433843D01*
X49930385Y-51474892D01*
X49900864Y-51510864D01*
X49864892Y-51540385D01*
X49823843Y-51562326D01*
X49779315Y-51575834D01*
X49726860Y-51581000D01*
X49013140Y-51581000D01*
X48960685Y-51575834D01*
X48916153Y-51562325D01*
X48884923Y-51545632D01*
X48870320Y-51539583D01*
X48859256Y-51527376D01*
X48839136Y-51510864D01*
X48809615Y-51474892D01*
X48787674Y-51433843D01*
X48774166Y-51389315D01*
X48769000Y-51336860D01*
X48769000Y-49923140D01*
X48774166Y-49870685D01*
X48787674Y-49826157D01*
X48809615Y-49785108D01*
X48839136Y-49749136D01*
X48875108Y-49719615D01*
X48916157Y-49697674D01*
X48960685Y-49684166D01*
X49013140Y-49679000D01*
X49726860Y-49679000D01*
X49779315Y-49684166D01*
X49779315Y-49684166D01*
G37*
G36*
X62239315Y-49684166D02*
G01*
X62283843Y-49697674D01*
X62324892Y-49719615D01*
X62360864Y-49749136D01*
X62390385Y-49785108D01*
X62412326Y-49826157D01*
X62425834Y-49870685D01*
X62431000Y-49923140D01*
X62431000Y-51336860D01*
X62425834Y-51389315D01*
X62412326Y-51433843D01*
X62390385Y-51474892D01*
X62360864Y-51510864D01*
X62324892Y-51540385D01*
X62283843Y-51562326D01*
X62239315Y-51575834D01*
X62186860Y-51581000D01*
X61473140Y-51581000D01*
X61420685Y-51575834D01*
X61376153Y-51562325D01*
X61344923Y-51545632D01*
X61330320Y-51539583D01*
X61319256Y-51527376D01*
X61299136Y-51510864D01*
X61269615Y-51474892D01*
X61247674Y-51433843D01*
X61234166Y-51389315D01*
X61229000Y-51336860D01*
X61229000Y-49923140D01*
X61234166Y-49870685D01*
X61247674Y-49826157D01*
X61269615Y-49785108D01*
X61299136Y-49749136D01*
X61335108Y-49719615D01*
X61376157Y-49697674D01*
X61420685Y-49684166D01*
X61473140Y-49679000D01*
X62186860Y-49679000D01*
X62239315Y-49684166D01*
X62239315Y-49684166D01*
G37*
G36*
X34938205Y-40502461D02*
G01*
X35056153Y-40525922D01*
X35148194Y-40564047D01*
X35278359Y-40617963D01*
X35478342Y-40751587D01*
X35648413Y-40921658D01*
X35782037Y-41121641D01*
X35874078Y-41343848D01*
X35921000Y-41579741D01*
X35921000Y-41820259D01*
X35874078Y-42056152D01*
X35782037Y-42278359D01*
X35648413Y-42478342D01*
X35478342Y-42648413D01*
X35278359Y-42782037D01*
X35148194Y-42835953D01*
X35056153Y-42874078D01*
X34820259Y-42921000D01*
X34579741Y-42921000D01*
X34343847Y-42874078D01*
X34251806Y-42835953D01*
X34121641Y-42782037D01*
X33921658Y-42648413D01*
X33751587Y-42478342D01*
X33617963Y-42278359D01*
X33525922Y-42056152D01*
X33479000Y-41820259D01*
X33479000Y-41579741D01*
X33525922Y-41343848D01*
X33617963Y-41121641D01*
X33751587Y-40921658D01*
X33921658Y-40751587D01*
X34121641Y-40617963D01*
X34251806Y-40564047D01*
X34343847Y-40525922D01*
X34461795Y-40502461D01*
X34579741Y-40479000D01*
X34820259Y-40479000D01*
X34938205Y-40502461D01*
X34938205Y-40502461D01*
G37*
G36*
X39938205Y-40502461D02*
G01*
X40056153Y-40525922D01*
X40148194Y-40564047D01*
X40278359Y-40617963D01*
X40478342Y-40751587D01*
X40648413Y-40921658D01*
X40782037Y-41121641D01*
X40874078Y-41343848D01*
X40921000Y-41579741D01*
X40921000Y-41820259D01*
X40874078Y-42056152D01*
X40782037Y-42278359D01*
X40648413Y-42478342D01*
X40478342Y-42648413D01*
X40278359Y-42782037D01*
X40148194Y-42835953D01*
X40056153Y-42874078D01*
X39820259Y-42921000D01*
X39579741Y-42921000D01*
X39343847Y-42874078D01*
X39251806Y-42835953D01*
X39121641Y-42782037D01*
X38921658Y-42648413D01*
X38751587Y-42478342D01*
X38617963Y-42278359D01*
X38525922Y-42056152D01*
X38479000Y-41820259D01*
X38479000Y-41579741D01*
X38525922Y-41343848D01*
X38617963Y-41121641D01*
X38751587Y-40921658D01*
X38921658Y-40751587D01*
X39121641Y-40617963D01*
X39251806Y-40564047D01*
X39343847Y-40525922D01*
X39461795Y-40502461D01*
X39579741Y-40479000D01*
X39820259Y-40479000D01*
X39938205Y-40502461D01*
X39938205Y-40502461D01*
G37*
G36*
X48501000Y-39401000D02*
G01*
X46699000Y-39401000D01*
X46699000Y-37599000D01*
X48501000Y-37599000D01*
X48501000Y-39401000D01*
X48501000Y-39401000D01*
G37*
G36*
X50250443Y-37605519D02*
G01*
X50316627Y-37612037D01*
X50486466Y-37663557D01*
X50642991Y-37747222D01*
X50678729Y-37776552D01*
X50780186Y-37859814D01*
X50863448Y-37961271D01*
X50892778Y-37997009D01*
X50976443Y-38153534D01*
X51027963Y-38323373D01*
X51045359Y-38500000D01*
X51027963Y-38676627D01*
X50976443Y-38846466D01*
X50892778Y-39002991D01*
X50863448Y-39038729D01*
X50780186Y-39140186D01*
X50678729Y-39223448D01*
X50642991Y-39252778D01*
X50486466Y-39336443D01*
X50316627Y-39387963D01*
X50250443Y-39394481D01*
X50184260Y-39401000D01*
X50095740Y-39401000D01*
X50029557Y-39394481D01*
X49963373Y-39387963D01*
X49793534Y-39336443D01*
X49637009Y-39252778D01*
X49601271Y-39223448D01*
X49499814Y-39140186D01*
X49416552Y-39038729D01*
X49387222Y-39002991D01*
X49303557Y-38846466D01*
X49252037Y-38676627D01*
X49234641Y-38500000D01*
X49252037Y-38323373D01*
X49303557Y-38153534D01*
X49387222Y-37997009D01*
X49416552Y-37961271D01*
X49499814Y-37859814D01*
X49601271Y-37776552D01*
X49637009Y-37747222D01*
X49793534Y-37663557D01*
X49963373Y-37612037D01*
X50029557Y-37605519D01*
X50095740Y-37599000D01*
X50184260Y-37599000D01*
X50250443Y-37605519D01*
X50250443Y-37605519D01*
G37*
G36*
X65406373Y-32957024D02*
G01*
X65607589Y-32997048D01*
X65986671Y-33154069D01*
X66327835Y-33382028D01*
X66617972Y-33672165D01*
X66845931Y-34013329D01*
X67002952Y-34392411D01*
X67083000Y-34794842D01*
X67083000Y-35205158D01*
X67002952Y-35607589D01*
X66845931Y-35986671D01*
X66617972Y-36327835D01*
X66327835Y-36617972D01*
X65986671Y-36845931D01*
X65607589Y-37002952D01*
X65406373Y-37042976D01*
X65205159Y-37083000D01*
X64794841Y-37083000D01*
X64593627Y-37042976D01*
X64392411Y-37002952D01*
X64013329Y-36845931D01*
X63672165Y-36617972D01*
X63382028Y-36327835D01*
X63154069Y-35986671D01*
X62997048Y-35607589D01*
X62917000Y-35205158D01*
X62917000Y-34794842D01*
X62997048Y-34392411D01*
X63154069Y-34013329D01*
X63382028Y-33672165D01*
X63672165Y-33382028D01*
X64013329Y-33154069D01*
X64392411Y-32997048D01*
X64593627Y-32957024D01*
X64794841Y-32917000D01*
X65205159Y-32917000D01*
X65406373Y-32957024D01*
X65406373Y-32957024D01*
G37*
G36*
X35406373Y-32957024D02*
G01*
X35607589Y-32997048D01*
X35986671Y-33154069D01*
X36327835Y-33382028D01*
X36617972Y-33672165D01*
X36845931Y-34013329D01*
X37002952Y-34392411D01*
X37083000Y-34794842D01*
X37083000Y-35205158D01*
X37002952Y-35607589D01*
X36845931Y-35986671D01*
X36617972Y-36327835D01*
X36327835Y-36617972D01*
X35986671Y-36845931D01*
X35607589Y-37002952D01*
X35406373Y-37042976D01*
X35205159Y-37083000D01*
X34794841Y-37083000D01*
X34593627Y-37042976D01*
X34392411Y-37002952D01*
X34013329Y-36845931D01*
X33672165Y-36617972D01*
X33382028Y-36327835D01*
X33154069Y-35986671D01*
X32997048Y-35607589D01*
X32917000Y-35205158D01*
X32917000Y-34794842D01*
X32997048Y-34392411D01*
X33154069Y-34013329D01*
X33382028Y-33672165D01*
X33672165Y-33382028D01*
X34013329Y-33154069D01*
X34392411Y-32997048D01*
X34593627Y-32957024D01*
X34794841Y-32917000D01*
X35205159Y-32917000D01*
X35406373Y-32957024D01*
X35406373Y-32957024D01*
G37*
M02*
