M48
; DRILL file {KiCad (5.1.0)-1} date 5/11/2019 6:56:41 PM
; FORMAT={2:4/ absolute / inch / suppress leading zeros}
; #@! TF.CreationDate,2019-05-11T18:56:41-04:00
; #@! TF.GenerationSoftware,Kicad,Pcbnew,(5.1.0)-1
; #@! TF.FileFunction,Plated,1,2,PTH
FMAT,2
INCH,TZ
T1C0.0157
T2C0.0295
T3C0.0394
T4C0.0512
T5C0.1260
%
G90
G05
T1
X16575Y-33150
X21142Y-19055
X21890Y-17520
X23504Y-15984
T2
X18949Y-22756
X19449Y-22256
X19949Y-22756
X23843Y-24961
X24343Y-24461
X24843Y-24961
X23843Y-22756
X24343Y-22256
X24843Y-22756
X18346Y-35591
X18346Y-36591
X18846Y-36091
X20484Y-35579
X20984Y-35079
X20984Y-36079
X18949Y-27154
X19449Y-26654
X19949Y-27154
X18937Y-20591
X19437Y-20091
X19937Y-20591
X18949Y-24949
X19449Y-24449
X19949Y-24949
X19224Y-29122
X19724Y-28622
X19724Y-29622
X23843Y-20591
X24343Y-20091
X24843Y-20591
X23870Y-27154
X24370Y-26654
X24870Y-27154
X24016Y-29106
X24516Y-28606
X24516Y-29606
T3
X14882Y-34252
X14882Y-35252
X14882Y-36252
X14606Y-27661
X14606Y-28661
X18740Y-15157
X19740Y-15157
X24438Y-33913
X24438Y-35913
X24538Y-32913
X24538Y-34913
X24538Y-36913
X25438Y-33913
X25438Y-35913
X25538Y-32913
X25538Y-34913
X25538Y-36913
X26378Y-20157
X26378Y-21157
X26378Y-22157
X16181Y-22441
X16181Y-23441
T4
X13661Y-16417
X14646Y-20354
X15630Y-16417
T5
X25591Y-39370
X13780Y-39370
X25591Y-13780
X13780Y-13780
T0
M30
