M48
; DRILL file {KiCad (5.1.0)-1} date 5/28/2019 2:05:17 PM
; FORMAT={2:4/ absolute / inch / suppress leading zeros}
; #@! TF.CreationDate,2019-05-28T14:05:17-04:00
; #@! TF.GenerationSoftware,Kicad,Pcbnew,(5.1.0)-1
; #@! TF.FileFunction,Plated,1,2,PTH
FMAT,2
INCH,TZ
T1C0.0394
T2C0.1260
T3C0.5906
%
G90
G05
T1
X31446Y-24622
X31446Y-26622
X31546Y-23622
X31546Y-25622
X31546Y-27622
X32446Y-24622
X32446Y-26622
X32546Y-23622
X32546Y-25622
X32546Y-27622
X31446Y-32496
X31446Y-34496
X31546Y-31496
X31546Y-33496
X31546Y-35496
X32446Y-32496
X32446Y-34496
X32546Y-31496
X32546Y-33496
X32546Y-35496
X29528Y-37402
X30528Y-37402
X31528Y-37402
X32528Y-37402
X33528Y-37402
T2
X29528Y-45276
X33465Y-21654
X33465Y-45276
X29528Y-21654
T3
X31496Y-41339
T0
M30
