G04 #@! TF.GenerationSoftware,KiCad,Pcbnew,(5.1.0)-1*
G04 #@! TF.CreationDate,2019-05-28T14:05:14-04:00*
G04 #@! TF.ProjectId,Power Supply,506f7765-7220-4537-9570-706c792e6b69,rev?*
G04 #@! TF.SameCoordinates,Original*
G04 #@! TF.FileFunction,Copper,L2,Bot*
G04 #@! TF.FilePolarity,Positive*
%FSLAX46Y46*%
G04 Gerber Fmt 4.6, Leading zero omitted, Abs format (unit mm)*
G04 Created by KiCad (PCBNEW (5.1.0)-1) date 2019-05-28 14:05:14*
%MOMM*%
%LPD*%
G04 APERTURE LIST*
%ADD10C,16.000000*%
%ADD11C,4.064000*%
%ADD12O,1.700000X1.700000*%
%ADD13R,1.700000X1.700000*%
%ADD14C,0.254000*%
G04 APERTURE END LIST*
D10*
X80000000Y-105000000D03*
D11*
X75000000Y-55000000D03*
X85000000Y-115000000D03*
X85000000Y-55000000D03*
X75000000Y-115000000D03*
D12*
X82667000Y-70160000D03*
X80127000Y-70160000D03*
X82413000Y-67620000D03*
X79873000Y-67620000D03*
X82667000Y-65080000D03*
X80127000Y-65080000D03*
X82413000Y-62540000D03*
X79873000Y-62540000D03*
X82667000Y-60000000D03*
D13*
X80127000Y-60000000D03*
X80127000Y-80000000D03*
D12*
X82667000Y-80000000D03*
X79873000Y-82540000D03*
X82413000Y-82540000D03*
X80127000Y-85080000D03*
X82667000Y-85080000D03*
X79873000Y-87620000D03*
X82413000Y-87620000D03*
X80127000Y-90160000D03*
X82667000Y-90160000D03*
D13*
X75000000Y-95000000D03*
D12*
X77540000Y-95000000D03*
X80080000Y-95000000D03*
X82620000Y-95000000D03*
X85160000Y-95000000D03*
D14*
G36*
X89340000Y-119340000D02*
G01*
X70660000Y-119340000D01*
X70660000Y-104149527D01*
X71365000Y-104149527D01*
X71365000Y-105850473D01*
X71696838Y-107518737D01*
X72347762Y-109090206D01*
X73292758Y-110504492D01*
X74495508Y-111707242D01*
X75503803Y-112380963D01*
X75262677Y-112333000D01*
X74737323Y-112333000D01*
X74222065Y-112435492D01*
X73736702Y-112636536D01*
X73299887Y-112928406D01*
X72928406Y-113299887D01*
X72636536Y-113736702D01*
X72435492Y-114222065D01*
X72333000Y-114737323D01*
X72333000Y-115262677D01*
X72435492Y-115777935D01*
X72636536Y-116263298D01*
X72928406Y-116700113D01*
X73299887Y-117071594D01*
X73736702Y-117363464D01*
X74222065Y-117564508D01*
X74737323Y-117667000D01*
X75262677Y-117667000D01*
X75777935Y-117564508D01*
X76263298Y-117363464D01*
X76700113Y-117071594D01*
X77071594Y-116700113D01*
X77363464Y-116263298D01*
X77564508Y-115777935D01*
X77667000Y-115262677D01*
X77667000Y-114737323D01*
X77564508Y-114222065D01*
X77363464Y-113736702D01*
X77071594Y-113299887D01*
X76787505Y-113015798D01*
X77481263Y-113303162D01*
X79149527Y-113635000D01*
X80850473Y-113635000D01*
X82518737Y-113303162D01*
X83212495Y-113015798D01*
X82928406Y-113299887D01*
X82636536Y-113736702D01*
X82435492Y-114222065D01*
X82333000Y-114737323D01*
X82333000Y-115262677D01*
X82435492Y-115777935D01*
X82636536Y-116263298D01*
X82928406Y-116700113D01*
X83299887Y-117071594D01*
X83736702Y-117363464D01*
X84222065Y-117564508D01*
X84737323Y-117667000D01*
X85262677Y-117667000D01*
X85777935Y-117564508D01*
X86263298Y-117363464D01*
X86700113Y-117071594D01*
X87071594Y-116700113D01*
X87363464Y-116263298D01*
X87564508Y-115777935D01*
X87667000Y-115262677D01*
X87667000Y-114737323D01*
X87564508Y-114222065D01*
X87363464Y-113736702D01*
X87071594Y-113299887D01*
X86700113Y-112928406D01*
X86263298Y-112636536D01*
X85777935Y-112435492D01*
X85262677Y-112333000D01*
X84737323Y-112333000D01*
X84496197Y-112380963D01*
X85504492Y-111707242D01*
X86707242Y-110504492D01*
X87652238Y-109090206D01*
X88303162Y-107518737D01*
X88635000Y-105850473D01*
X88635000Y-104149527D01*
X88303162Y-102481263D01*
X87652238Y-100909794D01*
X86707242Y-99495508D01*
X85504492Y-98292758D01*
X84090206Y-97347762D01*
X82518737Y-96696838D01*
X80850473Y-96365000D01*
X80676476Y-96365000D01*
X80909014Y-96240706D01*
X81135134Y-96055134D01*
X81320706Y-95829014D01*
X81350000Y-95774209D01*
X81379294Y-95829014D01*
X81564866Y-96055134D01*
X81790986Y-96240706D01*
X82048966Y-96378599D01*
X82328889Y-96463513D01*
X82547050Y-96485000D01*
X82692950Y-96485000D01*
X82911111Y-96463513D01*
X83191034Y-96378599D01*
X83449014Y-96240706D01*
X83675134Y-96055134D01*
X83860706Y-95829014D01*
X83895201Y-95764477D01*
X83964822Y-95881355D01*
X84159731Y-96097588D01*
X84393080Y-96271641D01*
X84655901Y-96396825D01*
X84803110Y-96441476D01*
X85033000Y-96320155D01*
X85033000Y-95127000D01*
X85287000Y-95127000D01*
X85287000Y-96320155D01*
X85516890Y-96441476D01*
X85664099Y-96396825D01*
X85926920Y-96271641D01*
X86160269Y-96097588D01*
X86355178Y-95881355D01*
X86504157Y-95631252D01*
X86601481Y-95356891D01*
X86480814Y-95127000D01*
X85287000Y-95127000D01*
X85033000Y-95127000D01*
X85013000Y-95127000D01*
X85013000Y-94873000D01*
X85033000Y-94873000D01*
X85033000Y-93679845D01*
X85287000Y-93679845D01*
X85287000Y-94873000D01*
X86480814Y-94873000D01*
X86601481Y-94643109D01*
X86504157Y-94368748D01*
X86355178Y-94118645D01*
X86160269Y-93902412D01*
X85926920Y-93728359D01*
X85664099Y-93603175D01*
X85516890Y-93558524D01*
X85287000Y-93679845D01*
X85033000Y-93679845D01*
X84803110Y-93558524D01*
X84655901Y-93603175D01*
X84393080Y-93728359D01*
X84159731Y-93902412D01*
X83964822Y-94118645D01*
X83895201Y-94235523D01*
X83860706Y-94170986D01*
X83675134Y-93944866D01*
X83449014Y-93759294D01*
X83191034Y-93621401D01*
X82911111Y-93536487D01*
X82692950Y-93515000D01*
X82547050Y-93515000D01*
X82328889Y-93536487D01*
X82048966Y-93621401D01*
X81790986Y-93759294D01*
X81564866Y-93944866D01*
X81379294Y-94170986D01*
X81350000Y-94225791D01*
X81320706Y-94170986D01*
X81135134Y-93944866D01*
X80909014Y-93759294D01*
X80651034Y-93621401D01*
X80371111Y-93536487D01*
X80152950Y-93515000D01*
X80007050Y-93515000D01*
X79788889Y-93536487D01*
X79508966Y-93621401D01*
X79250986Y-93759294D01*
X79024866Y-93944866D01*
X78839294Y-94170986D01*
X78810000Y-94225791D01*
X78780706Y-94170986D01*
X78595134Y-93944866D01*
X78369014Y-93759294D01*
X78111034Y-93621401D01*
X77831111Y-93536487D01*
X77612950Y-93515000D01*
X77467050Y-93515000D01*
X77248889Y-93536487D01*
X76968966Y-93621401D01*
X76710986Y-93759294D01*
X76484866Y-93944866D01*
X76460393Y-93974687D01*
X76439502Y-93905820D01*
X76380537Y-93795506D01*
X76301185Y-93698815D01*
X76204494Y-93619463D01*
X76094180Y-93560498D01*
X75974482Y-93524188D01*
X75850000Y-93511928D01*
X74150000Y-93511928D01*
X74025518Y-93524188D01*
X73905820Y-93560498D01*
X73795506Y-93619463D01*
X73698815Y-93698815D01*
X73619463Y-93795506D01*
X73560498Y-93905820D01*
X73524188Y-94025518D01*
X73511928Y-94150000D01*
X73511928Y-95850000D01*
X73524188Y-95974482D01*
X73560498Y-96094180D01*
X73619463Y-96204494D01*
X73698815Y-96301185D01*
X73795506Y-96380537D01*
X73905820Y-96439502D01*
X74025518Y-96475812D01*
X74150000Y-96488072D01*
X75850000Y-96488072D01*
X75974482Y-96475812D01*
X76094180Y-96439502D01*
X76204494Y-96380537D01*
X76301185Y-96301185D01*
X76380537Y-96204494D01*
X76439502Y-96094180D01*
X76460393Y-96025313D01*
X76484866Y-96055134D01*
X76710986Y-96240706D01*
X76968966Y-96378599D01*
X77248889Y-96463513D01*
X77467050Y-96485000D01*
X77612950Y-96485000D01*
X77831111Y-96463513D01*
X78111034Y-96378599D01*
X78369014Y-96240706D01*
X78595134Y-96055134D01*
X78780706Y-95829014D01*
X78810000Y-95774209D01*
X78839294Y-95829014D01*
X79024866Y-96055134D01*
X79250986Y-96240706D01*
X79483524Y-96365000D01*
X79149527Y-96365000D01*
X77481263Y-96696838D01*
X75909794Y-97347762D01*
X74495508Y-98292758D01*
X73292758Y-99495508D01*
X72347762Y-100909794D01*
X71696838Y-102481263D01*
X71365000Y-104149527D01*
X70660000Y-104149527D01*
X70660000Y-82540000D01*
X78380815Y-82540000D01*
X78409487Y-82831111D01*
X78494401Y-83111034D01*
X78632294Y-83369014D01*
X78817866Y-83595134D01*
X79043986Y-83780706D01*
X79241036Y-83886031D01*
X79071866Y-84024866D01*
X78886294Y-84250986D01*
X78748401Y-84508966D01*
X78663487Y-84788889D01*
X78634815Y-85080000D01*
X78663487Y-85371111D01*
X78748401Y-85651034D01*
X78886294Y-85909014D01*
X79071866Y-86135134D01*
X79241036Y-86273969D01*
X79043986Y-86379294D01*
X78817866Y-86564866D01*
X78632294Y-86790986D01*
X78494401Y-87048966D01*
X78409487Y-87328889D01*
X78380815Y-87620000D01*
X78409487Y-87911111D01*
X78494401Y-88191034D01*
X78632294Y-88449014D01*
X78817866Y-88675134D01*
X79043986Y-88860706D01*
X79241036Y-88966031D01*
X79071866Y-89104866D01*
X78886294Y-89330986D01*
X78748401Y-89588966D01*
X78663487Y-89868889D01*
X78634815Y-90160000D01*
X78663487Y-90451111D01*
X78748401Y-90731034D01*
X78886294Y-90989014D01*
X79071866Y-91215134D01*
X79297986Y-91400706D01*
X79555966Y-91538599D01*
X79835889Y-91623513D01*
X80054050Y-91645000D01*
X80199950Y-91645000D01*
X80418111Y-91623513D01*
X80698034Y-91538599D01*
X80956014Y-91400706D01*
X81182134Y-91215134D01*
X81367706Y-90989014D01*
X81397000Y-90934209D01*
X81426294Y-90989014D01*
X81611866Y-91215134D01*
X81837986Y-91400706D01*
X82095966Y-91538599D01*
X82375889Y-91623513D01*
X82594050Y-91645000D01*
X82739950Y-91645000D01*
X82958111Y-91623513D01*
X83238034Y-91538599D01*
X83496014Y-91400706D01*
X83722134Y-91215134D01*
X83907706Y-90989014D01*
X84045599Y-90731034D01*
X84130513Y-90451111D01*
X84159185Y-90160000D01*
X84130513Y-89868889D01*
X84045599Y-89588966D01*
X83907706Y-89330986D01*
X83722134Y-89104866D01*
X83496014Y-88919294D01*
X83298964Y-88813969D01*
X83468134Y-88675134D01*
X83653706Y-88449014D01*
X83791599Y-88191034D01*
X83876513Y-87911111D01*
X83905185Y-87620000D01*
X83876513Y-87328889D01*
X83791599Y-87048966D01*
X83653706Y-86790986D01*
X83468134Y-86564866D01*
X83298964Y-86426031D01*
X83496014Y-86320706D01*
X83722134Y-86135134D01*
X83907706Y-85909014D01*
X84045599Y-85651034D01*
X84130513Y-85371111D01*
X84159185Y-85080000D01*
X84130513Y-84788889D01*
X84045599Y-84508966D01*
X83907706Y-84250986D01*
X83722134Y-84024866D01*
X83496014Y-83839294D01*
X83298964Y-83733969D01*
X83468134Y-83595134D01*
X83653706Y-83369014D01*
X83791599Y-83111034D01*
X83876513Y-82831111D01*
X83905185Y-82540000D01*
X83876513Y-82248889D01*
X83791599Y-81968966D01*
X83653706Y-81710986D01*
X83468134Y-81484866D01*
X83297154Y-81344546D01*
X83298252Y-81344157D01*
X83548355Y-81195178D01*
X83764588Y-81000269D01*
X83938641Y-80766920D01*
X84063825Y-80504099D01*
X84108476Y-80356890D01*
X83987155Y-80127000D01*
X82794000Y-80127000D01*
X82794000Y-80147000D01*
X82540000Y-80147000D01*
X82540000Y-80127000D01*
X80254000Y-80127000D01*
X80254000Y-80147000D01*
X80000000Y-80147000D01*
X80000000Y-80127000D01*
X78800750Y-80127000D01*
X78642000Y-80285750D01*
X78638928Y-80850000D01*
X78651188Y-80974482D01*
X78687498Y-81094180D01*
X78746463Y-81204494D01*
X78825815Y-81301185D01*
X78922506Y-81380537D01*
X78936123Y-81387815D01*
X78817866Y-81484866D01*
X78632294Y-81710986D01*
X78494401Y-81968966D01*
X78409487Y-82248889D01*
X78380815Y-82540000D01*
X70660000Y-82540000D01*
X70660000Y-79150000D01*
X78638928Y-79150000D01*
X78642000Y-79714250D01*
X78800750Y-79873000D01*
X80000000Y-79873000D01*
X80000000Y-78673750D01*
X80254000Y-78673750D01*
X80254000Y-79873000D01*
X82540000Y-79873000D01*
X82540000Y-78679186D01*
X82794000Y-78679186D01*
X82794000Y-79873000D01*
X83987155Y-79873000D01*
X84108476Y-79643110D01*
X84063825Y-79495901D01*
X83938641Y-79233080D01*
X83764588Y-78999731D01*
X83548355Y-78804822D01*
X83298252Y-78655843D01*
X83023891Y-78558519D01*
X82794000Y-78679186D01*
X82540000Y-78679186D01*
X82310109Y-78558519D01*
X82035748Y-78655843D01*
X81785645Y-78804822D01*
X81589498Y-78981626D01*
X81566502Y-78905820D01*
X81507537Y-78795506D01*
X81428185Y-78698815D01*
X81331494Y-78619463D01*
X81221180Y-78560498D01*
X81101482Y-78524188D01*
X80977000Y-78511928D01*
X80412750Y-78515000D01*
X80254000Y-78673750D01*
X80000000Y-78673750D01*
X79841250Y-78515000D01*
X79277000Y-78511928D01*
X79152518Y-78524188D01*
X79032820Y-78560498D01*
X78922506Y-78619463D01*
X78825815Y-78698815D01*
X78746463Y-78795506D01*
X78687498Y-78905820D01*
X78651188Y-79025518D01*
X78638928Y-79150000D01*
X70660000Y-79150000D01*
X70660000Y-62540000D01*
X78380815Y-62540000D01*
X78409487Y-62831111D01*
X78494401Y-63111034D01*
X78632294Y-63369014D01*
X78817866Y-63595134D01*
X79043986Y-63780706D01*
X79241036Y-63886031D01*
X79071866Y-64024866D01*
X78886294Y-64250986D01*
X78748401Y-64508966D01*
X78663487Y-64788889D01*
X78634815Y-65080000D01*
X78663487Y-65371111D01*
X78748401Y-65651034D01*
X78886294Y-65909014D01*
X79071866Y-66135134D01*
X79241036Y-66273969D01*
X79043986Y-66379294D01*
X78817866Y-66564866D01*
X78632294Y-66790986D01*
X78494401Y-67048966D01*
X78409487Y-67328889D01*
X78380815Y-67620000D01*
X78409487Y-67911111D01*
X78494401Y-68191034D01*
X78632294Y-68449014D01*
X78817866Y-68675134D01*
X79043986Y-68860706D01*
X79241036Y-68966031D01*
X79071866Y-69104866D01*
X78886294Y-69330986D01*
X78748401Y-69588966D01*
X78663487Y-69868889D01*
X78634815Y-70160000D01*
X78663487Y-70451111D01*
X78748401Y-70731034D01*
X78886294Y-70989014D01*
X79071866Y-71215134D01*
X79297986Y-71400706D01*
X79555966Y-71538599D01*
X79835889Y-71623513D01*
X80054050Y-71645000D01*
X80199950Y-71645000D01*
X80418111Y-71623513D01*
X80698034Y-71538599D01*
X80956014Y-71400706D01*
X81182134Y-71215134D01*
X81367706Y-70989014D01*
X81397000Y-70934209D01*
X81426294Y-70989014D01*
X81611866Y-71215134D01*
X81837986Y-71400706D01*
X82095966Y-71538599D01*
X82375889Y-71623513D01*
X82594050Y-71645000D01*
X82739950Y-71645000D01*
X82958111Y-71623513D01*
X83238034Y-71538599D01*
X83496014Y-71400706D01*
X83722134Y-71215134D01*
X83907706Y-70989014D01*
X84045599Y-70731034D01*
X84130513Y-70451111D01*
X84159185Y-70160000D01*
X84130513Y-69868889D01*
X84045599Y-69588966D01*
X83907706Y-69330986D01*
X83722134Y-69104866D01*
X83496014Y-68919294D01*
X83298964Y-68813969D01*
X83468134Y-68675134D01*
X83653706Y-68449014D01*
X83791599Y-68191034D01*
X83876513Y-67911111D01*
X83905185Y-67620000D01*
X83876513Y-67328889D01*
X83791599Y-67048966D01*
X83653706Y-66790986D01*
X83468134Y-66564866D01*
X83298964Y-66426031D01*
X83496014Y-66320706D01*
X83722134Y-66135134D01*
X83907706Y-65909014D01*
X84045599Y-65651034D01*
X84130513Y-65371111D01*
X84159185Y-65080000D01*
X84130513Y-64788889D01*
X84045599Y-64508966D01*
X83907706Y-64250986D01*
X83722134Y-64024866D01*
X83496014Y-63839294D01*
X83298964Y-63733969D01*
X83468134Y-63595134D01*
X83653706Y-63369014D01*
X83791599Y-63111034D01*
X83876513Y-62831111D01*
X83905185Y-62540000D01*
X83876513Y-62248889D01*
X83791599Y-61968966D01*
X83653706Y-61710986D01*
X83468134Y-61484866D01*
X83297154Y-61344546D01*
X83298252Y-61344157D01*
X83548355Y-61195178D01*
X83764588Y-61000269D01*
X83938641Y-60766920D01*
X84063825Y-60504099D01*
X84108476Y-60356890D01*
X83987155Y-60127000D01*
X82794000Y-60127000D01*
X82794000Y-60147000D01*
X82540000Y-60147000D01*
X82540000Y-60127000D01*
X80254000Y-60127000D01*
X80254000Y-60147000D01*
X80000000Y-60147000D01*
X80000000Y-60127000D01*
X78800750Y-60127000D01*
X78642000Y-60285750D01*
X78638928Y-60850000D01*
X78651188Y-60974482D01*
X78687498Y-61094180D01*
X78746463Y-61204494D01*
X78825815Y-61301185D01*
X78922506Y-61380537D01*
X78936123Y-61387815D01*
X78817866Y-61484866D01*
X78632294Y-61710986D01*
X78494401Y-61968966D01*
X78409487Y-62248889D01*
X78380815Y-62540000D01*
X70660000Y-62540000D01*
X70660000Y-59150000D01*
X78638928Y-59150000D01*
X78642000Y-59714250D01*
X78800750Y-59873000D01*
X80000000Y-59873000D01*
X80000000Y-58673750D01*
X80254000Y-58673750D01*
X80254000Y-59873000D01*
X82540000Y-59873000D01*
X82540000Y-58679186D01*
X82794000Y-58679186D01*
X82794000Y-59873000D01*
X83987155Y-59873000D01*
X84108476Y-59643110D01*
X84063825Y-59495901D01*
X83938641Y-59233080D01*
X83764588Y-58999731D01*
X83548355Y-58804822D01*
X83298252Y-58655843D01*
X83023891Y-58558519D01*
X82794000Y-58679186D01*
X82540000Y-58679186D01*
X82310109Y-58558519D01*
X82035748Y-58655843D01*
X81785645Y-58804822D01*
X81589498Y-58981626D01*
X81566502Y-58905820D01*
X81507537Y-58795506D01*
X81428185Y-58698815D01*
X81331494Y-58619463D01*
X81221180Y-58560498D01*
X81101482Y-58524188D01*
X80977000Y-58511928D01*
X80412750Y-58515000D01*
X80254000Y-58673750D01*
X80000000Y-58673750D01*
X79841250Y-58515000D01*
X79277000Y-58511928D01*
X79152518Y-58524188D01*
X79032820Y-58560498D01*
X78922506Y-58619463D01*
X78825815Y-58698815D01*
X78746463Y-58795506D01*
X78687498Y-58905820D01*
X78651188Y-59025518D01*
X78638928Y-59150000D01*
X70660000Y-59150000D01*
X70660000Y-54737323D01*
X72333000Y-54737323D01*
X72333000Y-55262677D01*
X72435492Y-55777935D01*
X72636536Y-56263298D01*
X72928406Y-56700113D01*
X73299887Y-57071594D01*
X73736702Y-57363464D01*
X74222065Y-57564508D01*
X74737323Y-57667000D01*
X75262677Y-57667000D01*
X75777935Y-57564508D01*
X76263298Y-57363464D01*
X76700113Y-57071594D01*
X77071594Y-56700113D01*
X77363464Y-56263298D01*
X77564508Y-55777935D01*
X77667000Y-55262677D01*
X77667000Y-54737323D01*
X82333000Y-54737323D01*
X82333000Y-55262677D01*
X82435492Y-55777935D01*
X82636536Y-56263298D01*
X82928406Y-56700113D01*
X83299887Y-57071594D01*
X83736702Y-57363464D01*
X84222065Y-57564508D01*
X84737323Y-57667000D01*
X85262677Y-57667000D01*
X85777935Y-57564508D01*
X86263298Y-57363464D01*
X86700113Y-57071594D01*
X87071594Y-56700113D01*
X87363464Y-56263298D01*
X87564508Y-55777935D01*
X87667000Y-55262677D01*
X87667000Y-54737323D01*
X87564508Y-54222065D01*
X87363464Y-53736702D01*
X87071594Y-53299887D01*
X86700113Y-52928406D01*
X86263298Y-52636536D01*
X85777935Y-52435492D01*
X85262677Y-52333000D01*
X84737323Y-52333000D01*
X84222065Y-52435492D01*
X83736702Y-52636536D01*
X83299887Y-52928406D01*
X82928406Y-53299887D01*
X82636536Y-53736702D01*
X82435492Y-54222065D01*
X82333000Y-54737323D01*
X77667000Y-54737323D01*
X77564508Y-54222065D01*
X77363464Y-53736702D01*
X77071594Y-53299887D01*
X76700113Y-52928406D01*
X76263298Y-52636536D01*
X75777935Y-52435492D01*
X75262677Y-52333000D01*
X74737323Y-52333000D01*
X74222065Y-52435492D01*
X73736702Y-52636536D01*
X73299887Y-52928406D01*
X72928406Y-53299887D01*
X72636536Y-53736702D01*
X72435492Y-54222065D01*
X72333000Y-54737323D01*
X70660000Y-54737323D01*
X70660000Y-50660000D01*
X89340001Y-50660000D01*
X89340000Y-119340000D01*
X89340000Y-119340000D01*
G37*
X89340000Y-119340000D02*
X70660000Y-119340000D01*
X70660000Y-104149527D01*
X71365000Y-104149527D01*
X71365000Y-105850473D01*
X71696838Y-107518737D01*
X72347762Y-109090206D01*
X73292758Y-110504492D01*
X74495508Y-111707242D01*
X75503803Y-112380963D01*
X75262677Y-112333000D01*
X74737323Y-112333000D01*
X74222065Y-112435492D01*
X73736702Y-112636536D01*
X73299887Y-112928406D01*
X72928406Y-113299887D01*
X72636536Y-113736702D01*
X72435492Y-114222065D01*
X72333000Y-114737323D01*
X72333000Y-115262677D01*
X72435492Y-115777935D01*
X72636536Y-116263298D01*
X72928406Y-116700113D01*
X73299887Y-117071594D01*
X73736702Y-117363464D01*
X74222065Y-117564508D01*
X74737323Y-117667000D01*
X75262677Y-117667000D01*
X75777935Y-117564508D01*
X76263298Y-117363464D01*
X76700113Y-117071594D01*
X77071594Y-116700113D01*
X77363464Y-116263298D01*
X77564508Y-115777935D01*
X77667000Y-115262677D01*
X77667000Y-114737323D01*
X77564508Y-114222065D01*
X77363464Y-113736702D01*
X77071594Y-113299887D01*
X76787505Y-113015798D01*
X77481263Y-113303162D01*
X79149527Y-113635000D01*
X80850473Y-113635000D01*
X82518737Y-113303162D01*
X83212495Y-113015798D01*
X82928406Y-113299887D01*
X82636536Y-113736702D01*
X82435492Y-114222065D01*
X82333000Y-114737323D01*
X82333000Y-115262677D01*
X82435492Y-115777935D01*
X82636536Y-116263298D01*
X82928406Y-116700113D01*
X83299887Y-117071594D01*
X83736702Y-117363464D01*
X84222065Y-117564508D01*
X84737323Y-117667000D01*
X85262677Y-117667000D01*
X85777935Y-117564508D01*
X86263298Y-117363464D01*
X86700113Y-117071594D01*
X87071594Y-116700113D01*
X87363464Y-116263298D01*
X87564508Y-115777935D01*
X87667000Y-115262677D01*
X87667000Y-114737323D01*
X87564508Y-114222065D01*
X87363464Y-113736702D01*
X87071594Y-113299887D01*
X86700113Y-112928406D01*
X86263298Y-112636536D01*
X85777935Y-112435492D01*
X85262677Y-112333000D01*
X84737323Y-112333000D01*
X84496197Y-112380963D01*
X85504492Y-111707242D01*
X86707242Y-110504492D01*
X87652238Y-109090206D01*
X88303162Y-107518737D01*
X88635000Y-105850473D01*
X88635000Y-104149527D01*
X88303162Y-102481263D01*
X87652238Y-100909794D01*
X86707242Y-99495508D01*
X85504492Y-98292758D01*
X84090206Y-97347762D01*
X82518737Y-96696838D01*
X80850473Y-96365000D01*
X80676476Y-96365000D01*
X80909014Y-96240706D01*
X81135134Y-96055134D01*
X81320706Y-95829014D01*
X81350000Y-95774209D01*
X81379294Y-95829014D01*
X81564866Y-96055134D01*
X81790986Y-96240706D01*
X82048966Y-96378599D01*
X82328889Y-96463513D01*
X82547050Y-96485000D01*
X82692950Y-96485000D01*
X82911111Y-96463513D01*
X83191034Y-96378599D01*
X83449014Y-96240706D01*
X83675134Y-96055134D01*
X83860706Y-95829014D01*
X83895201Y-95764477D01*
X83964822Y-95881355D01*
X84159731Y-96097588D01*
X84393080Y-96271641D01*
X84655901Y-96396825D01*
X84803110Y-96441476D01*
X85033000Y-96320155D01*
X85033000Y-95127000D01*
X85287000Y-95127000D01*
X85287000Y-96320155D01*
X85516890Y-96441476D01*
X85664099Y-96396825D01*
X85926920Y-96271641D01*
X86160269Y-96097588D01*
X86355178Y-95881355D01*
X86504157Y-95631252D01*
X86601481Y-95356891D01*
X86480814Y-95127000D01*
X85287000Y-95127000D01*
X85033000Y-95127000D01*
X85013000Y-95127000D01*
X85013000Y-94873000D01*
X85033000Y-94873000D01*
X85033000Y-93679845D01*
X85287000Y-93679845D01*
X85287000Y-94873000D01*
X86480814Y-94873000D01*
X86601481Y-94643109D01*
X86504157Y-94368748D01*
X86355178Y-94118645D01*
X86160269Y-93902412D01*
X85926920Y-93728359D01*
X85664099Y-93603175D01*
X85516890Y-93558524D01*
X85287000Y-93679845D01*
X85033000Y-93679845D01*
X84803110Y-93558524D01*
X84655901Y-93603175D01*
X84393080Y-93728359D01*
X84159731Y-93902412D01*
X83964822Y-94118645D01*
X83895201Y-94235523D01*
X83860706Y-94170986D01*
X83675134Y-93944866D01*
X83449014Y-93759294D01*
X83191034Y-93621401D01*
X82911111Y-93536487D01*
X82692950Y-93515000D01*
X82547050Y-93515000D01*
X82328889Y-93536487D01*
X82048966Y-93621401D01*
X81790986Y-93759294D01*
X81564866Y-93944866D01*
X81379294Y-94170986D01*
X81350000Y-94225791D01*
X81320706Y-94170986D01*
X81135134Y-93944866D01*
X80909014Y-93759294D01*
X80651034Y-93621401D01*
X80371111Y-93536487D01*
X80152950Y-93515000D01*
X80007050Y-93515000D01*
X79788889Y-93536487D01*
X79508966Y-93621401D01*
X79250986Y-93759294D01*
X79024866Y-93944866D01*
X78839294Y-94170986D01*
X78810000Y-94225791D01*
X78780706Y-94170986D01*
X78595134Y-93944866D01*
X78369014Y-93759294D01*
X78111034Y-93621401D01*
X77831111Y-93536487D01*
X77612950Y-93515000D01*
X77467050Y-93515000D01*
X77248889Y-93536487D01*
X76968966Y-93621401D01*
X76710986Y-93759294D01*
X76484866Y-93944866D01*
X76460393Y-93974687D01*
X76439502Y-93905820D01*
X76380537Y-93795506D01*
X76301185Y-93698815D01*
X76204494Y-93619463D01*
X76094180Y-93560498D01*
X75974482Y-93524188D01*
X75850000Y-93511928D01*
X74150000Y-93511928D01*
X74025518Y-93524188D01*
X73905820Y-93560498D01*
X73795506Y-93619463D01*
X73698815Y-93698815D01*
X73619463Y-93795506D01*
X73560498Y-93905820D01*
X73524188Y-94025518D01*
X73511928Y-94150000D01*
X73511928Y-95850000D01*
X73524188Y-95974482D01*
X73560498Y-96094180D01*
X73619463Y-96204494D01*
X73698815Y-96301185D01*
X73795506Y-96380537D01*
X73905820Y-96439502D01*
X74025518Y-96475812D01*
X74150000Y-96488072D01*
X75850000Y-96488072D01*
X75974482Y-96475812D01*
X76094180Y-96439502D01*
X76204494Y-96380537D01*
X76301185Y-96301185D01*
X76380537Y-96204494D01*
X76439502Y-96094180D01*
X76460393Y-96025313D01*
X76484866Y-96055134D01*
X76710986Y-96240706D01*
X76968966Y-96378599D01*
X77248889Y-96463513D01*
X77467050Y-96485000D01*
X77612950Y-96485000D01*
X77831111Y-96463513D01*
X78111034Y-96378599D01*
X78369014Y-96240706D01*
X78595134Y-96055134D01*
X78780706Y-95829014D01*
X78810000Y-95774209D01*
X78839294Y-95829014D01*
X79024866Y-96055134D01*
X79250986Y-96240706D01*
X79483524Y-96365000D01*
X79149527Y-96365000D01*
X77481263Y-96696838D01*
X75909794Y-97347762D01*
X74495508Y-98292758D01*
X73292758Y-99495508D01*
X72347762Y-100909794D01*
X71696838Y-102481263D01*
X71365000Y-104149527D01*
X70660000Y-104149527D01*
X70660000Y-82540000D01*
X78380815Y-82540000D01*
X78409487Y-82831111D01*
X78494401Y-83111034D01*
X78632294Y-83369014D01*
X78817866Y-83595134D01*
X79043986Y-83780706D01*
X79241036Y-83886031D01*
X79071866Y-84024866D01*
X78886294Y-84250986D01*
X78748401Y-84508966D01*
X78663487Y-84788889D01*
X78634815Y-85080000D01*
X78663487Y-85371111D01*
X78748401Y-85651034D01*
X78886294Y-85909014D01*
X79071866Y-86135134D01*
X79241036Y-86273969D01*
X79043986Y-86379294D01*
X78817866Y-86564866D01*
X78632294Y-86790986D01*
X78494401Y-87048966D01*
X78409487Y-87328889D01*
X78380815Y-87620000D01*
X78409487Y-87911111D01*
X78494401Y-88191034D01*
X78632294Y-88449014D01*
X78817866Y-88675134D01*
X79043986Y-88860706D01*
X79241036Y-88966031D01*
X79071866Y-89104866D01*
X78886294Y-89330986D01*
X78748401Y-89588966D01*
X78663487Y-89868889D01*
X78634815Y-90160000D01*
X78663487Y-90451111D01*
X78748401Y-90731034D01*
X78886294Y-90989014D01*
X79071866Y-91215134D01*
X79297986Y-91400706D01*
X79555966Y-91538599D01*
X79835889Y-91623513D01*
X80054050Y-91645000D01*
X80199950Y-91645000D01*
X80418111Y-91623513D01*
X80698034Y-91538599D01*
X80956014Y-91400706D01*
X81182134Y-91215134D01*
X81367706Y-90989014D01*
X81397000Y-90934209D01*
X81426294Y-90989014D01*
X81611866Y-91215134D01*
X81837986Y-91400706D01*
X82095966Y-91538599D01*
X82375889Y-91623513D01*
X82594050Y-91645000D01*
X82739950Y-91645000D01*
X82958111Y-91623513D01*
X83238034Y-91538599D01*
X83496014Y-91400706D01*
X83722134Y-91215134D01*
X83907706Y-90989014D01*
X84045599Y-90731034D01*
X84130513Y-90451111D01*
X84159185Y-90160000D01*
X84130513Y-89868889D01*
X84045599Y-89588966D01*
X83907706Y-89330986D01*
X83722134Y-89104866D01*
X83496014Y-88919294D01*
X83298964Y-88813969D01*
X83468134Y-88675134D01*
X83653706Y-88449014D01*
X83791599Y-88191034D01*
X83876513Y-87911111D01*
X83905185Y-87620000D01*
X83876513Y-87328889D01*
X83791599Y-87048966D01*
X83653706Y-86790986D01*
X83468134Y-86564866D01*
X83298964Y-86426031D01*
X83496014Y-86320706D01*
X83722134Y-86135134D01*
X83907706Y-85909014D01*
X84045599Y-85651034D01*
X84130513Y-85371111D01*
X84159185Y-85080000D01*
X84130513Y-84788889D01*
X84045599Y-84508966D01*
X83907706Y-84250986D01*
X83722134Y-84024866D01*
X83496014Y-83839294D01*
X83298964Y-83733969D01*
X83468134Y-83595134D01*
X83653706Y-83369014D01*
X83791599Y-83111034D01*
X83876513Y-82831111D01*
X83905185Y-82540000D01*
X83876513Y-82248889D01*
X83791599Y-81968966D01*
X83653706Y-81710986D01*
X83468134Y-81484866D01*
X83297154Y-81344546D01*
X83298252Y-81344157D01*
X83548355Y-81195178D01*
X83764588Y-81000269D01*
X83938641Y-80766920D01*
X84063825Y-80504099D01*
X84108476Y-80356890D01*
X83987155Y-80127000D01*
X82794000Y-80127000D01*
X82794000Y-80147000D01*
X82540000Y-80147000D01*
X82540000Y-80127000D01*
X80254000Y-80127000D01*
X80254000Y-80147000D01*
X80000000Y-80147000D01*
X80000000Y-80127000D01*
X78800750Y-80127000D01*
X78642000Y-80285750D01*
X78638928Y-80850000D01*
X78651188Y-80974482D01*
X78687498Y-81094180D01*
X78746463Y-81204494D01*
X78825815Y-81301185D01*
X78922506Y-81380537D01*
X78936123Y-81387815D01*
X78817866Y-81484866D01*
X78632294Y-81710986D01*
X78494401Y-81968966D01*
X78409487Y-82248889D01*
X78380815Y-82540000D01*
X70660000Y-82540000D01*
X70660000Y-79150000D01*
X78638928Y-79150000D01*
X78642000Y-79714250D01*
X78800750Y-79873000D01*
X80000000Y-79873000D01*
X80000000Y-78673750D01*
X80254000Y-78673750D01*
X80254000Y-79873000D01*
X82540000Y-79873000D01*
X82540000Y-78679186D01*
X82794000Y-78679186D01*
X82794000Y-79873000D01*
X83987155Y-79873000D01*
X84108476Y-79643110D01*
X84063825Y-79495901D01*
X83938641Y-79233080D01*
X83764588Y-78999731D01*
X83548355Y-78804822D01*
X83298252Y-78655843D01*
X83023891Y-78558519D01*
X82794000Y-78679186D01*
X82540000Y-78679186D01*
X82310109Y-78558519D01*
X82035748Y-78655843D01*
X81785645Y-78804822D01*
X81589498Y-78981626D01*
X81566502Y-78905820D01*
X81507537Y-78795506D01*
X81428185Y-78698815D01*
X81331494Y-78619463D01*
X81221180Y-78560498D01*
X81101482Y-78524188D01*
X80977000Y-78511928D01*
X80412750Y-78515000D01*
X80254000Y-78673750D01*
X80000000Y-78673750D01*
X79841250Y-78515000D01*
X79277000Y-78511928D01*
X79152518Y-78524188D01*
X79032820Y-78560498D01*
X78922506Y-78619463D01*
X78825815Y-78698815D01*
X78746463Y-78795506D01*
X78687498Y-78905820D01*
X78651188Y-79025518D01*
X78638928Y-79150000D01*
X70660000Y-79150000D01*
X70660000Y-62540000D01*
X78380815Y-62540000D01*
X78409487Y-62831111D01*
X78494401Y-63111034D01*
X78632294Y-63369014D01*
X78817866Y-63595134D01*
X79043986Y-63780706D01*
X79241036Y-63886031D01*
X79071866Y-64024866D01*
X78886294Y-64250986D01*
X78748401Y-64508966D01*
X78663487Y-64788889D01*
X78634815Y-65080000D01*
X78663487Y-65371111D01*
X78748401Y-65651034D01*
X78886294Y-65909014D01*
X79071866Y-66135134D01*
X79241036Y-66273969D01*
X79043986Y-66379294D01*
X78817866Y-66564866D01*
X78632294Y-66790986D01*
X78494401Y-67048966D01*
X78409487Y-67328889D01*
X78380815Y-67620000D01*
X78409487Y-67911111D01*
X78494401Y-68191034D01*
X78632294Y-68449014D01*
X78817866Y-68675134D01*
X79043986Y-68860706D01*
X79241036Y-68966031D01*
X79071866Y-69104866D01*
X78886294Y-69330986D01*
X78748401Y-69588966D01*
X78663487Y-69868889D01*
X78634815Y-70160000D01*
X78663487Y-70451111D01*
X78748401Y-70731034D01*
X78886294Y-70989014D01*
X79071866Y-71215134D01*
X79297986Y-71400706D01*
X79555966Y-71538599D01*
X79835889Y-71623513D01*
X80054050Y-71645000D01*
X80199950Y-71645000D01*
X80418111Y-71623513D01*
X80698034Y-71538599D01*
X80956014Y-71400706D01*
X81182134Y-71215134D01*
X81367706Y-70989014D01*
X81397000Y-70934209D01*
X81426294Y-70989014D01*
X81611866Y-71215134D01*
X81837986Y-71400706D01*
X82095966Y-71538599D01*
X82375889Y-71623513D01*
X82594050Y-71645000D01*
X82739950Y-71645000D01*
X82958111Y-71623513D01*
X83238034Y-71538599D01*
X83496014Y-71400706D01*
X83722134Y-71215134D01*
X83907706Y-70989014D01*
X84045599Y-70731034D01*
X84130513Y-70451111D01*
X84159185Y-70160000D01*
X84130513Y-69868889D01*
X84045599Y-69588966D01*
X83907706Y-69330986D01*
X83722134Y-69104866D01*
X83496014Y-68919294D01*
X83298964Y-68813969D01*
X83468134Y-68675134D01*
X83653706Y-68449014D01*
X83791599Y-68191034D01*
X83876513Y-67911111D01*
X83905185Y-67620000D01*
X83876513Y-67328889D01*
X83791599Y-67048966D01*
X83653706Y-66790986D01*
X83468134Y-66564866D01*
X83298964Y-66426031D01*
X83496014Y-66320706D01*
X83722134Y-66135134D01*
X83907706Y-65909014D01*
X84045599Y-65651034D01*
X84130513Y-65371111D01*
X84159185Y-65080000D01*
X84130513Y-64788889D01*
X84045599Y-64508966D01*
X83907706Y-64250986D01*
X83722134Y-64024866D01*
X83496014Y-63839294D01*
X83298964Y-63733969D01*
X83468134Y-63595134D01*
X83653706Y-63369014D01*
X83791599Y-63111034D01*
X83876513Y-62831111D01*
X83905185Y-62540000D01*
X83876513Y-62248889D01*
X83791599Y-61968966D01*
X83653706Y-61710986D01*
X83468134Y-61484866D01*
X83297154Y-61344546D01*
X83298252Y-61344157D01*
X83548355Y-61195178D01*
X83764588Y-61000269D01*
X83938641Y-60766920D01*
X84063825Y-60504099D01*
X84108476Y-60356890D01*
X83987155Y-60127000D01*
X82794000Y-60127000D01*
X82794000Y-60147000D01*
X82540000Y-60147000D01*
X82540000Y-60127000D01*
X80254000Y-60127000D01*
X80254000Y-60147000D01*
X80000000Y-60147000D01*
X80000000Y-60127000D01*
X78800750Y-60127000D01*
X78642000Y-60285750D01*
X78638928Y-60850000D01*
X78651188Y-60974482D01*
X78687498Y-61094180D01*
X78746463Y-61204494D01*
X78825815Y-61301185D01*
X78922506Y-61380537D01*
X78936123Y-61387815D01*
X78817866Y-61484866D01*
X78632294Y-61710986D01*
X78494401Y-61968966D01*
X78409487Y-62248889D01*
X78380815Y-62540000D01*
X70660000Y-62540000D01*
X70660000Y-59150000D01*
X78638928Y-59150000D01*
X78642000Y-59714250D01*
X78800750Y-59873000D01*
X80000000Y-59873000D01*
X80000000Y-58673750D01*
X80254000Y-58673750D01*
X80254000Y-59873000D01*
X82540000Y-59873000D01*
X82540000Y-58679186D01*
X82794000Y-58679186D01*
X82794000Y-59873000D01*
X83987155Y-59873000D01*
X84108476Y-59643110D01*
X84063825Y-59495901D01*
X83938641Y-59233080D01*
X83764588Y-58999731D01*
X83548355Y-58804822D01*
X83298252Y-58655843D01*
X83023891Y-58558519D01*
X82794000Y-58679186D01*
X82540000Y-58679186D01*
X82310109Y-58558519D01*
X82035748Y-58655843D01*
X81785645Y-58804822D01*
X81589498Y-58981626D01*
X81566502Y-58905820D01*
X81507537Y-58795506D01*
X81428185Y-58698815D01*
X81331494Y-58619463D01*
X81221180Y-58560498D01*
X81101482Y-58524188D01*
X80977000Y-58511928D01*
X80412750Y-58515000D01*
X80254000Y-58673750D01*
X80000000Y-58673750D01*
X79841250Y-58515000D01*
X79277000Y-58511928D01*
X79152518Y-58524188D01*
X79032820Y-58560498D01*
X78922506Y-58619463D01*
X78825815Y-58698815D01*
X78746463Y-58795506D01*
X78687498Y-58905820D01*
X78651188Y-59025518D01*
X78638928Y-59150000D01*
X70660000Y-59150000D01*
X70660000Y-54737323D01*
X72333000Y-54737323D01*
X72333000Y-55262677D01*
X72435492Y-55777935D01*
X72636536Y-56263298D01*
X72928406Y-56700113D01*
X73299887Y-57071594D01*
X73736702Y-57363464D01*
X74222065Y-57564508D01*
X74737323Y-57667000D01*
X75262677Y-57667000D01*
X75777935Y-57564508D01*
X76263298Y-57363464D01*
X76700113Y-57071594D01*
X77071594Y-56700113D01*
X77363464Y-56263298D01*
X77564508Y-55777935D01*
X77667000Y-55262677D01*
X77667000Y-54737323D01*
X82333000Y-54737323D01*
X82333000Y-55262677D01*
X82435492Y-55777935D01*
X82636536Y-56263298D01*
X82928406Y-56700113D01*
X83299887Y-57071594D01*
X83736702Y-57363464D01*
X84222065Y-57564508D01*
X84737323Y-57667000D01*
X85262677Y-57667000D01*
X85777935Y-57564508D01*
X86263298Y-57363464D01*
X86700113Y-57071594D01*
X87071594Y-56700113D01*
X87363464Y-56263298D01*
X87564508Y-55777935D01*
X87667000Y-55262677D01*
X87667000Y-54737323D01*
X87564508Y-54222065D01*
X87363464Y-53736702D01*
X87071594Y-53299887D01*
X86700113Y-52928406D01*
X86263298Y-52636536D01*
X85777935Y-52435492D01*
X85262677Y-52333000D01*
X84737323Y-52333000D01*
X84222065Y-52435492D01*
X83736702Y-52636536D01*
X83299887Y-52928406D01*
X82928406Y-53299887D01*
X82636536Y-53736702D01*
X82435492Y-54222065D01*
X82333000Y-54737323D01*
X77667000Y-54737323D01*
X77564508Y-54222065D01*
X77363464Y-53736702D01*
X77071594Y-53299887D01*
X76700113Y-52928406D01*
X76263298Y-52636536D01*
X75777935Y-52435492D01*
X75262677Y-52333000D01*
X74737323Y-52333000D01*
X74222065Y-52435492D01*
X73736702Y-52636536D01*
X73299887Y-52928406D01*
X72928406Y-53299887D01*
X72636536Y-53736702D01*
X72435492Y-54222065D01*
X72333000Y-54737323D01*
X70660000Y-54737323D01*
X70660000Y-50660000D01*
X89340001Y-50660000D01*
X89340000Y-119340000D01*
M02*
