G04 #@! TF.GenerationSoftware,KiCad,Pcbnew,(5.1.0)-1*
G04 #@! TF.CreationDate,2019-05-28T14:05:14-04:00*
G04 #@! TF.ProjectId,Power Supply,506f7765-7220-4537-9570-706c792e6b69,rev?*
G04 #@! TF.SameCoordinates,Original*
G04 #@! TF.FileFunction,Copper,L1,Top*
G04 #@! TF.FilePolarity,Positive*
%FSLAX46Y46*%
G04 Gerber Fmt 4.6, Leading zero omitted, Abs format (unit mm)*
G04 Created by KiCad (PCBNEW (5.1.0)-1) date 2019-05-28 14:05:14*
%MOMM*%
%LPD*%
G04 APERTURE LIST*
%ADD10C,16.000000*%
%ADD11C,4.064000*%
%ADD12O,1.700000X1.700000*%
%ADD13R,1.700000X1.700000*%
%ADD14C,0.250000*%
%ADD15C,0.254000*%
G04 APERTURE END LIST*
D10*
X80000000Y-105000000D03*
D11*
X75000000Y-55000000D03*
X85000000Y-115000000D03*
X85000000Y-55000000D03*
X75000000Y-115000000D03*
D12*
X82667000Y-70160000D03*
X80127000Y-70160000D03*
X82413000Y-67620000D03*
X79873000Y-67620000D03*
X82667000Y-65080000D03*
X80127000Y-65080000D03*
X82413000Y-62540000D03*
X79873000Y-62540000D03*
X82667000Y-60000000D03*
D13*
X80127000Y-60000000D03*
X80127000Y-80000000D03*
D12*
X82667000Y-80000000D03*
X79873000Y-82540000D03*
X82413000Y-82540000D03*
X80127000Y-85080000D03*
X82667000Y-85080000D03*
X79873000Y-87620000D03*
X82413000Y-87620000D03*
X80127000Y-90160000D03*
X82667000Y-90160000D03*
D13*
X75000000Y-95000000D03*
D12*
X77540000Y-95000000D03*
X80080000Y-95000000D03*
X82620000Y-95000000D03*
X85160000Y-95000000D03*
D14*
X82620000Y-90207000D02*
X82667000Y-90160000D01*
X82620000Y-95000000D02*
X82620000Y-90207000D01*
X82667000Y-90160000D02*
X80127000Y-90160000D01*
X78924919Y-90160000D02*
X76700000Y-87935081D01*
X80127000Y-90160000D02*
X78924919Y-90160000D01*
X76700000Y-73587000D02*
X80127000Y-70160000D01*
X76700000Y-87935081D02*
X76700000Y-73587000D01*
X80127000Y-70160000D02*
X82667000Y-70160000D01*
D15*
G36*
X89340000Y-119340000D02*
G01*
X70660000Y-119340000D01*
X70660000Y-104149527D01*
X71365000Y-104149527D01*
X71365000Y-105850473D01*
X71696838Y-107518737D01*
X72347762Y-109090206D01*
X73292758Y-110504492D01*
X74495508Y-111707242D01*
X75503803Y-112380963D01*
X75262677Y-112333000D01*
X74737323Y-112333000D01*
X74222065Y-112435492D01*
X73736702Y-112636536D01*
X73299887Y-112928406D01*
X72928406Y-113299887D01*
X72636536Y-113736702D01*
X72435492Y-114222065D01*
X72333000Y-114737323D01*
X72333000Y-115262677D01*
X72435492Y-115777935D01*
X72636536Y-116263298D01*
X72928406Y-116700113D01*
X73299887Y-117071594D01*
X73736702Y-117363464D01*
X74222065Y-117564508D01*
X74737323Y-117667000D01*
X75262677Y-117667000D01*
X75777935Y-117564508D01*
X76263298Y-117363464D01*
X76700113Y-117071594D01*
X77071594Y-116700113D01*
X77363464Y-116263298D01*
X77564508Y-115777935D01*
X77667000Y-115262677D01*
X77667000Y-114737323D01*
X77564508Y-114222065D01*
X77363464Y-113736702D01*
X77071594Y-113299887D01*
X76787505Y-113015798D01*
X77481263Y-113303162D01*
X79149527Y-113635000D01*
X80850473Y-113635000D01*
X82518737Y-113303162D01*
X83212495Y-113015798D01*
X82928406Y-113299887D01*
X82636536Y-113736702D01*
X82435492Y-114222065D01*
X82333000Y-114737323D01*
X82333000Y-115262677D01*
X82435492Y-115777935D01*
X82636536Y-116263298D01*
X82928406Y-116700113D01*
X83299887Y-117071594D01*
X83736702Y-117363464D01*
X84222065Y-117564508D01*
X84737323Y-117667000D01*
X85262677Y-117667000D01*
X85777935Y-117564508D01*
X86263298Y-117363464D01*
X86700113Y-117071594D01*
X87071594Y-116700113D01*
X87363464Y-116263298D01*
X87564508Y-115777935D01*
X87667000Y-115262677D01*
X87667000Y-114737323D01*
X87564508Y-114222065D01*
X87363464Y-113736702D01*
X87071594Y-113299887D01*
X86700113Y-112928406D01*
X86263298Y-112636536D01*
X85777935Y-112435492D01*
X85262677Y-112333000D01*
X84737323Y-112333000D01*
X84496197Y-112380963D01*
X85504492Y-111707242D01*
X86707242Y-110504492D01*
X87652238Y-109090206D01*
X88303162Y-107518737D01*
X88635000Y-105850473D01*
X88635000Y-104149527D01*
X88303162Y-102481263D01*
X87652238Y-100909794D01*
X86707242Y-99495508D01*
X85504492Y-98292758D01*
X84090206Y-97347762D01*
X82518737Y-96696838D01*
X80850473Y-96365000D01*
X80676476Y-96365000D01*
X80909014Y-96240706D01*
X81135134Y-96055134D01*
X81320706Y-95829014D01*
X81350000Y-95774209D01*
X81379294Y-95829014D01*
X81564866Y-96055134D01*
X81790986Y-96240706D01*
X82048966Y-96378599D01*
X82328889Y-96463513D01*
X82547050Y-96485000D01*
X82692950Y-96485000D01*
X82911111Y-96463513D01*
X83191034Y-96378599D01*
X83449014Y-96240706D01*
X83675134Y-96055134D01*
X83860706Y-95829014D01*
X83890000Y-95774209D01*
X83919294Y-95829014D01*
X84104866Y-96055134D01*
X84330986Y-96240706D01*
X84588966Y-96378599D01*
X84868889Y-96463513D01*
X85087050Y-96485000D01*
X85232950Y-96485000D01*
X85451111Y-96463513D01*
X85731034Y-96378599D01*
X85989014Y-96240706D01*
X86215134Y-96055134D01*
X86400706Y-95829014D01*
X86538599Y-95571034D01*
X86623513Y-95291111D01*
X86652185Y-95000000D01*
X86623513Y-94708889D01*
X86538599Y-94428966D01*
X86400706Y-94170986D01*
X86215134Y-93944866D01*
X85989014Y-93759294D01*
X85731034Y-93621401D01*
X85451111Y-93536487D01*
X85232950Y-93515000D01*
X85087050Y-93515000D01*
X84868889Y-93536487D01*
X84588966Y-93621401D01*
X84330986Y-93759294D01*
X84104866Y-93944866D01*
X83919294Y-94170986D01*
X83890000Y-94225791D01*
X83860706Y-94170986D01*
X83675134Y-93944866D01*
X83449014Y-93759294D01*
X83380000Y-93722405D01*
X83380000Y-91462717D01*
X83496014Y-91400706D01*
X83722134Y-91215134D01*
X83907706Y-90989014D01*
X84045599Y-90731034D01*
X84130513Y-90451111D01*
X84159185Y-90160000D01*
X84130513Y-89868889D01*
X84045599Y-89588966D01*
X83907706Y-89330986D01*
X83722134Y-89104866D01*
X83496014Y-88919294D01*
X83296913Y-88812872D01*
X83510588Y-88620269D01*
X83684641Y-88386920D01*
X83809825Y-88124099D01*
X83854476Y-87976890D01*
X83733155Y-87747000D01*
X82540000Y-87747000D01*
X82540000Y-87767000D01*
X82286000Y-87767000D01*
X82286000Y-87747000D01*
X80000000Y-87747000D01*
X80000000Y-87767000D01*
X79746000Y-87767000D01*
X79746000Y-87747000D01*
X78552845Y-87747000D01*
X78431524Y-87976890D01*
X78476175Y-88124099D01*
X78601359Y-88386920D01*
X78775412Y-88620269D01*
X78991645Y-88815178D01*
X79241748Y-88964157D01*
X79242846Y-88964546D01*
X79071866Y-89104866D01*
X79014494Y-89174774D01*
X77460000Y-87620280D01*
X77460000Y-87263110D01*
X78431524Y-87263110D01*
X78552845Y-87493000D01*
X79746000Y-87493000D01*
X79746000Y-87473000D01*
X80000000Y-87473000D01*
X80000000Y-87493000D01*
X82286000Y-87493000D01*
X82286000Y-87473000D01*
X82540000Y-87473000D01*
X82540000Y-87493000D01*
X83733155Y-87493000D01*
X83854476Y-87263110D01*
X83809825Y-87115901D01*
X83684641Y-86853080D01*
X83510588Y-86619731D01*
X83294926Y-86425337D01*
X83298252Y-86424157D01*
X83548355Y-86275178D01*
X83764588Y-86080269D01*
X83938641Y-85846920D01*
X84063825Y-85584099D01*
X84108476Y-85436890D01*
X83987155Y-85207000D01*
X82794000Y-85207000D01*
X82794000Y-85227000D01*
X82540000Y-85227000D01*
X82540000Y-85207000D01*
X80254000Y-85207000D01*
X80254000Y-85227000D01*
X80000000Y-85227000D01*
X80000000Y-85207000D01*
X78806845Y-85207000D01*
X78685524Y-85436890D01*
X78730175Y-85584099D01*
X78855359Y-85846920D01*
X79029412Y-86080269D01*
X79245074Y-86274663D01*
X79241748Y-86275843D01*
X78991645Y-86424822D01*
X78775412Y-86619731D01*
X78601359Y-86853080D01*
X78476175Y-87115901D01*
X78431524Y-87263110D01*
X77460000Y-87263110D01*
X77460000Y-82896890D01*
X78431524Y-82896890D01*
X78476175Y-83044099D01*
X78601359Y-83306920D01*
X78775412Y-83540269D01*
X78991645Y-83735178D01*
X79241748Y-83884157D01*
X79245074Y-83885337D01*
X79029412Y-84079731D01*
X78855359Y-84313080D01*
X78730175Y-84575901D01*
X78685524Y-84723110D01*
X78806845Y-84953000D01*
X80000000Y-84953000D01*
X80000000Y-84933000D01*
X80254000Y-84933000D01*
X80254000Y-84953000D01*
X82540000Y-84953000D01*
X82540000Y-84933000D01*
X82794000Y-84933000D01*
X82794000Y-84953000D01*
X83987155Y-84953000D01*
X84108476Y-84723110D01*
X84063825Y-84575901D01*
X83938641Y-84313080D01*
X83764588Y-84079731D01*
X83548355Y-83884822D01*
X83298252Y-83735843D01*
X83294926Y-83734663D01*
X83510588Y-83540269D01*
X83684641Y-83306920D01*
X83809825Y-83044099D01*
X83854476Y-82896890D01*
X83733155Y-82667000D01*
X82540000Y-82667000D01*
X82540000Y-82687000D01*
X82286000Y-82687000D01*
X82286000Y-82667000D01*
X80000000Y-82667000D01*
X80000000Y-82687000D01*
X79746000Y-82687000D01*
X79746000Y-82667000D01*
X78552845Y-82667000D01*
X78431524Y-82896890D01*
X77460000Y-82896890D01*
X77460000Y-82183110D01*
X78431524Y-82183110D01*
X78552845Y-82413000D01*
X79746000Y-82413000D01*
X79746000Y-82393000D01*
X80000000Y-82393000D01*
X80000000Y-82413000D01*
X82286000Y-82413000D01*
X82286000Y-82393000D01*
X82540000Y-82393000D01*
X82540000Y-82413000D01*
X83733155Y-82413000D01*
X83854476Y-82183110D01*
X83809825Y-82035901D01*
X83684641Y-81773080D01*
X83510588Y-81539731D01*
X83296913Y-81347128D01*
X83496014Y-81240706D01*
X83722134Y-81055134D01*
X83907706Y-80829014D01*
X84045599Y-80571034D01*
X84130513Y-80291111D01*
X84159185Y-80000000D01*
X84130513Y-79708889D01*
X84045599Y-79428966D01*
X83907706Y-79170986D01*
X83722134Y-78944866D01*
X83496014Y-78759294D01*
X83238034Y-78621401D01*
X82958111Y-78536487D01*
X82739950Y-78515000D01*
X82594050Y-78515000D01*
X82375889Y-78536487D01*
X82095966Y-78621401D01*
X81837986Y-78759294D01*
X81611866Y-78944866D01*
X81587393Y-78974687D01*
X81566502Y-78905820D01*
X81507537Y-78795506D01*
X81428185Y-78698815D01*
X81331494Y-78619463D01*
X81221180Y-78560498D01*
X81101482Y-78524188D01*
X80977000Y-78511928D01*
X79277000Y-78511928D01*
X79152518Y-78524188D01*
X79032820Y-78560498D01*
X78922506Y-78619463D01*
X78825815Y-78698815D01*
X78746463Y-78795506D01*
X78687498Y-78905820D01*
X78651188Y-79025518D01*
X78638928Y-79150000D01*
X78638928Y-80850000D01*
X78651188Y-80974482D01*
X78687498Y-81094180D01*
X78746463Y-81204494D01*
X78825815Y-81301185D01*
X78922506Y-81380537D01*
X78941035Y-81390441D01*
X78775412Y-81539731D01*
X78601359Y-81773080D01*
X78476175Y-82035901D01*
X78431524Y-82183110D01*
X77460000Y-82183110D01*
X77460000Y-73901801D01*
X79761005Y-71600797D01*
X79835889Y-71623513D01*
X80054050Y-71645000D01*
X80199950Y-71645000D01*
X80418111Y-71623513D01*
X80698034Y-71538599D01*
X80956014Y-71400706D01*
X81182134Y-71215134D01*
X81367706Y-70989014D01*
X81397000Y-70934209D01*
X81426294Y-70989014D01*
X81611866Y-71215134D01*
X81837986Y-71400706D01*
X82095966Y-71538599D01*
X82375889Y-71623513D01*
X82594050Y-71645000D01*
X82739950Y-71645000D01*
X82958111Y-71623513D01*
X83238034Y-71538599D01*
X83496014Y-71400706D01*
X83722134Y-71215134D01*
X83907706Y-70989014D01*
X84045599Y-70731034D01*
X84130513Y-70451111D01*
X84159185Y-70160000D01*
X84130513Y-69868889D01*
X84045599Y-69588966D01*
X83907706Y-69330986D01*
X83722134Y-69104866D01*
X83496014Y-68919294D01*
X83296913Y-68812872D01*
X83510588Y-68620269D01*
X83684641Y-68386920D01*
X83809825Y-68124099D01*
X83854476Y-67976890D01*
X83733155Y-67747000D01*
X82540000Y-67747000D01*
X82540000Y-67767000D01*
X82286000Y-67767000D01*
X82286000Y-67747000D01*
X80000000Y-67747000D01*
X80000000Y-67767000D01*
X79746000Y-67767000D01*
X79746000Y-67747000D01*
X78552845Y-67747000D01*
X78431524Y-67976890D01*
X78476175Y-68124099D01*
X78601359Y-68386920D01*
X78775412Y-68620269D01*
X78991645Y-68815178D01*
X79241748Y-68964157D01*
X79242846Y-68964546D01*
X79071866Y-69104866D01*
X78886294Y-69330986D01*
X78748401Y-69588966D01*
X78663487Y-69868889D01*
X78634815Y-70160000D01*
X78663487Y-70451111D01*
X78686203Y-70525995D01*
X76188998Y-73023201D01*
X76160000Y-73046999D01*
X76136202Y-73075997D01*
X76136201Y-73075998D01*
X76065026Y-73162724D01*
X75994454Y-73294754D01*
X75950998Y-73438015D01*
X75936324Y-73587000D01*
X75940001Y-73624332D01*
X75940000Y-87897759D01*
X75936324Y-87935081D01*
X75940000Y-87972403D01*
X75940000Y-87972413D01*
X75950997Y-88084066D01*
X75963141Y-88124099D01*
X75994454Y-88227327D01*
X76065026Y-88359357D01*
X76087647Y-88386920D01*
X76159999Y-88475082D01*
X76189003Y-88498885D01*
X78361119Y-90671002D01*
X78384918Y-90700001D01*
X78413916Y-90723799D01*
X78500643Y-90794974D01*
X78632672Y-90865546D01*
X78775933Y-90909003D01*
X78847284Y-90916030D01*
X78886294Y-90989014D01*
X79071866Y-91215134D01*
X79297986Y-91400706D01*
X79555966Y-91538599D01*
X79835889Y-91623513D01*
X80054050Y-91645000D01*
X80199950Y-91645000D01*
X80418111Y-91623513D01*
X80698034Y-91538599D01*
X80956014Y-91400706D01*
X81182134Y-91215134D01*
X81367706Y-90989014D01*
X81397000Y-90934209D01*
X81426294Y-90989014D01*
X81611866Y-91215134D01*
X81837986Y-91400706D01*
X81860001Y-91412473D01*
X81860000Y-93722405D01*
X81790986Y-93759294D01*
X81564866Y-93944866D01*
X81379294Y-94170986D01*
X81350000Y-94225791D01*
X81320706Y-94170986D01*
X81135134Y-93944866D01*
X80909014Y-93759294D01*
X80651034Y-93621401D01*
X80371111Y-93536487D01*
X80152950Y-93515000D01*
X80007050Y-93515000D01*
X79788889Y-93536487D01*
X79508966Y-93621401D01*
X79250986Y-93759294D01*
X79024866Y-93944866D01*
X78839294Y-94170986D01*
X78804799Y-94235523D01*
X78735178Y-94118645D01*
X78540269Y-93902412D01*
X78306920Y-93728359D01*
X78044099Y-93603175D01*
X77896890Y-93558524D01*
X77667000Y-93679845D01*
X77667000Y-94873000D01*
X77687000Y-94873000D01*
X77687000Y-95127000D01*
X77667000Y-95127000D01*
X77667000Y-96320155D01*
X77896890Y-96441476D01*
X78044099Y-96396825D01*
X78306920Y-96271641D01*
X78540269Y-96097588D01*
X78735178Y-95881355D01*
X78804799Y-95764477D01*
X78839294Y-95829014D01*
X79024866Y-96055134D01*
X79250986Y-96240706D01*
X79483524Y-96365000D01*
X79149527Y-96365000D01*
X77481263Y-96696838D01*
X75909794Y-97347762D01*
X74495508Y-98292758D01*
X73292758Y-99495508D01*
X72347762Y-100909794D01*
X71696838Y-102481263D01*
X71365000Y-104149527D01*
X70660000Y-104149527D01*
X70660000Y-95850000D01*
X73511928Y-95850000D01*
X73524188Y-95974482D01*
X73560498Y-96094180D01*
X73619463Y-96204494D01*
X73698815Y-96301185D01*
X73795506Y-96380537D01*
X73905820Y-96439502D01*
X74025518Y-96475812D01*
X74150000Y-96488072D01*
X74714250Y-96485000D01*
X74873000Y-96326250D01*
X74873000Y-95127000D01*
X75127000Y-95127000D01*
X75127000Y-96326250D01*
X75285750Y-96485000D01*
X75850000Y-96488072D01*
X75974482Y-96475812D01*
X76094180Y-96439502D01*
X76204494Y-96380537D01*
X76301185Y-96301185D01*
X76380537Y-96204494D01*
X76439502Y-96094180D01*
X76463966Y-96013534D01*
X76539731Y-96097588D01*
X76773080Y-96271641D01*
X77035901Y-96396825D01*
X77183110Y-96441476D01*
X77413000Y-96320155D01*
X77413000Y-95127000D01*
X75127000Y-95127000D01*
X74873000Y-95127000D01*
X73673750Y-95127000D01*
X73515000Y-95285750D01*
X73511928Y-95850000D01*
X70660000Y-95850000D01*
X70660000Y-94150000D01*
X73511928Y-94150000D01*
X73515000Y-94714250D01*
X73673750Y-94873000D01*
X74873000Y-94873000D01*
X74873000Y-93673750D01*
X75127000Y-93673750D01*
X75127000Y-94873000D01*
X77413000Y-94873000D01*
X77413000Y-93679845D01*
X77183110Y-93558524D01*
X77035901Y-93603175D01*
X76773080Y-93728359D01*
X76539731Y-93902412D01*
X76463966Y-93986466D01*
X76439502Y-93905820D01*
X76380537Y-93795506D01*
X76301185Y-93698815D01*
X76204494Y-93619463D01*
X76094180Y-93560498D01*
X75974482Y-93524188D01*
X75850000Y-93511928D01*
X75285750Y-93515000D01*
X75127000Y-93673750D01*
X74873000Y-93673750D01*
X74714250Y-93515000D01*
X74150000Y-93511928D01*
X74025518Y-93524188D01*
X73905820Y-93560498D01*
X73795506Y-93619463D01*
X73698815Y-93698815D01*
X73619463Y-93795506D01*
X73560498Y-93905820D01*
X73524188Y-94025518D01*
X73511928Y-94150000D01*
X70660000Y-94150000D01*
X70660000Y-67263110D01*
X78431524Y-67263110D01*
X78552845Y-67493000D01*
X79746000Y-67493000D01*
X79746000Y-67473000D01*
X80000000Y-67473000D01*
X80000000Y-67493000D01*
X82286000Y-67493000D01*
X82286000Y-67473000D01*
X82540000Y-67473000D01*
X82540000Y-67493000D01*
X83733155Y-67493000D01*
X83854476Y-67263110D01*
X83809825Y-67115901D01*
X83684641Y-66853080D01*
X83510588Y-66619731D01*
X83294926Y-66425337D01*
X83298252Y-66424157D01*
X83548355Y-66275178D01*
X83764588Y-66080269D01*
X83938641Y-65846920D01*
X84063825Y-65584099D01*
X84108476Y-65436890D01*
X83987155Y-65207000D01*
X82794000Y-65207000D01*
X82794000Y-65227000D01*
X82540000Y-65227000D01*
X82540000Y-65207000D01*
X80254000Y-65207000D01*
X80254000Y-65227000D01*
X80000000Y-65227000D01*
X80000000Y-65207000D01*
X78806845Y-65207000D01*
X78685524Y-65436890D01*
X78730175Y-65584099D01*
X78855359Y-65846920D01*
X79029412Y-66080269D01*
X79245074Y-66274663D01*
X79241748Y-66275843D01*
X78991645Y-66424822D01*
X78775412Y-66619731D01*
X78601359Y-66853080D01*
X78476175Y-67115901D01*
X78431524Y-67263110D01*
X70660000Y-67263110D01*
X70660000Y-62896890D01*
X78431524Y-62896890D01*
X78476175Y-63044099D01*
X78601359Y-63306920D01*
X78775412Y-63540269D01*
X78991645Y-63735178D01*
X79241748Y-63884157D01*
X79245074Y-63885337D01*
X79029412Y-64079731D01*
X78855359Y-64313080D01*
X78730175Y-64575901D01*
X78685524Y-64723110D01*
X78806845Y-64953000D01*
X80000000Y-64953000D01*
X80000000Y-64933000D01*
X80254000Y-64933000D01*
X80254000Y-64953000D01*
X82540000Y-64953000D01*
X82540000Y-64933000D01*
X82794000Y-64933000D01*
X82794000Y-64953000D01*
X83987155Y-64953000D01*
X84108476Y-64723110D01*
X84063825Y-64575901D01*
X83938641Y-64313080D01*
X83764588Y-64079731D01*
X83548355Y-63884822D01*
X83298252Y-63735843D01*
X83294926Y-63734663D01*
X83510588Y-63540269D01*
X83684641Y-63306920D01*
X83809825Y-63044099D01*
X83854476Y-62896890D01*
X83733155Y-62667000D01*
X82540000Y-62667000D01*
X82540000Y-62687000D01*
X82286000Y-62687000D01*
X82286000Y-62667000D01*
X80000000Y-62667000D01*
X80000000Y-62687000D01*
X79746000Y-62687000D01*
X79746000Y-62667000D01*
X78552845Y-62667000D01*
X78431524Y-62896890D01*
X70660000Y-62896890D01*
X70660000Y-62183110D01*
X78431524Y-62183110D01*
X78552845Y-62413000D01*
X79746000Y-62413000D01*
X79746000Y-62393000D01*
X80000000Y-62393000D01*
X80000000Y-62413000D01*
X82286000Y-62413000D01*
X82286000Y-62393000D01*
X82540000Y-62393000D01*
X82540000Y-62413000D01*
X83733155Y-62413000D01*
X83854476Y-62183110D01*
X83809825Y-62035901D01*
X83684641Y-61773080D01*
X83510588Y-61539731D01*
X83296913Y-61347128D01*
X83496014Y-61240706D01*
X83722134Y-61055134D01*
X83907706Y-60829014D01*
X84045599Y-60571034D01*
X84130513Y-60291111D01*
X84159185Y-60000000D01*
X84130513Y-59708889D01*
X84045599Y-59428966D01*
X83907706Y-59170986D01*
X83722134Y-58944866D01*
X83496014Y-58759294D01*
X83238034Y-58621401D01*
X82958111Y-58536487D01*
X82739950Y-58515000D01*
X82594050Y-58515000D01*
X82375889Y-58536487D01*
X82095966Y-58621401D01*
X81837986Y-58759294D01*
X81611866Y-58944866D01*
X81587393Y-58974687D01*
X81566502Y-58905820D01*
X81507537Y-58795506D01*
X81428185Y-58698815D01*
X81331494Y-58619463D01*
X81221180Y-58560498D01*
X81101482Y-58524188D01*
X80977000Y-58511928D01*
X79277000Y-58511928D01*
X79152518Y-58524188D01*
X79032820Y-58560498D01*
X78922506Y-58619463D01*
X78825815Y-58698815D01*
X78746463Y-58795506D01*
X78687498Y-58905820D01*
X78651188Y-59025518D01*
X78638928Y-59150000D01*
X78638928Y-60850000D01*
X78651188Y-60974482D01*
X78687498Y-61094180D01*
X78746463Y-61204494D01*
X78825815Y-61301185D01*
X78922506Y-61380537D01*
X78941035Y-61390441D01*
X78775412Y-61539731D01*
X78601359Y-61773080D01*
X78476175Y-62035901D01*
X78431524Y-62183110D01*
X70660000Y-62183110D01*
X70660000Y-54737323D01*
X72333000Y-54737323D01*
X72333000Y-55262677D01*
X72435492Y-55777935D01*
X72636536Y-56263298D01*
X72928406Y-56700113D01*
X73299887Y-57071594D01*
X73736702Y-57363464D01*
X74222065Y-57564508D01*
X74737323Y-57667000D01*
X75262677Y-57667000D01*
X75777935Y-57564508D01*
X76263298Y-57363464D01*
X76700113Y-57071594D01*
X77071594Y-56700113D01*
X77363464Y-56263298D01*
X77564508Y-55777935D01*
X77667000Y-55262677D01*
X77667000Y-54737323D01*
X82333000Y-54737323D01*
X82333000Y-55262677D01*
X82435492Y-55777935D01*
X82636536Y-56263298D01*
X82928406Y-56700113D01*
X83299887Y-57071594D01*
X83736702Y-57363464D01*
X84222065Y-57564508D01*
X84737323Y-57667000D01*
X85262677Y-57667000D01*
X85777935Y-57564508D01*
X86263298Y-57363464D01*
X86700113Y-57071594D01*
X87071594Y-56700113D01*
X87363464Y-56263298D01*
X87564508Y-55777935D01*
X87667000Y-55262677D01*
X87667000Y-54737323D01*
X87564508Y-54222065D01*
X87363464Y-53736702D01*
X87071594Y-53299887D01*
X86700113Y-52928406D01*
X86263298Y-52636536D01*
X85777935Y-52435492D01*
X85262677Y-52333000D01*
X84737323Y-52333000D01*
X84222065Y-52435492D01*
X83736702Y-52636536D01*
X83299887Y-52928406D01*
X82928406Y-53299887D01*
X82636536Y-53736702D01*
X82435492Y-54222065D01*
X82333000Y-54737323D01*
X77667000Y-54737323D01*
X77564508Y-54222065D01*
X77363464Y-53736702D01*
X77071594Y-53299887D01*
X76700113Y-52928406D01*
X76263298Y-52636536D01*
X75777935Y-52435492D01*
X75262677Y-52333000D01*
X74737323Y-52333000D01*
X74222065Y-52435492D01*
X73736702Y-52636536D01*
X73299887Y-52928406D01*
X72928406Y-53299887D01*
X72636536Y-53736702D01*
X72435492Y-54222065D01*
X72333000Y-54737323D01*
X70660000Y-54737323D01*
X70660000Y-50660000D01*
X89340001Y-50660000D01*
X89340000Y-119340000D01*
X89340000Y-119340000D01*
G37*
X89340000Y-119340000D02*
X70660000Y-119340000D01*
X70660000Y-104149527D01*
X71365000Y-104149527D01*
X71365000Y-105850473D01*
X71696838Y-107518737D01*
X72347762Y-109090206D01*
X73292758Y-110504492D01*
X74495508Y-111707242D01*
X75503803Y-112380963D01*
X75262677Y-112333000D01*
X74737323Y-112333000D01*
X74222065Y-112435492D01*
X73736702Y-112636536D01*
X73299887Y-112928406D01*
X72928406Y-113299887D01*
X72636536Y-113736702D01*
X72435492Y-114222065D01*
X72333000Y-114737323D01*
X72333000Y-115262677D01*
X72435492Y-115777935D01*
X72636536Y-116263298D01*
X72928406Y-116700113D01*
X73299887Y-117071594D01*
X73736702Y-117363464D01*
X74222065Y-117564508D01*
X74737323Y-117667000D01*
X75262677Y-117667000D01*
X75777935Y-117564508D01*
X76263298Y-117363464D01*
X76700113Y-117071594D01*
X77071594Y-116700113D01*
X77363464Y-116263298D01*
X77564508Y-115777935D01*
X77667000Y-115262677D01*
X77667000Y-114737323D01*
X77564508Y-114222065D01*
X77363464Y-113736702D01*
X77071594Y-113299887D01*
X76787505Y-113015798D01*
X77481263Y-113303162D01*
X79149527Y-113635000D01*
X80850473Y-113635000D01*
X82518737Y-113303162D01*
X83212495Y-113015798D01*
X82928406Y-113299887D01*
X82636536Y-113736702D01*
X82435492Y-114222065D01*
X82333000Y-114737323D01*
X82333000Y-115262677D01*
X82435492Y-115777935D01*
X82636536Y-116263298D01*
X82928406Y-116700113D01*
X83299887Y-117071594D01*
X83736702Y-117363464D01*
X84222065Y-117564508D01*
X84737323Y-117667000D01*
X85262677Y-117667000D01*
X85777935Y-117564508D01*
X86263298Y-117363464D01*
X86700113Y-117071594D01*
X87071594Y-116700113D01*
X87363464Y-116263298D01*
X87564508Y-115777935D01*
X87667000Y-115262677D01*
X87667000Y-114737323D01*
X87564508Y-114222065D01*
X87363464Y-113736702D01*
X87071594Y-113299887D01*
X86700113Y-112928406D01*
X86263298Y-112636536D01*
X85777935Y-112435492D01*
X85262677Y-112333000D01*
X84737323Y-112333000D01*
X84496197Y-112380963D01*
X85504492Y-111707242D01*
X86707242Y-110504492D01*
X87652238Y-109090206D01*
X88303162Y-107518737D01*
X88635000Y-105850473D01*
X88635000Y-104149527D01*
X88303162Y-102481263D01*
X87652238Y-100909794D01*
X86707242Y-99495508D01*
X85504492Y-98292758D01*
X84090206Y-97347762D01*
X82518737Y-96696838D01*
X80850473Y-96365000D01*
X80676476Y-96365000D01*
X80909014Y-96240706D01*
X81135134Y-96055134D01*
X81320706Y-95829014D01*
X81350000Y-95774209D01*
X81379294Y-95829014D01*
X81564866Y-96055134D01*
X81790986Y-96240706D01*
X82048966Y-96378599D01*
X82328889Y-96463513D01*
X82547050Y-96485000D01*
X82692950Y-96485000D01*
X82911111Y-96463513D01*
X83191034Y-96378599D01*
X83449014Y-96240706D01*
X83675134Y-96055134D01*
X83860706Y-95829014D01*
X83890000Y-95774209D01*
X83919294Y-95829014D01*
X84104866Y-96055134D01*
X84330986Y-96240706D01*
X84588966Y-96378599D01*
X84868889Y-96463513D01*
X85087050Y-96485000D01*
X85232950Y-96485000D01*
X85451111Y-96463513D01*
X85731034Y-96378599D01*
X85989014Y-96240706D01*
X86215134Y-96055134D01*
X86400706Y-95829014D01*
X86538599Y-95571034D01*
X86623513Y-95291111D01*
X86652185Y-95000000D01*
X86623513Y-94708889D01*
X86538599Y-94428966D01*
X86400706Y-94170986D01*
X86215134Y-93944866D01*
X85989014Y-93759294D01*
X85731034Y-93621401D01*
X85451111Y-93536487D01*
X85232950Y-93515000D01*
X85087050Y-93515000D01*
X84868889Y-93536487D01*
X84588966Y-93621401D01*
X84330986Y-93759294D01*
X84104866Y-93944866D01*
X83919294Y-94170986D01*
X83890000Y-94225791D01*
X83860706Y-94170986D01*
X83675134Y-93944866D01*
X83449014Y-93759294D01*
X83380000Y-93722405D01*
X83380000Y-91462717D01*
X83496014Y-91400706D01*
X83722134Y-91215134D01*
X83907706Y-90989014D01*
X84045599Y-90731034D01*
X84130513Y-90451111D01*
X84159185Y-90160000D01*
X84130513Y-89868889D01*
X84045599Y-89588966D01*
X83907706Y-89330986D01*
X83722134Y-89104866D01*
X83496014Y-88919294D01*
X83296913Y-88812872D01*
X83510588Y-88620269D01*
X83684641Y-88386920D01*
X83809825Y-88124099D01*
X83854476Y-87976890D01*
X83733155Y-87747000D01*
X82540000Y-87747000D01*
X82540000Y-87767000D01*
X82286000Y-87767000D01*
X82286000Y-87747000D01*
X80000000Y-87747000D01*
X80000000Y-87767000D01*
X79746000Y-87767000D01*
X79746000Y-87747000D01*
X78552845Y-87747000D01*
X78431524Y-87976890D01*
X78476175Y-88124099D01*
X78601359Y-88386920D01*
X78775412Y-88620269D01*
X78991645Y-88815178D01*
X79241748Y-88964157D01*
X79242846Y-88964546D01*
X79071866Y-89104866D01*
X79014494Y-89174774D01*
X77460000Y-87620280D01*
X77460000Y-87263110D01*
X78431524Y-87263110D01*
X78552845Y-87493000D01*
X79746000Y-87493000D01*
X79746000Y-87473000D01*
X80000000Y-87473000D01*
X80000000Y-87493000D01*
X82286000Y-87493000D01*
X82286000Y-87473000D01*
X82540000Y-87473000D01*
X82540000Y-87493000D01*
X83733155Y-87493000D01*
X83854476Y-87263110D01*
X83809825Y-87115901D01*
X83684641Y-86853080D01*
X83510588Y-86619731D01*
X83294926Y-86425337D01*
X83298252Y-86424157D01*
X83548355Y-86275178D01*
X83764588Y-86080269D01*
X83938641Y-85846920D01*
X84063825Y-85584099D01*
X84108476Y-85436890D01*
X83987155Y-85207000D01*
X82794000Y-85207000D01*
X82794000Y-85227000D01*
X82540000Y-85227000D01*
X82540000Y-85207000D01*
X80254000Y-85207000D01*
X80254000Y-85227000D01*
X80000000Y-85227000D01*
X80000000Y-85207000D01*
X78806845Y-85207000D01*
X78685524Y-85436890D01*
X78730175Y-85584099D01*
X78855359Y-85846920D01*
X79029412Y-86080269D01*
X79245074Y-86274663D01*
X79241748Y-86275843D01*
X78991645Y-86424822D01*
X78775412Y-86619731D01*
X78601359Y-86853080D01*
X78476175Y-87115901D01*
X78431524Y-87263110D01*
X77460000Y-87263110D01*
X77460000Y-82896890D01*
X78431524Y-82896890D01*
X78476175Y-83044099D01*
X78601359Y-83306920D01*
X78775412Y-83540269D01*
X78991645Y-83735178D01*
X79241748Y-83884157D01*
X79245074Y-83885337D01*
X79029412Y-84079731D01*
X78855359Y-84313080D01*
X78730175Y-84575901D01*
X78685524Y-84723110D01*
X78806845Y-84953000D01*
X80000000Y-84953000D01*
X80000000Y-84933000D01*
X80254000Y-84933000D01*
X80254000Y-84953000D01*
X82540000Y-84953000D01*
X82540000Y-84933000D01*
X82794000Y-84933000D01*
X82794000Y-84953000D01*
X83987155Y-84953000D01*
X84108476Y-84723110D01*
X84063825Y-84575901D01*
X83938641Y-84313080D01*
X83764588Y-84079731D01*
X83548355Y-83884822D01*
X83298252Y-83735843D01*
X83294926Y-83734663D01*
X83510588Y-83540269D01*
X83684641Y-83306920D01*
X83809825Y-83044099D01*
X83854476Y-82896890D01*
X83733155Y-82667000D01*
X82540000Y-82667000D01*
X82540000Y-82687000D01*
X82286000Y-82687000D01*
X82286000Y-82667000D01*
X80000000Y-82667000D01*
X80000000Y-82687000D01*
X79746000Y-82687000D01*
X79746000Y-82667000D01*
X78552845Y-82667000D01*
X78431524Y-82896890D01*
X77460000Y-82896890D01*
X77460000Y-82183110D01*
X78431524Y-82183110D01*
X78552845Y-82413000D01*
X79746000Y-82413000D01*
X79746000Y-82393000D01*
X80000000Y-82393000D01*
X80000000Y-82413000D01*
X82286000Y-82413000D01*
X82286000Y-82393000D01*
X82540000Y-82393000D01*
X82540000Y-82413000D01*
X83733155Y-82413000D01*
X83854476Y-82183110D01*
X83809825Y-82035901D01*
X83684641Y-81773080D01*
X83510588Y-81539731D01*
X83296913Y-81347128D01*
X83496014Y-81240706D01*
X83722134Y-81055134D01*
X83907706Y-80829014D01*
X84045599Y-80571034D01*
X84130513Y-80291111D01*
X84159185Y-80000000D01*
X84130513Y-79708889D01*
X84045599Y-79428966D01*
X83907706Y-79170986D01*
X83722134Y-78944866D01*
X83496014Y-78759294D01*
X83238034Y-78621401D01*
X82958111Y-78536487D01*
X82739950Y-78515000D01*
X82594050Y-78515000D01*
X82375889Y-78536487D01*
X82095966Y-78621401D01*
X81837986Y-78759294D01*
X81611866Y-78944866D01*
X81587393Y-78974687D01*
X81566502Y-78905820D01*
X81507537Y-78795506D01*
X81428185Y-78698815D01*
X81331494Y-78619463D01*
X81221180Y-78560498D01*
X81101482Y-78524188D01*
X80977000Y-78511928D01*
X79277000Y-78511928D01*
X79152518Y-78524188D01*
X79032820Y-78560498D01*
X78922506Y-78619463D01*
X78825815Y-78698815D01*
X78746463Y-78795506D01*
X78687498Y-78905820D01*
X78651188Y-79025518D01*
X78638928Y-79150000D01*
X78638928Y-80850000D01*
X78651188Y-80974482D01*
X78687498Y-81094180D01*
X78746463Y-81204494D01*
X78825815Y-81301185D01*
X78922506Y-81380537D01*
X78941035Y-81390441D01*
X78775412Y-81539731D01*
X78601359Y-81773080D01*
X78476175Y-82035901D01*
X78431524Y-82183110D01*
X77460000Y-82183110D01*
X77460000Y-73901801D01*
X79761005Y-71600797D01*
X79835889Y-71623513D01*
X80054050Y-71645000D01*
X80199950Y-71645000D01*
X80418111Y-71623513D01*
X80698034Y-71538599D01*
X80956014Y-71400706D01*
X81182134Y-71215134D01*
X81367706Y-70989014D01*
X81397000Y-70934209D01*
X81426294Y-70989014D01*
X81611866Y-71215134D01*
X81837986Y-71400706D01*
X82095966Y-71538599D01*
X82375889Y-71623513D01*
X82594050Y-71645000D01*
X82739950Y-71645000D01*
X82958111Y-71623513D01*
X83238034Y-71538599D01*
X83496014Y-71400706D01*
X83722134Y-71215134D01*
X83907706Y-70989014D01*
X84045599Y-70731034D01*
X84130513Y-70451111D01*
X84159185Y-70160000D01*
X84130513Y-69868889D01*
X84045599Y-69588966D01*
X83907706Y-69330986D01*
X83722134Y-69104866D01*
X83496014Y-68919294D01*
X83296913Y-68812872D01*
X83510588Y-68620269D01*
X83684641Y-68386920D01*
X83809825Y-68124099D01*
X83854476Y-67976890D01*
X83733155Y-67747000D01*
X82540000Y-67747000D01*
X82540000Y-67767000D01*
X82286000Y-67767000D01*
X82286000Y-67747000D01*
X80000000Y-67747000D01*
X80000000Y-67767000D01*
X79746000Y-67767000D01*
X79746000Y-67747000D01*
X78552845Y-67747000D01*
X78431524Y-67976890D01*
X78476175Y-68124099D01*
X78601359Y-68386920D01*
X78775412Y-68620269D01*
X78991645Y-68815178D01*
X79241748Y-68964157D01*
X79242846Y-68964546D01*
X79071866Y-69104866D01*
X78886294Y-69330986D01*
X78748401Y-69588966D01*
X78663487Y-69868889D01*
X78634815Y-70160000D01*
X78663487Y-70451111D01*
X78686203Y-70525995D01*
X76188998Y-73023201D01*
X76160000Y-73046999D01*
X76136202Y-73075997D01*
X76136201Y-73075998D01*
X76065026Y-73162724D01*
X75994454Y-73294754D01*
X75950998Y-73438015D01*
X75936324Y-73587000D01*
X75940001Y-73624332D01*
X75940000Y-87897759D01*
X75936324Y-87935081D01*
X75940000Y-87972403D01*
X75940000Y-87972413D01*
X75950997Y-88084066D01*
X75963141Y-88124099D01*
X75994454Y-88227327D01*
X76065026Y-88359357D01*
X76087647Y-88386920D01*
X76159999Y-88475082D01*
X76189003Y-88498885D01*
X78361119Y-90671002D01*
X78384918Y-90700001D01*
X78413916Y-90723799D01*
X78500643Y-90794974D01*
X78632672Y-90865546D01*
X78775933Y-90909003D01*
X78847284Y-90916030D01*
X78886294Y-90989014D01*
X79071866Y-91215134D01*
X79297986Y-91400706D01*
X79555966Y-91538599D01*
X79835889Y-91623513D01*
X80054050Y-91645000D01*
X80199950Y-91645000D01*
X80418111Y-91623513D01*
X80698034Y-91538599D01*
X80956014Y-91400706D01*
X81182134Y-91215134D01*
X81367706Y-90989014D01*
X81397000Y-90934209D01*
X81426294Y-90989014D01*
X81611866Y-91215134D01*
X81837986Y-91400706D01*
X81860001Y-91412473D01*
X81860000Y-93722405D01*
X81790986Y-93759294D01*
X81564866Y-93944866D01*
X81379294Y-94170986D01*
X81350000Y-94225791D01*
X81320706Y-94170986D01*
X81135134Y-93944866D01*
X80909014Y-93759294D01*
X80651034Y-93621401D01*
X80371111Y-93536487D01*
X80152950Y-93515000D01*
X80007050Y-93515000D01*
X79788889Y-93536487D01*
X79508966Y-93621401D01*
X79250986Y-93759294D01*
X79024866Y-93944866D01*
X78839294Y-94170986D01*
X78804799Y-94235523D01*
X78735178Y-94118645D01*
X78540269Y-93902412D01*
X78306920Y-93728359D01*
X78044099Y-93603175D01*
X77896890Y-93558524D01*
X77667000Y-93679845D01*
X77667000Y-94873000D01*
X77687000Y-94873000D01*
X77687000Y-95127000D01*
X77667000Y-95127000D01*
X77667000Y-96320155D01*
X77896890Y-96441476D01*
X78044099Y-96396825D01*
X78306920Y-96271641D01*
X78540269Y-96097588D01*
X78735178Y-95881355D01*
X78804799Y-95764477D01*
X78839294Y-95829014D01*
X79024866Y-96055134D01*
X79250986Y-96240706D01*
X79483524Y-96365000D01*
X79149527Y-96365000D01*
X77481263Y-96696838D01*
X75909794Y-97347762D01*
X74495508Y-98292758D01*
X73292758Y-99495508D01*
X72347762Y-100909794D01*
X71696838Y-102481263D01*
X71365000Y-104149527D01*
X70660000Y-104149527D01*
X70660000Y-95850000D01*
X73511928Y-95850000D01*
X73524188Y-95974482D01*
X73560498Y-96094180D01*
X73619463Y-96204494D01*
X73698815Y-96301185D01*
X73795506Y-96380537D01*
X73905820Y-96439502D01*
X74025518Y-96475812D01*
X74150000Y-96488072D01*
X74714250Y-96485000D01*
X74873000Y-96326250D01*
X74873000Y-95127000D01*
X75127000Y-95127000D01*
X75127000Y-96326250D01*
X75285750Y-96485000D01*
X75850000Y-96488072D01*
X75974482Y-96475812D01*
X76094180Y-96439502D01*
X76204494Y-96380537D01*
X76301185Y-96301185D01*
X76380537Y-96204494D01*
X76439502Y-96094180D01*
X76463966Y-96013534D01*
X76539731Y-96097588D01*
X76773080Y-96271641D01*
X77035901Y-96396825D01*
X77183110Y-96441476D01*
X77413000Y-96320155D01*
X77413000Y-95127000D01*
X75127000Y-95127000D01*
X74873000Y-95127000D01*
X73673750Y-95127000D01*
X73515000Y-95285750D01*
X73511928Y-95850000D01*
X70660000Y-95850000D01*
X70660000Y-94150000D01*
X73511928Y-94150000D01*
X73515000Y-94714250D01*
X73673750Y-94873000D01*
X74873000Y-94873000D01*
X74873000Y-93673750D01*
X75127000Y-93673750D01*
X75127000Y-94873000D01*
X77413000Y-94873000D01*
X77413000Y-93679845D01*
X77183110Y-93558524D01*
X77035901Y-93603175D01*
X76773080Y-93728359D01*
X76539731Y-93902412D01*
X76463966Y-93986466D01*
X76439502Y-93905820D01*
X76380537Y-93795506D01*
X76301185Y-93698815D01*
X76204494Y-93619463D01*
X76094180Y-93560498D01*
X75974482Y-93524188D01*
X75850000Y-93511928D01*
X75285750Y-93515000D01*
X75127000Y-93673750D01*
X74873000Y-93673750D01*
X74714250Y-93515000D01*
X74150000Y-93511928D01*
X74025518Y-93524188D01*
X73905820Y-93560498D01*
X73795506Y-93619463D01*
X73698815Y-93698815D01*
X73619463Y-93795506D01*
X73560498Y-93905820D01*
X73524188Y-94025518D01*
X73511928Y-94150000D01*
X70660000Y-94150000D01*
X70660000Y-67263110D01*
X78431524Y-67263110D01*
X78552845Y-67493000D01*
X79746000Y-67493000D01*
X79746000Y-67473000D01*
X80000000Y-67473000D01*
X80000000Y-67493000D01*
X82286000Y-67493000D01*
X82286000Y-67473000D01*
X82540000Y-67473000D01*
X82540000Y-67493000D01*
X83733155Y-67493000D01*
X83854476Y-67263110D01*
X83809825Y-67115901D01*
X83684641Y-66853080D01*
X83510588Y-66619731D01*
X83294926Y-66425337D01*
X83298252Y-66424157D01*
X83548355Y-66275178D01*
X83764588Y-66080269D01*
X83938641Y-65846920D01*
X84063825Y-65584099D01*
X84108476Y-65436890D01*
X83987155Y-65207000D01*
X82794000Y-65207000D01*
X82794000Y-65227000D01*
X82540000Y-65227000D01*
X82540000Y-65207000D01*
X80254000Y-65207000D01*
X80254000Y-65227000D01*
X80000000Y-65227000D01*
X80000000Y-65207000D01*
X78806845Y-65207000D01*
X78685524Y-65436890D01*
X78730175Y-65584099D01*
X78855359Y-65846920D01*
X79029412Y-66080269D01*
X79245074Y-66274663D01*
X79241748Y-66275843D01*
X78991645Y-66424822D01*
X78775412Y-66619731D01*
X78601359Y-66853080D01*
X78476175Y-67115901D01*
X78431524Y-67263110D01*
X70660000Y-67263110D01*
X70660000Y-62896890D01*
X78431524Y-62896890D01*
X78476175Y-63044099D01*
X78601359Y-63306920D01*
X78775412Y-63540269D01*
X78991645Y-63735178D01*
X79241748Y-63884157D01*
X79245074Y-63885337D01*
X79029412Y-64079731D01*
X78855359Y-64313080D01*
X78730175Y-64575901D01*
X78685524Y-64723110D01*
X78806845Y-64953000D01*
X80000000Y-64953000D01*
X80000000Y-64933000D01*
X80254000Y-64933000D01*
X80254000Y-64953000D01*
X82540000Y-64953000D01*
X82540000Y-64933000D01*
X82794000Y-64933000D01*
X82794000Y-64953000D01*
X83987155Y-64953000D01*
X84108476Y-64723110D01*
X84063825Y-64575901D01*
X83938641Y-64313080D01*
X83764588Y-64079731D01*
X83548355Y-63884822D01*
X83298252Y-63735843D01*
X83294926Y-63734663D01*
X83510588Y-63540269D01*
X83684641Y-63306920D01*
X83809825Y-63044099D01*
X83854476Y-62896890D01*
X83733155Y-62667000D01*
X82540000Y-62667000D01*
X82540000Y-62687000D01*
X82286000Y-62687000D01*
X82286000Y-62667000D01*
X80000000Y-62667000D01*
X80000000Y-62687000D01*
X79746000Y-62687000D01*
X79746000Y-62667000D01*
X78552845Y-62667000D01*
X78431524Y-62896890D01*
X70660000Y-62896890D01*
X70660000Y-62183110D01*
X78431524Y-62183110D01*
X78552845Y-62413000D01*
X79746000Y-62413000D01*
X79746000Y-62393000D01*
X80000000Y-62393000D01*
X80000000Y-62413000D01*
X82286000Y-62413000D01*
X82286000Y-62393000D01*
X82540000Y-62393000D01*
X82540000Y-62413000D01*
X83733155Y-62413000D01*
X83854476Y-62183110D01*
X83809825Y-62035901D01*
X83684641Y-61773080D01*
X83510588Y-61539731D01*
X83296913Y-61347128D01*
X83496014Y-61240706D01*
X83722134Y-61055134D01*
X83907706Y-60829014D01*
X84045599Y-60571034D01*
X84130513Y-60291111D01*
X84159185Y-60000000D01*
X84130513Y-59708889D01*
X84045599Y-59428966D01*
X83907706Y-59170986D01*
X83722134Y-58944866D01*
X83496014Y-58759294D01*
X83238034Y-58621401D01*
X82958111Y-58536487D01*
X82739950Y-58515000D01*
X82594050Y-58515000D01*
X82375889Y-58536487D01*
X82095966Y-58621401D01*
X81837986Y-58759294D01*
X81611866Y-58944866D01*
X81587393Y-58974687D01*
X81566502Y-58905820D01*
X81507537Y-58795506D01*
X81428185Y-58698815D01*
X81331494Y-58619463D01*
X81221180Y-58560498D01*
X81101482Y-58524188D01*
X80977000Y-58511928D01*
X79277000Y-58511928D01*
X79152518Y-58524188D01*
X79032820Y-58560498D01*
X78922506Y-58619463D01*
X78825815Y-58698815D01*
X78746463Y-58795506D01*
X78687498Y-58905820D01*
X78651188Y-59025518D01*
X78638928Y-59150000D01*
X78638928Y-60850000D01*
X78651188Y-60974482D01*
X78687498Y-61094180D01*
X78746463Y-61204494D01*
X78825815Y-61301185D01*
X78922506Y-61380537D01*
X78941035Y-61390441D01*
X78775412Y-61539731D01*
X78601359Y-61773080D01*
X78476175Y-62035901D01*
X78431524Y-62183110D01*
X70660000Y-62183110D01*
X70660000Y-54737323D01*
X72333000Y-54737323D01*
X72333000Y-55262677D01*
X72435492Y-55777935D01*
X72636536Y-56263298D01*
X72928406Y-56700113D01*
X73299887Y-57071594D01*
X73736702Y-57363464D01*
X74222065Y-57564508D01*
X74737323Y-57667000D01*
X75262677Y-57667000D01*
X75777935Y-57564508D01*
X76263298Y-57363464D01*
X76700113Y-57071594D01*
X77071594Y-56700113D01*
X77363464Y-56263298D01*
X77564508Y-55777935D01*
X77667000Y-55262677D01*
X77667000Y-54737323D01*
X82333000Y-54737323D01*
X82333000Y-55262677D01*
X82435492Y-55777935D01*
X82636536Y-56263298D01*
X82928406Y-56700113D01*
X83299887Y-57071594D01*
X83736702Y-57363464D01*
X84222065Y-57564508D01*
X84737323Y-57667000D01*
X85262677Y-57667000D01*
X85777935Y-57564508D01*
X86263298Y-57363464D01*
X86700113Y-57071594D01*
X87071594Y-56700113D01*
X87363464Y-56263298D01*
X87564508Y-55777935D01*
X87667000Y-55262677D01*
X87667000Y-54737323D01*
X87564508Y-54222065D01*
X87363464Y-53736702D01*
X87071594Y-53299887D01*
X86700113Y-52928406D01*
X86263298Y-52636536D01*
X85777935Y-52435492D01*
X85262677Y-52333000D01*
X84737323Y-52333000D01*
X84222065Y-52435492D01*
X83736702Y-52636536D01*
X83299887Y-52928406D01*
X82928406Y-53299887D01*
X82636536Y-53736702D01*
X82435492Y-54222065D01*
X82333000Y-54737323D01*
X77667000Y-54737323D01*
X77564508Y-54222065D01*
X77363464Y-53736702D01*
X77071594Y-53299887D01*
X76700113Y-52928406D01*
X76263298Y-52636536D01*
X75777935Y-52435492D01*
X75262677Y-52333000D01*
X74737323Y-52333000D01*
X74222065Y-52435492D01*
X73736702Y-52636536D01*
X73299887Y-52928406D01*
X72928406Y-53299887D01*
X72636536Y-53736702D01*
X72435492Y-54222065D01*
X72333000Y-54737323D01*
X70660000Y-54737323D01*
X70660000Y-50660000D01*
X89340001Y-50660000D01*
X89340000Y-119340000D01*
M02*
