G04 #@! TF.GenerationSoftware,KiCad,Pcbnew,(5.1.0)-1*
G04 #@! TF.CreationDate,2019-05-26T13:34:07-04:00*
G04 #@! TF.ProjectId,VCF_Panel,5643465f-5061-46e6-956c-2e6b69636164,rev?*
G04 #@! TF.SameCoordinates,Original*
G04 #@! TF.FileFunction,Legend,Bot*
G04 #@! TF.FilePolarity,Positive*
%FSLAX46Y46*%
G04 Gerber Fmt 4.6, Leading zero omitted, Abs format (unit mm)*
G04 Created by KiCad (PCBNEW (5.1.0)-1) date 2019-05-26 13:34:07*
%MOMM*%
%LPD*%
G04 APERTURE LIST*
%ADD10C,0.250000*%
%ADD11C,0.350000*%
%ADD12C,0.010000*%
%ADD13C,0.120000*%
%ADD14C,0.200000*%
G04 APERTURE END LIST*
D10*
X55000000Y-87500000D02*
X50000000Y-87500000D01*
X55000000Y-76750000D02*
X55000000Y-87500000D01*
X52500000Y-76750000D02*
X55000000Y-76750000D01*
X67500000Y-91750000D02*
X70000000Y-91750000D01*
X67500000Y-90000000D02*
X67500000Y-91750000D01*
X67500000Y-76750000D02*
X67500000Y-85000000D01*
X70000000Y-76750000D02*
X67500000Y-76750000D01*
X69157142Y-154178571D02*
X69157142Y-155250000D01*
X69228571Y-155464285D01*
X69371428Y-155607142D01*
X69585714Y-155678571D01*
X69728571Y-155678571D01*
X68157142Y-154178571D02*
X67871428Y-154178571D01*
X67728571Y-154250000D01*
X67585714Y-154392857D01*
X67514285Y-154678571D01*
X67514285Y-155178571D01*
X67585714Y-155464285D01*
X67728571Y-155607142D01*
X67871428Y-155678571D01*
X68157142Y-155678571D01*
X68300000Y-155607142D01*
X68442857Y-155464285D01*
X68514285Y-155178571D01*
X68514285Y-154678571D01*
X68442857Y-154392857D01*
X68300000Y-154250000D01*
X68157142Y-154178571D01*
X66871428Y-155678571D02*
X66871428Y-154178571D01*
X66014285Y-155678571D01*
X66014285Y-154178571D01*
X65371428Y-155250000D02*
X64657142Y-155250000D01*
X65514285Y-155678571D02*
X65014285Y-154178571D01*
X64514285Y-155678571D01*
X64228571Y-154178571D02*
X63371428Y-154178571D01*
X63800000Y-155678571D02*
X63800000Y-154178571D01*
X62871428Y-155678571D02*
X62871428Y-154178571D01*
X62871428Y-154892857D02*
X62014285Y-154892857D01*
X62014285Y-155678571D02*
X62014285Y-154178571D01*
X61371428Y-155250000D02*
X60657142Y-155250000D01*
X61514285Y-155678571D02*
X61014285Y-154178571D01*
X60514285Y-155678571D01*
X60014285Y-155678571D02*
X60014285Y-154178571D01*
X59157142Y-155678571D01*
X59157142Y-154178571D01*
X57300000Y-155678571D02*
X57300000Y-154178571D01*
X56442857Y-155678571D02*
X57085714Y-154821428D01*
X56442857Y-154178571D02*
X57300000Y-155035714D01*
X55871428Y-155250000D02*
X55157142Y-155250000D01*
X56014285Y-155678571D02*
X55514285Y-154178571D01*
X55014285Y-155678571D01*
X54228571Y-154964285D02*
X54228571Y-155678571D01*
X54728571Y-154178571D02*
X54228571Y-154964285D01*
X53728571Y-154178571D01*
X53228571Y-155678571D02*
X53228571Y-154178571D01*
X52371428Y-155678571D01*
X52371428Y-154178571D01*
X51657142Y-154892857D02*
X51157142Y-154892857D01*
X50942857Y-155678571D02*
X51657142Y-155678571D01*
X51657142Y-154178571D01*
X50942857Y-154178571D01*
D11*
X84657142Y-38432142D02*
X83657142Y-41432142D01*
X82657142Y-38432142D01*
X81085714Y-38432142D02*
X80514285Y-38432142D01*
X80228571Y-38575000D01*
X79942857Y-38860714D01*
X79800000Y-39432142D01*
X79800000Y-40432142D01*
X79942857Y-41003571D01*
X80228571Y-41289285D01*
X80514285Y-41432142D01*
X81085714Y-41432142D01*
X81371428Y-41289285D01*
X81657142Y-41003571D01*
X81800000Y-40432142D01*
X81800000Y-39432142D01*
X81657142Y-38860714D01*
X81371428Y-38575000D01*
X81085714Y-38432142D01*
X77085714Y-41432142D02*
X78514285Y-41432142D01*
X78514285Y-38432142D01*
X76514285Y-38432142D02*
X74800000Y-38432142D01*
X75657142Y-41432142D02*
X75657142Y-38432142D01*
X73942857Y-40575000D02*
X72514285Y-40575000D01*
X74228571Y-41432142D02*
X73228571Y-38432142D01*
X72228571Y-41432142D01*
X69657142Y-38575000D02*
X69942857Y-38432142D01*
X70371428Y-38432142D01*
X70800000Y-38575000D01*
X71085714Y-38860714D01*
X71228571Y-39146428D01*
X71371428Y-39717857D01*
X71371428Y-40146428D01*
X71228571Y-40717857D01*
X71085714Y-41003571D01*
X70800000Y-41289285D01*
X70371428Y-41432142D01*
X70085714Y-41432142D01*
X69657142Y-41289285D01*
X69514285Y-41146428D01*
X69514285Y-40146428D01*
X70085714Y-40146428D01*
X68228571Y-39860714D02*
X67228571Y-39860714D01*
X66800000Y-41432142D02*
X68228571Y-41432142D01*
X68228571Y-38432142D01*
X66800000Y-38432142D01*
X61514285Y-41146428D02*
X61657142Y-41289285D01*
X62085714Y-41432142D01*
X62371428Y-41432142D01*
X62800000Y-41289285D01*
X63085714Y-41003571D01*
X63228571Y-40717857D01*
X63371428Y-40146428D01*
X63371428Y-39717857D01*
X63228571Y-39146428D01*
X63085714Y-38860714D01*
X62800000Y-38575000D01*
X62371428Y-38432142D01*
X62085714Y-38432142D01*
X61657142Y-38575000D01*
X61514285Y-38717857D01*
X59657142Y-38432142D02*
X59085714Y-38432142D01*
X58800000Y-38575000D01*
X58514285Y-38860714D01*
X58371428Y-39432142D01*
X58371428Y-40432142D01*
X58514285Y-41003571D01*
X58800000Y-41289285D01*
X59085714Y-41432142D01*
X59657142Y-41432142D01*
X59942857Y-41289285D01*
X60228571Y-41003571D01*
X60371428Y-40432142D01*
X60371428Y-39432142D01*
X60228571Y-38860714D01*
X59942857Y-38575000D01*
X59657142Y-38432142D01*
X57085714Y-41432142D02*
X57085714Y-38432142D01*
X55371428Y-41432142D01*
X55371428Y-38432142D01*
X54371428Y-38432142D02*
X52657142Y-38432142D01*
X53514285Y-41432142D02*
X53514285Y-38432142D01*
X49942857Y-41432142D02*
X50942857Y-40003571D01*
X51657142Y-41432142D02*
X51657142Y-38432142D01*
X50514285Y-38432142D01*
X50228571Y-38575000D01*
X50085714Y-38717857D01*
X49942857Y-39003571D01*
X49942857Y-39432142D01*
X50085714Y-39717857D01*
X50228571Y-39860714D01*
X50514285Y-40003571D01*
X51657142Y-40003571D01*
X48085714Y-38432142D02*
X47514285Y-38432142D01*
X47228571Y-38575000D01*
X46942857Y-38860714D01*
X46800000Y-39432142D01*
X46800000Y-40432142D01*
X46942857Y-41003571D01*
X47228571Y-41289285D01*
X47514285Y-41432142D01*
X48085714Y-41432142D01*
X48371428Y-41289285D01*
X48657142Y-41003571D01*
X48800000Y-40432142D01*
X48800000Y-39432142D01*
X48657142Y-38860714D01*
X48371428Y-38575000D01*
X48085714Y-38432142D01*
X44085714Y-41432142D02*
X45514285Y-41432142D01*
X45514285Y-38432142D01*
X41657142Y-41432142D02*
X43085714Y-41432142D01*
X43085714Y-38432142D01*
X40657142Y-39860714D02*
X39657142Y-39860714D01*
X39228571Y-41432142D02*
X40657142Y-41432142D01*
X40657142Y-38432142D01*
X39228571Y-38432142D01*
X37942857Y-41432142D02*
X37942857Y-38432142D01*
X37228571Y-38432142D01*
X36800000Y-38575000D01*
X36514285Y-38860714D01*
X36371428Y-39146428D01*
X36228571Y-39717857D01*
X36228571Y-40146428D01*
X36371428Y-40717857D01*
X36514285Y-41003571D01*
X36800000Y-41289285D01*
X37228571Y-41432142D01*
X37942857Y-41432142D01*
X77800000Y-46282142D02*
X79228571Y-46282142D01*
X79228571Y-43282142D01*
X76228571Y-43282142D02*
X75657142Y-43282142D01*
X75371428Y-43425000D01*
X75085714Y-43710714D01*
X74942857Y-44282142D01*
X74942857Y-45282142D01*
X75085714Y-45853571D01*
X75371428Y-46139285D01*
X75657142Y-46282142D01*
X76228571Y-46282142D01*
X76514285Y-46139285D01*
X76800000Y-45853571D01*
X76942857Y-45282142D01*
X76942857Y-44282142D01*
X76800000Y-43710714D01*
X76514285Y-43425000D01*
X76228571Y-43282142D01*
X73942857Y-43282142D02*
X73228571Y-46282142D01*
X72657142Y-44139285D01*
X72085714Y-46282142D01*
X71371428Y-43282142D01*
X67942857Y-46282142D02*
X67942857Y-43282142D01*
X66800000Y-43282142D01*
X66514285Y-43425000D01*
X66371428Y-43567857D01*
X66228571Y-43853571D01*
X66228571Y-44282142D01*
X66371428Y-44567857D01*
X66514285Y-44710714D01*
X66800000Y-44853571D01*
X67942857Y-44853571D01*
X65085714Y-45425000D02*
X63657142Y-45425000D01*
X65371428Y-46282142D02*
X64371428Y-43282142D01*
X63371428Y-46282142D01*
X62514285Y-46139285D02*
X62085714Y-46282142D01*
X61371428Y-46282142D01*
X61085714Y-46139285D01*
X60942857Y-45996428D01*
X60800000Y-45710714D01*
X60800000Y-45425000D01*
X60942857Y-45139285D01*
X61085714Y-44996428D01*
X61371428Y-44853571D01*
X61942857Y-44710714D01*
X62228571Y-44567857D01*
X62371428Y-44425000D01*
X62514285Y-44139285D01*
X62514285Y-43853571D01*
X62371428Y-43567857D01*
X62228571Y-43425000D01*
X61942857Y-43282142D01*
X61228571Y-43282142D01*
X60800000Y-43425000D01*
X59657142Y-46139285D02*
X59228571Y-46282142D01*
X58514285Y-46282142D01*
X58228571Y-46139285D01*
X58085714Y-45996428D01*
X57942857Y-45710714D01*
X57942857Y-45425000D01*
X58085714Y-45139285D01*
X58228571Y-44996428D01*
X58514285Y-44853571D01*
X59085714Y-44710714D01*
X59371428Y-44567857D01*
X59514285Y-44425000D01*
X59657142Y-44139285D01*
X59657142Y-43853571D01*
X59514285Y-43567857D01*
X59371428Y-43425000D01*
X59085714Y-43282142D01*
X58371428Y-43282142D01*
X57942857Y-43425000D01*
X53371428Y-44710714D02*
X54371428Y-44710714D01*
X54371428Y-46282142D02*
X54371428Y-43282142D01*
X52942857Y-43282142D01*
X51800000Y-46282142D02*
X51800000Y-43282142D01*
X48942857Y-46282142D02*
X50371428Y-46282142D01*
X50371428Y-43282142D01*
X48371428Y-43282142D02*
X46657142Y-43282142D01*
X47514285Y-46282142D02*
X47514285Y-43282142D01*
X45657142Y-44710714D02*
X44657142Y-44710714D01*
X44228571Y-46282142D02*
X45657142Y-46282142D01*
X45657142Y-43282142D01*
X44228571Y-43282142D01*
X41228571Y-46282142D02*
X42228571Y-44853571D01*
X42942857Y-46282142D02*
X42942857Y-43282142D01*
X41800000Y-43282142D01*
X41514285Y-43425000D01*
X41371428Y-43567857D01*
X41228571Y-43853571D01*
X41228571Y-44282142D01*
X41371428Y-44567857D01*
X41514285Y-44710714D01*
X41800000Y-44853571D01*
X42942857Y-44853571D01*
D10*
X42723809Y-112179761D02*
X42057142Y-114179761D01*
X41390476Y-112179761D01*
X39580952Y-113989285D02*
X39676190Y-114084523D01*
X39961904Y-114179761D01*
X40152380Y-114179761D01*
X40438095Y-114084523D01*
X40628571Y-113894047D01*
X40723809Y-113703571D01*
X40819047Y-113322619D01*
X40819047Y-113036904D01*
X40723809Y-112655952D01*
X40628571Y-112465476D01*
X40438095Y-112275000D01*
X40152380Y-112179761D01*
X39961904Y-112179761D01*
X39676190Y-112275000D01*
X39580952Y-112370238D01*
X38057142Y-113132142D02*
X38723809Y-113132142D01*
X38723809Y-114179761D02*
X38723809Y-112179761D01*
X37771428Y-112179761D01*
X45009523Y-115429761D02*
X44628571Y-115429761D01*
X44438095Y-115525000D01*
X44247619Y-115715476D01*
X44152380Y-116096428D01*
X44152380Y-116763095D01*
X44247619Y-117144047D01*
X44438095Y-117334523D01*
X44628571Y-117429761D01*
X45009523Y-117429761D01*
X45200000Y-117334523D01*
X45390476Y-117144047D01*
X45485714Y-116763095D01*
X45485714Y-116096428D01*
X45390476Y-115715476D01*
X45200000Y-115525000D01*
X45009523Y-115429761D01*
X43295238Y-115429761D02*
X43295238Y-117048809D01*
X43200000Y-117239285D01*
X43104761Y-117334523D01*
X42914285Y-117429761D01*
X42533333Y-117429761D01*
X42342857Y-117334523D01*
X42247619Y-117239285D01*
X42152380Y-117048809D01*
X42152380Y-115429761D01*
X41485714Y-115429761D02*
X40342857Y-115429761D01*
X40914285Y-117429761D02*
X40914285Y-115429761D01*
X39676190Y-117429761D02*
X39676190Y-115429761D01*
X38914285Y-115429761D01*
X38723809Y-115525000D01*
X38628571Y-115620238D01*
X38533333Y-115810714D01*
X38533333Y-116096428D01*
X38628571Y-116286904D01*
X38723809Y-116382142D01*
X38914285Y-116477380D01*
X39676190Y-116477380D01*
X37676190Y-115429761D02*
X37676190Y-117048809D01*
X37580952Y-117239285D01*
X37485714Y-117334523D01*
X37295238Y-117429761D01*
X36914285Y-117429761D01*
X36723809Y-117334523D01*
X36628571Y-117239285D01*
X36533333Y-117048809D01*
X36533333Y-115429761D01*
X35866666Y-115429761D02*
X34723809Y-115429761D01*
X35295238Y-117429761D02*
X35295238Y-115429761D01*
X82623809Y-112379761D02*
X81957142Y-114379761D01*
X81290476Y-112379761D01*
X79480952Y-114189285D02*
X79576190Y-114284523D01*
X79861904Y-114379761D01*
X80052380Y-114379761D01*
X80338095Y-114284523D01*
X80528571Y-114094047D01*
X80623809Y-113903571D01*
X80719047Y-113522619D01*
X80719047Y-113236904D01*
X80623809Y-112855952D01*
X80528571Y-112665476D01*
X80338095Y-112475000D01*
X80052380Y-112379761D01*
X79861904Y-112379761D01*
X79576190Y-112475000D01*
X79480952Y-112570238D01*
X77957142Y-113332142D02*
X78623809Y-113332142D01*
X78623809Y-114379761D02*
X78623809Y-112379761D01*
X77671428Y-112379761D01*
X83957142Y-117629761D02*
X83957142Y-115629761D01*
X83004761Y-117629761D02*
X83004761Y-115629761D01*
X81861904Y-117629761D01*
X81861904Y-115629761D01*
X80909523Y-117629761D02*
X80909523Y-115629761D01*
X80147619Y-115629761D01*
X79957142Y-115725000D01*
X79861904Y-115820238D01*
X79766666Y-116010714D01*
X79766666Y-116296428D01*
X79861904Y-116486904D01*
X79957142Y-116582142D01*
X80147619Y-116677380D01*
X80909523Y-116677380D01*
X78909523Y-115629761D02*
X78909523Y-117248809D01*
X78814285Y-117439285D01*
X78719047Y-117534523D01*
X78528571Y-117629761D01*
X78147619Y-117629761D01*
X77957142Y-117534523D01*
X77861904Y-117439285D01*
X77766666Y-117248809D01*
X77766666Y-115629761D01*
X77100000Y-115629761D02*
X75957142Y-115629761D01*
X76528571Y-117629761D02*
X76528571Y-115629761D01*
X47892857Y-88404761D02*
X48559523Y-87452380D01*
X49035714Y-88404761D02*
X49035714Y-86404761D01*
X48273809Y-86404761D01*
X48083333Y-86500000D01*
X47988095Y-86595238D01*
X47892857Y-86785714D01*
X47892857Y-87071428D01*
X47988095Y-87261904D01*
X48083333Y-87357142D01*
X48273809Y-87452380D01*
X49035714Y-87452380D01*
X47035714Y-87357142D02*
X46369047Y-87357142D01*
X46083333Y-88404761D02*
X47035714Y-88404761D01*
X47035714Y-86404761D01*
X46083333Y-86404761D01*
X45321428Y-88309523D02*
X45035714Y-88404761D01*
X44559523Y-88404761D01*
X44369047Y-88309523D01*
X44273809Y-88214285D01*
X44178571Y-88023809D01*
X44178571Y-87833333D01*
X44273809Y-87642857D01*
X44369047Y-87547619D01*
X44559523Y-87452380D01*
X44940476Y-87357142D01*
X45130952Y-87261904D01*
X45226190Y-87166666D01*
X45321428Y-86976190D01*
X45321428Y-86785714D01*
X45226190Y-86595238D01*
X45130952Y-86500000D01*
X44940476Y-86404761D01*
X44464285Y-86404761D01*
X44178571Y-86500000D01*
X42940476Y-86404761D02*
X42559523Y-86404761D01*
X42369047Y-86500000D01*
X42178571Y-86690476D01*
X42083333Y-87071428D01*
X42083333Y-87738095D01*
X42178571Y-88119047D01*
X42369047Y-88309523D01*
X42559523Y-88404761D01*
X42940476Y-88404761D01*
X43130952Y-88309523D01*
X43321428Y-88119047D01*
X43416666Y-87738095D01*
X43416666Y-87071428D01*
X43321428Y-86690476D01*
X43130952Y-86500000D01*
X42940476Y-86404761D01*
X41226190Y-88404761D02*
X41226190Y-86404761D01*
X40083333Y-88404761D01*
X40083333Y-86404761D01*
X39226190Y-87833333D02*
X38273809Y-87833333D01*
X39416666Y-88404761D02*
X38750000Y-86404761D01*
X38083333Y-88404761D01*
X37416666Y-88404761D02*
X37416666Y-86404761D01*
X36273809Y-88404761D01*
X36273809Y-86404761D01*
X34178571Y-88214285D02*
X34273809Y-88309523D01*
X34559523Y-88404761D01*
X34750000Y-88404761D01*
X35035714Y-88309523D01*
X35226190Y-88119047D01*
X35321428Y-87928571D01*
X35416666Y-87547619D01*
X35416666Y-87261904D01*
X35321428Y-86880952D01*
X35226190Y-86690476D01*
X35035714Y-86500000D01*
X34750000Y-86404761D01*
X34559523Y-86404761D01*
X34273809Y-86500000D01*
X34178571Y-86595238D01*
X33321428Y-87357142D02*
X32654761Y-87357142D01*
X32369047Y-88404761D02*
X33321428Y-88404761D01*
X33321428Y-86404761D01*
X32369047Y-86404761D01*
X71452380Y-88214285D02*
X71547619Y-88309523D01*
X71833333Y-88404761D01*
X72023809Y-88404761D01*
X72309523Y-88309523D01*
X72500000Y-88119047D01*
X72595238Y-87928571D01*
X72690476Y-87547619D01*
X72690476Y-87261904D01*
X72595238Y-86880952D01*
X72500000Y-86690476D01*
X72309523Y-86500000D01*
X72023809Y-86404761D01*
X71833333Y-86404761D01*
X71547619Y-86500000D01*
X71452380Y-86595238D01*
X70595238Y-86404761D02*
X70595238Y-88023809D01*
X70500000Y-88214285D01*
X70404761Y-88309523D01*
X70214285Y-88404761D01*
X69833333Y-88404761D01*
X69642857Y-88309523D01*
X69547619Y-88214285D01*
X69452380Y-88023809D01*
X69452380Y-86404761D01*
X68785714Y-86404761D02*
X67642857Y-86404761D01*
X68214285Y-88404761D02*
X68214285Y-86404761D01*
X66595238Y-86404761D02*
X66214285Y-86404761D01*
X66023809Y-86500000D01*
X65833333Y-86690476D01*
X65738095Y-87071428D01*
X65738095Y-87738095D01*
X65833333Y-88119047D01*
X66023809Y-88309523D01*
X66214285Y-88404761D01*
X66595238Y-88404761D01*
X66785714Y-88309523D01*
X66976190Y-88119047D01*
X67071428Y-87738095D01*
X67071428Y-87071428D01*
X66976190Y-86690476D01*
X66785714Y-86500000D01*
X66595238Y-86404761D01*
X64214285Y-87357142D02*
X64880952Y-87357142D01*
X64880952Y-88404761D02*
X64880952Y-86404761D01*
X63928571Y-86404761D01*
X62500000Y-87357142D02*
X63166666Y-87357142D01*
X63166666Y-88404761D02*
X63166666Y-86404761D01*
X62214285Y-86404761D01*
D12*
G36*
X65872924Y-141113308D02*
G01*
X65761978Y-141173180D01*
X65638494Y-141266634D01*
X65508945Y-141388487D01*
X65379805Y-141533558D01*
X65322561Y-141606341D01*
X65254528Y-141699654D01*
X65188610Y-141795755D01*
X65130316Y-141885843D01*
X65085151Y-141961114D01*
X65058621Y-142012767D01*
X65056235Y-142031999D01*
X65056260Y-142032000D01*
X65076544Y-142014408D01*
X65125172Y-141965849D01*
X65195991Y-141892650D01*
X65282851Y-141801135D01*
X65338678Y-141741598D01*
X65460593Y-141616543D01*
X65581802Y-141502180D01*
X65696090Y-141403493D01*
X65797242Y-141325465D01*
X65879044Y-141273079D01*
X65935280Y-141251321D01*
X65948953Y-141252217D01*
X65972935Y-141280535D01*
X65997862Y-141339209D01*
X66002995Y-141356104D01*
X66030017Y-141426907D01*
X66057664Y-141446935D01*
X66086774Y-141416216D01*
X66110240Y-141359391D01*
X66129851Y-141250990D01*
X66110129Y-141166562D01*
X66054143Y-141111751D01*
X65964964Y-141092200D01*
X65964858Y-141092200D01*
X65872924Y-141113308D01*
X65872924Y-141113308D01*
G37*
X65872924Y-141113308D02*
X65761978Y-141173180D01*
X65638494Y-141266634D01*
X65508945Y-141388487D01*
X65379805Y-141533558D01*
X65322561Y-141606341D01*
X65254528Y-141699654D01*
X65188610Y-141795755D01*
X65130316Y-141885843D01*
X65085151Y-141961114D01*
X65058621Y-142012767D01*
X65056235Y-142031999D01*
X65056260Y-142032000D01*
X65076544Y-142014408D01*
X65125172Y-141965849D01*
X65195991Y-141892650D01*
X65282851Y-141801135D01*
X65338678Y-141741598D01*
X65460593Y-141616543D01*
X65581802Y-141502180D01*
X65696090Y-141403493D01*
X65797242Y-141325465D01*
X65879044Y-141273079D01*
X65935280Y-141251321D01*
X65948953Y-141252217D01*
X65972935Y-141280535D01*
X65997862Y-141339209D01*
X66002995Y-141356104D01*
X66030017Y-141426907D01*
X66057664Y-141446935D01*
X66086774Y-141416216D01*
X66110240Y-141359391D01*
X66129851Y-141250990D01*
X66110129Y-141166562D01*
X66054143Y-141111751D01*
X65964964Y-141092200D01*
X65964858Y-141092200D01*
X65872924Y-141113308D01*
G36*
X62011292Y-139547713D02*
G01*
X61900342Y-139576644D01*
X61774565Y-139618210D01*
X61641533Y-139669726D01*
X61508815Y-139728508D01*
X61383980Y-139791872D01*
X61274599Y-139857136D01*
X61201700Y-139910225D01*
X61155335Y-139952348D01*
X61150795Y-139967771D01*
X61186849Y-139956755D01*
X61262269Y-139919562D01*
X61328700Y-139883223D01*
X61434747Y-139828505D01*
X61561475Y-139770383D01*
X61697399Y-139713330D01*
X61831032Y-139661820D01*
X61950889Y-139620325D01*
X62045484Y-139593320D01*
X62093877Y-139585215D01*
X62151356Y-139577789D01*
X62179044Y-139565325D01*
X62179487Y-139563561D01*
X62158434Y-139538487D01*
X62099846Y-139534099D01*
X62011292Y-139547713D01*
X62011292Y-139547713D01*
G37*
X62011292Y-139547713D02*
X61900342Y-139576644D01*
X61774565Y-139618210D01*
X61641533Y-139669726D01*
X61508815Y-139728508D01*
X61383980Y-139791872D01*
X61274599Y-139857136D01*
X61201700Y-139910225D01*
X61155335Y-139952348D01*
X61150795Y-139967771D01*
X61186849Y-139956755D01*
X61262269Y-139919562D01*
X61328700Y-139883223D01*
X61434747Y-139828505D01*
X61561475Y-139770383D01*
X61697399Y-139713330D01*
X61831032Y-139661820D01*
X61950889Y-139620325D01*
X62045484Y-139593320D01*
X62093877Y-139585215D01*
X62151356Y-139577789D01*
X62179044Y-139565325D01*
X62179487Y-139563561D01*
X62158434Y-139538487D01*
X62099846Y-139534099D01*
X62011292Y-139547713D01*
G36*
X57668663Y-140838762D02*
G01*
X57526219Y-140843274D01*
X57398066Y-140850470D01*
X57302800Y-140859355D01*
X57263359Y-140865984D01*
X57266783Y-140871251D01*
X57314711Y-140875239D01*
X57408779Y-140878033D01*
X57550624Y-140879718D01*
X57708006Y-140880338D01*
X57909973Y-140879735D01*
X58061532Y-140877200D01*
X58163040Y-140872716D01*
X58214852Y-140866268D01*
X58217325Y-140857840D01*
X58216006Y-140857306D01*
X58164639Y-140848036D01*
X58073385Y-140841570D01*
X57953081Y-140837885D01*
X57814562Y-140836957D01*
X57668663Y-140838762D01*
X57668663Y-140838762D01*
G37*
X57668663Y-140838762D02*
X57526219Y-140843274D01*
X57398066Y-140850470D01*
X57302800Y-140859355D01*
X57263359Y-140865984D01*
X57266783Y-140871251D01*
X57314711Y-140875239D01*
X57408779Y-140878033D01*
X57550624Y-140879718D01*
X57708006Y-140880338D01*
X57909973Y-140879735D01*
X58061532Y-140877200D01*
X58163040Y-140872716D01*
X58214852Y-140866268D01*
X58217325Y-140857840D01*
X58216006Y-140857306D01*
X58164639Y-140848036D01*
X58073385Y-140841570D01*
X57953081Y-140837885D01*
X57814562Y-140836957D01*
X57668663Y-140838762D01*
G36*
X60365902Y-141066109D02*
G01*
X60249200Y-141101036D01*
X60084100Y-141156239D01*
X60090435Y-141454419D01*
X60091390Y-141570578D01*
X60089289Y-141665444D01*
X60084553Y-141729137D01*
X60077735Y-141751792D01*
X60044821Y-141737322D01*
X60007900Y-141712559D01*
X59948767Y-141688804D01*
X59864135Y-141690880D01*
X59748911Y-141719693D01*
X59598000Y-141776148D01*
X59560008Y-141792151D01*
X59363215Y-141876383D01*
X59320126Y-141744641D01*
X59256465Y-141574782D01*
X59189898Y-141451042D01*
X59116225Y-141368754D01*
X59031247Y-141323255D01*
X58930764Y-141309878D01*
X58928800Y-141309902D01*
X58825387Y-141321773D01*
X58746884Y-141349797D01*
X58697568Y-141387648D01*
X58681716Y-141429002D01*
X58703604Y-141467531D01*
X58767508Y-141496909D01*
X58797979Y-141503422D01*
X58873162Y-141520700D01*
X58928787Y-141541327D01*
X58939534Y-141548099D01*
X58984232Y-141603254D01*
X59035536Y-141694806D01*
X59087417Y-141809950D01*
X59133848Y-141935880D01*
X59155175Y-142006172D01*
X59196380Y-142191586D01*
X59206776Y-142348490D01*
X59185913Y-142489099D01*
X59133342Y-142625634D01*
X59132293Y-142627746D01*
X59092794Y-142708877D01*
X59074368Y-142757936D01*
X59075320Y-142788262D01*
X59093954Y-142813194D01*
X59107133Y-142825719D01*
X59143491Y-142854401D01*
X59177822Y-142857988D01*
X59231513Y-142837166D01*
X59246340Y-142830189D01*
X59324302Y-142780579D01*
X59395845Y-142715851D01*
X59401892Y-142708899D01*
X59434395Y-142667055D01*
X59452927Y-142627846D01*
X59459961Y-142577022D01*
X59457974Y-142500335D01*
X59452204Y-142419255D01*
X59444008Y-142318529D01*
X59436484Y-142236322D01*
X59430939Y-142186616D01*
X59429858Y-142180141D01*
X59450014Y-142163051D01*
X59507774Y-142138827D01*
X59591064Y-142110954D01*
X59687810Y-142082918D01*
X59785938Y-142058203D01*
X59873375Y-142040295D01*
X59938046Y-142032679D01*
X59940877Y-142032626D01*
X59979950Y-142037233D01*
X59991939Y-142061955D01*
X59984275Y-142120374D01*
X59973509Y-142188131D01*
X59960088Y-142287109D01*
X59946601Y-142398002D01*
X59944245Y-142418824D01*
X59930337Y-142524893D01*
X59909193Y-142663709D01*
X59883550Y-142818205D01*
X59856145Y-142971317D01*
X59852702Y-142989667D01*
X59826334Y-143131502D01*
X59809259Y-143232532D01*
X59800946Y-143301796D01*
X59800868Y-143348331D01*
X59808494Y-143381175D01*
X59823297Y-143409365D01*
X59827733Y-143416251D01*
X59874199Y-143464117D01*
X59940085Y-143505464D01*
X60012879Y-143536114D01*
X60080068Y-143551889D01*
X60129142Y-143548613D01*
X60147600Y-143523054D01*
X60129482Y-143484937D01*
X60083246Y-143431155D01*
X60048758Y-143399152D01*
X59949915Y-143314546D01*
X60000727Y-143035223D01*
X60038625Y-142745484D01*
X60054746Y-142411932D01*
X60055119Y-142381337D01*
X60057428Y-142249934D01*
X60061388Y-142138666D01*
X60066527Y-142056392D01*
X60072369Y-142011971D01*
X60075173Y-142006687D01*
X60085435Y-142029869D01*
X60097304Y-142091133D01*
X60108421Y-142177915D01*
X60109721Y-142190750D01*
X60133257Y-142351479D01*
X60171224Y-142468184D01*
X60229063Y-142546838D01*
X60312209Y-142593414D01*
X60426104Y-142613886D01*
X60497084Y-142616200D01*
X60612363Y-142607596D01*
X60690058Y-142583280D01*
X60725993Y-142545495D01*
X60717009Y-142498110D01*
X60673103Y-142459645D01*
X60615409Y-142435759D01*
X60533672Y-142416714D01*
X60472064Y-142402606D01*
X60426489Y-142378567D01*
X60390837Y-142326518D01*
X60364171Y-142242041D01*
X60345553Y-142120720D01*
X60334046Y-141958136D01*
X60328710Y-141749873D01*
X60328479Y-141726291D01*
X60325089Y-141331682D01*
X60439545Y-141219352D01*
X60499421Y-141155708D01*
X60540849Y-141102343D01*
X60554000Y-141074211D01*
X60531930Y-141048954D01*
X60468060Y-141046356D01*
X60365902Y-141066109D01*
X60365902Y-141066109D01*
G37*
X60365902Y-141066109D02*
X60249200Y-141101036D01*
X60084100Y-141156239D01*
X60090435Y-141454419D01*
X60091390Y-141570578D01*
X60089289Y-141665444D01*
X60084553Y-141729137D01*
X60077735Y-141751792D01*
X60044821Y-141737322D01*
X60007900Y-141712559D01*
X59948767Y-141688804D01*
X59864135Y-141690880D01*
X59748911Y-141719693D01*
X59598000Y-141776148D01*
X59560008Y-141792151D01*
X59363215Y-141876383D01*
X59320126Y-141744641D01*
X59256465Y-141574782D01*
X59189898Y-141451042D01*
X59116225Y-141368754D01*
X59031247Y-141323255D01*
X58930764Y-141309878D01*
X58928800Y-141309902D01*
X58825387Y-141321773D01*
X58746884Y-141349797D01*
X58697568Y-141387648D01*
X58681716Y-141429002D01*
X58703604Y-141467531D01*
X58767508Y-141496909D01*
X58797979Y-141503422D01*
X58873162Y-141520700D01*
X58928787Y-141541327D01*
X58939534Y-141548099D01*
X58984232Y-141603254D01*
X59035536Y-141694806D01*
X59087417Y-141809950D01*
X59133848Y-141935880D01*
X59155175Y-142006172D01*
X59196380Y-142191586D01*
X59206776Y-142348490D01*
X59185913Y-142489099D01*
X59133342Y-142625634D01*
X59132293Y-142627746D01*
X59092794Y-142708877D01*
X59074368Y-142757936D01*
X59075320Y-142788262D01*
X59093954Y-142813194D01*
X59107133Y-142825719D01*
X59143491Y-142854401D01*
X59177822Y-142857988D01*
X59231513Y-142837166D01*
X59246340Y-142830189D01*
X59324302Y-142780579D01*
X59395845Y-142715851D01*
X59401892Y-142708899D01*
X59434395Y-142667055D01*
X59452927Y-142627846D01*
X59459961Y-142577022D01*
X59457974Y-142500335D01*
X59452204Y-142419255D01*
X59444008Y-142318529D01*
X59436484Y-142236322D01*
X59430939Y-142186616D01*
X59429858Y-142180141D01*
X59450014Y-142163051D01*
X59507774Y-142138827D01*
X59591064Y-142110954D01*
X59687810Y-142082918D01*
X59785938Y-142058203D01*
X59873375Y-142040295D01*
X59938046Y-142032679D01*
X59940877Y-142032626D01*
X59979950Y-142037233D01*
X59991939Y-142061955D01*
X59984275Y-142120374D01*
X59973509Y-142188131D01*
X59960088Y-142287109D01*
X59946601Y-142398002D01*
X59944245Y-142418824D01*
X59930337Y-142524893D01*
X59909193Y-142663709D01*
X59883550Y-142818205D01*
X59856145Y-142971317D01*
X59852702Y-142989667D01*
X59826334Y-143131502D01*
X59809259Y-143232532D01*
X59800946Y-143301796D01*
X59800868Y-143348331D01*
X59808494Y-143381175D01*
X59823297Y-143409365D01*
X59827733Y-143416251D01*
X59874199Y-143464117D01*
X59940085Y-143505464D01*
X60012879Y-143536114D01*
X60080068Y-143551889D01*
X60129142Y-143548613D01*
X60147600Y-143523054D01*
X60129482Y-143484937D01*
X60083246Y-143431155D01*
X60048758Y-143399152D01*
X59949915Y-143314546D01*
X60000727Y-143035223D01*
X60038625Y-142745484D01*
X60054746Y-142411932D01*
X60055119Y-142381337D01*
X60057428Y-142249934D01*
X60061388Y-142138666D01*
X60066527Y-142056392D01*
X60072369Y-142011971D01*
X60075173Y-142006687D01*
X60085435Y-142029869D01*
X60097304Y-142091133D01*
X60108421Y-142177915D01*
X60109721Y-142190750D01*
X60133257Y-142351479D01*
X60171224Y-142468184D01*
X60229063Y-142546838D01*
X60312209Y-142593414D01*
X60426104Y-142613886D01*
X60497084Y-142616200D01*
X60612363Y-142607596D01*
X60690058Y-142583280D01*
X60725993Y-142545495D01*
X60717009Y-142498110D01*
X60673103Y-142459645D01*
X60615409Y-142435759D01*
X60533672Y-142416714D01*
X60472064Y-142402606D01*
X60426489Y-142378567D01*
X60390837Y-142326518D01*
X60364171Y-142242041D01*
X60345553Y-142120720D01*
X60334046Y-141958136D01*
X60328710Y-141749873D01*
X60328479Y-141726291D01*
X60325089Y-141331682D01*
X60439545Y-141219352D01*
X60499421Y-141155708D01*
X60540849Y-141102343D01*
X60554000Y-141074211D01*
X60531930Y-141048954D01*
X60468060Y-141046356D01*
X60365902Y-141066109D01*
G36*
X61397905Y-144298899D02*
G01*
X61339335Y-144335919D01*
X61286529Y-144371564D01*
X61199668Y-144427775D01*
X61120172Y-144470585D01*
X61039081Y-144501805D01*
X60947438Y-144523246D01*
X60836281Y-144536720D01*
X60696654Y-144544038D01*
X60519596Y-144547011D01*
X60416614Y-144547431D01*
X60149403Y-144550381D01*
X59931937Y-144558321D01*
X59763390Y-144571389D01*
X59642941Y-144589723D01*
X59569764Y-144613459D01*
X59543036Y-144642735D01*
X59561934Y-144677689D01*
X59574605Y-144688009D01*
X59615320Y-144699320D01*
X59698622Y-144708602D01*
X59816339Y-144715850D01*
X59960298Y-144721057D01*
X60122328Y-144724219D01*
X60294256Y-144725330D01*
X60467910Y-144724384D01*
X60635117Y-144721375D01*
X60787705Y-144716299D01*
X60917502Y-144709149D01*
X61016334Y-144699920D01*
X61074700Y-144689035D01*
X61155030Y-144660617D01*
X61223958Y-144631168D01*
X61234248Y-144625914D01*
X61293647Y-144578481D01*
X61355388Y-144505830D01*
X61407736Y-144424819D01*
X61438960Y-144352308D01*
X61443000Y-144325942D01*
X61440927Y-144296480D01*
X61428832Y-144286609D01*
X61397905Y-144298899D01*
X61397905Y-144298899D01*
G37*
X61397905Y-144298899D02*
X61339335Y-144335919D01*
X61286529Y-144371564D01*
X61199668Y-144427775D01*
X61120172Y-144470585D01*
X61039081Y-144501805D01*
X60947438Y-144523246D01*
X60836281Y-144536720D01*
X60696654Y-144544038D01*
X60519596Y-144547011D01*
X60416614Y-144547431D01*
X60149403Y-144550381D01*
X59931937Y-144558321D01*
X59763390Y-144571389D01*
X59642941Y-144589723D01*
X59569764Y-144613459D01*
X59543036Y-144642735D01*
X59561934Y-144677689D01*
X59574605Y-144688009D01*
X59615320Y-144699320D01*
X59698622Y-144708602D01*
X59816339Y-144715850D01*
X59960298Y-144721057D01*
X60122328Y-144724219D01*
X60294256Y-144725330D01*
X60467910Y-144724384D01*
X60635117Y-144721375D01*
X60787705Y-144716299D01*
X60917502Y-144709149D01*
X61016334Y-144699920D01*
X61074700Y-144689035D01*
X61155030Y-144660617D01*
X61223958Y-144631168D01*
X61234248Y-144625914D01*
X61293647Y-144578481D01*
X61355388Y-144505830D01*
X61407736Y-144424819D01*
X61438960Y-144352308D01*
X61443000Y-144325942D01*
X61440927Y-144296480D01*
X61428832Y-144286609D01*
X61397905Y-144298899D01*
G36*
X60501231Y-145118025D02*
G01*
X60484650Y-145120305D01*
X60365495Y-145140672D01*
X60290102Y-145160201D01*
X60251521Y-145181022D01*
X60243334Y-145194300D01*
X60259293Y-145213675D01*
X60310102Y-145223549D01*
X60380697Y-145223875D01*
X60456016Y-145214607D01*
X60520997Y-145195700D01*
X60522250Y-145195151D01*
X60587890Y-145158339D01*
X60604957Y-145130607D01*
X60575416Y-145115866D01*
X60501231Y-145118025D01*
X60501231Y-145118025D01*
G37*
X60501231Y-145118025D02*
X60484650Y-145120305D01*
X60365495Y-145140672D01*
X60290102Y-145160201D01*
X60251521Y-145181022D01*
X60243334Y-145194300D01*
X60259293Y-145213675D01*
X60310102Y-145223549D01*
X60380697Y-145223875D01*
X60456016Y-145214607D01*
X60520997Y-145195700D01*
X60522250Y-145195151D01*
X60587890Y-145158339D01*
X60604957Y-145130607D01*
X60575416Y-145115866D01*
X60501231Y-145118025D01*
G36*
X61800519Y-129584656D02*
G01*
X61722594Y-129619399D01*
X61630748Y-129665236D01*
X61534932Y-129717274D01*
X61445099Y-129770618D01*
X61392200Y-129805354D01*
X61285985Y-129890377D01*
X61162170Y-130007717D01*
X61030419Y-130146829D01*
X60900398Y-130297168D01*
X60781771Y-130448187D01*
X60709893Y-130549846D01*
X60561287Y-130787082D01*
X60430679Y-131029806D01*
X60309191Y-131295348D01*
X60236987Y-131472819D01*
X60193733Y-131578619D01*
X60156166Y-131661826D01*
X60128306Y-131714116D01*
X60114176Y-131727164D01*
X60114158Y-131727135D01*
X60077377Y-131696350D01*
X60003358Y-131654180D01*
X59903023Y-131605411D01*
X59787290Y-131554829D01*
X59667080Y-131507221D01*
X59553312Y-131467372D01*
X59461800Y-131441218D01*
X59251550Y-131406849D01*
X59004838Y-131393164D01*
X58731184Y-131399254D01*
X58440111Y-131424211D01*
X58141137Y-131467127D01*
X57843786Y-131527093D01*
X57557576Y-131603200D01*
X57467900Y-131631471D01*
X57320022Y-131686655D01*
X57140906Y-131763935D01*
X56941836Y-131857610D01*
X56734097Y-131961983D01*
X56528973Y-132071355D01*
X56337750Y-132180028D01*
X56171711Y-132282303D01*
X56147100Y-132298444D01*
X55856498Y-132503947D01*
X55599394Y-132715046D01*
X55371085Y-132938000D01*
X55166863Y-133179071D01*
X54982024Y-133444518D01*
X54811863Y-133740600D01*
X54651673Y-134073579D01*
X54496750Y-134449713D01*
X54462792Y-134539182D01*
X54288145Y-135051899D01*
X54148610Y-135566661D01*
X54042019Y-136094025D01*
X53966203Y-136644548D01*
X53922380Y-137170338D01*
X53904729Y-137666864D01*
X53914757Y-138135699D01*
X53953665Y-138592504D01*
X54022649Y-139052937D01*
X54093300Y-139403100D01*
X54163931Y-139709984D01*
X54231650Y-139976680D01*
X54299996Y-140213386D01*
X54372508Y-140430304D01*
X54452727Y-140637631D01*
X54544191Y-140845569D01*
X54650440Y-141064317D01*
X54710302Y-141181100D01*
X54874372Y-141489011D01*
X55022649Y-141751289D01*
X55154868Y-141967529D01*
X55270765Y-142137326D01*
X55370075Y-142260278D01*
X55452533Y-142335980D01*
X55477551Y-142351336D01*
X55529001Y-142386185D01*
X55531944Y-142413736D01*
X55485563Y-142435512D01*
X55425729Y-142447749D01*
X55310008Y-142489024D01*
X55210474Y-142566336D01*
X55144038Y-142666426D01*
X55120867Y-142776407D01*
X55126342Y-142913334D01*
X55158724Y-143063445D01*
X55212005Y-143203982D01*
X55286975Y-143334617D01*
X55398418Y-143481981D01*
X55511298Y-143609935D01*
X55612785Y-143723484D01*
X55716867Y-143846782D01*
X55809981Y-143963412D01*
X55867916Y-144041535D01*
X55942613Y-144140356D01*
X56039910Y-144258473D01*
X56146092Y-144379661D01*
X56229226Y-144468964D01*
X56323667Y-144565853D01*
X56391545Y-144631247D01*
X56440832Y-144670902D01*
X56479503Y-144690577D01*
X56515530Y-144696028D01*
X56541757Y-144694628D01*
X56587117Y-144692648D01*
X56619406Y-144703393D01*
X56648141Y-144736084D01*
X56682844Y-144799944D01*
X56711415Y-144858993D01*
X56779110Y-144988528D01*
X56853703Y-145111398D01*
X56929957Y-145221033D01*
X57002633Y-145310866D01*
X57066493Y-145374327D01*
X57116298Y-145404848D01*
X57143216Y-145400451D01*
X57173672Y-145399664D01*
X57204741Y-145412094D01*
X57247937Y-145456647D01*
X57301014Y-145547906D01*
X57362703Y-145683017D01*
X57431736Y-145859126D01*
X57506845Y-146073379D01*
X57530621Y-146145427D01*
X57574708Y-146275023D01*
X57616595Y-146387746D01*
X57652631Y-146474504D01*
X57679161Y-146526202D01*
X57687510Y-146535936D01*
X57723389Y-146539184D01*
X57786872Y-146517273D01*
X57883574Y-146468040D01*
X57926597Y-146443786D01*
X58030406Y-146387492D01*
X58130983Y-146338488D01*
X58211162Y-146304973D01*
X58230625Y-146298592D01*
X58332950Y-146269129D01*
X58611625Y-146464021D01*
X58719164Y-146539895D01*
X58814749Y-146608566D01*
X58888960Y-146663179D01*
X58932376Y-146696881D01*
X58935943Y-146699972D01*
X58963954Y-146730174D01*
X58955782Y-146751317D01*
X58910543Y-146776844D01*
X58857534Y-146812910D01*
X58785555Y-146873750D01*
X58709762Y-146946509D01*
X58706362Y-146950004D01*
X58591934Y-147054563D01*
X58453041Y-147161277D01*
X58307152Y-147257957D01*
X58171739Y-147332413D01*
X58134138Y-147349276D01*
X58059798Y-147375425D01*
X57943619Y-147410195D01*
X57793456Y-147451673D01*
X57617163Y-147497942D01*
X57422597Y-147547087D01*
X57217613Y-147597191D01*
X57010067Y-147646338D01*
X56807812Y-147692614D01*
X56618706Y-147734102D01*
X56450603Y-147768886D01*
X56311358Y-147795050D01*
X56294518Y-147797933D01*
X56089740Y-147835054D01*
X55930115Y-147870470D01*
X55810127Y-147906163D01*
X55724265Y-147944114D01*
X55667014Y-147986305D01*
X55632861Y-148034719D01*
X55632287Y-148035956D01*
X55606096Y-148077092D01*
X55554694Y-148146001D01*
X55486194Y-148232111D01*
X55428354Y-148301768D01*
X55297037Y-148472455D01*
X55155384Y-148684224D01*
X55007358Y-148929408D01*
X54856922Y-149200343D01*
X54708039Y-149489365D01*
X54564672Y-149788807D01*
X54430786Y-150091006D01*
X54310343Y-150388296D01*
X54217017Y-150644441D01*
X54104546Y-150972800D01*
X59691368Y-150972800D01*
X59678300Y-150915650D01*
X59638902Y-150733954D01*
X59595194Y-150516437D01*
X59549404Y-150275618D01*
X59503761Y-150024016D01*
X59460493Y-149774153D01*
X59421830Y-149538548D01*
X59390000Y-149329721D01*
X59370482Y-149186603D01*
X59349512Y-149016543D01*
X59334120Y-148878367D01*
X59323869Y-148759769D01*
X59318320Y-148648442D01*
X59317034Y-148532081D01*
X59319573Y-148398380D01*
X59325500Y-148235032D01*
X59331556Y-148093578D01*
X59339278Y-147927288D01*
X59346965Y-147778691D01*
X59354177Y-147655062D01*
X59360472Y-147563673D01*
X59365410Y-147511799D01*
X59367374Y-147502759D01*
X59385144Y-147516562D01*
X59420419Y-147562930D01*
X59453774Y-147613380D01*
X59517124Y-147703675D01*
X59603693Y-147813122D01*
X59703888Y-147930957D01*
X59808112Y-148046415D01*
X59906772Y-148148731D01*
X59990273Y-148227141D01*
X60027485Y-148257067D01*
X60148363Y-148326362D01*
X60284661Y-148375695D01*
X60417631Y-148399588D01*
X60506726Y-148397082D01*
X60583101Y-148377177D01*
X60680384Y-148341675D01*
X60758082Y-148307357D01*
X60852572Y-148256652D01*
X60977141Y-148182701D01*
X61121048Y-148092497D01*
X61273549Y-147993034D01*
X61423904Y-147891302D01*
X61561371Y-147794295D01*
X61664705Y-147717186D01*
X61739906Y-147659675D01*
X61798054Y-147616631D01*
X61828960Y-147595556D01*
X61831234Y-147594600D01*
X61830989Y-147618386D01*
X61823023Y-147684869D01*
X61808523Y-147786731D01*
X61788674Y-147916654D01*
X61764663Y-148067322D01*
X61737677Y-148231417D01*
X61708901Y-148401623D01*
X61679522Y-148570621D01*
X61650727Y-148731096D01*
X61623701Y-148875730D01*
X61622582Y-148881559D01*
X61564279Y-149167529D01*
X61496631Y-149470144D01*
X61423090Y-149775468D01*
X61347106Y-150069566D01*
X61272134Y-150338504D01*
X61215018Y-150526758D01*
X61176904Y-150652050D01*
X61146175Y-150763517D01*
X61125552Y-150850476D01*
X61117752Y-150902246D01*
X61118014Y-150907758D01*
X61125500Y-150960100D01*
X64598950Y-150966540D01*
X65014628Y-150967200D01*
X65416109Y-150967621D01*
X65800485Y-150967810D01*
X66164849Y-150967776D01*
X66506292Y-150967525D01*
X66821906Y-150967065D01*
X67108784Y-150966403D01*
X67364017Y-150965548D01*
X67584698Y-150964506D01*
X67767919Y-150963286D01*
X67910771Y-150961894D01*
X68010347Y-150960338D01*
X68063739Y-150958626D01*
X68072400Y-150957551D01*
X68058798Y-150931986D01*
X68021594Y-150873028D01*
X67966188Y-150788987D01*
X67897985Y-150688174D01*
X67885060Y-150669317D01*
X67796109Y-150536867D01*
X67701112Y-150390633D01*
X67612801Y-150250444D01*
X67556490Y-150157606D01*
X67434507Y-149957825D01*
X67317725Y-149779164D01*
X67210246Y-149627354D01*
X67116175Y-149508127D01*
X67039617Y-149427212D01*
X67023706Y-149413650D01*
X66959693Y-149369179D01*
X66894669Y-149343652D01*
X66808351Y-149330466D01*
X66757006Y-149326789D01*
X66647779Y-149315418D01*
X66579410Y-149295206D01*
X66548400Y-149271798D01*
X66517195Y-149234779D01*
X66461596Y-149168668D01*
X66389860Y-149083288D01*
X66320981Y-149001252D01*
X66222512Y-148884884D01*
X66113852Y-148757974D01*
X66011672Y-148639934D01*
X65963722Y-148585200D01*
X65889394Y-148498408D01*
X65793890Y-148383234D01*
X65686946Y-148251614D01*
X65578294Y-148115479D01*
X65518287Y-148039100D01*
X65252427Y-147712759D01*
X65000736Y-147433600D01*
X64761891Y-147200426D01*
X64534570Y-147012038D01*
X64317451Y-146867238D01*
X64182612Y-146800644D01*
X62095341Y-146800644D01*
X62094690Y-146802775D01*
X62080192Y-146843742D01*
X62052158Y-146919718D01*
X62015205Y-147018266D01*
X61989325Y-147086600D01*
X61949675Y-147191261D01*
X61916510Y-147279482D01*
X61894213Y-147339568D01*
X61887608Y-147358044D01*
X61862083Y-147384893D01*
X61799654Y-147433410D01*
X61707064Y-147499271D01*
X61591057Y-147578152D01*
X61458376Y-147665727D01*
X61315763Y-147757674D01*
X61169962Y-147849667D01*
X61027716Y-147937384D01*
X60895768Y-148016499D01*
X60780861Y-148082688D01*
X60689738Y-148131628D01*
X60655600Y-148148097D01*
X60531160Y-148186491D01*
X60392798Y-148200988D01*
X60262087Y-148190579D01*
X60191235Y-148169888D01*
X60131326Y-148131699D01*
X60048515Y-148061138D01*
X59950474Y-147966401D01*
X59844874Y-147855685D01*
X59739386Y-147737188D01*
X59641680Y-147619107D01*
X59559428Y-147509640D01*
X59524207Y-147457102D01*
X59463738Y-147358092D01*
X59427428Y-147286208D01*
X59409956Y-147227203D01*
X59406001Y-147166831D01*
X59406824Y-147142775D01*
X59415852Y-147023625D01*
X59431941Y-146943090D01*
X59459767Y-146889040D01*
X59504002Y-146849346D01*
X59524992Y-146836147D01*
X59610213Y-146785866D01*
X59679551Y-146949013D01*
X59734961Y-147065812D01*
X59782078Y-147136720D01*
X59819789Y-147160285D01*
X59835695Y-147152972D01*
X59843286Y-147115845D01*
X59838496Y-147039928D01*
X59823207Y-146935186D01*
X59799302Y-146811585D01*
X59768665Y-146679092D01*
X59733178Y-146547670D01*
X59703281Y-146452135D01*
X59668334Y-146344920D01*
X59641797Y-146256791D01*
X59626599Y-146197943D01*
X59624710Y-146178624D01*
X59640981Y-146175983D01*
X59679140Y-146183291D01*
X59744425Y-146202175D01*
X59842073Y-146234265D01*
X59977320Y-146281188D01*
X60134900Y-146337225D01*
X60465100Y-146455468D01*
X60795300Y-146443563D01*
X61023774Y-146427290D01*
X61218274Y-146394184D01*
X61393847Y-146340728D01*
X61565137Y-146263615D01*
X61617905Y-146239261D01*
X61645174Y-146232408D01*
X61646200Y-146233797D01*
X61641301Y-146263453D01*
X61628735Y-146326434D01*
X61618126Y-146376806D01*
X61605164Y-146470572D01*
X61601980Y-146573620D01*
X61607429Y-146673623D01*
X61620369Y-146758255D01*
X61639653Y-146815188D01*
X61660438Y-146832600D01*
X61692764Y-146810969D01*
X61711687Y-146770229D01*
X61733494Y-146725048D01*
X61777666Y-146716269D01*
X61794721Y-146718439D01*
X61861349Y-146728128D01*
X61949689Y-146740054D01*
X61985210Y-146744635D01*
X62059400Y-146757371D01*
X62092783Y-146774274D01*
X62095341Y-146800644D01*
X64182612Y-146800644D01*
X64113941Y-146766729D01*
X63972445Y-146723691D01*
X63794496Y-146691068D01*
X63593522Y-146669652D01*
X63382949Y-146660232D01*
X63176204Y-146663598D01*
X62986713Y-146680541D01*
X62898382Y-146695193D01*
X62842149Y-146701189D01*
X62809444Y-146681692D01*
X62781069Y-146625971D01*
X62745007Y-146540500D01*
X62900454Y-146397884D01*
X62986294Y-146313329D01*
X63086627Y-146205733D01*
X63185375Y-146092627D01*
X63229314Y-146039258D01*
X63320140Y-145930777D01*
X63402684Y-145840828D01*
X63471733Y-145774263D01*
X63522074Y-145735938D01*
X63548492Y-145730706D01*
X63551200Y-145739566D01*
X63569489Y-145782654D01*
X63617520Y-145840367D01*
X63685042Y-145904548D01*
X63761807Y-145967041D01*
X63837562Y-146019690D01*
X63902057Y-146054337D01*
X63945042Y-146062825D01*
X63952431Y-146058835D01*
X63958629Y-146030414D01*
X63966801Y-145961920D01*
X63975831Y-145863987D01*
X63983696Y-145760561D01*
X63999290Y-145614375D01*
X64027084Y-145433133D01*
X64064369Y-145230342D01*
X64108437Y-145019509D01*
X64156580Y-144814142D01*
X64206089Y-144627747D01*
X64221086Y-144576609D01*
X64249535Y-144503954D01*
X64297405Y-144403743D01*
X64357038Y-144291399D01*
X64398565Y-144219038D01*
X64466935Y-144097895D01*
X64533449Y-143969851D01*
X64588149Y-143854501D01*
X64609353Y-143804178D01*
X64653512Y-143702464D01*
X64697243Y-143633045D01*
X64752782Y-143579017D01*
X64794291Y-143548713D01*
X64916219Y-143459493D01*
X65063627Y-143342558D01*
X65226571Y-143206600D01*
X65395105Y-143060315D01*
X65559284Y-142912396D01*
X65709163Y-142771537D01*
X65834797Y-142646431D01*
X65874425Y-142604490D01*
X66092693Y-142361508D01*
X66273080Y-142144984D01*
X66418031Y-141950485D01*
X66529994Y-141773581D01*
X66611415Y-141609837D01*
X66664741Y-141454821D01*
X66692418Y-141304100D01*
X66695334Y-141205791D01*
X66481135Y-141205791D01*
X66469496Y-141347222D01*
X66435805Y-141482971D01*
X66375669Y-141624644D01*
X66284694Y-141783843D01*
X66230782Y-141866900D01*
X66115967Y-142023934D01*
X65968481Y-142202619D01*
X65796446Y-142394327D01*
X65607982Y-142590431D01*
X65411210Y-142782303D01*
X65214251Y-142961315D01*
X65143149Y-143022399D01*
X65029612Y-143118219D01*
X64930562Y-143201691D01*
X64852072Y-143267706D01*
X64800215Y-143311157D01*
X64781064Y-143326934D01*
X64781062Y-143326934D01*
X64784879Y-143304134D01*
X64796813Y-143242697D01*
X64814682Y-143153732D01*
X64824596Y-143105150D01*
X64868457Y-142884222D01*
X64913197Y-142646098D01*
X64957401Y-142399398D01*
X64999651Y-142152743D01*
X65038532Y-141914754D01*
X65072627Y-141694051D01*
X65100519Y-141499254D01*
X65120792Y-141338986D01*
X65130313Y-141244600D01*
X65145783Y-141081833D01*
X65165235Y-140959953D01*
X65194435Y-140869077D01*
X65239147Y-140799323D01*
X65305139Y-140740809D01*
X65398175Y-140683653D01*
X65484020Y-140638370D01*
X65600801Y-140582349D01*
X65663517Y-140559671D01*
X65030376Y-140559671D01*
X65012755Y-140806885D01*
X64985913Y-141101488D01*
X64945519Y-141415546D01*
X64890136Y-141759179D01*
X64834996Y-142057400D01*
X64801785Y-142230530D01*
X64767171Y-142413850D01*
X64734341Y-142590292D01*
X64706484Y-142742791D01*
X64695067Y-142806700D01*
X64625185Y-143148212D01*
X64541648Y-143451264D01*
X64440493Y-143727265D01*
X64317753Y-143987622D01*
X64230010Y-144144609D01*
X64116618Y-144324348D01*
X64000504Y-144480590D01*
X63873166Y-144621730D01*
X63726104Y-144756164D01*
X63550818Y-144892285D01*
X63338805Y-145038491D01*
X63297200Y-145065799D01*
X63102690Y-145188804D01*
X62886066Y-145319032D01*
X62654598Y-145452634D01*
X62415555Y-145585762D01*
X62176208Y-145714569D01*
X61943826Y-145835206D01*
X61725679Y-145943826D01*
X61529036Y-146036580D01*
X61361168Y-146109621D01*
X61235629Y-146157024D01*
X61127861Y-146186143D01*
X60992835Y-146212729D01*
X60844929Y-146234998D01*
X60698521Y-146251169D01*
X60567989Y-146259457D01*
X60467713Y-146258079D01*
X60443821Y-146255217D01*
X60390270Y-146239603D01*
X60304848Y-146207225D01*
X60201373Y-146163529D01*
X60136057Y-146133995D01*
X59995440Y-146070466D01*
X59864042Y-146015529D01*
X59731505Y-145965639D01*
X59587475Y-145917254D01*
X59421596Y-145866829D01*
X59223511Y-145810820D01*
X59068031Y-145768517D01*
X58834825Y-145703481D01*
X58572854Y-145626593D01*
X58295168Y-145541959D01*
X58014820Y-145453687D01*
X57744860Y-145365886D01*
X57498339Y-145282661D01*
X57293368Y-145209978D01*
X57180239Y-145167572D01*
X57103176Y-145134021D01*
X57050333Y-145101299D01*
X57009863Y-145061378D01*
X56969921Y-145006230D01*
X56951628Y-144978400D01*
X56894934Y-144880112D01*
X56826018Y-144742611D01*
X56748707Y-144574879D01*
X56693205Y-144446779D01*
X56522063Y-144446779D01*
X56507253Y-144441544D01*
X56470294Y-144406930D01*
X56406192Y-144339838D01*
X56361890Y-144292600D01*
X56267008Y-144186032D01*
X56168556Y-144066899D01*
X56083264Y-143955696D01*
X56058790Y-143921245D01*
X55989971Y-143828484D01*
X55898326Y-143714703D01*
X55796521Y-143595229D01*
X55709704Y-143498761D01*
X55543815Y-143304531D01*
X55424473Y-143129280D01*
X55351754Y-142973171D01*
X55325734Y-142836368D01*
X55346490Y-142719035D01*
X55346794Y-142718298D01*
X55378680Y-142666322D01*
X55431999Y-142630329D01*
X55507060Y-142603578D01*
X55635586Y-142573135D01*
X55738009Y-142569672D01*
X55831601Y-142593729D01*
X55878394Y-142615176D01*
X55946547Y-142659136D01*
X55981539Y-142712770D01*
X55993931Y-142760729D01*
X56008517Y-142821697D01*
X56035170Y-142917995D01*
X56070166Y-143036668D01*
X56109786Y-143164763D01*
X56111974Y-143171662D01*
X56148438Y-143289922D01*
X56177162Y-143389752D01*
X56195599Y-143461776D01*
X56201203Y-143496615D01*
X56200645Y-143498222D01*
X56179741Y-143485327D01*
X56130006Y-143442142D01*
X56058059Y-143374762D01*
X55970521Y-143289283D01*
X55933174Y-143251943D01*
X55840211Y-143161113D01*
X55758685Y-143086548D01*
X55695603Y-143034276D01*
X55657974Y-143010321D01*
X55651754Y-143009928D01*
X55627678Y-143052376D01*
X55643876Y-143125221D01*
X55700399Y-143228658D01*
X55713608Y-143248684D01*
X55774788Y-143333015D01*
X55860462Y-143442529D01*
X55960557Y-143565183D01*
X56065000Y-143688932D01*
X56163717Y-143801733D01*
X56246637Y-143891542D01*
X56276186Y-143921318D01*
X56331262Y-143987424D01*
X56384883Y-144079997D01*
X56440875Y-144206726D01*
X56503063Y-144375297D01*
X56505209Y-144381500D01*
X56519717Y-144425731D01*
X56522063Y-144446779D01*
X56693205Y-144446779D01*
X56666828Y-144385901D01*
X56584211Y-144184660D01*
X56504683Y-143980141D01*
X56432073Y-143781326D01*
X56393250Y-143668001D01*
X56336973Y-143506331D01*
X56272585Y-143333320D01*
X56207248Y-143167556D01*
X56148126Y-143027626D01*
X56136573Y-143001954D01*
X56086764Y-142890897D01*
X56045872Y-142795854D01*
X56018039Y-142726734D01*
X56007410Y-142693445D01*
X56007400Y-142693102D01*
X56024588Y-142668536D01*
X56066536Y-142672733D01*
X56118825Y-142702126D01*
X56146590Y-142727548D01*
X56206361Y-142768255D01*
X56298223Y-142805411D01*
X56403524Y-142832989D01*
X56503614Y-142844963D01*
X56510301Y-142845064D01*
X56548327Y-142869402D01*
X56595235Y-142939632D01*
X56624186Y-142997244D01*
X56690882Y-143114398D01*
X56759014Y-143181814D01*
X56768975Y-143187479D01*
X56866562Y-143220005D01*
X56962448Y-143222023D01*
X57039729Y-143194163D01*
X57060052Y-143176600D01*
X57088709Y-143123824D01*
X57074315Y-143085913D01*
X57028251Y-143073305D01*
X56937328Y-143048573D01*
X56858102Y-142976802D01*
X56793515Y-142860993D01*
X56777111Y-142817162D01*
X56745719Y-142713105D01*
X56709843Y-142575862D01*
X56673444Y-142422342D01*
X56640481Y-142269450D01*
X56614915Y-142134096D01*
X56609852Y-142103122D01*
X56618157Y-142042192D01*
X56659413Y-142009725D01*
X56723192Y-142007743D01*
X56799071Y-142038267D01*
X56830813Y-142060295D01*
X56879071Y-142093588D01*
X56907678Y-142104654D01*
X56909201Y-142103866D01*
X56901243Y-142079388D01*
X56871214Y-142023055D01*
X56824917Y-141945482D01*
X56806924Y-141916820D01*
X56754776Y-141831682D01*
X56715307Y-141761427D01*
X56695150Y-141718064D01*
X56693861Y-141712155D01*
X56714857Y-141691113D01*
X56770079Y-141656452D01*
X56847014Y-141614455D01*
X56933148Y-141571402D01*
X57015969Y-141533576D01*
X57082962Y-141507256D01*
X57119295Y-141498600D01*
X57139094Y-141507009D01*
X57154839Y-141537934D01*
X57168993Y-141599915D01*
X57184022Y-141701494D01*
X57188936Y-141739900D01*
X57212640Y-141862864D01*
X57254447Y-142013608D01*
X57310019Y-142181174D01*
X57375016Y-142354602D01*
X57445102Y-142522934D01*
X57515937Y-142675212D01*
X57583183Y-142800477D01*
X57642502Y-142887769D01*
X57644135Y-142889713D01*
X57714496Y-142972726D01*
X58111898Y-142958913D01*
X58284592Y-142952378D01*
X58416206Y-142945464D01*
X58516446Y-142936719D01*
X58595023Y-142924690D01*
X58661643Y-142907925D01*
X58726015Y-142884974D01*
X58791226Y-142857309D01*
X58867319Y-142820244D01*
X58908924Y-142785798D01*
X58929451Y-142739665D01*
X58936996Y-142701839D01*
X58948506Y-142615330D01*
X58948607Y-142611783D01*
X58721603Y-142611783D01*
X58684231Y-142665195D01*
X58614819Y-142691601D01*
X58598200Y-142692400D01*
X58536258Y-142681311D01*
X58501681Y-142661919D01*
X58478210Y-142614423D01*
X58471200Y-142565400D01*
X58490363Y-142489214D01*
X58539459Y-142445977D01*
X58605901Y-142440840D01*
X58677100Y-142478958D01*
X58678750Y-142480436D01*
X58721565Y-142545488D01*
X58721603Y-142611783D01*
X58948607Y-142611783D01*
X58950765Y-142536288D01*
X58942149Y-142452261D01*
X58921035Y-142350797D01*
X58885798Y-142219442D01*
X58864490Y-142145859D01*
X58806981Y-141960376D01*
X58752200Y-141810971D01*
X58717827Y-141736445D01*
X57703870Y-141736445D01*
X57694649Y-141796460D01*
X57671414Y-141844157D01*
X57650532Y-141859642D01*
X57619507Y-141869627D01*
X57590851Y-141892720D01*
X57532482Y-141918030D01*
X57450603Y-141911824D01*
X57360041Y-141875919D01*
X57336305Y-141861553D01*
X57292475Y-141810456D01*
X57259956Y-141718623D01*
X57251634Y-141680734D01*
X57234042Y-141594704D01*
X57218881Y-141525315D01*
X57211934Y-141496957D01*
X57219762Y-141467982D01*
X57265268Y-141440053D01*
X57336565Y-141414407D01*
X57447189Y-141383578D01*
X57522631Y-141374738D01*
X57573860Y-141388645D01*
X57611845Y-141426060D01*
X57617140Y-141433841D01*
X57663812Y-141528462D01*
X57694142Y-141635971D01*
X57703870Y-141736445D01*
X58717827Y-141736445D01*
X58693540Y-141683788D01*
X58624391Y-141564970D01*
X58538146Y-141440660D01*
X58510478Y-141403572D01*
X58445507Y-141316684D01*
X58408007Y-141261855D01*
X58394755Y-141230663D01*
X58402531Y-141214684D01*
X58428113Y-141205496D01*
X58434144Y-141203968D01*
X58481242Y-141182873D01*
X58496600Y-141161413D01*
X58485616Y-141147154D01*
X58479888Y-141151246D01*
X58449617Y-141151349D01*
X58424964Y-141136429D01*
X58377013Y-141119988D01*
X58288739Y-141110840D01*
X58170043Y-141108622D01*
X58030821Y-141112967D01*
X57880971Y-141123511D01*
X57730392Y-141139889D01*
X57588982Y-141161736D01*
X57553477Y-141168561D01*
X57371028Y-141210307D01*
X57192210Y-141260249D01*
X57022396Y-141315925D01*
X56866959Y-141374877D01*
X56731269Y-141434643D01*
X56620698Y-141492764D01*
X56540620Y-141546779D01*
X56496404Y-141594229D01*
X56493424Y-141632653D01*
X56508287Y-141647213D01*
X56534460Y-141678380D01*
X56570930Y-141738109D01*
X56587895Y-141770062D01*
X56641813Y-141876425D01*
X56560349Y-141884362D01*
X56482500Y-141911056D01*
X56441556Y-141959130D01*
X56426439Y-141992679D01*
X56418973Y-142032619D01*
X56419429Y-142089148D01*
X56428080Y-142172461D01*
X56445194Y-142292754D01*
X56451538Y-142334436D01*
X56470438Y-142471837D01*
X56480449Y-142577318D01*
X56481100Y-142644343D01*
X56475375Y-142665254D01*
X56447251Y-142662280D01*
X56384436Y-142643379D01*
X56298706Y-142613149D01*
X56201839Y-142576187D01*
X56105613Y-142537089D01*
X56021805Y-142500452D01*
X55962193Y-142470875D01*
X55941017Y-142456682D01*
X55943993Y-142431266D01*
X55957545Y-142371394D01*
X55973057Y-142311365D01*
X55994971Y-142161827D01*
X55991869Y-141977195D01*
X55965098Y-141765799D01*
X55916005Y-141535967D01*
X55845939Y-141296030D01*
X55778665Y-141109940D01*
X55670805Y-140835581D01*
X55720997Y-140779740D01*
X56010087Y-140441178D01*
X56255629Y-140116557D01*
X56461221Y-139800912D01*
X56568825Y-139610143D01*
X56619502Y-139516510D01*
X56660188Y-139444808D01*
X56686015Y-139403396D01*
X56692713Y-139397384D01*
X56680500Y-139433757D01*
X56643156Y-139514270D01*
X56580682Y-139638917D01*
X56493083Y-139807693D01*
X56380361Y-140020591D01*
X56262179Y-140241104D01*
X56185873Y-140384107D01*
X56117179Y-140515198D01*
X56060061Y-140626619D01*
X56018487Y-140710612D01*
X55996423Y-140759416D01*
X55994621Y-140764526D01*
X55963501Y-140832070D01*
X55936959Y-140869950D01*
X55915393Y-140905258D01*
X55927615Y-140914400D01*
X55975526Y-140901434D01*
X56057642Y-140865674D01*
X56165455Y-140811825D01*
X56290458Y-140744592D01*
X56424143Y-140668679D01*
X56558002Y-140588793D01*
X56683527Y-140509639D01*
X56790149Y-140437388D01*
X56950598Y-140323316D01*
X57127623Y-140352551D01*
X57235957Y-140374412D01*
X57368479Y-140406857D01*
X57501348Y-140443923D01*
X57538674Y-140455356D01*
X57651834Y-140488927D01*
X57757279Y-140516718D01*
X57838573Y-140534534D01*
X57863420Y-140538233D01*
X57938288Y-140537037D01*
X57982237Y-140518943D01*
X57987897Y-140489239D01*
X57965732Y-140464821D01*
X57942279Y-140443918D01*
X57961580Y-140443815D01*
X57982250Y-140448725D01*
X58027227Y-140450157D01*
X58039400Y-140421159D01*
X58031378Y-140398357D01*
X58003661Y-140373425D01*
X57950780Y-140343753D01*
X57867260Y-140306731D01*
X57747632Y-140259750D01*
X57586422Y-140200199D01*
X57543645Y-140184724D01*
X57437226Y-140145272D01*
X57351072Y-140111311D01*
X57294836Y-140086784D01*
X57277762Y-140076200D01*
X57295659Y-140055728D01*
X57344966Y-140008269D01*
X57418808Y-139940229D01*
X57510311Y-139858012D01*
X57542865Y-139829168D01*
X57844412Y-139540234D01*
X58123449Y-139227839D01*
X58371819Y-138902120D01*
X58390716Y-138872458D01*
X56888839Y-138872458D01*
X56884867Y-138901912D01*
X56871626Y-138954730D01*
X56846392Y-139031491D01*
X56813857Y-139120334D01*
X56778714Y-139209396D01*
X56745655Y-139286814D01*
X56719372Y-139340727D01*
X56704559Y-139359271D01*
X56704078Y-139358944D01*
X56708317Y-139332908D01*
X56726965Y-139270488D01*
X56756554Y-139182849D01*
X56773525Y-139135378D01*
X56822765Y-139001369D01*
X56857174Y-138911726D01*
X56878494Y-138862796D01*
X56888468Y-138850924D01*
X56888839Y-138872458D01*
X58390716Y-138872458D01*
X58581366Y-138573212D01*
X58641875Y-138463300D01*
X58688746Y-138376487D01*
X58725395Y-138312398D01*
X58746631Y-138279921D01*
X58749859Y-138278488D01*
X58739263Y-138324757D01*
X58707088Y-138410524D01*
X58655748Y-138530514D01*
X58587658Y-138679449D01*
X58505232Y-138852052D01*
X58410884Y-139043045D01*
X58307029Y-139247152D01*
X58303900Y-139253214D01*
X58224100Y-139408907D01*
X58152705Y-139550470D01*
X58092887Y-139671423D01*
X58047822Y-139765286D01*
X58020684Y-139825579D01*
X58014000Y-139845026D01*
X58026758Y-139864912D01*
X58064717Y-139841388D01*
X58127406Y-139774879D01*
X58214354Y-139665811D01*
X58219028Y-139659647D01*
X58305597Y-139553463D01*
X58407154Y-139440824D01*
X58502301Y-139345418D01*
X58505831Y-139342147D01*
X58745119Y-139114224D01*
X58957491Y-138895274D01*
X59159373Y-138667774D01*
X59318215Y-138475491D01*
X59505524Y-138234700D01*
X58776000Y-138234700D01*
X58763300Y-138247400D01*
X58750600Y-138234700D01*
X58763300Y-138222000D01*
X58776000Y-138234700D01*
X59505524Y-138234700D01*
X59544793Y-138184220D01*
X59737133Y-137914355D01*
X59901045Y-137656046D01*
X60042338Y-137399443D01*
X60166822Y-137134697D01*
X60280306Y-136851957D01*
X60287947Y-136831350D01*
X60328122Y-136726187D01*
X60363140Y-136641378D01*
X60388817Y-136586638D01*
X60400051Y-136571000D01*
X60418349Y-136592037D01*
X60451376Y-136647383D01*
X60492218Y-136725386D01*
X60495101Y-136731210D01*
X60573142Y-136864773D01*
X60681945Y-137016742D01*
X60811581Y-137175108D01*
X60952121Y-137327864D01*
X61093637Y-137463004D01*
X61116883Y-137483196D01*
X61272956Y-137607713D01*
X61463204Y-137745229D01*
X61675517Y-137887807D01*
X61897786Y-138027508D01*
X62117901Y-138156394D01*
X62269048Y-138238454D01*
X62591014Y-138406509D01*
X62315457Y-138550124D01*
X62071109Y-138686424D01*
X61828899Y-138838232D01*
X61597847Y-138998928D01*
X61386973Y-139161894D01*
X61205299Y-139320510D01*
X61061846Y-139468155D01*
X61057476Y-139473220D01*
X61002796Y-139538269D01*
X60975787Y-139574977D01*
X60978691Y-139582464D01*
X61013750Y-139559852D01*
X61083207Y-139506260D01*
X61187653Y-139422150D01*
X61273230Y-139355391D01*
X61323052Y-139322503D01*
X61336321Y-139323140D01*
X61312238Y-139356954D01*
X61250002Y-139423598D01*
X61232241Y-139441502D01*
X61171913Y-139505967D01*
X61131973Y-139556808D01*
X61120310Y-139583862D01*
X61120951Y-139584816D01*
X61146463Y-139577427D01*
X61198972Y-139543120D01*
X61267763Y-139489014D01*
X61277281Y-139480950D01*
X61358503Y-139413776D01*
X61403409Y-139382050D01*
X61411982Y-139385772D01*
X61384202Y-139424943D01*
X61338769Y-139478416D01*
X61297646Y-139530342D01*
X61280569Y-139562763D01*
X61284033Y-139568200D01*
X61317488Y-139551130D01*
X61353911Y-139517609D01*
X61442220Y-139437398D01*
X61571665Y-139344023D01*
X61735496Y-139241271D01*
X61808609Y-139199900D01*
X61722400Y-139199900D01*
X61709700Y-139212600D01*
X61697000Y-139199900D01*
X61709700Y-139187200D01*
X61722400Y-139199900D01*
X61808609Y-139199900D01*
X61926961Y-139132931D01*
X62139309Y-139022790D01*
X62365788Y-138914636D01*
X62573904Y-138823526D01*
X62386766Y-138823526D01*
X62351515Y-138846092D01*
X62283319Y-138883986D01*
X62188447Y-138933564D01*
X62179600Y-138938074D01*
X62067678Y-138996046D01*
X61967020Y-139050015D01*
X61889526Y-139093490D01*
X61850099Y-139117804D01*
X61795403Y-139152561D01*
X61774450Y-139159058D01*
X61791087Y-139138344D01*
X61824000Y-139110691D01*
X61880487Y-139073101D01*
X61968184Y-139022256D01*
X62073441Y-138965259D01*
X62182608Y-138909212D01*
X62282033Y-138861219D01*
X62358068Y-138828381D01*
X62382800Y-138819933D01*
X62386766Y-138823526D01*
X62573904Y-138823526D01*
X62599646Y-138812257D01*
X62643150Y-138794264D01*
X62708585Y-138766659D01*
X62552444Y-138766659D01*
X62535200Y-138780800D01*
X62488896Y-138802293D01*
X62471700Y-138805422D01*
X62467157Y-138794940D01*
X62484400Y-138780800D01*
X62530705Y-138759306D01*
X62547900Y-138756177D01*
X62552444Y-138766659D01*
X62708585Y-138766659D01*
X62755643Y-138746807D01*
X62774181Y-138738466D01*
X62628334Y-138738466D01*
X62624847Y-138753566D01*
X62611400Y-138755400D01*
X62590493Y-138746106D01*
X62594467Y-138738466D01*
X62624611Y-138735426D01*
X62628334Y-138738466D01*
X62774181Y-138738466D01*
X62830636Y-138713066D01*
X62704534Y-138713066D01*
X62701047Y-138728166D01*
X62687600Y-138730000D01*
X62666693Y-138720706D01*
X62670667Y-138713066D01*
X62700811Y-138710026D01*
X62704534Y-138713066D01*
X62830636Y-138713066D01*
X62848746Y-138704918D01*
X62875010Y-138691900D01*
X62789200Y-138691900D01*
X62776500Y-138704600D01*
X62763800Y-138691900D01*
X62776500Y-138679200D01*
X62789200Y-138691900D01*
X62875010Y-138691900D01*
X62913563Y-138672792D01*
X62941202Y-138654624D01*
X62941600Y-138653503D01*
X62962031Y-138641100D01*
X62459000Y-138641100D01*
X62446300Y-138653800D01*
X62433600Y-138641100D01*
X62446300Y-138628400D01*
X62459000Y-138641100D01*
X62962031Y-138641100D01*
X62964443Y-138639636D01*
X63024082Y-138621632D01*
X63051050Y-138615700D01*
X62509800Y-138615700D01*
X62497100Y-138628400D01*
X62484400Y-138615700D01*
X62497100Y-138603000D01*
X62509800Y-138615700D01*
X63051050Y-138615700D01*
X63100350Y-138604856D01*
X63191687Y-138586766D01*
X63267925Y-138570360D01*
X63306107Y-138560928D01*
X63337035Y-138542022D01*
X63335744Y-138539500D01*
X62814600Y-138539500D01*
X62801900Y-138552200D01*
X62789200Y-138539500D01*
X62801900Y-138526800D01*
X62814600Y-138539500D01*
X63335744Y-138539500D01*
X63326340Y-138521130D01*
X63282609Y-138503993D01*
X63214427Y-138496351D01*
X63209459Y-138496320D01*
X63151333Y-138494426D01*
X63144945Y-138490317D01*
X62782797Y-138490317D01*
X62746066Y-138514761D01*
X62683091Y-138547227D01*
X62614500Y-138578067D01*
X62560917Y-138597636D01*
X62547900Y-138600171D01*
X62545002Y-138591275D01*
X62567190Y-138575431D01*
X62619763Y-138548208D01*
X62681574Y-138520630D01*
X62738559Y-138498248D01*
X62776655Y-138486615D01*
X62782797Y-138490317D01*
X63144945Y-138490317D01*
X63136895Y-138485140D01*
X63159074Y-138463050D01*
X63162469Y-138460370D01*
X63188929Y-138436785D01*
X63176724Y-138432448D01*
X63132100Y-138441083D01*
X63080627Y-138448697D01*
X63073485Y-138440874D01*
X63099893Y-138425200D01*
X62941600Y-138425200D01*
X62932307Y-138446107D01*
X62924667Y-138442133D01*
X62921627Y-138411989D01*
X62924667Y-138408266D01*
X62939767Y-138411753D01*
X62941600Y-138425200D01*
X63099893Y-138425200D01*
X63107661Y-138420590D01*
X63180138Y-138390817D01*
X63184809Y-138389097D01*
X63236167Y-138366974D01*
X63251424Y-138353009D01*
X63243841Y-138350789D01*
X63192025Y-138357610D01*
X63124210Y-138376529D01*
X63123731Y-138376696D01*
X63060527Y-138392548D01*
X63017123Y-138393177D01*
X63002796Y-138381416D01*
X63026822Y-138360095D01*
X63032223Y-138357466D01*
X62882334Y-138357466D01*
X62878847Y-138372566D01*
X62865400Y-138374400D01*
X62844493Y-138365106D01*
X62848467Y-138357466D01*
X62878611Y-138354426D01*
X62882334Y-138357466D01*
X63032223Y-138357466D01*
X63043200Y-138352123D01*
X63084994Y-138332611D01*
X63081755Y-138326835D01*
X63030678Y-138329884D01*
X63030500Y-138329898D01*
X62973854Y-138325521D01*
X62960651Y-138304272D01*
X62946840Y-138275988D01*
X62932318Y-138272800D01*
X62903560Y-138253204D01*
X62851469Y-138199335D01*
X62781797Y-138118569D01*
X62700294Y-138018283D01*
X62612711Y-137905855D01*
X62524801Y-137788661D01*
X62442314Y-137674078D01*
X62371001Y-137569483D01*
X62318440Y-137485400D01*
X62324312Y-137480308D01*
X62360911Y-137503291D01*
X62420373Y-137549389D01*
X62422068Y-137550781D01*
X62506619Y-137617394D01*
X62611883Y-137696268D01*
X62716397Y-137771353D01*
X62725700Y-137777840D01*
X62813489Y-137840475D01*
X62889317Y-137897479D01*
X62939990Y-137938849D01*
X62947933Y-137946328D01*
X63023695Y-138005590D01*
X63140320Y-138074861D01*
X63289630Y-138150882D01*
X63463453Y-138230396D01*
X63653611Y-138310143D01*
X63851931Y-138386865D01*
X64050237Y-138457304D01*
X64240353Y-138518201D01*
X64414105Y-138566299D01*
X64563317Y-138598338D01*
X64597095Y-138603637D01*
X64686892Y-138617059D01*
X64754081Y-138628399D01*
X64785584Y-138635429D01*
X64786347Y-138635879D01*
X64794797Y-138661336D01*
X64813667Y-138726890D01*
X64840431Y-138823519D01*
X64872565Y-138942196D01*
X64883885Y-138984536D01*
X64929933Y-139170684D01*
X64962120Y-139337736D01*
X64984315Y-139509495D01*
X64999439Y-139695200D01*
X65012208Y-139890608D01*
X65021438Y-140041175D01*
X65027034Y-140152740D01*
X65028903Y-140231143D01*
X65026949Y-140282227D01*
X65021080Y-140311831D01*
X65011200Y-140325797D01*
X64997215Y-140329964D01*
X64989190Y-140330200D01*
X64934028Y-140340035D01*
X64842961Y-140367003D01*
X64726368Y-140407299D01*
X64594628Y-140457118D01*
X64458120Y-140512652D01*
X64327222Y-140570098D01*
X64298108Y-140583599D01*
X63944903Y-140773281D01*
X63630419Y-140993013D01*
X63602000Y-141015877D01*
X63534813Y-141069499D01*
X63481255Y-141110286D01*
X63459236Y-141125453D01*
X63436655Y-141111003D01*
X63403424Y-141050369D01*
X63361157Y-140946659D01*
X63348822Y-140912839D01*
X63294402Y-140776407D01*
X63245274Y-140685369D01*
X63209049Y-140645854D01*
X63143199Y-140617340D01*
X63056262Y-140597655D01*
X62966490Y-140588836D01*
X62892140Y-140592919D01*
X62856408Y-140606522D01*
X62830446Y-140617516D01*
X62813519Y-140590419D01*
X62804580Y-140552857D01*
X62782554Y-140491821D01*
X62739464Y-140406404D01*
X62683941Y-140313440D01*
X62674121Y-140298450D01*
X62560196Y-140127000D01*
X62664358Y-140127000D01*
X62735410Y-140132267D01*
X62836895Y-140146315D01*
X62955259Y-140166509D01*
X63076949Y-140190215D01*
X63188411Y-140214800D01*
X63276093Y-140237630D01*
X63325272Y-140255429D01*
X63355285Y-140291681D01*
X63392658Y-140367302D01*
X63432640Y-140472326D01*
X63441774Y-140499803D01*
X63485641Y-140623750D01*
X63521382Y-140701612D01*
X63547855Y-140732800D01*
X63563915Y-140716726D01*
X63568422Y-140652802D01*
X63562463Y-140561909D01*
X63555818Y-140430696D01*
X63566542Y-140336541D01*
X63577849Y-140301784D01*
X63592968Y-140255637D01*
X63590230Y-140219587D01*
X63563209Y-140188579D01*
X63505474Y-140157562D01*
X63410599Y-140121483D01*
X63302188Y-140085103D01*
X63081300Y-140012700D01*
X62420900Y-140015560D01*
X62172034Y-140018045D01*
X61965443Y-140023964D01*
X61792651Y-140034558D01*
X61645179Y-140051069D01*
X61514551Y-140074737D01*
X61392289Y-140106804D01*
X61269917Y-140148511D01*
X61138956Y-140201099D01*
X61131233Y-140204375D01*
X60992656Y-140268452D01*
X60873474Y-140333437D01*
X60778862Y-140395392D01*
X60713994Y-140450377D01*
X60684044Y-140494454D01*
X60694187Y-140523684D01*
X60705105Y-140528734D01*
X60721005Y-140552644D01*
X60717760Y-140560969D01*
X60720024Y-140580651D01*
X60749844Y-140582165D01*
X60787760Y-140566580D01*
X60800211Y-140556429D01*
X60819017Y-140554570D01*
X60834372Y-140594636D01*
X60846125Y-140664379D01*
X60864657Y-140753161D01*
X60899548Y-140876959D01*
X60946784Y-141024252D01*
X61002353Y-141183519D01*
X61062242Y-141343239D01*
X61122439Y-141491891D01*
X61176509Y-141612900D01*
X61229326Y-141711482D01*
X61287647Y-141801839D01*
X61339212Y-141865054D01*
X61341117Y-141866900D01*
X61420913Y-141943100D01*
X62268500Y-141943100D01*
X62598681Y-141828800D01*
X62730647Y-141782582D01*
X62822217Y-141748189D01*
X62881158Y-141721290D01*
X62915237Y-141697556D01*
X62932222Y-141672660D01*
X62939880Y-141642273D01*
X62940504Y-141638300D01*
X62948536Y-141536700D01*
X62789200Y-141536700D01*
X62775445Y-141594988D01*
X62758720Y-141620520D01*
X62709201Y-141645967D01*
X62674900Y-141651000D01*
X62616612Y-141637244D01*
X62591080Y-141620520D01*
X62565633Y-141571000D01*
X62560600Y-141536700D01*
X62574356Y-141478411D01*
X62591080Y-141452880D01*
X62640600Y-141427432D01*
X62674900Y-141422400D01*
X62733189Y-141436155D01*
X62758720Y-141452880D01*
X62784168Y-141502399D01*
X62789200Y-141536700D01*
X62948536Y-141536700D01*
X62951444Y-141499920D01*
X62949260Y-141332493D01*
X62935207Y-141155692D01*
X62910544Y-140989190D01*
X62894241Y-140914400D01*
X62864608Y-140793218D01*
X62861435Y-140778649D01*
X61513135Y-140778649D01*
X61509202Y-140898839D01*
X61484256Y-141002117D01*
X61439004Y-141074917D01*
X61426842Y-141085169D01*
X61353328Y-141113317D01*
X61257248Y-141118468D01*
X61160506Y-141102177D01*
X61085011Y-141065997D01*
X61078481Y-141060450D01*
X61042339Y-141009695D01*
X61000170Y-140924563D01*
X60957622Y-140820117D01*
X60920346Y-140711420D01*
X60893990Y-140613534D01*
X60884200Y-140542460D01*
X60909493Y-140493241D01*
X60985124Y-140441160D01*
X61110729Y-140386436D01*
X61196943Y-140356593D01*
X61266673Y-140342228D01*
X61322382Y-140354812D01*
X61372623Y-140400480D01*
X61425949Y-140485368D01*
X61455135Y-140541812D01*
X61495348Y-140655118D01*
X61513135Y-140778649D01*
X62861435Y-140778649D01*
X62847724Y-140715716D01*
X62843177Y-140676509D01*
X62850557Y-140670210D01*
X62869455Y-140691435D01*
X62878179Y-140703604D01*
X62928615Y-140749174D01*
X62998785Y-140785267D01*
X63002978Y-140786699D01*
X63040313Y-140801468D01*
X63069608Y-140823169D01*
X63096033Y-140860543D01*
X63124761Y-140922331D01*
X63160966Y-141017275D01*
X63194057Y-141109641D01*
X63258418Y-141294777D01*
X63304631Y-141441493D01*
X63333095Y-141558662D01*
X63344209Y-141655158D01*
X63338371Y-141739855D01*
X63315978Y-141821625D01*
X63277431Y-141909342D01*
X63233700Y-141992566D01*
X63166083Y-142124291D01*
X63128992Y-142216350D01*
X63122631Y-142269838D01*
X63147203Y-142285846D01*
X63202912Y-142265467D01*
X63276009Y-142219583D01*
X63344700Y-142159346D01*
X63416872Y-142076949D01*
X63454955Y-142023656D01*
X63502710Y-141940571D01*
X63529942Y-141863890D01*
X63543521Y-141770533D01*
X63547163Y-141713917D01*
X63548120Y-141607313D01*
X63541641Y-141506852D01*
X63530380Y-141439944D01*
X63517977Y-141380420D01*
X63519096Y-141348122D01*
X63522113Y-141346200D01*
X63550488Y-141334237D01*
X63611835Y-141302175D01*
X63695386Y-141255752D01*
X63742316Y-141228837D01*
X63856418Y-141162721D01*
X63976151Y-141093317D01*
X64079169Y-141033581D01*
X64097300Y-141023063D01*
X64173248Y-140981373D01*
X64283263Y-140924088D01*
X64415451Y-140857255D01*
X64557920Y-140786919D01*
X64640038Y-140747161D01*
X65030376Y-140559671D01*
X65663517Y-140559671D01*
X65691242Y-140549646D01*
X65771194Y-140535285D01*
X65818457Y-140533400D01*
X65973834Y-140557300D01*
X66127056Y-140624472D01*
X66267351Y-140728126D01*
X66383949Y-140861468D01*
X66414445Y-140909211D01*
X66453281Y-140984364D01*
X66473884Y-141055039D01*
X66481105Y-141142806D01*
X66481135Y-141205791D01*
X66695334Y-141205791D01*
X66696893Y-141153243D01*
X66694895Y-141118017D01*
X66667244Y-140954010D01*
X66605540Y-140806381D01*
X66503633Y-140662063D01*
X66454099Y-140606453D01*
X66375586Y-140535195D01*
X66277501Y-140464071D01*
X66173333Y-140401054D01*
X66076573Y-140354115D01*
X66000710Y-140331229D01*
X65986670Y-140330200D01*
X65960012Y-140326326D01*
X65953783Y-140306202D01*
X65967078Y-140257078D01*
X65979021Y-140222590D01*
X66074858Y-139899700D01*
X66148514Y-139541348D01*
X66198317Y-139158548D01*
X66222596Y-138762315D01*
X66224786Y-138603000D01*
X66218158Y-138284763D01*
X66199294Y-137932764D01*
X66169686Y-137562152D01*
X66130823Y-137188073D01*
X66084194Y-136825678D01*
X66031290Y-136490114D01*
X66000924Y-136326847D01*
X65943713Y-136073623D01*
X65868119Y-135793815D01*
X65777596Y-135496903D01*
X65675600Y-135192369D01*
X65565586Y-134889693D01*
X65451009Y-134598357D01*
X65335325Y-134327840D01*
X65221988Y-134087624D01*
X65114455Y-133887191D01*
X65107465Y-133875286D01*
X65026605Y-133750821D01*
X64918264Y-133602094D01*
X64789413Y-133437176D01*
X64647023Y-133264142D01*
X64498063Y-133091065D01*
X64349505Y-132926017D01*
X64208318Y-132777072D01*
X64081473Y-132652303D01*
X63975941Y-132559783D01*
X63962751Y-132549470D01*
X63752179Y-132407439D01*
X63505391Y-132273415D01*
X63236951Y-132153994D01*
X62961424Y-132055777D01*
X62740357Y-131995674D01*
X62581746Y-131967602D01*
X62382526Y-131946046D01*
X62152594Y-131932050D01*
X62128800Y-131931125D01*
X61854370Y-131928208D01*
X61620367Y-131942758D01*
X61418837Y-131976755D01*
X61241826Y-132032178D01*
X61081381Y-132111005D01*
X60929547Y-132215216D01*
X60903560Y-132235973D01*
X60758126Y-132354430D01*
X60741334Y-132287525D01*
X60733892Y-132219547D01*
X60733585Y-132115320D01*
X60739390Y-131988738D01*
X60750285Y-131853693D01*
X60765245Y-131724077D01*
X60783249Y-131613783D01*
X60794567Y-131564564D01*
X60820314Y-131482416D01*
X60862160Y-131363781D01*
X60916090Y-131218822D01*
X60978090Y-131057700D01*
X61044148Y-130890579D01*
X61110248Y-130727619D01*
X61172376Y-130578983D01*
X61226519Y-130454834D01*
X61266794Y-130369044D01*
X61400638Y-130130755D01*
X61547033Y-129922354D01*
X61699075Y-129753489D01*
X61723740Y-129730535D01*
X61794411Y-129663564D01*
X61847395Y-129607607D01*
X61873532Y-129572516D01*
X61874800Y-129568028D01*
X61854571Y-129565902D01*
X61800519Y-129584656D01*
X61800519Y-129584656D01*
G37*
X61800519Y-129584656D02*
X61722594Y-129619399D01*
X61630748Y-129665236D01*
X61534932Y-129717274D01*
X61445099Y-129770618D01*
X61392200Y-129805354D01*
X61285985Y-129890377D01*
X61162170Y-130007717D01*
X61030419Y-130146829D01*
X60900398Y-130297168D01*
X60781771Y-130448187D01*
X60709893Y-130549846D01*
X60561287Y-130787082D01*
X60430679Y-131029806D01*
X60309191Y-131295348D01*
X60236987Y-131472819D01*
X60193733Y-131578619D01*
X60156166Y-131661826D01*
X60128306Y-131714116D01*
X60114176Y-131727164D01*
X60114158Y-131727135D01*
X60077377Y-131696350D01*
X60003358Y-131654180D01*
X59903023Y-131605411D01*
X59787290Y-131554829D01*
X59667080Y-131507221D01*
X59553312Y-131467372D01*
X59461800Y-131441218D01*
X59251550Y-131406849D01*
X59004838Y-131393164D01*
X58731184Y-131399254D01*
X58440111Y-131424211D01*
X58141137Y-131467127D01*
X57843786Y-131527093D01*
X57557576Y-131603200D01*
X57467900Y-131631471D01*
X57320022Y-131686655D01*
X57140906Y-131763935D01*
X56941836Y-131857610D01*
X56734097Y-131961983D01*
X56528973Y-132071355D01*
X56337750Y-132180028D01*
X56171711Y-132282303D01*
X56147100Y-132298444D01*
X55856498Y-132503947D01*
X55599394Y-132715046D01*
X55371085Y-132938000D01*
X55166863Y-133179071D01*
X54982024Y-133444518D01*
X54811863Y-133740600D01*
X54651673Y-134073579D01*
X54496750Y-134449713D01*
X54462792Y-134539182D01*
X54288145Y-135051899D01*
X54148610Y-135566661D01*
X54042019Y-136094025D01*
X53966203Y-136644548D01*
X53922380Y-137170338D01*
X53904729Y-137666864D01*
X53914757Y-138135699D01*
X53953665Y-138592504D01*
X54022649Y-139052937D01*
X54093300Y-139403100D01*
X54163931Y-139709984D01*
X54231650Y-139976680D01*
X54299996Y-140213386D01*
X54372508Y-140430304D01*
X54452727Y-140637631D01*
X54544191Y-140845569D01*
X54650440Y-141064317D01*
X54710302Y-141181100D01*
X54874372Y-141489011D01*
X55022649Y-141751289D01*
X55154868Y-141967529D01*
X55270765Y-142137326D01*
X55370075Y-142260278D01*
X55452533Y-142335980D01*
X55477551Y-142351336D01*
X55529001Y-142386185D01*
X55531944Y-142413736D01*
X55485563Y-142435512D01*
X55425729Y-142447749D01*
X55310008Y-142489024D01*
X55210474Y-142566336D01*
X55144038Y-142666426D01*
X55120867Y-142776407D01*
X55126342Y-142913334D01*
X55158724Y-143063445D01*
X55212005Y-143203982D01*
X55286975Y-143334617D01*
X55398418Y-143481981D01*
X55511298Y-143609935D01*
X55612785Y-143723484D01*
X55716867Y-143846782D01*
X55809981Y-143963412D01*
X55867916Y-144041535D01*
X55942613Y-144140356D01*
X56039910Y-144258473D01*
X56146092Y-144379661D01*
X56229226Y-144468964D01*
X56323667Y-144565853D01*
X56391545Y-144631247D01*
X56440832Y-144670902D01*
X56479503Y-144690577D01*
X56515530Y-144696028D01*
X56541757Y-144694628D01*
X56587117Y-144692648D01*
X56619406Y-144703393D01*
X56648141Y-144736084D01*
X56682844Y-144799944D01*
X56711415Y-144858993D01*
X56779110Y-144988528D01*
X56853703Y-145111398D01*
X56929957Y-145221033D01*
X57002633Y-145310866D01*
X57066493Y-145374327D01*
X57116298Y-145404848D01*
X57143216Y-145400451D01*
X57173672Y-145399664D01*
X57204741Y-145412094D01*
X57247937Y-145456647D01*
X57301014Y-145547906D01*
X57362703Y-145683017D01*
X57431736Y-145859126D01*
X57506845Y-146073379D01*
X57530621Y-146145427D01*
X57574708Y-146275023D01*
X57616595Y-146387746D01*
X57652631Y-146474504D01*
X57679161Y-146526202D01*
X57687510Y-146535936D01*
X57723389Y-146539184D01*
X57786872Y-146517273D01*
X57883574Y-146468040D01*
X57926597Y-146443786D01*
X58030406Y-146387492D01*
X58130983Y-146338488D01*
X58211162Y-146304973D01*
X58230625Y-146298592D01*
X58332950Y-146269129D01*
X58611625Y-146464021D01*
X58719164Y-146539895D01*
X58814749Y-146608566D01*
X58888960Y-146663179D01*
X58932376Y-146696881D01*
X58935943Y-146699972D01*
X58963954Y-146730174D01*
X58955782Y-146751317D01*
X58910543Y-146776844D01*
X58857534Y-146812910D01*
X58785555Y-146873750D01*
X58709762Y-146946509D01*
X58706362Y-146950004D01*
X58591934Y-147054563D01*
X58453041Y-147161277D01*
X58307152Y-147257957D01*
X58171739Y-147332413D01*
X58134138Y-147349276D01*
X58059798Y-147375425D01*
X57943619Y-147410195D01*
X57793456Y-147451673D01*
X57617163Y-147497942D01*
X57422597Y-147547087D01*
X57217613Y-147597191D01*
X57010067Y-147646338D01*
X56807812Y-147692614D01*
X56618706Y-147734102D01*
X56450603Y-147768886D01*
X56311358Y-147795050D01*
X56294518Y-147797933D01*
X56089740Y-147835054D01*
X55930115Y-147870470D01*
X55810127Y-147906163D01*
X55724265Y-147944114D01*
X55667014Y-147986305D01*
X55632861Y-148034719D01*
X55632287Y-148035956D01*
X55606096Y-148077092D01*
X55554694Y-148146001D01*
X55486194Y-148232111D01*
X55428354Y-148301768D01*
X55297037Y-148472455D01*
X55155384Y-148684224D01*
X55007358Y-148929408D01*
X54856922Y-149200343D01*
X54708039Y-149489365D01*
X54564672Y-149788807D01*
X54430786Y-150091006D01*
X54310343Y-150388296D01*
X54217017Y-150644441D01*
X54104546Y-150972800D01*
X59691368Y-150972800D01*
X59678300Y-150915650D01*
X59638902Y-150733954D01*
X59595194Y-150516437D01*
X59549404Y-150275618D01*
X59503761Y-150024016D01*
X59460493Y-149774153D01*
X59421830Y-149538548D01*
X59390000Y-149329721D01*
X59370482Y-149186603D01*
X59349512Y-149016543D01*
X59334120Y-148878367D01*
X59323869Y-148759769D01*
X59318320Y-148648442D01*
X59317034Y-148532081D01*
X59319573Y-148398380D01*
X59325500Y-148235032D01*
X59331556Y-148093578D01*
X59339278Y-147927288D01*
X59346965Y-147778691D01*
X59354177Y-147655062D01*
X59360472Y-147563673D01*
X59365410Y-147511799D01*
X59367374Y-147502759D01*
X59385144Y-147516562D01*
X59420419Y-147562930D01*
X59453774Y-147613380D01*
X59517124Y-147703675D01*
X59603693Y-147813122D01*
X59703888Y-147930957D01*
X59808112Y-148046415D01*
X59906772Y-148148731D01*
X59990273Y-148227141D01*
X60027485Y-148257067D01*
X60148363Y-148326362D01*
X60284661Y-148375695D01*
X60417631Y-148399588D01*
X60506726Y-148397082D01*
X60583101Y-148377177D01*
X60680384Y-148341675D01*
X60758082Y-148307357D01*
X60852572Y-148256652D01*
X60977141Y-148182701D01*
X61121048Y-148092497D01*
X61273549Y-147993034D01*
X61423904Y-147891302D01*
X61561371Y-147794295D01*
X61664705Y-147717186D01*
X61739906Y-147659675D01*
X61798054Y-147616631D01*
X61828960Y-147595556D01*
X61831234Y-147594600D01*
X61830989Y-147618386D01*
X61823023Y-147684869D01*
X61808523Y-147786731D01*
X61788674Y-147916654D01*
X61764663Y-148067322D01*
X61737677Y-148231417D01*
X61708901Y-148401623D01*
X61679522Y-148570621D01*
X61650727Y-148731096D01*
X61623701Y-148875730D01*
X61622582Y-148881559D01*
X61564279Y-149167529D01*
X61496631Y-149470144D01*
X61423090Y-149775468D01*
X61347106Y-150069566D01*
X61272134Y-150338504D01*
X61215018Y-150526758D01*
X61176904Y-150652050D01*
X61146175Y-150763517D01*
X61125552Y-150850476D01*
X61117752Y-150902246D01*
X61118014Y-150907758D01*
X61125500Y-150960100D01*
X64598950Y-150966540D01*
X65014628Y-150967200D01*
X65416109Y-150967621D01*
X65800485Y-150967810D01*
X66164849Y-150967776D01*
X66506292Y-150967525D01*
X66821906Y-150967065D01*
X67108784Y-150966403D01*
X67364017Y-150965548D01*
X67584698Y-150964506D01*
X67767919Y-150963286D01*
X67910771Y-150961894D01*
X68010347Y-150960338D01*
X68063739Y-150958626D01*
X68072400Y-150957551D01*
X68058798Y-150931986D01*
X68021594Y-150873028D01*
X67966188Y-150788987D01*
X67897985Y-150688174D01*
X67885060Y-150669317D01*
X67796109Y-150536867D01*
X67701112Y-150390633D01*
X67612801Y-150250444D01*
X67556490Y-150157606D01*
X67434507Y-149957825D01*
X67317725Y-149779164D01*
X67210246Y-149627354D01*
X67116175Y-149508127D01*
X67039617Y-149427212D01*
X67023706Y-149413650D01*
X66959693Y-149369179D01*
X66894669Y-149343652D01*
X66808351Y-149330466D01*
X66757006Y-149326789D01*
X66647779Y-149315418D01*
X66579410Y-149295206D01*
X66548400Y-149271798D01*
X66517195Y-149234779D01*
X66461596Y-149168668D01*
X66389860Y-149083288D01*
X66320981Y-149001252D01*
X66222512Y-148884884D01*
X66113852Y-148757974D01*
X66011672Y-148639934D01*
X65963722Y-148585200D01*
X65889394Y-148498408D01*
X65793890Y-148383234D01*
X65686946Y-148251614D01*
X65578294Y-148115479D01*
X65518287Y-148039100D01*
X65252427Y-147712759D01*
X65000736Y-147433600D01*
X64761891Y-147200426D01*
X64534570Y-147012038D01*
X64317451Y-146867238D01*
X64182612Y-146800644D01*
X62095341Y-146800644D01*
X62094690Y-146802775D01*
X62080192Y-146843742D01*
X62052158Y-146919718D01*
X62015205Y-147018266D01*
X61989325Y-147086600D01*
X61949675Y-147191261D01*
X61916510Y-147279482D01*
X61894213Y-147339568D01*
X61887608Y-147358044D01*
X61862083Y-147384893D01*
X61799654Y-147433410D01*
X61707064Y-147499271D01*
X61591057Y-147578152D01*
X61458376Y-147665727D01*
X61315763Y-147757674D01*
X61169962Y-147849667D01*
X61027716Y-147937384D01*
X60895768Y-148016499D01*
X60780861Y-148082688D01*
X60689738Y-148131628D01*
X60655600Y-148148097D01*
X60531160Y-148186491D01*
X60392798Y-148200988D01*
X60262087Y-148190579D01*
X60191235Y-148169888D01*
X60131326Y-148131699D01*
X60048515Y-148061138D01*
X59950474Y-147966401D01*
X59844874Y-147855685D01*
X59739386Y-147737188D01*
X59641680Y-147619107D01*
X59559428Y-147509640D01*
X59524207Y-147457102D01*
X59463738Y-147358092D01*
X59427428Y-147286208D01*
X59409956Y-147227203D01*
X59406001Y-147166831D01*
X59406824Y-147142775D01*
X59415852Y-147023625D01*
X59431941Y-146943090D01*
X59459767Y-146889040D01*
X59504002Y-146849346D01*
X59524992Y-146836147D01*
X59610213Y-146785866D01*
X59679551Y-146949013D01*
X59734961Y-147065812D01*
X59782078Y-147136720D01*
X59819789Y-147160285D01*
X59835695Y-147152972D01*
X59843286Y-147115845D01*
X59838496Y-147039928D01*
X59823207Y-146935186D01*
X59799302Y-146811585D01*
X59768665Y-146679092D01*
X59733178Y-146547670D01*
X59703281Y-146452135D01*
X59668334Y-146344920D01*
X59641797Y-146256791D01*
X59626599Y-146197943D01*
X59624710Y-146178624D01*
X59640981Y-146175983D01*
X59679140Y-146183291D01*
X59744425Y-146202175D01*
X59842073Y-146234265D01*
X59977320Y-146281188D01*
X60134900Y-146337225D01*
X60465100Y-146455468D01*
X60795300Y-146443563D01*
X61023774Y-146427290D01*
X61218274Y-146394184D01*
X61393847Y-146340728D01*
X61565137Y-146263615D01*
X61617905Y-146239261D01*
X61645174Y-146232408D01*
X61646200Y-146233797D01*
X61641301Y-146263453D01*
X61628735Y-146326434D01*
X61618126Y-146376806D01*
X61605164Y-146470572D01*
X61601980Y-146573620D01*
X61607429Y-146673623D01*
X61620369Y-146758255D01*
X61639653Y-146815188D01*
X61660438Y-146832600D01*
X61692764Y-146810969D01*
X61711687Y-146770229D01*
X61733494Y-146725048D01*
X61777666Y-146716269D01*
X61794721Y-146718439D01*
X61861349Y-146728128D01*
X61949689Y-146740054D01*
X61985210Y-146744635D01*
X62059400Y-146757371D01*
X62092783Y-146774274D01*
X62095341Y-146800644D01*
X64182612Y-146800644D01*
X64113941Y-146766729D01*
X63972445Y-146723691D01*
X63794496Y-146691068D01*
X63593522Y-146669652D01*
X63382949Y-146660232D01*
X63176204Y-146663598D01*
X62986713Y-146680541D01*
X62898382Y-146695193D01*
X62842149Y-146701189D01*
X62809444Y-146681692D01*
X62781069Y-146625971D01*
X62745007Y-146540500D01*
X62900454Y-146397884D01*
X62986294Y-146313329D01*
X63086627Y-146205733D01*
X63185375Y-146092627D01*
X63229314Y-146039258D01*
X63320140Y-145930777D01*
X63402684Y-145840828D01*
X63471733Y-145774263D01*
X63522074Y-145735938D01*
X63548492Y-145730706D01*
X63551200Y-145739566D01*
X63569489Y-145782654D01*
X63617520Y-145840367D01*
X63685042Y-145904548D01*
X63761807Y-145967041D01*
X63837562Y-146019690D01*
X63902057Y-146054337D01*
X63945042Y-146062825D01*
X63952431Y-146058835D01*
X63958629Y-146030414D01*
X63966801Y-145961920D01*
X63975831Y-145863987D01*
X63983696Y-145760561D01*
X63999290Y-145614375D01*
X64027084Y-145433133D01*
X64064369Y-145230342D01*
X64108437Y-145019509D01*
X64156580Y-144814142D01*
X64206089Y-144627747D01*
X64221086Y-144576609D01*
X64249535Y-144503954D01*
X64297405Y-144403743D01*
X64357038Y-144291399D01*
X64398565Y-144219038D01*
X64466935Y-144097895D01*
X64533449Y-143969851D01*
X64588149Y-143854501D01*
X64609353Y-143804178D01*
X64653512Y-143702464D01*
X64697243Y-143633045D01*
X64752782Y-143579017D01*
X64794291Y-143548713D01*
X64916219Y-143459493D01*
X65063627Y-143342558D01*
X65226571Y-143206600D01*
X65395105Y-143060315D01*
X65559284Y-142912396D01*
X65709163Y-142771537D01*
X65834797Y-142646431D01*
X65874425Y-142604490D01*
X66092693Y-142361508D01*
X66273080Y-142144984D01*
X66418031Y-141950485D01*
X66529994Y-141773581D01*
X66611415Y-141609837D01*
X66664741Y-141454821D01*
X66692418Y-141304100D01*
X66695334Y-141205791D01*
X66481135Y-141205791D01*
X66469496Y-141347222D01*
X66435805Y-141482971D01*
X66375669Y-141624644D01*
X66284694Y-141783843D01*
X66230782Y-141866900D01*
X66115967Y-142023934D01*
X65968481Y-142202619D01*
X65796446Y-142394327D01*
X65607982Y-142590431D01*
X65411210Y-142782303D01*
X65214251Y-142961315D01*
X65143149Y-143022399D01*
X65029612Y-143118219D01*
X64930562Y-143201691D01*
X64852072Y-143267706D01*
X64800215Y-143311157D01*
X64781064Y-143326934D01*
X64781062Y-143326934D01*
X64784879Y-143304134D01*
X64796813Y-143242697D01*
X64814682Y-143153732D01*
X64824596Y-143105150D01*
X64868457Y-142884222D01*
X64913197Y-142646098D01*
X64957401Y-142399398D01*
X64999651Y-142152743D01*
X65038532Y-141914754D01*
X65072627Y-141694051D01*
X65100519Y-141499254D01*
X65120792Y-141338986D01*
X65130313Y-141244600D01*
X65145783Y-141081833D01*
X65165235Y-140959953D01*
X65194435Y-140869077D01*
X65239147Y-140799323D01*
X65305139Y-140740809D01*
X65398175Y-140683653D01*
X65484020Y-140638370D01*
X65600801Y-140582349D01*
X65663517Y-140559671D01*
X65030376Y-140559671D01*
X65012755Y-140806885D01*
X64985913Y-141101488D01*
X64945519Y-141415546D01*
X64890136Y-141759179D01*
X64834996Y-142057400D01*
X64801785Y-142230530D01*
X64767171Y-142413850D01*
X64734341Y-142590292D01*
X64706484Y-142742791D01*
X64695067Y-142806700D01*
X64625185Y-143148212D01*
X64541648Y-143451264D01*
X64440493Y-143727265D01*
X64317753Y-143987622D01*
X64230010Y-144144609D01*
X64116618Y-144324348D01*
X64000504Y-144480590D01*
X63873166Y-144621730D01*
X63726104Y-144756164D01*
X63550818Y-144892285D01*
X63338805Y-145038491D01*
X63297200Y-145065799D01*
X63102690Y-145188804D01*
X62886066Y-145319032D01*
X62654598Y-145452634D01*
X62415555Y-145585762D01*
X62176208Y-145714569D01*
X61943826Y-145835206D01*
X61725679Y-145943826D01*
X61529036Y-146036580D01*
X61361168Y-146109621D01*
X61235629Y-146157024D01*
X61127861Y-146186143D01*
X60992835Y-146212729D01*
X60844929Y-146234998D01*
X60698521Y-146251169D01*
X60567989Y-146259457D01*
X60467713Y-146258079D01*
X60443821Y-146255217D01*
X60390270Y-146239603D01*
X60304848Y-146207225D01*
X60201373Y-146163529D01*
X60136057Y-146133995D01*
X59995440Y-146070466D01*
X59864042Y-146015529D01*
X59731505Y-145965639D01*
X59587475Y-145917254D01*
X59421596Y-145866829D01*
X59223511Y-145810820D01*
X59068031Y-145768517D01*
X58834825Y-145703481D01*
X58572854Y-145626593D01*
X58295168Y-145541959D01*
X58014820Y-145453687D01*
X57744860Y-145365886D01*
X57498339Y-145282661D01*
X57293368Y-145209978D01*
X57180239Y-145167572D01*
X57103176Y-145134021D01*
X57050333Y-145101299D01*
X57009863Y-145061378D01*
X56969921Y-145006230D01*
X56951628Y-144978400D01*
X56894934Y-144880112D01*
X56826018Y-144742611D01*
X56748707Y-144574879D01*
X56693205Y-144446779D01*
X56522063Y-144446779D01*
X56507253Y-144441544D01*
X56470294Y-144406930D01*
X56406192Y-144339838D01*
X56361890Y-144292600D01*
X56267008Y-144186032D01*
X56168556Y-144066899D01*
X56083264Y-143955696D01*
X56058790Y-143921245D01*
X55989971Y-143828484D01*
X55898326Y-143714703D01*
X55796521Y-143595229D01*
X55709704Y-143498761D01*
X55543815Y-143304531D01*
X55424473Y-143129280D01*
X55351754Y-142973171D01*
X55325734Y-142836368D01*
X55346490Y-142719035D01*
X55346794Y-142718298D01*
X55378680Y-142666322D01*
X55431999Y-142630329D01*
X55507060Y-142603578D01*
X55635586Y-142573135D01*
X55738009Y-142569672D01*
X55831601Y-142593729D01*
X55878394Y-142615176D01*
X55946547Y-142659136D01*
X55981539Y-142712770D01*
X55993931Y-142760729D01*
X56008517Y-142821697D01*
X56035170Y-142917995D01*
X56070166Y-143036668D01*
X56109786Y-143164763D01*
X56111974Y-143171662D01*
X56148438Y-143289922D01*
X56177162Y-143389752D01*
X56195599Y-143461776D01*
X56201203Y-143496615D01*
X56200645Y-143498222D01*
X56179741Y-143485327D01*
X56130006Y-143442142D01*
X56058059Y-143374762D01*
X55970521Y-143289283D01*
X55933174Y-143251943D01*
X55840211Y-143161113D01*
X55758685Y-143086548D01*
X55695603Y-143034276D01*
X55657974Y-143010321D01*
X55651754Y-143009928D01*
X55627678Y-143052376D01*
X55643876Y-143125221D01*
X55700399Y-143228658D01*
X55713608Y-143248684D01*
X55774788Y-143333015D01*
X55860462Y-143442529D01*
X55960557Y-143565183D01*
X56065000Y-143688932D01*
X56163717Y-143801733D01*
X56246637Y-143891542D01*
X56276186Y-143921318D01*
X56331262Y-143987424D01*
X56384883Y-144079997D01*
X56440875Y-144206726D01*
X56503063Y-144375297D01*
X56505209Y-144381500D01*
X56519717Y-144425731D01*
X56522063Y-144446779D01*
X56693205Y-144446779D01*
X56666828Y-144385901D01*
X56584211Y-144184660D01*
X56504683Y-143980141D01*
X56432073Y-143781326D01*
X56393250Y-143668001D01*
X56336973Y-143506331D01*
X56272585Y-143333320D01*
X56207248Y-143167556D01*
X56148126Y-143027626D01*
X56136573Y-143001954D01*
X56086764Y-142890897D01*
X56045872Y-142795854D01*
X56018039Y-142726734D01*
X56007410Y-142693445D01*
X56007400Y-142693102D01*
X56024588Y-142668536D01*
X56066536Y-142672733D01*
X56118825Y-142702126D01*
X56146590Y-142727548D01*
X56206361Y-142768255D01*
X56298223Y-142805411D01*
X56403524Y-142832989D01*
X56503614Y-142844963D01*
X56510301Y-142845064D01*
X56548327Y-142869402D01*
X56595235Y-142939632D01*
X56624186Y-142997244D01*
X56690882Y-143114398D01*
X56759014Y-143181814D01*
X56768975Y-143187479D01*
X56866562Y-143220005D01*
X56962448Y-143222023D01*
X57039729Y-143194163D01*
X57060052Y-143176600D01*
X57088709Y-143123824D01*
X57074315Y-143085913D01*
X57028251Y-143073305D01*
X56937328Y-143048573D01*
X56858102Y-142976802D01*
X56793515Y-142860993D01*
X56777111Y-142817162D01*
X56745719Y-142713105D01*
X56709843Y-142575862D01*
X56673444Y-142422342D01*
X56640481Y-142269450D01*
X56614915Y-142134096D01*
X56609852Y-142103122D01*
X56618157Y-142042192D01*
X56659413Y-142009725D01*
X56723192Y-142007743D01*
X56799071Y-142038267D01*
X56830813Y-142060295D01*
X56879071Y-142093588D01*
X56907678Y-142104654D01*
X56909201Y-142103866D01*
X56901243Y-142079388D01*
X56871214Y-142023055D01*
X56824917Y-141945482D01*
X56806924Y-141916820D01*
X56754776Y-141831682D01*
X56715307Y-141761427D01*
X56695150Y-141718064D01*
X56693861Y-141712155D01*
X56714857Y-141691113D01*
X56770079Y-141656452D01*
X56847014Y-141614455D01*
X56933148Y-141571402D01*
X57015969Y-141533576D01*
X57082962Y-141507256D01*
X57119295Y-141498600D01*
X57139094Y-141507009D01*
X57154839Y-141537934D01*
X57168993Y-141599915D01*
X57184022Y-141701494D01*
X57188936Y-141739900D01*
X57212640Y-141862864D01*
X57254447Y-142013608D01*
X57310019Y-142181174D01*
X57375016Y-142354602D01*
X57445102Y-142522934D01*
X57515937Y-142675212D01*
X57583183Y-142800477D01*
X57642502Y-142887769D01*
X57644135Y-142889713D01*
X57714496Y-142972726D01*
X58111898Y-142958913D01*
X58284592Y-142952378D01*
X58416206Y-142945464D01*
X58516446Y-142936719D01*
X58595023Y-142924690D01*
X58661643Y-142907925D01*
X58726015Y-142884974D01*
X58791226Y-142857309D01*
X58867319Y-142820244D01*
X58908924Y-142785798D01*
X58929451Y-142739665D01*
X58936996Y-142701839D01*
X58948506Y-142615330D01*
X58948607Y-142611783D01*
X58721603Y-142611783D01*
X58684231Y-142665195D01*
X58614819Y-142691601D01*
X58598200Y-142692400D01*
X58536258Y-142681311D01*
X58501681Y-142661919D01*
X58478210Y-142614423D01*
X58471200Y-142565400D01*
X58490363Y-142489214D01*
X58539459Y-142445977D01*
X58605901Y-142440840D01*
X58677100Y-142478958D01*
X58678750Y-142480436D01*
X58721565Y-142545488D01*
X58721603Y-142611783D01*
X58948607Y-142611783D01*
X58950765Y-142536288D01*
X58942149Y-142452261D01*
X58921035Y-142350797D01*
X58885798Y-142219442D01*
X58864490Y-142145859D01*
X58806981Y-141960376D01*
X58752200Y-141810971D01*
X58717827Y-141736445D01*
X57703870Y-141736445D01*
X57694649Y-141796460D01*
X57671414Y-141844157D01*
X57650532Y-141859642D01*
X57619507Y-141869627D01*
X57590851Y-141892720D01*
X57532482Y-141918030D01*
X57450603Y-141911824D01*
X57360041Y-141875919D01*
X57336305Y-141861553D01*
X57292475Y-141810456D01*
X57259956Y-141718623D01*
X57251634Y-141680734D01*
X57234042Y-141594704D01*
X57218881Y-141525315D01*
X57211934Y-141496957D01*
X57219762Y-141467982D01*
X57265268Y-141440053D01*
X57336565Y-141414407D01*
X57447189Y-141383578D01*
X57522631Y-141374738D01*
X57573860Y-141388645D01*
X57611845Y-141426060D01*
X57617140Y-141433841D01*
X57663812Y-141528462D01*
X57694142Y-141635971D01*
X57703870Y-141736445D01*
X58717827Y-141736445D01*
X58693540Y-141683788D01*
X58624391Y-141564970D01*
X58538146Y-141440660D01*
X58510478Y-141403572D01*
X58445507Y-141316684D01*
X58408007Y-141261855D01*
X58394755Y-141230663D01*
X58402531Y-141214684D01*
X58428113Y-141205496D01*
X58434144Y-141203968D01*
X58481242Y-141182873D01*
X58496600Y-141161413D01*
X58485616Y-141147154D01*
X58479888Y-141151246D01*
X58449617Y-141151349D01*
X58424964Y-141136429D01*
X58377013Y-141119988D01*
X58288739Y-141110840D01*
X58170043Y-141108622D01*
X58030821Y-141112967D01*
X57880971Y-141123511D01*
X57730392Y-141139889D01*
X57588982Y-141161736D01*
X57553477Y-141168561D01*
X57371028Y-141210307D01*
X57192210Y-141260249D01*
X57022396Y-141315925D01*
X56866959Y-141374877D01*
X56731269Y-141434643D01*
X56620698Y-141492764D01*
X56540620Y-141546779D01*
X56496404Y-141594229D01*
X56493424Y-141632653D01*
X56508287Y-141647213D01*
X56534460Y-141678380D01*
X56570930Y-141738109D01*
X56587895Y-141770062D01*
X56641813Y-141876425D01*
X56560349Y-141884362D01*
X56482500Y-141911056D01*
X56441556Y-141959130D01*
X56426439Y-141992679D01*
X56418973Y-142032619D01*
X56419429Y-142089148D01*
X56428080Y-142172461D01*
X56445194Y-142292754D01*
X56451538Y-142334436D01*
X56470438Y-142471837D01*
X56480449Y-142577318D01*
X56481100Y-142644343D01*
X56475375Y-142665254D01*
X56447251Y-142662280D01*
X56384436Y-142643379D01*
X56298706Y-142613149D01*
X56201839Y-142576187D01*
X56105613Y-142537089D01*
X56021805Y-142500452D01*
X55962193Y-142470875D01*
X55941017Y-142456682D01*
X55943993Y-142431266D01*
X55957545Y-142371394D01*
X55973057Y-142311365D01*
X55994971Y-142161827D01*
X55991869Y-141977195D01*
X55965098Y-141765799D01*
X55916005Y-141535967D01*
X55845939Y-141296030D01*
X55778665Y-141109940D01*
X55670805Y-140835581D01*
X55720997Y-140779740D01*
X56010087Y-140441178D01*
X56255629Y-140116557D01*
X56461221Y-139800912D01*
X56568825Y-139610143D01*
X56619502Y-139516510D01*
X56660188Y-139444808D01*
X56686015Y-139403396D01*
X56692713Y-139397384D01*
X56680500Y-139433757D01*
X56643156Y-139514270D01*
X56580682Y-139638917D01*
X56493083Y-139807693D01*
X56380361Y-140020591D01*
X56262179Y-140241104D01*
X56185873Y-140384107D01*
X56117179Y-140515198D01*
X56060061Y-140626619D01*
X56018487Y-140710612D01*
X55996423Y-140759416D01*
X55994621Y-140764526D01*
X55963501Y-140832070D01*
X55936959Y-140869950D01*
X55915393Y-140905258D01*
X55927615Y-140914400D01*
X55975526Y-140901434D01*
X56057642Y-140865674D01*
X56165455Y-140811825D01*
X56290458Y-140744592D01*
X56424143Y-140668679D01*
X56558002Y-140588793D01*
X56683527Y-140509639D01*
X56790149Y-140437388D01*
X56950598Y-140323316D01*
X57127623Y-140352551D01*
X57235957Y-140374412D01*
X57368479Y-140406857D01*
X57501348Y-140443923D01*
X57538674Y-140455356D01*
X57651834Y-140488927D01*
X57757279Y-140516718D01*
X57838573Y-140534534D01*
X57863420Y-140538233D01*
X57938288Y-140537037D01*
X57982237Y-140518943D01*
X57987897Y-140489239D01*
X57965732Y-140464821D01*
X57942279Y-140443918D01*
X57961580Y-140443815D01*
X57982250Y-140448725D01*
X58027227Y-140450157D01*
X58039400Y-140421159D01*
X58031378Y-140398357D01*
X58003661Y-140373425D01*
X57950780Y-140343753D01*
X57867260Y-140306731D01*
X57747632Y-140259750D01*
X57586422Y-140200199D01*
X57543645Y-140184724D01*
X57437226Y-140145272D01*
X57351072Y-140111311D01*
X57294836Y-140086784D01*
X57277762Y-140076200D01*
X57295659Y-140055728D01*
X57344966Y-140008269D01*
X57418808Y-139940229D01*
X57510311Y-139858012D01*
X57542865Y-139829168D01*
X57844412Y-139540234D01*
X58123449Y-139227839D01*
X58371819Y-138902120D01*
X58390716Y-138872458D01*
X56888839Y-138872458D01*
X56884867Y-138901912D01*
X56871626Y-138954730D01*
X56846392Y-139031491D01*
X56813857Y-139120334D01*
X56778714Y-139209396D01*
X56745655Y-139286814D01*
X56719372Y-139340727D01*
X56704559Y-139359271D01*
X56704078Y-139358944D01*
X56708317Y-139332908D01*
X56726965Y-139270488D01*
X56756554Y-139182849D01*
X56773525Y-139135378D01*
X56822765Y-139001369D01*
X56857174Y-138911726D01*
X56878494Y-138862796D01*
X56888468Y-138850924D01*
X56888839Y-138872458D01*
X58390716Y-138872458D01*
X58581366Y-138573212D01*
X58641875Y-138463300D01*
X58688746Y-138376487D01*
X58725395Y-138312398D01*
X58746631Y-138279921D01*
X58749859Y-138278488D01*
X58739263Y-138324757D01*
X58707088Y-138410524D01*
X58655748Y-138530514D01*
X58587658Y-138679449D01*
X58505232Y-138852052D01*
X58410884Y-139043045D01*
X58307029Y-139247152D01*
X58303900Y-139253214D01*
X58224100Y-139408907D01*
X58152705Y-139550470D01*
X58092887Y-139671423D01*
X58047822Y-139765286D01*
X58020684Y-139825579D01*
X58014000Y-139845026D01*
X58026758Y-139864912D01*
X58064717Y-139841388D01*
X58127406Y-139774879D01*
X58214354Y-139665811D01*
X58219028Y-139659647D01*
X58305597Y-139553463D01*
X58407154Y-139440824D01*
X58502301Y-139345418D01*
X58505831Y-139342147D01*
X58745119Y-139114224D01*
X58957491Y-138895274D01*
X59159373Y-138667774D01*
X59318215Y-138475491D01*
X59505524Y-138234700D01*
X58776000Y-138234700D01*
X58763300Y-138247400D01*
X58750600Y-138234700D01*
X58763300Y-138222000D01*
X58776000Y-138234700D01*
X59505524Y-138234700D01*
X59544793Y-138184220D01*
X59737133Y-137914355D01*
X59901045Y-137656046D01*
X60042338Y-137399443D01*
X60166822Y-137134697D01*
X60280306Y-136851957D01*
X60287947Y-136831350D01*
X60328122Y-136726187D01*
X60363140Y-136641378D01*
X60388817Y-136586638D01*
X60400051Y-136571000D01*
X60418349Y-136592037D01*
X60451376Y-136647383D01*
X60492218Y-136725386D01*
X60495101Y-136731210D01*
X60573142Y-136864773D01*
X60681945Y-137016742D01*
X60811581Y-137175108D01*
X60952121Y-137327864D01*
X61093637Y-137463004D01*
X61116883Y-137483196D01*
X61272956Y-137607713D01*
X61463204Y-137745229D01*
X61675517Y-137887807D01*
X61897786Y-138027508D01*
X62117901Y-138156394D01*
X62269048Y-138238454D01*
X62591014Y-138406509D01*
X62315457Y-138550124D01*
X62071109Y-138686424D01*
X61828899Y-138838232D01*
X61597847Y-138998928D01*
X61386973Y-139161894D01*
X61205299Y-139320510D01*
X61061846Y-139468155D01*
X61057476Y-139473220D01*
X61002796Y-139538269D01*
X60975787Y-139574977D01*
X60978691Y-139582464D01*
X61013750Y-139559852D01*
X61083207Y-139506260D01*
X61187653Y-139422150D01*
X61273230Y-139355391D01*
X61323052Y-139322503D01*
X61336321Y-139323140D01*
X61312238Y-139356954D01*
X61250002Y-139423598D01*
X61232241Y-139441502D01*
X61171913Y-139505967D01*
X61131973Y-139556808D01*
X61120310Y-139583862D01*
X61120951Y-139584816D01*
X61146463Y-139577427D01*
X61198972Y-139543120D01*
X61267763Y-139489014D01*
X61277281Y-139480950D01*
X61358503Y-139413776D01*
X61403409Y-139382050D01*
X61411982Y-139385772D01*
X61384202Y-139424943D01*
X61338769Y-139478416D01*
X61297646Y-139530342D01*
X61280569Y-139562763D01*
X61284033Y-139568200D01*
X61317488Y-139551130D01*
X61353911Y-139517609D01*
X61442220Y-139437398D01*
X61571665Y-139344023D01*
X61735496Y-139241271D01*
X61808609Y-139199900D01*
X61722400Y-139199900D01*
X61709700Y-139212600D01*
X61697000Y-139199900D01*
X61709700Y-139187200D01*
X61722400Y-139199900D01*
X61808609Y-139199900D01*
X61926961Y-139132931D01*
X62139309Y-139022790D01*
X62365788Y-138914636D01*
X62573904Y-138823526D01*
X62386766Y-138823526D01*
X62351515Y-138846092D01*
X62283319Y-138883986D01*
X62188447Y-138933564D01*
X62179600Y-138938074D01*
X62067678Y-138996046D01*
X61967020Y-139050015D01*
X61889526Y-139093490D01*
X61850099Y-139117804D01*
X61795403Y-139152561D01*
X61774450Y-139159058D01*
X61791087Y-139138344D01*
X61824000Y-139110691D01*
X61880487Y-139073101D01*
X61968184Y-139022256D01*
X62073441Y-138965259D01*
X62182608Y-138909212D01*
X62282033Y-138861219D01*
X62358068Y-138828381D01*
X62382800Y-138819933D01*
X62386766Y-138823526D01*
X62573904Y-138823526D01*
X62599646Y-138812257D01*
X62643150Y-138794264D01*
X62708585Y-138766659D01*
X62552444Y-138766659D01*
X62535200Y-138780800D01*
X62488896Y-138802293D01*
X62471700Y-138805422D01*
X62467157Y-138794940D01*
X62484400Y-138780800D01*
X62530705Y-138759306D01*
X62547900Y-138756177D01*
X62552444Y-138766659D01*
X62708585Y-138766659D01*
X62755643Y-138746807D01*
X62774181Y-138738466D01*
X62628334Y-138738466D01*
X62624847Y-138753566D01*
X62611400Y-138755400D01*
X62590493Y-138746106D01*
X62594467Y-138738466D01*
X62624611Y-138735426D01*
X62628334Y-138738466D01*
X62774181Y-138738466D01*
X62830636Y-138713066D01*
X62704534Y-138713066D01*
X62701047Y-138728166D01*
X62687600Y-138730000D01*
X62666693Y-138720706D01*
X62670667Y-138713066D01*
X62700811Y-138710026D01*
X62704534Y-138713066D01*
X62830636Y-138713066D01*
X62848746Y-138704918D01*
X62875010Y-138691900D01*
X62789200Y-138691900D01*
X62776500Y-138704600D01*
X62763800Y-138691900D01*
X62776500Y-138679200D01*
X62789200Y-138691900D01*
X62875010Y-138691900D01*
X62913563Y-138672792D01*
X62941202Y-138654624D01*
X62941600Y-138653503D01*
X62962031Y-138641100D01*
X62459000Y-138641100D01*
X62446300Y-138653800D01*
X62433600Y-138641100D01*
X62446300Y-138628400D01*
X62459000Y-138641100D01*
X62962031Y-138641100D01*
X62964443Y-138639636D01*
X63024082Y-138621632D01*
X63051050Y-138615700D01*
X62509800Y-138615700D01*
X62497100Y-138628400D01*
X62484400Y-138615700D01*
X62497100Y-138603000D01*
X62509800Y-138615700D01*
X63051050Y-138615700D01*
X63100350Y-138604856D01*
X63191687Y-138586766D01*
X63267925Y-138570360D01*
X63306107Y-138560928D01*
X63337035Y-138542022D01*
X63335744Y-138539500D01*
X62814600Y-138539500D01*
X62801900Y-138552200D01*
X62789200Y-138539500D01*
X62801900Y-138526800D01*
X62814600Y-138539500D01*
X63335744Y-138539500D01*
X63326340Y-138521130D01*
X63282609Y-138503993D01*
X63214427Y-138496351D01*
X63209459Y-138496320D01*
X63151333Y-138494426D01*
X63144945Y-138490317D01*
X62782797Y-138490317D01*
X62746066Y-138514761D01*
X62683091Y-138547227D01*
X62614500Y-138578067D01*
X62560917Y-138597636D01*
X62547900Y-138600171D01*
X62545002Y-138591275D01*
X62567190Y-138575431D01*
X62619763Y-138548208D01*
X62681574Y-138520630D01*
X62738559Y-138498248D01*
X62776655Y-138486615D01*
X62782797Y-138490317D01*
X63144945Y-138490317D01*
X63136895Y-138485140D01*
X63159074Y-138463050D01*
X63162469Y-138460370D01*
X63188929Y-138436785D01*
X63176724Y-138432448D01*
X63132100Y-138441083D01*
X63080627Y-138448697D01*
X63073485Y-138440874D01*
X63099893Y-138425200D01*
X62941600Y-138425200D01*
X62932307Y-138446107D01*
X62924667Y-138442133D01*
X62921627Y-138411989D01*
X62924667Y-138408266D01*
X62939767Y-138411753D01*
X62941600Y-138425200D01*
X63099893Y-138425200D01*
X63107661Y-138420590D01*
X63180138Y-138390817D01*
X63184809Y-138389097D01*
X63236167Y-138366974D01*
X63251424Y-138353009D01*
X63243841Y-138350789D01*
X63192025Y-138357610D01*
X63124210Y-138376529D01*
X63123731Y-138376696D01*
X63060527Y-138392548D01*
X63017123Y-138393177D01*
X63002796Y-138381416D01*
X63026822Y-138360095D01*
X63032223Y-138357466D01*
X62882334Y-138357466D01*
X62878847Y-138372566D01*
X62865400Y-138374400D01*
X62844493Y-138365106D01*
X62848467Y-138357466D01*
X62878611Y-138354426D01*
X62882334Y-138357466D01*
X63032223Y-138357466D01*
X63043200Y-138352123D01*
X63084994Y-138332611D01*
X63081755Y-138326835D01*
X63030678Y-138329884D01*
X63030500Y-138329898D01*
X62973854Y-138325521D01*
X62960651Y-138304272D01*
X62946840Y-138275988D01*
X62932318Y-138272800D01*
X62903560Y-138253204D01*
X62851469Y-138199335D01*
X62781797Y-138118569D01*
X62700294Y-138018283D01*
X62612711Y-137905855D01*
X62524801Y-137788661D01*
X62442314Y-137674078D01*
X62371001Y-137569483D01*
X62318440Y-137485400D01*
X62324312Y-137480308D01*
X62360911Y-137503291D01*
X62420373Y-137549389D01*
X62422068Y-137550781D01*
X62506619Y-137617394D01*
X62611883Y-137696268D01*
X62716397Y-137771353D01*
X62725700Y-137777840D01*
X62813489Y-137840475D01*
X62889317Y-137897479D01*
X62939990Y-137938849D01*
X62947933Y-137946328D01*
X63023695Y-138005590D01*
X63140320Y-138074861D01*
X63289630Y-138150882D01*
X63463453Y-138230396D01*
X63653611Y-138310143D01*
X63851931Y-138386865D01*
X64050237Y-138457304D01*
X64240353Y-138518201D01*
X64414105Y-138566299D01*
X64563317Y-138598338D01*
X64597095Y-138603637D01*
X64686892Y-138617059D01*
X64754081Y-138628399D01*
X64785584Y-138635429D01*
X64786347Y-138635879D01*
X64794797Y-138661336D01*
X64813667Y-138726890D01*
X64840431Y-138823519D01*
X64872565Y-138942196D01*
X64883885Y-138984536D01*
X64929933Y-139170684D01*
X64962120Y-139337736D01*
X64984315Y-139509495D01*
X64999439Y-139695200D01*
X65012208Y-139890608D01*
X65021438Y-140041175D01*
X65027034Y-140152740D01*
X65028903Y-140231143D01*
X65026949Y-140282227D01*
X65021080Y-140311831D01*
X65011200Y-140325797D01*
X64997215Y-140329964D01*
X64989190Y-140330200D01*
X64934028Y-140340035D01*
X64842961Y-140367003D01*
X64726368Y-140407299D01*
X64594628Y-140457118D01*
X64458120Y-140512652D01*
X64327222Y-140570098D01*
X64298108Y-140583599D01*
X63944903Y-140773281D01*
X63630419Y-140993013D01*
X63602000Y-141015877D01*
X63534813Y-141069499D01*
X63481255Y-141110286D01*
X63459236Y-141125453D01*
X63436655Y-141111003D01*
X63403424Y-141050369D01*
X63361157Y-140946659D01*
X63348822Y-140912839D01*
X63294402Y-140776407D01*
X63245274Y-140685369D01*
X63209049Y-140645854D01*
X63143199Y-140617340D01*
X63056262Y-140597655D01*
X62966490Y-140588836D01*
X62892140Y-140592919D01*
X62856408Y-140606522D01*
X62830446Y-140617516D01*
X62813519Y-140590419D01*
X62804580Y-140552857D01*
X62782554Y-140491821D01*
X62739464Y-140406404D01*
X62683941Y-140313440D01*
X62674121Y-140298450D01*
X62560196Y-140127000D01*
X62664358Y-140127000D01*
X62735410Y-140132267D01*
X62836895Y-140146315D01*
X62955259Y-140166509D01*
X63076949Y-140190215D01*
X63188411Y-140214800D01*
X63276093Y-140237630D01*
X63325272Y-140255429D01*
X63355285Y-140291681D01*
X63392658Y-140367302D01*
X63432640Y-140472326D01*
X63441774Y-140499803D01*
X63485641Y-140623750D01*
X63521382Y-140701612D01*
X63547855Y-140732800D01*
X63563915Y-140716726D01*
X63568422Y-140652802D01*
X63562463Y-140561909D01*
X63555818Y-140430696D01*
X63566542Y-140336541D01*
X63577849Y-140301784D01*
X63592968Y-140255637D01*
X63590230Y-140219587D01*
X63563209Y-140188579D01*
X63505474Y-140157562D01*
X63410599Y-140121483D01*
X63302188Y-140085103D01*
X63081300Y-140012700D01*
X62420900Y-140015560D01*
X62172034Y-140018045D01*
X61965443Y-140023964D01*
X61792651Y-140034558D01*
X61645179Y-140051069D01*
X61514551Y-140074737D01*
X61392289Y-140106804D01*
X61269917Y-140148511D01*
X61138956Y-140201099D01*
X61131233Y-140204375D01*
X60992656Y-140268452D01*
X60873474Y-140333437D01*
X60778862Y-140395392D01*
X60713994Y-140450377D01*
X60684044Y-140494454D01*
X60694187Y-140523684D01*
X60705105Y-140528734D01*
X60721005Y-140552644D01*
X60717760Y-140560969D01*
X60720024Y-140580651D01*
X60749844Y-140582165D01*
X60787760Y-140566580D01*
X60800211Y-140556429D01*
X60819017Y-140554570D01*
X60834372Y-140594636D01*
X60846125Y-140664379D01*
X60864657Y-140753161D01*
X60899548Y-140876959D01*
X60946784Y-141024252D01*
X61002353Y-141183519D01*
X61062242Y-141343239D01*
X61122439Y-141491891D01*
X61176509Y-141612900D01*
X61229326Y-141711482D01*
X61287647Y-141801839D01*
X61339212Y-141865054D01*
X61341117Y-141866900D01*
X61420913Y-141943100D01*
X62268500Y-141943100D01*
X62598681Y-141828800D01*
X62730647Y-141782582D01*
X62822217Y-141748189D01*
X62881158Y-141721290D01*
X62915237Y-141697556D01*
X62932222Y-141672660D01*
X62939880Y-141642273D01*
X62940504Y-141638300D01*
X62948536Y-141536700D01*
X62789200Y-141536700D01*
X62775445Y-141594988D01*
X62758720Y-141620520D01*
X62709201Y-141645967D01*
X62674900Y-141651000D01*
X62616612Y-141637244D01*
X62591080Y-141620520D01*
X62565633Y-141571000D01*
X62560600Y-141536700D01*
X62574356Y-141478411D01*
X62591080Y-141452880D01*
X62640600Y-141427432D01*
X62674900Y-141422400D01*
X62733189Y-141436155D01*
X62758720Y-141452880D01*
X62784168Y-141502399D01*
X62789200Y-141536700D01*
X62948536Y-141536700D01*
X62951444Y-141499920D01*
X62949260Y-141332493D01*
X62935207Y-141155692D01*
X62910544Y-140989190D01*
X62894241Y-140914400D01*
X62864608Y-140793218D01*
X62861435Y-140778649D01*
X61513135Y-140778649D01*
X61509202Y-140898839D01*
X61484256Y-141002117D01*
X61439004Y-141074917D01*
X61426842Y-141085169D01*
X61353328Y-141113317D01*
X61257248Y-141118468D01*
X61160506Y-141102177D01*
X61085011Y-141065997D01*
X61078481Y-141060450D01*
X61042339Y-141009695D01*
X61000170Y-140924563D01*
X60957622Y-140820117D01*
X60920346Y-140711420D01*
X60893990Y-140613534D01*
X60884200Y-140542460D01*
X60909493Y-140493241D01*
X60985124Y-140441160D01*
X61110729Y-140386436D01*
X61196943Y-140356593D01*
X61266673Y-140342228D01*
X61322382Y-140354812D01*
X61372623Y-140400480D01*
X61425949Y-140485368D01*
X61455135Y-140541812D01*
X61495348Y-140655118D01*
X61513135Y-140778649D01*
X62861435Y-140778649D01*
X62847724Y-140715716D01*
X62843177Y-140676509D01*
X62850557Y-140670210D01*
X62869455Y-140691435D01*
X62878179Y-140703604D01*
X62928615Y-140749174D01*
X62998785Y-140785267D01*
X63002978Y-140786699D01*
X63040313Y-140801468D01*
X63069608Y-140823169D01*
X63096033Y-140860543D01*
X63124761Y-140922331D01*
X63160966Y-141017275D01*
X63194057Y-141109641D01*
X63258418Y-141294777D01*
X63304631Y-141441493D01*
X63333095Y-141558662D01*
X63344209Y-141655158D01*
X63338371Y-141739855D01*
X63315978Y-141821625D01*
X63277431Y-141909342D01*
X63233700Y-141992566D01*
X63166083Y-142124291D01*
X63128992Y-142216350D01*
X63122631Y-142269838D01*
X63147203Y-142285846D01*
X63202912Y-142265467D01*
X63276009Y-142219583D01*
X63344700Y-142159346D01*
X63416872Y-142076949D01*
X63454955Y-142023656D01*
X63502710Y-141940571D01*
X63529942Y-141863890D01*
X63543521Y-141770533D01*
X63547163Y-141713917D01*
X63548120Y-141607313D01*
X63541641Y-141506852D01*
X63530380Y-141439944D01*
X63517977Y-141380420D01*
X63519096Y-141348122D01*
X63522113Y-141346200D01*
X63550488Y-141334237D01*
X63611835Y-141302175D01*
X63695386Y-141255752D01*
X63742316Y-141228837D01*
X63856418Y-141162721D01*
X63976151Y-141093317D01*
X64079169Y-141033581D01*
X64097300Y-141023063D01*
X64173248Y-140981373D01*
X64283263Y-140924088D01*
X64415451Y-140857255D01*
X64557920Y-140786919D01*
X64640038Y-140747161D01*
X65030376Y-140559671D01*
X65663517Y-140559671D01*
X65691242Y-140549646D01*
X65771194Y-140535285D01*
X65818457Y-140533400D01*
X65973834Y-140557300D01*
X66127056Y-140624472D01*
X66267351Y-140728126D01*
X66383949Y-140861468D01*
X66414445Y-140909211D01*
X66453281Y-140984364D01*
X66473884Y-141055039D01*
X66481105Y-141142806D01*
X66481135Y-141205791D01*
X66695334Y-141205791D01*
X66696893Y-141153243D01*
X66694895Y-141118017D01*
X66667244Y-140954010D01*
X66605540Y-140806381D01*
X66503633Y-140662063D01*
X66454099Y-140606453D01*
X66375586Y-140535195D01*
X66277501Y-140464071D01*
X66173333Y-140401054D01*
X66076573Y-140354115D01*
X66000710Y-140331229D01*
X65986670Y-140330200D01*
X65960012Y-140326326D01*
X65953783Y-140306202D01*
X65967078Y-140257078D01*
X65979021Y-140222590D01*
X66074858Y-139899700D01*
X66148514Y-139541348D01*
X66198317Y-139158548D01*
X66222596Y-138762315D01*
X66224786Y-138603000D01*
X66218158Y-138284763D01*
X66199294Y-137932764D01*
X66169686Y-137562152D01*
X66130823Y-137188073D01*
X66084194Y-136825678D01*
X66031290Y-136490114D01*
X66000924Y-136326847D01*
X65943713Y-136073623D01*
X65868119Y-135793815D01*
X65777596Y-135496903D01*
X65675600Y-135192369D01*
X65565586Y-134889693D01*
X65451009Y-134598357D01*
X65335325Y-134327840D01*
X65221988Y-134087624D01*
X65114455Y-133887191D01*
X65107465Y-133875286D01*
X65026605Y-133750821D01*
X64918264Y-133602094D01*
X64789413Y-133437176D01*
X64647023Y-133264142D01*
X64498063Y-133091065D01*
X64349505Y-132926017D01*
X64208318Y-132777072D01*
X64081473Y-132652303D01*
X63975941Y-132559783D01*
X63962751Y-132549470D01*
X63752179Y-132407439D01*
X63505391Y-132273415D01*
X63236951Y-132153994D01*
X62961424Y-132055777D01*
X62740357Y-131995674D01*
X62581746Y-131967602D01*
X62382526Y-131946046D01*
X62152594Y-131932050D01*
X62128800Y-131931125D01*
X61854370Y-131928208D01*
X61620367Y-131942758D01*
X61418837Y-131976755D01*
X61241826Y-132032178D01*
X61081381Y-132111005D01*
X60929547Y-132215216D01*
X60903560Y-132235973D01*
X60758126Y-132354430D01*
X60741334Y-132287525D01*
X60733892Y-132219547D01*
X60733585Y-132115320D01*
X60739390Y-131988738D01*
X60750285Y-131853693D01*
X60765245Y-131724077D01*
X60783249Y-131613783D01*
X60794567Y-131564564D01*
X60820314Y-131482416D01*
X60862160Y-131363781D01*
X60916090Y-131218822D01*
X60978090Y-131057700D01*
X61044148Y-130890579D01*
X61110248Y-130727619D01*
X61172376Y-130578983D01*
X61226519Y-130454834D01*
X61266794Y-130369044D01*
X61400638Y-130130755D01*
X61547033Y-129922354D01*
X61699075Y-129753489D01*
X61723740Y-129730535D01*
X61794411Y-129663564D01*
X61847395Y-129607607D01*
X61873532Y-129572516D01*
X61874800Y-129568028D01*
X61854571Y-129565902D01*
X61800519Y-129584656D01*
D13*
X39786000Y-33000000D02*
G75*
G03X39786000Y-33000000I-2286000J0D01*
G01*
X37586000Y-126750000D02*
G75*
G03X37586000Y-126750000I-2286000J0D01*
G01*
X85386000Y-33000000D02*
G75*
G03X85386000Y-33000000I-2286000J0D01*
G01*
X37586000Y-61750000D02*
G75*
G03X37586000Y-61750000I-2286000J0D01*
G01*
X39786000Y-155500000D02*
G75*
G03X39786000Y-155500000I-2286000J0D01*
G01*
X87586000Y-126750000D02*
G75*
G03X87586000Y-126750000I-2286000J0D01*
G01*
X85386000Y-155500000D02*
G75*
G03X85386000Y-155500000I-2286000J0D01*
G01*
X87586000Y-61750000D02*
G75*
G03X87586000Y-61750000I-2286000J0D01*
G01*
D14*
X42446544Y-72712937D02*
X44793902Y-68298199D01*
X44090572Y-74193227D02*
X48235760Y-71397262D01*
X44847209Y-76272070D02*
X49819819Y-75749427D01*
X44539322Y-78462797D02*
X49175242Y-80335830D01*
X43238990Y-80252552D02*
X46452928Y-84082774D01*
X40746174Y-72199565D02*
X40843756Y-71204338D01*
X41188089Y-72264821D02*
X41382323Y-71283866D01*
X41621527Y-72372890D02*
X41910559Y-71415570D01*
X42042351Y-72522738D02*
X42423422Y-71598192D01*
X42830248Y-72941671D02*
X43383639Y-72108749D01*
X43189800Y-73206755D02*
X43821829Y-72431811D01*
X43521768Y-73505661D02*
X44226402Y-72796090D01*
X43822984Y-73835534D02*
X44593497Y-73198110D01*
X44321979Y-74575324D02*
X45201627Y-74099700D01*
X44514995Y-74978180D02*
X45436858Y-74590664D01*
X44667778Y-75397947D02*
X45623056Y-75102239D01*
X44778869Y-75830621D02*
X45758444Y-75629543D01*
X44872145Y-76718080D02*
X45872121Y-76711099D01*
X44853439Y-77164395D02*
X45849323Y-77255028D01*
X44791269Y-77606755D02*
X45773556Y-77794136D01*
X44686229Y-78040937D02*
X45645543Y-78323279D01*
X44351950Y-78868308D02*
X45238154Y-79331604D01*
X44125901Y-79253599D02*
X44962665Y-79801162D01*
X43863333Y-79614993D02*
X44642671Y-80241597D01*
X43566752Y-79949040D02*
X44281225Y-80648703D01*
X40300000Y-71177744D02*
X40300000Y-67177744D01*
X37033248Y-79949040D02*
X36318775Y-80648703D01*
X36736667Y-79614993D02*
X35957329Y-80241597D01*
X36474099Y-79253599D02*
X35637335Y-79801162D01*
X36248050Y-78868308D02*
X35361846Y-79331604D01*
X35913771Y-78040937D02*
X34954457Y-78323279D01*
X35808731Y-77606755D02*
X34826444Y-77794136D01*
X35746561Y-77164395D02*
X34750677Y-77255028D01*
X35727855Y-76718080D02*
X34727879Y-76711099D01*
X35821131Y-75830621D02*
X34841556Y-75629543D01*
X35932222Y-75397947D02*
X34976944Y-75102239D01*
X36085005Y-74978180D02*
X35163142Y-74590664D01*
X36278021Y-74575324D02*
X35398373Y-74099700D01*
X36777016Y-73835534D02*
X36006503Y-73198110D01*
X37078232Y-73505661D02*
X36373598Y-72796090D01*
X37410200Y-73206755D02*
X36778171Y-72431811D01*
X37769752Y-72941671D02*
X37216361Y-72108749D01*
X38557649Y-72522738D02*
X38176578Y-71598192D01*
X38978473Y-72372890D02*
X38689441Y-71415570D01*
X39411911Y-72264821D02*
X39217677Y-71283866D01*
X39853826Y-72199565D02*
X39756244Y-71204338D01*
X40300000Y-72177744D02*
X40300000Y-71177744D01*
X37361010Y-80252552D02*
X34147072Y-84082774D01*
X36060678Y-78462797D02*
X31424758Y-80335830D01*
X35752791Y-76272070D02*
X30780181Y-75749427D01*
X36509428Y-74193227D02*
X32364240Y-71397262D01*
X38153456Y-72712937D02*
X35806098Y-68298199D01*
X78153456Y-72712937D02*
X75806098Y-68298199D01*
X76509428Y-74193227D02*
X72364240Y-71397262D01*
X75752791Y-76272070D02*
X70780181Y-75749427D01*
X76060678Y-78462797D02*
X71424758Y-80335830D01*
X77361010Y-80252552D02*
X74147072Y-84082774D01*
X80300000Y-72177744D02*
X80300000Y-71177744D01*
X79853826Y-72199565D02*
X79756244Y-71204338D01*
X79411911Y-72264821D02*
X79217677Y-71283866D01*
X78978473Y-72372890D02*
X78689441Y-71415570D01*
X78557649Y-72522738D02*
X78176578Y-71598192D01*
X77769752Y-72941671D02*
X77216361Y-72108749D01*
X77410200Y-73206755D02*
X76778171Y-72431811D01*
X77078232Y-73505661D02*
X76373598Y-72796090D01*
X76777016Y-73835534D02*
X76006503Y-73198110D01*
X76278021Y-74575324D02*
X75398373Y-74099700D01*
X76085005Y-74978180D02*
X75163142Y-74590664D01*
X75932222Y-75397947D02*
X74976944Y-75102239D01*
X75821131Y-75830621D02*
X74841556Y-75629543D01*
X75727855Y-76718080D02*
X74727879Y-76711099D01*
X75746561Y-77164395D02*
X74750677Y-77255028D01*
X75808731Y-77606755D02*
X74826444Y-77794136D01*
X75913771Y-78040937D02*
X74954457Y-78323279D01*
X76248050Y-78868308D02*
X75361846Y-79331604D01*
X76474099Y-79253599D02*
X75637335Y-79801162D01*
X76736667Y-79614993D02*
X75957329Y-80241597D01*
X77033248Y-79949040D02*
X76318775Y-80648703D01*
X80300000Y-71177744D02*
X80300000Y-67177744D01*
X83566752Y-79949040D02*
X84281225Y-80648703D01*
X83863333Y-79614993D02*
X84642671Y-80241597D01*
X84125901Y-79253599D02*
X84962665Y-79801162D01*
X84351950Y-78868308D02*
X85238154Y-79331604D01*
X84686229Y-78040937D02*
X85645543Y-78323279D01*
X84791269Y-77606755D02*
X85773556Y-77794136D01*
X84853439Y-77164395D02*
X85849323Y-77255028D01*
X84872145Y-76718080D02*
X85872121Y-76711099D01*
X84778869Y-75830621D02*
X85758444Y-75629543D01*
X84667778Y-75397947D02*
X85623056Y-75102239D01*
X84514995Y-74978180D02*
X85436858Y-74590664D01*
X84321979Y-74575324D02*
X85201627Y-74099700D01*
X83822984Y-73835534D02*
X84593497Y-73198110D01*
X83521768Y-73505661D02*
X84226402Y-72796090D01*
X83189800Y-73206755D02*
X83821829Y-72431811D01*
X82830248Y-72941671D02*
X83383639Y-72108749D01*
X82042351Y-72522738D02*
X82423422Y-71598192D01*
X81621527Y-72372890D02*
X81910559Y-71415570D01*
X81188089Y-72264821D02*
X81382323Y-71283866D01*
X80746174Y-72199565D02*
X80843756Y-71204338D01*
X83238990Y-80252552D02*
X86452928Y-84082774D01*
X84539322Y-78462797D02*
X89175242Y-80335830D01*
X84847209Y-76272070D02*
X89819819Y-75749427D01*
X84090572Y-74193227D02*
X88235760Y-71397262D01*
X82446544Y-72712937D02*
X84793902Y-68298199D01*
D13*
X44800000Y-106750000D02*
G75*
G03X44800000Y-106750000I-4500000J0D01*
G01*
X84800000Y-106750000D02*
G75*
G03X84800000Y-106750000I-4500000J0D01*
G01*
X84800000Y-91750000D02*
G75*
G03X84800000Y-91750000I-4500000J0D01*
G01*
M02*
