G04 #@! TF.GenerationSoftware,KiCad,Pcbnew,(5.1.0)-1*
G04 #@! TF.CreationDate,2019-05-26T13:34:07-04:00*
G04 #@! TF.ProjectId,VCF_Panel,5643465f-5061-46e6-956c-2e6b69636164,rev?*
G04 #@! TF.SameCoordinates,Original*
G04 #@! TF.FileFunction,Soldermask,Top*
G04 #@! TF.FilePolarity,Negative*
%FSLAX46Y46*%
G04 Gerber Fmt 4.6, Leading zero omitted, Abs format (unit mm)*
G04 Created by KiCad (PCBNEW (5.1.0)-1) date 2019-05-26 13:34:07*
%MOMM*%
%LPD*%
G04 APERTURE LIST*
%ADD10C,0.100000*%
G04 APERTURE END LIST*
D10*
G36*
X37906373Y-153457024D02*
G01*
X38107589Y-153497048D01*
X38486671Y-153654069D01*
X38827835Y-153882028D01*
X39117972Y-154172165D01*
X39345931Y-154513329D01*
X39502952Y-154892411D01*
X39583000Y-155294842D01*
X39583000Y-155705158D01*
X39502952Y-156107589D01*
X39345931Y-156486671D01*
X39117972Y-156827835D01*
X38827835Y-157117972D01*
X38486671Y-157345931D01*
X38107589Y-157502952D01*
X37906373Y-157542976D01*
X37705159Y-157583000D01*
X37294841Y-157583000D01*
X37093627Y-157542976D01*
X36892411Y-157502952D01*
X36513329Y-157345931D01*
X36172165Y-157117972D01*
X35882028Y-156827835D01*
X35654069Y-156486671D01*
X35497048Y-156107589D01*
X35417000Y-155705158D01*
X35417000Y-155294842D01*
X35497048Y-154892411D01*
X35654069Y-154513329D01*
X35882028Y-154172165D01*
X36172165Y-153882028D01*
X36513329Y-153654069D01*
X36892411Y-153497048D01*
X37093627Y-153457024D01*
X37294841Y-153417000D01*
X37705159Y-153417000D01*
X37906373Y-153457024D01*
X37906373Y-153457024D01*
G37*
G36*
X83506373Y-153457024D02*
G01*
X83707589Y-153497048D01*
X84086671Y-153654069D01*
X84427835Y-153882028D01*
X84717972Y-154172165D01*
X84945931Y-154513329D01*
X85102952Y-154892411D01*
X85183000Y-155294842D01*
X85183000Y-155705158D01*
X85102952Y-156107589D01*
X84945931Y-156486671D01*
X84717972Y-156827835D01*
X84427835Y-157117972D01*
X84086671Y-157345931D01*
X83707589Y-157502952D01*
X83506373Y-157542976D01*
X83305159Y-157583000D01*
X82894841Y-157583000D01*
X82693627Y-157542976D01*
X82492411Y-157502952D01*
X82113329Y-157345931D01*
X81772165Y-157117972D01*
X81482028Y-156827835D01*
X81254069Y-156486671D01*
X81097048Y-156107589D01*
X81017000Y-155705158D01*
X81017000Y-155294842D01*
X81097048Y-154892411D01*
X81254069Y-154513329D01*
X81482028Y-154172165D01*
X81772165Y-153882028D01*
X82113329Y-153654069D01*
X82492411Y-153497048D01*
X82693627Y-153457024D01*
X82894841Y-153417000D01*
X83305159Y-153417000D01*
X83506373Y-153457024D01*
X83506373Y-153457024D01*
G37*
G36*
X85907589Y-124747048D02*
G01*
X86286671Y-124904069D01*
X86627835Y-125132028D01*
X86917972Y-125422165D01*
X87145931Y-125763329D01*
X87302952Y-126142411D01*
X87383000Y-126544842D01*
X87383000Y-126955158D01*
X87302952Y-127357589D01*
X87145931Y-127736671D01*
X86917972Y-128077835D01*
X86627835Y-128367972D01*
X86286671Y-128595931D01*
X85907589Y-128752952D01*
X85706373Y-128792976D01*
X85505159Y-128833000D01*
X85094841Y-128833000D01*
X84893627Y-128792976D01*
X84692411Y-128752952D01*
X84313329Y-128595931D01*
X83972165Y-128367972D01*
X83682028Y-128077835D01*
X83454069Y-127736671D01*
X83297048Y-127357589D01*
X83217000Y-126955158D01*
X83217000Y-126544842D01*
X83297048Y-126142411D01*
X83454069Y-125763329D01*
X83682028Y-125422165D01*
X83972165Y-125132028D01*
X84313329Y-124904069D01*
X84692411Y-124747048D01*
X85094841Y-124667000D01*
X85505159Y-124667000D01*
X85907589Y-124747048D01*
X85907589Y-124747048D01*
G37*
G36*
X35907589Y-124747048D02*
G01*
X36286671Y-124904069D01*
X36627835Y-125132028D01*
X36917972Y-125422165D01*
X37145931Y-125763329D01*
X37302952Y-126142411D01*
X37383000Y-126544842D01*
X37383000Y-126955158D01*
X37302952Y-127357589D01*
X37145931Y-127736671D01*
X36917972Y-128077835D01*
X36627835Y-128367972D01*
X36286671Y-128595931D01*
X35907589Y-128752952D01*
X35706373Y-128792976D01*
X35505159Y-128833000D01*
X35094841Y-128833000D01*
X34893627Y-128792976D01*
X34692411Y-128752952D01*
X34313329Y-128595931D01*
X33972165Y-128367972D01*
X33682028Y-128077835D01*
X33454069Y-127736671D01*
X33297048Y-127357589D01*
X33217000Y-126955158D01*
X33217000Y-126544842D01*
X33297048Y-126142411D01*
X33454069Y-125763329D01*
X33682028Y-125422165D01*
X33972165Y-125132028D01*
X34313329Y-124904069D01*
X34692411Y-124747048D01*
X35094841Y-124667000D01*
X35505159Y-124667000D01*
X35907589Y-124747048D01*
X35907589Y-124747048D01*
G37*
G36*
X81481632Y-102854677D02*
G01*
X81787005Y-102981167D01*
X82218868Y-103160050D01*
X82882362Y-103603383D01*
X83446617Y-104167638D01*
X83889950Y-104831132D01*
X84068833Y-105262995D01*
X84195323Y-105568368D01*
X84351000Y-106351010D01*
X84351000Y-107148990D01*
X84195323Y-107931632D01*
X84068833Y-108237005D01*
X83889950Y-108668868D01*
X83446617Y-109332362D01*
X82882362Y-109896617D01*
X82218868Y-110339950D01*
X81787005Y-110518833D01*
X81481632Y-110645323D01*
X80698990Y-110801000D01*
X79901010Y-110801000D01*
X79118368Y-110645323D01*
X78812995Y-110518833D01*
X78381132Y-110339950D01*
X77717638Y-109896617D01*
X77153383Y-109332362D01*
X76710050Y-108668868D01*
X76531167Y-108237005D01*
X76404677Y-107931632D01*
X76249000Y-107148990D01*
X76249000Y-106351010D01*
X76404677Y-105568368D01*
X76531167Y-105262995D01*
X76710050Y-104831132D01*
X77153383Y-104167638D01*
X77717638Y-103603383D01*
X78381132Y-103160050D01*
X78812995Y-102981167D01*
X79118368Y-102854677D01*
X79901010Y-102699000D01*
X80698990Y-102699000D01*
X81481632Y-102854677D01*
X81481632Y-102854677D01*
G37*
G36*
X41481632Y-102854677D02*
G01*
X41787005Y-102981167D01*
X42218868Y-103160050D01*
X42882362Y-103603383D01*
X43446617Y-104167638D01*
X43889950Y-104831132D01*
X44068833Y-105262995D01*
X44195323Y-105568368D01*
X44351000Y-106351010D01*
X44351000Y-107148990D01*
X44195323Y-107931632D01*
X44068833Y-108237005D01*
X43889950Y-108668868D01*
X43446617Y-109332362D01*
X42882362Y-109896617D01*
X42218868Y-110339950D01*
X41787005Y-110518833D01*
X41481632Y-110645323D01*
X40698990Y-110801000D01*
X39901010Y-110801000D01*
X39118368Y-110645323D01*
X38812995Y-110518833D01*
X38381132Y-110339950D01*
X37717638Y-109896617D01*
X37153383Y-109332362D01*
X36710050Y-108668868D01*
X36531167Y-108237005D01*
X36404677Y-107931632D01*
X36249000Y-107148990D01*
X36249000Y-106351010D01*
X36404677Y-105568368D01*
X36531167Y-105262995D01*
X36710050Y-104831132D01*
X37153383Y-104167638D01*
X37717638Y-103603383D01*
X38381132Y-103160050D01*
X38812995Y-102981167D01*
X39118368Y-102854677D01*
X39901010Y-102699000D01*
X40698990Y-102699000D01*
X41481632Y-102854677D01*
X41481632Y-102854677D01*
G37*
G36*
X81481632Y-87854677D02*
G01*
X81787005Y-87981167D01*
X82218868Y-88160050D01*
X82882362Y-88603383D01*
X83446617Y-89167638D01*
X83889950Y-89831132D01*
X84068833Y-90262995D01*
X84195323Y-90568368D01*
X84351000Y-91351010D01*
X84351000Y-92148990D01*
X84195323Y-92931632D01*
X84068833Y-93237005D01*
X83889950Y-93668868D01*
X83446617Y-94332362D01*
X82882362Y-94896617D01*
X82218868Y-95339950D01*
X81787005Y-95518833D01*
X81481632Y-95645323D01*
X80698990Y-95801000D01*
X79901010Y-95801000D01*
X79118368Y-95645323D01*
X78812995Y-95518833D01*
X78381132Y-95339950D01*
X77717638Y-94896617D01*
X77153383Y-94332362D01*
X76710050Y-93668868D01*
X76531167Y-93237005D01*
X76404677Y-92931632D01*
X76249000Y-92148990D01*
X76249000Y-91351010D01*
X76404677Y-90568368D01*
X76531167Y-90262995D01*
X76710050Y-89831132D01*
X77153383Y-89167638D01*
X77717638Y-88603383D01*
X78381132Y-88160050D01*
X78812995Y-87981167D01*
X79118368Y-87854677D01*
X79901010Y-87699000D01*
X80698990Y-87699000D01*
X81481632Y-87854677D01*
X81481632Y-87854677D01*
G37*
G36*
X41554554Y-72614284D02*
G01*
X41554557Y-72614285D01*
X41554556Y-72614285D01*
X42337288Y-72938503D01*
X43041728Y-73409195D01*
X43640805Y-74008272D01*
X44111497Y-74712712D01*
X44111498Y-74712714D01*
X44435716Y-75495446D01*
X44601000Y-76326387D01*
X44601000Y-77173613D01*
X44435716Y-78004554D01*
X44435715Y-78004556D01*
X44111497Y-78787288D01*
X43640805Y-79491728D01*
X43041728Y-80090805D01*
X42337288Y-80561497D01*
X42337287Y-80561498D01*
X42337286Y-80561498D01*
X41554554Y-80885716D01*
X40723613Y-81051000D01*
X39876387Y-81051000D01*
X39045446Y-80885716D01*
X38262714Y-80561498D01*
X38262713Y-80561498D01*
X38262712Y-80561497D01*
X37558272Y-80090805D01*
X36959195Y-79491728D01*
X36488503Y-78787288D01*
X36164285Y-78004556D01*
X36164284Y-78004554D01*
X35999000Y-77173613D01*
X35999000Y-76326387D01*
X36164284Y-75495446D01*
X36488502Y-74712714D01*
X36488503Y-74712712D01*
X36959195Y-74008272D01*
X37558272Y-73409195D01*
X38262712Y-72938503D01*
X39045444Y-72614285D01*
X39045443Y-72614285D01*
X39045446Y-72614284D01*
X39876387Y-72449000D01*
X40723613Y-72449000D01*
X41554554Y-72614284D01*
X41554554Y-72614284D01*
G37*
G36*
X81554554Y-72614284D02*
G01*
X81554557Y-72614285D01*
X81554556Y-72614285D01*
X82337288Y-72938503D01*
X83041728Y-73409195D01*
X83640805Y-74008272D01*
X84111497Y-74712712D01*
X84111498Y-74712714D01*
X84435716Y-75495446D01*
X84601000Y-76326387D01*
X84601000Y-77173613D01*
X84435716Y-78004554D01*
X84435715Y-78004556D01*
X84111497Y-78787288D01*
X83640805Y-79491728D01*
X83041728Y-80090805D01*
X82337288Y-80561497D01*
X82337287Y-80561498D01*
X82337286Y-80561498D01*
X81554554Y-80885716D01*
X80723613Y-81051000D01*
X79876387Y-81051000D01*
X79045446Y-80885716D01*
X78262714Y-80561498D01*
X78262713Y-80561498D01*
X78262712Y-80561497D01*
X77558272Y-80090805D01*
X76959195Y-79491728D01*
X76488503Y-78787288D01*
X76164285Y-78004556D01*
X76164284Y-78004554D01*
X75999000Y-77173613D01*
X75999000Y-76326387D01*
X76164284Y-75495446D01*
X76488502Y-74712714D01*
X76488503Y-74712712D01*
X76959195Y-74008272D01*
X77558272Y-73409195D01*
X78262712Y-72938503D01*
X79045444Y-72614285D01*
X79045443Y-72614285D01*
X79045446Y-72614284D01*
X79876387Y-72449000D01*
X80723613Y-72449000D01*
X81554554Y-72614284D01*
X81554554Y-72614284D01*
G37*
G36*
X35706373Y-59707024D02*
G01*
X35907589Y-59747048D01*
X36286671Y-59904069D01*
X36627835Y-60132028D01*
X36917972Y-60422165D01*
X37145931Y-60763329D01*
X37302952Y-61142411D01*
X37383000Y-61544842D01*
X37383000Y-61955158D01*
X37302952Y-62357589D01*
X37145931Y-62736671D01*
X36917972Y-63077835D01*
X36627835Y-63367972D01*
X36286671Y-63595931D01*
X35907589Y-63752952D01*
X35706373Y-63792976D01*
X35505159Y-63833000D01*
X35094841Y-63833000D01*
X34893627Y-63792976D01*
X34692411Y-63752952D01*
X34313329Y-63595931D01*
X33972165Y-63367972D01*
X33682028Y-63077835D01*
X33454069Y-62736671D01*
X33297048Y-62357589D01*
X33217000Y-61955158D01*
X33217000Y-61544842D01*
X33297048Y-61142411D01*
X33454069Y-60763329D01*
X33682028Y-60422165D01*
X33972165Y-60132028D01*
X34313329Y-59904069D01*
X34692411Y-59747048D01*
X34893627Y-59707024D01*
X35094841Y-59667000D01*
X35505159Y-59667000D01*
X35706373Y-59707024D01*
X35706373Y-59707024D01*
G37*
G36*
X85706373Y-59707024D02*
G01*
X85907589Y-59747048D01*
X86286671Y-59904069D01*
X86627835Y-60132028D01*
X86917972Y-60422165D01*
X87145931Y-60763329D01*
X87302952Y-61142411D01*
X87383000Y-61544842D01*
X87383000Y-61955158D01*
X87302952Y-62357589D01*
X87145931Y-62736671D01*
X86917972Y-63077835D01*
X86627835Y-63367972D01*
X86286671Y-63595931D01*
X85907589Y-63752952D01*
X85706373Y-63792976D01*
X85505159Y-63833000D01*
X85094841Y-63833000D01*
X84893627Y-63792976D01*
X84692411Y-63752952D01*
X84313329Y-63595931D01*
X83972165Y-63367972D01*
X83682028Y-63077835D01*
X83454069Y-62736671D01*
X83297048Y-62357589D01*
X83217000Y-61955158D01*
X83217000Y-61544842D01*
X83297048Y-61142411D01*
X83454069Y-60763329D01*
X83682028Y-60422165D01*
X83972165Y-60132028D01*
X84313329Y-59904069D01*
X84692411Y-59747048D01*
X84893627Y-59707024D01*
X85094841Y-59667000D01*
X85505159Y-59667000D01*
X85706373Y-59707024D01*
X85706373Y-59707024D01*
G37*
G36*
X37906373Y-30957024D02*
G01*
X38107589Y-30997048D01*
X38486671Y-31154069D01*
X38827835Y-31382028D01*
X39117972Y-31672165D01*
X39345931Y-32013329D01*
X39502952Y-32392411D01*
X39583000Y-32794842D01*
X39583000Y-33205158D01*
X39502952Y-33607589D01*
X39345931Y-33986671D01*
X39117972Y-34327835D01*
X38827835Y-34617972D01*
X38486671Y-34845931D01*
X38107589Y-35002952D01*
X37906373Y-35042976D01*
X37705159Y-35083000D01*
X37294841Y-35083000D01*
X37093627Y-35042976D01*
X36892411Y-35002952D01*
X36513329Y-34845931D01*
X36172165Y-34617972D01*
X35882028Y-34327835D01*
X35654069Y-33986671D01*
X35497048Y-33607589D01*
X35417000Y-33205158D01*
X35417000Y-32794842D01*
X35497048Y-32392411D01*
X35654069Y-32013329D01*
X35882028Y-31672165D01*
X36172165Y-31382028D01*
X36513329Y-31154069D01*
X36892411Y-30997048D01*
X37093627Y-30957024D01*
X37294841Y-30917000D01*
X37705159Y-30917000D01*
X37906373Y-30957024D01*
X37906373Y-30957024D01*
G37*
G36*
X83506373Y-30957024D02*
G01*
X83707589Y-30997048D01*
X84086671Y-31154069D01*
X84427835Y-31382028D01*
X84717972Y-31672165D01*
X84945931Y-32013329D01*
X85102952Y-32392411D01*
X85183000Y-32794842D01*
X85183000Y-33205158D01*
X85102952Y-33607589D01*
X84945931Y-33986671D01*
X84717972Y-34327835D01*
X84427835Y-34617972D01*
X84086671Y-34845931D01*
X83707589Y-35002952D01*
X83506373Y-35042976D01*
X83305159Y-35083000D01*
X82894841Y-35083000D01*
X82693627Y-35042976D01*
X82492411Y-35002952D01*
X82113329Y-34845931D01*
X81772165Y-34617972D01*
X81482028Y-34327835D01*
X81254069Y-33986671D01*
X81097048Y-33607589D01*
X81017000Y-33205158D01*
X81017000Y-32794842D01*
X81097048Y-32392411D01*
X81254069Y-32013329D01*
X81482028Y-31672165D01*
X81772165Y-31382028D01*
X82113329Y-31154069D01*
X82492411Y-30997048D01*
X82693627Y-30957024D01*
X82894841Y-30917000D01*
X83305159Y-30917000D01*
X83506373Y-30957024D01*
X83506373Y-30957024D01*
G37*
M02*
