M48
; DRILL file {KiCad (5.1.0)-1} date 5/7/2019 9:31:30 AM
; FORMAT={2:4/ absolute / inch / suppress leading zeros}
; #@! TF.CreationDate,2019-05-07T09:31:30-04:00
; #@! TF.GenerationSoftware,Kicad,Pcbnew,(5.1.0)-1
; #@! TF.FileFunction,Plated,1,2,PTH
FMAT,2
INCH,TZ
T1C0.0157
T2C0.0300
T3C0.0394
T4C0.0512
T5C0.1260
%
G90
G05
T1
X24430Y-52330
X25750Y-33230
X26270Y-50810
X26920Y-55750
X27610Y-48760
X27770Y-52330
X28237Y-48353
X29134Y-32480
X30430Y-30550
X30510Y-51380
X31102Y-34646
X31240Y-56440
X31650Y-37240
X32820Y-38950
X33120Y-43790
X33690Y-46180
X34290Y-32590
X38260Y-50540
X39710Y-47190
X39780Y-40730
X40790Y-49359
X41680Y-28790
X42090Y-50540
X42870Y-50480
X43740Y-23230
X43870Y-36660
T2
X29880Y-31820
X29880Y-34820
T3
X25900Y-25720
X25900Y-26720
X41810Y-44070
X42810Y-44070
X31460Y-25000
X32460Y-25000
X33460Y-25000
X31470Y-20540
X32470Y-20540
X33470Y-20540
X24100Y-24350
X24100Y-25350
X35510Y-44190
X36510Y-44190
X41820Y-41110
X42820Y-41110
X41830Y-42530
X42830Y-42530
X43830Y-42530
X24310Y-27050
X24310Y-28050
X24310Y-29050
X22660Y-24350
X22660Y-25350
X41870Y-36730
X41870Y-37730
X32460Y-23480
X33460Y-23480
X31010Y-48220
X31010Y-49220
X35650Y-42230
X36650Y-42230
X37650Y-42230
X22990Y-49480
X22990Y-50480
X31470Y-21960
X32470Y-21960
X33470Y-21960
X45030Y-28480
X45030Y-30480
X45130Y-27480
X45130Y-29480
X45130Y-31480
X46030Y-28480
X46030Y-30480
X46130Y-27480
X46130Y-29480
X46130Y-31480
T4
X35986Y-21073
X36970Y-25010
X37954Y-21073
X34763Y-55614
X38700Y-54630
X38700Y-56599
X23731Y-45050
X24716Y-41113
X25700Y-45050
X32840Y-48773
X33824Y-52710
X34809Y-48773
X33310Y-27240
X33310Y-29209
X37247Y-28224
T5
X45276Y-21654
X21654Y-57087
X21654Y-21654
X45276Y-57087
T0
M30
