G04 #@! TF.GenerationSoftware,KiCad,Pcbnew,(5.1.0)-1*
G04 #@! TF.CreationDate,2019-05-07T09:31:36-04:00*
G04 #@! TF.ProjectId,VCO_2,56434f5f-322e-46b6-9963-61645f706362,A*
G04 #@! TF.SameCoordinates,Original*
G04 #@! TF.FileFunction,Soldermask,Bot*
G04 #@! TF.FilePolarity,Negative*
%FSLAX46Y46*%
G04 Gerber Fmt 4.6, Leading zero omitted, Abs format (unit mm)*
G04 Created by KiCad (PCBNEW (5.1.0)-1) date 2019-05-07 09:31:36*
%MOMM*%
%LPD*%
G04 APERTURE LIST*
%ADD10C,0.100000*%
G04 APERTURE END LIST*
D10*
G36*
X115406373Y-142957024D02*
G01*
X115607589Y-142997048D01*
X115986671Y-143154069D01*
X116327835Y-143382028D01*
X116617972Y-143672165D01*
X116845931Y-144013329D01*
X117002952Y-144392411D01*
X117083000Y-144794842D01*
X117083000Y-145205158D01*
X117002952Y-145607589D01*
X116845931Y-145986671D01*
X116617972Y-146327835D01*
X116327835Y-146617972D01*
X115986671Y-146845931D01*
X115607589Y-147002952D01*
X115205159Y-147083000D01*
X114794841Y-147083000D01*
X114392411Y-147002952D01*
X114013329Y-146845931D01*
X113672165Y-146617972D01*
X113382028Y-146327835D01*
X113154069Y-145986671D01*
X112997048Y-145607589D01*
X112917000Y-145205158D01*
X112917000Y-144794842D01*
X112997048Y-144392411D01*
X113154069Y-144013329D01*
X113382028Y-143672165D01*
X113672165Y-143382028D01*
X114013329Y-143154069D01*
X114392411Y-142997048D01*
X114593627Y-142957024D01*
X114794841Y-142917000D01*
X115205159Y-142917000D01*
X115406373Y-142957024D01*
X115406373Y-142957024D01*
G37*
G36*
X55406373Y-142957024D02*
G01*
X55607589Y-142997048D01*
X55986671Y-143154069D01*
X56327835Y-143382028D01*
X56617972Y-143672165D01*
X56845931Y-144013329D01*
X57002952Y-144392411D01*
X57083000Y-144794842D01*
X57083000Y-145205158D01*
X57002952Y-145607589D01*
X56845931Y-145986671D01*
X56617972Y-146327835D01*
X56327835Y-146617972D01*
X55986671Y-146845931D01*
X55607589Y-147002952D01*
X55205159Y-147083000D01*
X54794841Y-147083000D01*
X54392411Y-147002952D01*
X54013329Y-146845931D01*
X53672165Y-146617972D01*
X53382028Y-146327835D01*
X53154069Y-145986671D01*
X52997048Y-145607589D01*
X52917000Y-145205158D01*
X52917000Y-144794842D01*
X52997048Y-144392411D01*
X53154069Y-144013329D01*
X53382028Y-143672165D01*
X53672165Y-143382028D01*
X54013329Y-143154069D01*
X54392411Y-142997048D01*
X54593627Y-142957024D01*
X54794841Y-142917000D01*
X55205159Y-142917000D01*
X55406373Y-142957024D01*
X55406373Y-142957024D01*
G37*
G36*
X98654153Y-142586122D02*
G01*
X98746194Y-142624247D01*
X98876359Y-142678163D01*
X99076342Y-142811787D01*
X99246413Y-142981858D01*
X99380037Y-143181841D01*
X99472078Y-143404048D01*
X99519000Y-143639941D01*
X99519000Y-143880459D01*
X99472078Y-144116352D01*
X99380037Y-144338559D01*
X99246413Y-144538542D01*
X99076342Y-144708613D01*
X98876359Y-144842237D01*
X98746194Y-144896153D01*
X98654153Y-144934278D01*
X98418259Y-144981200D01*
X98177741Y-144981200D01*
X97941847Y-144934278D01*
X97849806Y-144896153D01*
X97719641Y-144842237D01*
X97519658Y-144708613D01*
X97349587Y-144538542D01*
X97215963Y-144338559D01*
X97123922Y-144116352D01*
X97077000Y-143880459D01*
X97077000Y-143639941D01*
X97123922Y-143404048D01*
X97215963Y-143181841D01*
X97349587Y-142981858D01*
X97519658Y-142811787D01*
X97719641Y-142678163D01*
X97849806Y-142624247D01*
X97941847Y-142586122D01*
X98177741Y-142539200D01*
X98418259Y-142539200D01*
X98654153Y-142586122D01*
X98654153Y-142586122D01*
G37*
G36*
X88654153Y-140086122D02*
G01*
X88746194Y-140124247D01*
X88876359Y-140178163D01*
X89076342Y-140311787D01*
X89246413Y-140481858D01*
X89380037Y-140681841D01*
X89472078Y-140904048D01*
X89519000Y-141139941D01*
X89519000Y-141380459D01*
X89472078Y-141616352D01*
X89380037Y-141838559D01*
X89246413Y-142038542D01*
X89076342Y-142208613D01*
X88876359Y-142342237D01*
X88746194Y-142396153D01*
X88654153Y-142434278D01*
X88536205Y-142457739D01*
X88418259Y-142481200D01*
X88177741Y-142481200D01*
X88059795Y-142457739D01*
X87941847Y-142434278D01*
X87849806Y-142396153D01*
X87719641Y-142342237D01*
X87519658Y-142208613D01*
X87349587Y-142038542D01*
X87215963Y-141838559D01*
X87123922Y-141616352D01*
X87077000Y-141380459D01*
X87077000Y-141139941D01*
X87123922Y-140904048D01*
X87215963Y-140681841D01*
X87349587Y-140481858D01*
X87519658Y-140311787D01*
X87719641Y-140178163D01*
X87849806Y-140124247D01*
X87941847Y-140086122D01*
X88177741Y-140039200D01*
X88418259Y-140039200D01*
X88654153Y-140086122D01*
X88654153Y-140086122D01*
G37*
G36*
X98536205Y-137562661D02*
G01*
X98654153Y-137586122D01*
X98746194Y-137624247D01*
X98876359Y-137678163D01*
X99076342Y-137811787D01*
X99246413Y-137981858D01*
X99380037Y-138181841D01*
X99472078Y-138404048D01*
X99519000Y-138639941D01*
X99519000Y-138880459D01*
X99472078Y-139116352D01*
X99380037Y-139338559D01*
X99246413Y-139538542D01*
X99076342Y-139708613D01*
X98876359Y-139842237D01*
X98746194Y-139896153D01*
X98654153Y-139934278D01*
X98418259Y-139981200D01*
X98177741Y-139981200D01*
X97941847Y-139934278D01*
X97849806Y-139896153D01*
X97719641Y-139842237D01*
X97519658Y-139708613D01*
X97349587Y-139538542D01*
X97215963Y-139338559D01*
X97123922Y-139116352D01*
X97077000Y-138880459D01*
X97077000Y-138639941D01*
X97123922Y-138404048D01*
X97215963Y-138181841D01*
X97349587Y-137981858D01*
X97519658Y-137811787D01*
X97719641Y-137678163D01*
X97849806Y-137624247D01*
X97941847Y-137586122D01*
X98059795Y-137562661D01*
X98177741Y-137539200D01*
X98418259Y-137539200D01*
X98536205Y-137562661D01*
X98536205Y-137562661D01*
G37*
G36*
X86151805Y-132685861D02*
G01*
X86269753Y-132709322D01*
X86361794Y-132747447D01*
X86491959Y-132801363D01*
X86691942Y-132934987D01*
X86862013Y-133105058D01*
X86995637Y-133305041D01*
X87087678Y-133527248D01*
X87134600Y-133763141D01*
X87134600Y-134003659D01*
X87087678Y-134239552D01*
X86995637Y-134461759D01*
X86862013Y-134661742D01*
X86691942Y-134831813D01*
X86491959Y-134965437D01*
X86361794Y-135019353D01*
X86269753Y-135057478D01*
X86151805Y-135080939D01*
X86033859Y-135104400D01*
X85793341Y-135104400D01*
X85675395Y-135080939D01*
X85557447Y-135057478D01*
X85465406Y-135019353D01*
X85335241Y-134965437D01*
X85135258Y-134831813D01*
X84965187Y-134661742D01*
X84831563Y-134461759D01*
X84739522Y-134239552D01*
X84692600Y-134003659D01*
X84692600Y-133763141D01*
X84739522Y-133527248D01*
X84831563Y-133305041D01*
X84965187Y-133105058D01*
X85135258Y-132934987D01*
X85335241Y-132801363D01*
X85465406Y-132747447D01*
X85557447Y-132709322D01*
X85675395Y-132685861D01*
X85793341Y-132662400D01*
X86033859Y-132662400D01*
X86151805Y-132685861D01*
X86151805Y-132685861D01*
G37*
G36*
X58505042Y-127324718D02*
G01*
X58571227Y-127331237D01*
X58741066Y-127382757D01*
X58897591Y-127466422D01*
X58933329Y-127495752D01*
X59034786Y-127579014D01*
X59118048Y-127680471D01*
X59147378Y-127716209D01*
X59231043Y-127872734D01*
X59282563Y-128042573D01*
X59299959Y-128219200D01*
X59282563Y-128395827D01*
X59231043Y-128565666D01*
X59147378Y-128722191D01*
X59118048Y-128757929D01*
X59034786Y-128859386D01*
X58933329Y-128942648D01*
X58897591Y-128971978D01*
X58741066Y-129055643D01*
X58571227Y-129107163D01*
X58505043Y-129113681D01*
X58438860Y-129120200D01*
X58350340Y-129120200D01*
X58284157Y-129113681D01*
X58217973Y-129107163D01*
X58048134Y-129055643D01*
X57891609Y-128971978D01*
X57855871Y-128942648D01*
X57754414Y-128859386D01*
X57671152Y-128757929D01*
X57641822Y-128722191D01*
X57558157Y-128565666D01*
X57506637Y-128395827D01*
X57489241Y-128219200D01*
X57506637Y-128042573D01*
X57558157Y-127872734D01*
X57641822Y-127716209D01*
X57671152Y-127680471D01*
X57754414Y-127579014D01*
X57855871Y-127495752D01*
X57891609Y-127466422D01*
X58048134Y-127382757D01*
X58217973Y-127331237D01*
X58284158Y-127324718D01*
X58350340Y-127318200D01*
X58438860Y-127318200D01*
X58505042Y-127324718D01*
X58505042Y-127324718D01*
G37*
G36*
X59295600Y-126580200D02*
G01*
X57493600Y-126580200D01*
X57493600Y-124778200D01*
X59295600Y-124778200D01*
X59295600Y-126580200D01*
X59295600Y-126580200D01*
G37*
G36*
X79666400Y-125919800D02*
G01*
X77864400Y-125919800D01*
X77864400Y-124117800D01*
X79666400Y-124117800D01*
X79666400Y-125919800D01*
X79666400Y-125919800D01*
G37*
G36*
X88769753Y-122709322D02*
G01*
X88861794Y-122747447D01*
X88991959Y-122801363D01*
X89191942Y-122934987D01*
X89362013Y-123105058D01*
X89495637Y-123305041D01*
X89587678Y-123527248D01*
X89634600Y-123763141D01*
X89634600Y-124003659D01*
X89587678Y-124239552D01*
X89495637Y-124461759D01*
X89362013Y-124661742D01*
X89191942Y-124831813D01*
X88991959Y-124965437D01*
X88861794Y-125019353D01*
X88769753Y-125057478D01*
X88651805Y-125080939D01*
X88533859Y-125104400D01*
X88293341Y-125104400D01*
X88175395Y-125080939D01*
X88057447Y-125057478D01*
X87965406Y-125019353D01*
X87835241Y-124965437D01*
X87635258Y-124831813D01*
X87465187Y-124661742D01*
X87331563Y-124461759D01*
X87239522Y-124239552D01*
X87192600Y-124003659D01*
X87192600Y-123763141D01*
X87239522Y-123527248D01*
X87331563Y-123305041D01*
X87465187Y-123105058D01*
X87635258Y-122934987D01*
X87835241Y-122801363D01*
X87965406Y-122747447D01*
X88057447Y-122709322D01*
X88293341Y-122662400D01*
X88533859Y-122662400D01*
X88769753Y-122709322D01*
X88769753Y-122709322D01*
G37*
G36*
X83769753Y-122709322D02*
G01*
X83861794Y-122747447D01*
X83991959Y-122801363D01*
X84191942Y-122934987D01*
X84362013Y-123105058D01*
X84495637Y-123305041D01*
X84587678Y-123527248D01*
X84634600Y-123763141D01*
X84634600Y-124003659D01*
X84587678Y-124239552D01*
X84495637Y-124461759D01*
X84362013Y-124661742D01*
X84191942Y-124831813D01*
X83991959Y-124965437D01*
X83861794Y-125019353D01*
X83769753Y-125057478D01*
X83651805Y-125080939D01*
X83533859Y-125104400D01*
X83293341Y-125104400D01*
X83175395Y-125080939D01*
X83057447Y-125057478D01*
X82965406Y-125019353D01*
X82835241Y-124965437D01*
X82635258Y-124831813D01*
X82465187Y-124661742D01*
X82331563Y-124461759D01*
X82239522Y-124239552D01*
X82192600Y-124003659D01*
X82192600Y-123763141D01*
X82239522Y-123527248D01*
X82331563Y-123305041D01*
X82465187Y-123105058D01*
X82635258Y-122934987D01*
X82835241Y-122801363D01*
X82965406Y-122747447D01*
X83057447Y-122709322D01*
X83293341Y-122662400D01*
X83533859Y-122662400D01*
X83769753Y-122709322D01*
X83769753Y-122709322D01*
G37*
G36*
X78875842Y-121584318D02*
G01*
X78942027Y-121590837D01*
X79111866Y-121642357D01*
X79268391Y-121726022D01*
X79304129Y-121755352D01*
X79405586Y-121838614D01*
X79488848Y-121940071D01*
X79518178Y-121975809D01*
X79601843Y-122132334D01*
X79653363Y-122302173D01*
X79670759Y-122478800D01*
X79653363Y-122655427D01*
X79601843Y-122825266D01*
X79518178Y-122981791D01*
X79488848Y-123017529D01*
X79405586Y-123118986D01*
X79304129Y-123202248D01*
X79268391Y-123231578D01*
X79268389Y-123231579D01*
X79130953Y-123305041D01*
X79111866Y-123315243D01*
X78942027Y-123366763D01*
X78875843Y-123373281D01*
X78809660Y-123379800D01*
X78721140Y-123379800D01*
X78654957Y-123373281D01*
X78588773Y-123366763D01*
X78418934Y-123315243D01*
X78399848Y-123305041D01*
X78262411Y-123231579D01*
X78262409Y-123231578D01*
X78226671Y-123202248D01*
X78125214Y-123118986D01*
X78041952Y-123017529D01*
X78012622Y-122981791D01*
X77928957Y-122825266D01*
X77877437Y-122655427D01*
X77860041Y-122478800D01*
X77877437Y-122302173D01*
X77928957Y-122132334D01*
X78012622Y-121975809D01*
X78041952Y-121940071D01*
X78125214Y-121838614D01*
X78226671Y-121755352D01*
X78262409Y-121726022D01*
X78418934Y-121642357D01*
X78588773Y-121590837D01*
X78654958Y-121584318D01*
X78721140Y-121577800D01*
X78809660Y-121577800D01*
X78875842Y-121584318D01*
X78875842Y-121584318D01*
G37*
G36*
X65634153Y-113252922D02*
G01*
X65726194Y-113291047D01*
X65856359Y-113344963D01*
X66056342Y-113478587D01*
X66226413Y-113648658D01*
X66360037Y-113848641D01*
X66452078Y-114070848D01*
X66499000Y-114306741D01*
X66499000Y-114547259D01*
X66452078Y-114783152D01*
X66360037Y-115005359D01*
X66226413Y-115205342D01*
X66056342Y-115375413D01*
X65856359Y-115509037D01*
X65726194Y-115562953D01*
X65634153Y-115601078D01*
X65516205Y-115624539D01*
X65398259Y-115648000D01*
X65157741Y-115648000D01*
X65039795Y-115624539D01*
X64921847Y-115601078D01*
X64829806Y-115562953D01*
X64699641Y-115509037D01*
X64499658Y-115375413D01*
X64329587Y-115205342D01*
X64195963Y-115005359D01*
X64103922Y-114783152D01*
X64057000Y-114547259D01*
X64057000Y-114306741D01*
X64103922Y-114070848D01*
X64195963Y-113848641D01*
X64329587Y-113648658D01*
X64499658Y-113478587D01*
X64699641Y-113344963D01*
X64829806Y-113291047D01*
X64921847Y-113252922D01*
X65157741Y-113206000D01*
X65398259Y-113206000D01*
X65634153Y-113252922D01*
X65634153Y-113252922D01*
G37*
G36*
X60634153Y-113252922D02*
G01*
X60726194Y-113291047D01*
X60856359Y-113344963D01*
X61056342Y-113478587D01*
X61226413Y-113648658D01*
X61360037Y-113848641D01*
X61452078Y-114070848D01*
X61499000Y-114306741D01*
X61499000Y-114547259D01*
X61452078Y-114783152D01*
X61360037Y-115005359D01*
X61226413Y-115205342D01*
X61056342Y-115375413D01*
X60856359Y-115509037D01*
X60726194Y-115562953D01*
X60634153Y-115601078D01*
X60516205Y-115624539D01*
X60398259Y-115648000D01*
X60157741Y-115648000D01*
X60039795Y-115624539D01*
X59921847Y-115601078D01*
X59829806Y-115562953D01*
X59699641Y-115509037D01*
X59499658Y-115375413D01*
X59329587Y-115205342D01*
X59195963Y-115005359D01*
X59103922Y-114783152D01*
X59057000Y-114547259D01*
X59057000Y-114306741D01*
X59103922Y-114070848D01*
X59195963Y-113848641D01*
X59329587Y-113648658D01*
X59499658Y-113478587D01*
X59699641Y-113344963D01*
X59829806Y-113291047D01*
X59921847Y-113252922D01*
X60157741Y-113206000D01*
X60398259Y-113206000D01*
X60634153Y-113252922D01*
X60634153Y-113252922D01*
G37*
G36*
X93636400Y-113143600D02*
G01*
X91834400Y-113143600D01*
X91834400Y-111341600D01*
X93636400Y-111341600D01*
X93636400Y-113143600D01*
X93636400Y-113143600D01*
G37*
G36*
X90305843Y-111348119D02*
G01*
X90372027Y-111354637D01*
X90541866Y-111406157D01*
X90698391Y-111489822D01*
X90734129Y-111519152D01*
X90835586Y-111602414D01*
X90918848Y-111703871D01*
X90948178Y-111739609D01*
X91031843Y-111896134D01*
X91083363Y-112065973D01*
X91100759Y-112242600D01*
X91083363Y-112419227D01*
X91031843Y-112589066D01*
X90948178Y-112745591D01*
X90924664Y-112774243D01*
X90835586Y-112882786D01*
X90734129Y-112966048D01*
X90698391Y-112995378D01*
X90541866Y-113079043D01*
X90372027Y-113130563D01*
X90305842Y-113137082D01*
X90239660Y-113143600D01*
X90151140Y-113143600D01*
X90084958Y-113137082D01*
X90018773Y-113130563D01*
X89848934Y-113079043D01*
X89692409Y-112995378D01*
X89656671Y-112966048D01*
X89555214Y-112882786D01*
X89466136Y-112774243D01*
X89442622Y-112745591D01*
X89358957Y-112589066D01*
X89307437Y-112419227D01*
X89290041Y-112242600D01*
X89307437Y-112065973D01*
X89358957Y-111896134D01*
X89442622Y-111739609D01*
X89471952Y-111703871D01*
X89555214Y-111602414D01*
X89656671Y-111519152D01*
X89692409Y-111489822D01*
X89848934Y-111406157D01*
X90018773Y-111354637D01*
X90084957Y-111348119D01*
X90151140Y-111341600D01*
X90239660Y-111341600D01*
X90305843Y-111348119D01*
X90305843Y-111348119D01*
G37*
G36*
X106307842Y-111043318D02*
G01*
X106374027Y-111049837D01*
X106543866Y-111101357D01*
X106700391Y-111185022D01*
X106736129Y-111214352D01*
X106837586Y-111297614D01*
X106920848Y-111399071D01*
X106950178Y-111434809D01*
X107033843Y-111591334D01*
X107085363Y-111761173D01*
X107102759Y-111937800D01*
X107085363Y-112114427D01*
X107033843Y-112284266D01*
X106950178Y-112440791D01*
X106920848Y-112476529D01*
X106837586Y-112577986D01*
X106736129Y-112661248D01*
X106700391Y-112690578D01*
X106543866Y-112774243D01*
X106374027Y-112825763D01*
X106307842Y-112832282D01*
X106241660Y-112838800D01*
X106153140Y-112838800D01*
X106086958Y-112832282D01*
X106020773Y-112825763D01*
X105850934Y-112774243D01*
X105694409Y-112690578D01*
X105658671Y-112661248D01*
X105557214Y-112577986D01*
X105473952Y-112476529D01*
X105444622Y-112440791D01*
X105360957Y-112284266D01*
X105309437Y-112114427D01*
X105292041Y-111937800D01*
X105309437Y-111761173D01*
X105360957Y-111591334D01*
X105444622Y-111434809D01*
X105473952Y-111399071D01*
X105557214Y-111297614D01*
X105658671Y-111214352D01*
X105694409Y-111185022D01*
X105850934Y-111101357D01*
X106020773Y-111049837D01*
X106086958Y-111043318D01*
X106153140Y-111036800D01*
X106241660Y-111036800D01*
X106307842Y-111043318D01*
X106307842Y-111043318D01*
G37*
G36*
X109638400Y-112838800D02*
G01*
X107836400Y-112838800D01*
X107836400Y-111036800D01*
X109638400Y-111036800D01*
X109638400Y-112838800D01*
X109638400Y-112838800D01*
G37*
G36*
X107149200Y-108927200D02*
G01*
X105347200Y-108927200D01*
X105347200Y-107125200D01*
X107149200Y-107125200D01*
X107149200Y-108927200D01*
X107149200Y-108927200D01*
G37*
G36*
X111438643Y-107131719D02*
G01*
X111504827Y-107138237D01*
X111674666Y-107189757D01*
X111831191Y-107273422D01*
X111866929Y-107302752D01*
X111968386Y-107386014D01*
X112051648Y-107487471D01*
X112080978Y-107523209D01*
X112164643Y-107679734D01*
X112216163Y-107849573D01*
X112233559Y-108026200D01*
X112216163Y-108202827D01*
X112164643Y-108372666D01*
X112080978Y-108529191D01*
X112051648Y-108564929D01*
X111968386Y-108666386D01*
X111866929Y-108749648D01*
X111831191Y-108778978D01*
X111674666Y-108862643D01*
X111504827Y-108914163D01*
X111438642Y-108920682D01*
X111372460Y-108927200D01*
X111283940Y-108927200D01*
X111217758Y-108920682D01*
X111151573Y-108914163D01*
X110981734Y-108862643D01*
X110825209Y-108778978D01*
X110789471Y-108749648D01*
X110688014Y-108666386D01*
X110604752Y-108564929D01*
X110575422Y-108529191D01*
X110491757Y-108372666D01*
X110440237Y-108202827D01*
X110422841Y-108026200D01*
X110440237Y-107849573D01*
X110491757Y-107679734D01*
X110575422Y-107523209D01*
X110604752Y-107487471D01*
X110688014Y-107386014D01*
X110789471Y-107302752D01*
X110825209Y-107273422D01*
X110981734Y-107189757D01*
X111151573Y-107138237D01*
X111217757Y-107131719D01*
X111283940Y-107125200D01*
X111372460Y-107125200D01*
X111438643Y-107131719D01*
X111438643Y-107131719D01*
G37*
G36*
X108898643Y-107131719D02*
G01*
X108964827Y-107138237D01*
X109134666Y-107189757D01*
X109291191Y-107273422D01*
X109326929Y-107302752D01*
X109428386Y-107386014D01*
X109511648Y-107487471D01*
X109540978Y-107523209D01*
X109624643Y-107679734D01*
X109676163Y-107849573D01*
X109693559Y-108026200D01*
X109676163Y-108202827D01*
X109624643Y-108372666D01*
X109540978Y-108529191D01*
X109511648Y-108564929D01*
X109428386Y-108666386D01*
X109326929Y-108749648D01*
X109291191Y-108778978D01*
X109134666Y-108862643D01*
X108964827Y-108914163D01*
X108898642Y-108920682D01*
X108832460Y-108927200D01*
X108743940Y-108927200D01*
X108677758Y-108920682D01*
X108611573Y-108914163D01*
X108441734Y-108862643D01*
X108285209Y-108778978D01*
X108249471Y-108749648D01*
X108148014Y-108666386D01*
X108064752Y-108564929D01*
X108035422Y-108529191D01*
X107951757Y-108372666D01*
X107900237Y-108202827D01*
X107882841Y-108026200D01*
X107900237Y-107849573D01*
X107951757Y-107679734D01*
X108035422Y-107523209D01*
X108064752Y-107487471D01*
X108148014Y-107386014D01*
X108249471Y-107302752D01*
X108285209Y-107273422D01*
X108441734Y-107189757D01*
X108611573Y-107138237D01*
X108677757Y-107131719D01*
X108743940Y-107125200D01*
X108832460Y-107125200D01*
X108898643Y-107131719D01*
X108898643Y-107131719D01*
G37*
G36*
X93201443Y-106369719D02*
G01*
X93267627Y-106376237D01*
X93437466Y-106427757D01*
X93593991Y-106511422D01*
X93629729Y-106540752D01*
X93731186Y-106624014D01*
X93814448Y-106725471D01*
X93843778Y-106761209D01*
X93927443Y-106917734D01*
X93978963Y-107087573D01*
X93996359Y-107264200D01*
X93978963Y-107440827D01*
X93927443Y-107610666D01*
X93843778Y-107767191D01*
X93814448Y-107802929D01*
X93731186Y-107904386D01*
X93629729Y-107987648D01*
X93593991Y-108016978D01*
X93437466Y-108100643D01*
X93267627Y-108152163D01*
X93201443Y-108158681D01*
X93135260Y-108165200D01*
X93046740Y-108165200D01*
X92980557Y-108158681D01*
X92914373Y-108152163D01*
X92744534Y-108100643D01*
X92588009Y-108016978D01*
X92552271Y-107987648D01*
X92450814Y-107904386D01*
X92367552Y-107802929D01*
X92338222Y-107767191D01*
X92254557Y-107610666D01*
X92203037Y-107440827D01*
X92185641Y-107264200D01*
X92203037Y-107087573D01*
X92254557Y-106917734D01*
X92338222Y-106761209D01*
X92367552Y-106725471D01*
X92450814Y-106624014D01*
X92552271Y-106540752D01*
X92588009Y-106511422D01*
X92744534Y-106427757D01*
X92914373Y-106376237D01*
X92980557Y-106369719D01*
X93046740Y-106363200D01*
X93135260Y-106363200D01*
X93201443Y-106369719D01*
X93201443Y-106369719D01*
G37*
G36*
X95741443Y-106369719D02*
G01*
X95807627Y-106376237D01*
X95977466Y-106427757D01*
X96133991Y-106511422D01*
X96169729Y-106540752D01*
X96271186Y-106624014D01*
X96354448Y-106725471D01*
X96383778Y-106761209D01*
X96467443Y-106917734D01*
X96518963Y-107087573D01*
X96536359Y-107264200D01*
X96518963Y-107440827D01*
X96467443Y-107610666D01*
X96383778Y-107767191D01*
X96354448Y-107802929D01*
X96271186Y-107904386D01*
X96169729Y-107987648D01*
X96133991Y-108016978D01*
X95977466Y-108100643D01*
X95807627Y-108152163D01*
X95741443Y-108158681D01*
X95675260Y-108165200D01*
X95586740Y-108165200D01*
X95520557Y-108158681D01*
X95454373Y-108152163D01*
X95284534Y-108100643D01*
X95128009Y-108016978D01*
X95092271Y-107987648D01*
X94990814Y-107904386D01*
X94907552Y-107802929D01*
X94878222Y-107767191D01*
X94794557Y-107610666D01*
X94743037Y-107440827D01*
X94725641Y-107264200D01*
X94743037Y-107087573D01*
X94794557Y-106917734D01*
X94878222Y-106761209D01*
X94907552Y-106725471D01*
X94990814Y-106624014D01*
X95092271Y-106540752D01*
X95128009Y-106511422D01*
X95284534Y-106427757D01*
X95454373Y-106376237D01*
X95520557Y-106369719D01*
X95586740Y-106363200D01*
X95675260Y-106363200D01*
X95741443Y-106369719D01*
X95741443Y-106369719D01*
G37*
G36*
X91452000Y-108165200D02*
G01*
X89650000Y-108165200D01*
X89650000Y-106363200D01*
X91452000Y-106363200D01*
X91452000Y-108165200D01*
X91452000Y-108165200D01*
G37*
G36*
X63134153Y-103252922D02*
G01*
X63226194Y-103291047D01*
X63356359Y-103344963D01*
X63556342Y-103478587D01*
X63726413Y-103648658D01*
X63860037Y-103848641D01*
X63888107Y-103916409D01*
X63952078Y-104070847D01*
X63999000Y-104306742D01*
X63999000Y-104547258D01*
X63955517Y-104765866D01*
X63952078Y-104783152D01*
X63860037Y-105005359D01*
X63726413Y-105205342D01*
X63556342Y-105375413D01*
X63356359Y-105509037D01*
X63226194Y-105562953D01*
X63134153Y-105601078D01*
X63016205Y-105624539D01*
X62898259Y-105648000D01*
X62657741Y-105648000D01*
X62539795Y-105624539D01*
X62421847Y-105601078D01*
X62329806Y-105562953D01*
X62199641Y-105509037D01*
X61999658Y-105375413D01*
X61829587Y-105205342D01*
X61695963Y-105005359D01*
X61603922Y-104783152D01*
X61600484Y-104765866D01*
X61557000Y-104547258D01*
X61557000Y-104306742D01*
X61603922Y-104070847D01*
X61667893Y-103916409D01*
X61695963Y-103848641D01*
X61829587Y-103648658D01*
X61999658Y-103478587D01*
X62199641Y-103344963D01*
X62329806Y-103291047D01*
X62421847Y-103252922D01*
X62657741Y-103206000D01*
X62898259Y-103206000D01*
X63134153Y-103252922D01*
X63134153Y-103252922D01*
G37*
G36*
X109663800Y-105320400D02*
G01*
X107861800Y-105320400D01*
X107861800Y-103518400D01*
X109663800Y-103518400D01*
X109663800Y-105320400D01*
X109663800Y-105320400D01*
G37*
G36*
X106333242Y-103524918D02*
G01*
X106399427Y-103531437D01*
X106569266Y-103582957D01*
X106725791Y-103666622D01*
X106761529Y-103695952D01*
X106862986Y-103779214D01*
X106919962Y-103848641D01*
X106975578Y-103916409D01*
X106975579Y-103916411D01*
X107058128Y-104070847D01*
X107059243Y-104072934D01*
X107110763Y-104242773D01*
X107128159Y-104419400D01*
X107110763Y-104596027D01*
X107059243Y-104765866D01*
X106975578Y-104922391D01*
X106946248Y-104958129D01*
X106862986Y-105059586D01*
X106761529Y-105142848D01*
X106725791Y-105172178D01*
X106569266Y-105255843D01*
X106399427Y-105307363D01*
X106333243Y-105313881D01*
X106267060Y-105320400D01*
X106178540Y-105320400D01*
X106112357Y-105313881D01*
X106046173Y-105307363D01*
X105876334Y-105255843D01*
X105719809Y-105172178D01*
X105684071Y-105142848D01*
X105582614Y-105059586D01*
X105499352Y-104958129D01*
X105470022Y-104922391D01*
X105386357Y-104765866D01*
X105334837Y-104596027D01*
X105317441Y-104419400D01*
X105334837Y-104242773D01*
X105386357Y-104072934D01*
X105387473Y-104070847D01*
X105470021Y-103916411D01*
X105470022Y-103916409D01*
X105525638Y-103848641D01*
X105582614Y-103779214D01*
X105684071Y-103695952D01*
X105719809Y-103666622D01*
X105876334Y-103582957D01*
X106046173Y-103531437D01*
X106112358Y-103524918D01*
X106178540Y-103518400D01*
X106267060Y-103518400D01*
X106333242Y-103524918D01*
X106333242Y-103524918D01*
G37*
G36*
X107250800Y-96735200D02*
G01*
X105448800Y-96735200D01*
X105448800Y-94933200D01*
X107250800Y-94933200D01*
X107250800Y-96735200D01*
X107250800Y-96735200D01*
G37*
G36*
X106460243Y-92399719D02*
G01*
X106526427Y-92406237D01*
X106696266Y-92457757D01*
X106852791Y-92541422D01*
X106888529Y-92570752D01*
X106989986Y-92654014D01*
X107073248Y-92755471D01*
X107102578Y-92791209D01*
X107186243Y-92947734D01*
X107237763Y-93117573D01*
X107255159Y-93294200D01*
X107237763Y-93470827D01*
X107186243Y-93640666D01*
X107102578Y-93797191D01*
X107073248Y-93832929D01*
X106989986Y-93934386D01*
X106888529Y-94017648D01*
X106852791Y-94046978D01*
X106696266Y-94130643D01*
X106526427Y-94182163D01*
X106460242Y-94188682D01*
X106394060Y-94195200D01*
X106305540Y-94195200D01*
X106239358Y-94188682D01*
X106173173Y-94182163D01*
X106003334Y-94130643D01*
X105846809Y-94046978D01*
X105811071Y-94017648D01*
X105709614Y-93934386D01*
X105626352Y-93832929D01*
X105597022Y-93797191D01*
X105513357Y-93640666D01*
X105461837Y-93470827D01*
X105444441Y-93294200D01*
X105461837Y-93117573D01*
X105513357Y-92947734D01*
X105597022Y-92791209D01*
X105626352Y-92755471D01*
X105709614Y-92654014D01*
X105811071Y-92570752D01*
X105846809Y-92541422D01*
X106003334Y-92457757D01*
X106173173Y-92406237D01*
X106239357Y-92399719D01*
X106305540Y-92393200D01*
X106394060Y-92393200D01*
X106460243Y-92399719D01*
X106460243Y-92399719D01*
G37*
G36*
X76132342Y-87661042D02*
G01*
X76280301Y-87722329D01*
X76413455Y-87811299D01*
X76526701Y-87924545D01*
X76615671Y-88057699D01*
X76676958Y-88205658D01*
X76708200Y-88362725D01*
X76708200Y-88522875D01*
X76676958Y-88679942D01*
X76615671Y-88827901D01*
X76526701Y-88961055D01*
X76413455Y-89074301D01*
X76280301Y-89163271D01*
X76132342Y-89224558D01*
X75975275Y-89255800D01*
X75815125Y-89255800D01*
X75658058Y-89224558D01*
X75510099Y-89163271D01*
X75376945Y-89074301D01*
X75263699Y-88961055D01*
X75174729Y-88827901D01*
X75113442Y-88679942D01*
X75082200Y-88522875D01*
X75082200Y-88362725D01*
X75113442Y-88205658D01*
X75174729Y-88057699D01*
X75263699Y-87924545D01*
X75376945Y-87811299D01*
X75510099Y-87722329D01*
X75658058Y-87661042D01*
X75815125Y-87629800D01*
X75975275Y-87629800D01*
X76132342Y-87661042D01*
X76132342Y-87661042D01*
G37*
G36*
X76132342Y-80041042D02*
G01*
X76280301Y-80102329D01*
X76413455Y-80191299D01*
X76526701Y-80304545D01*
X76615671Y-80437699D01*
X76676958Y-80585658D01*
X76708200Y-80742725D01*
X76708200Y-80902875D01*
X76676958Y-81059942D01*
X76615671Y-81207901D01*
X76526701Y-81341055D01*
X76413455Y-81454301D01*
X76280301Y-81543271D01*
X76132342Y-81604558D01*
X75975275Y-81635800D01*
X75815125Y-81635800D01*
X75658058Y-81604558D01*
X75510099Y-81543271D01*
X75376945Y-81454301D01*
X75263699Y-81341055D01*
X75174729Y-81207901D01*
X75113442Y-81059942D01*
X75082200Y-80902875D01*
X75082200Y-80742725D01*
X75113442Y-80585658D01*
X75174729Y-80437699D01*
X75263699Y-80304545D01*
X75376945Y-80191299D01*
X75510099Y-80102329D01*
X75658058Y-80041042D01*
X75815125Y-80009800D01*
X75975275Y-80009800D01*
X76132342Y-80041042D01*
X76132342Y-80041042D01*
G37*
G36*
X117280642Y-79064718D02*
G01*
X117346827Y-79071237D01*
X117516666Y-79122757D01*
X117673191Y-79206422D01*
X117708929Y-79235752D01*
X117810386Y-79319014D01*
X117893648Y-79420471D01*
X117922978Y-79456209D01*
X118006643Y-79612734D01*
X118058163Y-79782573D01*
X118075559Y-79959200D01*
X118058163Y-80135827D01*
X118006643Y-80305666D01*
X117922978Y-80462191D01*
X117893648Y-80497929D01*
X117810386Y-80599386D01*
X117708929Y-80682648D01*
X117673191Y-80711978D01*
X117516666Y-80795643D01*
X117346827Y-80847163D01*
X117280642Y-80853682D01*
X117214460Y-80860200D01*
X117125940Y-80860200D01*
X117059758Y-80853682D01*
X116993573Y-80847163D01*
X116823734Y-80795643D01*
X116667209Y-80711978D01*
X116631471Y-80682648D01*
X116530014Y-80599386D01*
X116446752Y-80497929D01*
X116417422Y-80462191D01*
X116333757Y-80305666D01*
X116282237Y-80135827D01*
X116264841Y-79959200D01*
X116282237Y-79782573D01*
X116333757Y-79612734D01*
X116417422Y-79456209D01*
X116446752Y-79420471D01*
X116530014Y-79319014D01*
X116631471Y-79235752D01*
X116667209Y-79206422D01*
X116823734Y-79122757D01*
X116993573Y-79071237D01*
X117059758Y-79064718D01*
X117125940Y-79058200D01*
X117214460Y-79058200D01*
X117280642Y-79064718D01*
X117280642Y-79064718D01*
G37*
G36*
X114740642Y-79064718D02*
G01*
X114806827Y-79071237D01*
X114976666Y-79122757D01*
X115133191Y-79206422D01*
X115168929Y-79235752D01*
X115270386Y-79319014D01*
X115353648Y-79420471D01*
X115382978Y-79456209D01*
X115466643Y-79612734D01*
X115518163Y-79782573D01*
X115535559Y-79959200D01*
X115518163Y-80135827D01*
X115466643Y-80305666D01*
X115382978Y-80462191D01*
X115353648Y-80497929D01*
X115270386Y-80599386D01*
X115168929Y-80682648D01*
X115133191Y-80711978D01*
X114976666Y-80795643D01*
X114806827Y-80847163D01*
X114740642Y-80853682D01*
X114674460Y-80860200D01*
X114585940Y-80860200D01*
X114519758Y-80853682D01*
X114453573Y-80847163D01*
X114283734Y-80795643D01*
X114127209Y-80711978D01*
X114091471Y-80682648D01*
X113990014Y-80599386D01*
X113906752Y-80497929D01*
X113877422Y-80462191D01*
X113793757Y-80305666D01*
X113742237Y-80135827D01*
X113724841Y-79959200D01*
X113742237Y-79782573D01*
X113793757Y-79612734D01*
X113877422Y-79456209D01*
X113906752Y-79420471D01*
X113990014Y-79319014D01*
X114091471Y-79235752D01*
X114127209Y-79206422D01*
X114283734Y-79122757D01*
X114453573Y-79071237D01*
X114519758Y-79064718D01*
X114585940Y-79058200D01*
X114674460Y-79058200D01*
X114740642Y-79064718D01*
X114740642Y-79064718D01*
G37*
G36*
X114486643Y-76524719D02*
G01*
X114552827Y-76531237D01*
X114722666Y-76582757D01*
X114879191Y-76666422D01*
X114914929Y-76695752D01*
X115016386Y-76779014D01*
X115099648Y-76880471D01*
X115128978Y-76916209D01*
X115212643Y-77072734D01*
X115264163Y-77242573D01*
X115281559Y-77419200D01*
X115264163Y-77595827D01*
X115212643Y-77765666D01*
X115128978Y-77922191D01*
X115099648Y-77957929D01*
X115016386Y-78059386D01*
X114914929Y-78142648D01*
X114879191Y-78171978D01*
X114722666Y-78255643D01*
X114552827Y-78307163D01*
X114486643Y-78313681D01*
X114420460Y-78320200D01*
X114331940Y-78320200D01*
X114265757Y-78313681D01*
X114199573Y-78307163D01*
X114029734Y-78255643D01*
X113873209Y-78171978D01*
X113837471Y-78142648D01*
X113736014Y-78059386D01*
X113652752Y-77957929D01*
X113623422Y-77922191D01*
X113539757Y-77765666D01*
X113488237Y-77595827D01*
X113470841Y-77419200D01*
X113488237Y-77242573D01*
X113539757Y-77072734D01*
X113623422Y-76916209D01*
X113652752Y-76880471D01*
X113736014Y-76779014D01*
X113837471Y-76695752D01*
X113873209Y-76666422D01*
X114029734Y-76582757D01*
X114199573Y-76531237D01*
X114265757Y-76524719D01*
X114331940Y-76518200D01*
X114420460Y-76518200D01*
X114486643Y-76524719D01*
X114486643Y-76524719D01*
G37*
G36*
X117026643Y-76524719D02*
G01*
X117092827Y-76531237D01*
X117262666Y-76582757D01*
X117419191Y-76666422D01*
X117454929Y-76695752D01*
X117556386Y-76779014D01*
X117639648Y-76880471D01*
X117668978Y-76916209D01*
X117752643Y-77072734D01*
X117804163Y-77242573D01*
X117821559Y-77419200D01*
X117804163Y-77595827D01*
X117752643Y-77765666D01*
X117668978Y-77922191D01*
X117639648Y-77957929D01*
X117556386Y-78059386D01*
X117454929Y-78142648D01*
X117419191Y-78171978D01*
X117262666Y-78255643D01*
X117092827Y-78307163D01*
X117026643Y-78313681D01*
X116960460Y-78320200D01*
X116871940Y-78320200D01*
X116805757Y-78313681D01*
X116739573Y-78307163D01*
X116569734Y-78255643D01*
X116413209Y-78171978D01*
X116377471Y-78142648D01*
X116276014Y-78059386D01*
X116192752Y-77957929D01*
X116163422Y-77922191D01*
X116079757Y-77765666D01*
X116028237Y-77595827D01*
X116010841Y-77419200D01*
X116028237Y-77242573D01*
X116079757Y-77072734D01*
X116163422Y-76916209D01*
X116192752Y-76880471D01*
X116276014Y-76779014D01*
X116377471Y-76695752D01*
X116413209Y-76666422D01*
X116569734Y-76582757D01*
X116739573Y-76531237D01*
X116805757Y-76524719D01*
X116871940Y-76518200D01*
X116960460Y-76518200D01*
X117026643Y-76524719D01*
X117026643Y-76524719D01*
G37*
G36*
X114740642Y-73984718D02*
G01*
X114806827Y-73991237D01*
X114976666Y-74042757D01*
X115133191Y-74126422D01*
X115168929Y-74155752D01*
X115270386Y-74239014D01*
X115328525Y-74309858D01*
X115382978Y-74376209D01*
X115466643Y-74532734D01*
X115518163Y-74702573D01*
X115535559Y-74879200D01*
X115518163Y-75055827D01*
X115466643Y-75225666D01*
X115382978Y-75382191D01*
X115359663Y-75410600D01*
X115270386Y-75519386D01*
X115168929Y-75602648D01*
X115133191Y-75631978D01*
X114976666Y-75715643D01*
X114806827Y-75767163D01*
X114740643Y-75773681D01*
X114674460Y-75780200D01*
X114585940Y-75780200D01*
X114519757Y-75773681D01*
X114453573Y-75767163D01*
X114283734Y-75715643D01*
X114127209Y-75631978D01*
X114091471Y-75602648D01*
X113990014Y-75519386D01*
X113900737Y-75410600D01*
X113877422Y-75382191D01*
X113793757Y-75225666D01*
X113742237Y-75055827D01*
X113724841Y-74879200D01*
X113742237Y-74702573D01*
X113793757Y-74532734D01*
X113877422Y-74376209D01*
X113931875Y-74309858D01*
X113990014Y-74239014D01*
X114091471Y-74155752D01*
X114127209Y-74126422D01*
X114283734Y-74042757D01*
X114453573Y-73991237D01*
X114519758Y-73984718D01*
X114585940Y-73978200D01*
X114674460Y-73978200D01*
X114740642Y-73984718D01*
X114740642Y-73984718D01*
G37*
G36*
X117280642Y-73984718D02*
G01*
X117346827Y-73991237D01*
X117516666Y-74042757D01*
X117673191Y-74126422D01*
X117708929Y-74155752D01*
X117810386Y-74239014D01*
X117868525Y-74309858D01*
X117922978Y-74376209D01*
X118006643Y-74532734D01*
X118058163Y-74702573D01*
X118075559Y-74879200D01*
X118058163Y-75055827D01*
X118006643Y-75225666D01*
X117922978Y-75382191D01*
X117899663Y-75410600D01*
X117810386Y-75519386D01*
X117708929Y-75602648D01*
X117673191Y-75631978D01*
X117516666Y-75715643D01*
X117346827Y-75767163D01*
X117280643Y-75773681D01*
X117214460Y-75780200D01*
X117125940Y-75780200D01*
X117059757Y-75773681D01*
X116993573Y-75767163D01*
X116823734Y-75715643D01*
X116667209Y-75631978D01*
X116631471Y-75602648D01*
X116530014Y-75519386D01*
X116440737Y-75410600D01*
X116417422Y-75382191D01*
X116333757Y-75225666D01*
X116282237Y-75055827D01*
X116264841Y-74879200D01*
X116282237Y-74702573D01*
X116333757Y-74532734D01*
X116417422Y-74376209D01*
X116471875Y-74309858D01*
X116530014Y-74239014D01*
X116631471Y-74155752D01*
X116667209Y-74126422D01*
X116823734Y-74042757D01*
X116993573Y-73991237D01*
X117059758Y-73984718D01*
X117125940Y-73978200D01*
X117214460Y-73978200D01*
X117280642Y-73984718D01*
X117280642Y-73984718D01*
G37*
G36*
X84963553Y-73015522D02*
G01*
X85008698Y-73034222D01*
X85185759Y-73107563D01*
X85385742Y-73241187D01*
X85555813Y-73411258D01*
X85689437Y-73611241D01*
X85743353Y-73741406D01*
X85781478Y-73833447D01*
X85828400Y-74069342D01*
X85828400Y-74309858D01*
X85784068Y-74532734D01*
X85781478Y-74545752D01*
X85689437Y-74767959D01*
X85555813Y-74967942D01*
X85385742Y-75138013D01*
X85185759Y-75271637D01*
X85055594Y-75325553D01*
X84963553Y-75363678D01*
X84870491Y-75382189D01*
X84727659Y-75410600D01*
X84487141Y-75410600D01*
X84344309Y-75382189D01*
X84251247Y-75363678D01*
X84159206Y-75325553D01*
X84029041Y-75271637D01*
X83829058Y-75138013D01*
X83658987Y-74967942D01*
X83525363Y-74767959D01*
X83433322Y-74545752D01*
X83430733Y-74532734D01*
X83386400Y-74309858D01*
X83386400Y-74069342D01*
X83433322Y-73833447D01*
X83471447Y-73741406D01*
X83525363Y-73611241D01*
X83658987Y-73411258D01*
X83829058Y-73241187D01*
X84029041Y-73107563D01*
X84206102Y-73034222D01*
X84251247Y-73015522D01*
X84487141Y-72968600D01*
X84727659Y-72968600D01*
X84963553Y-73015522D01*
X84963553Y-73015522D01*
G37*
G36*
X61857842Y-72892518D02*
G01*
X61924027Y-72899037D01*
X62093866Y-72950557D01*
X62250391Y-73034222D01*
X62286129Y-73063552D01*
X62387586Y-73146814D01*
X62464225Y-73240200D01*
X62500178Y-73284009D01*
X62583843Y-73440534D01*
X62635363Y-73610373D01*
X62652759Y-73787000D01*
X62635363Y-73963627D01*
X62583843Y-74133466D01*
X62500178Y-74289991D01*
X62470848Y-74325729D01*
X62387586Y-74427186D01*
X62286129Y-74510448D01*
X62250391Y-74539778D01*
X62093866Y-74623443D01*
X61924027Y-74674963D01*
X61857842Y-74681482D01*
X61791660Y-74688000D01*
X61703140Y-74688000D01*
X61636958Y-74681482D01*
X61570773Y-74674963D01*
X61400934Y-74623443D01*
X61244409Y-74539778D01*
X61208671Y-74510448D01*
X61107214Y-74427186D01*
X61023952Y-74325729D01*
X60994622Y-74289991D01*
X60910957Y-74133466D01*
X60859437Y-73963627D01*
X60842041Y-73787000D01*
X60859437Y-73610373D01*
X60910957Y-73440534D01*
X60994622Y-73284009D01*
X61030575Y-73240200D01*
X61107214Y-73146814D01*
X61208671Y-73063552D01*
X61244409Y-73034222D01*
X61400934Y-72950557D01*
X61570773Y-72899037D01*
X61636958Y-72892518D01*
X61703140Y-72886000D01*
X61791660Y-72886000D01*
X61857842Y-72892518D01*
X61857842Y-72892518D01*
G37*
G36*
X117026643Y-71444719D02*
G01*
X117092827Y-71451237D01*
X117262666Y-71502757D01*
X117419191Y-71586422D01*
X117454929Y-71615752D01*
X117556386Y-71699014D01*
X117639648Y-71800471D01*
X117668978Y-71836209D01*
X117752643Y-71992734D01*
X117804163Y-72162573D01*
X117821559Y-72339200D01*
X117804163Y-72515827D01*
X117752643Y-72685666D01*
X117668978Y-72842191D01*
X117651344Y-72863678D01*
X117556386Y-72979386D01*
X117454929Y-73062648D01*
X117419191Y-73091978D01*
X117262666Y-73175643D01*
X117092827Y-73227163D01*
X117026643Y-73233681D01*
X116960460Y-73240200D01*
X116871940Y-73240200D01*
X116805757Y-73233681D01*
X116739573Y-73227163D01*
X116569734Y-73175643D01*
X116413209Y-73091978D01*
X116377471Y-73062648D01*
X116276014Y-72979386D01*
X116181056Y-72863678D01*
X116163422Y-72842191D01*
X116079757Y-72685666D01*
X116028237Y-72515827D01*
X116010841Y-72339200D01*
X116028237Y-72162573D01*
X116079757Y-71992734D01*
X116163422Y-71836209D01*
X116192752Y-71800471D01*
X116276014Y-71699014D01*
X116377471Y-71615752D01*
X116413209Y-71586422D01*
X116569734Y-71502757D01*
X116739573Y-71451237D01*
X116805757Y-71444719D01*
X116871940Y-71438200D01*
X116960460Y-71438200D01*
X117026643Y-71444719D01*
X117026643Y-71444719D01*
G37*
G36*
X114486643Y-71444719D02*
G01*
X114552827Y-71451237D01*
X114722666Y-71502757D01*
X114879191Y-71586422D01*
X114914929Y-71615752D01*
X115016386Y-71699014D01*
X115099648Y-71800471D01*
X115128978Y-71836209D01*
X115212643Y-71992734D01*
X115264163Y-72162573D01*
X115281559Y-72339200D01*
X115264163Y-72515827D01*
X115212643Y-72685666D01*
X115128978Y-72842191D01*
X115111344Y-72863678D01*
X115016386Y-72979386D01*
X114914929Y-73062648D01*
X114879191Y-73091978D01*
X114722666Y-73175643D01*
X114552827Y-73227163D01*
X114486643Y-73233681D01*
X114420460Y-73240200D01*
X114331940Y-73240200D01*
X114265757Y-73233681D01*
X114199573Y-73227163D01*
X114029734Y-73175643D01*
X113873209Y-73091978D01*
X113837471Y-73062648D01*
X113736014Y-72979386D01*
X113641056Y-72863678D01*
X113623422Y-72842191D01*
X113539757Y-72685666D01*
X113488237Y-72515827D01*
X113470841Y-72339200D01*
X113488237Y-72162573D01*
X113539757Y-71992734D01*
X113623422Y-71836209D01*
X113652752Y-71800471D01*
X113736014Y-71699014D01*
X113837471Y-71615752D01*
X113873209Y-71586422D01*
X114029734Y-71502757D01*
X114199573Y-71451237D01*
X114265757Y-71444719D01*
X114331940Y-71438200D01*
X114420460Y-71438200D01*
X114486643Y-71444719D01*
X114486643Y-71444719D01*
G37*
G36*
X94963553Y-70515522D02*
G01*
X95051565Y-70551978D01*
X95185759Y-70607563D01*
X95385742Y-70741187D01*
X95555813Y-70911258D01*
X95689437Y-71111241D01*
X95743353Y-71241406D01*
X95781478Y-71333447D01*
X95828400Y-71569342D01*
X95828400Y-71809858D01*
X95781478Y-72045753D01*
X95765866Y-72083443D01*
X95689437Y-72267959D01*
X95555813Y-72467942D01*
X95385742Y-72638013D01*
X95185759Y-72771637D01*
X95055594Y-72825553D01*
X94963553Y-72863678D01*
X94851332Y-72886000D01*
X94727659Y-72910600D01*
X94487141Y-72910600D01*
X94363468Y-72886000D01*
X94251247Y-72863678D01*
X94159206Y-72825553D01*
X94029041Y-72771637D01*
X93829058Y-72638013D01*
X93658987Y-72467942D01*
X93525363Y-72267959D01*
X93448934Y-72083443D01*
X93433322Y-72045753D01*
X93386400Y-71809858D01*
X93386400Y-71569342D01*
X93433322Y-71333447D01*
X93471447Y-71241406D01*
X93525363Y-71111241D01*
X93658987Y-70911258D01*
X93829058Y-70741187D01*
X94029041Y-70607563D01*
X94163235Y-70551978D01*
X94251247Y-70515522D01*
X94487141Y-70468600D01*
X94727659Y-70468600D01*
X94963553Y-70515522D01*
X94963553Y-70515522D01*
G37*
G36*
X61857843Y-70352519D02*
G01*
X61924027Y-70359037D01*
X62093866Y-70410557D01*
X62093868Y-70410558D01*
X62147799Y-70439385D01*
X62250391Y-70494222D01*
X62276345Y-70515522D01*
X62387586Y-70606814D01*
X62464225Y-70700200D01*
X62500178Y-70744009D01*
X62583843Y-70900534D01*
X62635363Y-71070373D01*
X62652759Y-71247000D01*
X62635363Y-71423627D01*
X62583843Y-71593466D01*
X62500178Y-71749991D01*
X62470848Y-71785729D01*
X62387586Y-71887186D01*
X62286129Y-71970448D01*
X62250391Y-71999778D01*
X62250389Y-71999779D01*
X62164379Y-72045753D01*
X62093866Y-72083443D01*
X61924027Y-72134963D01*
X61857843Y-72141481D01*
X61791660Y-72148000D01*
X61703140Y-72148000D01*
X61636957Y-72141481D01*
X61570773Y-72134963D01*
X61400934Y-72083443D01*
X61330422Y-72045753D01*
X61244411Y-71999779D01*
X61244409Y-71999778D01*
X61208671Y-71970448D01*
X61107214Y-71887186D01*
X61023952Y-71785729D01*
X60994622Y-71749991D01*
X60910957Y-71593466D01*
X60859437Y-71423627D01*
X60842041Y-71247000D01*
X60859437Y-71070373D01*
X60910957Y-70900534D01*
X60994622Y-70744009D01*
X61030575Y-70700200D01*
X61107214Y-70606814D01*
X61218455Y-70515522D01*
X61244409Y-70494222D01*
X61347001Y-70439385D01*
X61400932Y-70410558D01*
X61400934Y-70410557D01*
X61570773Y-70359037D01*
X61636957Y-70352519D01*
X61703140Y-70346000D01*
X61791660Y-70346000D01*
X61857843Y-70352519D01*
X61857843Y-70352519D01*
G37*
G36*
X117280643Y-68904719D02*
G01*
X117346827Y-68911237D01*
X117516666Y-68962757D01*
X117673191Y-69046422D01*
X117701118Y-69069341D01*
X117810386Y-69159014D01*
X117893648Y-69260471D01*
X117922978Y-69296209D01*
X118006643Y-69452734D01*
X118058163Y-69622573D01*
X118075559Y-69799200D01*
X118058163Y-69975827D01*
X118006643Y-70145666D01*
X117922978Y-70302191D01*
X117893648Y-70337929D01*
X117810386Y-70439386D01*
X117708929Y-70522648D01*
X117673191Y-70551978D01*
X117516666Y-70635643D01*
X117346827Y-70687163D01*
X117280642Y-70693682D01*
X117214460Y-70700200D01*
X117125940Y-70700200D01*
X117059758Y-70693682D01*
X116993573Y-70687163D01*
X116823734Y-70635643D01*
X116667209Y-70551978D01*
X116631471Y-70522648D01*
X116530014Y-70439386D01*
X116446752Y-70337929D01*
X116417422Y-70302191D01*
X116333757Y-70145666D01*
X116282237Y-69975827D01*
X116264841Y-69799200D01*
X116282237Y-69622573D01*
X116333757Y-69452734D01*
X116417422Y-69296209D01*
X116446752Y-69260471D01*
X116530014Y-69159014D01*
X116639282Y-69069341D01*
X116667209Y-69046422D01*
X116823734Y-68962757D01*
X116993573Y-68911237D01*
X117059757Y-68904719D01*
X117125940Y-68898200D01*
X117214460Y-68898200D01*
X117280643Y-68904719D01*
X117280643Y-68904719D01*
G37*
G36*
X115531200Y-70700200D02*
G01*
X113729200Y-70700200D01*
X113729200Y-68898200D01*
X115531200Y-68898200D01*
X115531200Y-70700200D01*
X115531200Y-70700200D01*
G37*
G36*
X84845605Y-67992061D02*
G01*
X84963553Y-68015522D01*
X85035749Y-68045427D01*
X85185759Y-68107563D01*
X85385742Y-68241187D01*
X85555813Y-68411258D01*
X85689437Y-68611241D01*
X85781478Y-68833448D01*
X85828400Y-69069341D01*
X85828400Y-69309859D01*
X85781478Y-69545752D01*
X85689437Y-69767959D01*
X85555813Y-69967942D01*
X85385742Y-70138013D01*
X85185759Y-70271637D01*
X85055594Y-70325553D01*
X84963553Y-70363678D01*
X84727659Y-70410600D01*
X84487141Y-70410600D01*
X84251247Y-70363678D01*
X84159206Y-70325553D01*
X84029041Y-70271637D01*
X83829058Y-70138013D01*
X83658987Y-69967942D01*
X83525363Y-69767959D01*
X83433322Y-69545752D01*
X83386400Y-69309859D01*
X83386400Y-69069341D01*
X83433322Y-68833448D01*
X83525363Y-68611241D01*
X83658987Y-68411258D01*
X83829058Y-68241187D01*
X84029041Y-68107563D01*
X84179051Y-68045427D01*
X84251247Y-68015522D01*
X84369195Y-67992061D01*
X84487141Y-67968600D01*
X84727659Y-67968600D01*
X84845605Y-67992061D01*
X84845605Y-67992061D01*
G37*
G36*
X62648400Y-69608000D02*
G01*
X60846400Y-69608000D01*
X60846400Y-67806000D01*
X62648400Y-67806000D01*
X62648400Y-69608000D01*
X62648400Y-69608000D01*
G37*
G36*
X65896442Y-66974318D02*
G01*
X65962627Y-66980837D01*
X66132466Y-67032357D01*
X66288991Y-67116022D01*
X66324729Y-67145352D01*
X66426186Y-67228614D01*
X66509448Y-67330071D01*
X66538778Y-67365809D01*
X66622443Y-67522334D01*
X66673963Y-67692173D01*
X66691359Y-67868800D01*
X66673963Y-68045427D01*
X66622443Y-68215266D01*
X66538778Y-68371791D01*
X66509448Y-68407529D01*
X66426186Y-68508986D01*
X66324729Y-68592248D01*
X66288991Y-68621578D01*
X66132466Y-68705243D01*
X65962627Y-68756763D01*
X65896442Y-68763282D01*
X65830260Y-68769800D01*
X65741740Y-68769800D01*
X65675558Y-68763282D01*
X65609373Y-68756763D01*
X65439534Y-68705243D01*
X65283009Y-68621578D01*
X65247271Y-68592248D01*
X65145814Y-68508986D01*
X65062552Y-68407529D01*
X65033222Y-68371791D01*
X64949557Y-68215266D01*
X64898037Y-68045427D01*
X64880641Y-67868800D01*
X64898037Y-67692173D01*
X64949557Y-67522334D01*
X65033222Y-67365809D01*
X65062552Y-67330071D01*
X65145814Y-67228614D01*
X65247271Y-67145352D01*
X65283009Y-67116022D01*
X65439534Y-67032357D01*
X65609373Y-66980837D01*
X65675558Y-66974318D01*
X65741740Y-66967800D01*
X65830260Y-66967800D01*
X65896442Y-66974318D01*
X65896442Y-66974318D01*
G37*
G36*
X66687000Y-66229800D02*
G01*
X64885000Y-66229800D01*
X64885000Y-64427800D01*
X66687000Y-64427800D01*
X66687000Y-66229800D01*
X66687000Y-66229800D01*
G37*
G36*
X62115000Y-65290000D02*
G01*
X60313000Y-65290000D01*
X60313000Y-63488000D01*
X62115000Y-63488000D01*
X62115000Y-65290000D01*
X62115000Y-65290000D01*
G37*
G36*
X58457400Y-65290000D02*
G01*
X56655400Y-65290000D01*
X56655400Y-63488000D01*
X58457400Y-63488000D01*
X58457400Y-65290000D01*
X58457400Y-65290000D01*
G37*
G36*
X94259953Y-62351322D02*
G01*
X94351994Y-62389447D01*
X94482159Y-62443363D01*
X94682142Y-62576987D01*
X94852213Y-62747058D01*
X94985837Y-62947041D01*
X95006534Y-62997009D01*
X95071369Y-63153532D01*
X95077878Y-63169248D01*
X95124800Y-63405141D01*
X95124800Y-63645659D01*
X95077878Y-63881552D01*
X94985837Y-64103759D01*
X94852213Y-64303742D01*
X94682142Y-64473813D01*
X94482159Y-64607437D01*
X94351994Y-64661353D01*
X94259953Y-64699478D01*
X94024059Y-64746400D01*
X93783541Y-64746400D01*
X93547647Y-64699478D01*
X93455606Y-64661353D01*
X93325441Y-64607437D01*
X93125458Y-64473813D01*
X92955387Y-64303742D01*
X92821763Y-64103759D01*
X92729722Y-63881552D01*
X92682800Y-63645659D01*
X92682800Y-63405141D01*
X92729722Y-63169248D01*
X92736232Y-63153532D01*
X92801066Y-62997009D01*
X92821763Y-62947041D01*
X92955387Y-62747058D01*
X93125458Y-62576987D01*
X93325441Y-62443363D01*
X93455606Y-62389447D01*
X93547647Y-62351322D01*
X93783541Y-62304400D01*
X94024059Y-62304400D01*
X94259953Y-62351322D01*
X94259953Y-62351322D01*
G37*
G36*
X82558842Y-62605518D02*
G01*
X82625027Y-62612037D01*
X82794866Y-62663557D01*
X82951391Y-62747222D01*
X82987129Y-62776552D01*
X83088586Y-62859814D01*
X83160169Y-62947040D01*
X83201178Y-62997009D01*
X83284843Y-63153534D01*
X83336363Y-63323373D01*
X83353759Y-63500000D01*
X83336363Y-63676627D01*
X83284843Y-63846466D01*
X83284842Y-63846468D01*
X83243011Y-63924728D01*
X83201178Y-64002991D01*
X83171848Y-64038729D01*
X83088586Y-64140186D01*
X82987129Y-64223448D01*
X82951391Y-64252778D01*
X82794866Y-64336443D01*
X82625027Y-64387963D01*
X82558842Y-64394482D01*
X82492660Y-64401000D01*
X82404140Y-64401000D01*
X82337958Y-64394482D01*
X82271773Y-64387963D01*
X82101934Y-64336443D01*
X81945409Y-64252778D01*
X81909671Y-64223448D01*
X81808214Y-64140186D01*
X81724952Y-64038729D01*
X81695622Y-64002991D01*
X81653789Y-63924728D01*
X81611958Y-63846468D01*
X81611957Y-63846466D01*
X81560437Y-63676627D01*
X81543041Y-63500000D01*
X81560437Y-63323373D01*
X81611957Y-63153534D01*
X81695622Y-62997009D01*
X81736631Y-62947040D01*
X81808214Y-62859814D01*
X81909671Y-62776552D01*
X81945409Y-62747222D01*
X82101934Y-62663557D01*
X82271773Y-62612037D01*
X82337958Y-62605518D01*
X82404140Y-62599000D01*
X82492660Y-62599000D01*
X82558842Y-62605518D01*
X82558842Y-62605518D01*
G37*
G36*
X80018842Y-62605518D02*
G01*
X80085027Y-62612037D01*
X80254866Y-62663557D01*
X80411391Y-62747222D01*
X80447129Y-62776552D01*
X80548586Y-62859814D01*
X80620169Y-62947040D01*
X80661178Y-62997009D01*
X80744843Y-63153534D01*
X80796363Y-63323373D01*
X80813759Y-63500000D01*
X80796363Y-63676627D01*
X80744843Y-63846466D01*
X80744842Y-63846468D01*
X80703011Y-63924728D01*
X80661178Y-64002991D01*
X80631848Y-64038729D01*
X80548586Y-64140186D01*
X80447129Y-64223448D01*
X80411391Y-64252778D01*
X80254866Y-64336443D01*
X80085027Y-64387963D01*
X80018842Y-64394482D01*
X79952660Y-64401000D01*
X79864140Y-64401000D01*
X79797958Y-64394482D01*
X79731773Y-64387963D01*
X79561934Y-64336443D01*
X79405409Y-64252778D01*
X79369671Y-64223448D01*
X79268214Y-64140186D01*
X79184952Y-64038729D01*
X79155622Y-64002991D01*
X79113789Y-63924728D01*
X79071958Y-63846468D01*
X79071957Y-63846466D01*
X79020437Y-63676627D01*
X79003041Y-63500000D01*
X79020437Y-63323373D01*
X79071957Y-63153534D01*
X79155622Y-62997009D01*
X79196631Y-62947040D01*
X79268214Y-62859814D01*
X79369671Y-62776552D01*
X79405409Y-62747222D01*
X79561934Y-62663557D01*
X79731773Y-62612037D01*
X79797958Y-62605518D01*
X79864140Y-62599000D01*
X79952660Y-62599000D01*
X80018842Y-62605518D01*
X80018842Y-62605518D01*
G37*
G36*
X85889400Y-64401000D02*
G01*
X84087400Y-64401000D01*
X84087400Y-62599000D01*
X85889400Y-62599000D01*
X85889400Y-64401000D01*
X85889400Y-64401000D01*
G37*
G36*
X61324443Y-60954519D02*
G01*
X61390627Y-60961037D01*
X61560466Y-61012557D01*
X61716991Y-61096222D01*
X61752729Y-61125552D01*
X61854186Y-61208814D01*
X61937448Y-61310271D01*
X61966778Y-61346009D01*
X62050443Y-61502534D01*
X62101963Y-61672373D01*
X62119359Y-61849000D01*
X62101963Y-62025627D01*
X62050443Y-62195466D01*
X61966778Y-62351991D01*
X61937448Y-62387729D01*
X61854186Y-62489186D01*
X61752729Y-62572448D01*
X61716991Y-62601778D01*
X61560466Y-62685443D01*
X61390627Y-62736963D01*
X61324442Y-62743482D01*
X61258260Y-62750000D01*
X61169740Y-62750000D01*
X61103558Y-62743482D01*
X61037373Y-62736963D01*
X60867534Y-62685443D01*
X60711009Y-62601778D01*
X60675271Y-62572448D01*
X60573814Y-62489186D01*
X60490552Y-62387729D01*
X60461222Y-62351991D01*
X60377557Y-62195466D01*
X60326037Y-62025627D01*
X60308641Y-61849000D01*
X60326037Y-61672373D01*
X60377557Y-61502534D01*
X60461222Y-61346009D01*
X60490552Y-61310271D01*
X60573814Y-61208814D01*
X60675271Y-61125552D01*
X60711009Y-61096222D01*
X60867534Y-61012557D01*
X61037373Y-60961037D01*
X61103557Y-60954519D01*
X61169740Y-60948000D01*
X61258260Y-60948000D01*
X61324443Y-60954519D01*
X61324443Y-60954519D01*
G37*
G36*
X57666843Y-60954519D02*
G01*
X57733027Y-60961037D01*
X57902866Y-61012557D01*
X58059391Y-61096222D01*
X58095129Y-61125552D01*
X58196586Y-61208814D01*
X58279848Y-61310271D01*
X58309178Y-61346009D01*
X58392843Y-61502534D01*
X58444363Y-61672373D01*
X58461759Y-61849000D01*
X58444363Y-62025627D01*
X58392843Y-62195466D01*
X58309178Y-62351991D01*
X58279848Y-62387729D01*
X58196586Y-62489186D01*
X58095129Y-62572448D01*
X58059391Y-62601778D01*
X57902866Y-62685443D01*
X57733027Y-62736963D01*
X57666842Y-62743482D01*
X57600660Y-62750000D01*
X57512140Y-62750000D01*
X57445958Y-62743482D01*
X57379773Y-62736963D01*
X57209934Y-62685443D01*
X57053409Y-62601778D01*
X57017671Y-62572448D01*
X56916214Y-62489186D01*
X56832952Y-62387729D01*
X56803622Y-62351991D01*
X56719957Y-62195466D01*
X56668437Y-62025627D01*
X56651041Y-61849000D01*
X56668437Y-61672373D01*
X56719957Y-61502534D01*
X56803622Y-61346009D01*
X56832952Y-61310271D01*
X56916214Y-61208814D01*
X57017671Y-61125552D01*
X57053409Y-61096222D01*
X57209934Y-61012557D01*
X57379773Y-60961037D01*
X57445957Y-60954519D01*
X57512140Y-60948000D01*
X57600660Y-60948000D01*
X57666843Y-60954519D01*
X57666843Y-60954519D01*
G37*
G36*
X85098843Y-58744719D02*
G01*
X85165027Y-58751237D01*
X85334866Y-58802757D01*
X85491391Y-58886422D01*
X85527129Y-58915752D01*
X85628586Y-58999014D01*
X85711848Y-59100471D01*
X85741178Y-59136209D01*
X85824843Y-59292734D01*
X85876363Y-59462573D01*
X85893759Y-59639200D01*
X85876363Y-59815827D01*
X85824843Y-59985666D01*
X85741178Y-60142191D01*
X85711848Y-60177929D01*
X85628586Y-60279386D01*
X85527129Y-60362648D01*
X85491391Y-60391978D01*
X85334866Y-60475643D01*
X85165027Y-60527163D01*
X85098843Y-60533681D01*
X85032660Y-60540200D01*
X84944140Y-60540200D01*
X84877957Y-60533681D01*
X84811773Y-60527163D01*
X84641934Y-60475643D01*
X84485409Y-60391978D01*
X84449671Y-60362648D01*
X84348214Y-60279386D01*
X84264952Y-60177929D01*
X84235622Y-60142191D01*
X84151957Y-59985666D01*
X84100437Y-59815827D01*
X84083041Y-59639200D01*
X84100437Y-59462573D01*
X84151957Y-59292734D01*
X84235622Y-59136209D01*
X84264952Y-59100471D01*
X84348214Y-58999014D01*
X84449671Y-58915752D01*
X84485409Y-58886422D01*
X84641934Y-58802757D01*
X84811773Y-58751237D01*
X84877957Y-58744719D01*
X84944140Y-58738200D01*
X85032660Y-58738200D01*
X85098843Y-58744719D01*
X85098843Y-58744719D01*
G37*
G36*
X83349400Y-60540200D02*
G01*
X81547400Y-60540200D01*
X81547400Y-58738200D01*
X83349400Y-58738200D01*
X83349400Y-60540200D01*
X83349400Y-60540200D01*
G37*
G36*
X55406373Y-52957024D02*
G01*
X55607589Y-52997048D01*
X55986671Y-53154069D01*
X56327835Y-53382028D01*
X56617972Y-53672165D01*
X56845932Y-54013331D01*
X57002952Y-54392412D01*
X57083000Y-54794841D01*
X57083000Y-55205159D01*
X57002952Y-55607588D01*
X56859039Y-55955027D01*
X56845931Y-55986671D01*
X56617972Y-56327835D01*
X56327835Y-56617972D01*
X55986671Y-56845931D01*
X55607589Y-57002952D01*
X55406373Y-57042976D01*
X55205159Y-57083000D01*
X54794841Y-57083000D01*
X54593627Y-57042976D01*
X54392411Y-57002952D01*
X54013329Y-56845931D01*
X53672165Y-56617972D01*
X53382028Y-56327835D01*
X53154069Y-55986671D01*
X53140962Y-55955027D01*
X52997048Y-55607588D01*
X52917000Y-55205159D01*
X52917000Y-54794841D01*
X52997048Y-54392412D01*
X53154068Y-54013331D01*
X53382028Y-53672165D01*
X53672165Y-53382028D01*
X54013329Y-53154069D01*
X54392411Y-52997048D01*
X54593627Y-52957024D01*
X54794841Y-52917000D01*
X55205159Y-52917000D01*
X55406373Y-52957024D01*
X55406373Y-52957024D01*
G37*
G36*
X115406373Y-52957024D02*
G01*
X115607589Y-52997048D01*
X115986671Y-53154069D01*
X116327835Y-53382028D01*
X116617972Y-53672165D01*
X116845932Y-54013331D01*
X117002952Y-54392412D01*
X117083000Y-54794841D01*
X117083000Y-55205159D01*
X117002952Y-55607588D01*
X116859039Y-55955027D01*
X116845931Y-55986671D01*
X116617972Y-56327835D01*
X116327835Y-56617972D01*
X115986671Y-56845931D01*
X115607589Y-57002952D01*
X115406373Y-57042976D01*
X115205159Y-57083000D01*
X114794841Y-57083000D01*
X114593627Y-57042976D01*
X114392411Y-57002952D01*
X114013329Y-56845931D01*
X113672165Y-56617972D01*
X113382028Y-56327835D01*
X113154069Y-55986671D01*
X113140962Y-55955027D01*
X112997048Y-55607588D01*
X112917000Y-55205159D01*
X112917000Y-54794841D01*
X112997048Y-54392412D01*
X113154068Y-54013331D01*
X113382028Y-53672165D01*
X113672165Y-53382028D01*
X114013329Y-53154069D01*
X114392411Y-52997048D01*
X114593627Y-52957024D01*
X114794841Y-52917000D01*
X115205159Y-52917000D01*
X115406373Y-52957024D01*
X115406373Y-52957024D01*
G37*
G36*
X85124243Y-54883919D02*
G01*
X85190427Y-54890437D01*
X85360266Y-54941957D01*
X85516791Y-55025622D01*
X85552529Y-55054952D01*
X85653986Y-55138214D01*
X85737248Y-55239671D01*
X85766578Y-55275409D01*
X85850243Y-55431934D01*
X85901763Y-55601773D01*
X85919159Y-55778400D01*
X85901763Y-55955027D01*
X85850243Y-56124866D01*
X85766578Y-56281391D01*
X85737248Y-56317129D01*
X85653986Y-56418586D01*
X85552529Y-56501848D01*
X85516791Y-56531178D01*
X85360266Y-56614843D01*
X85190427Y-56666363D01*
X85124243Y-56672881D01*
X85058060Y-56679400D01*
X84969540Y-56679400D01*
X84903357Y-56672881D01*
X84837173Y-56666363D01*
X84667334Y-56614843D01*
X84510809Y-56531178D01*
X84475071Y-56501848D01*
X84373614Y-56418586D01*
X84290352Y-56317129D01*
X84261022Y-56281391D01*
X84177357Y-56124866D01*
X84125837Y-55955027D01*
X84108441Y-55778400D01*
X84125837Y-55601773D01*
X84177357Y-55431934D01*
X84261022Y-55275409D01*
X84290352Y-55239671D01*
X84373614Y-55138214D01*
X84475071Y-55054952D01*
X84510809Y-55025622D01*
X84667334Y-54941957D01*
X84837173Y-54890437D01*
X84903357Y-54883919D01*
X84969540Y-54877400D01*
X85058060Y-54877400D01*
X85124243Y-54883919D01*
X85124243Y-54883919D01*
G37*
G36*
X82584243Y-54883919D02*
G01*
X82650427Y-54890437D01*
X82820266Y-54941957D01*
X82976791Y-55025622D01*
X83012529Y-55054952D01*
X83113986Y-55138214D01*
X83197248Y-55239671D01*
X83226578Y-55275409D01*
X83310243Y-55431934D01*
X83361763Y-55601773D01*
X83379159Y-55778400D01*
X83361763Y-55955027D01*
X83310243Y-56124866D01*
X83226578Y-56281391D01*
X83197248Y-56317129D01*
X83113986Y-56418586D01*
X83012529Y-56501848D01*
X82976791Y-56531178D01*
X82820266Y-56614843D01*
X82650427Y-56666363D01*
X82584243Y-56672881D01*
X82518060Y-56679400D01*
X82429540Y-56679400D01*
X82363357Y-56672881D01*
X82297173Y-56666363D01*
X82127334Y-56614843D01*
X81970809Y-56531178D01*
X81935071Y-56501848D01*
X81833614Y-56418586D01*
X81750352Y-56317129D01*
X81721022Y-56281391D01*
X81637357Y-56124866D01*
X81585837Y-55955027D01*
X81568441Y-55778400D01*
X81585837Y-55601773D01*
X81637357Y-55431934D01*
X81721022Y-55275409D01*
X81750352Y-55239671D01*
X81833614Y-55138214D01*
X81935071Y-55054952D01*
X81970809Y-55025622D01*
X82127334Y-54941957D01*
X82297173Y-54890437D01*
X82363357Y-54883919D01*
X82429540Y-54877400D01*
X82518060Y-54877400D01*
X82584243Y-54883919D01*
X82584243Y-54883919D01*
G37*
G36*
X80834800Y-56679400D02*
G01*
X79032800Y-56679400D01*
X79032800Y-54877400D01*
X80834800Y-54877400D01*
X80834800Y-56679400D01*
X80834800Y-56679400D01*
G37*
G36*
X91759953Y-52351322D02*
G01*
X91851994Y-52389447D01*
X91982159Y-52443363D01*
X92182142Y-52576987D01*
X92352213Y-52747058D01*
X92485837Y-52947041D01*
X92511104Y-53008042D01*
X92571591Y-53154068D01*
X92577878Y-53169248D01*
X92624800Y-53405141D01*
X92624800Y-53645659D01*
X92577878Y-53881552D01*
X92485837Y-54103759D01*
X92352213Y-54303742D01*
X92182142Y-54473813D01*
X91982159Y-54607437D01*
X91851994Y-54661353D01*
X91759953Y-54699478D01*
X91642005Y-54722939D01*
X91524059Y-54746400D01*
X91283541Y-54746400D01*
X91165595Y-54722939D01*
X91047647Y-54699478D01*
X90955606Y-54661353D01*
X90825441Y-54607437D01*
X90625458Y-54473813D01*
X90455387Y-54303742D01*
X90321763Y-54103759D01*
X90229722Y-53881552D01*
X90182800Y-53645659D01*
X90182800Y-53405141D01*
X90229722Y-53169248D01*
X90236010Y-53154068D01*
X90296496Y-53008042D01*
X90321763Y-52947041D01*
X90455387Y-52747058D01*
X90625458Y-52576987D01*
X90825441Y-52443363D01*
X90955606Y-52389447D01*
X91047647Y-52351322D01*
X91283541Y-52304400D01*
X91524059Y-52304400D01*
X91759953Y-52351322D01*
X91759953Y-52351322D01*
G37*
G36*
X96759953Y-52351322D02*
G01*
X96851994Y-52389447D01*
X96982159Y-52443363D01*
X97182142Y-52576987D01*
X97352213Y-52747058D01*
X97485837Y-52947041D01*
X97511104Y-53008042D01*
X97571591Y-53154068D01*
X97577878Y-53169248D01*
X97624800Y-53405141D01*
X97624800Y-53645659D01*
X97577878Y-53881552D01*
X97485837Y-54103759D01*
X97352213Y-54303742D01*
X97182142Y-54473813D01*
X96982159Y-54607437D01*
X96851994Y-54661353D01*
X96759953Y-54699478D01*
X96642005Y-54722939D01*
X96524059Y-54746400D01*
X96283541Y-54746400D01*
X96165595Y-54722939D01*
X96047647Y-54699478D01*
X95955606Y-54661353D01*
X95825441Y-54607437D01*
X95625458Y-54473813D01*
X95455387Y-54303742D01*
X95321763Y-54103759D01*
X95229722Y-53881552D01*
X95182800Y-53645659D01*
X95182800Y-53405141D01*
X95229722Y-53169248D01*
X95236010Y-53154068D01*
X95296496Y-53008042D01*
X95321763Y-52947041D01*
X95455387Y-52747058D01*
X95625458Y-52576987D01*
X95825441Y-52443363D01*
X95955606Y-52389447D01*
X96047647Y-52351322D01*
X96283541Y-52304400D01*
X96524059Y-52304400D01*
X96759953Y-52351322D01*
X96759953Y-52351322D01*
G37*
G36*
X80834800Y-53072600D02*
G01*
X79032800Y-53072600D01*
X79032800Y-51270600D01*
X80834800Y-51270600D01*
X80834800Y-53072600D01*
X80834800Y-53072600D01*
G37*
G36*
X82584242Y-51277118D02*
G01*
X82650427Y-51283637D01*
X82820266Y-51335157D01*
X82976791Y-51418822D01*
X83012529Y-51448152D01*
X83113986Y-51531414D01*
X83197248Y-51632871D01*
X83226578Y-51668609D01*
X83310243Y-51825134D01*
X83361763Y-51994973D01*
X83379159Y-52171600D01*
X83361763Y-52348227D01*
X83310243Y-52518066D01*
X83226578Y-52674591D01*
X83197248Y-52710329D01*
X83113986Y-52811786D01*
X83012529Y-52895048D01*
X82976791Y-52924378D01*
X82820266Y-53008043D01*
X82650427Y-53059563D01*
X82584243Y-53066081D01*
X82518060Y-53072600D01*
X82429540Y-53072600D01*
X82363357Y-53066081D01*
X82297173Y-53059563D01*
X82127334Y-53008043D01*
X81970809Y-52924378D01*
X81935071Y-52895048D01*
X81833614Y-52811786D01*
X81750352Y-52710329D01*
X81721022Y-52674591D01*
X81637357Y-52518066D01*
X81585837Y-52348227D01*
X81568441Y-52171600D01*
X81585837Y-51994973D01*
X81637357Y-51825134D01*
X81721022Y-51668609D01*
X81750352Y-51632871D01*
X81833614Y-51531414D01*
X81935071Y-51448152D01*
X81970809Y-51418822D01*
X82127334Y-51335157D01*
X82297173Y-51283637D01*
X82363357Y-51277119D01*
X82429540Y-51270600D01*
X82518060Y-51270600D01*
X82584242Y-51277118D01*
X82584242Y-51277118D01*
G37*
G36*
X85124242Y-51277118D02*
G01*
X85190427Y-51283637D01*
X85360266Y-51335157D01*
X85516791Y-51418822D01*
X85552529Y-51448152D01*
X85653986Y-51531414D01*
X85737248Y-51632871D01*
X85766578Y-51668609D01*
X85850243Y-51825134D01*
X85901763Y-51994973D01*
X85919159Y-52171600D01*
X85901763Y-52348227D01*
X85850243Y-52518066D01*
X85766578Y-52674591D01*
X85737248Y-52710329D01*
X85653986Y-52811786D01*
X85552529Y-52895048D01*
X85516791Y-52924378D01*
X85360266Y-53008043D01*
X85190427Y-53059563D01*
X85124243Y-53066081D01*
X85058060Y-53072600D01*
X84969540Y-53072600D01*
X84903357Y-53066081D01*
X84837173Y-53059563D01*
X84667334Y-53008043D01*
X84510809Y-52924378D01*
X84475071Y-52895048D01*
X84373614Y-52811786D01*
X84290352Y-52710329D01*
X84261022Y-52674591D01*
X84177357Y-52518066D01*
X84125837Y-52348227D01*
X84108441Y-52171600D01*
X84125837Y-51994973D01*
X84177357Y-51825134D01*
X84261022Y-51668609D01*
X84290352Y-51632871D01*
X84373614Y-51531414D01*
X84475071Y-51448152D01*
X84510809Y-51418822D01*
X84667334Y-51335157D01*
X84837173Y-51283637D01*
X84903357Y-51277119D01*
X84969540Y-51270600D01*
X85058060Y-51270600D01*
X85124242Y-51277118D01*
X85124242Y-51277118D01*
G37*
M02*
