G04 #@! TF.GenerationSoftware,KiCad,Pcbnew,(5.1.0)-1*
G04 #@! TF.CreationDate,2019-05-29T13:36:30-04:00*
G04 #@! TF.ProjectId,MIDI Controller_Panel,4d494449-2043-46f6-9e74-726f6c6c6572,rev?*
G04 #@! TF.SameCoordinates,Original*
G04 #@! TF.FileFunction,Legend,Bot*
G04 #@! TF.FilePolarity,Positive*
%FSLAX46Y46*%
G04 Gerber Fmt 4.6, Leading zero omitted, Abs format (unit mm)*
G04 Created by KiCad (PCBNEW (5.1.0)-1) date 2019-05-29 13:36:30*
%MOMM*%
%LPD*%
G04 APERTURE LIST*
%ADD10C,0.350000*%
%ADD11C,0.500000*%
%ADD12C,0.250000*%
%ADD13C,0.120000*%
G04 APERTURE END LIST*
D10*
X82259523Y-153904761D02*
X82259523Y-155333333D01*
X82354761Y-155619047D01*
X82545238Y-155809523D01*
X82830952Y-155904761D01*
X83021428Y-155904761D01*
X80926190Y-153904761D02*
X80545238Y-153904761D01*
X80354761Y-154000000D01*
X80164285Y-154190476D01*
X80069047Y-154571428D01*
X80069047Y-155238095D01*
X80164285Y-155619047D01*
X80354761Y-155809523D01*
X80545238Y-155904761D01*
X80926190Y-155904761D01*
X81116666Y-155809523D01*
X81307142Y-155619047D01*
X81402380Y-155238095D01*
X81402380Y-154571428D01*
X81307142Y-154190476D01*
X81116666Y-154000000D01*
X80926190Y-153904761D01*
X79211904Y-155904761D02*
X79211904Y-153904761D01*
X78069047Y-155904761D01*
X78069047Y-153904761D01*
X77211904Y-155333333D02*
X76259523Y-155333333D01*
X77402380Y-155904761D02*
X76735714Y-153904761D01*
X76069047Y-155904761D01*
X75688095Y-153904761D02*
X74545238Y-153904761D01*
X75116666Y-155904761D02*
X75116666Y-153904761D01*
X73878571Y-155904761D02*
X73878571Y-153904761D01*
X73878571Y-154857142D02*
X72735714Y-154857142D01*
X72735714Y-155904761D02*
X72735714Y-153904761D01*
X71878571Y-155333333D02*
X70926190Y-155333333D01*
X72069047Y-155904761D02*
X71402380Y-153904761D01*
X70735714Y-155904761D01*
X70069047Y-155904761D02*
X70069047Y-153904761D01*
X68926190Y-155904761D01*
X68926190Y-153904761D01*
X66450000Y-155904761D02*
X66450000Y-153904761D01*
X65307142Y-155904761D02*
X66164285Y-154761904D01*
X65307142Y-153904761D02*
X66450000Y-155047619D01*
X64545238Y-155333333D02*
X63592857Y-155333333D01*
X64735714Y-155904761D02*
X64069047Y-153904761D01*
X63402380Y-155904761D01*
X62354761Y-154952380D02*
X62354761Y-155904761D01*
X63021428Y-153904761D02*
X62354761Y-154952380D01*
X61688095Y-153904761D01*
X61021428Y-155904761D02*
X61021428Y-153904761D01*
X59878571Y-155904761D01*
X59878571Y-153904761D01*
X58926190Y-154857142D02*
X58259523Y-154857142D01*
X57973809Y-155904761D02*
X58926190Y-155904761D01*
X58926190Y-153904761D01*
X57973809Y-153904761D01*
D11*
X97450000Y-37357142D02*
X97450000Y-34357142D01*
X96450000Y-36500000D01*
X95450000Y-34357142D01*
X95450000Y-37357142D01*
X94021428Y-37357142D02*
X94021428Y-34357142D01*
X92592857Y-37357142D02*
X92592857Y-34357142D01*
X91878571Y-34357142D01*
X91450000Y-34500000D01*
X91164285Y-34785714D01*
X91021428Y-35071428D01*
X90878571Y-35642857D01*
X90878571Y-36071428D01*
X91021428Y-36642857D01*
X91164285Y-36928571D01*
X91450000Y-37214285D01*
X91878571Y-37357142D01*
X92592857Y-37357142D01*
X89592857Y-37357142D02*
X89592857Y-34357142D01*
X86307142Y-34357142D02*
X84592857Y-34357142D01*
X85450000Y-37357142D02*
X85450000Y-34357142D01*
X83021428Y-34357142D02*
X82450000Y-34357142D01*
X82164285Y-34500000D01*
X81878571Y-34785714D01*
X81735714Y-35357142D01*
X81735714Y-36357142D01*
X81878571Y-36928571D01*
X82164285Y-37214285D01*
X82450000Y-37357142D01*
X83021428Y-37357142D01*
X83307142Y-37214285D01*
X83592857Y-36928571D01*
X83735714Y-36357142D01*
X83735714Y-35357142D01*
X83592857Y-34785714D01*
X83307142Y-34500000D01*
X83021428Y-34357142D01*
X76450000Y-37071428D02*
X76592857Y-37214285D01*
X77021428Y-37357142D01*
X77307142Y-37357142D01*
X77735714Y-37214285D01*
X78021428Y-36928571D01*
X78164285Y-36642857D01*
X78307142Y-36071428D01*
X78307142Y-35642857D01*
X78164285Y-35071428D01*
X78021428Y-34785714D01*
X77735714Y-34500000D01*
X77307142Y-34357142D01*
X77021428Y-34357142D01*
X76592857Y-34500000D01*
X76450000Y-34642857D01*
X75592857Y-34357142D02*
X74592857Y-37357142D01*
X73592857Y-34357142D01*
X68592857Y-37071428D02*
X68735714Y-37214285D01*
X69164285Y-37357142D01*
X69450000Y-37357142D01*
X69878571Y-37214285D01*
X70164285Y-36928571D01*
X70307142Y-36642857D01*
X70450000Y-36071428D01*
X70450000Y-35642857D01*
X70307142Y-35071428D01*
X70164285Y-34785714D01*
X69878571Y-34500000D01*
X69450000Y-34357142D01*
X69164285Y-34357142D01*
X68735714Y-34500000D01*
X68592857Y-34642857D01*
X66735714Y-34357142D02*
X66164285Y-34357142D01*
X65878571Y-34500000D01*
X65592857Y-34785714D01*
X65450000Y-35357142D01*
X65450000Y-36357142D01*
X65592857Y-36928571D01*
X65878571Y-37214285D01*
X66164285Y-37357142D01*
X66735714Y-37357142D01*
X67021428Y-37214285D01*
X67307142Y-36928571D01*
X67450000Y-36357142D01*
X67450000Y-35357142D01*
X67307142Y-34785714D01*
X67021428Y-34500000D01*
X66735714Y-34357142D01*
X64164285Y-37357142D02*
X64164285Y-34357142D01*
X62450000Y-37357142D01*
X62450000Y-34357142D01*
X61450000Y-34357142D02*
X59735714Y-34357142D01*
X60592857Y-37357142D02*
X60592857Y-34357142D01*
X57021428Y-37357142D02*
X58021428Y-35928571D01*
X58735714Y-37357142D02*
X58735714Y-34357142D01*
X57592857Y-34357142D01*
X57307142Y-34500000D01*
X57164285Y-34642857D01*
X57021428Y-34928571D01*
X57021428Y-35357142D01*
X57164285Y-35642857D01*
X57307142Y-35785714D01*
X57592857Y-35928571D01*
X58735714Y-35928571D01*
X55164285Y-34357142D02*
X54592857Y-34357142D01*
X54307142Y-34500000D01*
X54021428Y-34785714D01*
X53878571Y-35357142D01*
X53878571Y-36357142D01*
X54021428Y-36928571D01*
X54307142Y-37214285D01*
X54592857Y-37357142D01*
X55164285Y-37357142D01*
X55450000Y-37214285D01*
X55735714Y-36928571D01*
X55878571Y-36357142D01*
X55878571Y-35357142D01*
X55735714Y-34785714D01*
X55450000Y-34500000D01*
X55164285Y-34357142D01*
X51164285Y-37357142D02*
X52592857Y-37357142D01*
X52592857Y-34357142D01*
X48735714Y-37357142D02*
X50164285Y-37357142D01*
X50164285Y-34357142D01*
X47735714Y-35785714D02*
X46735714Y-35785714D01*
X46307142Y-37357142D02*
X47735714Y-37357142D01*
X47735714Y-34357142D01*
X46307142Y-34357142D01*
X43307142Y-37357142D02*
X44307142Y-35928571D01*
X45021428Y-37357142D02*
X45021428Y-34357142D01*
X43878571Y-34357142D01*
X43592857Y-34500000D01*
X43450000Y-34642857D01*
X43307142Y-34928571D01*
X43307142Y-35357142D01*
X43450000Y-35642857D01*
X43592857Y-35785714D01*
X43878571Y-35928571D01*
X45021428Y-35928571D01*
D12*
X70000000Y-113500000D02*
X70000000Y-112500000D01*
X70000000Y-113500000D02*
X66000000Y-113500000D01*
X70000000Y-98500000D02*
X66000000Y-98500000D01*
X70000000Y-96000000D02*
X70000000Y-98500000D01*
X70000000Y-81000000D02*
X70000000Y-83500000D01*
X70000000Y-83500000D02*
X66000000Y-83500000D01*
X70000000Y-106000000D02*
X70000000Y-105000000D01*
X70000000Y-105000000D02*
X66000000Y-105000000D01*
X70000000Y-90000000D02*
X66000000Y-90000000D01*
X70000000Y-92500000D02*
X70000000Y-90000000D01*
X70000000Y-75000000D02*
X66000000Y-75000000D01*
X70000000Y-77500000D02*
X70000000Y-75000000D01*
X70000000Y-68500000D02*
X66000000Y-68500000D01*
X70000000Y-66000000D02*
X70000000Y-68500000D01*
X70000000Y-60000000D02*
X66000000Y-60000000D01*
X70000000Y-62500000D02*
X70000000Y-60000000D01*
X60450000Y-85000000D02*
X60450000Y-88000000D01*
X50450000Y-85000000D02*
X50450000Y-88000000D01*
X40450000Y-85000000D02*
X40450000Y-88000000D01*
X60450000Y-70000000D02*
X60450000Y-73000000D01*
X50450000Y-70000000D02*
X50450000Y-73000000D01*
X40450000Y-70000000D02*
X40450000Y-73000000D01*
X40450000Y-56000000D02*
X40450000Y-59000000D01*
X50450000Y-56000000D02*
X50450000Y-59000000D01*
X60450000Y-56000000D02*
X60450000Y-59000000D01*
X41950000Y-54250000D02*
X42092857Y-54178571D01*
X42307142Y-54178571D01*
X42521428Y-54250000D01*
X42664285Y-54392857D01*
X42735714Y-54535714D01*
X42807142Y-54821428D01*
X42807142Y-55035714D01*
X42735714Y-55321428D01*
X42664285Y-55464285D01*
X42521428Y-55607142D01*
X42307142Y-55678571D01*
X42164285Y-55678571D01*
X41950000Y-55607142D01*
X41878571Y-55535714D01*
X41878571Y-55035714D01*
X42164285Y-55035714D01*
X41307142Y-55250000D02*
X40592857Y-55250000D01*
X41450000Y-55678571D02*
X40950000Y-54178571D01*
X40450000Y-55678571D01*
X40164285Y-54178571D02*
X39307142Y-54178571D01*
X39735714Y-55678571D02*
X39735714Y-54178571D01*
X38807142Y-54892857D02*
X38307142Y-54892857D01*
X38092857Y-55678571D02*
X38807142Y-55678571D01*
X38807142Y-54178571D01*
X38092857Y-54178571D01*
X55342857Y-54178571D02*
X54842857Y-55678571D01*
X54342857Y-54178571D01*
X53842857Y-54892857D02*
X53342857Y-54892857D01*
X53128571Y-55678571D02*
X53842857Y-55678571D01*
X53842857Y-54178571D01*
X53128571Y-54178571D01*
X51771428Y-55678571D02*
X52485714Y-55678571D01*
X52485714Y-54178571D01*
X50985714Y-54178571D02*
X50700000Y-54178571D01*
X50557142Y-54250000D01*
X50414285Y-54392857D01*
X50342857Y-54678571D01*
X50342857Y-55178571D01*
X50414285Y-55464285D01*
X50557142Y-55607142D01*
X50700000Y-55678571D01*
X50985714Y-55678571D01*
X51128571Y-55607142D01*
X51271428Y-55464285D01*
X51342857Y-55178571D01*
X51342857Y-54678571D01*
X51271428Y-54392857D01*
X51128571Y-54250000D01*
X50985714Y-54178571D01*
X48842857Y-55535714D02*
X48914285Y-55607142D01*
X49128571Y-55678571D01*
X49271428Y-55678571D01*
X49485714Y-55607142D01*
X49628571Y-55464285D01*
X49700000Y-55321428D01*
X49771428Y-55035714D01*
X49771428Y-54821428D01*
X49700000Y-54535714D01*
X49628571Y-54392857D01*
X49485714Y-54250000D01*
X49271428Y-54178571D01*
X49128571Y-54178571D01*
X48914285Y-54250000D01*
X48842857Y-54321428D01*
X48200000Y-55678571D02*
X48200000Y-54178571D01*
X47700000Y-54178571D02*
X46842857Y-54178571D01*
X47271428Y-55678571D02*
X47271428Y-54178571D01*
X46057142Y-54964285D02*
X46057142Y-55678571D01*
X46557142Y-54178571D02*
X46057142Y-54964285D01*
X45557142Y-54178571D01*
X63307142Y-55678571D02*
X63307142Y-54178571D01*
X62735714Y-54178571D01*
X62592857Y-54250000D01*
X62521428Y-54321428D01*
X62450000Y-54464285D01*
X62450000Y-54678571D01*
X62521428Y-54821428D01*
X62592857Y-54892857D01*
X62735714Y-54964285D01*
X63307142Y-54964285D01*
X61807142Y-55678571D02*
X61807142Y-54178571D01*
X61307142Y-54178571D02*
X60450000Y-54178571D01*
X60878571Y-55678571D02*
X60878571Y-54178571D01*
X59092857Y-55535714D02*
X59164285Y-55607142D01*
X59378571Y-55678571D01*
X59521428Y-55678571D01*
X59735714Y-55607142D01*
X59878571Y-55464285D01*
X59950000Y-55321428D01*
X60021428Y-55035714D01*
X60021428Y-54821428D01*
X59950000Y-54535714D01*
X59878571Y-54392857D01*
X59735714Y-54250000D01*
X59521428Y-54178571D01*
X59378571Y-54178571D01*
X59164285Y-54250000D01*
X59092857Y-54321428D01*
X58450000Y-55678571D02*
X58450000Y-54178571D01*
X58450000Y-54892857D02*
X57592857Y-54892857D01*
X57592857Y-55678571D02*
X57592857Y-54178571D01*
X73750000Y-64928571D02*
X73750000Y-63428571D01*
X72892857Y-64928571D01*
X72892857Y-63428571D01*
X71892857Y-63428571D02*
X71607142Y-63428571D01*
X71464285Y-63500000D01*
X71321428Y-63642857D01*
X71250000Y-63928571D01*
X71250000Y-64428571D01*
X71321428Y-64714285D01*
X71464285Y-64857142D01*
X71607142Y-64928571D01*
X71892857Y-64928571D01*
X72035714Y-64857142D01*
X72178571Y-64714285D01*
X72250000Y-64428571D01*
X72250000Y-63928571D01*
X72178571Y-63642857D01*
X72035714Y-63500000D01*
X71892857Y-63428571D01*
X70821428Y-63428571D02*
X69964285Y-63428571D01*
X70392857Y-64928571D02*
X70392857Y-63428571D01*
X69464285Y-64142857D02*
X68964285Y-64142857D01*
X68750000Y-64928571D02*
X69464285Y-64928571D01*
X69464285Y-63428571D01*
X68750000Y-63428571D01*
X66178571Y-64928571D02*
X67035714Y-64928571D01*
X66607142Y-64928571D02*
X66607142Y-63428571D01*
X66750000Y-63642857D01*
X66892857Y-63785714D01*
X67035714Y-63857142D01*
X73750000Y-79928571D02*
X73750000Y-78428571D01*
X72892857Y-79928571D01*
X72892857Y-78428571D01*
X71892857Y-78428571D02*
X71607142Y-78428571D01*
X71464285Y-78500000D01*
X71321428Y-78642857D01*
X71250000Y-78928571D01*
X71250000Y-79428571D01*
X71321428Y-79714285D01*
X71464285Y-79857142D01*
X71607142Y-79928571D01*
X71892857Y-79928571D01*
X72035714Y-79857142D01*
X72178571Y-79714285D01*
X72250000Y-79428571D01*
X72250000Y-78928571D01*
X72178571Y-78642857D01*
X72035714Y-78500000D01*
X71892857Y-78428571D01*
X70821428Y-78428571D02*
X69964285Y-78428571D01*
X70392857Y-79928571D02*
X70392857Y-78428571D01*
X69464285Y-79142857D02*
X68964285Y-79142857D01*
X68750000Y-79928571D02*
X69464285Y-79928571D01*
X69464285Y-78428571D01*
X68750000Y-78428571D01*
X67035714Y-78571428D02*
X66964285Y-78500000D01*
X66821428Y-78428571D01*
X66464285Y-78428571D01*
X66321428Y-78500000D01*
X66250000Y-78571428D01*
X66178571Y-78714285D01*
X66178571Y-78857142D01*
X66250000Y-79071428D01*
X67107142Y-79928571D01*
X66178571Y-79928571D01*
X73750000Y-94928571D02*
X73750000Y-93428571D01*
X72892857Y-94928571D01*
X72892857Y-93428571D01*
X71892857Y-93428571D02*
X71607142Y-93428571D01*
X71464285Y-93500000D01*
X71321428Y-93642857D01*
X71250000Y-93928571D01*
X71250000Y-94428571D01*
X71321428Y-94714285D01*
X71464285Y-94857142D01*
X71607142Y-94928571D01*
X71892857Y-94928571D01*
X72035714Y-94857142D01*
X72178571Y-94714285D01*
X72250000Y-94428571D01*
X72250000Y-93928571D01*
X72178571Y-93642857D01*
X72035714Y-93500000D01*
X71892857Y-93428571D01*
X70821428Y-93428571D02*
X69964285Y-93428571D01*
X70392857Y-94928571D02*
X70392857Y-93428571D01*
X69464285Y-94142857D02*
X68964285Y-94142857D01*
X68750000Y-94928571D02*
X69464285Y-94928571D01*
X69464285Y-93428571D01*
X68750000Y-93428571D01*
X67107142Y-93428571D02*
X66178571Y-93428571D01*
X66678571Y-94000000D01*
X66464285Y-94000000D01*
X66321428Y-94071428D01*
X66250000Y-94142857D01*
X66178571Y-94285714D01*
X66178571Y-94642857D01*
X66250000Y-94785714D01*
X66321428Y-94857142D01*
X66464285Y-94928571D01*
X66892857Y-94928571D01*
X67035714Y-94857142D01*
X67107142Y-94785714D01*
X43950000Y-102178571D02*
X43592857Y-103678571D01*
X43307142Y-102607142D01*
X43021428Y-103678571D01*
X42664285Y-102178571D01*
X42092857Y-103678571D02*
X42092857Y-102178571D01*
X42092857Y-102892857D02*
X41235714Y-102892857D01*
X41235714Y-103678571D02*
X41235714Y-102178571D01*
X40235714Y-102178571D02*
X39950000Y-102178571D01*
X39807142Y-102250000D01*
X39664285Y-102392857D01*
X39592857Y-102678571D01*
X39592857Y-103178571D01*
X39664285Y-103464285D01*
X39807142Y-103607142D01*
X39950000Y-103678571D01*
X40235714Y-103678571D01*
X40378571Y-103607142D01*
X40521428Y-103464285D01*
X40592857Y-103178571D01*
X40592857Y-102678571D01*
X40521428Y-102392857D01*
X40378571Y-102250000D01*
X40235714Y-102178571D01*
X38235714Y-103678571D02*
X38950000Y-103678571D01*
X38950000Y-102178571D01*
X37735714Y-102892857D02*
X37235714Y-102892857D01*
X37021428Y-103678571D02*
X37735714Y-103678571D01*
X37735714Y-102178571D01*
X37021428Y-102178571D01*
X52771428Y-103678571D02*
X52771428Y-102178571D01*
X52771428Y-102892857D02*
X51914285Y-102892857D01*
X51914285Y-103678571D02*
X51914285Y-102178571D01*
X51271428Y-103250000D02*
X50557142Y-103250000D01*
X51414285Y-103678571D02*
X50914285Y-102178571D01*
X50414285Y-103678571D01*
X49200000Y-103678571D02*
X49914285Y-103678571D01*
X49914285Y-102178571D01*
X48200000Y-102892857D02*
X48700000Y-102892857D01*
X48700000Y-103678571D02*
X48700000Y-102178571D01*
X47985714Y-102178571D01*
X64057142Y-103821428D02*
X64200000Y-103750000D01*
X64342857Y-103607142D01*
X64557142Y-103392857D01*
X64700000Y-103321428D01*
X64842857Y-103321428D01*
X64771428Y-103678571D02*
X64914285Y-103607142D01*
X65057142Y-103464285D01*
X65128571Y-103178571D01*
X65128571Y-102678571D01*
X65057142Y-102392857D01*
X64914285Y-102250000D01*
X64771428Y-102178571D01*
X64485714Y-102178571D01*
X64342857Y-102250000D01*
X64200000Y-102392857D01*
X64128571Y-102678571D01*
X64128571Y-103178571D01*
X64200000Y-103464285D01*
X64342857Y-103607142D01*
X64485714Y-103678571D01*
X64771428Y-103678571D01*
X63485714Y-102178571D02*
X63485714Y-103392857D01*
X63414285Y-103535714D01*
X63342857Y-103607142D01*
X63200000Y-103678571D01*
X62914285Y-103678571D01*
X62771428Y-103607142D01*
X62700000Y-103535714D01*
X62628571Y-103392857D01*
X62628571Y-102178571D01*
X61985714Y-103250000D02*
X61271428Y-103250000D01*
X62128571Y-103678571D02*
X61628571Y-102178571D01*
X61128571Y-103678571D01*
X59771428Y-103678571D02*
X60271428Y-102964285D01*
X60628571Y-103678571D02*
X60628571Y-102178571D01*
X60057142Y-102178571D01*
X59914285Y-102250000D01*
X59842857Y-102321428D01*
X59771428Y-102464285D01*
X59771428Y-102678571D01*
X59842857Y-102821428D01*
X59914285Y-102892857D01*
X60057142Y-102964285D01*
X60628571Y-102964285D01*
X59342857Y-102178571D02*
X58485714Y-102178571D01*
X58914285Y-103678571D02*
X58914285Y-102178571D01*
X57985714Y-102892857D02*
X57485714Y-102892857D01*
X57271428Y-103678571D02*
X57985714Y-103678571D01*
X57985714Y-102178571D01*
X57271428Y-102178571D01*
X55771428Y-103678571D02*
X56271428Y-102964285D01*
X56628571Y-103678571D02*
X56628571Y-102178571D01*
X56057142Y-102178571D01*
X55914285Y-102250000D01*
X55842857Y-102321428D01*
X55771428Y-102464285D01*
X55771428Y-102678571D01*
X55842857Y-102821428D01*
X55914285Y-102892857D01*
X56057142Y-102964285D01*
X56628571Y-102964285D01*
X77428571Y-108678571D02*
X77428571Y-107178571D01*
X76928571Y-108250000D01*
X76428571Y-107178571D01*
X76428571Y-108678571D01*
X75714285Y-108678571D02*
X75714285Y-107178571D01*
X75000000Y-108678571D02*
X75000000Y-107178571D01*
X74642857Y-107178571D01*
X74428571Y-107250000D01*
X74285714Y-107392857D01*
X74214285Y-107535714D01*
X74142857Y-107821428D01*
X74142857Y-108035714D01*
X74214285Y-108321428D01*
X74285714Y-108464285D01*
X74428571Y-108607142D01*
X74642857Y-108678571D01*
X75000000Y-108678571D01*
X73500000Y-108678571D02*
X73500000Y-107178571D01*
X71714285Y-108607142D02*
X71500000Y-108678571D01*
X71142857Y-108678571D01*
X71000000Y-108607142D01*
X70928571Y-108535714D01*
X70857142Y-108392857D01*
X70857142Y-108250000D01*
X70928571Y-108107142D01*
X71000000Y-108035714D01*
X71142857Y-107964285D01*
X71428571Y-107892857D01*
X71571428Y-107821428D01*
X71642857Y-107750000D01*
X71714285Y-107607142D01*
X71714285Y-107464285D01*
X71642857Y-107321428D01*
X71571428Y-107250000D01*
X71428571Y-107178571D01*
X71071428Y-107178571D01*
X70857142Y-107250000D01*
X69928571Y-107964285D02*
X69928571Y-108678571D01*
X70428571Y-107178571D02*
X69928571Y-107964285D01*
X69428571Y-107178571D01*
X68928571Y-108678571D02*
X68928571Y-107178571D01*
X68071428Y-108678571D01*
X68071428Y-107178571D01*
X66500000Y-108535714D02*
X66571428Y-108607142D01*
X66785714Y-108678571D01*
X66928571Y-108678571D01*
X67142857Y-108607142D01*
X67285714Y-108464285D01*
X67357142Y-108321428D01*
X67428571Y-108035714D01*
X67428571Y-107821428D01*
X67357142Y-107535714D01*
X67285714Y-107392857D01*
X67142857Y-107250000D01*
X66928571Y-107178571D01*
X66785714Y-107178571D01*
X66571428Y-107250000D01*
X66500000Y-107321428D01*
X74428571Y-111035714D02*
X74500000Y-111107142D01*
X74714285Y-111178571D01*
X74857142Y-111178571D01*
X75071428Y-111107142D01*
X75214285Y-110964285D01*
X75285714Y-110821428D01*
X75357142Y-110535714D01*
X75357142Y-110321428D01*
X75285714Y-110035714D01*
X75214285Y-109892857D01*
X75071428Y-109750000D01*
X74857142Y-109678571D01*
X74714285Y-109678571D01*
X74500000Y-109750000D01*
X74428571Y-109821428D01*
X73071428Y-111178571D02*
X73785714Y-111178571D01*
X73785714Y-109678571D01*
X72285714Y-109678571D02*
X72000000Y-109678571D01*
X71857142Y-109750000D01*
X71714285Y-109892857D01*
X71642857Y-110178571D01*
X71642857Y-110678571D01*
X71714285Y-110964285D01*
X71857142Y-111107142D01*
X72000000Y-111178571D01*
X72285714Y-111178571D01*
X72428571Y-111107142D01*
X72571428Y-110964285D01*
X72642857Y-110678571D01*
X72642857Y-110178571D01*
X72571428Y-109892857D01*
X72428571Y-109750000D01*
X72285714Y-109678571D01*
X70142857Y-111035714D02*
X70214285Y-111107142D01*
X70428571Y-111178571D01*
X70571428Y-111178571D01*
X70785714Y-111107142D01*
X70928571Y-110964285D01*
X71000000Y-110821428D01*
X71071428Y-110535714D01*
X71071428Y-110321428D01*
X71000000Y-110035714D01*
X70928571Y-109892857D01*
X70785714Y-109750000D01*
X70571428Y-109678571D01*
X70428571Y-109678571D01*
X70214285Y-109750000D01*
X70142857Y-109821428D01*
X69500000Y-111178571D02*
X69500000Y-109678571D01*
X68642857Y-111178571D02*
X69285714Y-110321428D01*
X68642857Y-109678571D02*
X69500000Y-110535714D01*
X66235714Y-137678571D02*
X66235714Y-136178571D01*
X65735714Y-137250000D01*
X65235714Y-136178571D01*
X65235714Y-137678571D01*
X64521428Y-137678571D02*
X64521428Y-136178571D01*
X63807142Y-137678571D02*
X63807142Y-136178571D01*
X63450000Y-136178571D01*
X63235714Y-136250000D01*
X63092857Y-136392857D01*
X63021428Y-136535714D01*
X62950000Y-136821428D01*
X62950000Y-137035714D01*
X63021428Y-137321428D01*
X63092857Y-137464285D01*
X63235714Y-137607142D01*
X63450000Y-137678571D01*
X63807142Y-137678571D01*
X62307142Y-137678571D02*
X62307142Y-136178571D01*
X60450000Y-137678571D02*
X60450000Y-136178571D01*
X59735714Y-137678571D02*
X59735714Y-136178571D01*
X58878571Y-137678571D01*
X58878571Y-136178571D01*
X58164285Y-137678571D02*
X58164285Y-136178571D01*
X57592857Y-136178571D01*
X57450000Y-136250000D01*
X57378571Y-136321428D01*
X57307142Y-136464285D01*
X57307142Y-136678571D01*
X57378571Y-136821428D01*
X57450000Y-136892857D01*
X57592857Y-136964285D01*
X58164285Y-136964285D01*
X56664285Y-136178571D02*
X56664285Y-137392857D01*
X56592857Y-137535714D01*
X56521428Y-137607142D01*
X56378571Y-137678571D01*
X56092857Y-137678571D01*
X55950000Y-137607142D01*
X55878571Y-137535714D01*
X55807142Y-137392857D01*
X55807142Y-136178571D01*
X55307142Y-136178571D02*
X54450000Y-136178571D01*
X54878571Y-137678571D02*
X54878571Y-136178571D01*
X47128571Y-118250000D02*
X46414285Y-118250000D01*
X47271428Y-118678571D02*
X46771428Y-117178571D01*
X46271428Y-118678571D01*
X45271428Y-117892857D02*
X45771428Y-117892857D01*
X45771428Y-118678571D02*
X45771428Y-117178571D01*
X45057142Y-117178571D01*
X44700000Y-117178571D02*
X43842857Y-117178571D01*
X44271428Y-118678571D02*
X44271428Y-117178571D01*
X43342857Y-117892857D02*
X42842857Y-117892857D01*
X42628571Y-118678571D02*
X43342857Y-118678571D01*
X43342857Y-117178571D01*
X42628571Y-117178571D01*
X41128571Y-118678571D02*
X41628571Y-117964285D01*
X41985714Y-118678571D02*
X41985714Y-117178571D01*
X41414285Y-117178571D01*
X41271428Y-117250000D01*
X41200000Y-117321428D01*
X41128571Y-117464285D01*
X41128571Y-117678571D01*
X41200000Y-117821428D01*
X41271428Y-117892857D01*
X41414285Y-117964285D01*
X41985714Y-117964285D01*
X40700000Y-117178571D02*
X39842857Y-117178571D01*
X40271428Y-118678571D02*
X40271428Y-117178571D01*
X39057142Y-117178571D02*
X38771428Y-117178571D01*
X38628571Y-117250000D01*
X38485714Y-117392857D01*
X38414285Y-117678571D01*
X38414285Y-118178571D01*
X38485714Y-118464285D01*
X38628571Y-118607142D01*
X38771428Y-118678571D01*
X39057142Y-118678571D01*
X39200000Y-118607142D01*
X39342857Y-118464285D01*
X39414285Y-118178571D01*
X39414285Y-117678571D01*
X39342857Y-117392857D01*
X39200000Y-117250000D01*
X39057142Y-117178571D01*
X37771428Y-117178571D02*
X37771428Y-118392857D01*
X37700000Y-118535714D01*
X37628571Y-118607142D01*
X37485714Y-118678571D01*
X37200000Y-118678571D01*
X37057142Y-118607142D01*
X36985714Y-118535714D01*
X36914285Y-118392857D01*
X36914285Y-117178571D01*
X35342857Y-118535714D02*
X35414285Y-118607142D01*
X35628571Y-118678571D01*
X35771428Y-118678571D01*
X35985714Y-118607142D01*
X36128571Y-118464285D01*
X36200000Y-118321428D01*
X36271428Y-118035714D01*
X36271428Y-117821428D01*
X36200000Y-117535714D01*
X36128571Y-117392857D01*
X35985714Y-117250000D01*
X35771428Y-117178571D01*
X35628571Y-117178571D01*
X35414285Y-117250000D01*
X35342857Y-117321428D01*
X34700000Y-118678571D02*
X34700000Y-117178571D01*
X34700000Y-117892857D02*
X33842857Y-117892857D01*
X33842857Y-118678571D02*
X33842857Y-117178571D01*
D13*
X44950000Y-64250000D02*
G75*
G03X44950000Y-64250000I-4500000J0D01*
G01*
X54950000Y-94250000D02*
G75*
G03X54950000Y-94250000I-4500000J0D01*
G01*
X44950000Y-79250000D02*
G75*
G03X44950000Y-79250000I-4500000J0D01*
G01*
X54950000Y-64250000D02*
G75*
G03X54950000Y-64250000I-4500000J0D01*
G01*
X64950000Y-94250000D02*
G75*
G03X64950000Y-94250000I-4500000J0D01*
G01*
X44950000Y-94250000D02*
G75*
G03X44950000Y-94250000I-4500000J0D01*
G01*
X54950000Y-79250000D02*
G75*
G03X54950000Y-79250000I-4500000J0D01*
G01*
X64950000Y-64250000D02*
G75*
G03X64950000Y-64250000I-4500000J0D01*
G01*
X54950000Y-109250000D02*
G75*
G03X54950000Y-109250000I-4500000J0D01*
G01*
X64950000Y-79250000D02*
G75*
G03X64950000Y-79250000I-4500000J0D01*
G01*
X44950000Y-124250000D02*
G75*
G03X44950000Y-124250000I-4500000J0D01*
G01*
X44950000Y-109250000D02*
G75*
G03X44950000Y-109250000I-4500000J0D01*
G01*
X64950000Y-109250000D02*
G75*
G03X64950000Y-109250000I-4500000J0D01*
G01*
M02*
