G04 #@! TF.GenerationSoftware,KiCad,Pcbnew,(5.1.0)-1*
G04 #@! TF.CreationDate,2019-05-29T13:36:30-04:00*
G04 #@! TF.ProjectId,MIDI Controller_Panel,4d494449-2043-46f6-9e74-726f6c6c6572,rev?*
G04 #@! TF.SameCoordinates,Original*
G04 #@! TF.FileFunction,Soldermask,Bot*
G04 #@! TF.FilePolarity,Negative*
%FSLAX46Y46*%
G04 Gerber Fmt 4.6, Leading zero omitted, Abs format (unit mm)*
G04 Created by KiCad (PCBNEW (5.1.0)-1) date 2019-05-29 13:36:30*
%MOMM*%
%LPD*%
G04 APERTURE LIST*
%ADD10C,0.010000*%
%ADD11C,0.100000*%
G04 APERTURE END LIST*
D10*
G36*
X97678264Y-81007138D02*
G01*
X97558085Y-81062977D01*
X97426093Y-81153964D01*
X97286712Y-81276857D01*
X97144370Y-81428416D01*
X97003491Y-81605401D01*
X96868502Y-81804569D01*
X96813661Y-81895722D01*
X96772793Y-81968965D01*
X96748687Y-82017593D01*
X96745707Y-82029626D01*
X96767521Y-82010354D01*
X96822140Y-81956925D01*
X96903143Y-81875767D01*
X97004108Y-81773311D01*
X97108222Y-81666676D01*
X97274711Y-81501280D01*
X97422979Y-81365615D01*
X97549345Y-81262485D01*
X97650126Y-81194698D01*
X97721641Y-81165057D01*
X97756992Y-81172279D01*
X97779741Y-81214712D01*
X97803580Y-81285670D01*
X97806307Y-81296000D01*
X97833134Y-81370316D01*
X97862234Y-81388814D01*
X97894649Y-81351356D01*
X97923854Y-81280472D01*
X97946912Y-81198813D01*
X97945334Y-81139352D01*
X97923658Y-81082916D01*
X97865476Y-81013867D01*
X97782203Y-80989688D01*
X97678264Y-81007138D01*
X97678264Y-81007138D01*
G37*
X97678264Y-81007138D02*
X97558085Y-81062977D01*
X97426093Y-81153964D01*
X97286712Y-81276857D01*
X97144370Y-81428416D01*
X97003491Y-81605401D01*
X96868502Y-81804569D01*
X96813661Y-81895722D01*
X96772793Y-81968965D01*
X96748687Y-82017593D01*
X96745707Y-82029626D01*
X96767521Y-82010354D01*
X96822140Y-81956925D01*
X96903143Y-81875767D01*
X97004108Y-81773311D01*
X97108222Y-81666676D01*
X97274711Y-81501280D01*
X97422979Y-81365615D01*
X97549345Y-81262485D01*
X97650126Y-81194698D01*
X97721641Y-81165057D01*
X97756992Y-81172279D01*
X97779741Y-81214712D01*
X97803580Y-81285670D01*
X97806307Y-81296000D01*
X97833134Y-81370316D01*
X97862234Y-81388814D01*
X97894649Y-81351356D01*
X97923854Y-81280472D01*
X97946912Y-81198813D01*
X97945334Y-81139352D01*
X97923658Y-81082916D01*
X97865476Y-81013867D01*
X97782203Y-80989688D01*
X97678264Y-81007138D01*
G36*
X93443239Y-79251474D02*
G01*
X93345764Y-79270744D01*
X93219248Y-79305885D01*
X93075086Y-79353654D01*
X92924671Y-79410808D01*
X92890597Y-79424853D01*
X92806745Y-79464521D01*
X92707574Y-79518120D01*
X92605154Y-79578200D01*
X92511553Y-79637310D01*
X92438840Y-79688001D01*
X92399083Y-79722821D01*
X92395111Y-79730718D01*
X92405570Y-79741509D01*
X92442020Y-79731139D01*
X92512079Y-79696496D01*
X92605029Y-79644907D01*
X92719703Y-79585198D01*
X92858117Y-79521360D01*
X93007664Y-79458302D01*
X93155735Y-79400928D01*
X93289723Y-79354145D01*
X93397018Y-79322860D01*
X93460500Y-79312004D01*
X93529315Y-79302324D01*
X93550469Y-79282594D01*
X93520189Y-79258573D01*
X93500281Y-79251318D01*
X93443239Y-79251474D01*
X93443239Y-79251474D01*
G37*
X93443239Y-79251474D02*
X93345764Y-79270744D01*
X93219248Y-79305885D01*
X93075086Y-79353654D01*
X92924671Y-79410808D01*
X92890597Y-79424853D01*
X92806745Y-79464521D01*
X92707574Y-79518120D01*
X92605154Y-79578200D01*
X92511553Y-79637310D01*
X92438840Y-79688001D01*
X92399083Y-79722821D01*
X92395111Y-79730718D01*
X92405570Y-79741509D01*
X92442020Y-79731139D01*
X92512079Y-79696496D01*
X92605029Y-79644907D01*
X92719703Y-79585198D01*
X92858117Y-79521360D01*
X93007664Y-79458302D01*
X93155735Y-79400928D01*
X93289723Y-79354145D01*
X93397018Y-79322860D01*
X93460500Y-79312004D01*
X93529315Y-79302324D01*
X93550469Y-79282594D01*
X93520189Y-79258573D01*
X93500281Y-79251318D01*
X93443239Y-79251474D01*
G36*
X88543797Y-80701423D02*
G01*
X88386100Y-80706265D01*
X88244330Y-80714171D01*
X88130532Y-80725110D01*
X88119445Y-80726609D01*
X88078645Y-80734449D01*
X88081619Y-80740649D01*
X88130892Y-80745346D01*
X88228988Y-80748676D01*
X88378434Y-80750776D01*
X88581755Y-80751783D01*
X88585111Y-80751790D01*
X88799903Y-80751484D01*
X88961473Y-80749435D01*
X89073025Y-80745485D01*
X89137759Y-80739477D01*
X89158878Y-80731256D01*
X89149556Y-80724154D01*
X89092922Y-80713253D01*
X88991983Y-80705557D01*
X88858785Y-80701040D01*
X88705374Y-80699671D01*
X88543797Y-80701423D01*
X88543797Y-80701423D01*
G37*
X88543797Y-80701423D02*
X88386100Y-80706265D01*
X88244330Y-80714171D01*
X88130532Y-80725110D01*
X88119445Y-80726609D01*
X88078645Y-80734449D01*
X88081619Y-80740649D01*
X88130892Y-80745346D01*
X88228988Y-80748676D01*
X88378434Y-80750776D01*
X88581755Y-80751783D01*
X88585111Y-80751790D01*
X88799903Y-80751484D01*
X88961473Y-80749435D01*
X89073025Y-80745485D01*
X89137759Y-80739477D01*
X89158878Y-80731256D01*
X89149556Y-80724154D01*
X89092922Y-80713253D01*
X88991983Y-80705557D01*
X88858785Y-80701040D01*
X88705374Y-80699671D01*
X88543797Y-80701423D01*
G36*
X91686460Y-80919426D02*
G01*
X91610930Y-80936307D01*
X91509296Y-80965160D01*
X91461220Y-80980350D01*
X91223889Y-81057583D01*
X91229900Y-81388458D01*
X91230266Y-81517540D01*
X91226800Y-81623061D01*
X91220127Y-81693996D01*
X91211085Y-81719333D01*
X91180571Y-81697049D01*
X91174476Y-81684055D01*
X91137194Y-81655710D01*
X91058694Y-81648957D01*
X90949303Y-81662386D01*
X90819349Y-81694586D01*
X90679158Y-81744147D01*
X90652282Y-81755382D01*
X90419342Y-81855306D01*
X90401403Y-81780264D01*
X90361350Y-81657191D01*
X90301670Y-81525735D01*
X90232239Y-81404326D01*
X90162929Y-81311396D01*
X90136252Y-81285310D01*
X90067277Y-81234897D01*
X90005081Y-81216581D01*
X89919737Y-81221889D01*
X89914662Y-81222577D01*
X89794669Y-81249802D01*
X89711619Y-81289560D01*
X89668883Y-81335445D01*
X89669836Y-81381054D01*
X89717849Y-81419983D01*
X89798540Y-81443097D01*
X89906172Y-81481554D01*
X89997983Y-81560011D01*
X90076903Y-81682767D01*
X90145865Y-81854121D01*
X90194545Y-82023949D01*
X90236419Y-82230008D01*
X90247102Y-82398665D01*
X90226547Y-82539590D01*
X90191616Y-82630863D01*
X90139010Y-82740273D01*
X90109951Y-82812320D01*
X90101491Y-82859476D01*
X90110680Y-82894219D01*
X90124337Y-82915529D01*
X90157863Y-82947805D01*
X90203028Y-82950429D01*
X90257790Y-82935048D01*
X90368365Y-82875117D01*
X90465779Y-82781671D01*
X90527001Y-82678889D01*
X90537982Y-82598000D01*
X90529779Y-82468881D01*
X90518454Y-82387279D01*
X90502011Y-82266444D01*
X90499047Y-82193002D01*
X90509453Y-82159563D01*
X90515047Y-82156263D01*
X90587011Y-82136060D01*
X90688042Y-82110806D01*
X90802360Y-82084059D01*
X90914183Y-82059376D01*
X91007732Y-82040312D01*
X91067226Y-82030424D01*
X91076283Y-82029778D01*
X91112986Y-82040238D01*
X91117985Y-82081888D01*
X91113464Y-82107389D01*
X91103168Y-82170408D01*
X91089639Y-82271455D01*
X91075247Y-82392394D01*
X91070130Y-82439000D01*
X91054036Y-82565128D01*
X91029662Y-82726748D01*
X91000172Y-82904079D01*
X90968725Y-83077338D01*
X90965053Y-83096487D01*
X90933539Y-83264281D01*
X90914394Y-83386579D01*
X90908501Y-83473146D01*
X90916741Y-83533750D01*
X90939998Y-83578158D01*
X90979155Y-83616136D01*
X91014405Y-83642617D01*
X91087301Y-83682334D01*
X91167565Y-83707674D01*
X91238991Y-83716056D01*
X91285373Y-83704900D01*
X91294445Y-83687202D01*
X91274775Y-83645397D01*
X91224467Y-83584668D01*
X91184763Y-83545921D01*
X91075080Y-83446830D01*
X91131848Y-83154581D01*
X91163878Y-82949912D01*
X91183432Y-82723739D01*
X91191868Y-82459783D01*
X91192141Y-82432037D01*
X91194463Y-82283419D01*
X91198543Y-82157012D01*
X91203900Y-82062495D01*
X91210054Y-82009548D01*
X91213518Y-82001649D01*
X91224335Y-82027492D01*
X91237023Y-82096114D01*
X91249217Y-82194006D01*
X91251800Y-82220278D01*
X91276212Y-82395348D01*
X91315872Y-82521612D01*
X91376958Y-82605975D01*
X91465652Y-82655344D01*
X91588132Y-82676624D01*
X91662219Y-82678889D01*
X91800663Y-82670068D01*
X91893203Y-82644610D01*
X91936797Y-82604023D01*
X91928400Y-82549813D01*
X91927121Y-82547678D01*
X91878336Y-82504939D01*
X91814232Y-82478399D01*
X91724527Y-82457510D01*
X91657098Y-82442099D01*
X91611658Y-82423623D01*
X91576390Y-82386833D01*
X91549840Y-82325166D01*
X91530549Y-82232060D01*
X91517061Y-82100953D01*
X91507919Y-81925282D01*
X91502719Y-81746698D01*
X91491343Y-81251952D01*
X91618672Y-81126989D01*
X91702014Y-81037466D01*
X91741011Y-80974251D01*
X91738200Y-80932224D01*
X91722276Y-80917779D01*
X91686460Y-80919426D01*
X91686460Y-80919426D01*
G37*
X91686460Y-80919426D02*
X91610930Y-80936307D01*
X91509296Y-80965160D01*
X91461220Y-80980350D01*
X91223889Y-81057583D01*
X91229900Y-81388458D01*
X91230266Y-81517540D01*
X91226800Y-81623061D01*
X91220127Y-81693996D01*
X91211085Y-81719333D01*
X91180571Y-81697049D01*
X91174476Y-81684055D01*
X91137194Y-81655710D01*
X91058694Y-81648957D01*
X90949303Y-81662386D01*
X90819349Y-81694586D01*
X90679158Y-81744147D01*
X90652282Y-81755382D01*
X90419342Y-81855306D01*
X90401403Y-81780264D01*
X90361350Y-81657191D01*
X90301670Y-81525735D01*
X90232239Y-81404326D01*
X90162929Y-81311396D01*
X90136252Y-81285310D01*
X90067277Y-81234897D01*
X90005081Y-81216581D01*
X89919737Y-81221889D01*
X89914662Y-81222577D01*
X89794669Y-81249802D01*
X89711619Y-81289560D01*
X89668883Y-81335445D01*
X89669836Y-81381054D01*
X89717849Y-81419983D01*
X89798540Y-81443097D01*
X89906172Y-81481554D01*
X89997983Y-81560011D01*
X90076903Y-81682767D01*
X90145865Y-81854121D01*
X90194545Y-82023949D01*
X90236419Y-82230008D01*
X90247102Y-82398665D01*
X90226547Y-82539590D01*
X90191616Y-82630863D01*
X90139010Y-82740273D01*
X90109951Y-82812320D01*
X90101491Y-82859476D01*
X90110680Y-82894219D01*
X90124337Y-82915529D01*
X90157863Y-82947805D01*
X90203028Y-82950429D01*
X90257790Y-82935048D01*
X90368365Y-82875117D01*
X90465779Y-82781671D01*
X90527001Y-82678889D01*
X90537982Y-82598000D01*
X90529779Y-82468881D01*
X90518454Y-82387279D01*
X90502011Y-82266444D01*
X90499047Y-82193002D01*
X90509453Y-82159563D01*
X90515047Y-82156263D01*
X90587011Y-82136060D01*
X90688042Y-82110806D01*
X90802360Y-82084059D01*
X90914183Y-82059376D01*
X91007732Y-82040312D01*
X91067226Y-82030424D01*
X91076283Y-82029778D01*
X91112986Y-82040238D01*
X91117985Y-82081888D01*
X91113464Y-82107389D01*
X91103168Y-82170408D01*
X91089639Y-82271455D01*
X91075247Y-82392394D01*
X91070130Y-82439000D01*
X91054036Y-82565128D01*
X91029662Y-82726748D01*
X91000172Y-82904079D01*
X90968725Y-83077338D01*
X90965053Y-83096487D01*
X90933539Y-83264281D01*
X90914394Y-83386579D01*
X90908501Y-83473146D01*
X90916741Y-83533750D01*
X90939998Y-83578158D01*
X90979155Y-83616136D01*
X91014405Y-83642617D01*
X91087301Y-83682334D01*
X91167565Y-83707674D01*
X91238991Y-83716056D01*
X91285373Y-83704900D01*
X91294445Y-83687202D01*
X91274775Y-83645397D01*
X91224467Y-83584668D01*
X91184763Y-83545921D01*
X91075080Y-83446830D01*
X91131848Y-83154581D01*
X91163878Y-82949912D01*
X91183432Y-82723739D01*
X91191868Y-82459783D01*
X91192141Y-82432037D01*
X91194463Y-82283419D01*
X91198543Y-82157012D01*
X91203900Y-82062495D01*
X91210054Y-82009548D01*
X91213518Y-82001649D01*
X91224335Y-82027492D01*
X91237023Y-82096114D01*
X91249217Y-82194006D01*
X91251800Y-82220278D01*
X91276212Y-82395348D01*
X91315872Y-82521612D01*
X91376958Y-82605975D01*
X91465652Y-82655344D01*
X91588132Y-82676624D01*
X91662219Y-82678889D01*
X91800663Y-82670068D01*
X91893203Y-82644610D01*
X91936797Y-82604023D01*
X91928400Y-82549813D01*
X91927121Y-82547678D01*
X91878336Y-82504939D01*
X91814232Y-82478399D01*
X91724527Y-82457510D01*
X91657098Y-82442099D01*
X91611658Y-82423623D01*
X91576390Y-82386833D01*
X91549840Y-82325166D01*
X91530549Y-82232060D01*
X91517061Y-82100953D01*
X91507919Y-81925282D01*
X91502719Y-81746698D01*
X91491343Y-81251952D01*
X91618672Y-81126989D01*
X91702014Y-81037466D01*
X91741011Y-80974251D01*
X91738200Y-80932224D01*
X91722276Y-80917779D01*
X91686460Y-80919426D01*
G36*
X92655728Y-84560734D02*
G01*
X92579682Y-84612344D01*
X92556665Y-84628661D01*
X92463185Y-84690499D01*
X92372331Y-84737930D01*
X92274675Y-84772804D01*
X92160790Y-84796976D01*
X92021247Y-84812297D01*
X91846618Y-84820620D01*
X91627476Y-84823799D01*
X91562556Y-84824010D01*
X91269379Y-84827476D01*
X91031686Y-84836868D01*
X90848816Y-84852303D01*
X90720107Y-84873893D01*
X90644900Y-84901754D01*
X90622532Y-84936001D01*
X90652343Y-84976747D01*
X90657783Y-84980900D01*
X90684676Y-84993518D01*
X90731175Y-85003304D01*
X90803465Y-85010562D01*
X90907733Y-85015597D01*
X91050165Y-85018712D01*
X91236945Y-85020210D01*
X91462117Y-85020412D01*
X91694889Y-85019688D01*
X91878864Y-85017861D01*
X92021683Y-85014487D01*
X92130990Y-85009120D01*
X92214427Y-85001319D01*
X92279636Y-84990639D01*
X92334261Y-84976636D01*
X92359899Y-84968282D01*
X92454781Y-84929736D01*
X92534807Y-84887342D01*
X92565422Y-84865227D01*
X92635063Y-84787206D01*
X92691702Y-84697212D01*
X92724950Y-84614030D01*
X92728745Y-84569923D01*
X92720093Y-84542994D01*
X92699142Y-84538774D01*
X92655728Y-84560734D01*
X92655728Y-84560734D01*
G37*
X92655728Y-84560734D02*
X92579682Y-84612344D01*
X92556665Y-84628661D01*
X92463185Y-84690499D01*
X92372331Y-84737930D01*
X92274675Y-84772804D01*
X92160790Y-84796976D01*
X92021247Y-84812297D01*
X91846618Y-84820620D01*
X91627476Y-84823799D01*
X91562556Y-84824010D01*
X91269379Y-84827476D01*
X91031686Y-84836868D01*
X90848816Y-84852303D01*
X90720107Y-84873893D01*
X90644900Y-84901754D01*
X90622532Y-84936001D01*
X90652343Y-84976747D01*
X90657783Y-84980900D01*
X90684676Y-84993518D01*
X90731175Y-85003304D01*
X90803465Y-85010562D01*
X90907733Y-85015597D01*
X91050165Y-85018712D01*
X91236945Y-85020210D01*
X91462117Y-85020412D01*
X91694889Y-85019688D01*
X91878864Y-85017861D01*
X92021683Y-85014487D01*
X92130990Y-85009120D01*
X92214427Y-85001319D01*
X92279636Y-84990639D01*
X92334261Y-84976636D01*
X92359899Y-84968282D01*
X92454781Y-84929736D01*
X92534807Y-84887342D01*
X92565422Y-84865227D01*
X92635063Y-84787206D01*
X92691702Y-84697212D01*
X92724950Y-84614030D01*
X92728745Y-84569923D01*
X92720093Y-84542994D01*
X92699142Y-84538774D01*
X92655728Y-84560734D01*
G36*
X91733887Y-85449839D02*
G01*
X91653049Y-85462916D01*
X91556821Y-85480238D01*
X91465131Y-85498146D01*
X91397908Y-85512980D01*
X91379902Y-85518030D01*
X91352516Y-85533709D01*
X91375623Y-85555909D01*
X91379902Y-85558641D01*
X91451087Y-85579827D01*
X91550288Y-85582347D01*
X91652700Y-85567442D01*
X91724834Y-85541413D01*
X91779196Y-85502291D01*
X91803435Y-85466163D01*
X91790343Y-85445803D01*
X91779406Y-85444666D01*
X91733887Y-85449839D01*
X91733887Y-85449839D01*
G37*
X91733887Y-85449839D02*
X91653049Y-85462916D01*
X91556821Y-85480238D01*
X91465131Y-85498146D01*
X91397908Y-85512980D01*
X91379902Y-85518030D01*
X91352516Y-85533709D01*
X91375623Y-85555909D01*
X91379902Y-85558641D01*
X91451087Y-85579827D01*
X91550288Y-85582347D01*
X91652700Y-85567442D01*
X91724834Y-85541413D01*
X91779196Y-85502291D01*
X91803435Y-85466163D01*
X91790343Y-85445803D01*
X91779406Y-85444666D01*
X91733887Y-85449839D01*
G36*
X93139073Y-68191034D02*
G01*
X93121834Y-68201198D01*
X93052549Y-68237952D01*
X92999721Y-68256639D01*
X92993559Y-68257228D01*
X92942320Y-68275021D01*
X92859520Y-68323172D01*
X92755405Y-68394112D01*
X92640220Y-68480273D01*
X92524211Y-68574088D01*
X92417622Y-68667989D01*
X92354598Y-68729209D01*
X92253664Y-68839454D01*
X92139580Y-68974578D01*
X92030624Y-69112578D01*
X91984664Y-69174555D01*
X91888385Y-69320027D01*
X91780084Y-69503376D01*
X91667513Y-69709611D01*
X91558422Y-69923740D01*
X91460562Y-70130775D01*
X91381687Y-70315722D01*
X91348245Y-70405362D01*
X91283647Y-70591946D01*
X91140879Y-70507448D01*
X90888445Y-70378670D01*
X90623765Y-70286034D01*
X90339655Y-70228496D01*
X90028931Y-70205011D01*
X89684411Y-70214533D01*
X89357560Y-70248071D01*
X89021585Y-70298372D01*
X88725000Y-70357871D01*
X88450909Y-70431548D01*
X88182414Y-70524383D01*
X87902620Y-70641356D01*
X87696111Y-70737793D01*
X87197836Y-70999544D01*
X86753435Y-71277540D01*
X86362962Y-71571739D01*
X86026472Y-71882097D01*
X85744020Y-72208572D01*
X85653091Y-72333628D01*
X85458431Y-72645860D01*
X85271101Y-73006015D01*
X85094010Y-73405746D01*
X84930062Y-73836706D01*
X84782166Y-74290549D01*
X84653228Y-74758925D01*
X84546155Y-75233489D01*
X84463853Y-75705893D01*
X84453477Y-75778555D01*
X84413287Y-76126610D01*
X84384226Y-76501516D01*
X84366544Y-76889283D01*
X84360492Y-77275918D01*
X84366320Y-77647431D01*
X84384277Y-77989830D01*
X84409324Y-78248000D01*
X84448439Y-78512503D01*
X84503913Y-78813896D01*
X84572107Y-79136286D01*
X84649384Y-79463779D01*
X84732104Y-79780480D01*
X84816629Y-80070497D01*
X84851434Y-80179433D01*
X84904614Y-80322712D01*
X84981098Y-80503919D01*
X85075650Y-80712284D01*
X85183034Y-80937039D01*
X85298012Y-81167415D01*
X85415348Y-81392643D01*
X85529805Y-81601954D01*
X85614368Y-81748339D01*
X85723841Y-81924441D01*
X85830569Y-82081763D01*
X85929007Y-82213027D01*
X86013610Y-82310955D01*
X86078833Y-82368270D01*
X86092506Y-82375885D01*
X86142974Y-82410340D01*
X86138856Y-82443849D01*
X86079444Y-82477601D01*
X86020197Y-82497514D01*
X85876160Y-82561110D01*
X85777911Y-82655100D01*
X85723304Y-82782786D01*
X85710192Y-82947473D01*
X85711475Y-82972579D01*
X85739578Y-83146802D01*
X85803820Y-83318794D01*
X85908381Y-83496406D01*
X86057442Y-83687490D01*
X86142998Y-83783039D01*
X86256628Y-83910334D01*
X86373912Y-84049616D01*
X86479417Y-84182162D01*
X86544618Y-84270269D01*
X86631214Y-84384833D01*
X86742375Y-84519475D01*
X86861981Y-84655152D01*
X86946578Y-84745152D01*
X87050794Y-84850843D01*
X87125559Y-84921702D01*
X87179927Y-84964173D01*
X87222949Y-84984696D01*
X87263680Y-84989713D01*
X87288181Y-84988216D01*
X87336177Y-84985992D01*
X87371219Y-84996894D01*
X87402881Y-85030670D01*
X87440735Y-85097070D01*
X87486983Y-85190666D01*
X87541126Y-85292867D01*
X87608115Y-85405907D01*
X87680606Y-85518963D01*
X87751256Y-85621214D01*
X87812720Y-85701836D01*
X87857656Y-85750007D01*
X87872442Y-85758713D01*
X87915161Y-85764309D01*
X87956658Y-85768946D01*
X88042319Y-85798109D01*
X88103958Y-85869661D01*
X88135871Y-85945570D01*
X88173874Y-86041856D01*
X88218859Y-86132702D01*
X88219498Y-86133813D01*
X88247293Y-86194542D01*
X88285739Y-86295385D01*
X88329733Y-86422254D01*
X88373676Y-86559444D01*
X88425881Y-86728326D01*
X88465112Y-86850974D01*
X88494544Y-86935240D01*
X88517353Y-86988975D01*
X88536713Y-87020030D01*
X88555799Y-87036258D01*
X88568957Y-87042343D01*
X88611073Y-87036093D01*
X88686187Y-87005488D01*
X88779806Y-86956670D01*
X88803156Y-86943082D01*
X88917337Y-86879822D01*
X89034017Y-86822521D01*
X89128746Y-86783153D01*
X89132164Y-86781974D01*
X89267750Y-86735775D01*
X89441486Y-86856963D01*
X89556567Y-86936642D01*
X89680827Y-87021774D01*
X89771484Y-87083213D01*
X89881719Y-87159820D01*
X89947408Y-87213939D01*
X89972514Y-87251943D01*
X89960996Y-87280210D01*
X89916816Y-87305114D01*
X89910881Y-87307612D01*
X89842573Y-87349621D01*
X89762918Y-87417655D01*
X89719924Y-87462449D01*
X89574917Y-87603300D01*
X89394332Y-87741597D01*
X89197753Y-87862836D01*
X89135254Y-87895372D01*
X89045993Y-87931859D01*
X88909782Y-87977431D01*
X88734989Y-88029962D01*
X88529984Y-88087322D01*
X88303136Y-88147383D01*
X88062813Y-88208017D01*
X87817385Y-88267096D01*
X87575221Y-88322492D01*
X87344689Y-88372077D01*
X87134159Y-88413722D01*
X87009326Y-88435978D01*
X86809547Y-88471225D01*
X86656944Y-88502269D01*
X86542621Y-88531361D01*
X86457679Y-88560752D01*
X86395493Y-88591356D01*
X86324246Y-88639755D01*
X86279148Y-88683167D01*
X86270889Y-88701132D01*
X86253363Y-88739304D01*
X86207239Y-88805220D01*
X86142201Y-88885143D01*
X86136834Y-88891315D01*
X85985679Y-89073685D01*
X85842741Y-89266972D01*
X85703389Y-89478854D01*
X85562996Y-89717007D01*
X85416931Y-89989109D01*
X85260567Y-90302835D01*
X85165734Y-90501786D01*
X85005183Y-90851991D01*
X84866751Y-91175130D01*
X84743462Y-91489452D01*
X84628338Y-91813208D01*
X84514404Y-92164649D01*
X84451906Y-92369073D01*
X84349901Y-92698779D01*
X84239011Y-93040042D01*
X84124213Y-93378371D01*
X84010486Y-93699273D01*
X83902806Y-93988258D01*
X83845758Y-94133852D01*
X83728074Y-94467150D01*
X83655071Y-94773221D01*
X83626823Y-95059426D01*
X83643405Y-95333127D01*
X83704892Y-95601684D01*
X83811358Y-95872458D01*
X83864513Y-95979156D01*
X83966698Y-96159315D01*
X84098962Y-96370330D01*
X84253682Y-96601051D01*
X84423236Y-96840329D01*
X84600002Y-97077014D01*
X84718667Y-97228582D01*
X84817040Y-97351968D01*
X84938998Y-97505445D01*
X85073223Y-97674740D01*
X85208397Y-97845583D01*
X85307199Y-97970717D01*
X85475279Y-98181897D01*
X85615336Y-98352189D01*
X85732756Y-98486199D01*
X85832924Y-98588536D01*
X85921227Y-98663805D01*
X86003050Y-98716613D01*
X86083779Y-98751568D01*
X86168801Y-98773277D01*
X86260379Y-98786026D01*
X86349925Y-98798613D01*
X86395957Y-98816542D01*
X86411398Y-98845862D01*
X86412000Y-98856983D01*
X86422378Y-98940658D01*
X86450513Y-99061896D01*
X86491904Y-99206391D01*
X86542051Y-99359835D01*
X86596454Y-99507920D01*
X86650614Y-99636338D01*
X86669459Y-99675545D01*
X86774940Y-99853564D01*
X86899832Y-100012697D01*
X87035931Y-100145710D01*
X87175037Y-100245368D01*
X87308947Y-100304439D01*
X87397672Y-100317778D01*
X87492393Y-100292227D01*
X87581334Y-100230983D01*
X87680187Y-100144189D01*
X87772816Y-100213540D01*
X87911398Y-100304211D01*
X88034624Y-100359189D01*
X88118043Y-100374222D01*
X88158562Y-100377852D01*
X88180078Y-100397767D01*
X88188608Y-100447507D01*
X88190167Y-100536500D01*
X88194960Y-100637888D01*
X88207646Y-100772258D01*
X88225923Y-100917075D01*
X88235576Y-100981000D01*
X88254726Y-101128859D01*
X88271111Y-101307852D01*
X88282697Y-101492673D01*
X88287041Y-101621421D01*
X88292246Y-101792182D01*
X88301488Y-101913248D01*
X88315517Y-101991271D01*
X88333208Y-102030643D01*
X88444238Y-102167763D01*
X88539118Y-102271710D01*
X88632548Y-102356576D01*
X88739233Y-102436454D01*
X88798176Y-102476308D01*
X88969215Y-102583008D01*
X89168719Y-102697383D01*
X89376876Y-102808745D01*
X89573870Y-102906409D01*
X89704530Y-102965150D01*
X89850282Y-103026603D01*
X89837753Y-103527801D01*
X89832979Y-103700532D01*
X89827660Y-103862873D01*
X89822258Y-104002569D01*
X89817238Y-104107365D01*
X89813975Y-104156000D01*
X89809355Y-104275801D01*
X89811585Y-104443535D01*
X89820044Y-104651186D01*
X89834112Y-104890737D01*
X89853168Y-105154174D01*
X89876590Y-105433480D01*
X89903759Y-105720639D01*
X89934054Y-106007637D01*
X89966854Y-106286458D01*
X89996450Y-106512555D01*
X90025661Y-106746751D01*
X90054556Y-107019836D01*
X90081520Y-107314270D01*
X90104940Y-107612511D01*
X90122322Y-107881333D01*
X90140125Y-108185237D01*
X90156711Y-108444056D01*
X90173102Y-108669102D01*
X90190317Y-108871690D01*
X90209377Y-109063134D01*
X90231304Y-109254748D01*
X90257119Y-109457846D01*
X90279552Y-109623836D01*
X90310412Y-109872010D01*
X90327644Y-110080173D01*
X90331030Y-110263145D01*
X90320353Y-110435745D01*
X90295394Y-110612791D01*
X90262556Y-110778909D01*
X90234366Y-110920788D01*
X90202308Y-111101310D01*
X90169262Y-111303077D01*
X90138108Y-111508693D01*
X90118513Y-111649000D01*
X90077617Y-112009440D01*
X90058410Y-112330671D01*
X90061862Y-112625985D01*
X90088940Y-112908677D01*
X90140616Y-113192041D01*
X90217857Y-113489370D01*
X90263569Y-113638666D01*
X90308908Y-113801109D01*
X90356344Y-114007879D01*
X90403355Y-114247047D01*
X90447420Y-114506687D01*
X90448496Y-114513555D01*
X90490154Y-114784441D01*
X90522556Y-115007105D01*
X90546373Y-115188887D01*
X90562275Y-115337132D01*
X90570933Y-115459180D01*
X90573017Y-115562373D01*
X90569196Y-115654055D01*
X90560406Y-115739529D01*
X90528186Y-115922413D01*
X90476865Y-116136235D01*
X90412130Y-116361221D01*
X90339668Y-116577597D01*
X90265627Y-116764542D01*
X90201788Y-116925534D01*
X90170227Y-117055292D01*
X90171219Y-117169075D01*
X90205036Y-117282141D01*
X90271952Y-117409751D01*
X90277354Y-117418748D01*
X90311049Y-117477050D01*
X90340620Y-117535934D01*
X90367735Y-117601767D01*
X90394057Y-117680915D01*
X90421254Y-117779745D01*
X90450989Y-117904624D01*
X90484930Y-118061918D01*
X90524742Y-118257993D01*
X90572090Y-118499217D01*
X90606364Y-118676333D01*
X90635357Y-118820769D01*
X90663647Y-118951424D01*
X90688202Y-119054926D01*
X90705987Y-119117908D01*
X90707544Y-119122164D01*
X90762087Y-119198411D01*
X90848135Y-119257656D01*
X90940747Y-119283033D01*
X90945546Y-119283111D01*
X90969158Y-119290731D01*
X90956730Y-119319308D01*
X90911669Y-119370356D01*
X90813085Y-119466018D01*
X90723667Y-119528339D01*
X90624262Y-119566240D01*
X90495720Y-119588640D01*
X90428052Y-119595607D01*
X90285587Y-119613166D01*
X90182707Y-119638204D01*
X90102635Y-119675161D01*
X90084731Y-119686441D01*
X90012092Y-119745944D01*
X89919377Y-119837979D01*
X89817189Y-119950103D01*
X89716128Y-120069870D01*
X89626796Y-120184838D01*
X89559793Y-120282562D01*
X89530679Y-120336796D01*
X89496953Y-120470686D01*
X89493532Y-120619975D01*
X89519945Y-120758156D01*
X89538967Y-120804800D01*
X89615844Y-120906757D01*
X89736769Y-121005505D01*
X89889378Y-121096011D01*
X90061305Y-121173241D01*
X90240183Y-121232163D01*
X90413646Y-121267743D01*
X90569330Y-121274947D01*
X90659445Y-121260873D01*
X90746309Y-121234141D01*
X90826120Y-121201436D01*
X90912955Y-121155509D01*
X91020890Y-121089112D01*
X91123721Y-121021810D01*
X91227473Y-120955119D01*
X91315806Y-120902306D01*
X91377012Y-120870158D01*
X91396840Y-120863555D01*
X91437996Y-120843297D01*
X91482896Y-120798728D01*
X91522902Y-120753481D01*
X91567765Y-120717511D01*
X91624706Y-120689289D01*
X91700950Y-120667286D01*
X91803719Y-120649975D01*
X91940237Y-120635827D01*
X92117727Y-120623313D01*
X92343412Y-120610904D01*
X92378957Y-120609103D01*
X92617604Y-120595629D01*
X92806474Y-120581242D01*
X92952235Y-120564884D01*
X93061553Y-120545496D01*
X93141096Y-120522022D01*
X93197531Y-120493403D01*
X93220611Y-120475556D01*
X93256417Y-120410115D01*
X93269441Y-120308218D01*
X93259852Y-120184977D01*
X93227822Y-120055503D01*
X93224990Y-120047759D01*
X92918455Y-120047759D01*
X92894849Y-120108991D01*
X92840716Y-120144845D01*
X92751778Y-120164725D01*
X92729255Y-120167634D01*
X92614295Y-120177821D01*
X92479415Y-120184713D01*
X92395111Y-120186467D01*
X92234890Y-120195674D01*
X92068689Y-120219656D01*
X91913972Y-120254776D01*
X91788204Y-120297395D01*
X91735946Y-120323782D01*
X91505599Y-120462792D01*
X91311811Y-120572965D01*
X91145414Y-120658556D01*
X90997238Y-120723819D01*
X90858117Y-120773008D01*
X90718881Y-120810377D01*
X90659445Y-120823308D01*
X90512466Y-120849555D01*
X90396257Y-120858489D01*
X90287821Y-120849975D01*
X90164161Y-120823881D01*
X90150319Y-120820363D01*
X90007280Y-120777092D01*
X89879132Y-120726287D01*
X89776061Y-120673149D01*
X89708257Y-120622879D01*
X89685778Y-120583196D01*
X89707314Y-120513767D01*
X89771319Y-120409523D01*
X89876888Y-120271770D01*
X90005931Y-120121075D01*
X90117017Y-120002308D01*
X90208143Y-119922758D01*
X90291459Y-119875219D01*
X90379112Y-119852486D01*
X90467543Y-119847280D01*
X90626531Y-119825482D01*
X90776047Y-119766126D01*
X90904745Y-119677289D01*
X91001279Y-119567049D01*
X91054301Y-119443484D01*
X91057323Y-119427390D01*
X91074169Y-119322038D01*
X91431251Y-119320897D01*
X91676737Y-119312903D01*
X91903576Y-119291712D01*
X92042334Y-119269486D01*
X92192205Y-119244547D01*
X92355941Y-119224625D01*
X92501803Y-119213473D01*
X92522111Y-119212732D01*
X92635301Y-119207112D01*
X92730740Y-119198100D01*
X92790887Y-119187448D01*
X92797278Y-119185215D01*
X92822256Y-119179851D01*
X92837069Y-119196917D01*
X92844310Y-119246641D01*
X92846571Y-119339252D01*
X92846667Y-119380059D01*
X92853261Y-119524681D01*
X92870435Y-119685936D01*
X92891199Y-119811528D01*
X92915813Y-119951740D01*
X92918455Y-120047759D01*
X93224990Y-120047759D01*
X93215505Y-120021834D01*
X93147185Y-119789447D01*
X93107745Y-119511456D01*
X93097565Y-119311333D01*
X93095965Y-119195155D01*
X93098859Y-119124707D01*
X93108610Y-119089316D01*
X93127576Y-119078308D01*
X93148821Y-119079568D01*
X93210268Y-119060553D01*
X93278902Y-118991098D01*
X93318847Y-118934171D01*
X93337666Y-118885099D01*
X93338818Y-118823255D01*
X93325761Y-118728012D01*
X93324415Y-118719629D01*
X93299429Y-118598526D01*
X93265682Y-118476338D01*
X93243474Y-118412988D01*
X93200557Y-118305668D01*
X93152149Y-118184367D01*
X93131292Y-118132021D01*
X93092761Y-118011551D01*
X93091804Y-117923721D01*
X93132031Y-117856087D01*
X93217056Y-117796203D01*
X93230946Y-117788679D01*
X93324356Y-117732638D01*
X93393382Y-117672185D01*
X93438833Y-117600326D01*
X93461519Y-117510070D01*
X93462248Y-117394424D01*
X93441829Y-117246397D01*
X93401071Y-117058996D01*
X93341910Y-116829420D01*
X93276603Y-116583254D01*
X93225366Y-116378660D01*
X93186505Y-116203014D01*
X93158327Y-116043690D01*
X93139138Y-115888063D01*
X93127244Y-115723507D01*
X93120951Y-115537396D01*
X93118566Y-115317105D01*
X93118306Y-115162666D01*
X93122406Y-114818409D01*
X93135695Y-114517545D01*
X93159779Y-114247537D01*
X93196266Y-113995846D01*
X93246761Y-113749933D01*
X93312872Y-113497259D01*
X93346119Y-113384666D01*
X93420832Y-113137801D01*
X93480261Y-112938192D01*
X93525955Y-112779221D01*
X93559467Y-112654272D01*
X93582348Y-112556724D01*
X93596149Y-112479961D01*
X93602421Y-112417364D01*
X93602717Y-112362316D01*
X93598588Y-112308197D01*
X93598553Y-112307857D01*
X93567126Y-112133909D01*
X93514485Y-111989111D01*
X93445153Y-111884754D01*
X93419622Y-111861303D01*
X93350017Y-111806552D01*
X93427800Y-111704573D01*
X93493933Y-111583016D01*
X93519383Y-111440917D01*
X93504439Y-111271633D01*
X93454731Y-111084555D01*
X93391466Y-110856210D01*
X93350400Y-110629774D01*
X93333912Y-110421909D01*
X93339962Y-110280650D01*
X93350874Y-110214911D01*
X93373102Y-110102316D01*
X93404905Y-109950921D01*
X93444544Y-109768782D01*
X93490279Y-109563957D01*
X93540370Y-109344502D01*
X93565529Y-109236000D01*
X93620774Y-108995306D01*
X93675509Y-108750098D01*
X93727321Y-108511690D01*
X93773795Y-108291391D01*
X93812515Y-108100515D01*
X93841068Y-107950373D01*
X93846349Y-107920441D01*
X93882322Y-107725172D01*
X93926437Y-107505441D01*
X93973202Y-107287653D01*
X94017126Y-107098211D01*
X94018725Y-107091685D01*
X94085552Y-106803748D01*
X94138682Y-106541518D01*
X94176785Y-106312633D01*
X94198530Y-106124731D01*
X94203204Y-106032778D01*
X94208545Y-105910823D01*
X94221665Y-105843994D01*
X94244882Y-105831934D01*
X94280514Y-105874282D01*
X94330877Y-105970679D01*
X94349235Y-106010149D01*
X94425062Y-106197116D01*
X94504077Y-106431000D01*
X94583592Y-106702581D01*
X94660922Y-107002638D01*
X94733379Y-107321949D01*
X94738267Y-107345111D01*
X94777891Y-107524895D01*
X94827377Y-107736140D01*
X94881212Y-107955996D01*
X94933882Y-108161615D01*
X94949408Y-108220000D01*
X94996952Y-108403238D01*
X95051085Y-108622342D01*
X95107164Y-108857863D01*
X95160544Y-109090353D01*
X95199807Y-109268637D01*
X95246796Y-109479988D01*
X95303168Y-109721377D01*
X95366539Y-109983563D01*
X95434525Y-110257304D01*
X95504742Y-110533356D01*
X95574807Y-110802478D01*
X95642336Y-111055427D01*
X95704944Y-111282960D01*
X95760248Y-111475836D01*
X95805864Y-111624812D01*
X95813772Y-111649000D01*
X95954292Y-112019320D01*
X96123302Y-112363271D01*
X96326824Y-112690170D01*
X96570883Y-113009332D01*
X96861501Y-113330076D01*
X96973266Y-113442402D01*
X97084051Y-113558111D01*
X97173940Y-113670319D01*
X97248669Y-113790108D01*
X97313974Y-113928559D01*
X97375591Y-114096754D01*
X97439254Y-114305772D01*
X97461956Y-114386555D01*
X97528928Y-114623302D01*
X97612186Y-114908840D01*
X97710300Y-115238365D01*
X97821839Y-115607078D01*
X97945115Y-116009333D01*
X98010381Y-116207741D01*
X98070863Y-116360736D01*
X98131208Y-116478555D01*
X98196064Y-116571435D01*
X98205305Y-116582489D01*
X98236316Y-116654960D01*
X98241089Y-116741136D01*
X98246224Y-116842654D01*
X98279116Y-116952243D01*
X98344098Y-117080686D01*
X98434786Y-117223064D01*
X98574909Y-117454918D01*
X98687354Y-117693245D01*
X98764768Y-117921526D01*
X98784982Y-118009980D01*
X98807978Y-118114478D01*
X98832037Y-118198045D01*
X98852339Y-118244223D01*
X98854180Y-118246357D01*
X98894218Y-118271515D01*
X98961237Y-118289235D01*
X99063263Y-118300555D01*
X99208324Y-118306515D01*
X99330746Y-118308012D01*
X99620048Y-118309444D01*
X99620024Y-118653329D01*
X99622441Y-118794810D01*
X99629029Y-118922397D01*
X99638768Y-119021676D01*
X99650018Y-119076662D01*
X99724063Y-119198038D01*
X99849586Y-119313054D01*
X100021722Y-119418728D01*
X100235604Y-119512080D01*
X100486367Y-119590127D01*
X100488995Y-119590808D01*
X100634092Y-119629085D01*
X100741482Y-119661177D01*
X100828245Y-119694481D01*
X100911461Y-119736391D01*
X101008210Y-119794302D01*
X101112515Y-119860777D01*
X101208714Y-119919916D01*
X101286826Y-119957527D01*
X101367567Y-119980260D01*
X101471653Y-119994763D01*
X101553222Y-120002221D01*
X101747793Y-120016149D01*
X101895849Y-120018449D01*
X102006720Y-120005683D01*
X102089739Y-119974414D01*
X102154238Y-119921204D01*
X102209547Y-119842614D01*
X102262218Y-119741025D01*
X102328464Y-119544333D01*
X102344686Y-119342868D01*
X102323490Y-119220984D01*
X102132208Y-119220984D01*
X102078950Y-119343770D01*
X102006041Y-119469684D01*
X101913931Y-119566148D01*
X101813150Y-119624841D01*
X101714224Y-119637445D01*
X101708445Y-119636531D01*
X101641703Y-119626723D01*
X101543888Y-119614568D01*
X101468556Y-119606172D01*
X101166659Y-119552258D01*
X100880257Y-119458284D01*
X100623474Y-119329301D01*
X100539028Y-119273876D01*
X100482757Y-119239276D01*
X100388307Y-119186626D01*
X100268192Y-119122704D01*
X100134923Y-119054286D01*
X100115695Y-119044618D01*
X99775222Y-118873889D01*
X99754212Y-118605778D01*
X99746243Y-118486269D01*
X99742212Y-118387001D01*
X99742566Y-118322128D01*
X99744747Y-118306358D01*
X99777071Y-118287043D01*
X99854464Y-118263682D01*
X99965893Y-118238441D01*
X100100326Y-118213482D01*
X100246730Y-118190970D01*
X100394073Y-118173068D01*
X100452556Y-118167532D01*
X100582605Y-118150932D01*
X100733924Y-118123634D01*
X100873833Y-118091537D01*
X100874292Y-118091416D01*
X101098472Y-118032204D01*
X101198847Y-118156387D01*
X101253823Y-118218900D01*
X101340069Y-118310414D01*
X101447970Y-118421015D01*
X101567913Y-118540787D01*
X101639601Y-118610931D01*
X101776276Y-118747947D01*
X101895047Y-118875508D01*
X101988271Y-118984984D01*
X102048304Y-119067747D01*
X102056094Y-119081137D01*
X102132208Y-119220984D01*
X102323490Y-119220984D01*
X102310856Y-119148339D01*
X102263952Y-119034849D01*
X102188204Y-118919443D01*
X102075263Y-118785529D01*
X101936087Y-118644045D01*
X101781637Y-118505931D01*
X101622872Y-118382126D01*
X101579710Y-118351904D01*
X101468355Y-118270037D01*
X101365144Y-118183494D01*
X101279685Y-118101486D01*
X101221584Y-118033224D01*
X101200445Y-117988281D01*
X101222010Y-117950832D01*
X101272830Y-117905272D01*
X101332090Y-117869550D01*
X101343264Y-117865116D01*
X101392046Y-117819746D01*
X101426634Y-117728870D01*
X101445767Y-117601926D01*
X101448183Y-117448350D01*
X101432618Y-117277581D01*
X101426873Y-117239968D01*
X101393386Y-117062584D01*
X101352721Y-116913942D01*
X101298428Y-116782190D01*
X101224056Y-116655478D01*
X101123153Y-116521954D01*
X100989268Y-116369767D01*
X100903253Y-116278038D01*
X100662286Y-116024632D01*
X100731128Y-115897038D01*
X100800114Y-115745145D01*
X100853483Y-115581058D01*
X100884667Y-115427335D01*
X100890000Y-115351375D01*
X100872591Y-115239554D01*
X100816985Y-115127424D01*
X100718113Y-115006679D01*
X100624428Y-114916180D01*
X100475900Y-114752184D01*
X100344283Y-114543324D01*
X100228482Y-114287129D01*
X100127402Y-113981126D01*
X100039948Y-113622842D01*
X100029736Y-113573352D01*
X99990581Y-113336623D01*
X99959172Y-113050831D01*
X99935451Y-112714720D01*
X99919357Y-112327037D01*
X99910828Y-111886527D01*
X99909806Y-111391937D01*
X99912057Y-111126889D01*
X99913990Y-110881645D01*
X99913856Y-110665807D01*
X99911757Y-110484811D01*
X99907793Y-110344089D01*
X99902067Y-110249078D01*
X99894913Y-110205711D01*
X99849098Y-110145712D01*
X99800327Y-110109220D01*
X99750301Y-110071955D01*
X99732889Y-110041448D01*
X99740421Y-110003669D01*
X99761005Y-109923071D01*
X99791630Y-109810943D01*
X99829280Y-109678576D01*
X99835205Y-109658162D01*
X99906372Y-109408431D01*
X99963721Y-109196230D01*
X100006273Y-109025503D01*
X100033048Y-108900195D01*
X100043066Y-108824252D01*
X100043113Y-108821137D01*
X100027907Y-108763569D01*
X99988649Y-108682756D01*
X99955028Y-108628208D01*
X99844680Y-108430993D01*
X99742737Y-108179494D01*
X99649583Y-107875299D01*
X99565600Y-107519995D01*
X99491172Y-107115171D01*
X99426681Y-106662414D01*
X99380294Y-106244444D01*
X99371874Y-106136871D01*
X99362790Y-105982230D01*
X99353258Y-105787822D01*
X99343497Y-105560950D01*
X99333724Y-105308914D01*
X99324155Y-105039017D01*
X99315009Y-104758560D01*
X99306502Y-104474844D01*
X99298852Y-104195172D01*
X99292276Y-103926844D01*
X99286992Y-103677163D01*
X99283216Y-103453429D01*
X99281167Y-103262945D01*
X99281061Y-103113013D01*
X99283115Y-103010933D01*
X99283694Y-102998889D01*
X99291995Y-102700662D01*
X99281146Y-102443006D01*
X99250330Y-102213111D01*
X99226740Y-102102740D01*
X99163698Y-101841592D01*
X99250738Y-101723236D01*
X99300595Y-101648218D01*
X99332087Y-101586943D01*
X99337778Y-101565087D01*
X99356592Y-101536857D01*
X99373056Y-101538295D01*
X99416138Y-101552660D01*
X99496460Y-101578280D01*
X99597307Y-101609830D01*
X99605889Y-101612490D01*
X99714797Y-101646327D01*
X99811449Y-101676532D01*
X99875156Y-101696641D01*
X99875729Y-101696824D01*
X99974747Y-101705556D01*
X100050153Y-101663722D01*
X100094266Y-101582680D01*
X100102680Y-101531054D01*
X100107390Y-101483355D01*
X99224540Y-101483355D01*
X98998937Y-101718349D01*
X98909681Y-101813690D01*
X98837105Y-101895726D01*
X98789076Y-101955255D01*
X98773334Y-101982227D01*
X98768735Y-102001052D01*
X98748766Y-102008009D01*
X98704164Y-102001658D01*
X98625668Y-101980558D01*
X98504019Y-101943269D01*
X98485513Y-101937459D01*
X98094679Y-101787796D01*
X97709956Y-101588427D01*
X97342618Y-101345851D01*
X97054236Y-101112119D01*
X96901472Y-100976175D01*
X96950475Y-100781096D01*
X97010308Y-100594486D01*
X97090248Y-100419853D01*
X97134277Y-100349332D01*
X95137851Y-100349332D01*
X95107084Y-100364692D01*
X95031859Y-100397856D01*
X94920052Y-100445483D01*
X94779540Y-100504232D01*
X94618198Y-100570763D01*
X94552215Y-100597737D01*
X93939730Y-100822927D01*
X93323311Y-101001377D01*
X92710645Y-101131203D01*
X92109420Y-101210523D01*
X92020541Y-101217960D01*
X91846920Y-101234164D01*
X91704388Y-101253107D01*
X91601985Y-101273395D01*
X91554874Y-101289741D01*
X91499095Y-101319239D01*
X91471023Y-101332609D01*
X91470834Y-101332648D01*
X91468199Y-101306620D01*
X91466011Y-101234632D01*
X91464475Y-101127168D01*
X91463794Y-100994712D01*
X91463778Y-100970239D01*
X91463778Y-100606701D01*
X91595994Y-100573408D01*
X91715841Y-100544968D01*
X91844401Y-100518378D01*
X91993836Y-100491429D01*
X92176306Y-100461915D01*
X92376727Y-100431643D01*
X92513545Y-100410430D01*
X92629302Y-100390599D01*
X92712986Y-100374174D01*
X92753585Y-100363180D01*
X92755375Y-100362033D01*
X92743747Y-100350175D01*
X92685015Y-100344034D01*
X92588160Y-100342998D01*
X92462167Y-100346457D01*
X92316019Y-100353801D01*
X92158699Y-100364417D01*
X91999190Y-100377696D01*
X91846477Y-100393025D01*
X91709541Y-100409796D01*
X91597367Y-100427395D01*
X91518938Y-100445213D01*
X91515212Y-100446368D01*
X91496182Y-100450675D01*
X91482326Y-100445058D01*
X91473144Y-100422448D01*
X91468135Y-100375779D01*
X91466797Y-100297983D01*
X91468629Y-100181993D01*
X91473129Y-100020742D01*
X91476751Y-99904134D01*
X91484055Y-99708290D01*
X91493490Y-99509782D01*
X91504189Y-99323848D01*
X91515284Y-99165728D01*
X91524667Y-99061889D01*
X91534102Y-98974079D01*
X90009485Y-98974079D01*
X89984828Y-98983212D01*
X89927295Y-98986584D01*
X89829374Y-98984580D01*
X89683551Y-98977587D01*
X89663823Y-98976505D01*
X89524093Y-98970228D01*
X89404091Y-98967557D01*
X89315399Y-98968556D01*
X89269599Y-98973284D01*
X89267036Y-98974385D01*
X89251797Y-99011109D01*
X89267211Y-99077540D01*
X89284408Y-99113455D01*
X89315801Y-99156813D01*
X89366549Y-99212751D01*
X89441813Y-99286405D01*
X89546754Y-99382911D01*
X89686530Y-99507406D01*
X89793335Y-99601238D01*
X89893605Y-99689032D01*
X89756026Y-99876405D01*
X89688335Y-99963069D01*
X89629511Y-100028484D01*
X89589660Y-100061718D01*
X89582887Y-100063778D01*
X89546386Y-100043239D01*
X89491474Y-99990618D01*
X89454275Y-99947251D01*
X89380167Y-99864959D01*
X89292356Y-99782727D01*
X89203708Y-99710960D01*
X89127090Y-99660065D01*
X89075366Y-99640447D01*
X89074942Y-99640444D01*
X89042463Y-99655956D01*
X89050939Y-99698655D01*
X89095487Y-99762789D01*
X89171228Y-99842605D01*
X89273278Y-99932351D01*
X89396758Y-100026273D01*
X89410611Y-100036034D01*
X89482743Y-100088721D01*
X89531408Y-100128555D01*
X89544667Y-100143951D01*
X89524752Y-100180330D01*
X89480468Y-100225269D01*
X89435005Y-100256929D01*
X89420348Y-100261025D01*
X89384311Y-100248750D01*
X89309241Y-100215580D01*
X89206208Y-100166615D01*
X89089527Y-100108603D01*
X88854371Y-99999613D01*
X88656090Y-99930540D01*
X88492012Y-99901026D01*
X88359466Y-99910713D01*
X88255782Y-99959242D01*
X88219549Y-99991810D01*
X88167410Y-100067439D01*
X88137424Y-100143527D01*
X88119445Y-100226964D01*
X87933111Y-100143466D01*
X87746778Y-100059968D01*
X87899920Y-99831172D01*
X88014148Y-99646114D01*
X88136472Y-99422963D01*
X88258974Y-99177749D01*
X88373736Y-98926502D01*
X88472839Y-98685255D01*
X88494894Y-98626608D01*
X88543115Y-98497790D01*
X88579320Y-98411614D01*
X88610424Y-98357550D01*
X88643342Y-98325063D01*
X88684987Y-98303621D01*
X88714064Y-98292739D01*
X88847423Y-98268202D01*
X89011336Y-98273092D01*
X89190560Y-98303842D01*
X89369849Y-98356887D01*
X89533960Y-98428661D01*
X89667649Y-98515599D01*
X89667971Y-98515864D01*
X89745735Y-98593384D01*
X89837795Y-98705829D01*
X89932469Y-98838012D01*
X90008780Y-98958799D01*
X90009485Y-98974079D01*
X91534102Y-98974079D01*
X91554993Y-98779666D01*
X92095710Y-98771174D01*
X92269023Y-98769764D01*
X92426508Y-98770940D01*
X92558058Y-98774432D01*
X92653565Y-98779969D01*
X92702920Y-98787282D01*
X92703286Y-98787414D01*
X92736681Y-98802775D01*
X92740293Y-98820286D01*
X92708120Y-98848459D01*
X92634163Y-98895806D01*
X92621305Y-98903729D01*
X92534155Y-98964307D01*
X92499619Y-99005502D01*
X92516971Y-99026388D01*
X92585485Y-99026038D01*
X92700349Y-99004483D01*
X92866541Y-98957654D01*
X92982755Y-98905110D01*
X93055413Y-98843474D01*
X93078743Y-98805335D01*
X93095459Y-98745391D01*
X93072078Y-98697301D01*
X93054904Y-98679027D01*
X92977114Y-98633463D01*
X92854012Y-98600860D01*
X92695328Y-98581685D01*
X92510793Y-98576404D01*
X92310139Y-98585483D01*
X92103097Y-98609390D01*
X91994293Y-98628194D01*
X91876812Y-98642649D01*
X91756666Y-98644641D01*
X91702283Y-98639823D01*
X91623314Y-98625009D01*
X91588106Y-98606172D01*
X91584181Y-98574477D01*
X91587863Y-98558805D01*
X91596799Y-98509978D01*
X91610259Y-98416590D01*
X91626705Y-98290199D01*
X91644597Y-98142363D01*
X91652912Y-98070142D01*
X91672426Y-97885192D01*
X91683758Y-97735433D01*
X91687239Y-97600257D01*
X91683198Y-97459056D01*
X91671966Y-97291222D01*
X91666489Y-97223476D01*
X91579056Y-96438711D01*
X91445805Y-95645516D01*
X91304627Y-95011748D01*
X88955801Y-95011748D01*
X88896152Y-95653868D01*
X88874282Y-95875646D01*
X88846674Y-96134653D01*
X88815448Y-96412223D01*
X88782723Y-96689689D01*
X88750618Y-96948384D01*
X88739029Y-97037826D01*
X88713009Y-97236974D01*
X88689607Y-97418231D01*
X88669793Y-97573916D01*
X88654534Y-97696347D01*
X88644802Y-97777843D01*
X88641556Y-97810399D01*
X88634443Y-97825601D01*
X88611096Y-97813587D01*
X88568498Y-97770896D01*
X88503635Y-97694068D01*
X88413491Y-97579642D01*
X88295052Y-97424160D01*
X88232891Y-97341440D01*
X88103057Y-97170755D01*
X87956137Y-96981848D01*
X87806496Y-96792939D01*
X87668503Y-96622246D01*
X87607950Y-96548929D01*
X87496681Y-96415280D01*
X87389337Y-96285945D01*
X87294899Y-96171773D01*
X87222347Y-96083611D01*
X87193277Y-96047984D01*
X87129926Y-95977236D01*
X87075300Y-95929039D01*
X87046776Y-95915111D01*
X87000204Y-95898119D01*
X86989203Y-95844594D01*
X87013215Y-95750712D01*
X87020068Y-95732215D01*
X87053555Y-95584647D01*
X87033384Y-95452086D01*
X86958367Y-95329058D01*
X86924715Y-95292919D01*
X86857109Y-95230955D01*
X86799767Y-95187307D01*
X86778891Y-95176284D01*
X86760959Y-95158545D01*
X86777253Y-95121002D01*
X86826866Y-95059665D01*
X86887323Y-94980770D01*
X86966801Y-94862464D01*
X87058778Y-94715669D01*
X87156732Y-94551309D01*
X87254142Y-94380306D01*
X87344486Y-94213584D01*
X87415684Y-94073515D01*
X87468907Y-93952731D01*
X87534078Y-93785803D01*
X87608290Y-93581040D01*
X87688638Y-93346754D01*
X87772214Y-93091253D01*
X87856113Y-92822850D01*
X87876304Y-92756344D01*
X87888699Y-92729864D01*
X87904216Y-92735687D01*
X87926999Y-92780269D01*
X87961194Y-92870064D01*
X87975989Y-92911566D01*
X88022757Y-93035004D01*
X88088745Y-93196790D01*
X88169628Y-93387344D01*
X88261078Y-93597087D01*
X88358769Y-93816439D01*
X88458375Y-94035819D01*
X88555568Y-94245648D01*
X88646024Y-94436347D01*
X88725414Y-94598335D01*
X88789413Y-94722032D01*
X88811797Y-94762232D01*
X88955801Y-95011748D01*
X91304627Y-95011748D01*
X91265136Y-94834470D01*
X91253053Y-94786222D01*
X91138126Y-94290840D01*
X91032175Y-93756167D01*
X90938110Y-93199027D01*
X90858844Y-92636247D01*
X90813540Y-92246222D01*
X90799478Y-92137366D01*
X90776041Y-91984232D01*
X90745108Y-91797849D01*
X90708558Y-91589250D01*
X90668269Y-91369467D01*
X90630866Y-91173778D01*
X90586251Y-90936950D01*
X90541870Y-90686476D01*
X90500131Y-90437048D01*
X90463444Y-90203364D01*
X90434217Y-90000116D01*
X90419680Y-89885479D01*
X90399608Y-89706779D01*
X90385357Y-89557619D01*
X90376535Y-89423800D01*
X90372750Y-89291121D01*
X90373609Y-89145383D01*
X90378719Y-88972386D01*
X90387689Y-88757930D01*
X90388209Y-88746376D01*
X90396829Y-88564415D01*
X90405307Y-88402294D01*
X90413150Y-88268193D01*
X90419864Y-88170292D01*
X90424956Y-88116773D01*
X90426645Y-88109281D01*
X90445787Y-88125952D01*
X90487135Y-88179325D01*
X90542422Y-88258589D01*
X90553181Y-88274718D01*
X90622244Y-88369906D01*
X90716788Y-88488166D01*
X90822730Y-88612312D01*
X90898017Y-88695540D01*
X91080970Y-88873351D01*
X91252717Y-88999113D01*
X91419033Y-89074605D01*
X91585696Y-89101606D01*
X91758483Y-89081897D01*
X91942850Y-89017401D01*
X92021460Y-88976855D01*
X92132643Y-88912448D01*
X92267193Y-88830216D01*
X92415902Y-88736197D01*
X92569563Y-88636427D01*
X92718971Y-88536943D01*
X92854919Y-88443781D01*
X92968199Y-88362978D01*
X93049606Y-88300571D01*
X93085221Y-88268363D01*
X93135466Y-88223212D01*
X93168306Y-88212219D01*
X93173376Y-88238120D01*
X93170971Y-88245722D01*
X93162714Y-88284162D01*
X93147747Y-88368506D01*
X93127727Y-88488836D01*
X93104314Y-88635234D01*
X93084819Y-88760778D01*
X92999618Y-89273460D01*
X92901553Y-89787800D01*
X92793428Y-90291189D01*
X92678047Y-90771018D01*
X92558212Y-91214676D01*
X92484385Y-91461324D01*
X92444000Y-91592689D01*
X92414996Y-91697029D01*
X92395353Y-91788762D01*
X92383052Y-91882305D01*
X92376073Y-91992077D01*
X92372398Y-92132494D01*
X92370504Y-92274444D01*
X92365137Y-92740111D01*
X92531681Y-93219889D01*
X92600716Y-93417389D01*
X92678160Y-93636715D01*
X92756194Y-93855850D01*
X92826997Y-94052777D01*
X92852489Y-94123000D01*
X92901582Y-94258916D01*
X92965313Y-94437186D01*
X93039798Y-94646844D01*
X93121155Y-94876925D01*
X93205499Y-95116463D01*
X93288947Y-95354494D01*
X93312266Y-95421222D01*
X93447701Y-95803513D01*
X93582484Y-96171961D01*
X93721749Y-96539936D01*
X93870628Y-96920810D01*
X94034252Y-97327952D01*
X94188389Y-97703766D01*
X94224398Y-97795899D01*
X94274853Y-97932116D01*
X94336384Y-98102943D01*
X94405617Y-98298907D01*
X94479182Y-98510533D01*
X94553706Y-98728349D01*
X94566694Y-98766689D01*
X94841455Y-99579067D01*
X94655450Y-99609238D01*
X94463434Y-99637845D01*
X94226588Y-99668974D01*
X93956394Y-99701262D01*
X93664333Y-99733342D01*
X93361887Y-99763852D01*
X93325791Y-99767309D01*
X93127681Y-99786656D01*
X92978922Y-99802721D01*
X92872612Y-99816836D01*
X92801848Y-99830337D01*
X92759725Y-99844558D01*
X92739340Y-99860832D01*
X92733790Y-99880494D01*
X92733778Y-99881723D01*
X92741904Y-99907115D01*
X92770343Y-99925842D01*
X92825188Y-99938414D01*
X92912534Y-99945339D01*
X93038473Y-99947128D01*
X93209098Y-99944289D01*
X93408391Y-99938112D01*
X93714018Y-99925915D01*
X93969099Y-99912027D01*
X94179529Y-99895592D01*
X94351199Y-99875753D01*
X94490004Y-99851655D01*
X94601837Y-99822443D01*
X94692590Y-99787260D01*
X94768157Y-99745251D01*
X94776979Y-99739375D01*
X94841858Y-99698044D01*
X94875981Y-99687876D01*
X94893882Y-99706347D01*
X94898690Y-99718253D01*
X94916835Y-99763613D01*
X94951721Y-99847739D01*
X94997873Y-99957510D01*
X95036968Y-100049666D01*
X95083999Y-100165526D01*
X95118710Y-100261706D01*
X95137299Y-100326910D01*
X95137851Y-100349332D01*
X97134277Y-100349332D01*
X97182254Y-100272489D01*
X97268889Y-100175672D01*
X97347569Y-100114583D01*
X97396447Y-100094442D01*
X97412656Y-100115956D01*
X97407960Y-100141389D01*
X97390283Y-100245252D01*
X97390956Y-100358377D01*
X97407152Y-100466885D01*
X97436041Y-100556901D01*
X97474798Y-100614548D01*
X97507178Y-100628222D01*
X97550731Y-100641132D01*
X97632336Y-100676168D01*
X97740844Y-100727787D01*
X97865109Y-100790448D01*
X97993982Y-100858607D01*
X98116317Y-100926722D01*
X98166556Y-100956056D01*
X98262013Y-101009636D01*
X98394346Y-101079558D01*
X98549208Y-101158453D01*
X98712252Y-101238954D01*
X98794326Y-101278441D01*
X99224540Y-101483355D01*
X100107390Y-101483355D01*
X100112557Y-101431035D01*
X100123345Y-101290637D01*
X100134496Y-101117875D01*
X100145458Y-100920764D01*
X100155683Y-100707320D01*
X100158000Y-100653770D01*
X100193354Y-99818540D01*
X100319682Y-99738618D01*
X100452813Y-99625588D01*
X100560222Y-99478085D01*
X100635405Y-99310522D01*
X100671857Y-99137311D01*
X100663771Y-98976145D01*
X100627625Y-98800564D01*
X100602640Y-98669080D01*
X100588050Y-98570621D01*
X100583089Y-98494113D01*
X100586989Y-98428486D01*
X100598985Y-98362666D01*
X100616454Y-98292649D01*
X100642659Y-98214293D01*
X100689809Y-98095035D01*
X100753739Y-97944526D01*
X100830283Y-97772413D01*
X100915275Y-97588347D01*
X100972023Y-97469052D01*
X101119364Y-97161317D01*
X101244880Y-96894745D01*
X101352410Y-96660231D01*
X101445795Y-96448666D01*
X101528876Y-96250944D01*
X101605491Y-96057955D01*
X101679483Y-95860594D01*
X101706569Y-95784658D01*
X98514365Y-95784658D01*
X98503518Y-95839638D01*
X98470861Y-95921095D01*
X98414075Y-96036063D01*
X98330839Y-96191570D01*
X98319192Y-96212870D01*
X98154041Y-96524658D01*
X98020768Y-96799716D01*
X97916141Y-97045507D01*
X97836925Y-97269494D01*
X97791150Y-97432055D01*
X97760910Y-97550571D01*
X97735240Y-97645589D01*
X97717284Y-97705802D01*
X97710682Y-97721333D01*
X97689016Y-97702377D01*
X97634001Y-97649714D01*
X97552098Y-97569657D01*
X97449766Y-97468516D01*
X97341709Y-97360849D01*
X97097589Y-97102727D01*
X96880315Y-96844733D01*
X96696507Y-96595415D01*
X96552785Y-96363325D01*
X96517355Y-96296111D01*
X96471966Y-96188648D01*
X96425334Y-96050189D01*
X96385505Y-95905413D01*
X96375039Y-95859587D01*
X96346672Y-95740313D01*
X96317648Y-95640206D01*
X96292346Y-95573487D01*
X96281570Y-95556141D01*
X96233333Y-95526489D01*
X96154653Y-95494580D01*
X96119670Y-95483508D01*
X96040797Y-95455995D01*
X96000334Y-95422558D01*
X95981239Y-95366731D01*
X95977627Y-95346243D01*
X95973528Y-95267470D01*
X95977573Y-95143872D01*
X95988552Y-94986288D01*
X96005255Y-94805558D01*
X96026472Y-94612519D01*
X96050995Y-94418012D01*
X96077614Y-94232876D01*
X96105119Y-94067950D01*
X96132301Y-93934072D01*
X96137751Y-93911333D01*
X96180195Y-93754402D01*
X96231492Y-93585415D01*
X96283126Y-93431813D01*
X96304168Y-93375111D01*
X96347626Y-93262012D01*
X96384577Y-93164293D01*
X96409238Y-93097313D01*
X96414556Y-93081991D01*
X96420944Y-93060177D01*
X96428200Y-93047001D01*
X96442820Y-93046794D01*
X96471303Y-93063891D01*
X96520146Y-93102623D01*
X96595848Y-93167324D01*
X96704907Y-93262326D01*
X96769556Y-93318693D01*
X96864329Y-93403505D01*
X96988758Y-93518189D01*
X97132377Y-93652915D01*
X97284721Y-93797853D01*
X97435323Y-93943172D01*
X97461000Y-93968183D01*
X97681802Y-94181340D01*
X97868513Y-94356416D01*
X98025210Y-94496912D01*
X98155967Y-94606333D01*
X98264861Y-94688182D01*
X98355967Y-94745963D01*
X98382094Y-94759975D01*
X98494844Y-94817496D01*
X98426242Y-94871458D01*
X98351501Y-94953821D01*
X98309211Y-95062720D01*
X98296484Y-95207802D01*
X98300025Y-95293089D01*
X98323125Y-95442137D01*
X98366690Y-95574273D01*
X98424926Y-95675557D01*
X98479918Y-95726013D01*
X98505725Y-95749127D01*
X98514365Y-95784658D01*
X101706569Y-95784658D01*
X101754690Y-95649753D01*
X101824068Y-95448357D01*
X101906536Y-95202603D01*
X101970144Y-95002155D01*
X102015822Y-94839456D01*
X102044501Y-94706952D01*
X102057113Y-94597086D01*
X102054589Y-94502303D01*
X102037860Y-94415048D01*
X102007857Y-94327764D01*
X101972135Y-94246891D01*
X101904091Y-94129095D01*
X101793425Y-93974485D01*
X101640219Y-93783159D01*
X101444554Y-93555216D01*
X101206509Y-93290754D01*
X101036280Y-93107000D01*
X100813159Y-92856040D01*
X100574722Y-92565666D01*
X100329546Y-92247602D01*
X100086209Y-91913570D01*
X99853289Y-91575294D01*
X99639364Y-91244498D01*
X99480440Y-90980672D01*
X99402553Y-90850867D01*
X99313374Y-90709223D01*
X99232125Y-90586263D01*
X99231643Y-90585561D01*
X99112095Y-90419384D01*
X99008791Y-90297596D01*
X98913012Y-90213960D01*
X98816041Y-90162239D01*
X98709161Y-90136197D01*
X98594238Y-90129555D01*
X98493920Y-90124096D01*
X98433387Y-90104768D01*
X98402831Y-90076190D01*
X98361594Y-90023369D01*
X98291072Y-89937198D01*
X98199051Y-89826893D01*
X98093320Y-89701669D01*
X97981664Y-89570739D01*
X97871871Y-89443319D01*
X97771727Y-89328622D01*
X97756275Y-89311111D01*
X97672132Y-89212775D01*
X97565323Y-89083262D01*
X97447125Y-88936493D01*
X97328814Y-88786389D01*
X97276219Y-88718444D01*
X97154643Y-88567132D01*
X97006304Y-88393038D01*
X96845396Y-88212222D01*
X96686111Y-88040741D01*
X96587145Y-87938845D01*
X96439267Y-87791770D01*
X96320580Y-87678584D01*
X96221962Y-87591725D01*
X96134293Y-87523633D01*
X96048452Y-87466744D01*
X95955316Y-87413498D01*
X95949945Y-87410603D01*
X95771699Y-87322192D01*
X95727904Y-87305460D01*
X93467556Y-87305460D01*
X93456641Y-87340521D01*
X93427920Y-87411826D01*
X93387424Y-87504457D01*
X93384154Y-87511687D01*
X93335462Y-87627902D01*
X93292258Y-87746161D01*
X93267250Y-87828675D01*
X93235686Y-87919740D01*
X93185155Y-87989113D01*
X93103707Y-88056505D01*
X93012525Y-88119768D01*
X92888415Y-88201375D01*
X92740740Y-88295607D01*
X92578863Y-88396747D01*
X92412147Y-88499076D01*
X92249956Y-88596876D01*
X92101651Y-88684427D01*
X91976596Y-88756013D01*
X91884154Y-88805914D01*
X91849365Y-88822584D01*
X91686260Y-88871904D01*
X91522111Y-88884191D01*
X91375076Y-88858746D01*
X91334256Y-88842356D01*
X91260824Y-88793413D01*
X91163001Y-88708216D01*
X91049552Y-88596191D01*
X90929239Y-88466765D01*
X90810827Y-88329367D01*
X90703078Y-88193424D01*
X90614756Y-88068362D01*
X90614715Y-88068298D01*
X90543820Y-87955911D01*
X90500008Y-87874874D01*
X90477515Y-87810632D01*
X90470575Y-87748633D01*
X90471469Y-87706653D01*
X90481555Y-87574514D01*
X90499680Y-87485247D01*
X90531043Y-87425352D01*
X90580842Y-87381330D01*
X90601811Y-87368218D01*
X90695655Y-87312849D01*
X90771909Y-87492269D01*
X90832499Y-87619441D01*
X90885228Y-87698821D01*
X90927993Y-87727690D01*
X90947883Y-87719747D01*
X90956211Y-87678795D01*
X90951232Y-87594821D01*
X90935036Y-87479105D01*
X90909716Y-87342928D01*
X90877366Y-87197569D01*
X90840077Y-87054310D01*
X90800843Y-86927068D01*
X90762428Y-86810474D01*
X90733480Y-86715290D01*
X90717356Y-86653041D01*
X90715753Y-86634840D01*
X90744563Y-86640093D01*
X90817883Y-86661300D01*
X90926967Y-86695712D01*
X91063068Y-86740580D01*
X91196484Y-86785925D01*
X91666475Y-86947750D01*
X92023738Y-86932914D01*
X92267244Y-86914909D01*
X92472981Y-86880464D01*
X92658250Y-86825521D01*
X92840349Y-86746026D01*
X92857206Y-86737512D01*
X92966904Y-86681548D01*
X92947755Y-86757844D01*
X92918836Y-86887527D01*
X92906651Y-86992988D01*
X92909027Y-87103192D01*
X92916097Y-87179552D01*
X92932471Y-87289779D01*
X92953328Y-87349154D01*
X92975376Y-87363778D01*
X93010972Y-87339694D01*
X93032850Y-87292360D01*
X93061262Y-87238710D01*
X93096887Y-87233604D01*
X93149412Y-87243667D01*
X93235945Y-87256202D01*
X93305278Y-87264719D01*
X93392354Y-87278125D01*
X93451254Y-87293899D01*
X93467556Y-87305460D01*
X95727904Y-87305460D01*
X95606766Y-87259180D01*
X95438715Y-87217730D01*
X95251115Y-87194006D01*
X95027534Y-87184170D01*
X94977445Y-87183536D01*
X94818667Y-87183418D01*
X94661169Y-87185492D01*
X94523637Y-87189386D01*
X94428361Y-87194444D01*
X94246166Y-87208555D01*
X94219517Y-87116311D01*
X94208651Y-87068947D01*
X94213096Y-87030403D01*
X94240023Y-86988478D01*
X94296605Y-86930970D01*
X94365617Y-86867738D01*
X94462197Y-86773362D01*
X94573798Y-86653716D01*
X94681929Y-86528947D01*
X94723471Y-86477833D01*
X94809734Y-86373051D01*
X94892678Y-86279345D01*
X94960620Y-86209581D01*
X94990642Y-86183582D01*
X95045655Y-86145804D01*
X95072520Y-86141491D01*
X95087326Y-86169048D01*
X95088874Y-86173846D01*
X95123665Y-86233662D01*
X95187338Y-86303638D01*
X95268156Y-86374914D01*
X95354376Y-86438632D01*
X95434260Y-86485933D01*
X95496067Y-86507959D01*
X95523938Y-86502136D01*
X95531445Y-86469738D01*
X95540717Y-86392928D01*
X95550505Y-86283663D01*
X95558521Y-86170720D01*
X95581987Y-85946021D01*
X95625660Y-85680187D01*
X95687425Y-85383928D01*
X95765172Y-85067956D01*
X95804707Y-84922555D01*
X95849156Y-84796091D01*
X95912579Y-84654261D01*
X95981265Y-84527720D01*
X95981434Y-84527444D01*
X96048961Y-84409951D01*
X96125493Y-84265064D01*
X96198192Y-84117434D01*
X96223937Y-84061778D01*
X96285758Y-83930969D01*
X96337094Y-83840099D01*
X96386925Y-83776126D01*
X96444231Y-83726006D01*
X96465564Y-83710797D01*
X96674393Y-83556766D01*
X96901975Y-83370593D01*
X97139820Y-83160667D01*
X97379437Y-82935373D01*
X97612333Y-82703099D01*
X97830016Y-82472231D01*
X98023996Y-82251157D01*
X98185781Y-82048263D01*
X98271873Y-81926766D01*
X98391887Y-81732963D01*
X98476289Y-81562502D01*
X98530772Y-81400252D01*
X98561023Y-81231081D01*
X98568994Y-81136603D01*
X98569791Y-81116391D01*
X98329583Y-81116391D01*
X98325883Y-81226782D01*
X98312784Y-81315802D01*
X98284804Y-81404742D01*
X98236465Y-81514895D01*
X98216015Y-81557659D01*
X98146883Y-81689317D01*
X98066155Y-81826206D01*
X97989384Y-81942205D01*
X97976908Y-81959222D01*
X97820713Y-82154095D01*
X97630251Y-82369873D01*
X97417120Y-82594558D01*
X97192917Y-82816155D01*
X96969239Y-83022668D01*
X96844345Y-83130781D01*
X96718043Y-83236947D01*
X96607657Y-83329446D01*
X96520009Y-83402587D01*
X96461919Y-83450677D01*
X96440220Y-83468023D01*
X96443471Y-83444946D01*
X96457724Y-83387022D01*
X96460312Y-83377389D01*
X96482658Y-83282702D01*
X96511651Y-83141266D01*
X96545768Y-82962181D01*
X96583485Y-82754548D01*
X96623279Y-82527468D01*
X96663627Y-82290041D01*
X96703006Y-82051368D01*
X96739893Y-81820550D01*
X96772764Y-81606687D01*
X96800097Y-81418880D01*
X96820367Y-81266230D01*
X96832052Y-81157837D01*
X96832293Y-81154889D01*
X96849044Y-80974023D01*
X96870306Y-80838597D01*
X96902455Y-80737639D01*
X96951871Y-80660175D01*
X97024929Y-80595233D01*
X97128009Y-80531839D01*
X97223800Y-80481300D01*
X97355931Y-80418162D01*
X97458546Y-80381582D01*
X97548648Y-80366152D01*
X97590503Y-80364666D01*
X97761894Y-80390932D01*
X97932176Y-80464382D01*
X98088475Y-80576996D01*
X98217920Y-80720753D01*
X98255826Y-80779198D01*
X98297082Y-80859229D01*
X98319768Y-80936165D01*
X98328765Y-81032330D01*
X98329583Y-81116391D01*
X98569791Y-81116391D01*
X98573870Y-81012968D01*
X98568859Y-80923703D01*
X98550687Y-80847123D01*
X98516083Y-80761543D01*
X98510584Y-80749449D01*
X98449996Y-80641016D01*
X98368475Y-80524713D01*
X98306258Y-80450747D01*
X98216793Y-80369126D01*
X98106317Y-80288419D01*
X97989633Y-80217433D01*
X97881541Y-80164981D01*
X97796844Y-80139870D01*
X97782300Y-80138889D01*
X97752679Y-80134584D01*
X97745759Y-80112225D01*
X97760531Y-80057643D01*
X97773801Y-80019322D01*
X97779349Y-80001084D01*
X96722014Y-80001084D01*
X96719024Y-80069131D01*
X96701323Y-80105099D01*
X96652623Y-80135086D01*
X96561920Y-80165181D01*
X96529688Y-80173882D01*
X96404777Y-80213404D01*
X96246185Y-80273455D01*
X96069589Y-80347179D01*
X95890664Y-80427723D01*
X95725089Y-80508234D01*
X95588540Y-80581857D01*
X95566042Y-80595182D01*
X95472589Y-80655240D01*
X95354385Y-80736233D01*
X95231237Y-80824448D01*
X95179846Y-80862574D01*
X94949222Y-81035926D01*
X94904725Y-80919019D01*
X94866398Y-80817490D01*
X94823721Y-80703286D01*
X94810221Y-80666883D01*
X94768344Y-80579070D01*
X94718880Y-80509849D01*
X94696010Y-80489587D01*
X94622864Y-80457919D01*
X94526278Y-80436057D01*
X94426539Y-80426264D01*
X94343932Y-80430801D01*
X94304231Y-80445914D01*
X94275384Y-80458130D01*
X94256577Y-80428022D01*
X94246644Y-80386286D01*
X94222171Y-80318468D01*
X94174293Y-80223561D01*
X94112601Y-80120267D01*
X94101690Y-80103611D01*
X93975106Y-79913111D01*
X94089848Y-79913111D01*
X94166553Y-79918968D01*
X94277716Y-79934589D01*
X94408370Y-79957047D01*
X94543543Y-79983416D01*
X94668265Y-80010770D01*
X94767568Y-80036183D01*
X94826480Y-80056729D01*
X94827637Y-80057329D01*
X94857855Y-80094913D01*
X94896986Y-80173742D01*
X94938846Y-80280671D01*
X94954637Y-80327337D01*
X95003029Y-80463322D01*
X95043338Y-80550383D01*
X95073838Y-80587473D01*
X95092807Y-80573543D01*
X95098520Y-80507545D01*
X95091772Y-80410707D01*
X95085390Y-80248212D01*
X95104224Y-80125527D01*
X95105359Y-80122008D01*
X95121231Y-80061283D01*
X95117598Y-80015281D01*
X95087088Y-79977678D01*
X95022326Y-79942152D01*
X94915937Y-79902380D01*
X94808111Y-79867148D01*
X94554111Y-79786111D01*
X93806222Y-79788781D01*
X93549866Y-79790486D01*
X93340570Y-79794413D01*
X93168959Y-79801813D01*
X93025657Y-79813935D01*
X92901289Y-79832031D01*
X92786479Y-79857351D01*
X92671851Y-79891145D01*
X92548029Y-79934663D01*
X92458969Y-79968450D01*
X92308871Y-80032264D01*
X92172247Y-80101236D01*
X92055577Y-80170715D01*
X91965342Y-80236054D01*
X91908021Y-80292603D01*
X91890096Y-80335713D01*
X91913894Y-80359483D01*
X91931560Y-80386049D01*
X91927955Y-80395299D01*
X91930657Y-80417090D01*
X91963878Y-80418901D01*
X92005740Y-80401738D01*
X92018707Y-80391115D01*
X92039662Y-80391054D01*
X92057019Y-80440300D01*
X92068312Y-80508947D01*
X92088505Y-80605289D01*
X92126875Y-80740714D01*
X92178999Y-80902584D01*
X92240453Y-81078261D01*
X92306812Y-81255105D01*
X92373652Y-81420479D01*
X92436549Y-81561744D01*
X92437676Y-81564111D01*
X92496362Y-81673647D01*
X92561163Y-81774044D01*
X92618457Y-81844282D01*
X92620573Y-81846333D01*
X92709234Y-81931000D01*
X93651000Y-81931000D01*
X94017889Y-81804000D01*
X94171354Y-81749334D01*
X94278193Y-81707011D01*
X94345908Y-81673368D01*
X94382001Y-81644742D01*
X94393600Y-81620555D01*
X94407936Y-81489730D01*
X94231029Y-81489730D01*
X94209321Y-81552815D01*
X94153999Y-81596553D01*
X94100367Y-81606444D01*
X94035140Y-81588773D01*
X94005067Y-81565664D01*
X93974273Y-81494644D01*
X93987912Y-81427592D01*
X94034874Y-81378503D01*
X94104045Y-81361375D01*
X94156809Y-81374533D01*
X94214924Y-81424551D01*
X94231029Y-81489730D01*
X94407936Y-81489730D01*
X94416747Y-81409327D01*
X94415020Y-81210103D01*
X94387590Y-80996792D01*
X94371091Y-80910684D01*
X94344400Y-80783549D01*
X94320202Y-80674023D01*
X94303042Y-80601894D01*
X92809707Y-80601894D01*
X92806645Y-80727384D01*
X92786196Y-80844569D01*
X92750869Y-80934152D01*
X92731457Y-80959654D01*
X92654381Y-81001956D01*
X92550192Y-81016754D01*
X92440782Y-81004558D01*
X92348042Y-80965875D01*
X92327945Y-80950278D01*
X92289255Y-80895532D01*
X92243665Y-80802246D01*
X92197208Y-80686818D01*
X92155921Y-80565652D01*
X92125837Y-80455146D01*
X92112993Y-80371702D01*
X92112889Y-80365843D01*
X92129474Y-80330403D01*
X92184015Y-80290957D01*
X92283691Y-80242723D01*
X92322594Y-80226189D01*
X92424452Y-80185253D01*
X92507428Y-80154606D01*
X92556876Y-80139579D01*
X92562306Y-80138889D01*
X92600639Y-80162230D01*
X92652288Y-80222512D01*
X92707583Y-80305122D01*
X92756858Y-80395447D01*
X92790445Y-80478875D01*
X92792872Y-80487394D01*
X92809707Y-80601894D01*
X94303042Y-80601894D01*
X94301600Y-80595834D01*
X94293190Y-80566019D01*
X94286219Y-80537232D01*
X94305871Y-80546431D01*
X94332436Y-80568925D01*
X94400651Y-80614135D01*
X94476100Y-80648518D01*
X94514550Y-80665732D01*
X94546190Y-80693325D01*
X94576518Y-80740910D01*
X94611030Y-80818102D01*
X94655225Y-80934514D01*
X94682050Y-81008704D01*
X94732364Y-81158829D01*
X94777730Y-81312131D01*
X94812631Y-81448921D01*
X94829714Y-81535889D01*
X94859084Y-81733444D01*
X94727764Y-81975653D01*
X94651402Y-82124769D01*
X94608599Y-82229670D01*
X94599561Y-82291677D01*
X94624496Y-82312111D01*
X94683611Y-82292296D01*
X94769050Y-82239177D01*
X94887178Y-82132450D01*
X94989338Y-81994998D01*
X95046423Y-81879774D01*
X95065315Y-81792426D01*
X95074423Y-81671869D01*
X95073595Y-81540511D01*
X95062677Y-81420760D01*
X95049970Y-81359313D01*
X95037555Y-81298205D01*
X95041523Y-81268360D01*
X95043598Y-81267778D01*
X95075252Y-81254462D01*
X95143502Y-81218774D01*
X95236374Y-81167099D01*
X95288573Y-81137106D01*
X95495925Y-81017538D01*
X95670152Y-80919273D01*
X95826331Y-80834254D01*
X95979542Y-80754421D01*
X96144867Y-80671718D01*
X96309809Y-80591390D01*
X96719037Y-80393734D01*
X96699622Y-80654367D01*
X96663484Y-81034788D01*
X96612040Y-81427776D01*
X96549374Y-81803263D01*
X96530050Y-81902778D01*
X96500547Y-82052855D01*
X96464998Y-82238961D01*
X96427085Y-82441523D01*
X96390491Y-82640970D01*
X96375398Y-82724701D01*
X96326026Y-82990887D01*
X96280931Y-83211239D01*
X96237517Y-83395948D01*
X96193189Y-83555207D01*
X96145354Y-83699207D01*
X96092770Y-83834863D01*
X95932526Y-84182065D01*
X95753846Y-84494440D01*
X95561344Y-84764695D01*
X95373019Y-84972741D01*
X95257229Y-85072279D01*
X95096668Y-85192022D01*
X94897623Y-85328118D01*
X94666386Y-85476715D01*
X94409243Y-85633961D01*
X94132485Y-85796002D01*
X93842401Y-85958987D01*
X93545278Y-86119063D01*
X93270000Y-86261013D01*
X93025018Y-86383010D01*
X92820332Y-86480554D01*
X92646793Y-86556418D01*
X92495253Y-86613375D01*
X92356564Y-86654199D01*
X92221576Y-86681662D01*
X92081143Y-86698537D01*
X91926116Y-86707598D01*
X91785210Y-86711088D01*
X91682518Y-86711287D01*
X91602075Y-86705389D01*
X91527607Y-86689238D01*
X91442839Y-86658682D01*
X91331495Y-86609567D01*
X91263099Y-86577838D01*
X91025291Y-86475470D01*
X90752017Y-86374255D01*
X90438214Y-86272559D01*
X90078818Y-86168751D01*
X89668766Y-86061199D01*
X89629334Y-86051313D01*
X89528402Y-86023523D01*
X89385059Y-85980546D01*
X89210142Y-85925924D01*
X89014488Y-85863194D01*
X88808934Y-85795897D01*
X88604318Y-85727572D01*
X88411475Y-85661759D01*
X88241243Y-85601997D01*
X88133556Y-85562765D01*
X87990513Y-85503981D01*
X87878464Y-85446886D01*
X87808371Y-85397180D01*
X87801743Y-85390250D01*
X87738876Y-85301418D01*
X87662492Y-85164919D01*
X87575375Y-84987129D01*
X87480310Y-84774420D01*
X87471504Y-84753222D01*
X87286948Y-84753222D01*
X87102925Y-84555666D01*
X87000991Y-84441275D01*
X86895177Y-84314520D01*
X86804864Y-84198788D01*
X86787228Y-84174666D01*
X86586059Y-83911116D01*
X86363870Y-83654336D01*
X86265429Y-83548977D01*
X86133267Y-83388650D01*
X86029394Y-83218999D01*
X85961474Y-83054075D01*
X85939749Y-82951905D01*
X85945882Y-82834631D01*
X85996281Y-82745883D01*
X86094078Y-82682229D01*
X86220534Y-82644515D01*
X86321124Y-82627329D01*
X86395001Y-82627977D01*
X86469639Y-82648487D01*
X86514351Y-82666210D01*
X86646855Y-82721222D01*
X86711413Y-82975222D01*
X86750940Y-83121766D01*
X86796917Y-83278918D01*
X86840535Y-83416773D01*
X86847925Y-83438598D01*
X86880353Y-83538414D01*
X86901936Y-83615690D01*
X86908969Y-83656800D01*
X86908066Y-83659786D01*
X86885190Y-83645109D01*
X86830316Y-83596746D01*
X86750761Y-83521509D01*
X86653845Y-83426212D01*
X86612595Y-83384749D01*
X86509522Y-83283642D01*
X86419021Y-83200712D01*
X86348884Y-83142662D01*
X86306905Y-83116194D01*
X86299913Y-83115837D01*
X86273195Y-83152818D01*
X86278709Y-83213576D01*
X86318167Y-83301197D01*
X86393280Y-83418767D01*
X86505760Y-83569371D01*
X86650598Y-83748030D01*
X86748601Y-83863863D01*
X86845599Y-83975268D01*
X86929435Y-84068455D01*
X86981324Y-84123101D01*
X87049940Y-84200264D01*
X87103557Y-84275705D01*
X87121125Y-84309849D01*
X87146262Y-84375953D01*
X87182691Y-84472926D01*
X87218805Y-84569778D01*
X87286948Y-84753222D01*
X87471504Y-84753222D01*
X87380081Y-84533165D01*
X87277472Y-84269739D01*
X87175268Y-83990515D01*
X87116607Y-83821889D01*
X87052800Y-83641013D01*
X86983433Y-83454727D01*
X86914891Y-83279524D01*
X86853558Y-83131900D01*
X86823590Y-83064953D01*
X86770827Y-82949619D01*
X86728445Y-82852610D01*
X86701427Y-82785612D01*
X86694222Y-82761564D01*
X86714213Y-82736767D01*
X86759644Y-82738309D01*
X86808710Y-82761652D01*
X86834826Y-82790828D01*
X86879813Y-82830711D01*
X86962665Y-82871230D01*
X87065257Y-82905877D01*
X87169463Y-82928140D01*
X87230374Y-82932889D01*
X87276018Y-82940463D01*
X87311381Y-82971326D01*
X87347373Y-83037687D01*
X87369061Y-83088110D01*
X87420133Y-83187523D01*
X87479527Y-83268992D01*
X87512666Y-83299777D01*
X87607451Y-83343242D01*
X87712967Y-83356049D01*
X87808519Y-83338093D01*
X87863835Y-83301556D01*
X87895329Y-83243492D01*
X87881154Y-83200897D01*
X87834155Y-83186889D01*
X87734875Y-83159791D01*
X87645143Y-83082932D01*
X87572625Y-82962966D01*
X87570483Y-82958044D01*
X87537684Y-82867731D01*
X87502873Y-82748483D01*
X87468261Y-82611253D01*
X87436059Y-82466995D01*
X87408477Y-82326663D01*
X87387727Y-82201212D01*
X87376019Y-82101596D01*
X87375563Y-82038768D01*
X87381807Y-82023154D01*
X87461888Y-82002707D01*
X87555163Y-82027181D01*
X87609125Y-82061217D01*
X87662746Y-82098209D01*
X87694531Y-82110504D01*
X87696223Y-82109629D01*
X87687381Y-82082431D01*
X87654015Y-82019839D01*
X87602574Y-81933647D01*
X87582582Y-81901801D01*
X87524640Y-81807202D01*
X87480785Y-81729142D01*
X87458388Y-81680961D01*
X87456957Y-81674395D01*
X87480285Y-81651014D01*
X87541643Y-81612503D01*
X87627126Y-81565839D01*
X87722831Y-81518003D01*
X87814854Y-81475973D01*
X87889291Y-81446730D01*
X87929661Y-81437111D01*
X87951660Y-81446455D01*
X87969154Y-81480816D01*
X87984881Y-81549683D01*
X88001580Y-81662549D01*
X88007040Y-81705222D01*
X88031036Y-81830409D01*
X88073447Y-81985284D01*
X88130053Y-82159292D01*
X88196634Y-82341878D01*
X88268969Y-82522487D01*
X88342838Y-82690565D01*
X88414021Y-82835557D01*
X88478299Y-82946908D01*
X88529739Y-83012496D01*
X88556022Y-83034876D01*
X88585246Y-83050673D01*
X88626424Y-83060624D01*
X88688571Y-83065466D01*
X88780699Y-83065935D01*
X88911823Y-83062768D01*
X89076877Y-83057197D01*
X89260219Y-83049933D01*
X89398527Y-83041893D01*
X89503206Y-83031555D01*
X89585662Y-83017396D01*
X89657301Y-82997894D01*
X89729527Y-82971527D01*
X89734957Y-82969361D01*
X89826721Y-82930123D01*
X89895813Y-82895911D01*
X89926873Y-82874493D01*
X89936854Y-82835545D01*
X89948025Y-82758118D01*
X89956688Y-82672984D01*
X89956901Y-82668347D01*
X89708696Y-82668347D01*
X89684278Y-82723030D01*
X89627474Y-82753424D01*
X89550307Y-82755502D01*
X89479916Y-82731435D01*
X89451635Y-82704423D01*
X89435421Y-82636101D01*
X89452418Y-82561486D01*
X89494786Y-82506215D01*
X89515444Y-82495762D01*
X89591044Y-82495654D01*
X89655881Y-82534382D01*
X89698812Y-82596945D01*
X89708696Y-82668347D01*
X89956901Y-82668347D01*
X89960755Y-82584576D01*
X89955234Y-82499196D01*
X89937614Y-82401677D01*
X89905385Y-82276850D01*
X89872454Y-82163985D01*
X89814387Y-81975751D01*
X89763634Y-81828417D01*
X89713787Y-81708129D01*
X89709068Y-81698997D01*
X88576130Y-81698997D01*
X88563092Y-81787092D01*
X88560573Y-81793074D01*
X88531786Y-81840913D01*
X88510200Y-81851384D01*
X88510139Y-81851324D01*
X88480224Y-81855102D01*
X88451260Y-81877375D01*
X88388721Y-81903489D01*
X88299562Y-81896422D01*
X88201079Y-81858456D01*
X88170784Y-81840392D01*
X88122083Y-81783618D01*
X88085950Y-81681582D01*
X88076704Y-81639483D01*
X88057158Y-81543894D01*
X88040312Y-81466795D01*
X88032593Y-81435286D01*
X88041291Y-81403091D01*
X88091853Y-81372059D01*
X88171072Y-81343563D01*
X88293885Y-81309328D01*
X88377652Y-81299524D01*
X88434628Y-81315038D01*
X88477065Y-81356758D01*
X88483501Y-81366193D01*
X88532512Y-81467377D01*
X88564663Y-81585368D01*
X88576130Y-81698997D01*
X89709068Y-81698997D01*
X89658442Y-81601035D01*
X89591190Y-81493282D01*
X89505934Y-81371442D01*
X89425197Y-81254460D01*
X89379985Y-81174308D01*
X89368539Y-81125440D01*
X89389098Y-81102307D01*
X89419333Y-81098444D01*
X89461609Y-81090677D01*
X89457650Y-81071209D01*
X89414897Y-81045790D01*
X89340794Y-81020170D01*
X89307253Y-81011864D01*
X89169908Y-80995780D01*
X88989702Y-80997150D01*
X88777102Y-81014934D01*
X88542573Y-81048090D01*
X88296581Y-81095575D01*
X88169485Y-81125122D01*
X87955064Y-81184287D01*
X87756141Y-81251179D01*
X87579486Y-81322518D01*
X87431865Y-81395024D01*
X87320047Y-81465417D01*
X87250797Y-81530418D01*
X87230445Y-81580242D01*
X87239555Y-81620361D01*
X87253720Y-81623613D01*
X87278071Y-81638110D01*
X87314706Y-81690972D01*
X87338019Y-81734836D01*
X87399044Y-81860444D01*
X87316345Y-81860444D01*
X87231588Y-81885781D01*
X87170853Y-81953198D01*
X87145355Y-82049800D01*
X87145180Y-82057224D01*
X87149519Y-82114695D01*
X87161688Y-82212092D01*
X87179602Y-82333775D01*
X87193220Y-82417771D01*
X87214770Y-82564099D01*
X87223522Y-82668517D01*
X87219092Y-82725461D01*
X87214984Y-82732603D01*
X87177369Y-82733109D01*
X87097130Y-82709833D01*
X86981652Y-82665165D01*
X86907427Y-82633073D01*
X86793252Y-82581867D01*
X86700231Y-82539581D01*
X86639152Y-82511155D01*
X86620463Y-82501647D01*
X86623770Y-82473407D01*
X86638827Y-82406883D01*
X86656064Y-82340184D01*
X86681555Y-82166353D01*
X86677021Y-81953047D01*
X86643670Y-81707806D01*
X86582712Y-81438170D01*
X86495357Y-81151678D01*
X86441568Y-81002918D01*
X86391983Y-80871458D01*
X86360774Y-80782017D01*
X86346098Y-80723918D01*
X86346110Y-80686482D01*
X86358967Y-80659030D01*
X86378204Y-80636029D01*
X86712885Y-80242394D01*
X86997384Y-79862918D01*
X87234856Y-79493289D01*
X87304916Y-79370056D01*
X87357289Y-79276995D01*
X87395494Y-79213451D01*
X87414790Y-79187035D01*
X87414925Y-79193444D01*
X87396747Y-79234849D01*
X87354898Y-79319059D01*
X87288790Y-79447194D01*
X87197834Y-79620372D01*
X87081444Y-79839713D01*
X86939032Y-80106336D01*
X86777728Y-80407000D01*
X86731092Y-80499240D01*
X86693981Y-80582284D01*
X86680610Y-80618666D01*
X86646610Y-80694170D01*
X86615955Y-80738611D01*
X86593256Y-80775870D01*
X86601594Y-80788000D01*
X86658107Y-80773466D01*
X86752497Y-80733315D01*
X86875332Y-80672720D01*
X87017185Y-80596856D01*
X87168624Y-80510897D01*
X87320220Y-80420016D01*
X87462543Y-80329388D01*
X87565140Y-80259301D01*
X87744613Y-80131635D01*
X87942349Y-80164291D01*
X88066450Y-80189603D01*
X88215003Y-80226884D01*
X88359402Y-80268850D01*
X88383765Y-80276673D01*
X88537566Y-80323200D01*
X88671121Y-80356351D01*
X88776126Y-80374659D01*
X88844280Y-80376662D01*
X88867334Y-80361981D01*
X88890744Y-80339232D01*
X88916722Y-80334216D01*
X88945453Y-80328021D01*
X88927640Y-80316689D01*
X88904431Y-80298016D01*
X88924697Y-80279432D01*
X88950276Y-80250868D01*
X88937551Y-80217422D01*
X88882942Y-80176737D01*
X88782868Y-80126459D01*
X88633750Y-80064231D01*
X88546099Y-80030336D01*
X88407720Y-79978540D01*
X88287141Y-79934880D01*
X88194638Y-79902966D01*
X88140486Y-79886406D01*
X88131975Y-79884889D01*
X88110760Y-79878654D01*
X88115179Y-79856915D01*
X88149250Y-79815115D01*
X88216992Y-79748699D01*
X88322423Y-79653111D01*
X88385902Y-79597020D01*
X88665242Y-79332705D01*
X88872807Y-79108778D01*
X87456222Y-79108778D01*
X87442111Y-79122889D01*
X87428000Y-79108778D01*
X87442111Y-79094666D01*
X87456222Y-79108778D01*
X88872807Y-79108778D01*
X88935158Y-79041512D01*
X89186082Y-78735352D01*
X89319800Y-78549408D01*
X87670122Y-78549408D01*
X87654857Y-78608803D01*
X87625632Y-78695919D01*
X87587943Y-78797008D01*
X87547287Y-78898324D01*
X87509159Y-78986119D01*
X87479057Y-79046646D01*
X87463401Y-79066444D01*
X87461451Y-79045050D01*
X87470784Y-79017055D01*
X87489470Y-78969963D01*
X87522503Y-78884615D01*
X87564273Y-78775553D01*
X87587823Y-78713666D01*
X87626441Y-78616686D01*
X87654850Y-78554641D01*
X87669732Y-78534154D01*
X87670122Y-78549408D01*
X89319800Y-78549408D01*
X89408448Y-78426139D01*
X89592686Y-78125784D01*
X89642538Y-78032492D01*
X89689096Y-77944191D01*
X89724016Y-77882578D01*
X89741248Y-77858186D01*
X89742085Y-77859210D01*
X89730052Y-77909349D01*
X89696425Y-78000118D01*
X89645449Y-78121967D01*
X89581369Y-78265342D01*
X89508430Y-78420692D01*
X89430877Y-78578465D01*
X89368605Y-78699555D01*
X89242257Y-78940123D01*
X89140358Y-79135527D01*
X89060811Y-79290417D01*
X89001520Y-79409441D01*
X88960388Y-79497249D01*
X88935319Y-79558490D01*
X88924215Y-79597813D01*
X88924980Y-79619866D01*
X88935517Y-79629299D01*
X88948581Y-79630889D01*
X88975415Y-79609747D01*
X89026506Y-79553118D01*
X89092954Y-79471191D01*
X89128144Y-79425271D01*
X89226158Y-79303907D01*
X89341239Y-79174378D01*
X89450333Y-79062497D01*
X89462094Y-79051327D01*
X89684789Y-78838409D01*
X89875631Y-78646883D01*
X90047194Y-78463325D01*
X90212051Y-78274306D01*
X90372949Y-78078642D01*
X90581183Y-77810555D01*
X89770445Y-77810555D01*
X89756334Y-77824666D01*
X89742222Y-77810555D01*
X89756334Y-77796444D01*
X89770445Y-77810555D01*
X90581183Y-77810555D01*
X90626547Y-77752153D01*
X90841841Y-77449571D01*
X91025133Y-77160215D01*
X91182724Y-76873402D01*
X91320915Y-76578452D01*
X91446007Y-76264682D01*
X91450942Y-76251277D01*
X91495277Y-76134425D01*
X91533776Y-76040214D01*
X91561847Y-75979438D01*
X91573947Y-75962121D01*
X91593714Y-75985476D01*
X91631471Y-76047482D01*
X91680114Y-76136229D01*
X91695996Y-76166732D01*
X91847960Y-76411635D01*
X92052575Y-76660470D01*
X92306455Y-76910379D01*
X92606214Y-77158511D01*
X92948469Y-77402009D01*
X93329833Y-77638018D01*
X93647919Y-77812802D01*
X94009349Y-78001454D01*
X93699966Y-78162335D01*
X93431331Y-78311887D01*
X93164667Y-78478712D01*
X92909847Y-78655544D01*
X92676746Y-78835117D01*
X92475236Y-79010164D01*
X92315193Y-79173418D01*
X92296334Y-79195303D01*
X92239231Y-79264336D01*
X92211477Y-79303005D01*
X92215848Y-79310127D01*
X92255122Y-79284522D01*
X92332075Y-79225010D01*
X92449486Y-79130409D01*
X92450058Y-79129944D01*
X92545144Y-79055768D01*
X92600502Y-79019226D01*
X92615245Y-79019934D01*
X92588486Y-79057505D01*
X92519335Y-79131554D01*
X92499601Y-79151447D01*
X92432570Y-79223075D01*
X92388192Y-79279565D01*
X92375233Y-79309624D01*
X92375945Y-79310685D01*
X92404292Y-79302475D01*
X92462636Y-79264356D01*
X92539070Y-79204238D01*
X92549646Y-79195278D01*
X92639892Y-79120641D01*
X92689788Y-79085389D01*
X92699313Y-79089525D01*
X92668446Y-79133048D01*
X92617966Y-79192462D01*
X92572273Y-79250158D01*
X92553298Y-79286182D01*
X92557147Y-79292222D01*
X92593938Y-79273222D01*
X92637578Y-79232929D01*
X92696536Y-79180513D01*
X92793358Y-79108254D01*
X92916539Y-79023666D01*
X93054573Y-78934262D01*
X93195953Y-78847559D01*
X93292174Y-78792312D01*
X93152562Y-78792312D01*
X93145695Y-78808084D01*
X93117278Y-78838381D01*
X93100942Y-78832166D01*
X93100667Y-78828221D01*
X93120713Y-78804350D01*
X93133250Y-78795638D01*
X93152562Y-78792312D01*
X93292174Y-78792312D01*
X93329172Y-78771069D01*
X93410978Y-78727845D01*
X93519696Y-78675472D01*
X93663070Y-78609643D01*
X93823515Y-78538281D01*
X93983449Y-78469307D01*
X94004622Y-78460366D01*
X94039079Y-78445565D01*
X93823599Y-78445565D01*
X93807955Y-78457351D01*
X93752898Y-78488874D01*
X93669381Y-78534394D01*
X93568358Y-78588171D01*
X93460782Y-78644462D01*
X93357606Y-78697528D01*
X93269784Y-78741627D01*
X93208270Y-78771019D01*
X93185334Y-78780090D01*
X93193302Y-78767228D01*
X93227667Y-78737597D01*
X93274618Y-78707872D01*
X93355664Y-78663538D01*
X93457693Y-78611020D01*
X93567594Y-78556744D01*
X93672254Y-78507135D01*
X93758561Y-78468618D01*
X93813402Y-78447620D01*
X93823599Y-78445565D01*
X94039079Y-78445565D01*
X94082904Y-78426740D01*
X93909704Y-78426740D01*
X93905830Y-78443519D01*
X93890889Y-78445555D01*
X93867659Y-78435229D01*
X93872074Y-78426740D01*
X93905568Y-78423363D01*
X93909704Y-78426740D01*
X94082904Y-78426740D01*
X94137656Y-78403222D01*
X93975556Y-78403222D01*
X93961445Y-78417333D01*
X93947334Y-78403222D01*
X93961445Y-78389111D01*
X93975556Y-78403222D01*
X94137656Y-78403222D01*
X94140080Y-78402181D01*
X94200703Y-78375000D01*
X94060222Y-78375000D01*
X94046111Y-78389111D01*
X94032000Y-78375000D01*
X94046111Y-78360889D01*
X94060222Y-78375000D01*
X94200703Y-78375000D01*
X94256230Y-78350104D01*
X94343416Y-78308632D01*
X94391984Y-78282264D01*
X94398484Y-78276878D01*
X94427707Y-78262111D01*
X93862667Y-78262111D01*
X93848556Y-78276222D01*
X93834445Y-78262111D01*
X93848556Y-78248000D01*
X93862667Y-78262111D01*
X94427707Y-78262111D01*
X94431927Y-78259979D01*
X94504977Y-78239091D01*
X94529614Y-78233889D01*
X93919111Y-78233889D01*
X93905000Y-78248000D01*
X93890889Y-78233889D01*
X93905000Y-78219778D01*
X93919111Y-78233889D01*
X94529614Y-78233889D01*
X94596500Y-78219767D01*
X94729659Y-78192449D01*
X94809706Y-78167893D01*
X94839820Y-78144731D01*
X94823934Y-78122058D01*
X94781798Y-78109255D01*
X94159000Y-78109255D01*
X94155333Y-78120763D01*
X94112509Y-78149655D01*
X94088445Y-78163333D01*
X94018634Y-78197949D01*
X93968502Y-78216449D01*
X93961445Y-78217412D01*
X93965112Y-78205903D01*
X94007936Y-78177012D01*
X94032000Y-78163333D01*
X94101811Y-78128717D01*
X94151943Y-78110217D01*
X94159000Y-78109255D01*
X94781798Y-78109255D01*
X94773724Y-78106802D01*
X94698740Y-78098613D01*
X94695481Y-78098509D01*
X94635337Y-78094129D01*
X94634103Y-78092778D01*
X94229556Y-78092778D01*
X94215445Y-78106889D01*
X94201334Y-78092778D01*
X94215445Y-78078666D01*
X94229556Y-78092778D01*
X94634103Y-78092778D01*
X94623881Y-78081591D01*
X94648005Y-78058591D01*
X94673675Y-78034187D01*
X94656079Y-78029336D01*
X94610556Y-78036069D01*
X94573667Y-78039878D01*
X94588282Y-78028985D01*
X94605247Y-78022222D01*
X94398889Y-78022222D01*
X94388563Y-78045452D01*
X94380074Y-78041037D01*
X94376697Y-78007544D01*
X94380074Y-78003407D01*
X94396852Y-78007281D01*
X94398889Y-78022222D01*
X94605247Y-78022222D01*
X94647597Y-78005340D01*
X94726134Y-77970957D01*
X94751842Y-77948912D01*
X94727569Y-77942244D01*
X94656161Y-77953994D01*
X94610556Y-77965778D01*
X94527956Y-77983634D01*
X94475166Y-77985499D01*
X94459865Y-77973568D01*
X94489734Y-77950032D01*
X94496337Y-77946963D01*
X94333037Y-77946963D01*
X94329163Y-77963741D01*
X94314222Y-77965778D01*
X94290992Y-77955451D01*
X94295408Y-77946963D01*
X94328901Y-77943585D01*
X94333037Y-77946963D01*
X94496337Y-77946963D01*
X94514736Y-77938413D01*
X94557702Y-77918830D01*
X94551371Y-77913155D01*
X94497667Y-77916331D01*
X94434726Y-77911468D01*
X94420056Y-77887858D01*
X94404711Y-77856431D01*
X94388575Y-77852889D01*
X94358541Y-77831375D01*
X94302410Y-77772603D01*
X94226917Y-77685229D01*
X94138798Y-77577909D01*
X94044789Y-77459296D01*
X93951624Y-77338048D01*
X93866040Y-77222819D01*
X93794771Y-77122264D01*
X93744553Y-77045040D01*
X93722123Y-76999801D01*
X93721556Y-76995739D01*
X93742437Y-77005791D01*
X93798869Y-77043316D01*
X93881537Y-77101538D01*
X93981127Y-77173679D01*
X94088324Y-77252965D01*
X94193812Y-77332618D01*
X94288276Y-77405863D01*
X94319315Y-77430582D01*
X94454173Y-77530182D01*
X94605985Y-77623724D01*
X94787164Y-77718210D01*
X95010128Y-77820640D01*
X95014123Y-77822391D01*
X95235115Y-77914358D01*
X95464447Y-78001240D01*
X95690109Y-78079088D01*
X95900095Y-78143953D01*
X96082397Y-78191885D01*
X96216263Y-78217761D01*
X96316680Y-78234415D01*
X96394417Y-78252208D01*
X96432962Y-78267345D01*
X96433243Y-78267618D01*
X96454181Y-78308998D01*
X96483724Y-78393683D01*
X96518593Y-78509798D01*
X96555505Y-78645470D01*
X96591180Y-78788823D01*
X96622336Y-78927985D01*
X96638732Y-79011232D01*
X96655119Y-79119014D01*
X96671607Y-79259054D01*
X96687238Y-79418723D01*
X96701052Y-79585390D01*
X96712092Y-79746426D01*
X96719399Y-79889200D01*
X96722014Y-80001084D01*
X97779349Y-80001084D01*
X97852414Y-79760901D01*
X97922321Y-79460162D01*
X97980891Y-79130904D01*
X98025490Y-78786929D01*
X98041562Y-78615772D01*
X98052812Y-78373653D01*
X98051913Y-78086693D01*
X98039887Y-77764937D01*
X98017755Y-77418430D01*
X97986539Y-77057217D01*
X97947261Y-76691344D01*
X97900942Y-76330856D01*
X97848604Y-75985797D01*
X97791269Y-75666212D01*
X97729958Y-75382148D01*
X97700996Y-75267280D01*
X97624680Y-75000319D01*
X97533033Y-74712211D01*
X97429879Y-74412791D01*
X97319039Y-74111895D01*
X97204333Y-73819361D01*
X97089585Y-73545022D01*
X96978614Y-73298716D01*
X96875244Y-73090278D01*
X96808906Y-72971250D01*
X96738244Y-72863414D01*
X96637013Y-72723779D01*
X96513001Y-72561956D01*
X96373994Y-72387557D01*
X96227780Y-72210194D01*
X96082145Y-72039479D01*
X95944876Y-71885022D01*
X95829160Y-71761945D01*
X95629010Y-71572967D01*
X95425041Y-71415622D01*
X95198107Y-71276324D01*
X95005667Y-71177612D01*
X94633597Y-71017732D01*
X94272130Y-70904009D01*
X93905329Y-70832785D01*
X93517256Y-70800400D01*
X93350094Y-70797499D01*
X93046143Y-70808324D01*
X92785518Y-70842851D01*
X92559205Y-70903658D01*
X92358186Y-70993326D01*
X92173446Y-71114434D01*
X92134399Y-71145303D01*
X91972806Y-71276923D01*
X91954265Y-71203049D01*
X91945455Y-71123681D01*
X91945412Y-71004201D01*
X91952935Y-70860056D01*
X91966821Y-70706692D01*
X91985870Y-70559554D01*
X92008879Y-70434088D01*
X92016572Y-70402222D01*
X92049467Y-70293908D01*
X92100970Y-70145779D01*
X92166447Y-69969452D01*
X92241263Y-69776550D01*
X92320782Y-69578690D01*
X92400370Y-69387493D01*
X92475390Y-69214580D01*
X92541208Y-69071569D01*
X92572618Y-69008297D01*
X92739228Y-68723443D01*
X92917065Y-68491110D01*
X93069030Y-68342141D01*
X93149673Y-68267930D01*
X93199078Y-68210166D01*
X93215165Y-68174397D01*
X93195856Y-68166170D01*
X93139073Y-68191034D01*
X93139073Y-68191034D01*
G37*
X93139073Y-68191034D02*
X93121834Y-68201198D01*
X93052549Y-68237952D01*
X92999721Y-68256639D01*
X92993559Y-68257228D01*
X92942320Y-68275021D01*
X92859520Y-68323172D01*
X92755405Y-68394112D01*
X92640220Y-68480273D01*
X92524211Y-68574088D01*
X92417622Y-68667989D01*
X92354598Y-68729209D01*
X92253664Y-68839454D01*
X92139580Y-68974578D01*
X92030624Y-69112578D01*
X91984664Y-69174555D01*
X91888385Y-69320027D01*
X91780084Y-69503376D01*
X91667513Y-69709611D01*
X91558422Y-69923740D01*
X91460562Y-70130775D01*
X91381687Y-70315722D01*
X91348245Y-70405362D01*
X91283647Y-70591946D01*
X91140879Y-70507448D01*
X90888445Y-70378670D01*
X90623765Y-70286034D01*
X90339655Y-70228496D01*
X90028931Y-70205011D01*
X89684411Y-70214533D01*
X89357560Y-70248071D01*
X89021585Y-70298372D01*
X88725000Y-70357871D01*
X88450909Y-70431548D01*
X88182414Y-70524383D01*
X87902620Y-70641356D01*
X87696111Y-70737793D01*
X87197836Y-70999544D01*
X86753435Y-71277540D01*
X86362962Y-71571739D01*
X86026472Y-71882097D01*
X85744020Y-72208572D01*
X85653091Y-72333628D01*
X85458431Y-72645860D01*
X85271101Y-73006015D01*
X85094010Y-73405746D01*
X84930062Y-73836706D01*
X84782166Y-74290549D01*
X84653228Y-74758925D01*
X84546155Y-75233489D01*
X84463853Y-75705893D01*
X84453477Y-75778555D01*
X84413287Y-76126610D01*
X84384226Y-76501516D01*
X84366544Y-76889283D01*
X84360492Y-77275918D01*
X84366320Y-77647431D01*
X84384277Y-77989830D01*
X84409324Y-78248000D01*
X84448439Y-78512503D01*
X84503913Y-78813896D01*
X84572107Y-79136286D01*
X84649384Y-79463779D01*
X84732104Y-79780480D01*
X84816629Y-80070497D01*
X84851434Y-80179433D01*
X84904614Y-80322712D01*
X84981098Y-80503919D01*
X85075650Y-80712284D01*
X85183034Y-80937039D01*
X85298012Y-81167415D01*
X85415348Y-81392643D01*
X85529805Y-81601954D01*
X85614368Y-81748339D01*
X85723841Y-81924441D01*
X85830569Y-82081763D01*
X85929007Y-82213027D01*
X86013610Y-82310955D01*
X86078833Y-82368270D01*
X86092506Y-82375885D01*
X86142974Y-82410340D01*
X86138856Y-82443849D01*
X86079444Y-82477601D01*
X86020197Y-82497514D01*
X85876160Y-82561110D01*
X85777911Y-82655100D01*
X85723304Y-82782786D01*
X85710192Y-82947473D01*
X85711475Y-82972579D01*
X85739578Y-83146802D01*
X85803820Y-83318794D01*
X85908381Y-83496406D01*
X86057442Y-83687490D01*
X86142998Y-83783039D01*
X86256628Y-83910334D01*
X86373912Y-84049616D01*
X86479417Y-84182162D01*
X86544618Y-84270269D01*
X86631214Y-84384833D01*
X86742375Y-84519475D01*
X86861981Y-84655152D01*
X86946578Y-84745152D01*
X87050794Y-84850843D01*
X87125559Y-84921702D01*
X87179927Y-84964173D01*
X87222949Y-84984696D01*
X87263680Y-84989713D01*
X87288181Y-84988216D01*
X87336177Y-84985992D01*
X87371219Y-84996894D01*
X87402881Y-85030670D01*
X87440735Y-85097070D01*
X87486983Y-85190666D01*
X87541126Y-85292867D01*
X87608115Y-85405907D01*
X87680606Y-85518963D01*
X87751256Y-85621214D01*
X87812720Y-85701836D01*
X87857656Y-85750007D01*
X87872442Y-85758713D01*
X87915161Y-85764309D01*
X87956658Y-85768946D01*
X88042319Y-85798109D01*
X88103958Y-85869661D01*
X88135871Y-85945570D01*
X88173874Y-86041856D01*
X88218859Y-86132702D01*
X88219498Y-86133813D01*
X88247293Y-86194542D01*
X88285739Y-86295385D01*
X88329733Y-86422254D01*
X88373676Y-86559444D01*
X88425881Y-86728326D01*
X88465112Y-86850974D01*
X88494544Y-86935240D01*
X88517353Y-86988975D01*
X88536713Y-87020030D01*
X88555799Y-87036258D01*
X88568957Y-87042343D01*
X88611073Y-87036093D01*
X88686187Y-87005488D01*
X88779806Y-86956670D01*
X88803156Y-86943082D01*
X88917337Y-86879822D01*
X89034017Y-86822521D01*
X89128746Y-86783153D01*
X89132164Y-86781974D01*
X89267750Y-86735775D01*
X89441486Y-86856963D01*
X89556567Y-86936642D01*
X89680827Y-87021774D01*
X89771484Y-87083213D01*
X89881719Y-87159820D01*
X89947408Y-87213939D01*
X89972514Y-87251943D01*
X89960996Y-87280210D01*
X89916816Y-87305114D01*
X89910881Y-87307612D01*
X89842573Y-87349621D01*
X89762918Y-87417655D01*
X89719924Y-87462449D01*
X89574917Y-87603300D01*
X89394332Y-87741597D01*
X89197753Y-87862836D01*
X89135254Y-87895372D01*
X89045993Y-87931859D01*
X88909782Y-87977431D01*
X88734989Y-88029962D01*
X88529984Y-88087322D01*
X88303136Y-88147383D01*
X88062813Y-88208017D01*
X87817385Y-88267096D01*
X87575221Y-88322492D01*
X87344689Y-88372077D01*
X87134159Y-88413722D01*
X87009326Y-88435978D01*
X86809547Y-88471225D01*
X86656944Y-88502269D01*
X86542621Y-88531361D01*
X86457679Y-88560752D01*
X86395493Y-88591356D01*
X86324246Y-88639755D01*
X86279148Y-88683167D01*
X86270889Y-88701132D01*
X86253363Y-88739304D01*
X86207239Y-88805220D01*
X86142201Y-88885143D01*
X86136834Y-88891315D01*
X85985679Y-89073685D01*
X85842741Y-89266972D01*
X85703389Y-89478854D01*
X85562996Y-89717007D01*
X85416931Y-89989109D01*
X85260567Y-90302835D01*
X85165734Y-90501786D01*
X85005183Y-90851991D01*
X84866751Y-91175130D01*
X84743462Y-91489452D01*
X84628338Y-91813208D01*
X84514404Y-92164649D01*
X84451906Y-92369073D01*
X84349901Y-92698779D01*
X84239011Y-93040042D01*
X84124213Y-93378371D01*
X84010486Y-93699273D01*
X83902806Y-93988258D01*
X83845758Y-94133852D01*
X83728074Y-94467150D01*
X83655071Y-94773221D01*
X83626823Y-95059426D01*
X83643405Y-95333127D01*
X83704892Y-95601684D01*
X83811358Y-95872458D01*
X83864513Y-95979156D01*
X83966698Y-96159315D01*
X84098962Y-96370330D01*
X84253682Y-96601051D01*
X84423236Y-96840329D01*
X84600002Y-97077014D01*
X84718667Y-97228582D01*
X84817040Y-97351968D01*
X84938998Y-97505445D01*
X85073223Y-97674740D01*
X85208397Y-97845583D01*
X85307199Y-97970717D01*
X85475279Y-98181897D01*
X85615336Y-98352189D01*
X85732756Y-98486199D01*
X85832924Y-98588536D01*
X85921227Y-98663805D01*
X86003050Y-98716613D01*
X86083779Y-98751568D01*
X86168801Y-98773277D01*
X86260379Y-98786026D01*
X86349925Y-98798613D01*
X86395957Y-98816542D01*
X86411398Y-98845862D01*
X86412000Y-98856983D01*
X86422378Y-98940658D01*
X86450513Y-99061896D01*
X86491904Y-99206391D01*
X86542051Y-99359835D01*
X86596454Y-99507920D01*
X86650614Y-99636338D01*
X86669459Y-99675545D01*
X86774940Y-99853564D01*
X86899832Y-100012697D01*
X87035931Y-100145710D01*
X87175037Y-100245368D01*
X87308947Y-100304439D01*
X87397672Y-100317778D01*
X87492393Y-100292227D01*
X87581334Y-100230983D01*
X87680187Y-100144189D01*
X87772816Y-100213540D01*
X87911398Y-100304211D01*
X88034624Y-100359189D01*
X88118043Y-100374222D01*
X88158562Y-100377852D01*
X88180078Y-100397767D01*
X88188608Y-100447507D01*
X88190167Y-100536500D01*
X88194960Y-100637888D01*
X88207646Y-100772258D01*
X88225923Y-100917075D01*
X88235576Y-100981000D01*
X88254726Y-101128859D01*
X88271111Y-101307852D01*
X88282697Y-101492673D01*
X88287041Y-101621421D01*
X88292246Y-101792182D01*
X88301488Y-101913248D01*
X88315517Y-101991271D01*
X88333208Y-102030643D01*
X88444238Y-102167763D01*
X88539118Y-102271710D01*
X88632548Y-102356576D01*
X88739233Y-102436454D01*
X88798176Y-102476308D01*
X88969215Y-102583008D01*
X89168719Y-102697383D01*
X89376876Y-102808745D01*
X89573870Y-102906409D01*
X89704530Y-102965150D01*
X89850282Y-103026603D01*
X89837753Y-103527801D01*
X89832979Y-103700532D01*
X89827660Y-103862873D01*
X89822258Y-104002569D01*
X89817238Y-104107365D01*
X89813975Y-104156000D01*
X89809355Y-104275801D01*
X89811585Y-104443535D01*
X89820044Y-104651186D01*
X89834112Y-104890737D01*
X89853168Y-105154174D01*
X89876590Y-105433480D01*
X89903759Y-105720639D01*
X89934054Y-106007637D01*
X89966854Y-106286458D01*
X89996450Y-106512555D01*
X90025661Y-106746751D01*
X90054556Y-107019836D01*
X90081520Y-107314270D01*
X90104940Y-107612511D01*
X90122322Y-107881333D01*
X90140125Y-108185237D01*
X90156711Y-108444056D01*
X90173102Y-108669102D01*
X90190317Y-108871690D01*
X90209377Y-109063134D01*
X90231304Y-109254748D01*
X90257119Y-109457846D01*
X90279552Y-109623836D01*
X90310412Y-109872010D01*
X90327644Y-110080173D01*
X90331030Y-110263145D01*
X90320353Y-110435745D01*
X90295394Y-110612791D01*
X90262556Y-110778909D01*
X90234366Y-110920788D01*
X90202308Y-111101310D01*
X90169262Y-111303077D01*
X90138108Y-111508693D01*
X90118513Y-111649000D01*
X90077617Y-112009440D01*
X90058410Y-112330671D01*
X90061862Y-112625985D01*
X90088940Y-112908677D01*
X90140616Y-113192041D01*
X90217857Y-113489370D01*
X90263569Y-113638666D01*
X90308908Y-113801109D01*
X90356344Y-114007879D01*
X90403355Y-114247047D01*
X90447420Y-114506687D01*
X90448496Y-114513555D01*
X90490154Y-114784441D01*
X90522556Y-115007105D01*
X90546373Y-115188887D01*
X90562275Y-115337132D01*
X90570933Y-115459180D01*
X90573017Y-115562373D01*
X90569196Y-115654055D01*
X90560406Y-115739529D01*
X90528186Y-115922413D01*
X90476865Y-116136235D01*
X90412130Y-116361221D01*
X90339668Y-116577597D01*
X90265627Y-116764542D01*
X90201788Y-116925534D01*
X90170227Y-117055292D01*
X90171219Y-117169075D01*
X90205036Y-117282141D01*
X90271952Y-117409751D01*
X90277354Y-117418748D01*
X90311049Y-117477050D01*
X90340620Y-117535934D01*
X90367735Y-117601767D01*
X90394057Y-117680915D01*
X90421254Y-117779745D01*
X90450989Y-117904624D01*
X90484930Y-118061918D01*
X90524742Y-118257993D01*
X90572090Y-118499217D01*
X90606364Y-118676333D01*
X90635357Y-118820769D01*
X90663647Y-118951424D01*
X90688202Y-119054926D01*
X90705987Y-119117908D01*
X90707544Y-119122164D01*
X90762087Y-119198411D01*
X90848135Y-119257656D01*
X90940747Y-119283033D01*
X90945546Y-119283111D01*
X90969158Y-119290731D01*
X90956730Y-119319308D01*
X90911669Y-119370356D01*
X90813085Y-119466018D01*
X90723667Y-119528339D01*
X90624262Y-119566240D01*
X90495720Y-119588640D01*
X90428052Y-119595607D01*
X90285587Y-119613166D01*
X90182707Y-119638204D01*
X90102635Y-119675161D01*
X90084731Y-119686441D01*
X90012092Y-119745944D01*
X89919377Y-119837979D01*
X89817189Y-119950103D01*
X89716128Y-120069870D01*
X89626796Y-120184838D01*
X89559793Y-120282562D01*
X89530679Y-120336796D01*
X89496953Y-120470686D01*
X89493532Y-120619975D01*
X89519945Y-120758156D01*
X89538967Y-120804800D01*
X89615844Y-120906757D01*
X89736769Y-121005505D01*
X89889378Y-121096011D01*
X90061305Y-121173241D01*
X90240183Y-121232163D01*
X90413646Y-121267743D01*
X90569330Y-121274947D01*
X90659445Y-121260873D01*
X90746309Y-121234141D01*
X90826120Y-121201436D01*
X90912955Y-121155509D01*
X91020890Y-121089112D01*
X91123721Y-121021810D01*
X91227473Y-120955119D01*
X91315806Y-120902306D01*
X91377012Y-120870158D01*
X91396840Y-120863555D01*
X91437996Y-120843297D01*
X91482896Y-120798728D01*
X91522902Y-120753481D01*
X91567765Y-120717511D01*
X91624706Y-120689289D01*
X91700950Y-120667286D01*
X91803719Y-120649975D01*
X91940237Y-120635827D01*
X92117727Y-120623313D01*
X92343412Y-120610904D01*
X92378957Y-120609103D01*
X92617604Y-120595629D01*
X92806474Y-120581242D01*
X92952235Y-120564884D01*
X93061553Y-120545496D01*
X93141096Y-120522022D01*
X93197531Y-120493403D01*
X93220611Y-120475556D01*
X93256417Y-120410115D01*
X93269441Y-120308218D01*
X93259852Y-120184977D01*
X93227822Y-120055503D01*
X93224990Y-120047759D01*
X92918455Y-120047759D01*
X92894849Y-120108991D01*
X92840716Y-120144845D01*
X92751778Y-120164725D01*
X92729255Y-120167634D01*
X92614295Y-120177821D01*
X92479415Y-120184713D01*
X92395111Y-120186467D01*
X92234890Y-120195674D01*
X92068689Y-120219656D01*
X91913972Y-120254776D01*
X91788204Y-120297395D01*
X91735946Y-120323782D01*
X91505599Y-120462792D01*
X91311811Y-120572965D01*
X91145414Y-120658556D01*
X90997238Y-120723819D01*
X90858117Y-120773008D01*
X90718881Y-120810377D01*
X90659445Y-120823308D01*
X90512466Y-120849555D01*
X90396257Y-120858489D01*
X90287821Y-120849975D01*
X90164161Y-120823881D01*
X90150319Y-120820363D01*
X90007280Y-120777092D01*
X89879132Y-120726287D01*
X89776061Y-120673149D01*
X89708257Y-120622879D01*
X89685778Y-120583196D01*
X89707314Y-120513767D01*
X89771319Y-120409523D01*
X89876888Y-120271770D01*
X90005931Y-120121075D01*
X90117017Y-120002308D01*
X90208143Y-119922758D01*
X90291459Y-119875219D01*
X90379112Y-119852486D01*
X90467543Y-119847280D01*
X90626531Y-119825482D01*
X90776047Y-119766126D01*
X90904745Y-119677289D01*
X91001279Y-119567049D01*
X91054301Y-119443484D01*
X91057323Y-119427390D01*
X91074169Y-119322038D01*
X91431251Y-119320897D01*
X91676737Y-119312903D01*
X91903576Y-119291712D01*
X92042334Y-119269486D01*
X92192205Y-119244547D01*
X92355941Y-119224625D01*
X92501803Y-119213473D01*
X92522111Y-119212732D01*
X92635301Y-119207112D01*
X92730740Y-119198100D01*
X92790887Y-119187448D01*
X92797278Y-119185215D01*
X92822256Y-119179851D01*
X92837069Y-119196917D01*
X92844310Y-119246641D01*
X92846571Y-119339252D01*
X92846667Y-119380059D01*
X92853261Y-119524681D01*
X92870435Y-119685936D01*
X92891199Y-119811528D01*
X92915813Y-119951740D01*
X92918455Y-120047759D01*
X93224990Y-120047759D01*
X93215505Y-120021834D01*
X93147185Y-119789447D01*
X93107745Y-119511456D01*
X93097565Y-119311333D01*
X93095965Y-119195155D01*
X93098859Y-119124707D01*
X93108610Y-119089316D01*
X93127576Y-119078308D01*
X93148821Y-119079568D01*
X93210268Y-119060553D01*
X93278902Y-118991098D01*
X93318847Y-118934171D01*
X93337666Y-118885099D01*
X93338818Y-118823255D01*
X93325761Y-118728012D01*
X93324415Y-118719629D01*
X93299429Y-118598526D01*
X93265682Y-118476338D01*
X93243474Y-118412988D01*
X93200557Y-118305668D01*
X93152149Y-118184367D01*
X93131292Y-118132021D01*
X93092761Y-118011551D01*
X93091804Y-117923721D01*
X93132031Y-117856087D01*
X93217056Y-117796203D01*
X93230946Y-117788679D01*
X93324356Y-117732638D01*
X93393382Y-117672185D01*
X93438833Y-117600326D01*
X93461519Y-117510070D01*
X93462248Y-117394424D01*
X93441829Y-117246397D01*
X93401071Y-117058996D01*
X93341910Y-116829420D01*
X93276603Y-116583254D01*
X93225366Y-116378660D01*
X93186505Y-116203014D01*
X93158327Y-116043690D01*
X93139138Y-115888063D01*
X93127244Y-115723507D01*
X93120951Y-115537396D01*
X93118566Y-115317105D01*
X93118306Y-115162666D01*
X93122406Y-114818409D01*
X93135695Y-114517545D01*
X93159779Y-114247537D01*
X93196266Y-113995846D01*
X93246761Y-113749933D01*
X93312872Y-113497259D01*
X93346119Y-113384666D01*
X93420832Y-113137801D01*
X93480261Y-112938192D01*
X93525955Y-112779221D01*
X93559467Y-112654272D01*
X93582348Y-112556724D01*
X93596149Y-112479961D01*
X93602421Y-112417364D01*
X93602717Y-112362316D01*
X93598588Y-112308197D01*
X93598553Y-112307857D01*
X93567126Y-112133909D01*
X93514485Y-111989111D01*
X93445153Y-111884754D01*
X93419622Y-111861303D01*
X93350017Y-111806552D01*
X93427800Y-111704573D01*
X93493933Y-111583016D01*
X93519383Y-111440917D01*
X93504439Y-111271633D01*
X93454731Y-111084555D01*
X93391466Y-110856210D01*
X93350400Y-110629774D01*
X93333912Y-110421909D01*
X93339962Y-110280650D01*
X93350874Y-110214911D01*
X93373102Y-110102316D01*
X93404905Y-109950921D01*
X93444544Y-109768782D01*
X93490279Y-109563957D01*
X93540370Y-109344502D01*
X93565529Y-109236000D01*
X93620774Y-108995306D01*
X93675509Y-108750098D01*
X93727321Y-108511690D01*
X93773795Y-108291391D01*
X93812515Y-108100515D01*
X93841068Y-107950373D01*
X93846349Y-107920441D01*
X93882322Y-107725172D01*
X93926437Y-107505441D01*
X93973202Y-107287653D01*
X94017126Y-107098211D01*
X94018725Y-107091685D01*
X94085552Y-106803748D01*
X94138682Y-106541518D01*
X94176785Y-106312633D01*
X94198530Y-106124731D01*
X94203204Y-106032778D01*
X94208545Y-105910823D01*
X94221665Y-105843994D01*
X94244882Y-105831934D01*
X94280514Y-105874282D01*
X94330877Y-105970679D01*
X94349235Y-106010149D01*
X94425062Y-106197116D01*
X94504077Y-106431000D01*
X94583592Y-106702581D01*
X94660922Y-107002638D01*
X94733379Y-107321949D01*
X94738267Y-107345111D01*
X94777891Y-107524895D01*
X94827377Y-107736140D01*
X94881212Y-107955996D01*
X94933882Y-108161615D01*
X94949408Y-108220000D01*
X94996952Y-108403238D01*
X95051085Y-108622342D01*
X95107164Y-108857863D01*
X95160544Y-109090353D01*
X95199807Y-109268637D01*
X95246796Y-109479988D01*
X95303168Y-109721377D01*
X95366539Y-109983563D01*
X95434525Y-110257304D01*
X95504742Y-110533356D01*
X95574807Y-110802478D01*
X95642336Y-111055427D01*
X95704944Y-111282960D01*
X95760248Y-111475836D01*
X95805864Y-111624812D01*
X95813772Y-111649000D01*
X95954292Y-112019320D01*
X96123302Y-112363271D01*
X96326824Y-112690170D01*
X96570883Y-113009332D01*
X96861501Y-113330076D01*
X96973266Y-113442402D01*
X97084051Y-113558111D01*
X97173940Y-113670319D01*
X97248669Y-113790108D01*
X97313974Y-113928559D01*
X97375591Y-114096754D01*
X97439254Y-114305772D01*
X97461956Y-114386555D01*
X97528928Y-114623302D01*
X97612186Y-114908840D01*
X97710300Y-115238365D01*
X97821839Y-115607078D01*
X97945115Y-116009333D01*
X98010381Y-116207741D01*
X98070863Y-116360736D01*
X98131208Y-116478555D01*
X98196064Y-116571435D01*
X98205305Y-116582489D01*
X98236316Y-116654960D01*
X98241089Y-116741136D01*
X98246224Y-116842654D01*
X98279116Y-116952243D01*
X98344098Y-117080686D01*
X98434786Y-117223064D01*
X98574909Y-117454918D01*
X98687354Y-117693245D01*
X98764768Y-117921526D01*
X98784982Y-118009980D01*
X98807978Y-118114478D01*
X98832037Y-118198045D01*
X98852339Y-118244223D01*
X98854180Y-118246357D01*
X98894218Y-118271515D01*
X98961237Y-118289235D01*
X99063263Y-118300555D01*
X99208324Y-118306515D01*
X99330746Y-118308012D01*
X99620048Y-118309444D01*
X99620024Y-118653329D01*
X99622441Y-118794810D01*
X99629029Y-118922397D01*
X99638768Y-119021676D01*
X99650018Y-119076662D01*
X99724063Y-119198038D01*
X99849586Y-119313054D01*
X100021722Y-119418728D01*
X100235604Y-119512080D01*
X100486367Y-119590127D01*
X100488995Y-119590808D01*
X100634092Y-119629085D01*
X100741482Y-119661177D01*
X100828245Y-119694481D01*
X100911461Y-119736391D01*
X101008210Y-119794302D01*
X101112515Y-119860777D01*
X101208714Y-119919916D01*
X101286826Y-119957527D01*
X101367567Y-119980260D01*
X101471653Y-119994763D01*
X101553222Y-120002221D01*
X101747793Y-120016149D01*
X101895849Y-120018449D01*
X102006720Y-120005683D01*
X102089739Y-119974414D01*
X102154238Y-119921204D01*
X102209547Y-119842614D01*
X102262218Y-119741025D01*
X102328464Y-119544333D01*
X102344686Y-119342868D01*
X102323490Y-119220984D01*
X102132208Y-119220984D01*
X102078950Y-119343770D01*
X102006041Y-119469684D01*
X101913931Y-119566148D01*
X101813150Y-119624841D01*
X101714224Y-119637445D01*
X101708445Y-119636531D01*
X101641703Y-119626723D01*
X101543888Y-119614568D01*
X101468556Y-119606172D01*
X101166659Y-119552258D01*
X100880257Y-119458284D01*
X100623474Y-119329301D01*
X100539028Y-119273876D01*
X100482757Y-119239276D01*
X100388307Y-119186626D01*
X100268192Y-119122704D01*
X100134923Y-119054286D01*
X100115695Y-119044618D01*
X99775222Y-118873889D01*
X99754212Y-118605778D01*
X99746243Y-118486269D01*
X99742212Y-118387001D01*
X99742566Y-118322128D01*
X99744747Y-118306358D01*
X99777071Y-118287043D01*
X99854464Y-118263682D01*
X99965893Y-118238441D01*
X100100326Y-118213482D01*
X100246730Y-118190970D01*
X100394073Y-118173068D01*
X100452556Y-118167532D01*
X100582605Y-118150932D01*
X100733924Y-118123634D01*
X100873833Y-118091537D01*
X100874292Y-118091416D01*
X101098472Y-118032204D01*
X101198847Y-118156387D01*
X101253823Y-118218900D01*
X101340069Y-118310414D01*
X101447970Y-118421015D01*
X101567913Y-118540787D01*
X101639601Y-118610931D01*
X101776276Y-118747947D01*
X101895047Y-118875508D01*
X101988271Y-118984984D01*
X102048304Y-119067747D01*
X102056094Y-119081137D01*
X102132208Y-119220984D01*
X102323490Y-119220984D01*
X102310856Y-119148339D01*
X102263952Y-119034849D01*
X102188204Y-118919443D01*
X102075263Y-118785529D01*
X101936087Y-118644045D01*
X101781637Y-118505931D01*
X101622872Y-118382126D01*
X101579710Y-118351904D01*
X101468355Y-118270037D01*
X101365144Y-118183494D01*
X101279685Y-118101486D01*
X101221584Y-118033224D01*
X101200445Y-117988281D01*
X101222010Y-117950832D01*
X101272830Y-117905272D01*
X101332090Y-117869550D01*
X101343264Y-117865116D01*
X101392046Y-117819746D01*
X101426634Y-117728870D01*
X101445767Y-117601926D01*
X101448183Y-117448350D01*
X101432618Y-117277581D01*
X101426873Y-117239968D01*
X101393386Y-117062584D01*
X101352721Y-116913942D01*
X101298428Y-116782190D01*
X101224056Y-116655478D01*
X101123153Y-116521954D01*
X100989268Y-116369767D01*
X100903253Y-116278038D01*
X100662286Y-116024632D01*
X100731128Y-115897038D01*
X100800114Y-115745145D01*
X100853483Y-115581058D01*
X100884667Y-115427335D01*
X100890000Y-115351375D01*
X100872591Y-115239554D01*
X100816985Y-115127424D01*
X100718113Y-115006679D01*
X100624428Y-114916180D01*
X100475900Y-114752184D01*
X100344283Y-114543324D01*
X100228482Y-114287129D01*
X100127402Y-113981126D01*
X100039948Y-113622842D01*
X100029736Y-113573352D01*
X99990581Y-113336623D01*
X99959172Y-113050831D01*
X99935451Y-112714720D01*
X99919357Y-112327037D01*
X99910828Y-111886527D01*
X99909806Y-111391937D01*
X99912057Y-111126889D01*
X99913990Y-110881645D01*
X99913856Y-110665807D01*
X99911757Y-110484811D01*
X99907793Y-110344089D01*
X99902067Y-110249078D01*
X99894913Y-110205711D01*
X99849098Y-110145712D01*
X99800327Y-110109220D01*
X99750301Y-110071955D01*
X99732889Y-110041448D01*
X99740421Y-110003669D01*
X99761005Y-109923071D01*
X99791630Y-109810943D01*
X99829280Y-109678576D01*
X99835205Y-109658162D01*
X99906372Y-109408431D01*
X99963721Y-109196230D01*
X100006273Y-109025503D01*
X100033048Y-108900195D01*
X100043066Y-108824252D01*
X100043113Y-108821137D01*
X100027907Y-108763569D01*
X99988649Y-108682756D01*
X99955028Y-108628208D01*
X99844680Y-108430993D01*
X99742737Y-108179494D01*
X99649583Y-107875299D01*
X99565600Y-107519995D01*
X99491172Y-107115171D01*
X99426681Y-106662414D01*
X99380294Y-106244444D01*
X99371874Y-106136871D01*
X99362790Y-105982230D01*
X99353258Y-105787822D01*
X99343497Y-105560950D01*
X99333724Y-105308914D01*
X99324155Y-105039017D01*
X99315009Y-104758560D01*
X99306502Y-104474844D01*
X99298852Y-104195172D01*
X99292276Y-103926844D01*
X99286992Y-103677163D01*
X99283216Y-103453429D01*
X99281167Y-103262945D01*
X99281061Y-103113013D01*
X99283115Y-103010933D01*
X99283694Y-102998889D01*
X99291995Y-102700662D01*
X99281146Y-102443006D01*
X99250330Y-102213111D01*
X99226740Y-102102740D01*
X99163698Y-101841592D01*
X99250738Y-101723236D01*
X99300595Y-101648218D01*
X99332087Y-101586943D01*
X99337778Y-101565087D01*
X99356592Y-101536857D01*
X99373056Y-101538295D01*
X99416138Y-101552660D01*
X99496460Y-101578280D01*
X99597307Y-101609830D01*
X99605889Y-101612490D01*
X99714797Y-101646327D01*
X99811449Y-101676532D01*
X99875156Y-101696641D01*
X99875729Y-101696824D01*
X99974747Y-101705556D01*
X100050153Y-101663722D01*
X100094266Y-101582680D01*
X100102680Y-101531054D01*
X100107390Y-101483355D01*
X99224540Y-101483355D01*
X98998937Y-101718349D01*
X98909681Y-101813690D01*
X98837105Y-101895726D01*
X98789076Y-101955255D01*
X98773334Y-101982227D01*
X98768735Y-102001052D01*
X98748766Y-102008009D01*
X98704164Y-102001658D01*
X98625668Y-101980558D01*
X98504019Y-101943269D01*
X98485513Y-101937459D01*
X98094679Y-101787796D01*
X97709956Y-101588427D01*
X97342618Y-101345851D01*
X97054236Y-101112119D01*
X96901472Y-100976175D01*
X96950475Y-100781096D01*
X97010308Y-100594486D01*
X97090248Y-100419853D01*
X97134277Y-100349332D01*
X95137851Y-100349332D01*
X95107084Y-100364692D01*
X95031859Y-100397856D01*
X94920052Y-100445483D01*
X94779540Y-100504232D01*
X94618198Y-100570763D01*
X94552215Y-100597737D01*
X93939730Y-100822927D01*
X93323311Y-101001377D01*
X92710645Y-101131203D01*
X92109420Y-101210523D01*
X92020541Y-101217960D01*
X91846920Y-101234164D01*
X91704388Y-101253107D01*
X91601985Y-101273395D01*
X91554874Y-101289741D01*
X91499095Y-101319239D01*
X91471023Y-101332609D01*
X91470834Y-101332648D01*
X91468199Y-101306620D01*
X91466011Y-101234632D01*
X91464475Y-101127168D01*
X91463794Y-100994712D01*
X91463778Y-100970239D01*
X91463778Y-100606701D01*
X91595994Y-100573408D01*
X91715841Y-100544968D01*
X91844401Y-100518378D01*
X91993836Y-100491429D01*
X92176306Y-100461915D01*
X92376727Y-100431643D01*
X92513545Y-100410430D01*
X92629302Y-100390599D01*
X92712986Y-100374174D01*
X92753585Y-100363180D01*
X92755375Y-100362033D01*
X92743747Y-100350175D01*
X92685015Y-100344034D01*
X92588160Y-100342998D01*
X92462167Y-100346457D01*
X92316019Y-100353801D01*
X92158699Y-100364417D01*
X91999190Y-100377696D01*
X91846477Y-100393025D01*
X91709541Y-100409796D01*
X91597367Y-100427395D01*
X91518938Y-100445213D01*
X91515212Y-100446368D01*
X91496182Y-100450675D01*
X91482326Y-100445058D01*
X91473144Y-100422448D01*
X91468135Y-100375779D01*
X91466797Y-100297983D01*
X91468629Y-100181993D01*
X91473129Y-100020742D01*
X91476751Y-99904134D01*
X91484055Y-99708290D01*
X91493490Y-99509782D01*
X91504189Y-99323848D01*
X91515284Y-99165728D01*
X91524667Y-99061889D01*
X91534102Y-98974079D01*
X90009485Y-98974079D01*
X89984828Y-98983212D01*
X89927295Y-98986584D01*
X89829374Y-98984580D01*
X89683551Y-98977587D01*
X89663823Y-98976505D01*
X89524093Y-98970228D01*
X89404091Y-98967557D01*
X89315399Y-98968556D01*
X89269599Y-98973284D01*
X89267036Y-98974385D01*
X89251797Y-99011109D01*
X89267211Y-99077540D01*
X89284408Y-99113455D01*
X89315801Y-99156813D01*
X89366549Y-99212751D01*
X89441813Y-99286405D01*
X89546754Y-99382911D01*
X89686530Y-99507406D01*
X89793335Y-99601238D01*
X89893605Y-99689032D01*
X89756026Y-99876405D01*
X89688335Y-99963069D01*
X89629511Y-100028484D01*
X89589660Y-100061718D01*
X89582887Y-100063778D01*
X89546386Y-100043239D01*
X89491474Y-99990618D01*
X89454275Y-99947251D01*
X89380167Y-99864959D01*
X89292356Y-99782727D01*
X89203708Y-99710960D01*
X89127090Y-99660065D01*
X89075366Y-99640447D01*
X89074942Y-99640444D01*
X89042463Y-99655956D01*
X89050939Y-99698655D01*
X89095487Y-99762789D01*
X89171228Y-99842605D01*
X89273278Y-99932351D01*
X89396758Y-100026273D01*
X89410611Y-100036034D01*
X89482743Y-100088721D01*
X89531408Y-100128555D01*
X89544667Y-100143951D01*
X89524752Y-100180330D01*
X89480468Y-100225269D01*
X89435005Y-100256929D01*
X89420348Y-100261025D01*
X89384311Y-100248750D01*
X89309241Y-100215580D01*
X89206208Y-100166615D01*
X89089527Y-100108603D01*
X88854371Y-99999613D01*
X88656090Y-99930540D01*
X88492012Y-99901026D01*
X88359466Y-99910713D01*
X88255782Y-99959242D01*
X88219549Y-99991810D01*
X88167410Y-100067439D01*
X88137424Y-100143527D01*
X88119445Y-100226964D01*
X87933111Y-100143466D01*
X87746778Y-100059968D01*
X87899920Y-99831172D01*
X88014148Y-99646114D01*
X88136472Y-99422963D01*
X88258974Y-99177749D01*
X88373736Y-98926502D01*
X88472839Y-98685255D01*
X88494894Y-98626608D01*
X88543115Y-98497790D01*
X88579320Y-98411614D01*
X88610424Y-98357550D01*
X88643342Y-98325063D01*
X88684987Y-98303621D01*
X88714064Y-98292739D01*
X88847423Y-98268202D01*
X89011336Y-98273092D01*
X89190560Y-98303842D01*
X89369849Y-98356887D01*
X89533960Y-98428661D01*
X89667649Y-98515599D01*
X89667971Y-98515864D01*
X89745735Y-98593384D01*
X89837795Y-98705829D01*
X89932469Y-98838012D01*
X90008780Y-98958799D01*
X90009485Y-98974079D01*
X91534102Y-98974079D01*
X91554993Y-98779666D01*
X92095710Y-98771174D01*
X92269023Y-98769764D01*
X92426508Y-98770940D01*
X92558058Y-98774432D01*
X92653565Y-98779969D01*
X92702920Y-98787282D01*
X92703286Y-98787414D01*
X92736681Y-98802775D01*
X92740293Y-98820286D01*
X92708120Y-98848459D01*
X92634163Y-98895806D01*
X92621305Y-98903729D01*
X92534155Y-98964307D01*
X92499619Y-99005502D01*
X92516971Y-99026388D01*
X92585485Y-99026038D01*
X92700349Y-99004483D01*
X92866541Y-98957654D01*
X92982755Y-98905110D01*
X93055413Y-98843474D01*
X93078743Y-98805335D01*
X93095459Y-98745391D01*
X93072078Y-98697301D01*
X93054904Y-98679027D01*
X92977114Y-98633463D01*
X92854012Y-98600860D01*
X92695328Y-98581685D01*
X92510793Y-98576404D01*
X92310139Y-98585483D01*
X92103097Y-98609390D01*
X91994293Y-98628194D01*
X91876812Y-98642649D01*
X91756666Y-98644641D01*
X91702283Y-98639823D01*
X91623314Y-98625009D01*
X91588106Y-98606172D01*
X91584181Y-98574477D01*
X91587863Y-98558805D01*
X91596799Y-98509978D01*
X91610259Y-98416590D01*
X91626705Y-98290199D01*
X91644597Y-98142363D01*
X91652912Y-98070142D01*
X91672426Y-97885192D01*
X91683758Y-97735433D01*
X91687239Y-97600257D01*
X91683198Y-97459056D01*
X91671966Y-97291222D01*
X91666489Y-97223476D01*
X91579056Y-96438711D01*
X91445805Y-95645516D01*
X91304627Y-95011748D01*
X88955801Y-95011748D01*
X88896152Y-95653868D01*
X88874282Y-95875646D01*
X88846674Y-96134653D01*
X88815448Y-96412223D01*
X88782723Y-96689689D01*
X88750618Y-96948384D01*
X88739029Y-97037826D01*
X88713009Y-97236974D01*
X88689607Y-97418231D01*
X88669793Y-97573916D01*
X88654534Y-97696347D01*
X88644802Y-97777843D01*
X88641556Y-97810399D01*
X88634443Y-97825601D01*
X88611096Y-97813587D01*
X88568498Y-97770896D01*
X88503635Y-97694068D01*
X88413491Y-97579642D01*
X88295052Y-97424160D01*
X88232891Y-97341440D01*
X88103057Y-97170755D01*
X87956137Y-96981848D01*
X87806496Y-96792939D01*
X87668503Y-96622246D01*
X87607950Y-96548929D01*
X87496681Y-96415280D01*
X87389337Y-96285945D01*
X87294899Y-96171773D01*
X87222347Y-96083611D01*
X87193277Y-96047984D01*
X87129926Y-95977236D01*
X87075300Y-95929039D01*
X87046776Y-95915111D01*
X87000204Y-95898119D01*
X86989203Y-95844594D01*
X87013215Y-95750712D01*
X87020068Y-95732215D01*
X87053555Y-95584647D01*
X87033384Y-95452086D01*
X86958367Y-95329058D01*
X86924715Y-95292919D01*
X86857109Y-95230955D01*
X86799767Y-95187307D01*
X86778891Y-95176284D01*
X86760959Y-95158545D01*
X86777253Y-95121002D01*
X86826866Y-95059665D01*
X86887323Y-94980770D01*
X86966801Y-94862464D01*
X87058778Y-94715669D01*
X87156732Y-94551309D01*
X87254142Y-94380306D01*
X87344486Y-94213584D01*
X87415684Y-94073515D01*
X87468907Y-93952731D01*
X87534078Y-93785803D01*
X87608290Y-93581040D01*
X87688638Y-93346754D01*
X87772214Y-93091253D01*
X87856113Y-92822850D01*
X87876304Y-92756344D01*
X87888699Y-92729864D01*
X87904216Y-92735687D01*
X87926999Y-92780269D01*
X87961194Y-92870064D01*
X87975989Y-92911566D01*
X88022757Y-93035004D01*
X88088745Y-93196790D01*
X88169628Y-93387344D01*
X88261078Y-93597087D01*
X88358769Y-93816439D01*
X88458375Y-94035819D01*
X88555568Y-94245648D01*
X88646024Y-94436347D01*
X88725414Y-94598335D01*
X88789413Y-94722032D01*
X88811797Y-94762232D01*
X88955801Y-95011748D01*
X91304627Y-95011748D01*
X91265136Y-94834470D01*
X91253053Y-94786222D01*
X91138126Y-94290840D01*
X91032175Y-93756167D01*
X90938110Y-93199027D01*
X90858844Y-92636247D01*
X90813540Y-92246222D01*
X90799478Y-92137366D01*
X90776041Y-91984232D01*
X90745108Y-91797849D01*
X90708558Y-91589250D01*
X90668269Y-91369467D01*
X90630866Y-91173778D01*
X90586251Y-90936950D01*
X90541870Y-90686476D01*
X90500131Y-90437048D01*
X90463444Y-90203364D01*
X90434217Y-90000116D01*
X90419680Y-89885479D01*
X90399608Y-89706779D01*
X90385357Y-89557619D01*
X90376535Y-89423800D01*
X90372750Y-89291121D01*
X90373609Y-89145383D01*
X90378719Y-88972386D01*
X90387689Y-88757930D01*
X90388209Y-88746376D01*
X90396829Y-88564415D01*
X90405307Y-88402294D01*
X90413150Y-88268193D01*
X90419864Y-88170292D01*
X90424956Y-88116773D01*
X90426645Y-88109281D01*
X90445787Y-88125952D01*
X90487135Y-88179325D01*
X90542422Y-88258589D01*
X90553181Y-88274718D01*
X90622244Y-88369906D01*
X90716788Y-88488166D01*
X90822730Y-88612312D01*
X90898017Y-88695540D01*
X91080970Y-88873351D01*
X91252717Y-88999113D01*
X91419033Y-89074605D01*
X91585696Y-89101606D01*
X91758483Y-89081897D01*
X91942850Y-89017401D01*
X92021460Y-88976855D01*
X92132643Y-88912448D01*
X92267193Y-88830216D01*
X92415902Y-88736197D01*
X92569563Y-88636427D01*
X92718971Y-88536943D01*
X92854919Y-88443781D01*
X92968199Y-88362978D01*
X93049606Y-88300571D01*
X93085221Y-88268363D01*
X93135466Y-88223212D01*
X93168306Y-88212219D01*
X93173376Y-88238120D01*
X93170971Y-88245722D01*
X93162714Y-88284162D01*
X93147747Y-88368506D01*
X93127727Y-88488836D01*
X93104314Y-88635234D01*
X93084819Y-88760778D01*
X92999618Y-89273460D01*
X92901553Y-89787800D01*
X92793428Y-90291189D01*
X92678047Y-90771018D01*
X92558212Y-91214676D01*
X92484385Y-91461324D01*
X92444000Y-91592689D01*
X92414996Y-91697029D01*
X92395353Y-91788762D01*
X92383052Y-91882305D01*
X92376073Y-91992077D01*
X92372398Y-92132494D01*
X92370504Y-92274444D01*
X92365137Y-92740111D01*
X92531681Y-93219889D01*
X92600716Y-93417389D01*
X92678160Y-93636715D01*
X92756194Y-93855850D01*
X92826997Y-94052777D01*
X92852489Y-94123000D01*
X92901582Y-94258916D01*
X92965313Y-94437186D01*
X93039798Y-94646844D01*
X93121155Y-94876925D01*
X93205499Y-95116463D01*
X93288947Y-95354494D01*
X93312266Y-95421222D01*
X93447701Y-95803513D01*
X93582484Y-96171961D01*
X93721749Y-96539936D01*
X93870628Y-96920810D01*
X94034252Y-97327952D01*
X94188389Y-97703766D01*
X94224398Y-97795899D01*
X94274853Y-97932116D01*
X94336384Y-98102943D01*
X94405617Y-98298907D01*
X94479182Y-98510533D01*
X94553706Y-98728349D01*
X94566694Y-98766689D01*
X94841455Y-99579067D01*
X94655450Y-99609238D01*
X94463434Y-99637845D01*
X94226588Y-99668974D01*
X93956394Y-99701262D01*
X93664333Y-99733342D01*
X93361887Y-99763852D01*
X93325791Y-99767309D01*
X93127681Y-99786656D01*
X92978922Y-99802721D01*
X92872612Y-99816836D01*
X92801848Y-99830337D01*
X92759725Y-99844558D01*
X92739340Y-99860832D01*
X92733790Y-99880494D01*
X92733778Y-99881723D01*
X92741904Y-99907115D01*
X92770343Y-99925842D01*
X92825188Y-99938414D01*
X92912534Y-99945339D01*
X93038473Y-99947128D01*
X93209098Y-99944289D01*
X93408391Y-99938112D01*
X93714018Y-99925915D01*
X93969099Y-99912027D01*
X94179529Y-99895592D01*
X94351199Y-99875753D01*
X94490004Y-99851655D01*
X94601837Y-99822443D01*
X94692590Y-99787260D01*
X94768157Y-99745251D01*
X94776979Y-99739375D01*
X94841858Y-99698044D01*
X94875981Y-99687876D01*
X94893882Y-99706347D01*
X94898690Y-99718253D01*
X94916835Y-99763613D01*
X94951721Y-99847739D01*
X94997873Y-99957510D01*
X95036968Y-100049666D01*
X95083999Y-100165526D01*
X95118710Y-100261706D01*
X95137299Y-100326910D01*
X95137851Y-100349332D01*
X97134277Y-100349332D01*
X97182254Y-100272489D01*
X97268889Y-100175672D01*
X97347569Y-100114583D01*
X97396447Y-100094442D01*
X97412656Y-100115956D01*
X97407960Y-100141389D01*
X97390283Y-100245252D01*
X97390956Y-100358377D01*
X97407152Y-100466885D01*
X97436041Y-100556901D01*
X97474798Y-100614548D01*
X97507178Y-100628222D01*
X97550731Y-100641132D01*
X97632336Y-100676168D01*
X97740844Y-100727787D01*
X97865109Y-100790448D01*
X97993982Y-100858607D01*
X98116317Y-100926722D01*
X98166556Y-100956056D01*
X98262013Y-101009636D01*
X98394346Y-101079558D01*
X98549208Y-101158453D01*
X98712252Y-101238954D01*
X98794326Y-101278441D01*
X99224540Y-101483355D01*
X100107390Y-101483355D01*
X100112557Y-101431035D01*
X100123345Y-101290637D01*
X100134496Y-101117875D01*
X100145458Y-100920764D01*
X100155683Y-100707320D01*
X100158000Y-100653770D01*
X100193354Y-99818540D01*
X100319682Y-99738618D01*
X100452813Y-99625588D01*
X100560222Y-99478085D01*
X100635405Y-99310522D01*
X100671857Y-99137311D01*
X100663771Y-98976145D01*
X100627625Y-98800564D01*
X100602640Y-98669080D01*
X100588050Y-98570621D01*
X100583089Y-98494113D01*
X100586989Y-98428486D01*
X100598985Y-98362666D01*
X100616454Y-98292649D01*
X100642659Y-98214293D01*
X100689809Y-98095035D01*
X100753739Y-97944526D01*
X100830283Y-97772413D01*
X100915275Y-97588347D01*
X100972023Y-97469052D01*
X101119364Y-97161317D01*
X101244880Y-96894745D01*
X101352410Y-96660231D01*
X101445795Y-96448666D01*
X101528876Y-96250944D01*
X101605491Y-96057955D01*
X101679483Y-95860594D01*
X101706569Y-95784658D01*
X98514365Y-95784658D01*
X98503518Y-95839638D01*
X98470861Y-95921095D01*
X98414075Y-96036063D01*
X98330839Y-96191570D01*
X98319192Y-96212870D01*
X98154041Y-96524658D01*
X98020768Y-96799716D01*
X97916141Y-97045507D01*
X97836925Y-97269494D01*
X97791150Y-97432055D01*
X97760910Y-97550571D01*
X97735240Y-97645589D01*
X97717284Y-97705802D01*
X97710682Y-97721333D01*
X97689016Y-97702377D01*
X97634001Y-97649714D01*
X97552098Y-97569657D01*
X97449766Y-97468516D01*
X97341709Y-97360849D01*
X97097589Y-97102727D01*
X96880315Y-96844733D01*
X96696507Y-96595415D01*
X96552785Y-96363325D01*
X96517355Y-96296111D01*
X96471966Y-96188648D01*
X96425334Y-96050189D01*
X96385505Y-95905413D01*
X96375039Y-95859587D01*
X96346672Y-95740313D01*
X96317648Y-95640206D01*
X96292346Y-95573487D01*
X96281570Y-95556141D01*
X96233333Y-95526489D01*
X96154653Y-95494580D01*
X96119670Y-95483508D01*
X96040797Y-95455995D01*
X96000334Y-95422558D01*
X95981239Y-95366731D01*
X95977627Y-95346243D01*
X95973528Y-95267470D01*
X95977573Y-95143872D01*
X95988552Y-94986288D01*
X96005255Y-94805558D01*
X96026472Y-94612519D01*
X96050995Y-94418012D01*
X96077614Y-94232876D01*
X96105119Y-94067950D01*
X96132301Y-93934072D01*
X96137751Y-93911333D01*
X96180195Y-93754402D01*
X96231492Y-93585415D01*
X96283126Y-93431813D01*
X96304168Y-93375111D01*
X96347626Y-93262012D01*
X96384577Y-93164293D01*
X96409238Y-93097313D01*
X96414556Y-93081991D01*
X96420944Y-93060177D01*
X96428200Y-93047001D01*
X96442820Y-93046794D01*
X96471303Y-93063891D01*
X96520146Y-93102623D01*
X96595848Y-93167324D01*
X96704907Y-93262326D01*
X96769556Y-93318693D01*
X96864329Y-93403505D01*
X96988758Y-93518189D01*
X97132377Y-93652915D01*
X97284721Y-93797853D01*
X97435323Y-93943172D01*
X97461000Y-93968183D01*
X97681802Y-94181340D01*
X97868513Y-94356416D01*
X98025210Y-94496912D01*
X98155967Y-94606333D01*
X98264861Y-94688182D01*
X98355967Y-94745963D01*
X98382094Y-94759975D01*
X98494844Y-94817496D01*
X98426242Y-94871458D01*
X98351501Y-94953821D01*
X98309211Y-95062720D01*
X98296484Y-95207802D01*
X98300025Y-95293089D01*
X98323125Y-95442137D01*
X98366690Y-95574273D01*
X98424926Y-95675557D01*
X98479918Y-95726013D01*
X98505725Y-95749127D01*
X98514365Y-95784658D01*
X101706569Y-95784658D01*
X101754690Y-95649753D01*
X101824068Y-95448357D01*
X101906536Y-95202603D01*
X101970144Y-95002155D01*
X102015822Y-94839456D01*
X102044501Y-94706952D01*
X102057113Y-94597086D01*
X102054589Y-94502303D01*
X102037860Y-94415048D01*
X102007857Y-94327764D01*
X101972135Y-94246891D01*
X101904091Y-94129095D01*
X101793425Y-93974485D01*
X101640219Y-93783159D01*
X101444554Y-93555216D01*
X101206509Y-93290754D01*
X101036280Y-93107000D01*
X100813159Y-92856040D01*
X100574722Y-92565666D01*
X100329546Y-92247602D01*
X100086209Y-91913570D01*
X99853289Y-91575294D01*
X99639364Y-91244498D01*
X99480440Y-90980672D01*
X99402553Y-90850867D01*
X99313374Y-90709223D01*
X99232125Y-90586263D01*
X99231643Y-90585561D01*
X99112095Y-90419384D01*
X99008791Y-90297596D01*
X98913012Y-90213960D01*
X98816041Y-90162239D01*
X98709161Y-90136197D01*
X98594238Y-90129555D01*
X98493920Y-90124096D01*
X98433387Y-90104768D01*
X98402831Y-90076190D01*
X98361594Y-90023369D01*
X98291072Y-89937198D01*
X98199051Y-89826893D01*
X98093320Y-89701669D01*
X97981664Y-89570739D01*
X97871871Y-89443319D01*
X97771727Y-89328622D01*
X97756275Y-89311111D01*
X97672132Y-89212775D01*
X97565323Y-89083262D01*
X97447125Y-88936493D01*
X97328814Y-88786389D01*
X97276219Y-88718444D01*
X97154643Y-88567132D01*
X97006304Y-88393038D01*
X96845396Y-88212222D01*
X96686111Y-88040741D01*
X96587145Y-87938845D01*
X96439267Y-87791770D01*
X96320580Y-87678584D01*
X96221962Y-87591725D01*
X96134293Y-87523633D01*
X96048452Y-87466744D01*
X95955316Y-87413498D01*
X95949945Y-87410603D01*
X95771699Y-87322192D01*
X95727904Y-87305460D01*
X93467556Y-87305460D01*
X93456641Y-87340521D01*
X93427920Y-87411826D01*
X93387424Y-87504457D01*
X93384154Y-87511687D01*
X93335462Y-87627902D01*
X93292258Y-87746161D01*
X93267250Y-87828675D01*
X93235686Y-87919740D01*
X93185155Y-87989113D01*
X93103707Y-88056505D01*
X93012525Y-88119768D01*
X92888415Y-88201375D01*
X92740740Y-88295607D01*
X92578863Y-88396747D01*
X92412147Y-88499076D01*
X92249956Y-88596876D01*
X92101651Y-88684427D01*
X91976596Y-88756013D01*
X91884154Y-88805914D01*
X91849365Y-88822584D01*
X91686260Y-88871904D01*
X91522111Y-88884191D01*
X91375076Y-88858746D01*
X91334256Y-88842356D01*
X91260824Y-88793413D01*
X91163001Y-88708216D01*
X91049552Y-88596191D01*
X90929239Y-88466765D01*
X90810827Y-88329367D01*
X90703078Y-88193424D01*
X90614756Y-88068362D01*
X90614715Y-88068298D01*
X90543820Y-87955911D01*
X90500008Y-87874874D01*
X90477515Y-87810632D01*
X90470575Y-87748633D01*
X90471469Y-87706653D01*
X90481555Y-87574514D01*
X90499680Y-87485247D01*
X90531043Y-87425352D01*
X90580842Y-87381330D01*
X90601811Y-87368218D01*
X90695655Y-87312849D01*
X90771909Y-87492269D01*
X90832499Y-87619441D01*
X90885228Y-87698821D01*
X90927993Y-87727690D01*
X90947883Y-87719747D01*
X90956211Y-87678795D01*
X90951232Y-87594821D01*
X90935036Y-87479105D01*
X90909716Y-87342928D01*
X90877366Y-87197569D01*
X90840077Y-87054310D01*
X90800843Y-86927068D01*
X90762428Y-86810474D01*
X90733480Y-86715290D01*
X90717356Y-86653041D01*
X90715753Y-86634840D01*
X90744563Y-86640093D01*
X90817883Y-86661300D01*
X90926967Y-86695712D01*
X91063068Y-86740580D01*
X91196484Y-86785925D01*
X91666475Y-86947750D01*
X92023738Y-86932914D01*
X92267244Y-86914909D01*
X92472981Y-86880464D01*
X92658250Y-86825521D01*
X92840349Y-86746026D01*
X92857206Y-86737512D01*
X92966904Y-86681548D01*
X92947755Y-86757844D01*
X92918836Y-86887527D01*
X92906651Y-86992988D01*
X92909027Y-87103192D01*
X92916097Y-87179552D01*
X92932471Y-87289779D01*
X92953328Y-87349154D01*
X92975376Y-87363778D01*
X93010972Y-87339694D01*
X93032850Y-87292360D01*
X93061262Y-87238710D01*
X93096887Y-87233604D01*
X93149412Y-87243667D01*
X93235945Y-87256202D01*
X93305278Y-87264719D01*
X93392354Y-87278125D01*
X93451254Y-87293899D01*
X93467556Y-87305460D01*
X95727904Y-87305460D01*
X95606766Y-87259180D01*
X95438715Y-87217730D01*
X95251115Y-87194006D01*
X95027534Y-87184170D01*
X94977445Y-87183536D01*
X94818667Y-87183418D01*
X94661169Y-87185492D01*
X94523637Y-87189386D01*
X94428361Y-87194444D01*
X94246166Y-87208555D01*
X94219517Y-87116311D01*
X94208651Y-87068947D01*
X94213096Y-87030403D01*
X94240023Y-86988478D01*
X94296605Y-86930970D01*
X94365617Y-86867738D01*
X94462197Y-86773362D01*
X94573798Y-86653716D01*
X94681929Y-86528947D01*
X94723471Y-86477833D01*
X94809734Y-86373051D01*
X94892678Y-86279345D01*
X94960620Y-86209581D01*
X94990642Y-86183582D01*
X95045655Y-86145804D01*
X95072520Y-86141491D01*
X95087326Y-86169048D01*
X95088874Y-86173846D01*
X95123665Y-86233662D01*
X95187338Y-86303638D01*
X95268156Y-86374914D01*
X95354376Y-86438632D01*
X95434260Y-86485933D01*
X95496067Y-86507959D01*
X95523938Y-86502136D01*
X95531445Y-86469738D01*
X95540717Y-86392928D01*
X95550505Y-86283663D01*
X95558521Y-86170720D01*
X95581987Y-85946021D01*
X95625660Y-85680187D01*
X95687425Y-85383928D01*
X95765172Y-85067956D01*
X95804707Y-84922555D01*
X95849156Y-84796091D01*
X95912579Y-84654261D01*
X95981265Y-84527720D01*
X95981434Y-84527444D01*
X96048961Y-84409951D01*
X96125493Y-84265064D01*
X96198192Y-84117434D01*
X96223937Y-84061778D01*
X96285758Y-83930969D01*
X96337094Y-83840099D01*
X96386925Y-83776126D01*
X96444231Y-83726006D01*
X96465564Y-83710797D01*
X96674393Y-83556766D01*
X96901975Y-83370593D01*
X97139820Y-83160667D01*
X97379437Y-82935373D01*
X97612333Y-82703099D01*
X97830016Y-82472231D01*
X98023996Y-82251157D01*
X98185781Y-82048263D01*
X98271873Y-81926766D01*
X98391887Y-81732963D01*
X98476289Y-81562502D01*
X98530772Y-81400252D01*
X98561023Y-81231081D01*
X98568994Y-81136603D01*
X98569791Y-81116391D01*
X98329583Y-81116391D01*
X98325883Y-81226782D01*
X98312784Y-81315802D01*
X98284804Y-81404742D01*
X98236465Y-81514895D01*
X98216015Y-81557659D01*
X98146883Y-81689317D01*
X98066155Y-81826206D01*
X97989384Y-81942205D01*
X97976908Y-81959222D01*
X97820713Y-82154095D01*
X97630251Y-82369873D01*
X97417120Y-82594558D01*
X97192917Y-82816155D01*
X96969239Y-83022668D01*
X96844345Y-83130781D01*
X96718043Y-83236947D01*
X96607657Y-83329446D01*
X96520009Y-83402587D01*
X96461919Y-83450677D01*
X96440220Y-83468023D01*
X96443471Y-83444946D01*
X96457724Y-83387022D01*
X96460312Y-83377389D01*
X96482658Y-83282702D01*
X96511651Y-83141266D01*
X96545768Y-82962181D01*
X96583485Y-82754548D01*
X96623279Y-82527468D01*
X96663627Y-82290041D01*
X96703006Y-82051368D01*
X96739893Y-81820550D01*
X96772764Y-81606687D01*
X96800097Y-81418880D01*
X96820367Y-81266230D01*
X96832052Y-81157837D01*
X96832293Y-81154889D01*
X96849044Y-80974023D01*
X96870306Y-80838597D01*
X96902455Y-80737639D01*
X96951871Y-80660175D01*
X97024929Y-80595233D01*
X97128009Y-80531839D01*
X97223800Y-80481300D01*
X97355931Y-80418162D01*
X97458546Y-80381582D01*
X97548648Y-80366152D01*
X97590503Y-80364666D01*
X97761894Y-80390932D01*
X97932176Y-80464382D01*
X98088475Y-80576996D01*
X98217920Y-80720753D01*
X98255826Y-80779198D01*
X98297082Y-80859229D01*
X98319768Y-80936165D01*
X98328765Y-81032330D01*
X98329583Y-81116391D01*
X98569791Y-81116391D01*
X98573870Y-81012968D01*
X98568859Y-80923703D01*
X98550687Y-80847123D01*
X98516083Y-80761543D01*
X98510584Y-80749449D01*
X98449996Y-80641016D01*
X98368475Y-80524713D01*
X98306258Y-80450747D01*
X98216793Y-80369126D01*
X98106317Y-80288419D01*
X97989633Y-80217433D01*
X97881541Y-80164981D01*
X97796844Y-80139870D01*
X97782300Y-80138889D01*
X97752679Y-80134584D01*
X97745759Y-80112225D01*
X97760531Y-80057643D01*
X97773801Y-80019322D01*
X97779349Y-80001084D01*
X96722014Y-80001084D01*
X96719024Y-80069131D01*
X96701323Y-80105099D01*
X96652623Y-80135086D01*
X96561920Y-80165181D01*
X96529688Y-80173882D01*
X96404777Y-80213404D01*
X96246185Y-80273455D01*
X96069589Y-80347179D01*
X95890664Y-80427723D01*
X95725089Y-80508234D01*
X95588540Y-80581857D01*
X95566042Y-80595182D01*
X95472589Y-80655240D01*
X95354385Y-80736233D01*
X95231237Y-80824448D01*
X95179846Y-80862574D01*
X94949222Y-81035926D01*
X94904725Y-80919019D01*
X94866398Y-80817490D01*
X94823721Y-80703286D01*
X94810221Y-80666883D01*
X94768344Y-80579070D01*
X94718880Y-80509849D01*
X94696010Y-80489587D01*
X94622864Y-80457919D01*
X94526278Y-80436057D01*
X94426539Y-80426264D01*
X94343932Y-80430801D01*
X94304231Y-80445914D01*
X94275384Y-80458130D01*
X94256577Y-80428022D01*
X94246644Y-80386286D01*
X94222171Y-80318468D01*
X94174293Y-80223561D01*
X94112601Y-80120267D01*
X94101690Y-80103611D01*
X93975106Y-79913111D01*
X94089848Y-79913111D01*
X94166553Y-79918968D01*
X94277716Y-79934589D01*
X94408370Y-79957047D01*
X94543543Y-79983416D01*
X94668265Y-80010770D01*
X94767568Y-80036183D01*
X94826480Y-80056729D01*
X94827637Y-80057329D01*
X94857855Y-80094913D01*
X94896986Y-80173742D01*
X94938846Y-80280671D01*
X94954637Y-80327337D01*
X95003029Y-80463322D01*
X95043338Y-80550383D01*
X95073838Y-80587473D01*
X95092807Y-80573543D01*
X95098520Y-80507545D01*
X95091772Y-80410707D01*
X95085390Y-80248212D01*
X95104224Y-80125527D01*
X95105359Y-80122008D01*
X95121231Y-80061283D01*
X95117598Y-80015281D01*
X95087088Y-79977678D01*
X95022326Y-79942152D01*
X94915937Y-79902380D01*
X94808111Y-79867148D01*
X94554111Y-79786111D01*
X93806222Y-79788781D01*
X93549866Y-79790486D01*
X93340570Y-79794413D01*
X93168959Y-79801813D01*
X93025657Y-79813935D01*
X92901289Y-79832031D01*
X92786479Y-79857351D01*
X92671851Y-79891145D01*
X92548029Y-79934663D01*
X92458969Y-79968450D01*
X92308871Y-80032264D01*
X92172247Y-80101236D01*
X92055577Y-80170715D01*
X91965342Y-80236054D01*
X91908021Y-80292603D01*
X91890096Y-80335713D01*
X91913894Y-80359483D01*
X91931560Y-80386049D01*
X91927955Y-80395299D01*
X91930657Y-80417090D01*
X91963878Y-80418901D01*
X92005740Y-80401738D01*
X92018707Y-80391115D01*
X92039662Y-80391054D01*
X92057019Y-80440300D01*
X92068312Y-80508947D01*
X92088505Y-80605289D01*
X92126875Y-80740714D01*
X92178999Y-80902584D01*
X92240453Y-81078261D01*
X92306812Y-81255105D01*
X92373652Y-81420479D01*
X92436549Y-81561744D01*
X92437676Y-81564111D01*
X92496362Y-81673647D01*
X92561163Y-81774044D01*
X92618457Y-81844282D01*
X92620573Y-81846333D01*
X92709234Y-81931000D01*
X93651000Y-81931000D01*
X94017889Y-81804000D01*
X94171354Y-81749334D01*
X94278193Y-81707011D01*
X94345908Y-81673368D01*
X94382001Y-81644742D01*
X94393600Y-81620555D01*
X94407936Y-81489730D01*
X94231029Y-81489730D01*
X94209321Y-81552815D01*
X94153999Y-81596553D01*
X94100367Y-81606444D01*
X94035140Y-81588773D01*
X94005067Y-81565664D01*
X93974273Y-81494644D01*
X93987912Y-81427592D01*
X94034874Y-81378503D01*
X94104045Y-81361375D01*
X94156809Y-81374533D01*
X94214924Y-81424551D01*
X94231029Y-81489730D01*
X94407936Y-81489730D01*
X94416747Y-81409327D01*
X94415020Y-81210103D01*
X94387590Y-80996792D01*
X94371091Y-80910684D01*
X94344400Y-80783549D01*
X94320202Y-80674023D01*
X94303042Y-80601894D01*
X92809707Y-80601894D01*
X92806645Y-80727384D01*
X92786196Y-80844569D01*
X92750869Y-80934152D01*
X92731457Y-80959654D01*
X92654381Y-81001956D01*
X92550192Y-81016754D01*
X92440782Y-81004558D01*
X92348042Y-80965875D01*
X92327945Y-80950278D01*
X92289255Y-80895532D01*
X92243665Y-80802246D01*
X92197208Y-80686818D01*
X92155921Y-80565652D01*
X92125837Y-80455146D01*
X92112993Y-80371702D01*
X92112889Y-80365843D01*
X92129474Y-80330403D01*
X92184015Y-80290957D01*
X92283691Y-80242723D01*
X92322594Y-80226189D01*
X92424452Y-80185253D01*
X92507428Y-80154606D01*
X92556876Y-80139579D01*
X92562306Y-80138889D01*
X92600639Y-80162230D01*
X92652288Y-80222512D01*
X92707583Y-80305122D01*
X92756858Y-80395447D01*
X92790445Y-80478875D01*
X92792872Y-80487394D01*
X92809707Y-80601894D01*
X94303042Y-80601894D01*
X94301600Y-80595834D01*
X94293190Y-80566019D01*
X94286219Y-80537232D01*
X94305871Y-80546431D01*
X94332436Y-80568925D01*
X94400651Y-80614135D01*
X94476100Y-80648518D01*
X94514550Y-80665732D01*
X94546190Y-80693325D01*
X94576518Y-80740910D01*
X94611030Y-80818102D01*
X94655225Y-80934514D01*
X94682050Y-81008704D01*
X94732364Y-81158829D01*
X94777730Y-81312131D01*
X94812631Y-81448921D01*
X94829714Y-81535889D01*
X94859084Y-81733444D01*
X94727764Y-81975653D01*
X94651402Y-82124769D01*
X94608599Y-82229670D01*
X94599561Y-82291677D01*
X94624496Y-82312111D01*
X94683611Y-82292296D01*
X94769050Y-82239177D01*
X94887178Y-82132450D01*
X94989338Y-81994998D01*
X95046423Y-81879774D01*
X95065315Y-81792426D01*
X95074423Y-81671869D01*
X95073595Y-81540511D01*
X95062677Y-81420760D01*
X95049970Y-81359313D01*
X95037555Y-81298205D01*
X95041523Y-81268360D01*
X95043598Y-81267778D01*
X95075252Y-81254462D01*
X95143502Y-81218774D01*
X95236374Y-81167099D01*
X95288573Y-81137106D01*
X95495925Y-81017538D01*
X95670152Y-80919273D01*
X95826331Y-80834254D01*
X95979542Y-80754421D01*
X96144867Y-80671718D01*
X96309809Y-80591390D01*
X96719037Y-80393734D01*
X96699622Y-80654367D01*
X96663484Y-81034788D01*
X96612040Y-81427776D01*
X96549374Y-81803263D01*
X96530050Y-81902778D01*
X96500547Y-82052855D01*
X96464998Y-82238961D01*
X96427085Y-82441523D01*
X96390491Y-82640970D01*
X96375398Y-82724701D01*
X96326026Y-82990887D01*
X96280931Y-83211239D01*
X96237517Y-83395948D01*
X96193189Y-83555207D01*
X96145354Y-83699207D01*
X96092770Y-83834863D01*
X95932526Y-84182065D01*
X95753846Y-84494440D01*
X95561344Y-84764695D01*
X95373019Y-84972741D01*
X95257229Y-85072279D01*
X95096668Y-85192022D01*
X94897623Y-85328118D01*
X94666386Y-85476715D01*
X94409243Y-85633961D01*
X94132485Y-85796002D01*
X93842401Y-85958987D01*
X93545278Y-86119063D01*
X93270000Y-86261013D01*
X93025018Y-86383010D01*
X92820332Y-86480554D01*
X92646793Y-86556418D01*
X92495253Y-86613375D01*
X92356564Y-86654199D01*
X92221576Y-86681662D01*
X92081143Y-86698537D01*
X91926116Y-86707598D01*
X91785210Y-86711088D01*
X91682518Y-86711287D01*
X91602075Y-86705389D01*
X91527607Y-86689238D01*
X91442839Y-86658682D01*
X91331495Y-86609567D01*
X91263099Y-86577838D01*
X91025291Y-86475470D01*
X90752017Y-86374255D01*
X90438214Y-86272559D01*
X90078818Y-86168751D01*
X89668766Y-86061199D01*
X89629334Y-86051313D01*
X89528402Y-86023523D01*
X89385059Y-85980546D01*
X89210142Y-85925924D01*
X89014488Y-85863194D01*
X88808934Y-85795897D01*
X88604318Y-85727572D01*
X88411475Y-85661759D01*
X88241243Y-85601997D01*
X88133556Y-85562765D01*
X87990513Y-85503981D01*
X87878464Y-85446886D01*
X87808371Y-85397180D01*
X87801743Y-85390250D01*
X87738876Y-85301418D01*
X87662492Y-85164919D01*
X87575375Y-84987129D01*
X87480310Y-84774420D01*
X87471504Y-84753222D01*
X87286948Y-84753222D01*
X87102925Y-84555666D01*
X87000991Y-84441275D01*
X86895177Y-84314520D01*
X86804864Y-84198788D01*
X86787228Y-84174666D01*
X86586059Y-83911116D01*
X86363870Y-83654336D01*
X86265429Y-83548977D01*
X86133267Y-83388650D01*
X86029394Y-83218999D01*
X85961474Y-83054075D01*
X85939749Y-82951905D01*
X85945882Y-82834631D01*
X85996281Y-82745883D01*
X86094078Y-82682229D01*
X86220534Y-82644515D01*
X86321124Y-82627329D01*
X86395001Y-82627977D01*
X86469639Y-82648487D01*
X86514351Y-82666210D01*
X86646855Y-82721222D01*
X86711413Y-82975222D01*
X86750940Y-83121766D01*
X86796917Y-83278918D01*
X86840535Y-83416773D01*
X86847925Y-83438598D01*
X86880353Y-83538414D01*
X86901936Y-83615690D01*
X86908969Y-83656800D01*
X86908066Y-83659786D01*
X86885190Y-83645109D01*
X86830316Y-83596746D01*
X86750761Y-83521509D01*
X86653845Y-83426212D01*
X86612595Y-83384749D01*
X86509522Y-83283642D01*
X86419021Y-83200712D01*
X86348884Y-83142662D01*
X86306905Y-83116194D01*
X86299913Y-83115837D01*
X86273195Y-83152818D01*
X86278709Y-83213576D01*
X86318167Y-83301197D01*
X86393280Y-83418767D01*
X86505760Y-83569371D01*
X86650598Y-83748030D01*
X86748601Y-83863863D01*
X86845599Y-83975268D01*
X86929435Y-84068455D01*
X86981324Y-84123101D01*
X87049940Y-84200264D01*
X87103557Y-84275705D01*
X87121125Y-84309849D01*
X87146262Y-84375953D01*
X87182691Y-84472926D01*
X87218805Y-84569778D01*
X87286948Y-84753222D01*
X87471504Y-84753222D01*
X87380081Y-84533165D01*
X87277472Y-84269739D01*
X87175268Y-83990515D01*
X87116607Y-83821889D01*
X87052800Y-83641013D01*
X86983433Y-83454727D01*
X86914891Y-83279524D01*
X86853558Y-83131900D01*
X86823590Y-83064953D01*
X86770827Y-82949619D01*
X86728445Y-82852610D01*
X86701427Y-82785612D01*
X86694222Y-82761564D01*
X86714213Y-82736767D01*
X86759644Y-82738309D01*
X86808710Y-82761652D01*
X86834826Y-82790828D01*
X86879813Y-82830711D01*
X86962665Y-82871230D01*
X87065257Y-82905877D01*
X87169463Y-82928140D01*
X87230374Y-82932889D01*
X87276018Y-82940463D01*
X87311381Y-82971326D01*
X87347373Y-83037687D01*
X87369061Y-83088110D01*
X87420133Y-83187523D01*
X87479527Y-83268992D01*
X87512666Y-83299777D01*
X87607451Y-83343242D01*
X87712967Y-83356049D01*
X87808519Y-83338093D01*
X87863835Y-83301556D01*
X87895329Y-83243492D01*
X87881154Y-83200897D01*
X87834155Y-83186889D01*
X87734875Y-83159791D01*
X87645143Y-83082932D01*
X87572625Y-82962966D01*
X87570483Y-82958044D01*
X87537684Y-82867731D01*
X87502873Y-82748483D01*
X87468261Y-82611253D01*
X87436059Y-82466995D01*
X87408477Y-82326663D01*
X87387727Y-82201212D01*
X87376019Y-82101596D01*
X87375563Y-82038768D01*
X87381807Y-82023154D01*
X87461888Y-82002707D01*
X87555163Y-82027181D01*
X87609125Y-82061217D01*
X87662746Y-82098209D01*
X87694531Y-82110504D01*
X87696223Y-82109629D01*
X87687381Y-82082431D01*
X87654015Y-82019839D01*
X87602574Y-81933647D01*
X87582582Y-81901801D01*
X87524640Y-81807202D01*
X87480785Y-81729142D01*
X87458388Y-81680961D01*
X87456957Y-81674395D01*
X87480285Y-81651014D01*
X87541643Y-81612503D01*
X87627126Y-81565839D01*
X87722831Y-81518003D01*
X87814854Y-81475973D01*
X87889291Y-81446730D01*
X87929661Y-81437111D01*
X87951660Y-81446455D01*
X87969154Y-81480816D01*
X87984881Y-81549683D01*
X88001580Y-81662549D01*
X88007040Y-81705222D01*
X88031036Y-81830409D01*
X88073447Y-81985284D01*
X88130053Y-82159292D01*
X88196634Y-82341878D01*
X88268969Y-82522487D01*
X88342838Y-82690565D01*
X88414021Y-82835557D01*
X88478299Y-82946908D01*
X88529739Y-83012496D01*
X88556022Y-83034876D01*
X88585246Y-83050673D01*
X88626424Y-83060624D01*
X88688571Y-83065466D01*
X88780699Y-83065935D01*
X88911823Y-83062768D01*
X89076877Y-83057197D01*
X89260219Y-83049933D01*
X89398527Y-83041893D01*
X89503206Y-83031555D01*
X89585662Y-83017396D01*
X89657301Y-82997894D01*
X89729527Y-82971527D01*
X89734957Y-82969361D01*
X89826721Y-82930123D01*
X89895813Y-82895911D01*
X89926873Y-82874493D01*
X89936854Y-82835545D01*
X89948025Y-82758118D01*
X89956688Y-82672984D01*
X89956901Y-82668347D01*
X89708696Y-82668347D01*
X89684278Y-82723030D01*
X89627474Y-82753424D01*
X89550307Y-82755502D01*
X89479916Y-82731435D01*
X89451635Y-82704423D01*
X89435421Y-82636101D01*
X89452418Y-82561486D01*
X89494786Y-82506215D01*
X89515444Y-82495762D01*
X89591044Y-82495654D01*
X89655881Y-82534382D01*
X89698812Y-82596945D01*
X89708696Y-82668347D01*
X89956901Y-82668347D01*
X89960755Y-82584576D01*
X89955234Y-82499196D01*
X89937614Y-82401677D01*
X89905385Y-82276850D01*
X89872454Y-82163985D01*
X89814387Y-81975751D01*
X89763634Y-81828417D01*
X89713787Y-81708129D01*
X89709068Y-81698997D01*
X88576130Y-81698997D01*
X88563092Y-81787092D01*
X88560573Y-81793074D01*
X88531786Y-81840913D01*
X88510200Y-81851384D01*
X88510139Y-81851324D01*
X88480224Y-81855102D01*
X88451260Y-81877375D01*
X88388721Y-81903489D01*
X88299562Y-81896422D01*
X88201079Y-81858456D01*
X88170784Y-81840392D01*
X88122083Y-81783618D01*
X88085950Y-81681582D01*
X88076704Y-81639483D01*
X88057158Y-81543894D01*
X88040312Y-81466795D01*
X88032593Y-81435286D01*
X88041291Y-81403091D01*
X88091853Y-81372059D01*
X88171072Y-81343563D01*
X88293885Y-81309328D01*
X88377652Y-81299524D01*
X88434628Y-81315038D01*
X88477065Y-81356758D01*
X88483501Y-81366193D01*
X88532512Y-81467377D01*
X88564663Y-81585368D01*
X88576130Y-81698997D01*
X89709068Y-81698997D01*
X89658442Y-81601035D01*
X89591190Y-81493282D01*
X89505934Y-81371442D01*
X89425197Y-81254460D01*
X89379985Y-81174308D01*
X89368539Y-81125440D01*
X89389098Y-81102307D01*
X89419333Y-81098444D01*
X89461609Y-81090677D01*
X89457650Y-81071209D01*
X89414897Y-81045790D01*
X89340794Y-81020170D01*
X89307253Y-81011864D01*
X89169908Y-80995780D01*
X88989702Y-80997150D01*
X88777102Y-81014934D01*
X88542573Y-81048090D01*
X88296581Y-81095575D01*
X88169485Y-81125122D01*
X87955064Y-81184287D01*
X87756141Y-81251179D01*
X87579486Y-81322518D01*
X87431865Y-81395024D01*
X87320047Y-81465417D01*
X87250797Y-81530418D01*
X87230445Y-81580242D01*
X87239555Y-81620361D01*
X87253720Y-81623613D01*
X87278071Y-81638110D01*
X87314706Y-81690972D01*
X87338019Y-81734836D01*
X87399044Y-81860444D01*
X87316345Y-81860444D01*
X87231588Y-81885781D01*
X87170853Y-81953198D01*
X87145355Y-82049800D01*
X87145180Y-82057224D01*
X87149519Y-82114695D01*
X87161688Y-82212092D01*
X87179602Y-82333775D01*
X87193220Y-82417771D01*
X87214770Y-82564099D01*
X87223522Y-82668517D01*
X87219092Y-82725461D01*
X87214984Y-82732603D01*
X87177369Y-82733109D01*
X87097130Y-82709833D01*
X86981652Y-82665165D01*
X86907427Y-82633073D01*
X86793252Y-82581867D01*
X86700231Y-82539581D01*
X86639152Y-82511155D01*
X86620463Y-82501647D01*
X86623770Y-82473407D01*
X86638827Y-82406883D01*
X86656064Y-82340184D01*
X86681555Y-82166353D01*
X86677021Y-81953047D01*
X86643670Y-81707806D01*
X86582712Y-81438170D01*
X86495357Y-81151678D01*
X86441568Y-81002918D01*
X86391983Y-80871458D01*
X86360774Y-80782017D01*
X86346098Y-80723918D01*
X86346110Y-80686482D01*
X86358967Y-80659030D01*
X86378204Y-80636029D01*
X86712885Y-80242394D01*
X86997384Y-79862918D01*
X87234856Y-79493289D01*
X87304916Y-79370056D01*
X87357289Y-79276995D01*
X87395494Y-79213451D01*
X87414790Y-79187035D01*
X87414925Y-79193444D01*
X87396747Y-79234849D01*
X87354898Y-79319059D01*
X87288790Y-79447194D01*
X87197834Y-79620372D01*
X87081444Y-79839713D01*
X86939032Y-80106336D01*
X86777728Y-80407000D01*
X86731092Y-80499240D01*
X86693981Y-80582284D01*
X86680610Y-80618666D01*
X86646610Y-80694170D01*
X86615955Y-80738611D01*
X86593256Y-80775870D01*
X86601594Y-80788000D01*
X86658107Y-80773466D01*
X86752497Y-80733315D01*
X86875332Y-80672720D01*
X87017185Y-80596856D01*
X87168624Y-80510897D01*
X87320220Y-80420016D01*
X87462543Y-80329388D01*
X87565140Y-80259301D01*
X87744613Y-80131635D01*
X87942349Y-80164291D01*
X88066450Y-80189603D01*
X88215003Y-80226884D01*
X88359402Y-80268850D01*
X88383765Y-80276673D01*
X88537566Y-80323200D01*
X88671121Y-80356351D01*
X88776126Y-80374659D01*
X88844280Y-80376662D01*
X88867334Y-80361981D01*
X88890744Y-80339232D01*
X88916722Y-80334216D01*
X88945453Y-80328021D01*
X88927640Y-80316689D01*
X88904431Y-80298016D01*
X88924697Y-80279432D01*
X88950276Y-80250868D01*
X88937551Y-80217422D01*
X88882942Y-80176737D01*
X88782868Y-80126459D01*
X88633750Y-80064231D01*
X88546099Y-80030336D01*
X88407720Y-79978540D01*
X88287141Y-79934880D01*
X88194638Y-79902966D01*
X88140486Y-79886406D01*
X88131975Y-79884889D01*
X88110760Y-79878654D01*
X88115179Y-79856915D01*
X88149250Y-79815115D01*
X88216992Y-79748699D01*
X88322423Y-79653111D01*
X88385902Y-79597020D01*
X88665242Y-79332705D01*
X88872807Y-79108778D01*
X87456222Y-79108778D01*
X87442111Y-79122889D01*
X87428000Y-79108778D01*
X87442111Y-79094666D01*
X87456222Y-79108778D01*
X88872807Y-79108778D01*
X88935158Y-79041512D01*
X89186082Y-78735352D01*
X89319800Y-78549408D01*
X87670122Y-78549408D01*
X87654857Y-78608803D01*
X87625632Y-78695919D01*
X87587943Y-78797008D01*
X87547287Y-78898324D01*
X87509159Y-78986119D01*
X87479057Y-79046646D01*
X87463401Y-79066444D01*
X87461451Y-79045050D01*
X87470784Y-79017055D01*
X87489470Y-78969963D01*
X87522503Y-78884615D01*
X87564273Y-78775553D01*
X87587823Y-78713666D01*
X87626441Y-78616686D01*
X87654850Y-78554641D01*
X87669732Y-78534154D01*
X87670122Y-78549408D01*
X89319800Y-78549408D01*
X89408448Y-78426139D01*
X89592686Y-78125784D01*
X89642538Y-78032492D01*
X89689096Y-77944191D01*
X89724016Y-77882578D01*
X89741248Y-77858186D01*
X89742085Y-77859210D01*
X89730052Y-77909349D01*
X89696425Y-78000118D01*
X89645449Y-78121967D01*
X89581369Y-78265342D01*
X89508430Y-78420692D01*
X89430877Y-78578465D01*
X89368605Y-78699555D01*
X89242257Y-78940123D01*
X89140358Y-79135527D01*
X89060811Y-79290417D01*
X89001520Y-79409441D01*
X88960388Y-79497249D01*
X88935319Y-79558490D01*
X88924215Y-79597813D01*
X88924980Y-79619866D01*
X88935517Y-79629299D01*
X88948581Y-79630889D01*
X88975415Y-79609747D01*
X89026506Y-79553118D01*
X89092954Y-79471191D01*
X89128144Y-79425271D01*
X89226158Y-79303907D01*
X89341239Y-79174378D01*
X89450333Y-79062497D01*
X89462094Y-79051327D01*
X89684789Y-78838409D01*
X89875631Y-78646883D01*
X90047194Y-78463325D01*
X90212051Y-78274306D01*
X90372949Y-78078642D01*
X90581183Y-77810555D01*
X89770445Y-77810555D01*
X89756334Y-77824666D01*
X89742222Y-77810555D01*
X89756334Y-77796444D01*
X89770445Y-77810555D01*
X90581183Y-77810555D01*
X90626547Y-77752153D01*
X90841841Y-77449571D01*
X91025133Y-77160215D01*
X91182724Y-76873402D01*
X91320915Y-76578452D01*
X91446007Y-76264682D01*
X91450942Y-76251277D01*
X91495277Y-76134425D01*
X91533776Y-76040214D01*
X91561847Y-75979438D01*
X91573947Y-75962121D01*
X91593714Y-75985476D01*
X91631471Y-76047482D01*
X91680114Y-76136229D01*
X91695996Y-76166732D01*
X91847960Y-76411635D01*
X92052575Y-76660470D01*
X92306455Y-76910379D01*
X92606214Y-77158511D01*
X92948469Y-77402009D01*
X93329833Y-77638018D01*
X93647919Y-77812802D01*
X94009349Y-78001454D01*
X93699966Y-78162335D01*
X93431331Y-78311887D01*
X93164667Y-78478712D01*
X92909847Y-78655544D01*
X92676746Y-78835117D01*
X92475236Y-79010164D01*
X92315193Y-79173418D01*
X92296334Y-79195303D01*
X92239231Y-79264336D01*
X92211477Y-79303005D01*
X92215848Y-79310127D01*
X92255122Y-79284522D01*
X92332075Y-79225010D01*
X92449486Y-79130409D01*
X92450058Y-79129944D01*
X92545144Y-79055768D01*
X92600502Y-79019226D01*
X92615245Y-79019934D01*
X92588486Y-79057505D01*
X92519335Y-79131554D01*
X92499601Y-79151447D01*
X92432570Y-79223075D01*
X92388192Y-79279565D01*
X92375233Y-79309624D01*
X92375945Y-79310685D01*
X92404292Y-79302475D01*
X92462636Y-79264356D01*
X92539070Y-79204238D01*
X92549646Y-79195278D01*
X92639892Y-79120641D01*
X92689788Y-79085389D01*
X92699313Y-79089525D01*
X92668446Y-79133048D01*
X92617966Y-79192462D01*
X92572273Y-79250158D01*
X92553298Y-79286182D01*
X92557147Y-79292222D01*
X92593938Y-79273222D01*
X92637578Y-79232929D01*
X92696536Y-79180513D01*
X92793358Y-79108254D01*
X92916539Y-79023666D01*
X93054573Y-78934262D01*
X93195953Y-78847559D01*
X93292174Y-78792312D01*
X93152562Y-78792312D01*
X93145695Y-78808084D01*
X93117278Y-78838381D01*
X93100942Y-78832166D01*
X93100667Y-78828221D01*
X93120713Y-78804350D01*
X93133250Y-78795638D01*
X93152562Y-78792312D01*
X93292174Y-78792312D01*
X93329172Y-78771069D01*
X93410978Y-78727845D01*
X93519696Y-78675472D01*
X93663070Y-78609643D01*
X93823515Y-78538281D01*
X93983449Y-78469307D01*
X94004622Y-78460366D01*
X94039079Y-78445565D01*
X93823599Y-78445565D01*
X93807955Y-78457351D01*
X93752898Y-78488874D01*
X93669381Y-78534394D01*
X93568358Y-78588171D01*
X93460782Y-78644462D01*
X93357606Y-78697528D01*
X93269784Y-78741627D01*
X93208270Y-78771019D01*
X93185334Y-78780090D01*
X93193302Y-78767228D01*
X93227667Y-78737597D01*
X93274618Y-78707872D01*
X93355664Y-78663538D01*
X93457693Y-78611020D01*
X93567594Y-78556744D01*
X93672254Y-78507135D01*
X93758561Y-78468618D01*
X93813402Y-78447620D01*
X93823599Y-78445565D01*
X94039079Y-78445565D01*
X94082904Y-78426740D01*
X93909704Y-78426740D01*
X93905830Y-78443519D01*
X93890889Y-78445555D01*
X93867659Y-78435229D01*
X93872074Y-78426740D01*
X93905568Y-78423363D01*
X93909704Y-78426740D01*
X94082904Y-78426740D01*
X94137656Y-78403222D01*
X93975556Y-78403222D01*
X93961445Y-78417333D01*
X93947334Y-78403222D01*
X93961445Y-78389111D01*
X93975556Y-78403222D01*
X94137656Y-78403222D01*
X94140080Y-78402181D01*
X94200703Y-78375000D01*
X94060222Y-78375000D01*
X94046111Y-78389111D01*
X94032000Y-78375000D01*
X94046111Y-78360889D01*
X94060222Y-78375000D01*
X94200703Y-78375000D01*
X94256230Y-78350104D01*
X94343416Y-78308632D01*
X94391984Y-78282264D01*
X94398484Y-78276878D01*
X94427707Y-78262111D01*
X93862667Y-78262111D01*
X93848556Y-78276222D01*
X93834445Y-78262111D01*
X93848556Y-78248000D01*
X93862667Y-78262111D01*
X94427707Y-78262111D01*
X94431927Y-78259979D01*
X94504977Y-78239091D01*
X94529614Y-78233889D01*
X93919111Y-78233889D01*
X93905000Y-78248000D01*
X93890889Y-78233889D01*
X93905000Y-78219778D01*
X93919111Y-78233889D01*
X94529614Y-78233889D01*
X94596500Y-78219767D01*
X94729659Y-78192449D01*
X94809706Y-78167893D01*
X94839820Y-78144731D01*
X94823934Y-78122058D01*
X94781798Y-78109255D01*
X94159000Y-78109255D01*
X94155333Y-78120763D01*
X94112509Y-78149655D01*
X94088445Y-78163333D01*
X94018634Y-78197949D01*
X93968502Y-78216449D01*
X93961445Y-78217412D01*
X93965112Y-78205903D01*
X94007936Y-78177012D01*
X94032000Y-78163333D01*
X94101811Y-78128717D01*
X94151943Y-78110217D01*
X94159000Y-78109255D01*
X94781798Y-78109255D01*
X94773724Y-78106802D01*
X94698740Y-78098613D01*
X94695481Y-78098509D01*
X94635337Y-78094129D01*
X94634103Y-78092778D01*
X94229556Y-78092778D01*
X94215445Y-78106889D01*
X94201334Y-78092778D01*
X94215445Y-78078666D01*
X94229556Y-78092778D01*
X94634103Y-78092778D01*
X94623881Y-78081591D01*
X94648005Y-78058591D01*
X94673675Y-78034187D01*
X94656079Y-78029336D01*
X94610556Y-78036069D01*
X94573667Y-78039878D01*
X94588282Y-78028985D01*
X94605247Y-78022222D01*
X94398889Y-78022222D01*
X94388563Y-78045452D01*
X94380074Y-78041037D01*
X94376697Y-78007544D01*
X94380074Y-78003407D01*
X94396852Y-78007281D01*
X94398889Y-78022222D01*
X94605247Y-78022222D01*
X94647597Y-78005340D01*
X94726134Y-77970957D01*
X94751842Y-77948912D01*
X94727569Y-77942244D01*
X94656161Y-77953994D01*
X94610556Y-77965778D01*
X94527956Y-77983634D01*
X94475166Y-77985499D01*
X94459865Y-77973568D01*
X94489734Y-77950032D01*
X94496337Y-77946963D01*
X94333037Y-77946963D01*
X94329163Y-77963741D01*
X94314222Y-77965778D01*
X94290992Y-77955451D01*
X94295408Y-77946963D01*
X94328901Y-77943585D01*
X94333037Y-77946963D01*
X94496337Y-77946963D01*
X94514736Y-77938413D01*
X94557702Y-77918830D01*
X94551371Y-77913155D01*
X94497667Y-77916331D01*
X94434726Y-77911468D01*
X94420056Y-77887858D01*
X94404711Y-77856431D01*
X94388575Y-77852889D01*
X94358541Y-77831375D01*
X94302410Y-77772603D01*
X94226917Y-77685229D01*
X94138798Y-77577909D01*
X94044789Y-77459296D01*
X93951624Y-77338048D01*
X93866040Y-77222819D01*
X93794771Y-77122264D01*
X93744553Y-77045040D01*
X93722123Y-76999801D01*
X93721556Y-76995739D01*
X93742437Y-77005791D01*
X93798869Y-77043316D01*
X93881537Y-77101538D01*
X93981127Y-77173679D01*
X94088324Y-77252965D01*
X94193812Y-77332618D01*
X94288276Y-77405863D01*
X94319315Y-77430582D01*
X94454173Y-77530182D01*
X94605985Y-77623724D01*
X94787164Y-77718210D01*
X95010128Y-77820640D01*
X95014123Y-77822391D01*
X95235115Y-77914358D01*
X95464447Y-78001240D01*
X95690109Y-78079088D01*
X95900095Y-78143953D01*
X96082397Y-78191885D01*
X96216263Y-78217761D01*
X96316680Y-78234415D01*
X96394417Y-78252208D01*
X96432962Y-78267345D01*
X96433243Y-78267618D01*
X96454181Y-78308998D01*
X96483724Y-78393683D01*
X96518593Y-78509798D01*
X96555505Y-78645470D01*
X96591180Y-78788823D01*
X96622336Y-78927985D01*
X96638732Y-79011232D01*
X96655119Y-79119014D01*
X96671607Y-79259054D01*
X96687238Y-79418723D01*
X96701052Y-79585390D01*
X96712092Y-79746426D01*
X96719399Y-79889200D01*
X96722014Y-80001084D01*
X97779349Y-80001084D01*
X97852414Y-79760901D01*
X97922321Y-79460162D01*
X97980891Y-79130904D01*
X98025490Y-78786929D01*
X98041562Y-78615772D01*
X98052812Y-78373653D01*
X98051913Y-78086693D01*
X98039887Y-77764937D01*
X98017755Y-77418430D01*
X97986539Y-77057217D01*
X97947261Y-76691344D01*
X97900942Y-76330856D01*
X97848604Y-75985797D01*
X97791269Y-75666212D01*
X97729958Y-75382148D01*
X97700996Y-75267280D01*
X97624680Y-75000319D01*
X97533033Y-74712211D01*
X97429879Y-74412791D01*
X97319039Y-74111895D01*
X97204333Y-73819361D01*
X97089585Y-73545022D01*
X96978614Y-73298716D01*
X96875244Y-73090278D01*
X96808906Y-72971250D01*
X96738244Y-72863414D01*
X96637013Y-72723779D01*
X96513001Y-72561956D01*
X96373994Y-72387557D01*
X96227780Y-72210194D01*
X96082145Y-72039479D01*
X95944876Y-71885022D01*
X95829160Y-71761945D01*
X95629010Y-71572967D01*
X95425041Y-71415622D01*
X95198107Y-71276324D01*
X95005667Y-71177612D01*
X94633597Y-71017732D01*
X94272130Y-70904009D01*
X93905329Y-70832785D01*
X93517256Y-70800400D01*
X93350094Y-70797499D01*
X93046143Y-70808324D01*
X92785518Y-70842851D01*
X92559205Y-70903658D01*
X92358186Y-70993326D01*
X92173446Y-71114434D01*
X92134399Y-71145303D01*
X91972806Y-71276923D01*
X91954265Y-71203049D01*
X91945455Y-71123681D01*
X91945412Y-71004201D01*
X91952935Y-70860056D01*
X91966821Y-70706692D01*
X91985870Y-70559554D01*
X92008879Y-70434088D01*
X92016572Y-70402222D01*
X92049467Y-70293908D01*
X92100970Y-70145779D01*
X92166447Y-69969452D01*
X92241263Y-69776550D01*
X92320782Y-69578690D01*
X92400370Y-69387493D01*
X92475390Y-69214580D01*
X92541208Y-69071569D01*
X92572618Y-69008297D01*
X92739228Y-68723443D01*
X92917065Y-68491110D01*
X93069030Y-68342141D01*
X93149673Y-68267930D01*
X93199078Y-68210166D01*
X93215165Y-68174397D01*
X93195856Y-68166170D01*
X93139073Y-68191034D01*
D11*
G36*
X103806373Y-153457024D02*
G01*
X104007589Y-153497048D01*
X104386671Y-153654069D01*
X104727835Y-153882028D01*
X105017972Y-154172165D01*
X105245931Y-154513329D01*
X105402952Y-154892411D01*
X105483000Y-155294842D01*
X105483000Y-155705158D01*
X105402952Y-156107589D01*
X105245931Y-156486671D01*
X105017972Y-156827835D01*
X104727835Y-157117972D01*
X104386671Y-157345931D01*
X104007589Y-157502952D01*
X103806373Y-157542976D01*
X103605159Y-157583000D01*
X103194841Y-157583000D01*
X102993627Y-157542976D01*
X102792411Y-157502952D01*
X102413329Y-157345931D01*
X102072165Y-157117972D01*
X101782028Y-156827835D01*
X101554069Y-156486671D01*
X101397048Y-156107589D01*
X101317000Y-155705158D01*
X101317000Y-155294842D01*
X101397048Y-154892411D01*
X101554069Y-154513329D01*
X101782028Y-154172165D01*
X102072165Y-153882028D01*
X102413329Y-153654069D01*
X102792411Y-153497048D01*
X102993627Y-153457024D01*
X103194841Y-153417000D01*
X103605159Y-153417000D01*
X103806373Y-153457024D01*
X103806373Y-153457024D01*
G37*
G36*
X37906373Y-153457024D02*
G01*
X38107589Y-153497048D01*
X38486671Y-153654069D01*
X38827835Y-153882028D01*
X39117972Y-154172165D01*
X39345931Y-154513329D01*
X39502952Y-154892411D01*
X39583000Y-155294842D01*
X39583000Y-155705158D01*
X39502952Y-156107589D01*
X39345931Y-156486671D01*
X39117972Y-156827835D01*
X38827835Y-157117972D01*
X38486671Y-157345931D01*
X38107589Y-157502952D01*
X37906373Y-157542976D01*
X37705159Y-157583000D01*
X37294841Y-157583000D01*
X37093627Y-157542976D01*
X36892411Y-157502952D01*
X36513329Y-157345931D01*
X36172165Y-157117972D01*
X35882028Y-156827835D01*
X35654069Y-156486671D01*
X35497048Y-156107589D01*
X35417000Y-155705158D01*
X35417000Y-155294842D01*
X35497048Y-154892411D01*
X35654069Y-154513329D01*
X35882028Y-154172165D01*
X36172165Y-153882028D01*
X36513329Y-153654069D01*
X36892411Y-153497048D01*
X37093627Y-153457024D01*
X37294841Y-153417000D01*
X37705159Y-153417000D01*
X37906373Y-153457024D01*
X37906373Y-153457024D01*
G37*
G36*
X35856373Y-137207024D02*
G01*
X36057589Y-137247048D01*
X36436671Y-137404069D01*
X36777835Y-137632028D01*
X37067972Y-137922165D01*
X37295931Y-138263329D01*
X37452952Y-138642411D01*
X37533000Y-139044842D01*
X37533000Y-139455158D01*
X37452952Y-139857589D01*
X37295931Y-140236671D01*
X37067972Y-140577835D01*
X36777835Y-140867972D01*
X36436671Y-141095931D01*
X36057589Y-141252952D01*
X35655159Y-141333000D01*
X35244841Y-141333000D01*
X34842411Y-141252952D01*
X34463329Y-141095931D01*
X34122165Y-140867972D01*
X33832028Y-140577835D01*
X33604069Y-140236671D01*
X33447048Y-139857589D01*
X33367000Y-139455158D01*
X33367000Y-139044842D01*
X33447048Y-138642411D01*
X33604069Y-138263329D01*
X33832028Y-137922165D01*
X34122165Y-137632028D01*
X34463329Y-137404069D01*
X34842411Y-137247048D01*
X35043627Y-137207024D01*
X35244841Y-137167000D01*
X35655159Y-137167000D01*
X35856373Y-137207024D01*
X35856373Y-137207024D01*
G37*
G36*
X105856373Y-137207024D02*
G01*
X106057589Y-137247048D01*
X106436671Y-137404069D01*
X106777835Y-137632028D01*
X107067972Y-137922165D01*
X107295931Y-138263329D01*
X107452952Y-138642411D01*
X107533000Y-139044842D01*
X107533000Y-139455158D01*
X107452952Y-139857589D01*
X107295931Y-140236671D01*
X107067972Y-140577835D01*
X106777835Y-140867972D01*
X106436671Y-141095931D01*
X106057589Y-141252952D01*
X105655159Y-141333000D01*
X105244841Y-141333000D01*
X104842411Y-141252952D01*
X104463329Y-141095931D01*
X104122165Y-140867972D01*
X103832028Y-140577835D01*
X103604069Y-140236671D01*
X103447048Y-139857589D01*
X103367000Y-139455158D01*
X103367000Y-139044842D01*
X103447048Y-138642411D01*
X103604069Y-138263329D01*
X103832028Y-137922165D01*
X104122165Y-137632028D01*
X104463329Y-137404069D01*
X104842411Y-137247048D01*
X105043627Y-137207024D01*
X105244841Y-137167000D01*
X105655159Y-137167000D01*
X105856373Y-137207024D01*
X105856373Y-137207024D01*
G37*
G36*
X62798389Y-116508395D02*
G01*
X64263577Y-117115296D01*
X64263578Y-117115297D01*
X65582213Y-117996380D01*
X66703620Y-119117787D01*
X67292341Y-119998871D01*
X67584704Y-120436423D01*
X68191605Y-121901611D01*
X68501000Y-123457044D01*
X68501000Y-125042956D01*
X68191605Y-126598389D01*
X67584704Y-128063577D01*
X67530083Y-128145323D01*
X66703620Y-129382213D01*
X65582213Y-130503620D01*
X64701129Y-131092341D01*
X64263577Y-131384704D01*
X62798389Y-131991605D01*
X61242956Y-132301000D01*
X59657044Y-132301000D01*
X58101611Y-131991605D01*
X56636423Y-131384704D01*
X56198871Y-131092341D01*
X55317787Y-130503620D01*
X54196380Y-129382213D01*
X53369917Y-128145323D01*
X53315296Y-128063577D01*
X52708395Y-126598389D01*
X52399000Y-125042956D01*
X52399000Y-123457044D01*
X52708395Y-121901611D01*
X53315296Y-120436423D01*
X53607659Y-119998871D01*
X54196380Y-119117787D01*
X55317787Y-117996380D01*
X56636422Y-117115297D01*
X56636423Y-117115296D01*
X58101611Y-116508395D01*
X59657044Y-116199000D01*
X61242956Y-116199000D01*
X62798389Y-116508395D01*
X62798389Y-116508395D01*
G37*
G36*
X41631632Y-120354677D02*
G01*
X41937005Y-120481167D01*
X42368868Y-120660050D01*
X43032362Y-121103383D01*
X43596617Y-121667638D01*
X44039950Y-122331132D01*
X44218833Y-122762995D01*
X44345323Y-123068368D01*
X44501000Y-123851010D01*
X44501000Y-124648990D01*
X44345323Y-125431632D01*
X44255316Y-125648928D01*
X44039950Y-126168868D01*
X43596617Y-126832362D01*
X43032362Y-127396617D01*
X42368868Y-127839950D01*
X41937005Y-128018833D01*
X41631632Y-128145323D01*
X40848990Y-128301000D01*
X40051010Y-128301000D01*
X39268368Y-128145323D01*
X38962995Y-128018833D01*
X38531132Y-127839950D01*
X37867638Y-127396617D01*
X37303383Y-126832362D01*
X36860050Y-126168868D01*
X36644684Y-125648928D01*
X36554677Y-125431632D01*
X36399000Y-124648990D01*
X36399000Y-123851010D01*
X36554677Y-123068368D01*
X36681167Y-122762995D01*
X36860050Y-122331132D01*
X37303383Y-121667638D01*
X37867638Y-121103383D01*
X38531132Y-120660050D01*
X38962995Y-120481167D01*
X39268368Y-120354677D01*
X40051010Y-120199000D01*
X40848990Y-120199000D01*
X41631632Y-120354677D01*
X41631632Y-120354677D01*
G37*
G36*
X49925331Y-122518211D02*
G01*
X50253092Y-122653974D01*
X50548070Y-122851072D01*
X50798928Y-123101930D01*
X50996026Y-123396908D01*
X51131789Y-123724669D01*
X51201000Y-124072616D01*
X51201000Y-124427384D01*
X51131789Y-124775331D01*
X50996026Y-125103092D01*
X50798928Y-125398070D01*
X50548070Y-125648928D01*
X50253092Y-125846026D01*
X49925331Y-125981789D01*
X49577384Y-126051000D01*
X49222616Y-126051000D01*
X48874669Y-125981789D01*
X48546908Y-125846026D01*
X48251930Y-125648928D01*
X48001072Y-125398070D01*
X47803974Y-125103092D01*
X47668211Y-124775331D01*
X47599000Y-124427384D01*
X47599000Y-124072616D01*
X47668211Y-123724669D01*
X47803974Y-123396908D01*
X48001072Y-123101930D01*
X48251930Y-122851072D01*
X48546908Y-122653974D01*
X48874669Y-122518211D01*
X49222616Y-122449000D01*
X49577384Y-122449000D01*
X49925331Y-122518211D01*
X49925331Y-122518211D01*
G37*
G36*
X72025331Y-122518211D02*
G01*
X72353092Y-122653974D01*
X72648070Y-122851072D01*
X72898928Y-123101930D01*
X73096026Y-123396908D01*
X73231789Y-123724669D01*
X73301000Y-124072616D01*
X73301000Y-124427384D01*
X73231789Y-124775331D01*
X73096026Y-125103092D01*
X72898928Y-125398070D01*
X72648070Y-125648928D01*
X72353092Y-125846026D01*
X72025331Y-125981789D01*
X71677384Y-126051000D01*
X71322616Y-126051000D01*
X70974669Y-125981789D01*
X70646908Y-125846026D01*
X70351930Y-125648928D01*
X70101072Y-125398070D01*
X69903974Y-125103092D01*
X69768211Y-124775331D01*
X69699000Y-124427384D01*
X69699000Y-124072616D01*
X69768211Y-123724669D01*
X69903974Y-123396908D01*
X70101072Y-123101930D01*
X70351930Y-122851072D01*
X70646908Y-122653974D01*
X70974669Y-122518211D01*
X71322616Y-122449000D01*
X71677384Y-122449000D01*
X72025331Y-122518211D01*
X72025331Y-122518211D01*
G37*
G36*
X51631632Y-105354677D02*
G01*
X51937005Y-105481167D01*
X52368868Y-105660050D01*
X53032362Y-106103383D01*
X53596617Y-106667638D01*
X54039950Y-107331132D01*
X54218833Y-107762995D01*
X54345323Y-108068368D01*
X54501000Y-108851010D01*
X54501000Y-109648990D01*
X54345323Y-110431632D01*
X54218833Y-110737005D01*
X54039950Y-111168868D01*
X53596617Y-111832362D01*
X53032362Y-112396617D01*
X52368868Y-112839950D01*
X51937005Y-113018833D01*
X51631632Y-113145323D01*
X50848990Y-113301000D01*
X50051010Y-113301000D01*
X49268368Y-113145323D01*
X48962995Y-113018833D01*
X48531132Y-112839950D01*
X47867638Y-112396617D01*
X47303383Y-111832362D01*
X46860050Y-111168868D01*
X46681167Y-110737005D01*
X46554677Y-110431632D01*
X46399000Y-109648990D01*
X46399000Y-108851010D01*
X46554677Y-108068368D01*
X46681167Y-107762995D01*
X46860050Y-107331132D01*
X47303383Y-106667638D01*
X47867638Y-106103383D01*
X48531132Y-105660050D01*
X48962995Y-105481167D01*
X49268368Y-105354677D01*
X50051010Y-105199000D01*
X50848990Y-105199000D01*
X51631632Y-105354677D01*
X51631632Y-105354677D01*
G37*
G36*
X61631632Y-105354677D02*
G01*
X61937005Y-105481167D01*
X62368868Y-105660050D01*
X63032362Y-106103383D01*
X63596617Y-106667638D01*
X64039950Y-107331132D01*
X64218833Y-107762995D01*
X64345323Y-108068368D01*
X64501000Y-108851010D01*
X64501000Y-109648990D01*
X64345323Y-110431632D01*
X64218833Y-110737005D01*
X64039950Y-111168868D01*
X63596617Y-111832362D01*
X63032362Y-112396617D01*
X62368868Y-112839950D01*
X61937005Y-113018833D01*
X61631632Y-113145323D01*
X60848990Y-113301000D01*
X60051010Y-113301000D01*
X59268368Y-113145323D01*
X58962995Y-113018833D01*
X58531132Y-112839950D01*
X57867638Y-112396617D01*
X57303383Y-111832362D01*
X56860050Y-111168868D01*
X56681167Y-110737005D01*
X56554677Y-110431632D01*
X56399000Y-109648990D01*
X56399000Y-108851010D01*
X56554677Y-108068368D01*
X56681167Y-107762995D01*
X56860050Y-107331132D01*
X57303383Y-106667638D01*
X57867638Y-106103383D01*
X58531132Y-105660050D01*
X58962995Y-105481167D01*
X59268368Y-105354677D01*
X60051010Y-105199000D01*
X60848990Y-105199000D01*
X61631632Y-105354677D01*
X61631632Y-105354677D01*
G37*
G36*
X41631632Y-105354677D02*
G01*
X41937005Y-105481167D01*
X42368868Y-105660050D01*
X43032362Y-106103383D01*
X43596617Y-106667638D01*
X44039950Y-107331132D01*
X44218833Y-107762995D01*
X44345323Y-108068368D01*
X44501000Y-108851010D01*
X44501000Y-109648990D01*
X44345323Y-110431632D01*
X44218833Y-110737005D01*
X44039950Y-111168868D01*
X43596617Y-111832362D01*
X43032362Y-112396617D01*
X42368868Y-112839950D01*
X41937005Y-113018833D01*
X41631632Y-113145323D01*
X40848990Y-113301000D01*
X40051010Y-113301000D01*
X39268368Y-113145323D01*
X38962995Y-113018833D01*
X38531132Y-112839950D01*
X37867638Y-112396617D01*
X37303383Y-111832362D01*
X36860050Y-111168868D01*
X36681167Y-110737005D01*
X36554677Y-110431632D01*
X36399000Y-109648990D01*
X36399000Y-108851010D01*
X36554677Y-108068368D01*
X36681167Y-107762995D01*
X36860050Y-107331132D01*
X37303383Y-106667638D01*
X37867638Y-106103383D01*
X38531132Y-105660050D01*
X38962995Y-105481167D01*
X39268368Y-105354677D01*
X40051010Y-105199000D01*
X40848990Y-105199000D01*
X41631632Y-105354677D01*
X41631632Y-105354677D01*
G37*
G36*
X51631632Y-90354677D02*
G01*
X51937005Y-90481167D01*
X52368868Y-90660050D01*
X53032362Y-91103383D01*
X53596617Y-91667638D01*
X54039950Y-92331132D01*
X54218833Y-92762995D01*
X54345323Y-93068368D01*
X54501000Y-93851010D01*
X54501000Y-94648990D01*
X54345323Y-95431632D01*
X54218833Y-95737005D01*
X54039950Y-96168868D01*
X53596617Y-96832362D01*
X53032362Y-97396617D01*
X52368868Y-97839950D01*
X51937005Y-98018833D01*
X51631632Y-98145323D01*
X50848990Y-98301000D01*
X50051010Y-98301000D01*
X49268368Y-98145323D01*
X48962995Y-98018833D01*
X48531132Y-97839950D01*
X47867638Y-97396617D01*
X47303383Y-96832362D01*
X46860050Y-96168868D01*
X46681167Y-95737005D01*
X46554677Y-95431632D01*
X46399000Y-94648990D01*
X46399000Y-93851010D01*
X46554677Y-93068368D01*
X46681167Y-92762995D01*
X46860050Y-92331132D01*
X47303383Y-91667638D01*
X47867638Y-91103383D01*
X48531132Y-90660050D01*
X48962995Y-90481167D01*
X49268368Y-90354677D01*
X50051010Y-90199000D01*
X50848990Y-90199000D01*
X51631632Y-90354677D01*
X51631632Y-90354677D01*
G37*
G36*
X41631632Y-90354677D02*
G01*
X41937005Y-90481167D01*
X42368868Y-90660050D01*
X43032362Y-91103383D01*
X43596617Y-91667638D01*
X44039950Y-92331132D01*
X44218833Y-92762995D01*
X44345323Y-93068368D01*
X44501000Y-93851010D01*
X44501000Y-94648990D01*
X44345323Y-95431632D01*
X44218833Y-95737005D01*
X44039950Y-96168868D01*
X43596617Y-96832362D01*
X43032362Y-97396617D01*
X42368868Y-97839950D01*
X41937005Y-98018833D01*
X41631632Y-98145323D01*
X40848990Y-98301000D01*
X40051010Y-98301000D01*
X39268368Y-98145323D01*
X38962995Y-98018833D01*
X38531132Y-97839950D01*
X37867638Y-97396617D01*
X37303383Y-96832362D01*
X36860050Y-96168868D01*
X36681167Y-95737005D01*
X36554677Y-95431632D01*
X36399000Y-94648990D01*
X36399000Y-93851010D01*
X36554677Y-93068368D01*
X36681167Y-92762995D01*
X36860050Y-92331132D01*
X37303383Y-91667638D01*
X37867638Y-91103383D01*
X38531132Y-90660050D01*
X38962995Y-90481167D01*
X39268368Y-90354677D01*
X40051010Y-90199000D01*
X40848990Y-90199000D01*
X41631632Y-90354677D01*
X41631632Y-90354677D01*
G37*
G36*
X61631632Y-90354677D02*
G01*
X61937005Y-90481167D01*
X62368868Y-90660050D01*
X63032362Y-91103383D01*
X63596617Y-91667638D01*
X64039950Y-92331132D01*
X64218833Y-92762995D01*
X64345323Y-93068368D01*
X64501000Y-93851010D01*
X64501000Y-94648990D01*
X64345323Y-95431632D01*
X64218833Y-95737005D01*
X64039950Y-96168868D01*
X63596617Y-96832362D01*
X63032362Y-97396617D01*
X62368868Y-97839950D01*
X61937005Y-98018833D01*
X61631632Y-98145323D01*
X60848990Y-98301000D01*
X60051010Y-98301000D01*
X59268368Y-98145323D01*
X58962995Y-98018833D01*
X58531132Y-97839950D01*
X57867638Y-97396617D01*
X57303383Y-96832362D01*
X56860050Y-96168868D01*
X56681167Y-95737005D01*
X56554677Y-95431632D01*
X56399000Y-94648990D01*
X56399000Y-93851010D01*
X56554677Y-93068368D01*
X56681167Y-92762995D01*
X56860050Y-92331132D01*
X57303383Y-91667638D01*
X57867638Y-91103383D01*
X58531132Y-90660050D01*
X58962995Y-90481167D01*
X59268368Y-90354677D01*
X60051010Y-90199000D01*
X60848990Y-90199000D01*
X61631632Y-90354677D01*
X61631632Y-90354677D01*
G37*
G36*
X61631632Y-75354677D02*
G01*
X61937005Y-75481167D01*
X62368868Y-75660050D01*
X63032362Y-76103383D01*
X63596617Y-76667638D01*
X64039950Y-77331132D01*
X64218833Y-77762995D01*
X64345323Y-78068368D01*
X64501000Y-78851010D01*
X64501000Y-79648990D01*
X64345323Y-80431632D01*
X64218833Y-80737005D01*
X64039950Y-81168868D01*
X63596617Y-81832362D01*
X63032362Y-82396617D01*
X62368868Y-82839950D01*
X61937005Y-83018833D01*
X61631632Y-83145323D01*
X60848990Y-83301000D01*
X60051010Y-83301000D01*
X59268368Y-83145323D01*
X58962995Y-83018833D01*
X58531132Y-82839950D01*
X57867638Y-82396617D01*
X57303383Y-81832362D01*
X56860050Y-81168868D01*
X56681167Y-80737005D01*
X56554677Y-80431632D01*
X56399000Y-79648990D01*
X56399000Y-78851010D01*
X56554677Y-78068368D01*
X56681167Y-77762995D01*
X56860050Y-77331132D01*
X57303383Y-76667638D01*
X57867638Y-76103383D01*
X58531132Y-75660050D01*
X58962995Y-75481167D01*
X59268368Y-75354677D01*
X60051010Y-75199000D01*
X60848990Y-75199000D01*
X61631632Y-75354677D01*
X61631632Y-75354677D01*
G37*
G36*
X51631632Y-75354677D02*
G01*
X51937005Y-75481167D01*
X52368868Y-75660050D01*
X53032362Y-76103383D01*
X53596617Y-76667638D01*
X54039950Y-77331132D01*
X54218833Y-77762995D01*
X54345323Y-78068368D01*
X54501000Y-78851010D01*
X54501000Y-79648990D01*
X54345323Y-80431632D01*
X54218833Y-80737005D01*
X54039950Y-81168868D01*
X53596617Y-81832362D01*
X53032362Y-82396617D01*
X52368868Y-82839950D01*
X51937005Y-83018833D01*
X51631632Y-83145323D01*
X50848990Y-83301000D01*
X50051010Y-83301000D01*
X49268368Y-83145323D01*
X48962995Y-83018833D01*
X48531132Y-82839950D01*
X47867638Y-82396617D01*
X47303383Y-81832362D01*
X46860050Y-81168868D01*
X46681167Y-80737005D01*
X46554677Y-80431632D01*
X46399000Y-79648990D01*
X46399000Y-78851010D01*
X46554677Y-78068368D01*
X46681167Y-77762995D01*
X46860050Y-77331132D01*
X47303383Y-76667638D01*
X47867638Y-76103383D01*
X48531132Y-75660050D01*
X48962995Y-75481167D01*
X49268368Y-75354677D01*
X50051010Y-75199000D01*
X50848990Y-75199000D01*
X51631632Y-75354677D01*
X51631632Y-75354677D01*
G37*
G36*
X41631632Y-75354677D02*
G01*
X41937005Y-75481167D01*
X42368868Y-75660050D01*
X43032362Y-76103383D01*
X43596617Y-76667638D01*
X44039950Y-77331132D01*
X44218833Y-77762995D01*
X44345323Y-78068368D01*
X44501000Y-78851010D01*
X44501000Y-79648990D01*
X44345323Y-80431632D01*
X44218833Y-80737005D01*
X44039950Y-81168868D01*
X43596617Y-81832362D01*
X43032362Y-82396617D01*
X42368868Y-82839950D01*
X41937005Y-83018833D01*
X41631632Y-83145323D01*
X40848990Y-83301000D01*
X40051010Y-83301000D01*
X39268368Y-83145323D01*
X38962995Y-83018833D01*
X38531132Y-82839950D01*
X37867638Y-82396617D01*
X37303383Y-81832362D01*
X36860050Y-81168868D01*
X36681167Y-80737005D01*
X36554677Y-80431632D01*
X36399000Y-79648990D01*
X36399000Y-78851010D01*
X36554677Y-78068368D01*
X36681167Y-77762995D01*
X36860050Y-77331132D01*
X37303383Y-76667638D01*
X37867638Y-76103383D01*
X38531132Y-75660050D01*
X38962995Y-75481167D01*
X39268368Y-75354677D01*
X40051010Y-75199000D01*
X40848990Y-75199000D01*
X41631632Y-75354677D01*
X41631632Y-75354677D01*
G37*
G36*
X51631632Y-60354677D02*
G01*
X51937005Y-60481167D01*
X52368868Y-60660050D01*
X53032362Y-61103383D01*
X53596617Y-61667638D01*
X54039950Y-62331132D01*
X54218833Y-62762995D01*
X54345323Y-63068368D01*
X54501000Y-63851010D01*
X54501000Y-64648990D01*
X54345323Y-65431632D01*
X54218833Y-65737005D01*
X54039950Y-66168868D01*
X53596617Y-66832362D01*
X53032362Y-67396617D01*
X52368868Y-67839950D01*
X51937005Y-68018833D01*
X51631632Y-68145323D01*
X50848990Y-68301000D01*
X50051010Y-68301000D01*
X49268368Y-68145323D01*
X48962995Y-68018833D01*
X48531132Y-67839950D01*
X47867638Y-67396617D01*
X47303383Y-66832362D01*
X46860050Y-66168868D01*
X46681167Y-65737005D01*
X46554677Y-65431632D01*
X46399000Y-64648990D01*
X46399000Y-63851010D01*
X46554677Y-63068368D01*
X46681167Y-62762995D01*
X46860050Y-62331132D01*
X47303383Y-61667638D01*
X47867638Y-61103383D01*
X48531132Y-60660050D01*
X48962995Y-60481167D01*
X49268368Y-60354677D01*
X50051010Y-60199000D01*
X50848990Y-60199000D01*
X51631632Y-60354677D01*
X51631632Y-60354677D01*
G37*
G36*
X61631632Y-60354677D02*
G01*
X61937005Y-60481167D01*
X62368868Y-60660050D01*
X63032362Y-61103383D01*
X63596617Y-61667638D01*
X64039950Y-62331132D01*
X64218833Y-62762995D01*
X64345323Y-63068368D01*
X64501000Y-63851010D01*
X64501000Y-64648990D01*
X64345323Y-65431632D01*
X64218833Y-65737005D01*
X64039950Y-66168868D01*
X63596617Y-66832362D01*
X63032362Y-67396617D01*
X62368868Y-67839950D01*
X61937005Y-68018833D01*
X61631632Y-68145323D01*
X60848990Y-68301000D01*
X60051010Y-68301000D01*
X59268368Y-68145323D01*
X58962995Y-68018833D01*
X58531132Y-67839950D01*
X57867638Y-67396617D01*
X57303383Y-66832362D01*
X56860050Y-66168868D01*
X56681167Y-65737005D01*
X56554677Y-65431632D01*
X56399000Y-64648990D01*
X56399000Y-63851010D01*
X56554677Y-63068368D01*
X56681167Y-62762995D01*
X56860050Y-62331132D01*
X57303383Y-61667638D01*
X57867638Y-61103383D01*
X58531132Y-60660050D01*
X58962995Y-60481167D01*
X59268368Y-60354677D01*
X60051010Y-60199000D01*
X60848990Y-60199000D01*
X61631632Y-60354677D01*
X61631632Y-60354677D01*
G37*
G36*
X41631632Y-60354677D02*
G01*
X41937005Y-60481167D01*
X42368868Y-60660050D01*
X43032362Y-61103383D01*
X43596617Y-61667638D01*
X44039950Y-62331132D01*
X44218833Y-62762995D01*
X44345323Y-63068368D01*
X44501000Y-63851010D01*
X44501000Y-64648990D01*
X44345323Y-65431632D01*
X44218833Y-65737005D01*
X44039950Y-66168868D01*
X43596617Y-66832362D01*
X43032362Y-67396617D01*
X42368868Y-67839950D01*
X41937005Y-68018833D01*
X41631632Y-68145323D01*
X40848990Y-68301000D01*
X40051010Y-68301000D01*
X39268368Y-68145323D01*
X38962995Y-68018833D01*
X38531132Y-67839950D01*
X37867638Y-67396617D01*
X37303383Y-66832362D01*
X36860050Y-66168868D01*
X36681167Y-65737005D01*
X36554677Y-65431632D01*
X36399000Y-64648990D01*
X36399000Y-63851010D01*
X36554677Y-63068368D01*
X36681167Y-62762995D01*
X36860050Y-62331132D01*
X37303383Y-61667638D01*
X37867638Y-61103383D01*
X38531132Y-60660050D01*
X38962995Y-60481167D01*
X39268368Y-60354677D01*
X40051010Y-60199000D01*
X40848990Y-60199000D01*
X41631632Y-60354677D01*
X41631632Y-60354677D01*
G37*
G36*
X106057589Y-47247048D02*
G01*
X106436671Y-47404069D01*
X106777835Y-47632028D01*
X107067972Y-47922165D01*
X107295931Y-48263329D01*
X107452952Y-48642411D01*
X107533000Y-49044842D01*
X107533000Y-49455158D01*
X107452952Y-49857589D01*
X107295931Y-50236671D01*
X107067972Y-50577835D01*
X106777835Y-50867972D01*
X106436671Y-51095931D01*
X106057589Y-51252952D01*
X105655159Y-51333000D01*
X105244841Y-51333000D01*
X104842411Y-51252952D01*
X104463329Y-51095931D01*
X104122165Y-50867972D01*
X103832028Y-50577835D01*
X103604069Y-50236671D01*
X103447048Y-49857589D01*
X103367000Y-49455158D01*
X103367000Y-49044842D01*
X103447048Y-48642411D01*
X103604069Y-48263329D01*
X103832028Y-47922165D01*
X104122165Y-47632028D01*
X104463329Y-47404069D01*
X104842411Y-47247048D01*
X105244841Y-47167000D01*
X105655159Y-47167000D01*
X106057589Y-47247048D01*
X106057589Y-47247048D01*
G37*
G36*
X36057589Y-47247048D02*
G01*
X36436671Y-47404069D01*
X36777835Y-47632028D01*
X37067972Y-47922165D01*
X37295931Y-48263329D01*
X37452952Y-48642411D01*
X37533000Y-49044842D01*
X37533000Y-49455158D01*
X37452952Y-49857589D01*
X37295931Y-50236671D01*
X37067972Y-50577835D01*
X36777835Y-50867972D01*
X36436671Y-51095931D01*
X36057589Y-51252952D01*
X35655159Y-51333000D01*
X35244841Y-51333000D01*
X34842411Y-51252952D01*
X34463329Y-51095931D01*
X34122165Y-50867972D01*
X33832028Y-50577835D01*
X33604069Y-50236671D01*
X33447048Y-49857589D01*
X33367000Y-49455158D01*
X33367000Y-49044842D01*
X33447048Y-48642411D01*
X33604069Y-48263329D01*
X33832028Y-47922165D01*
X34122165Y-47632028D01*
X34463329Y-47404069D01*
X34842411Y-47247048D01*
X35244841Y-47167000D01*
X35655159Y-47167000D01*
X36057589Y-47247048D01*
X36057589Y-47247048D01*
G37*
G36*
X103806373Y-30957024D02*
G01*
X104007589Y-30997048D01*
X104386671Y-31154069D01*
X104727835Y-31382028D01*
X105017972Y-31672165D01*
X105245931Y-32013329D01*
X105402952Y-32392411D01*
X105483000Y-32794842D01*
X105483000Y-33205158D01*
X105402952Y-33607589D01*
X105245931Y-33986671D01*
X105017972Y-34327835D01*
X104727835Y-34617972D01*
X104386671Y-34845931D01*
X104007589Y-35002952D01*
X103806373Y-35042976D01*
X103605159Y-35083000D01*
X103194841Y-35083000D01*
X102993627Y-35042976D01*
X102792411Y-35002952D01*
X102413329Y-34845931D01*
X102072165Y-34617972D01*
X101782028Y-34327835D01*
X101554069Y-33986671D01*
X101397048Y-33607589D01*
X101317000Y-33205158D01*
X101317000Y-32794842D01*
X101397048Y-32392411D01*
X101554069Y-32013329D01*
X101782028Y-31672165D01*
X102072165Y-31382028D01*
X102413329Y-31154069D01*
X102792411Y-30997048D01*
X102993627Y-30957024D01*
X103194841Y-30917000D01*
X103605159Y-30917000D01*
X103806373Y-30957024D01*
X103806373Y-30957024D01*
G37*
G36*
X37906373Y-30957024D02*
G01*
X38107589Y-30997048D01*
X38486671Y-31154069D01*
X38827835Y-31382028D01*
X39117972Y-31672165D01*
X39345931Y-32013329D01*
X39502952Y-32392411D01*
X39583000Y-32794842D01*
X39583000Y-33205158D01*
X39502952Y-33607589D01*
X39345931Y-33986671D01*
X39117972Y-34327835D01*
X38827835Y-34617972D01*
X38486671Y-34845931D01*
X38107589Y-35002952D01*
X37906373Y-35042976D01*
X37705159Y-35083000D01*
X37294841Y-35083000D01*
X37093627Y-35042976D01*
X36892411Y-35002952D01*
X36513329Y-34845931D01*
X36172165Y-34617972D01*
X35882028Y-34327835D01*
X35654069Y-33986671D01*
X35497048Y-33607589D01*
X35417000Y-33205158D01*
X35417000Y-32794842D01*
X35497048Y-32392411D01*
X35654069Y-32013329D01*
X35882028Y-31672165D01*
X36172165Y-31382028D01*
X36513329Y-31154069D01*
X36892411Y-30997048D01*
X37093627Y-30957024D01*
X37294841Y-30917000D01*
X37705159Y-30917000D01*
X37906373Y-30957024D01*
X37906373Y-30957024D01*
G37*
M02*
