M48
; DRILL file {KiCad (5.1.0)-1} date 5/29/2019 1:36:33 PM
; FORMAT={2:4/ absolute / inch / suppress leading zeros}
; #@! TF.CreationDate,2019-05-29T13:36:33-04:00
; #@! TF.GenerationSoftware,Kicad,Pcbnew,(5.1.0)-1
; #@! TF.FileFunction,Plated,1,2,PTH
FMAT,2
INCH,TZ
T1C0.1260
T2C0.2441
T3C0.5906
%
G90
G05
T1
X19449Y-48917
X28150Y-48917
X40709Y-61220
X40709Y-12992
X13957Y-54823
X14764Y-61220
X13957Y-19390
X14764Y-12992
X41516Y-54823
X41516Y-19390
T2
X19862Y-25295
X15925Y-25295
X19862Y-37106
X19862Y-43012
X23799Y-43012
X23799Y-37106
X23799Y-31201
X15925Y-37106
X15925Y-48917
X15925Y-31201
X23799Y-25295
X19862Y-31201
X15925Y-43012
T3
X23799Y-48917
T0
M30
