G04 #@! TF.GenerationSoftware,KiCad,Pcbnew,(5.1.0)-1*
G04 #@! TF.CreationDate,2019-05-25T14:28:57-04:00*
G04 #@! TF.ProjectId,VCO_2_RevB_Panel,56434f5f-325f-4526-9576-425f50616e65,rev?*
G04 #@! TF.SameCoordinates,Original*
G04 #@! TF.FileFunction,Legend,Bot*
G04 #@! TF.FilePolarity,Positive*
%FSLAX46Y46*%
G04 Gerber Fmt 4.6, Leading zero omitted, Abs format (unit mm)*
G04 Created by KiCad (PCBNEW (5.1.0)-1) date 2019-05-25 14:28:57*
%MOMM*%
%LPD*%
G04 APERTURE LIST*
%ADD10C,0.120000*%
%ADD11C,0.250000*%
%ADD12C,0.200000*%
%ADD13C,0.150000*%
%ADD14C,0.500000*%
%ADD15C,0.010000*%
G04 APERTURE END LIST*
D10*
X50000000Y-111500000D02*
X50000000Y-113000000D01*
X74500000Y-111500000D02*
X50000000Y-111500000D01*
X85500000Y-111500000D02*
X110000000Y-111500000D01*
X110000000Y-111500000D02*
X110000000Y-113000000D01*
X110000000Y-95500000D02*
X110000000Y-97000000D01*
X87000000Y-95500000D02*
X110000000Y-95500000D01*
X50000000Y-95500000D02*
X50000000Y-97000000D01*
X74500000Y-95500000D02*
X50000000Y-95500000D01*
D11*
X84421428Y-110678571D02*
X84135714Y-110678571D01*
X83992857Y-110750000D01*
X83850000Y-110892857D01*
X83778571Y-111178571D01*
X83778571Y-111678571D01*
X83850000Y-111964285D01*
X83992857Y-112107142D01*
X84135714Y-112178571D01*
X84421428Y-112178571D01*
X84564285Y-112107142D01*
X84707142Y-111964285D01*
X84778571Y-111678571D01*
X84778571Y-111178571D01*
X84707142Y-110892857D01*
X84564285Y-110750000D01*
X84421428Y-110678571D01*
X83135714Y-110678571D02*
X83135714Y-111892857D01*
X83064285Y-112035714D01*
X82992857Y-112107142D01*
X82850000Y-112178571D01*
X82564285Y-112178571D01*
X82421428Y-112107142D01*
X82350000Y-112035714D01*
X82278571Y-111892857D01*
X82278571Y-110678571D01*
X81778571Y-110678571D02*
X80921428Y-110678571D01*
X81350000Y-112178571D02*
X81350000Y-110678571D01*
X80421428Y-112178571D02*
X80421428Y-110678571D01*
X79850000Y-110678571D01*
X79707142Y-110750000D01*
X79635714Y-110821428D01*
X79564285Y-110964285D01*
X79564285Y-111178571D01*
X79635714Y-111321428D01*
X79707142Y-111392857D01*
X79850000Y-111464285D01*
X80421428Y-111464285D01*
X78921428Y-110678571D02*
X78921428Y-111892857D01*
X78850000Y-112035714D01*
X78778571Y-112107142D01*
X78635714Y-112178571D01*
X78350000Y-112178571D01*
X78207142Y-112107142D01*
X78135714Y-112035714D01*
X78064285Y-111892857D01*
X78064285Y-110678571D01*
X77564285Y-110678571D02*
X76707142Y-110678571D01*
X77135714Y-112178571D02*
X77135714Y-110678571D01*
X76278571Y-112107142D02*
X76064285Y-112178571D01*
X75707142Y-112178571D01*
X75564285Y-112107142D01*
X75492857Y-112035714D01*
X75421428Y-111892857D01*
X75421428Y-111750000D01*
X75492857Y-111607142D01*
X75564285Y-111535714D01*
X75707142Y-111464285D01*
X75992857Y-111392857D01*
X76135714Y-111321428D01*
X76207142Y-111250000D01*
X76278571Y-111107142D01*
X76278571Y-110964285D01*
X76207142Y-110821428D01*
X76135714Y-110750000D01*
X75992857Y-110678571D01*
X75635714Y-110678571D01*
X75421428Y-110750000D01*
X85514285Y-96035714D02*
X85585714Y-96107142D01*
X85800000Y-96178571D01*
X85942857Y-96178571D01*
X86157142Y-96107142D01*
X86300000Y-95964285D01*
X86371428Y-95821428D01*
X86442857Y-95535714D01*
X86442857Y-95321428D01*
X86371428Y-95035714D01*
X86300000Y-94892857D01*
X86157142Y-94750000D01*
X85942857Y-94678571D01*
X85800000Y-94678571D01*
X85585714Y-94750000D01*
X85514285Y-94821428D01*
X85085714Y-94678571D02*
X84585714Y-96178571D01*
X84085714Y-94678571D01*
X82442857Y-96178571D02*
X82442857Y-94678571D01*
X81728571Y-96178571D02*
X81728571Y-94678571D01*
X80871428Y-96178571D01*
X80871428Y-94678571D01*
X80157142Y-96178571D02*
X80157142Y-94678571D01*
X79585714Y-94678571D01*
X79442857Y-94750000D01*
X79371428Y-94821428D01*
X79300000Y-94964285D01*
X79300000Y-95178571D01*
X79371428Y-95321428D01*
X79442857Y-95392857D01*
X79585714Y-95464285D01*
X80157142Y-95464285D01*
X78657142Y-94678571D02*
X78657142Y-95892857D01*
X78585714Y-96035714D01*
X78514285Y-96107142D01*
X78371428Y-96178571D01*
X78085714Y-96178571D01*
X77942857Y-96107142D01*
X77871428Y-96035714D01*
X77800000Y-95892857D01*
X77800000Y-94678571D01*
X77300000Y-94678571D02*
X76442857Y-94678571D01*
X76871428Y-96178571D02*
X76871428Y-94678571D01*
X76014285Y-96107142D02*
X75800000Y-96178571D01*
X75442857Y-96178571D01*
X75300000Y-96107142D01*
X75228571Y-96035714D01*
X75157142Y-95892857D01*
X75157142Y-95750000D01*
X75228571Y-95607142D01*
X75300000Y-95535714D01*
X75442857Y-95464285D01*
X75728571Y-95392857D01*
X75871428Y-95321428D01*
X75942857Y-95250000D01*
X76014285Y-95107142D01*
X76014285Y-94964285D01*
X75942857Y-94821428D01*
X75871428Y-94750000D01*
X75728571Y-94678571D01*
X75371428Y-94678571D01*
X75157142Y-94750000D01*
D12*
X108750000Y-81750000D02*
G75*
G03X108750000Y-81750000I-3750000J0D01*
G01*
X61499999Y-120250000D02*
G75*
G03X61499999Y-120250000I-3999999J0D01*
G01*
X76500000Y-120250000D02*
G75*
G03X76500000Y-120250000I-4000000J0D01*
G01*
X91500000Y-120250000D02*
G75*
G03X91500000Y-120250000I-4000000J0D01*
G01*
X98750000Y-41750000D02*
G75*
G03X98750000Y-41750000I-3750000J0D01*
G01*
X68750000Y-61750000D02*
G75*
G03X68750000Y-61750000I-3750000J0D01*
G01*
X98750000Y-61750000D02*
G75*
G03X98750000Y-61750000I-3750000J0D01*
G01*
X58750000Y-81750000D02*
G75*
G03X58750000Y-81750000I-3750000J0D01*
G01*
X106500000Y-104250000D02*
G75*
G03X106500000Y-104250000I-4000000J0D01*
G01*
X76500000Y-88250000D02*
G75*
G03X76500000Y-88250000I-4000000J0D01*
G01*
X91500000Y-88250000D02*
G75*
G03X91500000Y-88250000I-4000000J0D01*
G01*
X106500000Y-120250000D02*
G75*
G03X106500000Y-120250000I-4000000J0D01*
G01*
X61500000Y-104250000D02*
G75*
G03X61500000Y-104250000I-4000000J0D01*
G01*
X76500000Y-104250000D02*
G75*
G03X76500000Y-104250000I-4000000J0D01*
G01*
X91500000Y-104250000D02*
G75*
G03X91500000Y-104250000I-4000000J0D01*
G01*
X68750000Y-41750000D02*
G75*
G03X68750000Y-41750000I-3750000J0D01*
G01*
X51599999Y-35000000D02*
G75*
G03X51599999Y-35000000I-1599999J0D01*
G01*
X51599999Y-125000000D02*
G75*
G03X51599999Y-125000000I-1599999J0D01*
G01*
X53700000Y-141250000D02*
G75*
G03X53700000Y-141250000I-1600000J0D01*
G01*
X53700000Y-18750000D02*
G75*
G03X53700000Y-18750000I-1600000J0D01*
G01*
X109500000Y-18750000D02*
G75*
G03X109500000Y-18750000I-1600000J0D01*
G01*
X109500000Y-141250000D02*
G75*
G03X109500000Y-141250000I-1600000J0D01*
G01*
X111600000Y-125000000D02*
G75*
G03X111600000Y-125000000I-1600000J0D01*
G01*
X111600000Y-35000000D02*
G75*
G03X111600000Y-35000000I-1600000J0D01*
G01*
X100978020Y-79575323D02*
X100098372Y-79099699D01*
X105000000Y-76177743D02*
X105000000Y-72177743D01*
X107146544Y-77712936D02*
X107616016Y-76829989D01*
X107146544Y-77712936D02*
X109493902Y-73298198D01*
X100760677Y-83462797D02*
X99833493Y-83837404D01*
X109547209Y-81272069D02*
X110541731Y-81167540D01*
X100760677Y-83462797D02*
X96124757Y-85335830D01*
X103678472Y-77372889D02*
X103389440Y-76415569D01*
X103257648Y-77522737D02*
X102876577Y-76598191D01*
X107889800Y-78206754D02*
X108521829Y-77431810D01*
X100948049Y-83868308D02*
X100061845Y-84331604D01*
X109051950Y-83868308D02*
X109938154Y-84331604D01*
X108790572Y-79193226D02*
X109619610Y-78634033D01*
X105000000Y-77177743D02*
X105000000Y-76177743D01*
X101778231Y-78505660D02*
X101073597Y-77796089D01*
X101436666Y-84614993D02*
X100657328Y-85241597D01*
X100521130Y-80830620D02*
X99541555Y-80629542D01*
X107938990Y-85252552D02*
X108581777Y-86018596D01*
X109572145Y-81718079D02*
X110572121Y-81711098D01*
X101477015Y-78835533D02*
X100706502Y-78198109D01*
X109491269Y-82606755D02*
X110473556Y-82794136D01*
X109547209Y-81272069D02*
X114519819Y-80749426D01*
X102469751Y-77941670D02*
X101916360Y-77108748D01*
X100785004Y-79978179D02*
X99863141Y-79590663D01*
X106742351Y-77522737D02*
X107123422Y-76598191D01*
X108790572Y-79193226D02*
X112935760Y-76397261D01*
X100446560Y-82164395D02*
X99450676Y-82255028D01*
X109239322Y-83462797D02*
X110166506Y-83837404D01*
X108522984Y-78835533D02*
X109293497Y-78198109D01*
X100508730Y-82606755D02*
X99526443Y-82794136D01*
X101174098Y-84253599D02*
X100337334Y-84801162D01*
X108266752Y-84949040D02*
X108981225Y-85648703D01*
X105446174Y-77199564D02*
X105543756Y-76204337D01*
X100632221Y-80397946D02*
X99676943Y-80102238D01*
X108563333Y-84614993D02*
X109342671Y-85241597D01*
X109021979Y-79575323D02*
X109901627Y-79099699D01*
X106321527Y-77372889D02*
X106610559Y-76415569D01*
X102853455Y-77712936D02*
X100506097Y-73298198D01*
X102061009Y-85252552D02*
X98847071Y-89082774D01*
X100427854Y-81718079D02*
X99427878Y-81711098D01*
X101733247Y-84949040D02*
X101018774Y-85648703D01*
X109553439Y-82164395D02*
X110549323Y-82255028D01*
X100452790Y-81272069D02*
X95480180Y-80749426D01*
X102110199Y-78206754D02*
X101478170Y-77431810D01*
X102061009Y-85252552D02*
X101418222Y-86018596D01*
X109214995Y-79978179D02*
X110136858Y-79590663D01*
X109239322Y-83462797D02*
X113875242Y-85335830D01*
X100613770Y-83040937D02*
X99654456Y-83323279D01*
X109386229Y-83040937D02*
X110345543Y-83323279D01*
X107938990Y-85252552D02*
X111152928Y-89082774D01*
X104553825Y-77199564D02*
X104456243Y-76204337D01*
X104111910Y-77264820D02*
X103917676Y-76283865D01*
X108221768Y-78505660D02*
X108926402Y-77796089D01*
X105000000Y-77177743D02*
X105000000Y-76177743D01*
X101209427Y-79193226D02*
X100380389Y-78634033D01*
X108825901Y-84253599D02*
X109662665Y-84801162D01*
X109478869Y-80830620D02*
X110458444Y-80629542D01*
X109367778Y-80397946D02*
X110323056Y-80102238D01*
X101209427Y-79193226D02*
X97064239Y-76397261D01*
X102853455Y-77712936D02*
X102383983Y-76829989D01*
X100452790Y-81272069D02*
X99458268Y-81167540D01*
X107530248Y-77941670D02*
X108083639Y-77108748D01*
X105888089Y-77264820D02*
X106082323Y-76283865D01*
X50978020Y-79575323D02*
X50098372Y-79099699D01*
X55000000Y-76177743D02*
X55000000Y-72177743D01*
X57146544Y-77712936D02*
X57616016Y-76829989D01*
X57146544Y-77712936D02*
X59493902Y-73298198D01*
X50760677Y-83462797D02*
X49833493Y-83837404D01*
X59547209Y-81272069D02*
X60541731Y-81167540D01*
X50760677Y-83462797D02*
X46124757Y-85335830D01*
X53678472Y-77372889D02*
X53389440Y-76415569D01*
X53257648Y-77522737D02*
X52876577Y-76598191D01*
X57889800Y-78206754D02*
X58521829Y-77431810D01*
X50948049Y-83868308D02*
X50061845Y-84331604D01*
X59051950Y-83868308D02*
X59938154Y-84331604D01*
X58790572Y-79193226D02*
X59619610Y-78634033D01*
X55000000Y-77177743D02*
X55000000Y-76177743D01*
X51778231Y-78505660D02*
X51073597Y-77796089D01*
X51436666Y-84614993D02*
X50657328Y-85241597D01*
X50521130Y-80830620D02*
X49541555Y-80629542D01*
X57938990Y-85252552D02*
X58581777Y-86018596D01*
X59572145Y-81718079D02*
X60572121Y-81711098D01*
X51477015Y-78835533D02*
X50706502Y-78198109D01*
X59491269Y-82606755D02*
X60473556Y-82794136D01*
X59547209Y-81272069D02*
X64519819Y-80749426D01*
X52469751Y-77941670D02*
X51916360Y-77108748D01*
X50785004Y-79978179D02*
X49863141Y-79590663D01*
X56742351Y-77522737D02*
X57123422Y-76598191D01*
X58790572Y-79193226D02*
X62935760Y-76397261D01*
X50446560Y-82164395D02*
X49450676Y-82255028D01*
X59239322Y-83462797D02*
X60166506Y-83837404D01*
X58522984Y-78835533D02*
X59293497Y-78198109D01*
X50508730Y-82606755D02*
X49526443Y-82794136D01*
X51174098Y-84253599D02*
X50337334Y-84801162D01*
X58266752Y-84949040D02*
X58981225Y-85648703D01*
X55446174Y-77199564D02*
X55543756Y-76204337D01*
X50632221Y-80397946D02*
X49676943Y-80102238D01*
X58563333Y-84614993D02*
X59342671Y-85241597D01*
X59021979Y-79575323D02*
X59901627Y-79099699D01*
X56321527Y-77372889D02*
X56610559Y-76415569D01*
X52853455Y-77712936D02*
X50506097Y-73298198D01*
X52061009Y-85252552D02*
X48847071Y-89082774D01*
X50427854Y-81718079D02*
X49427878Y-81711098D01*
X51733247Y-84949040D02*
X51018774Y-85648703D01*
X59553439Y-82164395D02*
X60549323Y-82255028D01*
X50452790Y-81272069D02*
X45480180Y-80749426D01*
X52110199Y-78206754D02*
X51478170Y-77431810D01*
X52061009Y-85252552D02*
X51418222Y-86018596D01*
X59214995Y-79978179D02*
X60136858Y-79590663D01*
X59239322Y-83462797D02*
X63875242Y-85335830D01*
X50613770Y-83040937D02*
X49654456Y-83323279D01*
X59386229Y-83040937D02*
X60345543Y-83323279D01*
X57938990Y-85252552D02*
X61152928Y-89082774D01*
X54553825Y-77199564D02*
X54456243Y-76204337D01*
X54111910Y-77264820D02*
X53917676Y-76283865D01*
X58221768Y-78505660D02*
X58926402Y-77796089D01*
X55000000Y-77177743D02*
X55000000Y-76177743D01*
X51209427Y-79193226D02*
X50380389Y-78634033D01*
X58825901Y-84253599D02*
X59662665Y-84801162D01*
X59478869Y-80830620D02*
X60458444Y-80629542D01*
X59367778Y-80397946D02*
X60323056Y-80102238D01*
X51209427Y-79193226D02*
X47064239Y-76397261D01*
X52853455Y-77712936D02*
X52383983Y-76829989D01*
X50452790Y-81272069D02*
X49458268Y-81167540D01*
X57530248Y-77941670D02*
X58083639Y-77108748D01*
X55888089Y-77264820D02*
X56082323Y-76283865D01*
X90978020Y-59575323D02*
X90098372Y-59099699D01*
X95000000Y-56177743D02*
X95000000Y-52177743D01*
X97146544Y-57712936D02*
X97616016Y-56829989D01*
X97146544Y-57712936D02*
X99493902Y-53298198D01*
X90760677Y-63462797D02*
X89833493Y-63837404D01*
X99547209Y-61272069D02*
X100541731Y-61167540D01*
X90760677Y-63462797D02*
X86124757Y-65335830D01*
X93678472Y-57372889D02*
X93389440Y-56415569D01*
X93257648Y-57522737D02*
X92876577Y-56598191D01*
X97889800Y-58206754D02*
X98521829Y-57431810D01*
X90948049Y-63868308D02*
X90061845Y-64331604D01*
X99051950Y-63868308D02*
X99938154Y-64331604D01*
X98790572Y-59193226D02*
X99619610Y-58634033D01*
X95000000Y-57177743D02*
X95000000Y-56177743D01*
X91778231Y-58505660D02*
X91073597Y-57796089D01*
X91436666Y-64614993D02*
X90657328Y-65241597D01*
X90521130Y-60830620D02*
X89541555Y-60629542D01*
X97938990Y-65252552D02*
X98581777Y-66018596D01*
X99572145Y-61718079D02*
X100572121Y-61711098D01*
X91477015Y-58835533D02*
X90706502Y-58198109D01*
X99491269Y-62606755D02*
X100473556Y-62794136D01*
X99547209Y-61272069D02*
X104519819Y-60749426D01*
X92469751Y-57941670D02*
X91916360Y-57108748D01*
X90785004Y-59978179D02*
X89863141Y-59590663D01*
X96742351Y-57522737D02*
X97123422Y-56598191D01*
X98790572Y-59193226D02*
X102935760Y-56397261D01*
X90446560Y-62164395D02*
X89450676Y-62255028D01*
X99239322Y-63462797D02*
X100166506Y-63837404D01*
X98522984Y-58835533D02*
X99293497Y-58198109D01*
X90508730Y-62606755D02*
X89526443Y-62794136D01*
X91174098Y-64253599D02*
X90337334Y-64801162D01*
X98266752Y-64949040D02*
X98981225Y-65648703D01*
X95446174Y-57199564D02*
X95543756Y-56204337D01*
X90632221Y-60397946D02*
X89676943Y-60102238D01*
X98563333Y-64614993D02*
X99342671Y-65241597D01*
X99021979Y-59575323D02*
X99901627Y-59099699D01*
X96321527Y-57372889D02*
X96610559Y-56415569D01*
X92853455Y-57712936D02*
X90506097Y-53298198D01*
X92061009Y-65252552D02*
X88847071Y-69082774D01*
X90427854Y-61718079D02*
X89427878Y-61711098D01*
X91733247Y-64949040D02*
X91018774Y-65648703D01*
X99553439Y-62164395D02*
X100549323Y-62255028D01*
X90452790Y-61272069D02*
X85480180Y-60749426D01*
X92110199Y-58206754D02*
X91478170Y-57431810D01*
X92061009Y-65252552D02*
X91418222Y-66018596D01*
X99214995Y-59978179D02*
X100136858Y-59590663D01*
X99239322Y-63462797D02*
X103875242Y-65335830D01*
X90613770Y-63040937D02*
X89654456Y-63323279D01*
X99386229Y-63040937D02*
X100345543Y-63323279D01*
X97938990Y-65252552D02*
X101152928Y-69082774D01*
X94553825Y-57199564D02*
X94456243Y-56204337D01*
X94111910Y-57264820D02*
X93917676Y-56283865D01*
X98221768Y-58505660D02*
X98926402Y-57796089D01*
X95000000Y-57177743D02*
X95000000Y-56177743D01*
X91209427Y-59193226D02*
X90380389Y-58634033D01*
X98825901Y-64253599D02*
X99662665Y-64801162D01*
X99478869Y-60830620D02*
X100458444Y-60629542D01*
X99367778Y-60397946D02*
X100323056Y-60102238D01*
X91209427Y-59193226D02*
X87064239Y-56397261D01*
X92853455Y-57712936D02*
X92383983Y-56829989D01*
X90452790Y-61272069D02*
X89458268Y-61167540D01*
X97530248Y-57941670D02*
X98083639Y-57108748D01*
X95888089Y-57264820D02*
X96082323Y-56283865D01*
X90978020Y-39575323D02*
X90098372Y-39099699D01*
X95000000Y-36177743D02*
X95000000Y-32177743D01*
X97146544Y-37712936D02*
X97616016Y-36829989D01*
X97146544Y-37712936D02*
X99493902Y-33298198D01*
X90760677Y-43462797D02*
X89833493Y-43837404D01*
X99547209Y-41272069D02*
X100541731Y-41167540D01*
X90760677Y-43462797D02*
X86124757Y-45335830D01*
X93678472Y-37372889D02*
X93389440Y-36415569D01*
X93257648Y-37522737D02*
X92876577Y-36598191D01*
X97889800Y-38206754D02*
X98521829Y-37431810D01*
X90948049Y-43868308D02*
X90061845Y-44331604D01*
X99051950Y-43868308D02*
X99938154Y-44331604D01*
X98790572Y-39193226D02*
X99619610Y-38634033D01*
X95000000Y-37177743D02*
X95000000Y-36177743D01*
X91778231Y-38505660D02*
X91073597Y-37796089D01*
X91436666Y-44614993D02*
X90657328Y-45241597D01*
X90521130Y-40830620D02*
X89541555Y-40629542D01*
X97938990Y-45252552D02*
X98581777Y-46018596D01*
X99572145Y-41718079D02*
X100572121Y-41711098D01*
X91477015Y-38835533D02*
X90706502Y-38198109D01*
X99491269Y-42606755D02*
X100473556Y-42794136D01*
X99547209Y-41272069D02*
X104519819Y-40749426D01*
X92469751Y-37941670D02*
X91916360Y-37108748D01*
X90785004Y-39978179D02*
X89863141Y-39590663D01*
X96742351Y-37522737D02*
X97123422Y-36598191D01*
X98790572Y-39193226D02*
X102935760Y-36397261D01*
X90446560Y-42164395D02*
X89450676Y-42255028D01*
X99239322Y-43462797D02*
X100166506Y-43837404D01*
X98522984Y-38835533D02*
X99293497Y-38198109D01*
X90508730Y-42606755D02*
X89526443Y-42794136D01*
X91174098Y-44253599D02*
X90337334Y-44801162D01*
X98266752Y-44949040D02*
X98981225Y-45648703D01*
X95446174Y-37199564D02*
X95543756Y-36204337D01*
X90632221Y-40397946D02*
X89676943Y-40102238D01*
X98563333Y-44614993D02*
X99342671Y-45241597D01*
X99021979Y-39575323D02*
X99901627Y-39099699D01*
X96321527Y-37372889D02*
X96610559Y-36415569D01*
X92853455Y-37712936D02*
X90506097Y-33298198D01*
X92061009Y-45252552D02*
X88847071Y-49082774D01*
X90427854Y-41718079D02*
X89427878Y-41711098D01*
X91733247Y-44949040D02*
X91018774Y-45648703D01*
X99553439Y-42164395D02*
X100549323Y-42255028D01*
X90452790Y-41272069D02*
X85480180Y-40749426D01*
X92110199Y-38206754D02*
X91478170Y-37431810D01*
X92061009Y-45252552D02*
X91418222Y-46018596D01*
X99214995Y-39978179D02*
X100136858Y-39590663D01*
X99239322Y-43462797D02*
X103875242Y-45335830D01*
X90613770Y-43040937D02*
X89654456Y-43323279D01*
X99386229Y-43040937D02*
X100345543Y-43323279D01*
X97938990Y-45252552D02*
X101152928Y-49082774D01*
X94553825Y-37199564D02*
X94456243Y-36204337D01*
X94111910Y-37264820D02*
X93917676Y-36283865D01*
X98221768Y-38505660D02*
X98926402Y-37796089D01*
X95000000Y-37177743D02*
X95000000Y-36177743D01*
X91209427Y-39193226D02*
X90380389Y-38634033D01*
X98825901Y-44253599D02*
X99662665Y-44801162D01*
X99478869Y-40830620D02*
X100458444Y-40629542D01*
X99367778Y-40397946D02*
X100323056Y-40102238D01*
X91209427Y-39193226D02*
X87064239Y-36397261D01*
X92853455Y-37712936D02*
X92383983Y-36829989D01*
X90452790Y-41272069D02*
X89458268Y-41167540D01*
X97530248Y-37941670D02*
X98083639Y-37108748D01*
X95888089Y-37264820D02*
X96082323Y-36283865D01*
X60978020Y-59575323D02*
X60098372Y-59099699D01*
X65000000Y-56177743D02*
X65000000Y-52177743D01*
X67146544Y-57712936D02*
X67616016Y-56829989D01*
X67146544Y-57712936D02*
X69493902Y-53298198D01*
X60760677Y-63462797D02*
X59833493Y-63837404D01*
X69547209Y-61272069D02*
X70541731Y-61167540D01*
X60760677Y-63462797D02*
X56124757Y-65335830D01*
X63678472Y-57372889D02*
X63389440Y-56415569D01*
X63257648Y-57522737D02*
X62876577Y-56598191D01*
X67889800Y-58206754D02*
X68521829Y-57431810D01*
X60948049Y-63868308D02*
X60061845Y-64331604D01*
X69051950Y-63868308D02*
X69938154Y-64331604D01*
X68790572Y-59193226D02*
X69619610Y-58634033D01*
X65000000Y-57177743D02*
X65000000Y-56177743D01*
X61778231Y-58505660D02*
X61073597Y-57796089D01*
X61436666Y-64614993D02*
X60657328Y-65241597D01*
X60521130Y-60830620D02*
X59541555Y-60629542D01*
X67938990Y-65252552D02*
X68581777Y-66018596D01*
X69572145Y-61718079D02*
X70572121Y-61711098D01*
X61477015Y-58835533D02*
X60706502Y-58198109D01*
X69491269Y-62606755D02*
X70473556Y-62794136D01*
X69547209Y-61272069D02*
X74519819Y-60749426D01*
X62469751Y-57941670D02*
X61916360Y-57108748D01*
X60785004Y-59978179D02*
X59863141Y-59590663D01*
X66742351Y-57522737D02*
X67123422Y-56598191D01*
X68790572Y-59193226D02*
X72935760Y-56397261D01*
X60446560Y-62164395D02*
X59450676Y-62255028D01*
X69239322Y-63462797D02*
X70166506Y-63837404D01*
X68522984Y-58835533D02*
X69293497Y-58198109D01*
X60508730Y-62606755D02*
X59526443Y-62794136D01*
X61174098Y-64253599D02*
X60337334Y-64801162D01*
X68266752Y-64949040D02*
X68981225Y-65648703D01*
X65446174Y-57199564D02*
X65543756Y-56204337D01*
X60632221Y-60397946D02*
X59676943Y-60102238D01*
X68563333Y-64614993D02*
X69342671Y-65241597D01*
X69021979Y-59575323D02*
X69901627Y-59099699D01*
X66321527Y-57372889D02*
X66610559Y-56415569D01*
X62853455Y-57712936D02*
X60506097Y-53298198D01*
X62061009Y-65252552D02*
X58847071Y-69082774D01*
X60427854Y-61718079D02*
X59427878Y-61711098D01*
X61733247Y-64949040D02*
X61018774Y-65648703D01*
X69553439Y-62164395D02*
X70549323Y-62255028D01*
X60452790Y-61272069D02*
X55480180Y-60749426D01*
X62110199Y-58206754D02*
X61478170Y-57431810D01*
X62061009Y-65252552D02*
X61418222Y-66018596D01*
X69214995Y-59978179D02*
X70136858Y-59590663D01*
X69239322Y-63462797D02*
X73875242Y-65335830D01*
X60613770Y-63040937D02*
X59654456Y-63323279D01*
X69386229Y-63040937D02*
X70345543Y-63323279D01*
X67938990Y-65252552D02*
X71152928Y-69082774D01*
X64553825Y-57199564D02*
X64456243Y-56204337D01*
X64111910Y-57264820D02*
X63917676Y-56283865D01*
X68221768Y-58505660D02*
X68926402Y-57796089D01*
X65000000Y-57177743D02*
X65000000Y-56177743D01*
X61209427Y-59193226D02*
X60380389Y-58634033D01*
X68825901Y-64253599D02*
X69662665Y-64801162D01*
X69478869Y-60830620D02*
X70458444Y-60629542D01*
X69367778Y-60397946D02*
X70323056Y-60102238D01*
X61209427Y-59193226D02*
X57064239Y-56397261D01*
X62853455Y-57712936D02*
X62383983Y-56829989D01*
X60452790Y-61272069D02*
X59458268Y-61167540D01*
X67530248Y-57941670D02*
X68083639Y-57108748D01*
X65888089Y-57264820D02*
X66082323Y-56283865D01*
X62853455Y-37712936D02*
X60506097Y-33298198D01*
X61209427Y-39193226D02*
X57064239Y-36397261D01*
X60452790Y-41272069D02*
X55480180Y-40749426D01*
X60760677Y-43462797D02*
X56124757Y-45335830D01*
X62061009Y-45252552D02*
X58847071Y-49082774D01*
X64553825Y-37199564D02*
X64456243Y-36204337D01*
X64111910Y-37264820D02*
X63917676Y-36283865D01*
X63678472Y-37372889D02*
X63389440Y-36415569D01*
X63257648Y-37522737D02*
X62876577Y-36598191D01*
X62853455Y-37712936D02*
X62383983Y-36829989D01*
X62469751Y-37941670D02*
X61916360Y-37108748D01*
X62110199Y-38206754D02*
X61478170Y-37431810D01*
X61778231Y-38505660D02*
X61073597Y-37796089D01*
X61477015Y-38835533D02*
X60706502Y-38198109D01*
X61209427Y-39193226D02*
X60380389Y-38634033D01*
X60978020Y-39575323D02*
X60098372Y-39099699D01*
X60785004Y-39978179D02*
X59863141Y-39590663D01*
X60632221Y-40397946D02*
X59676943Y-40102238D01*
X60521130Y-40830620D02*
X59541555Y-40629542D01*
X60452790Y-41272069D02*
X59458268Y-41167540D01*
X60427854Y-41718079D02*
X59427878Y-41711098D01*
X60446560Y-42164395D02*
X59450676Y-42255028D01*
X60508730Y-42606755D02*
X59526443Y-42794136D01*
X60613770Y-43040937D02*
X59654456Y-43323279D01*
X60760677Y-43462797D02*
X59833493Y-43837404D01*
X60948049Y-43868308D02*
X60061845Y-44331604D01*
X61174098Y-44253599D02*
X60337334Y-44801162D01*
X61436666Y-44614993D02*
X60657328Y-45241597D01*
X61733247Y-44949040D02*
X61018774Y-45648703D01*
X62061009Y-45252552D02*
X61418222Y-46018596D01*
X65000000Y-36177743D02*
X65000000Y-32177743D01*
X67938990Y-45252552D02*
X68581777Y-46018596D01*
X68266752Y-44949040D02*
X68981225Y-45648703D01*
X68563333Y-44614993D02*
X69342671Y-45241597D01*
X68825901Y-44253599D02*
X69662665Y-44801162D01*
X69051950Y-43868308D02*
X69938154Y-44331604D01*
X69239322Y-43462797D02*
X70166506Y-43837404D01*
X69386229Y-43040937D02*
X70345543Y-43323279D01*
X69491269Y-42606755D02*
X70473556Y-42794136D01*
X69553439Y-42164395D02*
X70549323Y-42255028D01*
X69572145Y-41718079D02*
X70572121Y-41711098D01*
X69547209Y-41272069D02*
X70541731Y-41167540D01*
X69478869Y-40830620D02*
X70458444Y-40629542D01*
X69367778Y-40397946D02*
X70323056Y-40102238D01*
X69214995Y-39978179D02*
X70136858Y-39590663D01*
X69021979Y-39575323D02*
X69901627Y-39099699D01*
X68790572Y-39193226D02*
X69619610Y-38634033D01*
X68522984Y-38835533D02*
X69293497Y-38198109D01*
X68221768Y-38505660D02*
X68926402Y-37796089D01*
X67889800Y-38206754D02*
X68521829Y-37431810D01*
X67530248Y-37941670D02*
X68083639Y-37108748D01*
X67146544Y-37712936D02*
X67616016Y-36829989D01*
X66742351Y-37522737D02*
X67123422Y-36598191D01*
X66321527Y-37372889D02*
X66610559Y-36415569D01*
X65888089Y-37264820D02*
X66082323Y-36283865D01*
X65446174Y-37199564D02*
X65543756Y-36204337D01*
X65000000Y-37177743D02*
X65000000Y-36177743D01*
X67938990Y-45252552D02*
X71152928Y-49082774D01*
X69239322Y-43462797D02*
X73875242Y-45335830D01*
X69547209Y-41272069D02*
X74519819Y-40749426D01*
X68790572Y-39193226D02*
X72935760Y-36397261D01*
X67146544Y-37712936D02*
X69493902Y-33298198D01*
X65000000Y-37177743D02*
X65000000Y-36177743D01*
X108750000Y-81750000D02*
G75*
G03X108750000Y-81750000I-3750000J0D01*
G01*
X58750000Y-81750000D02*
G75*
G03X58750000Y-81750000I-3750000J0D01*
G01*
X98750000Y-41750000D02*
G75*
G03X98750000Y-41750000I-3750000J0D01*
G01*
X98750000Y-61750000D02*
G75*
G03X98750000Y-61750000I-3750000J0D01*
G01*
X68750000Y-61750000D02*
G75*
G03X68750000Y-61750000I-3750000J0D01*
G01*
D13*
X99852380Y-135227380D02*
X99852380Y-135941666D01*
X99900000Y-136084523D01*
X99995238Y-136179761D01*
X100138095Y-136227380D01*
X100233333Y-136227380D01*
X99233333Y-136227380D02*
X99328571Y-136179761D01*
X99376190Y-136132142D01*
X99423809Y-136036904D01*
X99423809Y-135751190D01*
X99376190Y-135655952D01*
X99328571Y-135608333D01*
X99233333Y-135560714D01*
X99090476Y-135560714D01*
X98995238Y-135608333D01*
X98947619Y-135655952D01*
X98900000Y-135751190D01*
X98900000Y-136036904D01*
X98947619Y-136132142D01*
X98995238Y-136179761D01*
X99090476Y-136227380D01*
X99233333Y-136227380D01*
X98471428Y-135560714D02*
X98471428Y-136227380D01*
X98471428Y-135655952D02*
X98423809Y-135608333D01*
X98328571Y-135560714D01*
X98185714Y-135560714D01*
X98090476Y-135608333D01*
X98042857Y-135703571D01*
X98042857Y-136227380D01*
X97138095Y-136227380D02*
X97138095Y-135703571D01*
X97185714Y-135608333D01*
X97280952Y-135560714D01*
X97471428Y-135560714D01*
X97566666Y-135608333D01*
X97138095Y-136179761D02*
X97233333Y-136227380D01*
X97471428Y-136227380D01*
X97566666Y-136179761D01*
X97614285Y-136084523D01*
X97614285Y-135989285D01*
X97566666Y-135894047D01*
X97471428Y-135846428D01*
X97233333Y-135846428D01*
X97138095Y-135798809D01*
X96804761Y-135560714D02*
X96423809Y-135560714D01*
X96661904Y-135227380D02*
X96661904Y-136084523D01*
X96614285Y-136179761D01*
X96519047Y-136227380D01*
X96423809Y-136227380D01*
X96090476Y-136227380D02*
X96090476Y-135227380D01*
X95661904Y-136227380D02*
X95661904Y-135703571D01*
X95709523Y-135608333D01*
X95804761Y-135560714D01*
X95947619Y-135560714D01*
X96042857Y-135608333D01*
X96090476Y-135655952D01*
X94757142Y-136227380D02*
X94757142Y-135703571D01*
X94804761Y-135608333D01*
X94900000Y-135560714D01*
X95090476Y-135560714D01*
X95185714Y-135608333D01*
X94757142Y-136179761D02*
X94852380Y-136227380D01*
X95090476Y-136227380D01*
X95185714Y-136179761D01*
X95233333Y-136084523D01*
X95233333Y-135989285D01*
X95185714Y-135894047D01*
X95090476Y-135846428D01*
X94852380Y-135846428D01*
X94757142Y-135798809D01*
X94280952Y-135560714D02*
X94280952Y-136227380D01*
X94280952Y-135655952D02*
X94233333Y-135608333D01*
X94138095Y-135560714D01*
X93995238Y-135560714D01*
X93900000Y-135608333D01*
X93852380Y-135703571D01*
X93852380Y-136227380D01*
X92614285Y-136227380D02*
X92614285Y-135227380D01*
X92042857Y-136227380D02*
X92471428Y-135655952D01*
X92042857Y-135227380D02*
X92614285Y-135798809D01*
X91185714Y-136227380D02*
X91185714Y-135703571D01*
X91233333Y-135608333D01*
X91328571Y-135560714D01*
X91519047Y-135560714D01*
X91614285Y-135608333D01*
X91185714Y-136179761D02*
X91280952Y-136227380D01*
X91519047Y-136227380D01*
X91614285Y-136179761D01*
X91661904Y-136084523D01*
X91661904Y-135989285D01*
X91614285Y-135894047D01*
X91519047Y-135846428D01*
X91280952Y-135846428D01*
X91185714Y-135798809D01*
X90804761Y-135560714D02*
X90566666Y-136227380D01*
X90328571Y-135560714D02*
X90566666Y-136227380D01*
X90661904Y-136465476D01*
X90709523Y-136513095D01*
X90804761Y-136560714D01*
X89947619Y-135560714D02*
X89947619Y-136227380D01*
X89947619Y-135655952D02*
X89900000Y-135608333D01*
X89804761Y-135560714D01*
X89661904Y-135560714D01*
X89566666Y-135608333D01*
X89519047Y-135703571D01*
X89519047Y-136227380D01*
X88661904Y-136179761D02*
X88757142Y-136227380D01*
X88947619Y-136227380D01*
X89042857Y-136179761D01*
X89090476Y-136084523D01*
X89090476Y-135703571D01*
X89042857Y-135608333D01*
X88947619Y-135560714D01*
X88757142Y-135560714D01*
X88661904Y-135608333D01*
X88614285Y-135703571D01*
X88614285Y-135798809D01*
X89090476Y-135894047D01*
X100971428Y-136877380D02*
X100638095Y-137877380D01*
X100304761Y-136877380D01*
X99971428Y-137877380D02*
X99971428Y-137210714D01*
X99971428Y-136877380D02*
X100019047Y-136925000D01*
X99971428Y-136972619D01*
X99923809Y-136925000D01*
X99971428Y-136877380D01*
X99971428Y-136972619D01*
X99495238Y-137877380D02*
X99495238Y-137210714D01*
X99495238Y-137401190D02*
X99447619Y-137305952D01*
X99400000Y-137258333D01*
X99304761Y-137210714D01*
X99209523Y-137210714D01*
X98447619Y-137210714D02*
X98447619Y-138020238D01*
X98495238Y-138115476D01*
X98542857Y-138163095D01*
X98638095Y-138210714D01*
X98780952Y-138210714D01*
X98876190Y-138163095D01*
X98447619Y-137829761D02*
X98542857Y-137877380D01*
X98733333Y-137877380D01*
X98828571Y-137829761D01*
X98876190Y-137782142D01*
X98923809Y-137686904D01*
X98923809Y-137401190D01*
X98876190Y-137305952D01*
X98828571Y-137258333D01*
X98733333Y-137210714D01*
X98542857Y-137210714D01*
X98447619Y-137258333D01*
X97971428Y-137877380D02*
X97971428Y-137210714D01*
X97971428Y-136877380D02*
X98019047Y-136925000D01*
X97971428Y-136972619D01*
X97923809Y-136925000D01*
X97971428Y-136877380D01*
X97971428Y-136972619D01*
X97495238Y-137210714D02*
X97495238Y-137877380D01*
X97495238Y-137305952D02*
X97447619Y-137258333D01*
X97352380Y-137210714D01*
X97209523Y-137210714D01*
X97114285Y-137258333D01*
X97066666Y-137353571D01*
X97066666Y-137877380D01*
X96590476Y-137877380D02*
X96590476Y-137210714D01*
X96590476Y-136877380D02*
X96638095Y-136925000D01*
X96590476Y-136972619D01*
X96542857Y-136925000D01*
X96590476Y-136877380D01*
X96590476Y-136972619D01*
X95685714Y-137877380D02*
X95685714Y-137353571D01*
X95733333Y-137258333D01*
X95828571Y-137210714D01*
X96019047Y-137210714D01*
X96114285Y-137258333D01*
X95685714Y-137829761D02*
X95780952Y-137877380D01*
X96019047Y-137877380D01*
X96114285Y-137829761D01*
X96161904Y-137734523D01*
X96161904Y-137639285D01*
X96114285Y-137544047D01*
X96019047Y-137496428D01*
X95780952Y-137496428D01*
X95685714Y-137448809D01*
X94590476Y-136877380D02*
X94019047Y-136877380D01*
X94304761Y-137877380D02*
X94304761Y-136877380D01*
X93304761Y-137829761D02*
X93400000Y-137877380D01*
X93590476Y-137877380D01*
X93685714Y-137829761D01*
X93733333Y-137734523D01*
X93733333Y-137353571D01*
X93685714Y-137258333D01*
X93590476Y-137210714D01*
X93400000Y-137210714D01*
X93304761Y-137258333D01*
X93257142Y-137353571D01*
X93257142Y-137448809D01*
X93733333Y-137544047D01*
X92400000Y-137829761D02*
X92495238Y-137877380D01*
X92685714Y-137877380D01*
X92780952Y-137829761D01*
X92828571Y-137782142D01*
X92876190Y-137686904D01*
X92876190Y-137401190D01*
X92828571Y-137305952D01*
X92780952Y-137258333D01*
X92685714Y-137210714D01*
X92495238Y-137210714D01*
X92400000Y-137258333D01*
X91971428Y-137877380D02*
X91971428Y-136877380D01*
X91542857Y-137877380D02*
X91542857Y-137353571D01*
X91590476Y-137258333D01*
X91685714Y-137210714D01*
X91828571Y-137210714D01*
X91923809Y-137258333D01*
X91971428Y-137305952D01*
X90304761Y-137353571D02*
X89971428Y-137353571D01*
X89828571Y-137877380D02*
X90304761Y-137877380D01*
X90304761Y-136877380D01*
X89828571Y-136877380D01*
X88828571Y-137782142D02*
X88876190Y-137829761D01*
X89019047Y-137877380D01*
X89114285Y-137877380D01*
X89257142Y-137829761D01*
X89352380Y-137734523D01*
X89400000Y-137639285D01*
X89447619Y-137448809D01*
X89447619Y-137305952D01*
X89400000Y-137115476D01*
X89352380Y-137020238D01*
X89257142Y-136925000D01*
X89114285Y-136877380D01*
X89019047Y-136877380D01*
X88876190Y-136925000D01*
X88828571Y-136972619D01*
X88400000Y-137353571D02*
X88066666Y-137353571D01*
X87923809Y-137877380D02*
X88400000Y-137877380D01*
X88400000Y-136877380D01*
X87923809Y-136877380D01*
D14*
X82028571Y-20654761D02*
X82028571Y-22083333D01*
X82123809Y-22369047D01*
X82314285Y-22559523D01*
X82600000Y-22654761D01*
X82790476Y-22654761D01*
X81266666Y-20654761D02*
X79933333Y-20654761D01*
X81266666Y-22654761D01*
X79933333Y-22654761D01*
X79171428Y-22654761D02*
X79171428Y-20654761D01*
X78028571Y-22654761D02*
X78885714Y-21511904D01*
X78028571Y-20654761D02*
X79171428Y-21797619D01*
X105361904Y-24154761D02*
X104695238Y-26154761D01*
X104028571Y-24154761D01*
X102980952Y-24154761D02*
X102600000Y-24154761D01*
X102409523Y-24250000D01*
X102219047Y-24440476D01*
X102123809Y-24821428D01*
X102123809Y-25488095D01*
X102219047Y-25869047D01*
X102409523Y-26059523D01*
X102600000Y-26154761D01*
X102980952Y-26154761D01*
X103171428Y-26059523D01*
X103361904Y-25869047D01*
X103457142Y-25488095D01*
X103457142Y-24821428D01*
X103361904Y-24440476D01*
X103171428Y-24250000D01*
X102980952Y-24154761D01*
X100314285Y-26154761D02*
X101266666Y-26154761D01*
X101266666Y-24154761D01*
X99933333Y-24154761D02*
X98790476Y-24154761D01*
X99361904Y-26154761D02*
X99361904Y-24154761D01*
X98219047Y-25583333D02*
X97266666Y-25583333D01*
X98409523Y-26154761D02*
X97742857Y-24154761D01*
X97076190Y-26154761D01*
X95361904Y-24250000D02*
X95552380Y-24154761D01*
X95838095Y-24154761D01*
X96123809Y-24250000D01*
X96314285Y-24440476D01*
X96409523Y-24630952D01*
X96504761Y-25011904D01*
X96504761Y-25297619D01*
X96409523Y-25678571D01*
X96314285Y-25869047D01*
X96123809Y-26059523D01*
X95838095Y-26154761D01*
X95647619Y-26154761D01*
X95361904Y-26059523D01*
X95266666Y-25964285D01*
X95266666Y-25297619D01*
X95647619Y-25297619D01*
X94409523Y-25107142D02*
X93742857Y-25107142D01*
X93457142Y-26154761D02*
X94409523Y-26154761D01*
X94409523Y-24154761D01*
X93457142Y-24154761D01*
X89933333Y-25964285D02*
X90028571Y-26059523D01*
X90314285Y-26154761D01*
X90504761Y-26154761D01*
X90790476Y-26059523D01*
X90980952Y-25869047D01*
X91076190Y-25678571D01*
X91171428Y-25297619D01*
X91171428Y-25011904D01*
X91076190Y-24630952D01*
X90980952Y-24440476D01*
X90790476Y-24250000D01*
X90504761Y-24154761D01*
X90314285Y-24154761D01*
X90028571Y-24250000D01*
X89933333Y-24345238D01*
X88695238Y-24154761D02*
X88314285Y-24154761D01*
X88123809Y-24250000D01*
X87933333Y-24440476D01*
X87838095Y-24821428D01*
X87838095Y-25488095D01*
X87933333Y-25869047D01*
X88123809Y-26059523D01*
X88314285Y-26154761D01*
X88695238Y-26154761D01*
X88885714Y-26059523D01*
X89076190Y-25869047D01*
X89171428Y-25488095D01*
X89171428Y-24821428D01*
X89076190Y-24440476D01*
X88885714Y-24250000D01*
X88695238Y-24154761D01*
X86980952Y-26154761D02*
X86980952Y-24154761D01*
X85838095Y-26154761D01*
X85838095Y-24154761D01*
X85171428Y-24154761D02*
X84028571Y-24154761D01*
X84600000Y-26154761D02*
X84600000Y-24154761D01*
X82219047Y-26154761D02*
X82885714Y-25202380D01*
X83361904Y-26154761D02*
X83361904Y-24154761D01*
X82600000Y-24154761D01*
X82409523Y-24250000D01*
X82314285Y-24345238D01*
X82219047Y-24535714D01*
X82219047Y-24821428D01*
X82314285Y-25011904D01*
X82409523Y-25107142D01*
X82600000Y-25202380D01*
X83361904Y-25202380D01*
X80980952Y-24154761D02*
X80600000Y-24154761D01*
X80409523Y-24250000D01*
X80219047Y-24440476D01*
X80123809Y-24821428D01*
X80123809Y-25488095D01*
X80219047Y-25869047D01*
X80409523Y-26059523D01*
X80600000Y-26154761D01*
X80980952Y-26154761D01*
X81171428Y-26059523D01*
X81361904Y-25869047D01*
X81457142Y-25488095D01*
X81457142Y-24821428D01*
X81361904Y-24440476D01*
X81171428Y-24250000D01*
X80980952Y-24154761D01*
X78314285Y-26154761D02*
X79266666Y-26154761D01*
X79266666Y-24154761D01*
X76695238Y-26154761D02*
X77647619Y-26154761D01*
X77647619Y-24154761D01*
X76028571Y-25107142D02*
X75361904Y-25107142D01*
X75076190Y-26154761D02*
X76028571Y-26154761D01*
X76028571Y-24154761D01*
X75076190Y-24154761D01*
X74219047Y-26154761D02*
X74219047Y-24154761D01*
X73742857Y-24154761D01*
X73457142Y-24250000D01*
X73266666Y-24440476D01*
X73171428Y-24630952D01*
X73076190Y-25011904D01*
X73076190Y-25297619D01*
X73171428Y-25678571D01*
X73266666Y-25869047D01*
X73457142Y-26059523D01*
X73742857Y-26154761D01*
X74219047Y-26154761D01*
X70314285Y-24154761D02*
X69933333Y-24154761D01*
X69742857Y-24250000D01*
X69552380Y-24440476D01*
X69457142Y-24821428D01*
X69457142Y-25488095D01*
X69552380Y-25869047D01*
X69742857Y-26059523D01*
X69933333Y-26154761D01*
X70314285Y-26154761D01*
X70504761Y-26059523D01*
X70695238Y-25869047D01*
X70790476Y-25488095D01*
X70790476Y-24821428D01*
X70695238Y-24440476D01*
X70504761Y-24250000D01*
X70314285Y-24154761D01*
X68695238Y-26059523D02*
X68409523Y-26154761D01*
X67933333Y-26154761D01*
X67742857Y-26059523D01*
X67647619Y-25964285D01*
X67552380Y-25773809D01*
X67552380Y-25583333D01*
X67647619Y-25392857D01*
X67742857Y-25297619D01*
X67933333Y-25202380D01*
X68314285Y-25107142D01*
X68504761Y-25011904D01*
X68600000Y-24916666D01*
X68695238Y-24726190D01*
X68695238Y-24535714D01*
X68600000Y-24345238D01*
X68504761Y-24250000D01*
X68314285Y-24154761D01*
X67838095Y-24154761D01*
X67552380Y-24250000D01*
X65552380Y-25964285D02*
X65647619Y-26059523D01*
X65933333Y-26154761D01*
X66123809Y-26154761D01*
X66409523Y-26059523D01*
X66600000Y-25869047D01*
X66695238Y-25678571D01*
X66790476Y-25297619D01*
X66790476Y-25011904D01*
X66695238Y-24630952D01*
X66600000Y-24440476D01*
X66409523Y-24250000D01*
X66123809Y-24154761D01*
X65933333Y-24154761D01*
X65647619Y-24250000D01*
X65552380Y-24345238D01*
X64695238Y-26154761D02*
X64695238Y-24154761D01*
X62790476Y-26154761D02*
X63742857Y-26154761D01*
X63742857Y-24154761D01*
X61171428Y-26154761D02*
X62123809Y-26154761D01*
X62123809Y-24154761D01*
X60600000Y-25583333D02*
X59647619Y-25583333D01*
X60790476Y-26154761D02*
X60123809Y-24154761D01*
X59457142Y-26154761D01*
X59076190Y-24154761D02*
X57933333Y-24154761D01*
X58504761Y-26154761D02*
X58504761Y-24154761D01*
X56885714Y-24154761D02*
X56504761Y-24154761D01*
X56314285Y-24250000D01*
X56123809Y-24440476D01*
X56028571Y-24821428D01*
X56028571Y-25488095D01*
X56123809Y-25869047D01*
X56314285Y-26059523D01*
X56504761Y-26154761D01*
X56885714Y-26154761D01*
X57076190Y-26059523D01*
X57266666Y-25869047D01*
X57361904Y-25488095D01*
X57361904Y-24821428D01*
X57266666Y-24440476D01*
X57076190Y-24250000D01*
X56885714Y-24154761D01*
X54028571Y-26154761D02*
X54695238Y-25202380D01*
X55171428Y-26154761D02*
X55171428Y-24154761D01*
X54409523Y-24154761D01*
X54219047Y-24250000D01*
X54123809Y-24345238D01*
X54028571Y-24535714D01*
X54028571Y-24821428D01*
X54123809Y-25011904D01*
X54219047Y-25107142D01*
X54409523Y-25202380D01*
X55171428Y-25202380D01*
D13*
X104671428Y-98552380D02*
X105242857Y-98552380D01*
X104957142Y-98552380D02*
X104957142Y-97552380D01*
X105052380Y-97695238D01*
X105147619Y-97790476D01*
X105242857Y-97838095D01*
X104385714Y-97552380D02*
X104052380Y-98552380D01*
X103719047Y-97552380D01*
X102671428Y-97504761D02*
X103528571Y-98790476D01*
X102147619Y-97552380D02*
X101957142Y-97552380D01*
X101861904Y-97600000D01*
X101766666Y-97695238D01*
X101719047Y-97885714D01*
X101719047Y-98219047D01*
X101766666Y-98409523D01*
X101861904Y-98504761D01*
X101957142Y-98552380D01*
X102147619Y-98552380D01*
X102242857Y-98504761D01*
X102338095Y-98409523D01*
X102385714Y-98219047D01*
X102385714Y-97885714D01*
X102338095Y-97695238D01*
X102242857Y-97600000D01*
X102147619Y-97552380D01*
X100719047Y-98457142D02*
X100766666Y-98504761D01*
X100909523Y-98552380D01*
X101004761Y-98552380D01*
X101147619Y-98504761D01*
X101242857Y-98409523D01*
X101290476Y-98314285D01*
X101338095Y-98123809D01*
X101338095Y-97980952D01*
X101290476Y-97790476D01*
X101242857Y-97695238D01*
X101147619Y-97600000D01*
X101004761Y-97552380D01*
X100909523Y-97552380D01*
X100766666Y-97600000D01*
X100719047Y-97647619D01*
X100433333Y-97552380D02*
X99861904Y-97552380D01*
X100147619Y-98552380D02*
X100147619Y-97552380D01*
X59719047Y-114552380D02*
X59719047Y-113552380D01*
X59338095Y-113552380D01*
X59242857Y-113600000D01*
X59195238Y-113647619D01*
X59147619Y-113742857D01*
X59147619Y-113885714D01*
X59195238Y-113980952D01*
X59242857Y-114028571D01*
X59338095Y-114076190D01*
X59719047Y-114076190D01*
X58719047Y-113552380D02*
X58719047Y-114361904D01*
X58671428Y-114457142D01*
X58623809Y-114504761D01*
X58528571Y-114552380D01*
X58338095Y-114552380D01*
X58242857Y-114504761D01*
X58195238Y-114457142D01*
X58147619Y-114361904D01*
X58147619Y-113552380D01*
X57195238Y-114552380D02*
X57671428Y-114552380D01*
X57671428Y-113552380D01*
X56909523Y-114504761D02*
X56766666Y-114552380D01*
X56528571Y-114552380D01*
X56433333Y-114504761D01*
X56385714Y-114457142D01*
X56338095Y-114361904D01*
X56338095Y-114266666D01*
X56385714Y-114171428D01*
X56433333Y-114123809D01*
X56528571Y-114076190D01*
X56719047Y-114028571D01*
X56814285Y-113980952D01*
X56861904Y-113933333D01*
X56909523Y-113838095D01*
X56909523Y-113742857D01*
X56861904Y-113647619D01*
X56814285Y-113600000D01*
X56719047Y-113552380D01*
X56480952Y-113552380D01*
X56338095Y-113600000D01*
X55909523Y-114028571D02*
X55576190Y-114028571D01*
X55433333Y-114552380D02*
X55909523Y-114552380D01*
X55909523Y-113552380D01*
X55433333Y-113552380D01*
X76033333Y-113452380D02*
X75461904Y-113452380D01*
X75747619Y-114452380D02*
X75747619Y-113452380D01*
X74557142Y-114452380D02*
X74890476Y-113976190D01*
X75128571Y-114452380D02*
X75128571Y-113452380D01*
X74747619Y-113452380D01*
X74652380Y-113500000D01*
X74604761Y-113547619D01*
X74557142Y-113642857D01*
X74557142Y-113785714D01*
X74604761Y-113880952D01*
X74652380Y-113928571D01*
X74747619Y-113976190D01*
X75128571Y-113976190D01*
X74128571Y-114452380D02*
X74128571Y-113452380D01*
X73700000Y-114166666D02*
X73223809Y-114166666D01*
X73795238Y-114452380D02*
X73461904Y-113452380D01*
X73128571Y-114452380D01*
X72795238Y-114452380D02*
X72795238Y-113452380D01*
X72223809Y-114452380D01*
X72223809Y-113452380D01*
X71223809Y-113500000D02*
X71319047Y-113452380D01*
X71461904Y-113452380D01*
X71604761Y-113500000D01*
X71700000Y-113595238D01*
X71747619Y-113690476D01*
X71795238Y-113880952D01*
X71795238Y-114023809D01*
X71747619Y-114214285D01*
X71700000Y-114309523D01*
X71604761Y-114404761D01*
X71461904Y-114452380D01*
X71366666Y-114452380D01*
X71223809Y-114404761D01*
X71176190Y-114357142D01*
X71176190Y-114023809D01*
X71366666Y-114023809D01*
X70271428Y-114452380D02*
X70747619Y-114452380D01*
X70747619Y-113452380D01*
X69938095Y-113928571D02*
X69604761Y-113928571D01*
X69461904Y-114452380D02*
X69938095Y-114452380D01*
X69938095Y-113452380D01*
X69461904Y-113452380D01*
X89200000Y-114504761D02*
X89057142Y-114552380D01*
X88819047Y-114552380D01*
X88723809Y-114504761D01*
X88676190Y-114457142D01*
X88628571Y-114361904D01*
X88628571Y-114266666D01*
X88676190Y-114171428D01*
X88723809Y-114123809D01*
X88819047Y-114076190D01*
X89009523Y-114028571D01*
X89104761Y-113980952D01*
X89152380Y-113933333D01*
X89200000Y-113838095D01*
X89200000Y-113742857D01*
X89152380Y-113647619D01*
X89104761Y-113600000D01*
X89009523Y-113552380D01*
X88771428Y-113552380D01*
X88628571Y-113600000D01*
X88200000Y-114552380D02*
X88200000Y-113552380D01*
X87723809Y-114552380D02*
X87723809Y-113552380D01*
X87152380Y-114552380D01*
X87152380Y-113552380D01*
X86676190Y-114028571D02*
X86342857Y-114028571D01*
X86200000Y-114552380D02*
X86676190Y-114552380D01*
X86676190Y-113552380D01*
X86200000Y-113552380D01*
X106119047Y-114404761D02*
X105976190Y-114452380D01*
X105738095Y-114452380D01*
X105642857Y-114404761D01*
X105595238Y-114357142D01*
X105547619Y-114261904D01*
X105547619Y-114166666D01*
X105595238Y-114071428D01*
X105642857Y-114023809D01*
X105738095Y-113976190D01*
X105928571Y-113928571D01*
X106023809Y-113880952D01*
X106071428Y-113833333D01*
X106119047Y-113738095D01*
X106119047Y-113642857D01*
X106071428Y-113547619D01*
X106023809Y-113500000D01*
X105928571Y-113452380D01*
X105690476Y-113452380D01*
X105547619Y-113500000D01*
X105166666Y-114166666D02*
X104690476Y-114166666D01*
X105261904Y-114452380D02*
X104928571Y-113452380D01*
X104595238Y-114452380D01*
X104357142Y-113452380D02*
X104119047Y-114452380D01*
X103928571Y-113738095D01*
X103738095Y-114452380D01*
X103500000Y-113452380D01*
X103261904Y-113452380D02*
X102690476Y-113452380D01*
X102976190Y-114452380D02*
X102976190Y-113452380D01*
X102166666Y-113452380D02*
X101976190Y-113452380D01*
X101880952Y-113500000D01*
X101785714Y-113595238D01*
X101738095Y-113785714D01*
X101738095Y-114119047D01*
X101785714Y-114309523D01*
X101880952Y-114404761D01*
X101976190Y-114452380D01*
X102166666Y-114452380D01*
X102261904Y-114404761D01*
X102357142Y-114309523D01*
X102404761Y-114119047D01*
X102404761Y-113785714D01*
X102357142Y-113595238D01*
X102261904Y-113500000D01*
X102166666Y-113452380D01*
X101119047Y-113452380D02*
X100928571Y-113452380D01*
X100833333Y-113500000D01*
X100738095Y-113595238D01*
X100690476Y-113785714D01*
X100690476Y-114119047D01*
X100738095Y-114309523D01*
X100833333Y-114404761D01*
X100928571Y-114452380D01*
X101119047Y-114452380D01*
X101214285Y-114404761D01*
X101309523Y-114309523D01*
X101357142Y-114119047D01*
X101357142Y-113785714D01*
X101309523Y-113595238D01*
X101214285Y-113500000D01*
X101119047Y-113452380D01*
X100404761Y-113452380D02*
X99833333Y-113452380D01*
X100119047Y-114452380D02*
X100119047Y-113452380D01*
X99500000Y-114452380D02*
X99500000Y-113452380D01*
X99500000Y-113928571D02*
X98928571Y-113928571D01*
X98928571Y-114452380D02*
X98928571Y-113452380D01*
X90271428Y-98552380D02*
X90842857Y-98552380D01*
X90557142Y-98552380D02*
X90557142Y-97552380D01*
X90652380Y-97695238D01*
X90747619Y-97790476D01*
X90842857Y-97838095D01*
X89985714Y-97552380D02*
X89652380Y-98552380D01*
X89319047Y-97552380D01*
X88271428Y-97504761D02*
X89128571Y-98790476D01*
X87747619Y-97552380D02*
X87557142Y-97552380D01*
X87461904Y-97600000D01*
X87366666Y-97695238D01*
X87319047Y-97885714D01*
X87319047Y-98219047D01*
X87366666Y-98409523D01*
X87461904Y-98504761D01*
X87557142Y-98552380D01*
X87747619Y-98552380D01*
X87842857Y-98504761D01*
X87938095Y-98409523D01*
X87985714Y-98219047D01*
X87985714Y-97885714D01*
X87938095Y-97695238D01*
X87842857Y-97600000D01*
X87747619Y-97552380D01*
X86319047Y-98457142D02*
X86366666Y-98504761D01*
X86509523Y-98552380D01*
X86604761Y-98552380D01*
X86747619Y-98504761D01*
X86842857Y-98409523D01*
X86890476Y-98314285D01*
X86938095Y-98123809D01*
X86938095Y-97980952D01*
X86890476Y-97790476D01*
X86842857Y-97695238D01*
X86747619Y-97600000D01*
X86604761Y-97552380D01*
X86509523Y-97552380D01*
X86366666Y-97600000D01*
X86319047Y-97647619D01*
X86033333Y-97552380D02*
X85461904Y-97552380D01*
X85747619Y-98552380D02*
X85747619Y-97552380D01*
X77666666Y-97928571D02*
X77333333Y-97928571D01*
X77190476Y-98452380D02*
X77666666Y-98452380D01*
X77666666Y-97452380D01*
X77190476Y-97452380D01*
X76857142Y-97452380D02*
X76190476Y-98452380D01*
X76190476Y-97452380D02*
X76857142Y-98452380D01*
X75809523Y-98452380D02*
X75809523Y-97452380D01*
X75428571Y-97452380D01*
X75333333Y-97500000D01*
X75285714Y-97547619D01*
X75238095Y-97642857D01*
X75238095Y-97785714D01*
X75285714Y-97880952D01*
X75333333Y-97928571D01*
X75428571Y-97976190D01*
X75809523Y-97976190D01*
X74619047Y-97452380D02*
X74428571Y-97452380D01*
X74333333Y-97500000D01*
X74238095Y-97595238D01*
X74190476Y-97785714D01*
X74190476Y-98119047D01*
X74238095Y-98309523D01*
X74333333Y-98404761D01*
X74428571Y-98452380D01*
X74619047Y-98452380D01*
X74714285Y-98404761D01*
X74809523Y-98309523D01*
X74857142Y-98119047D01*
X74857142Y-97785714D01*
X74809523Y-97595238D01*
X74714285Y-97500000D01*
X74619047Y-97452380D01*
X73761904Y-98452380D02*
X73761904Y-97452380D01*
X73190476Y-98452380D01*
X73190476Y-97452380D01*
X72714285Y-97928571D02*
X72380952Y-97928571D01*
X72238095Y-98452380D02*
X72714285Y-98452380D01*
X72714285Y-97452380D01*
X72238095Y-97452380D01*
X71809523Y-98452380D02*
X71809523Y-97452380D01*
X71238095Y-98452380D01*
X71238095Y-97452380D01*
X70904761Y-97452380D02*
X70333333Y-97452380D01*
X70619047Y-98452380D02*
X70619047Y-97452380D01*
X69999999Y-98452380D02*
X69999999Y-97452380D01*
X69571428Y-98166666D02*
X69095238Y-98166666D01*
X69666666Y-98452380D02*
X69333333Y-97452380D01*
X68999999Y-98452380D01*
X68190476Y-98452380D02*
X68666666Y-98452380D01*
X68666666Y-97452380D01*
X59433333Y-98552380D02*
X59909523Y-98552380D01*
X59909523Y-97552380D01*
X59100000Y-98552380D02*
X59100000Y-97552380D01*
X58623809Y-98552380D02*
X58623809Y-97552380D01*
X58052380Y-98552380D01*
X58052380Y-97552380D01*
X57576190Y-98028571D02*
X57242857Y-98028571D01*
X57100000Y-98552380D02*
X57576190Y-98552380D01*
X57576190Y-97552380D01*
X57100000Y-97552380D01*
X56719047Y-98266666D02*
X56242857Y-98266666D01*
X56814285Y-98552380D02*
X56480952Y-97552380D01*
X56147619Y-98552380D01*
X55242857Y-98552380D02*
X55576190Y-98076190D01*
X55814285Y-98552380D02*
X55814285Y-97552380D01*
X55433333Y-97552380D01*
X55338095Y-97600000D01*
X55290476Y-97647619D01*
X55242857Y-97742857D01*
X55242857Y-97885714D01*
X55290476Y-97980952D01*
X55338095Y-98028571D01*
X55433333Y-98076190D01*
X55814285Y-98076190D01*
X74238095Y-82304761D02*
X74095238Y-82352380D01*
X73857142Y-82352380D01*
X73761904Y-82304761D01*
X73714285Y-82257142D01*
X73666666Y-82161904D01*
X73666666Y-82066666D01*
X73714285Y-81971428D01*
X73761904Y-81923809D01*
X73857142Y-81876190D01*
X74047619Y-81828571D01*
X74142857Y-81780952D01*
X74190476Y-81733333D01*
X74238095Y-81638095D01*
X74238095Y-81542857D01*
X74190476Y-81447619D01*
X74142857Y-81400000D01*
X74047619Y-81352380D01*
X73809523Y-81352380D01*
X73666666Y-81400000D01*
X73047619Y-81876190D02*
X73047619Y-82352380D01*
X73380952Y-81352380D02*
X73047619Y-81876190D01*
X72714285Y-81352380D01*
X72380952Y-82352380D02*
X72380952Y-81352380D01*
X71809523Y-82352380D01*
X71809523Y-81352380D01*
X70761904Y-82257142D02*
X70809523Y-82304761D01*
X70952380Y-82352380D01*
X71047619Y-82352380D01*
X71190476Y-82304761D01*
X71285714Y-82209523D01*
X71333333Y-82114285D01*
X71380952Y-81923809D01*
X71380952Y-81780952D01*
X71333333Y-81590476D01*
X71285714Y-81495238D01*
X71190476Y-81400000D01*
X71047619Y-81352380D01*
X70952380Y-81352380D01*
X70809523Y-81400000D01*
X70761904Y-81447619D01*
X90314285Y-82352380D02*
X90314285Y-81352380D01*
X89933333Y-81352380D01*
X89838095Y-81400000D01*
X89790476Y-81447619D01*
X89742857Y-81542857D01*
X89742857Y-81685714D01*
X89790476Y-81780952D01*
X89838095Y-81828571D01*
X89933333Y-81876190D01*
X90314285Y-81876190D01*
X89409523Y-81352380D02*
X89171428Y-82352380D01*
X88980952Y-81638095D01*
X88790476Y-82352380D01*
X88552380Y-81352380D01*
X88171428Y-82352380D02*
X88171428Y-81352380D01*
X87838095Y-82066666D01*
X87504761Y-81352380D01*
X87504761Y-82352380D01*
X85695238Y-82257142D02*
X85742857Y-82304761D01*
X85885714Y-82352380D01*
X85980952Y-82352380D01*
X86123809Y-82304761D01*
X86219047Y-82209523D01*
X86266666Y-82114285D01*
X86314285Y-81923809D01*
X86314285Y-81780952D01*
X86266666Y-81590476D01*
X86219047Y-81495238D01*
X86123809Y-81400000D01*
X85980952Y-81352380D01*
X85885714Y-81352380D01*
X85742857Y-81400000D01*
X85695238Y-81447619D01*
X85409523Y-81352380D02*
X85076190Y-82352380D01*
X84742857Y-81352380D01*
X109814285Y-71352380D02*
X109814285Y-70352380D01*
X109433333Y-70352380D01*
X109338095Y-70400000D01*
X109290476Y-70447619D01*
X109242857Y-70542857D01*
X109242857Y-70685714D01*
X109290476Y-70780952D01*
X109338095Y-70828571D01*
X109433333Y-70876190D01*
X109814285Y-70876190D01*
X108814285Y-70352380D02*
X108814285Y-71161904D01*
X108766666Y-71257142D01*
X108719047Y-71304761D01*
X108623809Y-71352380D01*
X108433333Y-71352380D01*
X108338095Y-71304761D01*
X108290476Y-71257142D01*
X108242857Y-71161904D01*
X108242857Y-70352380D01*
X107290476Y-71352380D02*
X107766666Y-71352380D01*
X107766666Y-70352380D01*
X107004761Y-71304761D02*
X106861904Y-71352380D01*
X106623809Y-71352380D01*
X106528571Y-71304761D01*
X106480952Y-71257142D01*
X106433333Y-71161904D01*
X106433333Y-71066666D01*
X106480952Y-70971428D01*
X106528571Y-70923809D01*
X106623809Y-70876190D01*
X106814285Y-70828571D01*
X106909523Y-70780952D01*
X106957142Y-70733333D01*
X107004761Y-70638095D01*
X107004761Y-70542857D01*
X106957142Y-70447619D01*
X106909523Y-70400000D01*
X106814285Y-70352380D01*
X106576190Y-70352380D01*
X106433333Y-70400000D01*
X106004761Y-70828571D02*
X105671428Y-70828571D01*
X105528571Y-71352380D02*
X106004761Y-71352380D01*
X106004761Y-70352380D01*
X105528571Y-70352380D01*
X104433333Y-70352380D02*
X104195238Y-71352380D01*
X104004761Y-70638095D01*
X103814285Y-71352380D01*
X103576190Y-70352380D01*
X103195238Y-71352380D02*
X103195238Y-70352380D01*
X102719047Y-71352380D02*
X102719047Y-70352380D01*
X102480952Y-70352380D01*
X102338095Y-70400000D01*
X102242857Y-70495238D01*
X102195238Y-70590476D01*
X102147619Y-70780952D01*
X102147619Y-70923809D01*
X102195238Y-71114285D01*
X102242857Y-71209523D01*
X102338095Y-71304761D01*
X102480952Y-71352380D01*
X102719047Y-71352380D01*
X101861904Y-70352380D02*
X101290476Y-70352380D01*
X101576190Y-71352380D02*
X101576190Y-70352380D01*
X100957142Y-71352380D02*
X100957142Y-70352380D01*
X100957142Y-70828571D02*
X100385714Y-70828571D01*
X100385714Y-71352380D02*
X100385714Y-70352380D01*
X56404761Y-71452380D02*
X56404761Y-70452380D01*
X56023809Y-70452380D01*
X55928571Y-70500000D01*
X55880952Y-70547619D01*
X55833333Y-70642857D01*
X55833333Y-70785714D01*
X55880952Y-70880952D01*
X55928571Y-70928571D01*
X56023809Y-70976190D01*
X56404761Y-70976190D01*
X55500000Y-70452380D02*
X55261904Y-71452380D01*
X55071428Y-70738095D01*
X54880952Y-71452380D01*
X54642857Y-70452380D01*
X54261904Y-71452380D02*
X54261904Y-70452380D01*
X53928571Y-71166666D01*
X53595238Y-70452380D01*
X53595238Y-71452380D01*
X68814285Y-50828571D02*
X68480952Y-50828571D01*
X68338095Y-51352380D02*
X68814285Y-51352380D01*
X68814285Y-50352380D01*
X68338095Y-50352380D01*
X68004761Y-50352380D02*
X67338095Y-51352380D01*
X67338095Y-50352380D02*
X68004761Y-51352380D01*
X66957142Y-51352380D02*
X66957142Y-50352380D01*
X66576190Y-50352380D01*
X66480952Y-50400000D01*
X66433333Y-50447619D01*
X66385714Y-50542857D01*
X66385714Y-50685714D01*
X66433333Y-50780952D01*
X66480952Y-50828571D01*
X66576190Y-50876190D01*
X66957142Y-50876190D01*
X64719047Y-51352380D02*
X65195238Y-51352380D01*
X65195238Y-50352380D01*
X64385714Y-50828571D02*
X64052380Y-50828571D01*
X63909523Y-51352380D02*
X64385714Y-51352380D01*
X64385714Y-50352380D01*
X63909523Y-50352380D01*
X63623809Y-50352380D02*
X63290476Y-51352380D01*
X62957142Y-50352380D01*
X62623809Y-50828571D02*
X62290476Y-50828571D01*
X62147619Y-51352380D02*
X62623809Y-51352380D01*
X62623809Y-50352380D01*
X62147619Y-50352380D01*
X61242857Y-51352380D02*
X61719047Y-51352380D01*
X61719047Y-50352380D01*
X100338095Y-51352380D02*
X100814285Y-51352380D01*
X100814285Y-50352380D01*
X100004761Y-51352380D02*
X100004761Y-50352380D01*
X99528571Y-51352380D02*
X99528571Y-50352380D01*
X98957142Y-51352380D01*
X98957142Y-50352380D01*
X98480952Y-50828571D02*
X98147619Y-50828571D01*
X98004761Y-51352380D02*
X98480952Y-51352380D01*
X98480952Y-50352380D01*
X98004761Y-50352380D01*
X97623809Y-51066666D02*
X97147619Y-51066666D01*
X97719047Y-51352380D02*
X97385714Y-50352380D01*
X97052380Y-51352380D01*
X96147619Y-51352380D02*
X96480952Y-50876190D01*
X96719047Y-51352380D02*
X96719047Y-50352380D01*
X96338095Y-50352380D01*
X96242857Y-50400000D01*
X96195238Y-50447619D01*
X96147619Y-50542857D01*
X96147619Y-50685714D01*
X96195238Y-50780952D01*
X96242857Y-50828571D01*
X96338095Y-50876190D01*
X96719047Y-50876190D01*
X94623809Y-50828571D02*
X94957142Y-50828571D01*
X94957142Y-51352380D02*
X94957142Y-50352380D01*
X94480952Y-50352380D01*
X94100000Y-51352380D02*
X94100000Y-50352380D01*
X93766666Y-51066666D01*
X93433333Y-50352380D01*
X93433333Y-51352380D01*
X91719047Y-51352380D02*
X92195238Y-51352380D01*
X92195238Y-50352380D01*
X91385714Y-50828571D02*
X91052380Y-50828571D01*
X90909523Y-51352380D02*
X91385714Y-51352380D01*
X91385714Y-50352380D01*
X90909523Y-50352380D01*
X90623809Y-50352380D02*
X90290476Y-51352380D01*
X89957142Y-50352380D01*
X89623809Y-50828571D02*
X89290476Y-50828571D01*
X89147619Y-51352380D02*
X89623809Y-51352380D01*
X89623809Y-50352380D01*
X89147619Y-50352380D01*
X88242857Y-51352380D02*
X88719047Y-51352380D01*
X88719047Y-50352380D01*
X101723809Y-30828571D02*
X102057142Y-30828571D01*
X102057142Y-31352380D02*
X102057142Y-30352380D01*
X101580952Y-30352380D01*
X100628571Y-31352380D02*
X100961904Y-30876190D01*
X101200000Y-31352380D02*
X101200000Y-30352380D01*
X100819047Y-30352380D01*
X100723809Y-30400000D01*
X100676190Y-30447619D01*
X100628571Y-30542857D01*
X100628571Y-30685714D01*
X100676190Y-30780952D01*
X100723809Y-30828571D01*
X100819047Y-30876190D01*
X101200000Y-30876190D01*
X100200000Y-30828571D02*
X99866666Y-30828571D01*
X99723809Y-31352380D02*
X100200000Y-31352380D01*
X100200000Y-30352380D01*
X99723809Y-30352380D01*
X98628571Y-31447619D02*
X98723809Y-31400000D01*
X98819047Y-31304761D01*
X98961904Y-31161904D01*
X99057142Y-31114285D01*
X99152380Y-31114285D01*
X99104761Y-31352380D02*
X99200000Y-31304761D01*
X99295238Y-31209523D01*
X99342857Y-31019047D01*
X99342857Y-30685714D01*
X99295238Y-30495238D01*
X99200000Y-30400000D01*
X99104761Y-30352380D01*
X98914285Y-30352380D01*
X98819047Y-30400000D01*
X98723809Y-30495238D01*
X98676190Y-30685714D01*
X98676190Y-31019047D01*
X98723809Y-31209523D01*
X98819047Y-31304761D01*
X98914285Y-31352380D01*
X99104761Y-31352380D01*
X98247619Y-30352380D02*
X98247619Y-31161904D01*
X98200000Y-31257142D01*
X98152380Y-31304761D01*
X98057142Y-31352380D01*
X97866666Y-31352380D01*
X97771428Y-31304761D01*
X97723809Y-31257142D01*
X97676190Y-31161904D01*
X97676190Y-30352380D01*
X97200000Y-30828571D02*
X96866666Y-30828571D01*
X96723809Y-31352380D02*
X97200000Y-31352380D01*
X97200000Y-30352380D01*
X96723809Y-30352380D01*
X96295238Y-31352380D02*
X96295238Y-30352380D01*
X95723809Y-31352380D01*
X95723809Y-30352380D01*
X94676190Y-31257142D02*
X94723809Y-31304761D01*
X94866666Y-31352380D01*
X94961904Y-31352380D01*
X95104761Y-31304761D01*
X95200000Y-31209523D01*
X95247619Y-31114285D01*
X95295238Y-30923809D01*
X95295238Y-30780952D01*
X95247619Y-30590476D01*
X95200000Y-30495238D01*
X95104761Y-30400000D01*
X94961904Y-30352380D01*
X94866666Y-30352380D01*
X94723809Y-30400000D01*
X94676190Y-30447619D01*
X94057142Y-30876190D02*
X94057142Y-31352380D01*
X94390476Y-30352380D02*
X94057142Y-30876190D01*
X93723809Y-30352380D01*
X92057142Y-31257142D02*
X92104761Y-31304761D01*
X92247619Y-31352380D01*
X92342857Y-31352380D01*
X92485714Y-31304761D01*
X92580952Y-31209523D01*
X92628571Y-31114285D01*
X92676190Y-30923809D01*
X92676190Y-30780952D01*
X92628571Y-30590476D01*
X92580952Y-30495238D01*
X92485714Y-30400000D01*
X92342857Y-30352380D01*
X92247619Y-30352380D01*
X92104761Y-30400000D01*
X92057142Y-30447619D01*
X91438095Y-30352380D02*
X91247619Y-30352380D01*
X91152380Y-30400000D01*
X91057142Y-30495238D01*
X91009523Y-30685714D01*
X91009523Y-31019047D01*
X91057142Y-31209523D01*
X91152380Y-31304761D01*
X91247619Y-31352380D01*
X91438095Y-31352380D01*
X91533333Y-31304761D01*
X91628571Y-31209523D01*
X91676190Y-31019047D01*
X91676190Y-30685714D01*
X91628571Y-30495238D01*
X91533333Y-30400000D01*
X91438095Y-30352380D01*
X90628571Y-31066666D02*
X90152380Y-31066666D01*
X90723809Y-31352380D02*
X90390476Y-30352380D01*
X90057142Y-31352380D01*
X89152380Y-31352380D02*
X89485714Y-30876190D01*
X89723809Y-31352380D02*
X89723809Y-30352380D01*
X89342857Y-30352380D01*
X89247619Y-30400000D01*
X89200000Y-30447619D01*
X89152380Y-30542857D01*
X89152380Y-30685714D01*
X89200000Y-30780952D01*
X89247619Y-30828571D01*
X89342857Y-30876190D01*
X89723809Y-30876190D01*
X88771428Y-31304761D02*
X88628571Y-31352380D01*
X88390476Y-31352380D01*
X88295238Y-31304761D01*
X88247619Y-31257142D01*
X88200000Y-31161904D01*
X88200000Y-31066666D01*
X88247619Y-30971428D01*
X88295238Y-30923809D01*
X88390476Y-30876190D01*
X88580952Y-30828571D01*
X88676190Y-30780952D01*
X88723809Y-30733333D01*
X88771428Y-30638095D01*
X88771428Y-30542857D01*
X88723809Y-30447619D01*
X88676190Y-30400000D01*
X88580952Y-30352380D01*
X88342857Y-30352380D01*
X88200000Y-30400000D01*
X87771428Y-30828571D02*
X87438095Y-30828571D01*
X87295238Y-31352380D02*
X87771428Y-31352380D01*
X87771428Y-30352380D01*
X87295238Y-30352380D01*
X70485714Y-30928571D02*
X70819047Y-30928571D01*
X70819047Y-31452380D02*
X70819047Y-30452380D01*
X70342857Y-30452380D01*
X69390476Y-31452380D02*
X69723809Y-30976190D01*
X69961904Y-31452380D02*
X69961904Y-30452380D01*
X69580952Y-30452380D01*
X69485714Y-30500000D01*
X69438095Y-30547619D01*
X69390476Y-30642857D01*
X69390476Y-30785714D01*
X69438095Y-30880952D01*
X69485714Y-30928571D01*
X69580952Y-30976190D01*
X69961904Y-30976190D01*
X68961904Y-30928571D02*
X68628571Y-30928571D01*
X68485714Y-31452380D02*
X68961904Y-31452380D01*
X68961904Y-30452380D01*
X68485714Y-30452380D01*
X67390476Y-31547619D02*
X67485714Y-31500000D01*
X67580952Y-31404761D01*
X67723809Y-31261904D01*
X67819047Y-31214285D01*
X67914285Y-31214285D01*
X67866666Y-31452380D02*
X67961904Y-31404761D01*
X68057142Y-31309523D01*
X68104761Y-31119047D01*
X68104761Y-30785714D01*
X68057142Y-30595238D01*
X67961904Y-30500000D01*
X67866666Y-30452380D01*
X67676190Y-30452380D01*
X67580952Y-30500000D01*
X67485714Y-30595238D01*
X67438095Y-30785714D01*
X67438095Y-31119047D01*
X67485714Y-31309523D01*
X67580952Y-31404761D01*
X67676190Y-31452380D01*
X67866666Y-31452380D01*
X67009523Y-30452380D02*
X67009523Y-31261904D01*
X66961904Y-31357142D01*
X66914285Y-31404761D01*
X66819047Y-31452380D01*
X66628571Y-31452380D01*
X66533333Y-31404761D01*
X66485714Y-31357142D01*
X66438095Y-31261904D01*
X66438095Y-30452380D01*
X65961904Y-30928571D02*
X65628571Y-30928571D01*
X65485714Y-31452380D02*
X65961904Y-31452380D01*
X65961904Y-30452380D01*
X65485714Y-30452380D01*
X65057142Y-31452380D02*
X65057142Y-30452380D01*
X64485714Y-31452380D01*
X64485714Y-30452380D01*
X63438095Y-31357142D02*
X63485714Y-31404761D01*
X63628571Y-31452380D01*
X63723809Y-31452380D01*
X63866666Y-31404761D01*
X63961904Y-31309523D01*
X64009523Y-31214285D01*
X64057142Y-31023809D01*
X64057142Y-30880952D01*
X64009523Y-30690476D01*
X63961904Y-30595238D01*
X63866666Y-30500000D01*
X63723809Y-30452380D01*
X63628571Y-30452380D01*
X63485714Y-30500000D01*
X63438095Y-30547619D01*
X62819047Y-30976190D02*
X62819047Y-31452380D01*
X63152380Y-30452380D02*
X62819047Y-30976190D01*
X62485714Y-30452380D01*
X61057142Y-30928571D02*
X61390476Y-30928571D01*
X61390476Y-31452380D02*
X61390476Y-30452380D01*
X60914285Y-30452380D01*
X60533333Y-31452380D02*
X60533333Y-30452380D01*
X60057142Y-31452380D02*
X60057142Y-30452380D01*
X59485714Y-31452380D01*
X59485714Y-30452380D01*
X59009523Y-30928571D02*
X58676190Y-30928571D01*
X58533333Y-31452380D02*
X59009523Y-31452380D01*
X59009523Y-30452380D01*
X58533333Y-30452380D01*
D15*
G36*
X85972924Y-133413308D02*
G01*
X85861978Y-133473180D01*
X85738494Y-133566634D01*
X85608945Y-133688487D01*
X85479805Y-133833558D01*
X85422561Y-133906341D01*
X85354528Y-133999654D01*
X85288610Y-134095755D01*
X85230316Y-134185843D01*
X85185151Y-134261114D01*
X85158621Y-134312767D01*
X85156235Y-134331999D01*
X85156260Y-134332000D01*
X85176544Y-134314408D01*
X85225172Y-134265849D01*
X85295991Y-134192650D01*
X85382851Y-134101135D01*
X85438678Y-134041598D01*
X85560593Y-133916543D01*
X85681802Y-133802180D01*
X85796090Y-133703493D01*
X85897242Y-133625465D01*
X85979044Y-133573079D01*
X86035280Y-133551321D01*
X86048953Y-133552217D01*
X86072935Y-133580535D01*
X86097862Y-133639209D01*
X86102995Y-133656104D01*
X86130017Y-133726907D01*
X86157664Y-133746935D01*
X86186774Y-133716216D01*
X86210240Y-133659391D01*
X86229851Y-133550990D01*
X86210129Y-133466562D01*
X86154143Y-133411751D01*
X86064964Y-133392200D01*
X86064858Y-133392200D01*
X85972924Y-133413308D01*
X85972924Y-133413308D01*
G37*
X85972924Y-133413308D02*
X85861978Y-133473180D01*
X85738494Y-133566634D01*
X85608945Y-133688487D01*
X85479805Y-133833558D01*
X85422561Y-133906341D01*
X85354528Y-133999654D01*
X85288610Y-134095755D01*
X85230316Y-134185843D01*
X85185151Y-134261114D01*
X85158621Y-134312767D01*
X85156235Y-134331999D01*
X85156260Y-134332000D01*
X85176544Y-134314408D01*
X85225172Y-134265849D01*
X85295991Y-134192650D01*
X85382851Y-134101135D01*
X85438678Y-134041598D01*
X85560593Y-133916543D01*
X85681802Y-133802180D01*
X85796090Y-133703493D01*
X85897242Y-133625465D01*
X85979044Y-133573079D01*
X86035280Y-133551321D01*
X86048953Y-133552217D01*
X86072935Y-133580535D01*
X86097862Y-133639209D01*
X86102995Y-133656104D01*
X86130017Y-133726907D01*
X86157664Y-133746935D01*
X86186774Y-133716216D01*
X86210240Y-133659391D01*
X86229851Y-133550990D01*
X86210129Y-133466562D01*
X86154143Y-133411751D01*
X86064964Y-133392200D01*
X86064858Y-133392200D01*
X85972924Y-133413308D01*
G36*
X82111292Y-131847713D02*
G01*
X82000342Y-131876644D01*
X81874565Y-131918210D01*
X81741533Y-131969726D01*
X81608815Y-132028508D01*
X81483980Y-132091872D01*
X81374599Y-132157136D01*
X81301700Y-132210225D01*
X81255335Y-132252348D01*
X81250795Y-132267771D01*
X81286849Y-132256755D01*
X81362269Y-132219562D01*
X81428700Y-132183223D01*
X81534747Y-132128505D01*
X81661475Y-132070383D01*
X81797399Y-132013330D01*
X81931032Y-131961820D01*
X82050889Y-131920325D01*
X82145484Y-131893320D01*
X82193877Y-131885215D01*
X82251356Y-131877789D01*
X82279044Y-131865325D01*
X82279487Y-131863561D01*
X82258434Y-131838487D01*
X82199846Y-131834099D01*
X82111292Y-131847713D01*
X82111292Y-131847713D01*
G37*
X82111292Y-131847713D02*
X82000342Y-131876644D01*
X81874565Y-131918210D01*
X81741533Y-131969726D01*
X81608815Y-132028508D01*
X81483980Y-132091872D01*
X81374599Y-132157136D01*
X81301700Y-132210225D01*
X81255335Y-132252348D01*
X81250795Y-132267771D01*
X81286849Y-132256755D01*
X81362269Y-132219562D01*
X81428700Y-132183223D01*
X81534747Y-132128505D01*
X81661475Y-132070383D01*
X81797399Y-132013330D01*
X81931032Y-131961820D01*
X82050889Y-131920325D01*
X82145484Y-131893320D01*
X82193877Y-131885215D01*
X82251356Y-131877789D01*
X82279044Y-131865325D01*
X82279487Y-131863561D01*
X82258434Y-131838487D01*
X82199846Y-131834099D01*
X82111292Y-131847713D01*
G36*
X77768663Y-133138762D02*
G01*
X77626219Y-133143274D01*
X77498066Y-133150470D01*
X77402800Y-133159355D01*
X77363359Y-133165984D01*
X77366783Y-133171251D01*
X77414711Y-133175239D01*
X77508779Y-133178033D01*
X77650624Y-133179718D01*
X77808006Y-133180338D01*
X78009973Y-133179735D01*
X78161532Y-133177200D01*
X78263040Y-133172716D01*
X78314852Y-133166268D01*
X78317325Y-133157840D01*
X78316006Y-133157306D01*
X78264639Y-133148036D01*
X78173385Y-133141570D01*
X78053081Y-133137885D01*
X77914562Y-133136957D01*
X77768663Y-133138762D01*
X77768663Y-133138762D01*
G37*
X77768663Y-133138762D02*
X77626219Y-133143274D01*
X77498066Y-133150470D01*
X77402800Y-133159355D01*
X77363359Y-133165984D01*
X77366783Y-133171251D01*
X77414711Y-133175239D01*
X77508779Y-133178033D01*
X77650624Y-133179718D01*
X77808006Y-133180338D01*
X78009973Y-133179735D01*
X78161532Y-133177200D01*
X78263040Y-133172716D01*
X78314852Y-133166268D01*
X78317325Y-133157840D01*
X78316006Y-133157306D01*
X78264639Y-133148036D01*
X78173385Y-133141570D01*
X78053081Y-133137885D01*
X77914562Y-133136957D01*
X77768663Y-133138762D01*
G36*
X80465902Y-133366109D02*
G01*
X80349200Y-133401036D01*
X80184100Y-133456239D01*
X80190435Y-133754419D01*
X80191390Y-133870578D01*
X80189289Y-133965444D01*
X80184553Y-134029137D01*
X80177735Y-134051792D01*
X80144821Y-134037322D01*
X80107900Y-134012559D01*
X80048767Y-133988804D01*
X79964135Y-133990880D01*
X79848911Y-134019693D01*
X79698000Y-134076148D01*
X79660008Y-134092151D01*
X79463215Y-134176383D01*
X79420126Y-134044641D01*
X79356465Y-133874782D01*
X79289898Y-133751042D01*
X79216225Y-133668754D01*
X79131247Y-133623255D01*
X79030764Y-133609878D01*
X79028800Y-133609902D01*
X78925387Y-133621773D01*
X78846884Y-133649797D01*
X78797568Y-133687648D01*
X78781716Y-133729002D01*
X78803604Y-133767531D01*
X78867508Y-133796909D01*
X78897979Y-133803422D01*
X78973162Y-133820700D01*
X79028787Y-133841327D01*
X79039534Y-133848099D01*
X79084232Y-133903254D01*
X79135536Y-133994806D01*
X79187417Y-134109950D01*
X79233848Y-134235880D01*
X79255175Y-134306172D01*
X79296380Y-134491586D01*
X79306776Y-134648490D01*
X79285913Y-134789099D01*
X79233342Y-134925634D01*
X79232293Y-134927746D01*
X79192794Y-135008877D01*
X79174368Y-135057936D01*
X79175320Y-135088262D01*
X79193954Y-135113194D01*
X79207133Y-135125719D01*
X79243491Y-135154401D01*
X79277822Y-135157988D01*
X79331513Y-135137166D01*
X79346340Y-135130189D01*
X79424302Y-135080579D01*
X79495845Y-135015851D01*
X79501892Y-135008899D01*
X79534395Y-134967055D01*
X79552927Y-134927846D01*
X79559961Y-134877022D01*
X79557974Y-134800335D01*
X79552204Y-134719255D01*
X79544008Y-134618529D01*
X79536484Y-134536322D01*
X79530939Y-134486616D01*
X79529858Y-134480141D01*
X79550014Y-134463051D01*
X79607774Y-134438827D01*
X79691064Y-134410954D01*
X79787810Y-134382918D01*
X79885938Y-134358203D01*
X79973375Y-134340295D01*
X80038046Y-134332679D01*
X80040877Y-134332626D01*
X80079950Y-134337233D01*
X80091939Y-134361955D01*
X80084275Y-134420374D01*
X80073509Y-134488131D01*
X80060088Y-134587109D01*
X80046601Y-134698002D01*
X80044245Y-134718824D01*
X80030337Y-134824893D01*
X80009193Y-134963709D01*
X79983550Y-135118205D01*
X79956145Y-135271317D01*
X79952702Y-135289667D01*
X79926334Y-135431502D01*
X79909259Y-135532532D01*
X79900946Y-135601796D01*
X79900868Y-135648331D01*
X79908494Y-135681175D01*
X79923297Y-135709365D01*
X79927733Y-135716251D01*
X79974199Y-135764117D01*
X80040085Y-135805464D01*
X80112879Y-135836114D01*
X80180068Y-135851889D01*
X80229142Y-135848613D01*
X80247600Y-135823054D01*
X80229482Y-135784937D01*
X80183246Y-135731155D01*
X80148758Y-135699152D01*
X80049915Y-135614546D01*
X80100727Y-135335223D01*
X80138625Y-135045484D01*
X80154746Y-134711932D01*
X80155119Y-134681337D01*
X80157428Y-134549934D01*
X80161388Y-134438666D01*
X80166527Y-134356392D01*
X80172369Y-134311971D01*
X80175173Y-134306687D01*
X80185435Y-134329869D01*
X80197304Y-134391133D01*
X80208421Y-134477915D01*
X80209721Y-134490750D01*
X80233257Y-134651479D01*
X80271224Y-134768184D01*
X80329063Y-134846838D01*
X80412209Y-134893414D01*
X80526104Y-134913886D01*
X80597084Y-134916200D01*
X80712363Y-134907596D01*
X80790058Y-134883280D01*
X80825993Y-134845495D01*
X80817009Y-134798110D01*
X80773103Y-134759645D01*
X80715409Y-134735759D01*
X80633672Y-134716714D01*
X80572064Y-134702606D01*
X80526489Y-134678567D01*
X80490837Y-134626518D01*
X80464171Y-134542041D01*
X80445553Y-134420720D01*
X80434046Y-134258136D01*
X80428710Y-134049873D01*
X80428479Y-134026291D01*
X80425089Y-133631682D01*
X80539545Y-133519352D01*
X80599421Y-133455708D01*
X80640849Y-133402343D01*
X80654000Y-133374211D01*
X80631930Y-133348954D01*
X80568060Y-133346356D01*
X80465902Y-133366109D01*
X80465902Y-133366109D01*
G37*
X80465902Y-133366109D02*
X80349200Y-133401036D01*
X80184100Y-133456239D01*
X80190435Y-133754419D01*
X80191390Y-133870578D01*
X80189289Y-133965444D01*
X80184553Y-134029137D01*
X80177735Y-134051792D01*
X80144821Y-134037322D01*
X80107900Y-134012559D01*
X80048767Y-133988804D01*
X79964135Y-133990880D01*
X79848911Y-134019693D01*
X79698000Y-134076148D01*
X79660008Y-134092151D01*
X79463215Y-134176383D01*
X79420126Y-134044641D01*
X79356465Y-133874782D01*
X79289898Y-133751042D01*
X79216225Y-133668754D01*
X79131247Y-133623255D01*
X79030764Y-133609878D01*
X79028800Y-133609902D01*
X78925387Y-133621773D01*
X78846884Y-133649797D01*
X78797568Y-133687648D01*
X78781716Y-133729002D01*
X78803604Y-133767531D01*
X78867508Y-133796909D01*
X78897979Y-133803422D01*
X78973162Y-133820700D01*
X79028787Y-133841327D01*
X79039534Y-133848099D01*
X79084232Y-133903254D01*
X79135536Y-133994806D01*
X79187417Y-134109950D01*
X79233848Y-134235880D01*
X79255175Y-134306172D01*
X79296380Y-134491586D01*
X79306776Y-134648490D01*
X79285913Y-134789099D01*
X79233342Y-134925634D01*
X79232293Y-134927746D01*
X79192794Y-135008877D01*
X79174368Y-135057936D01*
X79175320Y-135088262D01*
X79193954Y-135113194D01*
X79207133Y-135125719D01*
X79243491Y-135154401D01*
X79277822Y-135157988D01*
X79331513Y-135137166D01*
X79346340Y-135130189D01*
X79424302Y-135080579D01*
X79495845Y-135015851D01*
X79501892Y-135008899D01*
X79534395Y-134967055D01*
X79552927Y-134927846D01*
X79559961Y-134877022D01*
X79557974Y-134800335D01*
X79552204Y-134719255D01*
X79544008Y-134618529D01*
X79536484Y-134536322D01*
X79530939Y-134486616D01*
X79529858Y-134480141D01*
X79550014Y-134463051D01*
X79607774Y-134438827D01*
X79691064Y-134410954D01*
X79787810Y-134382918D01*
X79885938Y-134358203D01*
X79973375Y-134340295D01*
X80038046Y-134332679D01*
X80040877Y-134332626D01*
X80079950Y-134337233D01*
X80091939Y-134361955D01*
X80084275Y-134420374D01*
X80073509Y-134488131D01*
X80060088Y-134587109D01*
X80046601Y-134698002D01*
X80044245Y-134718824D01*
X80030337Y-134824893D01*
X80009193Y-134963709D01*
X79983550Y-135118205D01*
X79956145Y-135271317D01*
X79952702Y-135289667D01*
X79926334Y-135431502D01*
X79909259Y-135532532D01*
X79900946Y-135601796D01*
X79900868Y-135648331D01*
X79908494Y-135681175D01*
X79923297Y-135709365D01*
X79927733Y-135716251D01*
X79974199Y-135764117D01*
X80040085Y-135805464D01*
X80112879Y-135836114D01*
X80180068Y-135851889D01*
X80229142Y-135848613D01*
X80247600Y-135823054D01*
X80229482Y-135784937D01*
X80183246Y-135731155D01*
X80148758Y-135699152D01*
X80049915Y-135614546D01*
X80100727Y-135335223D01*
X80138625Y-135045484D01*
X80154746Y-134711932D01*
X80155119Y-134681337D01*
X80157428Y-134549934D01*
X80161388Y-134438666D01*
X80166527Y-134356392D01*
X80172369Y-134311971D01*
X80175173Y-134306687D01*
X80185435Y-134329869D01*
X80197304Y-134391133D01*
X80208421Y-134477915D01*
X80209721Y-134490750D01*
X80233257Y-134651479D01*
X80271224Y-134768184D01*
X80329063Y-134846838D01*
X80412209Y-134893414D01*
X80526104Y-134913886D01*
X80597084Y-134916200D01*
X80712363Y-134907596D01*
X80790058Y-134883280D01*
X80825993Y-134845495D01*
X80817009Y-134798110D01*
X80773103Y-134759645D01*
X80715409Y-134735759D01*
X80633672Y-134716714D01*
X80572064Y-134702606D01*
X80526489Y-134678567D01*
X80490837Y-134626518D01*
X80464171Y-134542041D01*
X80445553Y-134420720D01*
X80434046Y-134258136D01*
X80428710Y-134049873D01*
X80428479Y-134026291D01*
X80425089Y-133631682D01*
X80539545Y-133519352D01*
X80599421Y-133455708D01*
X80640849Y-133402343D01*
X80654000Y-133374211D01*
X80631930Y-133348954D01*
X80568060Y-133346356D01*
X80465902Y-133366109D01*
G36*
X81497905Y-136598899D02*
G01*
X81439335Y-136635919D01*
X81386529Y-136671564D01*
X81299668Y-136727775D01*
X81220172Y-136770585D01*
X81139081Y-136801805D01*
X81047438Y-136823246D01*
X80936281Y-136836720D01*
X80796654Y-136844038D01*
X80619596Y-136847011D01*
X80516614Y-136847431D01*
X80249403Y-136850381D01*
X80031937Y-136858321D01*
X79863390Y-136871389D01*
X79742941Y-136889723D01*
X79669764Y-136913459D01*
X79643036Y-136942735D01*
X79661934Y-136977689D01*
X79674605Y-136988009D01*
X79715320Y-136999320D01*
X79798622Y-137008602D01*
X79916339Y-137015850D01*
X80060298Y-137021057D01*
X80222328Y-137024219D01*
X80394256Y-137025330D01*
X80567910Y-137024384D01*
X80735117Y-137021375D01*
X80887705Y-137016299D01*
X81017502Y-137009149D01*
X81116334Y-136999920D01*
X81174700Y-136989035D01*
X81255030Y-136960617D01*
X81323958Y-136931168D01*
X81334248Y-136925914D01*
X81393647Y-136878481D01*
X81455388Y-136805830D01*
X81507736Y-136724819D01*
X81538960Y-136652308D01*
X81543000Y-136625942D01*
X81540927Y-136596480D01*
X81528832Y-136586609D01*
X81497905Y-136598899D01*
X81497905Y-136598899D01*
G37*
X81497905Y-136598899D02*
X81439335Y-136635919D01*
X81386529Y-136671564D01*
X81299668Y-136727775D01*
X81220172Y-136770585D01*
X81139081Y-136801805D01*
X81047438Y-136823246D01*
X80936281Y-136836720D01*
X80796654Y-136844038D01*
X80619596Y-136847011D01*
X80516614Y-136847431D01*
X80249403Y-136850381D01*
X80031937Y-136858321D01*
X79863390Y-136871389D01*
X79742941Y-136889723D01*
X79669764Y-136913459D01*
X79643036Y-136942735D01*
X79661934Y-136977689D01*
X79674605Y-136988009D01*
X79715320Y-136999320D01*
X79798622Y-137008602D01*
X79916339Y-137015850D01*
X80060298Y-137021057D01*
X80222328Y-137024219D01*
X80394256Y-137025330D01*
X80567910Y-137024384D01*
X80735117Y-137021375D01*
X80887705Y-137016299D01*
X81017502Y-137009149D01*
X81116334Y-136999920D01*
X81174700Y-136989035D01*
X81255030Y-136960617D01*
X81323958Y-136931168D01*
X81334248Y-136925914D01*
X81393647Y-136878481D01*
X81455388Y-136805830D01*
X81507736Y-136724819D01*
X81538960Y-136652308D01*
X81543000Y-136625942D01*
X81540927Y-136596480D01*
X81528832Y-136586609D01*
X81497905Y-136598899D01*
G36*
X80601231Y-137418025D02*
G01*
X80584650Y-137420305D01*
X80465495Y-137440672D01*
X80390102Y-137460201D01*
X80351521Y-137481022D01*
X80343334Y-137494300D01*
X80359293Y-137513675D01*
X80410102Y-137523549D01*
X80480697Y-137523875D01*
X80556016Y-137514607D01*
X80620997Y-137495700D01*
X80622250Y-137495151D01*
X80687890Y-137458339D01*
X80704957Y-137430607D01*
X80675416Y-137415866D01*
X80601231Y-137418025D01*
X80601231Y-137418025D01*
G37*
X80601231Y-137418025D02*
X80584650Y-137420305D01*
X80465495Y-137440672D01*
X80390102Y-137460201D01*
X80351521Y-137481022D01*
X80343334Y-137494300D01*
X80359293Y-137513675D01*
X80410102Y-137523549D01*
X80480697Y-137523875D01*
X80556016Y-137514607D01*
X80620997Y-137495700D01*
X80622250Y-137495151D01*
X80687890Y-137458339D01*
X80704957Y-137430607D01*
X80675416Y-137415866D01*
X80601231Y-137418025D01*
G36*
X81900519Y-121884656D02*
G01*
X81822594Y-121919399D01*
X81730748Y-121965236D01*
X81634932Y-122017274D01*
X81545099Y-122070618D01*
X81492200Y-122105354D01*
X81385985Y-122190377D01*
X81262170Y-122307717D01*
X81130419Y-122446829D01*
X81000398Y-122597168D01*
X80881771Y-122748187D01*
X80809893Y-122849846D01*
X80661287Y-123087082D01*
X80530679Y-123329806D01*
X80409191Y-123595348D01*
X80336987Y-123772819D01*
X80293733Y-123878619D01*
X80256166Y-123961826D01*
X80228306Y-124014116D01*
X80214176Y-124027164D01*
X80214158Y-124027135D01*
X80177377Y-123996350D01*
X80103358Y-123954180D01*
X80003023Y-123905411D01*
X79887290Y-123854829D01*
X79767080Y-123807221D01*
X79653312Y-123767372D01*
X79561800Y-123741218D01*
X79351550Y-123706849D01*
X79104838Y-123693164D01*
X78831184Y-123699254D01*
X78540111Y-123724211D01*
X78241137Y-123767127D01*
X77943786Y-123827093D01*
X77657576Y-123903200D01*
X77567900Y-123931471D01*
X77420022Y-123986655D01*
X77240906Y-124063935D01*
X77041836Y-124157610D01*
X76834097Y-124261983D01*
X76628973Y-124371355D01*
X76437750Y-124480028D01*
X76271711Y-124582303D01*
X76247100Y-124598444D01*
X75956498Y-124803947D01*
X75699394Y-125015046D01*
X75471085Y-125238000D01*
X75266863Y-125479071D01*
X75082024Y-125744518D01*
X74911863Y-126040600D01*
X74751673Y-126373579D01*
X74596750Y-126749713D01*
X74562792Y-126839182D01*
X74388145Y-127351899D01*
X74248610Y-127866661D01*
X74142019Y-128394025D01*
X74066203Y-128944548D01*
X74022380Y-129470338D01*
X74004729Y-129966864D01*
X74014757Y-130435699D01*
X74053665Y-130892504D01*
X74122649Y-131352937D01*
X74193300Y-131703100D01*
X74263931Y-132009984D01*
X74331650Y-132276680D01*
X74399996Y-132513386D01*
X74472508Y-132730304D01*
X74552727Y-132937631D01*
X74644191Y-133145569D01*
X74750440Y-133364317D01*
X74810302Y-133481100D01*
X74974372Y-133789011D01*
X75122649Y-134051289D01*
X75254868Y-134267529D01*
X75370765Y-134437326D01*
X75470075Y-134560278D01*
X75552533Y-134635980D01*
X75577551Y-134651336D01*
X75629001Y-134686185D01*
X75631944Y-134713736D01*
X75585563Y-134735512D01*
X75525729Y-134747749D01*
X75410008Y-134789024D01*
X75310474Y-134866336D01*
X75244038Y-134966426D01*
X75220867Y-135076407D01*
X75226342Y-135213334D01*
X75258724Y-135363445D01*
X75312005Y-135503982D01*
X75386975Y-135634617D01*
X75498418Y-135781981D01*
X75611298Y-135909935D01*
X75712785Y-136023484D01*
X75816867Y-136146782D01*
X75909981Y-136263412D01*
X75967916Y-136341535D01*
X76042613Y-136440356D01*
X76139910Y-136558473D01*
X76246092Y-136679661D01*
X76329226Y-136768964D01*
X76423667Y-136865853D01*
X76491545Y-136931247D01*
X76540832Y-136970902D01*
X76579503Y-136990577D01*
X76615530Y-136996028D01*
X76641757Y-136994628D01*
X76687117Y-136992648D01*
X76719406Y-137003393D01*
X76748141Y-137036084D01*
X76782844Y-137099944D01*
X76811415Y-137158993D01*
X76879110Y-137288528D01*
X76953703Y-137411398D01*
X77029957Y-137521033D01*
X77102633Y-137610866D01*
X77166493Y-137674327D01*
X77216298Y-137704848D01*
X77243216Y-137700451D01*
X77273672Y-137699664D01*
X77304741Y-137712094D01*
X77347937Y-137756647D01*
X77401014Y-137847906D01*
X77462703Y-137983017D01*
X77531736Y-138159126D01*
X77606845Y-138373379D01*
X77630621Y-138445427D01*
X77674708Y-138575023D01*
X77716595Y-138687746D01*
X77752631Y-138774504D01*
X77779161Y-138826202D01*
X77787510Y-138835936D01*
X77823389Y-138839184D01*
X77886872Y-138817273D01*
X77983574Y-138768040D01*
X78026597Y-138743786D01*
X78130406Y-138687492D01*
X78230983Y-138638488D01*
X78311162Y-138604973D01*
X78330625Y-138598592D01*
X78432950Y-138569129D01*
X78711625Y-138764021D01*
X78819164Y-138839895D01*
X78914749Y-138908566D01*
X78988960Y-138963179D01*
X79032376Y-138996881D01*
X79035943Y-138999972D01*
X79063954Y-139030174D01*
X79055782Y-139051317D01*
X79010543Y-139076844D01*
X78957534Y-139112910D01*
X78885555Y-139173750D01*
X78809762Y-139246509D01*
X78806362Y-139250004D01*
X78691934Y-139354563D01*
X78553041Y-139461277D01*
X78407152Y-139557957D01*
X78271739Y-139632413D01*
X78234138Y-139649276D01*
X78159798Y-139675425D01*
X78043619Y-139710195D01*
X77893456Y-139751673D01*
X77717163Y-139797942D01*
X77522597Y-139847087D01*
X77317613Y-139897191D01*
X77110067Y-139946338D01*
X76907812Y-139992614D01*
X76718706Y-140034102D01*
X76550603Y-140068886D01*
X76411358Y-140095050D01*
X76394518Y-140097933D01*
X76189740Y-140135054D01*
X76030115Y-140170470D01*
X75910127Y-140206163D01*
X75824265Y-140244114D01*
X75767014Y-140286305D01*
X75732861Y-140334719D01*
X75732287Y-140335956D01*
X75706096Y-140377092D01*
X75654694Y-140446001D01*
X75586194Y-140532111D01*
X75528354Y-140601768D01*
X75397037Y-140772455D01*
X75255384Y-140984224D01*
X75107358Y-141229408D01*
X74956922Y-141500343D01*
X74808039Y-141789365D01*
X74664672Y-142088807D01*
X74530786Y-142391006D01*
X74410343Y-142688296D01*
X74317017Y-142944441D01*
X74204546Y-143272800D01*
X79791368Y-143272800D01*
X79778300Y-143215650D01*
X79738902Y-143033954D01*
X79695194Y-142816437D01*
X79649404Y-142575618D01*
X79603761Y-142324016D01*
X79560493Y-142074153D01*
X79521830Y-141838548D01*
X79490000Y-141629721D01*
X79470482Y-141486603D01*
X79449512Y-141316543D01*
X79434120Y-141178367D01*
X79423869Y-141059769D01*
X79418320Y-140948442D01*
X79417034Y-140832081D01*
X79419573Y-140698380D01*
X79425500Y-140535032D01*
X79431556Y-140393578D01*
X79439278Y-140227288D01*
X79446965Y-140078691D01*
X79454177Y-139955062D01*
X79460472Y-139863673D01*
X79465410Y-139811799D01*
X79467374Y-139802759D01*
X79485144Y-139816562D01*
X79520419Y-139862930D01*
X79553774Y-139913380D01*
X79617124Y-140003675D01*
X79703693Y-140113122D01*
X79803888Y-140230957D01*
X79908112Y-140346415D01*
X80006772Y-140448731D01*
X80090273Y-140527141D01*
X80127485Y-140557067D01*
X80248363Y-140626362D01*
X80384661Y-140675695D01*
X80517631Y-140699588D01*
X80606726Y-140697082D01*
X80683101Y-140677177D01*
X80780384Y-140641675D01*
X80858082Y-140607357D01*
X80952572Y-140556652D01*
X81077141Y-140482701D01*
X81221048Y-140392497D01*
X81373549Y-140293034D01*
X81523904Y-140191302D01*
X81661371Y-140094295D01*
X81764705Y-140017186D01*
X81839906Y-139959675D01*
X81898054Y-139916631D01*
X81928960Y-139895556D01*
X81931234Y-139894600D01*
X81930989Y-139918386D01*
X81923023Y-139984869D01*
X81908523Y-140086731D01*
X81888674Y-140216654D01*
X81864663Y-140367322D01*
X81837677Y-140531417D01*
X81808901Y-140701623D01*
X81779522Y-140870621D01*
X81750727Y-141031096D01*
X81723701Y-141175730D01*
X81722582Y-141181559D01*
X81664279Y-141467529D01*
X81596631Y-141770144D01*
X81523090Y-142075468D01*
X81447106Y-142369566D01*
X81372134Y-142638504D01*
X81315018Y-142826758D01*
X81276904Y-142952050D01*
X81246175Y-143063517D01*
X81225552Y-143150476D01*
X81217752Y-143202246D01*
X81218014Y-143207758D01*
X81225500Y-143260100D01*
X84698950Y-143266540D01*
X85114628Y-143267200D01*
X85516109Y-143267621D01*
X85900485Y-143267810D01*
X86264849Y-143267776D01*
X86606292Y-143267525D01*
X86921906Y-143267065D01*
X87208784Y-143266403D01*
X87464017Y-143265548D01*
X87684698Y-143264506D01*
X87867919Y-143263286D01*
X88010771Y-143261894D01*
X88110347Y-143260338D01*
X88163739Y-143258626D01*
X88172400Y-143257551D01*
X88158798Y-143231986D01*
X88121594Y-143173028D01*
X88066188Y-143088987D01*
X87997985Y-142988174D01*
X87985060Y-142969317D01*
X87896109Y-142836867D01*
X87801112Y-142690633D01*
X87712801Y-142550444D01*
X87656490Y-142457606D01*
X87534507Y-142257825D01*
X87417725Y-142079164D01*
X87310246Y-141927354D01*
X87216175Y-141808127D01*
X87139617Y-141727212D01*
X87123706Y-141713650D01*
X87059693Y-141669179D01*
X86994669Y-141643652D01*
X86908351Y-141630466D01*
X86857006Y-141626789D01*
X86747779Y-141615418D01*
X86679410Y-141595206D01*
X86648400Y-141571798D01*
X86617195Y-141534779D01*
X86561596Y-141468668D01*
X86489860Y-141383288D01*
X86420981Y-141301252D01*
X86322512Y-141184884D01*
X86213852Y-141057974D01*
X86111672Y-140939934D01*
X86063722Y-140885200D01*
X85989394Y-140798408D01*
X85893890Y-140683234D01*
X85786946Y-140551614D01*
X85678294Y-140415479D01*
X85618287Y-140339100D01*
X85352427Y-140012759D01*
X85100736Y-139733600D01*
X84861891Y-139500426D01*
X84634570Y-139312038D01*
X84417451Y-139167238D01*
X84282612Y-139100644D01*
X82195341Y-139100644D01*
X82194690Y-139102775D01*
X82180192Y-139143742D01*
X82152158Y-139219718D01*
X82115205Y-139318266D01*
X82089325Y-139386600D01*
X82049675Y-139491261D01*
X82016510Y-139579482D01*
X81994213Y-139639568D01*
X81987608Y-139658044D01*
X81962083Y-139684893D01*
X81899654Y-139733410D01*
X81807064Y-139799271D01*
X81691057Y-139878152D01*
X81558376Y-139965727D01*
X81415763Y-140057674D01*
X81269962Y-140149667D01*
X81127716Y-140237384D01*
X80995768Y-140316499D01*
X80880861Y-140382688D01*
X80789738Y-140431628D01*
X80755600Y-140448097D01*
X80631160Y-140486491D01*
X80492798Y-140500988D01*
X80362087Y-140490579D01*
X80291235Y-140469888D01*
X80231326Y-140431699D01*
X80148515Y-140361138D01*
X80050474Y-140266401D01*
X79944874Y-140155685D01*
X79839386Y-140037188D01*
X79741680Y-139919107D01*
X79659428Y-139809640D01*
X79624207Y-139757102D01*
X79563738Y-139658092D01*
X79527428Y-139586208D01*
X79509956Y-139527203D01*
X79506001Y-139466831D01*
X79506824Y-139442775D01*
X79515852Y-139323625D01*
X79531941Y-139243090D01*
X79559767Y-139189040D01*
X79604002Y-139149346D01*
X79624992Y-139136147D01*
X79710213Y-139085866D01*
X79779551Y-139249013D01*
X79834961Y-139365812D01*
X79882078Y-139436720D01*
X79919789Y-139460285D01*
X79935695Y-139452972D01*
X79943286Y-139415845D01*
X79938496Y-139339928D01*
X79923207Y-139235186D01*
X79899302Y-139111585D01*
X79868665Y-138979092D01*
X79833178Y-138847670D01*
X79803281Y-138752135D01*
X79768334Y-138644920D01*
X79741797Y-138556791D01*
X79726599Y-138497943D01*
X79724710Y-138478624D01*
X79740981Y-138475983D01*
X79779140Y-138483291D01*
X79844425Y-138502175D01*
X79942073Y-138534265D01*
X80077320Y-138581188D01*
X80234900Y-138637225D01*
X80565100Y-138755468D01*
X80895300Y-138743563D01*
X81123774Y-138727290D01*
X81318274Y-138694184D01*
X81493847Y-138640728D01*
X81665137Y-138563615D01*
X81717905Y-138539261D01*
X81745174Y-138532408D01*
X81746200Y-138533797D01*
X81741301Y-138563453D01*
X81728735Y-138626434D01*
X81718126Y-138676806D01*
X81705164Y-138770572D01*
X81701980Y-138873620D01*
X81707429Y-138973623D01*
X81720369Y-139058255D01*
X81739653Y-139115188D01*
X81760438Y-139132600D01*
X81792764Y-139110969D01*
X81811687Y-139070229D01*
X81833494Y-139025048D01*
X81877666Y-139016269D01*
X81894721Y-139018439D01*
X81961349Y-139028128D01*
X82049689Y-139040054D01*
X82085210Y-139044635D01*
X82159400Y-139057371D01*
X82192783Y-139074274D01*
X82195341Y-139100644D01*
X84282612Y-139100644D01*
X84213941Y-139066729D01*
X84072445Y-139023691D01*
X83894496Y-138991068D01*
X83693522Y-138969652D01*
X83482949Y-138960232D01*
X83276204Y-138963598D01*
X83086713Y-138980541D01*
X82998382Y-138995193D01*
X82942149Y-139001189D01*
X82909444Y-138981692D01*
X82881069Y-138925971D01*
X82845007Y-138840500D01*
X83000454Y-138697884D01*
X83086294Y-138613329D01*
X83186627Y-138505733D01*
X83285375Y-138392627D01*
X83329314Y-138339258D01*
X83420140Y-138230777D01*
X83502684Y-138140828D01*
X83571733Y-138074263D01*
X83622074Y-138035938D01*
X83648492Y-138030706D01*
X83651200Y-138039566D01*
X83669489Y-138082654D01*
X83717520Y-138140367D01*
X83785042Y-138204548D01*
X83861807Y-138267041D01*
X83937562Y-138319690D01*
X84002057Y-138354337D01*
X84045042Y-138362825D01*
X84052431Y-138358835D01*
X84058629Y-138330414D01*
X84066801Y-138261920D01*
X84075831Y-138163987D01*
X84083696Y-138060561D01*
X84099290Y-137914375D01*
X84127084Y-137733133D01*
X84164369Y-137530342D01*
X84208437Y-137319509D01*
X84256580Y-137114142D01*
X84306089Y-136927747D01*
X84321086Y-136876609D01*
X84349535Y-136803954D01*
X84397405Y-136703743D01*
X84457038Y-136591399D01*
X84498565Y-136519038D01*
X84566935Y-136397895D01*
X84633449Y-136269851D01*
X84688149Y-136154501D01*
X84709353Y-136104178D01*
X84753512Y-136002464D01*
X84797243Y-135933045D01*
X84852782Y-135879017D01*
X84894291Y-135848713D01*
X85016219Y-135759493D01*
X85163627Y-135642558D01*
X85326571Y-135506600D01*
X85495105Y-135360315D01*
X85659284Y-135212396D01*
X85809163Y-135071537D01*
X85934797Y-134946431D01*
X85974425Y-134904490D01*
X86192693Y-134661508D01*
X86373080Y-134444984D01*
X86518031Y-134250485D01*
X86629994Y-134073581D01*
X86711415Y-133909837D01*
X86764741Y-133754821D01*
X86792418Y-133604100D01*
X86795334Y-133505791D01*
X86581135Y-133505791D01*
X86569496Y-133647222D01*
X86535805Y-133782971D01*
X86475669Y-133924644D01*
X86384694Y-134083843D01*
X86330782Y-134166900D01*
X86215967Y-134323934D01*
X86068481Y-134502619D01*
X85896446Y-134694327D01*
X85707982Y-134890431D01*
X85511210Y-135082303D01*
X85314251Y-135261315D01*
X85243149Y-135322399D01*
X85129612Y-135418219D01*
X85030562Y-135501691D01*
X84952072Y-135567706D01*
X84900215Y-135611157D01*
X84881064Y-135626934D01*
X84881062Y-135626934D01*
X84884879Y-135604134D01*
X84896813Y-135542697D01*
X84914682Y-135453732D01*
X84924596Y-135405150D01*
X84968457Y-135184222D01*
X85013197Y-134946098D01*
X85057401Y-134699398D01*
X85099651Y-134452743D01*
X85138532Y-134214754D01*
X85172627Y-133994051D01*
X85200519Y-133799254D01*
X85220792Y-133638986D01*
X85230313Y-133544600D01*
X85245783Y-133381833D01*
X85265235Y-133259953D01*
X85294435Y-133169077D01*
X85339147Y-133099323D01*
X85405139Y-133040809D01*
X85498175Y-132983653D01*
X85584020Y-132938370D01*
X85700801Y-132882349D01*
X85763517Y-132859671D01*
X85130376Y-132859671D01*
X85112755Y-133106885D01*
X85085913Y-133401488D01*
X85045519Y-133715546D01*
X84990136Y-134059179D01*
X84934996Y-134357400D01*
X84901785Y-134530530D01*
X84867171Y-134713850D01*
X84834341Y-134890292D01*
X84806484Y-135042791D01*
X84795067Y-135106700D01*
X84725185Y-135448212D01*
X84641648Y-135751264D01*
X84540493Y-136027265D01*
X84417753Y-136287622D01*
X84330010Y-136444609D01*
X84216618Y-136624348D01*
X84100504Y-136780590D01*
X83973166Y-136921730D01*
X83826104Y-137056164D01*
X83650818Y-137192285D01*
X83438805Y-137338491D01*
X83397200Y-137365799D01*
X83202690Y-137488804D01*
X82986066Y-137619032D01*
X82754598Y-137752634D01*
X82515555Y-137885762D01*
X82276208Y-138014569D01*
X82043826Y-138135206D01*
X81825679Y-138243826D01*
X81629036Y-138336580D01*
X81461168Y-138409621D01*
X81335629Y-138457024D01*
X81227861Y-138486143D01*
X81092835Y-138512729D01*
X80944929Y-138534998D01*
X80798521Y-138551169D01*
X80667989Y-138559457D01*
X80567713Y-138558079D01*
X80543821Y-138555217D01*
X80490270Y-138539603D01*
X80404848Y-138507225D01*
X80301373Y-138463529D01*
X80236057Y-138433995D01*
X80095440Y-138370466D01*
X79964042Y-138315529D01*
X79831505Y-138265639D01*
X79687475Y-138217254D01*
X79521596Y-138166829D01*
X79323511Y-138110820D01*
X79168031Y-138068517D01*
X78934825Y-138003481D01*
X78672854Y-137926593D01*
X78395168Y-137841959D01*
X78114820Y-137753687D01*
X77844860Y-137665886D01*
X77598339Y-137582661D01*
X77393368Y-137509978D01*
X77280239Y-137467572D01*
X77203176Y-137434021D01*
X77150333Y-137401299D01*
X77109863Y-137361378D01*
X77069921Y-137306230D01*
X77051628Y-137278400D01*
X76994934Y-137180112D01*
X76926018Y-137042611D01*
X76848707Y-136874879D01*
X76793205Y-136746779D01*
X76622063Y-136746779D01*
X76607253Y-136741544D01*
X76570294Y-136706930D01*
X76506192Y-136639838D01*
X76461890Y-136592600D01*
X76367008Y-136486032D01*
X76268556Y-136366899D01*
X76183264Y-136255696D01*
X76158790Y-136221245D01*
X76089971Y-136128484D01*
X75998326Y-136014703D01*
X75896521Y-135895229D01*
X75809704Y-135798761D01*
X75643815Y-135604531D01*
X75524473Y-135429280D01*
X75451754Y-135273171D01*
X75425734Y-135136368D01*
X75446490Y-135019035D01*
X75446794Y-135018298D01*
X75478680Y-134966322D01*
X75531999Y-134930329D01*
X75607060Y-134903578D01*
X75735586Y-134873135D01*
X75838009Y-134869672D01*
X75931601Y-134893729D01*
X75978394Y-134915176D01*
X76046547Y-134959136D01*
X76081539Y-135012770D01*
X76093931Y-135060729D01*
X76108517Y-135121697D01*
X76135170Y-135217995D01*
X76170166Y-135336668D01*
X76209786Y-135464763D01*
X76211974Y-135471662D01*
X76248438Y-135589922D01*
X76277162Y-135689752D01*
X76295599Y-135761776D01*
X76301203Y-135796615D01*
X76300645Y-135798222D01*
X76279741Y-135785327D01*
X76230006Y-135742142D01*
X76158059Y-135674762D01*
X76070521Y-135589283D01*
X76033174Y-135551943D01*
X75940211Y-135461113D01*
X75858685Y-135386548D01*
X75795603Y-135334276D01*
X75757974Y-135310321D01*
X75751754Y-135309928D01*
X75727678Y-135352376D01*
X75743876Y-135425221D01*
X75800399Y-135528658D01*
X75813608Y-135548684D01*
X75874788Y-135633015D01*
X75960462Y-135742529D01*
X76060557Y-135865183D01*
X76165000Y-135988932D01*
X76263717Y-136101733D01*
X76346637Y-136191542D01*
X76376186Y-136221318D01*
X76431262Y-136287424D01*
X76484883Y-136379997D01*
X76540875Y-136506726D01*
X76603063Y-136675297D01*
X76605209Y-136681500D01*
X76619717Y-136725731D01*
X76622063Y-136746779D01*
X76793205Y-136746779D01*
X76766828Y-136685901D01*
X76684211Y-136484660D01*
X76604683Y-136280141D01*
X76532073Y-136081326D01*
X76493250Y-135968001D01*
X76436973Y-135806331D01*
X76372585Y-135633320D01*
X76307248Y-135467556D01*
X76248126Y-135327626D01*
X76236573Y-135301954D01*
X76186764Y-135190897D01*
X76145872Y-135095854D01*
X76118039Y-135026734D01*
X76107410Y-134993445D01*
X76107400Y-134993102D01*
X76124588Y-134968536D01*
X76166536Y-134972733D01*
X76218825Y-135002126D01*
X76246590Y-135027548D01*
X76306361Y-135068255D01*
X76398223Y-135105411D01*
X76503524Y-135132989D01*
X76603614Y-135144963D01*
X76610301Y-135145064D01*
X76648327Y-135169402D01*
X76695235Y-135239632D01*
X76724186Y-135297244D01*
X76790882Y-135414398D01*
X76859014Y-135481814D01*
X76868975Y-135487479D01*
X76966562Y-135520005D01*
X77062448Y-135522023D01*
X77139729Y-135494163D01*
X77160052Y-135476600D01*
X77188709Y-135423824D01*
X77174315Y-135385913D01*
X77128251Y-135373305D01*
X77037328Y-135348573D01*
X76958102Y-135276802D01*
X76893515Y-135160993D01*
X76877111Y-135117162D01*
X76845719Y-135013105D01*
X76809843Y-134875862D01*
X76773444Y-134722342D01*
X76740481Y-134569450D01*
X76714915Y-134434096D01*
X76709852Y-134403122D01*
X76718157Y-134342192D01*
X76759413Y-134309725D01*
X76823192Y-134307743D01*
X76899071Y-134338267D01*
X76930813Y-134360295D01*
X76979071Y-134393588D01*
X77007678Y-134404654D01*
X77009201Y-134403866D01*
X77001243Y-134379388D01*
X76971214Y-134323055D01*
X76924917Y-134245482D01*
X76906924Y-134216820D01*
X76854776Y-134131682D01*
X76815307Y-134061427D01*
X76795150Y-134018064D01*
X76793861Y-134012155D01*
X76814857Y-133991113D01*
X76870079Y-133956452D01*
X76947014Y-133914455D01*
X77033148Y-133871402D01*
X77115969Y-133833576D01*
X77182962Y-133807256D01*
X77219295Y-133798600D01*
X77239094Y-133807009D01*
X77254839Y-133837934D01*
X77268993Y-133899915D01*
X77284022Y-134001494D01*
X77288936Y-134039900D01*
X77312640Y-134162864D01*
X77354447Y-134313608D01*
X77410019Y-134481174D01*
X77475016Y-134654602D01*
X77545102Y-134822934D01*
X77615937Y-134975212D01*
X77683183Y-135100477D01*
X77742502Y-135187769D01*
X77744135Y-135189713D01*
X77814496Y-135272726D01*
X78211898Y-135258913D01*
X78384592Y-135252378D01*
X78516206Y-135245464D01*
X78616446Y-135236719D01*
X78695023Y-135224690D01*
X78761643Y-135207925D01*
X78826015Y-135184974D01*
X78891226Y-135157309D01*
X78967319Y-135120244D01*
X79008924Y-135085798D01*
X79029451Y-135039665D01*
X79036996Y-135001839D01*
X79048506Y-134915330D01*
X79048607Y-134911783D01*
X78821603Y-134911783D01*
X78784231Y-134965195D01*
X78714819Y-134991601D01*
X78698200Y-134992400D01*
X78636258Y-134981311D01*
X78601681Y-134961919D01*
X78578210Y-134914423D01*
X78571200Y-134865400D01*
X78590363Y-134789214D01*
X78639459Y-134745977D01*
X78705901Y-134740840D01*
X78777100Y-134778958D01*
X78778750Y-134780436D01*
X78821565Y-134845488D01*
X78821603Y-134911783D01*
X79048607Y-134911783D01*
X79050765Y-134836288D01*
X79042149Y-134752261D01*
X79021035Y-134650797D01*
X78985798Y-134519442D01*
X78964490Y-134445859D01*
X78906981Y-134260376D01*
X78852200Y-134110971D01*
X78817827Y-134036445D01*
X77803870Y-134036445D01*
X77794649Y-134096460D01*
X77771414Y-134144157D01*
X77750532Y-134159642D01*
X77719507Y-134169627D01*
X77690851Y-134192720D01*
X77632482Y-134218030D01*
X77550603Y-134211824D01*
X77460041Y-134175919D01*
X77436305Y-134161553D01*
X77392475Y-134110456D01*
X77359956Y-134018623D01*
X77351634Y-133980734D01*
X77334042Y-133894704D01*
X77318881Y-133825315D01*
X77311934Y-133796957D01*
X77319762Y-133767982D01*
X77365268Y-133740053D01*
X77436565Y-133714407D01*
X77547189Y-133683578D01*
X77622631Y-133674738D01*
X77673860Y-133688645D01*
X77711845Y-133726060D01*
X77717140Y-133733841D01*
X77763812Y-133828462D01*
X77794142Y-133935971D01*
X77803870Y-134036445D01*
X78817827Y-134036445D01*
X78793540Y-133983788D01*
X78724391Y-133864970D01*
X78638146Y-133740660D01*
X78610478Y-133703572D01*
X78545507Y-133616684D01*
X78508007Y-133561855D01*
X78494755Y-133530663D01*
X78502531Y-133514684D01*
X78528113Y-133505496D01*
X78534144Y-133503968D01*
X78581242Y-133482873D01*
X78596600Y-133461413D01*
X78585616Y-133447154D01*
X78579888Y-133451246D01*
X78549617Y-133451349D01*
X78524964Y-133436429D01*
X78477013Y-133419988D01*
X78388739Y-133410840D01*
X78270043Y-133408622D01*
X78130821Y-133412967D01*
X77980971Y-133423511D01*
X77830392Y-133439889D01*
X77688982Y-133461736D01*
X77653477Y-133468561D01*
X77471028Y-133510307D01*
X77292210Y-133560249D01*
X77122396Y-133615925D01*
X76966959Y-133674877D01*
X76831269Y-133734643D01*
X76720698Y-133792764D01*
X76640620Y-133846779D01*
X76596404Y-133894229D01*
X76593424Y-133932653D01*
X76608287Y-133947213D01*
X76634460Y-133978380D01*
X76670930Y-134038109D01*
X76687895Y-134070062D01*
X76741813Y-134176425D01*
X76660349Y-134184362D01*
X76582500Y-134211056D01*
X76541556Y-134259130D01*
X76526439Y-134292679D01*
X76518973Y-134332619D01*
X76519429Y-134389148D01*
X76528080Y-134472461D01*
X76545194Y-134592754D01*
X76551538Y-134634436D01*
X76570438Y-134771837D01*
X76580449Y-134877318D01*
X76581100Y-134944343D01*
X76575375Y-134965254D01*
X76547251Y-134962280D01*
X76484436Y-134943379D01*
X76398706Y-134913149D01*
X76301839Y-134876187D01*
X76205613Y-134837089D01*
X76121805Y-134800452D01*
X76062193Y-134770875D01*
X76041017Y-134756682D01*
X76043993Y-134731266D01*
X76057545Y-134671394D01*
X76073057Y-134611365D01*
X76094971Y-134461827D01*
X76091869Y-134277195D01*
X76065098Y-134065799D01*
X76016005Y-133835967D01*
X75945939Y-133596030D01*
X75878665Y-133409940D01*
X75770805Y-133135581D01*
X75820997Y-133079740D01*
X76110087Y-132741178D01*
X76355629Y-132416557D01*
X76561221Y-132100912D01*
X76668825Y-131910143D01*
X76719502Y-131816510D01*
X76760188Y-131744808D01*
X76786015Y-131703396D01*
X76792713Y-131697384D01*
X76780500Y-131733757D01*
X76743156Y-131814270D01*
X76680682Y-131938917D01*
X76593083Y-132107693D01*
X76480361Y-132320591D01*
X76362179Y-132541104D01*
X76285873Y-132684107D01*
X76217179Y-132815198D01*
X76160061Y-132926619D01*
X76118487Y-133010612D01*
X76096423Y-133059416D01*
X76094621Y-133064526D01*
X76063501Y-133132070D01*
X76036959Y-133169950D01*
X76015393Y-133205258D01*
X76027615Y-133214400D01*
X76075526Y-133201434D01*
X76157642Y-133165674D01*
X76265455Y-133111825D01*
X76390458Y-133044592D01*
X76524143Y-132968679D01*
X76658002Y-132888793D01*
X76783527Y-132809639D01*
X76890149Y-132737388D01*
X77050598Y-132623316D01*
X77227623Y-132652551D01*
X77335957Y-132674412D01*
X77468479Y-132706857D01*
X77601348Y-132743923D01*
X77638674Y-132755356D01*
X77751834Y-132788927D01*
X77857279Y-132816718D01*
X77938573Y-132834534D01*
X77963420Y-132838233D01*
X78038288Y-132837037D01*
X78082237Y-132818943D01*
X78087897Y-132789239D01*
X78065732Y-132764821D01*
X78042279Y-132743918D01*
X78061580Y-132743815D01*
X78082250Y-132748725D01*
X78127227Y-132750157D01*
X78139400Y-132721159D01*
X78131378Y-132698357D01*
X78103661Y-132673425D01*
X78050780Y-132643753D01*
X77967260Y-132606731D01*
X77847632Y-132559750D01*
X77686422Y-132500199D01*
X77643645Y-132484724D01*
X77537226Y-132445272D01*
X77451072Y-132411311D01*
X77394836Y-132386784D01*
X77377762Y-132376200D01*
X77395659Y-132355728D01*
X77444966Y-132308269D01*
X77518808Y-132240229D01*
X77610311Y-132158012D01*
X77642865Y-132129168D01*
X77944412Y-131840234D01*
X78223449Y-131527839D01*
X78471819Y-131202120D01*
X78490716Y-131172458D01*
X76988839Y-131172458D01*
X76984867Y-131201912D01*
X76971626Y-131254730D01*
X76946392Y-131331491D01*
X76913857Y-131420334D01*
X76878714Y-131509396D01*
X76845655Y-131586814D01*
X76819372Y-131640727D01*
X76804559Y-131659271D01*
X76804078Y-131658944D01*
X76808317Y-131632908D01*
X76826965Y-131570488D01*
X76856554Y-131482849D01*
X76873525Y-131435378D01*
X76922765Y-131301369D01*
X76957174Y-131211726D01*
X76978494Y-131162796D01*
X76988468Y-131150924D01*
X76988839Y-131172458D01*
X78490716Y-131172458D01*
X78681366Y-130873212D01*
X78741875Y-130763300D01*
X78788746Y-130676487D01*
X78825395Y-130612398D01*
X78846631Y-130579921D01*
X78849859Y-130578488D01*
X78839263Y-130624757D01*
X78807088Y-130710524D01*
X78755748Y-130830514D01*
X78687658Y-130979449D01*
X78605232Y-131152052D01*
X78510884Y-131343045D01*
X78407029Y-131547152D01*
X78403900Y-131553214D01*
X78324100Y-131708907D01*
X78252705Y-131850470D01*
X78192887Y-131971423D01*
X78147822Y-132065286D01*
X78120684Y-132125579D01*
X78114000Y-132145026D01*
X78126758Y-132164912D01*
X78164717Y-132141388D01*
X78227406Y-132074879D01*
X78314354Y-131965811D01*
X78319028Y-131959647D01*
X78405597Y-131853463D01*
X78507154Y-131740824D01*
X78602301Y-131645418D01*
X78605831Y-131642147D01*
X78845119Y-131414224D01*
X79057491Y-131195274D01*
X79259373Y-130967774D01*
X79418215Y-130775491D01*
X79605524Y-130534700D01*
X78876000Y-130534700D01*
X78863300Y-130547400D01*
X78850600Y-130534700D01*
X78863300Y-130522000D01*
X78876000Y-130534700D01*
X79605524Y-130534700D01*
X79644793Y-130484220D01*
X79837133Y-130214355D01*
X80001045Y-129956046D01*
X80142338Y-129699443D01*
X80266822Y-129434697D01*
X80380306Y-129151957D01*
X80387947Y-129131350D01*
X80428122Y-129026187D01*
X80463140Y-128941378D01*
X80488817Y-128886638D01*
X80500051Y-128871000D01*
X80518349Y-128892037D01*
X80551376Y-128947383D01*
X80592218Y-129025386D01*
X80595101Y-129031210D01*
X80673142Y-129164773D01*
X80781945Y-129316742D01*
X80911581Y-129475108D01*
X81052121Y-129627864D01*
X81193637Y-129763004D01*
X81216883Y-129783196D01*
X81372956Y-129907713D01*
X81563204Y-130045229D01*
X81775517Y-130187807D01*
X81997786Y-130327508D01*
X82217901Y-130456394D01*
X82369048Y-130538454D01*
X82691014Y-130706509D01*
X82415457Y-130850124D01*
X82171109Y-130986424D01*
X81928899Y-131138232D01*
X81697847Y-131298928D01*
X81486973Y-131461894D01*
X81305299Y-131620510D01*
X81161846Y-131768155D01*
X81157476Y-131773220D01*
X81102796Y-131838269D01*
X81075787Y-131874977D01*
X81078691Y-131882464D01*
X81113750Y-131859852D01*
X81183207Y-131806260D01*
X81287653Y-131722150D01*
X81373230Y-131655391D01*
X81423052Y-131622503D01*
X81436321Y-131623140D01*
X81412238Y-131656954D01*
X81350002Y-131723598D01*
X81332241Y-131741502D01*
X81271913Y-131805967D01*
X81231973Y-131856808D01*
X81220310Y-131883862D01*
X81220951Y-131884816D01*
X81246463Y-131877427D01*
X81298972Y-131843120D01*
X81367763Y-131789014D01*
X81377281Y-131780950D01*
X81458503Y-131713776D01*
X81503409Y-131682050D01*
X81511982Y-131685772D01*
X81484202Y-131724943D01*
X81438769Y-131778416D01*
X81397646Y-131830342D01*
X81380569Y-131862763D01*
X81384033Y-131868200D01*
X81417488Y-131851130D01*
X81453911Y-131817609D01*
X81542220Y-131737398D01*
X81671665Y-131644023D01*
X81835496Y-131541271D01*
X81908609Y-131499900D01*
X81822400Y-131499900D01*
X81809700Y-131512600D01*
X81797000Y-131499900D01*
X81809700Y-131487200D01*
X81822400Y-131499900D01*
X81908609Y-131499900D01*
X82026961Y-131432931D01*
X82239309Y-131322790D01*
X82465788Y-131214636D01*
X82673904Y-131123526D01*
X82486766Y-131123526D01*
X82451515Y-131146092D01*
X82383319Y-131183986D01*
X82288447Y-131233564D01*
X82279600Y-131238074D01*
X82167678Y-131296046D01*
X82067020Y-131350015D01*
X81989526Y-131393490D01*
X81950099Y-131417804D01*
X81895403Y-131452561D01*
X81874450Y-131459058D01*
X81891087Y-131438344D01*
X81924000Y-131410691D01*
X81980487Y-131373101D01*
X82068184Y-131322256D01*
X82173441Y-131265259D01*
X82282608Y-131209212D01*
X82382033Y-131161219D01*
X82458068Y-131128381D01*
X82482800Y-131119933D01*
X82486766Y-131123526D01*
X82673904Y-131123526D01*
X82699646Y-131112257D01*
X82743150Y-131094264D01*
X82808585Y-131066659D01*
X82652444Y-131066659D01*
X82635200Y-131080800D01*
X82588896Y-131102293D01*
X82571700Y-131105422D01*
X82567157Y-131094940D01*
X82584400Y-131080800D01*
X82630705Y-131059306D01*
X82647900Y-131056177D01*
X82652444Y-131066659D01*
X82808585Y-131066659D01*
X82855643Y-131046807D01*
X82874181Y-131038466D01*
X82728334Y-131038466D01*
X82724847Y-131053566D01*
X82711400Y-131055400D01*
X82690493Y-131046106D01*
X82694467Y-131038466D01*
X82724611Y-131035426D01*
X82728334Y-131038466D01*
X82874181Y-131038466D01*
X82930636Y-131013066D01*
X82804534Y-131013066D01*
X82801047Y-131028166D01*
X82787600Y-131030000D01*
X82766693Y-131020706D01*
X82770667Y-131013066D01*
X82800811Y-131010026D01*
X82804534Y-131013066D01*
X82930636Y-131013066D01*
X82948746Y-131004918D01*
X82975010Y-130991900D01*
X82889200Y-130991900D01*
X82876500Y-131004600D01*
X82863800Y-130991900D01*
X82876500Y-130979200D01*
X82889200Y-130991900D01*
X82975010Y-130991900D01*
X83013563Y-130972792D01*
X83041202Y-130954624D01*
X83041600Y-130953503D01*
X83062031Y-130941100D01*
X82559000Y-130941100D01*
X82546300Y-130953800D01*
X82533600Y-130941100D01*
X82546300Y-130928400D01*
X82559000Y-130941100D01*
X83062031Y-130941100D01*
X83064443Y-130939636D01*
X83124082Y-130921632D01*
X83151050Y-130915700D01*
X82609800Y-130915700D01*
X82597100Y-130928400D01*
X82584400Y-130915700D01*
X82597100Y-130903000D01*
X82609800Y-130915700D01*
X83151050Y-130915700D01*
X83200350Y-130904856D01*
X83291687Y-130886766D01*
X83367925Y-130870360D01*
X83406107Y-130860928D01*
X83437035Y-130842022D01*
X83435744Y-130839500D01*
X82914600Y-130839500D01*
X82901900Y-130852200D01*
X82889200Y-130839500D01*
X82901900Y-130826800D01*
X82914600Y-130839500D01*
X83435744Y-130839500D01*
X83426340Y-130821130D01*
X83382609Y-130803993D01*
X83314427Y-130796351D01*
X83309459Y-130796320D01*
X83251333Y-130794426D01*
X83244945Y-130790317D01*
X82882797Y-130790317D01*
X82846066Y-130814761D01*
X82783091Y-130847227D01*
X82714500Y-130878067D01*
X82660917Y-130897636D01*
X82647900Y-130900171D01*
X82645002Y-130891275D01*
X82667190Y-130875431D01*
X82719763Y-130848208D01*
X82781574Y-130820630D01*
X82838559Y-130798248D01*
X82876655Y-130786615D01*
X82882797Y-130790317D01*
X83244945Y-130790317D01*
X83236895Y-130785140D01*
X83259074Y-130763050D01*
X83262469Y-130760370D01*
X83288929Y-130736785D01*
X83276724Y-130732448D01*
X83232100Y-130741083D01*
X83180627Y-130748697D01*
X83173485Y-130740874D01*
X83199893Y-130725200D01*
X83041600Y-130725200D01*
X83032307Y-130746107D01*
X83024667Y-130742133D01*
X83021627Y-130711989D01*
X83024667Y-130708266D01*
X83039767Y-130711753D01*
X83041600Y-130725200D01*
X83199893Y-130725200D01*
X83207661Y-130720590D01*
X83280138Y-130690817D01*
X83284809Y-130689097D01*
X83336167Y-130666974D01*
X83351424Y-130653009D01*
X83343841Y-130650789D01*
X83292025Y-130657610D01*
X83224210Y-130676529D01*
X83223731Y-130676696D01*
X83160527Y-130692548D01*
X83117123Y-130693177D01*
X83102796Y-130681416D01*
X83126822Y-130660095D01*
X83132223Y-130657466D01*
X82982334Y-130657466D01*
X82978847Y-130672566D01*
X82965400Y-130674400D01*
X82944493Y-130665106D01*
X82948467Y-130657466D01*
X82978611Y-130654426D01*
X82982334Y-130657466D01*
X83132223Y-130657466D01*
X83143200Y-130652123D01*
X83184994Y-130632611D01*
X83181755Y-130626835D01*
X83130678Y-130629884D01*
X83130500Y-130629898D01*
X83073854Y-130625521D01*
X83060651Y-130604272D01*
X83046840Y-130575988D01*
X83032318Y-130572800D01*
X83003560Y-130553204D01*
X82951469Y-130499335D01*
X82881797Y-130418569D01*
X82800294Y-130318283D01*
X82712711Y-130205855D01*
X82624801Y-130088661D01*
X82542314Y-129974078D01*
X82471001Y-129869483D01*
X82418440Y-129785400D01*
X82424312Y-129780308D01*
X82460911Y-129803291D01*
X82520373Y-129849389D01*
X82522068Y-129850781D01*
X82606619Y-129917394D01*
X82711883Y-129996268D01*
X82816397Y-130071353D01*
X82825700Y-130077840D01*
X82913489Y-130140475D01*
X82989317Y-130197479D01*
X83039990Y-130238849D01*
X83047933Y-130246328D01*
X83123695Y-130305590D01*
X83240320Y-130374861D01*
X83389630Y-130450882D01*
X83563453Y-130530396D01*
X83753611Y-130610143D01*
X83951931Y-130686865D01*
X84150237Y-130757304D01*
X84340353Y-130818201D01*
X84514105Y-130866299D01*
X84663317Y-130898338D01*
X84697095Y-130903637D01*
X84786892Y-130917059D01*
X84854081Y-130928399D01*
X84885584Y-130935429D01*
X84886347Y-130935879D01*
X84894797Y-130961336D01*
X84913667Y-131026890D01*
X84940431Y-131123519D01*
X84972565Y-131242196D01*
X84983885Y-131284536D01*
X85029933Y-131470684D01*
X85062120Y-131637736D01*
X85084315Y-131809495D01*
X85099439Y-131995200D01*
X85112208Y-132190608D01*
X85121438Y-132341175D01*
X85127034Y-132452740D01*
X85128903Y-132531143D01*
X85126949Y-132582227D01*
X85121080Y-132611831D01*
X85111200Y-132625797D01*
X85097215Y-132629964D01*
X85089190Y-132630200D01*
X85034028Y-132640035D01*
X84942961Y-132667003D01*
X84826368Y-132707299D01*
X84694628Y-132757118D01*
X84558120Y-132812652D01*
X84427222Y-132870098D01*
X84398108Y-132883599D01*
X84044903Y-133073281D01*
X83730419Y-133293013D01*
X83702000Y-133315877D01*
X83634813Y-133369499D01*
X83581255Y-133410286D01*
X83559236Y-133425453D01*
X83536655Y-133411003D01*
X83503424Y-133350369D01*
X83461157Y-133246659D01*
X83448822Y-133212839D01*
X83394402Y-133076407D01*
X83345274Y-132985369D01*
X83309049Y-132945854D01*
X83243199Y-132917340D01*
X83156262Y-132897655D01*
X83066490Y-132888836D01*
X82992140Y-132892919D01*
X82956408Y-132906522D01*
X82930446Y-132917516D01*
X82913519Y-132890419D01*
X82904580Y-132852857D01*
X82882554Y-132791821D01*
X82839464Y-132706404D01*
X82783941Y-132613440D01*
X82774121Y-132598450D01*
X82660196Y-132427000D01*
X82764358Y-132427000D01*
X82835410Y-132432267D01*
X82936895Y-132446315D01*
X83055259Y-132466509D01*
X83176949Y-132490215D01*
X83288411Y-132514800D01*
X83376093Y-132537630D01*
X83425272Y-132555429D01*
X83455285Y-132591681D01*
X83492658Y-132667302D01*
X83532640Y-132772326D01*
X83541774Y-132799803D01*
X83585641Y-132923750D01*
X83621382Y-133001612D01*
X83647855Y-133032800D01*
X83663915Y-133016726D01*
X83668422Y-132952802D01*
X83662463Y-132861909D01*
X83655818Y-132730696D01*
X83666542Y-132636541D01*
X83677849Y-132601784D01*
X83692968Y-132555637D01*
X83690230Y-132519587D01*
X83663209Y-132488579D01*
X83605474Y-132457562D01*
X83510599Y-132421483D01*
X83402188Y-132385103D01*
X83181300Y-132312700D01*
X82520900Y-132315560D01*
X82272034Y-132318045D01*
X82065443Y-132323964D01*
X81892651Y-132334558D01*
X81745179Y-132351069D01*
X81614551Y-132374737D01*
X81492289Y-132406804D01*
X81369917Y-132448511D01*
X81238956Y-132501099D01*
X81231233Y-132504375D01*
X81092656Y-132568452D01*
X80973474Y-132633437D01*
X80878862Y-132695392D01*
X80813994Y-132750377D01*
X80784044Y-132794454D01*
X80794187Y-132823684D01*
X80805105Y-132828734D01*
X80821005Y-132852644D01*
X80817760Y-132860969D01*
X80820024Y-132880651D01*
X80849844Y-132882165D01*
X80887760Y-132866580D01*
X80900211Y-132856429D01*
X80919017Y-132854570D01*
X80934372Y-132894636D01*
X80946125Y-132964379D01*
X80964657Y-133053161D01*
X80999548Y-133176959D01*
X81046784Y-133324252D01*
X81102353Y-133483519D01*
X81162242Y-133643239D01*
X81222439Y-133791891D01*
X81276509Y-133912900D01*
X81329326Y-134011482D01*
X81387647Y-134101839D01*
X81439212Y-134165054D01*
X81441117Y-134166900D01*
X81520913Y-134243100D01*
X82368500Y-134243100D01*
X82698681Y-134128800D01*
X82830647Y-134082582D01*
X82922217Y-134048189D01*
X82981158Y-134021290D01*
X83015237Y-133997556D01*
X83032222Y-133972660D01*
X83039880Y-133942273D01*
X83040504Y-133938300D01*
X83048536Y-133836700D01*
X82889200Y-133836700D01*
X82875445Y-133894988D01*
X82858720Y-133920520D01*
X82809201Y-133945967D01*
X82774900Y-133951000D01*
X82716612Y-133937244D01*
X82691080Y-133920520D01*
X82665633Y-133871000D01*
X82660600Y-133836700D01*
X82674356Y-133778411D01*
X82691080Y-133752880D01*
X82740600Y-133727432D01*
X82774900Y-133722400D01*
X82833189Y-133736155D01*
X82858720Y-133752880D01*
X82884168Y-133802399D01*
X82889200Y-133836700D01*
X83048536Y-133836700D01*
X83051444Y-133799920D01*
X83049260Y-133632493D01*
X83035207Y-133455692D01*
X83010544Y-133289190D01*
X82994241Y-133214400D01*
X82964608Y-133093218D01*
X82961435Y-133078649D01*
X81613135Y-133078649D01*
X81609202Y-133198839D01*
X81584256Y-133302117D01*
X81539004Y-133374917D01*
X81526842Y-133385169D01*
X81453328Y-133413317D01*
X81357248Y-133418468D01*
X81260506Y-133402177D01*
X81185011Y-133365997D01*
X81178481Y-133360450D01*
X81142339Y-133309695D01*
X81100170Y-133224563D01*
X81057622Y-133120117D01*
X81020346Y-133011420D01*
X80993990Y-132913534D01*
X80984200Y-132842460D01*
X81009493Y-132793241D01*
X81085124Y-132741160D01*
X81210729Y-132686436D01*
X81296943Y-132656593D01*
X81366673Y-132642228D01*
X81422382Y-132654812D01*
X81472623Y-132700480D01*
X81525949Y-132785368D01*
X81555135Y-132841812D01*
X81595348Y-132955118D01*
X81613135Y-133078649D01*
X82961435Y-133078649D01*
X82947724Y-133015716D01*
X82943177Y-132976509D01*
X82950557Y-132970210D01*
X82969455Y-132991435D01*
X82978179Y-133003604D01*
X83028615Y-133049174D01*
X83098785Y-133085267D01*
X83102978Y-133086699D01*
X83140313Y-133101468D01*
X83169608Y-133123169D01*
X83196033Y-133160543D01*
X83224761Y-133222331D01*
X83260966Y-133317275D01*
X83294057Y-133409641D01*
X83358418Y-133594777D01*
X83404631Y-133741493D01*
X83433095Y-133858662D01*
X83444209Y-133955158D01*
X83438371Y-134039855D01*
X83415978Y-134121625D01*
X83377431Y-134209342D01*
X83333700Y-134292566D01*
X83266083Y-134424291D01*
X83228992Y-134516350D01*
X83222631Y-134569838D01*
X83247203Y-134585846D01*
X83302912Y-134565467D01*
X83376009Y-134519583D01*
X83444700Y-134459346D01*
X83516872Y-134376949D01*
X83554955Y-134323656D01*
X83602710Y-134240571D01*
X83629942Y-134163890D01*
X83643521Y-134070533D01*
X83647163Y-134013917D01*
X83648120Y-133907313D01*
X83641641Y-133806852D01*
X83630380Y-133739944D01*
X83617977Y-133680420D01*
X83619096Y-133648122D01*
X83622113Y-133646200D01*
X83650488Y-133634237D01*
X83711835Y-133602175D01*
X83795386Y-133555752D01*
X83842316Y-133528837D01*
X83956418Y-133462721D01*
X84076151Y-133393317D01*
X84179169Y-133333581D01*
X84197300Y-133323063D01*
X84273248Y-133281373D01*
X84383263Y-133224088D01*
X84515451Y-133157255D01*
X84657920Y-133086919D01*
X84740038Y-133047161D01*
X85130376Y-132859671D01*
X85763517Y-132859671D01*
X85791242Y-132849646D01*
X85871194Y-132835285D01*
X85918457Y-132833400D01*
X86073834Y-132857300D01*
X86227056Y-132924472D01*
X86367351Y-133028126D01*
X86483949Y-133161468D01*
X86514445Y-133209211D01*
X86553281Y-133284364D01*
X86573884Y-133355039D01*
X86581105Y-133442806D01*
X86581135Y-133505791D01*
X86795334Y-133505791D01*
X86796893Y-133453243D01*
X86794895Y-133418017D01*
X86767244Y-133254010D01*
X86705540Y-133106381D01*
X86603633Y-132962063D01*
X86554099Y-132906453D01*
X86475586Y-132835195D01*
X86377501Y-132764071D01*
X86273333Y-132701054D01*
X86176573Y-132654115D01*
X86100710Y-132631229D01*
X86086670Y-132630200D01*
X86060012Y-132626326D01*
X86053783Y-132606202D01*
X86067078Y-132557078D01*
X86079021Y-132522590D01*
X86174858Y-132199700D01*
X86248514Y-131841348D01*
X86298317Y-131458548D01*
X86322596Y-131062315D01*
X86324786Y-130903000D01*
X86318158Y-130584763D01*
X86299294Y-130232764D01*
X86269686Y-129862152D01*
X86230823Y-129488073D01*
X86184194Y-129125678D01*
X86131290Y-128790114D01*
X86100924Y-128626847D01*
X86043713Y-128373623D01*
X85968119Y-128093815D01*
X85877596Y-127796903D01*
X85775600Y-127492369D01*
X85665586Y-127189693D01*
X85551009Y-126898357D01*
X85435325Y-126627840D01*
X85321988Y-126387624D01*
X85214455Y-126187191D01*
X85207465Y-126175286D01*
X85126605Y-126050821D01*
X85018264Y-125902094D01*
X84889413Y-125737176D01*
X84747023Y-125564142D01*
X84598063Y-125391065D01*
X84449505Y-125226017D01*
X84308318Y-125077072D01*
X84181473Y-124952303D01*
X84075941Y-124859783D01*
X84062751Y-124849470D01*
X83852179Y-124707439D01*
X83605391Y-124573415D01*
X83336951Y-124453994D01*
X83061424Y-124355777D01*
X82840357Y-124295674D01*
X82681746Y-124267602D01*
X82482526Y-124246046D01*
X82252594Y-124232050D01*
X82228800Y-124231125D01*
X81954370Y-124228208D01*
X81720367Y-124242758D01*
X81518837Y-124276755D01*
X81341826Y-124332178D01*
X81181381Y-124411005D01*
X81029547Y-124515216D01*
X81003560Y-124535973D01*
X80858126Y-124654430D01*
X80841334Y-124587525D01*
X80833892Y-124519547D01*
X80833585Y-124415320D01*
X80839390Y-124288738D01*
X80850285Y-124153693D01*
X80865245Y-124024077D01*
X80883249Y-123913783D01*
X80894567Y-123864564D01*
X80920314Y-123782416D01*
X80962160Y-123663781D01*
X81016090Y-123518822D01*
X81078090Y-123357700D01*
X81144148Y-123190579D01*
X81210248Y-123027619D01*
X81272376Y-122878983D01*
X81326519Y-122754834D01*
X81366794Y-122669044D01*
X81500638Y-122430755D01*
X81647033Y-122222354D01*
X81799075Y-122053489D01*
X81823740Y-122030535D01*
X81894411Y-121963564D01*
X81947395Y-121907607D01*
X81973532Y-121872516D01*
X81974800Y-121868028D01*
X81954571Y-121865902D01*
X81900519Y-121884656D01*
X81900519Y-121884656D01*
G37*
X81900519Y-121884656D02*
X81822594Y-121919399D01*
X81730748Y-121965236D01*
X81634932Y-122017274D01*
X81545099Y-122070618D01*
X81492200Y-122105354D01*
X81385985Y-122190377D01*
X81262170Y-122307717D01*
X81130419Y-122446829D01*
X81000398Y-122597168D01*
X80881771Y-122748187D01*
X80809893Y-122849846D01*
X80661287Y-123087082D01*
X80530679Y-123329806D01*
X80409191Y-123595348D01*
X80336987Y-123772819D01*
X80293733Y-123878619D01*
X80256166Y-123961826D01*
X80228306Y-124014116D01*
X80214176Y-124027164D01*
X80214158Y-124027135D01*
X80177377Y-123996350D01*
X80103358Y-123954180D01*
X80003023Y-123905411D01*
X79887290Y-123854829D01*
X79767080Y-123807221D01*
X79653312Y-123767372D01*
X79561800Y-123741218D01*
X79351550Y-123706849D01*
X79104838Y-123693164D01*
X78831184Y-123699254D01*
X78540111Y-123724211D01*
X78241137Y-123767127D01*
X77943786Y-123827093D01*
X77657576Y-123903200D01*
X77567900Y-123931471D01*
X77420022Y-123986655D01*
X77240906Y-124063935D01*
X77041836Y-124157610D01*
X76834097Y-124261983D01*
X76628973Y-124371355D01*
X76437750Y-124480028D01*
X76271711Y-124582303D01*
X76247100Y-124598444D01*
X75956498Y-124803947D01*
X75699394Y-125015046D01*
X75471085Y-125238000D01*
X75266863Y-125479071D01*
X75082024Y-125744518D01*
X74911863Y-126040600D01*
X74751673Y-126373579D01*
X74596750Y-126749713D01*
X74562792Y-126839182D01*
X74388145Y-127351899D01*
X74248610Y-127866661D01*
X74142019Y-128394025D01*
X74066203Y-128944548D01*
X74022380Y-129470338D01*
X74004729Y-129966864D01*
X74014757Y-130435699D01*
X74053665Y-130892504D01*
X74122649Y-131352937D01*
X74193300Y-131703100D01*
X74263931Y-132009984D01*
X74331650Y-132276680D01*
X74399996Y-132513386D01*
X74472508Y-132730304D01*
X74552727Y-132937631D01*
X74644191Y-133145569D01*
X74750440Y-133364317D01*
X74810302Y-133481100D01*
X74974372Y-133789011D01*
X75122649Y-134051289D01*
X75254868Y-134267529D01*
X75370765Y-134437326D01*
X75470075Y-134560278D01*
X75552533Y-134635980D01*
X75577551Y-134651336D01*
X75629001Y-134686185D01*
X75631944Y-134713736D01*
X75585563Y-134735512D01*
X75525729Y-134747749D01*
X75410008Y-134789024D01*
X75310474Y-134866336D01*
X75244038Y-134966426D01*
X75220867Y-135076407D01*
X75226342Y-135213334D01*
X75258724Y-135363445D01*
X75312005Y-135503982D01*
X75386975Y-135634617D01*
X75498418Y-135781981D01*
X75611298Y-135909935D01*
X75712785Y-136023484D01*
X75816867Y-136146782D01*
X75909981Y-136263412D01*
X75967916Y-136341535D01*
X76042613Y-136440356D01*
X76139910Y-136558473D01*
X76246092Y-136679661D01*
X76329226Y-136768964D01*
X76423667Y-136865853D01*
X76491545Y-136931247D01*
X76540832Y-136970902D01*
X76579503Y-136990577D01*
X76615530Y-136996028D01*
X76641757Y-136994628D01*
X76687117Y-136992648D01*
X76719406Y-137003393D01*
X76748141Y-137036084D01*
X76782844Y-137099944D01*
X76811415Y-137158993D01*
X76879110Y-137288528D01*
X76953703Y-137411398D01*
X77029957Y-137521033D01*
X77102633Y-137610866D01*
X77166493Y-137674327D01*
X77216298Y-137704848D01*
X77243216Y-137700451D01*
X77273672Y-137699664D01*
X77304741Y-137712094D01*
X77347937Y-137756647D01*
X77401014Y-137847906D01*
X77462703Y-137983017D01*
X77531736Y-138159126D01*
X77606845Y-138373379D01*
X77630621Y-138445427D01*
X77674708Y-138575023D01*
X77716595Y-138687746D01*
X77752631Y-138774504D01*
X77779161Y-138826202D01*
X77787510Y-138835936D01*
X77823389Y-138839184D01*
X77886872Y-138817273D01*
X77983574Y-138768040D01*
X78026597Y-138743786D01*
X78130406Y-138687492D01*
X78230983Y-138638488D01*
X78311162Y-138604973D01*
X78330625Y-138598592D01*
X78432950Y-138569129D01*
X78711625Y-138764021D01*
X78819164Y-138839895D01*
X78914749Y-138908566D01*
X78988960Y-138963179D01*
X79032376Y-138996881D01*
X79035943Y-138999972D01*
X79063954Y-139030174D01*
X79055782Y-139051317D01*
X79010543Y-139076844D01*
X78957534Y-139112910D01*
X78885555Y-139173750D01*
X78809762Y-139246509D01*
X78806362Y-139250004D01*
X78691934Y-139354563D01*
X78553041Y-139461277D01*
X78407152Y-139557957D01*
X78271739Y-139632413D01*
X78234138Y-139649276D01*
X78159798Y-139675425D01*
X78043619Y-139710195D01*
X77893456Y-139751673D01*
X77717163Y-139797942D01*
X77522597Y-139847087D01*
X77317613Y-139897191D01*
X77110067Y-139946338D01*
X76907812Y-139992614D01*
X76718706Y-140034102D01*
X76550603Y-140068886D01*
X76411358Y-140095050D01*
X76394518Y-140097933D01*
X76189740Y-140135054D01*
X76030115Y-140170470D01*
X75910127Y-140206163D01*
X75824265Y-140244114D01*
X75767014Y-140286305D01*
X75732861Y-140334719D01*
X75732287Y-140335956D01*
X75706096Y-140377092D01*
X75654694Y-140446001D01*
X75586194Y-140532111D01*
X75528354Y-140601768D01*
X75397037Y-140772455D01*
X75255384Y-140984224D01*
X75107358Y-141229408D01*
X74956922Y-141500343D01*
X74808039Y-141789365D01*
X74664672Y-142088807D01*
X74530786Y-142391006D01*
X74410343Y-142688296D01*
X74317017Y-142944441D01*
X74204546Y-143272800D01*
X79791368Y-143272800D01*
X79778300Y-143215650D01*
X79738902Y-143033954D01*
X79695194Y-142816437D01*
X79649404Y-142575618D01*
X79603761Y-142324016D01*
X79560493Y-142074153D01*
X79521830Y-141838548D01*
X79490000Y-141629721D01*
X79470482Y-141486603D01*
X79449512Y-141316543D01*
X79434120Y-141178367D01*
X79423869Y-141059769D01*
X79418320Y-140948442D01*
X79417034Y-140832081D01*
X79419573Y-140698380D01*
X79425500Y-140535032D01*
X79431556Y-140393578D01*
X79439278Y-140227288D01*
X79446965Y-140078691D01*
X79454177Y-139955062D01*
X79460472Y-139863673D01*
X79465410Y-139811799D01*
X79467374Y-139802759D01*
X79485144Y-139816562D01*
X79520419Y-139862930D01*
X79553774Y-139913380D01*
X79617124Y-140003675D01*
X79703693Y-140113122D01*
X79803888Y-140230957D01*
X79908112Y-140346415D01*
X80006772Y-140448731D01*
X80090273Y-140527141D01*
X80127485Y-140557067D01*
X80248363Y-140626362D01*
X80384661Y-140675695D01*
X80517631Y-140699588D01*
X80606726Y-140697082D01*
X80683101Y-140677177D01*
X80780384Y-140641675D01*
X80858082Y-140607357D01*
X80952572Y-140556652D01*
X81077141Y-140482701D01*
X81221048Y-140392497D01*
X81373549Y-140293034D01*
X81523904Y-140191302D01*
X81661371Y-140094295D01*
X81764705Y-140017186D01*
X81839906Y-139959675D01*
X81898054Y-139916631D01*
X81928960Y-139895556D01*
X81931234Y-139894600D01*
X81930989Y-139918386D01*
X81923023Y-139984869D01*
X81908523Y-140086731D01*
X81888674Y-140216654D01*
X81864663Y-140367322D01*
X81837677Y-140531417D01*
X81808901Y-140701623D01*
X81779522Y-140870621D01*
X81750727Y-141031096D01*
X81723701Y-141175730D01*
X81722582Y-141181559D01*
X81664279Y-141467529D01*
X81596631Y-141770144D01*
X81523090Y-142075468D01*
X81447106Y-142369566D01*
X81372134Y-142638504D01*
X81315018Y-142826758D01*
X81276904Y-142952050D01*
X81246175Y-143063517D01*
X81225552Y-143150476D01*
X81217752Y-143202246D01*
X81218014Y-143207758D01*
X81225500Y-143260100D01*
X84698950Y-143266540D01*
X85114628Y-143267200D01*
X85516109Y-143267621D01*
X85900485Y-143267810D01*
X86264849Y-143267776D01*
X86606292Y-143267525D01*
X86921906Y-143267065D01*
X87208784Y-143266403D01*
X87464017Y-143265548D01*
X87684698Y-143264506D01*
X87867919Y-143263286D01*
X88010771Y-143261894D01*
X88110347Y-143260338D01*
X88163739Y-143258626D01*
X88172400Y-143257551D01*
X88158798Y-143231986D01*
X88121594Y-143173028D01*
X88066188Y-143088987D01*
X87997985Y-142988174D01*
X87985060Y-142969317D01*
X87896109Y-142836867D01*
X87801112Y-142690633D01*
X87712801Y-142550444D01*
X87656490Y-142457606D01*
X87534507Y-142257825D01*
X87417725Y-142079164D01*
X87310246Y-141927354D01*
X87216175Y-141808127D01*
X87139617Y-141727212D01*
X87123706Y-141713650D01*
X87059693Y-141669179D01*
X86994669Y-141643652D01*
X86908351Y-141630466D01*
X86857006Y-141626789D01*
X86747779Y-141615418D01*
X86679410Y-141595206D01*
X86648400Y-141571798D01*
X86617195Y-141534779D01*
X86561596Y-141468668D01*
X86489860Y-141383288D01*
X86420981Y-141301252D01*
X86322512Y-141184884D01*
X86213852Y-141057974D01*
X86111672Y-140939934D01*
X86063722Y-140885200D01*
X85989394Y-140798408D01*
X85893890Y-140683234D01*
X85786946Y-140551614D01*
X85678294Y-140415479D01*
X85618287Y-140339100D01*
X85352427Y-140012759D01*
X85100736Y-139733600D01*
X84861891Y-139500426D01*
X84634570Y-139312038D01*
X84417451Y-139167238D01*
X84282612Y-139100644D01*
X82195341Y-139100644D01*
X82194690Y-139102775D01*
X82180192Y-139143742D01*
X82152158Y-139219718D01*
X82115205Y-139318266D01*
X82089325Y-139386600D01*
X82049675Y-139491261D01*
X82016510Y-139579482D01*
X81994213Y-139639568D01*
X81987608Y-139658044D01*
X81962083Y-139684893D01*
X81899654Y-139733410D01*
X81807064Y-139799271D01*
X81691057Y-139878152D01*
X81558376Y-139965727D01*
X81415763Y-140057674D01*
X81269962Y-140149667D01*
X81127716Y-140237384D01*
X80995768Y-140316499D01*
X80880861Y-140382688D01*
X80789738Y-140431628D01*
X80755600Y-140448097D01*
X80631160Y-140486491D01*
X80492798Y-140500988D01*
X80362087Y-140490579D01*
X80291235Y-140469888D01*
X80231326Y-140431699D01*
X80148515Y-140361138D01*
X80050474Y-140266401D01*
X79944874Y-140155685D01*
X79839386Y-140037188D01*
X79741680Y-139919107D01*
X79659428Y-139809640D01*
X79624207Y-139757102D01*
X79563738Y-139658092D01*
X79527428Y-139586208D01*
X79509956Y-139527203D01*
X79506001Y-139466831D01*
X79506824Y-139442775D01*
X79515852Y-139323625D01*
X79531941Y-139243090D01*
X79559767Y-139189040D01*
X79604002Y-139149346D01*
X79624992Y-139136147D01*
X79710213Y-139085866D01*
X79779551Y-139249013D01*
X79834961Y-139365812D01*
X79882078Y-139436720D01*
X79919789Y-139460285D01*
X79935695Y-139452972D01*
X79943286Y-139415845D01*
X79938496Y-139339928D01*
X79923207Y-139235186D01*
X79899302Y-139111585D01*
X79868665Y-138979092D01*
X79833178Y-138847670D01*
X79803281Y-138752135D01*
X79768334Y-138644920D01*
X79741797Y-138556791D01*
X79726599Y-138497943D01*
X79724710Y-138478624D01*
X79740981Y-138475983D01*
X79779140Y-138483291D01*
X79844425Y-138502175D01*
X79942073Y-138534265D01*
X80077320Y-138581188D01*
X80234900Y-138637225D01*
X80565100Y-138755468D01*
X80895300Y-138743563D01*
X81123774Y-138727290D01*
X81318274Y-138694184D01*
X81493847Y-138640728D01*
X81665137Y-138563615D01*
X81717905Y-138539261D01*
X81745174Y-138532408D01*
X81746200Y-138533797D01*
X81741301Y-138563453D01*
X81728735Y-138626434D01*
X81718126Y-138676806D01*
X81705164Y-138770572D01*
X81701980Y-138873620D01*
X81707429Y-138973623D01*
X81720369Y-139058255D01*
X81739653Y-139115188D01*
X81760438Y-139132600D01*
X81792764Y-139110969D01*
X81811687Y-139070229D01*
X81833494Y-139025048D01*
X81877666Y-139016269D01*
X81894721Y-139018439D01*
X81961349Y-139028128D01*
X82049689Y-139040054D01*
X82085210Y-139044635D01*
X82159400Y-139057371D01*
X82192783Y-139074274D01*
X82195341Y-139100644D01*
X84282612Y-139100644D01*
X84213941Y-139066729D01*
X84072445Y-139023691D01*
X83894496Y-138991068D01*
X83693522Y-138969652D01*
X83482949Y-138960232D01*
X83276204Y-138963598D01*
X83086713Y-138980541D01*
X82998382Y-138995193D01*
X82942149Y-139001189D01*
X82909444Y-138981692D01*
X82881069Y-138925971D01*
X82845007Y-138840500D01*
X83000454Y-138697884D01*
X83086294Y-138613329D01*
X83186627Y-138505733D01*
X83285375Y-138392627D01*
X83329314Y-138339258D01*
X83420140Y-138230777D01*
X83502684Y-138140828D01*
X83571733Y-138074263D01*
X83622074Y-138035938D01*
X83648492Y-138030706D01*
X83651200Y-138039566D01*
X83669489Y-138082654D01*
X83717520Y-138140367D01*
X83785042Y-138204548D01*
X83861807Y-138267041D01*
X83937562Y-138319690D01*
X84002057Y-138354337D01*
X84045042Y-138362825D01*
X84052431Y-138358835D01*
X84058629Y-138330414D01*
X84066801Y-138261920D01*
X84075831Y-138163987D01*
X84083696Y-138060561D01*
X84099290Y-137914375D01*
X84127084Y-137733133D01*
X84164369Y-137530342D01*
X84208437Y-137319509D01*
X84256580Y-137114142D01*
X84306089Y-136927747D01*
X84321086Y-136876609D01*
X84349535Y-136803954D01*
X84397405Y-136703743D01*
X84457038Y-136591399D01*
X84498565Y-136519038D01*
X84566935Y-136397895D01*
X84633449Y-136269851D01*
X84688149Y-136154501D01*
X84709353Y-136104178D01*
X84753512Y-136002464D01*
X84797243Y-135933045D01*
X84852782Y-135879017D01*
X84894291Y-135848713D01*
X85016219Y-135759493D01*
X85163627Y-135642558D01*
X85326571Y-135506600D01*
X85495105Y-135360315D01*
X85659284Y-135212396D01*
X85809163Y-135071537D01*
X85934797Y-134946431D01*
X85974425Y-134904490D01*
X86192693Y-134661508D01*
X86373080Y-134444984D01*
X86518031Y-134250485D01*
X86629994Y-134073581D01*
X86711415Y-133909837D01*
X86764741Y-133754821D01*
X86792418Y-133604100D01*
X86795334Y-133505791D01*
X86581135Y-133505791D01*
X86569496Y-133647222D01*
X86535805Y-133782971D01*
X86475669Y-133924644D01*
X86384694Y-134083843D01*
X86330782Y-134166900D01*
X86215967Y-134323934D01*
X86068481Y-134502619D01*
X85896446Y-134694327D01*
X85707982Y-134890431D01*
X85511210Y-135082303D01*
X85314251Y-135261315D01*
X85243149Y-135322399D01*
X85129612Y-135418219D01*
X85030562Y-135501691D01*
X84952072Y-135567706D01*
X84900215Y-135611157D01*
X84881064Y-135626934D01*
X84881062Y-135626934D01*
X84884879Y-135604134D01*
X84896813Y-135542697D01*
X84914682Y-135453732D01*
X84924596Y-135405150D01*
X84968457Y-135184222D01*
X85013197Y-134946098D01*
X85057401Y-134699398D01*
X85099651Y-134452743D01*
X85138532Y-134214754D01*
X85172627Y-133994051D01*
X85200519Y-133799254D01*
X85220792Y-133638986D01*
X85230313Y-133544600D01*
X85245783Y-133381833D01*
X85265235Y-133259953D01*
X85294435Y-133169077D01*
X85339147Y-133099323D01*
X85405139Y-133040809D01*
X85498175Y-132983653D01*
X85584020Y-132938370D01*
X85700801Y-132882349D01*
X85763517Y-132859671D01*
X85130376Y-132859671D01*
X85112755Y-133106885D01*
X85085913Y-133401488D01*
X85045519Y-133715546D01*
X84990136Y-134059179D01*
X84934996Y-134357400D01*
X84901785Y-134530530D01*
X84867171Y-134713850D01*
X84834341Y-134890292D01*
X84806484Y-135042791D01*
X84795067Y-135106700D01*
X84725185Y-135448212D01*
X84641648Y-135751264D01*
X84540493Y-136027265D01*
X84417753Y-136287622D01*
X84330010Y-136444609D01*
X84216618Y-136624348D01*
X84100504Y-136780590D01*
X83973166Y-136921730D01*
X83826104Y-137056164D01*
X83650818Y-137192285D01*
X83438805Y-137338491D01*
X83397200Y-137365799D01*
X83202690Y-137488804D01*
X82986066Y-137619032D01*
X82754598Y-137752634D01*
X82515555Y-137885762D01*
X82276208Y-138014569D01*
X82043826Y-138135206D01*
X81825679Y-138243826D01*
X81629036Y-138336580D01*
X81461168Y-138409621D01*
X81335629Y-138457024D01*
X81227861Y-138486143D01*
X81092835Y-138512729D01*
X80944929Y-138534998D01*
X80798521Y-138551169D01*
X80667989Y-138559457D01*
X80567713Y-138558079D01*
X80543821Y-138555217D01*
X80490270Y-138539603D01*
X80404848Y-138507225D01*
X80301373Y-138463529D01*
X80236057Y-138433995D01*
X80095440Y-138370466D01*
X79964042Y-138315529D01*
X79831505Y-138265639D01*
X79687475Y-138217254D01*
X79521596Y-138166829D01*
X79323511Y-138110820D01*
X79168031Y-138068517D01*
X78934825Y-138003481D01*
X78672854Y-137926593D01*
X78395168Y-137841959D01*
X78114820Y-137753687D01*
X77844860Y-137665886D01*
X77598339Y-137582661D01*
X77393368Y-137509978D01*
X77280239Y-137467572D01*
X77203176Y-137434021D01*
X77150333Y-137401299D01*
X77109863Y-137361378D01*
X77069921Y-137306230D01*
X77051628Y-137278400D01*
X76994934Y-137180112D01*
X76926018Y-137042611D01*
X76848707Y-136874879D01*
X76793205Y-136746779D01*
X76622063Y-136746779D01*
X76607253Y-136741544D01*
X76570294Y-136706930D01*
X76506192Y-136639838D01*
X76461890Y-136592600D01*
X76367008Y-136486032D01*
X76268556Y-136366899D01*
X76183264Y-136255696D01*
X76158790Y-136221245D01*
X76089971Y-136128484D01*
X75998326Y-136014703D01*
X75896521Y-135895229D01*
X75809704Y-135798761D01*
X75643815Y-135604531D01*
X75524473Y-135429280D01*
X75451754Y-135273171D01*
X75425734Y-135136368D01*
X75446490Y-135019035D01*
X75446794Y-135018298D01*
X75478680Y-134966322D01*
X75531999Y-134930329D01*
X75607060Y-134903578D01*
X75735586Y-134873135D01*
X75838009Y-134869672D01*
X75931601Y-134893729D01*
X75978394Y-134915176D01*
X76046547Y-134959136D01*
X76081539Y-135012770D01*
X76093931Y-135060729D01*
X76108517Y-135121697D01*
X76135170Y-135217995D01*
X76170166Y-135336668D01*
X76209786Y-135464763D01*
X76211974Y-135471662D01*
X76248438Y-135589922D01*
X76277162Y-135689752D01*
X76295599Y-135761776D01*
X76301203Y-135796615D01*
X76300645Y-135798222D01*
X76279741Y-135785327D01*
X76230006Y-135742142D01*
X76158059Y-135674762D01*
X76070521Y-135589283D01*
X76033174Y-135551943D01*
X75940211Y-135461113D01*
X75858685Y-135386548D01*
X75795603Y-135334276D01*
X75757974Y-135310321D01*
X75751754Y-135309928D01*
X75727678Y-135352376D01*
X75743876Y-135425221D01*
X75800399Y-135528658D01*
X75813608Y-135548684D01*
X75874788Y-135633015D01*
X75960462Y-135742529D01*
X76060557Y-135865183D01*
X76165000Y-135988932D01*
X76263717Y-136101733D01*
X76346637Y-136191542D01*
X76376186Y-136221318D01*
X76431262Y-136287424D01*
X76484883Y-136379997D01*
X76540875Y-136506726D01*
X76603063Y-136675297D01*
X76605209Y-136681500D01*
X76619717Y-136725731D01*
X76622063Y-136746779D01*
X76793205Y-136746779D01*
X76766828Y-136685901D01*
X76684211Y-136484660D01*
X76604683Y-136280141D01*
X76532073Y-136081326D01*
X76493250Y-135968001D01*
X76436973Y-135806331D01*
X76372585Y-135633320D01*
X76307248Y-135467556D01*
X76248126Y-135327626D01*
X76236573Y-135301954D01*
X76186764Y-135190897D01*
X76145872Y-135095854D01*
X76118039Y-135026734D01*
X76107410Y-134993445D01*
X76107400Y-134993102D01*
X76124588Y-134968536D01*
X76166536Y-134972733D01*
X76218825Y-135002126D01*
X76246590Y-135027548D01*
X76306361Y-135068255D01*
X76398223Y-135105411D01*
X76503524Y-135132989D01*
X76603614Y-135144963D01*
X76610301Y-135145064D01*
X76648327Y-135169402D01*
X76695235Y-135239632D01*
X76724186Y-135297244D01*
X76790882Y-135414398D01*
X76859014Y-135481814D01*
X76868975Y-135487479D01*
X76966562Y-135520005D01*
X77062448Y-135522023D01*
X77139729Y-135494163D01*
X77160052Y-135476600D01*
X77188709Y-135423824D01*
X77174315Y-135385913D01*
X77128251Y-135373305D01*
X77037328Y-135348573D01*
X76958102Y-135276802D01*
X76893515Y-135160993D01*
X76877111Y-135117162D01*
X76845719Y-135013105D01*
X76809843Y-134875862D01*
X76773444Y-134722342D01*
X76740481Y-134569450D01*
X76714915Y-134434096D01*
X76709852Y-134403122D01*
X76718157Y-134342192D01*
X76759413Y-134309725D01*
X76823192Y-134307743D01*
X76899071Y-134338267D01*
X76930813Y-134360295D01*
X76979071Y-134393588D01*
X77007678Y-134404654D01*
X77009201Y-134403866D01*
X77001243Y-134379388D01*
X76971214Y-134323055D01*
X76924917Y-134245482D01*
X76906924Y-134216820D01*
X76854776Y-134131682D01*
X76815307Y-134061427D01*
X76795150Y-134018064D01*
X76793861Y-134012155D01*
X76814857Y-133991113D01*
X76870079Y-133956452D01*
X76947014Y-133914455D01*
X77033148Y-133871402D01*
X77115969Y-133833576D01*
X77182962Y-133807256D01*
X77219295Y-133798600D01*
X77239094Y-133807009D01*
X77254839Y-133837934D01*
X77268993Y-133899915D01*
X77284022Y-134001494D01*
X77288936Y-134039900D01*
X77312640Y-134162864D01*
X77354447Y-134313608D01*
X77410019Y-134481174D01*
X77475016Y-134654602D01*
X77545102Y-134822934D01*
X77615937Y-134975212D01*
X77683183Y-135100477D01*
X77742502Y-135187769D01*
X77744135Y-135189713D01*
X77814496Y-135272726D01*
X78211898Y-135258913D01*
X78384592Y-135252378D01*
X78516206Y-135245464D01*
X78616446Y-135236719D01*
X78695023Y-135224690D01*
X78761643Y-135207925D01*
X78826015Y-135184974D01*
X78891226Y-135157309D01*
X78967319Y-135120244D01*
X79008924Y-135085798D01*
X79029451Y-135039665D01*
X79036996Y-135001839D01*
X79048506Y-134915330D01*
X79048607Y-134911783D01*
X78821603Y-134911783D01*
X78784231Y-134965195D01*
X78714819Y-134991601D01*
X78698200Y-134992400D01*
X78636258Y-134981311D01*
X78601681Y-134961919D01*
X78578210Y-134914423D01*
X78571200Y-134865400D01*
X78590363Y-134789214D01*
X78639459Y-134745977D01*
X78705901Y-134740840D01*
X78777100Y-134778958D01*
X78778750Y-134780436D01*
X78821565Y-134845488D01*
X78821603Y-134911783D01*
X79048607Y-134911783D01*
X79050765Y-134836288D01*
X79042149Y-134752261D01*
X79021035Y-134650797D01*
X78985798Y-134519442D01*
X78964490Y-134445859D01*
X78906981Y-134260376D01*
X78852200Y-134110971D01*
X78817827Y-134036445D01*
X77803870Y-134036445D01*
X77794649Y-134096460D01*
X77771414Y-134144157D01*
X77750532Y-134159642D01*
X77719507Y-134169627D01*
X77690851Y-134192720D01*
X77632482Y-134218030D01*
X77550603Y-134211824D01*
X77460041Y-134175919D01*
X77436305Y-134161553D01*
X77392475Y-134110456D01*
X77359956Y-134018623D01*
X77351634Y-133980734D01*
X77334042Y-133894704D01*
X77318881Y-133825315D01*
X77311934Y-133796957D01*
X77319762Y-133767982D01*
X77365268Y-133740053D01*
X77436565Y-133714407D01*
X77547189Y-133683578D01*
X77622631Y-133674738D01*
X77673860Y-133688645D01*
X77711845Y-133726060D01*
X77717140Y-133733841D01*
X77763812Y-133828462D01*
X77794142Y-133935971D01*
X77803870Y-134036445D01*
X78817827Y-134036445D01*
X78793540Y-133983788D01*
X78724391Y-133864970D01*
X78638146Y-133740660D01*
X78610478Y-133703572D01*
X78545507Y-133616684D01*
X78508007Y-133561855D01*
X78494755Y-133530663D01*
X78502531Y-133514684D01*
X78528113Y-133505496D01*
X78534144Y-133503968D01*
X78581242Y-133482873D01*
X78596600Y-133461413D01*
X78585616Y-133447154D01*
X78579888Y-133451246D01*
X78549617Y-133451349D01*
X78524964Y-133436429D01*
X78477013Y-133419988D01*
X78388739Y-133410840D01*
X78270043Y-133408622D01*
X78130821Y-133412967D01*
X77980971Y-133423511D01*
X77830392Y-133439889D01*
X77688982Y-133461736D01*
X77653477Y-133468561D01*
X77471028Y-133510307D01*
X77292210Y-133560249D01*
X77122396Y-133615925D01*
X76966959Y-133674877D01*
X76831269Y-133734643D01*
X76720698Y-133792764D01*
X76640620Y-133846779D01*
X76596404Y-133894229D01*
X76593424Y-133932653D01*
X76608287Y-133947213D01*
X76634460Y-133978380D01*
X76670930Y-134038109D01*
X76687895Y-134070062D01*
X76741813Y-134176425D01*
X76660349Y-134184362D01*
X76582500Y-134211056D01*
X76541556Y-134259130D01*
X76526439Y-134292679D01*
X76518973Y-134332619D01*
X76519429Y-134389148D01*
X76528080Y-134472461D01*
X76545194Y-134592754D01*
X76551538Y-134634436D01*
X76570438Y-134771837D01*
X76580449Y-134877318D01*
X76581100Y-134944343D01*
X76575375Y-134965254D01*
X76547251Y-134962280D01*
X76484436Y-134943379D01*
X76398706Y-134913149D01*
X76301839Y-134876187D01*
X76205613Y-134837089D01*
X76121805Y-134800452D01*
X76062193Y-134770875D01*
X76041017Y-134756682D01*
X76043993Y-134731266D01*
X76057545Y-134671394D01*
X76073057Y-134611365D01*
X76094971Y-134461827D01*
X76091869Y-134277195D01*
X76065098Y-134065799D01*
X76016005Y-133835967D01*
X75945939Y-133596030D01*
X75878665Y-133409940D01*
X75770805Y-133135581D01*
X75820997Y-133079740D01*
X76110087Y-132741178D01*
X76355629Y-132416557D01*
X76561221Y-132100912D01*
X76668825Y-131910143D01*
X76719502Y-131816510D01*
X76760188Y-131744808D01*
X76786015Y-131703396D01*
X76792713Y-131697384D01*
X76780500Y-131733757D01*
X76743156Y-131814270D01*
X76680682Y-131938917D01*
X76593083Y-132107693D01*
X76480361Y-132320591D01*
X76362179Y-132541104D01*
X76285873Y-132684107D01*
X76217179Y-132815198D01*
X76160061Y-132926619D01*
X76118487Y-133010612D01*
X76096423Y-133059416D01*
X76094621Y-133064526D01*
X76063501Y-133132070D01*
X76036959Y-133169950D01*
X76015393Y-133205258D01*
X76027615Y-133214400D01*
X76075526Y-133201434D01*
X76157642Y-133165674D01*
X76265455Y-133111825D01*
X76390458Y-133044592D01*
X76524143Y-132968679D01*
X76658002Y-132888793D01*
X76783527Y-132809639D01*
X76890149Y-132737388D01*
X77050598Y-132623316D01*
X77227623Y-132652551D01*
X77335957Y-132674412D01*
X77468479Y-132706857D01*
X77601348Y-132743923D01*
X77638674Y-132755356D01*
X77751834Y-132788927D01*
X77857279Y-132816718D01*
X77938573Y-132834534D01*
X77963420Y-132838233D01*
X78038288Y-132837037D01*
X78082237Y-132818943D01*
X78087897Y-132789239D01*
X78065732Y-132764821D01*
X78042279Y-132743918D01*
X78061580Y-132743815D01*
X78082250Y-132748725D01*
X78127227Y-132750157D01*
X78139400Y-132721159D01*
X78131378Y-132698357D01*
X78103661Y-132673425D01*
X78050780Y-132643753D01*
X77967260Y-132606731D01*
X77847632Y-132559750D01*
X77686422Y-132500199D01*
X77643645Y-132484724D01*
X77537226Y-132445272D01*
X77451072Y-132411311D01*
X77394836Y-132386784D01*
X77377762Y-132376200D01*
X77395659Y-132355728D01*
X77444966Y-132308269D01*
X77518808Y-132240229D01*
X77610311Y-132158012D01*
X77642865Y-132129168D01*
X77944412Y-131840234D01*
X78223449Y-131527839D01*
X78471819Y-131202120D01*
X78490716Y-131172458D01*
X76988839Y-131172458D01*
X76984867Y-131201912D01*
X76971626Y-131254730D01*
X76946392Y-131331491D01*
X76913857Y-131420334D01*
X76878714Y-131509396D01*
X76845655Y-131586814D01*
X76819372Y-131640727D01*
X76804559Y-131659271D01*
X76804078Y-131658944D01*
X76808317Y-131632908D01*
X76826965Y-131570488D01*
X76856554Y-131482849D01*
X76873525Y-131435378D01*
X76922765Y-131301369D01*
X76957174Y-131211726D01*
X76978494Y-131162796D01*
X76988468Y-131150924D01*
X76988839Y-131172458D01*
X78490716Y-131172458D01*
X78681366Y-130873212D01*
X78741875Y-130763300D01*
X78788746Y-130676487D01*
X78825395Y-130612398D01*
X78846631Y-130579921D01*
X78849859Y-130578488D01*
X78839263Y-130624757D01*
X78807088Y-130710524D01*
X78755748Y-130830514D01*
X78687658Y-130979449D01*
X78605232Y-131152052D01*
X78510884Y-131343045D01*
X78407029Y-131547152D01*
X78403900Y-131553214D01*
X78324100Y-131708907D01*
X78252705Y-131850470D01*
X78192887Y-131971423D01*
X78147822Y-132065286D01*
X78120684Y-132125579D01*
X78114000Y-132145026D01*
X78126758Y-132164912D01*
X78164717Y-132141388D01*
X78227406Y-132074879D01*
X78314354Y-131965811D01*
X78319028Y-131959647D01*
X78405597Y-131853463D01*
X78507154Y-131740824D01*
X78602301Y-131645418D01*
X78605831Y-131642147D01*
X78845119Y-131414224D01*
X79057491Y-131195274D01*
X79259373Y-130967774D01*
X79418215Y-130775491D01*
X79605524Y-130534700D01*
X78876000Y-130534700D01*
X78863300Y-130547400D01*
X78850600Y-130534700D01*
X78863300Y-130522000D01*
X78876000Y-130534700D01*
X79605524Y-130534700D01*
X79644793Y-130484220D01*
X79837133Y-130214355D01*
X80001045Y-129956046D01*
X80142338Y-129699443D01*
X80266822Y-129434697D01*
X80380306Y-129151957D01*
X80387947Y-129131350D01*
X80428122Y-129026187D01*
X80463140Y-128941378D01*
X80488817Y-128886638D01*
X80500051Y-128871000D01*
X80518349Y-128892037D01*
X80551376Y-128947383D01*
X80592218Y-129025386D01*
X80595101Y-129031210D01*
X80673142Y-129164773D01*
X80781945Y-129316742D01*
X80911581Y-129475108D01*
X81052121Y-129627864D01*
X81193637Y-129763004D01*
X81216883Y-129783196D01*
X81372956Y-129907713D01*
X81563204Y-130045229D01*
X81775517Y-130187807D01*
X81997786Y-130327508D01*
X82217901Y-130456394D01*
X82369048Y-130538454D01*
X82691014Y-130706509D01*
X82415457Y-130850124D01*
X82171109Y-130986424D01*
X81928899Y-131138232D01*
X81697847Y-131298928D01*
X81486973Y-131461894D01*
X81305299Y-131620510D01*
X81161846Y-131768155D01*
X81157476Y-131773220D01*
X81102796Y-131838269D01*
X81075787Y-131874977D01*
X81078691Y-131882464D01*
X81113750Y-131859852D01*
X81183207Y-131806260D01*
X81287653Y-131722150D01*
X81373230Y-131655391D01*
X81423052Y-131622503D01*
X81436321Y-131623140D01*
X81412238Y-131656954D01*
X81350002Y-131723598D01*
X81332241Y-131741502D01*
X81271913Y-131805967D01*
X81231973Y-131856808D01*
X81220310Y-131883862D01*
X81220951Y-131884816D01*
X81246463Y-131877427D01*
X81298972Y-131843120D01*
X81367763Y-131789014D01*
X81377281Y-131780950D01*
X81458503Y-131713776D01*
X81503409Y-131682050D01*
X81511982Y-131685772D01*
X81484202Y-131724943D01*
X81438769Y-131778416D01*
X81397646Y-131830342D01*
X81380569Y-131862763D01*
X81384033Y-131868200D01*
X81417488Y-131851130D01*
X81453911Y-131817609D01*
X81542220Y-131737398D01*
X81671665Y-131644023D01*
X81835496Y-131541271D01*
X81908609Y-131499900D01*
X81822400Y-131499900D01*
X81809700Y-131512600D01*
X81797000Y-131499900D01*
X81809700Y-131487200D01*
X81822400Y-131499900D01*
X81908609Y-131499900D01*
X82026961Y-131432931D01*
X82239309Y-131322790D01*
X82465788Y-131214636D01*
X82673904Y-131123526D01*
X82486766Y-131123526D01*
X82451515Y-131146092D01*
X82383319Y-131183986D01*
X82288447Y-131233564D01*
X82279600Y-131238074D01*
X82167678Y-131296046D01*
X82067020Y-131350015D01*
X81989526Y-131393490D01*
X81950099Y-131417804D01*
X81895403Y-131452561D01*
X81874450Y-131459058D01*
X81891087Y-131438344D01*
X81924000Y-131410691D01*
X81980487Y-131373101D01*
X82068184Y-131322256D01*
X82173441Y-131265259D01*
X82282608Y-131209212D01*
X82382033Y-131161219D01*
X82458068Y-131128381D01*
X82482800Y-131119933D01*
X82486766Y-131123526D01*
X82673904Y-131123526D01*
X82699646Y-131112257D01*
X82743150Y-131094264D01*
X82808585Y-131066659D01*
X82652444Y-131066659D01*
X82635200Y-131080800D01*
X82588896Y-131102293D01*
X82571700Y-131105422D01*
X82567157Y-131094940D01*
X82584400Y-131080800D01*
X82630705Y-131059306D01*
X82647900Y-131056177D01*
X82652444Y-131066659D01*
X82808585Y-131066659D01*
X82855643Y-131046807D01*
X82874181Y-131038466D01*
X82728334Y-131038466D01*
X82724847Y-131053566D01*
X82711400Y-131055400D01*
X82690493Y-131046106D01*
X82694467Y-131038466D01*
X82724611Y-131035426D01*
X82728334Y-131038466D01*
X82874181Y-131038466D01*
X82930636Y-131013066D01*
X82804534Y-131013066D01*
X82801047Y-131028166D01*
X82787600Y-131030000D01*
X82766693Y-131020706D01*
X82770667Y-131013066D01*
X82800811Y-131010026D01*
X82804534Y-131013066D01*
X82930636Y-131013066D01*
X82948746Y-131004918D01*
X82975010Y-130991900D01*
X82889200Y-130991900D01*
X82876500Y-131004600D01*
X82863800Y-130991900D01*
X82876500Y-130979200D01*
X82889200Y-130991900D01*
X82975010Y-130991900D01*
X83013563Y-130972792D01*
X83041202Y-130954624D01*
X83041600Y-130953503D01*
X83062031Y-130941100D01*
X82559000Y-130941100D01*
X82546300Y-130953800D01*
X82533600Y-130941100D01*
X82546300Y-130928400D01*
X82559000Y-130941100D01*
X83062031Y-130941100D01*
X83064443Y-130939636D01*
X83124082Y-130921632D01*
X83151050Y-130915700D01*
X82609800Y-130915700D01*
X82597100Y-130928400D01*
X82584400Y-130915700D01*
X82597100Y-130903000D01*
X82609800Y-130915700D01*
X83151050Y-130915700D01*
X83200350Y-130904856D01*
X83291687Y-130886766D01*
X83367925Y-130870360D01*
X83406107Y-130860928D01*
X83437035Y-130842022D01*
X83435744Y-130839500D01*
X82914600Y-130839500D01*
X82901900Y-130852200D01*
X82889200Y-130839500D01*
X82901900Y-130826800D01*
X82914600Y-130839500D01*
X83435744Y-130839500D01*
X83426340Y-130821130D01*
X83382609Y-130803993D01*
X83314427Y-130796351D01*
X83309459Y-130796320D01*
X83251333Y-130794426D01*
X83244945Y-130790317D01*
X82882797Y-130790317D01*
X82846066Y-130814761D01*
X82783091Y-130847227D01*
X82714500Y-130878067D01*
X82660917Y-130897636D01*
X82647900Y-130900171D01*
X82645002Y-130891275D01*
X82667190Y-130875431D01*
X82719763Y-130848208D01*
X82781574Y-130820630D01*
X82838559Y-130798248D01*
X82876655Y-130786615D01*
X82882797Y-130790317D01*
X83244945Y-130790317D01*
X83236895Y-130785140D01*
X83259074Y-130763050D01*
X83262469Y-130760370D01*
X83288929Y-130736785D01*
X83276724Y-130732448D01*
X83232100Y-130741083D01*
X83180627Y-130748697D01*
X83173485Y-130740874D01*
X83199893Y-130725200D01*
X83041600Y-130725200D01*
X83032307Y-130746107D01*
X83024667Y-130742133D01*
X83021627Y-130711989D01*
X83024667Y-130708266D01*
X83039767Y-130711753D01*
X83041600Y-130725200D01*
X83199893Y-130725200D01*
X83207661Y-130720590D01*
X83280138Y-130690817D01*
X83284809Y-130689097D01*
X83336167Y-130666974D01*
X83351424Y-130653009D01*
X83343841Y-130650789D01*
X83292025Y-130657610D01*
X83224210Y-130676529D01*
X83223731Y-130676696D01*
X83160527Y-130692548D01*
X83117123Y-130693177D01*
X83102796Y-130681416D01*
X83126822Y-130660095D01*
X83132223Y-130657466D01*
X82982334Y-130657466D01*
X82978847Y-130672566D01*
X82965400Y-130674400D01*
X82944493Y-130665106D01*
X82948467Y-130657466D01*
X82978611Y-130654426D01*
X82982334Y-130657466D01*
X83132223Y-130657466D01*
X83143200Y-130652123D01*
X83184994Y-130632611D01*
X83181755Y-130626835D01*
X83130678Y-130629884D01*
X83130500Y-130629898D01*
X83073854Y-130625521D01*
X83060651Y-130604272D01*
X83046840Y-130575988D01*
X83032318Y-130572800D01*
X83003560Y-130553204D01*
X82951469Y-130499335D01*
X82881797Y-130418569D01*
X82800294Y-130318283D01*
X82712711Y-130205855D01*
X82624801Y-130088661D01*
X82542314Y-129974078D01*
X82471001Y-129869483D01*
X82418440Y-129785400D01*
X82424312Y-129780308D01*
X82460911Y-129803291D01*
X82520373Y-129849389D01*
X82522068Y-129850781D01*
X82606619Y-129917394D01*
X82711883Y-129996268D01*
X82816397Y-130071353D01*
X82825700Y-130077840D01*
X82913489Y-130140475D01*
X82989317Y-130197479D01*
X83039990Y-130238849D01*
X83047933Y-130246328D01*
X83123695Y-130305590D01*
X83240320Y-130374861D01*
X83389630Y-130450882D01*
X83563453Y-130530396D01*
X83753611Y-130610143D01*
X83951931Y-130686865D01*
X84150237Y-130757304D01*
X84340353Y-130818201D01*
X84514105Y-130866299D01*
X84663317Y-130898338D01*
X84697095Y-130903637D01*
X84786892Y-130917059D01*
X84854081Y-130928399D01*
X84885584Y-130935429D01*
X84886347Y-130935879D01*
X84894797Y-130961336D01*
X84913667Y-131026890D01*
X84940431Y-131123519D01*
X84972565Y-131242196D01*
X84983885Y-131284536D01*
X85029933Y-131470684D01*
X85062120Y-131637736D01*
X85084315Y-131809495D01*
X85099439Y-131995200D01*
X85112208Y-132190608D01*
X85121438Y-132341175D01*
X85127034Y-132452740D01*
X85128903Y-132531143D01*
X85126949Y-132582227D01*
X85121080Y-132611831D01*
X85111200Y-132625797D01*
X85097215Y-132629964D01*
X85089190Y-132630200D01*
X85034028Y-132640035D01*
X84942961Y-132667003D01*
X84826368Y-132707299D01*
X84694628Y-132757118D01*
X84558120Y-132812652D01*
X84427222Y-132870098D01*
X84398108Y-132883599D01*
X84044903Y-133073281D01*
X83730419Y-133293013D01*
X83702000Y-133315877D01*
X83634813Y-133369499D01*
X83581255Y-133410286D01*
X83559236Y-133425453D01*
X83536655Y-133411003D01*
X83503424Y-133350369D01*
X83461157Y-133246659D01*
X83448822Y-133212839D01*
X83394402Y-133076407D01*
X83345274Y-132985369D01*
X83309049Y-132945854D01*
X83243199Y-132917340D01*
X83156262Y-132897655D01*
X83066490Y-132888836D01*
X82992140Y-132892919D01*
X82956408Y-132906522D01*
X82930446Y-132917516D01*
X82913519Y-132890419D01*
X82904580Y-132852857D01*
X82882554Y-132791821D01*
X82839464Y-132706404D01*
X82783941Y-132613440D01*
X82774121Y-132598450D01*
X82660196Y-132427000D01*
X82764358Y-132427000D01*
X82835410Y-132432267D01*
X82936895Y-132446315D01*
X83055259Y-132466509D01*
X83176949Y-132490215D01*
X83288411Y-132514800D01*
X83376093Y-132537630D01*
X83425272Y-132555429D01*
X83455285Y-132591681D01*
X83492658Y-132667302D01*
X83532640Y-132772326D01*
X83541774Y-132799803D01*
X83585641Y-132923750D01*
X83621382Y-133001612D01*
X83647855Y-133032800D01*
X83663915Y-133016726D01*
X83668422Y-132952802D01*
X83662463Y-132861909D01*
X83655818Y-132730696D01*
X83666542Y-132636541D01*
X83677849Y-132601784D01*
X83692968Y-132555637D01*
X83690230Y-132519587D01*
X83663209Y-132488579D01*
X83605474Y-132457562D01*
X83510599Y-132421483D01*
X83402188Y-132385103D01*
X83181300Y-132312700D01*
X82520900Y-132315560D01*
X82272034Y-132318045D01*
X82065443Y-132323964D01*
X81892651Y-132334558D01*
X81745179Y-132351069D01*
X81614551Y-132374737D01*
X81492289Y-132406804D01*
X81369917Y-132448511D01*
X81238956Y-132501099D01*
X81231233Y-132504375D01*
X81092656Y-132568452D01*
X80973474Y-132633437D01*
X80878862Y-132695392D01*
X80813994Y-132750377D01*
X80784044Y-132794454D01*
X80794187Y-132823684D01*
X80805105Y-132828734D01*
X80821005Y-132852644D01*
X80817760Y-132860969D01*
X80820024Y-132880651D01*
X80849844Y-132882165D01*
X80887760Y-132866580D01*
X80900211Y-132856429D01*
X80919017Y-132854570D01*
X80934372Y-132894636D01*
X80946125Y-132964379D01*
X80964657Y-133053161D01*
X80999548Y-133176959D01*
X81046784Y-133324252D01*
X81102353Y-133483519D01*
X81162242Y-133643239D01*
X81222439Y-133791891D01*
X81276509Y-133912900D01*
X81329326Y-134011482D01*
X81387647Y-134101839D01*
X81439212Y-134165054D01*
X81441117Y-134166900D01*
X81520913Y-134243100D01*
X82368500Y-134243100D01*
X82698681Y-134128800D01*
X82830647Y-134082582D01*
X82922217Y-134048189D01*
X82981158Y-134021290D01*
X83015237Y-133997556D01*
X83032222Y-133972660D01*
X83039880Y-133942273D01*
X83040504Y-133938300D01*
X83048536Y-133836700D01*
X82889200Y-133836700D01*
X82875445Y-133894988D01*
X82858720Y-133920520D01*
X82809201Y-133945967D01*
X82774900Y-133951000D01*
X82716612Y-133937244D01*
X82691080Y-133920520D01*
X82665633Y-133871000D01*
X82660600Y-133836700D01*
X82674356Y-133778411D01*
X82691080Y-133752880D01*
X82740600Y-133727432D01*
X82774900Y-133722400D01*
X82833189Y-133736155D01*
X82858720Y-133752880D01*
X82884168Y-133802399D01*
X82889200Y-133836700D01*
X83048536Y-133836700D01*
X83051444Y-133799920D01*
X83049260Y-133632493D01*
X83035207Y-133455692D01*
X83010544Y-133289190D01*
X82994241Y-133214400D01*
X82964608Y-133093218D01*
X82961435Y-133078649D01*
X81613135Y-133078649D01*
X81609202Y-133198839D01*
X81584256Y-133302117D01*
X81539004Y-133374917D01*
X81526842Y-133385169D01*
X81453328Y-133413317D01*
X81357248Y-133418468D01*
X81260506Y-133402177D01*
X81185011Y-133365997D01*
X81178481Y-133360450D01*
X81142339Y-133309695D01*
X81100170Y-133224563D01*
X81057622Y-133120117D01*
X81020346Y-133011420D01*
X80993990Y-132913534D01*
X80984200Y-132842460D01*
X81009493Y-132793241D01*
X81085124Y-132741160D01*
X81210729Y-132686436D01*
X81296943Y-132656593D01*
X81366673Y-132642228D01*
X81422382Y-132654812D01*
X81472623Y-132700480D01*
X81525949Y-132785368D01*
X81555135Y-132841812D01*
X81595348Y-132955118D01*
X81613135Y-133078649D01*
X82961435Y-133078649D01*
X82947724Y-133015716D01*
X82943177Y-132976509D01*
X82950557Y-132970210D01*
X82969455Y-132991435D01*
X82978179Y-133003604D01*
X83028615Y-133049174D01*
X83098785Y-133085267D01*
X83102978Y-133086699D01*
X83140313Y-133101468D01*
X83169608Y-133123169D01*
X83196033Y-133160543D01*
X83224761Y-133222331D01*
X83260966Y-133317275D01*
X83294057Y-133409641D01*
X83358418Y-133594777D01*
X83404631Y-133741493D01*
X83433095Y-133858662D01*
X83444209Y-133955158D01*
X83438371Y-134039855D01*
X83415978Y-134121625D01*
X83377431Y-134209342D01*
X83333700Y-134292566D01*
X83266083Y-134424291D01*
X83228992Y-134516350D01*
X83222631Y-134569838D01*
X83247203Y-134585846D01*
X83302912Y-134565467D01*
X83376009Y-134519583D01*
X83444700Y-134459346D01*
X83516872Y-134376949D01*
X83554955Y-134323656D01*
X83602710Y-134240571D01*
X83629942Y-134163890D01*
X83643521Y-134070533D01*
X83647163Y-134013917D01*
X83648120Y-133907313D01*
X83641641Y-133806852D01*
X83630380Y-133739944D01*
X83617977Y-133680420D01*
X83619096Y-133648122D01*
X83622113Y-133646200D01*
X83650488Y-133634237D01*
X83711835Y-133602175D01*
X83795386Y-133555752D01*
X83842316Y-133528837D01*
X83956418Y-133462721D01*
X84076151Y-133393317D01*
X84179169Y-133333581D01*
X84197300Y-133323063D01*
X84273248Y-133281373D01*
X84383263Y-133224088D01*
X84515451Y-133157255D01*
X84657920Y-133086919D01*
X84740038Y-133047161D01*
X85130376Y-132859671D01*
X85763517Y-132859671D01*
X85791242Y-132849646D01*
X85871194Y-132835285D01*
X85918457Y-132833400D01*
X86073834Y-132857300D01*
X86227056Y-132924472D01*
X86367351Y-133028126D01*
X86483949Y-133161468D01*
X86514445Y-133209211D01*
X86553281Y-133284364D01*
X86573884Y-133355039D01*
X86581105Y-133442806D01*
X86581135Y-133505791D01*
X86795334Y-133505791D01*
X86796893Y-133453243D01*
X86794895Y-133418017D01*
X86767244Y-133254010D01*
X86705540Y-133106381D01*
X86603633Y-132962063D01*
X86554099Y-132906453D01*
X86475586Y-132835195D01*
X86377501Y-132764071D01*
X86273333Y-132701054D01*
X86176573Y-132654115D01*
X86100710Y-132631229D01*
X86086670Y-132630200D01*
X86060012Y-132626326D01*
X86053783Y-132606202D01*
X86067078Y-132557078D01*
X86079021Y-132522590D01*
X86174858Y-132199700D01*
X86248514Y-131841348D01*
X86298317Y-131458548D01*
X86322596Y-131062315D01*
X86324786Y-130903000D01*
X86318158Y-130584763D01*
X86299294Y-130232764D01*
X86269686Y-129862152D01*
X86230823Y-129488073D01*
X86184194Y-129125678D01*
X86131290Y-128790114D01*
X86100924Y-128626847D01*
X86043713Y-128373623D01*
X85968119Y-128093815D01*
X85877596Y-127796903D01*
X85775600Y-127492369D01*
X85665586Y-127189693D01*
X85551009Y-126898357D01*
X85435325Y-126627840D01*
X85321988Y-126387624D01*
X85214455Y-126187191D01*
X85207465Y-126175286D01*
X85126605Y-126050821D01*
X85018264Y-125902094D01*
X84889413Y-125737176D01*
X84747023Y-125564142D01*
X84598063Y-125391065D01*
X84449505Y-125226017D01*
X84308318Y-125077072D01*
X84181473Y-124952303D01*
X84075941Y-124859783D01*
X84062751Y-124849470D01*
X83852179Y-124707439D01*
X83605391Y-124573415D01*
X83336951Y-124453994D01*
X83061424Y-124355777D01*
X82840357Y-124295674D01*
X82681746Y-124267602D01*
X82482526Y-124246046D01*
X82252594Y-124232050D01*
X82228800Y-124231125D01*
X81954370Y-124228208D01*
X81720367Y-124242758D01*
X81518837Y-124276755D01*
X81341826Y-124332178D01*
X81181381Y-124411005D01*
X81029547Y-124515216D01*
X81003560Y-124535973D01*
X80858126Y-124654430D01*
X80841334Y-124587525D01*
X80833892Y-124519547D01*
X80833585Y-124415320D01*
X80839390Y-124288738D01*
X80850285Y-124153693D01*
X80865245Y-124024077D01*
X80883249Y-123913783D01*
X80894567Y-123864564D01*
X80920314Y-123782416D01*
X80962160Y-123663781D01*
X81016090Y-123518822D01*
X81078090Y-123357700D01*
X81144148Y-123190579D01*
X81210248Y-123027619D01*
X81272376Y-122878983D01*
X81326519Y-122754834D01*
X81366794Y-122669044D01*
X81500638Y-122430755D01*
X81647033Y-122222354D01*
X81799075Y-122053489D01*
X81823740Y-122030535D01*
X81894411Y-121963564D01*
X81947395Y-121907607D01*
X81973532Y-121872516D01*
X81974800Y-121868028D01*
X81954571Y-121865902D01*
X81900519Y-121884656D01*
D10*
X77000000Y-104250000D02*
G75*
G03X77000000Y-104250000I-4500000J0D01*
G01*
X62000000Y-104250000D02*
G75*
G03X62000000Y-104250000I-4500000J0D01*
G01*
X62000000Y-120250000D02*
G75*
G03X62000000Y-120250000I-4500000J0D01*
G01*
X107000000Y-120250000D02*
G75*
G03X107000000Y-120250000I-4500000J0D01*
G01*
X92000000Y-120250000D02*
G75*
G03X92000000Y-120250000I-4500000J0D01*
G01*
X77000000Y-120250000D02*
G75*
G03X77000000Y-120250000I-4500000J0D01*
G01*
X77000000Y-88250000D02*
G75*
G03X77000000Y-88250000I-4500000J0D01*
G01*
X92000000Y-88250000D02*
G75*
G03X92000000Y-88250000I-4500000J0D01*
G01*
X92000000Y-104250000D02*
G75*
G03X92000000Y-104250000I-4500000J0D01*
G01*
X107000000Y-104250000D02*
G75*
G03X107000000Y-104250000I-4500000J0D01*
G01*
M02*
