M48
; DRILL file {KiCad (5.1.0)-1} date 05/25/19 14:28:59
; FORMAT={2:4/ absolute / inch / suppress leading zeros}
; #@! TF.CreationDate,2019-05-25T14:28:59-04:00
; #@! TF.GenerationSoftware,Kicad,Pcbnew,(5.1.0)-1
; #@! TF.FileFunction,Plated,1,2,PTH
FMAT,2
INCH,TZ
T1C0.1260
T2C0.2441
T3C0.2756
%
G90
G05
T1
X42480Y-55610
X42480Y-7382
X20512Y-7382
X20512Y-55610
X19685Y-49213
X43307Y-13780
X19685Y-13780
X43307Y-49213
T2
X22638Y-47343
X22638Y-41043
X28543Y-47343
X28543Y-41043
X40354Y-41043
X34449Y-47343
X34449Y-34744
X40354Y-47343
X28543Y-34744
X34449Y-41043
T3
X21654Y-32185
X25591Y-24311
X37402Y-24311
X41339Y-32185
X25591Y-16437
X37402Y-16437
T0
M30
