G04 #@! TF.GenerationSoftware,KiCad,Pcbnew,(5.1.0)-1*
G04 #@! TF.CreationDate,2019-05-28T14:34:34-04:00*
G04 #@! TF.ProjectId,Power Supply_Panel,506f7765-7220-4537-9570-706c795f5061,rev?*
G04 #@! TF.SameCoordinates,Original*
G04 #@! TF.FileFunction,Soldermask,Bot*
G04 #@! TF.FilePolarity,Negative*
%FSLAX46Y46*%
G04 Gerber Fmt 4.6, Leading zero omitted, Abs format (unit mm)*
G04 Created by KiCad (PCBNEW (5.1.0)-1) date 2019-05-28 14:34:34*
%MOMM*%
%LPD*%
G04 APERTURE LIST*
%ADD10C,0.010000*%
%ADD11C,0.100000*%
G04 APERTURE END LIST*
D10*
G36*
X50572924Y-81113308D02*
G01*
X50461978Y-81173180D01*
X50338494Y-81266634D01*
X50208945Y-81388487D01*
X50079805Y-81533558D01*
X50022561Y-81606341D01*
X49954528Y-81699654D01*
X49888610Y-81795755D01*
X49830316Y-81885843D01*
X49785151Y-81961114D01*
X49758621Y-82012767D01*
X49756235Y-82031999D01*
X49756260Y-82032000D01*
X49776544Y-82014408D01*
X49825172Y-81965849D01*
X49895991Y-81892650D01*
X49982851Y-81801135D01*
X50038678Y-81741598D01*
X50160593Y-81616543D01*
X50281802Y-81502180D01*
X50396090Y-81403493D01*
X50497242Y-81325465D01*
X50579044Y-81273079D01*
X50635280Y-81251321D01*
X50648953Y-81252217D01*
X50672935Y-81280535D01*
X50697862Y-81339209D01*
X50702995Y-81356104D01*
X50730017Y-81426907D01*
X50757664Y-81446935D01*
X50786774Y-81416216D01*
X50810240Y-81359391D01*
X50829851Y-81250990D01*
X50810129Y-81166562D01*
X50754143Y-81111751D01*
X50664964Y-81092200D01*
X50664858Y-81092200D01*
X50572924Y-81113308D01*
X50572924Y-81113308D01*
G37*
X50572924Y-81113308D02*
X50461978Y-81173180D01*
X50338494Y-81266634D01*
X50208945Y-81388487D01*
X50079805Y-81533558D01*
X50022561Y-81606341D01*
X49954528Y-81699654D01*
X49888610Y-81795755D01*
X49830316Y-81885843D01*
X49785151Y-81961114D01*
X49758621Y-82012767D01*
X49756235Y-82031999D01*
X49756260Y-82032000D01*
X49776544Y-82014408D01*
X49825172Y-81965849D01*
X49895991Y-81892650D01*
X49982851Y-81801135D01*
X50038678Y-81741598D01*
X50160593Y-81616543D01*
X50281802Y-81502180D01*
X50396090Y-81403493D01*
X50497242Y-81325465D01*
X50579044Y-81273079D01*
X50635280Y-81251321D01*
X50648953Y-81252217D01*
X50672935Y-81280535D01*
X50697862Y-81339209D01*
X50702995Y-81356104D01*
X50730017Y-81426907D01*
X50757664Y-81446935D01*
X50786774Y-81416216D01*
X50810240Y-81359391D01*
X50829851Y-81250990D01*
X50810129Y-81166562D01*
X50754143Y-81111751D01*
X50664964Y-81092200D01*
X50664858Y-81092200D01*
X50572924Y-81113308D01*
G36*
X46711292Y-79547713D02*
G01*
X46600342Y-79576644D01*
X46474565Y-79618210D01*
X46341533Y-79669726D01*
X46208815Y-79728508D01*
X46083980Y-79791872D01*
X45974599Y-79857136D01*
X45901700Y-79910225D01*
X45855335Y-79952348D01*
X45850795Y-79967771D01*
X45886849Y-79956755D01*
X45962269Y-79919562D01*
X46028700Y-79883223D01*
X46134747Y-79828505D01*
X46261475Y-79770383D01*
X46397399Y-79713330D01*
X46531032Y-79661820D01*
X46650889Y-79620325D01*
X46745484Y-79593320D01*
X46793877Y-79585215D01*
X46851356Y-79577789D01*
X46879044Y-79565325D01*
X46879487Y-79563561D01*
X46858434Y-79538487D01*
X46799846Y-79534099D01*
X46711292Y-79547713D01*
X46711292Y-79547713D01*
G37*
X46711292Y-79547713D02*
X46600342Y-79576644D01*
X46474565Y-79618210D01*
X46341533Y-79669726D01*
X46208815Y-79728508D01*
X46083980Y-79791872D01*
X45974599Y-79857136D01*
X45901700Y-79910225D01*
X45855335Y-79952348D01*
X45850795Y-79967771D01*
X45886849Y-79956755D01*
X45962269Y-79919562D01*
X46028700Y-79883223D01*
X46134747Y-79828505D01*
X46261475Y-79770383D01*
X46397399Y-79713330D01*
X46531032Y-79661820D01*
X46650889Y-79620325D01*
X46745484Y-79593320D01*
X46793877Y-79585215D01*
X46851356Y-79577789D01*
X46879044Y-79565325D01*
X46879487Y-79563561D01*
X46858434Y-79538487D01*
X46799846Y-79534099D01*
X46711292Y-79547713D01*
G36*
X42368663Y-80838762D02*
G01*
X42226219Y-80843274D01*
X42098066Y-80850470D01*
X42002800Y-80859355D01*
X41963359Y-80865984D01*
X41966783Y-80871251D01*
X42014711Y-80875239D01*
X42108779Y-80878033D01*
X42250624Y-80879718D01*
X42408006Y-80880338D01*
X42609973Y-80879735D01*
X42761532Y-80877200D01*
X42863040Y-80872716D01*
X42914852Y-80866268D01*
X42917325Y-80857840D01*
X42916006Y-80857306D01*
X42864639Y-80848036D01*
X42773385Y-80841570D01*
X42653081Y-80837885D01*
X42514562Y-80836957D01*
X42368663Y-80838762D01*
X42368663Y-80838762D01*
G37*
X42368663Y-80838762D02*
X42226219Y-80843274D01*
X42098066Y-80850470D01*
X42002800Y-80859355D01*
X41963359Y-80865984D01*
X41966783Y-80871251D01*
X42014711Y-80875239D01*
X42108779Y-80878033D01*
X42250624Y-80879718D01*
X42408006Y-80880338D01*
X42609973Y-80879735D01*
X42761532Y-80877200D01*
X42863040Y-80872716D01*
X42914852Y-80866268D01*
X42917325Y-80857840D01*
X42916006Y-80857306D01*
X42864639Y-80848036D01*
X42773385Y-80841570D01*
X42653081Y-80837885D01*
X42514562Y-80836957D01*
X42368663Y-80838762D01*
G36*
X45065902Y-81066109D02*
G01*
X44949200Y-81101036D01*
X44784100Y-81156239D01*
X44790435Y-81454419D01*
X44791390Y-81570578D01*
X44789289Y-81665444D01*
X44784553Y-81729137D01*
X44777735Y-81751792D01*
X44744821Y-81737322D01*
X44707900Y-81712559D01*
X44648767Y-81688804D01*
X44564135Y-81690880D01*
X44448911Y-81719693D01*
X44298000Y-81776148D01*
X44260008Y-81792151D01*
X44063215Y-81876383D01*
X44020126Y-81744641D01*
X43956465Y-81574782D01*
X43889898Y-81451042D01*
X43816225Y-81368754D01*
X43731247Y-81323255D01*
X43630764Y-81309878D01*
X43628800Y-81309902D01*
X43525387Y-81321773D01*
X43446884Y-81349797D01*
X43397568Y-81387648D01*
X43381716Y-81429002D01*
X43403604Y-81467531D01*
X43467508Y-81496909D01*
X43497979Y-81503422D01*
X43573162Y-81520700D01*
X43628787Y-81541327D01*
X43639534Y-81548099D01*
X43684232Y-81603254D01*
X43735536Y-81694806D01*
X43787417Y-81809950D01*
X43833848Y-81935880D01*
X43855175Y-82006172D01*
X43896380Y-82191586D01*
X43906776Y-82348490D01*
X43885913Y-82489099D01*
X43833342Y-82625634D01*
X43832293Y-82627746D01*
X43792794Y-82708877D01*
X43774368Y-82757936D01*
X43775320Y-82788262D01*
X43793954Y-82813194D01*
X43807133Y-82825719D01*
X43843491Y-82854401D01*
X43877822Y-82857988D01*
X43931513Y-82837166D01*
X43946340Y-82830189D01*
X44024302Y-82780579D01*
X44095845Y-82715851D01*
X44101892Y-82708899D01*
X44134395Y-82667055D01*
X44152927Y-82627846D01*
X44159961Y-82577022D01*
X44157974Y-82500335D01*
X44152204Y-82419255D01*
X44144008Y-82318529D01*
X44136484Y-82236322D01*
X44130939Y-82186616D01*
X44129858Y-82180141D01*
X44150014Y-82163051D01*
X44207774Y-82138827D01*
X44291064Y-82110954D01*
X44387810Y-82082918D01*
X44485938Y-82058203D01*
X44573375Y-82040295D01*
X44638046Y-82032679D01*
X44640877Y-82032626D01*
X44679950Y-82037233D01*
X44691939Y-82061955D01*
X44684275Y-82120374D01*
X44673509Y-82188131D01*
X44660088Y-82287109D01*
X44646601Y-82398002D01*
X44644245Y-82418824D01*
X44630337Y-82524893D01*
X44609193Y-82663709D01*
X44583550Y-82818205D01*
X44556145Y-82971317D01*
X44552702Y-82989667D01*
X44526334Y-83131502D01*
X44509259Y-83232532D01*
X44500946Y-83301796D01*
X44500868Y-83348331D01*
X44508494Y-83381175D01*
X44523297Y-83409365D01*
X44527733Y-83416251D01*
X44574199Y-83464117D01*
X44640085Y-83505464D01*
X44712879Y-83536114D01*
X44780068Y-83551889D01*
X44829142Y-83548613D01*
X44847600Y-83523054D01*
X44829482Y-83484937D01*
X44783246Y-83431155D01*
X44748758Y-83399152D01*
X44649915Y-83314546D01*
X44700727Y-83035223D01*
X44738625Y-82745484D01*
X44754746Y-82411932D01*
X44755119Y-82381337D01*
X44757428Y-82249934D01*
X44761388Y-82138666D01*
X44766527Y-82056392D01*
X44772369Y-82011971D01*
X44775173Y-82006687D01*
X44785435Y-82029869D01*
X44797304Y-82091133D01*
X44808421Y-82177915D01*
X44809721Y-82190750D01*
X44833257Y-82351479D01*
X44871224Y-82468184D01*
X44929063Y-82546838D01*
X45012209Y-82593414D01*
X45126104Y-82613886D01*
X45197084Y-82616200D01*
X45312363Y-82607596D01*
X45390058Y-82583280D01*
X45425993Y-82545495D01*
X45417009Y-82498110D01*
X45373103Y-82459645D01*
X45315409Y-82435759D01*
X45233672Y-82416714D01*
X45172064Y-82402606D01*
X45126489Y-82378567D01*
X45090837Y-82326518D01*
X45064171Y-82242041D01*
X45045553Y-82120720D01*
X45034046Y-81958136D01*
X45028710Y-81749873D01*
X45028479Y-81726291D01*
X45025089Y-81331682D01*
X45139545Y-81219352D01*
X45199421Y-81155708D01*
X45240849Y-81102343D01*
X45254000Y-81074211D01*
X45231930Y-81048954D01*
X45168060Y-81046356D01*
X45065902Y-81066109D01*
X45065902Y-81066109D01*
G37*
X45065902Y-81066109D02*
X44949200Y-81101036D01*
X44784100Y-81156239D01*
X44790435Y-81454419D01*
X44791390Y-81570578D01*
X44789289Y-81665444D01*
X44784553Y-81729137D01*
X44777735Y-81751792D01*
X44744821Y-81737322D01*
X44707900Y-81712559D01*
X44648767Y-81688804D01*
X44564135Y-81690880D01*
X44448911Y-81719693D01*
X44298000Y-81776148D01*
X44260008Y-81792151D01*
X44063215Y-81876383D01*
X44020126Y-81744641D01*
X43956465Y-81574782D01*
X43889898Y-81451042D01*
X43816225Y-81368754D01*
X43731247Y-81323255D01*
X43630764Y-81309878D01*
X43628800Y-81309902D01*
X43525387Y-81321773D01*
X43446884Y-81349797D01*
X43397568Y-81387648D01*
X43381716Y-81429002D01*
X43403604Y-81467531D01*
X43467508Y-81496909D01*
X43497979Y-81503422D01*
X43573162Y-81520700D01*
X43628787Y-81541327D01*
X43639534Y-81548099D01*
X43684232Y-81603254D01*
X43735536Y-81694806D01*
X43787417Y-81809950D01*
X43833848Y-81935880D01*
X43855175Y-82006172D01*
X43896380Y-82191586D01*
X43906776Y-82348490D01*
X43885913Y-82489099D01*
X43833342Y-82625634D01*
X43832293Y-82627746D01*
X43792794Y-82708877D01*
X43774368Y-82757936D01*
X43775320Y-82788262D01*
X43793954Y-82813194D01*
X43807133Y-82825719D01*
X43843491Y-82854401D01*
X43877822Y-82857988D01*
X43931513Y-82837166D01*
X43946340Y-82830189D01*
X44024302Y-82780579D01*
X44095845Y-82715851D01*
X44101892Y-82708899D01*
X44134395Y-82667055D01*
X44152927Y-82627846D01*
X44159961Y-82577022D01*
X44157974Y-82500335D01*
X44152204Y-82419255D01*
X44144008Y-82318529D01*
X44136484Y-82236322D01*
X44130939Y-82186616D01*
X44129858Y-82180141D01*
X44150014Y-82163051D01*
X44207774Y-82138827D01*
X44291064Y-82110954D01*
X44387810Y-82082918D01*
X44485938Y-82058203D01*
X44573375Y-82040295D01*
X44638046Y-82032679D01*
X44640877Y-82032626D01*
X44679950Y-82037233D01*
X44691939Y-82061955D01*
X44684275Y-82120374D01*
X44673509Y-82188131D01*
X44660088Y-82287109D01*
X44646601Y-82398002D01*
X44644245Y-82418824D01*
X44630337Y-82524893D01*
X44609193Y-82663709D01*
X44583550Y-82818205D01*
X44556145Y-82971317D01*
X44552702Y-82989667D01*
X44526334Y-83131502D01*
X44509259Y-83232532D01*
X44500946Y-83301796D01*
X44500868Y-83348331D01*
X44508494Y-83381175D01*
X44523297Y-83409365D01*
X44527733Y-83416251D01*
X44574199Y-83464117D01*
X44640085Y-83505464D01*
X44712879Y-83536114D01*
X44780068Y-83551889D01*
X44829142Y-83548613D01*
X44847600Y-83523054D01*
X44829482Y-83484937D01*
X44783246Y-83431155D01*
X44748758Y-83399152D01*
X44649915Y-83314546D01*
X44700727Y-83035223D01*
X44738625Y-82745484D01*
X44754746Y-82411932D01*
X44755119Y-82381337D01*
X44757428Y-82249934D01*
X44761388Y-82138666D01*
X44766527Y-82056392D01*
X44772369Y-82011971D01*
X44775173Y-82006687D01*
X44785435Y-82029869D01*
X44797304Y-82091133D01*
X44808421Y-82177915D01*
X44809721Y-82190750D01*
X44833257Y-82351479D01*
X44871224Y-82468184D01*
X44929063Y-82546838D01*
X45012209Y-82593414D01*
X45126104Y-82613886D01*
X45197084Y-82616200D01*
X45312363Y-82607596D01*
X45390058Y-82583280D01*
X45425993Y-82545495D01*
X45417009Y-82498110D01*
X45373103Y-82459645D01*
X45315409Y-82435759D01*
X45233672Y-82416714D01*
X45172064Y-82402606D01*
X45126489Y-82378567D01*
X45090837Y-82326518D01*
X45064171Y-82242041D01*
X45045553Y-82120720D01*
X45034046Y-81958136D01*
X45028710Y-81749873D01*
X45028479Y-81726291D01*
X45025089Y-81331682D01*
X45139545Y-81219352D01*
X45199421Y-81155708D01*
X45240849Y-81102343D01*
X45254000Y-81074211D01*
X45231930Y-81048954D01*
X45168060Y-81046356D01*
X45065902Y-81066109D01*
G36*
X46097905Y-84298899D02*
G01*
X46039335Y-84335919D01*
X45986529Y-84371564D01*
X45899668Y-84427775D01*
X45820172Y-84470585D01*
X45739081Y-84501805D01*
X45647438Y-84523246D01*
X45536281Y-84536720D01*
X45396654Y-84544038D01*
X45219596Y-84547011D01*
X45116614Y-84547431D01*
X44849403Y-84550381D01*
X44631937Y-84558321D01*
X44463390Y-84571389D01*
X44342941Y-84589723D01*
X44269764Y-84613459D01*
X44243036Y-84642735D01*
X44261934Y-84677689D01*
X44274605Y-84688009D01*
X44315320Y-84699320D01*
X44398622Y-84708602D01*
X44516339Y-84715850D01*
X44660298Y-84721057D01*
X44822328Y-84724219D01*
X44994256Y-84725330D01*
X45167910Y-84724384D01*
X45335117Y-84721375D01*
X45487705Y-84716299D01*
X45617502Y-84709149D01*
X45716334Y-84699920D01*
X45774700Y-84689035D01*
X45855030Y-84660617D01*
X45923958Y-84631168D01*
X45934248Y-84625914D01*
X45993647Y-84578481D01*
X46055388Y-84505830D01*
X46107736Y-84424819D01*
X46138960Y-84352308D01*
X46143000Y-84325942D01*
X46140927Y-84296480D01*
X46128832Y-84286609D01*
X46097905Y-84298899D01*
X46097905Y-84298899D01*
G37*
X46097905Y-84298899D02*
X46039335Y-84335919D01*
X45986529Y-84371564D01*
X45899668Y-84427775D01*
X45820172Y-84470585D01*
X45739081Y-84501805D01*
X45647438Y-84523246D01*
X45536281Y-84536720D01*
X45396654Y-84544038D01*
X45219596Y-84547011D01*
X45116614Y-84547431D01*
X44849403Y-84550381D01*
X44631937Y-84558321D01*
X44463390Y-84571389D01*
X44342941Y-84589723D01*
X44269764Y-84613459D01*
X44243036Y-84642735D01*
X44261934Y-84677689D01*
X44274605Y-84688009D01*
X44315320Y-84699320D01*
X44398622Y-84708602D01*
X44516339Y-84715850D01*
X44660298Y-84721057D01*
X44822328Y-84724219D01*
X44994256Y-84725330D01*
X45167910Y-84724384D01*
X45335117Y-84721375D01*
X45487705Y-84716299D01*
X45617502Y-84709149D01*
X45716334Y-84699920D01*
X45774700Y-84689035D01*
X45855030Y-84660617D01*
X45923958Y-84631168D01*
X45934248Y-84625914D01*
X45993647Y-84578481D01*
X46055388Y-84505830D01*
X46107736Y-84424819D01*
X46138960Y-84352308D01*
X46143000Y-84325942D01*
X46140927Y-84296480D01*
X46128832Y-84286609D01*
X46097905Y-84298899D01*
G36*
X45201231Y-85118025D02*
G01*
X45184650Y-85120305D01*
X45065495Y-85140672D01*
X44990102Y-85160201D01*
X44951521Y-85181022D01*
X44943334Y-85194300D01*
X44959293Y-85213675D01*
X45010102Y-85223549D01*
X45080697Y-85223875D01*
X45156016Y-85214607D01*
X45220997Y-85195700D01*
X45222250Y-85195151D01*
X45287890Y-85158339D01*
X45304957Y-85130607D01*
X45275416Y-85115866D01*
X45201231Y-85118025D01*
X45201231Y-85118025D01*
G37*
X45201231Y-85118025D02*
X45184650Y-85120305D01*
X45065495Y-85140672D01*
X44990102Y-85160201D01*
X44951521Y-85181022D01*
X44943334Y-85194300D01*
X44959293Y-85213675D01*
X45010102Y-85223549D01*
X45080697Y-85223875D01*
X45156016Y-85214607D01*
X45220997Y-85195700D01*
X45222250Y-85195151D01*
X45287890Y-85158339D01*
X45304957Y-85130607D01*
X45275416Y-85115866D01*
X45201231Y-85118025D01*
G36*
X46500519Y-69584656D02*
G01*
X46422594Y-69619399D01*
X46330748Y-69665236D01*
X46234932Y-69717274D01*
X46145099Y-69770618D01*
X46092200Y-69805354D01*
X45985985Y-69890377D01*
X45862170Y-70007717D01*
X45730419Y-70146829D01*
X45600398Y-70297168D01*
X45481771Y-70448187D01*
X45409893Y-70549846D01*
X45261287Y-70787082D01*
X45130679Y-71029806D01*
X45009191Y-71295348D01*
X44936987Y-71472819D01*
X44893733Y-71578619D01*
X44856166Y-71661826D01*
X44828306Y-71714116D01*
X44814176Y-71727164D01*
X44814158Y-71727135D01*
X44777377Y-71696350D01*
X44703358Y-71654180D01*
X44603023Y-71605411D01*
X44487290Y-71554829D01*
X44367080Y-71507221D01*
X44253312Y-71467372D01*
X44161800Y-71441218D01*
X43951550Y-71406849D01*
X43704838Y-71393164D01*
X43431184Y-71399254D01*
X43140111Y-71424211D01*
X42841137Y-71467127D01*
X42543786Y-71527093D01*
X42257576Y-71603200D01*
X42167900Y-71631471D01*
X42020022Y-71686655D01*
X41840906Y-71763935D01*
X41641836Y-71857610D01*
X41434097Y-71961983D01*
X41228973Y-72071355D01*
X41037750Y-72180028D01*
X40871711Y-72282303D01*
X40847100Y-72298444D01*
X40556498Y-72503947D01*
X40299394Y-72715046D01*
X40071085Y-72938000D01*
X39866863Y-73179071D01*
X39682024Y-73444518D01*
X39511863Y-73740600D01*
X39351673Y-74073579D01*
X39196750Y-74449713D01*
X39162792Y-74539182D01*
X38988145Y-75051899D01*
X38848610Y-75566661D01*
X38742019Y-76094025D01*
X38666203Y-76644548D01*
X38622380Y-77170338D01*
X38604729Y-77666864D01*
X38614757Y-78135699D01*
X38653665Y-78592504D01*
X38722649Y-79052937D01*
X38793300Y-79403100D01*
X38863931Y-79709984D01*
X38931650Y-79976680D01*
X38999996Y-80213386D01*
X39072508Y-80430304D01*
X39152727Y-80637631D01*
X39244191Y-80845569D01*
X39350440Y-81064317D01*
X39410302Y-81181100D01*
X39574372Y-81489011D01*
X39722649Y-81751289D01*
X39854868Y-81967529D01*
X39970765Y-82137326D01*
X40070075Y-82260278D01*
X40152533Y-82335980D01*
X40177551Y-82351336D01*
X40229001Y-82386185D01*
X40231944Y-82413736D01*
X40185563Y-82435512D01*
X40125729Y-82447749D01*
X40010008Y-82489024D01*
X39910474Y-82566336D01*
X39844038Y-82666426D01*
X39820867Y-82776407D01*
X39826342Y-82913334D01*
X39858724Y-83063445D01*
X39912005Y-83203982D01*
X39986975Y-83334617D01*
X40098418Y-83481981D01*
X40211298Y-83609935D01*
X40312785Y-83723484D01*
X40416867Y-83846782D01*
X40509981Y-83963412D01*
X40567916Y-84041535D01*
X40642613Y-84140356D01*
X40739910Y-84258473D01*
X40846092Y-84379661D01*
X40929226Y-84468964D01*
X41023667Y-84565853D01*
X41091545Y-84631247D01*
X41140832Y-84670902D01*
X41179503Y-84690577D01*
X41215530Y-84696028D01*
X41241757Y-84694628D01*
X41287117Y-84692648D01*
X41319406Y-84703393D01*
X41348141Y-84736084D01*
X41382844Y-84799944D01*
X41411415Y-84858993D01*
X41479110Y-84988528D01*
X41553703Y-85111398D01*
X41629957Y-85221033D01*
X41702633Y-85310866D01*
X41766493Y-85374327D01*
X41816298Y-85404848D01*
X41843216Y-85400451D01*
X41873672Y-85399664D01*
X41904741Y-85412094D01*
X41947937Y-85456647D01*
X42001014Y-85547906D01*
X42062703Y-85683017D01*
X42131736Y-85859126D01*
X42206845Y-86073379D01*
X42230621Y-86145427D01*
X42274708Y-86275023D01*
X42316595Y-86387746D01*
X42352631Y-86474504D01*
X42379161Y-86526202D01*
X42387510Y-86535936D01*
X42423389Y-86539184D01*
X42486872Y-86517273D01*
X42583574Y-86468040D01*
X42626597Y-86443786D01*
X42730406Y-86387492D01*
X42830983Y-86338488D01*
X42911162Y-86304973D01*
X42930625Y-86298592D01*
X43032950Y-86269129D01*
X43311625Y-86464021D01*
X43419164Y-86539895D01*
X43514749Y-86608566D01*
X43588960Y-86663179D01*
X43632376Y-86696881D01*
X43635943Y-86699972D01*
X43663954Y-86730174D01*
X43655782Y-86751317D01*
X43610543Y-86776844D01*
X43557534Y-86812910D01*
X43485555Y-86873750D01*
X43409762Y-86946509D01*
X43406362Y-86950004D01*
X43291934Y-87054563D01*
X43153041Y-87161277D01*
X43007152Y-87257957D01*
X42871739Y-87332413D01*
X42834138Y-87349276D01*
X42759798Y-87375425D01*
X42643619Y-87410195D01*
X42493456Y-87451673D01*
X42317163Y-87497942D01*
X42122597Y-87547087D01*
X41917613Y-87597191D01*
X41710067Y-87646338D01*
X41507812Y-87692614D01*
X41318706Y-87734102D01*
X41150603Y-87768886D01*
X41011358Y-87795050D01*
X40994518Y-87797933D01*
X40789740Y-87835054D01*
X40630115Y-87870470D01*
X40510127Y-87906163D01*
X40424265Y-87944114D01*
X40367014Y-87986305D01*
X40332861Y-88034719D01*
X40332287Y-88035956D01*
X40306096Y-88077092D01*
X40254694Y-88146001D01*
X40186194Y-88232111D01*
X40128354Y-88301768D01*
X39997037Y-88472455D01*
X39855384Y-88684224D01*
X39707358Y-88929408D01*
X39556922Y-89200343D01*
X39408039Y-89489365D01*
X39264672Y-89788807D01*
X39130786Y-90091006D01*
X39010343Y-90388296D01*
X38917017Y-90644441D01*
X38804546Y-90972800D01*
X44391368Y-90972800D01*
X44378300Y-90915650D01*
X44338902Y-90733954D01*
X44295194Y-90516437D01*
X44249404Y-90275618D01*
X44203761Y-90024016D01*
X44160493Y-89774153D01*
X44121830Y-89538548D01*
X44090000Y-89329721D01*
X44070482Y-89186603D01*
X44049512Y-89016543D01*
X44034120Y-88878367D01*
X44023869Y-88759769D01*
X44018320Y-88648442D01*
X44017034Y-88532081D01*
X44019573Y-88398380D01*
X44025500Y-88235032D01*
X44031556Y-88093578D01*
X44039278Y-87927288D01*
X44046965Y-87778691D01*
X44054177Y-87655062D01*
X44060472Y-87563673D01*
X44065410Y-87511799D01*
X44067374Y-87502759D01*
X44085144Y-87516562D01*
X44120419Y-87562930D01*
X44153774Y-87613380D01*
X44217124Y-87703675D01*
X44303693Y-87813122D01*
X44403888Y-87930957D01*
X44508112Y-88046415D01*
X44606772Y-88148731D01*
X44690273Y-88227141D01*
X44727485Y-88257067D01*
X44848363Y-88326362D01*
X44984661Y-88375695D01*
X45117631Y-88399588D01*
X45206726Y-88397082D01*
X45283101Y-88377177D01*
X45380384Y-88341675D01*
X45458082Y-88307357D01*
X45552572Y-88256652D01*
X45677141Y-88182701D01*
X45821048Y-88092497D01*
X45973549Y-87993034D01*
X46123904Y-87891302D01*
X46261371Y-87794295D01*
X46364705Y-87717186D01*
X46439906Y-87659675D01*
X46498054Y-87616631D01*
X46528960Y-87595556D01*
X46531234Y-87594600D01*
X46530989Y-87618386D01*
X46523023Y-87684869D01*
X46508523Y-87786731D01*
X46488674Y-87916654D01*
X46464663Y-88067322D01*
X46437677Y-88231417D01*
X46408901Y-88401623D01*
X46379522Y-88570621D01*
X46350727Y-88731096D01*
X46323701Y-88875730D01*
X46322582Y-88881559D01*
X46264279Y-89167529D01*
X46196631Y-89470144D01*
X46123090Y-89775468D01*
X46047106Y-90069566D01*
X45972134Y-90338504D01*
X45915018Y-90526758D01*
X45876904Y-90652050D01*
X45846175Y-90763517D01*
X45825552Y-90850476D01*
X45817752Y-90902246D01*
X45818014Y-90907758D01*
X45825500Y-90960100D01*
X49298950Y-90966540D01*
X49714628Y-90967200D01*
X50116109Y-90967621D01*
X50500485Y-90967810D01*
X50864849Y-90967776D01*
X51206292Y-90967525D01*
X51521906Y-90967065D01*
X51808784Y-90966403D01*
X52064017Y-90965548D01*
X52284698Y-90964506D01*
X52467919Y-90963286D01*
X52610771Y-90961894D01*
X52710347Y-90960338D01*
X52763739Y-90958626D01*
X52772400Y-90957551D01*
X52758798Y-90931986D01*
X52721594Y-90873028D01*
X52666188Y-90788987D01*
X52597985Y-90688174D01*
X52585060Y-90669317D01*
X52496109Y-90536867D01*
X52401112Y-90390633D01*
X52312801Y-90250444D01*
X52256490Y-90157606D01*
X52134507Y-89957825D01*
X52017725Y-89779164D01*
X51910246Y-89627354D01*
X51816175Y-89508127D01*
X51739617Y-89427212D01*
X51723706Y-89413650D01*
X51659693Y-89369179D01*
X51594669Y-89343652D01*
X51508351Y-89330466D01*
X51457006Y-89326789D01*
X51347779Y-89315418D01*
X51279410Y-89295206D01*
X51248400Y-89271798D01*
X51217195Y-89234779D01*
X51161596Y-89168668D01*
X51089860Y-89083288D01*
X51020981Y-89001252D01*
X50922512Y-88884884D01*
X50813852Y-88757974D01*
X50711672Y-88639934D01*
X50663722Y-88585200D01*
X50589394Y-88498408D01*
X50493890Y-88383234D01*
X50386946Y-88251614D01*
X50278294Y-88115479D01*
X50218287Y-88039100D01*
X49952427Y-87712759D01*
X49700736Y-87433600D01*
X49461891Y-87200426D01*
X49234570Y-87012038D01*
X49017451Y-86867238D01*
X48882612Y-86800644D01*
X46795341Y-86800644D01*
X46794690Y-86802775D01*
X46780192Y-86843742D01*
X46752158Y-86919718D01*
X46715205Y-87018266D01*
X46689325Y-87086600D01*
X46649675Y-87191261D01*
X46616510Y-87279482D01*
X46594213Y-87339568D01*
X46587608Y-87358044D01*
X46562083Y-87384893D01*
X46499654Y-87433410D01*
X46407064Y-87499271D01*
X46291057Y-87578152D01*
X46158376Y-87665727D01*
X46015763Y-87757674D01*
X45869962Y-87849667D01*
X45727716Y-87937384D01*
X45595768Y-88016499D01*
X45480861Y-88082688D01*
X45389738Y-88131628D01*
X45355600Y-88148097D01*
X45231160Y-88186491D01*
X45092798Y-88200988D01*
X44962087Y-88190579D01*
X44891235Y-88169888D01*
X44831326Y-88131699D01*
X44748515Y-88061138D01*
X44650474Y-87966401D01*
X44544874Y-87855685D01*
X44439386Y-87737188D01*
X44341680Y-87619107D01*
X44259428Y-87509640D01*
X44224207Y-87457102D01*
X44163738Y-87358092D01*
X44127428Y-87286208D01*
X44109956Y-87227203D01*
X44106001Y-87166831D01*
X44106824Y-87142775D01*
X44115852Y-87023625D01*
X44131941Y-86943090D01*
X44159767Y-86889040D01*
X44204002Y-86849346D01*
X44224992Y-86836147D01*
X44310213Y-86785866D01*
X44379551Y-86949013D01*
X44434961Y-87065812D01*
X44482078Y-87136720D01*
X44519789Y-87160285D01*
X44535695Y-87152972D01*
X44543286Y-87115845D01*
X44538496Y-87039928D01*
X44523207Y-86935186D01*
X44499302Y-86811585D01*
X44468665Y-86679092D01*
X44433178Y-86547670D01*
X44403281Y-86452135D01*
X44368334Y-86344920D01*
X44341797Y-86256791D01*
X44326599Y-86197943D01*
X44324710Y-86178624D01*
X44340981Y-86175983D01*
X44379140Y-86183291D01*
X44444425Y-86202175D01*
X44542073Y-86234265D01*
X44677320Y-86281188D01*
X44834900Y-86337225D01*
X45165100Y-86455468D01*
X45495300Y-86443563D01*
X45723774Y-86427290D01*
X45918274Y-86394184D01*
X46093847Y-86340728D01*
X46265137Y-86263615D01*
X46317905Y-86239261D01*
X46345174Y-86232408D01*
X46346200Y-86233797D01*
X46341301Y-86263453D01*
X46328735Y-86326434D01*
X46318126Y-86376806D01*
X46305164Y-86470572D01*
X46301980Y-86573620D01*
X46307429Y-86673623D01*
X46320369Y-86758255D01*
X46339653Y-86815188D01*
X46360438Y-86832600D01*
X46392764Y-86810969D01*
X46411687Y-86770229D01*
X46433494Y-86725048D01*
X46477666Y-86716269D01*
X46494721Y-86718439D01*
X46561349Y-86728128D01*
X46649689Y-86740054D01*
X46685210Y-86744635D01*
X46759400Y-86757371D01*
X46792783Y-86774274D01*
X46795341Y-86800644D01*
X48882612Y-86800644D01*
X48813941Y-86766729D01*
X48672445Y-86723691D01*
X48494496Y-86691068D01*
X48293522Y-86669652D01*
X48082949Y-86660232D01*
X47876204Y-86663598D01*
X47686713Y-86680541D01*
X47598382Y-86695193D01*
X47542149Y-86701189D01*
X47509444Y-86681692D01*
X47481069Y-86625971D01*
X47445007Y-86540500D01*
X47600454Y-86397884D01*
X47686294Y-86313329D01*
X47786627Y-86205733D01*
X47885375Y-86092627D01*
X47929314Y-86039258D01*
X48020140Y-85930777D01*
X48102684Y-85840828D01*
X48171733Y-85774263D01*
X48222074Y-85735938D01*
X48248492Y-85730706D01*
X48251200Y-85739566D01*
X48269489Y-85782654D01*
X48317520Y-85840367D01*
X48385042Y-85904548D01*
X48461807Y-85967041D01*
X48537562Y-86019690D01*
X48602057Y-86054337D01*
X48645042Y-86062825D01*
X48652431Y-86058835D01*
X48658629Y-86030414D01*
X48666801Y-85961920D01*
X48675831Y-85863987D01*
X48683696Y-85760561D01*
X48699290Y-85614375D01*
X48727084Y-85433133D01*
X48764369Y-85230342D01*
X48808437Y-85019509D01*
X48856580Y-84814142D01*
X48906089Y-84627747D01*
X48921086Y-84576609D01*
X48949535Y-84503954D01*
X48997405Y-84403743D01*
X49057038Y-84291399D01*
X49098565Y-84219038D01*
X49166935Y-84097895D01*
X49233449Y-83969851D01*
X49288149Y-83854501D01*
X49309353Y-83804178D01*
X49353512Y-83702464D01*
X49397243Y-83633045D01*
X49452782Y-83579017D01*
X49494291Y-83548713D01*
X49616219Y-83459493D01*
X49763627Y-83342558D01*
X49926571Y-83206600D01*
X50095105Y-83060315D01*
X50259284Y-82912396D01*
X50409163Y-82771537D01*
X50534797Y-82646431D01*
X50574425Y-82604490D01*
X50792693Y-82361508D01*
X50973080Y-82144984D01*
X51118031Y-81950485D01*
X51229994Y-81773581D01*
X51311415Y-81609837D01*
X51364741Y-81454821D01*
X51392418Y-81304100D01*
X51395334Y-81205791D01*
X51181135Y-81205791D01*
X51169496Y-81347222D01*
X51135805Y-81482971D01*
X51075669Y-81624644D01*
X50984694Y-81783843D01*
X50930782Y-81866900D01*
X50815967Y-82023934D01*
X50668481Y-82202619D01*
X50496446Y-82394327D01*
X50307982Y-82590431D01*
X50111210Y-82782303D01*
X49914251Y-82961315D01*
X49843149Y-83022399D01*
X49729612Y-83118219D01*
X49630562Y-83201691D01*
X49552072Y-83267706D01*
X49500215Y-83311157D01*
X49481064Y-83326934D01*
X49481062Y-83326934D01*
X49484879Y-83304134D01*
X49496813Y-83242697D01*
X49514682Y-83153732D01*
X49524596Y-83105150D01*
X49568457Y-82884222D01*
X49613197Y-82646098D01*
X49657401Y-82399398D01*
X49699651Y-82152743D01*
X49738532Y-81914754D01*
X49772627Y-81694051D01*
X49800519Y-81499254D01*
X49820792Y-81338986D01*
X49830313Y-81244600D01*
X49845783Y-81081833D01*
X49865235Y-80959953D01*
X49894435Y-80869077D01*
X49939147Y-80799323D01*
X50005139Y-80740809D01*
X50098175Y-80683653D01*
X50184020Y-80638370D01*
X50300801Y-80582349D01*
X50363517Y-80559671D01*
X49730376Y-80559671D01*
X49712755Y-80806885D01*
X49685913Y-81101488D01*
X49645519Y-81415546D01*
X49590136Y-81759179D01*
X49534996Y-82057400D01*
X49501785Y-82230530D01*
X49467171Y-82413850D01*
X49434341Y-82590292D01*
X49406484Y-82742791D01*
X49395067Y-82806700D01*
X49325185Y-83148212D01*
X49241648Y-83451264D01*
X49140493Y-83727265D01*
X49017753Y-83987622D01*
X48930010Y-84144609D01*
X48816618Y-84324348D01*
X48700504Y-84480590D01*
X48573166Y-84621730D01*
X48426104Y-84756164D01*
X48250818Y-84892285D01*
X48038805Y-85038491D01*
X47997200Y-85065799D01*
X47802690Y-85188804D01*
X47586066Y-85319032D01*
X47354598Y-85452634D01*
X47115555Y-85585762D01*
X46876208Y-85714569D01*
X46643826Y-85835206D01*
X46425679Y-85943826D01*
X46229036Y-86036580D01*
X46061168Y-86109621D01*
X45935629Y-86157024D01*
X45827861Y-86186143D01*
X45692835Y-86212729D01*
X45544929Y-86234998D01*
X45398521Y-86251169D01*
X45267989Y-86259457D01*
X45167713Y-86258079D01*
X45143821Y-86255217D01*
X45090270Y-86239603D01*
X45004848Y-86207225D01*
X44901373Y-86163529D01*
X44836057Y-86133995D01*
X44695440Y-86070466D01*
X44564042Y-86015529D01*
X44431505Y-85965639D01*
X44287475Y-85917254D01*
X44121596Y-85866829D01*
X43923511Y-85810820D01*
X43768031Y-85768517D01*
X43534825Y-85703481D01*
X43272854Y-85626593D01*
X42995168Y-85541959D01*
X42714820Y-85453687D01*
X42444860Y-85365886D01*
X42198339Y-85282661D01*
X41993368Y-85209978D01*
X41880239Y-85167572D01*
X41803176Y-85134021D01*
X41750333Y-85101299D01*
X41709863Y-85061378D01*
X41669921Y-85006230D01*
X41651628Y-84978400D01*
X41594934Y-84880112D01*
X41526018Y-84742611D01*
X41448707Y-84574879D01*
X41393205Y-84446779D01*
X41222063Y-84446779D01*
X41207253Y-84441544D01*
X41170294Y-84406930D01*
X41106192Y-84339838D01*
X41061890Y-84292600D01*
X40967008Y-84186032D01*
X40868556Y-84066899D01*
X40783264Y-83955696D01*
X40758790Y-83921245D01*
X40689971Y-83828484D01*
X40598326Y-83714703D01*
X40496521Y-83595229D01*
X40409704Y-83498761D01*
X40243815Y-83304531D01*
X40124473Y-83129280D01*
X40051754Y-82973171D01*
X40025734Y-82836368D01*
X40046490Y-82719035D01*
X40046794Y-82718298D01*
X40078680Y-82666322D01*
X40131999Y-82630329D01*
X40207060Y-82603578D01*
X40335586Y-82573135D01*
X40438009Y-82569672D01*
X40531601Y-82593729D01*
X40578394Y-82615176D01*
X40646547Y-82659136D01*
X40681539Y-82712770D01*
X40693931Y-82760729D01*
X40708517Y-82821697D01*
X40735170Y-82917995D01*
X40770166Y-83036668D01*
X40809786Y-83164763D01*
X40811974Y-83171662D01*
X40848438Y-83289922D01*
X40877162Y-83389752D01*
X40895599Y-83461776D01*
X40901203Y-83496615D01*
X40900645Y-83498222D01*
X40879741Y-83485327D01*
X40830006Y-83442142D01*
X40758059Y-83374762D01*
X40670521Y-83289283D01*
X40633174Y-83251943D01*
X40540211Y-83161113D01*
X40458685Y-83086548D01*
X40395603Y-83034276D01*
X40357974Y-83010321D01*
X40351754Y-83009928D01*
X40327678Y-83052376D01*
X40343876Y-83125221D01*
X40400399Y-83228658D01*
X40413608Y-83248684D01*
X40474788Y-83333015D01*
X40560462Y-83442529D01*
X40660557Y-83565183D01*
X40765000Y-83688932D01*
X40863717Y-83801733D01*
X40946637Y-83891542D01*
X40976186Y-83921318D01*
X41031262Y-83987424D01*
X41084883Y-84079997D01*
X41140875Y-84206726D01*
X41203063Y-84375297D01*
X41205209Y-84381500D01*
X41219717Y-84425731D01*
X41222063Y-84446779D01*
X41393205Y-84446779D01*
X41366828Y-84385901D01*
X41284211Y-84184660D01*
X41204683Y-83980141D01*
X41132073Y-83781326D01*
X41093250Y-83668001D01*
X41036973Y-83506331D01*
X40972585Y-83333320D01*
X40907248Y-83167556D01*
X40848126Y-83027626D01*
X40836573Y-83001954D01*
X40786764Y-82890897D01*
X40745872Y-82795854D01*
X40718039Y-82726734D01*
X40707410Y-82693445D01*
X40707400Y-82693102D01*
X40724588Y-82668536D01*
X40766536Y-82672733D01*
X40818825Y-82702126D01*
X40846590Y-82727548D01*
X40906361Y-82768255D01*
X40998223Y-82805411D01*
X41103524Y-82832989D01*
X41203614Y-82844963D01*
X41210301Y-82845064D01*
X41248327Y-82869402D01*
X41295235Y-82939632D01*
X41324186Y-82997244D01*
X41390882Y-83114398D01*
X41459014Y-83181814D01*
X41468975Y-83187479D01*
X41566562Y-83220005D01*
X41662448Y-83222023D01*
X41739729Y-83194163D01*
X41760052Y-83176600D01*
X41788709Y-83123824D01*
X41774315Y-83085913D01*
X41728251Y-83073305D01*
X41637328Y-83048573D01*
X41558102Y-82976802D01*
X41493515Y-82860993D01*
X41477111Y-82817162D01*
X41445719Y-82713105D01*
X41409843Y-82575862D01*
X41373444Y-82422342D01*
X41340481Y-82269450D01*
X41314915Y-82134096D01*
X41309852Y-82103122D01*
X41318157Y-82042192D01*
X41359413Y-82009725D01*
X41423192Y-82007743D01*
X41499071Y-82038267D01*
X41530813Y-82060295D01*
X41579071Y-82093588D01*
X41607678Y-82104654D01*
X41609201Y-82103866D01*
X41601243Y-82079388D01*
X41571214Y-82023055D01*
X41524917Y-81945482D01*
X41506924Y-81916820D01*
X41454776Y-81831682D01*
X41415307Y-81761427D01*
X41395150Y-81718064D01*
X41393861Y-81712155D01*
X41414857Y-81691113D01*
X41470079Y-81656452D01*
X41547014Y-81614455D01*
X41633148Y-81571402D01*
X41715969Y-81533576D01*
X41782962Y-81507256D01*
X41819295Y-81498600D01*
X41839094Y-81507009D01*
X41854839Y-81537934D01*
X41868993Y-81599915D01*
X41884022Y-81701494D01*
X41888936Y-81739900D01*
X41912640Y-81862864D01*
X41954447Y-82013608D01*
X42010019Y-82181174D01*
X42075016Y-82354602D01*
X42145102Y-82522934D01*
X42215937Y-82675212D01*
X42283183Y-82800477D01*
X42342502Y-82887769D01*
X42344135Y-82889713D01*
X42414496Y-82972726D01*
X42811898Y-82958913D01*
X42984592Y-82952378D01*
X43116206Y-82945464D01*
X43216446Y-82936719D01*
X43295023Y-82924690D01*
X43361643Y-82907925D01*
X43426015Y-82884974D01*
X43491226Y-82857309D01*
X43567319Y-82820244D01*
X43608924Y-82785798D01*
X43629451Y-82739665D01*
X43636996Y-82701839D01*
X43648506Y-82615330D01*
X43648607Y-82611783D01*
X43421603Y-82611783D01*
X43384231Y-82665195D01*
X43314819Y-82691601D01*
X43298200Y-82692400D01*
X43236258Y-82681311D01*
X43201681Y-82661919D01*
X43178210Y-82614423D01*
X43171200Y-82565400D01*
X43190363Y-82489214D01*
X43239459Y-82445977D01*
X43305901Y-82440840D01*
X43377100Y-82478958D01*
X43378750Y-82480436D01*
X43421565Y-82545488D01*
X43421603Y-82611783D01*
X43648607Y-82611783D01*
X43650765Y-82536288D01*
X43642149Y-82452261D01*
X43621035Y-82350797D01*
X43585798Y-82219442D01*
X43564490Y-82145859D01*
X43506981Y-81960376D01*
X43452200Y-81810971D01*
X43417827Y-81736445D01*
X42403870Y-81736445D01*
X42394649Y-81796460D01*
X42371414Y-81844157D01*
X42350532Y-81859642D01*
X42319507Y-81869627D01*
X42290851Y-81892720D01*
X42232482Y-81918030D01*
X42150603Y-81911824D01*
X42060041Y-81875919D01*
X42036305Y-81861553D01*
X41992475Y-81810456D01*
X41959956Y-81718623D01*
X41951634Y-81680734D01*
X41934042Y-81594704D01*
X41918881Y-81525315D01*
X41911934Y-81496957D01*
X41919762Y-81467982D01*
X41965268Y-81440053D01*
X42036565Y-81414407D01*
X42147189Y-81383578D01*
X42222631Y-81374738D01*
X42273860Y-81388645D01*
X42311845Y-81426060D01*
X42317140Y-81433841D01*
X42363812Y-81528462D01*
X42394142Y-81635971D01*
X42403870Y-81736445D01*
X43417827Y-81736445D01*
X43393540Y-81683788D01*
X43324391Y-81564970D01*
X43238146Y-81440660D01*
X43210478Y-81403572D01*
X43145507Y-81316684D01*
X43108007Y-81261855D01*
X43094755Y-81230663D01*
X43102531Y-81214684D01*
X43128113Y-81205496D01*
X43134144Y-81203968D01*
X43181242Y-81182873D01*
X43196600Y-81161413D01*
X43185616Y-81147154D01*
X43179888Y-81151246D01*
X43149617Y-81151349D01*
X43124964Y-81136429D01*
X43077013Y-81119988D01*
X42988739Y-81110840D01*
X42870043Y-81108622D01*
X42730821Y-81112967D01*
X42580971Y-81123511D01*
X42430392Y-81139889D01*
X42288982Y-81161736D01*
X42253477Y-81168561D01*
X42071028Y-81210307D01*
X41892210Y-81260249D01*
X41722396Y-81315925D01*
X41566959Y-81374877D01*
X41431269Y-81434643D01*
X41320698Y-81492764D01*
X41240620Y-81546779D01*
X41196404Y-81594229D01*
X41193424Y-81632653D01*
X41208287Y-81647213D01*
X41234460Y-81678380D01*
X41270930Y-81738109D01*
X41287895Y-81770062D01*
X41341813Y-81876425D01*
X41260349Y-81884362D01*
X41182500Y-81911056D01*
X41141556Y-81959130D01*
X41126439Y-81992679D01*
X41118973Y-82032619D01*
X41119429Y-82089148D01*
X41128080Y-82172461D01*
X41145194Y-82292754D01*
X41151538Y-82334436D01*
X41170438Y-82471837D01*
X41180449Y-82577318D01*
X41181100Y-82644343D01*
X41175375Y-82665254D01*
X41147251Y-82662280D01*
X41084436Y-82643379D01*
X40998706Y-82613149D01*
X40901839Y-82576187D01*
X40805613Y-82537089D01*
X40721805Y-82500452D01*
X40662193Y-82470875D01*
X40641017Y-82456682D01*
X40643993Y-82431266D01*
X40657545Y-82371394D01*
X40673057Y-82311365D01*
X40694971Y-82161827D01*
X40691869Y-81977195D01*
X40665098Y-81765799D01*
X40616005Y-81535967D01*
X40545939Y-81296030D01*
X40478665Y-81109940D01*
X40370805Y-80835581D01*
X40420997Y-80779740D01*
X40710087Y-80441178D01*
X40955629Y-80116557D01*
X41161221Y-79800912D01*
X41268825Y-79610143D01*
X41319502Y-79516510D01*
X41360188Y-79444808D01*
X41386015Y-79403396D01*
X41392713Y-79397384D01*
X41380500Y-79433757D01*
X41343156Y-79514270D01*
X41280682Y-79638917D01*
X41193083Y-79807693D01*
X41080361Y-80020591D01*
X40962179Y-80241104D01*
X40885873Y-80384107D01*
X40817179Y-80515198D01*
X40760061Y-80626619D01*
X40718487Y-80710612D01*
X40696423Y-80759416D01*
X40694621Y-80764526D01*
X40663501Y-80832070D01*
X40636959Y-80869950D01*
X40615393Y-80905258D01*
X40627615Y-80914400D01*
X40675526Y-80901434D01*
X40757642Y-80865674D01*
X40865455Y-80811825D01*
X40990458Y-80744592D01*
X41124143Y-80668679D01*
X41258002Y-80588793D01*
X41383527Y-80509639D01*
X41490149Y-80437388D01*
X41650598Y-80323316D01*
X41827623Y-80352551D01*
X41935957Y-80374412D01*
X42068479Y-80406857D01*
X42201348Y-80443923D01*
X42238674Y-80455356D01*
X42351834Y-80488927D01*
X42457279Y-80516718D01*
X42538573Y-80534534D01*
X42563420Y-80538233D01*
X42638288Y-80537037D01*
X42682237Y-80518943D01*
X42687897Y-80489239D01*
X42665732Y-80464821D01*
X42642279Y-80443918D01*
X42661580Y-80443815D01*
X42682250Y-80448725D01*
X42727227Y-80450157D01*
X42739400Y-80421159D01*
X42731378Y-80398357D01*
X42703661Y-80373425D01*
X42650780Y-80343753D01*
X42567260Y-80306731D01*
X42447632Y-80259750D01*
X42286422Y-80200199D01*
X42243645Y-80184724D01*
X42137226Y-80145272D01*
X42051072Y-80111311D01*
X41994836Y-80086784D01*
X41977762Y-80076200D01*
X41995659Y-80055728D01*
X42044966Y-80008269D01*
X42118808Y-79940229D01*
X42210311Y-79858012D01*
X42242865Y-79829168D01*
X42544412Y-79540234D01*
X42823449Y-79227839D01*
X43071819Y-78902120D01*
X43090716Y-78872458D01*
X41588839Y-78872458D01*
X41584867Y-78901912D01*
X41571626Y-78954730D01*
X41546392Y-79031491D01*
X41513857Y-79120334D01*
X41478714Y-79209396D01*
X41445655Y-79286814D01*
X41419372Y-79340727D01*
X41404559Y-79359271D01*
X41404078Y-79358944D01*
X41408317Y-79332908D01*
X41426965Y-79270488D01*
X41456554Y-79182849D01*
X41473525Y-79135378D01*
X41522765Y-79001369D01*
X41557174Y-78911726D01*
X41578494Y-78862796D01*
X41588468Y-78850924D01*
X41588839Y-78872458D01*
X43090716Y-78872458D01*
X43281366Y-78573212D01*
X43341875Y-78463300D01*
X43388746Y-78376487D01*
X43425395Y-78312398D01*
X43446631Y-78279921D01*
X43449859Y-78278488D01*
X43439263Y-78324757D01*
X43407088Y-78410524D01*
X43355748Y-78530514D01*
X43287658Y-78679449D01*
X43205232Y-78852052D01*
X43110884Y-79043045D01*
X43007029Y-79247152D01*
X43003900Y-79253214D01*
X42924100Y-79408907D01*
X42852705Y-79550470D01*
X42792887Y-79671423D01*
X42747822Y-79765286D01*
X42720684Y-79825579D01*
X42714000Y-79845026D01*
X42726758Y-79864912D01*
X42764717Y-79841388D01*
X42827406Y-79774879D01*
X42914354Y-79665811D01*
X42919028Y-79659647D01*
X43005597Y-79553463D01*
X43107154Y-79440824D01*
X43202301Y-79345418D01*
X43205831Y-79342147D01*
X43445119Y-79114224D01*
X43657491Y-78895274D01*
X43859373Y-78667774D01*
X44018215Y-78475491D01*
X44205524Y-78234700D01*
X43476000Y-78234700D01*
X43463300Y-78247400D01*
X43450600Y-78234700D01*
X43463300Y-78222000D01*
X43476000Y-78234700D01*
X44205524Y-78234700D01*
X44244793Y-78184220D01*
X44437133Y-77914355D01*
X44601045Y-77656046D01*
X44742338Y-77399443D01*
X44866822Y-77134697D01*
X44980306Y-76851957D01*
X44987947Y-76831350D01*
X45028122Y-76726187D01*
X45063140Y-76641378D01*
X45088817Y-76586638D01*
X45100051Y-76571000D01*
X45118349Y-76592037D01*
X45151376Y-76647383D01*
X45192218Y-76725386D01*
X45195101Y-76731210D01*
X45273142Y-76864773D01*
X45381945Y-77016742D01*
X45511581Y-77175108D01*
X45652121Y-77327864D01*
X45793637Y-77463004D01*
X45816883Y-77483196D01*
X45972956Y-77607713D01*
X46163204Y-77745229D01*
X46375517Y-77887807D01*
X46597786Y-78027508D01*
X46817901Y-78156394D01*
X46969048Y-78238454D01*
X47291014Y-78406509D01*
X47015457Y-78550124D01*
X46771109Y-78686424D01*
X46528899Y-78838232D01*
X46297847Y-78998928D01*
X46086973Y-79161894D01*
X45905299Y-79320510D01*
X45761846Y-79468155D01*
X45757476Y-79473220D01*
X45702796Y-79538269D01*
X45675787Y-79574977D01*
X45678691Y-79582464D01*
X45713750Y-79559852D01*
X45783207Y-79506260D01*
X45887653Y-79422150D01*
X45973230Y-79355391D01*
X46023052Y-79322503D01*
X46036321Y-79323140D01*
X46012238Y-79356954D01*
X45950002Y-79423598D01*
X45932241Y-79441502D01*
X45871913Y-79505967D01*
X45831973Y-79556808D01*
X45820310Y-79583862D01*
X45820951Y-79584816D01*
X45846463Y-79577427D01*
X45898972Y-79543120D01*
X45967763Y-79489014D01*
X45977281Y-79480950D01*
X46058503Y-79413776D01*
X46103409Y-79382050D01*
X46111982Y-79385772D01*
X46084202Y-79424943D01*
X46038769Y-79478416D01*
X45997646Y-79530342D01*
X45980569Y-79562763D01*
X45984033Y-79568200D01*
X46017488Y-79551130D01*
X46053911Y-79517609D01*
X46142220Y-79437398D01*
X46271665Y-79344023D01*
X46435496Y-79241271D01*
X46508609Y-79199900D01*
X46422400Y-79199900D01*
X46409700Y-79212600D01*
X46397000Y-79199900D01*
X46409700Y-79187200D01*
X46422400Y-79199900D01*
X46508609Y-79199900D01*
X46626961Y-79132931D01*
X46839309Y-79022790D01*
X47065788Y-78914636D01*
X47273904Y-78823526D01*
X47086766Y-78823526D01*
X47051515Y-78846092D01*
X46983319Y-78883986D01*
X46888447Y-78933564D01*
X46879600Y-78938074D01*
X46767678Y-78996046D01*
X46667020Y-79050015D01*
X46589526Y-79093490D01*
X46550099Y-79117804D01*
X46495403Y-79152561D01*
X46474450Y-79159058D01*
X46491087Y-79138344D01*
X46524000Y-79110691D01*
X46580487Y-79073101D01*
X46668184Y-79022256D01*
X46773441Y-78965259D01*
X46882608Y-78909212D01*
X46982033Y-78861219D01*
X47058068Y-78828381D01*
X47082800Y-78819933D01*
X47086766Y-78823526D01*
X47273904Y-78823526D01*
X47299646Y-78812257D01*
X47343150Y-78794264D01*
X47408585Y-78766659D01*
X47252444Y-78766659D01*
X47235200Y-78780800D01*
X47188896Y-78802293D01*
X47171700Y-78805422D01*
X47167157Y-78794940D01*
X47184400Y-78780800D01*
X47230705Y-78759306D01*
X47247900Y-78756177D01*
X47252444Y-78766659D01*
X47408585Y-78766659D01*
X47455643Y-78746807D01*
X47474181Y-78738466D01*
X47328334Y-78738466D01*
X47324847Y-78753566D01*
X47311400Y-78755400D01*
X47290493Y-78746106D01*
X47294467Y-78738466D01*
X47324611Y-78735426D01*
X47328334Y-78738466D01*
X47474181Y-78738466D01*
X47530636Y-78713066D01*
X47404534Y-78713066D01*
X47401047Y-78728166D01*
X47387600Y-78730000D01*
X47366693Y-78720706D01*
X47370667Y-78713066D01*
X47400811Y-78710026D01*
X47404534Y-78713066D01*
X47530636Y-78713066D01*
X47548746Y-78704918D01*
X47575010Y-78691900D01*
X47489200Y-78691900D01*
X47476500Y-78704600D01*
X47463800Y-78691900D01*
X47476500Y-78679200D01*
X47489200Y-78691900D01*
X47575010Y-78691900D01*
X47613563Y-78672792D01*
X47641202Y-78654624D01*
X47641600Y-78653503D01*
X47662031Y-78641100D01*
X47159000Y-78641100D01*
X47146300Y-78653800D01*
X47133600Y-78641100D01*
X47146300Y-78628400D01*
X47159000Y-78641100D01*
X47662031Y-78641100D01*
X47664443Y-78639636D01*
X47724082Y-78621632D01*
X47751050Y-78615700D01*
X47209800Y-78615700D01*
X47197100Y-78628400D01*
X47184400Y-78615700D01*
X47197100Y-78603000D01*
X47209800Y-78615700D01*
X47751050Y-78615700D01*
X47800350Y-78604856D01*
X47891687Y-78586766D01*
X47967925Y-78570360D01*
X48006107Y-78560928D01*
X48037035Y-78542022D01*
X48035744Y-78539500D01*
X47514600Y-78539500D01*
X47501900Y-78552200D01*
X47489200Y-78539500D01*
X47501900Y-78526800D01*
X47514600Y-78539500D01*
X48035744Y-78539500D01*
X48026340Y-78521130D01*
X47982609Y-78503993D01*
X47914427Y-78496351D01*
X47909459Y-78496320D01*
X47851333Y-78494426D01*
X47844945Y-78490317D01*
X47482797Y-78490317D01*
X47446066Y-78514761D01*
X47383091Y-78547227D01*
X47314500Y-78578067D01*
X47260917Y-78597636D01*
X47247900Y-78600171D01*
X47245002Y-78591275D01*
X47267190Y-78575431D01*
X47319763Y-78548208D01*
X47381574Y-78520630D01*
X47438559Y-78498248D01*
X47476655Y-78486615D01*
X47482797Y-78490317D01*
X47844945Y-78490317D01*
X47836895Y-78485140D01*
X47859074Y-78463050D01*
X47862469Y-78460370D01*
X47888929Y-78436785D01*
X47876724Y-78432448D01*
X47832100Y-78441083D01*
X47780627Y-78448697D01*
X47773485Y-78440874D01*
X47799893Y-78425200D01*
X47641600Y-78425200D01*
X47632307Y-78446107D01*
X47624667Y-78442133D01*
X47621627Y-78411989D01*
X47624667Y-78408266D01*
X47639767Y-78411753D01*
X47641600Y-78425200D01*
X47799893Y-78425200D01*
X47807661Y-78420590D01*
X47880138Y-78390817D01*
X47884809Y-78389097D01*
X47936167Y-78366974D01*
X47951424Y-78353009D01*
X47943841Y-78350789D01*
X47892025Y-78357610D01*
X47824210Y-78376529D01*
X47823731Y-78376696D01*
X47760527Y-78392548D01*
X47717123Y-78393177D01*
X47702796Y-78381416D01*
X47726822Y-78360095D01*
X47732223Y-78357466D01*
X47582334Y-78357466D01*
X47578847Y-78372566D01*
X47565400Y-78374400D01*
X47544493Y-78365106D01*
X47548467Y-78357466D01*
X47578611Y-78354426D01*
X47582334Y-78357466D01*
X47732223Y-78357466D01*
X47743200Y-78352123D01*
X47784994Y-78332611D01*
X47781755Y-78326835D01*
X47730678Y-78329884D01*
X47730500Y-78329898D01*
X47673854Y-78325521D01*
X47660651Y-78304272D01*
X47646840Y-78275988D01*
X47632318Y-78272800D01*
X47603560Y-78253204D01*
X47551469Y-78199335D01*
X47481797Y-78118569D01*
X47400294Y-78018283D01*
X47312711Y-77905855D01*
X47224801Y-77788661D01*
X47142314Y-77674078D01*
X47071001Y-77569483D01*
X47018440Y-77485400D01*
X47024312Y-77480308D01*
X47060911Y-77503291D01*
X47120373Y-77549389D01*
X47122068Y-77550781D01*
X47206619Y-77617394D01*
X47311883Y-77696268D01*
X47416397Y-77771353D01*
X47425700Y-77777840D01*
X47513489Y-77840475D01*
X47589317Y-77897479D01*
X47639990Y-77938849D01*
X47647933Y-77946328D01*
X47723695Y-78005590D01*
X47840320Y-78074861D01*
X47989630Y-78150882D01*
X48163453Y-78230396D01*
X48353611Y-78310143D01*
X48551931Y-78386865D01*
X48750237Y-78457304D01*
X48940353Y-78518201D01*
X49114105Y-78566299D01*
X49263317Y-78598338D01*
X49297095Y-78603637D01*
X49386892Y-78617059D01*
X49454081Y-78628399D01*
X49485584Y-78635429D01*
X49486347Y-78635879D01*
X49494797Y-78661336D01*
X49513667Y-78726890D01*
X49540431Y-78823519D01*
X49572565Y-78942196D01*
X49583885Y-78984536D01*
X49629933Y-79170684D01*
X49662120Y-79337736D01*
X49684315Y-79509495D01*
X49699439Y-79695200D01*
X49712208Y-79890608D01*
X49721438Y-80041175D01*
X49727034Y-80152740D01*
X49728903Y-80231143D01*
X49726949Y-80282227D01*
X49721080Y-80311831D01*
X49711200Y-80325797D01*
X49697215Y-80329964D01*
X49689190Y-80330200D01*
X49634028Y-80340035D01*
X49542961Y-80367003D01*
X49426368Y-80407299D01*
X49294628Y-80457118D01*
X49158120Y-80512652D01*
X49027222Y-80570098D01*
X48998108Y-80583599D01*
X48644903Y-80773281D01*
X48330419Y-80993013D01*
X48302000Y-81015877D01*
X48234813Y-81069499D01*
X48181255Y-81110286D01*
X48159236Y-81125453D01*
X48136655Y-81111003D01*
X48103424Y-81050369D01*
X48061157Y-80946659D01*
X48048822Y-80912839D01*
X47994402Y-80776407D01*
X47945274Y-80685369D01*
X47909049Y-80645854D01*
X47843199Y-80617340D01*
X47756262Y-80597655D01*
X47666490Y-80588836D01*
X47592140Y-80592919D01*
X47556408Y-80606522D01*
X47530446Y-80617516D01*
X47513519Y-80590419D01*
X47504580Y-80552857D01*
X47482554Y-80491821D01*
X47439464Y-80406404D01*
X47383941Y-80313440D01*
X47374121Y-80298450D01*
X47260196Y-80127000D01*
X47364358Y-80127000D01*
X47435410Y-80132267D01*
X47536895Y-80146315D01*
X47655259Y-80166509D01*
X47776949Y-80190215D01*
X47888411Y-80214800D01*
X47976093Y-80237630D01*
X48025272Y-80255429D01*
X48055285Y-80291681D01*
X48092658Y-80367302D01*
X48132640Y-80472326D01*
X48141774Y-80499803D01*
X48185641Y-80623750D01*
X48221382Y-80701612D01*
X48247855Y-80732800D01*
X48263915Y-80716726D01*
X48268422Y-80652802D01*
X48262463Y-80561909D01*
X48255818Y-80430696D01*
X48266542Y-80336541D01*
X48277849Y-80301784D01*
X48292968Y-80255637D01*
X48290230Y-80219587D01*
X48263209Y-80188579D01*
X48205474Y-80157562D01*
X48110599Y-80121483D01*
X48002188Y-80085103D01*
X47781300Y-80012700D01*
X47120900Y-80015560D01*
X46872034Y-80018045D01*
X46665443Y-80023964D01*
X46492651Y-80034558D01*
X46345179Y-80051069D01*
X46214551Y-80074737D01*
X46092289Y-80106804D01*
X45969917Y-80148511D01*
X45838956Y-80201099D01*
X45831233Y-80204375D01*
X45692656Y-80268452D01*
X45573474Y-80333437D01*
X45478862Y-80395392D01*
X45413994Y-80450377D01*
X45384044Y-80494454D01*
X45394187Y-80523684D01*
X45405105Y-80528734D01*
X45421005Y-80552644D01*
X45417760Y-80560969D01*
X45420024Y-80580651D01*
X45449844Y-80582165D01*
X45487760Y-80566580D01*
X45500211Y-80556429D01*
X45519017Y-80554570D01*
X45534372Y-80594636D01*
X45546125Y-80664379D01*
X45564657Y-80753161D01*
X45599548Y-80876959D01*
X45646784Y-81024252D01*
X45702353Y-81183519D01*
X45762242Y-81343239D01*
X45822439Y-81491891D01*
X45876509Y-81612900D01*
X45929326Y-81711482D01*
X45987647Y-81801839D01*
X46039212Y-81865054D01*
X46041117Y-81866900D01*
X46120913Y-81943100D01*
X46968500Y-81943100D01*
X47298681Y-81828800D01*
X47430647Y-81782582D01*
X47522217Y-81748189D01*
X47581158Y-81721290D01*
X47615237Y-81697556D01*
X47632222Y-81672660D01*
X47639880Y-81642273D01*
X47640504Y-81638300D01*
X47648536Y-81536700D01*
X47489200Y-81536700D01*
X47475445Y-81594988D01*
X47458720Y-81620520D01*
X47409201Y-81645967D01*
X47374900Y-81651000D01*
X47316612Y-81637244D01*
X47291080Y-81620520D01*
X47265633Y-81571000D01*
X47260600Y-81536700D01*
X47274356Y-81478411D01*
X47291080Y-81452880D01*
X47340600Y-81427432D01*
X47374900Y-81422400D01*
X47433189Y-81436155D01*
X47458720Y-81452880D01*
X47484168Y-81502399D01*
X47489200Y-81536700D01*
X47648536Y-81536700D01*
X47651444Y-81499920D01*
X47649260Y-81332493D01*
X47635207Y-81155692D01*
X47610544Y-80989190D01*
X47594241Y-80914400D01*
X47564608Y-80793218D01*
X47561435Y-80778649D01*
X46213135Y-80778649D01*
X46209202Y-80898839D01*
X46184256Y-81002117D01*
X46139004Y-81074917D01*
X46126842Y-81085169D01*
X46053328Y-81113317D01*
X45957248Y-81118468D01*
X45860506Y-81102177D01*
X45785011Y-81065997D01*
X45778481Y-81060450D01*
X45742339Y-81009695D01*
X45700170Y-80924563D01*
X45657622Y-80820117D01*
X45620346Y-80711420D01*
X45593990Y-80613534D01*
X45584200Y-80542460D01*
X45609493Y-80493241D01*
X45685124Y-80441160D01*
X45810729Y-80386436D01*
X45896943Y-80356593D01*
X45966673Y-80342228D01*
X46022382Y-80354812D01*
X46072623Y-80400480D01*
X46125949Y-80485368D01*
X46155135Y-80541812D01*
X46195348Y-80655118D01*
X46213135Y-80778649D01*
X47561435Y-80778649D01*
X47547724Y-80715716D01*
X47543177Y-80676509D01*
X47550557Y-80670210D01*
X47569455Y-80691435D01*
X47578179Y-80703604D01*
X47628615Y-80749174D01*
X47698785Y-80785267D01*
X47702978Y-80786699D01*
X47740313Y-80801468D01*
X47769608Y-80823169D01*
X47796033Y-80860543D01*
X47824761Y-80922331D01*
X47860966Y-81017275D01*
X47894057Y-81109641D01*
X47958418Y-81294777D01*
X48004631Y-81441493D01*
X48033095Y-81558662D01*
X48044209Y-81655158D01*
X48038371Y-81739855D01*
X48015978Y-81821625D01*
X47977431Y-81909342D01*
X47933700Y-81992566D01*
X47866083Y-82124291D01*
X47828992Y-82216350D01*
X47822631Y-82269838D01*
X47847203Y-82285846D01*
X47902912Y-82265467D01*
X47976009Y-82219583D01*
X48044700Y-82159346D01*
X48116872Y-82076949D01*
X48154955Y-82023656D01*
X48202710Y-81940571D01*
X48229942Y-81863890D01*
X48243521Y-81770533D01*
X48247163Y-81713917D01*
X48248120Y-81607313D01*
X48241641Y-81506852D01*
X48230380Y-81439944D01*
X48217977Y-81380420D01*
X48219096Y-81348122D01*
X48222113Y-81346200D01*
X48250488Y-81334237D01*
X48311835Y-81302175D01*
X48395386Y-81255752D01*
X48442316Y-81228837D01*
X48556418Y-81162721D01*
X48676151Y-81093317D01*
X48779169Y-81033581D01*
X48797300Y-81023063D01*
X48873248Y-80981373D01*
X48983263Y-80924088D01*
X49115451Y-80857255D01*
X49257920Y-80786919D01*
X49340038Y-80747161D01*
X49730376Y-80559671D01*
X50363517Y-80559671D01*
X50391242Y-80549646D01*
X50471194Y-80535285D01*
X50518457Y-80533400D01*
X50673834Y-80557300D01*
X50827056Y-80624472D01*
X50967351Y-80728126D01*
X51083949Y-80861468D01*
X51114445Y-80909211D01*
X51153281Y-80984364D01*
X51173884Y-81055039D01*
X51181105Y-81142806D01*
X51181135Y-81205791D01*
X51395334Y-81205791D01*
X51396893Y-81153243D01*
X51394895Y-81118017D01*
X51367244Y-80954010D01*
X51305540Y-80806381D01*
X51203633Y-80662063D01*
X51154099Y-80606453D01*
X51075586Y-80535195D01*
X50977501Y-80464071D01*
X50873333Y-80401054D01*
X50776573Y-80354115D01*
X50700710Y-80331229D01*
X50686670Y-80330200D01*
X50660012Y-80326326D01*
X50653783Y-80306202D01*
X50667078Y-80257078D01*
X50679021Y-80222590D01*
X50774858Y-79899700D01*
X50848514Y-79541348D01*
X50898317Y-79158548D01*
X50922596Y-78762315D01*
X50924786Y-78603000D01*
X50918158Y-78284763D01*
X50899294Y-77932764D01*
X50869686Y-77562152D01*
X50830823Y-77188073D01*
X50784194Y-76825678D01*
X50731290Y-76490114D01*
X50700924Y-76326847D01*
X50643713Y-76073623D01*
X50568119Y-75793815D01*
X50477596Y-75496903D01*
X50375600Y-75192369D01*
X50265586Y-74889693D01*
X50151009Y-74598357D01*
X50035325Y-74327840D01*
X49921988Y-74087624D01*
X49814455Y-73887191D01*
X49807465Y-73875286D01*
X49726605Y-73750821D01*
X49618264Y-73602094D01*
X49489413Y-73437176D01*
X49347023Y-73264142D01*
X49198063Y-73091065D01*
X49049505Y-72926017D01*
X48908318Y-72777072D01*
X48781473Y-72652303D01*
X48675941Y-72559783D01*
X48662751Y-72549470D01*
X48452179Y-72407439D01*
X48205391Y-72273415D01*
X47936951Y-72153994D01*
X47661424Y-72055777D01*
X47440357Y-71995674D01*
X47281746Y-71967602D01*
X47082526Y-71946046D01*
X46852594Y-71932050D01*
X46828800Y-71931125D01*
X46554370Y-71928208D01*
X46320367Y-71942758D01*
X46118837Y-71976755D01*
X45941826Y-72032178D01*
X45781381Y-72111005D01*
X45629547Y-72215216D01*
X45603560Y-72235973D01*
X45458126Y-72354430D01*
X45441334Y-72287525D01*
X45433892Y-72219547D01*
X45433585Y-72115320D01*
X45439390Y-71988738D01*
X45450285Y-71853693D01*
X45465245Y-71724077D01*
X45483249Y-71613783D01*
X45494567Y-71564564D01*
X45520314Y-71482416D01*
X45562160Y-71363781D01*
X45616090Y-71218822D01*
X45678090Y-71057700D01*
X45744148Y-70890579D01*
X45810248Y-70727619D01*
X45872376Y-70578983D01*
X45926519Y-70454834D01*
X45966794Y-70369044D01*
X46100638Y-70130755D01*
X46247033Y-69922354D01*
X46399075Y-69753489D01*
X46423740Y-69730535D01*
X46494411Y-69663564D01*
X46547395Y-69607607D01*
X46573532Y-69572516D01*
X46574800Y-69568028D01*
X46554571Y-69565902D01*
X46500519Y-69584656D01*
X46500519Y-69584656D01*
G37*
X46500519Y-69584656D02*
X46422594Y-69619399D01*
X46330748Y-69665236D01*
X46234932Y-69717274D01*
X46145099Y-69770618D01*
X46092200Y-69805354D01*
X45985985Y-69890377D01*
X45862170Y-70007717D01*
X45730419Y-70146829D01*
X45600398Y-70297168D01*
X45481771Y-70448187D01*
X45409893Y-70549846D01*
X45261287Y-70787082D01*
X45130679Y-71029806D01*
X45009191Y-71295348D01*
X44936987Y-71472819D01*
X44893733Y-71578619D01*
X44856166Y-71661826D01*
X44828306Y-71714116D01*
X44814176Y-71727164D01*
X44814158Y-71727135D01*
X44777377Y-71696350D01*
X44703358Y-71654180D01*
X44603023Y-71605411D01*
X44487290Y-71554829D01*
X44367080Y-71507221D01*
X44253312Y-71467372D01*
X44161800Y-71441218D01*
X43951550Y-71406849D01*
X43704838Y-71393164D01*
X43431184Y-71399254D01*
X43140111Y-71424211D01*
X42841137Y-71467127D01*
X42543786Y-71527093D01*
X42257576Y-71603200D01*
X42167900Y-71631471D01*
X42020022Y-71686655D01*
X41840906Y-71763935D01*
X41641836Y-71857610D01*
X41434097Y-71961983D01*
X41228973Y-72071355D01*
X41037750Y-72180028D01*
X40871711Y-72282303D01*
X40847100Y-72298444D01*
X40556498Y-72503947D01*
X40299394Y-72715046D01*
X40071085Y-72938000D01*
X39866863Y-73179071D01*
X39682024Y-73444518D01*
X39511863Y-73740600D01*
X39351673Y-74073579D01*
X39196750Y-74449713D01*
X39162792Y-74539182D01*
X38988145Y-75051899D01*
X38848610Y-75566661D01*
X38742019Y-76094025D01*
X38666203Y-76644548D01*
X38622380Y-77170338D01*
X38604729Y-77666864D01*
X38614757Y-78135699D01*
X38653665Y-78592504D01*
X38722649Y-79052937D01*
X38793300Y-79403100D01*
X38863931Y-79709984D01*
X38931650Y-79976680D01*
X38999996Y-80213386D01*
X39072508Y-80430304D01*
X39152727Y-80637631D01*
X39244191Y-80845569D01*
X39350440Y-81064317D01*
X39410302Y-81181100D01*
X39574372Y-81489011D01*
X39722649Y-81751289D01*
X39854868Y-81967529D01*
X39970765Y-82137326D01*
X40070075Y-82260278D01*
X40152533Y-82335980D01*
X40177551Y-82351336D01*
X40229001Y-82386185D01*
X40231944Y-82413736D01*
X40185563Y-82435512D01*
X40125729Y-82447749D01*
X40010008Y-82489024D01*
X39910474Y-82566336D01*
X39844038Y-82666426D01*
X39820867Y-82776407D01*
X39826342Y-82913334D01*
X39858724Y-83063445D01*
X39912005Y-83203982D01*
X39986975Y-83334617D01*
X40098418Y-83481981D01*
X40211298Y-83609935D01*
X40312785Y-83723484D01*
X40416867Y-83846782D01*
X40509981Y-83963412D01*
X40567916Y-84041535D01*
X40642613Y-84140356D01*
X40739910Y-84258473D01*
X40846092Y-84379661D01*
X40929226Y-84468964D01*
X41023667Y-84565853D01*
X41091545Y-84631247D01*
X41140832Y-84670902D01*
X41179503Y-84690577D01*
X41215530Y-84696028D01*
X41241757Y-84694628D01*
X41287117Y-84692648D01*
X41319406Y-84703393D01*
X41348141Y-84736084D01*
X41382844Y-84799944D01*
X41411415Y-84858993D01*
X41479110Y-84988528D01*
X41553703Y-85111398D01*
X41629957Y-85221033D01*
X41702633Y-85310866D01*
X41766493Y-85374327D01*
X41816298Y-85404848D01*
X41843216Y-85400451D01*
X41873672Y-85399664D01*
X41904741Y-85412094D01*
X41947937Y-85456647D01*
X42001014Y-85547906D01*
X42062703Y-85683017D01*
X42131736Y-85859126D01*
X42206845Y-86073379D01*
X42230621Y-86145427D01*
X42274708Y-86275023D01*
X42316595Y-86387746D01*
X42352631Y-86474504D01*
X42379161Y-86526202D01*
X42387510Y-86535936D01*
X42423389Y-86539184D01*
X42486872Y-86517273D01*
X42583574Y-86468040D01*
X42626597Y-86443786D01*
X42730406Y-86387492D01*
X42830983Y-86338488D01*
X42911162Y-86304973D01*
X42930625Y-86298592D01*
X43032950Y-86269129D01*
X43311625Y-86464021D01*
X43419164Y-86539895D01*
X43514749Y-86608566D01*
X43588960Y-86663179D01*
X43632376Y-86696881D01*
X43635943Y-86699972D01*
X43663954Y-86730174D01*
X43655782Y-86751317D01*
X43610543Y-86776844D01*
X43557534Y-86812910D01*
X43485555Y-86873750D01*
X43409762Y-86946509D01*
X43406362Y-86950004D01*
X43291934Y-87054563D01*
X43153041Y-87161277D01*
X43007152Y-87257957D01*
X42871739Y-87332413D01*
X42834138Y-87349276D01*
X42759798Y-87375425D01*
X42643619Y-87410195D01*
X42493456Y-87451673D01*
X42317163Y-87497942D01*
X42122597Y-87547087D01*
X41917613Y-87597191D01*
X41710067Y-87646338D01*
X41507812Y-87692614D01*
X41318706Y-87734102D01*
X41150603Y-87768886D01*
X41011358Y-87795050D01*
X40994518Y-87797933D01*
X40789740Y-87835054D01*
X40630115Y-87870470D01*
X40510127Y-87906163D01*
X40424265Y-87944114D01*
X40367014Y-87986305D01*
X40332861Y-88034719D01*
X40332287Y-88035956D01*
X40306096Y-88077092D01*
X40254694Y-88146001D01*
X40186194Y-88232111D01*
X40128354Y-88301768D01*
X39997037Y-88472455D01*
X39855384Y-88684224D01*
X39707358Y-88929408D01*
X39556922Y-89200343D01*
X39408039Y-89489365D01*
X39264672Y-89788807D01*
X39130786Y-90091006D01*
X39010343Y-90388296D01*
X38917017Y-90644441D01*
X38804546Y-90972800D01*
X44391368Y-90972800D01*
X44378300Y-90915650D01*
X44338902Y-90733954D01*
X44295194Y-90516437D01*
X44249404Y-90275618D01*
X44203761Y-90024016D01*
X44160493Y-89774153D01*
X44121830Y-89538548D01*
X44090000Y-89329721D01*
X44070482Y-89186603D01*
X44049512Y-89016543D01*
X44034120Y-88878367D01*
X44023869Y-88759769D01*
X44018320Y-88648442D01*
X44017034Y-88532081D01*
X44019573Y-88398380D01*
X44025500Y-88235032D01*
X44031556Y-88093578D01*
X44039278Y-87927288D01*
X44046965Y-87778691D01*
X44054177Y-87655062D01*
X44060472Y-87563673D01*
X44065410Y-87511799D01*
X44067374Y-87502759D01*
X44085144Y-87516562D01*
X44120419Y-87562930D01*
X44153774Y-87613380D01*
X44217124Y-87703675D01*
X44303693Y-87813122D01*
X44403888Y-87930957D01*
X44508112Y-88046415D01*
X44606772Y-88148731D01*
X44690273Y-88227141D01*
X44727485Y-88257067D01*
X44848363Y-88326362D01*
X44984661Y-88375695D01*
X45117631Y-88399588D01*
X45206726Y-88397082D01*
X45283101Y-88377177D01*
X45380384Y-88341675D01*
X45458082Y-88307357D01*
X45552572Y-88256652D01*
X45677141Y-88182701D01*
X45821048Y-88092497D01*
X45973549Y-87993034D01*
X46123904Y-87891302D01*
X46261371Y-87794295D01*
X46364705Y-87717186D01*
X46439906Y-87659675D01*
X46498054Y-87616631D01*
X46528960Y-87595556D01*
X46531234Y-87594600D01*
X46530989Y-87618386D01*
X46523023Y-87684869D01*
X46508523Y-87786731D01*
X46488674Y-87916654D01*
X46464663Y-88067322D01*
X46437677Y-88231417D01*
X46408901Y-88401623D01*
X46379522Y-88570621D01*
X46350727Y-88731096D01*
X46323701Y-88875730D01*
X46322582Y-88881559D01*
X46264279Y-89167529D01*
X46196631Y-89470144D01*
X46123090Y-89775468D01*
X46047106Y-90069566D01*
X45972134Y-90338504D01*
X45915018Y-90526758D01*
X45876904Y-90652050D01*
X45846175Y-90763517D01*
X45825552Y-90850476D01*
X45817752Y-90902246D01*
X45818014Y-90907758D01*
X45825500Y-90960100D01*
X49298950Y-90966540D01*
X49714628Y-90967200D01*
X50116109Y-90967621D01*
X50500485Y-90967810D01*
X50864849Y-90967776D01*
X51206292Y-90967525D01*
X51521906Y-90967065D01*
X51808784Y-90966403D01*
X52064017Y-90965548D01*
X52284698Y-90964506D01*
X52467919Y-90963286D01*
X52610771Y-90961894D01*
X52710347Y-90960338D01*
X52763739Y-90958626D01*
X52772400Y-90957551D01*
X52758798Y-90931986D01*
X52721594Y-90873028D01*
X52666188Y-90788987D01*
X52597985Y-90688174D01*
X52585060Y-90669317D01*
X52496109Y-90536867D01*
X52401112Y-90390633D01*
X52312801Y-90250444D01*
X52256490Y-90157606D01*
X52134507Y-89957825D01*
X52017725Y-89779164D01*
X51910246Y-89627354D01*
X51816175Y-89508127D01*
X51739617Y-89427212D01*
X51723706Y-89413650D01*
X51659693Y-89369179D01*
X51594669Y-89343652D01*
X51508351Y-89330466D01*
X51457006Y-89326789D01*
X51347779Y-89315418D01*
X51279410Y-89295206D01*
X51248400Y-89271798D01*
X51217195Y-89234779D01*
X51161596Y-89168668D01*
X51089860Y-89083288D01*
X51020981Y-89001252D01*
X50922512Y-88884884D01*
X50813852Y-88757974D01*
X50711672Y-88639934D01*
X50663722Y-88585200D01*
X50589394Y-88498408D01*
X50493890Y-88383234D01*
X50386946Y-88251614D01*
X50278294Y-88115479D01*
X50218287Y-88039100D01*
X49952427Y-87712759D01*
X49700736Y-87433600D01*
X49461891Y-87200426D01*
X49234570Y-87012038D01*
X49017451Y-86867238D01*
X48882612Y-86800644D01*
X46795341Y-86800644D01*
X46794690Y-86802775D01*
X46780192Y-86843742D01*
X46752158Y-86919718D01*
X46715205Y-87018266D01*
X46689325Y-87086600D01*
X46649675Y-87191261D01*
X46616510Y-87279482D01*
X46594213Y-87339568D01*
X46587608Y-87358044D01*
X46562083Y-87384893D01*
X46499654Y-87433410D01*
X46407064Y-87499271D01*
X46291057Y-87578152D01*
X46158376Y-87665727D01*
X46015763Y-87757674D01*
X45869962Y-87849667D01*
X45727716Y-87937384D01*
X45595768Y-88016499D01*
X45480861Y-88082688D01*
X45389738Y-88131628D01*
X45355600Y-88148097D01*
X45231160Y-88186491D01*
X45092798Y-88200988D01*
X44962087Y-88190579D01*
X44891235Y-88169888D01*
X44831326Y-88131699D01*
X44748515Y-88061138D01*
X44650474Y-87966401D01*
X44544874Y-87855685D01*
X44439386Y-87737188D01*
X44341680Y-87619107D01*
X44259428Y-87509640D01*
X44224207Y-87457102D01*
X44163738Y-87358092D01*
X44127428Y-87286208D01*
X44109956Y-87227203D01*
X44106001Y-87166831D01*
X44106824Y-87142775D01*
X44115852Y-87023625D01*
X44131941Y-86943090D01*
X44159767Y-86889040D01*
X44204002Y-86849346D01*
X44224992Y-86836147D01*
X44310213Y-86785866D01*
X44379551Y-86949013D01*
X44434961Y-87065812D01*
X44482078Y-87136720D01*
X44519789Y-87160285D01*
X44535695Y-87152972D01*
X44543286Y-87115845D01*
X44538496Y-87039928D01*
X44523207Y-86935186D01*
X44499302Y-86811585D01*
X44468665Y-86679092D01*
X44433178Y-86547670D01*
X44403281Y-86452135D01*
X44368334Y-86344920D01*
X44341797Y-86256791D01*
X44326599Y-86197943D01*
X44324710Y-86178624D01*
X44340981Y-86175983D01*
X44379140Y-86183291D01*
X44444425Y-86202175D01*
X44542073Y-86234265D01*
X44677320Y-86281188D01*
X44834900Y-86337225D01*
X45165100Y-86455468D01*
X45495300Y-86443563D01*
X45723774Y-86427290D01*
X45918274Y-86394184D01*
X46093847Y-86340728D01*
X46265137Y-86263615D01*
X46317905Y-86239261D01*
X46345174Y-86232408D01*
X46346200Y-86233797D01*
X46341301Y-86263453D01*
X46328735Y-86326434D01*
X46318126Y-86376806D01*
X46305164Y-86470572D01*
X46301980Y-86573620D01*
X46307429Y-86673623D01*
X46320369Y-86758255D01*
X46339653Y-86815188D01*
X46360438Y-86832600D01*
X46392764Y-86810969D01*
X46411687Y-86770229D01*
X46433494Y-86725048D01*
X46477666Y-86716269D01*
X46494721Y-86718439D01*
X46561349Y-86728128D01*
X46649689Y-86740054D01*
X46685210Y-86744635D01*
X46759400Y-86757371D01*
X46792783Y-86774274D01*
X46795341Y-86800644D01*
X48882612Y-86800644D01*
X48813941Y-86766729D01*
X48672445Y-86723691D01*
X48494496Y-86691068D01*
X48293522Y-86669652D01*
X48082949Y-86660232D01*
X47876204Y-86663598D01*
X47686713Y-86680541D01*
X47598382Y-86695193D01*
X47542149Y-86701189D01*
X47509444Y-86681692D01*
X47481069Y-86625971D01*
X47445007Y-86540500D01*
X47600454Y-86397884D01*
X47686294Y-86313329D01*
X47786627Y-86205733D01*
X47885375Y-86092627D01*
X47929314Y-86039258D01*
X48020140Y-85930777D01*
X48102684Y-85840828D01*
X48171733Y-85774263D01*
X48222074Y-85735938D01*
X48248492Y-85730706D01*
X48251200Y-85739566D01*
X48269489Y-85782654D01*
X48317520Y-85840367D01*
X48385042Y-85904548D01*
X48461807Y-85967041D01*
X48537562Y-86019690D01*
X48602057Y-86054337D01*
X48645042Y-86062825D01*
X48652431Y-86058835D01*
X48658629Y-86030414D01*
X48666801Y-85961920D01*
X48675831Y-85863987D01*
X48683696Y-85760561D01*
X48699290Y-85614375D01*
X48727084Y-85433133D01*
X48764369Y-85230342D01*
X48808437Y-85019509D01*
X48856580Y-84814142D01*
X48906089Y-84627747D01*
X48921086Y-84576609D01*
X48949535Y-84503954D01*
X48997405Y-84403743D01*
X49057038Y-84291399D01*
X49098565Y-84219038D01*
X49166935Y-84097895D01*
X49233449Y-83969851D01*
X49288149Y-83854501D01*
X49309353Y-83804178D01*
X49353512Y-83702464D01*
X49397243Y-83633045D01*
X49452782Y-83579017D01*
X49494291Y-83548713D01*
X49616219Y-83459493D01*
X49763627Y-83342558D01*
X49926571Y-83206600D01*
X50095105Y-83060315D01*
X50259284Y-82912396D01*
X50409163Y-82771537D01*
X50534797Y-82646431D01*
X50574425Y-82604490D01*
X50792693Y-82361508D01*
X50973080Y-82144984D01*
X51118031Y-81950485D01*
X51229994Y-81773581D01*
X51311415Y-81609837D01*
X51364741Y-81454821D01*
X51392418Y-81304100D01*
X51395334Y-81205791D01*
X51181135Y-81205791D01*
X51169496Y-81347222D01*
X51135805Y-81482971D01*
X51075669Y-81624644D01*
X50984694Y-81783843D01*
X50930782Y-81866900D01*
X50815967Y-82023934D01*
X50668481Y-82202619D01*
X50496446Y-82394327D01*
X50307982Y-82590431D01*
X50111210Y-82782303D01*
X49914251Y-82961315D01*
X49843149Y-83022399D01*
X49729612Y-83118219D01*
X49630562Y-83201691D01*
X49552072Y-83267706D01*
X49500215Y-83311157D01*
X49481064Y-83326934D01*
X49481062Y-83326934D01*
X49484879Y-83304134D01*
X49496813Y-83242697D01*
X49514682Y-83153732D01*
X49524596Y-83105150D01*
X49568457Y-82884222D01*
X49613197Y-82646098D01*
X49657401Y-82399398D01*
X49699651Y-82152743D01*
X49738532Y-81914754D01*
X49772627Y-81694051D01*
X49800519Y-81499254D01*
X49820792Y-81338986D01*
X49830313Y-81244600D01*
X49845783Y-81081833D01*
X49865235Y-80959953D01*
X49894435Y-80869077D01*
X49939147Y-80799323D01*
X50005139Y-80740809D01*
X50098175Y-80683653D01*
X50184020Y-80638370D01*
X50300801Y-80582349D01*
X50363517Y-80559671D01*
X49730376Y-80559671D01*
X49712755Y-80806885D01*
X49685913Y-81101488D01*
X49645519Y-81415546D01*
X49590136Y-81759179D01*
X49534996Y-82057400D01*
X49501785Y-82230530D01*
X49467171Y-82413850D01*
X49434341Y-82590292D01*
X49406484Y-82742791D01*
X49395067Y-82806700D01*
X49325185Y-83148212D01*
X49241648Y-83451264D01*
X49140493Y-83727265D01*
X49017753Y-83987622D01*
X48930010Y-84144609D01*
X48816618Y-84324348D01*
X48700504Y-84480590D01*
X48573166Y-84621730D01*
X48426104Y-84756164D01*
X48250818Y-84892285D01*
X48038805Y-85038491D01*
X47997200Y-85065799D01*
X47802690Y-85188804D01*
X47586066Y-85319032D01*
X47354598Y-85452634D01*
X47115555Y-85585762D01*
X46876208Y-85714569D01*
X46643826Y-85835206D01*
X46425679Y-85943826D01*
X46229036Y-86036580D01*
X46061168Y-86109621D01*
X45935629Y-86157024D01*
X45827861Y-86186143D01*
X45692835Y-86212729D01*
X45544929Y-86234998D01*
X45398521Y-86251169D01*
X45267989Y-86259457D01*
X45167713Y-86258079D01*
X45143821Y-86255217D01*
X45090270Y-86239603D01*
X45004848Y-86207225D01*
X44901373Y-86163529D01*
X44836057Y-86133995D01*
X44695440Y-86070466D01*
X44564042Y-86015529D01*
X44431505Y-85965639D01*
X44287475Y-85917254D01*
X44121596Y-85866829D01*
X43923511Y-85810820D01*
X43768031Y-85768517D01*
X43534825Y-85703481D01*
X43272854Y-85626593D01*
X42995168Y-85541959D01*
X42714820Y-85453687D01*
X42444860Y-85365886D01*
X42198339Y-85282661D01*
X41993368Y-85209978D01*
X41880239Y-85167572D01*
X41803176Y-85134021D01*
X41750333Y-85101299D01*
X41709863Y-85061378D01*
X41669921Y-85006230D01*
X41651628Y-84978400D01*
X41594934Y-84880112D01*
X41526018Y-84742611D01*
X41448707Y-84574879D01*
X41393205Y-84446779D01*
X41222063Y-84446779D01*
X41207253Y-84441544D01*
X41170294Y-84406930D01*
X41106192Y-84339838D01*
X41061890Y-84292600D01*
X40967008Y-84186032D01*
X40868556Y-84066899D01*
X40783264Y-83955696D01*
X40758790Y-83921245D01*
X40689971Y-83828484D01*
X40598326Y-83714703D01*
X40496521Y-83595229D01*
X40409704Y-83498761D01*
X40243815Y-83304531D01*
X40124473Y-83129280D01*
X40051754Y-82973171D01*
X40025734Y-82836368D01*
X40046490Y-82719035D01*
X40046794Y-82718298D01*
X40078680Y-82666322D01*
X40131999Y-82630329D01*
X40207060Y-82603578D01*
X40335586Y-82573135D01*
X40438009Y-82569672D01*
X40531601Y-82593729D01*
X40578394Y-82615176D01*
X40646547Y-82659136D01*
X40681539Y-82712770D01*
X40693931Y-82760729D01*
X40708517Y-82821697D01*
X40735170Y-82917995D01*
X40770166Y-83036668D01*
X40809786Y-83164763D01*
X40811974Y-83171662D01*
X40848438Y-83289922D01*
X40877162Y-83389752D01*
X40895599Y-83461776D01*
X40901203Y-83496615D01*
X40900645Y-83498222D01*
X40879741Y-83485327D01*
X40830006Y-83442142D01*
X40758059Y-83374762D01*
X40670521Y-83289283D01*
X40633174Y-83251943D01*
X40540211Y-83161113D01*
X40458685Y-83086548D01*
X40395603Y-83034276D01*
X40357974Y-83010321D01*
X40351754Y-83009928D01*
X40327678Y-83052376D01*
X40343876Y-83125221D01*
X40400399Y-83228658D01*
X40413608Y-83248684D01*
X40474788Y-83333015D01*
X40560462Y-83442529D01*
X40660557Y-83565183D01*
X40765000Y-83688932D01*
X40863717Y-83801733D01*
X40946637Y-83891542D01*
X40976186Y-83921318D01*
X41031262Y-83987424D01*
X41084883Y-84079997D01*
X41140875Y-84206726D01*
X41203063Y-84375297D01*
X41205209Y-84381500D01*
X41219717Y-84425731D01*
X41222063Y-84446779D01*
X41393205Y-84446779D01*
X41366828Y-84385901D01*
X41284211Y-84184660D01*
X41204683Y-83980141D01*
X41132073Y-83781326D01*
X41093250Y-83668001D01*
X41036973Y-83506331D01*
X40972585Y-83333320D01*
X40907248Y-83167556D01*
X40848126Y-83027626D01*
X40836573Y-83001954D01*
X40786764Y-82890897D01*
X40745872Y-82795854D01*
X40718039Y-82726734D01*
X40707410Y-82693445D01*
X40707400Y-82693102D01*
X40724588Y-82668536D01*
X40766536Y-82672733D01*
X40818825Y-82702126D01*
X40846590Y-82727548D01*
X40906361Y-82768255D01*
X40998223Y-82805411D01*
X41103524Y-82832989D01*
X41203614Y-82844963D01*
X41210301Y-82845064D01*
X41248327Y-82869402D01*
X41295235Y-82939632D01*
X41324186Y-82997244D01*
X41390882Y-83114398D01*
X41459014Y-83181814D01*
X41468975Y-83187479D01*
X41566562Y-83220005D01*
X41662448Y-83222023D01*
X41739729Y-83194163D01*
X41760052Y-83176600D01*
X41788709Y-83123824D01*
X41774315Y-83085913D01*
X41728251Y-83073305D01*
X41637328Y-83048573D01*
X41558102Y-82976802D01*
X41493515Y-82860993D01*
X41477111Y-82817162D01*
X41445719Y-82713105D01*
X41409843Y-82575862D01*
X41373444Y-82422342D01*
X41340481Y-82269450D01*
X41314915Y-82134096D01*
X41309852Y-82103122D01*
X41318157Y-82042192D01*
X41359413Y-82009725D01*
X41423192Y-82007743D01*
X41499071Y-82038267D01*
X41530813Y-82060295D01*
X41579071Y-82093588D01*
X41607678Y-82104654D01*
X41609201Y-82103866D01*
X41601243Y-82079388D01*
X41571214Y-82023055D01*
X41524917Y-81945482D01*
X41506924Y-81916820D01*
X41454776Y-81831682D01*
X41415307Y-81761427D01*
X41395150Y-81718064D01*
X41393861Y-81712155D01*
X41414857Y-81691113D01*
X41470079Y-81656452D01*
X41547014Y-81614455D01*
X41633148Y-81571402D01*
X41715969Y-81533576D01*
X41782962Y-81507256D01*
X41819295Y-81498600D01*
X41839094Y-81507009D01*
X41854839Y-81537934D01*
X41868993Y-81599915D01*
X41884022Y-81701494D01*
X41888936Y-81739900D01*
X41912640Y-81862864D01*
X41954447Y-82013608D01*
X42010019Y-82181174D01*
X42075016Y-82354602D01*
X42145102Y-82522934D01*
X42215937Y-82675212D01*
X42283183Y-82800477D01*
X42342502Y-82887769D01*
X42344135Y-82889713D01*
X42414496Y-82972726D01*
X42811898Y-82958913D01*
X42984592Y-82952378D01*
X43116206Y-82945464D01*
X43216446Y-82936719D01*
X43295023Y-82924690D01*
X43361643Y-82907925D01*
X43426015Y-82884974D01*
X43491226Y-82857309D01*
X43567319Y-82820244D01*
X43608924Y-82785798D01*
X43629451Y-82739665D01*
X43636996Y-82701839D01*
X43648506Y-82615330D01*
X43648607Y-82611783D01*
X43421603Y-82611783D01*
X43384231Y-82665195D01*
X43314819Y-82691601D01*
X43298200Y-82692400D01*
X43236258Y-82681311D01*
X43201681Y-82661919D01*
X43178210Y-82614423D01*
X43171200Y-82565400D01*
X43190363Y-82489214D01*
X43239459Y-82445977D01*
X43305901Y-82440840D01*
X43377100Y-82478958D01*
X43378750Y-82480436D01*
X43421565Y-82545488D01*
X43421603Y-82611783D01*
X43648607Y-82611783D01*
X43650765Y-82536288D01*
X43642149Y-82452261D01*
X43621035Y-82350797D01*
X43585798Y-82219442D01*
X43564490Y-82145859D01*
X43506981Y-81960376D01*
X43452200Y-81810971D01*
X43417827Y-81736445D01*
X42403870Y-81736445D01*
X42394649Y-81796460D01*
X42371414Y-81844157D01*
X42350532Y-81859642D01*
X42319507Y-81869627D01*
X42290851Y-81892720D01*
X42232482Y-81918030D01*
X42150603Y-81911824D01*
X42060041Y-81875919D01*
X42036305Y-81861553D01*
X41992475Y-81810456D01*
X41959956Y-81718623D01*
X41951634Y-81680734D01*
X41934042Y-81594704D01*
X41918881Y-81525315D01*
X41911934Y-81496957D01*
X41919762Y-81467982D01*
X41965268Y-81440053D01*
X42036565Y-81414407D01*
X42147189Y-81383578D01*
X42222631Y-81374738D01*
X42273860Y-81388645D01*
X42311845Y-81426060D01*
X42317140Y-81433841D01*
X42363812Y-81528462D01*
X42394142Y-81635971D01*
X42403870Y-81736445D01*
X43417827Y-81736445D01*
X43393540Y-81683788D01*
X43324391Y-81564970D01*
X43238146Y-81440660D01*
X43210478Y-81403572D01*
X43145507Y-81316684D01*
X43108007Y-81261855D01*
X43094755Y-81230663D01*
X43102531Y-81214684D01*
X43128113Y-81205496D01*
X43134144Y-81203968D01*
X43181242Y-81182873D01*
X43196600Y-81161413D01*
X43185616Y-81147154D01*
X43179888Y-81151246D01*
X43149617Y-81151349D01*
X43124964Y-81136429D01*
X43077013Y-81119988D01*
X42988739Y-81110840D01*
X42870043Y-81108622D01*
X42730821Y-81112967D01*
X42580971Y-81123511D01*
X42430392Y-81139889D01*
X42288982Y-81161736D01*
X42253477Y-81168561D01*
X42071028Y-81210307D01*
X41892210Y-81260249D01*
X41722396Y-81315925D01*
X41566959Y-81374877D01*
X41431269Y-81434643D01*
X41320698Y-81492764D01*
X41240620Y-81546779D01*
X41196404Y-81594229D01*
X41193424Y-81632653D01*
X41208287Y-81647213D01*
X41234460Y-81678380D01*
X41270930Y-81738109D01*
X41287895Y-81770062D01*
X41341813Y-81876425D01*
X41260349Y-81884362D01*
X41182500Y-81911056D01*
X41141556Y-81959130D01*
X41126439Y-81992679D01*
X41118973Y-82032619D01*
X41119429Y-82089148D01*
X41128080Y-82172461D01*
X41145194Y-82292754D01*
X41151538Y-82334436D01*
X41170438Y-82471837D01*
X41180449Y-82577318D01*
X41181100Y-82644343D01*
X41175375Y-82665254D01*
X41147251Y-82662280D01*
X41084436Y-82643379D01*
X40998706Y-82613149D01*
X40901839Y-82576187D01*
X40805613Y-82537089D01*
X40721805Y-82500452D01*
X40662193Y-82470875D01*
X40641017Y-82456682D01*
X40643993Y-82431266D01*
X40657545Y-82371394D01*
X40673057Y-82311365D01*
X40694971Y-82161827D01*
X40691869Y-81977195D01*
X40665098Y-81765799D01*
X40616005Y-81535967D01*
X40545939Y-81296030D01*
X40478665Y-81109940D01*
X40370805Y-80835581D01*
X40420997Y-80779740D01*
X40710087Y-80441178D01*
X40955629Y-80116557D01*
X41161221Y-79800912D01*
X41268825Y-79610143D01*
X41319502Y-79516510D01*
X41360188Y-79444808D01*
X41386015Y-79403396D01*
X41392713Y-79397384D01*
X41380500Y-79433757D01*
X41343156Y-79514270D01*
X41280682Y-79638917D01*
X41193083Y-79807693D01*
X41080361Y-80020591D01*
X40962179Y-80241104D01*
X40885873Y-80384107D01*
X40817179Y-80515198D01*
X40760061Y-80626619D01*
X40718487Y-80710612D01*
X40696423Y-80759416D01*
X40694621Y-80764526D01*
X40663501Y-80832070D01*
X40636959Y-80869950D01*
X40615393Y-80905258D01*
X40627615Y-80914400D01*
X40675526Y-80901434D01*
X40757642Y-80865674D01*
X40865455Y-80811825D01*
X40990458Y-80744592D01*
X41124143Y-80668679D01*
X41258002Y-80588793D01*
X41383527Y-80509639D01*
X41490149Y-80437388D01*
X41650598Y-80323316D01*
X41827623Y-80352551D01*
X41935957Y-80374412D01*
X42068479Y-80406857D01*
X42201348Y-80443923D01*
X42238674Y-80455356D01*
X42351834Y-80488927D01*
X42457279Y-80516718D01*
X42538573Y-80534534D01*
X42563420Y-80538233D01*
X42638288Y-80537037D01*
X42682237Y-80518943D01*
X42687897Y-80489239D01*
X42665732Y-80464821D01*
X42642279Y-80443918D01*
X42661580Y-80443815D01*
X42682250Y-80448725D01*
X42727227Y-80450157D01*
X42739400Y-80421159D01*
X42731378Y-80398357D01*
X42703661Y-80373425D01*
X42650780Y-80343753D01*
X42567260Y-80306731D01*
X42447632Y-80259750D01*
X42286422Y-80200199D01*
X42243645Y-80184724D01*
X42137226Y-80145272D01*
X42051072Y-80111311D01*
X41994836Y-80086784D01*
X41977762Y-80076200D01*
X41995659Y-80055728D01*
X42044966Y-80008269D01*
X42118808Y-79940229D01*
X42210311Y-79858012D01*
X42242865Y-79829168D01*
X42544412Y-79540234D01*
X42823449Y-79227839D01*
X43071819Y-78902120D01*
X43090716Y-78872458D01*
X41588839Y-78872458D01*
X41584867Y-78901912D01*
X41571626Y-78954730D01*
X41546392Y-79031491D01*
X41513857Y-79120334D01*
X41478714Y-79209396D01*
X41445655Y-79286814D01*
X41419372Y-79340727D01*
X41404559Y-79359271D01*
X41404078Y-79358944D01*
X41408317Y-79332908D01*
X41426965Y-79270488D01*
X41456554Y-79182849D01*
X41473525Y-79135378D01*
X41522765Y-79001369D01*
X41557174Y-78911726D01*
X41578494Y-78862796D01*
X41588468Y-78850924D01*
X41588839Y-78872458D01*
X43090716Y-78872458D01*
X43281366Y-78573212D01*
X43341875Y-78463300D01*
X43388746Y-78376487D01*
X43425395Y-78312398D01*
X43446631Y-78279921D01*
X43449859Y-78278488D01*
X43439263Y-78324757D01*
X43407088Y-78410524D01*
X43355748Y-78530514D01*
X43287658Y-78679449D01*
X43205232Y-78852052D01*
X43110884Y-79043045D01*
X43007029Y-79247152D01*
X43003900Y-79253214D01*
X42924100Y-79408907D01*
X42852705Y-79550470D01*
X42792887Y-79671423D01*
X42747822Y-79765286D01*
X42720684Y-79825579D01*
X42714000Y-79845026D01*
X42726758Y-79864912D01*
X42764717Y-79841388D01*
X42827406Y-79774879D01*
X42914354Y-79665811D01*
X42919028Y-79659647D01*
X43005597Y-79553463D01*
X43107154Y-79440824D01*
X43202301Y-79345418D01*
X43205831Y-79342147D01*
X43445119Y-79114224D01*
X43657491Y-78895274D01*
X43859373Y-78667774D01*
X44018215Y-78475491D01*
X44205524Y-78234700D01*
X43476000Y-78234700D01*
X43463300Y-78247400D01*
X43450600Y-78234700D01*
X43463300Y-78222000D01*
X43476000Y-78234700D01*
X44205524Y-78234700D01*
X44244793Y-78184220D01*
X44437133Y-77914355D01*
X44601045Y-77656046D01*
X44742338Y-77399443D01*
X44866822Y-77134697D01*
X44980306Y-76851957D01*
X44987947Y-76831350D01*
X45028122Y-76726187D01*
X45063140Y-76641378D01*
X45088817Y-76586638D01*
X45100051Y-76571000D01*
X45118349Y-76592037D01*
X45151376Y-76647383D01*
X45192218Y-76725386D01*
X45195101Y-76731210D01*
X45273142Y-76864773D01*
X45381945Y-77016742D01*
X45511581Y-77175108D01*
X45652121Y-77327864D01*
X45793637Y-77463004D01*
X45816883Y-77483196D01*
X45972956Y-77607713D01*
X46163204Y-77745229D01*
X46375517Y-77887807D01*
X46597786Y-78027508D01*
X46817901Y-78156394D01*
X46969048Y-78238454D01*
X47291014Y-78406509D01*
X47015457Y-78550124D01*
X46771109Y-78686424D01*
X46528899Y-78838232D01*
X46297847Y-78998928D01*
X46086973Y-79161894D01*
X45905299Y-79320510D01*
X45761846Y-79468155D01*
X45757476Y-79473220D01*
X45702796Y-79538269D01*
X45675787Y-79574977D01*
X45678691Y-79582464D01*
X45713750Y-79559852D01*
X45783207Y-79506260D01*
X45887653Y-79422150D01*
X45973230Y-79355391D01*
X46023052Y-79322503D01*
X46036321Y-79323140D01*
X46012238Y-79356954D01*
X45950002Y-79423598D01*
X45932241Y-79441502D01*
X45871913Y-79505967D01*
X45831973Y-79556808D01*
X45820310Y-79583862D01*
X45820951Y-79584816D01*
X45846463Y-79577427D01*
X45898972Y-79543120D01*
X45967763Y-79489014D01*
X45977281Y-79480950D01*
X46058503Y-79413776D01*
X46103409Y-79382050D01*
X46111982Y-79385772D01*
X46084202Y-79424943D01*
X46038769Y-79478416D01*
X45997646Y-79530342D01*
X45980569Y-79562763D01*
X45984033Y-79568200D01*
X46017488Y-79551130D01*
X46053911Y-79517609D01*
X46142220Y-79437398D01*
X46271665Y-79344023D01*
X46435496Y-79241271D01*
X46508609Y-79199900D01*
X46422400Y-79199900D01*
X46409700Y-79212600D01*
X46397000Y-79199900D01*
X46409700Y-79187200D01*
X46422400Y-79199900D01*
X46508609Y-79199900D01*
X46626961Y-79132931D01*
X46839309Y-79022790D01*
X47065788Y-78914636D01*
X47273904Y-78823526D01*
X47086766Y-78823526D01*
X47051515Y-78846092D01*
X46983319Y-78883986D01*
X46888447Y-78933564D01*
X46879600Y-78938074D01*
X46767678Y-78996046D01*
X46667020Y-79050015D01*
X46589526Y-79093490D01*
X46550099Y-79117804D01*
X46495403Y-79152561D01*
X46474450Y-79159058D01*
X46491087Y-79138344D01*
X46524000Y-79110691D01*
X46580487Y-79073101D01*
X46668184Y-79022256D01*
X46773441Y-78965259D01*
X46882608Y-78909212D01*
X46982033Y-78861219D01*
X47058068Y-78828381D01*
X47082800Y-78819933D01*
X47086766Y-78823526D01*
X47273904Y-78823526D01*
X47299646Y-78812257D01*
X47343150Y-78794264D01*
X47408585Y-78766659D01*
X47252444Y-78766659D01*
X47235200Y-78780800D01*
X47188896Y-78802293D01*
X47171700Y-78805422D01*
X47167157Y-78794940D01*
X47184400Y-78780800D01*
X47230705Y-78759306D01*
X47247900Y-78756177D01*
X47252444Y-78766659D01*
X47408585Y-78766659D01*
X47455643Y-78746807D01*
X47474181Y-78738466D01*
X47328334Y-78738466D01*
X47324847Y-78753566D01*
X47311400Y-78755400D01*
X47290493Y-78746106D01*
X47294467Y-78738466D01*
X47324611Y-78735426D01*
X47328334Y-78738466D01*
X47474181Y-78738466D01*
X47530636Y-78713066D01*
X47404534Y-78713066D01*
X47401047Y-78728166D01*
X47387600Y-78730000D01*
X47366693Y-78720706D01*
X47370667Y-78713066D01*
X47400811Y-78710026D01*
X47404534Y-78713066D01*
X47530636Y-78713066D01*
X47548746Y-78704918D01*
X47575010Y-78691900D01*
X47489200Y-78691900D01*
X47476500Y-78704600D01*
X47463800Y-78691900D01*
X47476500Y-78679200D01*
X47489200Y-78691900D01*
X47575010Y-78691900D01*
X47613563Y-78672792D01*
X47641202Y-78654624D01*
X47641600Y-78653503D01*
X47662031Y-78641100D01*
X47159000Y-78641100D01*
X47146300Y-78653800D01*
X47133600Y-78641100D01*
X47146300Y-78628400D01*
X47159000Y-78641100D01*
X47662031Y-78641100D01*
X47664443Y-78639636D01*
X47724082Y-78621632D01*
X47751050Y-78615700D01*
X47209800Y-78615700D01*
X47197100Y-78628400D01*
X47184400Y-78615700D01*
X47197100Y-78603000D01*
X47209800Y-78615700D01*
X47751050Y-78615700D01*
X47800350Y-78604856D01*
X47891687Y-78586766D01*
X47967925Y-78570360D01*
X48006107Y-78560928D01*
X48037035Y-78542022D01*
X48035744Y-78539500D01*
X47514600Y-78539500D01*
X47501900Y-78552200D01*
X47489200Y-78539500D01*
X47501900Y-78526800D01*
X47514600Y-78539500D01*
X48035744Y-78539500D01*
X48026340Y-78521130D01*
X47982609Y-78503993D01*
X47914427Y-78496351D01*
X47909459Y-78496320D01*
X47851333Y-78494426D01*
X47844945Y-78490317D01*
X47482797Y-78490317D01*
X47446066Y-78514761D01*
X47383091Y-78547227D01*
X47314500Y-78578067D01*
X47260917Y-78597636D01*
X47247900Y-78600171D01*
X47245002Y-78591275D01*
X47267190Y-78575431D01*
X47319763Y-78548208D01*
X47381574Y-78520630D01*
X47438559Y-78498248D01*
X47476655Y-78486615D01*
X47482797Y-78490317D01*
X47844945Y-78490317D01*
X47836895Y-78485140D01*
X47859074Y-78463050D01*
X47862469Y-78460370D01*
X47888929Y-78436785D01*
X47876724Y-78432448D01*
X47832100Y-78441083D01*
X47780627Y-78448697D01*
X47773485Y-78440874D01*
X47799893Y-78425200D01*
X47641600Y-78425200D01*
X47632307Y-78446107D01*
X47624667Y-78442133D01*
X47621627Y-78411989D01*
X47624667Y-78408266D01*
X47639767Y-78411753D01*
X47641600Y-78425200D01*
X47799893Y-78425200D01*
X47807661Y-78420590D01*
X47880138Y-78390817D01*
X47884809Y-78389097D01*
X47936167Y-78366974D01*
X47951424Y-78353009D01*
X47943841Y-78350789D01*
X47892025Y-78357610D01*
X47824210Y-78376529D01*
X47823731Y-78376696D01*
X47760527Y-78392548D01*
X47717123Y-78393177D01*
X47702796Y-78381416D01*
X47726822Y-78360095D01*
X47732223Y-78357466D01*
X47582334Y-78357466D01*
X47578847Y-78372566D01*
X47565400Y-78374400D01*
X47544493Y-78365106D01*
X47548467Y-78357466D01*
X47578611Y-78354426D01*
X47582334Y-78357466D01*
X47732223Y-78357466D01*
X47743200Y-78352123D01*
X47784994Y-78332611D01*
X47781755Y-78326835D01*
X47730678Y-78329884D01*
X47730500Y-78329898D01*
X47673854Y-78325521D01*
X47660651Y-78304272D01*
X47646840Y-78275988D01*
X47632318Y-78272800D01*
X47603560Y-78253204D01*
X47551469Y-78199335D01*
X47481797Y-78118569D01*
X47400294Y-78018283D01*
X47312711Y-77905855D01*
X47224801Y-77788661D01*
X47142314Y-77674078D01*
X47071001Y-77569483D01*
X47018440Y-77485400D01*
X47024312Y-77480308D01*
X47060911Y-77503291D01*
X47120373Y-77549389D01*
X47122068Y-77550781D01*
X47206619Y-77617394D01*
X47311883Y-77696268D01*
X47416397Y-77771353D01*
X47425700Y-77777840D01*
X47513489Y-77840475D01*
X47589317Y-77897479D01*
X47639990Y-77938849D01*
X47647933Y-77946328D01*
X47723695Y-78005590D01*
X47840320Y-78074861D01*
X47989630Y-78150882D01*
X48163453Y-78230396D01*
X48353611Y-78310143D01*
X48551931Y-78386865D01*
X48750237Y-78457304D01*
X48940353Y-78518201D01*
X49114105Y-78566299D01*
X49263317Y-78598338D01*
X49297095Y-78603637D01*
X49386892Y-78617059D01*
X49454081Y-78628399D01*
X49485584Y-78635429D01*
X49486347Y-78635879D01*
X49494797Y-78661336D01*
X49513667Y-78726890D01*
X49540431Y-78823519D01*
X49572565Y-78942196D01*
X49583885Y-78984536D01*
X49629933Y-79170684D01*
X49662120Y-79337736D01*
X49684315Y-79509495D01*
X49699439Y-79695200D01*
X49712208Y-79890608D01*
X49721438Y-80041175D01*
X49727034Y-80152740D01*
X49728903Y-80231143D01*
X49726949Y-80282227D01*
X49721080Y-80311831D01*
X49711200Y-80325797D01*
X49697215Y-80329964D01*
X49689190Y-80330200D01*
X49634028Y-80340035D01*
X49542961Y-80367003D01*
X49426368Y-80407299D01*
X49294628Y-80457118D01*
X49158120Y-80512652D01*
X49027222Y-80570098D01*
X48998108Y-80583599D01*
X48644903Y-80773281D01*
X48330419Y-80993013D01*
X48302000Y-81015877D01*
X48234813Y-81069499D01*
X48181255Y-81110286D01*
X48159236Y-81125453D01*
X48136655Y-81111003D01*
X48103424Y-81050369D01*
X48061157Y-80946659D01*
X48048822Y-80912839D01*
X47994402Y-80776407D01*
X47945274Y-80685369D01*
X47909049Y-80645854D01*
X47843199Y-80617340D01*
X47756262Y-80597655D01*
X47666490Y-80588836D01*
X47592140Y-80592919D01*
X47556408Y-80606522D01*
X47530446Y-80617516D01*
X47513519Y-80590419D01*
X47504580Y-80552857D01*
X47482554Y-80491821D01*
X47439464Y-80406404D01*
X47383941Y-80313440D01*
X47374121Y-80298450D01*
X47260196Y-80127000D01*
X47364358Y-80127000D01*
X47435410Y-80132267D01*
X47536895Y-80146315D01*
X47655259Y-80166509D01*
X47776949Y-80190215D01*
X47888411Y-80214800D01*
X47976093Y-80237630D01*
X48025272Y-80255429D01*
X48055285Y-80291681D01*
X48092658Y-80367302D01*
X48132640Y-80472326D01*
X48141774Y-80499803D01*
X48185641Y-80623750D01*
X48221382Y-80701612D01*
X48247855Y-80732800D01*
X48263915Y-80716726D01*
X48268422Y-80652802D01*
X48262463Y-80561909D01*
X48255818Y-80430696D01*
X48266542Y-80336541D01*
X48277849Y-80301784D01*
X48292968Y-80255637D01*
X48290230Y-80219587D01*
X48263209Y-80188579D01*
X48205474Y-80157562D01*
X48110599Y-80121483D01*
X48002188Y-80085103D01*
X47781300Y-80012700D01*
X47120900Y-80015560D01*
X46872034Y-80018045D01*
X46665443Y-80023964D01*
X46492651Y-80034558D01*
X46345179Y-80051069D01*
X46214551Y-80074737D01*
X46092289Y-80106804D01*
X45969917Y-80148511D01*
X45838956Y-80201099D01*
X45831233Y-80204375D01*
X45692656Y-80268452D01*
X45573474Y-80333437D01*
X45478862Y-80395392D01*
X45413994Y-80450377D01*
X45384044Y-80494454D01*
X45394187Y-80523684D01*
X45405105Y-80528734D01*
X45421005Y-80552644D01*
X45417760Y-80560969D01*
X45420024Y-80580651D01*
X45449844Y-80582165D01*
X45487760Y-80566580D01*
X45500211Y-80556429D01*
X45519017Y-80554570D01*
X45534372Y-80594636D01*
X45546125Y-80664379D01*
X45564657Y-80753161D01*
X45599548Y-80876959D01*
X45646784Y-81024252D01*
X45702353Y-81183519D01*
X45762242Y-81343239D01*
X45822439Y-81491891D01*
X45876509Y-81612900D01*
X45929326Y-81711482D01*
X45987647Y-81801839D01*
X46039212Y-81865054D01*
X46041117Y-81866900D01*
X46120913Y-81943100D01*
X46968500Y-81943100D01*
X47298681Y-81828800D01*
X47430647Y-81782582D01*
X47522217Y-81748189D01*
X47581158Y-81721290D01*
X47615237Y-81697556D01*
X47632222Y-81672660D01*
X47639880Y-81642273D01*
X47640504Y-81638300D01*
X47648536Y-81536700D01*
X47489200Y-81536700D01*
X47475445Y-81594988D01*
X47458720Y-81620520D01*
X47409201Y-81645967D01*
X47374900Y-81651000D01*
X47316612Y-81637244D01*
X47291080Y-81620520D01*
X47265633Y-81571000D01*
X47260600Y-81536700D01*
X47274356Y-81478411D01*
X47291080Y-81452880D01*
X47340600Y-81427432D01*
X47374900Y-81422400D01*
X47433189Y-81436155D01*
X47458720Y-81452880D01*
X47484168Y-81502399D01*
X47489200Y-81536700D01*
X47648536Y-81536700D01*
X47651444Y-81499920D01*
X47649260Y-81332493D01*
X47635207Y-81155692D01*
X47610544Y-80989190D01*
X47594241Y-80914400D01*
X47564608Y-80793218D01*
X47561435Y-80778649D01*
X46213135Y-80778649D01*
X46209202Y-80898839D01*
X46184256Y-81002117D01*
X46139004Y-81074917D01*
X46126842Y-81085169D01*
X46053328Y-81113317D01*
X45957248Y-81118468D01*
X45860506Y-81102177D01*
X45785011Y-81065997D01*
X45778481Y-81060450D01*
X45742339Y-81009695D01*
X45700170Y-80924563D01*
X45657622Y-80820117D01*
X45620346Y-80711420D01*
X45593990Y-80613534D01*
X45584200Y-80542460D01*
X45609493Y-80493241D01*
X45685124Y-80441160D01*
X45810729Y-80386436D01*
X45896943Y-80356593D01*
X45966673Y-80342228D01*
X46022382Y-80354812D01*
X46072623Y-80400480D01*
X46125949Y-80485368D01*
X46155135Y-80541812D01*
X46195348Y-80655118D01*
X46213135Y-80778649D01*
X47561435Y-80778649D01*
X47547724Y-80715716D01*
X47543177Y-80676509D01*
X47550557Y-80670210D01*
X47569455Y-80691435D01*
X47578179Y-80703604D01*
X47628615Y-80749174D01*
X47698785Y-80785267D01*
X47702978Y-80786699D01*
X47740313Y-80801468D01*
X47769608Y-80823169D01*
X47796033Y-80860543D01*
X47824761Y-80922331D01*
X47860966Y-81017275D01*
X47894057Y-81109641D01*
X47958418Y-81294777D01*
X48004631Y-81441493D01*
X48033095Y-81558662D01*
X48044209Y-81655158D01*
X48038371Y-81739855D01*
X48015978Y-81821625D01*
X47977431Y-81909342D01*
X47933700Y-81992566D01*
X47866083Y-82124291D01*
X47828992Y-82216350D01*
X47822631Y-82269838D01*
X47847203Y-82285846D01*
X47902912Y-82265467D01*
X47976009Y-82219583D01*
X48044700Y-82159346D01*
X48116872Y-82076949D01*
X48154955Y-82023656D01*
X48202710Y-81940571D01*
X48229942Y-81863890D01*
X48243521Y-81770533D01*
X48247163Y-81713917D01*
X48248120Y-81607313D01*
X48241641Y-81506852D01*
X48230380Y-81439944D01*
X48217977Y-81380420D01*
X48219096Y-81348122D01*
X48222113Y-81346200D01*
X48250488Y-81334237D01*
X48311835Y-81302175D01*
X48395386Y-81255752D01*
X48442316Y-81228837D01*
X48556418Y-81162721D01*
X48676151Y-81093317D01*
X48779169Y-81033581D01*
X48797300Y-81023063D01*
X48873248Y-80981373D01*
X48983263Y-80924088D01*
X49115451Y-80857255D01*
X49257920Y-80786919D01*
X49340038Y-80747161D01*
X49730376Y-80559671D01*
X50363517Y-80559671D01*
X50391242Y-80549646D01*
X50471194Y-80535285D01*
X50518457Y-80533400D01*
X50673834Y-80557300D01*
X50827056Y-80624472D01*
X50967351Y-80728126D01*
X51083949Y-80861468D01*
X51114445Y-80909211D01*
X51153281Y-80984364D01*
X51173884Y-81055039D01*
X51181105Y-81142806D01*
X51181135Y-81205791D01*
X51395334Y-81205791D01*
X51396893Y-81153243D01*
X51394895Y-81118017D01*
X51367244Y-80954010D01*
X51305540Y-80806381D01*
X51203633Y-80662063D01*
X51154099Y-80606453D01*
X51075586Y-80535195D01*
X50977501Y-80464071D01*
X50873333Y-80401054D01*
X50776573Y-80354115D01*
X50700710Y-80331229D01*
X50686670Y-80330200D01*
X50660012Y-80326326D01*
X50653783Y-80306202D01*
X50667078Y-80257078D01*
X50679021Y-80222590D01*
X50774858Y-79899700D01*
X50848514Y-79541348D01*
X50898317Y-79158548D01*
X50922596Y-78762315D01*
X50924786Y-78603000D01*
X50918158Y-78284763D01*
X50899294Y-77932764D01*
X50869686Y-77562152D01*
X50830823Y-77188073D01*
X50784194Y-76825678D01*
X50731290Y-76490114D01*
X50700924Y-76326847D01*
X50643713Y-76073623D01*
X50568119Y-75793815D01*
X50477596Y-75496903D01*
X50375600Y-75192369D01*
X50265586Y-74889693D01*
X50151009Y-74598357D01*
X50035325Y-74327840D01*
X49921988Y-74087624D01*
X49814455Y-73887191D01*
X49807465Y-73875286D01*
X49726605Y-73750821D01*
X49618264Y-73602094D01*
X49489413Y-73437176D01*
X49347023Y-73264142D01*
X49198063Y-73091065D01*
X49049505Y-72926017D01*
X48908318Y-72777072D01*
X48781473Y-72652303D01*
X48675941Y-72559783D01*
X48662751Y-72549470D01*
X48452179Y-72407439D01*
X48205391Y-72273415D01*
X47936951Y-72153994D01*
X47661424Y-72055777D01*
X47440357Y-71995674D01*
X47281746Y-71967602D01*
X47082526Y-71946046D01*
X46852594Y-71932050D01*
X46828800Y-71931125D01*
X46554370Y-71928208D01*
X46320367Y-71942758D01*
X46118837Y-71976755D01*
X45941826Y-72032178D01*
X45781381Y-72111005D01*
X45629547Y-72215216D01*
X45603560Y-72235973D01*
X45458126Y-72354430D01*
X45441334Y-72287525D01*
X45433892Y-72219547D01*
X45433585Y-72115320D01*
X45439390Y-71988738D01*
X45450285Y-71853693D01*
X45465245Y-71724077D01*
X45483249Y-71613783D01*
X45494567Y-71564564D01*
X45520314Y-71482416D01*
X45562160Y-71363781D01*
X45616090Y-71218822D01*
X45678090Y-71057700D01*
X45744148Y-70890579D01*
X45810248Y-70727619D01*
X45872376Y-70578983D01*
X45926519Y-70454834D01*
X45966794Y-70369044D01*
X46100638Y-70130755D01*
X46247033Y-69922354D01*
X46399075Y-69753489D01*
X46423740Y-69730535D01*
X46494411Y-69663564D01*
X46547395Y-69607607D01*
X46573532Y-69572516D01*
X46574800Y-69568028D01*
X46554571Y-69565902D01*
X46500519Y-69584656D01*
D11*
G36*
X37906373Y-153457024D02*
G01*
X38107589Y-153497048D01*
X38486671Y-153654069D01*
X38827835Y-153882028D01*
X39117972Y-154172165D01*
X39345931Y-154513329D01*
X39502952Y-154892411D01*
X39583000Y-155294842D01*
X39583000Y-155705158D01*
X39502952Y-156107589D01*
X39345931Y-156486671D01*
X39117972Y-156827835D01*
X38827835Y-157117972D01*
X38486671Y-157345931D01*
X38107589Y-157502952D01*
X37906373Y-157542976D01*
X37705159Y-157583000D01*
X37294841Y-157583000D01*
X37093627Y-157542976D01*
X36892411Y-157502952D01*
X36513329Y-157345931D01*
X36172165Y-157117972D01*
X35882028Y-156827835D01*
X35654069Y-156486671D01*
X35497048Y-156107589D01*
X35417000Y-155705158D01*
X35417000Y-155294842D01*
X35497048Y-154892411D01*
X35654069Y-154513329D01*
X35882028Y-154172165D01*
X36172165Y-153882028D01*
X36513329Y-153654069D01*
X36892411Y-153497048D01*
X37093627Y-153457024D01*
X37294841Y-153417000D01*
X37705159Y-153417000D01*
X37906373Y-153457024D01*
X37906373Y-153457024D01*
G37*
G36*
X50406373Y-122207024D02*
G01*
X50607589Y-122247048D01*
X50986671Y-122404069D01*
X51327835Y-122632028D01*
X51617972Y-122922165D01*
X51845931Y-123263329D01*
X52002952Y-123642411D01*
X52083000Y-124044842D01*
X52083000Y-124455158D01*
X52002952Y-124857589D01*
X51845931Y-125236671D01*
X51617972Y-125577835D01*
X51327835Y-125867972D01*
X50986671Y-126095931D01*
X50607589Y-126252952D01*
X50406373Y-126292976D01*
X50205159Y-126333000D01*
X49794841Y-126333000D01*
X49593627Y-126292976D01*
X49392411Y-126252952D01*
X49013329Y-126095931D01*
X48672165Y-125867972D01*
X48382028Y-125577835D01*
X48154069Y-125236671D01*
X47997048Y-124857589D01*
X47917000Y-124455158D01*
X47917000Y-124044842D01*
X47997048Y-123642411D01*
X48154069Y-123263329D01*
X48382028Y-122922165D01*
X48672165Y-122632028D01*
X49013329Y-122404069D01*
X49392411Y-122247048D01*
X49593627Y-122207024D01*
X49794841Y-122167000D01*
X50205159Y-122167000D01*
X50406373Y-122207024D01*
X50406373Y-122207024D01*
G37*
G36*
X40406373Y-122207024D02*
G01*
X40607589Y-122247048D01*
X40986671Y-122404069D01*
X41327835Y-122632028D01*
X41617972Y-122922165D01*
X41845931Y-123263329D01*
X42002952Y-123642411D01*
X42083000Y-124044842D01*
X42083000Y-124455158D01*
X42002952Y-124857589D01*
X41845931Y-125236671D01*
X41617972Y-125577835D01*
X41327835Y-125867972D01*
X40986671Y-126095931D01*
X40607589Y-126252952D01*
X40406373Y-126292976D01*
X40205159Y-126333000D01*
X39794841Y-126333000D01*
X39593627Y-126292976D01*
X39392411Y-126252952D01*
X39013329Y-126095931D01*
X38672165Y-125867972D01*
X38382028Y-125577835D01*
X38154069Y-125236671D01*
X37997048Y-124857589D01*
X37917000Y-124455158D01*
X37917000Y-124044842D01*
X37997048Y-123642411D01*
X38154069Y-123263329D01*
X38382028Y-122922165D01*
X38672165Y-122632028D01*
X39013329Y-122404069D01*
X39392411Y-122247048D01*
X39593627Y-122207024D01*
X39794841Y-122167000D01*
X40205159Y-122167000D01*
X40406373Y-122207024D01*
X40406373Y-122207024D01*
G37*
G36*
X47348389Y-106508395D02*
G01*
X48813577Y-107115296D01*
X48813578Y-107115297D01*
X50132213Y-107996380D01*
X51253620Y-109117787D01*
X51842341Y-109998871D01*
X52134704Y-110436423D01*
X52741605Y-111901611D01*
X53051000Y-113457044D01*
X53051000Y-115042956D01*
X52741605Y-116598389D01*
X52134704Y-118063577D01*
X52134703Y-118063578D01*
X51253620Y-119382213D01*
X50132213Y-120503620D01*
X49251129Y-121092341D01*
X48813577Y-121384704D01*
X47348389Y-121991605D01*
X45792956Y-122301000D01*
X44207044Y-122301000D01*
X42651611Y-121991605D01*
X41186423Y-121384704D01*
X40748871Y-121092341D01*
X39867787Y-120503620D01*
X38746380Y-119382213D01*
X37865297Y-118063578D01*
X37865296Y-118063577D01*
X37258395Y-116598389D01*
X36949000Y-115042956D01*
X36949000Y-113457044D01*
X37258395Y-111901611D01*
X37865296Y-110436423D01*
X38157659Y-109998871D01*
X38746380Y-109117787D01*
X39867787Y-107996380D01*
X41186422Y-107115297D01*
X41186423Y-107115296D01*
X42651611Y-106508395D01*
X44207044Y-106199000D01*
X45792956Y-106199000D01*
X47348389Y-106508395D01*
X47348389Y-106508395D01*
G37*
G36*
X34475331Y-112518211D02*
G01*
X34803092Y-112653974D01*
X35098070Y-112851072D01*
X35348928Y-113101930D01*
X35546026Y-113396908D01*
X35681789Y-113724669D01*
X35751000Y-114072616D01*
X35751000Y-114427384D01*
X35681789Y-114775331D01*
X35546026Y-115103092D01*
X35348928Y-115398070D01*
X35098070Y-115648928D01*
X34803092Y-115846026D01*
X34475331Y-115981789D01*
X34127384Y-116051000D01*
X33772616Y-116051000D01*
X33424669Y-115981789D01*
X33096908Y-115846026D01*
X32801930Y-115648928D01*
X32551072Y-115398070D01*
X32353974Y-115103092D01*
X32218211Y-114775331D01*
X32149000Y-114427384D01*
X32149000Y-114072616D01*
X32218211Y-113724669D01*
X32353974Y-113396908D01*
X32551072Y-113101930D01*
X32801930Y-112851072D01*
X33096908Y-112653974D01*
X33424669Y-112518211D01*
X33772616Y-112449000D01*
X34127384Y-112449000D01*
X34475331Y-112518211D01*
X34475331Y-112518211D01*
G37*
G36*
X56575331Y-112518211D02*
G01*
X56903092Y-112653974D01*
X57198070Y-112851072D01*
X57448928Y-113101930D01*
X57646026Y-113396908D01*
X57781789Y-113724669D01*
X57851000Y-114072616D01*
X57851000Y-114427384D01*
X57781789Y-114775331D01*
X57646026Y-115103092D01*
X57448928Y-115398070D01*
X57198070Y-115648928D01*
X56903092Y-115846026D01*
X56575331Y-115981789D01*
X56227384Y-116051000D01*
X55872616Y-116051000D01*
X55524669Y-115981789D01*
X55196908Y-115846026D01*
X54901930Y-115648928D01*
X54651072Y-115398070D01*
X54453974Y-115103092D01*
X54318211Y-114775331D01*
X54249000Y-114427384D01*
X54249000Y-114072616D01*
X54318211Y-113724669D01*
X54453974Y-113396908D01*
X54651072Y-113101930D01*
X54901930Y-112851072D01*
X55196908Y-112653974D01*
X55524669Y-112518211D01*
X55872616Y-112449000D01*
X56227384Y-112449000D01*
X56575331Y-112518211D01*
X56575331Y-112518211D01*
G37*
G36*
X40607589Y-62247048D02*
G01*
X40986671Y-62404069D01*
X41327835Y-62632028D01*
X41617972Y-62922165D01*
X41845931Y-63263329D01*
X42002952Y-63642411D01*
X42083000Y-64044842D01*
X42083000Y-64455158D01*
X42002952Y-64857589D01*
X41845931Y-65236671D01*
X41617972Y-65577835D01*
X41327835Y-65867972D01*
X40986671Y-66095931D01*
X40607589Y-66252952D01*
X40406373Y-66292976D01*
X40205159Y-66333000D01*
X39794841Y-66333000D01*
X39593627Y-66292976D01*
X39392411Y-66252952D01*
X39013329Y-66095931D01*
X38672165Y-65867972D01*
X38382028Y-65577835D01*
X38154069Y-65236671D01*
X37997048Y-64857589D01*
X37917000Y-64455158D01*
X37917000Y-64044842D01*
X37997048Y-63642411D01*
X38154069Y-63263329D01*
X38382028Y-62922165D01*
X38672165Y-62632028D01*
X39013329Y-62404069D01*
X39392411Y-62247048D01*
X39794841Y-62167000D01*
X40205159Y-62167000D01*
X40607589Y-62247048D01*
X40607589Y-62247048D01*
G37*
G36*
X50607589Y-62247048D02*
G01*
X50986671Y-62404069D01*
X51327835Y-62632028D01*
X51617972Y-62922165D01*
X51845931Y-63263329D01*
X52002952Y-63642411D01*
X52083000Y-64044842D01*
X52083000Y-64455158D01*
X52002952Y-64857589D01*
X51845931Y-65236671D01*
X51617972Y-65577835D01*
X51327835Y-65867972D01*
X50986671Y-66095931D01*
X50607589Y-66252952D01*
X50406373Y-66292976D01*
X50205159Y-66333000D01*
X49794841Y-66333000D01*
X49593627Y-66292976D01*
X49392411Y-66252952D01*
X49013329Y-66095931D01*
X48672165Y-65867972D01*
X48382028Y-65577835D01*
X48154069Y-65236671D01*
X47997048Y-64857589D01*
X47917000Y-64455158D01*
X47917000Y-64044842D01*
X47997048Y-63642411D01*
X48154069Y-63263329D01*
X48382028Y-62922165D01*
X48672165Y-62632028D01*
X49013329Y-62404069D01*
X49392411Y-62247048D01*
X49794841Y-62167000D01*
X50205159Y-62167000D01*
X50607589Y-62247048D01*
X50607589Y-62247048D01*
G37*
G36*
X37906373Y-30957024D02*
G01*
X38107589Y-30997048D01*
X38486671Y-31154069D01*
X38827835Y-31382028D01*
X39117972Y-31672165D01*
X39345931Y-32013329D01*
X39502952Y-32392411D01*
X39583000Y-32794842D01*
X39583000Y-33205158D01*
X39502952Y-33607589D01*
X39345931Y-33986671D01*
X39117972Y-34327835D01*
X38827835Y-34617972D01*
X38486671Y-34845931D01*
X38107589Y-35002952D01*
X37906373Y-35042976D01*
X37705159Y-35083000D01*
X37294841Y-35083000D01*
X37093627Y-35042976D01*
X36892411Y-35002952D01*
X36513329Y-34845931D01*
X36172165Y-34617972D01*
X35882028Y-34327835D01*
X35654069Y-33986671D01*
X35497048Y-33607589D01*
X35417000Y-33205158D01*
X35417000Y-32794842D01*
X35497048Y-32392411D01*
X35654069Y-32013329D01*
X35882028Y-31672165D01*
X36172165Y-31382028D01*
X36513329Y-31154069D01*
X36892411Y-30997048D01*
X37093627Y-30957024D01*
X37294841Y-30917000D01*
X37705159Y-30917000D01*
X37906373Y-30957024D01*
X37906373Y-30957024D01*
G37*
M02*
