G04 #@! TF.GenerationSoftware,KiCad,Pcbnew,(5.1.0)-1*
G04 #@! TF.CreationDate,2019-05-28T14:34:34-04:00*
G04 #@! TF.ProjectId,Power Supply_Panel,506f7765-7220-4537-9570-706c795f5061,rev?*
G04 #@! TF.SameCoordinates,Original*
G04 #@! TF.FileFunction,Legend,Bot*
G04 #@! TF.FilePolarity,Positive*
%FSLAX46Y46*%
G04 Gerber Fmt 4.6, Leading zero omitted, Abs format (unit mm)*
G04 Created by KiCad (PCBNEW (5.1.0)-1) date 2019-05-28 14:34:34*
%MOMM*%
%LPD*%
G04 APERTURE LIST*
%ADD10C,0.250000*%
%ADD11C,0.350000*%
G04 APERTURE END LIST*
D10*
X49357142Y-100928571D02*
X49357142Y-99428571D01*
X48785714Y-99428571D01*
X48642857Y-99500000D01*
X48571428Y-99571428D01*
X48500000Y-99714285D01*
X48500000Y-99928571D01*
X48571428Y-100071428D01*
X48642857Y-100142857D01*
X48785714Y-100214285D01*
X49357142Y-100214285D01*
X47928571Y-100857142D02*
X47714285Y-100928571D01*
X47357142Y-100928571D01*
X47214285Y-100857142D01*
X47142857Y-100785714D01*
X47071428Y-100642857D01*
X47071428Y-100500000D01*
X47142857Y-100357142D01*
X47214285Y-100285714D01*
X47357142Y-100214285D01*
X47642857Y-100142857D01*
X47785714Y-100071428D01*
X47857142Y-100000000D01*
X47928571Y-99857142D01*
X47928571Y-99714285D01*
X47857142Y-99571428D01*
X47785714Y-99500000D01*
X47642857Y-99428571D01*
X47285714Y-99428571D01*
X47071428Y-99500000D01*
X46428571Y-99428571D02*
X46428571Y-100642857D01*
X46357142Y-100785714D01*
X46285714Y-100857142D01*
X46142857Y-100928571D01*
X45857142Y-100928571D01*
X45714285Y-100857142D01*
X45642857Y-100785714D01*
X45571428Y-100642857D01*
X45571428Y-99428571D01*
X43714285Y-100928571D02*
X43714285Y-99428571D01*
X43357142Y-99428571D01*
X43142857Y-99500000D01*
X43000000Y-99642857D01*
X42928571Y-99785714D01*
X42857142Y-100071428D01*
X42857142Y-100285714D01*
X42928571Y-100571428D01*
X43000000Y-100714285D01*
X43142857Y-100857142D01*
X43357142Y-100928571D01*
X43714285Y-100928571D01*
X42214285Y-100928571D02*
X42214285Y-99428571D01*
X41500000Y-100928571D02*
X41500000Y-99428571D01*
X40642857Y-100928571D01*
X40642857Y-99428571D01*
X47892857Y-103428571D02*
X47892857Y-101928571D01*
X47178571Y-103428571D02*
X47178571Y-101928571D01*
X46321428Y-103428571D01*
X46321428Y-101928571D01*
X45607142Y-103428571D02*
X45607142Y-101928571D01*
X45035714Y-101928571D01*
X44892857Y-102000000D01*
X44821428Y-102071428D01*
X44750000Y-102214285D01*
X44750000Y-102428571D01*
X44821428Y-102571428D01*
X44892857Y-102642857D01*
X45035714Y-102714285D01*
X45607142Y-102714285D01*
X44107142Y-101928571D02*
X44107142Y-103142857D01*
X44035714Y-103285714D01*
X43964285Y-103357142D01*
X43821428Y-103428571D01*
X43535714Y-103428571D01*
X43392857Y-103357142D01*
X43321428Y-103285714D01*
X43250000Y-103142857D01*
X43250000Y-101928571D01*
X42750000Y-101928571D02*
X41892857Y-101928571D01*
X42321428Y-103428571D02*
X42321428Y-101928571D01*
X53857142Y-149178571D02*
X53857142Y-150250000D01*
X53928571Y-150464285D01*
X54071428Y-150607142D01*
X54285714Y-150678571D01*
X54428571Y-150678571D01*
X52857142Y-149178571D02*
X52571428Y-149178571D01*
X52428571Y-149250000D01*
X52285714Y-149392857D01*
X52214285Y-149678571D01*
X52214285Y-150178571D01*
X52285714Y-150464285D01*
X52428571Y-150607142D01*
X52571428Y-150678571D01*
X52857142Y-150678571D01*
X53000000Y-150607142D01*
X53142857Y-150464285D01*
X53214285Y-150178571D01*
X53214285Y-149678571D01*
X53142857Y-149392857D01*
X53000000Y-149250000D01*
X52857142Y-149178571D01*
X51571428Y-150678571D02*
X51571428Y-149178571D01*
X50714285Y-150678571D01*
X50714285Y-149178571D01*
X50071428Y-150250000D02*
X49357142Y-150250000D01*
X50214285Y-150678571D02*
X49714285Y-149178571D01*
X49214285Y-150678571D01*
X48928571Y-149178571D02*
X48071428Y-149178571D01*
X48500000Y-150678571D02*
X48500000Y-149178571D01*
X47571428Y-150678571D02*
X47571428Y-149178571D01*
X47571428Y-149892857D02*
X46714285Y-149892857D01*
X46714285Y-150678571D02*
X46714285Y-149178571D01*
X46071428Y-150250000D02*
X45357142Y-150250000D01*
X46214285Y-150678571D02*
X45714285Y-149178571D01*
X45214285Y-150678571D01*
X44714285Y-150678571D02*
X44714285Y-149178571D01*
X43857142Y-150678571D01*
X43857142Y-149178571D01*
X42000000Y-150678571D02*
X42000000Y-149178571D01*
X41142857Y-150678571D02*
X41785714Y-149821428D01*
X41142857Y-149178571D02*
X42000000Y-150035714D01*
X40571428Y-150250000D02*
X39857142Y-150250000D01*
X40714285Y-150678571D02*
X40214285Y-149178571D01*
X39714285Y-150678571D01*
X38928571Y-149964285D02*
X38928571Y-150678571D01*
X39428571Y-149178571D02*
X38928571Y-149964285D01*
X38428571Y-149178571D01*
X37928571Y-150678571D02*
X37928571Y-149178571D01*
X37071428Y-150678571D01*
X37071428Y-149178571D01*
X36357142Y-149892857D02*
X35857142Y-149892857D01*
X35642857Y-150678571D02*
X36357142Y-150678571D01*
X36357142Y-149178571D01*
X35642857Y-149178571D01*
D11*
X49619047Y-37554761D02*
X49619047Y-35554761D01*
X48857142Y-35554761D01*
X48666666Y-35650000D01*
X48571428Y-35745238D01*
X48476190Y-35935714D01*
X48476190Y-36221428D01*
X48571428Y-36411904D01*
X48666666Y-36507142D01*
X48857142Y-36602380D01*
X49619047Y-36602380D01*
X47238095Y-35554761D02*
X46857142Y-35554761D01*
X46666666Y-35650000D01*
X46476190Y-35840476D01*
X46380952Y-36221428D01*
X46380952Y-36888095D01*
X46476190Y-37269047D01*
X46666666Y-37459523D01*
X46857142Y-37554761D01*
X47238095Y-37554761D01*
X47428571Y-37459523D01*
X47619047Y-37269047D01*
X47714285Y-36888095D01*
X47714285Y-36221428D01*
X47619047Y-35840476D01*
X47428571Y-35650000D01*
X47238095Y-35554761D01*
X45714285Y-35554761D02*
X45238095Y-37554761D01*
X44857142Y-36126190D01*
X44476190Y-37554761D01*
X44000000Y-35554761D01*
X43238095Y-36507142D02*
X42571428Y-36507142D01*
X42285714Y-37554761D02*
X43238095Y-37554761D01*
X43238095Y-35554761D01*
X42285714Y-35554761D01*
X40285714Y-37554761D02*
X40952380Y-36602380D01*
X41428571Y-37554761D02*
X41428571Y-35554761D01*
X40666666Y-35554761D01*
X40476190Y-35650000D01*
X40380952Y-35745238D01*
X40285714Y-35935714D01*
X40285714Y-36221428D01*
X40380952Y-36411904D01*
X40476190Y-36507142D01*
X40666666Y-36602380D01*
X41428571Y-36602380D01*
X50285714Y-40809523D02*
X50000000Y-40904761D01*
X49523809Y-40904761D01*
X49333333Y-40809523D01*
X49238095Y-40714285D01*
X49142857Y-40523809D01*
X49142857Y-40333333D01*
X49238095Y-40142857D01*
X49333333Y-40047619D01*
X49523809Y-39952380D01*
X49904761Y-39857142D01*
X50095238Y-39761904D01*
X50190476Y-39666666D01*
X50285714Y-39476190D01*
X50285714Y-39285714D01*
X50190476Y-39095238D01*
X50095238Y-39000000D01*
X49904761Y-38904761D01*
X49428571Y-38904761D01*
X49142857Y-39000000D01*
X48285714Y-38904761D02*
X48285714Y-40523809D01*
X48190476Y-40714285D01*
X48095238Y-40809523D01*
X47904761Y-40904761D01*
X47523809Y-40904761D01*
X47333333Y-40809523D01*
X47238095Y-40714285D01*
X47142857Y-40523809D01*
X47142857Y-38904761D01*
X46190476Y-40904761D02*
X46190476Y-38904761D01*
X45428571Y-38904761D01*
X45238095Y-39000000D01*
X45142857Y-39095238D01*
X45047619Y-39285714D01*
X45047619Y-39571428D01*
X45142857Y-39761904D01*
X45238095Y-39857142D01*
X45428571Y-39952380D01*
X46190476Y-39952380D01*
X44190476Y-40904761D02*
X44190476Y-38904761D01*
X43428571Y-38904761D01*
X43238095Y-39000000D01*
X43142857Y-39095238D01*
X43047619Y-39285714D01*
X43047619Y-39571428D01*
X43142857Y-39761904D01*
X43238095Y-39857142D01*
X43428571Y-39952380D01*
X44190476Y-39952380D01*
X41238095Y-40904761D02*
X42190476Y-40904761D01*
X42190476Y-38904761D01*
X40190476Y-39952380D02*
X40190476Y-40904761D01*
X40857142Y-38904761D02*
X40190476Y-39952380D01*
X39523809Y-38904761D01*
X47857142Y-42254761D02*
X47857142Y-43873809D01*
X47761904Y-44064285D01*
X47666666Y-44159523D01*
X47476190Y-44254761D01*
X47095238Y-44254761D01*
X46904761Y-44159523D01*
X46809523Y-44064285D01*
X46714285Y-43873809D01*
X46714285Y-42254761D01*
X45761904Y-44254761D02*
X45761904Y-42254761D01*
X44619047Y-44254761D01*
X44619047Y-42254761D01*
X43666666Y-44254761D02*
X43666666Y-42254761D01*
X43000000Y-42254761D02*
X41857142Y-42254761D01*
X42428571Y-44254761D02*
X42428571Y-42254761D01*
M02*
